<?xml version="1.0" encoding="UTF-8" standalone="no"?>
<!-- Created with Inkscape (http://www.inkscape.org/) -->

<svg
   xmlns:dc="http://purl.org/dc/elements/1.1/"
   xmlns:cc="http://creativecommons.org/ns#"
   xmlns:rdf="http://www.w3.org/1999/02/22-rdf-syntax-ns#"
   xmlns:svg="http://www.w3.org/2000/svg"
   xmlns="http://www.w3.org/2000/svg"
   xmlns:sodipodi="http://sodipodi.sourceforge.net/DTD/sodipodi-0.dtd"
   xmlns:inkscape="http://www.inkscape.org/namespaces/inkscape"
   width="20"
   height="20"
   viewBox="0 0 20 20"
   id="svg3347"
   version="1.1"
   inkscape:version="0.91 r13725"
   sodipodi:docname="Civ5Icon.Alpha.svg">
  <defs
     id="defs3349" />
  <sodipodi:namedview
     id="base"
     pagecolor="#ffffff"
     bordercolor="#666666"
     borderopacity="1.0"
     inkscape:pageopacity="0.0"
     inkscape:pageshadow="2"
     inkscape:zoom="15.839192"
     inkscape:cx="11.343131"
     inkscape:cy="10.269403"
     inkscape:document-units="px"
     inkscape:current-layer="layer1"
     showgrid="false"
     units="px"
     inkscape:window-width="1477"
     inkscape:window-height="962"
     inkscape:window-x="392"
     inkscape:window-y="36"
     inkscape:window-maximized="0" />
  <metadata
     id="metadata3352">
    <rdf:RDF>
      <cc:Work
         rdf:about="">
        <dc:format>image/svg+xml</dc:format>
        <dc:type
           rdf:resource="http://purl.org/dc/dcmitype/StillImage" />
        <dc:title></dc:title>
      </cc:Work>
    </rdf:RDF>
  </metadata>
  <g
     inkscape:label="Layer 1"
     inkscape:groupmode="layer"
     id="layer1"
     transform="translate(0,-1032.3622)">
    <g
       transform="translate(-0.96858838,1031.3799)"
       id="g10279">
      <path
         style="fill:#000000;fill-opacity:0"
         d="M 0,0.5 0,0 0.5,0 1,0 1.5,0 2,0 2.5,0 3,0 3.5,0 4,0 4.5,0 5,0 5.5,0 6,0 6.5,0 7,0 7.5,0 8,0 8.5,0 9,0 9.5,0 10,0 l 0.5,0 0.5,0 0.5,0 0.5,0 0.5,0 0.5,0 0.5,0 0.5,0 0.5,0 0.5,0 0.5,0 0.5,0 0.5,0 0.5,0 0.5,0 0.5,0 0.5,0 0.5,0 0.5,0 0.5,0 0.5,0 0.5,0 0.5,0 0.5,0 0,0.5 0,0.5 0,0.5 0,0.5 0,0.5 0,0.5 0,0.5 0,0.5 0,0.5 0,0.5 0,0.5 0,0.5 0,0.5 0,0.5 0,0.5 0,0.5 0,0.5 0,0.5 0,0.5 0,0.5 0,0.5 0,0.5 0,0.5 0,0.5 0,0.5 0,0.5 0,0.5 0,0.5 0,0.5 0,0.5 0,0.5 0,0.5 0,0.5 0,0.5 0,0.5 0,0.5 0,0.5 0,0.5 0,0.5 0,0.5 0,0.5 0,0.5 0,0.5 0,0.5 -0.5,0 L 21,22 20.5,22 20,22 19.5,22 19,22 18.5,22 18,22 17.5,22 17,22 16.5,22 16,22 15.5,22 15,22 14.5,22 14,22 13.5,22 13,22 12.5,22 12,22 11.5,22 11,22 10.5,22 10,22 9.5,22 9,22 8.5,22 8,22 7.5,22 7,22 6.5,22 6,22 5.5,22 5,22 4.5,22 4,22 3.5,22 3,22 2.5,22 2,22 1.5,22 1,22 0.5,22 0,22 0,21.5 0,21 0,20.5 0,20 0,19.5 0,19 0,18.5 0,18 0,17.5 0,17 0,16.5 0,16 0,15.5 0,15 0,14.5 0,14 0,13.5 0,13 0,12.5 0,12 0,11.5 0,11 0,10.5 0,10 0,9.5 0,9 0,8.5 0,8 0,7.5 0,7 0,6.5 0,6 0,5.5 0,5 0,4.5 0,4 0,3.5 0,3 0,2.5 0,2 0,1.5 0,1 0,0.5 M 19.5,21 q 0.5,0 0.875,-0.125 0.375,-0.125 0.5,-0.5 L 21,20 21,19.5 21,19 21,18.5 21,18 21,17.5 21,17 21,16.5 21,16 21,15.5 21,15 21,14.5 21,14 21,13.5 21,13 21,12.5 21,12 21,11.5 21,11 21,10.5 21,10 21,9.5 21,9 21,8.5 21,8 21,7.5 21,7 21,6.5 21,6 21,5.5 21,5 21,4.5 21,4 21,3.5 21,3 21,2.5 21,2 20.875,1.625 Q 20.75,1.25 20.375,1.125 20,1 19.5,1 19,1 18.5,1 18,1 17.5,1 17,1 16.5,1 L 16,1 15.5,1 Q 15,1 14.5,1 L 14,1 13.5,1 13,1 12.5,1 12,1 11.5,1 11,1 10.5,1 10,1 9.5,1 Q 9,1 8.5,1 8,1 7.5,1 7,1 6.5,1 6,1 5.5,1 5,1 4.5,1 4,1 3.5,1 3,1 2.5,1 2,1 1.625,1.125 1.25,1.25 1.125,1.625 L 1,2 1,2.5 1,3 1,3.5 1,4 1,4.5 1,5 1,5.5 1,6 1,6.5 1,7 1,7.5 1,8 1,8.5 1,9 1,9.5 1,10 1,10.5 1,11 1,11.5 1,12 1,12.5 1,13 1,13.5 1,14 1,14.5 1,15 1,15.5 1,16 1,16.5 1,17 1,17.5 1,18 1,18.5 1,19 1,19.5 1,20 1.125,20.375 q 0.125,0.375 0.5,0.5 Q 2,21 2.5,21 q 0.5,0 1,0 l 0.5,0 0.5,0 0.5,0 0.5,0 q 0.5,0 1,0 l 0.5,0 0.5,0 0.5,0 0.5,0 q 0.5,0 1,0 0.5,0 1,0 l 0.5,0 0.5,0 0.5,0 0.5,0 0.5,0 0.5,0 0.5,0 0.5,0 q 0.5,0 1,0 0.5,0 1,0 0.5,0 1,0 0.5,0 1,0 0.5,0 1,0"
         id="path10281"
         inkscape:connector-curvature="0" />
      <path
         style="fill:#00ff96;fill-opacity:1"
         d="M 1.125,1.625 Q 1.25,1.25 1.625,1.125 2,1 2.5,1 3,1 3.5,1 4,1 4.5,1 5,1 5.5,1 6,1 6.5,1 7,1 7.5,1 8,1 8.5,1 9,1 9.5,1 L 10,1 10,1.5 10,2 9.5,2 Q 9,2 8.5,2 8,2 7.5,2 7,2 6.5,2 6,2 5.5,2 5,2 4.5,2 4,2 3.5,2 3,2 2.625,2.125 L 2.25,2.25 2.53125,2.15625 2.8125,2.0625 2.625,2.125 Q 2.4375,2.1875 2.3125,2.3125 L 2.1875,2.4375 2.25,2.375 2.3125,2.3125 2.03125,2.03125 Q 1.75,1.75 1.375,1.875 L 1,2 1.125,1.625"
         id="path10283"
         inkscape:connector-curvature="0" />
      <path
         style="fill:#00fd93;fill-opacity:1"
         d="M 10,1.5 10,1 10.5,1 11,1 11,1.5 11,2 10.5,2 10,2 10,1.5"
         id="path10285"
         inkscape:connector-curvature="0" />
      <path
         style="fill:#00f792;fill-opacity:1"
         d="M 11,1.5 11,1 11.5,1 12,1 12,1.5 12,2 11.5,2 11,2 11,1.5"
         id="path10287"
         inkscape:connector-curvature="0" />
      <path
         style="fill:#00ff95;fill-opacity:1"
         d="M 12,1.5 12,1 12.5,1 13,1 13,1.5 13,2 12.5,2 12,2 12,1.5"
         id="path10289"
         inkscape:connector-curvature="0" />
      <path
         style="fill:#00ff96;fill-opacity:1"
         d="M 13,1.5 13,1 13.5,1 14,1 14,1.5 14,2 13.5,2 13,2 13,1.5"
         id="path10291"
         inkscape:connector-curvature="0" />
      <path
         style="fill:#00ff95;fill-opacity:1"
         d="M 14,1.5 14,1 14.5,1 q 0.5,0 1,0 L 16,1 16,1.5 16,2 15.5,2 Q 15,2 14.5,2 L 14,2 14,1.5"
         id="path10293"
         inkscape:connector-curvature="0" />
      <path
         style="fill:#00ff96;fill-opacity:1"
         d="M 16,1.5 16,1 16.5,1 q 0.5,0 1,0 0.5,0 1,0 0.5,0 1,0 0.5,0 0.875,0.125 0.375,0.125 0.5,0.5 L 21,2 20.625,1.875 Q 20.25,1.75 19.96875,2.03125 L 19.6875,2.3125 19.75,2.375 19.8125,2.4375 19.6875,2.3125 Q 19.5625,2.1875 19.375,2.125 L 19.1875,2.0625 19.46875,2.15625 19.75,2.25 19.375,2.125 Q 19,2 18.5,2 18,2 17.5,2 17,2 16.5,2 L 16,2 16,1.5"
         id="path10295"
         inkscape:connector-curvature="0" />
      <path
         style="fill:#00ff99;fill-opacity:1"
         d="M 1,2.5 1,2 1.375,1.875 Q 1.75,1.75 2.03125,2.03125 L 2.3125,2.3125 2.375,2.25 2.4375,2.1875 2.3125,2.3125 Q 2.1875,2.4375 2.125,2.625 L 2.0625,2.8125 2.15625,2.53125 2.25,2.25 2.125,2.625 2,3 1.5,3 1,3 1,2.5"
         id="path10297"
         inkscape:connector-curvature="0" />
      <path
         style="fill:#000000;fill-opacity:1"
         d="M 2.125,2.625 Q 2.25,2.25 2.625,2.125 3,2 3.5,2 4,2 4.5,2 5,2 5.5,2 6,2 6.5,2 7,2 7.5,2 8,2 8.5,2 9,2 9.5,2 L 10,2 9.875,2.375 Q 9.75,2.75 10.03125,3.03125 L 10.3125,3.3125 10.375,3.25 10.4375,3.1875 10.3125,3.3125 Q 10.1875,3.4375 10.125,3.625 L 10.0625,3.8125 10.15625,3.53125 10.25,3.25 10.125,3.625 Q 10,4 10,4.5 L 10,5 9.5,5 Q 9,5 8.875,5.375 8.75,5.75 9.03125,6.03125 L 9.3125,6.3125 9.375,6.25 9.4375,6.1875 9.3125,6.3125 Q 9.1875,6.4375 9.125,6.625 L 9.0625,6.8125 9.15625,6.53125 9.25,6.25 9.125,6.625 9,7 9.09375,6.71875 9.1875,6.4375 9.125,6.625 Q 9.0625,6.8125 9.03125,7.03125 L 9,7.25 9.015625,7.140625 9.03125,7.03125 8.515625,7.015625 Q 8,7 7.875,7.375 7.75,7.75 8.03125,8.03125 L 8.3125,8.3125 8.375,8.25 8.4375,8.1875 8.3125,8.3125 Q 8.1875,8.4375 8.125,8.625 L 8.0625,8.8125 8.15625,8.53125 8.25,8.25 8.125,8.625 8,9 8.09375,8.71875 8.1875,8.4375 8.125,8.625 Q 8.0625,8.8125 8.03125,9.03125 L 8,9.25 8.015625,9.140625 8.03125,9.03125 7.515625,9.015625 Q 7,9 6.875,9.375 6.75,9.75 7.03125,10.03125 L 7.3125,10.3125 7.375,10.25 7.4375,10.1875 7.3125,10.3125 Q 7.1875,10.4375 7.125,10.625 L 7.0625,10.8125 7.15625,10.53125 7.25,10.25 7.1875,10.6875 7.125,11.125 6.5625,11.0625 Q 6,11 6,11.5 L 6,12 5.875,12.375 Q 5.75,12.75 6.03125,13.03125 L 6.3125,13.3125 6.375,13.25 6.4375,13.1875 6.3125,13.3125 Q 6.1875,13.4375 6.125,13.625 L 6.0625,13.8125 6.15625,13.53125 6.25,13.25 6.125,13.625 6,14 6.09375,13.71875 6.1875,13.4375 6.125,13.625 Q 6.0625,13.8125 6.03125,14.03125 L 6,14.25 6.015625,14.140625 6.03125,14.03125 5.515625,14.015625 Q 5,14 4.875,14.375 4.75,14.75 5.03125,15.03125 L 5.3125,15.3125 5.375,15.25 5.4375,15.1875 5.3125,15.3125 Q 5.1875,15.4375 5.125,15.625 L 5.0625,15.8125 5.15625,15.53125 5.25,15.25 5.125,15.625 5,16 5.09375,15.71875 5.1875,15.4375 5.125,15.625 Q 5.0625,15.8125 5.03125,16.03125 L 5,16.25 5.015625,16.140625 5.03125,16.03125 4.515625,16.015625 Q 4,16 3.875,16.375 3.75,16.75 3.375,16.875 3,17 2.875,17.375 2.75,17.75 3.046875,18.015625 L 3.34375,18.28125 3.390625,18.234375 3.4375,18.1875 3.34375,18.28125 Q 3.25,18.375 3.25,18.5 l 0,0.125 0,-0.1875 0,-0.1875 0,0.25 q 0,0.25 0.375,0.375 Q 4,19 4.5,19 L 5,19 5.5,19 6,19 6.5,19 7,19 7.375,18.875 7.75,18.75 7.46875,18.84375 7.1875,18.9375 7.375,18.875 Q 7.5625,18.8125 7.65625,18.71875 L 7.75,18.625 7.703125,18.671875 7.65625,18.71875 7.953125,18.984375 Q 8.25,19.25 8.625,19.125 9,19 9,18.5 9,18 8.625,17.875 8.25,17.75 8.125,17.375 8,17 7.625,16.875 7.25,16.75 7.0625,16.3125 L 6.875,15.875 6.8125,15.9375 6.75,16 6.875,15.875 Q 7,15.75 7,15.5 L 7,15.25 7,15.625 7,16 7,15.5 7,15 7.5,15 Q 8,15 8,14.5 l 0,-0.5 0.5,0 0.5,0 0.5,0 0.5,0 0.5,0 0.5,0 0.5,0 0.5,0 0.5,0 0.5,0 0,0.5 q 0,0.5 0.5,0.5 l 0.5,0 0,0.5 q 0,0.5 -0.125,0.875 -0.125,0.375 -0.5,0.5 -0.375,0.125 -0.5,0.5 -0.125,0.375 0.171875,0.640625 l 0.296875,0.265625 0.04687,-0.04687 0.04687,-0.04687 -0.09375,0.09375 Q 13.25,18.375 13.25,18.5 l 0,0.125 0,-0.1875 0,-0.1875 0,0.25 q 0,0.25 0.375,0.375 Q 14,19 14.5,19 l 0.5,0 0.5,0 0.5,0 0.5,0 0.5,0 0.5,0 0.5,0 0.375,-0.125 0.375,-0.125 -0.28125,0.09375 -0.28125,0.09375 0.1875,-0.0625 q 0.1875,-0.0625 0.28125,-0.15625 L 18.75,18.625 l -0.04687,0.04687 -0.04687,0.04687 0.296875,0.265625 Q 19.25,19.25 19.625,19.125 L 20,19 19.875,19.375 q -0.125,0.375 -0.5,0.5 Q 19,20 18.5,20 q -0.5,0 -1,0 -0.5,0 -1,0 -0.5,0 -1,0 -0.5,0 -1,0 l -0.5,0 -0.5,0 -0.5,0 -0.5,0 -0.5,0 -0.5,0 -0.5,0 -0.5,0 q -0.5,0 -1,0 -0.5,0 -1,0 L 8,20 7.5,20 7,20 6.5,20 Q 6,20 5.5,20 L 5,20 4.5,20 4,20 3.5,20 Q 3,20 2.625,19.875 2.25,19.75 2.125,19.375 L 2,19 2,18.5 2,18 2,17.5 2,17 2,16.5 2,16 2,15.5 2,15 2,14.5 2,14 2,13.5 2,13 2,12.5 2,12 2,11.5 2,11 2,10.5 2,10 2,9.5 2,9 2,8.5 2,8 2,7.5 2,7 2,6.5 2,6 2,5.5 2,5 2,4.5 2,4 2,3.5 2,3 2.125,2.625 M 14,15.375 14,15 14,14.875 14,14.75 14,15 q 0,0.25 0,0.5 l 0,0.25 0,-0.375 M 10,5.125 10,5 10,4.625 10,4.25 10,4.5 q 0,0.25 0,0.5 l 0,0.25 0,-0.125"
         id="path10299"
         inkscape:connector-curvature="0" />
      <path
         style="fill:#040403;fill-opacity:1"
         d="M 9.875,2.375 10,2 10.5,2 11,2 11.0625,2.5625 11.125,3.125 10.6875,3.1875 10.25,3.25 10.53125,3.15625 10.8125,3.0625 10.625,3.125 Q 10.4375,3.1875 10.3125,3.3125 L 10.1875,3.4375 10.25,3.375 10.3125,3.3125 10.03125,3.03125 Q 9.75,2.75 9.875,2.375"
         id="path10301"
         inkscape:connector-curvature="0" />
      <path
         style="fill:#181714;fill-opacity:1"
         d="M 11.0625,2.5625 11,2 11.5,2 12,2 12.125,2.375 12.25,2.75 12.15625,2.46875 12.0625,2.1875 12.125,2.375 q 0.0625,0.1875 0.1875,0.3125 l 0.125,0.125 L 12.375,2.75 12.3125,2.6875 12,3 11.6875,3.3125 11.75,3.375 11.8125,3.4375 11.6875,3.3125 Q 11.5625,3.1875 11.375,3.125 L 11.1875,3.0625 11.46875,3.15625 11.75,3.25 11.375,3.125 11,3 11.375,3 11.75,3 11.5,3 Q 11.25,3 11.125,3.125 L 11,3.25 11.0625,3.1875 11.125,3.125 11.0625,2.5625"
         id="path10303"
         inkscape:connector-curvature="0" />
      <path
         style="fill:#000000;fill-opacity:1"
         d="M 12.125,2.375 12,2 12.5,2 13,2 13.5,2 14,2 14.5,2 q 0.5,0 1,0 l 0.5,0 0.5,0 q 0.5,0 1,0 0.5,0 1,0 0.5,0 0.875,0.125 0.375,0.125 0.5,0.5 L 20,3 l 0,0.5 0,0.5 0,0.5 0,0.5 0,0.5 0,0.5 0,0.5 0,0.5 0,0.5 0,0.5 0,0.5 0,0.5 0,0.5 0,0.5 0,0.5 0,0.5 0,0.5 0,0.5 0,0.5 0,0.5 0,0.5 0,0.5 0,0.5 0,0.5 0,0.5 0,0.5 0,0.5 0,0.5 -0.375,-0.125 Q 19.25,16.75 19,17 L 18.75,17.25 18.5,17 Q 18.25,16.75 18,16.5 17.75,16.25 17.375,16.125 L 17,16 17,15.5 Q 17,15 16.875,14.625 L 16.75,14.25 16.84375,14.53125 16.9375,14.8125 16.875,14.625 q -0.0625,-0.1875 -0.1875,-0.3125 l -0.125,-0.125 0.0625,0.0625 0.0625,0.0625 0.28125,-0.28125 Q 17.25,13.75 17.125,13.375 17,13 16.484375,13.015625 L 15.96875,13.031255 15.98438,13.14063 16,13.25 15.96875,13.03125 Q 15.9375,12.8125 15.875,12.625 L 15.8125,12.4375 15.90625,12.71875 16,13 15.875,12.625 15.75,12.25 15.84375,12.53125 15.9375,12.8125 15.875,12.625 q -0.0625,-0.1875 -0.1875,-0.3125 l -0.125,-0.125 0.0625,0.0625 0.0625,0.0625 0.28125,-0.28125 Q 16.25,11.75 16.125,11.375 16,11 15.5,11 L 15,11 15,10.5 Q 15,10 14.875,9.625 L 14.75,9.25 14.84375,9.53125 14.9375,9.8125 14.875,9.625 Q 14.8125,9.4375 14.6875,9.3125 L 14.5625,9.1875 14.625,9.25 14.6875,9.3125 14.96875,9.03125 Q 15.25,8.75 15.125,8.375 15,8 14.5,8 L 14,8 13.875,7.625 13.75,7.25 13.84375,7.53125 13.9375,7.8125 13.875,7.625 Q 13.8125,7.4375 13.6875,7.3125 L 13.5625,7.1875 13.625,7.25 13.6875,7.3125 13.96875,7.03125 Q 14.25,6.75 14.125,6.375 14,6 13.5,6 L 13,6 13,5.5 Q 13,5 12.875,4.625 L 12.75,4.25 12.84375,4.53125 12.9375,4.8125 12.875,4.625 Q 12.8125,4.4375 12.6875,4.3125 L 12.5625,4.1875 12.625,4.25 12.6875,4.3125 12.96875,4.03125 Q 13.25,3.75 13.125,3.375 13,3 12.625,2.875 12.25,2.75 12.125,2.375 M 13,5.625 13,6 13,6.125 13,6.25 13,6 q 0,-0.25 0,-0.5 l 0,-0.25 0,0.375 m 2,5 0,0.375 0,0.125 0,0.125 0,-0.25 q 0,-0.25 0,-0.5 l 0,-0.25 0,0.375 M 18.5625,17.0625 18.75,17.25 18.8125,17.3125 18.875,17.375 18.75,17.25 Q 18.625,17.125 18.5,17 l -0.125,-0.125 0.1875,0.1875"
         id="path10305"
         inkscape:connector-curvature="0" />
      <path
         style="fill:#00ff99;fill-opacity:1"
         d="M 19.875,2.625 19.75,2.25 19.84375,2.53125 19.9375,2.8125 19.875,2.625 Q 19.8125,2.4375 19.6875,2.3125 L 19.5625,2.1875 19.625,2.25 19.6875,2.3125 19.96875,2.03125 Q 20.25,1.75 20.625,1.875 L 21,2 21,2.5 21,3 20.5,3 20,3 19.875,2.625"
         id="path10307"
         inkscape:connector-curvature="0" />
      <path
         style="fill:#00ff9d;fill-opacity:1"
         d="M 1,3.5 1,3 1.5,3 2,3 2,3.5 2,4 1.5,4 1,4 1,3.5"
         id="path10309"
         inkscape:connector-curvature="0" />
      <path
         style="fill:#63615a;fill-opacity:1"
         d="M 10.125,3.625 Q 10.25,3.25 10.6875,3.1875 L 11.125,3.125 11.1875,3.0625 11.25,3 11.125,3.125 Q 11,3.25 11,3.5 L 11,3.75 11,3.375 11,3 11,3.5 11,4 10.515625,4.015625 10.03125,4.03125 10.015625,4.140625 10,4.25 10.03125,4.03125 Q 10.0625,3.8125 10.125,3.625 L 10.1875,3.4375 10.09375,3.71875 10,4 10.125,3.625 M 11,4.125 11,4 11,3.625 11,3.25 11,3.5 q 0,0.25 0,0.5 l 0,0.25 0,-0.125"
         id="path10311"
         inkscape:connector-curvature="0" />
      <path
         style="fill:#cadaba;fill-opacity:1"
         d="m 11,3.5 q 0,-0.5 0.375,-0.375 0.375,0.125 0.5,0.5 L 12,4 11.90625,3.71875 11.8125,3.4375 11.875,3.625 q 0.0625,0.1875 0.09375,0.40625 L 12,4.25 11.984375,4.140625 11.96875,4.03125 11.484375,4.015625 11,4 11,3.5"
         id="path10313"
         inkscape:connector-curvature="0" />
      <path
         style="fill:#000100;fill-opacity:1"
         d="M 11.875,3.625 11.75,3.25 11.84375,3.53125 11.9375,3.8125 11.875,3.625 Q 11.8125,3.4375 11.6875,3.3125 L 11.5625,3.1875 11.625,3.25 11.6875,3.3125 12,3 12.3125,2.6875 12.25,2.625 12.1875,2.5625 l 0.125,0.125 q 0.125,0.125 0.3125,0.1875 L 12.8125,2.9375 12.53125,2.84375 12.25,2.75 12.625,2.875 Q 13,3 13.125,3.375 13.25,3.75 12.96875,4.03125 L 12.6875,4.3125 12.75,4.375 12.8125,4.4375 12.6875,4.3125 Q 12.5625,4.1875 12.375,4.125 L 12.1875,4.0625 12.46875,4.15625 12.75,4.25 12.359375,4.140625 11.96875,4.03125 11.984375,4.140625 12,4.25 11.96875,4.03125 Q 11.9375,3.8125 11.875,3.625 L 11.8125,3.4375 11.90625,3.71875 12,4 11.875,3.625"
         id="path10315"
         inkscape:connector-curvature="0" />
      <path
         style="fill:#00ff9c;fill-opacity:1"
         d="M 20,3.5 20,3 20.5,3 21,3 21,3.5 21,4 20.5,4 20,4 20,3.5"
         id="path10317"
         inkscape:connector-curvature="0" />
      <path
         style="fill:#00ffa1;fill-opacity:1"
         d="M 1,4.5 1,4 1.5,4 2,4 2,4.5 2,5 1.5,5 1,5 1,4.5"
         id="path10319"
         inkscape:connector-curvature="0" />
      <path
         style="fill:#c4c0b5;fill-opacity:1"
         d="M 10,4.5 10,4 10,4.375 10,4.75 10,4.5 Q 10,4.25 10.03125,4.03125 L 10.0625,3.8125 10.046875,3.921875 10.03125,4.03125 10.515625,4.015625 11,4 11,4.5 11,5 11,4.625 11,4.25 11,4.5 q 0,0.25 -0.03125,0.46875 L 10.9375,5.1875 10.953125,5.078125 10.96875,4.96875 10.484375,4.984375 10,5 10,4.5 M 10,4.625 10,5 10,5.125 10,5.25 10,5 q 0,-0.25 0,-0.5 l 0,-0.25 0,0.375 M 11,4.375 11,4 11,3.875 11,3.75 11,4 q 0,0.25 0,0.5 l 0,0.25 0,-0.375"
         id="path10321"
         inkscape:connector-curvature="0" />
      <path
         style="fill:#e5ffe1;fill-opacity:1"
         d="M 11,4.5 11,4 11.484375,4.015625 11.96875,4.03125 11.953125,3.921875 11.9375,3.8125 11.96875,4.03125 Q 12,4.25 12,4.5 L 12,4.75 12,4.375 12,4 12,4.5 12,5 11.5,5 11,5 11,4.5 M 12,5.125 12,5 12,4.625 12,4.25 12,4.5 q 0,0.25 0,0.5 l 0,0.25 0,-0.125"
         id="path10323"
         inkscape:connector-curvature="0" />
      <path
         style="fill:#1c2e21;fill-opacity:1"
         d="M 12,4.5 12,4 12,4.375 12,4.75 12,4.5 Q 12,4.25 11.96875,4.03125 L 11.9375,3.8125 11.95313,3.921875 11.96876,4.03125 12.359385,4.140625 Q 12.75,4.25 12.875,4.625 L 13,5 12.90625,4.71875 12.8125,4.4375 12.875,4.625 q 0.0625,0.1875 0.09375,0.40625 L 13,5.25 12.984375,5.140625 12.96875,5.03125 12.484375,5.015625 12,5 12,4.5 M 12,4.625 12,5 12,5.125 12,5.25 12,5 q 0,-0.25 0,-0.5 l 0,-0.25 0,0.375"
         id="path10325"
         inkscape:connector-curvature="0" />
      <path
         style="fill:#00ffa1;fill-opacity:1"
         d="M 20,4.5 20,4 20.5,4 21,4 21,4.5 21,5 20.5,5 20,5 20,4.5"
         id="path10327"
         inkscape:connector-curvature="0" />
      <path
         style="fill:#00ffa5;fill-opacity:1"
         d="M 1,5.5 1,5 1.5,5 2,5 2,5.5 2,6 1.5,6 1,6 1,5.5"
         id="path10329"
         inkscape:connector-curvature="0" />
      <path
         style="fill:#2f2e2a;fill-opacity:1"
         d="M 8.875,5.375 Q 9,5 9.5,5 L 10,5 10,5.5 10,6 9.625,6.125 9.25,6.25 9.53125,6.15625 9.8125,6.0625 9.625,6.125 Q 9.4375,6.1875 9.3125,6.3125 L 9.1875,6.4375 9.25,6.375 9.3125,6.3125 9.03125,6.03125 Q 8.75,5.75 8.875,5.375 M 10,5.375 10,5 10,4.875 10,4.75 10,5 q 0,0.25 0,0.5 l 0,0.25 0,-0.375"
         id="path10331"
         inkscape:connector-curvature="0" />
      <path
         style="fill:#fffeee;fill-opacity:1"
         d="M 10,5.5 10,5 10.484375,4.984375 10.96875,4.96875 10.984375,4.859375 11,4.75 10.96875,4.96875 Q 10.9375,5.1875 10.875,5.375 L 10.8125,5.5625 10.90625,5.28125 11,5 10.875,5.375 q -0.125,0.375 -0.5,0.5 L 10,6 10,5.5 M 10,4.875 10,5 10,5.375 10,5.75 10,5.5 Q 10,5.25 10,5 l 0,-0.25 0,0.125"
         id="path10333"
         inkscape:connector-curvature="0" />
      <path
         style="fill:#d6fdd7;fill-opacity:1"
         d="M 10.875,5.375 11,5 11.5,5 12,5 12,5.5 12,6 11.625,6.125 11.25,6.25 11.53125,6.15625 11.8125,6.0625 11.625,6.125 Q 11.4375,6.1875 11.3125,6.3125 L 11.1875,6.4375 11.25,6.375 11.3125,6.3125 11,6 10.6875,5.6875 10.625,5.75 10.5625,5.8125 10.6875,5.6875 Q 10.8125,5.5625 10.875,5.375 L 10.9375,5.1875 10.84375,5.46875 10.75,5.75 10.875,5.375 M 12,5.375 12,5 12,4.875 12,4.75 12,5 q 0,0.25 0,0.5 l 0,0.25 0,-0.375"
         id="path10335"
         inkscape:connector-curvature="0" />
      <path
         style="fill:#629270;fill-opacity:1"
         d="M 12,5.5 12,5 12.484375,5.015625 12.96875,5.03125 12.953125,4.921875 12.9375,4.8125 12.96875,5.03125 Q 13,5.25 13,5.5 L 13,5.75 13,5.375 13,5 13,5.5 13,6 12.515625,5.984375 12.03125,5.96875 12.046875,6.078125 12.0625,6.1875 12.03125,5.96875 Q 12,5.75 12,5.5 L 12,5.25 12,5.625 12,6 12,5.5 M 13,6.125 13,6 13,5.625 13,5.25 13,5.5 q 0,0.25 0,0.5 l 0,0.25 0,-0.125 M 12,4.875 12,5 12,5.375 12,5.75 12,5.5 Q 12,5.25 12,5 l 0,-0.25 0,0.125"
         id="path10337"
         inkscape:connector-curvature="0" />
      <path
         style="fill:#00ffa5;fill-opacity:1"
         d="M 20,5.5 20,5 20.5,5 21,5 21,5.5 21,6 20.5,6 20,6 20,5.5"
         id="path10339"
         inkscape:connector-curvature="0" />
      <path
         style="fill:#00ffa9;fill-opacity:1"
         d="M 1,6.5 1,6 1.5,6 2,6 2,6.5 2,7 1.5,7 1,7 1,6.5"
         id="path10341"
         inkscape:connector-curvature="0" />
      <path
         style="fill:#9b9c89;fill-opacity:1"
         d="M 9.125,6.625 Q 9.25,6.25 9.625,6.125 L 10,6 9.875,6.375 Q 9.75,6.75 9.390625,6.890625 L 9.03125,7.03125 9.015625,7.140625 9,7.25 9.03125,7.03125 Q 9.0625,6.8125 9.125,6.625 L 9.1875,6.4375 9.09375,6.71875 9,7 9.125,6.625"
         id="path10343"
         inkscape:connector-curvature="0" />
      <path
         style="fill:#c1e3ba;fill-opacity:1"
         d="M 9.875,6.375 10,6 10.375,5.875 10.75,5.75 10.46875,5.84375 10.1875,5.9375 10.375,5.875 Q 10.5625,5.8125 10.6875,5.6875 L 10.8125,5.5625 10.75,5.625 10.6875,5.6875 11,6 11.3125,6.3125 11.375,6.25 11.4375,6.1875 11.3125,6.3125 Q 11.1875,6.4375 11.125,6.625 L 11.0625,6.8125 11.15625,6.53125 11.25,6.25 11.0625,6.6875 10.875,7.125 10.9375,7.1875 11,7.25 10.875,7.125 Q 10.75,7 10.5,7 L 10.25,7 10.625,7 11,7 10.625,7.125 10.25,7.25 10.53125,7.15625 10.8125,7.0625 10.625,7.125 Q 10.4375,7.1875 10.3125,7.3125 L 10.1875,7.4375 10.25,7.375 10.3125,7.3125 10,7 9.6875,6.6875 9.625,6.75 9.5625,6.8125 9.6875,6.6875 Q 9.8125,6.5625 9.875,6.375 L 9.9375,6.1875 9.84375,6.46875 9.75,6.75 9.875,6.375"
         id="path10345"
         inkscape:connector-curvature="0" />
      <path
         style="fill:#ccf6c6;fill-opacity:1"
         d="M 11.0625,6.6875 Q 11.25,6.25 11.625,6.125 L 12,6 12.125,6.375 12.25,6.75 12.15625,6.46875 12.0625,6.1875 12.125,6.375 q 0.0625,0.1875 0.1875,0.3125 l 0.125,0.125 L 12.375,6.75 12.3125,6.6875 12.015625,6.984375 11.71875,7.28125 11.796875,7.328125 11.875,7.375 11.71875,7.28125 Q 11.5625,7.1875 11.375,7.125 L 11.1875,7.0625 11.46875,7.15625 11.75,7.25 11.3125,7.1875 10.875,7.125 11.0625,6.6875"
         id="path10347"
         inkscape:connector-curvature="0" />
      <path
         style="fill:#abe6b7;fill-opacity:1"
         d="M 12.125,6.375 12,6 12.09375,6.28125 12.1875,6.5625 12.125,6.375 Q 12.0625,6.1875 12.03125,5.96875 L 12,5.75 12.015625,5.859375 12.03125,5.96875 12.515625,5.984375 13,6 13,6.5 13,7 12.625,6.875 Q 12.25,6.75 12.125,6.375 M 13,6.375 13,6 13,5.875 13,5.75 13,6 q 0,0.25 0,0.5 l 0,0.25 0,-0.375"
         id="path10349"
         inkscape:connector-curvature="0" />
      <path
         style="fill:#0b120e;fill-opacity:1"
         d="M 13,6.5 13,6 13.5,6 Q 14,6 14.125,6.375 14.25,6.75 13.96875,7.03125 L 13.6875,7.3125 13.75,7.375 13.8125,7.4375 13.6875,7.3125 Q 13.5625,7.1875 13.375,7.125 L 13.1875,7.0625 13.46875,7.15625 13.75,7.25 13.375,7.125 13,7 13,6.5 M 13,5.875 13,6 13,6.375 13,6.75 13,6.5 Q 13,6.25 13,6 l 0,-0.25 0,0.125"
         id="path10351"
         inkscape:connector-curvature="0" />
      <path
         style="fill:#00ffa9;fill-opacity:1"
         d="M 20,6.5 20,6 20.5,6 21,6 21,6.5 21,7 20.5,7 20,7 20,6.5"
         id="path10353"
         inkscape:connector-curvature="0" />
      <path
         style="fill:#00ffad;fill-opacity:1"
         d="M 1,7.5 1,7 1.5,7 2,7 2,7.5 2,8 1.5,8 1,8 1,7.5"
         id="path10355"
         inkscape:connector-curvature="0" />
      <path
         style="fill:#1e1b1b;fill-opacity:1"
         d="M 7.875,7.375 Q 8,7 8.515625,7.015625 L 9.03125,7.03125 9.046875,6.921875 9.0625,6.8125 9.03125,7.03125 Q 9,7.25 9,7.5 L 9,7.75 9,7.375 9,7 9,7.5 9,8 8.625,8.125 8.25,8.25 8.53125,8.15625 8.8125,8.0625 8.625,8.125 Q 8.4375,8.1875 8.3125,8.3125 L 8.1875,8.4375 8.25,8.375 8.3125,8.3125 8.03125,8.03125 Q 7.75,7.75 7.875,7.375"
         id="path10357"
         inkscape:connector-curvature="0" />
      <path
         style="fill:#d1e6c6;fill-opacity:1"
         d="M 9,7.5 9,7 9,7.375 9,7.75 9,7.5 Q 9,7.25 9.03125,7.03125 L 9.0625,6.8125 9.046875,6.921875 9.03125,7.03125 9.390625,6.890625 9.75,6.75 9.46875,6.84375 9.1875,6.9375 9.375,6.875 Q 9.5625,6.8125 9.6875,6.6875 L 9.8125,6.5625 9.75,6.625 9.6875,6.6875 10,7 10.3125,7.3125 10.375,7.25 10.4375,7.1875 10.3125,7.3125 Q 10.1875,7.4375 10.125,7.625 L 10.0625,7.8125 10.15625,7.53125 10.25,7.25 10.125,7.625 10,8 9.5,8 9,8 9,7.5"
         id="path10359"
         inkscape:connector-curvature="0" />
      <path
         style="fill:#1f3225;fill-opacity:1"
         d="M 10.125,7.625 Q 10.25,7.25 10.625,7.125 11,7 11,7.5 L 11,8 10.5,8 10,8 10.125,7.625"
         id="path10361"
         inkscape:connector-curvature="0" />
      <path
         style="fill:#d0dbad;fill-opacity:1"
         d="M 11,7.5 11,7 11,7.375 11,7.75 11,7.5 Q 11,7.25 10.875,7.125 L 10.75,7 10.8125,7.0625 10.875,7.125 11.3125,7.1875 Q 11.75,7.25 12,7.5 L 12.25,7.75 12.0625,7.5625 11.875,7.375 12,7.5 q 0.125,0.125 0.28125,0.21875 L 12.4375,7.8125 12.359375,7.765625 12.28125,7.71875 11.984375,8.015625 11.6875,8.3125 11.75,8.375 11.8125,8.4375 11.6875,8.3125 Q 11.5625,8.1875 11.375,8.125 L 11.1875,8.0625 11.46875,8.15625 11.75,8.25 11.375,8.125 11,8 11,7.5"
         id="path10363"
         inkscape:connector-curvature="0" />
      <path
         style="fill:#dcfed6;fill-opacity:1"
         d="M 12,7.5 11.75,7.25 11.9375,7.4375 12.125,7.625 12,7.5 Q 11.875,7.375 11.71875,7.28125 L 11.5625,7.1875 11.640625,7.234375 11.71875,7.28125 12.015625,6.984375 12.3125,6.6875 12.25,6.625 12.1875,6.5625 l 0.125,0.125 q 0.125,0.125 0.3125,0.1875 L 12.8125,6.9375 12.53125,6.84375 12.25,6.75 12.625,6.875 13,7 13,7.5 13,8 12.625,7.875 Q 12.25,7.75 12,7.5"
         id="path10365"
         inkscape:connector-curvature="0" />
      <path
         style="fill:#4a6f57;fill-opacity:1"
         d="M 13,7.5 13,7 13.375,7.125 q 0.375,0.125 0.5,0.5 L 14,8 13.90625,7.71875 13.8125,7.4375 13.875,7.625 q 0.0625,0.1875 0.09375,0.40625 L 14,8.25 13.984375,8.140625 13.96875,8.03125 13.484375,8.015625 13,8 13,7.5"
         id="path10367"
         inkscape:connector-curvature="0" />
      <path
         style="fill:#00ffad;fill-opacity:1"
         d="M 20,7.5 20,7 20.5,7 21,7 21,7.5 21,8 20.5,8 20,8 20,7.5"
         id="path10369"
         inkscape:connector-curvature="0" />
      <path
         style="fill:#00ffb2;fill-opacity:1"
         d="M 1,8.5 1,8 1.5,8 2,8 2,8.5 2,9 1.5,9 1,9 1,8.5"
         id="path10371"
         inkscape:connector-curvature="0" />
      <path
         style="fill:#7b7d6e;fill-opacity:1"
         d="M 8.125,8.625 Q 8.25,8.25 8.625,8.125 L 9,8 8.875,8.375 Q 8.75,8.75 8.390625,8.890625 L 8.03125,9.03125 8.015625,9.140625 8,9.25 8.03125,9.03125 Q 8.0625,8.8125 8.125,8.625 L 8.1875,8.4375 8.09375,8.71875 8,9 8.125,8.625"
         id="path10373"
         inkscape:connector-curvature="0" />
      <path
         style="fill:#97b592;fill-opacity:1"
         d="M 8.875,8.375 9,8 9.5,8 10,8 10,8.5 Q 10,9 9.625,9.125 L 9.25,9.25 9.53125,9.15625 9.8125,9.0625 9.625,9.125 Q 9.4375,9.1875 9.3125,9.3125 L 9.1875,9.4375 9.25,9.375 9.3125,9.3125 9,9 8.6875,8.6875 8.625,8.75 8.5625,8.8125 8.6875,8.6875 Q 8.8125,8.5625 8.875,8.375 L 8.9375,8.1875 8.84375,8.46875 8.75,8.75 8.875,8.375"
         id="path10375"
         inkscape:connector-curvature="0" />
      <path
         style="fill:#000000;fill-opacity:1"
         d="M 10,8.5 10,8 10.5,8 11,8 11.125,8.375 11.25,8.75 11.15625,8.46875 11.0625,8.1875 11.125,8.375 q 0.0625,0.1875 0.1875,0.3125 l 0.125,0.125 L 11.375,8.75 11.3125,8.6875 11.03125,8.96875 Q 10.75,9.25 10.875,9.625 11,10 11.5,10 l 0.5,0 0,0.5 0,0.5 0,-0.375 0,-0.375 0,0.25 q 0,0.25 0.125,0.375 L 12.25,11 12.1875,10.9375 12.125,10.875 12.0625,11.4375 12,12 11.5,12 11,12 10.5,12 10,12 9.5,12 9,12 8.9375,11.4375 8.875,10.875 8.8125,10.9375 8.75,11 8.875,10.875 Q 9,10.75 9,10.5 L 9,10.25 9,10.625 9,11 9,10.5 9,10 9,10.375 9,10.75 9,10.5 Q 9,10.25 9.03125,10.03125 L 9.0625,9.8125 9.046875,9.921875 9.03125,10.03125 9.390625,9.890625 Q 9.75,9.75 9.828125,9.328125 L 9.90625,8.90625 9.859375,8.984375 9.8125,9.0625 9.90625,8.90625 Q 10,8.75 10,8.5 L 10,8.25 10,8.625 10,9 10,8.5 M 11.625,12 12,12 12.125,12 12.25,12 12,12 q -0.25,0 -0.5,0 l -0.25,0 0.375,0 M 12,10.375 12,10 12,9.875 12,9.75 12,10 q 0,0.25 0,0.5 l 0,0.25 0,-0.375"
         id="path10377"
         inkscape:connector-curvature="0" />
      <path
         style="fill:#84896b;fill-opacity:1"
         d="M 11.125,8.375 11,8 11.375,8.125 q 0.375,0.125 0.5,0.5 L 12,9 11.90625,8.71875 11.8125,8.4375 11.875,8.625 q 0.0625,0.1875 0.09375,0.40625 L 12,9.25 11.984375,9.140625 11.96875,9.03125 11.609375,8.890625 Q 11.25,8.75 11.125,8.375"
         id="path10379"
         inkscape:connector-curvature="0" />
      <path
         style="fill:#f9ffde;fill-opacity:1"
         d="M 11.875,8.625 11.75,8.25 11.84375,8.53125 11.9375,8.8125 11.875,8.625 Q 11.8125,8.4375 11.6875,8.3125 L 11.5625,8.1875 11.625,8.25 11.6875,8.3125 11.984375,8.015625 12.28125,7.71875 12.203125,7.671875 12.125,7.625 12.28125,7.71875 Q 12.4375,7.8125 12.625,7.875 L 12.8125,7.9375 12.53125,7.84375 12.25,7.75 12.625,7.875 13,8 13,8.5 13,9 12.5,9 12,9 11.875,8.625"
         id="path10381"
         inkscape:connector-curvature="0" />
      <path
         style="fill:#8cc99d;fill-opacity:1"
         d="M 13,8.5 13,8 13.484375,8.015625 13.96875,8.03125 13.953125,7.921875 13.9375,7.8125 13.96875,8.03125 Q 14,8.25 14,8.5 L 14,8.75 14,8.375 14,8 14,8.5 14,9 13.515625,8.984375 13.03125,8.96875 13.046875,9.078125 13.0625,9.1875 13.03125,8.96875 Q 13,8.75 13,8.5 L 13,8.25 13,8.625 13,9 13,8.5"
         id="path10383"
         inkscape:connector-curvature="0" />
      <path
         style="fill:#010202;fill-opacity:1"
         d="M 14,8.5 14,8 14.5,8 Q 15,8 15.125,8.375 15.25,8.75 14.96875,9.03125 L 14.6875,9.3125 14.75,9.375 14.8125,9.4375 14.6875,9.3125 Q 14.5625,9.1875 14.375,9.125 L 14.1875,9.0625 14.46875,9.15625 14.75,9.25 14.375,9.125 14,9 14,8.5"
         id="path10385"
         inkscape:connector-curvature="0" />
      <path
         style="fill:#00ffb1;fill-opacity:1"
         d="M 20,8.5 20,8 20.5,8 21,8 21,8.5 21,9 20.5,9 20,9 20,8.5"
         id="path10387"
         inkscape:connector-curvature="0" />
      <path
         style="fill:#00ffb6;fill-opacity:1"
         d="M 1,9.5 1,9 1.5,9 2,9 2,9.5 2,10 1.5,10 1,10 1,9.5"
         id="path10389"
         inkscape:connector-curvature="0" />
      <path
         style="fill:#090808;fill-opacity:1"
         d="M 6.875,9.375 Q 7,9 7.515625,9.015625 L 8.03125,9.03125 8.046875,8.921875 8.0625,8.8125 8.03125,9.03125 Q 8,9.25 8,9.5 L 8,9.75 8,9.375 8,9 8,9.5 8,10 7.625,10.125 7.25,10.25 7.53125,10.15625 7.8125,10.0625 7.625,10.125 Q 7.4375,10.1875 7.3125,10.3125 L 7.1875,10.4375 7.25,10.375 7.3125,10.3125 7.03125,10.03125 Q 6.75,9.75 6.875,9.375 M 8,10.125 8,10 8,9.625 8,9.25 8,9.5 Q 8,9.75 8,10 l 0,0.25 0,-0.125"
         id="path10391"
         inkscape:connector-curvature="0" />
      <path
         style="fill:#c3d5b8;fill-opacity:1"
         d="M 8,9.5 8,9 8,9.375 8,9.75 8,9.5 Q 8,9.25 8.03125,9.03125 L 8.0625,8.8125 8.046875,8.921875 8.03125,9.03125 8.390625,8.890625 8.75,8.75 8.46875,8.84375 8.1875,8.9375 8.375,8.875 Q 8.5625,8.8125 8.6875,8.6875 L 8.8125,8.5625 8.75,8.625 8.6875,8.6875 9,9 9.3125,9.3125 9.375,9.25 9.4375,9.1875 9.3125,9.3125 Q 9.1875,9.4375 9.125,9.625 L 9.0625,9.8125 9.15625,9.53125 9.25,9.25 9.125,9.625 9,10 9.09375,9.71875 9.1875,9.4375 9.125,9.625 Q 9.0625,9.8125 9.03125,10.03125 L 9,10.25 9.015625,10.140625 9.03125,10.03125 8.515625,10.015625 8,10 8,9.5 M 8,9.625 8,10 8,10.125 8,10.25 8,10 Q 8,9.75 8,9.5 L 8,9.25 8,9.625"
         id="path10393"
         inkscape:connector-curvature="0" />
      <path
         style="fill:#2d4031;fill-opacity:1"
         d="M 9.125,9.625 Q 9.25,9.25 9.625,9.125 L 10,9 9.71875,9.09375 9.4375,9.1875 9.625,9.125 Q 9.8125,9.0625 9.90625,8.90625 L 10,8.75 9.953125,8.828125 9.90625,8.90625 9.828125,9.328125 Q 9.75,9.75 9.390625,9.890625 L 9.03125,10.03125 9.015625,10.140625 9,10.25 9.03125,10.03125 Q 9.0625,9.8125 9.125,9.625 L 9.1875,9.4375 9.09375,9.71875 9,10 9.125,9.625"
         id="path10395"
         inkscape:connector-curvature="0" />
      <path
         style="fill:#191a15;fill-opacity:1"
         d="M 10.875,9.625 Q 10.75,9.25 11.03125,8.96875 L 11.3125,8.6875 11.25,8.625 11.1875,8.5625 l 0.125,0.125 q 0.125,0.125 0.3125,0.1875 L 11.8125,8.9375 11.53125,8.84375 11.25,8.75 11.609375,8.890625 11.96875,9.03125 11.953125,8.921875 11.9375,8.8125 11.96875,9.03125 Q 12,9.25 12,9.5 L 12,9.75 12,9.375 12,9 12,9.5 12,10 11.5,10 Q 11,10 10.875,9.625 M 12,10.125 12,10 12,9.625 12,9.25 12,9.5 q 0,0.25 0,0.5 l 0,0.25 0,-0.125"
         id="path10397"
         inkscape:connector-curvature="0" />
      <path
         style="fill:#f1f7c9;fill-opacity:1"
         d="M 12,9.5 12,9 12.5,9 13,9 13.125,9.375 13.25,9.75 13.15625,9.46875 13.0625,9.1875 13.125,9.375 q 0.0625,0.1875 0.1875,0.3125 l 0.125,0.125 L 13.375,9.75 13.3125,9.6875 13,10 l -0.3125,0.3125 0.0625,0.0625 0.0625,0.0625 -0.125,-0.125 Q 12.5625,10.1875 12.375,10.125 L 12.1875,10.0625 12.46875,10.15625 12.75,10.25 12.375,10.125 12,10 12,9.5 m 0,0.125 0,0.375 0,0.125 0,0.125 0,-0.25 q 0,-0.25 0,-0.5 l 0,-0.25 0,0.375"
         id="path10399"
         inkscape:connector-curvature="0" />
      <path
         style="fill:#c6f7c9;fill-opacity:1"
         d="M 13.125,9.375 13,9 13.09375,9.28125 13.1875,9.5625 13.125,9.375 Q 13.0625,9.1875 13.03125,8.96875 L 13,8.75 13.015625,8.859375 13.03125,8.96875 13.515625,8.984375 14,9 14,9.5 14,10 13.625,9.875 q -0.375,-0.125 -0.5,-0.5"
         id="path10401"
         inkscape:connector-curvature="0" />
      <path
         style="fill:#273c2f;fill-opacity:1"
         d="M 14,9.5 14,9 14.375,9.125 q 0.375,0.125 0.5,0.5 L 15,10 14.90625,9.71875 14.8125,9.4375 14.875,9.625 q 0.0625,0.1875 0.09375,0.40625 L 15,10.25 14.984375,10.140625 14.96875,10.03125 14.484375,10.015625 14,10 14,9.5"
         id="path10403"
         inkscape:connector-curvature="0" />
      <path
         style="fill:#00ffb7;fill-opacity:1"
         d="M 20,9.5 20,9 20.5,9 21,9 21,9.5 21,10 20.5,10 20,10 20,9.5"
         id="path10405"
         inkscape:connector-curvature="0" />
      <path
         style="fill:#00ffbb;fill-opacity:1"
         d="M 1,10.5 1,10 1.5,10 2,10 2,10.5 2,11 1.5,11 1,11 1,10.5"
         id="path10407"
         inkscape:connector-curvature="0" />
      <path
         style="fill:#595850;fill-opacity:1"
         d="M 7.1875,10.6875 Q 7.25,10.25 7.625,10.125 L 8,10 8,10.5 8,11 7.5,11 7,11 7.375,11 7.75,11 7.5,11 Q 7.25,11 7.125,11.125 L 7,11.25 7.0625,11.1875 7.125,11.125 7.1875,10.6875 M 8,10.375 8,10 8,9.875 8,9.75 8,10 q 0,0.25 0,0.5 l 0,0.25 0,-0.375"
         id="path10409"
         inkscape:connector-curvature="0" />
      <path
         style="fill:#b2ccaa;fill-opacity:1"
         d="M 8,10.5 8,10 8.515625,10.015625 9.03125,10.03125 9.046875,9.921875 9.0625,9.8125 9.03125,10.03125 Q 9,10.25 9,10.5 L 9,10.75 9,10.375 9,10 9,10.5 Q 9,11 8.5,11 L 8,11 8,10.5 M 8,9.875 8,10 8,10.375 8,10.75 8,10.5 Q 8,10.25 8,10 L 8,9.75 8,9.875"
         id="path10411"
         inkscape:connector-curvature="0" />
      <path
         style="fill:#b4b990;fill-opacity:1"
         d="m 12,10.5 0,-0.5 0.375,0.125 q 0.375,0.125 0.4375,0.5625 L 12.875,11.125 12.9375,11.1875 13,11.25 12.875,11.125 Q 12.75,11 12.5,11 l -0.25,0 0.375,0 0.375,0 -0.5,0 Q 12,11 12,10.5 m 0,-0.625 0,0.125 0,0.375 0,0.375 0,-0.25 q 0,-0.25 0,-0.5 l 0,-0.25 0,0.125"
         id="path10413"
         inkscape:connector-curvature="0" />
      <path
         style="fill:#f4ffde;fill-opacity:1"
         d="M 12.8125,10.6875 12.75,10.25 12.84375,10.53125 12.9375,10.8125 12.875,10.625 q -0.0625,-0.1875 -0.1875,-0.3125 l -0.125,-0.125 0.0625,0.0625 0.0625,0.0625 L 13,10 13.3125,9.6875 13.25,9.625 13.1875,9.5625 l 0.125,0.125 q 0.125,0.125 0.3125,0.1875 L 13.8125,9.9375 13.53125,9.84375 13.25,9.75 13.625,9.875 14,10 l 0,0.5 0,0.5 -0.5625,0.0625 -0.5625,0.0625 -0.0625,-0.4375"
         id="path10415"
         inkscape:connector-curvature="0" />
      <path
         style="fill:#71a882;fill-opacity:1"
         d="M 14,10.5 14,10 14.484375,10.01563 14.96875,10.03126 14.953125,9.921875 14.9375,9.8125 14.96875,10.03125 Q 15,10.25 15,10.5 l 0,0.25 0,-0.375 0,-0.375 0,0.5 0,0.5 -0.5,0 -0.5,0 0,-0.5 m 0,0.125 0,0.375 0,0.125 0,0.125 0,-0.25 q 0,-0.25 0,-0.5 l 0,-0.25 0,0.375 m 1,0.5 0,-0.125 0,-0.375 0,-0.375 0,0.25 q 0,0.25 0,0.5 l 0,0.25 0,-0.125"
         id="path10417"
         inkscape:connector-curvature="0" />
      <path
         style="fill:#00ffbb;fill-opacity:1"
         d="m 20,10.5 0,-0.5 0.5,0 0.5,0 0,0.5 0,0.5 -0.5,0 -0.5,0 0,-0.5"
         id="path10419"
         inkscape:connector-curvature="0" />
      <path
         style="fill:#00ffc1;fill-opacity:1"
         d="M 1,11.5 1,11 1.5,11 2,11 2,11.5 2,12 1.5,12 1,12 1,11.5"
         id="path10421"
         inkscape:connector-curvature="0" />
      <path
         style="fill:#010001;fill-opacity:1"
         d="M 6,11.5 Q 6,11 6.5625,11.0625 L 7.125,11.125 7.1875,11.0625 7.25,11 7.125,11.125 Q 7,11.25 7,11.5 L 7,11.75 7,11.375 7,11 7,11.5 7,12 6.5,12 6,12 6,11.5"
         id="path10423"
         inkscape:connector-curvature="0" />
      <path
         style="fill:#c1cab5;fill-opacity:1"
         d="M 7,11.5 Q 7,11 7.5,11 L 8,11 8,11.5 8,12 7.5,12 7,12 7,11.5"
         id="path10425"
         inkscape:connector-curvature="0" />
      <path
         style="fill:#4b5f4b;fill-opacity:1"
         d="M 8,11.5 8,11 8.5,11 9,11 8.625,11 8.25,11 8.5,11 q 0.25,0 0.375,-0.125 L 9,10.75 8.9375,10.8125 8.875,10.875 8.9375,11.4375 9,12 8.484375,11.984375 7.96875,11.96875 7.953125,12.078125 7.9375,12.1875 7.96875,11.96875 Q 8,11.75 8,11.5 L 8,11.25 8,11.625 8,12 8,11.5"
         id="path10427"
         inkscape:connector-curvature="0" />
      <path
         style="fill:#39382e;fill-opacity:1"
         d="M 12.0625,11.4375 12.125,10.875 12.0625,10.8125 12,10.75 12.125,10.875 Q 12.25,11 12.5,11 l 0.25,0 -0.375,0 -0.375,0 0.5,0 Q 13,11 13,11.5 13,12 12.5,12 L 12,12 12.0625,11.4375 M 11.875,12 12,12 l 0.375,0 0.375,0 -0.25,0 q -0.25,0 -0.5,0 l -0.25,0 0.125,0"
         id="path10429"
         inkscape:connector-curvature="0" />
      <path
         style="fill:#fefdde;fill-opacity:1"
         d="m 13,11.5 0,-0.5 0,0.375 0,0.375 0,-0.25 q 0,-0.25 -0.125,-0.375 L 12.75,11 12.8125,11.0625 12.875,11.125 13.4375,11.0625 14,11 14,11.5 14,12 13.4375,11.9375 12.875,11.875 12.8125,11.9375 12.75,12 12.875,11.875 Q 13,11.75 13,11.5 l 0,-0.25 0,0.375 0,0.375 0,-0.5"
         id="path10431"
         inkscape:connector-curvature="0" />
      <path
         style="fill:#ace7b9;fill-opacity:1"
         d="m 14,11.5 0,-0.5 0.5,0 0.5,0 0,0.5 0,0.5 -0.5,0 -0.5,0 0,-0.5 m 1,0.625 0,-0.125 0,-0.375 0,-0.375 0,0.25 q 0,0.25 0,0.5 l 0,0.25 0,-0.125 M 15,11.375 15,11 15,10.875 15,10.75 15,11 q 0,0.25 0,0.5 l 0,0.25 0,-0.375 m -1,-0.5 0,0.125 0,0.375 0,0.375 0,-0.25 q 0,-0.25 0,-0.5 l 0,-0.25 0,0.125"
         id="path10433"
         inkscape:connector-curvature="0" />
      <path
         style="fill:#0e1510;fill-opacity:1"
         d="m 15,11.5 0,-0.5 0.5,0 q 0.5,0 0.625,0.375 0.125,0.375 -0.15625,0.65625 l -0.28125,0.28125 0.0625,0.0625 0.0625,0.0625 -0.125,-0.125 Q 15.5625,12.1875 15.375,12.125 L 15.1875,12.0625 15.46875,12.15625 15.75,12.25 15.375,12.125 15,12 15,11.5 m 0,0.125 0,0.375 0,0.125 0,0.125 0,-0.25 q 0,-0.25 0,-0.5 l 0,-0.25 0,0.375 m 0,-0.75 0,0.125 0,0.375 0,0.375 0,-0.25 q 0,-0.25 0,-0.5 l 0,-0.25 0,0.125"
         id="path10435"
         inkscape:connector-curvature="0" />
      <path
         style="fill:#00ffc0;fill-opacity:1"
         d="m 20,11.5 0,-0.5 0.5,0 0.5,0 0,0.5 0,0.5 -0.5,0 -0.5,0 0,-0.5"
         id="path10437"
         inkscape:connector-curvature="0" />
      <path
         style="fill:#00ffc5;fill-opacity:1"
         d="M 1,12.5 1,12 1.5,12 2,12 2,12.5 2,13 1.5,13 1,13 1,12.5"
         id="path10439"
         inkscape:connector-curvature="0" />
      <path
         style="fill:#302c29;fill-opacity:1"
         d="M 5.875,12.375 6,12 6.5,12 7,12 7,12.5 7,13 6.625,13.125 6.25,13.25 6.53125,13.15625 6.8125,13.0625 6.625,13.125 Q 6.4375,13.1875 6.3125,13.3125 L 6.1875,13.4375 6.25,13.375 6.3125,13.3125 6.03125,13.03125 Q 5.75,12.75 5.875,12.375"
         id="path10441"
         inkscape:connector-curvature="0" />
      <path
         style="fill:#edfce1;fill-opacity:1"
         d="M 7,12.5 7,12 7.5,12 8,12 7.875,12.375 q -0.125,0.375 -0.5,0.5 L 7,13 7,12.5"
         id="path10443"
         inkscape:connector-curvature="0" />
      <path
         style="fill:#82af88;fill-opacity:1"
         d="M 7.875,12.375 8,12 7.90625,12.28125 7.8125,12.5625 7.875,12.375 Q 7.9375,12.1875 7.96875,11.96875 L 8,11.75 7.984375,11.859375 7.96875,11.96875 8.484375,11.984375 9,12 9.015625,12.515625 9.03125,13.03125 9.140625,13.015625 9.25,13 9.03125,13.03125 Q 8.8125,13.0625 8.625,13.125 L 8.4375,13.1875 8.71875,13.09375 9,13 8.625,13.125 8.25,13.25 8.53125,13.15625 8.8125,13.0625 8.625,13.125 Q 8.4375,13.1875 8.3125,13.3125 L 8.1875,13.4375 8.25,13.375 8.3125,13.3125 8,13 7.6875,12.6875 7.625,12.75 7.5625,12.8125 7.6875,12.6875 Q 7.8125,12.5625 7.875,12.375 L 7.9375,12.1875 7.84375,12.46875 7.75,12.75 7.875,12.375"
         id="path10445"
         inkscape:connector-curvature="0" />
      <path
         style="fill:#a6b292;fill-opacity:1"
         d="M 9.015625,12.515625 9,12 9.5,12 10,12 10,12.5 10,13 9.5,13 9,13 9.375,13 9.75,13 9.5,13 Q 9.25,13 9.03125,13.03125 L 8.8125,13.0625 8.921875,13.046875 9.03125,13.03125 9.015625,12.515625"
         id="path10447"
         inkscape:connector-curvature="0" />
      <path
         style="fill:#a8b396;fill-opacity:1"
         d="m 10,12.5 0,-0.5 0.5,0 0.5,0 0,0.5 0,0.5 -0.5,0 -0.5,0 0,-0.5"
         id="path10449"
         inkscape:connector-curvature="0" />
      <path
         style="fill:#a8b297;fill-opacity:1"
         d="m 11,12.5 0,-0.5 0.5,0 0.5,0 0,0.5 0,0.5 -0.5,0 -0.5,0 0,-0.5 M 12.125,12 12,12 l -0.375,0 -0.375,0 0.25,0 q 0.25,0 0.5,0 l 0.25,0 -0.125,0"
         id="path10451"
         inkscape:connector-curvature="0" />
      <path
         style="fill:#a7b49a;fill-opacity:1"
         d="m 12,12.5 0,-0.5 0.5,0 0.5,0 -0.375,0 -0.375,0 0.25,0 q 0.25,0 0.375,-0.125 L 13,11.75 12.9375,11.8125 12.875,11.875 12.9375,12.4375 13,13 12.5,13 12,13 12,12.5 M 12.375,12 12,12 11.875,12 11.75,12 12,12 q 0.25,0 0.5,0 l 0.25,0 -0.375,0"
         id="path10453"
         inkscape:connector-curvature="0" />
      <path
         style="fill:#f0fbd4;fill-opacity:1"
         d="M 12.9375,12.4375 12.875,11.875 13.4375,11.9375 14,12 14.125,12.375 14.25,12.75 14.15625,12.46875 14.0625,12.1875 14.125,12.375 q 0.0625,0.1875 0.1875,0.3125 l 0.125,0.125 L 14.375,12.75 14.3125,12.6875 14,13 l -0.3125,0.3125 0.0625,0.0625 0.0625,0.0625 -0.125,-0.125 Q 13.5625,13.1875 13.375,13.125 L 13.1875,13.0625 13.46875,13.15625 13.75,13.25 13.375,13.125 13,13 12.9375,12.4375"
         id="path10455"
         inkscape:connector-curvature="0" />
      <path
         style="fill:#cdfdd0;fill-opacity:1"
         d="M 14.125,12.375 14,12 l 0.5,0 0.5,0 0,0.5 0,0.5 -0.375,-0.125 q -0.375,-0.125 -0.5,-0.5 M 15,12.375 15,12 15,11.875 15,11.75 15,12 q 0,0.25 0,0.5 l 0,0.25 0,-0.375"
         id="path10457"
         inkscape:connector-curvature="0" />
      <path
         style="fill:#50775c;fill-opacity:1"
         d="m 15,12.5 0,-0.5 0.375,0.125 q 0.375,0.125 0.5,0.5 L 16,13 15.90625,12.71875 15.8125,12.4375 15.875,12.625 q 0.0625,0.1875 0.09375,0.40625 L 16,13.25 15.984375,13.140625 15.96875,13.03125 15.484375,13.015625 15,13 15,12.5 m 0,-0.625 0,0.125 0,0.375 0,0.375 0,-0.25 q 0,-0.25 0,-0.5 l 0,-0.25 0,0.125"
         id="path10459"
         inkscape:connector-curvature="0" />
      <path
         style="fill:#00ffc6;fill-opacity:1"
         d="m 20,12.5 0,-0.5 0.5,0 0.5,0 0,0.5 0,0.5 -0.5,0 -0.5,0 0,-0.5"
         id="path10461"
         inkscape:connector-curvature="0" />
      <path
         style="fill:#00ffcb;fill-opacity:1"
         d="M 1,13.5 1,13 1.5,13 2,13 2,13.5 2,14 1.5,14 1,14 1,13.5"
         id="path10463"
         inkscape:connector-curvature="0" />
      <path
         style="fill:#949b86;fill-opacity:1"
         d="m 6.125,13.625 q 0.125,-0.375 0.5,-0.5 L 7,13 7,13.5 7,14 6.515625,14.015625 6.03125,14.03125 6.015625,14.140625 6,14.25 6.03125,14.03125 Q 6.0625,13.8125 6.125,13.625 L 6.1875,13.4375 6.09375,13.71875 6,14 6.125,13.625"
         id="path10465"
         inkscape:connector-curvature="0" />
      <path
         style="fill:#83a783;fill-opacity:1"
         d="M 7,13.5 7,13 7.375,12.875 7.75,12.75 7.46875,12.84375 7.1875,12.9375 7.375,12.875 Q 7.5625,12.8125 7.6875,12.6875 L 7.8125,12.5625 7.75,12.625 7.6875,12.6875 8,13 8.3125,13.3125 8.375,13.25 8.4375,13.1875 8.3125,13.3125 Q 8.1875,13.4375 8.125,13.625 L 8.0625,13.8125 8.15625,13.53125 8.25,13.25 8.125,13.625 8,14 7.5,14 7,14 7,13.5 M 7.625,14 8,14 8.125,14 8.25,14 8,14 q -0.25,0 -0.5,0 l -0.25,0 0.375,0"
         id="path10467"
         inkscape:connector-curvature="0" />
      <path
         style="fill:#354d3b;fill-opacity:1"
         d="m 8.125,13.625 q 0.125,-0.375 0.5,-0.5 L 9,13 9,13.5 9,14 8.5,14 8,14 8.125,13.625 M 7.875,14 8,14 8.375,14 8.75,14 8.5,14 Q 8.25,14 8,14 l -0.25,0 0.125,0"
         id="path10469"
         inkscape:connector-curvature="0" />
      <path
         style="fill:#3f513f;fill-opacity:1"
         d="M 9,13.5 9,13 9.5,13 10,13 10,13.5 10,14 9.5,14 9,14 9,13.5"
         id="path10471"
         inkscape:connector-curvature="0" />
      <path
         style="fill:#415241;fill-opacity:1"
         d="m 10,13.5 0,-0.5 0.5,0 0.5,0 0,0.5 0,0.5 -0.5,0 -0.5,0 0,-0.5"
         id="path10473"
         inkscape:connector-curvature="0" />
      <path
         style="fill:#405240;fill-opacity:1"
         d="m 11,13.5 0,-0.5 0.5,0 0.5,0 0,0.5 0,0.5 -0.5,0 -0.5,0 0,-0.5"
         id="path10475"
         inkscape:connector-curvature="0" />
      <path
         style="fill:#3b4f3e;fill-opacity:1"
         d="m 12,13.5 0,-0.5 0.5,0 0.5,0 0,0.5 0,0.5 -0.5,0 -0.5,0 0,-0.5 M 12.625,14 13,14 13.125,14 13.25,14 13,14 q -0.25,0 -0.5,0 l -0.25,0 0.375,0"
         id="path10477"
         inkscape:connector-curvature="0" />
      <path
         style="fill:#6a8668;fill-opacity:1"
         d="m 13,13.5 0,-0.5 0.375,0.125 q 0.375,0.125 0.5,0.5 L 14,14 13.90625,13.71875 13.8125,13.4375 13.875,13.625 q 0.0625,0.1875 0.09375,0.40625 L 14,14.25 13.984375,14.140625 13.96875,14.03125 13.484375,14.015625 13,14 13,13.5 M 12.875,14 13,14 l 0.375,0 0.375,0 -0.25,0 q -0.25,0 -0.5,0 l -0.25,0 0.125,0"
         id="path10479"
         inkscape:connector-curvature="0" />
      <path
         style="fill:#ebffd7;fill-opacity:1"
         d="M 13.875,13.625 13.75,13.25 13.84375,13.53125 13.9375,13.8125 13.875,13.625 q -0.0625,-0.1875 -0.1875,-0.3125 l -0.125,-0.125 0.0625,0.0625 0.0625,0.0625 L 14,13 14.3125,12.6875 14.25,12.625 l -0.0625,-0.0625 0.125,0.125 q 0.125,0.125 0.3125,0.1875 L 14.8125,12.9375 14.53125,12.84375 14.25,12.75 14.625,12.875 15,13 l 0,0.5 0,0.5 -0.5,0 -0.5,0 -0.125,-0.375"
         id="path10481"
         inkscape:connector-curvature="0" />
      <path
         style="fill:#91cea1;fill-opacity:1"
         d="m 15,13.5 0,-0.5 0.484375,0.01563 0.484375,0.01563 -0.01563,-0.109375 -0.01563,-0.109375 0.03125,0.21875 Q 16,13.25 16,13.5 l 0,0.25 0,-0.375 0,-0.375 0,0.5 0,0.5 -0.5,0 -0.5,0 0,-0.5 m 0,0.125 0,0.375 0,0.125 0,0.125 0,-0.25 q 0,-0.25 0,-0.5 l 0,-0.25 0,0.375"
         id="path10483"
         inkscape:connector-curvature="0" />
      <path
         style="fill:#030503;fill-opacity:1"
         d="m 16,13.5 0,-0.5 0,0.375 0,0.375 0,-0.25 q 0,-0.25 -0.03125,-0.46875 l -0.03125,-0.21875 0.01563,0.109375 0.01563,0.109375 0.515625,-0.01563 Q 17,13 17.125,13.375 17.25,13.75 16.96875,14.03125 l -0.28125,0.28125 0.0625,0.0625 0.0625,0.0625 -0.125,-0.125 Q 16.5625,14.1875 16.375,14.125 L 16.1875,14.0625 16.46875,14.15625 16.75,14.25 16.375,14.125 16,14 16,13.5"
         id="path10485"
         inkscape:connector-curvature="0" />
      <path
         style="fill:#00ffcb;fill-opacity:1"
         d="m 20,13.5 0,-0.5 0.5,0 0.5,0 0,0.5 0,0.5 -0.5,0 -0.5,0 0,-0.5"
         id="path10487"
         inkscape:connector-curvature="0" />
      <path
         style="fill:#00ffcf;fill-opacity:1"
         d="M 1,14.5 1,14 1.5,14 2,14 2,14.5 2,15 1.5,15 1,15 1,14.5"
         id="path10489"
         inkscape:connector-curvature="0" />
      <path
         style="fill:#171515;fill-opacity:1"
         d="M 4.875,14.375 Q 5,14 5.515625,14.015625 L 6.03125,14.03125 6.046875,13.921875 6.0625,13.8125 6.03125,14.03125 Q 6,14.25 6,14.5 L 6,14.75 6,14.375 6,14 6,14.5 Q 6,15 5.625,15.125 L 5.25,15.25 5.53125,15.15625 5.8125,15.0625 5.625,15.125 Q 5.4375,15.1875 5.3125,15.3125 L 5.1875,15.4375 5.25,15.375 5.3125,15.3125 5.03125,15.03125 Q 4.75,14.75 4.875,14.375"
         id="path10491"
         inkscape:connector-curvature="0" />
      <path
         style="fill:#cee2c2;fill-opacity:1"
         d="M 6,14.5 6,14 6,14.375 6,14.75 6,14.5 Q 6,14.25 6.03125,14.03125 L 6.0625,13.8125 6.046875,13.921875 6.03125,14.03125 6.515625,14.015625 7,14 7,14.5 7,15 6.453125,14.953125 5.90625,14.90625 5.859375,14.984375 5.8125,15.0625 5.90625,14.90625 Q 6,14.75 6,14.5 L 6,14.25 6,14.625 6,15 6,14.5"
         id="path10493"
         inkscape:connector-curvature="0" />
      <path
         style="fill:#0e1610;fill-opacity:1"
         d="M 7,14.5 7,14 7.5,14 8,14 8,14.5 Q 8,15 7.5,15 L 7,15 7,14.5"
         id="path10495"
         inkscape:connector-curvature="0" />
      <path
         style="fill:#11110d;fill-opacity:1"
         d="m 13,14.5 0,-0.5 0.484375,0.01563 0.484375,0.01563 -0.01563,-0.109375 -0.01563,-0.109375 0.03125,0.21875 Q 14,14.25 14,14.5 l 0,0.25 0,-0.375 0,-0.375 0,0.5 0,0.5 -0.5,0 Q 13,15 13,14.5 m 1,0.625 0,-0.125 0,-0.375 0,-0.375 0,0.25 q 0,0.25 0,0.5 l 0,0.25 0,-0.125"
         id="path10497"
         inkscape:connector-curvature="0" />
      <path
         style="fill:#eef4c7;fill-opacity:1"
         d="m 14,14.5 0,-0.5 0.5,0 0.5,0 0,0.5 0,0.5 -0.5,0 -0.5,0 0,-0.5 m 0,0.125 0,0.375 0,0.125 0,0.125 0,-0.25 q 0,-0.25 0,-0.5 l 0,-0.25 0,0.375"
         id="path10499"
         inkscape:connector-curvature="0" />
      <path
         style="fill:#cefcd0;fill-opacity:1"
         d="m 15,14.5 0,-0.5 0.5,0 0.5,0 0,0.5 0,0.5 -0.5,0 -0.5,0 0,-0.5 m 0,-0.625 0,0.125 0,0.375 0,0.375 0,-0.25 q 0,-0.25 0,-0.5 l 0,-0.25 0,0.125"
         id="path10501"
         inkscape:connector-curvature="0" />
      <path
         style="fill:#365240;fill-opacity:1"
         d="m 16,14.5 0,-0.5 0.375,0.125 q 0.375,0.125 0.5,0.5 L 17,15 16.90625,14.71875 16.8125,14.4375 16.875,14.625 q 0.0625,0.1875 0.09375,0.40625 L 17,15.25 16.984375,15.140625 16.96875,15.03125 16.484375,15.015625 16,15 16,14.5"
         id="path10503"
         inkscape:connector-curvature="0" />
      <path
         style="fill:#00ffd0;fill-opacity:1"
         d="m 20,14.5 0,-0.5 0.5,0 0.5,0 0,0.5 0,0.5 -0.5,0 -0.5,0 0,-0.5"
         id="path10505"
         inkscape:connector-curvature="0" />
      <path
         style="fill:#00ffd4;fill-opacity:1"
         d="M 1,15.5 1,15 1.5,15 2,15 2,15.5 2,16 1.5,16 1,16 1,15.5"
         id="path10507"
         inkscape:connector-curvature="0" />
      <path
         style="fill:#818477;fill-opacity:1"
         d="m 5.125,15.625 q 0.125,-0.375 0.5,-0.5 L 6,15 5.71875,15.09375 5.4375,15.1875 5.625,15.125 Q 5.8125,15.0625 5.90625,14.90625 L 6,14.75 5.953125,14.828125 5.90625,14.90625 5.953125,15.453125 6,16 5.515625,16.015625 5.03125,16.03125 5.015625,16.140625 5,16.25 5.03125,16.03125 Q 5.0625,15.8125 5.125,15.625 L 5.1875,15.4375 5.09375,15.71875 5,16 5.125,15.625"
         id="path10509"
         inkscape:connector-curvature="0" />
      <path
         style="fill:#98b896;fill-opacity:1"
         d="M 5.953125,15.453125 5.90625,14.90625 6.453125,14.953125 7,15 7,15.5 Q 7,16 6.5,16 L 6,16 5.953125,15.453125"
         id="path10511"
         inkscape:connector-curvature="0" />
      <path
         style="fill:#a4a581;fill-opacity:1"
         d="m 14,15.5 0,-0.5 0.5,0 0.5,0 0,0.5 0,0.5 -0.515625,-0.01563 -0.515625,-0.01563 -0.01563,0.109375 -0.01563,0.109375 0.03125,-0.21875 Q 14,15.75 14,15.5 l 0,-0.25 0,0.375 0,0.375 0,-0.5 m 1,0.625 0,-0.125 0,-0.375 0,-0.375 0,0.25 q 0,0.25 0,0.5 l 0,0.25 0,-0.125 m -1,-1.25 0,0.125 0,0.375 0,0.375 0,-0.25 q 0,-0.25 0,-0.5 l 0,-0.25 0,0.125"
         id="path10513"
         inkscape:connector-curvature="0" />
      <path
         style="fill:#f8ffe1;fill-opacity:1"
         d="m 15,15.5 0,-0.5 0.5,0 0.5,0 0,0.5 0,0.5 -0.5,0 -0.5,0 0,-0.5"
         id="path10515"
         inkscape:connector-curvature="0" />
      <path
         style="fill:#73ab84;fill-opacity:1"
         d="m 16,15.5 0,-0.5 0.484375,0.01563 0.484375,0.01563 -0.01563,-0.109375 -0.01563,-0.109375 0.03125,0.21875 Q 17,15.25 17,15.5 l 0,0.25 0,-0.375 0,-0.375 0,0.5 0,0.5 -0.5,0 -0.5,0 0,-0.5 m 0,0.125 0,0.375 0,0.125 0,0.125 0,-0.25 q 0,-0.25 0,-0.5 l 0,-0.25 0,0.375"
         id="path10517"
         inkscape:connector-curvature="0" />
      <path
         style="fill:#00ffd5;fill-opacity:1"
         d="m 20,15.5 0,-0.5 0.5,0 0.5,0 0,0.5 0,0.5 -0.5,0 -0.5,0 0,-0.5"
         id="path10519"
         inkscape:connector-curvature="0" />
      <path
         style="fill:#00ffda;fill-opacity:1"
         d="M 1,16.5 1,16 1.5,16 2,16 2,16.5 2,17 1.5,17 1,17 1,16.5"
         id="path10521"
         inkscape:connector-curvature="0" />
      <path
         style="fill:#070507;fill-opacity:1"
         d="M 3.875,16.375 Q 4,16 4.515625,16.015625 L 5.03125,16.03125 5.046875,15.921875 5.0625,15.8125 5.03125,16.03125 Q 5,16.25 5,16.5 L 5,16.75 5,16.375 5,16 5,16.5 Q 5,17 4.625,17.125 L 4.25,17.25 4.53125,17.15625 4.8125,17.0625 4.625,17.125 Q 4.4375,17.1875 4.3125,17.3125 L 4.1875,17.4375 4.25,17.375 4.3125,17.3125 4,17 3.6875,16.6875 3.625,16.75 3.5625,16.8125 3.6875,16.6875 Q 3.8125,16.5625 3.875,16.375 L 3.9375,16.1875 3.84375,16.46875 3.75,16.75 3.875,16.375"
         id="path10523"
         inkscape:connector-curvature="0" />
      <path
         style="fill:#e0e9d2;fill-opacity:1"
         d="M 5,16.5 5,16 5,16.375 5,16.75 5,16.5 Q 5,16.25 5.03125,16.03125 L 5.0625,15.8125 5.046875,15.921875 5.03125,16.03125 5.515625,16.015625 6,16 6,16.5 6,17 5.453125,16.953125 4.90625,16.90625 4.859375,16.984375 4.8125,17.0625 4.90625,16.90625 Q 5,16.75 5,16.5 L 5,16.25 5,16.625 5,17 5,16.5 M 6,17.125 6,17 6,16.625 6,16.25 6,16.5 q 0,0.25 0,0.5 l 0,0.25 0,-0.125"
         id="path10525"
         inkscape:connector-curvature="0" />
      <path
         style="fill:#354636;fill-opacity:1"
         d="M 6,16.5 6,16 6.5,16 7,16 6.625,16 6.25,16 6.5,16 q 0.25,0 0.375,-0.125 L 7,15.75 6.9375,15.8125 6.875,15.875 7.0625,16.3125 7.25,16.75 7.15625,16.46875 7.0625,16.1875 7.125,16.375 q 0.0625,0.1875 0.1875,0.3125 l 0.125,0.125 L 7.375,16.75 7.3125,16.6875 7,17 6.6875,17.3125 6.75,17.375 6.8125,17.4375 6.6875,17.3125 Q 6.5625,17.1875 6.375,17.125 L 6.1875,17.0625 6.46875,17.15625 6.75,17.25 6.375,17.125 6,17 6,16.5 M 6,16.625 6,17 6,17.125 6,17.25 6,17 q 0,-0.25 0,-0.5 l 0,-0.25 0,0.375"
         id="path10527"
         inkscape:connector-curvature="0" />
      <path
         style="fill:#434136;fill-opacity:1"
         d="M 13.875,16.375 14,16 13.90625,16.28125 13.8125,16.5625 13.875,16.375 q 0.0625,-0.1875 0.09375,-0.40625 L 14,15.75 13.98437,15.859375 13.96874,15.96875 14.484365,15.98438 15,16 15,16.5 15,17 14.625,17.125 14.25,17.25 14.53125,17.15625 14.8125,17.0625 14.625,17.125 q -0.1875,0.0625 -0.3125,0.1875 l -0.125,0.125 L 14.25,17.375 14.3125,17.3125 14,17 13.6875,16.6875 13.625,16.75 l -0.0625,0.0625 0.125,-0.125 q 0.125,-0.125 0.1875,-0.3125 L 13.9375,16.1875 13.84375,16.46875 13.75,16.75 13.875,16.375 M 15,16.375 15,16 15,15.875 15,15.75 15,16 q 0,0.25 0,0.5 l 0,0.25 0,-0.375"
         id="path10529"
         inkscape:connector-curvature="0" />
      <path
         style="fill:#ffffe5;fill-opacity:1"
         d="m 15,16.5 0,-0.5 0.5,0 0.5,0 0,0.5 0,0.5 -0.5,0 -0.5,0 0,-0.5 m 1,0.625 0,-0.125 0,-0.375 0,-0.375 0,0.25 q 0,0.25 0,0.5 l 0,0.25 0,-0.125"
         id="path10531"
         inkscape:connector-curvature="0" />
      <path
         style="fill:#b5efc1;fill-opacity:1"
         d="m 16,16.5 0,-0.5 0.5,0 0.5,0 0.125,0.375 0.125,0.375 -0.09375,-0.28125 -0.09375,-0.28125 0.0625,0.1875 q 0.0625,0.1875 0.15625,0.34375 L 17.375,16.875 17.328125,16.796875 17.28125,16.71875 16.984375,17.015625 16.6875,17.3125 16.75,17.375 l 0.0625,0.0625 -0.125,-0.125 Q 16.5625,17.1875 16.375,17.125 L 16.1875,17.0625 16.46875,17.15625 16.75,17.25 16.375,17.125 16,17 16,16.5 m 0,-0.625 0,0.125 0,0.375 0,0.375 0,-0.25 q 0,-0.25 0,-0.5 l 0,-0.25 0,0.125"
         id="path10533"
         inkscape:connector-curvature="0" />
      <path
         style="fill:#203025;fill-opacity:1"
         d="M 17.125,16.375 17,16 17.375,16.125 Q 17.75,16.25 18,16.5 L 18.25,16.75 17.96875,17 17.6875,17.25 17.71875,17.3125 17.75,17.375 17.6875,17.25 Q 17.625,17.125 17.5,17 L 17.375,16.875 17.5625,17.0625 17.75,17.25 17.5,17 Q 17.25,16.75 17.125,16.375 M 18.3125,16.8125 18.25,16.75 18.0625,16.5625 17.875,16.375 18,16.5 q 0.125,0.125 0.25,0.25 l 0.125,0.125 -0.0625,-0.0625"
         id="path10535"
         inkscape:connector-curvature="0" />
      <path
         style="fill:#00ffda;fill-opacity:1"
         d="m 20,16.5 0,-0.5 0.5,0 0.5,0 0,0.5 0,0.5 -0.5,0 -0.5,0 0,-0.5"
         id="path10537"
         inkscape:connector-curvature="0" />
      <path
         style="fill:#00ffdf;fill-opacity:1"
         d="M 1,17.5 1,17 1.5,17 2,17 2,17.5 2,18 1.5,18 1,18 1,17.5"
         id="path10539"
         inkscape:connector-curvature="0" />
      <path
         style="fill:#272821;fill-opacity:1"
         d="M 2.875,17.375 Q 3,17 3.375,16.875 L 3.75,16.75 3.46875,16.84375 3.1875,16.9375 3.375,16.875 Q 3.5625,16.8125 3.6875,16.6875 L 3.8125,16.5625 3.75,16.625 3.6875,16.6875 4,17 4.3125,17.3125 4.375,17.25 4.4375,17.1875 4.3125,17.3125 Q 4.1875,17.4375 4.125,17.625 L 4.0625,17.8125 4.15625,17.53125 4.25,17.25 4.125,17.625 4,18 3.625,18.125 3.25,18.25 3.53125,18.15625 3.8125,18.0625 3.625,18.125 Q 3.4375,18.1875 3.34375,18.28125 L 3.25,18.375 3.296875,18.328125 3.34375,18.28125 3.046875,18.015625 Q 2.75,17.75 2.875,17.375"
         id="path10541"
         inkscape:connector-curvature="0" />
      <path
         style="fill:#a8af98;fill-opacity:1"
         d="m 4.125,17.625 q 0.125,-0.375 0.5,-0.5 L 5,17 4.71875,17.09375 4.4375,17.1875 4.625,17.125 Q 4.8125,17.0625 4.90625,16.90625 L 5,16.75 4.953125,16.828125 4.90625,16.90625 4.953125,17.453125 5,18 4.515625,18.015625 4.03125,18.03125 4.015625,18.140625 4,18.25 4.03125,18.03125 Q 4.0625,17.8125 4.125,17.625 L 4.1875,17.4375 4.09375,17.71875 4,18 4.125,17.625 M 4.625,18 5,18 5.125,18 5.25,18 5,18 q -0.25,0 -0.5,0 l -0.25,0 0.375,0"
         id="path10543"
         inkscape:connector-curvature="0" />
      <path
         style="fill:#e9ffe5;fill-opacity:1"
         d="M 4.953125,17.453125 4.90625,16.90625 5.453125,16.953125 6,17 6,17.5 Q 6,18 5.5,18 L 5,18 4.953125,17.453125 M 4.875,18 5,18 5.375,18 5.75,18 5.5,18 Q 5.25,18 5,18 l -0.25,0 0.125,0 M 6,17.375 6,17 6,16.875 6,16.75 6,17 q 0,0.25 0,0.5 l 0,0.25 0,-0.375"
         id="path10545"
         inkscape:connector-curvature="0" />
      <path
         style="fill:#5a8567;fill-opacity:1"
         d="M 6,17.5 6,17 6.375,17.125 q 0.375,0.125 0.5,0.5 L 7,18 6.90625,17.71875 6.8125,17.4375 6.875,17.625 q 0.0625,0.1875 0.09375,0.40625 L 7,18.25 6.984375,18.140625 6.96875,18.03125 6.421875,17.953125 5.875,17.875 5.8125,17.9375 5.75,18 5.875,17.875 Q 6,17.75 6,17.5 L 6,17.25 6,17.625 6,18 6,17.5 M 6,16.875 6,17 6,17.375 6,17.75 6,17.5 Q 6,17.25 6,17 l 0,-0.25 0,0.125"
         id="path10547"
         inkscape:connector-curvature="0" />
      <path
         style="fill:#1a241b;fill-opacity:1"
         d="M 6.875,17.625 6.75,17.25 6.84375,17.53125 6.9375,17.8125 6.875,17.625 Q 6.8125,17.4375 6.6875,17.3125 L 6.5625,17.1875 6.625,17.25 6.6875,17.3125 7,17 7.3125,16.6875 7.25,16.625 7.1875,16.5625 l 0.125,0.125 q 0.125,0.125 0.3125,0.1875 L 7.8125,16.9375 7.53125,16.84375 7.25,16.75 7.625,16.875 Q 8,17 8.125,17.375 L 8.25,17.75 8.15625,17.46875 8.0625,17.1875 8.125,17.375 q 0.0625,0.1875 0.1875,0.3125 l 0.125,0.125 L 8.375,17.75 8.3125,17.6875 7.984375,17.984375 7.65625,18.28125 7.703125,18.328125 7.75,18.375 7.65625,18.28125 Q 7.5625,18.1875 7.375,18.125 L 7.1875,18.0625 7.46875,18.15625 7.75,18.25 7.375,18.125 7,18 6.875,17.625"
         id="path10549"
         inkscape:connector-curvature="0" />
      <path
         style="fill:#1d1e19;fill-opacity:1"
         d="M 12.875,17.375 Q 13,17 13.375,16.875 L 13.75,16.75 13.46875,16.84375 13.1875,16.9375 13.375,16.875 q 0.1875,-0.0625 0.3125,-0.1875 l 0.125,-0.125 L 13.75,16.625 13.6875,16.6875 14,17 l 0.3125,0.3125 0.0625,-0.0625 0.0625,-0.0625 -0.125,0.125 q -0.125,0.125 -0.1875,0.3125 L 14.0625,17.8125 14.15625,17.53125 14.25,17.25 14.125,17.625 14,18 13.625,18.125 13.25,18.25 13.53125,18.15625 13.8125,18.0625 13.625,18.125 q -0.1875,0.0625 -0.28125,0.15625 L 13.25,18.375 13.29687,18.32813 13.34374,18.28126 13.046865,18.015635 Q 12.75,17.75 12.875,17.375"
         id="path10551"
         inkscape:connector-curvature="0" />
      <path
         style="fill:#7e856e;fill-opacity:1"
         d="m 14.125,17.625 q 0.125,-0.375 0.5,-0.5 L 15,17 l 0,0.5 0,0.5 0,-0.375 0,-0.375 0,0.25 q 0,0.25 0.125,0.375 L 15.25,18 15.1875,17.9375 15.125,17.875 14.5625,17.9375 14,18 14.125,17.625"
         id="path10553"
         inkscape:connector-curvature="0" />
      <path
         style="fill:#e3ffdb;fill-opacity:1"
         d="m 15,17.5 0,-0.5 0.5,0 0.5,0 0,0.5 0,0.5 -0.5,0 Q 15,18 15,17.5 M 15.625,18 16,18 16.125,18 16.25,18 16,18 q -0.25,0 -0.5,0 l -0.25,0 0.375,0 M 16,17.375 16,17 16,16.875 16,16.75 16,17 q 0,0.25 0,0.5 l 0,0.25 0,-0.375"
         id="path10555"
         inkscape:connector-curvature="0" />
      <path
         style="fill:#bdfed0;fill-opacity:1"
         d="m 16,17.5 0,-0.5 0.375,0.125 q 0.375,0.125 0.5,0.5 L 17,18 16.5,18 16,18 16,17.5 M 15.875,18 16,18 l 0.375,0 0.375,0 -0.25,0 q -0.25,0 -0.5,0 l -0.25,0 0.125,0"
         id="path10557"
         inkscape:connector-curvature="0" />
      <path
         style="fill:#98d8a9;fill-opacity:1"
         d="M 16.875,17.625 16.75,17.25 16.84375,17.53125 16.9375,17.8125 16.875,17.625 q -0.0625,-0.1875 -0.1875,-0.3125 l -0.125,-0.125 0.0625,0.0625 0.0625,0.0625 0.296875,-0.296875 0.296875,-0.296875 -0.04687,-0.07813 -0.04687,-0.07813 0.09375,0.15625 Q 17.375,16.875 17.5,17 L 17.625,17.125 17.4375,16.9375 17.25,16.75 17.5,17 q 0.25,0.25 0.25,0.5 0,0.25 -0.375,0.375 L 17,18 16.875,17.625"
         id="path10559"
         inkscape:connector-curvature="0" />
      <path
         style="fill:#2f4233;fill-opacity:1"
         d="m 17.75,17.5 0,-0.25 0,0.1875 0,0.1875 0,-0.125 q 0,-0.125 -0.0625,-0.25 L 17.625,17.125 17.65625,17.1875 17.6875,17.25 17.96875,17 18.25,16.75 18.5,17 q 0.25,0.25 0.5,0.5 L 19.25,17.75 19.0625,17.5625 18.875,17.375 19,17.5 q 0.125,0.125 0.28125,0.21875 L 19.4375,17.8125 19.35937,17.76563 19.28124,17.71876 18.984365,18.015635 18.6875,18.3125 18.71875,18.34375 18.75,18.375 18.6875,18.3125 Q 18.625,18.25 18.5,18.25 l -0.125,0 0.1875,0 0.1875,0 -0.25,0 -0.25,0 0.1875,0 0.1875,0 -0.125,0 q -0.125,0 -0.21875,0.09375 l -0.09375,0.09375 0.04687,-0.04687 0.04687,-0.04687 -0.3125,-0.3125 -0.3125,-0.3125 -0.04687,0.04687 -0.04687,0.04687 0.09375,-0.09375 Q 17.75,17.625 17.75,17.5 l 0,-0.125 0,0.1875 0,0.1875 0,-0.25 M 18.4375,16.9375 18.25,16.75 18.1875,16.6875 18.125,16.625 18.25,16.75 q 0.125,0.125 0.25,0.25 l 0.125,0.125 -0.1875,-0.1875"
         id="path10561"
         inkscape:connector-curvature="0" />
      <path
         style="fill:#050706;fill-opacity:1"
         d="M 19,17.5 18.75,17.25 19,17 q 0.25,-0.25 0.625,-0.125 L 20,17 20,17.5 20,18 19.625,17.875 Q 19.25,17.75 19,17.5 M 18.6875,17.1875 18.75,17.25 18.9375,17.4375 19.125,17.625 19,17.5 q -0.125,-0.125 -0.25,-0.25 l -0.125,-0.125 0.0625,0.0625"
         id="path10563"
         inkscape:connector-curvature="0" />
      <path
         style="fill:#00ffe0;fill-opacity:1"
         d="m 20,17.5 0,-0.5 0.5,0 0.5,0 0,0.5 0,0.5 -0.5,0 -0.5,0 0,-0.5"
         id="path10565"
         inkscape:connector-curvature="0" />
      <path
         style="fill:#00ffe5;fill-opacity:1"
         d="M 1,18.5 1,18 1.5,18 2,18 2,18.5 2,19 1.5,19 1,19 1,18.5"
         id="path10567"
         inkscape:connector-curvature="0" />
      <path
         style="fill:#3f4336;fill-opacity:1"
         d="m 3.25,18.5 q 0,-0.25 0.375,-0.375 L 4,18 4.015625,18.484375 4.03125,18.96875 4.140625,18.984375 4.25,19 4.03125,18.96875 Q 3.8125,18.9375 3.625,18.875 L 3.4375,18.8125 3.71875,18.90625 4,19 3.625,18.875 Q 3.25,18.75 3.25,18.5"
         id="path10569"
         inkscape:connector-curvature="0" />
      <path
         style="fill:#4c5f4b;fill-opacity:1"
         d="M 4.015625,18.484375 4,18 4,18.375 4,18.75 4,18.5 Q 4,18.25 4.03125,18.03125 L 4.0625,17.8125 4.046875,17.921875 4.03125,18.03125 4.515625,18.015625 5,18 5,18.5 5,19 4.5,19 4,19 4.375,19 4.75,19 4.5,19 Q 4.25,19 4.03125,18.96875 L 3.8125,18.9375 3.921875,18.953125 4.03125,18.96875 4.015625,18.484375"
         id="path10571"
         inkscape:connector-curvature="0" />
      <path
         style="fill:#35513e;fill-opacity:1"
         d="M 5,18.5 5,18 5.5,18 6,18 5.625,18 5.25,18 5.5,18 q 0.25,0 0.375,-0.125 L 6,17.75 5.9375,17.8125 5.875,17.875 5.9375,18.4375 6,19 5.5,19 5,19 5,18.5"
         id="path10573"
         inkscape:connector-curvature="0" />
      <path
         style="fill:#405a47;fill-opacity:1"
         d="M 5.9375,18.4375 5.875,17.875 6.4375,17.9375 7,18 7,18.5 7,19 6.5,19 6,19 5.9375,18.4375"
         id="path10575"
         inkscape:connector-curvature="0" />
      <path
         style="fill:#314536;fill-opacity:1"
         d="M 7,18.5 7,18 7.375,18.125 Q 7.75,18.25 7.75,18.5 q 0,0.25 -0.375,0.375 L 7,19 7,18.5"
         id="path10577"
         inkscape:connector-curvature="0" />
      <path
         style="fill:#010202;fill-opacity:1"
         d="m 7.75,18.5 0,-0.25 0,0.1875 0,0.1875 0,-0.125 q 0,-0.125 -0.09375,-0.21875 L 7.5625,18.1875 7.609375,18.234375 7.65625,18.28125 7.984375,17.984375 8.3125,17.6875 8.25,17.625 8.1875,17.5625 l 0.125,0.125 q 0.125,0.125 0.3125,0.1875 L 8.8125,17.9375 8.53125,17.84375 8.25,17.75 8.625,17.875 Q 9,18 9,18.5 9,19 8.625,19.125 8.25,19.25 7.953125,18.984375 L 7.65625,18.71875 7.609375,18.765625 7.5625,18.8125 7.65625,18.71875 Q 7.75,18.625 7.75,18.5 l 0,-0.125 0,0.1875 0,0.1875 0,-0.25"
         id="path10579"
         inkscape:connector-curvature="0" />
      <path
         style="fill:#3d3f32;fill-opacity:1"
         d="m 13.25,18.5 q 0,-0.25 0.375,-0.375 L 14,18 l 0.01563,0.484375 0.01563,0.484375 0.109375,0.01563 L 14.25,19 14.03125,18.96875 Q 13.8125,18.9375 13.625,18.875 L 13.4375,18.8125 13.71875,18.90625 14,19 13.625,18.875 Q 13.25,18.75 13.25,18.5"
         id="path10581"
         inkscape:connector-curvature="0" />
      <path
         style="fill:#4b5d4a;fill-opacity:1"
         d="M 14.015625,18.484375 14,18 14.5625,17.9375 15.125,17.875 15.0625,18.4375 15,19 l -0.5,0 -0.5,0 0.375,0 0.375,0 -0.25,0 q -0.25,0 -0.46875,-0.03125 l -0.21875,-0.03125 0.109375,0.01563 0.109375,0.01563 -0.01563,-0.484375"
         id="path10583"
         inkscape:connector-curvature="0" />
      <path
         style="fill:#34503e;fill-opacity:1"
         d="M 15.0625,18.4375 15.125,17.875 15.0625,17.8125 15,17.75 15.125,17.875 Q 15.25,18 15.5,18 l 0.25,0 -0.375,0 -0.375,0 0.5,0 0.5,0 0,0.5 0,0.5 -0.5,0 -0.5,0 0.0625,-0.5625 M 16.125,18 16,18 l -0.375,0 -0.375,0 0.25,0 q 0.25,0 0.5,0 l 0.25,0 -0.125,0"
         id="path10585"
         inkscape:connector-curvature="0" />
      <path
         style="fill:#38503f;fill-opacity:1"
         d="m 16,18.5 0,-0.5 0.5,0 0.5,0 0,0.5 0,0.5 -0.5,0 -0.5,0 0,-0.5 M 16.375,18 16,18 15.875,18 15.75,18 16,18 q 0.25,0 0.5,0 l 0.25,0 -0.375,0"
         id="path10587"
         inkscape:connector-curvature="0" />
      <path
         style="fill:#3e5845;fill-opacity:1"
         d="M 17,18.5 17,18 17.375,17.875 17.75,17.75 17.46875,17.84375 17.1875,17.9375 17.375,17.875 q 0.1875,-0.0625 0.28125,-0.15625 L 17.75,17.625 l -0.04687,0.04687 -0.04687,0.04687 0.3125,0.3125 0.3125,0.3125 0.04687,-0.04687 L 18.375,18.25 18.28125,18.34375 Q 18.1875,18.4375 18.125,18.625 L 18.0625,18.8125 18.15625,18.53125 18.25,18.25 18.125,18.625 18,19 17.5,19 17,19 17,18.5"
         id="path10589"
         inkscape:connector-curvature="0" />
      <path
         style="fill:#3e5844;fill-opacity:1"
         d="M 18.125,18.625 Q 18.25,18.25 18.5,18.25 q 0.25,0 0.25,0.25 0,0.25 -0.375,0.375 L 18,19 18.125,18.625"
         id="path10591"
         inkscape:connector-curvature="0" />
      <path
         style="fill:#0d120e;fill-opacity:1"
         d="m 18.75,18.5 0,-0.25 0,0.1875 0,0.1875 0,-0.125 q 0,-0.125 -0.0625,-0.1875 L 18.625,18.25 18.65625,18.28125 18.6875,18.3125 18.984375,18.015625 19.28125,17.71875 19.203125,17.671875 19.125,17.625 19.28125,17.71875 Q 19.4375,17.8125 19.625,17.875 L 19.8125,17.9375 19.53125,17.84375 19.25,17.75 19.625,17.875 20,18 l 0,0.5 0,0.5 -0.375,0.125 Q 19.25,19.25 18.953125,18.984375 l -0.296875,-0.265625 -0.04687,0.04687 -0.04687,0.04687 0.09375,-0.09375 Q 18.75,18.625 18.75,18.5 l 0,-0.125 0,0.1875 0,0.1875 0,-0.25"
         id="path10593"
         inkscape:connector-curvature="0" />
      <path
         style="fill:#00ffe4;fill-opacity:1"
         d="m 20,18.5 0,-0.5 0.5,0 0.5,0 0,0.5 0,0.5 -0.5,0 -0.5,0 0,-0.5"
         id="path10595"
         inkscape:connector-curvature="0" />
      <path
         style="fill:#00ffea;fill-opacity:1"
         d="M 1,19.5 1,19 1.5,19 2,19 2.125,19.375 2.25,19.75 2.15625,19.46875 2.0625,19.1875 2.125,19.375 q 0.0625,0.1875 0.1875,0.3125 l 0.125,0.125 L 2.375,19.75 2.3125,19.6875 2.03125,19.96875 Q 1.75,20.25 1.375,20.125 L 1,20 1,19.5"
         id="path10597"
         inkscape:connector-curvature="0" />
      <path
         style="fill:#00ffea;fill-opacity:1"
         d="M 19.875,19.375 20,19 l 0.5,0 0.5,0 0,0.5 0,0.5 -0.375,0.125 Q 20.25,20.25 19.96875,19.96875 L 19.6875,19.6875 19.625,19.75 l -0.0625,0.0625 0.125,-0.125 q 0.125,-0.125 0.1875,-0.3125 L 19.9375,19.1875 19.84375,19.46875 19.75,19.75 19.875,19.375"
         id="path10599"
         inkscape:connector-curvature="0" />
      <path
         style="fill:#00ffef;fill-opacity:1"
         d="M 1.125,20.375 1,20 1.375,20.125 Q 1.75,20.25 2.03125,19.96875 L 2.3125,19.6875 2.25,19.625 2.1875,19.5625 l 0.125,0.125 q 0.125,0.125 0.3125,0.1875 L 2.8125,19.9375 2.53125,19.84375 2.25,19.75 2.625,19.875 Q 3,20 3.5,20 L 4,20 4,20.5 4,21 3.5,21 Q 3,21 2.5,21 2,21 1.625,20.875 1.25,20.75 1.125,20.375"
         id="path10601"
         inkscape:connector-curvature="0" />
      <path
         style="fill:#00fff0;fill-opacity:1"
         d="M 4,20.5 4,20 4.5,20 5,20 5,20.5 5,21 4.5,21 4,21 4,20.5"
         id="path10603"
         inkscape:connector-curvature="0" />
      <path
         style="fill:#00ffef;fill-opacity:1"
         d="M 5,20.5 5,20 5.5,20 q 0.5,0 1,0 L 7,20 7,20.5 7,21 6.5,21 Q 6,21 5.5,21 L 5,21 5,20.5"
         id="path10605"
         inkscape:connector-curvature="0" />
      <path
         style="fill:#00fff0;fill-opacity:1"
         d="M 7,20.5 7,20 7.5,20 8,20 8,20.5 8,21 7.5,21 7,21 7,20.5"
         id="path10607"
         inkscape:connector-curvature="0" />
      <path
         style="fill:#00ffef;fill-opacity:1"
         d="M 8,20.5 8,20 8.5,20 q 0.5,0 1,0 0.5,0 1,0 l 0.5,0 0,0.5 0,0.5 -0.5,0 q -0.5,0 -1,0 -0.5,0 -1,0 L 8,21 8,20.5"
         id="path10609"
         inkscape:connector-curvature="0" />
      <path
         style="fill:#00fff0;fill-opacity:1"
         d="m 11,20.5 0,-0.5 0.5,0 0.5,0 0,0.5 0,0.5 -0.5,0 -0.5,0 0,-0.5"
         id="path10611"
         inkscape:connector-curvature="0" />
      <path
         style="fill:#00ffef;fill-opacity:1"
         d="m 12,20.5 0,-0.5 0.5,0 0.5,0 0,0.5 0,0.5 -0.5,0 -0.5,0 0,-0.5"
         id="path10613"
         inkscape:connector-curvature="0" />
      <path
         style="fill:#00fff0;fill-opacity:1"
         d="m 13,20.5 0,-0.5 0.5,0 0.5,0 0,0.5 0,0.5 -0.5,0 -0.5,0 0,-0.5"
         id="path10615"
         inkscape:connector-curvature="0" />
      <path
         style="fill:#00ffef;fill-opacity:1"
         d="m 14,20.5 0,-0.5 0.5,0 q 0.5,0 1,0 0.5,0 1,0 0.5,0 1,0 0.5,0 1,0 0.5,0 0.875,-0.125 L 19.75,19.75 19.46875,19.84375 19.1875,19.9375 19.375,19.875 q 0.1875,-0.0625 0.3125,-0.1875 l 0.125,-0.125 -0.0625,0.0625 -0.0625,0.0625 0.28125,0.28125 Q 20.25,20.25 20.625,20.125 L 21,20 20.875,20.375 q -0.125,0.375 -0.5,0.5 Q 20,21 19.5,21 q -0.5,0 -1,0 -0.5,0 -1,0 -0.5,0 -1,0 -0.5,0 -1,0 -0.5,0 -1,0 l -0.5,0 0,-0.5"
         id="path10617"
         inkscape:connector-curvature="0" />
    </g>
  </g>
</svg>
