<?xml version="1.0" encoding="UTF-8" standalone="no"?>
<!-- Created with Inkscape (http://www.inkscape.org/) -->

<svg
   xmlns:dc="http://purl.org/dc/elements/1.1/"
   xmlns:cc="http://creativecommons.org/ns#"
   xmlns:rdf="http://www.w3.org/1999/02/22-rdf-syntax-ns#"
   xmlns:svg="http://www.w3.org/2000/svg"
   xmlns="http://www.w3.org/2000/svg"
   xmlns:sodipodi="http://sodipodi.sourceforge.net/DTD/sodipodi-0.dtd"
   xmlns:inkscape="http://www.inkscape.org/namespaces/inkscape"
   width="20"
   height="20"
   viewBox="0 0 20 20"
   id="svg3347"
   version="1.1"
   inkscape:version="0.91 r13725"
   sodipodi:docname="Civ5Icon.Missionary.svg">
  <defs
     id="defs3349" />
  <sodipodi:namedview
     id="base"
     pagecolor="#ffffff"
     bordercolor="#666666"
     borderopacity="1.0"
     inkscape:pageopacity="0.0"
     inkscape:pageshadow="2"
     inkscape:zoom="11.2"
     inkscape:cx="13.251856"
     inkscape:cy="8.3638322"
     inkscape:document-units="px"
     inkscape:current-layer="layer1"
     showgrid="false"
     units="px"
     inkscape:window-width="1477"
     inkscape:window-height="962"
     inkscape:window-x="533"
     inkscape:window-y="95"
     inkscape:window-maximized="0" />
  <metadata
     id="metadata3352">
    <rdf:RDF>
      <cc:Work
         rdf:about="">
        <dc:format>image/svg+xml</dc:format>
        <dc:type
           rdf:resource="http://purl.org/dc/dcmitype/StillImage" />
        <dc:title></dc:title>
      </cc:Work>
    </rdf:RDF>
  </metadata>
  <g
     inkscape:label="Layer 1"
     inkscape:groupmode="layer"
     id="layer1"
     transform="translate(0,-1032.3622)">
    <g
       transform="translate(-0.84821518,1031.1568)"
       id="g23107">
      <path
         style="fill:#000000;fill-opacity:0"
         d="M 0,0.5 0,0 0.5,0 1,0 1.5,0 2,0 2.5,0 3,0 3.5,0 4,0 4.5,0 5,0 5.5,0 6,0 6.5,0 7,0 7.5,0 8,0 8.5,0 9,0 9.5,0 10,0 l 0.5,0 0.5,0 0.5,0 0.5,0 0.5,0 0.5,0 0.5,0 0.5,0 0.5,0 0.5,0 0.5,0 0.5,0 0.5,0 0.5,0 0.5,0 0.5,0 0.5,0 0.5,0 0.5,0 0.5,0 0.5,0 0.5,0 0.5,0 0.5,0 0,0.5 0,0.5 0,0.5 0,0.5 0,0.5 0,0.5 0,0.5 0,0.5 0,0.5 0,0.5 0,0.5 0,0.5 0,0.5 0,0.5 0,0.5 0,0.5 0,0.5 0,0.5 0,0.5 0,0.5 0,0.5 0,0.5 0,0.5 0,0.5 0,0.5 0,0.5 0,0.5 0,0.5 0,0.5 0,0.5 0,0.5 0,0.5 0,0.5 0,0.5 0,0.5 0,0.5 0,0.5 0,0.5 0,0.5 0,0.5 0,0.5 0,0.5 0,0.5 0,0.5 -0.5,0 L 21,22 20.5,22 20,22 19.5,22 19,22 18.5,22 18,22 17.5,22 17,22 16.5,22 16,22 15.5,22 15,22 14.5,22 14,22 13.5,22 13,22 12.5,22 12,22 11.5,22 11,22 10.5,22 10,22 9.5,22 9,22 8.5,22 8,22 7.5,22 7,22 6.5,22 6,22 5.5,22 5,22 4.5,22 4,22 3.5,22 3,22 2.5,22 2,22 1.5,22 1,22 0.5,22 0,22 0,21.5 0,21 0,20.5 0,20 0,19.5 0,19 0,18.5 0,18 0,17.5 0,17 0,16.5 0,16 0,15.5 0,15 0,14.5 0,14 0,13.5 0,13 0,12.5 0,12 0,11.5 0,11 0,10.5 0,10 0,9.5 0,9 0,8.5 0,8 0,7.5 0,7 0,6.5 0,6 0,5.5 0,5 0,4.5 0,4 0,3.5 0,3 0,2.5 0,2 0,1.5 0,1 0,0.5 M 20.5,18 Q 21,18 21,17.5 L 21,17 21.125,16.625 Q 21.25,16.25 20.96875,16 L 20.6875,15.75 20.65625,15.8125 20.625,15.875 20.6875,15.75 Q 20.75,15.625 20.75,15.5 l 0,-0.125 0,0.1875 0,0.1875 0,-0.25 0,-0.25 0,0.1875 0,0.1875 0,-0.125 q 0,-0.125 -0.09375,-0.21875 l -0.09375,-0.09375 0.04687,0.04687 0.04687,0.04687 0.296875,-0.265625 Q 21.25,14.75 21.125,14.375 L 21,14 21,13.5 21,13 21,12.5 q 0,-0.5 -0.375,-0.625 -0.375,-0.125 -0.5,-0.5 L 20,11 20,10.5 20,10 20,9.5 Q 20,9 19.625,8.875 19.25,8.75 19.125,8.375 19,8 18.625,7.875 18.25,7.75 18,7.5 17.75,7.25 17.5,7 17.25,6.75 17.125,6.375 17,6 16.625,5.875 16.25,5.75 15.96875,6.03125 L 15.6875,6.3125 15.75,6.375 15.8125,6.4375 15.6875,6.3125 Q 15.5625,6.1875 15.375,6.125 L 15.1875,6.0625 15.46875,6.15625 15.75,6.25 15.375,6.125 15,6 14.5,6 14,6 13.5,6 Q 13,6 12.5,6 L 12,6 11.5,6 11,6 11.375,6 11.75,6 11.5,6 Q 11.25,6 11.125,6.125 L 11,6.25 11.0625,6.1875 11.125,6.125 10.5625,6.0625 Q 10,6 9.5,6 9,6 8.5,6 8,6 7.5,6 L 7,6 6.5,6 6,6 5.5,6 Q 5,6 4.5,6 L 4,6 4.375,6 4.75,6 4.5,6 Q 4.25,6 4.125,6.125 L 4,6.25 4.0625,6.1875 4.125,6.125 3.6875,6.1875 Q 3.25,6.25 3,6.5 2.75,6.75 2.375,6.875 2,7 1.625,7.125 1.25,7.25 1.125,7.625 1,8 1,8.5 L 1,9 1,9.5 q 0,0.5 0,1 0,0.5 0.125,0.875 L 1.25,11.75 1.15625,11.46875 1.0625,11.1875 1.125,11.375 q 0.0625,0.1875 0.1875,0.3125 l 0.125,0.125 L 1.375,11.75 1.3125,11.6875 1.03125,11.96875 Q 0.75,12.25 0.875,12.625 L 1,13 1,13.5 Q 1,14 1.5,14 L 2,14 2.125,14.375 2.25,14.75 2.15625,14.46875 2.0625,14.1875 2.125,14.375 q 0.0625,0.1875 0.1875,0.3125 l 0.125,0.125 L 2.375,14.75 2.3125,14.6875 2.03125,14.96875 Q 1.75,15.25 1.875,15.625 L 2,16 2,16.5 q 0,0.5 0.375,0.625 0.375,0.125 0.5,0.5 Q 3,18 3.5,18 l 0.5,0 0.5,0 0.5,0 0.5,0 0.5,0 0.5,0 0.5,0 0.5,0 0.5,0 0.5,0 0.5,0 0.5,0 0.5,0 0.5,0 0.5,0 0.5,0 0.5,0 0.5,0 0.5,0 0.5,0 0.5,0 0.5,0 0.5,0 0.5,0 0.5,0 0.5,0 0.5,0 0.5,0 0.5,0 0.5,0 0.5,0 0.5,0 0.5,0 0.5,0"
         id="path23109"
         inkscape:connector-curvature="0" />
      <path
         style="fill:#3e463e;fill-opacity:0.24313725"
         d="M 3,6.5 Q 3.25,6.25 3.6875,6.1875 L 4.125,6.125 4.1875,6.0625 4.25,6 4.125,6.125 Q 4,6.25 4,6.5 L 4,6.75 4,6.375 4,6 4,6.5 4,7 3.625,7.125 3.25,7.25 3.53125,7.15625 3.8125,7.0625 3.625,7.125 Q 3.4375,7.1875 3.34375,7.28125 L 3.25,7.375 3.296875,7.328125 3.34375,7.28125 3.03125,7 2.71875,6.71875 2.640625,6.765625 2.5625,6.8125 2.71875,6.71875 Q 2.875,6.625 3,6.5 L 3.125,6.375 2.9375,6.5625 2.75,6.75 3,6.5 M 4,7.125 4,7 4,6.625 4,6.25 4,6.5 Q 4,6.75 4,7 L 4,7.25 4,7.125"
         id="path23111"
         inkscape:connector-curvature="0" />
      <path
         style="fill:#dad8cd;fill-opacity:0.76078431"
         d="M 4,6.5 Q 4,6 4.5,6 L 5,6 5,6.5 5,7 4.5,7 4,7 4,6.5 M 4,6.625 4,7 4,7.125 4,7.25 4,7 Q 4,6.75 4,6.5 L 4,6.25 4,6.625 M 5.125,6 5,6 4.625,6 4.25,6 4.5,6 Q 4.75,6 5,6 L 5.25,6 5.125,6"
         id="path23113"
         inkscape:connector-curvature="0" />
      <path
         style="fill:#ebeac2;fill-opacity:0.85882353"
         d="M 5,6.5 5,6 5.5,6 6,6 6,6.5 6,7 5.5,7 5,7 5,6.5 M 5.375,6 5,6 4.875,6 4.75,6 5,6 Q 5.25,6 5.5,6 L 5.75,6 5.375,6"
         id="path23115"
         inkscape:connector-curvature="0" />
      <path
         style="fill:#d4d5b2;fill-opacity:0.83921569"
         d="M 6,6.5 6,6 6.5,6 7,6 7,6.5 7,7 6.5,7 6,7 6,6.5"
         id="path23117"
         inkscape:connector-curvature="0" />
      <path
         style="fill:#bec094;fill-opacity:0.77254902"
         d="M 7,6.5 7,6 7.5,6 8,6 8,6.5 8,7 7.5,7 7,7 7,6.5 M 8.125,6 8,6 7.625,6 7.25,6 7.5,6 Q 7.75,6 8,6 L 8.25,6 8.125,6"
         id="path23119"
         inkscape:connector-curvature="0" />
      <path
         style="fill:#80876b;fill-opacity:0.54117647"
         d="M 8,6.5 8,6 8.5,6 9,6 9,6.5 9,7 8.5,7 8,7 8,6.5 M 7.875,7 8,7 8.375,7 8.75,7 8.5,7 Q 8.25,7 8,7 L 7.75,7 7.875,7 M 9.125,6 9,6 8.625,6 8.25,6 8.5,6 Q 8.75,6 9,6 L 9.25,6 9.125,6 M 8.375,6 8,6 7.875,6 7.75,6 8,6 Q 8.25,6 8.5,6 L 8.75,6 8.375,6"
         id="path23121"
         inkscape:connector-curvature="0" />
      <path
         style="fill:#404040;fill-opacity:0.01568627"
         d="M 9,6.5 9,6 9.5,6 10,6 10,6.5 10,7 9.5,7 9,7 9,6.5 M 10.125,6 10,6 9.625,6 9.25,6 9.5,6 Q 9.75,6 10,6 l 0.25,0 -0.125,0 M 9.375,6 9,6 8.875,6 8.75,6 9,6 Q 9.25,6 9.5,6 L 9.75,6 9.375,6"
         id="path23123"
         inkscape:connector-curvature="0" />
      <path
         style="fill:#4c4c37;fill-opacity:0.32941176"
         d="M 10,6.5 10,6 10.5625,6.0625 11.125,6.125 11.1875,6.0625 11.25,6 11.125,6.125 Q 11,6.25 11,6.5 L 11,6.75 11,6.375 11,6 11,6.5 11,7 10.5,7 10,7 10,6.5 M 10.375,6 10,6 9.875,6 9.75,6 10,6 q 0.25,0 0.5,0 l 0.25,0 -0.375,0"
         id="path23125"
         inkscape:connector-curvature="0" />
      <path
         style="fill:#c2c2bb;fill-opacity:0.85882353"
         d="M 11,6.5 Q 11,6 11.5,6 L 12,6 11.875,6.375 q -0.125,0.375 -0.5,0.5 L 11,7 11,6.5"
         id="path23127"
         inkscape:connector-curvature="0" />
      <path
         style="fill:#e7e7e0;fill-opacity:0.98431373"
         d="M 11.875,6.375 12,6 12.5,6 13,6 13,6.5 13,7 12.625,7.125 12.25,7.25 12.53125,7.15625 12.8125,7.0625 12.625,7.125 Q 12.4375,7.1875 12.34375,7.28125 L 12.25,7.375 12.296875,7.328125 12.34375,7.28125 12.015625,6.984375 11.6875,6.6875 11.625,6.75 11.5625,6.8125 11.6875,6.6875 Q 11.8125,6.5625 11.875,6.375 L 11.9375,6.1875 11.84375,6.46875 11.75,6.75 11.875,6.375 M 13.125,6 13,6 12.625,6 12.25,6 12.5,6 q 0.25,0 0.5,0 l 0.25,0 -0.125,0"
         id="path23129"
         inkscape:connector-curvature="0" />
      <path
         style="fill:#e5e5c0;fill-opacity:0.99215686"
         d="M 13,6.5 13,6 13.5,6 14,6 14,6.5 14,7 13.5,7 13,7 13,6.5 M 13.375,6 13,6 12.875,6 12.75,6 13,6 q 0.25,0 0.5,0 l 0.25,0 -0.375,0"
         id="path23131"
         inkscape:connector-curvature="0" />
      <path
         style="fill:#c9caa9;fill-opacity:0.99607843"
         d="M 14,6.5 14,6 14.5,6 15,6 15,6.5 15,7 14.5,7 14,7 14,6.5"
         id="path23133"
         inkscape:connector-curvature="0" />
      <path
         style="fill:#babe9d;fill-opacity:0.98823529"
         d="M 15,6.5 15,6 15.375,6.125 q 0.375,0.125 0.5,0.5 L 16,7 15.5,7 15,7 15,6.5"
         id="path23135"
         inkscape:connector-curvature="0" />
      <path
         style="fill:#2e2e29;fill-opacity:0.56078425"
         d="M 15.875,6.625 15.75,6.25 15.84375,6.53125 15.9375,6.8125 15.875,6.625 Q 15.8125,6.4375 15.6875,6.3125 L 15.5625,6.1875 15.625,6.25 15.6875,6.3125 15.96875,6.03125 Q 16.25,5.75 16.625,5.875 17,6 17.125,6.375 L 17.25,6.75 17.15625,6.46875 17.0625,6.1875 17.125,6.375 q 0.0625,0.1875 0.15625,0.34375 L 17.375,6.875 17.328125,6.796875 17.28125,6.71875 17,7 16.71875,7.28125 16.796875,7.328125 16.875,7.375 16.71875,7.28125 Q 16.5625,7.1875 16.375,7.125 L 16.1875,7.0625 16.46875,7.15625 16.75,7.25 16.375,7.125 16,7 15.875,6.625 M 15.90625,6.71875 16,7 16.03125,7.09375 16.0625,7.1875 16,7 Q 15.9375,6.8125 15.875,6.625 l -0.0625,-0.1875 0.09375,0.28125"
         id="path23137"
         inkscape:connector-curvature="0" />
      <path
         style="fill:#808080;fill-opacity:0.08627451"
         d="M 1.125,7.625 Q 1.25,7.25 1.625,7.125 L 2,7 2,7.5 2,8 1.515625,8.015625 1.03125,8.03125 1.015625,8.140625 1,8.25 1.03125,8.03125 Q 1.0625,7.8125 1.125,7.625 L 1.1875,7.4375 1.09375,7.71875 1,8 1.125,7.625 M 2.09375,6.96875 2,7 1.71875,7.09375 1.4375,7.1875 1.625,7.125 Q 1.8125,7.0625 2,7 L 2.1875,6.9375 2.09375,6.96875"
         id="path23139"
         inkscape:connector-curvature="0" />
      <path
         style="fill:#6d6d5a;fill-opacity:0.53333327"
         d="M 2,7.5 2,7 2.375,6.875 2.75,6.75 2.46875,6.84375 2.1875,6.9375 2.375,6.875 Q 2.5625,6.8125 2.71875,6.71875 L 2.875,6.625 2.796875,6.671875 2.71875,6.71875 3.03125,7 3.34375,7.28125 3.390625,7.234375 3.4375,7.1875 3.34375,7.28125 Q 3.25,7.375 3.25,7.5 l 0,0.125 0,-0.1875 0,-0.1875 0,0.25 0,0.25 0,-0.1875 0,-0.1875 0,0.125 q 0,0.125 0.09375,0.21875 L 3.4375,7.8125 3.390625,7.765625 3.34375,7.71875 3.015625,8.015625 2.6875,8.3125 2.75,8.375 2.8125,8.4375 2.6875,8.3125 Q 2.5625,8.1875 2.375,8.125 L 2.1875,8.0625 2.46875,8.15625 2.75,8.25 2.375,8.125 2,8 2,7.5 M 2.28125,6.90625 2,7 1.90625,7.03125 1.8125,7.0625 2,7 Q 2.1875,6.9375 2.375,6.875 L 2.5625,6.8125 2.28125,6.90625"
         id="path23141"
         inkscape:connector-curvature="0" />
      <path
         style="fill:#7b7e6f;fill-opacity:0.98039216"
         d="m 3.25,7.5 q 0,-0.25 0.375,-0.375 L 4,7 4,7.5 4,8 3.625,7.875 Q 3.25,7.75 3.25,7.5 M 4,7.375 4,7 4,6.875 4,6.75 4,7 Q 4,7.25 4,7.5 L 4,7.75 4,7.375"
         id="path23143"
         inkscape:connector-curvature="0" />
      <path
         style="fill:#f8f7f1;fill-opacity:1"
         d="M 4,7.5 4,7 4.5,7 5,7 5,7.5 5,8 4.5,8 4,8 4,7.5 M 4,6.875 4,7 4,7.375 4,7.75 4,7.5 Q 4,7.25 4,7 L 4,6.75 4,6.875"
         id="path23145"
         inkscape:connector-curvature="0" />
      <path
         style="fill:#fafad1;fill-opacity:1"
         d="M 5,7.5 5,7 5.5,7 6,7 6,7.5 6,8 5.5,8 5,8 5,7.5"
         id="path23147"
         inkscape:connector-curvature="0" />
      <path
         style="fill:#d5d5ae;fill-opacity:1"
         d="M 6,7.5 6,7 6.5,7 7,7 7,7.5 7,8 6.5,8 6,8 6,7.5"
         id="path23149"
         inkscape:connector-curvature="0" />
      <path
         style="fill:#c6c8a9;fill-opacity:1"
         d="M 7,7.5 7,7 7.5,7 8,7 8,7.5 8,8 7.5,8 7,8 7,7.5"
         id="path23151"
         inkscape:connector-curvature="0" />
      <path
         style="fill:#b2bca6;fill-opacity:1"
         d="M 8,7.5 8,7 8.5,7 9,7 9,7.5 9,8 8.5,8 8,8 8,7.5"
         id="path23153"
         inkscape:connector-curvature="0" />
      <path
         style="fill:#64796f;fill-opacity:0.9254902"
         d="M 9,7.5 9,7 9.5,7 10,7 10,7.5 10,8 9.5,8 9,8 9,7.5"
         id="path23155"
         inkscape:connector-curvature="0" />
      <path
         style="fill:#bbba90;fill-opacity:0.99215686"
         d="M 10,7.5 10,7 10.5,7 11,7 11,7.5 11,8 10.5,8 10,8 10,7.5"
         id="path23157"
         inkscape:connector-curvature="0" />
      <path
         style="fill:#fffff5;fill-opacity:1"
         d="M 11,7.5 11,7 11.375,6.875 11.75,6.75 11.46875,6.84375 11.1875,6.9375 11.375,6.875 Q 11.5625,6.8125 11.6875,6.6875 L 11.8125,6.5625 11.75,6.625 11.6875,6.6875 12.015625,6.984375 12.34375,7.28125 12.390625,7.234375 12.4375,7.1875 12.34375,7.28125 Q 12.25,7.375 12.25,7.5 l 0,0.125 0,-0.1875 0,-0.1875 0,0.25 q 0,0.25 -0.28125,0.53125 L 11.6875,8.3125 11.75,8.375 11.8125,8.4375 11.6875,8.3125 Q 11.5625,8.1875 11.375,8.125 L 11.1875,8.0625 11.46875,8.15625 11.75,8.25 11.375,8.125 11,8 11,7.5 M 11,7.625 11,8 11,8.125 11,8.25 11,8 q 0,-0.25 0,-0.5 l 0,-0.25 0,0.375"
         id="path23159"
         inkscape:connector-curvature="0" />
      <path
         style="fill:#ffffff;fill-opacity:1"
         d="m 12.25,7.5 q 0,-0.25 0.375,-0.375 L 13,7 13,7.5 13,8 13.125,8.375 13.25,8.75 13.15625,8.46875 13.0625,8.1875 13.125,8.375 q 0.0625,0.1875 0.15625,0.34375 L 13.375,8.875 13.328125,8.796875 13.28125,8.71875 12.984375,9.015625 12.6875,9.3125 12.75,9.375 12.8125,9.4375 12.6875,9.3125 Q 12.5625,9.1875 12.375,9.125 L 12.1875,9.0625 12.46875,9.15625 12.75,9.25 12.375,9.125 12,9 11.875,8.625 11.75,8.25 11.84375,8.53125 11.9375,8.8125 11.875,8.625 Q 11.8125,8.4375 11.6875,8.3125 L 11.5625,8.1875 11.625,8.25 11.6875,8.3125 11.96875,8.03125 Q 12.25,7.75 12.25,7.5"
         id="path23161"
         inkscape:connector-curvature="0" />
      <path
         style="fill:#f9f9cf;fill-opacity:1"
         d="M 13,7.5 13,7 13.5,7 14,7 14.125,7.375 14.25,7.75 14.15625,7.46875 14.0625,7.1875 14.125,7.375 q 0.0625,0.1875 0.1875,0.3125 l 0.125,0.125 L 14.375,7.75 14.3125,7.6875 14.015625,7.984375 13.71875,8.28125 13.796875,8.328125 13.875,8.375 13.71875,8.28125 Q 13.5625,8.1875 13.375,8.125 L 13.1875,8.0625 13.46875,8.15625 13.75,8.25 13.375,8.125 13,8 13,7.5"
         id="path23163"
         inkscape:connector-curvature="0" />
      <path
         style="fill:#cdcda7;fill-opacity:1"
         d="M 14.125,7.375 14,7 14.5,7 15,7 15,7.5 15,8 14.625,7.875 q -0.375,-0.125 -0.5,-0.5"
         id="path23165"
         inkscape:connector-curvature="0" />
      <path
         style="fill:#c6c9a9;fill-opacity:1"
         d="M 15,7.5 15,7 15.5,7 16,7 16.125,7.375 16.25,7.75 16.15625,7.46875 16.0625,7.1875 16.125,7.375 q 0.0625,0.1875 0.15625,0.34375 L 16.375,7.875 16.328125,7.796875 16.28125,7.71875 15.984375,8.015625 15.6875,8.3125 15.75,8.375 15.8125,8.4375 15.6875,8.3125 Q 15.5625,8.1875 15.375,8.125 L 15.1875,8.0625 15.46875,8.15625 15.75,8.25 15.375,8.125 15,8 15,7.5"
         id="path23167"
         inkscape:connector-curvature="0" />
      <path
         style="fill:#7a8071;fill-opacity:0.99607843"
         d="M 16.125,7.375 16,7 16.375,7.125 Q 16.75,7.25 17,7.5 L 17.25,7.75 17,8 16.75,8.25 16.5,8 Q 16.25,7.75 16.125,7.375 M 16.5625,8.0625 16.75,8.25 16.8125,8.3125 16.875,8.375 16.75,8.25 Q 16.625,8.125 16.5,8 l -0.125,-0.125 0.1875,0.1875 m 0.75,-0.25 L 17.25,7.75 17.0625,7.5625 16.875,7.375 17,7.5 q 0.125,0.125 0.25,0.25 L 17.375,7.875 17.3125,7.8125 M 15.96875,6.90625 16,7 16.09375,7.28125 16.1875,7.5625 16.125,7.375 Q 16.0625,7.1875 16,7 l -0.0625,-0.1875 0.03125,0.09375"
         id="path23169"
         inkscape:connector-curvature="0" />
      <path
         style="fill:#424635;fill-opacity:0.54509804"
         d="M 17,7.5 16.75,7.25 16.9375,7.4375 17.125,7.625 17,7.5 Q 16.875,7.375 16.71875,7.28125 L 16.5625,7.1875 16.640625,7.234375 16.71875,7.28125 17,7 17.28125,6.71875 17.234375,6.640625 17.1875,6.5625 17.28125,6.71875 Q 17.375,6.875 17.5,7 L 17.625,7.125 17.4375,6.9375 17.25,6.75 17.5,7 Q 17.75,7.25 18,7.5 L 18.25,7.75 18.0625,7.5625 17.875,7.375 18,7.5 q 0.125,0.125 0.28125,0.21875 L 18.4375,7.8125 18.359375,7.765625 18.28125,7.71875 18,8 17.71875,8.28125 17.765625,8.359375 17.8125,8.4375 17.71875,8.28125 Q 17.625,8.125 17.5,8 L 17.375,7.875 17.5625,8.0625 17.75,8.25 17.5,8 Q 17.25,7.75 17,7.5"
         id="path23171"
         inkscape:connector-curvature="0" />
      <path
         style="fill:#dcdcd8;fill-opacity:0.89803922"
         d="M 1,8.5 1,8 1,8.375 1,8.75 1,8.5 Q 1,8.25 1.03125,8.03125 L 1.0625,7.8125 1.046875,7.921875 1.03125,8.03125 1.515625,8.015625 2,8 2,8.5 2,9 1.5,9 1,9 1,8.5"
         id="path23173"
         inkscape:connector-curvature="0" />
      <path
         style="fill:#efefd7;fill-opacity:1"
         d="M 2,8.5 2,8 2.375,8.125 q 0.375,0.125 0.5,0.5 L 3,9 2.5,9 2,9 2,8.5"
         id="path23175"
         inkscape:connector-curvature="0" />
      <path
         style="fill:#6a6b54;fill-opacity:1"
         d="M 2.875,8.625 2.75,8.25 2.84375,8.53125 2.9375,8.8125 2.875,8.625 Q 2.8125,8.4375 2.6875,8.3125 L 2.5625,8.1875 2.625,8.25 2.6875,8.3125 3.015625,8.015625 3.34375,7.71875 3.296875,7.671875 3.25,7.625 3.34375,7.71875 Q 3.4375,7.8125 3.625,7.875 L 3.8125,7.9375 3.53125,7.84375 3.25,7.75 3.625,7.875 4,8 4,8.5 4,9 3.5,9 3,9 2.875,8.625"
         id="path23177"
         inkscape:connector-curvature="0" />
      <path
         style="fill:#d1d1ce;fill-opacity:1"
         d="M 4,8.5 4,8 4.5,8 5,8 5.125,8.375 5.25,8.75 5.15625,8.46875 5.0625,8.1875 5.125,8.375 Q 5.1875,8.5625 5.28125,8.71875 L 5.375,8.875 5.328125,8.796875 5.28125,8.71875 4.984375,9.015625 4.6875,9.3125 4.75,9.375 4.8125,9.4375 4.6875,9.3125 Q 4.5625,9.1875 4.375,9.125 L 4.1875,9.0625 4.46875,9.15625 4.75,9.25 4.375,9.125 4,9 4,8.5"
         id="path23179"
         inkscape:connector-curvature="0" />
      <path
         style="fill:#fefedf;fill-opacity:1"
         d="M 5.125,8.375 5,8 5.5,8 6,8 6.125,8.375 6.25,8.75 6.15625,8.46875 6.0625,8.1875 6.125,8.375 Q 6.1875,8.5625 6.3125,8.6875 L 6.4375,8.8125 6.375,8.75 6.3125,8.6875 6.015625,8.984375 5.71875,9.28125 5.765625,9.359375 5.8125,9.4375 5.71875,9.28125 Q 5.625,9.125 5.5,9 L 5.375,8.875 5.5625,9.0625 5.75,9.25 5.5,9 Q 5.25,8.75 5.125,8.375"
         id="path23181"
         inkscape:connector-curvature="0" />
      <path
         style="fill:#d7d7ad;fill-opacity:1"
         d="M 6.125,8.375 6,8 6.5,8 7,8 7,8.5 7,9 6.625,8.875 Q 6.25,8.75 6.125,8.375"
         id="path23183"
         inkscape:connector-curvature="0" />
      <path
         style="fill:#c4c5a5;fill-opacity:1"
         d="M 7,8.5 7,8 7.5,8 8,8 8,8.5 8,9 7.5,9 7,9 7,8.5"
         id="path23185"
         inkscape:connector-curvature="0" />
      <path
         style="fill:#b2b89e;fill-opacity:1"
         d="M 8,8.5 8,8 8.5,8 9,8 9,8.5 9,9 8.5,9 8,9 8,8.5"
         id="path23187"
         inkscape:connector-curvature="0" />
      <path
         style="fill:#80968c;fill-opacity:1"
         d="M 9,8.5 9,8 9.5,8 10,8 10.125,8.375 10.25,8.75 10.15625,8.46875 10.0625,8.1875 10.125,8.375 q 0.0625,0.1875 0.1875,0.3125 l 0.125,0.125 L 10.375,8.75 10.3125,8.6875 10,9 9.6875,9.3125 9.75,9.375 9.8125,9.4375 9.6875,9.3125 Q 9.5625,9.1875 9.375,9.125 L 9.1875,9.0625 9.46875,9.15625 9.75,9.25 9.375,9.125 9,9 9,8.5"
         id="path23189"
         inkscape:connector-curvature="0" />
      <path
         style="fill:#9b9f7f;fill-opacity:1"
         d="M 10.125,8.375 10,8 10.5,8 11,8 11,8.5 11,9 10.625,8.875 q -0.375,-0.125 -0.5,-0.5"
         id="path23191"
         inkscape:connector-curvature="0" />
      <path
         style="fill:#f3f2cd;fill-opacity:1"
         d="M 11,8.5 11,8 11.375,8.125 q 0.375,0.125 0.5,0.5 L 12,9 11.5,9 11,9 11,8.5 M 11,7.875 11,8 11,8.375 11,8.75 11,8.5 Q 11,8.25 11,8 l 0,-0.25 0,0.125"
         id="path23193"
         inkscape:connector-curvature="0" />
      <path
         style="fill:#feffdf;fill-opacity:1"
         d="M 13.125,8.375 13,8 13.375,8.125 Q 13.75,8.25 14,8.5 L 14.25,8.75 14.0625,8.5625 13.875,8.375 14,8.5 q 0.125,0.125 0.28125,0.21875 L 14.4375,8.8125 14.359375,8.765625 14.28125,8.71875 14,9 13.71875,9.28125 13.765625,9.359375 13.8125,9.4375 13.71875,9.28125 Q 13.625,9.125 13.5,9 L 13.375,8.875 13.5625,9.0625 13.75,9.25 13.5,9 Q 13.25,8.75 13.125,8.375"
         id="path23195"
         inkscape:connector-curvature="0" />
      <path
         style="fill:#dadaaf;fill-opacity:1"
         d="M 14,8.5 13.75,8.25 13.9375,8.4375 14.125,8.625 14,8.5 Q 13.875,8.375 13.71875,8.28125 L 13.5625,8.1875 13.640625,8.234375 13.71875,8.28125 14.015625,7.984375 14.3125,7.6875 14.25,7.625 14.1875,7.5625 l 0.125,0.125 q 0.125,0.125 0.3125,0.1875 L 14.8125,7.9375 14.53125,7.84375 14.25,7.75 14.625,7.875 15,8 15,8.5 15,9 14.625,8.875 Q 14.25,8.75 14,8.5"
         id="path23197"
         inkscape:connector-curvature="0" />
      <path
         style="fill:#c0c2a1;fill-opacity:1"
         d="M 15,8.5 15,8 15.375,8.125 q 0.375,0.125 0.5,0.5 L 16,9 15.5,9 15,9 15,8.5"
         id="path23199"
         inkscape:connector-curvature="0" />
      <path
         style="fill:#a1a993;fill-opacity:1"
         d="M 15.875,8.625 15.75,8.25 15.84375,8.53125 15.9375,8.8125 15.875,8.625 Q 15.8125,8.4375 15.6875,8.3125 L 15.5625,8.1875 15.625,8.25 15.6875,8.3125 15.984375,8.015625 16.28125,7.71875 16.234375,7.640625 16.1875,7.5625 16.28125,7.71875 Q 16.375,7.875 16.5,8 L 16.625,8.125 16.4375,7.9375 16.25,7.75 16.5,8 Q 16.75,8.25 17,8.5 L 17.25,8.75 17.0625,8.5625 16.875,8.375 17,8.5 q 0.125,0.125 0.28125,0.21875 L 17.4375,8.8125 17.359375,8.765625 17.28125,8.71875 17,9 16.71875,9.28125 16.796875,9.328125 16.875,9.375 16.71875,9.28125 Q 16.5625,9.1875 16.375,9.125 L 16.1875,9.0625 16.46875,9.15625 16.75,9.25 16.375,9.125 16,9 15.875,8.625"
         id="path23201"
         inkscape:connector-curvature="0" />
      <path
         style="fill:#7c8674;fill-opacity:1"
         d="M 17,8.5 16.75,8.25 17,8 17.25,7.75 17.5,8 q 0.25,0.25 0.375,0.625 L 18,9 17.625,8.875 Q 17.25,8.75 17,8.5 M 17.4375,7.9375 17.25,7.75 17.1875,7.6875 17.125,7.625 17.25,7.75 Q 17.375,7.875 17.5,8 l 0.125,0.125 -0.1875,-0.1875 m -0.75,0.25 L 16.75,8.25 16.9375,8.4375 17.125,8.625 17,8.5 Q 16.875,8.375 16.75,8.25 l -0.125,-0.125 0.0625,0.0625"
         id="path23203"
         inkscape:connector-curvature="0" />
      <path
         style="fill:#2a2a1d;fill-opacity:0.59215686"
         d="M 17.875,8.625 17.75,8.25 17.84375,8.53125 17.9375,8.8125 17.875,8.625 Q 17.8125,8.4375 17.71875,8.28125 L 17.625,8.125 17.671875,8.203125 17.71875,8.28125 18,8 18.28125,7.71875 18.203125,7.671875 18.125,7.625 18.28125,7.71875 Q 18.4375,7.8125 18.625,7.875 L 18.8125,7.9375 18.53125,7.84375 18.25,7.75 18.625,7.875 Q 19,8 19.125,8.375 L 19.25,8.75 19.15625,8.46875 19.0625,8.1875 19.125,8.375 q 0.0625,0.1875 0.1875,0.3125 l 0.125,0.125 L 19.375,8.75 19.3125,8.6875 19,9 18.6875,9.3125 18.75,9.375 18.8125,9.4375 18.6875,9.3125 Q 18.5625,9.1875 18.375,9.125 L 18.1875,9.0625 18.46875,9.15625 18.75,9.25 18.375,9.125 18,9 17.875,8.625"
         id="path23205"
         inkscape:connector-curvature="0" />
      <path
         style="fill:#d1d2c6;fill-opacity:0.94901961"
         d="M 1,9.5 1,9 1.5,9 2,9 2.125,9.375 2.25,9.75 2.15625,9.46875 2.0625,9.1875 2.125,9.375 Q 2.1875,9.5625 2.3125,9.6875 L 2.4375,9.8125 2.375,9.75 2.3125,9.6875 2,10 1.6875,10.3125 1.75,10.375 1.8125,10.4375 1.6875,10.3125 Q 1.5625,10.1875 1.375,10.125 L 1.1875,10.0625 1.46875,10.15625 1.75,10.25 1.375,10.125 1,10 1,9.5 M 1,9.625 1,10 1,10.125 1,10.25 1,10 Q 1,9.75 1,9.5 L 1,9.25 1,9.625"
         id="path23207"
         inkscape:connector-curvature="0" />
      <path
         style="fill:#fafaeb;fill-opacity:1"
         d="M 2.125,9.375 2,9 2.5,9 3,9 3,9.5 3,10 2.625,9.875 Q 2.25,9.75 2.125,9.375"
         id="path23209"
         inkscape:connector-curvature="0" />
      <path
         style="fill:#77785b;fill-opacity:1"
         d="M 3,9.5 3,9 3.5,9 4,9 4,9.5 4,10 3.5,10 3,10 3,9.5"
         id="path23211"
         inkscape:connector-curvature="0" />
      <path
         style="fill:#a3a49f;fill-opacity:1"
         d="M 4,9.5 4,9 4.375,9.125 q 0.375,0.125 0.5,0.5 L 5,10 4.5,10 4,10 4,9.5"
         id="path23213"
         inkscape:connector-curvature="0" />
      <path
         style="fill:#fffff0;fill-opacity:1"
         d="M 4.875,9.625 4.75,9.25 4.84375,9.53125 4.9375,9.8125 4.875,9.625 Q 4.8125,9.4375 4.6875,9.3125 L 4.5625,9.1875 4.625,9.25 4.6875,9.3125 4.984375,9.015625 5.28125,8.71875 5.234375,8.640625 5.1875,8.5625 5.28125,8.71875 Q 5.375,8.875 5.5,9 L 5.625,9.125 5.4375,8.9375 5.25,8.75 5.5,9 Q 5.75,9.25 5.875,9.625 L 6,10 5.5,10 5,10 4.875,9.625"
         id="path23215"
         inkscape:connector-curvature="0" />
      <path
         style="fill:#e2e1b4;fill-opacity:1"
         d="M 5.875,9.625 5.75,9.25 5.84375,9.53125 5.9375,9.8125 5.875,9.625 Q 5.8125,9.4375 5.71875,9.28125 L 5.625,9.125 5.671875,9.203125 5.71875,9.28125 6.015625,8.984375 6.3125,8.6875 6.25,8.625 6.1875,8.5625 6.3125,8.6875 Q 6.4375,8.8125 6.625,8.875 L 6.8125,8.9375 6.53125,8.84375 6.25,8.75 6.625,8.875 7,9 7,9.5 7,10 6.5,10 6,10 5.875,9.625"
         id="path23217"
         inkscape:connector-curvature="0" />
      <path
         style="fill:#c8c8a7;fill-opacity:1"
         d="M 7,9.5 7,9 7.5,9 8,9 8,9.5 8,10 7.5,10 7,10 7,9.5"
         id="path23219"
         inkscape:connector-curvature="0" />
      <path
         style="fill:#b9bca0;fill-opacity:1"
         d="M 8,9.5 8,9 8.5,9 9,9 9.125,9.375 9.25,9.75 9.15625,9.46875 9.0625,9.1875 9.125,9.375 Q 9.1875,9.5625 9.3125,9.6875 L 9.4375,9.8125 9.375,9.75 9.3125,9.6875 9.015625,9.984375 8.71875,10.28125 8.796875,10.328125 8.875,10.375 8.71875,10.28125 Q 8.5625,10.1875 8.375,10.125 L 8.1875,10.0625 8.46875,10.15625 8.75,10.25 8.375,10.125 8,10 8,9.5"
         id="path23221"
         inkscape:connector-curvature="0" />
      <path
         style="fill:#889c90;fill-opacity:1"
         d="M 9.125,9.375 9,9 9.375,9.125 q 0.375,0.125 0.5,0.5 L 10,10 9.625,9.875 Q 9.25,9.75 9.125,9.375"
         id="path23223"
         inkscape:connector-curvature="0" />
      <path
         style="fill:#7b8772;fill-opacity:1"
         d="M 9.875,9.625 9.75,9.25 9.84375,9.53125 9.9375,9.8125 9.875,9.625 Q 9.8125,9.4375 9.6875,9.3125 L 9.5625,9.1875 9.625,9.25 9.6875,9.3125 10,9 10.3125,8.6875 10.25,8.625 10.1875,8.5625 l 0.125,0.125 q 0.125,0.125 0.3125,0.1875 L 10.8125,8.9375 10.53125,8.84375 10.25,8.75 10.625,8.875 11,9 11,9.5 11,10 10.5,10 10,10 9.875,9.625"
         id="path23225"
         inkscape:connector-curvature="0" />
      <path
         style="fill:#dedeb2;fill-opacity:1"
         d="M 11,9.5 11,9 11.5,9 12,9 12,9.5 12,10 11.5,10 11,10 11,9.5"
         id="path23227"
         inkscape:connector-curvature="0" />
      <path
         style="fill:#fffffd;fill-opacity:1"
         d="M 12,9.5 12,9 12.375,9.125 q 0.375,0.125 0.5,0.5 L 13,10 12.5,10 12,10 12,9.5"
         id="path23229"
         inkscape:connector-curvature="0" />
      <path
         style="fill:#fffff0;fill-opacity:1"
         d="M 12.875,9.625 12.75,9.25 12.84375,9.53125 12.9375,9.8125 12.875,9.625 Q 12.8125,9.4375 12.6875,9.3125 L 12.5625,9.1875 12.625,9.25 12.6875,9.3125 12.984375,9.015625 13.28125,8.71875 13.234375,8.640625 13.1875,8.5625 13.28125,8.71875 Q 13.375,8.875 13.5,9 L 13.625,9.125 13.4375,8.9375 13.25,8.75 13.5,9 q 0.25,0.25 0.375,0.625 L 14,10 13.5,10 13,10 12.875,9.625"
         id="path23231"
         inkscape:connector-curvature="0" />
      <path
         style="fill:#e8e9bb;fill-opacity:1"
         d="M 13.875,9.625 13.75,9.25 13.84375,9.53125 13.9375,9.8125 13.875,9.625 Q 13.8125,9.4375 13.71875,9.28125 L 13.625,9.125 13.671875,9.203125 13.71875,9.28125 14,9 14.28125,8.71875 14.203125,8.671875 14.125,8.625 14.28125,8.71875 Q 14.4375,8.8125 14.625,8.875 L 14.8125,8.9375 14.53125,8.84375 14.25,8.75 14.625,8.875 15,9 15,9.5 15,10 14.5,10 14,10 13.875,9.625"
         id="path23233"
         inkscape:connector-curvature="0" />
      <path
         style="fill:#c3c4a4;fill-opacity:1"
         d="M 15,9.5 15,9 15.5,9 16,9 16,9.5 16,10 15.5,10 15,10 15,9.5"
         id="path23235"
         inkscape:connector-curvature="0" />
      <path
         style="fill:#b1b69a;fill-opacity:1"
         d="M 16,9.5 16,9 16.375,9.125 Q 16.75,9.25 17,9.5 l 0.25,0.25 -0.265625,0.265625 -0.265625,0.265625 0.07813,0.04687 L 16.875,10.375 16.71875,10.28125 Q 16.5625,10.1875 16.375,10.125 L 16.1875,10.0625 16.46875,10.15625 16.75,10.25 16.375,10.125 16,10 16,9.5 M 17.3125,9.8125 17.25,9.75 17.0625,9.5625 16.875,9.375 17,9.5 q 0.125,0.125 0.25,0.25 l 0.125,0.125 -0.0625,-0.0625"
         id="path23237"
         inkscape:connector-curvature="0" />
      <path
         style="fill:#788577;fill-opacity:1"
         d="M 17,9.5 16.75,9.25 16.9375,9.4375 17.125,9.625 17,9.5 Q 16.875,9.375 16.71875,9.28125 L 16.5625,9.1875 16.640625,9.234375 16.71875,9.28125 17,9 17.28125,8.71875 17.203125,8.671875 17.125,8.625 17.28125,8.71875 Q 17.4375,8.8125 17.625,8.875 L 17.8125,8.9375 17.53125,8.84375 17.25,8.75 17.625,8.875 18,9 18.125,9.375 18.25,9.75 18.15625,9.46875 18.0625,9.1875 18.125,9.375 q 0.0625,0.1875 0.1875,0.3125 l 0.125,0.125 L 18.375,9.75 18.3125,9.6875 18.015625,9.984375 17.71875,10.28125 l 0.04687,0.07813 0.04687,0.07813 -0.09375,-0.15625 Q 17.625,10.125 17.5,10 L 17.375,9.875 17.5625,10.0625 17.75,10.25 17.5,10 Q 17.25,9.75 17,9.5"
         id="path23239"
         inkscape:connector-curvature="0" />
      <path
         style="fill:#424335;fill-opacity:0.96470588"
         d="M 18.125,9.375 18,9 18.375,9.125 q 0.375,0.125 0.5,0.5 L 19,10 18.625,9.875 q -0.375,-0.125 -0.5,-0.5"
         id="path23241"
         inkscape:connector-curvature="0" />
      <path
         style="fill:#000000;fill-opacity:0.08627451"
         d="M 18.875,9.625 18.75,9.25 18.84375,9.53125 18.9375,9.8125 18.875,9.625 Q 18.8125,9.4375 18.6875,9.3125 L 18.5625,9.1875 18.625,9.25 18.6875,9.3125 19,9 19.3125,8.6875 19.25,8.625 19.1875,8.5625 l 0.125,0.125 q 0.125,0.125 0.3125,0.1875 L 19.8125,8.9375 19.53125,8.84375 19.25,8.75 19.625,8.875 Q 20,9 20,9.5 L 20,10 19.5,10 19,10 18.875,9.625"
         id="path23243"
         inkscape:connector-curvature="0" />
      <path
         style="fill:#9d9d89;fill-opacity:0.82745098"
         d="M 1,10.5 1,10 1.375,10.125 q 0.375,0.125 0.5,0.5 L 2,11 1.90625,10.71875 1.8125,10.4375 1.875,10.625 q 0.0625,0.1875 0.09375,0.40625 L 2,11.25 1.984375,11.140625 1.96875,11.03125 1.5,11 1.03125,10.96875 1.046875,11.078125 1.0625,11.1875 1.03125,10.96875 Q 1,10.75 1,10.5 L 1,10.25 1,10.625 1,11 1,10.5 M 1,9.875 1,10 1,10.375 1,10.75 1,10.5 Q 1,10.25 1,10 L 1,9.75 1,9.875"
         id="path23245"
         inkscape:connector-curvature="0" />
      <path
         style="fill:#fffffa;fill-opacity:1"
         d="M 1.875,10.625 1.75,10.25 1.84375,10.53125 1.9375,10.8125 1.875,10.625 Q 1.8125,10.4375 1.6875,10.3125 L 1.5625,10.1875 1.625,10.25 1.6875,10.3125 2,10 2.3125,9.6875 2.25,9.625 2.1875,9.5625 2.3125,9.6875 Q 2.4375,9.8125 2.625,9.875 L 2.8125,9.9375 2.53125,9.84375 2.25,9.75 2.625,9.875 3,10 3,10.5 3,11 2.5,11 2,11 1.875,10.625"
         id="path23247"
         inkscape:connector-curvature="0" />
      <path
         style="fill:#9e9f7f;fill-opacity:1"
         d="M 3,10.5 3,10 3.5,10 4,10 4,10.5 4,11 3.5,11 3,11 3,10.5 M 3,10.625 3,11 3,11.125 3,11.25 3,11 q 0,-0.25 0,-0.5 l 0,-0.25 0,0.375 m 1,0.5 L 4,11 4,10.625 4,10.25 4,10.5 q 0,0.25 0,0.5 l 0,0.25 0,-0.125"
         id="path23249"
         inkscape:connector-curvature="0" />
      <path
         style="fill:#7b7c73;fill-opacity:1"
         d="M 4,10.5 4,10 4.5,10 5,10 5,10.5 5,11 4.5,11 4,11 4,10.5"
         id="path23251"
         inkscape:connector-curvature="0" />
      <path
         style="fill:#fefef4;fill-opacity:1"
         d="M 5,10.5 5,10 5.5,10 6,10 6,10.5 6,11 5.5,11 5,11 5,10.5"
         id="path23253"
         inkscape:connector-curvature="0" />
      <path
         style="fill:#efeec2;fill-opacity:1"
         d="M 6,10.5 6,10 6.5,10 7,10 7,10.5 7,11 6.5,11 6,11 6,10.5"
         id="path23255"
         inkscape:connector-curvature="0" />
      <path
         style="fill:#cbcca8;fill-opacity:1"
         d="M 7,10.5 7,10 7.5,10 8,10 8,10.5 8,11 7.5,11 7,11 7,10.5"
         id="path23257"
         inkscape:connector-curvature="0" />
      <path
         style="fill:#bcbea1;fill-opacity:1"
         d="M 8,10.5 8,10 8.375,10.125 Q 8.75,10.25 9,10.5 L 9.25,10.75 8.96875,11.03125 8.6875,11.3125 8.75,11.375 8.8125,11.4375 8.6875,11.3125 Q 8.5625,11.1875 8.375,11.125 L 8.1875,11.0625 8.46875,11.15625 8.75,11.25 8.375,11.125 8,11 8,10.5 M 9.3125,10.8125 9.25,10.75 9.0625,10.5625 8.875,10.375 9,10.5 q 0.125,0.125 0.25,0.25 l 0.125,0.125 -0.0625,-0.0625"
         id="path23259"
         inkscape:connector-curvature="0" />
      <path
         style="fill:#9aa997;fill-opacity:1"
         d="M 9,10.5 8.75,10.25 8.9375,10.4375 9.125,10.625 9,10.5 Q 8.875,10.375 8.71875,10.28125 L 8.5625,10.1875 8.640625,10.234375 8.71875,10.28125 9.015625,9.984375 9.3125,9.6875 9.25,9.625 9.1875,9.5625 9.3125,9.6875 Q 9.4375,9.8125 9.625,9.875 L 9.8125,9.9375 9.53125,9.84375 9.25,9.75 9.625,9.875 10,10 10.125,10.375 10.25,10.75 10.15625,10.46875 10.0625,10.1875 10.125,10.375 q 0.0625,0.1875 0.1875,0.3125 l 0.125,0.125 L 10.375,10.75 10.3125,10.6875 10.015625,10.984375 9.71875,11.28125 9.765625,11.359375 9.8125,11.4375 9.71875,11.28125 Q 9.625,11.125 9.5,11 L 9.375,10.875 9.5625,11.0625 9.75,11.25 9.5,11 Q 9.25,10.75 9,10.5"
         id="path23261"
         inkscape:connector-curvature="0" />
      <path
         style="fill:#6f8174;fill-opacity:1"
         d="M 10.125,10.375 10,10 l 0.5,0 0.5,0 0,0.5 0,0.5 -0.375,-0.125 q -0.375,-0.125 -0.5,-0.5"
         id="path23263"
         inkscape:connector-curvature="0" />
      <path
         style="fill:#c3c296;fill-opacity:1"
         d="m 11,10.5 0,-0.5 0.5,0 0.5,0 0,0.5 0,0.5 -0.5,0 -0.5,0 0,-0.5"
         id="path23265"
         inkscape:connector-curvature="0" />
      <path
         style="fill:#ffffee;fill-opacity:1"
         d="m 12,10.5 0,-0.5 0.5,0 0.5,0 0,0.5 0,0.5 -0.5,0 -0.5,0 0,-0.5 m 0,0.125 0,0.375 0,0.125 0,0.125 0,-0.25 q 0,-0.25 0,-0.5 l 0,-0.25 0,0.375"
         id="path23267"
         inkscape:connector-curvature="0" />
      <path
         style="fill:#fffffc;fill-opacity:1"
         d="m 13,10.5 0,-0.5 0.5,0 0.5,0 0,0.5 0,0.5 -0.5,0 -0.5,0 0,-0.5"
         id="path23269"
         inkscape:connector-curvature="0" />
      <path
         style="fill:#f5f5c9;fill-opacity:1"
         d="m 14,10.5 0,-0.5 0.5,0 0.5,0 0.125,0.375 0.125,0.375 -0.09375,-0.28125 -0.09375,-0.28125 0.0625,0.1875 q 0.0625,0.1875 0.1875,0.3125 l 0.125,0.125 L 15.375,10.75 15.3125,10.6875 15.015625,10.984375 14.71875,11.28125 14.79688,11.32812 14.875,11.375 14.71875,11.28125 Q 14.5625,11.1875 14.375,11.125 L 14.1875,11.0625 14.46875,11.15625 14.75,11.25 14.375,11.125 14,11 14,10.5"
         id="path23271"
         inkscape:connector-curvature="0" />
      <path
         style="fill:#cccca7;fill-opacity:1"
         d="M 15.125,10.375 15,10 l 0.5,0 0.5,0 0,0.5 0,0.5 -0.375,-0.125 q -0.375,-0.125 -0.5,-0.5"
         id="path23273"
         inkscape:connector-curvature="0" />
      <path
         style="fill:#bcbd9f;fill-opacity:1"
         d="m 16,10.5 0,-0.5 0.375,0.125 Q 16.75,10.25 17,10.5 L 17.25,10.75 17.0625,10.5625 16.875,10.375 17,10.5 q 0.125,0.125 0.28125,0.21875 L 17.4375,10.8125 17.359375,10.765625 17.28125,10.71875 17,11 16.71875,11.28125 16.79688,11.32812 16.875,11.375 16.71875,11.28125 Q 16.5625,11.1875 16.375,11.125 L 16.1875,11.0625 16.46875,11.15625 16.75,11.25 16.375,11.125 16,11 16,10.5"
         id="path23275"
         inkscape:connector-curvature="0" />
      <path
         style="fill:#869382;fill-opacity:1"
         d="M 17,10.5 16.75,10.25 16.9375,10.4375 17.125,10.625 17,10.5 q -0.125,-0.125 -0.28125,-0.21875 l -0.15625,-0.09375 0.07813,0.04687 0.07813,0.04687 0.265625,-0.265625 L 17.25,9.75 17.5,10 q 0.25,0.25 0.375,0.625 L 18,11 17.625,10.875 Q 17.25,10.75 17,10.5 M 17.4375,9.9375 17.25,9.75 17.1875,9.6875 17.125,9.625 17.25,9.75 Q 17.375,9.875 17.5,10 l 0.125,0.125 -0.1875,-0.1875"
         id="path23277"
         inkscape:connector-curvature="0" />
      <path
         style="fill:#63685a;fill-opacity:1"
         d="M 17.875,10.625 17.75,10.25 17.84375,10.53125 17.9375,10.8125 17.875,10.625 Q 17.8125,10.4375 17.71875,10.28125 L 17.625,10.125 17.67187,10.20313 17.71874,10.28126 18.015625,9.984375 18.3125,9.6875 18.25,9.625 18.1875,9.5625 l 0.125,0.125 q 0.125,0.125 0.3125,0.1875 L 18.8125,9.9375 18.53125,9.84375 18.25,9.75 18.625,9.875 19,10 l 0,0.5 0,0.5 -0.5,0 -0.5,0 -0.125,-0.375"
         id="path23279"
         inkscape:connector-curvature="0" />
      <path
         style="fill:#050505;fill-opacity:0.40392157"
         d="m 19,10.5 0,-0.5 0.5,0 0.5,0 0,0.5 0,0.5 -0.5,0 -0.5,0 0,-0.5"
         id="path23281"
         inkscape:connector-curvature="0" />
      <path
         style="fill:#535343;fill-opacity:0.56470588"
         d="M 1.125,11.375 1,11 1.09375,11.28125 1.1875,11.5625 1.125,11.375 Q 1.0625,11.1875 1.03125,10.96875 L 1,10.75 1.015625,10.859375 1.03125,10.96875 1.5,11 1.96875,11.03125 1.953125,10.921875 1.9375,10.8125 1.96875,11.03125 Q 2,11.25 2,11.5 L 2,11.75 2,11.375 2,11 2,11.5 2,12 1.625,11.875 Q 1.25,11.75 1.125,11.375 M 2,12.125 2,12 2,11.625 2,11.25 2,11.5 q 0,0.25 0,0.5 l 0,0.25 0,-0.125"
         id="path23283"
         inkscape:connector-curvature="0" />
      <path
         style="fill:#fbfbf4;fill-opacity:1"
         d="M 2,11.5 2,11 2.5,11 3,11 3,11.5 3,12 2.5,12 2,12 2,11.5 M 2,11.625 2,12 2,12.125 2,12.25 2,12 q 0,-0.25 0,-0.5 l 0,-0.25 0,0.375"
         id="path23285"
         inkscape:connector-curvature="0" />
      <path
         style="fill:#cfd0b0;fill-opacity:1"
         d="M 3,11.5 3,11 3.5,11 4,11 4,11.5 4,12 3.5,12 3,12 3,11.5 M 4,11.375 4,11 4,10.875 4,10.75 4,11 q 0,0.25 0,0.5 l 0,0.25 0,-0.375 M 3,10.875 3,11 3,11.375 3,11.75 3,11.5 Q 3,11.25 3,11 l 0,-0.25 0,0.125"
         id="path23287"
         inkscape:connector-curvature="0" />
      <path
         style="fill:#686959;fill-opacity:1"
         d="M 4,11.5 4,11 4.5,11 5,11 5,11.5 5,12 4.5,12 4,12 4,11.5"
         id="path23289"
         inkscape:connector-curvature="0" />
      <path
         style="fill:#e6e6e2;fill-opacity:1"
         d="M 5,11.5 5,11 5.5,11 6,11 6,11.5 6,12 5.5,12 5,12 5,11.5"
         id="path23291"
         inkscape:connector-curvature="0" />
      <path
         style="fill:#fcfbd4;fill-opacity:1"
         d="M 6,11.5 6,11 6.5,11 7,11 7.125,11.375 7.25,11.75 7.15625,11.46875 7.0625,11.1875 7.125,11.375 q 0.0625,0.1875 0.1875,0.3125 l 0.125,0.125 L 7.375,11.75 7.3125,11.6875 7,12 6.6875,12.3125 6.75,12.375 6.8125,12.4375 6.6875,12.3125 Q 6.5625,12.1875 6.375,12.125 L 6.1875,12.0625 6.46875,12.15625 6.75,12.25 6.375,12.125 6,12 6,11.5 M 6,11.625 6,12 6,12.125 6,12.25 6,12 q 0,-0.25 0,-0.5 l 0,-0.25 0,0.375"
         id="path23293"
         inkscape:connector-curvature="0" />
      <path
         style="fill:#d2d2ab;fill-opacity:1"
         d="M 7.125,11.375 7,11 7.5,11 8,11 8,11.5 8,12 7.625,11.875 q -0.375,-0.125 -0.5,-0.5"
         id="path23295"
         inkscape:connector-curvature="0" />
      <path
         style="fill:#c0c2a3;fill-opacity:1"
         d="M 8,11.5 8,11 8.375,11.125 q 0.375,0.125 0.5,0.5 L 9,12 8.5,12 8,12 8,11.5"
         id="path23297"
         inkscape:connector-curvature="0" />
      <path
         style="fill:#a8b29b;fill-opacity:1"
         d="M 8.875,11.625 8.75,11.25 8.84375,11.53125 8.9375,11.8125 8.875,11.625 Q 8.8125,11.4375 8.6875,11.3125 L 8.5625,11.1875 8.625,11.25 8.6875,11.3125 8.96875,11.03125 9.25,10.75 9.5,11 q 0.25,0.25 0.375,0.625 L 10,12 9.5,12 9,12 8.875,11.625 M 9.4375,10.9375 9.25,10.75 9.1875,10.6875 9.125,10.625 9.25,10.75 Q 9.375,10.875 9.5,11 l 0.125,0.125 -0.1875,-0.1875"
         id="path23299"
         inkscape:connector-curvature="0" />
      <path
         style="fill:#6e847c;fill-opacity:1"
         d="M 9.875,11.625 9.75,11.25 9.84375,11.53125 9.9375,11.8125 9.875,11.625 Q 9.8125,11.4375 9.71875,11.28125 L 9.625,11.125 9.671875,11.203125 9.71875,11.28125 10.015625,10.984375 10.3125,10.6875 10.25,10.625 l -0.0625,-0.0625 0.125,0.125 q 0.125,0.125 0.3125,0.1875 L 10.8125,10.9375 10.53125,10.84375 10.25,10.75 10.625,10.875 11,11 11,11.5 11,12 10.5,12 10,12 9.875,11.625"
         id="path23301"
         inkscape:connector-curvature="0" />
      <path
         style="fill:#a3a581;fill-opacity:1"
         d="m 11,11.5 0,-0.5 0.5,0 0.5,0 0,0.5 0,0.5 -0.5,0 -0.5,0 0,-0.5"
         id="path23303"
         inkscape:connector-curvature="0" />
      <path
         style="fill:#f8f8d8;fill-opacity:1"
         d="m 12,11.5 0,-0.5 0.5,0 0.5,0 0,0.5 0,0.5 -0.5,0 -0.5,0 0,-0.5 M 13.125,11 13,11 l -0.375,0 -0.375,0 0.25,0 q 0.25,0 0.5,0 l 0.25,0 -0.125,0 M 12,10.875 12,11 l 0,0.375 0,0.375 0,-0.25 q 0,-0.25 0,-0.5 l 0,-0.25 0,0.125"
         id="path23305"
         inkscape:connector-curvature="0" />
      <path
         style="fill:#ffffff;fill-opacity:1"
         d="m 13,11.5 0,-0.5 0.5,0 0.5,0 0,0.5 q 0,0.5 0,1 l 0,0.5 -0.5,0 -0.5,0 0,-0.5 0,-0.5 0,-0.5"
         id="path23307"
         inkscape:connector-curvature="0" />
      <path
         style="fill:#fdfddb;fill-opacity:1"
         d="m 14,11.5 0,-0.5 0.375,0.125 Q 14.75,11.25 15,11.5 l 0.25,0.25 -0.28125,0.28125 -0.28125,0.28125 0.0625,0.0625 0.0625,0.0625 -0.125,-0.125 Q 14.5625,12.1875 14.375,12.125 L 14.1875,12.0625 14.46875,12.15625 14.75,12.25 14.375,12.125 14,12 14,11.5 m 0,0.125 0,0.375 0,0.125 0,0.125 0,-0.25 q 0,-0.25 0,-0.5 l 0,-0.25 0,0.375 M 15.3125,11.8125 15.25,11.75 15.0625,11.5625 14.875,11.375 15,11.5 q 0.125,0.125 0.25,0.25 l 0.125,0.125 -0.0625,-0.0625"
         id="path23309"
         inkscape:connector-curvature="0" />
      <path
         style="fill:#d6d7ad;fill-opacity:1"
         d="M 15,11.5 14.75,11.25 14.9375,11.4375 15.125,11.625 15,11.5 q -0.125,-0.125 -0.28125,-0.21875 l -0.15625,-0.09375 0.07813,0.04687 0.07813,0.04687 0.296875,-0.296875 L 15.3125,10.6875 15.25,10.625 l -0.0625,-0.0625 0.125,0.125 q 0.125,0.125 0.3125,0.1875 L 15.8125,10.9375 15.53125,10.84375 15.25,10.75 15.625,10.875 16,11 16.125,11.375 16.25,11.75 16.15625,11.46875 16.0625,11.1875 16.125,11.375 q 0.0625,0.1875 0.15625,0.34375 L 16.375,11.875 16.328125,11.796875 16.28125,11.71875 16.015625,11.984375 15.75,12.25 15.5,12 Q 15.25,11.75 15,11.5 M 15.5625,12.0625 15.75,12.25 15.8125,12.3125 15.875,12.375 15.75,12.25 Q 15.625,12.125 15.5,12 l -0.125,-0.125 0.1875,0.1875"
         id="path23311"
         inkscape:connector-curvature="0" />
      <path
         style="fill:#bdbd9e;fill-opacity:1"
         d="M 16.125,11.375 16,11 16.375,11.125 Q 16.75,11.25 17,11.5 L 17.25,11.75 17.0625,11.5625 16.875,11.375 17,11.5 q 0.125,0.125 0.28125,0.21875 L 17.4375,11.8125 17.359375,11.765625 17.28125,11.71875 17,12 l -0.28125,0.28125 0.04687,0.07813 0.04687,0.07813 -0.09375,-0.15625 Q 16.625,12.125 16.5,12 L 16.375,11.875 16.5625,12.0625 16.75,12.25 16.5,12 q -0.25,-0.25 -0.375,-0.625"
         id="path23313"
         inkscape:connector-curvature="0" />
      <path
         style="fill:#919a85;fill-opacity:1"
         d="M 17,11.5 16.75,11.25 16.9375,11.4375 17.125,11.625 17,11.5 Q 16.875,11.375 16.71875,11.28125 L 16.5625,11.1875 16.64063,11.23437 16.71876,11.28124 17,11 17.28125,10.71875 17.203125,10.671875 17.125,10.625 17.28125,10.71875 Q 17.4375,10.8125 17.625,10.875 L 17.8125,10.9375 17.53125,10.84375 17.25,10.75 17.625,10.875 18,11 18,11.5 18,12 17.625,11.875 Q 17.25,11.75 17,11.5"
         id="path23315"
         inkscape:connector-curvature="0" />
      <path
         style="fill:#73806f;fill-opacity:1"
         d="m 18,11.5 0,-0.5 0.5,0 0.5,0 0,0.5 0,0.5 -0.5,0 -0.5,0 0,-0.5"
         id="path23317"
         inkscape:connector-curvature="0" />
      <path
         style="fill:#1a1a16;fill-opacity:0.72156863"
         d="m 19,11.5 0,-0.5 0.5,0 0.5,0 0.125,0.375 0.125,0.375 -0.09375,-0.28125 -0.09375,-0.28125 0.0625,0.1875 q 0.0625,0.1875 0.1875,0.3125 l 0.125,0.125 L 20.375,11.75 20.3125,11.6875 20,12 l -0.3125,0.3125 0.0625,0.0625 0.0625,0.0625 -0.125,-0.125 Q 19.5625,12.1875 19.375,12.125 L 19.1875,12.0625 19.46875,12.15625 19.75,12.25 19.375,12.125 19,12 19,11.5"
         id="path23319"
         inkscape:connector-curvature="0" />
      <path
         style="fill:#1c1c13;fill-opacity:0.21568627"
         d="M 0.875,12.625 Q 0.75,12.25 1.03125,11.96875 L 1.3125,11.6875 1.25,11.625 1.1875,11.5625 l 0.125,0.125 q 0.125,0.125 0.3125,0.1875 L 1.8125,11.9375 1.53125,11.84375 1.25,11.75 1.625,11.875 2,12 2,12.5 2,13 1.5,13 1,13 0.875,12.625 M 2,13.125 2,13 2,12.625 2,12.25 2,12.5 q 0,0.25 0,0.5 l 0,0.25 0,-0.125 M 2,12.375 2,12 2,11.875 2,11.75 2,12 q 0,0.25 0,0.5 l 0,0.25 0,-0.375"
         id="path23321"
         inkscape:connector-curvature="0" />
      <path
         style="fill:#d9d9cc;fill-opacity:0.99215686"
         d="M 2,12.5 2,12 2.5,12 3,12 3.125,12.375 3.25,12.75 3.15625,12.46875 3.0625,12.1875 3.125,12.375 q 0.0625,0.1875 0.1875,0.3125 l 0.125,0.125 L 3.375,12.75 3.3125,12.6875 3,13 2.6875,13.3125 2.75,13.375 2.8125,13.4375 2.6875,13.3125 Q 2.5625,13.1875 2.375,13.125 L 2.1875,13.0625 2.46875,13.15625 2.75,13.25 2.375,13.125 2,13 2,12.5 M 2,12.625 2,13 2,13.125 2,13.25 2,13 q 0,-0.25 0,-0.5 l 0,-0.25 0,0.375 M 2,11.875 2,12 2,12.375 2,12.75 2,12.5 Q 2,12.25 2,12 l 0,-0.25 0,0.125"
         id="path23323"
         inkscape:connector-curvature="0" />
      <path
         style="fill:#f4f4db;fill-opacity:1"
         d="M 3.125,12.375 3,12 3.5,12 4,12 4,12.5 4,13 3.625,12.875 Q 3.25,12.75 3.125,12.375 M 4,13.125 4,13 4,12.625 4,12.25 4,12.5 q 0,0.25 0,0.5 l 0,0.25 0,-0.125"
         id="path23325"
         inkscape:connector-curvature="0" />
      <path
         style="fill:#707259;fill-opacity:1"
         d="M 4,12.5 4,12 4.5,12 5,12 5,12.5 5,13 4.5,13 4,13 4,12.5 M 4,12.625 4,13 4,13.125 4,13.25 4,13 q 0,-0.25 0,-0.5 l 0,-0.25 0,0.375"
         id="path23327"
         inkscape:connector-curvature="0" />
      <path
         style="fill:#c0c0bd;fill-opacity:1"
         d="M 5,12.5 5,12 5.5,12 6,12 6,12.5 6,13 5.5,13 5,13 5,12.5"
         id="path23329"
         inkscape:connector-curvature="0" />
      <path
         style="fill:#ffffe8;fill-opacity:1"
         d="M 6,12.5 6,12 6.375,12.125 q 0.375,0.125 0.5,0.5 L 7,13 6.90625,12.71875 6.8125,12.4375 6.875,12.625 q 0.0625,0.1875 0.09375,0.40625 L 7,13.25 6.984375,13.140625 6.96875,13.03125 6.484375,13.015625 6,13 6,12.5 M 6,12.625 6,13 6,13.125 6,13.25 6,13 q 0,-0.25 0,-0.5 l 0,-0.25 0,0.375 M 6,11.875 6,12 6,12.375 6,12.75 6,12.5 Q 6,12.25 6,12 l 0,-0.25 0,0.125"
         id="path23331"
         inkscape:connector-curvature="0" />
      <path
         style="fill:#dbdbb0;fill-opacity:1"
         d="M 6.875,12.625 6.75,12.25 6.84375,12.53125 6.9375,12.8125 6.875,12.625 Q 6.8125,12.4375 6.6875,12.3125 L 6.5625,12.1875 6.625,12.25 6.6875,12.3125 7,12 7.3125,11.6875 7.25,11.625 7.1875,11.5625 l 0.125,0.125 q 0.125,0.125 0.3125,0.1875 L 7.8125,11.9375 7.53125,11.84375 7.25,11.75 7.625,11.875 8,12 8.125,12.375 8.25,12.75 8.15625,12.46875 8.0625,12.1875 8.125,12.375 q 0.0625,0.1875 0.1875,0.3125 l 0.125,0.125 L 8.375,12.75 8.3125,12.6875 7.984375,12.984375 7.65625,13.28125 7.703125,13.328125 7.75,13.375 7.65625,13.28125 Q 7.5625,13.1875 7.375,13.125 L 7.1875,13.0625 7.46875,13.15625 7.75,13.25 7.375,13.125 7,13 6.875,12.625"
         id="path23333"
         inkscape:connector-curvature="0" />
      <path
         style="fill:#c3c5a5;fill-opacity:1"
         d="M 8.125,12.375 8,12 8.5,12 9,12 9,12.5 9,13 8.625,12.875 q -0.375,-0.125 -0.5,-0.5"
         id="path23335"
         inkscape:connector-curvature="0" />
      <path
         style="fill:#b1b69c;fill-opacity:1"
         d="M 9,12.5 9,12 9.5,12 10,12 10,12.5 10,13 9.5,13 9,13 9,12.5"
         id="path23337"
         inkscape:connector-curvature="0" />
      <path
         style="fill:#798f87;fill-opacity:1"
         d="m 10,12.5 0,-0.5 0.5,0 0.5,0 0.125,0.375 0.125,0.375 -0.09375,-0.28125 -0.09375,-0.28125 0.0625,0.1875 q 0.0625,0.1875 0.1875,0.3125 l 0.125,0.125 L 11.375,12.75 11.3125,12.6875 11,13 l -0.3125,0.3125 0.0625,0.0625 0.0625,0.0625 -0.125,-0.125 Q 10.5625,13.1875 10.375,13.125 L 10.1875,13.0625 10.46875,13.15625 10.75,13.25 10.375,13.125 10,13 10,12.5"
         id="path23339"
         inkscape:connector-curvature="0" />
      <path
         style="fill:#878d74;fill-opacity:1"
         d="M 11.125,12.375 11,12 l 0.5,0 0.5,0 0,0.5 0,0.5 -0.375,-0.125 q -0.375,-0.125 -0.5,-0.5"
         id="path23341"
         inkscape:connector-curvature="0" />
      <path
         style="fill:#e7e6bc;fill-opacity:1"
         d="m 12,12.5 0,-0.5 0.5,0 0.5,0 0,0.5 0,0.5 -0.5,0 -0.5,0 0,-0.5"
         id="path23343"
         inkscape:connector-curvature="0" />
      <path
         style="fill:#ffffec;fill-opacity:1"
         d="m 14,12.5 0,-0.5 0.375,0.125 q 0.375,0.125 0.5,0.5 L 15,13 14.90625,12.71875 14.8125,12.4375 14.875,12.625 q 0.0625,0.1875 0.09375,0.40625 L 15,13.25 14.984375,13.140625 14.96875,13.03125 14.484375,13.015625 14,13 14,12.5 M 13.875,13 14,13 l 0.375,0 0.375,0 -0.25,0 q -0.25,0 -0.5,0 l -0.25,0 0.125,0 M 14,11.875 14,12 l 0,0.375 0,0.375 0,-0.25 q 0,-0.25 0,-0.5 l 0,-0.25 0,0.125"
         id="path23345"
         inkscape:connector-curvature="0" />
      <path
         style="fill:#e6e5b7;fill-opacity:1"
         d="M 14.875,12.625 14.75,12.25 14.84375,12.53125 14.9375,12.8125 14.875,12.625 q -0.0625,-0.1875 -0.1875,-0.3125 l -0.125,-0.125 0.0625,0.0625 0.0625,0.0625 0.28125,-0.28125 L 15.25,11.75 15.5,12 q 0.25,0.25 0.5,0.5 L 16.25,12.75 16.0625,12.5625 15.875,12.375 16,12.5 q 0.125,0.125 0.28125,0.21875 l 0.15625,0.09375 -0.07813,-0.04687 -0.07813,-0.04687 -0.296875,0.296875 -0.296875,0.296875 0.0625,0.0625 0.0625,0.0625 -0.125,-0.125 Q 15.5625,13.1875 15.375,13.125 L 15.1875,13.0625 15.46875,13.15625 15.75,13.25 15.375,13.125 15,13 14.875,12.625 M 15.4375,11.9375 15.25,11.75 15.1875,11.6875 15.125,11.625 15.25,11.75 q 0.125,0.125 0.25,0.25 l 0.125,0.125 -0.1875,-0.1875"
         id="path23347"
         inkscape:connector-curvature="0" />
      <path
         style="fill:#bdbd9d;fill-opacity:1"
         d="m 16,12.5 -0.25,-0.25 0.265625,-0.265625 0.265625,-0.265625 -0.04687,-0.07813 -0.04687,-0.07813 0.09375,0.15625 Q 16.375,11.875 16.5,12 L 16.625,12.125 16.4375,11.9375 16.25,11.75 16.5,12 q 0.25,0.25 0.375,0.625 L 17,13 16.625,12.875 Q 16.25,12.75 16,12.5 M 15.6875,12.1875 15.75,12.25 15.9375,12.4375 16.125,12.625 16,12.5 q -0.125,-0.125 -0.25,-0.25 l -0.125,-0.125 0.0625,0.0625"
         id="path23349"
         inkscape:connector-curvature="0" />
      <path
         style="fill:#a1a48a;fill-opacity:1"
         d="M 16.875,12.625 16.75,12.25 16.84375,12.53125 16.9375,12.8125 16.875,12.625 Q 16.8125,12.4375 16.71875,12.28125 L 16.625,12.125 16.67187,12.20313 16.71874,12.28126 17,12 17.28125,11.71875 17.203125,11.671875 17.125,11.625 17.28125,11.71875 Q 17.4375,11.8125 17.625,11.875 L 17.8125,11.9375 17.53125,11.84375 17.25,11.75 17.625,11.875 18,12 18.125,12.375 18.25,12.75 18.15625,12.46875 18.0625,12.1875 18.125,12.375 q 0.0625,0.1875 0.15625,0.34375 L 18.375,12.875 18.328125,12.796875 18.28125,12.71875 17.96875,13 17.65625,13.28125 17.70312,13.32812 17.75,13.375 17.65625,13.28125 Q 17.5625,13.1875 17.375,13.125 L 17.1875,13.0625 17.46875,13.15625 17.75,13.25 17.375,13.125 17,13 16.875,12.625"
         id="path23351"
         inkscape:connector-curvature="0" />
      <path
         style="fill:#7a8a7a;fill-opacity:1"
         d="M 18.125,12.375 18,12 l 0.5,0 0.5,0 0.125,0.375 0.125,0.375 -0.09375,-0.28125 -0.09375,-0.28125 0.0625,0.1875 q 0.0625,0.1875 0.1875,0.3125 l 0.125,0.125 -0.0625,-0.0625 -0.0625,-0.0625 -0.296875,0.296875 -0.296875,0.296875 0.04687,0.07813 0.04687,0.07813 -0.09375,-0.15625 Q 18.625,13.125 18.5,13 L 18.375,12.875 18.5625,13.0625 18.75,13.25 18.5,13 q -0.25,-0.25 -0.375,-0.625"
         id="path23353"
         inkscape:connector-curvature="0" />
      <path
         style="fill:#3d3d32;fill-opacity:0.9254902"
         d="M 19.125,12.375 19,12 l 0.375,0.125 q 0.375,0.125 0.5,0.5 L 20,13 19.625,12.875 q -0.375,-0.125 -0.5,-0.5"
         id="path23355"
         inkscape:connector-curvature="0" />
      <path
         style="fill:#000000;fill-opacity:0.03921569"
         d="M 19.875,12.625 19.75,12.25 19.84375,12.53125 19.9375,12.8125 19.875,12.625 q -0.0625,-0.1875 -0.1875,-0.3125 l -0.125,-0.125 0.0625,0.0625 0.0625,0.0625 L 20,12 20.3125,11.6875 20.25,11.625 l -0.0625,-0.0625 0.125,0.125 q 0.125,0.125 0.3125,0.1875 L 20.8125,11.9375 20.53125,11.84375 20.25,11.75 20.625,11.875 Q 21,12 21,12.5 l 0,0.5 -0.5,0 -0.5,0 -0.125,-0.375"
         id="path23357"
         inkscape:connector-curvature="0" />
      <path
         style="fill:#000000;fill-opacity:0.01568627"
         d="M 1,13.5 1,13 1.5,13 2,13 2,13.5 2,14 1.5,14 Q 1,14 1,13.5 M 2,13.375 2,13 2,12.875 2,12.75 2,13 q 0,0.25 0,0.5 l 0,0.25 0,-0.375"
         id="path23359"
         inkscape:connector-curvature="0" />
      <path
         style="fill:#a09f92;fill-opacity:0.91764706"
         d="M 2,13.5 2,13 2.375,13.125 q 0.375,0.125 0.5,0.5 L 3,14 2.5,14 2,14 2,13.5 M 2,12.875 2,13 2,13.375 2,13.75 2,13.5 Q 2,13.25 2,13 l 0,-0.25 0,0.125"
         id="path23361"
         inkscape:connector-curvature="0" />
      <path
         style="fill:#fffffb;fill-opacity:1"
         d="M 2.875,13.625 2.75,13.25 2.84375,13.53125 2.9375,13.8125 2.875,13.625 Q 2.8125,13.4375 2.6875,13.3125 L 2.5625,13.1875 2.625,13.25 2.6875,13.3125 3,13 3.3125,12.6875 3.25,12.625 3.1875,12.5625 l 0.125,0.125 q 0.125,0.125 0.3125,0.1875 L 3.8125,12.9375 3.53125,12.84375 3.25,12.75 3.625,12.875 4,13 4,13.5 4,14 3.5,14 3,14 2.875,13.625 M 4,13.375 4,13 4,12.875 4,12.75 4,13 q 0,0.25 0,0.5 l 0,0.25 0,-0.375"
         id="path23363"
         inkscape:connector-curvature="0" />
      <path
         style="fill:#939473;fill-opacity:1"
         d="M 4,13.5 4,13 4.5,13 5,13 5,13.5 5,14 4.5,14 4,14 4,13.5 M 4,13.625 4,14 4,14.125 4,14.25 4,14 q 0,-0.25 0,-0.5 l 0,-0.25 0,0.375 m 1,0.5 L 5,14 5,13.625 5,13.25 5,13.5 q 0,0.25 0,0.5 l 0,0.25 0,-0.125 M 4,12.875 4,13 4,13.375 4,13.75 4,13.5 Q 4,13.25 4,13 l 0,-0.25 0,0.125"
         id="path23365"
         inkscape:connector-curvature="0" />
      <path
         style="fill:#92938e;fill-opacity:1"
         d="M 5,13.5 5,13 5.5,13 6,13 6,13.5 6,14 5.5,14 5,14 5,13.5"
         id="path23367"
         inkscape:connector-curvature="0" />
      <path
         style="fill:#fffff8;fill-opacity:1"
         d="M 6,13.5 6,13 6.484375,13.015625 6.96875,13.03125 6.953125,12.921875 6.9375,12.8125 6.96875,13.03125 Q 7,13.25 7,13.5 L 7,13.75 7,13.375 7,13 7,13.5 7,14 6.5,14 6,14 6,13.5 M 6,12.875 6,13 6,13.375 6,13.75 6,13.5 Q 6,13.25 6,13 l 0,-0.25 0,0.125"
         id="path23369"
         inkscape:connector-curvature="0" />
      <path
         style="fill:#f1f1c3;fill-opacity:1"
         d="M 7,13.5 7,13 7.375,13.125 Q 7.75,13.25 7.75,13.5 q 0,0.25 -0.375,0.375 L 7,14 7,13.5 M 7,13.625 7,14 7,14.125 7,14.25 7,14 q 0,-0.25 0,-0.5 l 0,-0.25 0,0.375"
         id="path23371"
         inkscape:connector-curvature="0" />
      <path
         style="fill:#d0d1ad;fill-opacity:1"
         d="m 7.75,13.5 0,-0.25 0,0.1875 0,0.1875 0,-0.125 q 0,-0.125 -0.09375,-0.21875 L 7.5625,13.1875 7.609375,13.234375 7.65625,13.28125 7.984375,12.984375 8.3125,12.6875 8.25,12.625 8.1875,12.5625 l 0.125,0.125 q 0.125,0.125 0.3125,0.1875 L 8.8125,12.9375 8.53125,12.84375 8.25,12.75 8.625,12.875 9,13 9,13.5 9,14 8.625,14.125 8.25,14.25 8.53125,14.15625 8.8125,14.0625 8.625,14.125 Q 8.4375,14.1875 8.3125,14.3125 L 8.1875,14.4375 8.25,14.375 8.3125,14.3125 7.984375,14.015625 7.65625,13.71875 7.609375,13.765625 7.5625,13.8125 7.65625,13.71875 Q 7.75,13.625 7.75,13.5 l 0,-0.125 0,0.1875 0,0.1875 0,-0.25"
         id="path23373"
         inkscape:connector-curvature="0" />
      <path
         style="fill:#bdc1a3;fill-opacity:1"
         d="M 9,13.5 9,13 9.5,13 10,13 10.125,13.375 10.25,13.75 10.15625,13.46875 10.0625,13.1875 10.125,13.375 q 0.0625,0.1875 0.1875,0.3125 l 0.125,0.125 L 10.375,13.75 10.3125,13.6875 10,14 9.6875,14.3125 9.75,14.375 9.8125,14.4375 9.6875,14.3125 Q 9.5625,14.1875 9.375,14.125 L 9.1875,14.0625 9.46875,14.15625 9.75,14.25 9.375,14.125 9,14 9,13.5"
         id="path23375"
         inkscape:connector-curvature="0" />
      <path
         style="fill:#8d9f92;fill-opacity:1"
         d="M 10.125,13.375 10,13 l 0.375,0.125 q 0.375,0.125 0.5,0.5 L 11,14 10.625,13.875 q -0.375,-0.125 -0.5,-0.5"
         id="path23377"
         inkscape:connector-curvature="0" />
      <path
         style="fill:#728070;fill-opacity:1"
         d="M 10.875,13.625 10.75,13.25 10.84375,13.53125 10.9375,13.8125 10.875,13.625 q -0.0625,-0.1875 -0.1875,-0.3125 l -0.125,-0.125 0.0625,0.0625 0.0625,0.0625 L 11,13 11.3125,12.6875 11.25,12.625 l -0.0625,-0.0625 0.125,0.125 q 0.125,0.125 0.3125,0.1875 L 11.8125,12.9375 11.53125,12.84375 11.25,12.75 11.625,12.875 12,13 l 0,0.5 0,0.5 -0.5,0 -0.5,0 -0.125,-0.375"
         id="path23379"
         inkscape:connector-curvature="0" />
      <path
         style="fill:#cecca0;fill-opacity:1"
         d="m 12,13.5 0,-0.5 0.5,0 0.5,0 0,0.5 0,0.5 -0.5,0 -0.5,0 0,-0.5"
         id="path23381"
         inkscape:connector-curvature="0" />
      <path
         style="fill:#fffff7;fill-opacity:1"
         d="m 13,13.5 0,-0.5 0.5,0 0.5,0 0,0.5 0,0.5 -0.5,0 -0.5,0 0,-0.5"
         id="path23383"
         inkscape:connector-curvature="0" />
      <path
         style="fill:#ffffff;fill-opacity:1"
         d="m 14,13.5 0,-0.5 0.484375,0.01563 0.484375,0.01563 -0.01563,-0.109375 -0.01563,-0.109375 0.03125,0.21875 Q 15,13.25 15,13.5 l 0,0.25 0,-0.375 0,-0.375 0,0.5 0,0.5 -0.5,0 -0.5,0 0,-0.5 M 14.625,14 15,14 15.125,14 15.25,14 15,14 q -0.25,0 -0.5,0 l -0.25,0 0.375,0"
         id="path23385"
         inkscape:connector-curvature="0" />
      <path
         style="fill:#fefed4;fill-opacity:1"
         d="m 15,13.5 0,-0.5 0.375,0.125 q 0.375,0.125 0.5,0.5 L 16,14 15.5,14 15,14 15,13.5 M 14.875,14 15,14 l 0.375,0 0.375,0 -0.25,0 q -0.25,0 -0.5,0 l -0.25,0 0.125,0"
         id="path23387"
         inkscape:connector-curvature="0" />
      <path
         style="fill:#d3d4af;fill-opacity:1"
         d="M 15.875,13.625 15.75,13.25 15.84375,13.53125 15.9375,13.8125 15.875,13.625 q -0.0625,-0.1875 -0.1875,-0.3125 l -0.125,-0.125 0.0625,0.0625 0.0625,0.0625 0.296875,-0.296875 L 16.28125,12.71875 16.20312,12.67188 16.125,12.625 16.28125,12.71875 Q 16.4375,12.8125 16.625,12.875 L 16.8125,12.9375 16.53125,12.84375 16.25,12.75 16.625,12.875 17,13 l 0,0.5 0,0.5 -0.5,0 -0.5,0 -0.125,-0.375"
         id="path23389"
         inkscape:connector-curvature="0" />
      <path
         style="fill:#b8b99a;fill-opacity:1"
         d="m 17,13.5 0,-0.5 0.375,0.125 q 0.375,0.125 0.375,0.375 0,0.25 -0.375,0.375 L 17,14 17,13.5"
         id="path23391"
         inkscape:connector-curvature="0" />
      <path
         style="fill:#889784;fill-opacity:1"
         d="m 17.75,13.5 0,-0.25 0,0.1875 0,0.1875 0,-0.125 q 0,-0.125 -0.09375,-0.21875 l -0.09375,-0.09375 0.04687,0.04687 0.04687,0.04687 0.3125,-0.28125 0.3125,-0.28125 -0.04687,-0.07813 -0.04687,-0.07813 0.09375,0.15625 Q 18.375,12.875 18.5,13 L 18.625,13.125 18.4375,12.9375 18.25,12.75 18.5,13 q 0.25,0.25 0.375,0.625 L 19,14 18.625,14.125 18.25,14.25 18.53125,14.15625 18.8125,14.0625 18.625,14.125 q -0.1875,0.0625 -0.28125,0.15625 L 18.25,14.375 18.296875,14.328125 18.34375,14.28125 18,14 l -0.34375,-0.28125 -0.04687,0.04687 -0.04687,0.04687 0.09375,-0.09375 Q 17.75,13.625 17.75,13.5 l 0,-0.125 0,0.1875 0,0.1875 0,-0.25"
         id="path23393"
         inkscape:connector-curvature="0" />
      <path
         style="fill:#606554;fill-opacity:0.99215686"
         d="M 18.875,13.625 18.75,13.25 18.84375,13.53125 18.9375,13.8125 18.875,13.625 Q 18.8125,13.4375 18.71875,13.28125 L 18.625,13.125 l 0.04687,0.07813 0.04687,0.07813 0.296875,-0.296875 L 19.3125,12.6875 19.25,12.625 l -0.0625,-0.0625 0.125,0.125 q 0.125,0.125 0.3125,0.1875 L 19.8125,12.9375 19.53125,12.84375 19.25,12.75 19.625,12.875 20,13 l 0,0.5 0,0.5 -0.5,0 -0.5,0 -0.125,-0.375"
         id="path23395"
         inkscape:connector-curvature="0" />
      <path
         style="fill:#040704;fill-opacity:0.28235294"
         d="m 20,13.5 0,-0.5 0.5,0 0.5,0 0,0.5 0,0.5 -0.5,0 -0.5,0 0,-0.5"
         id="path23397"
         inkscape:connector-curvature="0" />
      <path
         style="fill:#706f61;fill-opacity:0.71372549"
         d="M 2.125,14.375 2,14 2.5,14 3,14 3,14.5 3,15 2.625,14.875 Q 2.25,14.75 2.125,14.375 M 3,15.125 3,15 3,14.625 3,14.25 3,14.5 q 0,0.25 0,0.5 l 0,0.25 0,-0.125"
         id="path23399"
         inkscape:connector-curvature="0" />
      <path
         style="fill:#fffefc;fill-opacity:1"
         d="M 3,14.5 3,14 3.5,14 4,14 4,14.5 4,15 3.5,15 3,15 3,14.5 M 3,14.625 3,15 3,15.125 3,15.25 3,15 q 0,-0.25 0,-0.5 l 0,-0.25 0,0.375"
         id="path23401"
         inkscape:connector-curvature="0" />
      <path
         style="fill:#c5c5a0;fill-opacity:1"
         d="M 4,14.5 4,14 4.5,14 5,14 5,14.5 5,15 5,14.625 5,14.25 5,14.5 q 0,0.25 -0.03125,0.46875 L 4.9375,15.1875 4.953125,15.078125 4.96875,14.96875 4.484375,14.984375 4,15 4,14.5 M 3.875,15 4,15 4.375,15 4.75,15 4.5,15 Q 4.25,15 4,15 l -0.25,0 0.125,0 M 5,14.375 5,14 5,13.875 5,13.75 5,14 q 0,0.25 0,0.5 l 0,0.25 0,-0.375 M 4,13.875 4,14 4,14.375 4,14.75 4,14.5 Q 4,14.25 4,14 l 0,-0.25 0,0.125"
         id="path23403"
         inkscape:connector-curvature="0" />
      <path
         style="fill:#7a7b6e;fill-opacity:1"
         d="M 5,14.5 5,14 5.5,14 6,14 6,14.5 6,15 6,14.625 6,14.25 6,14.5 q 0,0.25 0.125,0.375 L 6.25,15 6.1875,14.9375 6.125,14.875 5.5625,14.9375 5,15 5,14.5"
         id="path23405"
         inkscape:connector-curvature="0" />
      <path
         style="fill:#e6e6e0;fill-opacity:1"
         d="M 6,14.5 6,14 6.5,14 7,14 7,14.5 7,15 6.5,15 Q 6,15 6,14.5 M 6.625,15 7,15 7.125,15 7.25,15 7,15 q -0.25,0 -0.5,0 l -0.25,0 0.375,0"
         id="path23407"
         inkscape:connector-curvature="0" />
      <path
         style="fill:#cbcbae;fill-opacity:1"
         d="M 7,14.5 7,14 7.375,13.875 7.75,13.75 7.46875,13.84375 7.1875,13.9375 7.375,13.875 Q 7.5625,13.8125 7.65625,13.71875 L 7.75,13.625 7.703125,13.671875 7.65625,13.71875 7.984375,14.015625 8.3125,14.3125 8.375,14.25 8.4375,14.1875 8.3125,14.3125 Q 8.1875,14.4375 8.125,14.625 L 8.0625,14.8125 8.15625,14.53125 8.25,14.25 8.125,14.625 8,15 7.5,15 7,15 7,14.5 M 6.875,15 7,15 7.375,15 7.75,15 7.5,15 Q 7.25,15 7,15 l -0.25,0 0.125,0 M 7,13.875 7,14 7,14.375 7,14.75 7,14.5 Q 7,14.25 7,14 l 0,-0.25 0,0.125"
         id="path23409"
         inkscape:connector-curvature="0" />
      <path
         style="fill:#b1b292;fill-opacity:1"
         d="m 8.125,14.625 q 0.125,-0.375 0.5,-0.5 L 9,14 9,14.5 9,15 8.5,15 8,15 8.125,14.625"
         id="path23411"
         inkscape:connector-curvature="0" />
      <path
         style="fill:#abac91;fill-opacity:1"
         d="M 9,14.5 9,14 9.375,14.125 q 0.375,0.125 0.5,0.5 L 10,15 9.5,15 9,15 9,14.5"
         id="path23413"
         inkscape:connector-curvature="0" />
      <path
         style="fill:#9eaa97;fill-opacity:1"
         d="M 9.875,14.625 9.75,14.25 9.84375,14.53125 9.9375,14.8125 9.875,14.625 Q 9.8125,14.4375 9.6875,14.3125 L 9.5625,14.1875 9.625,14.25 9.6875,14.3125 10,14 10.3125,13.6875 10.25,13.625 l -0.0625,-0.0625 0.125,0.125 q 0.125,0.125 0.3125,0.1875 L 10.8125,13.9375 10.53125,13.84375 10.25,13.75 10.625,13.875 11,14 11,14.5 11,15 10.5,15 10,15 9.875,14.625"
         id="path23415"
         inkscape:connector-curvature="0" />
      <path
         style="fill:#73887d;fill-opacity:1"
         d="m 11,14.5 0,-0.5 0.5,0 0.5,0 0,0.5 0,0.5 -0.5,0 -0.5,0 0,-0.5"
         id="path23417"
         inkscape:connector-curvature="0" />
      <path
         style="fill:#bdbb92;fill-opacity:1"
         d="m 12,14.5 0,-0.5 0.5,0 0.5,0 0,0.5 0,0.5 -0.484375,-0.01563 -0.484375,-0.01563 0.01563,0.109375 0.01563,0.109375 -0.03125,-0.21875 Q 12,14.75 12,14.5 l 0,-0.25 0,0.375 0,0.375 0,-0.5 M 12.625,15 13,15 13.125,15 13.25,15 13,15 q -0.25,0 -0.5,0 l -0.25,0 0.375,0"
         id="path23419"
         inkscape:connector-curvature="0" />
      <path
         style="fill:#eef3db;fill-opacity:1"
         d="m 13,14.5 0,-0.5 0.5,0 0.5,0 0,0.5 0,0.5 -0.5,0 -0.5,0 0,-0.5 M 12.875,15 13,15 l 0.375,0 0.375,0 -0.25,0 q -0.25,0 -0.5,0 l -0.25,0 0.125,0 m 0.75,0 0.375,0 0.125,0 0.125,0 -0.25,0 q -0.25,0 -0.5,0 l -0.25,0 0.375,0"
         id="path23421"
         inkscape:connector-curvature="0" />
      <path
         style="fill:#a8bdba;fill-opacity:1"
         d="m 14,14.5 0,-0.5 0.5,0 0.5,0 0,0.5 0,0.5 -0.5,0 -0.5,0 0,-0.5 M 13.875,15 14,15 l 0.375,0 0.375,0 -0.25,0 q -0.25,0 -0.5,0 l -0.25,0 0.125,0 M 14,13.875 14,14 l 0,0.375 0,0.375 0,-0.25 q 0,-0.25 0,-0.5 l 0,-0.25 0,0.125"
         id="path23423"
         inkscape:connector-curvature="0" />
      <path
         style="fill:#859888;fill-opacity:1"
         d="m 15,14.5 0,-0.5 0.5,0 0.5,0 0,0.5 0,0.5 -0.5,0 -0.5,0 0,-0.5"
         id="path23425"
         inkscape:connector-curvature="0" />
      <path
         style="fill:#778171;fill-opacity:1"
         d="m 16,14.5 0,-0.5 0.5,0 0.5,0 0,0.5 0,0.5 -0.5,0 -0.5,0 0,-0.5"
         id="path23427"
         inkscape:connector-curvature="0" />
      <path
         style="fill:#747a6a;fill-opacity:1"
         d="M 17,14.5 17,14 17.375,13.875 17.75,13.75 17.46875,13.84375 17.1875,13.9375 17.375,13.875 q 0.1875,-0.0625 0.28125,-0.15625 L 17.75,13.625 17.703125,13.671875 17.65625,13.71875 18,14 l 0.34375,0.28125 0.04687,-0.04687 0.04687,-0.04687 -0.09375,0.09375 Q 18.25,14.375 18.25,14.5 l 0,0.125 0,-0.1875 0,-0.1875 0,0.25 0,0.25 0,-0.1875 0,-0.1875 0,0.125 q 0,0.125 0.0625,0.25 L 18.375,14.875 18.34375,14.8125 18.3125,14.75 18,15.03125 17.6875,15.3125 17.75,15.375 l 0.0625,0.0625 -0.125,-0.125 Q 17.5625,15.1875 17.375,15.125 L 17.1875,15.0625 17.46875,15.15625 17.75,15.25 17.375,15.125 17,15 17,14.5"
         id="path23429"
         inkscape:connector-curvature="0" />
      <path
         style="fill:#738173;fill-opacity:1"
         d="m 18.25,14.5 q 0,-0.25 0.375,-0.375 L 19,14 19.125,14.375 19.25,14.75 19.15625,14.46875 19.0625,14.1875 19.125,14.375 q 0.0625,0.1875 0.1875,0.3125 l 0.125,0.125 L 19.375,14.75 19.3125,14.6875 19.03125,14.96875 18.75,15.25 18.5,15 Q 18.25,14.75 18.25,14.5 M 18.5625,15.0625 18.75,15.25 18.8125,15.3125 18.875,15.375 18.75,15.25 Q 18.625,15.125 18.5,15 l -0.125,-0.125 0.1875,0.1875"
         id="path23431"
         inkscape:connector-curvature="0" />
      <path
         style="fill:#86927e;fill-opacity:1"
         d="M 19.125,14.375 19,14 l 0.5,0 0.5,0 0,0.5 0,0.5 -0.375,-0.125 q -0.375,-0.125 -0.5,-0.5"
         id="path23433"
         inkscape:connector-curvature="0" />
      <path
         style="fill:#141410;fill-opacity:0.63921569"
         d="m 20,14.5 0,-0.5 0.5,0 0.5,0 0.125,0.375 q 0.125,0.375 -0.171875,0.640625 L 20.65625,15.28125 20.70312,15.32812 20.75,15.375 20.65625,15.28125 Q 20.5625,15.1875 20.375,15.125 L 20.1875,15.0625 20.46875,15.15625 20.75,15.25 20.375,15.125 20,15 20,14.5"
         id="path23435"
         inkscape:connector-curvature="0" />
      <path
         style="fill:#2a2a1e;fill-opacity:0.40392157"
         d="M 1.875,15.625 Q 1.75,15.25 2.03125,14.96875 L 2.3125,14.6875 2.25,14.625 2.1875,14.5625 l 0.125,0.125 q 0.125,0.125 0.3125,0.1875 L 2.8125,14.9375 2.53125,14.84375 2.25,14.75 2.625,14.875 3,15 3,15.5 3,16 3,15.625 3,15.25 3,15.5 q 0,0.25 0.03125,0.46875 L 3.0625,16.1875 3.046875,16.078125 3.03125,15.96875 2.515625,15.984375 2,16 1.875,15.625 M 3,15.375 3,15 3,14.875 3,14.75 3,15 q 0,0.25 0,0.5 l 0,0.25 0,-0.375"
         id="path23437"
         inkscape:connector-curvature="0" />
      <path
         style="fill:#f7f7ed;fill-opacity:1"
         d="M 3,15.5 3,15 3.5,15 4,15 4,15.5 4,16 3.515625,15.984375 3.03125,15.96875 3.046875,16.078125 3.0625,16.1875 3.03125,15.96875 Q 3,15.75 3,15.5 L 3,15.25 3,15.625 3,16 3,15.5 M 3,14.875 3,15 3,15.375 3,15.75 3,15.5 Q 3,15.25 3,15 l 0,-0.25 0,0.125"
         id="path23439"
         inkscape:connector-curvature="0" />
      <path
         style="fill:#fafbe2;fill-opacity:1"
         d="M 4,15.5 4,15 4.484375,14.984375 4.96875,14.96875 4.984375,14.859375 5,14.75 4.96875,14.96875 Q 4.9375,15.1875 4.875,15.375 L 4.8125,15.5625 4.90625,15.28125 5,15 4.875,15.375 q -0.125,0.375 -0.5,0.5 L 4,16 4,15.5"
         id="path23441"
         inkscape:connector-curvature="0" />
      <path
         style="fill:#6b6b58;fill-opacity:1"
         d="M 4.875,15.375 5,15 5.5625,14.9375 6.125,14.875 6.0625,15.4375 6,16 5.625,16.125 5.25,16.25 5.53125,16.15625 5.8125,16.0625 5.625,16.125 Q 5.4375,16.1875 5.3125,16.3125 L 5.1875,16.4375 5.25,16.375 5.3125,16.3125 5,16 4.6875,15.6875 4.625,15.75 4.5625,15.8125 4.6875,15.6875 Q 4.8125,15.5625 4.875,15.375 L 4.9375,15.1875 4.84375,15.46875 4.75,15.75 4.875,15.375"
         id="path23443"
         inkscape:connector-curvature="0" />
      <path
         style="fill:#42413a;fill-opacity:1"
         d="M 6.0625,15.4375 6.125,14.875 6.0625,14.8125 6,14.75 6.125,14.875 Q 6.25,15 6.5,15 L 6.75,15 6.375,15 6,15 6.5,15 7,15 7,15.5 7,16 6.5,16 6,16 6.0625,15.4375 M 7.125,15 7,15 6.625,15 6.25,15 6.5,15 q 0.25,0 0.5,0 l 0.25,0 -0.125,0"
         id="path23445"
         inkscape:connector-curvature="0" />
      <path
         style="fill:#35352f;fill-opacity:1"
         d="M 7,15.5 7,15 7.5,15 8,15 8,15.5 8,16 7.5,16 7,16 7,15.5 M 7.375,15 7,15 6.875,15 6.75,15 7,15 q 0.25,0 0.5,0 l 0.25,0 -0.375,0"
         id="path23447"
         inkscape:connector-curvature="0" />
      <path
         style="fill:#373833;fill-opacity:1"
         d="M 8,15.5 8,15 8.5,15 9,15 9,15.5 9,16 8.5,16 8,16 8,15.5"
         id="path23449"
         inkscape:connector-curvature="0" />
      <path
         style="fill:#3c3c36;fill-opacity:1"
         d="M 9,15.5 9,15 9.5,15 10,15 10,15.5 10,16 9.5,16 9,16 9,15.5"
         id="path23451"
         inkscape:connector-curvature="0" />
      <path
         style="fill:#48483e;fill-opacity:1"
         d="m 10,15.5 0,-0.5 0.5,0 0.5,0 0,0.5 0,0.5 -0.5,0 -0.5,0 0,-0.5"
         id="path23453"
         inkscape:connector-curvature="0" />
      <path
         style="fill:#5a655c;fill-opacity:1"
         d="m 11,15.5 0,-0.5 0.5,0 0.5,0 0.125,0.375 0.125,0.375 -0.09375,-0.28125 -0.09375,-0.28125 0.0625,0.1875 q 0.0625,0.1875 0.15625,0.28125 L 12.375,15.75 l -0.04687,-0.04687 -0.04687,-0.04687 -0.3125,0.3125 -0.3125,0.3125 0.04687,0.04687 L 11.75,16.375 11.65625,16.28125 Q 11.5625,16.1875 11.375,16.125 L 11.1875,16.0625 11.46875,16.15625 11.75,16.25 11.375,16.125 11,16 11,15.5"
         id="path23455"
         inkscape:connector-curvature="0" />
      <path
         style="fill:#84866f;fill-opacity:1"
         d="M 12.125,15.375 12,15 12.09375,15.28125 12.1875,15.5625 12.125,15.375 Q 12.0625,15.1875 12.03125,14.96875 L 12,14.75 l 0.01563,0.109375 0.01563,0.109375 0.484375,0.01563 L 13,15 12.875,15.375 Q 12.75,15.75 12.5,15.75 q -0.25,0 -0.375,-0.375"
         id="path23457"
         inkscape:connector-curvature="0" />
      <path
         style="fill:#565d4e;fill-opacity:1"
         d="M 12.875,15.375 13,15 l 0.5,0 0.5,0 0,0.5 0,0.5 -0.375,0.125 -0.375,0.125 0.28125,-0.09375 0.28125,-0.09375 -0.1875,0.0625 q -0.1875,0.0625 -0.34375,0.15625 L 13.125,16.375 13.203125,16.328125 13.28125,16.28125 13,15.96875 12.71875,15.65625 12.671875,15.703125 12.625,15.75 12.71875,15.65625 Q 12.8125,15.5625 12.875,15.375 L 12.9375,15.1875 12.84375,15.46875 12.75,15.75 12.875,15.375 M 14.125,15 14,15 l -0.375,0 -0.375,0 0.25,0 q 0.25,0 0.5,0 l 0.25,0 -0.125,0"
         id="path23459"
         inkscape:connector-curvature="0" />
      <path
         style="fill:#383e35;fill-opacity:1"
         d="m 14,15.5 0,-0.5 0.5,0 0.5,0 0,0.5 0,0.5 -0.5,0 -0.5,0 0,-0.5 M 14.375,15 14,15 13.875,15 13.75,15 14,15 q 0.25,0 0.5,0 l 0.25,0 -0.375,0"
         id="path23461"
         inkscape:connector-curvature="0" />
      <path
         style="fill:#3d3e38;fill-opacity:1"
         d="m 15,15.5 0,-0.5 0.5,0 0.5,0 0,0.5 0,0.5 -0.5,0 -0.5,0 0,-0.5"
         id="path23463"
         inkscape:connector-curvature="0" />
      <path
         style="fill:#40403a;fill-opacity:1"
         d="m 16,15.5 0,-0.5 0.5,0 0.5,0 0,0.5 0,0.5 -0.5,0 -0.5,0 0,-0.5"
         id="path23465"
         inkscape:connector-curvature="0" />
      <path
         style="fill:#42433c;fill-opacity:1"
         d="m 17,15.5 0,-0.5 0.375,0.125 q 0.375,0.125 0.5,0.5 L 18,16 17.5,16 17,16 17,15.5"
         id="path23467"
         inkscape:connector-curvature="0" />
      <path
         style="fill:#444841;fill-opacity:1"
         d="M 17.875,15.625 17.75,15.25 17.84375,15.53125 17.9375,15.8125 17.875,15.625 q -0.0625,-0.1875 -0.1875,-0.3125 l -0.125,-0.125 0.0625,0.0625 0.0625,0.0625 L 18,15.03125 18.3125,14.75 18.28125,14.6875 18.25,14.625 18.3125,14.75 Q 18.375,14.875 18.5,15 L 18.625,15.125 18.4375,14.9375 18.25,14.75 18.5,15 q 0.25,0.25 0.5,0.5 L 19.25,15.75 19.0625,15.5625 18.875,15.375 19,15.5 q 0.125,0.125 0.25,0.1875 L 19.375,15.75 19.3125,15.71875 19.25,15.6875 18.96875,16 18.6875,16.3125 18.75,16.375 l 0.0625,0.0625 -0.125,-0.125 Q 18.5625,16.1875 18.375,16.125 L 18.1875,16.0625 18.46875,16.15625 18.75,16.25 18.375,16.125 18,16 17.875,15.625"
         id="path23469"
         inkscape:connector-curvature="0" />
      <path
         style="fill:#919f8e;fill-opacity:1"
         d="M 19,15.5 18.75,15.25 19.03125,14.96875 19.3125,14.6875 19.25,14.625 l -0.0625,-0.0625 0.125,0.125 q 0.125,0.125 0.3125,0.1875 L 19.8125,14.9375 19.53125,14.84375 19.25,14.75 19.625,14.875 20,15 19.875,15.375 Q 19.75,15.75 19.5,15.75 19.25,15.75 19,15.5 M 18.6875,15.1875 18.75,15.25 18.9375,15.4375 19.125,15.625 19,15.5 q -0.125,-0.125 -0.25,-0.25 l -0.125,-0.125 0.0625,0.0625"
         id="path23471"
         inkscape:connector-curvature="0" />
      <path
         style="fill:#424237;fill-opacity:0.89019608"
         d="M 19.875,15.375 20,15 l 0.375,0.125 q 0.375,0.125 0.375,0.375 0,0.25 -0.25,0.5 L 20.25,16.25 19.984375,15.953125 19.71875,15.65625 19.671875,15.703125 19.625,15.75 19.71875,15.65625 Q 19.8125,15.5625 19.875,15.375 L 19.9375,15.1875 19.84375,15.46875 19.75,15.75 19.875,15.375 M 20.1875,16.3125 20.25,16.25 20.4375,16.0625 20.625,15.875 20.5,16 q -0.125,0.125 -0.25,0.25 l -0.125,0.125 0.0625,-0.0625"
         id="path23473"
         inkscape:connector-curvature="0" />
      <path
         style="fill:#1a1a12;fill-opacity:0.11372549"
         d="M 2,16.5 2,16 2.515625,15.984375 3.03125,15.96875 3.015625,15.859375 3,15.75 3.03125,15.96875 Q 3.0625,16.1875 3.125,16.375 L 3.1875,16.5625 3.09375,16.28125 3,16 3.125,16.375 3.25,16.75 3.15625,16.46875 3.0625,16.1875 3.125,16.375 q 0.0625,0.1875 0.1875,0.3125 l 0.125,0.125 L 3.375,16.75 3.3125,16.6875 3,17 2.6875,17.3125 2.75,17.375 2.8125,17.4375 2.6875,17.3125 Q 2.5625,17.1875 2.375,17.125 L 2.1875,17.0625 2.46875,17.15625 2.75,17.25 2.375,17.125 Q 2,17 2,16.5"
         id="path23475"
         inkscape:connector-curvature="0" />
      <path
         style="fill:#a8a798;fill-opacity:0.96862745"
         d="M 3.125,16.375 3,16 3.09375,16.28125 3.1875,16.5625 3.125,16.375 Q 3.0625,16.1875 3.03125,15.96875 L 3,15.75 3.015625,15.859375 3.03125,15.96875 3.515625,15.984375 4,16 4,16.5 4,17 3.625,16.875 q -0.375,-0.125 -0.5,-0.5"
         id="path23477"
         inkscape:connector-curvature="0" />
      <path
         style="fill:#8a8b84;fill-opacity:1"
         d="M 4,16.5 4,16 4.375,15.875 4.75,15.75 4.46875,15.84375 4.1875,15.9375 4.375,15.875 Q 4.5625,15.8125 4.6875,15.6875 L 4.8125,15.5625 4.75,15.625 4.6875,15.6875 5,16 5.3125,16.3125 5.375,16.25 5.4375,16.1875 5.3125,16.3125 Q 5.1875,16.4375 5.125,16.625 L 5.0625,16.8125 5.15625,16.53125 5.25,16.25 5.125,16.625 5,17 4.5,17 4,17 4,16.5 M 4.625,17 5,17 5.125,17 5.25,17 5,17 q -0.25,0 -0.5,0 l -0.25,0 0.375,0"
         id="path23479"
         inkscape:connector-curvature="0" />
      <path
         style="fill:#4c5047;fill-opacity:1"
         d="m 5.125,16.625 q 0.125,-0.375 0.5,-0.5 L 6,16 6,16.5 6,17 5.5,17 5,17 5.125,16.625 M 4.875,17 5,17 5.375,17 5.75,17 5.5,17 Q 5.25,17 5,17 l -0.25,0 0.125,0"
         id="path23481"
         inkscape:connector-curvature="0" />
      <path
         style="fill:#555a51;fill-opacity:1"
         d="M 6,16.5 6,16 6.5,16 7,16 7,16.5 7,17 6.5,17 6,17 6,16.5"
         id="path23483"
         inkscape:connector-curvature="0" />
      <path
         style="fill:#595f57;fill-opacity:1"
         d="M 7,16.5 7,16 7.5,16 8,16 8,16.5 8,17 7.5,17 7,17 7,16.5"
         id="path23485"
         inkscape:connector-curvature="0" />
      <path
         style="fill:#565d55;fill-opacity:1"
         d="M 8,16.5 8,16 8.5,16 9,16 9,16.5 9,17 8.5,17 8,17 8,16.5"
         id="path23487"
         inkscape:connector-curvature="0" />
      <path
         style="fill:#4d514a;fill-opacity:1"
         d="M 9,16.5 9,16 9.5,16 10,16 10,16.5 10,17 9.5,17 9,17 9,16.5"
         id="path23489"
         inkscape:connector-curvature="0" />
      <path
         style="fill:#484a44;fill-opacity:1"
         d="m 10,16.5 0,-0.5 0.5,0 0.5,0 0,0.5 0,0.5 -0.5,0 -0.5,0 0,-0.5"
         id="path23491"
         inkscape:connector-curvature="0" />
      <path
         style="fill:#48473f;fill-opacity:1"
         d="m 11,16.5 0,-0.5 0.375,0.125 q 0.375,0.125 0.375,0.375 0,0.25 -0.375,0.375 L 11,17 11,16.5"
         id="path23493"
         inkscape:connector-curvature="0" />
      <path
         style="fill:#3f413c;fill-opacity:1"
         d="m 11.75,16.5 0,-0.25 0,0.1875 0,0.1875 0,-0.125 q 0,-0.125 -0.09375,-0.21875 l -0.09375,-0.09375 0.04687,0.04687 0.04687,0.04687 0.3125,-0.3125 0.3125,-0.3125 -0.04687,-0.04687 -0.04687,-0.04687 0.09375,0.09375 Q 12.375,15.75 12.5,15.75 l 0.125,0 -0.1875,0 -0.1875,0 0.25,0 0.25,0 -0.1875,0 -0.1875,0 0.125,0 q 0.125,0 0.21875,-0.09375 l 0.09375,-0.09375 -0.04687,0.04687 -0.04687,0.04687 0.28125,0.3125 0.28125,0.3125 0.07813,-0.04687 0.07813,-0.04687 -0.15625,0.09375 Q 13.125,16.375 13,16.5 L 12.875,16.625 13.0625,16.4375 13.25,16.25 13,16.5 Q 12.75,16.75 12.5,17 L 12.25,17.25 12.4375,17.0625 12.625,16.875 12.5,17 q -0.125,0.125 -0.21875,0.28125 L 12.1875,17.4375 12.23437,17.35937 12.28124,17.28124 11.96875,17 l -0.3125,-0.28125 -0.04687,0.04687 -0.04687,0.04687 0.09375,-0.09375 Q 11.75,16.625 11.75,16.5 l 0,-0.125 0,0.1875 0,0.1875 0,-0.25"
         id="path23495"
         inkscape:connector-curvature="0" />
      <path
         style="fill:#333732;fill-opacity:1"
         d="m 13,16.5 q 0.25,-0.25 0.625,-0.375 L 14,16 14,16.5 14,17 13.625,17.125 13.25,17.25 13.53125,17.15625 13.8125,17.0625 13.625,17.125 q -0.1875,0.0625 -0.3125,0.1875 l -0.125,0.125 L 13.25,17.375 13.3125,17.3125 13.03125,17.03125 12.75,16.75 13,16.5 M 12.9375,16.5625 12.75,16.75 12.6875,16.8125 12.625,16.875 12.75,16.75 Q 12.875,16.625 13,16.5 l 0.125,-0.125 -0.1875,0.1875"
         id="path23497"
         inkscape:connector-curvature="0" />
      <path
         style="fill:#444741;fill-opacity:1"
         d="m 14,16.5 0,-0.5 0.5,0 0.5,0 0,0.5 0,0.5 -0.5,0 -0.5,0 0,-0.5"
         id="path23499"
         inkscape:connector-curvature="0" />
      <path
         style="fill:#454b44;fill-opacity:0.99607843"
         d="m 15,16.5 0,-0.5 0.5,0 0.5,0 0,0.5 0,0.5 -0.5,0 -0.5,0 0,-0.5"
         id="path23501"
         inkscape:connector-curvature="0" />
      <path
         style="fill:#40453f;fill-opacity:0.99607843"
         d="m 16,16.5 0,-0.5 0.5,0 0.5,0 0,0.5 0,0.5 -0.5,0 -0.5,0 0,-0.5"
         id="path23503"
         inkscape:connector-curvature="0" />
      <path
         style="fill:#444944;fill-opacity:0.99607843"
         d="m 17,16.5 0,-0.5 0.5,0 0.5,0 0,0.5 0,0.5 -0.5,0 -0.5,0 0,-0.5"
         id="path23505"
         inkscape:connector-curvature="0" />
      <path
         style="fill:#3f3f3b;fill-opacity:0.99215686"
         d="m 18,16.5 0,-0.5 0.375,0.125 q 0.375,0.125 0.5,0.5 L 19,17 18.5,17 18,17 18,16.5"
         id="path23507"
         inkscape:connector-curvature="0" />
      <path
         style="fill:#3b3c37;fill-opacity:0.99607843"
         d="M 18.875,16.625 18.75,16.25 18.84375,16.53125 18.9375,16.8125 18.875,16.625 q -0.0625,-0.1875 -0.1875,-0.3125 l -0.125,-0.125 0.0625,0.0625 0.0625,0.0625 L 18.96875,16 19.25,15.6875 19.1875,15.65625 19.125,15.625 19.25,15.6875 Q 19.375,15.75 19.5,15.75 l 0.125,0 -0.1875,0 -0.1875,0 0.25,0 0.25,0 -0.1875,0 -0.1875,0 0.125,0 q 0.125,0 0.21875,-0.09375 l 0.09375,-0.09375 -0.04687,0.04687 -0.04687,0.04687 0.265625,0.296875 L 20.25,16.25 20,16.5 q -0.25,0.25 -0.625,0.375 L 19,17 18.875,16.625 M 20.0625,16.4375 20.25,16.25 20.3125,16.1875 20.375,16.125 20.25,16.25 Q 20.125,16.375 20,16.5 l -0.125,0.125 0.1875,-0.1875"
         id="path23509"
         inkscape:connector-curvature="0" />
      <path
         style="fill:#23241f;fill-opacity:0.96470588"
         d="M 20,16.5 Q 20.25,16.25 20.5,16 L 20.75,15.75 20.5625,15.9375 20.375,16.125 20.5,16 q 0.125,-0.125 0.1875,-0.25 L 20.75,15.625 20.71875,15.6875 20.6875,15.75 20.96875,16 Q 21.25,16.25 21.125,16.625 L 21,17 20.625,17.125 20.25,17.25 20.53125,17.15625 20.8125,17.0625 20.625,17.125 q -0.1875,0.0625 -0.3125,0.1875 l -0.125,0.125 0.0625,-0.0625 0.0625,-0.0625 -0.296875,-0.296875 -0.296875,-0.296875 -0.07813,0.04687 -0.07813,0.04687 0.15625,-0.09375 Q 19.875,16.625 20,16.5 L 20.125,16.375 19.9375,16.5625 19.75,16.75 20,16.5"
         id="path23511"
         inkscape:connector-curvature="0" />
      <path
         style="fill:#0f0f0c;fill-opacity:0.40784314"
         d="M 2.875,17.625 2.75,17.25 2.84375,17.53125 2.9375,17.8125 2.875,17.625 Q 2.8125,17.4375 2.6875,17.3125 L 2.5625,17.1875 2.625,17.25 2.6875,17.3125 3,17 3.3125,16.6875 3.25,16.625 3.1875,16.5625 l 0.125,0.125 q 0.125,0.125 0.3125,0.1875 L 3.8125,16.9375 3.53125,16.84375 3.25,16.75 3.625,16.875 4,17 4,17.5 4,18 3.5,18 Q 3,18 2.875,17.625"
         id="path23513"
         inkscape:connector-curvature="0" />
      <path
         style="fill:#000000;fill-opacity:0.86666667"
         d="M 4,17.5 4,17 4.5,17 5,17 5,17.5 5,18 4.5,18 4,18 4,17.5"
         id="path23515"
         inkscape:connector-curvature="0" />
      <path
         style="fill:#090909;fill-opacity:0.81568627"
         d="M 5,17.5 5,17 5.5,17 6,17 6,17.5 6,18 5.5,18 5,18 5,17.5"
         id="path23517"
         inkscape:connector-curvature="0" />
      <path
         style="fill:#0d0e0d;fill-opacity:0.76078431"
         d="M 6,17.5 6,17 6.5,17 7,17 7,17.5 7,18 6.5,18 6,18 6,17.5"
         id="path23519"
         inkscape:connector-curvature="0" />
      <path
         style="fill:#090909;fill-opacity:0.74117647"
         d="M 7,17.5 7,17 7.5,17 8,17 8,17.5 8,18 7.5,18 7,18 7,17.5"
         id="path23521"
         inkscape:connector-curvature="0" />
      <path
         style="fill:#080505;fill-opacity:0.7372549"
         d="M 8,17.5 8,17 8.5,17 9,17 9,17.5 9,18 8.5,18 8,18 8,17.5"
         id="path23523"
         inkscape:connector-curvature="0" />
      <path
         style="fill:#060606;fill-opacity:0.7254902"
         d="M 9,17.5 9,17 9.5,17 10,17 10,17.5 10,18 9.5,18 9,18 9,17.5"
         id="path23525"
         inkscape:connector-curvature="0" />
      <path
         style="fill:#0f0f0f;fill-opacity:0.78039216"
         d="m 10,17.5 0,-0.5 0.5,0 0.5,0 0,0.5 0,0.5 -0.5,0 -0.5,0 0,-0.5"
         id="path23527"
         inkscape:connector-curvature="0" />
      <path
         style="fill:#131412;fill-opacity:0.94117647"
         d="M 11,17.5 11,17 11.375,16.875 11.75,16.75 11.46875,16.84375 11.1875,16.9375 11.375,16.875 q 0.1875,-0.0625 0.28125,-0.15625 L 11.75,16.625 l -0.04687,0.04687 -0.04687,0.04687 0.3125,0.28125 0.3125,0.28125 0.04687,-0.07813 L 12.375,17.125 12.28125,17.28125 Q 12.1875,17.4375 12.125,17.625 L 12.0625,17.8125 12.15625,17.53125 12.25,17.25 12.125,17.625 12,18 11.5,18 11,18 11,17.5"
         id="path23529"
         inkscape:connector-curvature="0" />
      <path
         style="fill:#0a0b0a;fill-opacity:0.92941176"
         d="M 12.125,17.625 Q 12.25,17.25 12.5,17 l 0.25,-0.25 0.28125,0.28125 0.28125,0.28125 0.0625,-0.0625 0.0625,-0.0625 -0.125,0.125 q -0.125,0.125 -0.1875,0.3125 L 13.0625,17.8125 13.15625,17.53125 13.25,17.25 13.125,17.625 13,18 12.5,18 12,18 12.125,17.625 M 12.8125,16.6875 12.75,16.75 12.5625,16.9375 12.375,17.125 12.5,17 q 0.125,-0.125 0.25,-0.25 l 0.125,-0.125 -0.0625,0.0625"
         id="path23531"
         inkscape:connector-curvature="0" />
      <path
         style="fill:#020404;fill-opacity:0.83529412"
         d="m 13.125,17.625 q 0.125,-0.375 0.5,-0.5 L 14,17 l 0,0.5 0,0.5 -0.5,0 -0.5,0 0.125,-0.375"
         id="path23533"
         inkscape:connector-curvature="0" />
      <path
         style="fill:#030303;fill-opacity:0.61960784"
         d="m 14,17.5 0,-0.5 0.5,0 0.5,0 0,0.5 0,0.5 -0.5,0 -0.5,0 0,-0.5"
         id="path23535"
         inkscape:connector-curvature="0" />
      <path
         style="fill:#000000;fill-opacity:0.50196078"
         d="m 15,17.5 0,-0.5 0.5,0 0.5,0 0,0.5 0,0.5 -0.5,0 -0.5,0 0,-0.5"
         id="path23537"
         inkscape:connector-curvature="0" />
      <path
         style="fill:#000000;fill-opacity:0.43137255"
         d="m 16,17.5 0,-0.5 0.5,0 0.5,0 0,0.5 0,0.5 -0.5,0 -0.5,0 0,-0.5"
         id="path23539"
         inkscape:connector-curvature="0" />
      <path
         style="fill:#000000;fill-opacity:0.38039216"
         d="m 17,17.5 0,-0.5 0.5,0 0.5,0 0,0.5 0,0.5 -0.5,0 -0.5,0 0,-0.5"
         id="path23541"
         inkscape:connector-curvature="0" />
      <path
         style="fill:#000000;fill-opacity:0.37254902"
         d="m 18,17.5 0,-0.5 0.5,0 0.5,0 0,0.5 0,0.5 -0.5,0 -0.5,0 0,-0.5"
         id="path23543"
         inkscape:connector-curvature="0" />
      <path
         style="fill:#000000;fill-opacity:0.38039216"
         d="M 19,17.5 19,17 19.375,16.875 19.75,16.75 19.46875,16.84375 19.1875,16.9375 19.375,16.875 q 0.1875,-0.0625 0.34375,-0.15625 L 19.875,16.625 l -0.07813,0.04687 -0.07813,0.04687 0.296875,0.296875 0.296875,0.296875 0.0625,-0.0625 0.0625,-0.0625 -0.125,0.125 q -0.125,0.125 -0.1875,0.3125 L 20.0625,17.8125 20.15625,17.53125 20.25,17.25 20.125,17.625 20,18 19.5,18 19,18 19,17.5"
         id="path23545"
         inkscape:connector-curvature="0" />
      <path
         style="fill:#080808;fill-opacity:0.38039216"
         d="m 20.125,17.625 q 0.125,-0.375 0.5,-0.5 L 21,17 21,17.5 Q 21,18 20.5,18 l -0.5,0 0.125,-0.375"
         id="path23547"
         inkscape:connector-curvature="0" />
    </g>
  </g>
</svg>
