<?xml version="1.0" encoding="UTF-8" standalone="no"?>
<!-- Created with Inkscape (http://www.inkscape.org/) -->

<svg
   xmlns:dc="http://purl.org/dc/elements/1.1/"
   xmlns:cc="http://creativecommons.org/ns#"
   xmlns:rdf="http://www.w3.org/1999/02/22-rdf-syntax-ns#"
   xmlns:svg="http://www.w3.org/2000/svg"
   xmlns="http://www.w3.org/2000/svg"
   xmlns:sodipodi="http://sodipodi.sourceforge.net/DTD/sodipodi-0.dtd"
   xmlns:inkscape="http://www.inkscape.org/namespaces/inkscape"
   width="20"
   height="20"
   viewBox="0 0 20 20"
   id="svg3347"
   version="1.1"
   inkscape:version="0.91 r13725"
   sodipodi:docname="Civ5Icon.Religion.svg">
  <defs
     id="defs3349" />
  <sodipodi:namedview
     id="base"
     pagecolor="#ffffff"
     bordercolor="#666666"
     borderopacity="1.0"
     inkscape:pageopacity="0.0"
     inkscape:pageshadow="2"
     inkscape:zoom="11.2"
     inkscape:cx="13.251856"
     inkscape:cy="8.3638322"
     inkscape:document-units="px"
     inkscape:current-layer="g27203"
     showgrid="false"
     units="px"
     inkscape:window-width="1477"
     inkscape:window-height="962"
     inkscape:window-x="533"
     inkscape:window-y="95"
     inkscape:window-maximized="0" />
  <metadata
     id="metadata3352">
    <rdf:RDF>
      <cc:Work
         rdf:about="">
        <dc:format>image/svg+xml</dc:format>
        <dc:type
           rdf:resource="http://purl.org/dc/dcmitype/StillImage" />
        <dc:title></dc:title>
      </cc:Work>
    </rdf:RDF>
  </metadata>
  <g
     inkscape:label="Layer 1"
     inkscape:groupmode="layer"
     id="layer1"
     transform="translate(0,-1032.3622)">
    <g
       transform="translate(-0.22321519 1031.8712)"
       id="g27203">
      <g
         transform="translate(-0.8035688,-0.44650029)"
         id="g30064">
        <path
           style="fill:#000000;fill-opacity:0"
           d="M 0,0.5 0,0 0.5,0 1,0 1.5,0 2,0 2.5,0 3,0 3.5,0 4,0 4.5,0 5,0 5.5,0 6,0 6.5,0 7,0 7.5,0 8,0 8.5,0 9,0 9.5,0 10,0 l 0.5,0 0.5,0 0.5,0 0.5,0 0.5,0 0.5,0 0.5,0 0.5,0 0.5,0 0.5,0 0.5,0 0.5,0 0.5,0 0.5,0 0.5,0 0.5,0 0.5,0 0.5,0 0.5,0 0.5,0 0.5,0 0.5,0 0.5,0 0.5,0 0,0.5 0,0.5 0,0.5 0,0.5 0,0.5 0,0.5 0,0.5 0,0.5 0,0.5 0,0.5 0,0.5 0,0.5 0,0.5 0,0.5 0,0.5 0,0.5 0,0.5 0,0.5 0,0.5 0,0.5 0,0.5 0,0.5 0,0.5 0,0.5 0,0.5 0,0.5 0,0.5 0,0.5 0,0.5 0,0.5 0,0.5 0,0.5 0,0.5 0,0.5 0,0.5 0,0.5 0,0.5 0,0.5 0,0.5 0,0.5 0,0.5 0,0.5 0,0.5 0,0.5 -0.5,0 L 21,22 20.5,22 20,22 19.5,22 19,22 18.5,22 18,22 17.5,22 17,22 16.5,22 16,22 15.5,22 15,22 14.5,22 14,22 13.5,22 13,22 12.5,22 12,22 11.5,22 11,22 10.5,22 10,22 9.5,22 9,22 8.5,22 8,22 7.5,22 7,22 6.5,22 6,22 5.5,22 5,22 4.5,22 4,22 3.5,22 3,22 2.5,22 2,22 1.5,22 1,22 0.5,22 0,22 0,21.5 0,21 0,20.5 0,20 0,19.5 0,19 0,18.5 0,18 0,17.5 0,17 0,16.5 0,16 0,15.5 0,15 0,14.5 0,14 0,13.5 0,13 0,12.5 0,12 0,11.5 0,11 0,10.5 0,10 0,9.5 0,9 0,8.5 0,8 0,7.5 0,7 0,6.5 0,6 0,5.5 0,5 0,4.5 0,4 0,3.5 0,3 0,2.5 0,2 0,1.5 0,1 0,0.5 M 13.5,21 Q 14,21 14,20.5 l 0,-0.5 0.5,0 0.5,0 0.5,0 Q 16,20 16,19.5 L 16,19 16,18.5 Q 16,18 15.625,18.125 L 15.25,18.25 15.53125,18.15625 15.8125,18.0625 15.625,18.125 q -0.1875,0.0625 -0.3125,0.1875 l -0.125,0.125 0.0625,-0.0625 0.0625,-0.0625 -0.328125,-0.296875 -0.328125,-0.296875 -0.04687,0.04687 -0.04687,0.04687 0.09375,-0.09375 Q 14.75,17.625 14.75,17.5 l 0,-0.125 0,0.1875 0,0.1875 0,-0.25 0,-0.25 0,0.1875 0,0.1875 0,-0.125 q 0,-0.125 -0.09375,-0.21875 l -0.09375,-0.09375 0.04687,0.04687 0.04687,0.04687 0.328125,-0.296875 L 15.3125,16.6875 15.25,16.625 l -0.0625,-0.0625 0.125,0.125 q 0.125,0.125 0.3125,0.1875 L 15.8125,16.9375 15.53125,16.84375 15.25,16.75 15.625,16.875 Q 16,17 16,16.5 l 0,-0.5 0.5,0 Q 17,16 17,15.5 l 0,-0.5 0.5,0 Q 18,15 18,14.5 L 18,14 18,13.5 18,13 18,12.5 18,12 18,11.5 18,11 18,10.5 Q 18,10 17.625,9.875 17.25,9.75 17.125,9.375 17,9 16.5,9 L 16,9 15.875,8.625 Q 15.75,8.25 15.5,8 15.25,7.75 15,7.5 14.75,7.25 14.5,7 14.25,6.75 14,6.5 13.75,6.25 13.5,6 13.25,5.75 13,5.5 L 12.75,5.25 13,5 Q 13.25,4.75 13.125,4.375 L 13,4 13,3.5 Q 13,3 12.5,3 L 12,3 12,2.5 Q 12,2 11.875,1.625 11.75,1.25 11.375,1.125 11,1 10.625,1.125 10.25,1.25 10.125,1.625 L 10,2 9.5,2 Q 9,2 9,2.5 L 9,3 9,3.5 9,4 8.875,4.375 Q 8.75,4.75 8.375,4.875 8,5 8,5.5 L 8,6 7.625,6.125 Q 7.25,6.25 7.125,6.625 L 7,7 6.625,7.125 Q 6.25,7.25 6,7.5 5.75,7.75 5.375,7.875 5,8 4.875,8.375 4.75,8.75 4.375,8.875 4,9 4,9.5 L 4,10 3.875,10.375 Q 3.75,10.75 4.03125,11.03125 L 4.3125,11.3125 4.375,11.25 4.4375,11.1875 4.3125,11.3125 Q 4.1875,11.4375 4.125,11.625 L 4.0625,11.8125 4.15625,11.53125 4.25,11.25 4.125,11.625 Q 4,12 4,12.5 l 0,0.5 0.125,0.375 q 0.125,0.375 0.5,0.5 L 5,14 5,14.5 Q 5,15 5.375,15.125 5.75,15.25 5.75,15.5 q 0,0.25 0.296875,0.515625 L 6.34375,16.28125 6.390625,16.234375 6.4375,16.1875 6.34375,16.28125 Q 6.25,16.375 6.25,16.5 l 0,0.125 0,-0.1875 0,-0.1875 0,0.25 0,0.25 0,-0.1875 0,-0.1875 0,0.125 q 0,0.125 0.09375,0.21875 L 6.4375,16.8125 6.390625,16.765625 6.34375,16.71875 6.046875,16.984375 Q 5.75,17.25 5.875,17.625 L 6,18 6,18.5 q 0,0.5 0.375,0.625 0.375,0.125 0.5,0.5 Q 7,20 7.5,20 L 8,20 8,20.5 Q 8,21 8.5,21 l 0.5,0 0.5,0 0.5,0 0.5,0 q 0.5,0 1,0 l 0.5,0 0.5,0 0.5,0 0.5,0 M 12.6875,5.1875 12.75,5.25 12.9375,5.4375 13.125,5.625 13,5.5 Q 12.875,5.375 12.75,5.25 L 12.625,5.125 12.6875,5.1875 M 6.71875,7.09375 7,7 7.09375,6.96875 7.1875,6.9375 7,7 Q 6.8125,7.0625 6.625,7.125 L 6.4375,7.1875 6.71875,7.09375"
           id="path30066"
           inkscape:connector-curvature="0" />
        <path
           style="fill:#767872;fill-opacity:0.60784314"
           d="m 10.125,1.625 q 0.125,-0.375 0.5,-0.5 L 11,1 10.71875,1.09375 10.4375,1.1875 10.625,1.125 Q 10.8125,1.0625 11,1.0625 l 0.1875,0 -0.09375,0 L 11,1.0625 11.125,1.40625 11.25,1.75 11.15625,1.46875 11.0625,1.1875 11.125,1.375 q 0.0625,0.1875 0.1875,0.3125 l 0.125,0.125 L 11.375,1.75 11.3125,1.6875 11,2 10.6875,2.3125 10.75,2.375 10.8125,2.4375 10.6875,2.3125 Q 10.5625,2.1875 10.375,2.125 L 10.1875,2.0625 10.46875,2.15625 10.75,2.25 10.375,2.125 10,2 10.125,1.625"
           id="path30068"
           inkscape:connector-curvature="0" />
        <path
           style="fill:#41413a;fill-opacity:0.3254902"
           d="M 11.125,1.40625 11,1.0625 l -0.09375,0 -0.09375,0 0.1875,0 q 0.1875,0 0.375,0.0625 L 11.5625,1.1875 11.28125,1.09375 11,1 11.375,1.125 q 0.375,0.125 0.5,0.5 L 12,2 11.90625,1.71875 11.8125,1.4375 11.875,1.625 q 0.0625,0.1875 0.09375,0.40625 L 12,2.25 11.984375,2.140625 11.96875,2.03125 11.609375,1.890625 Q 11.25,1.75 11.125,1.40625"
           id="path30070"
           inkscape:connector-curvature="0" />
        <path
           style="fill:#0d0d0d;fill-opacity:0.07843137"
           d="M 9,2.5 Q 9,2 9.5,2 L 10,2 10,2.5 10,3 9.5,3 9,3 9,2.5"
           id="path30072"
           inkscape:connector-curvature="0" />
        <path
           style="fill:#929588;fill-opacity:0.80392157"
           d="M 10,2.5 10,2 10.375,2.125 q 0.375,0.125 0.5,0.5 L 11,3 10.5,3 10,3 10,2.5"
           id="path30074"
           inkscape:connector-curvature="0" />
        <path
           style="fill:#7a7a6b;fill-opacity:0.4745098"
           d="M 10.875,2.625 10.75,2.25 10.84375,2.53125 10.9375,2.8125 10.875,2.625 Q 10.8125,2.4375 10.6875,2.3125 L 10.5625,2.1875 10.625,2.25 10.6875,2.3125 11,2 11.3125,1.6875 11.25,1.625 11.1875,1.5625 l 0.125,0.125 q 0.125,0.125 0.3125,0.1875 L 11.8125,1.9375 11.53125,1.84375 11.25,1.75 11.609375,1.890625 11.96875,2.03125 11.953125,1.921875 11.9375,1.8125 11.96875,2.03125 Q 12,2.25 12,2.5 L 12,2.75 12,2.375 12,2 12,2.5 12,3 11.5,3 11,3 10.875,2.625"
           id="path30076"
           inkscape:connector-curvature="0" />
        <path
           style="fill:#000606;fill-opacity:0.18039216"
           d="M 9,3.5 9,3 9.5,3 10,3 10,3.5 10,4 9.5,4 9,4 9,3.5"
           id="path30078"
           inkscape:connector-curvature="0" />
        <path
           style="fill:#888f83;fill-opacity:0.98823529"
           d="M 10,3.5 10,3 10.5,3 11,3 10.875,3.375 q -0.125,0.375 -0.5,0.5 L 10,4 10,3.5"
           id="path30080"
           inkscape:connector-curvature="0" />
        <path
           style="fill:#808073;fill-opacity:0.77647059"
           d="M 10.875,3.375 11,3 11.5,3 12,3 12,3.5 12,4 11.625,4.125 11.25,4.25 11.53125,4.15625 11.8125,4.0625 11.625,4.125 Q 11.4375,4.1875 11.3125,4.3125 L 11.1875,4.4375 11.25,4.375 11.3125,4.3125 11,4 10.6875,3.6875 10.625,3.75 10.5625,3.8125 10.6875,3.6875 Q 10.8125,3.5625 10.875,3.375 L 10.9375,3.1875 10.84375,3.46875 10.75,3.75 10.875,3.375"
           id="path30082"
           inkscape:connector-curvature="0" />
        <path
           style="fill:#000000;fill-opacity:0.03137255"
           d="M 12,3.5 12,3 12.5,3 Q 13,3 13,3.5 L 13,4 12.5,4 12,4 12,3.5"
           id="path30084"
           inkscape:connector-curvature="0" />
        <path
           style="fill:#13130f;fill-opacity:0.26666667"
           d="M 8.875,4.375 9,4 9.5,4 10,4 10,4.5 10,5 9.625,5.125 9.25,5.25 9.53125,5.15625 9.8125,5.0625 9.625,5.125 Q 9.4375,5.1875 9.28125,5.28125 L 9.125,5.375 9.203125,5.328125 9.28125,5.28125 8.984375,4.984375 8.6875,4.6875 8.625,4.75 8.5625,4.8125 8.6875,4.6875 Q 8.8125,4.5625 8.875,4.375 L 8.9375,4.1875 8.84375,4.46875 8.75,4.75 8.875,4.375 M 10,5.125 10,5 10,4.625 10,4.25 10,4.5 q 0,0.25 0,0.5 l 0,0.25 0,-0.125"
           id="path30086"
           inkscape:connector-curvature="0" />
        <path
           style="fill:#aeb1a3;fill-opacity:0.98431373"
           d="M 10,4.5 10,4 10.375,3.875 10.75,3.75 10.46875,3.84375 10.1875,3.9375 10.375,3.875 Q 10.5625,3.8125 10.6875,3.6875 L 10.8125,3.5625 10.75,3.625 10.6875,3.6875 11,4 11.3125,4.3125 11.375,4.25 11.4375,4.1875 11.3125,4.3125 Q 11.1875,4.4375 11.125,4.625 L 11.0625,4.8125 11.15625,4.53125 11.25,4.25 11.109375,4.640625 10.96875,5.03125 11.078125,5.046875 11.1875,5.0625 10.96875,5.03125 Q 10.75,5 10.5,5 L 10.25,5 10.625,5 11,5 10.5,5 10,5 10,4.5 M 10,4.625 10,5 10,5.125 10,5.25 10,5 q 0,-0.25 0,-0.5 l 0,-0.25 0,0.375"
           id="path30088"
           inkscape:connector-curvature="0" />
        <path
           style="fill:#797970;fill-opacity:0.8627451"
           d="M 11.109375,4.640625 Q 11.25,4.25 11.625,4.125 L 12,4 12.125,4.375 12.25,4.75 12.15625,4.46875 12.0625,4.1875 12.125,4.375 q 0.0625,0.1875 0.15625,0.34375 L 12.375,4.875 12.328125,4.796875 12.28125,4.71875 11.984375,5.015625 11.6875,5.3125 11.75,5.375 11.8125,5.4375 11.6875,5.3125 Q 11.5625,5.1875 11.375,5.125 L 11.1875,5.0625 11.46875,5.15625 11.75,5.25 11.375,5.125 11,5 11.28125,5.09375 11.5625,5.1875 11.375,5.125 Q 11.1875,5.0625 10.96875,5.03125 L 10.75,5 10.859375,5.015625 10.96875,5.03125 11.109375,4.640625"
           id="path30090"
           inkscape:connector-curvature="0" />
        <path
           style="fill:#101010;fill-opacity:0.0627451"
           d="M 12.125,4.375 12,4 12.5,4 13,4 13.125,4.375 Q 13.25,4.75 13,5 L 12.75,5.25 12.5,5 Q 12.25,4.75 12.125,4.375 M 12.5625,5.0625 12.75,5.25 12.8125,5.3125 12.875,5.375 12.75,5.25 Q 12.625,5.125 12.5,5 l -0.125,-0.125 0.1875,0.1875"
           id="path30092"
           inkscape:connector-curvature="0" />
        <path
           style="fill:#171717;fill-opacity:0.04313725"
           d="M 8,5.5 Q 8,5 8.375,4.875 L 8.75,4.75 8.46875,4.84375 8.1875,4.9375 8.375,4.875 Q 8.5625,4.8125 8.6875,4.6875 L 8.8125,4.5625 8.75,4.625 8.6875,4.6875 8.984375,4.984375 9.28125,5.28125 9.359375,5.234375 9.4375,5.1875 9.28125,5.28125 Q 9.125,5.375 9,5.5 L 8.875,5.625 9.0625,5.4375 9.25,5.25 9,5.5 Q 8.75,5.75 8.375,5.875 L 8,6 8,5.5"
           id="path30094"
           inkscape:connector-curvature="0" />
        <path
           style="fill:#3e3f36;fill-opacity:0.77254902"
           d="M 9,5.5 Q 9.25,5.25 9.625,5.125 L 10,5 10,5.5 10,6 9.625,6.125 9.25,6.25 9.53125,6.15625 9.8125,6.0625 9.625,6.125 Q 9.4375,6.1875 9.28125,6.28125 L 9.125,6.375 9.203125,6.328125 9.28125,6.28125 9,6 8.71875,5.71875 8.640625,5.765625 8.5625,5.8125 8.71875,5.71875 Q 8.875,5.625 9,5.5 L 9.125,5.375 8.9375,5.5625 8.75,5.75 9,5.5 M 10,6.125 10,6 10,5.625 10,5.25 10,5.5 q 0,0.25 0,0.5 l 0,0.25 0,-0.125 M 10,5.375 10,5 10,4.875 10,4.75 10,5 q 0,0.25 0,0.5 l 0,0.25 0,-0.375"
           id="path30096"
           inkscape:connector-curvature="0" />
        <path
           style="fill:#e2e2cf;fill-opacity:1"
           d="M 10,5.5 10,5 10.5,5 11,5 10.875,5.375 q -0.125,0.375 -0.5,0.5 L 10,6 10,5.5 M 10,5.625 10,6 10,6.125 10,6.25 10,6 q 0,-0.25 0,-0.5 l 0,-0.25 0,0.375 M 10,4.875 10,5 10,5.375 10,5.75 10,5.5 Q 10,5.25 10,5 l 0,-0.25 0,0.125"
           id="path30098"
           inkscape:connector-curvature="0" />
        <path
           style="fill:#efefe5;fill-opacity:0.95294118"
           d="M 10.875,5.375 11,5 11.375,5.125 q 0.375,0.125 0.5,0.5 L 12,6 11.625,6.125 11.25,6.25 11.53125,6.15625 11.8125,6.0625 11.625,6.125 Q 11.4375,6.1875 11.34375,6.28125 L 11.25,6.375 11.296875,6.328125 11.34375,6.28125 11.015625,5.984375 10.6875,5.6875 10.625,5.75 10.5625,5.8125 10.6875,5.6875 Q 10.8125,5.5625 10.875,5.375 L 10.9375,5.1875 10.84375,5.46875 10.75,5.75 10.875,5.375"
           id="path30100"
           inkscape:connector-curvature="0" />
        <path
           style="fill:#585848;fill-opacity:0.2627451"
           d="M 11.875,5.625 11.75,5.25 11.84375,5.53125 11.9375,5.8125 11.875,5.625 Q 11.8125,5.4375 11.6875,5.3125 L 11.5625,5.1875 11.625,5.25 11.6875,5.3125 11.984375,5.015625 12.28125,4.71875 12.234375,4.640625 12.1875,4.5625 12.28125,4.71875 Q 12.375,4.875 12.5,5 L 12.625,5.125 12.4375,4.9375 12.25,4.75 12.5,5 Q 12.75,5.25 13,5.5 L 13.25,5.75 12.984375,6.015625 12.71875,6.28125 12.796875,6.328125 12.875,6.375 12.71875,6.28125 Q 12.5625,6.1875 12.375,6.125 L 12.1875,6.0625 12.46875,6.15625 12.75,6.25 12.359375,6.140625 11.96875,6.03125 11.984375,6.140625 12,6.25 11.96875,6.03125 Q 11.9375,5.8125 11.875,5.625 L 11.8125,5.4375 11.90625,5.71875 12,6 11.875,5.625 M 13.3125,5.8125 13.25,5.75 13.0625,5.5625 12.875,5.375 13,5.5 q 0.125,0.125 0.25,0.25 l 0.125,0.125 -0.0625,-0.0625"
           id="path30102"
           inkscape:connector-curvature="0" />
        <path
           style="fill:#404020;fill-opacity:0.03137255"
           d="M 7.125,6.625 Q 7.25,6.25 7.625,6.125 L 8,6 7.875,6.375 Q 7.75,6.75 7.375,6.875 L 7,7 7.125,6.625 M 6.90625,7.03125 7,7 7.28125,6.90625 7.5625,6.8125 7.375,6.875 Q 7.1875,6.9375 7,7 L 6.8125,7.0625 6.90625,7.03125 M 8.09375,5.96875 8,6 7.71875,6.09375 7.4375,6.1875 7.625,6.125 Q 7.8125,6.0625 8,6 L 8.1875,5.9375 8.09375,5.96875"
           id="path30104"
           inkscape:connector-curvature="0" />
        <path
           style="fill:#353631;fill-opacity:0.60784314"
           d="M 7.875,6.375 8,6 8.375,5.875 8.75,5.75 8.46875,5.84375 8.1875,5.9375 8.375,5.875 Q 8.5625,5.8125 8.71875,5.71875 L 8.875,5.625 8.796875,5.671875 8.71875,5.71875 9,6 9.28125,6.28125 9.359375,6.234375 9.4375,6.1875 9.28125,6.28125 Q 9.125,6.375 9,6.5 L 8.875,6.625 9.0625,6.4375 9.25,6.25 9,6.5 Q 8.75,6.75 8.5,7 L 8.25,7.25 7.96875,6.96875 7.6875,6.6875 7.625,6.75 7.5625,6.8125 7.6875,6.6875 Q 7.8125,6.5625 7.875,6.375 L 7.9375,6.1875 7.84375,6.46875 7.75,6.75 7.875,6.375 M 8.1875,7.3125 8.25,7.25 8.4375,7.0625 8.625,6.875 8.5,7 Q 8.375,7.125 8.25,7.25 L 8.125,7.375 8.1875,7.3125"
           id="path30106"
           inkscape:connector-curvature="0" />
        <path
           style="fill:#757661;fill-opacity:1"
           d="M 9,6.5 Q 9.25,6.25 9.625,6.125 L 10,6 10,6.5 10,7 9.625,7.125 9.25,7.25 9.53125,7.15625 9.8125,7.0625 9.625,7.125 Q 9.4375,7.1875 9.28125,7.28125 L 9.125,7.375 9.203125,7.328125 9.28125,7.28125 9.015625,7.015625 8.75,6.75 9,6.5 M 8.9375,6.5625 8.75,6.75 8.6875,6.8125 8.625,6.875 8.75,6.75 Q 8.875,6.625 9,6.5 L 9.125,6.375 8.9375,6.5625 M 10,6.375 10,6 10,5.875 10,5.75 10,6 q 0,0.25 0,0.5 l 0,0.25 0,-0.375"
           id="path30108"
           inkscape:connector-curvature="0" />
        <path
           style="fill:#eeeed8;fill-opacity:1"
           d="M 10,6.5 10,6 10.375,5.875 10.75,5.75 10.46875,5.84375 10.1875,5.9375 10.375,5.875 Q 10.5625,5.8125 10.6875,5.6875 L 10.8125,5.5625 10.75,5.625 10.6875,5.6875 11.015625,5.984375 11.34375,6.28125 11.390625,6.234375 11.4375,6.1875 11.34375,6.28125 Q 11.25,6.375 11.25,6.5 l 0,0.125 0,-0.1875 0,-0.1875 0,0.25 0,0.25 0,-0.1875 0,-0.1875 0,0.125 q 0,0.125 0.09375,0.21875 L 11.4375,6.8125 11.390625,6.765625 11.34375,6.71875 11.03125,7 10.71875,7.28125 10.796875,7.328125 10.875,7.375 10.71875,7.28125 Q 10.5625,7.1875 10.375,7.125 L 10.1875,7.0625 10.46875,7.15625 10.75,7.25 10.375,7.125 10,7 10,6.5 M 10,5.875 10,6 10,6.375 10,6.75 10,6.5 Q 10,6.25 10,6 l 0,-0.25 0,0.125"
           id="path30110"
           inkscape:connector-curvature="0" />
        <path
           style="fill:#fffffd;fill-opacity:1"
           d="m 11.25,6.5 q 0,-0.25 0.375,-0.375 L 12,6 12,6.5 12,7 11.625,6.875 Q 11.25,6.75 11.25,6.5"
           id="path30112"
           inkscape:connector-curvature="0" />
        <path
           style="fill:#a6a691;fill-opacity:0.84705882"
           d="M 12,6.5 12,6 12,6.375 12,6.75 12,6.5 Q 12,6.25 11.96875,6.03125 L 11.9375,5.8125 11.95313,5.921875 11.96876,6.03125 12.359385,6.140625 Q 12.75,6.25 13,6.5 L 13.25,6.75 12.984375,7.015625 12.71875,7.28125 12.796875,7.328125 12.875,7.375 12.71875,7.28125 Q 12.5625,7.1875 12.375,7.125 L 12.1875,7.0625 12.46875,7.15625 12.75,7.25 12.375,7.125 12,7 12,6.5 M 13.3125,6.8125 13.25,6.75 13.0625,6.5625 12.875,6.375 13,6.5 q 0.125,0.125 0.25,0.25 l 0.125,0.125 -0.0625,-0.0625"
           id="path30114"
           inkscape:connector-curvature="0" />
        <path
           style="fill:#514b44;fill-opacity:0.16078431"
           d="M 13,6.5 12.75,6.25 12.9375,6.4375 13.125,6.625 13,6.5 Q 12.875,6.375 12.71875,6.28125 L 12.5625,6.1875 12.640625,6.234375 12.71875,6.28125 12.984375,6.015625 13.25,5.75 13.5,6 Q 13.75,6.25 14,6.5 L 14.25,6.75 14,7 13.75,7.25 13.5,7 Q 13.25,6.75 13,6.5 M 13.5625,7.0625 13.75,7.25 13.8125,7.3125 13.875,7.375 13.75,7.25 Q 13.625,7.125 13.5,7 l -0.125,-0.125 0.1875,0.1875 m 0.75,-0.25 L 14.25,6.75 14.0625,6.5625 13.875,6.375 14,6.5 q 0.125,0.125 0.25,0.25 L 14.375,6.875 14.3125,6.8125 M 13.4375,5.9375 13.25,5.75 13.1875,5.6875 13.125,5.625 13.25,5.75 Q 13.375,5.875 13.5,6 l 0.125,0.125 -0.1875,-0.1875"
           id="path30116"
           inkscape:connector-curvature="0" />
        <path
           style="fill:#333333;fill-opacity:0.05882353"
           d="M 6,7.5 Q 6.25,7.25 6.625,7.125 L 7,7 7,7.5 7,8 6.625,8.125 6.25,8.25 6.53125,8.15625 6.8125,8.0625 6.625,8.125 Q 6.4375,8.1875 6.3125,8.3125 L 6.1875,8.4375 6.25,8.375 6.3125,8.3125 6.015625,8.015625 5.71875,7.71875 5.640625,7.765625 5.5625,7.8125 5.71875,7.71875 Q 5.875,7.625 6,7.5 L 6.125,7.375 5.9375,7.5625 5.75,7.75 6,7.5"
           id="path30118"
           inkscape:connector-curvature="0" />
        <path
           style="fill:#393c36;fill-opacity:0.6627451"
           d="M 7,7.5 7,7 7.375,6.875 7.75,6.75 7.46875,6.84375 7.1875,6.9375 7.375,6.875 Q 7.5625,6.8125 7.6875,6.6875 L 7.8125,6.5625 7.75,6.625 7.6875,6.6875 7.96875,6.96875 8.25,7.25 8,7.5 Q 7.75,7.75 7.375,7.875 L 7,8 7,7.5 M 8.0625,7.4375 8.25,7.25 8.3125,7.1875 8.375,7.125 8.25,7.25 Q 8.125,7.375 8,7.5 L 7.875,7.625 8.0625,7.4375"
           id="path30120"
           inkscape:connector-curvature="0" />
        <path
           style="fill:#56574b;fill-opacity:1"
           d="M 8,7.5 Q 8.25,7.25 8.5,7 L 8.75,6.75 9.015625,7.015625 9.28125,7.28125 9.359375,7.234375 9.4375,7.1875 9.28125,7.28125 Q 9.125,7.375 9,7.5 L 8.875,7.625 9.0625,7.4375 9.25,7.25 9,7.5 Q 8.75,7.75 8.5,8 L 8.25,8.25 7.984375,7.984375 7.71875,7.71875 7.640625,7.765625 7.5625,7.8125 7.71875,7.71875 Q 7.875,7.625 8,7.5 L 8.125,7.375 7.9375,7.5625 7.75,7.75 8,7.5 M 8.1875,8.3125 8.25,8.25 8.4375,8.0625 8.625,7.875 8.5,8 Q 8.375,8.125 8.25,8.25 L 8.125,8.375 8.1875,8.3125 M 8.8125,6.6875 8.75,6.75 8.5625,6.9375 8.375,7.125 8.5,7 Q 8.625,6.875 8.75,6.75 L 8.875,6.625 8.8125,6.6875"
           id="path30122"
           inkscape:connector-curvature="0" />
        <path
           style="fill:#a2a385;fill-opacity:1"
           d="M 9,7.5 Q 9.25,7.25 9.625,7.125 L 10,7 10,7.5 10,8 9.625,8.125 9.25,8.25 9.53125,8.15625 9.8125,8.0625 9.625,8.125 Q 9.4375,8.1875 9.28125,8.28125 L 9.125,8.375 9.203125,8.328125 9.28125,8.28125 9.015625,8.015625 8.75,7.75 9,7.5 M 8.9375,7.5625 8.75,7.75 8.6875,7.8125 8.625,7.875 8.75,7.75 Q 8.875,7.625 9,7.5 L 9.125,7.375 8.9375,7.5625"
           id="path30124"
           inkscape:connector-curvature="0" />
        <path
           style="fill:#f7f8d4;fill-opacity:1"
           d="M 10,7.5 10,7 10.375,7.125 Q 10.75,7.25 11,7.5 L 11.25,7.75 11.0625,7.5625 10.875,7.375 11,7.5 q 0.125,0.125 0.28125,0.21875 L 11.4375,7.8125 11.359375,7.765625 11.28125,7.71875 10.96875,8 10.65625,8.28125 10.703125,8.328125 10.75,8.375 10.65625,8.28125 Q 10.5625,8.1875 10.375,8.125 L 10.1875,8.0625 10.46875,8.15625 10.75,8.25 10.375,8.125 10,8 10,7.5"
           id="path30126"
           inkscape:connector-curvature="0" />
        <path
           style="fill:#ffffed;fill-opacity:1"
           d="M 11,7.5 10.75,7.25 10.9375,7.4375 11.125,7.625 11,7.5 Q 10.875,7.375 10.71875,7.28125 L 10.5625,7.1875 10.640625,7.234375 10.71875,7.28125 11.03125,7 11.34375,6.71875 11.296875,6.671875 11.25,6.625 11.34375,6.71875 Q 11.4375,6.8125 11.625,6.875 L 11.8125,6.9375 11.53125,6.84375 11.25,6.75 11.625,6.875 12,7 12,7.5 12,8 11.625,7.875 Q 11.25,7.75 11,7.5"
           id="path30128"
           inkscape:connector-curvature="0" />
        <path
           style="fill:#e4e4bf;fill-opacity:1"
           d="M 12,7.5 12,7 12.375,7.125 Q 12.75,7.25 13,7.5 L 13.25,7.75 12.984375,8.015625 12.71875,8.28125 12.796875,8.328125 12.875,8.375 12.71875,8.28125 Q 12.5625,8.1875 12.375,8.125 L 12.1875,8.0625 12.46875,8.15625 12.75,8.25 12.375,8.125 12,8 12,7.5 M 13.3125,7.8125 13.25,7.75 13.0625,7.5625 12.875,7.375 13,7.5 q 0.125,0.125 0.25,0.25 l 0.125,0.125 -0.0625,-0.0625"
           id="path30130"
           inkscape:connector-curvature="0" />
        <path
           style="fill:#90907b;fill-opacity:0.85882353"
           d="M 13,7.5 12.75,7.25 12.9375,7.4375 13.125,7.625 13,7.5 Q 12.875,7.375 12.71875,7.28125 L 12.5625,7.1875 12.640625,7.234375 12.71875,7.28125 12.984375,7.015625 13.25,6.75 13.5,7 Q 13.75,7.25 14,7.5 L 14.25,7.75 14,8 13.75,8.25 13.5,8 Q 13.25,7.75 13,7.5 M 13.5625,8.0625 13.75,8.25 13.8125,8.3125 13.875,8.375 13.75,8.25 Q 13.625,8.125 13.5,8 l -0.125,-0.125 0.1875,0.1875 m 0.75,-0.25 L 14.25,7.75 14.0625,7.5625 13.875,7.375 14,7.5 q 0.125,0.125 0.25,0.25 L 14.375,7.875 14.3125,7.8125 M 13.4375,6.9375 13.25,6.75 13.1875,6.6875 13.125,6.625 13.25,6.75 Q 13.375,6.875 13.5,7 l 0.125,0.125 -0.1875,-0.1875"
           id="path30132"
           inkscape:connector-curvature="0" />
        <path
           style="fill:#5e5e55;fill-opacity:0.22352941"
           d="M 14,7.5 13.75,7.25 14,7 14.25,6.75 14.5,7 Q 14.75,7.25 15,7.5 L 15.25,7.75 15,8 14.75,8.25 14.5,8 Q 14.25,7.75 14,7.5 M 14.5625,8.0625 14.75,8.25 14.8125,8.3125 14.875,8.375 14.75,8.25 Q 14.625,8.125 14.5,8 l -0.125,-0.125 0.1875,0.1875 m 0.75,-0.25 L 15.25,7.75 15.0625,7.5625 14.875,7.375 15,7.5 q 0.125,0.125 0.25,0.25 L 15.375,7.875 15.3125,7.8125 M 14.4375,6.9375 14.25,6.75 14.1875,6.6875 14.125,6.625 14.25,6.75 Q 14.375,6.875 14.5,7 l 0.125,0.125 -0.1875,-0.1875 m -0.75,0.25 L 13.75,7.25 13.9375,7.4375 14.125,7.625 14,7.5 Q 13.875,7.375 13.75,7.25 l -0.125,-0.125 0.0625,0.0625"
           id="path30134"
           inkscape:connector-curvature="0" />
        <path
           style="fill:#242424;fill-opacity:0.05490196"
           d="M 4.875,8.375 Q 5,8 5.375,7.875 L 5.75,7.75 5.46875,7.84375 5.1875,7.9375 5.375,7.875 Q 5.5625,7.8125 5.71875,7.71875 L 5.875,7.625 5.796875,7.671875 5.71875,7.71875 6.015625,8.015625 6.3125,8.3125 6.375,8.25 6.4375,8.1875 6.3125,8.3125 Q 6.1875,8.4375 6.125,8.625 L 6.0625,8.8125 6.15625,8.53125 6.25,8.25 6.125,8.625 6,9 5.625,9.125 5.25,9.25 5.53125,9.15625 5.8125,9.0625 5.625,9.125 Q 5.4375,9.1875 5.3125,9.3125 L 5.1875,9.4375 5.25,9.375 5.3125,9.3125 5,9 4.6875,8.6875 4.625,8.75 4.5625,8.8125 4.6875,8.6875 Q 4.8125,8.5625 4.875,8.375 L 4.9375,8.1875 4.84375,8.46875 4.75,8.75 4.875,8.375"
           id="path30136"
           inkscape:connector-curvature="0" />
        <path
           style="fill:#3d3f38;fill-opacity:0.70980392"
           d="M 6.125,8.625 Q 6.25,8.25 6.625,8.125 L 7,8 7,8.5 7,9 6.5,9 6,9 6.125,8.625"
           id="path30138"
           inkscape:connector-curvature="0" />
        <path
           style="fill:#4f4f46;fill-opacity:1"
           d="M 7,8.5 7,8 7.375,7.875 7.75,7.75 7.46875,7.84375 7.1875,7.9375 7.375,7.875 Q 7.5625,7.8125 7.71875,7.71875 L 7.875,7.625 7.796875,7.671875 7.71875,7.71875 7.984375,7.984375 8.25,8.25 8,8.5 Q 7.75,8.75 7.375,8.875 L 7,9 7,8.5 M 8.0625,8.4375 8.25,8.25 8.3125,8.1875 8.375,8.125 8.25,8.25 Q 8.125,8.375 8,8.5 L 7.875,8.625 8.0625,8.4375"
           id="path30140"
           inkscape:connector-curvature="0" />
        <path
           style="fill:#757764;fill-opacity:1"
           d="M 8,8.5 Q 8.25,8.25 8.5,8 L 8.75,7.75 9.015625,8.015625 9.28125,8.28125 9.359375,8.234375 9.4375,8.1875 9.28125,8.28125 Q 9.125,8.375 9,8.5 L 8.875,8.625 9.0625,8.4375 9.25,8.25 9,8.5 Q 8.75,8.75 8.5,9 L 8.25,9.25 7.984375,8.984375 7.71875,8.71875 7.640625,8.765625 7.5625,8.8125 7.71875,8.71875 Q 7.875,8.625 8,8.5 L 8.125,8.375 7.9375,8.5625 7.75,8.75 8,8.5 M 8.1875,9.3125 8.25,9.25 8.4375,9.0625 8.625,8.875 8.5,9 Q 8.375,9.125 8.25,9.25 L 8.125,9.375 8.1875,9.3125 M 8.8125,7.6875 8.75,7.75 8.5625,7.9375 8.375,8.125 8.5,8 Q 8.625,7.875 8.75,7.75 L 8.875,7.625 8.8125,7.6875"
           id="path30142"
           inkscape:connector-curvature="0" />
        <path
           style="fill:#bfbf9d;fill-opacity:1"
           d="M 9,8.5 Q 9.25,8.25 9.625,8.125 L 10,8 9.875,8.375 Q 9.75,8.75 9.5,9 L 9.25,9.25 9.4375,9.0625 9.625,8.875 9.5,9 Q 9.375,9.125 9.28125,9.28125 L 9.1875,9.4375 9.234375,9.359375 9.28125,9.28125 9.015625,9.015625 8.75,8.75 9,8.5 M 8.9375,8.5625 8.75,8.75 8.6875,8.8125 8.625,8.875 8.75,8.75 Q 8.875,8.625 9,8.5 L 9.125,8.375 8.9375,8.5625"
           id="path30144"
           inkscape:connector-curvature="0" />
        <path
           style="fill:#fbfbd2;fill-opacity:1"
           d="M 9.875,8.375 10,8 10.375,8.125 Q 10.75,8.25 10.75,8.5 10.75,8.75 10.5,9 L 10.25,9.25 9.984375,8.984375 9.71875,8.71875 9.671875,8.796875 9.625,8.875 9.71875,8.71875 Q 9.8125,8.5625 9.875,8.375 L 9.9375,8.1875 9.84375,8.46875 9.75,8.75 9.875,8.375 M 10.1875,9.3125 10.25,9.25 10.4375,9.0625 10.625,8.875 10.5,9 q -0.125,0.125 -0.25,0.25 l -0.125,0.125 0.0625,-0.0625"
           id="path30146"
           inkscape:connector-curvature="0" />
        <path
           style="fill:#ffffeb;fill-opacity:1"
           d="m 10.75,8.5 0,-0.25 0,0.1875 0,0.1875 0,-0.125 q 0,-0.125 -0.09375,-0.21875 L 10.5625,8.1875 10.609375,8.234375 10.65625,8.28125 10.96875,8 11.28125,7.71875 11.203125,7.671875 11.125,7.625 11.28125,7.71875 Q 11.4375,7.8125 11.625,7.875 L 11.8125,7.9375 11.53125,7.84375 11.25,7.75 11.625,7.875 12,8 12.125,8.375 12.25,8.75 12.15625,8.46875 12.0625,8.1875 12.125,8.375 q 0.0625,0.1875 0.15625,0.34375 L 12.375,8.875 12.328125,8.796875 12.28125,8.71875 12,9.03125 11.71875,9.34375 11.765625,9.390625 11.8125,9.4375 11.71875,9.34375 Q 11.625,9.25 11.5,9.25 l -0.125,0 0.1875,0 0.1875,0 -0.25,0 -0.25,0 0.1875,0 0.1875,0 -0.125,0 q -0.125,0 -0.21875,0.09375 L 11.1875,9.4375 11.234375,9.390625 11.28125,9.34375 10.984375,9.046875 10.6875,8.75 10.65625,8.8125 10.625,8.875 10.6875,8.75 Q 10.75,8.625 10.75,8.5 l 0,-0.125 0,0.1875 0,0.1875 0,-0.25"
           id="path30148"
           inkscape:connector-curvature="0" />
        <path
           style="fill:#fafad7;fill-opacity:1"
           d="M 12.125,8.375 12,8 12.375,8.125 Q 12.75,8.25 13,8.5 L 13.25,8.75 13,9 12.75,9.25 12.5,9 Q 12.25,8.75 12.125,8.375 M 12.5625,9.0625 12.75,9.25 12.8125,9.3125 12.875,9.375 12.75,9.25 Q 12.625,9.125 12.5,9 l -0.125,-0.125 0.1875,0.1875 m 0.75,-0.25 L 13.25,8.75 13.0625,8.5625 12.875,8.375 13,8.5 q 0.125,0.125 0.25,0.25 l 0.125,0.125 -0.0625,-0.0625"
           id="path30150"
           inkscape:connector-curvature="0" />
        <path
           style="fill:#cdceac;fill-opacity:1"
           d="M 13,8.5 12.75,8.25 12.9375,8.4375 13.125,8.625 13,8.5 Q 12.875,8.375 12.71875,8.28125 L 12.5625,8.1875 12.640625,8.234375 12.71875,8.28125 12.984375,8.015625 13.25,7.75 13.5,8 Q 13.75,8.25 14,8.5 L 14.25,8.75 14,9 13.75,9.25 13.5,9 Q 13.25,8.75 13,8.5 M 13.5625,9.0625 13.75,9.25 13.8125,9.3125 13.875,9.375 13.75,9.25 Q 13.625,9.125 13.5,9 l -0.125,-0.125 0.1875,0.1875 m 0.75,-0.25 L 14.25,8.75 14.0625,8.5625 13.875,8.375 14,8.5 q 0.125,0.125 0.25,0.25 L 14.375,8.875 14.3125,8.8125 M 13.4375,7.9375 13.25,7.75 13.1875,7.6875 13.125,7.625 13.25,7.75 Q 13.375,7.875 13.5,8 l 0.125,0.125 -0.1875,-0.1875"
           id="path30152"
           inkscape:connector-curvature="0" />
        <path
           style="fill:#959580;fill-opacity:0.90980392"
           d="M 14,8.5 13.75,8.25 14,8 14.25,7.75 14.5,8 Q 14.75,8.25 15,8.5 L 15.25,8.75 15.0625,8.5625 14.875,8.375 15,8.5 q 0.125,0.125 0.28125,0.21875 L 15.4375,8.8125 15.359375,8.765625 15.28125,8.71875 15.015625,8.984375 14.75,9.25 14.5,9 Q 14.25,8.75 14,8.5 M 14.5625,9.0625 14.75,9.25 14.8125,9.3125 14.875,9.375 14.75,9.25 Q 14.625,9.125 14.5,9 L 14.375,8.875 14.5625,9.0625 M 14.4375,7.9375 14.25,7.75 14.1875,7.6875 14.125,7.625 14.25,7.75 Q 14.375,7.875 14.5,8 l 0.125,0.125 -0.1875,-0.1875 m -0.75,0.25 L 13.75,8.25 13.9375,8.4375 14.125,8.625 14,8.5 Q 13.875,8.375 13.75,8.25 l -0.125,-0.125 0.0625,0.0625"
           id="path30154"
           inkscape:connector-curvature="0" />
        <path
           style="fill:#5e5e51;fill-opacity:0.22352941"
           d="M 15,8.5 14.75,8.25 15,8 15.25,7.75 15.5,8 q 0.25,0.25 0.375,0.625 L 16,9 15.90625,8.71875 15.8125,8.4375 15.875,8.625 q 0.0625,0.1875 0.09375,0.40625 L 16,9.25 15.984375,9.140625 15.96875,9.03125 15.609375,8.890625 Q 15.25,8.75 15,8.5 M 15.4375,7.9375 15.25,7.75 15.1875,7.6875 15.125,7.625 15.25,7.75 Q 15.375,7.875 15.5,8 l 0.125,0.125 -0.1875,-0.1875 m -0.75,0.25 L 14.75,8.25 14.9375,8.4375 15.125,8.625 15,8.5 Q 14.875,8.375 14.75,8.25 l -0.125,-0.125 0.0625,0.0625"
           id="path30156"
           inkscape:connector-curvature="0" />
        <path
           style="fill:#151515;fill-opacity:0.04705882"
           d="M 4,9.5 Q 4,9 4.375,8.875 L 4.75,8.75 4.46875,8.84375 4.1875,8.9375 4.375,8.875 Q 4.5625,8.8125 4.6875,8.6875 L 4.8125,8.5625 4.75,8.625 4.6875,8.6875 5,9 5.3125,9.3125 5.375,9.25 5.4375,9.1875 5.3125,9.3125 Q 5.1875,9.4375 5.125,9.625 L 5.0625,9.8125 5.15625,9.53125 5.25,9.25 5.125,9.625 5,10 4.5,10 4,10 4,9.5"
           id="path30158"
           inkscape:connector-curvature="0" />
        <path
           style="fill:#303632;fill-opacity:0.55686275"
           d="M 5.125,9.625 Q 5.25,9.25 5.625,9.125 L 6,9 6,9.5 6,10 5.5,10 5,10 5.125,9.625"
           id="path30160"
           inkscape:connector-curvature="0" />
        <path
           style="fill:#494941;fill-opacity:1"
           d="M 6,9.5 6,9 6.5,9 7,9 7,9.5 7,10 6.5,10 6,10 6,9.5"
           id="path30162"
           inkscape:connector-curvature="0" />
        <path
           style="fill:#5c5c4f;fill-opacity:1"
           d="M 7,9.5 7,9 7.375,8.875 7.75,8.75 7.46875,8.84375 7.1875,8.9375 7.375,8.875 Q 7.5625,8.8125 7.71875,8.71875 L 7.875,8.625 7.796875,8.671875 7.71875,8.71875 7.984375,8.984375 8.25,9.25 8,9.5 Q 7.75,9.75 7.375,9.875 L 7,10 7,9.5 M 8.0625,9.4375 8.25,9.25 8.3125,9.1875 8.375,9.125 8.25,9.25 Q 8.125,9.375 8,9.5 L 7.875,9.625 8.0625,9.4375"
           id="path30164"
           inkscape:connector-curvature="0" />
        <path
           style="fill:#8d8e77;fill-opacity:1"
           d="M 8,9.5 Q 8.25,9.25 8.5,9 L 8.75,8.75 9.015625,9.015625 9.28125,9.28125 9.328125,9.203125 9.375,9.125 9.28125,9.28125 Q 9.1875,9.4375 9.125,9.625 L 9.0625,9.8125 9.15625,9.53125 9.25,9.25 9.125,9.625 9,10 8.625,10.125 8.25,10.25 8.53125,10.15625 8.8125,10.0625 8.625,10.125 Q 8.4375,10.1875 8.34375,10.28125 L 8.25,10.375 8.296875,10.328125 8.34375,10.28125 8.03125,10 7.71875,9.71875 7.640625,9.765625 7.5625,9.8125 7.71875,9.71875 Q 7.875,9.625 8,9.5 L 8.125,9.375 7.9375,9.5625 7.75,9.75 8,9.5 M 8.8125,8.6875 8.75,8.75 8.5625,8.9375 8.375,9.125 8.5,9 Q 8.625,8.875 8.75,8.75 L 8.875,8.625 8.8125,8.6875"
           id="path30166"
           inkscape:connector-curvature="0" />
        <path
           style="fill:#d3d4ab;fill-opacity:1"
           d="M 9.125,9.625 Q 9.25,9.25 9.5,9 L 9.75,8.75 9.5625,8.9375 9.375,9.125 9.5,9 Q 9.625,8.875 9.71875,8.71875 L 9.8125,8.5625 9.765625,8.640625 9.71875,8.71875 9.984375,8.984375 10.25,9.25 10,9.5 Q 9.75,9.75 9.375,9.875 L 9,10 9.125,9.625 M 10.0625,9.4375 10.25,9.25 10.3125,9.1875 10.375,9.125 10.25,9.25 Q 10.125,9.375 10,9.5 L 9.875,9.625 10.0625,9.4375"
           id="path30168"
           inkscape:connector-curvature="0" />
        <path
           style="fill:#ffffe0;fill-opacity:1"
           d="M 10,9.5 Q 10.25,9.25 10.5,9 L 10.75,8.75 10.5625,8.9375 10.375,9.125 10.5,9 Q 10.625,8.875 10.6875,8.75 L 10.75,8.625 10.71875,8.6875 10.6875,8.75 10.984375,9.046875 11.28125,9.34375 11.328125,9.296875 11.375,9.25 11.28125,9.34375 Q 11.1875,9.4375 11.125,9.625 L 11.0625,9.8125 11.15625,9.53125 11.25,9.25 11.125,9.625 11,10 10.625,10.125 10.25,10.25 10.53125,10.15625 10.8125,10.0625 10.625,10.125 q -0.1875,0.0625 -0.3125,0.1875 l -0.125,0.125 L 10.25,10.375 10.3125,10.3125 10.015625,10.015625 9.71875,9.71875 9.640625,9.765625 9.5625,9.8125 9.71875,9.71875 Q 9.875,9.625 10,9.5 L 10.125,9.375 9.9375,9.5625 9.75,9.75 10,9.5"
           id="path30170"
           inkscape:connector-curvature="0" />
        <path
           style="fill:#fffffc;fill-opacity:1"
           d="M 11.125,9.625 Q 11.25,9.25 11.5,9.25 q 0.25,0 0.375,0.375 L 12,10 11.5,10 11,10 11.125,9.625"
           id="path30172"
           inkscape:connector-curvature="0" />
        <path
           style="fill:#fffff9;fill-opacity:1"
           d="M 11.875,9.625 11.75,9.25 11.84375,9.53125 11.9375,9.8125 11.875,9.625 Q 11.8125,9.4375 11.71875,9.34375 L 11.625,9.25 11.671875,9.296875 11.71875,9.34375 12,9.03125 12.28125,8.71875 12.234375,8.640625 12.1875,8.5625 12.28125,8.71875 Q 12.375,8.875 12.5,9 L 12.625,9.125 12.4375,8.9375 12.25,8.75 12.5,9 Q 12.75,9.25 13,9.5 L 13.25,9.75 13,10 q -0.25,0.25 -0.625,0.125 L 12,10 11.875,9.625 M 13.3125,9.8125 13.25,9.75 13.0625,9.5625 12.875,9.375 13,9.5 q 0.125,0.125 0.25,0.25 l 0.125,0.125 -0.0625,-0.0625"
           id="path30174"
           inkscape:connector-curvature="0" />
        <path
           style="fill:#f6f7d8;fill-opacity:1"
           d="M 13,9.5 12.75,9.25 13,9 13.25,8.75 13.5,9 Q 13.75,9.25 14,9.5 L 14.25,9.75 14,10 13.75,10.25 13.5,10 Q 13.25,9.75 13,9.5 M 13.5625,10.0625 13.75,10.25 13.8125,10.3125 13.875,10.375 13.75,10.25 Q 13.625,10.125 13.5,10 l -0.125,-0.125 0.1875,0.1875 m 0.75,-0.25 L 14.25,9.75 14.0625,9.5625 13.875,9.375 14,9.5 q 0.125,0.125 0.25,0.25 L 14.375,9.875 14.3125,9.8125 M 13.4375,8.9375 13.25,8.75 13.1875,8.6875 13.125,8.625 13.25,8.75 Q 13.375,8.875 13.5,9 l 0.125,0.125 -0.1875,-0.1875 m -0.75,0.25 L 12.75,9.25 12.9375,9.4375 13.125,9.625 13,9.5 Q 12.875,9.375 12.75,9.25 l -0.125,-0.125 0.0625,0.0625"
           id="path30176"
           inkscape:connector-curvature="0" />
        <path
           style="fill:#cbcbaa;fill-opacity:1"
           d="M 14,9.5 13.75,9.25 14,9 14.25,8.75 14.5,9 Q 14.75,9.25 15,9.5 L 15.25,9.75 15.0625,9.5625 14.875,9.375 15,9.5 q 0.125,0.125 0.28125,0.21875 L 15.4375,9.8125 15.359375,9.765625 15.28125,9.71875 15.015625,9.984375 14.75,10.25 14.5,10 Q 14.25,9.75 14,9.5 M 14.5625,10.0625 14.75,10.25 14.8125,10.3125 14.875,10.375 14.75,10.25 Q 14.625,10.125 14.5,10 l -0.125,-0.125 0.1875,0.1875 M 14.4375,8.9375 14.25,8.75 14.1875,8.6875 14.125,8.625 14.25,8.75 Q 14.375,8.875 14.5,9 l 0.125,0.125 -0.1875,-0.1875 m -0.75,0.25 L 13.75,9.25 13.9375,9.4375 14.125,9.625 14,9.5 Q 13.875,9.375 13.75,9.25 l -0.125,-0.125 0.0625,0.0625"
           id="path30178"
           inkscape:connector-curvature="0" />
        <path
           style="fill:#90907d;fill-opacity:0.84313725"
           d="M 15,9.5 14.75,9.25 15.015625,8.984375 15.28125,8.71875 15.203125,8.671875 15.125,8.625 15.28125,8.71875 Q 15.4375,8.8125 15.625,8.875 L 15.8125,8.9375 15.53125,8.84375 15.25,8.75 15.609375,8.890625 15.96875,9.03125 15.953125,8.921875 15.9375,8.8125 15.96875,9.03125 Q 16,9.25 16,9.5 L 16,9.75 16,9.375 16,9 16,9.5 16,10 15.625,9.875 Q 15.25,9.75 15,9.5 M 14.6875,9.1875 14.75,9.25 14.9375,9.4375 15.125,9.625 15,9.5 Q 14.875,9.375 14.75,9.25 l -0.125,-0.125 0.0625,0.0625"
           id="path30180"
           inkscape:connector-curvature="0" />
        <path
           style="fill:#171717;fill-opacity:0.08627451"
           d="M 16,9.5 16,9 16.5,9 Q 17,9 17.125,9.375 L 17.25,9.75 17.15625,9.46875 17.0625,9.1875 17.125,9.375 q 0.0625,0.1875 0.1875,0.3125 l 0.125,0.125 L 17.375,9.75 17.3125,9.6875 17,10 l -0.3125,0.3125 0.0625,0.0625 0.0625,0.0625 -0.125,-0.125 Q 16.5625,10.1875 16.375,10.125 L 16.1875,10.0625 16.46875,10.15625 16.75,10.25 16.375,10.125 16,10 16,9.5"
           id="path30182"
           inkscape:connector-curvature="0" />
        <path
           style="fill:#2c2e2c;fill-opacity:0.38823529"
           d="M 3.875,10.375 4,10 4.5,10 5,10 5,10.5 5,11 4.625,11.125 4.25,11.25 4.53125,11.15625 4.8125,11.0625 4.625,11.125 Q 4.4375,11.1875 4.3125,11.3125 L 4.1875,11.4375 4.25,11.375 4.3125,11.3125 4.03125,11.03125 Q 3.75,10.75 3.875,10.375"
           id="path30184"
           inkscape:connector-curvature="0" />
        <path
           style="fill:#3f433e;fill-opacity:0.96470588"
           d="M 5,10.5 5,10 5.5,10 6,10 6,10.5 6,11 5.5,11 5,11 5,10.5"
           id="path30186"
           inkscape:connector-curvature="0" />
        <path
           style="fill:#484840;fill-opacity:1"
           d="M 6,10.5 6,10 6.5,10 7,10 7,10.5 7,11 6.5,11 6,11 6,10.5"
           id="path30188"
           inkscape:connector-curvature="0" />
        <path
           style="fill:#656556;fill-opacity:1"
           d="M 7,10.5 7,10 7.375,9.875 7.75,9.75 7.46875,9.84375 7.1875,9.9375 7.375,9.875 Q 7.5625,9.8125 7.71875,9.71875 L 7.875,9.625 7.796875,9.671875 7.71875,9.71875 8.03125,10 8.34375,10.28125 8.390625,10.234375 8.4375,10.1875 8.34375,10.28125 Q 8.25,10.375 8.25,10.5 l 0,0.125 0,-0.1875 0,-0.1875 0,0.25 0,0.25 0,-0.1875 0,-0.1875 0,0.125 q 0,0.125 0.09375,0.21875 L 8.4375,10.8125 8.390625,10.765625 8.34375,10.71875 8.03125,11 7.71875,11.28125 7.796875,11.328125 7.875,11.375 7.71875,11.28125 Q 7.5625,11.1875 7.375,11.125 L 7.1875,11.0625 7.46875,11.15625 7.75,11.25 7.375,11.125 7,11 7,10.5"
           id="path30190"
           inkscape:connector-curvature="0" />
        <path
           style="fill:#95967d;fill-opacity:1"
           d="m 8.25,10.5 q 0,-0.25 0.375,-0.375 L 9,10 9,10.5 9,11 8.625,10.875 Q 8.25,10.75 8.25,10.5"
           id="path30192"
           inkscape:connector-curvature="0" />
        <path
           style="fill:#dcdcb1;fill-opacity:1"
           d="M 9,10.5 9,10 9.375,9.875 9.75,9.75 9.46875,9.84375 9.1875,9.9375 9.375,9.875 Q 9.5625,9.8125 9.71875,9.71875 L 9.875,9.625 9.796875,9.671875 9.71875,9.71875 10.015625,10.015625 10.3125,10.3125 10.375,10.25 l 0.0625,-0.0625 -0.125,0.125 q -0.125,0.125 -0.1875,0.3125 L 10.0625,10.8125 10.15625,10.53125 10.25,10.25 10.125,10.625 10,11 9.5,11 9,11 9,10.5"
           id="path30194"
           inkscape:connector-curvature="0" />
        <path
           style="fill:#ffffec;fill-opacity:1"
           d="m 10.125,10.625 q 0.125,-0.375 0.5,-0.5 L 11,10 l 0,0.5 0,0.5 -0.5,0 -0.5,0 0.125,-0.375"
           id="path30196"
           inkscape:connector-curvature="0" />
        <path
           style="fill:#ffffff;fill-opacity:1"
           d="m 11,10.5 0,-0.5 0.5,0 0.5,0 0.375,0.125 Q 12.75,10.25 13,10 L 13.25,9.75 13.5,10 q 0.25,0.25 0.5,0.5 0.25,0.25 0.5,0.5 0.25,0.25 0.375,0.625 L 15,12 14.875,12.375 q -0.125,0.375 -0.5,0.5 L 14,13 13.5,13 13,13 12.5,13 12,13 11.625,12.875 Q 11.25,12.75 11.125,12.375 11,12 11,11.5 L 11,11 11,10.5 M 13.4375,9.9375 13.25,9.75 13.1875,9.6875 13.125,9.625 13.25,9.75 Q 13.375,9.875 13.5,10 l 0.125,0.125 -0.1875,-0.1875"
           id="path30198"
           inkscape:connector-curvature="0" />
        <path
           style="fill:#f9f9e2;fill-opacity:1"
           d="M 14,10.5 13.75,10.25 14,10 14.25,9.75 14.5,10 q 0.25,0.25 0.5,0.5 L 15.25,10.75 15.0625,10.5625 14.875,10.375 15,10.5 q 0.125,0.125 0.28125,0.21875 L 15.4375,10.8125 15.359375,10.765625 15.28125,10.71875 15,11 l -0.28125,0.28125 0.04687,0.07813 0.04687,0.07813 -0.09375,-0.15625 Q 14.625,11.125 14.5,11 L 14.375,10.875 14.5625,11.0625 14.75,11.25 14.5,11 Q 14.25,10.75 14,10.5 M 14.4375,9.9375 14.25,9.75 14.1875,9.6875 14.125,9.625 14.25,9.75 Q 14.375,9.875 14.5,10 l 0.125,0.125 -0.1875,-0.1875 m -0.75,0.25 L 13.75,10.25 13.9375,10.4375 14.125,10.625 14,10.5 q -0.125,-0.125 -0.25,-0.25 l -0.125,-0.125 0.0625,0.0625"
           id="path30200"
           inkscape:connector-curvature="0" />
        <path
           style="fill:#c9caab;fill-opacity:1"
           d="M 15,10.5 14.75,10.25 15.015625,9.984375 15.28125,9.71875 15.203125,9.671875 15.125,9.625 15.28125,9.71875 Q 15.4375,9.8125 15.625,9.875 L 15.8125,9.9375 15.53125,9.84375 15.25,9.75 15.625,9.875 16,10 16,10.5 16,11 15.625,10.875 Q 15.25,10.75 15,10.5 M 14.6875,10.1875 14.75,10.25 14.9375,10.4375 15.125,10.625 15,10.5 q -0.125,-0.125 -0.25,-0.25 l -0.125,-0.125 0.0625,0.0625"
           id="path30202"
           inkscape:connector-curvature="0" />
        <path
           style="fill:#525249;fill-opacity:0.5372549"
           d="m 16,10.5 0,-0.5 0.375,0.125 q 0.375,0.125 0.5,0.5 L 17,11 16.5,11 16,11 16,10.5"
           id="path30204"
           inkscape:connector-curvature="0" />
        <path
           style="fill:#000000;fill-opacity:0.03529412"
           d="M 16.875,10.625 16.75,10.25 16.84375,10.53125 16.9375,10.8125 16.875,10.625 q -0.0625,-0.1875 -0.1875,-0.3125 l -0.125,-0.125 0.0625,0.0625 0.0625,0.0625 L 17,10 17.3125,9.6875 17.25,9.625 17.1875,9.5625 l 0.125,0.125 q 0.125,0.125 0.3125,0.1875 L 17.8125,9.9375 17.53125,9.84375 17.25,9.75 17.625,9.875 Q 18,10 18,10.5 l 0,0.5 -0.5,0 -0.5,0 -0.125,-0.375"
           id="path30206"
           inkscape:connector-curvature="0" />
        <path
           style="fill:#353f3f;fill-opacity:0.64705882"
           d="m 4.125,11.625 q 0.125,-0.375 0.5,-0.5 L 5,11 5,11.5 5,12 4.515625,12.015625 4.03125,12.03125 4.015625,12.140625 4,12.25 4.03125,12.03125 Q 4.0625,11.8125 4.125,11.625 L 4.1875,11.4375 4.09375,11.71875 4,12 4.125,11.625"
           id="path30208"
           inkscape:connector-curvature="0" />
        <path
           style="fill:#3c423e;fill-opacity:1"
           d="M 5,11.5 5,11 5.5,11 6,11 6.125,11.375 6.25,11.75 6.15625,11.46875 6.0625,11.1875 6.125,11.375 q 0.0625,0.1875 0.1875,0.3125 l 0.125,0.125 L 6.375,11.75 6.3125,11.6875 6.015625,11.984375 5.71875,12.28125 5.796875,12.328125 5.875,12.375 5.71875,12.28125 Q 5.5625,12.1875 5.375,12.125 L 5.1875,12.0625 5.46875,12.15625 5.75,12.25 5.375,12.125 5,12 5,11.5"
           id="path30210"
           inkscape:connector-curvature="0" />
        <path
           style="fill:#42433c;fill-opacity:1"
           d="M 6.125,11.375 6,11 6.5,11 7,11 7,11.5 7,12 6.625,11.875 q -0.375,-0.125 -0.5,-0.5"
           id="path30212"
           inkscape:connector-curvature="0" />
        <path
           style="fill:#5e5e51;fill-opacity:1"
           d="M 7,11.5 7,11 7.375,11.125 Q 7.75,11.25 8,11.5 L 8.25,11.75 7.96875,12.03125 7.6875,12.3125 7.75,12.375 7.8125,12.4375 7.6875,12.3125 Q 7.5625,12.1875 7.375,12.125 L 7.1875,12.0625 7.46875,12.15625 7.75,12.25 7.375,12.125 7,12 7,11.5 M 8.3125,11.8125 8.25,11.75 8.0625,11.5625 7.875,11.375 8,11.5 q 0.125,0.125 0.25,0.25 l 0.125,0.125 -0.0625,-0.0625"
           id="path30214"
           inkscape:connector-curvature="0" />
        <path
           style="fill:#848471;fill-opacity:1"
           d="M 8,11.5 7.75,11.25 7.9375,11.4375 8.125,11.625 8,11.5 Q 7.875,11.375 7.71875,11.28125 L 7.5625,11.1875 7.640625,11.234375 7.71875,11.28125 8.03125,11 8.34375,10.71875 8.296875,10.671875 8.25,10.625 8.34375,10.71875 Q 8.4375,10.8125 8.625,10.875 L 8.8125,10.9375 8.53125,10.84375 8.25,10.75 8.625,10.875 9,11 9.125,11.375 9.25,11.75 9.15625,11.46875 9.0625,11.1875 9.125,11.375 q 0.0625,0.1875 0.15625,0.34375 L 9.375,11.875 9.328125,11.796875 9.28125,11.71875 9.015625,11.984375 8.75,12.25 8.5,12 Q 8.25,11.75 8,11.5 M 8.5625,12.0625 8.75,12.25 8.8125,12.3125 8.875,12.375 8.75,12.25 Q 8.625,12.125 8.5,12 l -0.125,-0.125 0.1875,0.1875"
           id="path30216"
           inkscape:connector-curvature="0" />
        <path
           style="fill:#cbcca4;fill-opacity:1"
           d="M 9.125,11.375 9,11 9.5,11 10,11 10.125,11.375 10.25,11.75 10.15625,11.46875 10.0625,11.1875 10.125,11.375 q 0.0625,0.1875 0.1875,0.3125 l 0.125,0.125 L 10.375,11.75 10.3125,11.6875 10.03125,11.96875 9.75,12.25 9.5,12 Q 9.25,11.75 9.125,11.375 M 9.5625,12.0625 9.75,12.25 9.8125,12.3125 9.875,12.375 9.75,12.25 Q 9.625,12.125 9.5,12 l -0.125,-0.125 0.1875,0.1875"
           id="path30218"
           inkscape:connector-curvature="0" />
        <path
           style="fill:#ffffea;fill-opacity:1"
           d="M 10.125,11.375 10,11 l 0.5,0 0.5,0 0,0.5 0,0.5 0,-0.375 0,-0.375 0,0.25 q 0,0.25 0.03125,0.46875 L 11.0625,12.1875 11.046875,12.078125 11.03125,11.96875 10.640625,11.859375 Q 10.25,11.75 10.125,11.375"
           id="path30220"
           inkscape:connector-curvature="0" />
        <path
           style="fill:#f4f4d8;fill-opacity:1"
           d="M 14.875,11.625 14.75,11.25 14.84375,11.53125 14.9375,11.8125 14.875,11.625 Q 14.8125,11.4375 14.71875,11.28125 L 14.625,11.125 14.67187,11.20313 14.71874,11.28126 15,11 15.28125,10.71875 15.203125,10.671875 15.125,10.625 15.28125,10.71875 Q 15.4375,10.8125 15.625,10.875 L 15.8125,10.9375 15.53125,10.84375 15.25,10.75 15.625,10.875 16,11 l 0,0.5 0,0.5 -0.5,0 -0.5,0 -0.125,-0.375"
           id="path30222"
           inkscape:connector-curvature="0" />
        <path
           style="fill:#7c7c6b;fill-opacity:0.88235294"
           d="m 16,11.5 0,-0.5 0.5,0 0.5,0 0,0.5 0,0.5 -0.5,0 -0.5,0 0,-0.5"
           id="path30224"
           inkscape:connector-curvature="0" />
        <path
           style="fill:#0c0c0c;fill-opacity:0.25490196"
           d="m 17,11.5 0,-0.5 0.5,0 0.5,0 0,0.5 0,0.5 -0.5,0 -0.5,0 0,-0.5"
           id="path30226"
           inkscape:connector-curvature="0" />
        <path
           style="fill:#33535a;fill-opacity:0.59215686"
           d="M 4,12.5 4,12 4,12.375 4,12.75 4,12.5 Q 4,12.25 4.03125,12.03125 L 4.0625,11.8125 4.046875,11.921875 4.03125,12.03125 4.515625,12.015625 5,12 4.875,12.375 q -0.125,0.375 -0.5,0.5 L 4,13 4,12.5"
           id="path30228"
           inkscape:connector-curvature="0" />
        <path
           style="fill:#3c5d61;fill-opacity:1"
           d="M 4.875,12.375 5,12 5.375,12.125 Q 5.75,12.25 6,12.5 L 6.25,12.75 5.984375,13.046875 5.71875,13.34375 5.765625,13.390625 5.8125,13.4375 5.71875,13.34375 Q 5.625,13.25 5.5,13.25 l -0.125,0 0.1875,0 0.1875,0 -0.25,0 -0.25,0 0.1875,0 0.1875,0 -0.125,0 q -0.125,0 -0.21875,0.09375 L 5.1875,13.4375 5.234375,13.390625 5.28125,13.34375 4.984375,13.015625 4.6875,12.6875 4.625,12.75 4.5625,12.8125 4.6875,12.6875 Q 4.8125,12.5625 4.875,12.375 L 4.9375,12.1875 4.84375,12.46875 4.75,12.75 4.875,12.375 M 6.3125,12.8125 6.25,12.75 6.0625,12.5625 5.875,12.375 6,12.5 q 0.125,0.125 0.25,0.25 l 0.125,0.125 -0.0625,-0.0625"
           id="path30230"
           inkscape:connector-curvature="0" />
        <path
           style="fill:#3a3d38;fill-opacity:1"
           d="M 6,12.5 5.75,12.25 5.9375,12.4375 6.125,12.625 6,12.5 Q 5.875,12.375 5.71875,12.28125 L 5.5625,12.1875 5.640625,12.234375 5.71875,12.28125 6.015625,11.984375 6.3125,11.6875 6.25,11.625 6.1875,11.5625 l 0.125,0.125 q 0.125,0.125 0.3125,0.1875 L 6.8125,11.9375 6.53125,11.84375 6.25,11.75 6.625,11.875 7,12 7.125,12.375 7.25,12.75 7.15625,12.46875 7.0625,12.1875 7.125,12.375 q 0.0625,0.1875 0.1875,0.3125 l 0.125,0.125 L 7.375,12.75 7.3125,12.6875 7.015625,12.984375 6.71875,13.28125 6.765625,13.359375 6.8125,13.4375 6.71875,13.28125 Q 6.625,13.125 6.5,13 L 6.375,12.875 6.5625,13.0625 6.75,13.25 6.5,13 Q 6.25,12.75 6,12.5"
           id="path30232"
           inkscape:connector-curvature="0" />
        <path
           style="fill:#4e4d43;fill-opacity:1"
           d="M 7.125,12.375 7,12 7.375,12.125 q 0.375,0.125 0.5,0.5 L 8,13 7.625,12.875 q -0.375,-0.125 -0.5,-0.5"
           id="path30234"
           inkscape:connector-curvature="0" />
        <path
           style="fill:#666659;fill-opacity:1"
           d="M 7.875,12.625 7.75,12.25 7.84375,12.53125 7.9375,12.8125 7.875,12.625 Q 7.8125,12.4375 7.6875,12.3125 L 7.5625,12.1875 7.625,12.25 7.6875,12.3125 7.96875,12.03125 8.25,11.75 8.5,12 Q 8.75,12.25 9,12.5 L 9.25,12.75 8.96875,13.03125 8.6875,13.3125 8.75,13.375 8.8125,13.4375 8.6875,13.3125 Q 8.5625,13.1875 8.375,13.125 L 8.1875,13.0625 8.46875,13.15625 8.75,13.25 8.375,13.125 8,13 7.875,12.625 M 9.3125,12.8125 9.25,12.75 9.0625,12.5625 8.875,12.375 9,12.5 q 0.125,0.125 0.25,0.25 L 9.375,12.875 9.3125,12.8125 M 8.4375,11.9375 8.25,11.75 8.1875,11.6875 8.125,11.625 8.25,11.75 Q 8.375,11.875 8.5,12 l 0.125,0.125 -0.1875,-0.1875"
           id="path30236"
           inkscape:connector-curvature="0" />
        <path
           style="fill:#9e9e83;fill-opacity:1"
           d="M 9,12.5 8.75,12.25 9.015625,11.984375 9.28125,11.71875 9.234375,11.640625 9.1875,11.5625 9.28125,11.71875 Q 9.375,11.875 9.5,12 L 9.625,12.125 9.4375,11.9375 9.25,11.75 9.5,12 q 0.25,0.25 0.5,0.5 L 10.25,12.75 10,13 9.75,13.25 9.5,13 Q 9.25,12.75 9,12.5 M 9.5625,13.0625 9.75,13.25 9.8125,13.3125 9.875,13.375 9.75,13.25 Q 9.625,13.125 9.5,13 l -0.125,-0.125 0.1875,0.1875 m 0.75,-0.25 L 10.25,12.75 10.0625,12.5625 9.875,12.375 10,12.5 q 0.125,0.125 0.25,0.25 l 0.125,0.125 -0.0625,-0.0625 M 8.6875,12.1875 8.75,12.25 8.9375,12.4375 9.125,12.625 9,12.5 Q 8.875,12.375 8.75,12.25 l -0.125,-0.125 0.0625,0.0625"
           id="path30238"
           inkscape:connector-curvature="0" />
        <path
           style="fill:#f1f1cd;fill-opacity:1"
           d="M 10,12.5 9.75,12.25 10.03125,11.96875 10.3125,11.6875 10.25,11.625 l -0.0625,-0.0625 0.125,0.125 q 0.125,0.125 0.3125,0.1875 L 10.8125,11.9375 10.53125,11.84375 10.25,11.75 10.640625,11.859375 11.03125,11.96875 11.015625,11.859375 11,11.75 11.03125,11.96875 Q 11.0625,12.1875 11.125,12.375 L 11.1875,12.5625 11.09375,12.28125 11,12 11.125,12.375 11.25,12.75 11.15625,12.46875 11.0625,12.1875 11.125,12.375 q 0.0625,0.1875 0.1875,0.3125 l 0.125,0.125 -0.0625,-0.0625 -0.0625,-0.0625 -0.296875,0.296875 -0.296875,0.296875 0.04687,0.07813 0.04687,0.07813 -0.09375,-0.15625 Q 10.625,13.125 10.5,13 L 10.375,12.875 10.5625,13.0625 10.75,13.25 10.5,13 Q 10.25,12.75 10,12.5 M 9.6875,12.1875 9.75,12.25 9.9375,12.4375 10.125,12.625 10,12.5 Q 9.875,12.375 9.75,12.25 l -0.125,-0.125 0.0625,0.0625"
           id="path30240"
           inkscape:connector-curvature="0" />
        <path
           style="fill:#f1f1d6;fill-opacity:1"
           d="M 14.875,12.375 15,12 l 0.5,0 0.5,0 0,0.5 0,0.5 -0.375,0.125 -0.375,0.125 0.28125,-0.09375 0.28125,-0.09375 -0.1875,0.0625 q -0.1875,0.0625 -0.34375,0.15625 L 15.125,13.375 15.203125,13.328125 15.28125,13.28125 14.984375,12.984375 14.6875,12.6875 14.625,12.75 l -0.0625,0.0625 0.125,-0.125 q 0.125,-0.125 0.1875,-0.3125 L 14.9375,12.1875 14.84375,12.46875 14.75,12.75 14.875,12.375"
           id="path30242"
           inkscape:connector-curvature="0" />
        <path
           style="fill:#646452;fill-opacity:0.96470588"
           d="m 16,12.5 0,-0.5 0.5,0 0.5,0 -0.125,0.375 q -0.125,0.375 -0.5,0.5 L 16,13 16,12.5"
           id="path30244"
           inkscape:connector-curvature="0" />
        <path
           style="fill:#050505;fill-opacity:0.42352941"
           d="M 16.875,12.375 17,12 l 0.5,0 0.5,0 0,0.5 0,0.5 -0.375,0.125 -0.375,0.125 0.28125,-0.09375 0.28125,-0.09375 -0.1875,0.0625 q -0.1875,0.0625 -0.3125,0.1875 l -0.125,0.125 L 17.25,13.375 17.3125,13.3125 17,13 16.6875,12.6875 16.625,12.75 l -0.0625,0.0625 0.125,-0.125 q 0.125,-0.125 0.1875,-0.3125 L 16.9375,12.1875 16.84375,12.46875 16.75,12.75 16.875,12.375"
           id="path30246"
           inkscape:connector-curvature="0" />
        <path
           style="fill:#203840;fill-opacity:0.25098039"
           d="M 4.125,13.375 4,13 4.375,12.875 4.75,12.75 4.46875,12.84375 4.1875,12.9375 4.375,12.875 Q 4.5625,12.8125 4.6875,12.6875 L 4.8125,12.5625 4.75,12.625 4.6875,12.6875 4.984375,13.015625 5.28125,13.34375 5.328125,13.296875 5.375,13.25 5.28125,13.34375 Q 5.1875,13.4375 5.125,13.625 L 5.0625,13.8125 5.15625,13.53125 5.25,13.25 5.140625,13.609375 5.03125,13.96875 5.140625,13.984375 5.25,14 5.03125,13.96875 Q 4.8125,13.9375 4.625,13.875 L 4.4375,13.8125 4.71875,13.90625 5,14 4.625,13.875 q -0.375,-0.125 -0.5,-0.5"
           id="path30248"
           inkscape:connector-curvature="0" />
        <path
           style="fill:#366b78;fill-opacity:0.87843137"
           d="M 5.140625,13.609375 Q 5.25,13.25 5.5,13.25 q 0.25,0 0.375,0.375 L 6,14 5.5,14 5,14 5.375,14 5.75,14 5.5,14 Q 5.25,14 5.03125,13.96875 L 4.8125,13.9375 4.921875,13.95313 5.03125,13.96876 5.140625,13.609385"
           id="path30250"
           inkscape:connector-curvature="0" />
        <path
           style="fill:#3c666d;fill-opacity:1"
           d="M 5.875,13.625 5.75,13.25 5.84375,13.53125 5.9375,13.8125 5.875,13.625 Q 5.8125,13.4375 5.71875,13.34375 L 5.625,13.25 5.671875,13.296875 5.71875,13.34375 5.984375,13.046875 6.25,12.75 6.5,13 q 0.25,0.25 0.375,0.625 L 7,14 6.5,14 6,14 5.875,13.625 M 6.4375,12.9375 6.25,12.75 6.1875,12.6875 6.125,12.625 6.25,12.75 Q 6.375,12.875 6.5,13 l 0.125,0.125 -0.1875,-0.1875"
           id="path30252"
           inkscape:connector-curvature="0" />
        <path
           style="fill:#3c3f39;fill-opacity:1"
           d="M 6.859375,13.640625 6.75,13.25 6.84375,13.53125 6.9375,13.8125 6.875,13.625 Q 6.8125,13.4375 6.71875,13.28125 L 6.625,13.125 6.671875,13.203125 6.71875,13.28125 7.015625,12.984375 7.3125,12.6875 7.25,12.625 7.1875,12.5625 l 0.125,0.125 q 0.125,0.125 0.3125,0.1875 L 7.8125,12.9375 7.53125,12.84375 7.25,12.75 7.625,12.875 8,13 8.125,13.375 8.25,13.75 8.15625,13.46875 8.0625,13.1875 8.125,13.375 q 0.0625,0.1875 0.1875,0.3125 l 0.125,0.125 L 8.375,13.75 8.3125,13.6875 8.015625,13.984375 7.71875,14.28125 7.796875,14.328125 7.875,14.375 7.71875,14.28125 Q 7.5625,14.1875 7.375,14.125 L 7.1875,14.0625 7.46875,14.15625 7.75,14.25 7.375,14.125 7,14 7.28125,14.09375 7.5625,14.1875 7.375,14.125 Q 7.1875,14.0625 6.96875,14.03125 L 6.75,14 6.859375,14.015625 6.96875,14.03125 6.859375,13.640625"
           id="path30254"
           inkscape:connector-curvature="0" />
        <path
           style="fill:#4e4e45;fill-opacity:1"
           d="M 8.125,13.375 8,13 8.375,13.125 q 0.375,0.125 0.5,0.5 L 9,14 8.625,13.875 q -0.375,-0.125 -0.5,-0.5"
           id="path30256"
           inkscape:connector-curvature="0" />
        <path
           style="fill:#68695a;fill-opacity:1"
           d="M 8.875,13.625 8.75,13.25 8.84375,13.53125 8.9375,13.8125 8.875,13.625 Q 8.8125,13.4375 8.6875,13.3125 L 8.5625,13.1875 8.625,13.25 8.6875,13.3125 8.96875,13.03125 9.25,12.75 9.5,13 q 0.25,0.25 0.5,0.5 L 10.25,13.75 10.0625,13.5625 9.875,13.375 10,13.5 q 0.125,0.125 0.28125,0.21875 L 10.4375,13.8125 10.359375,13.765625 10.28125,13.71875 9.984375,14.015625 9.6875,14.3125 9.75,14.375 9.8125,14.4375 9.6875,14.3125 Q 9.5625,14.1875 9.375,14.125 L 9.1875,14.0625 9.46875,14.15625 9.75,14.25 9.375,14.125 9,14 8.875,13.625 M 9.4375,12.9375 9.25,12.75 9.1875,12.6875 9.125,12.625 9.25,12.75 Q 9.375,12.875 9.5,13 l 0.125,0.125 -0.1875,-0.1875"
           id="path30258"
           inkscape:connector-curvature="0" />
        <path
           style="fill:#a1a084;fill-opacity:1"
           d="M 10,13.5 9.75,13.25 10,13 10.25,12.75 10.5,13 q 0.25,0.25 0.390625,0.609375 L 11.03125,13.96875 11.140625,13.98438 11.25,14 11.03125,13.96875 Q 10.8125,13.9375 10.625,13.875 L 10.4375,13.8125 10.71875,13.90625 11,14 10.625,13.875 Q 10.25,13.75 10,13.5 M 10.4375,12.9375 10.25,12.75 10.1875,12.6875 10.125,12.625 10.25,12.75 q 0.125,0.125 0.25,0.25 l 0.125,0.125 -0.1875,-0.1875 m -0.75,0.25 L 9.75,13.25 9.9375,13.4375 10.125,13.625 10,13.5 Q 9.875,13.375 9.75,13.25 l -0.125,-0.125 0.0625,0.0625"
           id="path30260"
           inkscape:connector-curvature="0" />
        <path
           style="fill:#d7d7bb;fill-opacity:1"
           d="M 10.890625,13.609375 10.75,13.25 10.84375,13.53125 10.9375,13.8125 10.875,13.625 Q 10.8125,13.4375 10.71875,13.28125 L 10.625,13.125 l 0.04687,0.07813 0.04687,0.07813 0.296875,-0.296875 L 11.3125,12.6875 11.25,12.625 l -0.0625,-0.0625 0.125,0.125 q 0.125,0.125 0.3125,0.1875 L 11.8125,12.9375 11.53125,12.84375 11.25,12.75 11.625,12.875 12,13 l 0,0.5 0,0.5 -0.5,0 -0.5,0 0.375,0 0.375,0 -0.25,0 q -0.25,0 -0.46875,-0.03125 l -0.21875,-0.03125 0.109375,0.01563 0.109375,0.01563 -0.140625,-0.359375"
           id="path30262"
           inkscape:connector-curvature="0" />
        <path
           style="fill:#ecedda;fill-opacity:1"
           d="m 12,13.5 0,-0.5 0.5,0 0.5,0 0,0.5 0,0.5 -0.5,0 -0.5,0 0,-0.5"
           id="path30264"
           inkscape:connector-curvature="0" />
        <path
           style="fill:#e9e9d7;fill-opacity:1"
           d="m 13,13.5 0,-0.5 0.5,0 0.5,0 0,0.5 0,0.5 -0.5,0 -0.5,0 0,-0.5"
           id="path30266"
           inkscape:connector-curvature="0" />
        <path
           style="fill:#d3d3bd;fill-opacity:1"
           d="M 14,13.5 14,13 14.375,12.875 14.75,12.75 14.46875,12.84375 14.1875,12.9375 14.375,12.875 q 0.1875,-0.0625 0.3125,-0.1875 l 0.125,-0.125 -0.0625,0.0625 -0.0625,0.0625 0.296875,0.296875 0.296875,0.296875 0.07813,-0.04687 0.07813,-0.04687 -0.15625,0.09375 Q 15.125,13.375 15,13.5 L 14.875,13.625 15.0625,13.4375 15.25,13.25 15,13.5 q -0.25,0.25 -0.625,0.375 L 14,14 14,13.5"
           id="path30268"
           inkscape:connector-curvature="0" />
        <path
           style="fill:#95957f;fill-opacity:1"
           d="m 15,13.5 q 0.25,-0.25 0.625,-0.375 L 16,13 15.875,13.375 Q 15.75,13.75 15.5,14 l -0.25,0.25 -0.265625,-0.265625 -0.265625,-0.265625 -0.07813,0.04687 -0.07813,0.04687 0.15625,-0.09375 Q 14.875,13.625 15,13.5 L 15.125,13.375 14.9375,13.5625 14.75,13.75 15,13.5 M 15.1875,14.3125 15.25,14.25 15.4375,14.0625 15.625,13.875 15.5,14 q -0.125,0.125 -0.25,0.25 l -0.125,0.125 0.0625,-0.0625"
           id="path30270"
           inkscape:connector-curvature="0" />
        <path
           style="fill:#191914;fill-opacity:0.83137255"
           d="M 15.875,13.375 16,13 16.375,12.875 16.75,12.75 16.46875,12.84375 16.1875,12.9375 16.375,12.875 q 0.1875,-0.0625 0.3125,-0.1875 l 0.125,-0.125 L 16.75,12.625 16.6875,12.6875 17,13 l 0.3125,0.3125 0.0625,-0.0625 0.0625,-0.0625 -0.125,0.125 q -0.125,0.125 -0.1875,0.3125 L 17.0625,13.8125 17.15625,13.53125 17.25,13.25 17.125,13.625 17,14 16.625,14.125 16.25,14.25 16.53125,14.15625 16.8125,14.0625 16.625,14.125 q -0.1875,0.0625 -0.3125,0.1875 l -0.125,0.125 L 16.25,14.375 16.3125,14.3125 16.015625,14.015625 15.71875,13.71875 15.671875,13.796875 15.625,13.875 15.71875,13.71875 Q 15.8125,13.5625 15.875,13.375 L 15.9375,13.1875 15.84375,13.46875 15.75,13.75 15.875,13.375"
           id="path30272"
           inkscape:connector-curvature="0" />
        <path
           style="fill:#000000;fill-opacity:0.28627451"
           d="m 17.125,13.625 q 0.125,-0.375 0.5,-0.5 L 18,13 l 0,0.5 0,0.5 -0.5,0 -0.5,0 0.125,-0.375"
           id="path30274"
           inkscape:connector-curvature="0" />
        <path
           style="fill:#091212;fill-opacity:0.3254902"
           d="M 5,14.5 5,14 5.5,14 6,14 6.125,14.375 6.25,14.75 6.15625,14.46875 6.0625,14.1875 6.125,14.375 q 0.0625,0.1875 0.15625,0.34375 L 6.375,14.875 6.328125,14.796875 6.28125,14.71875 5.96875,15 5.65625,15.28125 5.703125,15.328125 5.75,15.375 5.65625,15.28125 Q 5.5625,15.1875 5.375,15.125 L 5.1875,15.0625 5.46875,15.15625 5.75,15.25 5.375,15.125 Q 5,15 5,14.5 M 6.125,14 6,14 5.625,14 5.25,14 5.5,14 q 0.25,0 0.5,0 l 0.25,0 -0.125,0"
           id="path30276"
           inkscape:connector-curvature="0" />
        <path
           style="fill:#2f4f56;fill-opacity:0.96862745"
           d="M 6.125,14.375 6,14 6.5,14 7,14 7.125,14.375 7.25,14.75 7.15625,14.46875 7.0625,14.1875 7.125,14.375 q 0.0625,0.1875 0.15625,0.34375 L 7.375,14.875 7.328125,14.796875 7.28125,14.71875 7,15 6.71875,15.28125 6.765625,15.359375 6.8125,15.4375 6.71875,15.28125 Q 6.625,15.125 6.5,15 L 6.375,14.875 6.5625,15.0625 6.75,15.25 6.5,15 Q 6.25,14.75 6.125,14.375"
           id="path30278"
           inkscape:connector-curvature="0" />
        <path
           style="fill:#364b4b;fill-opacity:1"
           d="M 7.125,14.375 7,14 7.375,14.125 Q 7.75,14.25 8,14.5 L 8.25,14.75 8,15 7.75,15.25 7.5,15 Q 7.25,14.75 7.125,14.375 M 7.5625,15.0625 7.75,15.25 7.8125,15.3125 7.875,15.375 7.75,15.25 Q 7.625,15.125 7.5,15 l -0.125,-0.125 0.1875,0.1875 m 0.75,-0.25 L 8.25,14.75 8.0625,14.5625 7.875,14.375 8,14.5 q 0.125,0.125 0.25,0.25 l 0.125,0.125 -0.0625,-0.0625"
           id="path30280"
           inkscape:connector-curvature="0" />
        <path
           style="fill:#3b3f3a;fill-opacity:1"
           d="M 8,14.5 7.75,14.25 7.9375,14.4375 8.125,14.625 8,14.5 Q 7.875,14.375 7.71875,14.28125 L 7.5625,14.1875 7.640625,14.234375 7.71875,14.28125 8.015625,13.984375 8.3125,13.6875 8.25,13.625 8.1875,13.5625 l 0.125,0.125 q 0.125,0.125 0.3125,0.1875 L 8.8125,13.9375 8.53125,13.84375 8.25,13.75 8.625,13.875 9,14 9.125,14.375 9.25,14.75 9.15625,14.46875 9.0625,14.1875 9.125,14.375 q 0.0625,0.1875 0.1875,0.3125 l 0.125,0.125 L 9.375,14.75 9.3125,14.6875 9.015625,14.984375 8.71875,15.28125 8.765625,15.359375 8.8125,15.4375 8.71875,15.28125 Q 8.625,15.125 8.5,15 L 8.375,14.875 8.5625,15.0625 8.75,15.25 8.5,15 Q 8.25,14.75 8,14.5"
           id="path30282"
           inkscape:connector-curvature="0" />
        <path
           style="fill:#494a44;fill-opacity:1"
           d="M 9.125,14.375 9,14 9.375,14.125 q 0.375,0.125 0.5,0.5 L 10,15 9.625,14.875 q -0.375,-0.125 -0.5,-0.5"
           id="path30284"
           inkscape:connector-curvature="0" />
        <path
           style="fill:#55554d;fill-opacity:1"
           d="M 9.875,14.625 9.75,14.25 9.84375,14.53125 9.9375,14.8125 9.875,14.625 Q 9.8125,14.4375 9.6875,14.3125 L 9.5625,14.1875 9.625,14.25 9.6875,14.3125 9.984375,14.015625 10.28125,13.71875 10.203125,13.671875 10.125,13.625 10.28125,13.71875 Q 10.4375,13.8125 10.625,13.875 L 10.8125,13.9375 10.53125,13.84375 10.25,13.75 10.625,13.875 11,14 11,14.5 11,15 10.5,15 10,15 9.875,14.625"
           id="path30286"
           inkscape:connector-curvature="0" />
        <path
           style="fill:#656556;fill-opacity:1"
           d="m 11,14.5 0,-0.5 0.5,0 0.5,0 0,0.5 0,0.5 -0.5,0 -0.5,0 0,-0.5"
           id="path30288"
           inkscape:connector-curvature="0" />
        <path
           style="fill:#737360;fill-opacity:1"
           d="m 12,14.5 0,-0.5 0.5,0 0.5,0 0,0.5 0,0.5 -0.5,0 -0.5,0 0,-0.5"
           id="path30290"
           inkscape:connector-curvature="0" />
        <path
           style="fill:#747462;fill-opacity:1"
           d="m 13,14.5 0,-0.5 0.5,0 0.5,0 -0.125,0.375 q -0.125,0.375 -0.5,0.5 L 13,15 13,14.5"
           id="path30292"
           inkscape:connector-curvature="0" />
        <path
           style="fill:#686859;fill-opacity:1"
           d="M 13.875,14.375 14,14 14.375,13.875 14.75,13.75 14.46875,13.84375 14.1875,13.9375 14.375,13.875 q 0.1875,-0.0625 0.34375,-0.15625 L 14.875,13.625 14.79687,13.67187 14.71874,13.71874 14.984365,13.984365 15.25,14.25 15,14.5 Q 14.75,14.75 14.5,15 L 14.25,15.25 14.4375,15.0625 14.625,14.875 14.5,15 q -0.125,0.125 -0.21875,0.28125 L 14.1875,15.4375 14.23437,15.35937 14.28124,15.28124 13.984375,14.984375 13.6875,14.6875 13.625,14.75 l -0.0625,0.0625 0.125,-0.125 q 0.125,-0.125 0.1875,-0.3125 L 13.9375,14.1875 13.84375,14.46875 13.75,14.75 13.875,14.375 M 15.0625,14.4375 15.25,14.25 15.3125,14.1875 15.375,14.125 15.25,14.25 Q 15.125,14.375 15,14.5 l -0.125,0.125 0.1875,-0.1875"
           id="path30294"
           inkscape:connector-curvature="0" />
        <path
           style="fill:#20201c;fill-opacity:0.9254902"
           d="M 15,14.5 Q 15.25,14.25 15.5,14 L 15.75,13.75 15.5625,13.9375 15.375,14.125 15.5,14 q 0.125,-0.125 0.21875,-0.28125 l 0.09375,-0.15625 -0.04687,0.07813 -0.04687,0.07813 0.296875,0.296875 0.296875,0.296875 0.0625,-0.0625 0.0625,-0.0625 -0.125,0.125 q -0.125,0.125 -0.1875,0.3125 L 16.0625,14.8125 16.15625,14.53125 16.25,14.25 16.125,14.625 16,15 15.625,15.125 15.25,15.25 15.53125,15.15625 15.8125,15.0625 15.625,15.125 q -0.1875,0.0625 -0.3125,0.1875 l -0.125,0.125 L 15.25,15.375 15.3125,15.3125 15.03125,15.03125 14.75,14.75 15,14.5 M 14.9375,14.5625 14.75,14.75 14.6875,14.8125 14.625,14.875 14.75,14.75 Q 14.875,14.625 15,14.5 l 0.125,-0.125 -0.1875,0.1875"
           id="path30296"
           inkscape:connector-curvature="0" />
        <path
           style="fill:#000000;fill-opacity:0.40392157"
           d="m 16.125,14.625 q 0.125,-0.375 0.5,-0.5 L 17,14 l 0,0.5 0,0.5 -0.5,0 -0.5,0 0.125,-0.375"
           id="path30298"
           inkscape:connector-curvature="0" />
        <path
           style="fill:#000000;fill-opacity:0.03137255"
           d="m 17,14.5 0,-0.5 0.5,0 0.5,0 0,0.5 Q 18,15 17.5,15 l -0.5,0 0,-0.5"
           id="path30300"
           inkscape:connector-curvature="0" />
        <path
           style="fill:#0a0f12;fill-opacity:0.39607843"
           d="m 5.75,15.5 0,-0.25 0,0.1875 0,0.1875 0,-0.125 q 0,-0.125 -0.09375,-0.21875 L 5.5625,15.1875 5.609375,15.234375 5.65625,15.28125 5.96875,15 6.28125,14.71875 6.234375,14.640625 6.1875,14.5625 6.28125,14.71875 Q 6.375,14.875 6.5,15 L 6.625,15.125 6.4375,14.9375 6.25,14.75 6.5,15 q 0.25,0.25 0.375,0.625 L 7,16 6.625,16.125 6.25,16.25 6.53125,16.15625 6.8125,16.0625 6.625,16.125 Q 6.4375,16.1875 6.34375,16.28125 L 6.25,16.375 6.296875,16.328125 6.34375,16.28125 6.046875,16.015625 Q 5.75,15.75 5.75,15.5"
           id="path30302"
           inkscape:connector-curvature="0" />
        <path
           style="fill:#34575b;fill-opacity:0.96078431"
           d="M 6.875,15.625 6.75,15.25 6.84375,15.53125 6.9375,15.8125 6.875,15.625 Q 6.8125,15.4375 6.71875,15.28125 L 6.625,15.125 6.671875,15.203125 6.71875,15.28125 7,15 7.28125,14.71875 7.234375,14.640625 7.1875,14.5625 7.28125,14.71875 Q 7.375,14.875 7.5,15 L 7.625,15.125 7.4375,14.9375 7.25,14.75 7.5,15 Q 7.75,15.25 8,15.5 L 8.25,15.75 8.0625,15.5625 7.875,15.375 8,15.5 q 0.125,0.125 0.28125,0.21875 L 8.4375,15.8125 8.359375,15.765625 8.28125,15.71875 7.984375,16.015625 7.6875,16.3125 7.75,16.375 7.8125,16.4375 7.6875,16.3125 Q 7.5625,16.1875 7.375,16.125 L 7.1875,16.0625 7.46875,16.15625 7.75,16.25 7.375,16.125 7,16 6.875,15.625"
           id="path30304"
           inkscape:connector-curvature="0" />
        <path
           style="fill:#334345;fill-opacity:1"
           d="M 8,15.5 7.75,15.25 8,15 8.25,14.75 8.5,15 q 0.25,0.25 0.375,0.625 L 9,16 8.90625,15.71875 8.8125,15.4375 8.875,15.625 Q 8.9375,15.8125 8.9375,16 l 0,0.1875 0,-0.09375 L 8.9375,16 8.59375,15.875 Q 8.25,15.75 8,15.5 M 8.4375,14.9375 8.25,14.75 8.1875,14.6875 8.125,14.625 8.25,14.75 Q 8.375,14.875 8.5,15 l 0.125,0.125 -0.1875,-0.1875 m -0.75,0.25 L 7.75,15.25 7.9375,15.4375 8.125,15.625 8,15.5 Q 7.875,15.375 7.75,15.25 l -0.125,-0.125 0.0625,0.0625"
           id="path30306"
           inkscape:connector-curvature="0" />
        <path
           style="fill:#3d413d;fill-opacity:1"
           d="M 8.875,15.625 8.75,15.25 8.84375,15.53125 8.9375,15.8125 8.875,15.625 Q 8.8125,15.4375 8.71875,15.28125 L 8.625,15.125 8.671875,15.203125 8.71875,15.28125 9.015625,14.984375 9.3125,14.6875 9.25,14.625 9.1875,14.5625 l 0.125,0.125 q 0.125,0.125 0.3125,0.1875 L 9.8125,14.9375 9.53125,14.84375 9.25,14.75 9.625,14.875 10,15 10,15.5 10,16 9.5,16 9,16 8.875,15.625"
           id="path30308"
           inkscape:connector-curvature="0" />
        <path
           style="fill:#474a44;fill-opacity:1"
           d="m 10,15.5 0,-0.5 0.5,0 0.5,0 0,0.5 0,0.5 -0.5,0 -0.5,0 0,-0.5"
           id="path30310"
           inkscape:connector-curvature="0" />
        <path
           style="fill:#4d4d45;fill-opacity:1"
           d="m 11,15.5 0,-0.5 0.5,0 0.5,0 -0.125,0.375 q -0.125,0.375 -0.5,0.5 L 11,16 11,15.5"
           id="path30312"
           inkscape:connector-curvature="0" />
        <path
           style="fill:#54544b;fill-opacity:1"
           d="M 11.875,15.375 12,15 l 0.5,0 0.5,0 0,0.5 0,0.5 -0.375,0.125 -0.375,0.125 0.28125,-0.09375 0.28125,-0.09375 -0.1875,0.0625 q -0.1875,0.0625 -0.3125,0.1875 l -0.125,0.125 L 12.25,16.375 12.3125,16.3125 12,16 11.6875,15.6875 11.625,15.75 l -0.0625,0.0625 0.125,-0.125 q 0.125,-0.125 0.1875,-0.3125 L 11.9375,15.1875 11.84375,15.46875 11.75,15.75 11.875,15.375"
           id="path30314"
           inkscape:connector-curvature="0" />
        <path
           style="fill:#65655a;fill-opacity:1"
           d="M 13,15.5 13,15 13.375,14.875 13.75,14.75 13.46875,14.84375 13.1875,14.9375 13.375,14.875 q 0.1875,-0.0625 0.3125,-0.1875 l 0.125,-0.125 -0.0625,0.0625 -0.0625,0.0625 0.296875,0.296875 0.296875,0.296875 0.04687,-0.07813 L 14.375,15.125 14.28125,15.28125 Q 14.1875,15.4375 14.125,15.625 L 14.0625,15.8125 14.15625,15.53125 14.25,15.25 14.125,15.625 14,16 13.5,16 13,16 13,15.5"
           id="path30316"
           inkscape:connector-curvature="0" />
        <path
           style="fill:#292926;fill-opacity:0.93333333"
           d="M 14.125,15.625 Q 14.25,15.25 14.5,15 l 0.25,-0.25 0.28125,0.28125 0.28125,0.28125 0.0625,-0.0625 0.0625,-0.0625 -0.125,0.125 q -0.125,0.125 -0.1875,0.3125 L 15.0625,15.8125 15.15625,15.53125 15.25,15.25 15.125,15.625 15,16 14.5,16 14,16 14.125,15.625 M 14.8125,14.6875 14.75,14.75 14.5625,14.9375 14.375,15.125 14.5,15 q 0.125,-0.125 0.25,-0.25 l 0.125,-0.125 -0.0625,0.0625"
           id="path30318"
           inkscape:connector-curvature="0" />
        <path
           style="fill:#000000;fill-opacity:0.45098039"
           d="m 15.125,15.625 q 0.125,-0.375 0.5,-0.5 L 16,15 l 0,0.5 0,0.5 -0.5,0 -0.5,0 0.125,-0.375"
           id="path30320"
           inkscape:connector-curvature="0" />
        <path
           style="fill:#000000;fill-opacity:0.01176471"
           d="m 16,15.5 0,-0.5 0.5,0 0.5,0 0,0.5 Q 17,16 16.5,16 l -0.5,0 0,-0.5"
           id="path30322"
           inkscape:connector-curvature="0" />
        <path
           style="fill:#000f0f;fill-opacity:0.06666667"
           d="m 6.25,16.5 q 0,-0.25 0.375,-0.375 L 7,16 7,16.5 7,17 6.625,16.875 Q 6.25,16.75 6.25,16.5"
           id="path30324"
           inkscape:connector-curvature="0" />
        <path
           style="fill:#3c6976;fill-opacity:0.8627451"
           d="M 7,16.5 7,16 7.375,16.125 Q 7.75,16.25 7.859375,16.609375 L 7.96875,16.96875 8.078125,16.953125 8.1875,16.9375 7.96875,16.96875 Q 7.75,17 7.5,17 L 7.25,17 7.625,17 8,17 7.5,17 7,17 7,16.5 M 7,16.625 7,17 7,17.125 7,17.25 7,17 q 0,-0.25 0,-0.5 l 0,-0.25 0,0.375"
           id="path30326"
           inkscape:connector-curvature="0" />
        <path
           style="fill:#38585d;fill-opacity:1"
           d="M 7.859375,16.609375 7.75,16.25 7.84375,16.53125 7.9375,16.8125 7.875,16.625 Q 7.8125,16.4375 7.6875,16.3125 L 7.5625,16.1875 7.625,16.25 7.6875,16.3125 7.984375,16.015625 8.28125,15.71875 8.203125,15.671875 8.125,15.625 8.28125,15.71875 Q 8.4375,15.8125 8.625,15.875 L 8.8125,15.9375 8.53125,15.84375 8.25,15.75 8.59375,15.875 8.9375,16 l 0,-0.09375 0,-0.09375 0,0.1875 q 0,0.1875 -0.0625,0.375 L 8.8125,16.5625 8.90625,16.28125 9,16 8.875,16.375 q -0.125,0.375 -0.5,0.5 L 8,17 8.28125,16.90625 8.5625,16.8125 8.375,16.875 Q 8.1875,16.9375 7.96875,16.96875 L 7.75,17 7.859375,16.984375 7.96875,16.96875 7.859375,16.609375"
           id="path30328"
           inkscape:connector-curvature="0" />
        <path
           style="fill:#3d3d37;fill-opacity:1"
           d="M 8.875,16.375 9,16 9.5,16 10,16 9.875,16.375 Q 9.75,16.75 9.5,17 L 9.25,17.25 9.4375,17.0625 9.625,16.875 9.5,17 Q 9.375,17.125 9.3125,17.25 L 9.25,17.375 9.28125,17.3125 9.3125,17.25 9,16.96875 8.6875,16.6875 8.625,16.75 8.5625,16.8125 8.6875,16.6875 Q 8.8125,16.5625 8.875,16.375 L 8.9375,16.1875 8.84375,16.46875 8.75,16.75 8.875,16.375"
           id="path30330"
           inkscape:connector-curvature="0" />
        <path
           style="fill:#515248;fill-opacity:1"
           d="M 9.875,16.375 10,16 l 0.5,0 0.5,0 0,0.5 0,0.5 -0.375,0.125 -0.375,0.125 0.28125,-0.09375 0.28125,-0.09375 -0.1875,0.0625 q -0.1875,0.0625 -0.3125,0.1875 l -0.125,0.125 L 10.25,17.375 10.3125,17.3125 10.015625,17.015625 9.71875,16.71875 9.671875,16.796875 9.625,16.875 9.71875,16.71875 Q 9.8125,16.5625 9.875,16.375 L 9.9375,16.1875 9.84375,16.46875 9.75,16.75 9.875,16.375"
           id="path30332"
           inkscape:connector-curvature="0" />
        <path
           style="fill:#757461;fill-opacity:1"
           d="M 11,16.5 11,16 11.375,15.875 11.75,15.75 11.46875,15.84375 11.1875,15.9375 11.375,15.875 q 0.1875,-0.0625 0.3125,-0.1875 l 0.125,-0.125 L 11.75,15.625 11.6875,15.6875 12,16 l 0.3125,0.3125 0.0625,-0.0625 0.0625,-0.0625 -0.125,0.125 q -0.125,0.125 -0.1875,0.3125 L 12.0625,16.8125 12.15625,16.53125 12.25,16.25 12.125,16.625 12,17 11.5,17 11,17 11,16.5"
           id="path30334"
           inkscape:connector-curvature="0" />
        <path
           style="fill:#96967c;fill-opacity:1"
           d="m 12.125,16.625 q 0.125,-0.375 0.5,-0.5 L 13,16 l 0,0.5 0,0.5 -0.5,0 -0.5,0 0.125,-0.375"
           id="path30336"
           inkscape:connector-curvature="0" />
        <path
           style="fill:#90907c;fill-opacity:1"
           d="m 13,16.5 0,-0.5 0.5,0 0.5,0 0,0.5 0,0.5 -0.5,0 -0.5,0 0,-0.5 m 1,0.625 0,-0.125 0,-0.375 0,-0.375 0,0.25 q 0,0.25 0,0.5 l 0,0.25 0,-0.125"
           id="path30338"
           inkscape:connector-curvature="0" />
        <path
           style="fill:#262621;fill-opacity:0.66666667"
           d="m 14,16.5 0,-0.5 0.5,0 0.5,0 0.125,0.375 0.125,0.375 -0.09375,-0.28125 -0.09375,-0.28125 0.0625,0.1875 q 0.0625,0.1875 0.1875,0.3125 l 0.125,0.125 L 15.375,16.75 15.3125,16.6875 14.984375,16.984375 14.65625,17.28125 14.70312,17.32812 14.75,17.375 14.65625,17.28125 Q 14.5625,17.1875 14.375,17.125 L 14.1875,17.0625 14.46875,17.15625 14.75,17.25 14.375,17.125 14,17 14,16.5 m 0,0.125 0,0.375 0,0.125 0,0.125 0,-0.25 q 0,-0.25 0,-0.5 l 0,-0.25 0,0.375"
           id="path30340"
           inkscape:connector-curvature="0" />
        <path
           style="fill:#000000;fill-opacity:0.01568627"
           d="M 15.125,16.375 15,16 l 0.5,0 0.5,0 0,0.5 q 0,0.5 -0.375,0.375 -0.375,-0.125 -0.5,-0.5"
           id="path30342"
           inkscape:connector-curvature="0" />
        <path
           style="fill:#101a1f;fill-opacity:0.19215686"
           d="M 5.875,17.625 Q 5.75,17.25 6.046875,16.984375 L 6.34375,16.71875 6.296875,16.671875 6.25,16.625 6.34375,16.71875 Q 6.4375,16.8125 6.625,16.875 L 6.8125,16.9375 6.53125,16.84375 6.25,16.75 6.625,16.875 7,17 7,17.5 7,18 6.5,18 6,18 5.875,17.625"
           id="path30344"
           inkscape:connector-curvature="0" />
        <path
           style="fill:#435251;fill-opacity:0.96470588"
           d="M 7,17.5 7,17 7.5,17 8,17 8.125,17.375 8.25,17.75 8.15625,17.46875 8.0625,17.1875 8.125,17.375 q 0.0625,0.1875 0.15625,0.34375 L 8.375,17.875 8.328125,17.796875 8.28125,17.71875 7.984375,18.015625 7.6875,18.3125 7.75,18.375 7.8125,18.4375 7.6875,18.3125 Q 7.5625,18.1875 7.375,18.125 L 7.1875,18.0625 7.46875,18.15625 7.75,18.25 7.390625,18.109375 7.03125,17.96875 7.046875,18.078125 7.0625,18.1875 7.03125,17.96875 Q 7,17.75 7,17.5 L 7,17.25 7,17.625 7,18 7,17.5 M 7,16.875 7,17 7,17.375 7,17.75 7,17.5 Q 7,17.25 7,17 l 0,-0.25 0,0.125"
           id="path30346"
           inkscape:connector-curvature="0" />
        <path
           style="fill:#50564e;fill-opacity:1"
           d="M 8.125,17.375 8,17 8.375,16.875 8.75,16.75 8.46875,16.84375 8.1875,16.9375 8.375,16.875 Q 8.5625,16.8125 8.6875,16.6875 L 8.8125,16.5625 8.75,16.625 8.6875,16.6875 9,16.96875 9.3125,17.25 9.34375,17.1875 9.375,17.125 9.3125,17.25 Q 9.25,17.375 9.25,17.5 l 0,0.125 0,-0.1875 0,-0.1875 0,0.25 0,0.25 0,-0.1875 0,-0.1875 0,0.125 q 0,0.125 0.09375,0.21875 L 9.4375,17.8125 9.390625,17.765625 9.34375,17.71875 9.046875,17.984375 8.75,18.25 8.5,18 Q 8.25,17.75 8.125,17.375 M 8.5625,18.0625 8.75,18.25 8.8125,18.3125 8.875,18.375 8.75,18.25 Q 8.625,18.125 8.5,18 l -0.125,-0.125 0.1875,0.1875"
           id="path30348"
           inkscape:connector-curvature="0" />
        <path
           style="fill:#777663;fill-opacity:1"
           d="M 9.25,17.5 Q 9.25,17.25 9.5,17 L 9.75,16.75 9.5625,16.9375 9.375,17.125 9.5,17 Q 9.625,16.875 9.71875,16.71875 L 9.8125,16.5625 9.765625,16.640625 9.71875,16.71875 10.015625,17.015625 10.3125,17.3125 10.375,17.25 l 0.0625,-0.0625 -0.125,0.125 q -0.125,0.125 -0.1875,0.3125 L 10.0625,17.8125 10.15625,17.53125 10.25,17.25 10.125,17.625 10,18 9.625,17.875 Q 9.25,17.75 9.25,17.5"
           id="path30350"
           inkscape:connector-curvature="0" />
        <path
           style="fill:#b2b29a;fill-opacity:1"
           d="m 10.125,17.625 q 0.125,-0.375 0.5,-0.5 L 11,17 10.71875,17.09375 10.4375,17.1875 10.625,17.125 q 0.1875,-0.0625 0.40625,-0.09375 L 11.25,17 11.140625,17.01563 11.03125,17.03126 10.890625,17.390635 Q 10.75,17.75 10.375,17.875 L 10,18 10.125,17.625"
           id="path30352"
           inkscape:connector-curvature="0" />
        <path
           style="fill:#e6e5d1;fill-opacity:1"
           d="M 10.890625,17.390625 11.03125,17.03125 10.921875,17.046875 10.8125,17.0625 11.03125,17.03125 Q 11.25,17 11.5,17 l 0.25,0 -0.375,0 -0.375,0 0.5,0 0.5,0 0,0.5 0,0.5 -0.375,0.125 -0.375,0.125 0.28125,-0.09375 0.28125,-0.09375 -0.1875,0.0625 q -0.1875,0.0625 -0.3125,0.1875 l -0.125,0.125 L 11.25,18.375 11.3125,18.3125 11,18 10.6875,17.6875 10.625,17.75 l -0.0625,0.0625 0.125,-0.125 q 0.125,-0.125 0.1875,-0.3125 L 10.9375,17.1875 10.84375,17.46875 10.75,17.75 10.890625,17.390625"
           id="path30354"
           inkscape:connector-curvature="0" />
        <path
           style="fill:#fdfde9;fill-opacity:1"
           d="m 12,17.5 0,-0.5 0.5,0 0.5,0 0,0.5 0,0.5 -0.5,0 -0.5,0 0,-0.5"
           id="path30356"
           inkscape:connector-curvature="0" />
        <path
           style="fill:#ebebd3;fill-opacity:1"
           d="m 13,17.5 0,-0.5 0.5,0 0.5,0 0,0.5 0,0.5 0,-0.375 0,-0.375 0,0.25 q 0,0.25 -0.03125,0.46875 L 13.9375,18.1875 13.95313,18.078125 13.96876,17.96875 13.484385,17.98438 13,18 13,17.5 M 14,17.375 14,17 14,16.875 14,16.75 14,17 q 0,0.25 0,0.5 l 0,0.25 0,-0.375"
           id="path30358"
           inkscape:connector-curvature="0" />
        <path
           style="fill:#4a4a40;fill-opacity:0.65882353"
           d="m 14,17.5 0,-0.5 0.375,0.125 q 0.375,0.125 0.375,0.375 0,0.25 -0.390625,0.359375 L 13.96875,17.96875 13.953125,18.078125 13.9375,18.1875 13.96875,17.96875 Q 14,17.75 14,17.5 l 0,-0.25 0,0.375 0,0.375 0,-0.5 m 0,-0.625 0,0.125 0,0.375 0,0.375 0,-0.25 q 0,-0.25 0,-0.5 l 0,-0.25 0,0.125"
           id="path30360"
           inkscape:connector-curvature="0" />
        <path
           style="fill:#000d0d;fill-opacity:0.07843137"
           d="M 6,18.5 6,18 6.5,18 7,18 7.125,18.375 7.25,18.75 7.15625,18.46875 7.0625,18.1875 7.125,18.375 q 0.0625,0.1875 0.1875,0.3125 l 0.125,0.125 L 7.375,18.75 7.3125,18.6875 7,19 6.6875,19.3125 6.75,19.375 6.8125,19.4375 6.6875,19.3125 Q 6.5625,19.1875 6.375,19.125 L 6.1875,19.0625 6.46875,19.15625 6.75,19.25 6.375,19.125 Q 6,19 6,18.5"
           id="path30362"
           inkscape:connector-curvature="0" />
        <path
           style="fill:#2d515a;fill-opacity:0.83137255"
           d="M 7.125,18.375 7,18 7.09375,18.28125 7.1875,18.5625 7.125,18.375 Q 7.0625,18.1875 7.03125,17.96875 L 7,17.75 7.015625,17.859375 7.03125,17.96875 7.390625,18.109375 Q 7.75,18.25 7.875,18.625 L 8,19 7.625,18.875 Q 7.25,18.75 7.125,18.375 M 7.71875,18.90625 8,19 8.09375,19.03125 8.1875,19.0625 8,19 Q 7.8125,18.9375 7.625,18.875 l -0.1875,-0.0625 0.28125,0.09375"
           id="path30364"
           inkscape:connector-curvature="0" />
        <path
           style="fill:#3e4541;fill-opacity:1"
           d="M 7.875,18.625 7.75,18.25 7.84375,18.53125 7.9375,18.8125 7.875,18.625 Q 7.8125,18.4375 7.6875,18.3125 L 7.5625,18.1875 7.625,18.25 7.6875,18.3125 7.984375,18.015625 8.28125,17.71875 8.234375,17.640625 8.1875,17.5625 8.28125,17.71875 Q 8.375,17.875 8.5,18 L 8.625,18.125 8.4375,17.9375 8.25,17.75 8.5,18 Q 8.75,18.25 9,18.5 L 9.25,18.75 9.0625,18.5625 8.875,18.375 9,18.5 q 0.125,0.125 0.28125,0.21875 L 9.4375,18.8125 9.359375,18.765625 9.28125,18.71875 8.984375,19.015625 8.6875,19.3125 8.75,19.375 8.8125,19.4375 8.6875,19.3125 Q 8.5625,19.1875 8.375,19.125 L 8.1875,19.0625 8.46875,19.15625 8.75,19.25 8.375,19.125 8,19 7.875,18.625 M 7.90625,18.96875 8,19 8.28125,19.09375 8.5625,19.1875 8.375,19.125 Q 8.1875,19.0625 8,19 l -0.1875,-0.0625 0.09375,0.03125"
           id="path30366"
           inkscape:connector-curvature="0" />
        <path
           style="fill:#6b695a;fill-opacity:1"
           d="M 9,18.5 8.75,18.25 9.046875,17.984375 9.34375,17.71875 9.296875,17.671875 9.25,17.625 9.34375,17.71875 Q 9.4375,17.8125 9.625,17.875 L 9.8125,17.9375 9.53125,17.84375 9.25,17.75 9.625,17.875 10,18 l 0.01563,0.484375 0.01563,0.484375 0.109375,0.01563 L 10.25,19 10.03125,18.96875 Q 9.8125,18.9375 9.625,18.875 L 9.4375,18.8125 9.71875,18.90625 10,19 9.625,18.875 Q 9.25,18.75 9,18.5 M 8.6875,18.1875 8.75,18.25 8.9375,18.4375 9.125,18.625 9,18.5 Q 8.875,18.375 8.75,18.25 l -0.125,-0.125 0.0625,0.0625"
           id="path30368"
           inkscape:connector-curvature="0" />
        <path
           style="fill:#c3c3a7;fill-opacity:1"
           d="M 10.015625,18.484375 10,18 10.375,17.875 10.75,17.75 10.46875,17.84375 10.1875,17.9375 10.375,17.875 q 0.1875,-0.0625 0.3125,-0.1875 l 0.125,-0.125 L 10.75,17.625 10.6875,17.6875 11,18 l 0.3125,0.3125 0.0625,-0.0625 0.0625,-0.0625 -0.125,0.125 q -0.125,0.125 -0.1875,0.3125 L 11.0625,18.8125 11.15625,18.53125 11.25,18.25 11.125,18.625 11,19 l -0.5,0 -0.5,0 0.375,0 0.375,0 -0.25,0 q -0.25,0 -0.46875,-0.03125 L 9.8125,18.9375 9.921875,18.95313 10.03125,18.96876 10.01562,18.484385 M 10.625,19 11,19 11.125,19 11.25,19 11,19 q -0.25,0 -0.5,0 l -0.25,0 0.375,0"
           id="path30370"
           inkscape:connector-curvature="0" />
        <path
           style="fill:#f4f3e8;fill-opacity:1"
           d="m 11.125,18.625 q 0.125,-0.375 0.5,-0.5 L 12,18 l 0,0.5 0,0.5 -0.5,0 -0.5,0 0.125,-0.375 M 10.875,19 11,19 l 0.375,0 0.375,0 -0.25,0 q -0.25,0 -0.5,0 l -0.25,0 0.125,0"
           id="path30372"
           inkscape:connector-curvature="0" />
        <path
           style="fill:#eaebe3;fill-opacity:1"
           d="m 12,18.5 0,-0.5 0.5,0 0.5,0 -0.01563,0.484375 -0.01563,0.484375 0.109375,-0.01563 0.109375,-0.01563 -0.21875,0.03125 Q 12.75,19 12.5,19 l -0.25,0 0.375,0 0.375,0 -0.5,0 -0.5,0 0,-0.5"
           id="path30374"
           inkscape:connector-curvature="0" />
        <path
           style="fill:#acad9e;fill-opacity:1"
           d="M 12.984375,18.484375 13,18 13.484375,17.984375 13.96875,17.96875 13.984375,17.859375 14,17.75 13.96875,17.96875 Q 13.9375,18.1875 13.875,18.375 L 13.8125,18.5625 13.90625,18.28125 14,18 13.875,18.375 q -0.125,0.375 -0.5,0.5 L 13,19 13.28125,18.90625 13.5625,18.8125 13.375,18.875 q -0.1875,0.0625 -0.40625,0.09375 L 12.75,19 12.859375,18.98437 12.96875,18.96874 12.98438,18.484365 M 13,17.875 13,18 l 0,0.375 0,0.375 0,-0.25 q 0,-0.25 0,-0.5 l 0,-0.25 0,0.125"
           id="path30376"
           inkscape:connector-curvature="0" />
        <path
           style="fill:#1a1a15;fill-opacity:0.75686275"
           d="M 13.875,18.375 14,18 13.90625,18.28125 13.8125,18.5625 13.875,18.375 q 0.0625,-0.1875 0.09375,-0.40625 L 14,17.75 13.984375,17.859375 13.96875,17.96875 14.359375,17.859375 14.75,17.75 14.46875,17.84375 14.1875,17.9375 14.375,17.875 q 0.1875,-0.0625 0.28125,-0.15625 L 14.75,17.625 l -0.04687,0.04687 -0.04687,0.04687 0.328125,0.296875 0.328125,0.296875 0.0625,-0.0625 0.0625,-0.0625 -0.125,0.125 q -0.125,0.125 -0.1875,0.3125 L 15.0625,18.8125 15.15625,18.53125 15.25,18.25 15.125,18.625 15,19 14.625,19.125 14.25,19.25 14.53125,19.15625 14.8125,19.0625 14.625,19.125 q -0.1875,0.0625 -0.3125,0.1875 l -0.125,0.125 L 14.25,19.375 14.3125,19.3125 14,19 13.6875,18.6875 13.625,18.75 l -0.0625,0.0625 0.125,-0.125 q 0.125,-0.125 0.1875,-0.3125 L 13.9375,18.1875 13.84375,18.46875 13.75,18.75 13.875,18.375"
           id="path30378"
           inkscape:connector-curvature="0" />
        <path
           style="fill:#000000;fill-opacity:0.03921569"
           d="m 15.125,18.625 q 0.125,-0.375 0.5,-0.5 Q 16,18 16,18.5 l 0,0.5 -0.5,0 -0.5,0 0.125,-0.375"
           id="path30380"
           inkscape:connector-curvature="0" />
        <path
           style="fill:#040808;fill-opacity:0.25882353"
           d="M 6.875,19.625 6.75,19.25 6.84375,19.53125 6.9375,19.8125 6.875,19.625 Q 6.8125,19.4375 6.6875,19.3125 L 6.5625,19.1875 6.625,19.25 6.6875,19.3125 7,19 7.3125,18.6875 7.25,18.625 7.1875,18.5625 l 0.125,0.125 q 0.125,0.125 0.3125,0.1875 L 7.8125,18.9375 7.53125,18.84375 7.25,18.75 7.625,18.875 8,19 8,19.5 8,20 7.5,20 Q 7,20 6.875,19.625"
           id="path30382"
           inkscape:connector-curvature="0" />
        <path
           style="fill:#080d0d;fill-opacity:0.71372549"
           d="M 8,19.5 8,19 8.375,19.125 q 0.375,0.125 0.5,0.5 L 9,20 8.5,20 8,20 8,19.5"
           id="path30384"
           inkscape:connector-curvature="0" />
        <path
           style="fill:#131312;fill-opacity:0.82745098"
           d="M 8.875,19.625 8.75,19.25 8.84375,19.53125 8.9375,19.8125 8.875,19.625 Q 8.8125,19.4375 8.6875,19.3125 L 8.5625,19.1875 8.625,19.25 8.6875,19.3125 8.984375,19.015625 9.28125,18.71875 9.203125,18.671875 9.125,18.625 9.28125,18.71875 Q 9.4375,18.8125 9.625,18.875 L 9.8125,18.9375 9.53125,18.84375 9.25,18.75 9.625,18.875 10,19 10,19.5 10,20 9.5,20 9,20 8.875,19.625"
           id="path30386"
           inkscape:connector-curvature="0" />
        <path
           style="fill:#1f1f1b;fill-opacity:0.85098039"
           d="m 10,19.5 0,-0.5 0.5,0 0.5,0 0,0.5 0,0.5 -0.5,0 -0.5,0 0,-0.5 M 11.125,19 11,19 l -0.375,0 -0.375,0 0.25,0 q 0.25,0 0.5,0 l 0.25,0 -0.125,0"
           id="path30388"
           inkscape:connector-curvature="0" />
        <path
           style="fill:#323223;fill-opacity:0.84705882"
           d="m 11,19.5 0,-0.5 0.5,0 0.5,0 0,0.5 0,0.5 -0.5,0 -0.5,0 0,-0.5 M 11.375,19 11,19 10.875,19 10.75,19 11,19 q 0.25,0 0.5,0 l 0.25,0 -0.375,0"
           id="path30390"
           inkscape:connector-curvature="0" />
        <path
           style="fill:#23241d;fill-opacity:0.82352941"
           d="m 12,19.5 0,-0.5 0.5,0 0.5,0 -0.375,0 -0.375,0 0.25,0 q 0.25,0 0.46875,-0.03125 L 13.1875,18.9375 13.078125,18.95313 12.96875,18.96876 12.98438,19.484385 13,20 12.5,20 12,20 12,19.5"
           id="path30392"
           inkscape:connector-curvature="0" />
        <path
           style="fill:#060601;fill-opacity:0.7254902"
           d="M 12.984375,19.484375 12.96875,18.96875 12.859375,18.984375 12.75,19 12.96875,18.96875 Q 13.1875,18.9375 13.375,18.875 L 13.5625,18.8125 13.28125,18.90625 13,19 13.375,18.875 13.75,18.75 13.46875,18.84375 13.1875,18.9375 13.375,18.875 q 0.1875,-0.0625 0.3125,-0.1875 l 0.125,-0.125 L 13.75,18.625 13.6875,18.6875 14,19 l 0.3125,0.3125 0.0625,-0.0625 0.0625,-0.0625 -0.125,0.125 q -0.125,0.125 -0.1875,0.3125 L 14.0625,19.8125 14.15625,19.53125 14.25,19.25 14.125,19.625 14,20 13.5,20 13,20 12.984375,19.484375"
           id="path30394"
           inkscape:connector-curvature="0" />
        <path
           style="fill:#000000;fill-opacity:0.34901961"
           d="m 14.125,19.625 q 0.125,-0.375 0.5,-0.5 L 15,19 l 0,0.5 0,0.5 -0.5,0 -0.5,0 0.125,-0.375"
           id="path30396"
           inkscape:connector-curvature="0" />
        <path
           style="fill:#000000;fill-opacity:0.00392157"
           d="m 15,19.5 0,-0.5 0.5,0 0.5,0 0,0.5 Q 16,20 15.5,20 l -0.5,0 0,-0.5"
           id="path30398"
           inkscape:connector-curvature="0" />
        <path
           style="fill:#000000;fill-opacity:0.17254902"
           d="M 8,20.5 8,20 8.5,20 9,20 9,20.5 9,21 8.5,21 Q 8,21 8,20.5"
           id="path30400"
           inkscape:connector-curvature="0" />
        <path
           style="fill:#000000;fill-opacity:0.41176471"
           d="M 9,20.5 9,20 9.5,20 10,20 10,20.5 10,21 9.5,21 9,21 9,20.5"
           id="path30402"
           inkscape:connector-curvature="0" />
        <path
           style="fill:#000000;fill-opacity:0.47058824"
           d="m 10,20.5 0,-0.5 0.5,0 0.5,0 0.5,0 0.5,0 0,0.5 0,0.5 -0.5,0 q -0.5,0 -1,0 l -0.5,0 0,-0.5"
           id="path30404"
           inkscape:connector-curvature="0" />
        <path
           style="fill:#000000;fill-opacity:0.43137255"
           d="m 12,20.5 0,-0.5 0.5,0 0.5,0 0,0.5 0,0.5 -0.5,0 -0.5,0 0,-0.5"
           id="path30406"
           inkscape:connector-curvature="0" />
        <path
           style="fill:#000000;fill-opacity:0.23529412"
           d="m 13,20.5 0,-0.5 0.5,0 0.5,0 0,0.5 Q 14,21 13.5,21 l -0.5,0 0,-0.5"
           id="path30408"
           inkscape:connector-curvature="0" />
      </g>
    </g>
  </g>
</svg>
