<?xml version="1.0" encoding="UTF-8" standalone="no"?>
<!-- Created with Inkscape (http://www.inkscape.org/) -->

<svg
   xmlns:dc="http://purl.org/dc/elements/1.1/"
   xmlns:cc="http://creativecommons.org/ns#"
   xmlns:rdf="http://www.w3.org/1999/02/22-rdf-syntax-ns#"
   xmlns:svg="http://www.w3.org/2000/svg"
   xmlns="http://www.w3.org/2000/svg"
   xmlns:sodipodi="http://sodipodi.sourceforge.net/DTD/sodipodi-0.dtd"
   xmlns:inkscape="http://www.inkscape.org/namespaces/inkscape"
   width="20"
   height="20"
   viewBox="0 0 20 20"
   id="svg3347"
   version="1.1"
   inkscape:version="0.91 r13725"
   sodipodi:docname="Civ5Icon.Wtf1.svg">
  <defs
     id="defs3349" />
  <sodipodi:namedview
     id="base"
     pagecolor="#ffffff"
     bordercolor="#666666"
     borderopacity="1.0"
     inkscape:pageopacity="0.0"
     inkscape:pageshadow="2"
     inkscape:zoom="11.2"
     inkscape:cx="10.747777"
     inkscape:cy="7.7388322"
     inkscape:document-units="px"
     inkscape:current-layer="g27203"
     showgrid="false"
     units="px"
     inkscape:window-width="1477"
     inkscape:window-height="962"
     inkscape:window-x="533"
     inkscape:window-y="95"
     inkscape:window-maximized="0" />
  <metadata
     id="metadata3352">
    <rdf:RDF>
      <cc:Work
         rdf:about="">
        <dc:format>image/svg+xml</dc:format>
        <dc:type
           rdf:resource="http://purl.org/dc/dcmitype/StillImage" />
        <dc:title></dc:title>
      </cc:Work>
    </rdf:RDF>
  </metadata>
  <g
     inkscape:label="Layer 1"
     inkscape:groupmode="layer"
     id="layer1"
     transform="translate(0,-1032.3622)">
    <g
       transform="translate(-0.22321519 1031.8712)"
       id="g27203">
      <g
         transform="translate(-0.5357141,-0.08935701)"
         id="g70853">
        <path
           style="fill:#000000;fill-opacity:0"
           d="M 0,0.5 0,0 0.5,0 1,0 1.5,0 2,0 2.5,0 3,0 3.5,0 4,0 4.5,0 5,0 5.5,0 6,0 6.5,0 7,0 7.5,0 8,0 8.5,0 9,0 9.5,0 10,0 l 0.5,0 0.5,0 0.5,0 0.5,0 0.5,0 0.5,0 0.5,0 0.5,0 0.5,0 0.5,0 0.5,0 0.5,0 0.5,0 0.5,0 0.5,0 0.5,0 0.5,0 0.5,0 0.5,0 0.5,0 0.5,0 0.5,0 0.5,0 0.5,0 0,0.5 0,0.5 0,0.5 0,0.5 0,0.5 0,0.5 0,0.5 0,0.5 0,0.5 0,0.5 0,0.5 0,0.5 0,0.5 0,0.5 0,0.5 0,0.5 0,0.5 0,0.5 0,0.5 0,0.5 0,0.5 0,0.5 0,0.5 0,0.5 0,0.5 0,0.5 0,0.5 0,0.5 0,0.5 0,0.5 0,0.5 0,0.5 0,0.5 0,0.5 0,0.5 0,0.5 0,0.5 0,0.5 0,0.5 0,0.5 0,0.5 0,0.5 0,0.5 0,0.5 -0.5,0 L 21,22 20.5,22 20,22 19.5,22 19,22 18.5,22 18,22 17.5,22 17,22 16.5,22 16,22 15.5,22 15,22 14.5,22 14,22 13.5,22 13,22 12.5,22 12,22 11.5,22 11,22 10.5,22 10,22 9.5,22 9,22 8.5,22 8,22 7.5,22 7,22 6.5,22 6,22 5.5,22 5,22 4.5,22 4,22 3.5,22 3,22 2.5,22 2,22 1.5,22 1,22 0.5,22 0,22 0,21.5 0,21 0,20.5 0,20 0,19.5 0,19 0,18.5 0,18 0,17.5 0,17 0,16.5 0,16 0,15.5 0,15 0,14.5 0,14 0,13.5 0,13 0,12.5 0,12 0,11.5 0,11 0,10.5 0,10 0,9.5 0,9 0,8.5 0,8 0,7.5 0,7 0,6.5 0,6 0,5.5 0,5 0,4.5 0,4 0,3.5 0,3 0,2.5 0,2 0,1.5 0,1 0,0.5 M 12.5,13 Q 13,13 13,12.5 L 13,12 13,11.5 13,11 13,10.5 Q 13,10 12.5,10 L 12,10 11.875,9.625 Q 11.75,9.25 11.375,9.125 L 11,9 10.5,9 10,9 9.625,9.125 Q 9.25,9.25 9.125,9.625 9,10 9,10.5 q 0,0.5 0.125,0.875 0.125,0.375 0.5,0.5 L 10,12 l 0,0.5 q 0,0.5 0.5,0.5 l 0.5,0 0.5,0 0.5,0 0.5,0"
           id="path70855"
           inkscape:connector-curvature="0" />
        <path
           style="fill:#555549;fill-opacity:0.81960784"
           d="M 9.125,9.625 Q 9.25,9.25 9.625,9.125 L 10,9 10,9.5 10,10 9.515625,10.015625 9.03125,10.03125 9.015625,10.140625 9,10.25 9.03125,10.03125 Q 9.0625,9.8125 9.125,9.625 L 9.1875,9.4375 9.09375,9.71875 9,10 9.125,9.625"
           id="path70857"
           inkscape:connector-curvature="0" />
        <path
           style="fill:#74745e;fill-opacity:0.81568627"
           d="M 10,9.5 10,9 10.5,9 11,9 11.125,9.375 11.25,9.75 11.15625,9.46875 11.0625,9.1875 11.125,9.375 q 0.0625,0.1875 0.1875,0.3125 l 0.125,0.125 L 11.375,9.75 11.3125,9.6875 11,10 l -0.3125,0.3125 0.0625,0.0625 0.0625,0.0625 -0.125,-0.125 Q 10.5625,10.1875 10.375,10.125 L 10.1875,10.0625 10.46875,10.15625 10.75,10.25 10.375,10.125 10,10 10,9.5"
           id="path70859"
           inkscape:connector-curvature="0" />
        <path
           style="fill:#555546;fill-opacity:0.81960784"
           d="M 11.125,9.375 11,9 11.375,9.125 q 0.375,0.125 0.5,0.5 L 12,10 11.90625,9.71875 11.8125,9.4375 11.875,9.625 q 0.0625,0.1875 0.09375,0.40625 L 12,10.25 11.984375,10.140625 11.96875,10.03125 11.609375,9.890625 Q 11.25,9.75 11.125,9.375"
           id="path70861"
           inkscape:connector-curvature="0" />
        <path
           style="fill:#a9aa8b;fill-opacity:1"
           d="M 9,10.5 9,10 9,10.375 9,10.75 9,10.5 Q 9,10.25 9.03125,10.03125 L 9.0625,9.8125 9.046875,9.921875 9.03125,10.03125 9.515625,10.015625 10,10 9.625,10 9.25,10 9.5,10 q 0.25,0 0.46875,0.03125 L 10.1875,10.0625 10.078125,10.046875 9.96875,10.03125 9.984375,10.515625 10,11 9.515625,10.984375 9.03125,10.96875 9.046875,11.078125 9.0625,11.1875 9.03125,10.96875 Q 9,10.75 9,10.5 L 9,10.25 9,10.625 9,11 9,10.5 M 9.625,11 10,11 10.125,11 10.25,11 10,11 q -0.25,0 -0.5,0 l -0.25,0 0.375,0"
           id="path70863"
           inkscape:connector-curvature="0" />
        <path
           style="fill:#f4f4c0;fill-opacity:1"
           d="M 9.984375,10.515625 9.96875,10.03125 9.859375,10.015625 9.75,10 9.96875,10.03125 Q 10.1875,10.0625 10.375,10.125 L 10.5625,10.1875 10.28125,10.09375 10,10 l 0.375,0.125 q 0.375,0.125 0.5,0.5 L 11,11 10.5,11 10,11 9.984375,10.515625 M 9.875,11 10,11 l 0.375,0 0.375,0 -0.25,0 q -0.25,0 -0.5,0 l -0.25,0 0.125,0 m 0.75,0 0.375,0 0.125,0 0.125,0 -0.25,0 q -0.25,0 -0.5,0 l -0.25,0 0.375,0"
           id="path70865"
           inkscape:connector-curvature="0" />
        <path
           style="fill:#a3a384;fill-opacity:1"
           d="M 10.875,10.625 10.75,10.25 10.84375,10.53125 10.9375,10.8125 10.875,10.625 q -0.0625,-0.1875 -0.1875,-0.3125 l -0.125,-0.125 0.0625,0.0625 0.0625,0.0625 L 11,10 11.3125,9.6875 11.25,9.625 11.1875,9.5625 l 0.125,0.125 q 0.125,0.125 0.3125,0.1875 L 11.8125,9.9375 11.53125,9.84375 11.25,9.75 11.609375,9.890625 11.96875,10.03125 11.953125,9.921875 11.9375,9.8125 11.96875,10.03125 Q 12,10.25 12,10.5 l 0,0.25 0,-0.375 0,-0.375 0,0.5 0,0.5 0,-0.375 0,-0.375 0,0.25 q 0,0.25 -0.03125,0.46875 L 11.9375,11.1875 11.95313,11.078125 11.96876,10.96875 11.484385,10.98438 11,11 10.875,10.625 m 0,0.375 0.125,0 0.375,0 0.375,0 -0.25,0 q -0.25,0 -0.5,0 l -0.25,0 0.125,0"
           id="path70867"
           inkscape:connector-curvature="0" />
        <path
           style="fill:#000000;fill-opacity:0.41176471"
           d="m 12,10.5 0,-0.5 0.5,0 q 0.5,0 0.5,0.5 l 0,0.5 -0.5,0 -0.5,0 0,-0.5"
           id="path70869"
           inkscape:connector-curvature="0" />
        <path
           style="fill:#686858;fill-opacity:0.75294118"
           d="M 9.125,11.375 9,11 9.09375,11.28125 9.1875,11.5625 9.125,11.375 Q 9.0625,11.1875 9.03125,10.96875 L 9,10.75 9.015625,10.859375 9.03125,10.96875 9.515625,10.984375 10,11 10,11.5 10,12 9.625,11.875 q -0.375,-0.125 -0.5,-0.5"
           id="path70871"
           inkscape:connector-curvature="0" />
        <path
           style="fill:#636351;fill-opacity:0.8745098"
           d="m 10,11.5 0,-0.5 0.5,0 0.5,0 0,0.5 0,0.5 -0.5,0 -0.5,0 0,-0.5"
           id="path70873"
           inkscape:connector-curvature="0" />
        <path
           style="fill:#4a4a3b;fill-opacity:0.8745098"
           d="M 11,11.5 11,11 11.484375,10.98437 11.96875,10.96874 11.98438,10.859365 12,10.75 11.96875,10.96875 Q 11.9375,11.1875 11.875,11.375 L 11.8125,11.5625 11.90625,11.28125 12,11 11.875,11.375 q -0.125,0.375 -0.5,0.5 L 11,12 11,11.5"
           id="path70875"
           inkscape:connector-curvature="0" />
        <path
           style="fill:#000000;fill-opacity:0.50196078"
           d="M 11.875,11.375 12,11 l 0.5,0 0.5,0 0,0.5 0,0.5 -0.375,0.125 -0.375,0.125 0.28125,-0.09375 0.28125,-0.09375 -0.1875,0.0625 q -0.1875,0.0625 -0.3125,0.1875 l -0.125,0.125 L 12.25,12.375 12.3125,12.3125 12,12 11.6875,11.6875 11.625,11.75 l -0.0625,0.0625 0.125,-0.125 q 0.125,-0.125 0.1875,-0.3125 L 11.9375,11.1875 11.84375,11.46875 11.75,11.75 11.875,11.375"
           id="path70877"
           inkscape:connector-curvature="0" />
        <path
           style="fill:#000000;fill-opacity:0.37254902"
           d="m 10,12.5 0,-0.5 0.5,0 0.5,0 0,0.5 0,0.5 -0.5,0 Q 10,13 10,12.5"
           id="path70879"
           inkscape:connector-curvature="0" />
        <path
           style="fill:#000000;fill-opacity:0.36862745"
           d="M 11,12.5 11,12 11.375,11.875 11.75,11.75 11.46875,11.84375 11.1875,11.9375 11.375,11.875 q 0.1875,-0.0625 0.3125,-0.1875 l 0.125,-0.125 L 11.75,11.625 11.6875,11.6875 12,12 l 0.3125,0.3125 0.0625,-0.0625 0.0625,-0.0625 -0.125,0.125 q -0.125,0.125 -0.1875,0.3125 L 12.0625,12.8125 12.15625,12.53125 12.25,12.25 12.125,12.625 12,13 11.5,13 11,13 11,12.5"
           id="path70881"
           inkscape:connector-curvature="0" />
        <path
           style="fill:#000000;fill-opacity:0.38039216"
           d="m 12.125,12.625 q 0.125,-0.375 0.5,-0.5 L 13,12 13,12.5 Q 13,13 12.5,13 l -0.5,0 0.125,-0.375"
           id="path70883"
           inkscape:connector-curvature="0" />
      </g>
    </g>
  </g>
</svg>
