<?xml version="1.0" encoding="UTF-8" standalone="no"?>
<!-- Created with Inkscape (http://www.inkscape.org/) -->

<svg
   xmlns:dc="http://purl.org/dc/elements/1.1/"
   xmlns:cc="http://creativecommons.org/ns#"
   xmlns:rdf="http://www.w3.org/1999/02/22-rdf-syntax-ns#"
   xmlns:svg="http://www.w3.org/2000/svg"
   xmlns="http://www.w3.org/2000/svg"
   xmlns:sodipodi="http://sodipodi.sourceforge.net/DTD/sodipodi-0.dtd"
   xmlns:inkscape="http://www.inkscape.org/namespaces/inkscape"
   width="20"
   height="20"
   viewBox="0 0 20 20"
   id="svg3347"
   version="1.1"
   inkscape:version="0.91 r13725"
   sodipodi:docname="Civ5Icon.ReligionSikhism.svg">
  <defs
     id="defs3349" />
  <sodipodi:namedview
     id="base"
     pagecolor="#ffffff"
     bordercolor="#666666"
     borderopacity="1.0"
     inkscape:pageopacity="0.0"
     inkscape:pageshadow="2"
     inkscape:zoom="11.2"
     inkscape:cx="6.1091119"
     inkscape:cy="8.5424036"
     inkscape:document-units="px"
     inkscape:current-layer="g27203"
     showgrid="false"
     units="px"
     inkscape:window-width="1477"
     inkscape:window-height="962"
     inkscape:window-x="533"
     inkscape:window-y="95"
     inkscape:window-maximized="0" />
  <metadata
     id="metadata3352">
    <rdf:RDF>
      <cc:Work
         rdf:about="">
        <dc:format>image/svg+xml</dc:format>
        <dc:type
           rdf:resource="http://purl.org/dc/dcmitype/StillImage" />
        <dc:title></dc:title>
      </cc:Work>
    </rdf:RDF>
  </metadata>
  <g
     inkscape:label="Layer 1"
     inkscape:groupmode="layer"
     id="layer1"
     transform="translate(0,-1032.3622)">
    <g
       transform="translate(-0.22321519 1031.8712)"
       id="g27203">
      <g
         transform="translate(-0.80357018,-0.26792816)"
         id="g33699">
        <path
           style="fill:#000000;fill-opacity:0"
           d="M 0,0.5 0,0 0.5,0 1,0 1.5,0 2,0 2.5,0 3,0 3.5,0 4,0 4.5,0 5,0 5.5,0 6,0 6.5,0 7,0 7.5,0 8,0 8.5,0 9,0 9.5,0 10,0 l 0.5,0 0.5,0 0.5,0 0.5,0 0.5,0 0.5,0 0.5,0 0.5,0 0.5,0 0.5,0 0.5,0 0.5,0 0.5,0 0.5,0 0.5,0 0.5,0 0.5,0 0.5,0 0.5,0 0.5,0 0.5,0 0.5,0 0.5,0 0.5,0 0,0.5 0,0.5 0,0.5 0,0.5 0,0.5 0,0.5 0,0.5 0,0.5 0,0.5 0,0.5 0,0.5 0,0.5 0,0.5 0,0.5 0,0.5 0,0.5 0,0.5 0,0.5 0,0.5 0,0.5 0,0.5 0,0.5 0,0.5 0,0.5 0,0.5 0,0.5 0,0.5 0,0.5 0,0.5 0,0.5 0,0.5 0,0.5 0,0.5 0,0.5 0,0.5 0,0.5 0,0.5 0,0.5 0,0.5 0,0.5 0,0.5 0,0.5 0,0.5 0,0.5 -0.5,0 L 21,22 20.5,22 20,22 19.5,22 19,22 18.5,22 18,22 17.5,22 17,22 16.5,22 16,22 15.5,22 15,22 14.5,22 14,22 13.5,22 13,22 12.5,22 12,22 11.5,22 11,22 10.5,22 10,22 9.5,22 9,22 8.5,22 8,22 7.5,22 7,22 6.5,22 6,22 5.5,22 5,22 4.5,22 4,22 3.5,22 3,22 2.5,22 2,22 1.5,22 1,22 0.5,22 0,22 0,21.5 0,21 0,20.5 0,20 0,19.5 0,19 0,18.5 0,18 0,17.5 0,17 0,16.5 0,16 0,15.5 0,15 0,14.5 0,14 0,13.5 0,13 0,12.5 0,12 0,11.5 0,11 0,10.5 0,10 0,9.5 0,9 0,8.5 0,8 0,7.5 0,7 0,6.5 0,6 0,5.5 0,5 0,4.5 0,4 0,3.5 0,3 0,2.5 0,2 0,1.5 0,1 0,0.5 M 11.5,20 q 0.5,0 0.625,-0.375 0.125,-0.375 0.5,-0.5 L 13,19 13.5,19 Q 14,19 14,18.5 l 0,-0.5 0.5,0 Q 15,18 15,17.5 l 0,-0.5 0,-0.5 0,-0.5 0.125,-0.375 q 0.125,-0.375 0.5,-0.5 0.375,-0.125 0.5,-0.5 0.125,-0.375 0.5,-0.5 Q 17,14 17,13.5 l 0,-0.5 0.5,0 Q 18,13 18,12.5 l 0,-0.5 0,-0.5 0,-0.5 0.5,0 Q 19,11 19,10.5 L 19,10 19,9.5 19,9 19,8.5 19,8 19,7.5 Q 19,7 18.5,7 L 18,7 18,6.5 18,6 18,5.5 Q 18,5 17.5,5 L 17,5 17,4.5 Q 17,4 16.5,4 L 16,4 15.5,4 15,4 15,3.5 Q 15,3 14.5,3 L 14,3 13.5,3 13,3 13,2.5 Q 13,2 12.5,2 L 12,2 12,1.5 Q 12,1 11.5,1 L 11,1 10.5,1 Q 10,1 10,1.5 L 10,2 9.5,2 Q 9,2 9,2.5 L 9,3 8.5,3 8,3 7.5,3 Q 7,3 7,3.5 L 7,4 6.5,4 6,4 5.5,4 Q 5,4 5,4.5 L 5,5 4.5,5 Q 4,5 4,5.5 L 4,6 3.5,6 Q 3,6 3,6.5 L 3,7 3,7.5 3,8 3,8.5 3,9 3,9.5 3,10 3,10.5 Q 3,11 3.5,11 L 4,11 4,11.5 4,12 4,12.5 Q 4,13 4.5,13 l 0.5,0 0,0.5 q 0,0.5 0.375,0.625 0.375,0.125 0.5,0.5 0.125,0.375 0.5,0.5 0.375,0.125 0.5,0.5 L 7,16 6.5,16 Q 6,16 6,16.5 L 6,17 6,17.5 Q 6,18 6.5,18 L 7,18 7,18.5 Q 7,19 7.5,19 L 8,19 8.5,19 9,19 9,19.5 Q 9,20 9.5,20 l 0.5,0 0.5,0 0.5,0 0.5,0"
           id="path33701"
           inkscape:connector-curvature="0" />
        <path
           style="fill:#000000;fill-opacity:0.29411765"
           d="M 10,1.5 Q 10,1 10.5,1 L 11,1 11,1.5 11,2 10.5,2 10,2 10,1.5"
           id="path33703"
           inkscape:connector-curvature="0" />
        <path
           style="fill:#000000;fill-opacity:0.18823529"
           d="M 11,1.5 11,1 11.5,1 Q 12,1 12,1.5 L 12,2 11.5,2 11,2 11,1.5"
           id="path33705"
           inkscape:connector-curvature="0" />
        <path
           style="fill:#000000;fill-opacity:0.5254902"
           d="M 9,2.5 Q 9,2 9.5,2 L 10,2 9.875,2.375 Q 9.75,2.75 9.375,2.875 L 9,3 9,2.5"
           id="path33707"
           inkscape:connector-curvature="0" />
        <path
           style="fill:#292929;fill-opacity:0.99607843"
           d="M 9.875,2.375 10,2 10.5,2 11,2 11,2.5 11,3 10.625,3.125 10.25,3.25 10.53125,3.15625 10.8125,3.0625 10.625,3.125 Q 10.4375,3.1875 10.3125,3.3125 L 10.1875,3.4375 10.25,3.375 10.3125,3.3125 10,3 9.6875,2.6875 9.625,2.75 9.5625,2.8125 9.6875,2.6875 Q 9.8125,2.5625 9.875,2.375 L 9.9375,2.1875 9.84375,2.46875 9.75,2.75 9.875,2.375"
           id="path33709"
           inkscape:connector-curvature="0" />
        <path
           style="fill:#1a1a1a;fill-opacity:0.98039216"
           d="M 11,2.5 11,2 11.5,2 12,2 12.125,2.375 12.25,2.75 12.15625,2.46875 12.0625,2.1875 12.125,2.375 q 0.0625,0.1875 0.1875,0.3125 l 0.125,0.125 L 12.375,2.75 12.3125,2.6875 12,3 11.6875,3.3125 11.75,3.375 11.8125,3.4375 11.6875,3.3125 Q 11.5625,3.1875 11.375,3.125 L 11.1875,3.0625 11.46875,3.15625 11.75,3.25 11.375,3.125 11,3 11,2.5"
           id="path33711"
           inkscape:connector-curvature="0" />
        <path
           style="fill:#000000;fill-opacity:0.34117647"
           d="M 12.125,2.375 12,2 12.5,2 Q 13,2 13,2.5 L 13,3 12.625,2.875 q -0.375,-0.125 -0.5,-0.5"
           id="path33713"
           inkscape:connector-curvature="0" />
        <path
           style="fill:#000000;fill-opacity:0.03921569"
           d="M 7,3.5 Q 7,3 7.5,3 L 8,3 8,3.5 8,4 7.5,4 7,4 7,3.5"
           id="path33715"
           inkscape:connector-curvature="0" />
        <path
           style="fill:#000000;fill-opacity:0.32941176"
           d="M 8,3.5 8,3 8.5,3 9,3 8.875,3.375 Q 8.75,3.75 8.375,3.875 L 8,4 8,3.5"
           id="path33717"
           inkscape:connector-curvature="0" />
        <path
           style="fill:#2e2e2e;fill-opacity:1"
           d="M 8.875,3.375 9,3 9.375,2.875 9.75,2.75 9.46875,2.84375 9.1875,2.9375 9.375,2.875 Q 9.5625,2.8125 9.6875,2.6875 L 9.8125,2.5625 9.75,2.625 9.6875,2.6875 10,3 10.3125,3.3125 10.375,3.25 10.4375,3.1875 10.3125,3.3125 Q 10.1875,3.4375 10.125,3.625 L 10.0625,3.8125 10.15625,3.53125 10.25,3.25 10.125,3.625 10,4 9.625,4.125 9.25,4.25 9.53125,4.15625 9.8125,4.0625 9.625,4.125 Q 9.4375,4.1875 9.3125,4.3125 L 9.1875,4.4375 9.25,4.375 9.3125,4.3125 9,4 8.6875,3.6875 8.625,3.75 8.5625,3.8125 8.6875,3.6875 Q 8.8125,3.5625 8.875,3.375 L 8.9375,3.1875 8.84375,3.46875 8.75,3.75 8.875,3.375 M 9.96875,4.09375 10,4 10.09375,3.71875 10.1875,3.4375 10.125,3.625 Q 10.0625,3.8125 10,4 L 9.9375,4.1875 9.96875,4.09375"
           id="path33719"
           inkscape:connector-curvature="0" />
        <path
           style="fill:#eeeeee;fill-opacity:1"
           d="m 10.125,3.625 q 0.125,-0.375 0.5,-0.5 L 11,3 11,3.5 11,4 10.5,4 10,4 10.125,3.625 M 10.09375,3.71875 10,4 9.96875,4.09375 9.9375,4.1875 10,4 q 0.0625,-0.1875 0.125,-0.375 l 0.0625,-0.1875 -0.09375,0.28125"
           id="path33721"
           inkscape:connector-curvature="0" />
        <path
           style="fill:#d2d2d2;fill-opacity:1"
           d="M 11,3.5 11,3 11.375,3.125 q 0.375,0.125 0.5,0.5 L 12,4 11.5,4 11,4 11,3.5"
           id="path33723"
           inkscape:connector-curvature="0" />
        <path
           style="fill:#191919;fill-opacity:0.98823529"
           d="M 11.875,3.625 11.75,3.25 11.84375,3.53125 11.9375,3.8125 11.875,3.625 Q 11.8125,3.4375 11.6875,3.3125 L 11.5625,3.1875 11.625,3.25 11.6875,3.3125 12,3 12.3125,2.6875 12.25,2.625 12.1875,2.5625 l 0.125,0.125 q 0.125,0.125 0.3125,0.1875 L 12.8125,2.9375 12.53125,2.84375 12.25,2.75 12.625,2.875 13,3 13.125,3.375 13.25,3.75 13.15625,3.46875 13.0625,3.1875 13.125,3.375 q 0.0625,0.1875 0.1875,0.3125 l 0.125,0.125 L 13.375,3.75 13.3125,3.6875 13,4 12.6875,4.3125 12.75,4.375 12.8125,4.4375 12.6875,4.3125 Q 12.5625,4.1875 12.375,4.125 L 12.1875,4.0625 12.46875,4.15625 12.75,4.25 12.375,4.125 12,4 11.875,3.625"
           id="path33725"
           inkscape:connector-curvature="0" />
        <path
           style="fill:#000000;fill-opacity:0.18823529"
           d="M 13.125,3.375 13,3 13.5,3 14,3 14,3.5 14,4 13.625,3.875 q -0.375,-0.125 -0.5,-0.5"
           id="path33727"
           inkscape:connector-curvature="0" />
        <path
           style="fill:#000000;fill-opacity:0.04705882"
           d="M 14,3.5 14,3 14.5,3 Q 15,3 15,3.5 L 15,4 14.5,4 14,4 14,3.5"
           id="path33729"
           inkscape:connector-curvature="0" />
        <path
           style="fill:#000000;fill-opacity:0.12941176"
           d="M 5,4.5 Q 5,4 5.5,4 L 6,4 5.875,4.375 Q 5.75,4.75 5.375,4.875 L 5,5 5,4.5"
           id="path33731"
           inkscape:connector-curvature="0" />
        <path
           style="fill:#000000;fill-opacity:0.70980392"
           d="M 5.875,4.375 6,4 6.5,4 7,4 7.125,4.375 7.25,4.75 7.15625,4.46875 7.0625,4.1875 7.125,4.375 Q 7.1875,4.5625 7.28125,4.65625 L 7.375,4.75 7.328125,4.703125 7.28125,4.65625 7,5 6.71875,5.34375 6.765625,5.390625 6.8125,5.4375 6.71875,5.34375 Q 6.625,5.25 6.5,5.25 l -0.125,0 0.1875,0 0.1875,0 -0.25,0 -0.25,0 0.1875,0 0.1875,0 -0.125,0 q -0.125,0 -0.21875,0.09375 L 6.1875,5.4375 6.234375,5.390625 6.28125,5.34375 5.984375,5.015625 5.6875,4.6875 5.625,4.75 5.5625,4.8125 5.6875,4.6875 Q 5.8125,4.5625 5.875,4.375 L 5.9375,4.1875 5.84375,4.46875 5.75,4.75 5.875,4.375"
           id="path33733"
           inkscape:connector-curvature="0" />
        <path
           style="fill:#1c1c1c;fill-opacity:0.18039216"
           d="M 7.125,4.375 7,4 7.5,4 8,4 7.875,4.375 Q 7.75,4.75 7.5,4.75 7.25,4.75 7.125,4.375"
           id="path33735"
           inkscape:connector-curvature="0" />
        <path
           style="fill:#000000;fill-opacity:0.83529412"
           d="M 7.875,4.375 8,4 8.375,3.875 8.75,3.75 8.46875,3.84375 8.1875,3.9375 8.375,3.875 Q 8.5625,3.8125 8.6875,3.6875 L 8.8125,3.5625 8.75,3.625 8.6875,3.6875 9,4 9.3125,4.3125 9.375,4.25 9.4375,4.1875 9.3125,4.3125 Q 9.1875,4.4375 9.125,4.625 L 9.0625,4.8125 9.15625,4.53125 9.25,4.25 9.125,4.625 9,5 8.625,5.125 8.25,5.25 8.53125,5.15625 8.8125,5.0625 8.625,5.125 Q 8.4375,5.1875 8.28125,5.28125 L 8.125,5.375 8.203125,5.328125 8.28125,5.28125 8,4.96875 7.71875,4.65625 7.671875,4.703125 7.625,4.75 7.71875,4.65625 Q 7.8125,4.5625 7.875,4.375 L 7.9375,4.1875 7.84375,4.46875 7.75,4.75 7.875,4.375"
           id="path33737"
           inkscape:connector-curvature="0" />
        <path
           style="fill:#7b7b7b;fill-opacity:1"
           d="M 9.125,4.625 Q 9.25,4.25 9.625,4.125 L 10,4 9.875,4.375 Q 9.75,4.75 9.375,4.875 L 9,5 9.125,4.625 M 9.90625,4.28125 10,4 10.03125,3.90625 10.0625,3.8125 10,4 Q 9.9375,4.1875 9.875,4.375 L 9.8125,4.5625 9.90625,4.28125"
           id="path33739"
           inkscape:connector-curvature="0" />
        <path
           style="fill:#ffffff;fill-opacity:1"
           d="M 9.875,4.375 10,4 10.5,4 11,4 11.5,4 12,4 12,4.5 12,5 12,4.625 12,4.25 12,4.5 q 0,0.25 0.125,0.375 L 12.25,5 12.1875,4.9375 12.125,4.875 11.9375,5.3125 Q 11.75,5.75 11.375,5.875 L 11,6 11,5.5 Q 11,5 10.625,5.125 L 10.25,5.25 10.53125,5.15625 10.8125,5.0625 10.625,5.125 Q 10.4375,5.1875 10.34375,5.28125 L 10.25,5.375 10.296875,5.328125 10.34375,5.28125 10.015625,4.984375 9.6875,4.6875 9.625,4.75 9.5625,4.8125 9.6875,4.6875 Q 9.8125,4.5625 9.875,4.375 L 9.9375,4.1875 9.84375,4.46875 9.75,4.75 9.875,4.375 M 10.03125,3.90625 10,4 9.90625,4.28125 9.8125,4.5625 9.875,4.375 Q 9.9375,4.1875 10,4 l 0.0625,-0.1875 -0.03125,0.09375"
           id="path33741"
           inkscape:connector-curvature="0" />
        <path
           style="fill:#494949;fill-opacity:1"
           d="M 12,4.5 12,4 12.375,4.125 Q 12.75,4.25 12.828125,4.671875 L 12.90625,5.09375 12.984375,5.140625 13.0625,5.1875 12.90625,5.09375 Q 12.75,5 12.5,5 L 12.25,5 12.625,5 13,5 12.5,5 Q 12,5 12,4.5"
           id="path33743"
           inkscape:connector-curvature="0" />
        <path
           style="fill:#000000;fill-opacity:0.60392157"
           d="M 12.828125,4.671875 12.75,4.25 12.84375,4.53125 12.9375,4.8125 12.875,4.625 Q 12.8125,4.4375 12.6875,4.3125 L 12.5625,4.1875 12.625,4.25 12.6875,4.3125 13,4 13.3125,3.6875 13.25,3.625 13.1875,3.5625 l 0.125,0.125 q 0.125,0.125 0.3125,0.1875 L 13.8125,3.9375 13.53125,3.84375 13.25,3.75 13.625,3.875 14,4 14,4.5 14,5 13.453125,5.046875 12.90625,5.09375 12.828125,4.671875"
           id="path33745"
           inkscape:connector-curvature="0" />
        <path
           style="fill:#131313;fill-opacity:0.31372549"
           d="M 14,4.5 14,4 14.5,4 15,4 14.875,4.375 q -0.125,0.375 -0.5,0.5 L 14,5 14,4.5"
           id="path33747"
           inkscape:connector-curvature="0" />
        <path
           style="fill:#000000;fill-opacity:0.68627451"
           d="M 14.875,4.375 15,4 15.5,4 16,4 16.125,4.375 16.25,4.75 16.15625,4.46875 16.0625,4.1875 16.125,4.375 q 0.0625,0.1875 0.1875,0.3125 l 0.125,0.125 L 16.375,4.75 16.3125,4.6875 16.03125,5 15.75,5.3125 15.8125,5.34375 15.875,5.375 15.75,5.3125 Q 15.625,5.25 15.5,5.25 l -0.125,0 0.1875,0 0.1875,0 -0.25,0 -0.25,0 0.1875,0 0.1875,0 -0.125,0 q -0.125,0 -0.21875,0.09375 L 15.1875,5.4375 15.234375,5.390625 15.28125,5.34375 14.984375,5.015625 14.6875,4.6875 14.625,4.75 14.5625,4.8125 14.6875,4.6875 Q 14.8125,4.5625 14.875,4.375 L 14.9375,4.1875 14.84375,4.46875 14.75,4.75 14.875,4.375"
           id="path33749"
           inkscape:connector-curvature="0" />
        <path
           style="fill:#000000;fill-opacity:0.01568627"
           d="M 16.125,4.375 16,4 16.5,4 Q 17,4 17,4.5 L 17,5 16.625,4.875 q -0.375,-0.125 -0.5,-0.5"
           id="path33751"
           inkscape:connector-curvature="0" />
        <path
           style="fill:#000000;fill-opacity:0.15686275"
           d="M 4,5.5 Q 4,5 4.5,5 L 5,5 4.875,5.375 Q 4.75,5.75 4.375,5.875 L 4,6 4,5.5"
           id="path33753"
           inkscape:connector-curvature="0" />
        <path
           style="fill:#111111;fill-opacity:0.98431373"
           d="M 4.875,5.375 5,5 5.375,4.875 5.75,4.75 5.46875,4.84375 5.1875,4.9375 5.375,4.875 Q 5.5625,4.8125 5.6875,4.6875 L 5.8125,4.5625 5.75,4.625 5.6875,4.6875 5.984375,5.015625 6.28125,5.34375 6.328125,5.296875 6.375,5.25 6.28125,5.34375 Q 6.1875,5.4375 6.125,5.625 L 6.0625,5.8125 6.15625,5.53125 6.25,5.25 6.125,5.625 6,6 6.09375,5.71875 6.1875,5.4375 6.125,5.625 Q 6.0625,5.8125 6.03125,6.03125 L 6,6.25 6.015625,6.140625 6.03125,6.03125 5.640625,6.140625 5.25,6.25 5.53125,6.15625 5.8125,6.0625 5.625,6.125 Q 5.4375,6.1875 5.3125,6.3125 L 5.1875,6.4375 5.25,6.375 5.3125,6.3125 5,6 4.6875,5.6875 4.625,5.75 4.5625,5.8125 4.6875,5.6875 Q 4.8125,5.5625 4.875,5.375 L 4.9375,5.1875 4.84375,5.46875 4.75,5.75 4.875,5.375"
           id="path33755"
           inkscape:connector-curvature="0" />
        <path
           style="fill:#767676;fill-opacity:0.97254902"
           d="M 6.125,5.625 Q 6.25,5.25 6.5,5.25 q 0.25,0 0.375,0.375 L 7,6 6.5,6 6,6 6.125,5.625"
           id="path33757"
           inkscape:connector-curvature="0" />
        <path
           style="fill:#111111;fill-opacity:0.8745098"
           d="M 6.875,5.625 6.75,5.25 6.84375,5.53125 6.9375,5.8125 6.875,5.625 Q 6.8125,5.4375 6.71875,5.34375 L 6.625,5.25 6.671875,5.296875 6.71875,5.34375 7,5 7.28125,4.65625 7.234375,4.609375 7.1875,4.5625 7.28125,4.65625 Q 7.375,4.75 7.5,4.75 l 0.125,0 -0.1875,0 -0.1875,0 0.25,0 0.25,0 -0.1875,0 -0.1875,0 0.125,0 q 0.125,0 0.21875,-0.09375 L 7.8125,4.5625 7.765625,4.609375 7.71875,4.65625 8,4.96875 8.28125,5.28125 8.359375,5.234375 8.4375,5.1875 8.28125,5.28125 Q 8.125,5.375 8,5.5 L 7.875,5.625 8.0625,5.4375 8.25,5.25 8,5.5 Q 7.75,5.75 7.375,5.875 L 7,6 6.875,5.625"
           id="path33759"
           inkscape:connector-curvature="0" />
        <path
           style="fill:#313131;fill-opacity:1"
           d="M 8,5.5 Q 8.25,5.25 8.625,5.125 L 9,5 8.875,5.375 Q 8.75,5.75 8.5,6 L 8.25,6.25 8.4375,6.0625 8.625,5.875 8.5,6 Q 8.375,6.125 8.28125,6.28125 L 8.1875,6.4375 8.234375,6.359375 8.28125,6.28125 8,6 7.71875,5.71875 7.640625,5.765625 7.5625,5.8125 7.71875,5.71875 Q 7.875,5.625 8,5.5 L 8.125,5.375 7.9375,5.5625 7.75,5.75 8,5.5"
           id="path33761"
           inkscape:connector-curvature="0" />
        <path
           style="fill:#d4d4d4;fill-opacity:1"
           d="M 8.875,5.375 9,5 9.375,4.875 9.75,4.75 9.46875,4.84375 9.1875,4.9375 9.375,4.875 Q 9.5625,4.8125 9.6875,4.6875 L 9.8125,4.5625 9.75,4.625 9.6875,4.6875 10.015625,4.984375 10.34375,5.28125 10.390625,5.234375 10.4375,5.1875 10.34375,5.28125 Q 10.25,5.375 10.25,5.5 l 0,0.125 0,-0.1875 0,-0.1875 0,0.25 0,0.25 0,-0.1875 0,-0.1875 0,0.125 q 0,0.125 0.09375,0.21875 L 10.4375,5.8125 10.390625,5.765625 10.34375,5.71875 10.03125,6.03125 9.71875,6.34375 9.765625,6.390625 9.8125,6.4375 9.71875,6.34375 Q 9.625,6.25 9.5,6.25 l -0.125,0 0.1875,0 0.1875,0 -0.25,0 -0.25,0 0.1875,0 0.1875,0 -0.125,0 q -0.125,0 -0.25,0.0625 L 9.125,6.375 9.1875,6.34375 9.25,6.3125 8.984375,6.015625 8.71875,5.71875 8.671875,5.796875 8.625,5.875 8.71875,5.71875 Q 8.8125,5.5625 8.875,5.375 L 8.9375,5.1875 8.84375,5.46875 8.75,5.75 8.875,5.375"
           id="path33763"
           inkscape:connector-curvature="0" />
        <path
           style="fill:#fefefe;fill-opacity:1"
           d="m 10.25,5.5 q 0,-0.25 0.375,-0.375 Q 11,5 11,5.5 L 11,6 10.625,5.875 Q 10.25,5.75 10.25,5.5"
           id="path33765"
           inkscape:connector-curvature="0" />
        <path
           style="fill:#bebebe;fill-opacity:1"
           d="M 11.9375,5.3125 12.125,4.875 12.0625,4.8125 12,4.75 12.125,4.875 Q 12.25,5 12.5,5 L 12.75,5 12.375,5 12,5 12.5,5 Q 13,5 13.125,5.375 L 13.25,5.75 13.15625,5.46875 13.0625,5.1875 13.125,5.375 q 0.0625,0.1875 0.15625,0.34375 L 13.375,5.875 13.328125,5.796875 13.28125,5.71875 13.015625,6.015625 12.75,6.3125 12.8125,6.34375 12.875,6.375 12.75,6.3125 Q 12.625,6.25 12.5,6.25 l -0.125,0 0.1875,0 0.1875,0 -0.25,0 -0.25,0 0.1875,0 0.1875,0 -0.125,0 q -0.125,0 -0.21875,0.09375 L 12.1875,6.4375 12.234375,6.390625 12.28125,6.34375 11.984375,6.015625 11.6875,5.6875 11.625,5.75 11.5625,5.8125 11.6875,5.6875 Q 11.8125,5.5625 11.875,5.375 L 11.9375,5.1875 11.84375,5.46875 11.75,5.75 11.9375,5.3125"
           id="path33767"
           inkscape:connector-curvature="0" />
        <path
           style="fill:#181818;fill-opacity:0.99607843"
           d="M 13.125,5.375 13,5 13.09375,5.28125 13.1875,5.5625 13.125,5.375 Q 13.0625,5.1875 12.90625,5.09375 L 12.75,5 12.828125,5.046875 12.90625,5.09375 13.453125,5.046875 14,5 14.125,5.375 14.25,5.75 14.15625,5.46875 14.0625,5.1875 14.125,5.375 q 0.0625,0.1875 0.1875,0.3125 l 0.125,0.125 L 14.375,5.75 14.3125,5.6875 14.015625,5.984375 13.71875,6.28125 13.765625,6.359375 13.8125,6.4375 13.71875,6.28125 Q 13.625,6.125 13.5,6 L 13.375,5.875 13.5625,6.0625 13.75,6.25 13.5,6 Q 13.25,5.75 13.125,5.375"
           id="path33769"
           inkscape:connector-curvature="0" />
        <path
           style="fill:#252525;fill-opacity:0.85490196"
           d="M 14.125,5.375 14,5 14.375,4.875 14.75,4.75 14.46875,4.84375 14.1875,4.9375 14.375,4.875 Q 14.5625,4.8125 14.6875,4.6875 L 14.8125,4.5625 14.75,4.625 14.6875,4.6875 14.984375,5.015625 15.28125,5.34375 15.328125,5.296875 15.375,5.25 15.28125,5.34375 Q 15.1875,5.4375 15.125,5.625 L 15.0625,5.8125 15.15625,5.53125 15.25,5.25 15.125,5.625 15,6 14.625,5.875 q -0.375,-0.125 -0.5,-0.5"
           id="path33771"
           inkscape:connector-curvature="0" />
        <path
           style="fill:#6c6c6c;fill-opacity:0.98431373"
           d="M 15.125,5.625 Q 15.25,5.25 15.5,5.25 15.75,5.25 16,5.5 L 16.25,5.75 15.96875,6.03125 15.6875,6.3125 15.75,6.375 15.8125,6.4375 15.6875,6.3125 Q 15.5625,6.1875 15.375,6.125 L 15.1875,6.0625 15.46875,6.15625 15.75,6.25 15.375,6.125 15,6 15.125,5.625 M 16.3125,5.8125 16.25,5.75 16.0625,5.5625 15.875,5.375 16,5.5 q 0.125,0.125 0.25,0.25 l 0.125,0.125 -0.0625,-0.0625"
           id="path33773"
           inkscape:connector-curvature="0" />
        <path
           style="fill:#020202;fill-opacity:0.94901961"
           d="M 16,5.5 15.75,5.25 15.9375,5.4375 16.125,5.625 16,5.5 Q 15.875,5.375 15.75,5.3125 L 15.625,5.25 15.6875,5.28125 15.75,5.3125 16.03125,5 16.3125,4.6875 16.25,4.625 16.1875,4.5625 l 0.125,0.125 q 0.125,0.125 0.3125,0.1875 L 16.8125,4.9375 16.53125,4.84375 16.25,4.75 16.625,4.875 17,5 17.125,5.375 17.25,5.75 17.15625,5.46875 17.0625,5.1875 17.125,5.375 q 0.0625,0.1875 0.1875,0.3125 l 0.125,0.125 L 17.375,5.75 17.3125,5.6875 17.015625,5.984375 16.71875,6.28125 16.765625,6.359375 16.8125,6.4375 16.71875,6.28125 Q 16.625,6.125 16.5,6 L 16.375,5.875 16.5625,6.0625 16.75,6.25 16.5,6 Q 16.25,5.75 16,5.5"
           id="path33775"
           inkscape:connector-curvature="0" />
        <path
           style="fill:#000000;fill-opacity:0.01568627"
           d="M 17.125,5.375 17,5 17.5,5 Q 18,5 18,5.5 L 18,6 17.625,5.875 q -0.375,-0.125 -0.5,-0.5"
           id="path33777"
           inkscape:connector-curvature="0" />
        <path
           style="fill:#000000;fill-opacity:0.03137255"
           d="M 3,6.5 Q 3,6 3.5,6 L 4,6 3.875,6.375 Q 3.75,6.75 3.375,6.875 L 3,7 3,6.5"
           id="path33779"
           inkscape:connector-curvature="0" />
        <path
           style="fill:#040404;fill-opacity:0.96862745"
           d="M 3.875,6.375 4,6 4.375,5.875 4.75,5.75 4.46875,5.84375 4.1875,5.9375 4.375,5.875 Q 4.5625,5.8125 4.6875,5.6875 L 4.8125,5.5625 4.75,5.625 4.6875,5.6875 5,6 5.3125,6.3125 5.375,6.25 5.4375,6.1875 5.3125,6.3125 Q 5.1875,6.4375 5.125,6.625 L 5.0625,6.8125 5.15625,6.53125 5.25,6.25 5.125,6.625 5,7 4.625,7.125 4.25,7.25 4.53125,7.15625 4.8125,7.0625 4.625,7.125 Q 4.4375,7.1875 4.3125,7.3125 L 4.1875,7.4375 4.25,7.375 4.3125,7.3125 4,7 3.6875,6.6875 3.625,6.75 3.5625,6.8125 3.6875,6.6875 Q 3.8125,6.5625 3.875,6.375 L 3.9375,6.1875 3.84375,6.46875 3.75,6.75 3.875,6.375"
           id="path33781"
           inkscape:connector-curvature="0" />
        <path
           style="fill:#bfbfbf;fill-opacity:1"
           d="M 5.125,6.625 Q 5.25,6.25 5.640625,6.140625 L 6.03125,6.03125 6.046875,5.921875 6.0625,5.8125 6.03125,6.03125 Q 6,6.25 6,6.5 L 6,6.75 6,6.375 6,6 6,6.5 6,7 5.5,7 5,7 5.125,6.625"
           id="path33783"
           inkscape:connector-curvature="0" />
        <path
           style="fill:#5f5f5f;fill-opacity:0.99607843"
           d="M 6,6.5 6,6 6.5,6 7,6 7.125,6.375 7.25,6.75 7.15625,6.46875 7.0625,6.1875 7.125,6.375 Q 7.1875,6.5625 7.3125,6.6875 L 7.4375,6.8125 7.375,6.75 7.3125,6.6875 7,7 6.6875,7.3125 6.75,7.375 6.8125,7.4375 6.6875,7.3125 Q 6.5625,7.1875 6.375,7.125 L 6.1875,7.0625 6.46875,7.15625 6.75,7.25 6.375,7.125 6,7 6,6.5"
           id="path33785"
           inkscape:connector-curvature="0" />
        <path
           style="fill:#131313;fill-opacity:0.99607843"
           d="M 7.125,6.375 7,6 7.375,5.875 7.75,5.75 7.46875,5.84375 7.1875,5.9375 7.375,5.875 Q 7.5625,5.8125 7.71875,5.71875 L 7.875,5.625 7.796875,5.671875 7.71875,5.71875 8,6 8.28125,6.28125 8.328125,6.203125 8.375,6.125 8.28125,6.28125 Q 8.1875,6.4375 8.125,6.625 L 8.0625,6.8125 8.15625,6.53125 8.25,6.25 8.125,6.625 Q 8,7 7.625,6.875 7.25,6.75 7.125,6.375"
           id="path33787"
           inkscape:connector-curvature="0" />
        <path
           style="fill:#d5d5d5;fill-opacity:1"
           d="M 8.125,6.625 Q 8.25,6.25 8.5,6 L 8.75,5.75 8.5625,5.9375 8.375,6.125 8.5,6 Q 8.625,5.875 8.71875,5.71875 L 8.8125,5.5625 8.765625,5.640625 8.71875,5.71875 8.984375,6.015625 9.25,6.3125 9.3125,6.28125 9.375,6.25 9.25,6.3125 Q 9.125,6.375 9,6.5 L 8.875,6.625 9.0625,6.4375 9.25,6.25 9,6.5 Q 8.75,6.75 8.328125,6.828125 L 7.90625,6.90625 7.828125,6.953125 7.75,7 7.90625,6.90625 Q 8.0625,6.8125 8.125,6.625 L 8.1875,6.4375 8.09375,6.71875 8,7 8.125,6.625"
           id="path33789"
           inkscape:connector-curvature="0" />
        <path
           style="fill:#8b8b8b;fill-opacity:1"
           d="m 9,6.5 q 0.25,-0.25 0.5,-0.25 0.25,0 0.375,0.375 L 10,7 9.90625,6.71875 9.8125,6.4375 9.875,6.625 Q 9.9375,6.8125 9.96875,7.03125 L 10,7.25 9.984375,7.140625 9.96875,7.03125 9.609375,7.140625 9.25,7.25 9.53125,7.15625 9.8125,7.0625 9.625,7.125 Q 9.4375,7.1875 9.3125,7.3125 L 9.1875,7.4375 9.25,7.375 9.3125,7.3125 9.015625,7.015625 8.71875,6.71875 8.640625,6.765625 8.5625,6.8125 8.71875,6.71875 Q 8.875,6.625 9,6.5 L 9.125,6.375 8.9375,6.5625 8.75,6.75 9,6.5"
           id="path33791"
           inkscape:connector-curvature="0" />
        <path
           style="fill:#fdfdfd;fill-opacity:1"
           d="M 9.875,6.625 9.75,6.25 9.84375,6.53125 9.9375,6.8125 9.875,6.625 Q 9.8125,6.4375 9.71875,6.34375 L 9.625,6.25 9.671875,6.296875 9.71875,6.34375 10.03125,6.03125 10.34375,5.71875 10.296875,5.671875 10.25,5.625 10.34375,5.71875 Q 10.4375,5.8125 10.625,5.875 L 10.8125,5.9375 10.53125,5.84375 10.25,5.75 10.625,5.875 11,6 11,6.5 11,7 10.5,7 10,7 9.875,6.625"
           id="path33793"
           inkscape:connector-curvature="0" />
        <path
           style="fill:#e8e8e8;fill-opacity:1"
           d="M 11,6.5 11,6 11.375,5.875 11.75,5.75 11.46875,5.84375 11.1875,5.9375 11.375,5.875 Q 11.5625,5.8125 11.6875,5.6875 L 11.8125,5.5625 11.75,5.625 11.6875,5.6875 11.984375,6.015625 12.28125,6.34375 12.328125,6.296875 12.375,6.25 12.28125,6.34375 Q 12.1875,6.4375 12.125,6.625 L 12.0625,6.8125 12.15625,6.53125 12.25,6.25 12.1875,6.6875 12.125,7.125 11.5625,7.0625 11,7 11,6.5"
           id="path33795"
           inkscape:connector-curvature="0" />
        <path
           style="fill:#949494;fill-opacity:1"
           d="M 12.1875,6.6875 Q 12.25,6.25 12.5,6.25 12.75,6.25 13,6.5 L 13.25,6.75 13.0625,6.5625 12.875,6.375 13,6.5 q 0.125,0.125 0.28125,0.21875 L 13.4375,6.8125 13.359375,6.765625 13.28125,6.71875 12.984375,7.015625 12.6875,7.3125 12.75,7.375 12.8125,7.4375 12.6875,7.3125 Q 12.5625,7.1875 12.375,7.125 L 12.1875,7.0625 12.46875,7.15625 12.75,7.25 12.375,7.125 12,7 12.375,7 12.75,7 12.5,7 Q 12.25,7 12.125,7.125 L 12,7.25 12.0625,7.1875 12.125,7.125 12.1875,6.6875"
           id="path33797"
           inkscape:connector-curvature="0" />
        <path
           style="fill:#c5c5c5;fill-opacity:1"
           d="M 13,6.5 12.75,6.25 12.9375,6.4375 13.125,6.625 13,6.5 Q 12.875,6.375 12.75,6.3125 L 12.625,6.25 12.6875,6.28125 12.75,6.3125 13.015625,6.015625 13.28125,5.71875 13.234375,5.640625 13.1875,5.5625 13.28125,5.71875 Q 13.375,5.875 13.5,6 L 13.625,6.125 13.4375,5.9375 13.25,5.75 13.5,6 q 0.25,0.25 0.375,0.625 L 14,7 13.90625,6.71875 13.8125,6.4375 13.875,6.625 q 0.0625,0.1875 0.09375,0.40625 L 14,7.25 13.984375,7.140625 13.96875,7.03125 13.609375,6.890625 Q 13.25,6.75 13,6.5"
           id="path33799"
           inkscape:connector-curvature="0" />
        <path
           style="fill:#000000;fill-opacity:0.99607843"
           d="M 13.875,6.625 13.75,6.25 13.84375,6.53125 13.9375,6.8125 13.875,6.625 Q 13.8125,6.4375 13.71875,6.28125 L 13.625,6.125 13.671875,6.203125 13.71875,6.28125 14.015625,5.984375 14.3125,5.6875 14.25,5.625 14.1875,5.5625 l 0.125,0.125 q 0.125,0.125 0.3125,0.1875 L 14.8125,5.9375 14.53125,5.84375 14.25,5.75 14.625,5.875 15,6 15.125,6.375 15.25,6.75 15.15625,6.46875 15.0625,6.1875 15.125,6.375 q 0.0625,0.1875 0.1875,0.3125 l 0.125,0.125 L 15.375,6.75 15.3125,6.6875 15,7 14.6875,7.3125 14.75,7.375 14.8125,7.4375 14.6875,7.3125 Q 14.5625,7.1875 14.375,7.125 L 14.1875,7.0625 14.46875,7.15625 14.75,7.25 14.359375,7.140625 13.96875,7.03125 13.984375,7.140625 14,7.25 13.96875,7.03125 Q 13.9375,6.8125 13.875,6.625 L 13.8125,6.4375 13.90625,6.71875 14,7 13.875,6.625"
           id="path33801"
           inkscape:connector-curvature="0" />
        <path
           style="fill:#919191;fill-opacity:1"
           d="M 15.125,6.375 15,6 15.375,6.125 Q 15.75,6.25 15.828125,6.671875 L 15.90625,7.09375 15.953125,7.171875 16,7.25 15.90625,7.09375 Q 15.8125,6.9375 15.625,6.875 L 15.4375,6.8125 15.71875,6.90625 16,7 15.625,6.875 q -0.375,-0.125 -0.5,-0.5"
           id="path33803"
           inkscape:connector-curvature="0" />
        <path
           style="fill:#9c9c9c;fill-opacity:1"
           d="M 15.828125,6.671875 15.75,6.25 15.84375,6.53125 15.9375,6.8125 15.875,6.625 Q 15.8125,6.4375 15.6875,6.3125 L 15.5625,6.1875 15.625,6.25 15.6875,6.3125 15.96875,6.03125 16.25,5.75 16.5,6 q 0.25,0.25 0.375,0.625 L 17,7 16.90625,6.71875 16.8125,6.4375 16.875,6.625 q 0.0625,0.1875 0.09375,0.40625 L 17,7.25 16.984375,7.140625 16.96875,7.03125 16.4375,7.0625 15.90625,7.09375 15.828125,6.671875 M 16.4375,5.9375 16.25,5.75 16.1875,5.6875 16.125,5.625 16.25,5.75 Q 16.375,5.875 16.5,6 l 0.125,0.125 -0.1875,-0.1875"
           id="path33805"
           inkscape:connector-curvature="0" />
        <path
           style="fill:#000000;fill-opacity:0.88627451"
           d="M 16.875,6.625 16.75,6.25 16.84375,6.53125 16.9375,6.8125 16.875,6.625 Q 16.8125,6.4375 16.71875,6.28125 L 16.625,6.125 16.671875,6.203125 16.71875,6.28125 17.015625,5.984375 17.3125,5.6875 17.25,5.625 17.1875,5.5625 l 0.125,0.125 q 0.125,0.125 0.3125,0.1875 L 17.8125,5.9375 17.53125,5.84375 17.25,5.75 17.625,5.875 18,6 18,6.5 18,7 17.484375,7.015625 16.96875,7.03125 16.984375,7.140625 17,7.25 16.96875,7.03125 Q 16.9375,6.8125 16.875,6.625 L 16.8125,6.4375 16.90625,6.71875 17,7 16.875,6.625"
           id="path33807"
           inkscape:connector-curvature="0" />
        <path
           style="fill:#000000;fill-opacity:0.50196078"
           d="M 3,7.5 3,7 3.375,6.875 3.75,6.75 3.46875,6.84375 3.1875,6.9375 3.375,6.875 Q 3.5625,6.8125 3.6875,6.6875 L 3.8125,6.5625 3.75,6.625 3.6875,6.6875 4,7 4.3125,7.3125 4.375,7.25 4.4375,7.1875 4.3125,7.3125 Q 4.1875,7.4375 4.125,7.625 L 4.0625,7.8125 4.15625,7.53125 4.25,7.25 4.125,7.625 4,8 3.5,8 3,8 3,7.5"
           id="path33809"
           inkscape:connector-curvature="0" />
        <path
           style="fill:#4b4b4b;fill-opacity:1"
           d="M 4.125,7.625 Q 4.25,7.25 4.625,7.125 L 5,7 5,7.5 5,8 4.5,8 4,8 4.125,7.625"
           id="path33811"
           inkscape:connector-curvature="0" />
        <path
           style="fill:#f5f5f5;fill-opacity:1"
           d="M 5,7.5 5,7 5.5,7 6,7 6,7.5 Q 6,8 6,8.5 L 6,9 5.5,9 5,9 5,8.5 5,8 5,7.5"
           id="path33813"
           inkscape:connector-curvature="0" />
        <path
           style="fill:#000000;fill-opacity:1"
           d="M 6,7.5 6,7 6.375,7.125 q 0.375,0.125 0.5,0.5 L 7,8 7,8.5 7,9 6.5,9 6,9 6,8.5 Q 6,8 6,7.5"
           id="path33815"
           inkscape:connector-curvature="0" />
        <path
           style="fill:#7a7a7a;fill-opacity:0.99607843"
           d="M 6.875,7.625 6.75,7.25 6.84375,7.53125 6.9375,7.8125 6.875,7.625 Q 6.8125,7.4375 6.6875,7.3125 L 6.5625,7.1875 6.625,7.25 6.6875,7.3125 7,7 7.3125,6.6875 7.25,6.625 7.1875,6.5625 7.3125,6.6875 Q 7.4375,6.8125 7.625,6.875 L 7.8125,6.9375 7.53125,6.84375 7.25,6.75 7.625,6.875 8,7 7.625,7 7.25,7 7.5,7 Q 7.75,7 7.90625,6.90625 L 8.0625,6.8125 7.984375,6.859375 7.90625,6.90625 7.953125,7.453125 8,8 7.5,8 7,8 6.875,7.625"
           id="path33817"
           inkscape:connector-curvature="0" />
        <path
           style="fill:#929292;fill-opacity:1"
           d="M 7.953125,7.453125 7.90625,6.90625 8.328125,6.828125 8.75,6.75 8.46875,6.84375 8.1875,6.9375 8.375,6.875 Q 8.5625,6.8125 8.71875,6.71875 L 8.875,6.625 8.796875,6.671875 8.71875,6.71875 9.015625,7.015625 9.3125,7.3125 9.375,7.25 9.4375,7.1875 9.3125,7.3125 Q 9.1875,7.4375 9.125,7.625 L 9.0625,7.8125 9.15625,7.53125 9.25,7.25 9.125,7.625 9,8 8.5,8 8,8 7.953125,7.453125"
           id="path33819"
           inkscape:connector-curvature="0" />
        <path
           style="fill:#151515;fill-opacity:1"
           d="M 9.125,7.625 Q 9.25,7.25 9.609375,7.140625 L 9.96875,7.03125 9.953125,6.921875 9.9375,6.8125 9.96875,7.03125 Q 10,7.25 10,7.5 L 10,7.75 10,7.375 10,7 10,7.5 10,8 9.5,8 9,8 9.125,7.625"
           id="path33821"
           inkscape:connector-curvature="0" />
        <path
           style="fill:#ffffff;fill-opacity:1"
           d="M 10,7.5 10,7 10.5,7 11,7 11,7.5 11,8 11,8.5 11,9 11,9.5 11,10 10.625,10.125 10.25,10.25 10.53125,10.15625 10.8125,10.0625 10.625,10.125 q -0.1875,0.0625 -0.28125,0.15625 L 10.25,10.375 10.29687,10.32813 10.34374,10.28126 10.03124,9.96876 9.71875,9.65625 9.671875,9.703125 9.625,9.75 9.71875,9.65625 Q 9.8125,9.5625 9.875,9.375 L 9.9375,9.1875 9.84375,9.46875 9.75,9.75 9.875,9.375 10,9 10,8.5 10,8 10,7.5"
           id="path33823"
           inkscape:connector-curvature="0" />
        <path
           style="fill:#ededed;fill-opacity:1"
           d="M 11,7.5 11,7 11.5625,7.0625 12.125,7.125 12.1875,7.0625 12.25,7 12.125,7.125 Q 12,7.25 12,7.5 L 12,7.75 12,7.375 12,7 12,7.5 12,8 11.5,8 11,8 11,7.5"
           id="path33825"
           inkscape:connector-curvature="0" />
        <path
           style="fill:#000000;fill-opacity:1"
           d="m 12,7.5 q 0,-0.5 0.375,-0.375 0.375,0.125 0.5,0.5 L 13,8 13,8.5 13,9 13,8.625 13,8.25 13,8.5 q 0,0.25 -0.03125,0.46875 L 12.9375,9.1875 12.953125,9.078125 12.96875,8.96875 12.484375,8.984375 12,9 12,8.5 12,8 12,7.5"
           id="path33827"
           inkscape:connector-curvature="0" />
        <path
           style="fill:#bdbdbd;fill-opacity:1"
           d="M 12.875,7.625 12.75,7.25 12.84375,7.53125 12.9375,7.8125 12.875,7.625 Q 12.8125,7.4375 12.6875,7.3125 L 12.5625,7.1875 12.625,7.25 12.6875,7.3125 12.984375,7.015625 13.28125,6.71875 13.203125,6.671875 13.125,6.625 13.28125,6.71875 Q 13.4375,6.8125 13.625,6.875 L 13.8125,6.9375 13.53125,6.84375 13.25,6.75 13.609375,6.890625 13.96875,7.03125 13.953125,6.921875 13.9375,6.8125 13.96875,7.03125 Q 14,7.25 14,7.5 L 14,7.75 14,7.375 14,7 14,7.5 14,8 13.5,8 13,8 12.875,7.625"
           id="path33829"
           inkscape:connector-curvature="0" />
        <path
           style="fill:#444444;fill-opacity:0.99607843"
           d="M 14,7.5 14,7 14,7.375 14,7.75 14,7.5 Q 14,7.25 13.96875,7.03125 L 13.9375,6.8125 13.95313,6.921875 13.96876,7.03125 14.359385,7.140625 Q 14.75,7.25 14.875,7.625 L 15,8 14.5,8 14,8 14,7.5"
           id="path33831"
           inkscape:connector-curvature="0" />
        <path
           style="fill:#191919;fill-opacity:1"
           d="M 14.875,7.625 14.75,7.25 14.84375,7.53125 14.9375,7.8125 14.875,7.625 Q 14.8125,7.4375 14.6875,7.3125 L 14.5625,7.1875 14.625,7.25 14.6875,7.3125 15,7 15.3125,6.6875 15.25,6.625 15.1875,6.5625 l 0.125,0.125 q 0.125,0.125 0.3125,0.1875 L 15.8125,6.9375 15.53125,6.84375 15.25,6.75 15.625,6.875 Q 16,7 16,7.5 L 16,8 15.5,8 15,8 14.875,7.625"
           id="path33833"
           inkscape:connector-curvature="0" />
        <path
           style="fill:#fefefe;fill-opacity:1"
           d="M 16,7.5 16,7 16,7.375 16,7.75 16,7.5 Q 16,7.25 15.90625,7.09375 L 15.8125,6.9375 15.859375,7.015625 15.90625,7.09375 16.4375,7.0625 16.96875,7.03125 16.953125,6.921875 16.9375,6.8125 16.96875,7.03125 Q 17,7.25 17,7.5 L 17,7.75 17,7.375 17,7 17,7.5 17,8 16.5,8 16,8 16,7.5"
           id="path33835"
           inkscape:connector-curvature="0" />
        <path
           style="fill:#212121;fill-opacity:1"
           d="M 17,7.5 17,7 17,7.375 17,7.75 17,7.5 Q 17,7.25 16.96875,7.03125 L 16.9375,6.8125 16.953125,6.921875 16.96875,7.03125 17.484375,7.015625 18,7 18.125,7.375 18.25,7.75 18.15625,7.46875 18.0625,7.1875 18.125,7.375 q 0.0625,0.1875 0.1875,0.3125 l 0.125,0.125 L 18.375,7.75 18.3125,7.6875 18,8 17.6875,8.3125 17.75,8.375 17.8125,8.4375 17.6875,8.3125 Q 17.5625,8.1875 17.375,8.125 L 17.1875,8.0625 17.46875,8.15625 17.75,8.25 17.375,8.125 17,8 17,7.5"
           id="path33837"
           inkscape:connector-curvature="0" />
        <path
           style="fill:#000000;fill-opacity:0.24313725"
           d="M 18.125,7.375 18,7 18.5,7 Q 19,7 19,7.5 L 19,8 18.625,7.875 q -0.375,-0.125 -0.5,-0.5"
           id="path33839"
           inkscape:connector-curvature="0" />
        <path
           style="fill:#000000;fill-opacity:0.72156863"
           d="M 3,8.5 3,8 3.5,8 4,8 4,8.5 4,9 3.5,9 3,9 3,8.5"
           id="path33841"
           inkscape:connector-curvature="0" />
        <path
           style="fill:#787878;fill-opacity:1"
           d="M 4,8.5 4,8 4.5,8 5,8 5,8.5 5,9 4.5,9 4,9 4,8.5"
           id="path33843"
           inkscape:connector-curvature="0" />
        <path
           style="fill:#949494;fill-opacity:1"
           d="M 6.984375,8.484375 7,8 7.5,8 8,8 7.875,8.375 Q 7.75,8.75 7.375,8.875 L 7,9 7.28125,8.90625 7.5625,8.8125 7.375,8.875 Q 7.1875,8.9375 6.96875,8.96875 L 6.75,9 6.859375,8.984375 6.96875,8.96875 6.984375,8.484375"
           id="path33845"
           inkscape:connector-curvature="0" />
        <path
           style="fill:#656565;fill-opacity:1"
           d="M 7.875,8.375 8,8 8.5,8 9,8 9,8.5 9,9 9,8.625 9,8.25 9,8.5 Q 9,8.75 9.03125,8.96875 L 9.0625,9.1875 9.046875,9.078125 9.03125,8.96875 8.640625,9.109375 8.25,9.25 8.53125,9.15625 8.8125,9.0625 8.625,9.125 Q 8.4375,9.1875 8.3125,9.3125 L 8.1875,9.4375 8.25,9.375 8.3125,9.3125 8,9 7.6875,8.6875 7.625,8.75 7.5625,8.8125 7.6875,8.6875 Q 7.8125,8.5625 7.875,8.375 L 7.9375,8.1875 7.84375,8.46875 7.75,8.75 7.875,8.375"
           id="path33847"
           inkscape:connector-curvature="0" />
        <path
           style="fill:#1b1b1b;fill-opacity:1"
           d="M 9,8.5 9,8 9.5,8 10,8 10,8.5 10,9 9.5,9 9,9 9,8.5"
           id="path33849"
           inkscape:connector-curvature="0" />
        <path
           style="fill:#f0f0f0;fill-opacity:1"
           d="M 11,8.5 11,8 11.5,8 12,8 12,8.5 12,9 11.5,9 11,9 11,8.5"
           id="path33851"
           inkscape:connector-curvature="0" />
        <path
           style="fill:#979797;fill-opacity:1"
           d="M 13,8.5 13,8 13.5,8 14,8 14,8.5 14,9 13.484375,8.984375 12.96875,8.96875 12.953125,9.078125 12.9375,9.1875 12.96875,8.96875 Q 13,8.75 13,8.5 L 13,8.25 13,8.625 13,9 13,8.5"
           id="path33853"
           inkscape:connector-curvature="0" />
        <path
           style="fill:#5f5f5f;fill-opacity:0.99215686"
           d="M 14,8.5 14,8 14.5,8 15,8 15.125,8.375 15.25,8.75 15.15625,8.46875 15.0625,8.1875 15.125,8.375 q 0.0625,0.1875 0.1875,0.3125 l 0.125,0.125 L 15.375,8.75 15.3125,8.6875 15,9 14.6875,9.3125 14.75,9.375 14.8125,9.4375 14.6875,9.3125 Q 14.5625,9.1875 14.375,9.125 L 14.1875,9.0625 14.46875,9.15625 14.75,9.25 14.375,9.125 14,9 14,8.5"
           id="path33855"
           inkscape:connector-curvature="0" />
        <path
           style="fill:#0d0d0d;fill-opacity:1"
           d="M 15.125,8.375 15,8 15.5,8 16,8 16,8.5 16,9 16,8.625 16,8.25 16,8.5 q 0,0.25 -0.03125,0.46875 L 15.9375,9.1875 15.953125,9.078125 15.96875,8.96875 15.609375,8.859375 Q 15.25,8.75 15.125,8.375"
           id="path33857"
           inkscape:connector-curvature="0" />
        <path
           style="fill:#ffffff;fill-opacity:1"
           d="M 16,8.5 16,8 16.5,8 17,8 17,8.5 17,9 17,9.5 17,10 16.625,10.125 16.25,10.25 16.53125,10.15625 16.8125,10.0625 16.625,10.125 q -0.1875,0.0625 -0.34375,0.15625 L 16.125,10.375 16.203125,10.328125 16.28125,10.28125 15.984375,9.984375 15.6875,9.6875 15.625,9.75 15.5625,9.8125 15.6875,9.6875 Q 15.8125,9.5625 15.875,9.375 L 15.9375,9.1875 15.84375,9.46875 15.75,9.75 15.875,9.375 Q 16,9 16,8.5"
           id="path33859"
           inkscape:connector-curvature="0" />
        <path
           style="fill:#464646;fill-opacity:1"
           d="M 17,8.5 17,8 17.375,8.125 q 0.375,0.125 0.5,0.5 L 18,9 17.5,9 17,9 17,8.5"
           id="path33861"
           inkscape:connector-curvature="0" />
        <path
           style="fill:#000000;fill-opacity:0.4745098"
           d="M 17.875,8.625 17.75,8.25 17.84375,8.53125 17.9375,8.8125 17.875,8.625 Q 17.8125,8.4375 17.6875,8.3125 L 17.5625,8.1875 17.625,8.25 17.6875,8.3125 18,8 18.3125,7.6875 18.25,7.625 18.1875,7.5625 l 0.125,0.125 q 0.125,0.125 0.3125,0.1875 L 18.8125,7.9375 18.53125,7.84375 18.25,7.75 18.625,7.875 19,8 19,8.5 19,9 18.5,9 18,9 17.875,8.625"
           id="path33863"
           inkscape:connector-curvature="0" />
        <path
           style="fill:#000000;fill-opacity:0.61568627"
           d="M 3,9.5 3,9 3.5,9 4,9 4.125,9.375 4.25,9.75 4.15625,9.46875 4.0625,9.1875 4.125,9.375 Q 4.1875,9.5625 4.3125,9.6875 L 4.4375,9.8125 4.375,9.75 4.3125,9.6875 4,10 3.6875,10.3125 3.75,10.375 3.8125,10.4375 3.6875,10.3125 Q 3.5625,10.1875 3.375,10.125 L 3.1875,10.0625 3.46875,10.15625 3.75,10.25 3.375,10.125 3,10 3,9.5"
           id="path33865"
           inkscape:connector-curvature="0" />
        <path
           style="fill:#616161;fill-opacity:1"
           d="M 4.125,9.375 4,9 4.5,9 5,9 5,9.5 5,10 4.625,9.875 Q 4.25,9.75 4.125,9.375 M 5,10.125 5,10 5,9.625 5,9.25 5,9.5 Q 5,9.75 5,10 l 0,0.25 0,-0.125"
           id="path33867"
           inkscape:connector-curvature="0" />
        <path
           style="fill:#ffffff;fill-opacity:1"
           d="M 5,9.5 5,9 5.5,9 6,9 6,9.5 6,10 6,9.625 6,9.25 6,9.5 Q 6,9.75 6.09375,9.90625 L 6.1875,10.0625 6.140625,9.984375 6.09375,9.90625 5.921875,10.328125 Q 5.75,10.75 5.390625,10.859375 L 5.03125,10.96875 5.046875,11.078125 5.0625,11.1875 5.03125,10.96875 Q 5,10.75 5,10.5 L 5,10.25 5,10.625 5,11 5,10.5 Q 5,10 5,9.5"
           id="path33869"
           inkscape:connector-curvature="0" />
        <path
           style="fill:#282828;fill-opacity:1"
           d="M 6,9.5 6,9 6.5,9 7,9 7.125,9.375 7.25,9.75 7.15625,9.46875 7.0625,9.1875 7.125,9.375 Q 7.1875,9.5625 7.3125,9.6875 L 7.4375,9.8125 7.375,9.75 7.3125,9.6875 7,10 6.6875,10.3125 6.75,10.375 6.8125,10.4375 6.6875,10.3125 Q 6.5625,10.1875 6.375,10.125 L 6.1875,10.0625 6.46875,10.15625 6.75,10.25 6.375,10.125 Q 6,10 6,9.5"
           id="path33871"
           inkscape:connector-curvature="0" />
        <path
           style="fill:#4d4d4d;fill-opacity:0.99607843"
           d="M 7.125,9.375 7,9 7.375,8.875 7.75,8.75 7.46875,8.84375 7.1875,8.9375 7.375,8.875 Q 7.5625,8.8125 7.6875,8.6875 L 7.8125,8.5625 7.75,8.625 7.6875,8.6875 8,9 8.3125,9.3125 8.375,9.25 8.4375,9.1875 8.3125,9.3125 Q 8.1875,9.4375 8.125,9.625 L 8.0625,9.8125 8.15625,9.53125 8.25,9.25 8.125,9.625 8,10 8.09375,9.71875 8.1875,9.4375 8.125,9.625 Q 8.0625,9.8125 8.0625,10 l 0,0.1875 0,-0.09375 L 8.0625,10 7.65625,9.875 Q 7.25,9.75 7.125,9.375"
           id="path33873"
           inkscape:connector-curvature="0" />
        <path
           style="fill:#bebebe;fill-opacity:1"
           d="M 8.125,9.625 Q 8.25,9.25 8.640625,9.109375 L 9.03125,8.96875 9.015625,8.859375 9,8.75 9.03125,8.96875 Q 9.0625,9.1875 9.125,9.375 L 9.1875,9.5625 9.09375,9.28125 9,9 9.125,9.375 9.25,9.75 9.15625,9.46875 9.0625,9.1875 9.125,9.375 Q 9.1875,9.5625 9.28125,9.65625 L 9.375,9.75 9.328125,9.703125 9.28125,9.65625 9,9.96875 8.71875,10.28125 8.796875,10.328125 8.875,10.375 8.71875,10.28125 Q 8.5625,10.1875 8.375,10.125 L 8.1875,10.0625 8.46875,10.15625 8.75,10.25 8.40625,10.125 8.0625,10 l 0,0.09375 0,0.09375 0,-0.1875 q 0,-0.1875 0.0625,-0.375 L 8.1875,9.4375 8.09375,9.71875 8,10 8.125,9.625"
           id="path33875"
           inkscape:connector-curvature="0" />
        <path
           style="fill:#262626;fill-opacity:1"
           d="M 9.125,9.375 9,9 9.5,9 10,9 9.875,9.375 Q 9.75,9.75 9.5,9.75 9.25,9.75 9.125,9.375"
           id="path33877"
           inkscape:connector-curvature="0" />
        <path
           style="fill:#e8e8e8;fill-opacity:1"
           d="M 11,9.5 11,9 11.5,9 12,9 12.125,9.375 12.25,9.75 12.15625,9.46875 12.0625,9.1875 12.125,9.375 q 0.0625,0.1875 0.15625,0.28125 L 12.375,9.75 12.328125,9.703125 12.28125,9.65625 l -0.3125,0.3125 -0.3125,0.3125 0.04687,0.04687 L 11.75,10.375 11.65625,10.28125 Q 11.5625,10.1875 11.375,10.125 L 11.1875,10.0625 11.46875,10.15625 11.75,10.25 11.375,10.125 11,10 11,9.5"
           id="path33879"
           inkscape:connector-curvature="0" />
        <path
           style="fill:#1b1b1b;fill-opacity:1"
           d="M 12.125,9.375 12,9 12.484375,8.984375 12.96875,8.96875 12.984375,8.859375 13,8.75 12.96875,8.96875 Q 12.9375,9.1875 12.875,9.375 L 12.8125,9.5625 12.90625,9.28125 13,9 12.875,9.375 Q 12.75,9.75 12.5,9.75 q -0.25,0 -0.375,-0.375"
           id="path33881"
           inkscape:connector-curvature="0" />
        <path
           style="fill:#d9d9d9;fill-opacity:1"
           d="M 12.875,9.375 13,9 12.90625,9.28125 12.8125,9.5625 12.875,9.375 Q 12.9375,9.1875 12.96875,8.96875 L 13,8.75 12.984375,8.859375 12.96875,8.96875 13.484375,8.984375 14,9 14,9.5 14,10 14,9.625 14,9.25 14,9.5 q 0,0.25 0.03125,0.46875 L 14.0625,10.1875 14.046875,10.078125 14.03125,9.96875 13.640625,10.109375 13.25,10.25 13.53125,10.15625 13.8125,10.0625 13.625,10.125 q -0.1875,0.0625 -0.34375,0.15625 L 13.125,10.375 13.203125,10.328125 13.28125,10.28125 13,9.96875 12.71875,9.65625 12.671875,9.703125 12.625,9.75 12.71875,9.65625 Q 12.8125,9.5625 12.875,9.375 L 12.9375,9.1875 12.84375,9.46875 12.75,9.75 12.875,9.375"
           id="path33883"
           inkscape:connector-curvature="0" />
        <path
           style="fill:#1e1e1e;fill-opacity:0.99607843"
           d="M 14,9.5 14,9 14.375,9.125 Q 14.75,9.25 14.921875,9.671875 L 15.09375,10.09375 14.5625,10.03125 14.03125,9.96875 14.04688,10.078125 14.0625,10.1875 14.03125,9.96875 Q 14,9.75 14,9.5 L 14,9.25 14,9.625 14,10 14,9.5"
           id="path33885"
           inkscape:connector-curvature="0" />
        <path
           style="fill:#5c5c5c;fill-opacity:1"
           d="M 14.921875,9.671875 14.75,9.25 14.84375,9.53125 14.9375,9.8125 14.875,9.625 Q 14.8125,9.4375 14.6875,9.3125 L 14.5625,9.1875 14.625,9.25 14.6875,9.3125 15,9 15.3125,8.6875 15.25,8.625 15.1875,8.5625 l 0.125,0.125 q 0.125,0.125 0.3125,0.1875 L 15.8125,8.9375 15.53125,8.84375 15.25,8.75 15.609375,8.859375 15.96875,8.96875 15.984375,8.859375 16,8.75 15.96875,8.96875 Q 15.9375,9.1875 15.875,9.375 L 15.8125,9.5625 15.90625,9.28125 16,9 15.875,9.375 q -0.125,0.375 -0.5,0.5 L 15,10 15.28125,9.90625 15.5625,9.8125 15.375,9.875 q -0.1875,0.0625 -0.28125,0.21875 L 15,10.25 15.04687,10.17187 15.09374,10.09374 14.921865,9.671865"
           id="path33887"
           inkscape:connector-curvature="0" />
        <path
           style="fill:#353535;fill-opacity:1"
           d="M 17,9.5 17,9 17.5,9 18,9 17.875,9.375 q -0.125,0.375 -0.5,0.5 L 17,10 17,9.5"
           id="path33889"
           inkscape:connector-curvature="0" />
        <path
           style="fill:#000000;fill-opacity:0.37254902"
           d="M 17.875,9.375 18,9 18.5,9 19,9 19,9.5 19,10 18.625,10.125 18.25,10.25 18.53125,10.15625 18.8125,10.0625 18.625,10.125 q -0.1875,0.0625 -0.3125,0.1875 l -0.125,0.125 L 18.25,10.375 18.3125,10.3125 18,10 17.6875,9.6875 17.625,9.75 17.5625,9.8125 17.6875,9.6875 Q 17.8125,9.5625 17.875,9.375 L 17.9375,9.1875 17.84375,9.46875 17.75,9.75 17.875,9.375"
           id="path33891"
           inkscape:connector-curvature="0" />
        <path
           style="fill:#000000;fill-opacity:0.27058824"
           d="M 3,10.5 3,10 3.375,10.125 q 0.375,0.125 0.5,0.5 L 4,11 3.5,11 Q 3,11 3,10.5"
           id="path33893"
           inkscape:connector-curvature="0" />
        <path
           style="fill:#252525;fill-opacity:1"
           d="M 3.875,10.625 3.75,10.25 3.84375,10.53125 3.9375,10.8125 3.875,10.625 Q 3.8125,10.4375 3.6875,10.3125 L 3.5625,10.1875 3.625,10.25 3.6875,10.3125 4,10 4.3125,9.6875 4.25,9.625 4.1875,9.5625 4.3125,9.6875 Q 4.4375,9.8125 4.625,9.875 L 4.8125,9.9375 4.53125,9.84375 4.25,9.75 4.625,9.875 5,10 5,10.5 5,11 5,10.625 5,10.25 5,10.5 q 0,0.25 0.03125,0.46875 L 5.0625,11.1875 5.046875,11.078125 5.03125,10.96875 4.515625,10.984375 4,11 3.875,10.625 M 5,10.375 5,10 5,9.875 5,9.75 5,10 q 0,0.25 0,0.5 l 0,0.25 0,-0.375"
           id="path33895"
           inkscape:connector-curvature="0" />
        <path
           style="fill:#bfbfbf;fill-opacity:1"
           d="M 5.921875,10.328125 6.09375,9.90625 6.046875,9.828125 6,9.75 6.09375,9.90625 Q 6.1875,10.0625 6.375,10.125 L 6.5625,10.1875 6.28125,10.09375 6,10 6.375,10.125 q 0.375,0.125 0.5,0.5 L 7,11 6.625,11.125 6.25,11.25 6.53125,11.15625 6.8125,11.0625 6.625,11.125 Q 6.4375,11.1875 6.3125,11.3125 L 6.1875,11.4375 6.25,11.375 6.3125,11.3125 6,11 5.6875,10.6875 5.625,10.75 5.5625,10.8125 5.6875,10.6875 Q 5.8125,10.5625 5.875,10.375 L 5.9375,10.1875 5.84375,10.46875 5.75,10.75 5.921875,10.328125"
           id="path33897"
           inkscape:connector-curvature="0" />
        <path
           style="fill:#000000;fill-opacity:1"
           d="M 6.875,10.625 6.75,10.25 6.84375,10.53125 6.9375,10.8125 6.875,10.625 Q 6.8125,10.4375 6.6875,10.3125 L 6.5625,10.1875 6.625,10.25 6.6875,10.3125 7,10 7.3125,9.6875 7.25,9.625 7.1875,9.5625 7.3125,9.6875 Q 7.4375,9.8125 7.625,9.875 L 7.8125,9.9375 7.53125,9.84375 7.25,9.75 7.65625,9.875 8.0625,10 l 0,-0.09375 0,-0.09375 0,0.1875 q 0,0.1875 0.0625,0.375 L 8.1875,10.5625 8.09375,10.28125 8,10 8.125,10.375 Q 8.25,10.75 8.5,11 8.75,11.25 8.875,11.625 L 9,12 8.625,11.875 Q 8.25,11.75 8,11.5 7.75,11.25 7.375,11.125 L 7,11 6.875,10.625"
           id="path33899"
           inkscape:connector-curvature="0" />
        <path
           style="fill:#a4a4a4;fill-opacity:1"
           d="M 8.125,10.375 8,10 8.09375,10.28125 8.1875,10.5625 8.125,10.375 Q 8.0625,10.1875 8.0625,10 l 0,-0.1875 0,0.09375 0,0.09375 0.34375,0.125 Q 8.75,10.25 9,10.5 L 9.25,10.75 8.984375,11.015625 8.71875,11.28125 8.765625,11.359375 8.8125,11.4375 8.71875,11.28125 Q 8.625,11.125 8.5,11 L 8.375,10.875 8.5625,11.0625 8.75,11.25 8.5,11 Q 8.25,10.75 8.125,10.375 M 9.3125,10.8125 9.25,10.75 9.0625,10.5625 8.875,10.375 9,10.5 q 0.125,0.125 0.25,0.25 l 0.125,0.125 -0.0625,-0.0625"
           id="path33901"
           inkscape:connector-curvature="0" />
        <path
           style="fill:#d1d1d1;fill-opacity:1"
           d="M 9,10.5 8.75,10.25 8.9375,10.4375 9.125,10.625 9,10.5 Q 8.875,10.375 8.71875,10.28125 L 8.5625,10.1875 8.640625,10.234375 8.71875,10.28125 9,9.96875 9.28125,9.65625 9.234375,9.609375 9.1875,9.5625 9.28125,9.65625 Q 9.375,9.75 9.5,9.75 l 0.125,0 -0.1875,0 -0.1875,0 0.25,0 0.25,0 -0.1875,0 -0.1875,0 0.125,0 q 0.125,0 0.21875,-0.09375 L 9.8125,9.5625 9.765625,9.609375 9.71875,9.65625 l 0.3125,0.3125 0.3125,0.3125 0.04687,-0.04687 0.04687,-0.04687 -0.09375,0.09375 Q 10.25,10.375 10.25,10.5 l 0,0.125 0,-0.1875 0,-0.1875 0,0.25 0,0.25 0,-0.1875 0,-0.1875 0,0.125 q 0,0.125 0.09375,0.21875 L 10.4375,10.8125 10.390625,10.765625 10.34375,10.71875 10.03125,11 9.71875,11.28125 9.765625,11.359375 9.8125,11.4375 9.71875,11.28125 Q 9.625,11.125 9.5,11 L 9.375,10.875 9.5625,11.0625 9.75,11.25 9.5,11 Q 9.25,10.75 9,10.5"
           id="path33903"
           inkscape:connector-curvature="0" />
        <path
           style="fill:#fdfdfd;fill-opacity:1"
           d="m 10.25,10.5 q 0,-0.25 0.375,-0.375 L 11,10 11,10.5 11,11 10.625,10.875 Q 10.25,10.75 10.25,10.5"
           id="path33905"
           inkscape:connector-curvature="0" />
        <path
           style="fill:#f1f1f1;fill-opacity:1"
           d="m 11,10.5 0,-0.5 0.375,0.125 q 0.375,0.125 0.375,0.375 0,0.25 -0.375,0.375 L 11,11 11,10.5"
           id="path33907"
           inkscape:connector-curvature="0" />
        <path
           style="fill:#d6d6d6;fill-opacity:1"
           d="m 11.75,10.5 0,-0.25 0,0.1875 0,0.1875 0,-0.125 q 0,-0.125 -0.09375,-0.21875 l -0.09375,-0.09375 0.04687,0.04687 0.04687,0.04687 0.3125,-0.3125 0.3125,-0.3125 L 12.234375,9.609375 12.1875,9.5625 12.28125,9.65625 Q 12.375,9.75 12.5,9.75 l 0.125,0 -0.1875,0 -0.1875,0 0.25,0 0.25,0 -0.1875,0 -0.1875,0 0.125,0 q 0.125,0 0.21875,-0.09375 L 12.8125,9.5625 12.765625,9.609375 12.71875,9.65625 13,9.96875 l 0.28125,0.3125 0.07813,-0.04687 0.07813,-0.04687 -0.15625,0.09375 Q 13.125,10.375 13,10.5 L 12.875,10.625 13.0625,10.4375 13.25,10.25 13,10.5 Q 12.75,10.75 12.5,11 L 12.25,11.25 12.4375,11.0625 12.625,10.875 12.5,11 q -0.125,0.125 -0.21875,0.28125 L 12.1875,11.4375 12.23437,11.35937 12.28124,11.28124 11.96875,11 l -0.3125,-0.28125 -0.04687,0.04687 -0.04687,0.04687 0.09375,-0.09375 Q 11.75,10.625 11.75,10.5 l 0,-0.125 0,0.1875 0,0.1875 0,-0.25"
           id="path33909"
           inkscape:connector-curvature="0" />
        <path
           style="fill:#7f7f7f;fill-opacity:1"
           d="m 13,10.5 q 0.25,-0.25 0.640625,-0.390625 L 14.03125,9.96875 14.015625,9.859375 14,9.75 14.03125,9.96875 Q 14.0625,10.1875 14.125,10.375 L 14.1875,10.5625 14.09375,10.28125 14,10 14.125,10.375 14.25,10.75 14.15625,10.46875 14.0625,10.1875 14.125,10.375 q 0.0625,0.1875 0.1875,0.3125 l 0.125,0.125 L 14.375,10.75 14.3125,10.6875 14,11 13.6875,11.3125 13.71875,11.34375 13.75,11.375 13.6875,11.3125 Q 13.625,11.25 13.5,11.25 l -0.125,0 0.1875,0 0.1875,0 -0.25,0 -0.25,0 0.1875,0 0.1875,0 -0.125,0 q -0.125,0 -0.25,0.0625 L 13.125,11.375 13.1875,11.34375 13.25,11.3125 13,11.03125 12.75,10.75 13,10.5 M 12.9375,10.5625 12.75,10.75 12.6875,10.8125 12.625,10.875 12.75,10.75 Q 12.875,10.625 13,10.5 l 0.125,-0.125 -0.1875,0.1875"
           id="path33911"
           inkscape:connector-curvature="0" />
        <path
           style="fill:#000000;fill-opacity:1"
           d="M 14.125,10.375 14,10 14.09375,10.28125 14.1875,10.5625 14.125,10.375 Q 14.0625,10.1875 14.03125,9.96875 L 14,9.75 l 0.01563,0.109375 0.01563,0.109375 0.53125,0.0625 0.53125,0.0625 0.04687,-0.07813 0.04687,-0.07812 -0.09375,0.15625 Q 15,10.25 15,10.5 l 0,0.25 0,-0.375 0,-0.375 0,0.5 q 0,0.5 -0.375,0.375 -0.375,-0.125 -0.5,-0.5"
           id="path33913"
           inkscape:connector-curvature="0" />
        <path
           style="fill:#e4e4e4;fill-opacity:1"
           d="M 15,10.5 Q 15,10 15.375,9.875 L 15.75,9.75 15.46875,9.84375 15.1875,9.9375 15.375,9.875 q 0.1875,-0.0625 0.3125,-0.1875 l 0.125,-0.125 -0.0625,0.0625 -0.0625,0.0625 0.296875,0.296875 0.296875,0.296875 0.07813,-0.04687 0.07813,-0.04687 -0.15625,0.09375 Q 16.125,10.375 16,10.5 L 15.875,10.625 16.0625,10.4375 16.25,10.25 16,10.5 q -0.25,0.25 -0.6875,0.3125 L 14.875,10.875 14.8125,10.9375 14.75,11 14.875,10.875 Q 15,10.75 15,10.5 l 0,-0.25 0,0.375 0,0.375 0,-0.5"
           id="path33915"
           inkscape:connector-curvature="0" />
        <path
           style="fill:#ededed;fill-opacity:1"
           d="m 16,10.5 q 0.25,-0.25 0.625,-0.375 L 17,10 l 0,0.5 0,0.5 0,-0.375 0,-0.375 0,0.25 q 0,0.25 -0.03125,0.46875 L 16.9375,11.1875 16.953125,11.078125 16.96875,10.96875 16.609375,11.109375 16.25,11.25 16.53125,11.15625 16.8125,11.0625 16.625,11.125 q -0.1875,0.0625 -0.3125,0.1875 l -0.125,0.125 0.0625,-0.0625 0.0625,-0.0625 -0.296875,-0.296875 -0.296875,-0.296875 -0.07813,0.04687 -0.07813,0.04687 0.15625,-0.09375 Q 15.875,10.625 16,10.5 L 16.125,10.375 15.9375,10.5625 15.75,10.75 16,10.5"
           id="path33917"
           inkscape:connector-curvature="0" />
        <path
           style="fill:#0a0a0a;fill-opacity:0.99607843"
           d="M 17,10.5 17,10 17.375,9.875 17.75,9.75 17.46875,9.84375 17.1875,9.9375 17.375,9.875 Q 17.5625,9.8125 17.6875,9.6875 L 17.8125,9.5625 17.75,9.625 17.6875,9.6875 18,10 l 0.3125,0.3125 0.0625,-0.0625 0.0625,-0.0625 -0.125,0.125 q -0.125,0.125 -0.1875,0.3125 L 18.0625,10.8125 18.15625,10.53125 18.25,10.25 18.125,10.625 18,11 17.5,11 17,11 17,10.5"
           id="path33919"
           inkscape:connector-curvature="0" />
        <path
           style="fill:#000000;fill-opacity:0.07843137"
           d="m 18.125,10.625 q 0.125,-0.375 0.5,-0.5 L 19,10 19,10.5 Q 19,11 18.5,11 l -0.5,0 0.125,-0.375"
           id="path33921"
           inkscape:connector-curvature="0" />
        <path
           style="fill:#000000;fill-opacity:0.94117647"
           d="M 4,11.5 4,11 4.515625,10.984375 5.03125,10.96875 5.015625,10.859375 5,10.75 5.03125,10.96875 Q 5.0625,11.1875 5.125,11.375 L 5.1875,11.5625 5.09375,11.28125 5,11 5.125,11.375 5.25,11.75 5.15625,11.46875 5.0625,11.1875 5.125,11.375 q 0.0625,0.1875 0.1875,0.3125 l 0.125,0.125 L 5.375,11.75 5.3125,11.6875 5,12 4.6875,12.3125 4.75,12.375 4.8125,12.4375 4.6875,12.3125 Q 4.5625,12.1875 4.375,12.125 L 4.1875,12.0625 4.46875,12.15625 4.75,12.25 4.375,12.125 4,12 4,11.5"
           id="path33923"
           inkscape:connector-curvature="0" />
        <path
           style="fill:#b6b6b6;fill-opacity:1"
           d="M 5.125,11.375 5,11 5.09375,11.28125 5.1875,11.5625 5.125,11.375 Q 5.0625,11.1875 5.03125,10.96875 L 5,10.75 5.015625,10.859375 5.03125,10.96875 5.390625,10.859375 5.75,10.75 5.46875,10.84375 5.1875,10.9375 5.375,10.875 Q 5.5625,10.8125 5.6875,10.6875 L 5.8125,10.5625 5.75,10.625 5.6875,10.6875 6,11 6.3125,11.3125 6.375,11.25 6.4375,11.1875 6.3125,11.3125 Q 6.1875,11.4375 6.125,11.625 L 6.0625,11.8125 6.15625,11.53125 6.25,11.25 6.078125,11.671875 5.90625,12.09375 5.953125,12.171875 6,12.25 5.90625,12.09375 Q 5.8125,11.9375 5.625,11.875 L 5.4375,11.8125 5.71875,11.90625 6,12 5.625,11.875 q -0.375,-0.125 -0.5,-0.5"
           id="path33925"
           inkscape:connector-curvature="0" />
        <path
           style="fill:#ffffff;fill-opacity:1"
           d="M 6.078125,11.671875 Q 6.25,11.25 6.625,11.125 L 7,11 7.125,11.375 Q 7.25,11.75 7.5,12 7.75,12.25 8,12.5 8.25,12.75 8.625,12.875 L 9,13 8.875,13.375 Q 8.75,13.75 8.34375,13.90625 L 7.9375,14.0625 8,14.125 8.0625,14.1875 7.9375,14.0625 Q 7.8125,13.9375 7.625,13.875 L 7.4375,13.8125 7.71875,13.90625 8,14 7.625,13.875 Q 7.25,13.75 7,13.5 L 6.75,13.25 6.9375,13.4375 7.125,13.625 7,13.5 Q 6.875,13.375 6.71875,13.28125 L 6.5625,13.1875 6.640625,13.234375 6.71875,13.28125 6.984375,13.015625 Q 7.25,12.75 7,12.5 6.75,12.25 6.328125,12.171875 L 5.90625,12.09375 6.078125,11.671875"
           id="path33927"
           inkscape:connector-curvature="0" />
        <path
           style="fill:#838383;fill-opacity:1"
           d="M 7.125,11.375 7,11 7.375,11.125 Q 7.75,11.25 8,11.5 L 8.25,11.75 8.0625,11.5625 7.875,11.375 8,11.5 q 0.125,0.125 0.28125,0.21875 L 8.4375,11.8125 8.359375,11.765625 8.28125,11.71875 8.015625,11.984375 7.75,12.25 7.5,12 Q 7.25,11.75 7.125,11.375 M 7.5625,12.0625 7.75,12.25 7.8125,12.3125 7.875,12.375 7.75,12.25 Q 7.625,12.125 7.5,12 l -0.125,-0.125 0.1875,0.1875"
           id="path33929"
           inkscape:connector-curvature="0" />
        <path
           style="fill:#b5b5b5;fill-opacity:1"
           d="M 8.875,11.625 8.75,11.25 8.84375,11.53125 8.9375,11.8125 8.875,11.625 Q 8.8125,11.4375 8.71875,11.28125 L 8.625,11.125 8.671875,11.203125 8.71875,11.28125 8.984375,11.015625 9.25,10.75 9.5,11 q 0.25,0.25 0.3125,0.6875 L 9.875,12.125 9.9375,12.1875 10,12.25 9.875,12.125 Q 9.75,12 9.5,12 L 9.25,12 9.625,12 10,12 9.5,12 9,12 8.875,11.625 M 9.4375,10.9375 9.25,10.75 9.1875,10.6875 9.125,10.625 9.25,10.75 Q 9.375,10.875 9.5,11 l 0.125,0.125 -0.1875,-0.1875"
           id="path33931"
           inkscape:connector-curvature="0" />
        <path
           style="fill:#ffffff;fill-opacity:1"
           d="M 9.8125,11.6875 9.75,11.25 9.84375,11.53125 9.9375,11.8125 9.875,11.625 Q 9.8125,11.4375 9.71875,11.28125 L 9.625,11.125 9.671875,11.203125 9.71875,11.28125 10.03125,11 10.34375,10.71875 10.296875,10.671875 10.25,10.625 10.34375,10.71875 Q 10.4375,10.8125 10.625,10.875 L 10.8125,10.9375 10.53125,10.84375 10.25,10.75 10.625,10.875 11,11 11.375,10.875 11.75,10.75 11.46875,10.84375 11.1875,10.9375 11.375,10.875 q 0.1875,-0.0625 0.28125,-0.15625 L 11.75,10.625 l -0.04687,0.04687 -0.04687,0.04687 0.3125,0.28125 0.3125,0.28125 0.04687,-0.07813 L 12.375,11.125 12.28125,11.28125 Q 12.1875,11.4375 12.125,11.625 L 12.0625,11.8125 12.15625,11.53125 12.25,11.25 12.125,11.625 12,12 12.09375,11.71875 12.1875,11.4375 12.125,11.625 Q 12.0625,11.8125 12.0625,12 l 0,0.1875 0,-0.09375 0,-0.09375 -0.53125,0 L 11,12 10.4375,12.0625 9.875,12.125 9.8125,11.6875"
           id="path33933"
           inkscape:connector-curvature="0" />
        <path
           style="fill:#858585;fill-opacity:1"
           d="M 12.125,11.625 Q 12.25,11.25 12.5,11 L 12.75,10.75 13,11.03125 13.25,11.3125 13.3125,11.28125 13.375,11.25 13.25,11.3125 Q 13.125,11.375 13,11.5 L 12.875,11.625 13.0625,11.4375 13.25,11.25 13,11.5 q -0.25,0.25 -0.59375,0.375 L 12.0625,12 l 0,0.09375 0,0.09375 0,-0.1875 q 0,-0.1875 0.0625,-0.375 L 12.1875,11.4375 12.09375,11.71875 12,12 12.125,11.625 M 12.8125,10.6875 12.75,10.75 12.5625,10.9375 12.375,11.125 12.5,11 q 0.125,-0.125 0.25,-0.25 l 0.125,-0.125 -0.0625,0.0625"
           id="path33935"
           inkscape:connector-curvature="0" />
        <path
           style="fill:#000000;fill-opacity:1"
           d="m 13,11.5 q 0.25,-0.25 0.5,-0.25 0.25,0 0.25,0.25 0,0.25 -0.25,0.5 l -0.25,0.25 -0.265625,-0.265625 -0.265625,-0.265625 -0.07813,0.04687 -0.07813,0.04687 0.15625,-0.09375 Q 12.875,11.625 13,11.5 L 13.125,11.375 12.9375,11.5625 12.75,11.75 13,11.5 M 13.1875,12.3125 13.25,12.25 13.4375,12.0625 13.625,11.875 13.5,12 q -0.125,0.125 -0.25,0.25 l -0.125,0.125 0.0625,-0.0625"
           id="path33937"
           inkscape:connector-curvature="0" />
        <path
           style="fill:#acacac;fill-opacity:1"
           d="m 13.75,11.5 0,-0.25 0,0.1875 0,0.1875 0,-0.125 q 0,-0.125 -0.0625,-0.1875 L 13.625,11.25 13.65625,11.28125 13.6875,11.3125 14,11 14.3125,10.6875 14.25,10.625 l -0.0625,-0.0625 0.125,0.125 q 0.125,0.125 0.3125,0.1875 L 14.8125,10.9375 14.53125,10.84375 14.25,10.75 14.625,10.875 15,11 l -0.375,0 -0.375,0 0.25,0 q 0.25,0 0.375,-0.125 L 15,10.75 14.9375,10.8125 14.875,10.875 14.8125,11.3125 Q 14.75,11.75 14.5,12 L 14.25,12.25 13.96875,12 13.6875,11.75 13.65625,11.8125 13.625,11.875 13.6875,11.75 Q 13.75,11.625 13.75,11.5 l 0,-0.125 0,0.1875 0,0.1875 0,-0.25 M 14.1875,12.3125 14.25,12.25 14.4375,12.0625 14.625,11.875 14.5,12 q -0.125,0.125 -0.25,0.25 l -0.125,0.125 0.0625,-0.0625"
           id="path33939"
           inkscape:connector-curvature="0" />
        <path
           style="fill:#ffffff;fill-opacity:1"
           d="M 14.8125,11.3125 14.875,10.875 15.3125,10.8125 15.75,10.75 15.46875,10.84375 15.1875,10.9375 15.375,10.875 q 0.1875,-0.0625 0.34375,-0.15625 L 15.875,10.625 l -0.07813,0.04687 -0.07813,0.04687 0.296875,0.296875 0.296875,0.296875 0.0625,-0.0625 0.0625,-0.0625 -0.125,0.125 q -0.125,0.125 -0.1875,0.3125 L 16.0625,11.8125 16.15625,11.53125 16.25,11.25 16.125,11.625 16,12 15.625,12.125 Q 15.25,12.25 15,12.5 14.75,12.75 14.5,13 14.25,13.25 14.15625,13.65625 L 14.0625,14.0625 13.65625,13.90625 Q 13.25,13.75 13.25,13.5 q 0,-0.25 0.25,-0.5 0.25,-0.25 0.5,-0.5 0.25,-0.25 0.5,-0.5 0.25,-0.25 0.3125,-0.6875"
           id="path33941"
           inkscape:connector-curvature="0" />
        <path
           style="fill:#868686;fill-opacity:1"
           d="M 16.125,11.625 Q 16.25,11.25 16.609375,11.109375 L 16.96875,10.96875 16.984375,10.859375 17,10.75 16.96875,10.96875 Q 16.9375,11.1875 16.875,11.375 L 16.8125,11.5625 16.90625,11.28125 17,11 16.875,11.375 q -0.125,0.375 -0.5,0.5 L 16,12 16.125,11.625 M 16.09375,11.71875 16,12 15.96875,12.09375 15.9375,12.1875 16,12 q 0.0625,-0.1875 0.125,-0.375 l 0.0625,-0.1875 -0.09375,0.28125"
           id="path33943"
           inkscape:connector-curvature="0" />
        <path
           style="fill:#000000;fill-opacity:0.79215686"
           d="M 16.875,11.375 17,11 l 0.5,0 0.5,0 0,0.5 0,0.5 -0.375,0.125 -0.375,0.125 0.28125,-0.09375 0.28125,-0.09375 -0.1875,0.0625 q -0.1875,0.0625 -0.3125,0.1875 l -0.125,0.125 L 17.25,12.375 17.3125,12.3125 17,12 16.6875,11.6875 16.625,11.75 l -0.0625,0.0625 0.125,-0.125 q 0.125,-0.125 0.1875,-0.3125 L 16.9375,11.1875 16.84375,11.46875 16.75,11.75 16.875,11.375"
           id="path33945"
           inkscape:connector-curvature="0" />
        <path
           style="fill:#000000;fill-opacity:0.30980392"
           d="M 4,12.5 4,12 4.375,12.125 q 0.375,0.125 0.5,0.5 L 5,13 4.5,13 Q 4,13 4,12.5"
           id="path33947"
           inkscape:connector-curvature="0" />
        <path
           style="fill:#2b2b2b;fill-opacity:1"
           d="M 4.875,12.625 4.75,12.25 4.84375,12.53125 4.9375,12.8125 4.875,12.625 Q 4.8125,12.4375 4.6875,12.3125 L 4.5625,12.1875 4.625,12.25 4.6875,12.3125 5,12 5.3125,11.6875 5.25,11.625 5.1875,11.5625 l 0.125,0.125 q 0.125,0.125 0.3125,0.1875 L 5.8125,11.9375 5.53125,11.84375 5.25,11.75 5.625,11.875 Q 6,12 6,12.5 L 6,13 6,12.625 6,12.25 6,12.5 q 0,0.25 0.09375,0.40625 L 6.1875,13.0625 6.140625,12.984375 6.09375,12.90625 5.546875,12.953125 5,13 4.875,12.625"
           id="path33949"
           inkscape:connector-curvature="0" />
        <path
           style="fill:#fafafa;fill-opacity:1"
           d="M 6,12.5 6,12 6,12.375 6,12.75 6,12.5 Q 6,12.25 5.90625,12.09375 L 5.8125,11.9375 5.859375,12.01563 5.90625,12.09376 6.328125,12.17189 Q 6.75,12.25 7,12.5 7.25,12.75 6.984375,13.015625 L 6.71875,13.28125 6.796875,13.328125 6.875,13.375 6.71875,13.28125 Q 6.5625,13.1875 6.375,13.125 L 6.1875,13.0625 6.46875,13.15625 6.75,13.25 6.375,13.125 Q 6,13 6,12.5"
           id="path33951"
           inkscape:connector-curvature="0" />
        <path
           style="fill:#727272;fill-opacity:1"
           d="M 8,12.5 7.75,12.25 8.015625,11.984375 8.28125,11.71875 8.203125,11.671875 8.125,11.625 8.28125,11.71875 Q 8.4375,11.8125 8.625,11.875 L 8.8125,11.9375 8.53125,11.84375 8.25,11.75 8.625,11.875 9,12 9,12.5 9,13 8.625,12.875 Q 8.25,12.75 8,12.5 M 7.6875,12.1875 7.75,12.25 7.9375,12.4375 8.125,12.625 8,12.5 Q 7.875,12.375 7.75,12.25 l -0.125,-0.125 0.0625,0.0625"
           id="path33953"
           inkscape:connector-curvature="0" />
        <path
           style="fill:#3e3e3e;fill-opacity:1"
           d="M 9,12.5 9,12 9.5,12 Q 10,12 10,12.5 10,13 9.5,13 L 9,13 9,12.5"
           id="path33955"
           inkscape:connector-curvature="0" />
        <path
           style="fill:#f5f5f5;fill-opacity:1"
           d="m 10,12.5 0,-0.5 0,0.375 0,0.375 0,-0.25 Q 10,12.25 9.875,12.125 L 9.75,12 9.8125,12.0625 9.875,12.125 10.4375,12.0625 11,12 10.875,12.375 Q 10.75,12.75 10.3125,12.8125 L 9.875,12.875 9.8125,12.9375 9.75,13 9.875,12.875 Q 10,12.75 10,12.5 l 0,-0.25 0,0.375 0,0.375 0,-0.5"
           id="path33957"
           inkscape:connector-curvature="0" />
        <path
           style="fill:#e4e4e4;fill-opacity:1"
           d="M 10.875,12.375 11,12 l 0.53125,0 0.53125,0 0,-0.09375 0,-0.09375 0,0.1875 q 0,0.1875 0.0625,0.375 L 12.1875,12.5625 12.09375,12.28125 12,12 12.125,12.375 12.25,12.75 12.15625,12.46875 12.0625,12.1875 12.125,12.375 q 0.0625,0.1875 0.15625,0.28125 L 12.375,12.75 12.328125,12.703125 12.28125,12.65625 12.015625,12.984375 11.75,13.3125 11.8125,13.34375 11.875,13.375 11.75,13.3125 Q 11.625,13.25 11.5,13.25 l -0.125,0 0.1875,0 0.1875,0 -0.25,0 -0.25,0 0.1875,0 0.1875,0 -0.125,0 q -0.125,0 -0.21875,0.09375 L 11.1875,13.4375 11.23437,13.39063 11.28124,13.34376 10.984375,13.015625 10.6875,12.6875 10.625,12.75 l -0.0625,0.0625 0.125,-0.125 q 0.125,-0.125 0.1875,-0.3125 L 10.9375,12.1875 10.84375,12.46875 10.75,12.75 10.875,12.375"
           id="path33959"
           inkscape:connector-curvature="0" />
        <path
           style="fill:#252525;fill-opacity:1"
           d="M 12.125,12.375 12,12 12.09375,12.28125 12.1875,12.5625 12.125,12.375 Q 12.0625,12.1875 12.0625,12 l 0,-0.1875 0,0.09375 0,0.09375 0.34375,-0.125 L 12.75,11.75 12.46875,11.84375 12.1875,11.9375 12.375,11.875 q 0.1875,-0.0625 0.34375,-0.15625 L 12.875,11.625 12.79687,11.67187 12.71874,11.71874 12.984365,11.984365 13.25,12.25 13,12.5 q -0.25,0.25 -0.5,0.25 -0.25,0 -0.375,-0.375 M 13.0625,12.4375 13.25,12.25 13.3125,12.1875 13.375,12.125 13.25,12.25 Q 13.125,12.375 13,12.5 l -0.125,0.125 0.1875,-0.1875"
           id="path33961"
           inkscape:connector-curvature="0" />
        <path
           style="fill:#999999;fill-opacity:1"
           d="M 13,12.5 Q 13.25,12.25 13.5,12 L 13.75,11.75 13.5625,11.9375 13.375,12.125 13.5,12 q 0.125,-0.125 0.1875,-0.25 L 13.75,11.625 13.71875,11.6875 13.6875,11.75 13.96875,12 14.25,12.25 14,12.5 Q 13.75,12.75 13.5,13 L 13.25,13.25 13.4375,13.0625 13.625,12.875 13.5,13 q -0.125,0.125 -0.1875,0.25 L 13.25,13.375 13.28125,13.3125 13.3125,13.25 13.03125,12.96875 12.75,12.6875 12.6875,12.71875 12.625,12.75 12.75,12.6875 Q 12.875,12.625 13,12.5 L 13.125,12.375 12.9375,12.5625 12.75,12.75 13,12.5 M 14.0625,12.4375 14.25,12.25 14.3125,12.1875 14.375,12.125 14.25,12.25 Q 14.125,12.375 14,12.5 l -0.125,0.125 0.1875,-0.1875"
           id="path33963"
           inkscape:connector-curvature="0" />
        <path
           style="fill:#e2e2e2;fill-opacity:1"
           d="m 15,12.5 q 0.25,-0.25 0.625,-0.375 L 16,12 15.875,12.375 Q 15.75,12.75 15.5,13 L 15.25,13.25 15,13 14.75,12.75 15,12.5 M 14.9375,12.5625 14.75,12.75 14.6875,12.8125 14.625,12.875 14.75,12.75 Q 14.875,12.625 15,12.5 l 0.125,-0.125 -0.1875,0.1875 m 0.25,0.75 L 15.25,13.25 15.4375,13.0625 15.625,12.875 15.5,13 q -0.125,0.125 -0.25,0.25 l -0.125,0.125 0.0625,-0.0625"
           id="path33965"
           inkscape:connector-curvature="0" />
        <path
           style="fill:#101010;fill-opacity:0.99607843"
           d="M 15.875,12.375 16,12 16.375,11.875 16.75,11.75 16.46875,11.84375 16.1875,11.9375 16.375,11.875 q 0.1875,-0.0625 0.3125,-0.1875 l 0.125,-0.125 L 16.75,11.625 16.6875,11.6875 17,12 l 0.3125,0.3125 0.0625,-0.0625 0.0625,-0.0625 -0.125,0.125 q -0.125,0.125 -0.1875,0.3125 L 17.0625,12.8125 17.15625,12.53125 17.25,12.25 17.125,12.625 17,13 16.625,13.125 16.25,13.25 16.53125,13.15625 16.8125,13.0625 16.625,13.125 q -0.1875,0.0625 -0.34375,0.15625 L 16.125,13.375 16.203125,13.328125 16.28125,13.28125 16,13 15.71875,12.71875 15.671875,12.796875 15.625,12.875 15.71875,12.71875 Q 15.8125,12.5625 15.875,12.375 L 15.9375,12.1875 15.84375,12.46875 15.75,12.75 15.875,12.375 M 16.03125,11.90625 16,12 15.90625,12.28125 15.8125,12.5625 15.875,12.375 Q 15.9375,12.1875 16,12 l 0.0625,-0.1875 -0.03125,0.09375"
           id="path33967"
           inkscape:connector-curvature="0" />
        <path
           style="fill:#000000;fill-opacity:0.12156863"
           d="m 17.125,12.625 q 0.125,-0.375 0.5,-0.5 L 18,12 18,12.5 Q 18,13 17.5,13 l -0.5,0 0.125,-0.375"
           id="path33969"
           inkscape:connector-curvature="0" />
        <path
           style="fill:#000000;fill-opacity:0.71764706"
           d="M 5,13.5 5,13 5.546875,12.953125 6.09375,12.90625 6.171875,13.328125 6.25,13.75 6.15625,13.46875 6.0625,13.1875 6.125,13.375 q 0.0625,0.1875 0.15625,0.34375 L 6.375,13.875 6.328125,13.796875 6.28125,13.71875 5.984375,14.015625 5.6875,14.3125 5.75,14.375 5.8125,14.4375 5.6875,14.3125 Q 5.5625,14.1875 5.375,14.125 L 5.1875,14.0625 5.46875,14.15625 5.75,14.25 5.375,14.125 Q 5,14 5,13.5"
           id="path33971"
           inkscape:connector-curvature="0" />
        <path
           style="fill:#5c5c5c;fill-opacity:1"
           d="M 6.171875,13.328125 6.09375,12.90625 6.046875,12.828125 6,12.75 6.09375,12.90625 Q 6.1875,13.0625 6.375,13.125 L 6.5625,13.1875 6.28125,13.09375 6,13 6.375,13.125 Q 6.75,13.25 7,13.5 L 7.25,13.75 7.0625,13.5625 6.875,13.375 7,13.5 q 0.125,0.125 0.28125,0.21875 L 7.4375,13.8125 7.359375,13.765625 7.28125,13.71875 7.015625,13.984375 6.75,14.25 6.5,14 Q 6.25,13.75 6.171875,13.328125 M 6.5625,14.0625 6.75,14.25 6.8125,14.3125 6.875,14.375 6.75,14.25 Q 6.625,14.125 6.5,14 l -0.125,-0.125 0.1875,0.1875"
           id="path33973"
           inkscape:connector-curvature="0" />
        <path
           style="fill:#a8a8a8;fill-opacity:1"
           d="M 8.875,13.375 9,13 9.5,13 10,13 9.625,13 9.25,13 9.5,13 q 0.25,0 0.375,-0.125 L 10,12.75 9.9375,12.8125 9.875,12.875 9.8125,13.3125 Q 9.75,13.75 9.5,14 L 9.25,14.25 9.4375,14.0625 9.625,13.875 9.5,14 Q 9.375,14.125 9.28125,14.28125 L 9.1875,14.4375 9.234375,14.359375 9.28125,14.28125 8.984375,13.984375 8.6875,13.6875 8.625,13.75 8.5625,13.8125 8.6875,13.6875 Q 8.8125,13.5625 8.875,13.375 L 8.9375,13.1875 8.84375,13.46875 8.75,13.75 8.875,13.375"
           id="path33975"
           inkscape:connector-curvature="0" />
        <path
           style="fill:#b8b8b8;fill-opacity:1"
           d="M 9.8125,13.3125 9.875,12.875 10.3125,12.8125 10.75,12.75 10.46875,12.84375 10.1875,12.9375 10.375,12.875 q 0.1875,-0.0625 0.3125,-0.1875 l 0.125,-0.125 -0.0625,0.0625 -0.0625,0.0625 0.296875,0.328125 0.296875,0.328125 0.04687,-0.04687 L 11.375,13.25 11.28125,13.34375 Q 11.1875,13.4375 11.125,13.625 L 11.0625,13.8125 11.15625,13.53125 11.25,13.25 11.125,13.625 11,14 10.625,14.125 10.25,14.25 10.53125,14.15625 10.8125,14.0625 10.625,14.125 q -0.1875,0.0625 -0.3125,0.1875 l -0.125,0.125 L 10.25,14.375 10.3125,14.3125 10.015625,14.015625 9.71875,13.71875 9.671875,13.796875 9.625,13.875 9.71875,13.71875 Q 9.8125,13.5625 9.875,13.375 L 9.9375,13.1875 9.84375,13.46875 9.75,13.75 9.8125,13.3125"
           id="path33977"
           inkscape:connector-curvature="0" />
        <path
           style="fill:#969696;fill-opacity:1"
           d="M 11.125,13.625 Q 11.25,13.25 11.5,13.25 q 0.25,0 0.5,0.25 l 0.25,0.25 -0.28125,0.28125 -0.28125,0.28125 0.0625,0.0625 0.0625,0.0625 -0.125,-0.125 Q 11.5625,14.1875 11.375,14.125 L 11.1875,14.0625 11.46875,14.15625 11.75,14.25 11.375,14.125 11,14 11.125,13.625 M 12.3125,13.8125 12.25,13.75 12.0625,13.5625 11.875,13.375 12,13.5 q 0.125,0.125 0.25,0.25 l 0.125,0.125 -0.0625,-0.0625"
           id="path33979"
           inkscape:connector-curvature="0" />
        <path
           style="fill:#c0c0c0;fill-opacity:1"
           d="M 12,13.5 11.75,13.25 11.9375,13.4375 12.125,13.625 12,13.5 q -0.125,-0.125 -0.25,-0.1875 l -0.125,-0.0625 0.0625,0.03125 0.0625,0.03125 0.265625,-0.328125 0.265625,-0.328125 -0.04687,-0.04687 -0.04687,-0.04687 0.09375,0.09375 Q 12.375,12.75 12.5,12.75 l 0.125,0 -0.1875,0 -0.1875,0 0.25,0 0.25,0 -0.1875,0 -0.1875,0 0.125,0 q 0.125,0 0.25,-0.0625 L 12.875,12.625 12.8125,12.65625 12.75,12.6875 13.03125,12.96875 13.3125,13.25 13.34375,13.1875 13.375,13.125 13.3125,13.25 Q 13.25,13.375 13.25,13.5 l 0,0.125 0,-0.1875 0,-0.1875 0,0.25 0,0.25 0,-0.1875 0,-0.1875 0,0.125 q 0,0.125 0.09375,0.21875 l 0.09375,0.09375 -0.04687,-0.04687 -0.04687,-0.04687 -0.3125,0.28125 -0.3125,0.28125 0.04687,0.07813 0.04687,0.07813 -0.09375,-0.15625 Q 12.625,14.125 12.5,14 L 12.375,13.875 12.5625,14.0625 12.75,14.25 12.5,14 Q 12.25,13.75 12,13.5"
           id="path33981"
           inkscape:connector-curvature="0" />
        <path
           style="fill:#f4f4f4;fill-opacity:1"
           d="M 14.15625,13.65625 Q 14.25,13.25 14.5,13 L 14.75,12.75 15,13 15.25,13.25 15,13.5 q -0.25,0.25 -0.625,0.375 L 14,14 14.28125,13.90625 14.5625,13.8125 14.375,13.875 q -0.1875,0.0625 -0.3125,0.1875 l -0.125,0.125 L 14,14.125 14.0625,14.0625 14.15625,13.65625 M 15.0625,13.4375 15.25,13.25 15.3125,13.1875 15.375,13.125 15.25,13.25 Q 15.125,13.375 15,13.5 l -0.125,0.125 0.1875,-0.1875 m -0.25,-0.75 L 14.75,12.75 14.5625,12.9375 14.375,13.125 14.5,13 q 0.125,-0.125 0.25,-0.25 l 0.125,-0.125 -0.0625,0.0625"
           id="path33983"
           inkscape:connector-curvature="0" />
        <path
           style="fill:#373737;fill-opacity:1"
           d="M 15,13.5 Q 15.25,13.25 15.5,13 L 15.75,12.75 15.5625,12.9375 15.375,13.125 15.5,13 q 0.125,-0.125 0.21875,-0.28125 L 15.8125,12.5625 15.76563,12.64063 15.71876,12.71876 16,13 l 0.28125,0.28125 0.07813,-0.04687 0.07813,-0.04687 -0.15625,0.09375 Q 16.125,13.375 16,13.5 L 15.875,13.625 16.0625,13.4375 16.25,13.25 16,13.5 q -0.25,0.25 -0.5,0.5 l -0.25,0.25 -0.265625,-0.265625 -0.265625,-0.265625 -0.07813,0.04687 -0.07813,0.04687 0.15625,-0.09375 Q 14.875,13.625 15,13.5 L 15.125,13.375 14.9375,13.5625 14.75,13.75 15,13.5 M 15.1875,14.3125 15.25,14.25 15.4375,14.0625 15.625,13.875 15.5,14 q -0.125,0.125 -0.25,0.25 l -0.125,0.125 0.0625,-0.0625"
           id="path33985"
           inkscape:connector-curvature="0" />
        <path
           style="fill:#000000;fill-opacity:0.45882353"
           d="m 16,13.5 q 0.25,-0.25 0.625,-0.375 L 17,13 l 0,0.5 q 0,0.5 -0.375,0.625 L 16.25,14.25 16.53125,14.15625 16.8125,14.0625 16.625,14.125 q -0.1875,0.0625 -0.3125,0.1875 l -0.125,0.125 L 16.25,14.375 16.3125,14.3125 16.03125,14.03125 15.75,13.75 16,13.5 M 15.9375,13.5625 15.75,13.75 15.6875,13.8125 15.625,13.875 15.75,13.75 Q 15.875,13.625 16,13.5 l 0.125,-0.125 -0.1875,0.1875"
           id="path33987"
           inkscape:connector-curvature="0" />
        <path
           style="fill:#000000;fill-opacity:0.81176471"
           d="M 5.875,14.625 5.75,14.25 5.84375,14.53125 5.9375,14.8125 5.875,14.625 Q 5.8125,14.4375 5.6875,14.3125 L 5.5625,14.1875 5.625,14.25 5.6875,14.3125 5.984375,14.015625 6.28125,13.71875 6.234375,13.640625 6.1875,13.5625 6.28125,13.71875 Q 6.375,13.875 6.5,14 L 6.625,14.125 6.4375,13.9375 6.25,13.75 6.5,14 Q 6.75,14.25 7,14.5 L 7.25,14.75 6.96875,15.03125 6.6875,15.3125 6.75,15.375 6.8125,15.4375 6.6875,15.3125 Q 6.5625,15.1875 6.375,15.125 L 6.1875,15.0625 6.46875,15.15625 6.75,15.25 6.375,15.125 Q 6,15 5.875,14.625 M 7.3125,14.8125 7.25,14.75 7.0625,14.5625 6.875,14.375 7,14.5 q 0.125,0.125 0.25,0.25 l 0.125,0.125 -0.0625,-0.0625"
           id="path33989"
           inkscape:connector-curvature="0" />
        <path
           style="fill:#525252;fill-opacity:1"
           d="M 7,14.5 6.75,14.25 7.015625,13.984375 7.28125,13.71875 7.203125,13.671875 7.125,13.625 7.28125,13.71875 Q 7.4375,13.8125 7.625,13.875 L 7.8125,13.9375 7.53125,13.84375 7.25,13.75 7.625,13.875 Q 8,14 8.125,14.375 L 8.25,14.75 8.15625,14.46875 8.0625,14.1875 8.125,14.375 q 0.0625,0.1875 0.1875,0.3125 l 0.125,0.125 L 8.375,14.75 8.3125,14.6875 8,14.96875 7.6875,15.25 7.71875,15.3125 7.75,15.375 7.6875,15.25 Q 7.625,15.125 7.5,15 L 7.375,14.875 7.5625,15.0625 7.75,15.25 7.5,15 Q 7.25,14.75 7,14.5 M 6.6875,14.1875 6.75,14.25 6.9375,14.4375 7.125,14.625 7,14.5 Q 6.875,14.375 6.75,14.25 l -0.125,-0.125 0.0625,0.0625"
           id="path33991"
           inkscape:connector-curvature="0" />
        <path
           style="fill:#bfbfbf;fill-opacity:1"
           d="M 8.125,14.375 8,14 8.09375,14.28125 8.1875,14.5625 8.125,14.375 Q 8.0625,14.1875 7.9375,14.0625 L 7.8125,13.9375 7.875,14 7.9375,14.0625 8.34375,13.90625 8.75,13.75 8.46875,13.84375 8.1875,13.9375 8.375,13.875 Q 8.5625,13.8125 8.6875,13.6875 L 8.8125,13.5625 8.75,13.625 8.6875,13.6875 8.984375,13.984375 9.28125,14.28125 9.328125,14.203125 9.375,14.125 9.28125,14.28125 Q 9.1875,14.4375 9.125,14.625 L 9.0625,14.8125 9.15625,14.53125 9.25,14.25 9.125,14.625 9,15 9.09375,14.71875 9.1875,14.4375 9.125,14.625 Q 9.0625,14.8125 9.03125,15.03125 L 9,15.25 9.015625,15.140625 9.03125,15.03125 8.640625,14.890625 Q 8.25,14.75 8.125,14.375"
           id="path33993"
           inkscape:connector-curvature="0" />
        <path
           style="fill:#8d8d8d;fill-opacity:1"
           d="M 9.125,14.625 Q 9.25,14.25 9.5,14 L 9.75,13.75 9.5625,13.9375 9.375,14.125 9.5,14 Q 9.625,13.875 9.71875,13.71875 L 9.8125,13.5625 9.765625,13.640625 9.71875,13.71875 10.015625,14.015625 10.3125,14.3125 10.375,14.25 l 0.0625,-0.0625 -0.125,0.125 q -0.125,0.125 -0.1875,0.3125 L 10.0625,14.8125 10.15625,14.53125 10.25,14.25 10.125,14.625 10,15 9.5,15 9,15 9.125,14.625"
           id="path33995"
           inkscape:connector-curvature="0" />
        <path
           style="fill:#f7f7f7;fill-opacity:1"
           d="m 10.125,14.625 q 0.125,-0.375 0.5,-0.5 L 11,14 l 0,0.5 0,0.5 -0.5,0 -0.5,0 0.125,-0.375"
           id="path33997"
           inkscape:connector-curvature="0" />
        <path
           style="fill:#ebebeb;fill-opacity:1"
           d="m 11,14.5 0,-0.5 0.375,0.125 q 0.375,0.125 0.5,0.5 L 12,15 11.5,15 11,15 11,14.5"
           id="path33999"
           inkscape:connector-curvature="0" />
        <path
           style="fill:#949494;fill-opacity:1"
           d="M 11.875,14.625 11.75,14.25 11.84375,14.53125 11.9375,14.8125 11.875,14.625 q -0.0625,-0.1875 -0.1875,-0.3125 l -0.125,-0.125 0.0625,0.0625 0.0625,0.0625 0.28125,-0.28125 L 12.25,13.75 12.5,14 q 0.25,0.25 0.421875,0.671875 L 13.09375,15.09375 12.546875,15.046875 12,15 11.875,14.625 M 12.4375,13.9375 12.25,13.75 12.1875,13.6875 12.125,13.625 12.25,13.75 q 0.125,0.125 0.25,0.25 l 0.125,0.125 -0.1875,-0.1875"
           id="path34001"
           inkscape:connector-curvature="0" />
        <path
           style="fill:#bdbdbd;fill-opacity:1"
           d="M 12.921875,14.671875 12.75,14.25 12.84375,14.53125 12.9375,14.8125 12.875,14.625 Q 12.8125,14.4375 12.71875,14.28125 L 12.625,14.125 12.67187,14.20313 12.71874,14.28126 13.03125,14 13.34375,13.71875 13.296875,13.671875 13.25,13.625 13.34375,13.71875 Q 13.4375,13.8125 13.625,13.875 L 13.8125,13.9375 13.53125,13.84375 13.25,13.75 13.65625,13.90625 14.0625,14.0625 14.125,14 l 0.0625,-0.0625 -0.125,0.125 q -0.125,0.125 -0.1875,0.3125 L 13.8125,14.5625 13.90625,14.28125 14,14 13.875,14.375 q -0.125,0.375 -0.5,0.5 L 13,15 13.28125,14.90625 13.5625,14.8125 13.375,14.875 q -0.1875,0.0625 -0.28125,0.21875 L 13,15.25 l 0.04687,-0.07813 0.04687,-0.07813 -0.171875,-0.421875"
           id="path34003"
           inkscape:connector-curvature="0" />
        <path
           style="fill:#343434;fill-opacity:1"
           d="M 13.875,14.375 Q 14,14 14.375,13.875 L 14.75,13.75 14.46875,13.84375 14.1875,13.9375 14.375,13.875 q 0.1875,-0.0625 0.34375,-0.15625 L 14.875,13.625 14.79687,13.67187 14.71874,13.71874 14.984365,13.984365 15.25,14.25 15,14.5 Q 14.75,14.75 14.5,15 L 14.25,15.25 14.4375,15.0625 14.625,14.875 14.5,15 q -0.125,0.125 -0.1875,0.25 L 14.25,15.375 14.28125,15.3125 14.3125,15.25 14,14.96875 13.6875,14.6875 13.625,14.75 l -0.0625,0.0625 0.125,-0.125 q 0.125,-0.125 0.1875,-0.3125 L 13.9375,14.1875 13.84375,14.46875 13.75,14.75 13.875,14.375 M 15.0625,14.4375 15.25,14.25 15.3125,14.1875 15.375,14.125 15.25,14.25 Q 15.125,14.375 15,14.5 l -0.125,0.125 0.1875,-0.1875"
           id="path34005"
           inkscape:connector-curvature="0" />
        <path
           style="fill:#000000;fill-opacity:0.60784314"
           d="m 15,14.5 q 0.25,-0.25 0.5,-0.5 l 0.25,-0.25 0.28125,0.28125 0.28125,0.28125 0.0625,-0.0625 0.0625,-0.0625 -0.125,0.125 q -0.125,0.125 -0.1875,0.3125 L 16.0625,14.8125 16.15625,14.53125 16.25,14.25 16.125,14.625 Q 16,15 15.625,15.125 L 15.25,15.25 15.53125,15.15625 15.8125,15.0625 15.625,15.125 q -0.1875,0.0625 -0.3125,0.1875 l -0.125,0.125 L 15.25,15.375 15.3125,15.3125 15.03125,15.03125 14.75,14.75 15,14.5 M 14.9375,14.5625 14.75,14.75 14.6875,14.8125 14.625,14.875 14.75,14.75 Q 14.875,14.625 15,14.5 l 0.125,-0.125 -0.1875,0.1875 m 0.875,-0.875 L 15.75,13.75 15.5625,13.9375 15.375,14.125 15.5,14 q 0.125,-0.125 0.25,-0.25 l 0.125,-0.125 -0.0625,0.0625"
           id="path34007"
           inkscape:connector-curvature="0" />
        <path
           style="fill:#000000;fill-opacity:0.67058824"
           d="M 6.875,15.625 6.75,15.25 6.84375,15.53125 6.9375,15.8125 6.875,15.625 Q 6.8125,15.4375 6.6875,15.3125 L 6.5625,15.1875 6.625,15.25 6.6875,15.3125 6.96875,15.03125 7.25,14.75 7.5,15 q 0.25,0.25 0.25,0.5 0,0.25 -0.375,0.375 L 7,16 6.875,15.625 M 7.4375,14.9375 7.25,14.75 7.1875,14.6875 7.125,14.625 7.25,14.75 Q 7.375,14.875 7.5,15 l 0.125,0.125 -0.1875,-0.1875"
           id="path34009"
           inkscape:connector-curvature="0" />
        <path
           style="fill:#222222;fill-opacity:1"
           d="m 7.75,15.5 0,-0.25 0,0.1875 0,0.1875 0,-0.125 q 0,-0.125 -0.0625,-0.25 L 7.625,15.125 7.65625,15.1875 7.6875,15.25 8,14.96875 8.3125,14.6875 8.25,14.625 8.1875,14.5625 l 0.125,0.125 q 0.125,0.125 0.3125,0.1875 L 8.8125,14.9375 8.53125,14.84375 8.25,14.75 8.640625,14.890625 9.03125,15.03125 9.046875,14.921875 9.0625,14.8125 9.03125,15.03125 Q 9,15.25 9,15.5 L 9,15.75 9,15.375 9,15 9,15.5 9,16 8.625,16.125 8.25,16.25 8.53125,16.15625 8.8125,16.0625 8.625,16.125 Q 8.4375,16.1875 8.3125,16.3125 L 8.1875,16.4375 8.25,16.375 8.3125,16.3125 7.984375,16.015625 7.65625,15.71875 7.609375,15.765625 7.5625,15.8125 7.65625,15.71875 Q 7.75,15.625 7.75,15.5 l 0,-0.125 0,0.1875 0,0.1875 0,-0.25 M 9,16.125 9,16 9,15.625 9,15.25 9,15.5 q 0,0.25 0,0.5 l 0,0.25 0,-0.125"
           id="path34011"
           inkscape:connector-curvature="0" />
        <path
           style="fill:#868686;fill-opacity:1"
           d="M 9,15.5 9,15 9.5,15 10,15 10.125,15.375 10.25,15.75 10.15625,15.46875 10.0625,15.1875 10.125,15.375 q 0.0625,0.1875 0.1875,0.3125 l 0.125,0.125 L 10.375,15.75 10.3125,15.6875 10,16 9.6875,16.3125 9.75,16.375 9.8125,16.4375 9.6875,16.3125 Q 9.5625,16.1875 9.375,16.125 L 9.1875,16.0625 9.46875,16.15625 9.75,16.25 9.375,16.125 9,16 9,15.5"
           id="path34013"
           inkscape:connector-curvature="0" />
        <path
           style="fill:#d9d9d9;fill-opacity:1"
           d="M 10.125,15.375 10,15 l 0.5,0 0.5,0 0,0.5 0,0.5 -0.375,-0.125 q -0.375,-0.125 -0.5,-0.5"
           id="path34015"
           inkscape:connector-curvature="0" />
        <path
           style="fill:#cdcdcd;fill-opacity:1"
           d="m 11,15.5 0,-0.5 0.5,0 0.5,0 -0.125,0.375 q -0.125,0.375 -0.5,0.5 L 11,16 11,15.5"
           id="path34017"
           inkscape:connector-curvature="0" />
        <path
           style="fill:#7f7f7f;fill-opacity:1"
           d="M 11.875,15.375 12,15 l 0.546875,0.04687 0.546875,0.04687 0.04687,-0.07813 0.04687,-0.07813 -0.09375,0.15625 Q 13,15.25 13,15.5 l 0,0.25 0,-0.375 0,-0.375 0,0.5 0,0.5 0,-0.375 0,-0.375 0,0.25 q 0,0.25 0.09375,0.40625 L 13.1875,16.0625 13.14063,15.98437 13.09376,15.90624 12.671885,16.078115 12.25,16.25 12.53125,16.15625 12.8125,16.0625 12.625,16.125 q -0.1875,0.0625 -0.34375,0.15625 L 12.125,16.375 12.203125,16.328125 12.28125,16.28125 11.984375,15.984375 11.6875,15.6875 11.625,15.75 l -0.0625,0.0625 0.125,-0.125 q 0.125,-0.125 0.1875,-0.3125 L 11.9375,15.1875 11.84375,15.46875 11.75,15.75 11.875,15.375"
           id="path34019"
           inkscape:connector-curvature="0" />
        <path
           style="fill:#151515;fill-opacity:1"
           d="M 13,15.5 Q 13,15 13.375,14.875 L 13.75,14.75 13.46875,14.84375 13.1875,14.9375 13.375,14.875 q 0.1875,-0.0625 0.3125,-0.1875 l 0.125,-0.125 L 13.75,14.625 13.6875,14.6875 14,14.96875 14.3125,15.25 14.34375,15.1875 14.375,15.125 14.3125,15.25 Q 14.25,15.375 14.25,15.5 l 0,0.125 0,-0.1875 0,-0.1875 0,0.25 0,0.25 0,-0.1875 0,-0.1875 0,0.125 q 0,0.125 0.09375,0.21875 L 14.4375,15.8125 14.390625,15.765625 14.34375,15.71875 14,16 13.65625,16.28125 13.70312,16.32812 13.75,16.375 13.65625,16.28125 Q 13.5625,16.1875 13.375,16.125 L 13.1875,16.0625 13.46875,16.15625 13.75,16.25 13.375,16.125 Q 13,16 13,15.5"
           id="path34021"
           inkscape:connector-curvature="0" />
        <path
           style="fill:#000000;fill-opacity:0.4627451"
           d="m 14.25,15.5 q 0,-0.25 0.25,-0.5 l 0.25,-0.25 0.28125,0.28125 0.28125,0.28125 0.0625,-0.0625 0.0625,-0.0625 -0.125,0.125 q -0.125,0.125 -0.1875,0.3125 L 15.0625,15.8125 15.15625,15.53125 15.25,15.25 15.125,15.625 15,16 14.625,15.875 Q 14.25,15.75 14.25,15.5 M 14.8125,14.6875 14.75,14.75 14.5625,14.9375 14.375,15.125 14.5,15 q 0.125,-0.125 0.25,-0.25 l 0.125,-0.125 -0.0625,0.0625"
           id="path34023"
           inkscape:connector-curvature="0" />
        <path
           style="fill:#000000;fill-opacity:0.04705882"
           d="M 6,16.5 Q 6,16 6.5,16 L 7,16 7,16.5 7,17 6.5,17 6,17 6,16.5"
           id="path34025"
           inkscape:connector-curvature="0" />
        <path
           style="fill:#060606;fill-opacity:0.99607843"
           d="M 7,16.5 7,16 7.375,15.875 7.75,15.75 7.46875,15.84375 7.1875,15.9375 7.375,15.875 Q 7.5625,15.8125 7.65625,15.71875 L 7.75,15.625 7.703125,15.671875 7.65625,15.71875 7.984375,16.015625 8.3125,16.3125 8.375,16.25 8.4375,16.1875 8.3125,16.3125 Q 8.1875,16.4375 8.125,16.625 L 8.0625,16.8125 8.15625,16.53125 8.25,16.25 8.125,16.625 8,17 8,16.625 8,16.25 8,16.5 q 0,0.25 0.125,0.375 L 8.25,17 8.1875,16.9375 8.125,16.875 7.5625,16.9375 7,17 7,16.5"
           id="path34027"
           inkscape:connector-curvature="0" />
        <path
           style="fill:#f1f1f1;fill-opacity:1"
           d="m 8.125,16.625 q 0.125,-0.375 0.5,-0.5 L 9,16 9,16.5 9,17 8.5,17 Q 8,17 8.125,16.625 M 8.625,17 9,17 9.125,17 9.25,17 9,17 q -0.25,0 -0.5,0 l -0.25,0 0.375,0 M 9,16.375 9,16 9,15.875 9,15.75 9,16 q 0,0.25 0,0.5 l 0,0.25 0,-0.375"
           id="path34029"
           inkscape:connector-curvature="0" />
        <path
           style="fill:#989898;fill-opacity:1"
           d="M 9,16.5 9,16 9.375,16.125 q 0.375,0.125 0.5,0.5 L 10,17 9.5,17 9,17 9,16.5 M 8.875,17 9,17 9.375,17 9.75,17 9.5,17 Q 9.25,17 9,17 l -0.25,0 0.125,0"
           id="path34031"
           inkscape:connector-curvature="0" />
        <path
           style="fill:#7b7b7b;fill-opacity:1"
           d="M 9.875,16.625 9.75,16.25 9.84375,16.53125 9.9375,16.8125 9.875,16.625 Q 9.8125,16.4375 9.6875,16.3125 L 9.5625,16.1875 9.625,16.25 9.6875,16.3125 10,16 10.3125,15.6875 10.25,15.625 l -0.0625,-0.0625 0.125,0.125 q 0.125,0.125 0.3125,0.1875 L 10.8125,15.9375 10.53125,15.84375 10.25,15.75 10.625,15.875 11,16 11,16.5 11,17 10.5,17 10,17 9.875,16.625"
           id="path34033"
           inkscape:connector-curvature="0" />
        <path
           style="fill:#585858;fill-opacity:1"
           d="M 11,16.5 11,16 11.375,15.875 11.75,15.75 11.46875,15.84375 11.1875,15.9375 11.375,15.875 q 0.1875,-0.0625 0.3125,-0.1875 l 0.125,-0.125 -0.0625,0.0625 -0.0625,0.0625 0.296875,0.296875 0.296875,0.296875 0.07813,-0.04687 0.07813,-0.04687 -0.15625,0.09375 Q 12.125,16.375 12,16.5 L 11.875,16.625 12.0625,16.4375 12.25,16.25 12,16.5 q -0.25,0.25 -0.625,0.375 L 11,17 11,16.5"
           id="path34035"
           inkscape:connector-curvature="0" />
        <path
           style="fill:#c8c8c8;fill-opacity:1"
           d="m 12,16.5 q 0.25,-0.25 0.671875,-0.421875 L 13.09375,15.90625 13.046875,16.453125 13,17 12.625,17.125 12.25,17.25 12.53125,17.15625 12.8125,17.0625 12.625,17.125 q -0.1875,0.0625 -0.3125,0.1875 l -0.125,0.125 0.0625,-0.0625 0.0625,-0.0625 -0.296875,-0.296875 -0.296875,-0.296875 -0.07813,0.04687 -0.07813,0.04687 0.15625,-0.09375 Q 11.875,16.625 12,16.5 L 12.125,16.375 11.9375,16.5625 11.75,16.75 12,16.5"
           id="path34037"
           inkscape:connector-curvature="0" />
        <path
           style="fill:#c5c5c5;fill-opacity:1"
           d="M 13.046875,16.453125 13.09375,15.90625 13.046875,15.828125 13,15.75 13.09375,15.90625 Q 13.1875,16.0625 13.375,16.125 L 13.5625,16.1875 13.28125,16.09375 13,16 l 0.375,0.125 q 0.375,0.125 0.375,0.375 0,0.25 -0.375,0.375 L 13,17 13.04687,16.453125"
           id="path34039"
           inkscape:connector-curvature="0" />
        <path
           style="fill:#000000;fill-opacity:0.94901961"
           d="m 13.75,16.5 0,-0.25 0,0.1875 0,0.1875 0,-0.125 q 0,-0.125 -0.09375,-0.21875 L 13.5625,16.1875 13.60937,16.23437 13.65624,16.28124 14,16 14.34375,15.71875 14.296875,15.671875 14.25,15.625 14.34375,15.71875 Q 14.4375,15.8125 14.625,15.875 L 14.8125,15.9375 14.53125,15.84375 14.25,15.75 14.625,15.875 15,16 15,16.5 15,17 14.625,17.125 14.25,17.25 14.53125,17.15625 14.8125,17.0625 14.625,17.125 q -0.1875,0.0625 -0.3125,0.1875 l -0.125,0.125 0.0625,-0.0625 0.0625,-0.0625 -0.328125,-0.296875 -0.328125,-0.296875 -0.04687,0.04687 -0.04687,0.04687 0.09375,-0.09375 Q 13.75,16.625 13.75,16.5 l 0,-0.125 0,0.1875 0,0.1875 0,-0.25"
           id="path34041"
           inkscape:connector-curvature="0" />
        <path
           style="fill:#000000;fill-opacity:0.00784314"
           d="M 6,17.5 6,17 6.5,17 7,17 7,17.5 7,18 6.5,18 Q 6,18 6,17.5"
           id="path34043"
           inkscape:connector-curvature="0" />
        <path
           style="fill:#020202;fill-opacity:0.44705882"
           d="M 7,17.5 7,17 7.5625,16.9375 8.125,16.875 8.1875,17.3125 8.25,17.75 8.15625,17.46875 8.0625,17.1875 8.125,17.375 q 0.0625,0.1875 0.15625,0.28125 L 8.375,17.75 8.328125,17.703125 8.28125,17.65625 7.984375,17.984375 7.6875,18.3125 7.75,18.375 7.8125,18.4375 7.6875,18.3125 Q 7.5625,18.1875 7.375,18.125 L 7.1875,18.0625 7.46875,18.15625 7.75,18.25 7.375,18.125 7,18 7,17.5"
           id="path34045"
           inkscape:connector-curvature="0" />
        <path
           style="fill:#3b3b3b;fill-opacity:0.99607843"
           d="M 8.1875,17.3125 8.125,16.875 8.0625,16.8125 8,16.75 8.125,16.875 Q 8.25,17 8.5,17 L 8.75,17 8.375,17 8,17 8.5,17 9,17 8.875,17.375 Q 8.75,17.75 8.5,17.75 8.25,17.75 8.1875,17.3125 M 9.125,17 9,17 8.625,17 8.25,17 8.5,17 q 0.25,0 0.5,0 l 0.25,0 -0.125,0"
           id="path34047"
           inkscape:connector-curvature="0" />
        <path
           style="fill:#272727;fill-opacity:1"
           d="M 8.875,17.375 9,17 9.5,17 10,17 10,17.5 10,18 9.625,18.125 9.25,18.25 9.53125,18.15625 9.8125,18.0625 9.625,18.125 Q 9.4375,18.1875 9.3125,18.3125 L 9.1875,18.4375 9.25,18.375 9.3125,18.3125 9.015625,17.984375 8.71875,17.65625 8.671875,17.703125 8.625,17.75 8.71875,17.65625 Q 8.8125,17.5625 8.875,17.375 L 8.9375,17.1875 8.84375,17.46875 8.75,17.75 8.875,17.375 M 10.125,17 10,17 9.625,17 9.25,17 9.5,17 q 0.25,0 0.5,0 l 0.25,0 -0.125,0 M 9.375,17 9,17 8.875,17 8.75,17 9,17 q 0.25,0 0.5,0 l 0.25,0 -0.375,0"
           id="path34049"
           inkscape:connector-curvature="0" />
        <path
           style="fill:#efefef;fill-opacity:1"
           d="m 10,17.5 0,-0.5 0.5,0 0.5,0 -0.125,0.375 q -0.125,0.375 -0.5,0.5 L 10,18 10,17.5 M 10.375,17 10,17 9.875,17 9.75,17 10,17 q 0.25,0 0.5,0 l 0.25,0 -0.375,0"
           id="path34051"
           inkscape:connector-curvature="0" />
        <path
           style="fill:#c4c4c4;fill-opacity:1"
           d="M 10.875,17.375 11,17 11.375,16.875 11.75,16.75 11.46875,16.84375 11.1875,16.9375 11.375,16.875 q 0.1875,-0.0625 0.34375,-0.15625 L 11.875,16.625 l -0.07813,0.04687 -0.07813,0.04687 0.296875,0.296875 0.296875,0.296875 0.0625,-0.0625 0.0625,-0.0625 -0.125,0.125 q -0.125,0.125 -0.1875,0.3125 L 12.0625,17.8125 12.15625,17.53125 12.25,17.25 12.125,17.625 12,18 11.625,18.125 11.25,18.25 11.53125,18.15625 11.8125,18.0625 11.625,18.125 q -0.1875,0.0625 -0.3125,0.1875 l -0.125,0.125 L 11.25,18.375 11.3125,18.3125 11,18 10.6875,17.6875 10.625,17.75 l -0.0625,0.0625 0.125,-0.125 q 0.125,-0.125 0.1875,-0.3125 L 10.9375,17.1875 10.84375,17.46875 10.75,17.75 10.875,17.375"
           id="path34053"
           inkscape:connector-curvature="0" />
        <path
           style="fill:#232323;fill-opacity:1"
           d="m 12.125,17.625 q 0.125,-0.375 0.5,-0.5 L 13,17 l 0,0.5 0,0.5 -0.5,0 -0.5,0 0.125,-0.375"
           id="path34055"
           inkscape:connector-curvature="0" />
        <path
           style="fill:#2f2f2f;fill-opacity:0.98039216"
           d="M 13,17.5 13,17 13.375,16.875 13.75,16.75 13.46875,16.84375 13.1875,16.9375 13.375,16.875 q 0.1875,-0.0625 0.28125,-0.15625 L 13.75,16.625 l -0.04687,0.04687 -0.04687,0.04687 0.328125,0.296875 0.328125,0.296875 0.0625,-0.0625 0.0625,-0.0625 -0.125,0.125 q -0.125,0.125 -0.1875,0.3125 L 14.0625,17.8125 14.15625,17.53125 14.25,17.25 14.125,17.625 14,18 13.5,18 13,18 13,17.5"
           id="path34057"
           inkscape:connector-curvature="0" />
        <path
           style="fill:#000000;fill-opacity:0.34901961"
           d="m 14.125,17.625 q 0.125,-0.375 0.5,-0.5 L 15,17 15,17.5 Q 15,18 14.5,18 l -0.5,0 0.125,-0.375"
           id="path34059"
           inkscape:connector-curvature="0" />
        <path
           style="fill:#000000;fill-opacity:0.00784314"
           d="M 7,18.5 7,18 7.375,18.125 q 0.375,0.125 0.5,0.5 L 8,19 7.5,19 Q 7,19 7,18.5"
           id="path34061"
           inkscape:connector-curvature="0" />
        <path
           style="fill:#000000;fill-opacity:0.43529412"
           d="M 7.875,18.625 7.75,18.25 7.84375,18.53125 7.9375,18.8125 7.875,18.625 Q 7.8125,18.4375 7.6875,18.3125 L 7.5625,18.1875 7.625,18.25 7.6875,18.3125 7.984375,17.984375 8.28125,17.65625 8.234375,17.609375 8.1875,17.5625 8.28125,17.65625 Q 8.375,17.75 8.5,17.75 l 0.125,0 -0.1875,0 -0.1875,0 0.25,0 0.25,0 -0.1875,0 -0.1875,0 0.125,0 q 0.125,0 0.21875,-0.09375 L 8.8125,17.5625 8.765625,17.609375 8.71875,17.65625 9.015625,17.984375 9.3125,18.3125 9.375,18.25 9.4375,18.1875 9.3125,18.3125 Q 9.1875,18.4375 9.125,18.625 L 9.0625,18.8125 9.15625,18.53125 9.25,18.25 9.125,18.625 9,19 8.5,19 8,19 7.875,18.625"
           id="path34063"
           inkscape:connector-curvature="0" />
        <path
           style="fill:#060606;fill-opacity:0.96862745"
           d="m 9.125,18.625 q 0.125,-0.375 0.5,-0.5 L 10,18 10.125,18.375 10.25,18.75 10.15625,18.46875 10.0625,18.1875 10.125,18.375 q 0.0625,0.1875 0.1875,0.3125 l 0.125,0.125 L 10.375,18.75 10.3125,18.6875 10,19 9.6875,19.3125 9.75,19.375 9.8125,19.4375 9.6875,19.3125 Q 9.5625,19.1875 9.375,19.125 L 9.1875,19.0625 9.46875,19.15625 9.75,19.25 9.375,19.125 9,19 9.125,18.625"
           id="path34065"
           inkscape:connector-curvature="0" />
        <path
           style="fill:#c9c9c9;fill-opacity:1"
           d="M 10.125,18.375 10,18 10.375,17.875 10.75,17.75 10.46875,17.84375 10.1875,17.9375 10.375,17.875 q 0.1875,-0.0625 0.3125,-0.1875 l 0.125,-0.125 L 10.75,17.625 10.6875,17.6875 11,18 l 0.3125,0.3125 0.0625,-0.0625 0.0625,-0.0625 -0.125,0.125 q -0.125,0.125 -0.1875,0.3125 L 11.0625,18.8125 11.15625,18.53125 11.25,18.25 11.125,18.625 11,19 10.625,18.875 q -0.375,-0.125 -0.5,-0.5"
           id="path34067"
           inkscape:connector-curvature="0" />
        <path
           style="fill:#a7a7a7;fill-opacity:1"
           d="m 11.125,18.625 q 0.125,-0.375 0.5,-0.5 L 12,18 11.875,18.375 q -0.125,0.375 -0.5,0.5 L 11,19 11.125,18.625"
           id="path34069"
           inkscape:connector-curvature="0" />
        <path
           style="fill:#000000;fill-opacity:0.91372549"
           d="M 11.875,18.375 12,18 l 0.5,0 0.5,0 0,0.5 0,0.5 -0.375,0.125 -0.375,0.125 0.28125,-0.09375 0.28125,-0.09375 -0.1875,0.0625 q -0.1875,0.0625 -0.3125,0.1875 l -0.125,0.125 L 12.25,19.375 12.3125,19.3125 12,19 11.6875,18.6875 11.625,18.75 l -0.0625,0.0625 0.125,-0.125 q 0.125,-0.125 0.1875,-0.3125 L 11.9375,18.1875 11.84375,18.46875 11.75,18.75 11.875,18.375"
           id="path34071"
           inkscape:connector-curvature="0" />
        <path
           style="fill:#000000;fill-opacity:0.34901961"
           d="m 13,18.5 0,-0.5 0.5,0 0.5,0 0,0.5 Q 14,19 13.5,19 l -0.5,0 0,-0.5"
           id="path34073"
           inkscape:connector-curvature="0" />
        <path
           style="fill:#000000;fill-opacity:0.04705882"
           d="M 9,19.5 9,19 9.375,19.125 q 0.375,0.125 0.5,0.5 L 10,20 9.5,20 Q 9,20 9,19.5"
           id="path34075"
           inkscape:connector-curvature="0" />
        <path
           style="fill:#000000;fill-opacity:0.95686275"
           d="M 9.875,19.625 9.75,19.25 9.84375,19.53125 9.9375,19.8125 9.875,19.625 Q 9.8125,19.4375 9.6875,19.3125 L 9.5625,19.1875 9.625,19.25 9.6875,19.3125 10,19 10.3125,18.6875 10.25,18.625 l -0.0625,-0.0625 0.125,0.125 q 0.125,0.125 0.3125,0.1875 L 10.8125,18.9375 10.53125,18.84375 10.25,18.75 10.625,18.875 11,19 11,19.5 11,20 10.5,20 10,20 9.875,19.625"
           id="path34077"
           inkscape:connector-curvature="0" />
        <path
           style="fill:#000000;fill-opacity:0.88235294"
           d="M 11,19.5 11,19 11.375,18.875 11.75,18.75 11.46875,18.84375 11.1875,18.9375 11.375,18.875 q 0.1875,-0.0625 0.3125,-0.1875 l 0.125,-0.125 L 11.75,18.625 11.6875,18.6875 12,19 l 0.3125,0.3125 0.0625,-0.0625 0.0625,-0.0625 -0.125,0.125 q -0.125,0.125 -0.1875,0.3125 L 12.0625,19.8125 12.15625,19.53125 12.25,19.25 12.125,19.625 Q 12,20 11.5,20 l -0.5,0 0,-0.5"
           id="path34079"
           inkscape:connector-curvature="0" />
      </g>
    </g>
  </g>
</svg>
