<?xml version="1.0" encoding="UTF-8" standalone="no"?>
<!-- Created with Inkscape (http://www.inkscape.org/) -->

<svg
   xmlns:dc="http://purl.org/dc/elements/1.1/"
   xmlns:cc="http://creativecommons.org/ns#"
   xmlns:rdf="http://www.w3.org/1999/02/22-rdf-syntax-ns#"
   xmlns:svg="http://www.w3.org/2000/svg"
   xmlns="http://www.w3.org/2000/svg"
   xmlns:sodipodi="http://sodipodi.sourceforge.net/DTD/sodipodi-0.dtd"
   xmlns:inkscape="http://www.inkscape.org/namespaces/inkscape"
   width="20"
   height="20"
   viewBox="0 0 20 20"
   id="svg3347"
   version="1.1"
   inkscape:version="0.91 r13725"
   sodipodi:docname="Civ5Icon.Minus.svg">
  <defs
     id="defs3349" />
  <sodipodi:namedview
     id="base"
     pagecolor="#ffffff"
     bordercolor="#666666"
     borderopacity="1.0"
     inkscape:pageopacity="0.0"
     inkscape:pageshadow="2"
     inkscape:zoom="11.2"
     inkscape:cx="13.251856"
     inkscape:cy="8.3638322"
     inkscape:document-units="px"
     inkscape:current-layer="layer1"
     showgrid="false"
     units="px"
     inkscape:window-width="1477"
     inkscape:window-height="962"
     inkscape:window-x="533"
     inkscape:window-y="95"
     inkscape:window-maximized="0" />
  <metadata
     id="metadata3352">
    <rdf:RDF>
      <cc:Work
         rdf:about="">
        <dc:format>image/svg+xml</dc:format>
        <dc:type
           rdf:resource="http://purl.org/dc/dcmitype/StillImage" />
        <dc:title></dc:title>
      </cc:Work>
    </rdf:RDF>
  </metadata>
  <g
     inkscape:label="Layer 1"
     inkscape:groupmode="layer"
     id="layer1"
     transform="translate(0,-1032.3622)">
    <g
       transform="translate(-0.75892866,1031.7818)"
       id="g23014">
      <path
         style="fill:#000000;fill-opacity:0"
         d="M 0,0.5 0,0 0.5,0 1,0 1.5,0 2,0 2.5,0 3,0 3.5,0 4,0 4.5,0 5,0 5.5,0 6,0 6.5,0 7,0 7.5,0 8,0 8.5,0 9,0 9.5,0 10,0 l 0.5,0 0.5,0 0.5,0 0.5,0 0.5,0 0.5,0 0.5,0 0.5,0 0.5,0 0.5,0 0.5,0 0.5,0 0.5,0 0.5,0 0.5,0 0.5,0 0.5,0 0.5,0 0.5,0 0.5,0 0.5,0 0.5,0 0.5,0 0.5,0 0,0.5 0,0.5 0,0.5 0,0.5 0,0.5 0,0.5 0,0.5 0,0.5 0,0.5 0,0.5 0,0.5 0,0.5 0,0.5 0,0.5 0,0.5 0,0.5 0,0.5 0,0.5 0,0.5 0,0.5 0,0.5 0,0.5 0,0.5 0,0.5 0,0.5 0,0.5 0,0.5 0,0.5 0,0.5 0,0.5 0,0.5 0,0.5 0,0.5 0,0.5 0,0.5 0,0.5 0,0.5 0,0.5 0,0.5 0,0.5 0,0.5 0,0.5 0,0.5 0,0.5 -0.5,0 L 21,22 20.5,22 20,22 19.5,22 19,22 18.5,22 18,22 17.5,22 17,22 16.5,22 16,22 15.5,22 15,22 14.5,22 14,22 13.5,22 13,22 12.5,22 12,22 11.5,22 11,22 10.5,22 10,22 9.5,22 9,22 8.5,22 8,22 7.5,22 7,22 6.5,22 6,22 5.5,22 5,22 4.5,22 4,22 3.5,22 3,22 2.5,22 2,22 1.5,22 1,22 0.5,22 0,22 0,21.5 0,21 0,20.5 0,20 0,19.5 0,19 0,18.5 0,18 0,17.5 0,17 0,16.5 0,16 0,15.5 0,15 0,14.5 0,14 0,13.5 0,13 0,12.5 0,12 0,11.5 0,11 0,10.5 0,10 0,9.5 0,9 0,8.5 0,8 0,7.5 0,7 0,6.5 0,6 0,5.5 0,5 0,4.5 0,4 0,3.5 0,3 0,2.5 0,2 0,1.5 0,1 0,0.5 M 17.5,14 Q 18,14 18,13.5 L 18,13 18,12.5 18,12 18,11.5 Q 18,11 17.5,11 L 17,11 16.875,10.625 q -0.125,-0.375 -0.5,-0.5 L 16,10 15.5,10 15,10 14.5,10 14,10 13.5,10 13,10 12.5,10 12,10 11.5,10 11,10 10.5,10 10,10 9.5,10 Q 9,10 8.5,10 8,10 7.5,10 7,10 6.5,10 L 6,10 5.5,10 5,10 4.625,10.125 Q 4.25,10.25 4.125,10.625 4,11 4,11.5 q 0,0.5 0.125,0.875 0.125,0.375 0.5,0.5 L 5,13 5,13.5 Q 5,14 5.5,14 l 0.5,0 0.5,0 0.5,0 0.5,0 0.5,0 0.5,0 0.5,0 0.5,0 0.5,0 0.5,0 0.5,0 0.5,0 q 0.5,0 1,0 0.5,0 1,0 0.5,0 1,0 0.5,0 1,0 l 0.5,0 0.5,0 q 0.5,0 1,0"
         id="path23016"
         inkscape:connector-curvature="0" />
      <path
         style="fill:#555549;fill-opacity:0.81960784"
         d="m 4.125,10.625 q 0.125,-0.375 0.5,-0.5 L 5,10 5,10.5 5,11 4.515625,11.015625 4.03125,11.03125 4.015625,11.140625 4,11.25 4.03125,11.03125 Q 4.0625,10.8125 4.125,10.625 L 4.1875,10.4375 4.09375,10.71875 4,11 4.125,10.625"
         id="path23018"
         inkscape:connector-curvature="0" />
      <path
         style="fill:#6a6a57;fill-opacity:0.82352941"
         d="M 5,10.5 5,10 5.5,10 6,10 6,10.5 6,11 5.5,11 5,11 5,10.5"
         id="path23020"
         inkscape:connector-curvature="0" />
      <path
         style="fill:#777761;fill-opacity:0.83921569"
         d="M 6,10.5 6,10 6.5,10 q 0.5,0 1,0 0.5,0 1,0 0.5,0 1,0 l 0.5,0 0,0.5 0,0.5 -0.5,0 Q 9,11 8.5,11 8,11 7.5,11 L 7,11 6.5,11 6,11 6,10.5"
         id="path23022"
         inkscape:connector-curvature="0" />
      <path
         style="fill:#77775f;fill-opacity:0.83529412"
         d="m 10,10.5 0,-0.5 0.5,0 0.5,0 0,0.5 0,0.5 -0.5,0 -0.5,0 0,-0.5"
         id="path23024"
         inkscape:connector-curvature="0" />
      <path
         style="fill:#777761;fill-opacity:0.83921569"
         d="m 11,10.5 0,-0.5 0.5,0 0.5,0 0,0.5 0,0.5 -0.5,0 -0.5,0 0,-0.5"
         id="path23026"
         inkscape:connector-curvature="0" />
      <path
         style="fill:#7a7a61;fill-opacity:0.83921569"
         d="m 12,10.5 0,-0.5 0.5,0 0.5,0 0,0.5 0,0.5 -0.5,0 -0.5,0 0,-0.5"
         id="path23028"
         inkscape:connector-curvature="0" />
      <path
         style="fill:#797961;fill-opacity:0.83137255"
         d="m 13,10.5 0,-0.5 0.5,0 0.5,0 0,0.5 0,0.5 -0.5,0 -0.5,0 0,-0.5"
         id="path23030"
         inkscape:connector-curvature="0" />
      <path
         style="fill:#7c7c65;fill-opacity:0.81960784"
         d="m 14,10.5 0,-0.5 0.5,0 0.5,0 0,0.5 0,0.5 -0.5,0 -0.5,0 0,-0.5"
         id="path23032"
         inkscape:connector-curvature="0" />
      <path
         style="fill:#767660;fill-opacity:0.81960784"
         d="m 15,10.5 0,-0.5 0.5,0 0.5,0 0.125,0.375 0.125,0.375 -0.09375,-0.28125 -0.09375,-0.28125 0.0625,0.1875 q 0.0625,0.1875 0.1875,0.3125 l 0.125,0.125 L 16.375,10.75 16.3125,10.6875 16,11 l -0.3125,0.3125 0.0625,0.0625 0.0625,0.0625 -0.125,-0.125 Q 15.5625,11.1875 15.375,11.125 L 15.1875,11.0625 15.46875,11.15625 15.75,11.25 15.375,11.125 15,11 15,10.5"
         id="path23034"
         inkscape:connector-curvature="0" />
      <path
         style="fill:#555546;fill-opacity:0.81960784"
         d="M 16.125,10.375 16,10 l 0.375,0.125 q 0.375,0.125 0.5,0.5 L 17,11 16.90625,10.71875 16.8125,10.4375 16.875,10.625 q 0.0625,0.1875 0.09375,0.40625 L 17,11.25 16.984375,11.140625 16.96875,11.03125 16.609375,10.890625 Q 16.25,10.75 16.125,10.375"
         id="path23036"
         inkscape:connector-curvature="0" />
      <path
         style="fill:#a9aa8b;fill-opacity:1"
         d="M 4,11.5 4,11 4,11.375 4,11.75 4,11.5 Q 4,11.25 4.03125,11.03125 L 4.0625,10.8125 4.046875,10.921875 4.03125,11.03125 4.515625,11.015625 5,11 5,11.5 5,12 4.515625,11.984375 4.03125,11.96875 4.046875,12.078125 4.0625,12.1875 4.03125,11.96875 Q 4,11.75 4,11.5 L 4,11.25 4,11.625 4,12 4,11.5"
         id="path23038"
         inkscape:connector-curvature="0" />
      <path
         style="fill:#d6d6ab;fill-opacity:1"
         d="M 5,11.5 5,11 5.5,11 6,11 6,11.5 6,12 5.5,12 5,12 5,11.5"
         id="path23040"
         inkscape:connector-curvature="0" />
      <path
         style="fill:#f0f0be;fill-opacity:1"
         d="M 6,11.5 6,11 6.5,11 7,11 7,11.5 7,12 6.5,12 6,12 6,11.5"
         id="path23042"
         inkscape:connector-curvature="0" />
      <path
         style="fill:#eeeebd;fill-opacity:1"
         d="M 7,11.5 7,11 7.5,11 q 0.5,0 1,0 0.5,0 1,0 l 0.5,0 0.5,0 0.5,0 0.5,0 0.5,0 0,0.5 0,0.5 -0.5,0 L 11,12 10.5,12 10,12 9.5,12 9,12 8.5,12 Q 8,12 7.5,12 L 7,12 7,11.5"
         id="path23044"
         inkscape:connector-curvature="0" />
      <path
         style="fill:#f6f6c2;fill-opacity:1"
         d="m 12,11.5 0,-0.5 0.5,0 0.5,0 0.5,0 0.5,0 0,0.5 0,0.5 -0.5,0 q -0.5,0 -1,0 l -0.5,0 0,-0.5"
         id="path23046"
         inkscape:connector-curvature="0" />
      <path
         style="fill:#ffffcc;fill-opacity:1"
         d="m 14,11.5 0,-0.5 0.5,0 0.5,0 0,0.5 0,0.5 -0.5,0 -0.5,0 0,-0.5"
         id="path23048"
         inkscape:connector-curvature="0" />
      <path
         style="fill:#f4f4c0;fill-opacity:1"
         d="m 15,11.5 0,-0.5 0.375,0.125 q 0.375,0.125 0.5,0.5 L 16,12 15.5,12 15,12 15,11.5 M 15.625,12 16,12 16.125,12 16.25,12 16,12 q -0.25,0 -0.5,0 l -0.25,0 0.375,0"
         id="path23050"
         inkscape:connector-curvature="0" />
      <path
         style="fill:#a3a384;fill-opacity:1"
         d="M 15.875,11.625 15.75,11.25 15.84375,11.53125 15.9375,11.8125 15.875,11.625 q -0.0625,-0.1875 -0.1875,-0.3125 l -0.125,-0.125 0.0625,0.0625 0.0625,0.0625 L 16,11 16.3125,10.6875 16.25,10.625 l -0.0625,-0.0625 0.125,0.125 q 0.125,0.125 0.3125,0.1875 L 16.8125,10.9375 16.53125,10.84375 16.25,10.75 16.609375,10.890625 16.96875,11.03125 16.953125,10.921875 16.9375,10.8125 16.96875,11.03125 Q 17,11.25 17,11.5 l 0,0.25 0,-0.375 0,-0.375 0,0.5 0,0.5 0,-0.375 0,-0.375 0,0.25 q 0,0.25 -0.03125,0.46875 L 16.9375,12.1875 16.95313,12.078125 16.96876,11.96875 16.484385,11.98438 16,12 15.875,11.625 m 0,0.375 0.125,0 0.375,0 0.375,0 -0.25,0 q -0.25,0 -0.5,0 l -0.25,0 0.125,0"
         id="path23052"
         inkscape:connector-curvature="0" />
      <path
         style="fill:#000000;fill-opacity:0.41176471"
         d="m 17,11.5 0,-0.5 0.5,0 q 0.5,0 0.5,0.5 l 0,0.5 -0.5,0 -0.5,0 0,-0.5"
         id="path23054"
         inkscape:connector-curvature="0" />
      <path
         style="fill:#686958;fill-opacity:0.74901961"
         d="M 4.125,12.375 4,12 4.09375,12.28125 4.1875,12.5625 4.125,12.375 Q 4.0625,12.1875 4.03125,11.96875 L 4,11.75 4.015625,11.859375 4.03125,11.96875 4.515625,11.984375 5,12 5,12.5 5,13 4.625,12.875 q -0.375,-0.125 -0.5,-0.5"
         id="path23056"
         inkscape:connector-curvature="0" />
      <path
         style="fill:#5e5e4f;fill-opacity:0.87843137"
         d="M 5,12.5 5,12 5.5,12 6,12 6,12.5 6,13 5.5,13 5,13 5,12.5"
         id="path23058"
         inkscape:connector-curvature="0" />
      <path
         style="fill:#676753;fill-opacity:0.88627451"
         d="M 6,12.5 6,12 6.5,12 7,12 7,12.5 7,13 6.5,13 6,13 6,12.5"
         id="path23060"
         inkscape:connector-curvature="0" />
      <path
         style="fill:#666653;fill-opacity:0.87843137"
         d="M 7,12.5 7,12 7.5,12 q 0.5,0 1,0 L 9,12 9,12.5 9,13 8.5,13 8,13 7.5,13 7,13 7,12.5"
         id="path23062"
         inkscape:connector-curvature="0" />
      <path
         style="fill:#676753;fill-opacity:0.88627451"
         d="M 9,12.5 9,12 9.5,12 10,12 10,12.5 10,13 9.5,13 9,13 9,12.5"
         id="path23064"
         inkscape:connector-curvature="0" />
      <path
         style="fill:#686852;fill-opacity:0.88235294"
         d="m 10,12.5 0,-0.5 0.5,0 0.5,0 0,0.5 0,0.5 -0.5,0 -0.5,0 0,-0.5"
         id="path23066"
         inkscape:connector-curvature="0" />
      <path
         style="fill:#666653;fill-opacity:0.87843137"
         d="m 11,12.5 0,-0.5 0.5,0 0.5,0 0,0.5 0,0.5 -0.5,0 -0.5,0 0,-0.5"
         id="path23068"
         inkscape:connector-curvature="0" />
      <path
         style="fill:#6b6b56;fill-opacity:0.88235294"
         d="m 12,12.5 0,-0.5 0.5,0 q 0.5,0 1,0 l 0.5,0 0,0.5 0,0.5 -0.5,0 q -0.5,0 -1,0 l -0.5,0 0,-0.5"
         id="path23070"
         inkscape:connector-curvature="0" />
      <path
         style="fill:#6b6b53;fill-opacity:0.8745098"
         d="m 14,12.5 0,-0.5 0.5,0 0.5,0 0,0.5 0,0.5 -0.5,0 -0.5,0 0,-0.5"
         id="path23072"
         inkscape:connector-curvature="0" />
      <path
         style="fill:#636351;fill-opacity:0.8745098"
         d="m 15,12.5 0,-0.5 0.5,0 0.5,0 0,0.5 0,0.5 -0.5,0 -0.5,0 0,-0.5"
         id="path23074"
         inkscape:connector-curvature="0" />
      <path
         style="fill:#4a4a3b;fill-opacity:0.8745098"
         d="M 16,12.5 16,12 16.484375,11.98437 16.96875,11.96874 16.98438,11.859365 17,11.75 16.96875,11.96875 Q 16.9375,12.1875 16.875,12.375 L 16.8125,12.5625 16.90625,12.28125 17,12 16.875,12.375 q -0.125,0.375 -0.5,0.5 L 16,13 16,12.5"
         id="path23076"
         inkscape:connector-curvature="0" />
      <path
         style="fill:#000000;fill-opacity:0.49803922"
         d="M 16.875,12.375 17,12 l 0.5,0 0.5,0 0,0.5 0,0.5 -0.375,0.125 Q 17.25,13.25 16.96875,12.96875 L 16.6875,12.6875 16.625,12.75 l -0.0625,0.0625 0.125,-0.125 q 0.125,-0.125 0.1875,-0.3125 L 16.9375,12.1875 16.84375,12.46875 16.75,12.75 16.875,12.375"
         id="path23078"
         inkscape:connector-curvature="0" />
      <path
         style="fill:#000000;fill-opacity:0.37647059"
         d="M 5,13.5 5,13 5.5,13 6,13 6,13.5 6,14 5.5,14 Q 5,14 5,13.5"
         id="path23080"
         inkscape:connector-curvature="0" />
      <path
         style="fill:#000000;fill-opacity:0.36862745"
         d="M 6,13.5 6,13 6.5,13 7,13 7,13.5 7,14 6.5,14 6,14 6,13.5"
         id="path23082"
         inkscape:connector-curvature="0" />
      <path
         style="fill:#000000;fill-opacity:0.38039216"
         d="M 7,13.5 7,13 7.5,13 8,13 8,13.5 8,14 7.5,14 7,14 7,13.5"
         id="path23084"
         inkscape:connector-curvature="0" />
      <path
         style="fill:#000000;fill-opacity:0.38431373"
         d="M 8,13.5 8,13 8.5,13 9,13 9,13.5 9,14 8.5,14 8,14 8,13.5"
         id="path23086"
         inkscape:connector-curvature="0" />
      <path
         style="fill:#000000;fill-opacity:0.38039216"
         d="M 9,13.5 9,13 9.5,13 10,13 10,13.5 10,14 9.5,14 9,14 9,13.5"
         id="path23088"
         inkscape:connector-curvature="0" />
      <path
         style="fill:#000000;fill-opacity:0.37647059"
         d="m 10,13.5 0,-0.5 0.5,0 0.5,0 0,0.5 0,0.5 -0.5,0 -0.5,0 0,-0.5"
         id="path23090"
         inkscape:connector-curvature="0" />
      <path
         style="fill:#000000;fill-opacity:0.38039216"
         d="m 11,13.5 0,-0.5 0.5,0 0.5,0 0.5,0 q 0.5,0 1,0 l 0.5,0 0.5,0 0.5,0 0.5,0 0.5,0 0,0.5 0,0.5 -0.5,0 q -0.5,0 -1,0 -0.5,0 -1,0 -0.5,0 -1,0 -0.5,0 -1,0 l -0.5,0 0,-0.5"
         id="path23092"
         inkscape:connector-curvature="0" />
      <path
         style="fill:#000000;fill-opacity:0.37254902"
         d="M 16,13.5 16,13 16.375,12.875 16.75,12.75 16.46875,12.84375 16.1875,12.9375 16.375,12.875 q 0.1875,-0.0625 0.3125,-0.1875 l 0.125,-0.125 -0.0625,0.0625 -0.0625,0.0625 0.28125,0.28125 Q 17.25,13.25 17.625,13.125 L 18,13 l 0,0.5 q 0,0.5 -0.5,0.5 -0.5,0 -1,0 l -0.5,0 0,-0.5"
         id="path23094"
         inkscape:connector-curvature="0" />
    </g>
  </g>
</svg>
