<?xml version="1.0" encoding="UTF-8" standalone="no"?>
<!-- Created with Inkscape (http://www.inkscape.org/) -->

<svg
   xmlns:dc="http://purl.org/dc/elements/1.1/"
   xmlns:cc="http://creativecommons.org/ns#"
   xmlns:rdf="http://www.w3.org/1999/02/22-rdf-syntax-ns#"
   xmlns:svg="http://www.w3.org/2000/svg"
   xmlns="http://www.w3.org/2000/svg"
   xmlns:sodipodi="http://sodipodi.sourceforge.net/DTD/sodipodi-0.dtd"
   xmlns:inkscape="http://www.inkscape.org/namespaces/inkscape"
   width="20"
   height="20"
   viewBox="0 0 20 20"
   id="svg3347"
   version="1.1"
   inkscape:version="0.91 r13725"
   sodipodi:docname="Civ5Icon.ReligionProtestant.svg">
  <defs
     id="defs3349" />
  <sodipodi:namedview
     id="base"
     pagecolor="#ffffff"
     bordercolor="#666666"
     borderopacity="1.0"
     inkscape:pageopacity="0.0"
     inkscape:pageshadow="2"
     inkscape:zoom="11.2"
     inkscape:cx="6.1091119"
     inkscape:cy="8.5424036"
     inkscape:document-units="px"
     inkscape:current-layer="g27203"
     showgrid="false"
     units="px"
     inkscape:window-width="1477"
     inkscape:window-height="962"
     inkscape:window-x="533"
     inkscape:window-y="95"
     inkscape:window-maximized="0" />
  <metadata
     id="metadata3352">
    <rdf:RDF>
      <cc:Work
         rdf:about="">
        <dc:format>image/svg+xml</dc:format>
        <dc:type
           rdf:resource="http://purl.org/dc/dcmitype/StillImage" />
        <dc:title></dc:title>
      </cc:Work>
    </rdf:RDF>
  </metadata>
  <g
     inkscape:label="Layer 1"
     inkscape:groupmode="layer"
     id="layer1"
     transform="translate(0,-1032.3622)">
    <g
       transform="translate(-0.22321519 1031.8712)"
       id="g27203">
      <g
         transform="translate(-0.44642755 -0.17864299)"
         id="g33211">
        <path
           style="fill:#000000;fill-opacity:0"
           d="M 0,0.5 0,0 0.5,0 1,0 1.5,0 2,0 2.5,0 3,0 3.5,0 4,0 4.5,0 5,0 5.5,0 6,0 6.5,0 7,0 7.5,0 8,0 8.5,0 9,0 9.5,0 10,0 l 0.5,0 0.5,0 0.5,0 0.5,0 0.5,0 0.5,0 0.5,0 0.5,0 0.5,0 0.5,0 0.5,0 0.5,0 0.5,0 0.5,0 0.5,0 0.5,0 0.5,0 0.5,0 0.5,0 0.5,0 0.5,0 0.5,0 0.5,0 0.5,0 0,0.5 0,0.5 0,0.5 0,0.5 0,0.5 0,0.5 0,0.5 0,0.5 0,0.5 0,0.5 0,0.5 0,0.5 0,0.5 0,0.5 0,0.5 0,0.5 0,0.5 0,0.5 0,0.5 0,0.5 0,0.5 0,0.5 0,0.5 0,0.5 0,0.5 0,0.5 0,0.5 0,0.5 0,0.5 0,0.5 0,0.5 0,0.5 0,0.5 0,0.5 0,0.5 0,0.5 0,0.5 0,0.5 0,0.5 0,0.5 0,0.5 0,0.5 0,0.5 0,0.5 -0.5,0 L 21,22 20.5,22 20,22 19.5,22 19,22 18.5,22 18,22 17.5,22 17,22 16.5,22 16,22 15.5,22 15,22 14.5,22 14,22 13.5,22 13,22 12.5,22 12,22 11.5,22 11,22 10.5,22 10,22 9.5,22 9,22 8.5,22 8,22 7.5,22 7,22 6.5,22 6,22 5.5,22 5,22 4.5,22 4,22 3.5,22 3,22 2.5,22 2,22 1.5,22 1,22 0.5,22 0,22 0,21.5 0,21 0,20.5 0,20 0,19.5 0,19 0,18.5 0,18 0,17.5 0,17 0,16.5 0,16 0,15.5 0,15 0,14.5 0,14 0,13.5 0,13 0,12.5 0,12 0,11.5 0,11 0,10.5 0,10 0,9.5 0,9 0,8.5 0,8 0,7.5 0,7 0,6.5 0,6 0,5.5 0,5 0,4.5 0,4 0,3.5 0,3 0,2.5 0,2 0,1.5 0,1 0,0.5 M 12.5,20 Q 13,20 13,19.5 l 0,-0.5 0.5,0 Q 14,19 14,18.5 l 0,-0.5 0,-0.5 0,-0.5 0,-0.5 q 0,-0.5 0,-1 0,-0.5 0,-1 0,-0.5 0,-1 0,-0.5 0,-1 0,-0.5 0,-1 l 0,-0.5 0.5,0 q 0.5,0 1,0 l 0.5,0 0.5,0 Q 17,11 17,10.5 l 0,-0.5 0.5,0 Q 18,10 18,9.5 L 18,9 18,8.5 18,8 18,7.5 Q 18,7 17.5,7 L 17,7 17,6.5 Q 17,6 16.5,6 L 16,6 15.5,6 Q 15,6 14.5,6 L 14,6 14,5.5 14,5 14,4.5 14,4 14,3.5 Q 14,3 13.5,3 L 13,3 13,2.5 Q 13,2 12.5,2 L 12,2 11.5,2 Q 11,2 10.5,2 L 10,2 9.5,2 Q 9,2 8.875,2.375 8.75,2.75 8.375,2.875 8,3 8,3.5 L 8,4 8,4.5 8,5 8,5.5 8,6 7.5,6 Q 7,6 6.5,6 L 6,6 5.5,6 Q 5,6 4.875,6.375 4.75,6.75 4.375,6.875 4,7 4,7.5 L 4,8 4,8.5 4,9 4,9.5 q 0,0.5 0.375,0.625 0.375,0.125 0.5,0.5 Q 5,11 5.5,11 l 0.5,0 0.5,0 q 0.5,0 1,0 l 0.5,0 0,0.5 q 0,0.5 0,1 0,0.5 0,1 0,0.5 0,1 0,0.5 0,1 0,0.5 0,1 l 0,0.5 0,0.5 0,0.5 0,0.5 q 0,0.5 0.375,0.625 0.375,0.125 0.5,0.5 Q 9,20 9.5,20 l 0.5,0 0.5,0 q 0.5,0 1,0 l 0.5,0 0.5,0"
           id="path33213" />
        <path
           style="fill:#000000;fill-opacity:0.47843137"
           d="M 8.875,2.375 Q 9,2 9.5,2 L 10,2 10.0625,2.5625 10.125,3.125 9.6875,3.1875 Q 9.25,3.25 9.125,3.625 L 9,4 8.5,4 8,4 8,3.5 Q 8,3 8.375,2.875 8.75,2.75 8.875,2.375"
           id="path33215" />
        <path
           style="fill:#000000;fill-opacity:0.95686275"
           d="M 10.0625,2.5625 10,2 10.5,2 q 0.5,0 1,0 L 12,2 12.125,2.375 12.25,2.75 12.15625,2.46875 12.0625,2.1875 12.125,2.375 q 0.0625,0.1875 0.1875,0.3125 l 0.125,0.125 L 12.375,2.75 12.3125,2.6875 12,3 11.6875,3.3125 11.75,3.375 11.8125,3.4375 11.6875,3.3125 Q 11.5625,3.1875 11.375,3.125 L 11.1875,3.0625 11.46875,3.15625 11.75,3.25 11.375,3.125 Q 11,3 10.5,3 L 10,3 10.375,3 10.75,3 10.5,3 Q 10.25,3 10.125,3.125 L 10,3.25 10.0625,3.1875 10.125,3.125 10.0625,2.5625"
           id="path33217" />
        <path
           style="fill:#000000;fill-opacity:0.2745098"
           d="M 12.125,2.375 12,2 12.5,2 Q 13,2 13,2.5 L 13,3 12.625,2.875 q -0.375,-0.125 -0.5,-0.5"
           id="path33219" />
        <path
           style="fill:#474747;fill-opacity:0.99607843"
           d="M 9.125,3.625 Q 9.25,3.25 9.6875,3.1875 L 10.125,3.125 10.1875,3.0625 10.25,3 10.125,3.125 Q 10,3.25 10,3.5 L 10,3.75 10,3.375 10,3 10,3.5 10,4 9.5,4 9,4 9.125,3.625 M 10,4.125 10,4 10,3.625 10,3.25 10,3.5 q 0,0.25 0,0.5 l 0,0.25 0,-0.125"
           id="path33221" />
        <path
           style="fill:#cbcbcb;fill-opacity:1"
           d="M 10,3.5 Q 10,3 10.5,3 q 0.5,0 0.875,0.125 0.375,0.125 0.5,0.5 L 12,4 11.90625,3.71875 11.8125,3.4375 11.875,3.625 q 0.0625,0.1875 0.09375,0.40625 L 12,4.25 11.984375,4.140625 11.96875,4.03125 11.484375,4.015625 Q 11,4 10.5,4 L 10,4 10,3.5 M 10,3.625 10,4 10,4.125 10,4.25 10,4 q 0,-0.25 0,-0.5 l 0,-0.25 0,0.375"
           id="path33223" />
        <path
           style="fill:#262626;fill-opacity:0.98823529"
           d="M 11.875,3.625 11.75,3.25 11.84375,3.53125 11.9375,3.8125 11.875,3.625 Q 11.8125,3.4375 11.6875,3.3125 L 11.5625,3.1875 11.625,3.25 11.6875,3.3125 12,3 12.3125,2.6875 12.25,2.625 12.1875,2.5625 l 0.125,0.125 q 0.125,0.125 0.3125,0.1875 L 12.8125,2.9375 12.53125,2.84375 12.25,2.75 12.625,2.875 13,3 13.125,3.375 13.25,3.75 13.15625,3.46875 13.0625,3.1875 13.125,3.375 q 0.0625,0.1875 0.1875,0.3125 l 0.125,0.125 L 13.375,3.75 13.3125,3.6875 12.984375,3.984375 12.65625,4.28125 12.703125,4.328125 12.75,4.375 12.65625,4.28125 Q 12.5625,4.1875 12.375,4.125 L 12.1875,4.0625 12.46875,4.15625 12.75,4.25 12.359375,4.140625 11.96875,4.03125 11.984375,4.140625 12,4.25 11.96875,4.03125 Q 11.9375,3.8125 11.875,3.625 L 11.8125,3.4375 11.90625,3.71875 12,4 11.875,3.625"
           id="path33225" />
        <path
           style="fill:#000000;fill-opacity:0.2745098"
           d="M 13.125,3.375 13,3 13.5,3 Q 14,3 14,3.5 L 14,4 13.625,3.875 q -0.375,-0.125 -0.5,-0.5"
           id="path33227" />
        <path
           style="fill:#000000;fill-opacity:0.6"
           d="M 8,4.5 8,4 8.5,4 9,4 9,4.5 9,5 8.5,5 8,5 8,4.5"
           id="path33229" />
        <path
           style="fill:#5e5e5e;fill-opacity:1"
           d="M 9,4.5 9,4 9.5,4 10,4 10,4.5 10,5 9.5,5 9,5 9,4.5 M 10,4.375 10,4 10,3.875 10,3.75 10,4 q 0,0.25 0,0.5 l 0,0.25 0,-0.375"
           id="path33231" />
        <path
           style="fill:#ffffff;fill-opacity:1"
           d="M 10,4.5 10,4 10.5,4 Q 11,4 11.484375,4.015625 L 11.96875,4.03125 11.953125,3.921875 11.9375,3.8125 11.96875,4.03125 Q 12,4.25 12,4.5 L 12,4.75 12,4.375 12,4 12,4.5 12,5 12,5.5 12,6 12.125,6.375 12.25,6.75 12.15625,6.46875 12.0625,6.1875 12.125,6.375 q 0.0625,0.1875 0.1875,0.3125 l 0.125,0.125 L 12.375,6.75 12.3125,6.6875 12.03125,6.96875 Q 11.75,7.25 11.875,7.625 12,8 12.5,8 l 0.5,0 0.5,0 q 0.5,0 1,0 0.5,0 1,0 L 16,8 16,8.5 16,9 16,8.625 16,8.25 16,8.5 q 0,0.25 -0.03125,0.46875 L 15.9375,9.1875 15.953125,9.078125 15.96875,8.96875 15.484375,8.984375 Q 15,9 14.5,9 14,9 13.5,9 L 13,9 12.625,9.125 Q 12.25,9.25 12.1875,9.6875 L 12.125,10.125 12.1875,10.0625 12.25,10 12.125,10.125 Q 12,10.25 12,10.5 l 0,0.25 0,-0.375 0,-0.375 0,0.5 0,0.5 0,0.5 q 0,0.5 0,1 0,0.5 0,1 0,0.5 0,1 0,0.5 0,1 0,0.5 0,1 l 0,0.5 0,0.5 0,0.5 0,-0.375 0,-0.375 0,0.25 q 0,0.25 -0.03125,0.46875 l -0.03125,0.21875 0.01563,-0.109375 0.01563,-0.109375 -0.484375,0.01563 Q 11,18 10.5,18 l -0.5,0 0,-0.5 0,-0.5 0,-0.5 q 0,-0.5 0,-1 0,-0.5 0,-1 0,-0.5 0,-1 0,-0.5 0,-1 0,-0.5 0,-1 l 0,-0.5 0,-0.5 0,-0.5 0,0.375 0,0.375 0,-0.25 Q 10,10.25 9.875,10.125 L 9.75,10 9.8125,10.0625 9.875,10.125 9.8125,9.6875 Q 9.75,9.25 9.375,9.125 L 9,9 8.5,9 Q 8,9 7.5,9 7,9 6.5,9 L 6,9 6,8.5 6,8 6.5,8 Q 7,8 7.5,8 8,8 8.5,8 L 9,8 9.5,8 Q 10,8 10.125,7.625 10.25,7.25 9.96875,6.96875 L 9.6875,6.6875 9.625,6.75 9.5625,6.8125 9.6875,6.6875 Q 9.8125,6.5625 9.875,6.375 L 9.9375,6.1875 9.84375,6.46875 9.75,6.75 9.875,6.375 10,6 10,5.5 10,5 10,4.5 M 6,8.625 6,9 6,9.125 6,9.25 6,9 Q 6,8.75 6,8.5 L 6,8.25 6,8.625 m 4,9 0,0.375 0,0.125 0,0.125 0,-0.25 q 0,-0.25 0,-0.5 l 0,-0.25 0,0.375 M 10,3.875 10,4 10,4.375 10,4.75 10,4.5 Q 10,4.25 10,4 l 0,-0.25 0,0.125"
           id="path33233" />
        <path
           style="fill:#323232;fill-opacity:1"
           d="M 12,4.5 12,4 12,4.375 12,4.75 12,4.5 Q 12,4.25 11.96875,4.03125 L 11.9375,3.8125 l 0.01563,0.109375 0.01563,0.109375 0.390625,0.109375 Q 12.75,4.25 12.75,4.5 q 0,0.25 -0.375,0.375 L 12,5 12,4.5"
           id="path33235" />
        <path
           style="fill:#000000;fill-opacity:0.35294118"
           d="m 12.75,4.5 0,-0.25 0,0.1875 0,0.1875 0,-0.125 q 0,-0.125 -0.09375,-0.21875 L 12.5625,4.1875 12.609375,4.234375 12.65625,4.28125 12.984375,3.984375 13.3125,3.6875 13.25,3.625 13.1875,3.5625 l 0.125,0.125 q 0.125,0.125 0.3125,0.1875 L 13.8125,3.9375 13.53125,3.84375 13.25,3.75 13.625,3.875 14,4 14,4.5 14,5 13.625,5.125 13.25,5.25 13.53125,5.15625 13.8125,5.0625 13.625,5.125 Q 13.4375,5.1875 13.3125,5.3125 L 13.1875,5.4375 13.25,5.375 13.3125,5.3125 12.984375,5.015625 12.65625,4.71875 12.609375,4.765625 12.5625,4.8125 12.65625,4.71875 Q 12.75,4.625 12.75,4.5 l 0,-0.125 0,0.1875 0,0.1875 0,-0.25"
           id="path33237" />
        <path
           style="fill:#000000;fill-opacity:0.56470588"
           d="M 8,5.5 8,5 8.5,5 9,5 9,5.5 9,6 8.5,6 8,6 8,5.5"
           id="path33239" />
        <path
           style="fill:#575757;fill-opacity:1"
           d="M 9,5.5 9,5 9.5,5 10,5 10,5.5 10,6 9.5,6 9,6 9,5.5"
           id="path33241" />
        <path
           style="fill:#2e2e2e;fill-opacity:1"
           d="M 12,5.5 12,5 12.375,4.875 12.75,4.75 12.46875,4.84375 12.1875,4.9375 12.375,4.875 Q 12.5625,4.8125 12.65625,4.71875 L 12.75,4.625 12.703125,4.671875 12.65625,4.71875 12.984375,5.015625 13.3125,5.3125 13.375,5.25 13.4375,5.1875 13.3125,5.3125 Q 13.1875,5.4375 13.125,5.625 L 13.0625,5.8125 13.15625,5.53125 13.25,5.25 13.125,5.625 13,6 12.5,6 12,6 12,5.5"
           id="path33243" />
        <path
           style="fill:#000000;fill-opacity:0.32941176"
           d="m 13.125,5.625 q 0.125,-0.375 0.5,-0.5 L 14,5 14,5.5 14,6 13.5,6 13,6 13.125,5.625"
           id="path33245" />
        <path
           style="fill:#000000;fill-opacity:0.44313725"
           d="M 4.875,6.375 Q 5,6 5.5,6 L 6,6 6.0625,6.5625 6.125,7.125 5.6875,7.1875 Q 5.25,7.25 5.125,7.625 L 5,8 4.5,8 4,8 4,7.5 Q 4,7 4.375,6.875 4.75,6.75 4.875,6.375"
           id="path33247" />
        <path
           style="fill:#000000;fill-opacity:0.97254902"
           d="M 6.0625,6.5625 6,6 6.5,6 Q 7,6 7.5,6 L 8,6 8,6.5 8,7 7.5,7 Q 7,7 6.5,7 L 6,7 6.375,7 6.75,7 6.5,7 Q 6.25,7 6.125,7.125 L 6,7.25 6.0625,7.1875 6.125,7.125 6.0625,6.5625"
           id="path33249" />
        <path
           style="fill:#000000;fill-opacity:0.98823529"
           d="M 8,6.5 8,6 8.5,6 9,6 8.984375,6.484375 8.96875,6.96875 9.078125,6.953125 9.1875,6.9375 8.96875,6.96875 Q 8.75,7 8.5,7 L 8.25,7 8.625,7 9,7 8.5,7 8,7 8,6.5"
           id="path33251" />
        <path
           style="fill:#585858;fill-opacity:1"
           d="M 8.984375,6.484375 9,6 9.5,6 10,6 9.875,6.375 Q 9.75,6.75 9.375,6.875 L 9,7 9.28125,6.90625 9.5625,6.8125 9.375,6.875 Q 9.1875,6.9375 8.96875,6.96875 L 8.75,7 8.859375,6.984375 8.96875,6.96875 8.984375,6.484375"
           id="path33253" />
        <path
           style="fill:#2f2f2f;fill-opacity:1"
           d="M 12.125,6.375 12,6 12.5,6 13,6 13,6.5 13,7 12.625,6.875 q -0.375,-0.125 -0.5,-0.5"
           id="path33255" />
        <path
           style="fill:#000000;fill-opacity:0.98039216"
           d="M 13,6.5 13,6 13.5,6 14,6 14,6.5 14,7 13.5,7 13,7 13,6.5"
           id="path33257" />
        <path
           style="fill:#000000;fill-opacity:0.97254902"
           d="M 14,6.5 14,6 14.5,6 q 0.5,0 1,0 L 16,6 16.125,6.375 16.25,6.75 16.15625,6.46875 16.0625,6.1875 16.125,6.375 q 0.0625,0.1875 0.1875,0.3125 l 0.125,0.125 L 16.375,6.75 16.3125,6.6875 16,7 15.6875,7.3125 15.75,7.375 15.8125,7.4375 15.6875,7.3125 Q 15.5625,7.1875 15.375,7.125 L 15.1875,7.0625 15.46875,7.15625 15.75,7.25 15.375,7.125 Q 15,7 14.5,7 L 14,7 14,6.5"
           id="path33259" />
        <path
           style="fill:#000000;fill-opacity:0.24313725"
           d="M 16.125,6.375 16,6 16.5,6 Q 17,6 17,6.5 L 17,7 16.625,6.875 q -0.375,-0.125 -0.5,-0.5"
           id="path33261" />
        <path
           style="fill:#414141;fill-opacity:0.99607843"
           d="M 5.125,7.625 Q 5.25,7.25 5.6875,7.1875 L 6.125,7.125 6.1875,7.0625 6.25,7 6.125,7.125 Q 6,7.25 6,7.5 L 6,7.75 6,7.375 6,7 6,7.5 6,8 5.5,8 5,8 5.125,7.625"
           id="path33263" />
        <path
           style="fill:#d5d5d5;fill-opacity:1"
           d="M 6,7.5 Q 6,7 6.5,7 7,7 7.5,7 L 8,7 8.5,7 9,7 8.625,7 8.25,7 8.5,7 Q 8.75,7 8.96875,6.96875 L 9.1875,6.9375 9.078125,6.953125 8.96875,6.96875 8.984375,7.484375 9,8 8.5,8 Q 8,8 7.5,8 7,8 6.5,8 L 6,8 6,7.5"
           id="path33265" />
        <path
           style="fill:#e4e4e4;fill-opacity:1"
           d="M 8.984375,7.484375 8.96875,6.96875 8.859375,6.984375 8.75,7 8.96875,6.96875 Q 9.1875,6.9375 9.375,6.875 L 9.5625,6.8125 9.28125,6.90625 9,7 9.375,6.875 9.75,6.75 9.46875,6.84375 9.1875,6.9375 9.375,6.875 Q 9.5625,6.8125 9.6875,6.6875 L 9.8125,6.5625 9.75,6.625 9.6875,6.6875 9.96875,6.96875 Q 10.25,7.25 10.125,7.625 10,8 9.5,8 L 9,8 8.984375,7.484375"
           id="path33267" />
        <path
           style="fill:#dddddd;fill-opacity:1"
           d="M 11.875,7.625 Q 11.75,7.25 12.03125,6.96875 L 12.3125,6.6875 12.25,6.625 12.1875,6.5625 l 0.125,0.125 q 0.125,0.125 0.3125,0.1875 L 12.8125,6.9375 12.53125,6.84375 12.25,6.75 12.625,6.875 13,7 13,7.5 13,8 12.5,8 Q 12,8 11.875,7.625"
           id="path33269" />
        <path
           style="fill:#d5d5d5;fill-opacity:1"
           d="M 13,7.5 13,7 13.5,7 14,7 14.5,7 q 0.5,0 0.875,0.125 0.375,0.125 0.5,0.5 L 16,8 15.5,8 Q 15,8 14.5,8 14,8 13.5,8 L 13,8 13,7.5"
           id="path33271" />
        <path
           style="fill:#212121;fill-opacity:0.98823529"
           d="M 15.875,7.625 15.75,7.25 15.84375,7.53125 15.9375,7.8125 15.875,7.625 Q 15.8125,7.4375 15.6875,7.3125 L 15.5625,7.1875 15.625,7.25 15.6875,7.3125 16,7 16.3125,6.6875 16.25,6.625 16.1875,6.5625 l 0.125,0.125 q 0.125,0.125 0.3125,0.1875 L 16.8125,6.9375 16.53125,6.84375 16.25,6.75 16.625,6.875 17,7 17,7.5 17,8 16.5,8 16,8 15.875,7.625"
           id="path33273" />
        <path
           style="fill:#000000;fill-opacity:0.24313725"
           d="M 17,7.5 17,7 17.5,7 Q 18,7 18,7.5 L 18,8 17.5,8 17,8 17,7.5"
           id="path33275" />
        <path
           style="fill:#000000;fill-opacity:0.56470588"
           d="M 4,8.5 4,8 4.5,8 5,8 5,8.5 5,9 4.5,9 4,9 4,8.5"
           id="path33277" />
        <path
           style="fill:#575757;fill-opacity:1"
           d="M 5,8.5 5,8 5.5,8 6,8 6,8.5 6,9 5.5,9 5,9 5,8.5 M 6,9.125 6,9 6,8.625 6,8.25 6,8.5 Q 6,8.75 6,9 L 6,9.25 6,9.125"
           id="path33279" />
        <path
           style="fill:#2c2c2c;fill-opacity:1"
           d="M 16,8.5 16,8 16.5,8 17,8 17,8.5 17,9 16.484375,8.984375 15.96875,8.96875 15.953125,9.078125 15.9375,9.1875 15.96875,8.96875 Q 16,8.75 16,8.5 L 16,8.25 16,8.625 16,9 16,8.5"
           id="path33281" />
        <path
           style="fill:#000000;fill-opacity:0.31372549"
           d="M 17,8.5 17,8 17.5,8 18,8 18,8.5 18,9 17.5,9 17,9 17,8.5"
           id="path33283" />
        <path
           style="fill:#000000;fill-opacity:0.36078431"
           d="M 4,9.5 4,9 4.5,9 5,9 5.125,9.375 Q 5.25,9.75 5.6875,9.8125 L 6.125,9.875 6.0625,10.4375 6,11 5.5,11 Q 5,11 4.875,10.625 4.75,10.25 4.375,10.125 4,10 4,9.5"
           id="path33285" />
        <path
           style="fill:#343434;fill-opacity:0.98039216"
           d="M 5.125,9.375 5,9 5.5,9 6,9 6,9.5 6,10 6,9.625 6,9.25 6,9.5 Q 6,9.75 6.125,9.875 L 6.25,10 6.1875,9.9375 6.125,9.875 5.6875,9.8125 Q 5.25,9.75 5.125,9.375 M 6,9.375 6,9 6,8.875 6,8.75 6,9 Q 6,9.25 6,9.5 L 6,9.75 6,9.375"
           id="path33287" />
        <path
           style="fill:#a6a6a6;fill-opacity:1"
           d="M 6,9.5 6,9 6.5,9 Q 7,9 7.5,9 8,9 8.5,9 L 9,9 9,9.5 9,10 8.5,10 8,10 7.5,10 Q 7,10 6.5,10 6,10 6,9.5 M 8.625,10 9,10 9.125,10 9.25,10 9,10 q -0.25,0 -0.5,0 l -0.25,0 0.375,0 M 6,8.875 6,9 6,9.375 6,9.75 6,9.5 Q 6,9.25 6,9 L 6,8.75 6,8.875"
           id="path33289" />
        <path
           style="fill:#c5c5c5;fill-opacity:1"
           d="M 9,9.5 9,9 9.375,9.125 Q 9.75,9.25 9.8125,9.6875 L 9.875,10.125 9.9375,10.1875 10,10.25 9.875,10.125 Q 9.75,10 9.5,10 L 9.25,10 9.625,10 10,10 9.5,10 9,10 9,9.5 M 8.875,10 9,10 9.375,10 9.75,10 9.5,10 Q 9.25,10 9,10 l -0.25,0 0.125,0"
           id="path33291" />
        <path
           style="fill:#b7b7b7;fill-opacity:1"
           d="M 12.1875,9.6875 Q 12.25,9.25 12.625,9.125 L 13,9 l 0,0.5 0,0.5 -0.5,0 -0.5,0 0.375,0 0.375,0 -0.25,0 q -0.25,0 -0.375,0.125 L 12,10.25 12.0625,10.1875 12.125,10.125 12.1875,9.6875"
           id="path33293" />
        <path
           style="fill:#a6a6a6;fill-opacity:1"
           d="M 13,9.5 13,9 13.5,9 q 0.5,0 1,0 0.5,0 0.984375,-0.015625 L 15.96875,8.96875 15.984375,8.859375 16,8.75 15.96875,8.96875 Q 15.9375,9.1875 15.875,9.375 L 15.8125,9.5625 15.90625,9.28125 16,9 15.875,9.375 Q 15.75,9.75 15.375,9.875 15,10 14.5,10 L 14,10 13.5,10 13,10 13,9.5"
           id="path33295" />
        <path
           style="fill:#1a1a1a;fill-opacity:0.94509804"
           d="M 15.875,9.375 16,9 15.90625,9.28125 15.8125,9.5625 15.875,9.375 Q 15.9375,9.1875 15.96875,8.96875 L 16,8.75 15.984375,8.859375 15.96875,8.96875 16.484375,8.984375 17,9 17,9.5 17,10 16.625,10.125 16.25,10.25 16.53125,10.15625 16.8125,10.0625 16.625,10.125 q -0.1875,0.0625 -0.3125,0.1875 l -0.125,0.125 L 16.25,10.375 16.3125,10.3125 16,10 15.6875,9.6875 15.625,9.75 15.5625,9.8125 15.6875,9.6875 Q 15.8125,9.5625 15.875,9.375 L 15.9375,9.1875 15.84375,9.46875 15.75,9.75 15.875,9.375"
           id="path33297" />
        <path
           style="fill:#000000;fill-opacity:0.18823529"
           d="M 17,9.5 17,9 17.5,9 18,9 18,9.5 Q 18,10 17.5,10 L 17,10 17,9.5"
           id="path33299" />
        <path
           style="fill:#000000;fill-opacity:0.87843137"
           d="M 6.0625,10.4375 6.125,9.875 6.0625,9.8125 6,9.75 6.125,9.875 Q 6.25,10 6.5,10 L 6.75,10 6.375,10 6,10 6.5,10 q 0.5,0 1,0 L 8,10 8,10.5 8,11 7.5,11 Q 7,11 6.5,11 L 6,11 6.0625,10.4375"
           id="path33301" />
        <path
           style="fill:#000000;fill-opacity:0.94117647"
           d="M 8,10.5 8,10 8.5,10 9,10 9,10.5 9,11 8.5,11 8,11 8,10.5 M 9.125,10 9,10 8.625,10 8.25,10 8.5,10 q 0.25,0 0.5,0 l 0.25,0 -0.125,0"
           id="path33303" />
        <path
           style="fill:#4d4d4d;fill-opacity:1"
           d="M 9,10.5 9,10 9.5,10 Q 10,10 10,10.5 L 10,11 9.5,11 9,11 9,10.5 M 9.375,10 9,10 8.875,10 8.75,10 9,10 q 0.25,0 0.5,0 l 0.25,0 -0.375,0"
           id="path33305" />
        <path
           style="fill:#212121;fill-opacity:1"
           d="M 12,10.5 Q 12,10 12.5,10 l 0.5,0 0,0.5 0,0.5 -0.5,0 -0.5,0 0,-0.5"
           id="path33307" />
        <path
           style="fill:#000000;fill-opacity:0.90980392"
           d="m 13,10.5 0,-0.5 0.5,0 0.5,0 0,0.5 0,0.5 -0.5,0 -0.5,0 0,-0.5"
           id="path33309" />
        <path
           style="fill:#000000;fill-opacity:0.87843137"
           d="m 14,10.5 0,-0.5 0.5,0 Q 15,10 15.375,9.875 L 15.75,9.75 15.46875,9.84375 15.1875,9.9375 15.375,9.875 Q 15.5625,9.8125 15.6875,9.6875 L 15.8125,9.5625 15.75,9.625 15.6875,9.6875 16,10 l 0.3125,0.3125 0.0625,-0.0625 0.0625,-0.0625 -0.125,0.125 q -0.125,0.125 -0.1875,0.3125 L 16.0625,10.8125 16.15625,10.53125 16.25,10.25 16.125,10.625 16,11 15.5,11 q -0.5,0 -1,0 l -0.5,0 0,-0.5"
           id="path33311" />
        <path
           style="fill:#000000;fill-opacity:0.18823529"
           d="m 16.125,10.625 q 0.125,-0.375 0.5,-0.5 L 17,10 17,10.5 Q 17,11 16.5,11 l -0.5,0 0.125,-0.375"
           id="path33313" />
        <path
           style="fill:#000000;fill-opacity:0.57647059"
           d="M 8,11.5 8,11 8.5,11 9,11 9,11.5 q 0,0.5 0,1 0,0.5 0,1 0,0.5 0,1 0,0.5 0,1 0,0.5 0,1 L 9,17 8.5,17 8,17 8,16.5 q 0,-0.5 0,-1 0,-0.5 0,-1 0,-0.5 0,-1 0,-0.5 0,-1 0,-0.5 0,-1"
           id="path33315" />
        <path
           style="fill:#595959;fill-opacity:1"
           d="m 9,11.5 0,-0.5 0.5,0 0.5,0 0,0.5 q 0,0.5 0,1 0,0.5 0,1 0,0.5 0,1 0,0.5 0,1 0,0.5 0,1 L 10,17 9.5,17 9,17 9,16.5 q 0,-0.5 0,-1 0,-0.5 0,-1 0,-0.5 0,-1 0,-0.5 0,-1 0,-0.5 0,-1"
           id="path33317" />
        <path
           style="fill:#303030;fill-opacity:1"
           d="m 12,11.5 0,-0.5 0.5,0 0.5,0 0,0.5 q 0,0.5 0,1 0,0.5 0,1 0,0.5 0,1 0,0.5 0,1 0,0.5 0.125,0.875 L 13.25,16.75 13.15625,16.46875 13.0625,16.1875 13.125,16.375 q 0.0625,0.1875 0.1875,0.3125 l 0.125,0.125 -0.0625,-0.0625 -0.0625,-0.0625 -0.328125,0.296875 -0.328125,0.296875 0.04687,0.04687 L 12.75,17.375 12.65625,17.28125 Q 12.5625,17.1875 12.375,17.125 L 12.1875,17.0625 12.46875,17.15625 12.75,17.25 12.375,17.125 12,17 12,16.5 q 0,-0.5 0,-1 0,-0.5 0,-1 0,-0.5 0,-1 0,-0.5 0,-1 0,-0.5 0,-1"
           id="path33319" />
        <path
           style="fill:#000000;fill-opacity:0.34117647"
           d="m 13,11.5 0,-0.5 0.5,0 0.5,0 0,0.5 q 0,0.5 0,1 0,0.5 0,1 0,0.5 0,1 0,0.5 0,1 0,0.5 0,1 L 14,17 13.625,16.875 Q 13.25,16.75 13.125,16.375 13,16 13,15.5 q 0,-0.5 0,-1 0,-0.5 0,-1 0,-0.5 0,-1 0,-0.5 0,-1"
           id="path33321" />
        <path
           style="fill:#000000;fill-opacity:0.61176471"
           d="M 8,17.5 8,17 8.5,17 9,17 9,17.5 9,18 8.5,18 8,18 8,17.5"
           id="path33323" />
        <path
           style="fill:#606060;fill-opacity:1"
           d="M 9,17.5 9,17 9.5,17 10,17 10,17.5 10,18 9.5,18 9,18 9,17.5 m 1,0.625 0,-0.125 0,-0.375 0,-0.375 0,0.25 q 0,0.25 0,0.5 l 0,0.25 0,-0.125"
           id="path33325" />
        <path
           style="fill:#343434;fill-opacity:1"
           d="m 12,17.5 0,-0.5 0.375,0.125 q 0.375,0.125 0.375,0.375 0,0.25 -0.390625,0.359375 L 11.96875,17.96875 11.953125,18.078125 11.9375,18.1875 11.96875,17.96875 Q 12,17.75 12,17.5 l 0,-0.25 0,0.375 0,0.375 0,-0.5"
           id="path33327" />
        <path
           style="fill:#000000;fill-opacity:0.36470588"
           d="m 12.75,17.5 0,-0.25 0,0.1875 0,0.1875 0,-0.125 q 0,-0.125 -0.09375,-0.21875 l -0.09375,-0.09375 0.04687,0.04687 0.04687,0.04687 0.328125,-0.296875 L 13.3125,16.6875 13.25,16.625 l -0.0625,-0.0625 0.125,0.125 q 0.125,0.125 0.3125,0.1875 L 13.8125,16.9375 13.53125,16.84375 13.25,16.75 13.625,16.875 14,17 14,17.5 14,18 13.625,18.125 13.25,18.25 13.53125,18.15625 13.8125,18.0625 13.625,18.125 q -0.1875,0.0625 -0.3125,0.1875 l -0.125,0.125 0.0625,-0.0625 0.0625,-0.0625 -0.328125,-0.296875 -0.328125,-0.296875 -0.04687,0.04687 -0.04687,0.04687 0.09375,-0.09375 Q 12.75,17.625 12.75,17.5 l 0,-0.125 0,0.1875 0,0.1875 0,-0.25"
           id="path33329" />
        <path
           style="fill:#000000;fill-opacity:0.39607843"
           d="M 8,18.5 8,18 8.5,18 9,18 9.125,18.375 Q 9.25,18.75 9.6875,18.8125 L 10.125,18.875 10.0625,19.4375 10,20 9.5,20 Q 9,20 8.875,19.625 8.75,19.25 8.375,19.125 8,19 8,18.5"
           id="path33331" />
        <path
           style="fill:#3a3a3a;fill-opacity:0.98039216"
           d="M 9.125,18.375 9,18 l 0.5,0 0.5,0 0,0.5 0,0.5 0,-0.375 0,-0.375 0,0.25 q 0,0.25 0.125,0.375 L 10.25,19 10.1875,18.9375 10.125,18.875 9.6875,18.8125 Q 9.25,18.75 9.125,18.375 M 10,18.375 10,18 10,17.875 10,17.75 10,18 q 0,0.25 0,0.5 l 0,0.25 0,-0.375"
           id="path33333" />
        <path
           style="fill:#a2a2a2;fill-opacity:1"
           d="m 10,18.5 0,-0.5 0.5,0 q 0.5,0 0.984375,-0.01563 L 11.96875,17.96875 11.984375,17.859375 12,17.75 11.96875,17.96875 Q 11.9375,18.1875 11.875,18.375 L 11.8125,18.5625 11.90625,18.28125 12,18 11.875,18.375 q -0.125,0.375 -0.5,0.5 Q 11,19 10.5,19 10,19 10,18.5 m 0,-0.625 0,0.125 0,0.375 0,0.375 0,-0.25 q 0,-0.25 0,-0.5 l 0,-0.25 0,0.125"
           id="path33335" />
        <path
           style="fill:#1e1e1e;fill-opacity:0.94901961"
           d="M 11.875,18.375 12,18 11.90625,18.28125 11.8125,18.5625 11.875,18.375 q 0.0625,-0.1875 0.09375,-0.40625 L 12,17.75 11.984375,17.859375 11.96875,17.96875 12.359375,17.859375 12.75,17.75 12.46875,17.84375 12.1875,17.9375 12.375,17.875 q 0.1875,-0.0625 0.28125,-0.15625 L 12.75,17.625 l -0.04687,0.04687 -0.04687,0.04687 0.328125,0.296875 0.328125,0.296875 0.0625,-0.0625 0.0625,-0.0625 -0.125,0.125 q -0.125,0.125 -0.1875,0.3125 L 13.0625,18.8125 13.15625,18.53125 13.25,18.25 13.125,18.625 13,19 12.625,19.125 12.25,19.25 12.53125,19.15625 12.8125,19.0625 12.625,19.125 q -0.1875,0.0625 -0.3125,0.1875 l -0.125,0.125 L 12.25,19.375 12.3125,19.3125 12,19 11.6875,18.6875 11.625,18.75 l -0.0625,0.0625 0.125,-0.125 q 0.125,-0.125 0.1875,-0.3125 L 11.9375,18.1875 11.84375,18.46875 11.75,18.75 11.875,18.375"
           id="path33337" />
        <path
           style="fill:#000000;fill-opacity:0.21960784"
           d="m 13.125,18.625 q 0.125,-0.375 0.5,-0.5 L 14,18 14,18.5 Q 14,19 13.5,19 l -0.5,0 0.125,-0.375"
           id="path33339" />
        <path
           style="fill:#000000;fill-opacity:0.86666667"
           d="M 10.0625,19.4375 10.125,18.875 10.0625,18.8125 10,18.75 10.125,18.875 Q 10.25,19 10.5,19 l 0.25,0 -0.375,0 -0.375,0 0.5,0 q 0.5,0 0.875,-0.125 L 11.75,18.75 11.46875,18.84375 11.1875,18.9375 11.375,18.875 q 0.1875,-0.0625 0.3125,-0.1875 l 0.125,-0.125 L 11.75,18.625 11.6875,18.6875 12,19 l 0.3125,0.3125 0.0625,-0.0625 0.0625,-0.0625 -0.125,0.125 q -0.125,0.125 -0.1875,0.3125 L 12.0625,19.8125 12.15625,19.53125 12.25,19.25 12.125,19.625 12,20 11.5,20 q -0.5,0 -1,0 l -0.5,0 0.0625,-0.5625"
           id="path33341" />
        <path
           style="fill:#000000;fill-opacity:0.21960784"
           d="m 12.125,19.625 q 0.125,-0.375 0.5,-0.5 L 13,19 13,19.5 Q 13,20 12.5,20 l -0.5,0 0.125,-0.375"
           id="path33343" />
      </g>
    </g>
  </g>
</svg>
