<?xml version="1.0" encoding="UTF-8" standalone="no"?>
<!-- Created with Inkscape (http://www.inkscape.org/) -->

<svg
   xmlns:dc="http://purl.org/dc/elements/1.1/"
   xmlns:cc="http://creativecommons.org/ns#"
   xmlns:rdf="http://www.w3.org/1999/02/22-rdf-syntax-ns#"
   xmlns:svg="http://www.w3.org/2000/svg"
   xmlns="http://www.w3.org/2000/svg"
   xmlns:sodipodi="http://sodipodi.sourceforge.net/DTD/sodipodi-0.dtd"
   xmlns:inkscape="http://www.inkscape.org/namespaces/inkscape"
   width="20"
   height="20"
   viewBox="0 0 20 20"
   id="svg3347"
   version="1.1"
   inkscape:version="0.91 r13725"
   sodipodi:docname="Civ5Icon.Trade.svg">
  <defs
     id="defs3349" />
  <sodipodi:namedview
     id="base"
     pagecolor="#ffffff"
     bordercolor="#666666"
     borderopacity="1.0"
     inkscape:pageopacity="0.0"
     inkscape:pageshadow="2"
     inkscape:zoom="11.2"
     inkscape:cx="7.324946"
     inkscape:cy="8.5424036"
     inkscape:document-units="px"
     inkscape:current-layer="g27203"
     showgrid="false"
     units="px"
     inkscape:window-width="1477"
     inkscape:window-height="962"
     inkscape:window-x="533"
     inkscape:window-y="95"
     inkscape:window-maximized="0" />
  <metadata
     id="metadata3352">
    <rdf:RDF>
      <cc:Work
         rdf:about="">
        <dc:format>image/svg+xml</dc:format>
        <dc:type
           rdf:resource="http://purl.org/dc/dcmitype/StillImage" />
        <dc:title></dc:title>
      </cc:Work>
    </rdf:RDF>
  </metadata>
  <g
     inkscape:label="Layer 1"
     inkscape:groupmode="layer"
     id="layer1"
     transform="translate(0,-1032.3622)">
    <g
       transform="translate(-0.22321519 1031.8712)"
       id="g27203">
      <g
         transform="translate(-0.62499871,-0.26792855)"
         id="g68592">
        <path
           style="fill:#000000;fill-opacity:0"
           d="M 0,0.5 0,0 0.5,0 1,0 1.5,0 2,0 2.5,0 3,0 3.5,0 4,0 4.5,0 5,0 5.5,0 6,0 6.5,0 7,0 7.5,0 8,0 8.5,0 9,0 9.5,0 10,0 l 0.5,0 0.5,0 0.5,0 0.5,0 0.5,0 0.5,0 0.5,0 0.5,0 0.5,0 0.5,0 0.5,0 0.5,0 0.5,0 0.5,0 0.5,0 0.5,0 0.5,0 0.5,0 0.5,0 0.5,0 0.5,0 0.5,0 0.5,0 0.5,0 0,0.5 0,0.5 0,0.5 0,0.5 0,0.5 0,0.5 0,0.5 0,0.5 0,0.5 0,0.5 0,0.5 0,0.5 0,0.5 0,0.5 0,0.5 0,0.5 0,0.5 0,0.5 0,0.5 0,0.5 0,0.5 0,0.5 0,0.5 0,0.5 0,0.5 0,0.5 0,0.5 0,0.5 0,0.5 0,0.5 0,0.5 0,0.5 0,0.5 0,0.5 0,0.5 0,0.5 0,0.5 0,0.5 0,0.5 0,0.5 0,0.5 0,0.5 0,0.5 0,0.5 -0.5,0 L 21,22 20.5,22 20,22 19.5,22 19,22 18.5,22 18,22 17.5,22 17,22 16.5,22 16,22 15.5,22 15,22 14.5,22 14,22 13.5,22 13,22 12.5,22 12,22 11.5,22 11,22 10.5,22 10,22 9.5,22 9,22 8.5,22 8,22 7.5,22 7,22 6.5,22 6,22 5.5,22 5,22 4.5,22 4,22 3.5,22 3,22 2.5,22 2,22 1.5,22 1,22 0.5,22 0,22 0,21.5 0,21 0,20.5 0,20 0,19.5 0,19 0,18.5 0,18 0,17.5 0,17 0,16.5 0,16 0,15.5 0,15 0,14.5 0,14 0,13.5 0,13 0,12.5 0,12 0,11.5 0,11 0,10.5 0,10 0,9.5 0,9 0,8.5 0,8 0,7.5 0,7 0,6.5 0,6 0,5.5 0,5 0,4.5 0,4 0,3.5 0,3 0,2.5 0,2 0,1.5 0,1 0,0.5 M 19.625,19.125 Q 20,19 20.125,18.625 20.25,18.25 20.625,18.125 21,18 21.125,17.625 21.25,17.25 20.96875,16.96875 L 20.6875,16.6875 20.625,16.75 l -0.0625,0.0625 0.125,-0.125 q 0.125,-0.125 0.1875,-0.3125 L 20.9375,16.1875 20.84375,16.46875 20.75,16.75 20.875,16.375 Q 21,16 21,15.5 21,15 20.875,14.625 L 20.75,14.25 20.84375,14.53125 20.9375,14.8125 20.875,14.625 q -0.0625,-0.1875 -0.1875,-0.3125 l -0.125,-0.125 0.0625,0.0625 0.0625,0.0625 0.28125,-0.28125 Q 21.25,13.75 21.125,13.375 21,13 20.625,12.875 20.25,12.75 20.125,12.375 20,12 19.625,11.875 19.25,11.75 19.125,11.375 19,11 18.5,11 L 18,11 17.5,11 17,11 17,10.5 17,10 17,9.5 Q 17,9 16.5,9 L 16,9 15.625,8.875 Q 15.25,8.75 15.125,8.375 L 15,8 15,7.5 15,7 15,6.5 15,6 15,5.5 15,5 15,4.5 Q 15,4 14.625,3.875 14.25,3.75 14.125,3.375 14,3 13.625,2.875 13.25,2.75 13.125,2.375 13,2 12.5,2 L 12,2 11.5,2 11,2 10.5,2 10,2 9.5,2 Q 9,2 8.875,2.375 8.75,2.75 8.375,2.875 8,3 7.875,3.375 7.75,3.75 7.375,3.875 7,4 7,4.5 L 7,5 7,5.5 7,6 7,6.5 7,7 7,7.5 7,8 6.875,8.375 Q 6.75,8.75 6.375,8.875 6,9 6,9.5 L 6,10 5.875,10.375 q -0.125,0.375 -0.5,0.5 L 5,11 4.5,11 Q 4,11 3.875,11.375 3.75,11.75 3.375,11.875 L 3,12 2.5,12 Q 2,12 2,12.5 L 2,13 1.5,13 Q 1,13 1,13.5 l 0,0.5 0,0.5 0,0.5 0,0.5 0,0.5 0,0.5 0,0.5 0,0.5 q 0,0.5 0.375,0.625 0.375,0.125 0.5,0.5 Q 2,19 2.5,19 L 3,19 3.375,19.125 Q 3.75,19.25 4.03125,18.96875 L 4.3125,18.6875 4.25,18.625 4.1875,18.5625 l 0.125,0.125 q 0.125,0.125 0.3125,0.1875 L 4.8125,18.9375 4.53125,18.84375 4.25,18.75 4.625,18.875 5,19 5.375,18.875 5.75,18.75 5.46875,18.84375 5.1875,18.9375 5.375,18.875 Q 5.5625,18.8125 5.6875,18.6875 L 5.8125,18.5625 5.75,18.625 5.6875,18.6875 5.96875,18.96875 Q 6.25,19.25 6.625,19.125 L 7,19 7.5,19 Q 8,19 8.125,18.625 8.25,18.25 8.625,18.125 9,18 9,17.5 L 9,17 9.375,17.125 Q 9.75,17.25 10.015625,16.984375 L 10.28125,16.71875 10.203125,16.671875 10.125,16.625 10.28125,16.71875 Q 10.4375,16.8125 10.625,16.875 L 10.8125,16.9375 10.53125,16.84375 10.25,16.75 10.625,16.875 11,17 l 0,0.5 q 0,0.5 0.5,0.5 0.5,0 0.625,-0.375 0.125,-0.375 0.5,-0.5 L 13,17 l 0.375,0.125 q 0.375,0.125 0.5,0.5 0.125,0.375 0.5,0.5 0.375,0.125 0.5,0.5 0.125,0.375 0.5,0.5 0.375,0.125 0.65625,-0.15625 L 16.3125,18.6875 16.25,18.625 l -0.0625,-0.0625 0.125,0.125 q 0.125,0.125 0.3125,0.1875 L 16.8125,18.9375 16.53125,18.84375 16.25,18.75 16.625,18.875 Q 17,19 17.5,19 18,19 18.375,18.875 L 18.75,18.75 18.46875,18.84375 18.1875,18.9375 18.375,18.875 q 0.1875,-0.0625 0.3125,-0.1875 l 0.125,-0.125 -0.0625,0.0625 -0.0625,0.0625 0.28125,0.28125 Q 19.25,19.25 19.625,19.125"
           id="path68594"
           inkscape:connector-curvature="0" />
        <path
           style="fill:#000000;fill-opacity:0.21960784"
           d="M 8.875,2.375 Q 9,2 9.5,2 L 10,2 10.0625,2.5625 10.125,3.125 9.6875,3.1875 9.25,3.25 9.53125,3.15625 9.8125,3.0625 9.625,3.125 Q 9.4375,3.1875 9.28125,3.28125 L 9.125,3.375 9.203125,3.328125 9.28125,3.28125 8.984375,2.984375 8.6875,2.6875 8.625,2.75 8.5625,2.8125 8.6875,2.6875 Q 8.8125,2.5625 8.875,2.375 L 8.9375,2.1875 8.84375,2.46875 8.75,2.75 8.875,2.375"
           id="path68596"
           inkscape:connector-curvature="0" />
        <path
           style="fill:#000000;fill-opacity:0.58431373"
           d="M 10.0625,2.5625 10,2 10.5,2 11,2 11,2.5 11,3 10.5,3 10,3 10.375,3 10.75,3 10.5,3 Q 10.25,3 10.125,3.125 L 10,3.25 10.0625,3.1875 10.125,3.125 10.0625,2.5625 M 10.625,3 11,3 11.125,3 11.25,3 11,3 q -0.25,0 -0.5,0 l -0.25,0 0.375,0"
           id="path68598"
           inkscape:connector-curvature="0" />
        <path
           style="fill:#000000;fill-opacity:0.61960784"
           d="M 11,2.5 11,2 11.5,2 12,2 11.984375,2.515625 11.96875,3.03125 12.078125,3.046875 12.1875,3.0625 11.96875,3.03125 Q 11.75,3 11.5,3 L 11.25,3 11.625,3 12,3 11.5,3 11,3 11,2.5 M 10.875,3 11,3 11.375,3 11.75,3 11.5,3 Q 11.25,3 11,3 l -0.25,0 0.125,0"
           id="path68600"
           inkscape:connector-curvature="0" />
        <path
           style="fill:#000000;fill-opacity:0.33333333"
           d="M 11.984375,2.515625 12,2 12.5,2 Q 13,2 13.125,2.375 L 13.25,2.75 13.15625,2.46875 13.0625,2.1875 13.125,2.375 q 0.0625,0.1875 0.1875,0.3125 l 0.125,0.125 L 13.375,2.75 13.3125,2.6875 13.015625,2.984375 12.71875,3.28125 12.796875,3.328125 12.875,3.375 12.71875,3.28125 Q 12.5625,3.1875 12.375,3.125 L 12.1875,3.0625 12.46875,3.15625 12.75,3.25 12.375,3.125 12,3 12.28125,3.09375 12.5625,3.1875 12.375,3.125 Q 12.1875,3.0625 11.96875,3.03125 L 11.75,3 11.859375,3.015625 11.96875,3.03125 11.984375,2.515625"
           id="path68602"
           inkscape:connector-curvature="0" />
        <path
           style="fill:#000000;fill-opacity:0.45098039"
           d="M 7.875,3.375 Q 8,3 8.375,2.875 L 8.75,2.75 8.46875,2.84375 8.1875,2.9375 8.375,2.875 Q 8.5625,2.8125 8.6875,2.6875 L 8.8125,2.5625 8.75,2.625 8.6875,2.6875 8.984375,2.984375 9.28125,3.28125 9.359375,3.234375 9.4375,3.1875 9.28125,3.28125 Q 9.125,3.375 9,3.5 L 8.875,3.625 9.0625,3.4375 9.25,3.25 9,3.5 Q 8.75,3.75 8.5,4 L 8.25,4.25 8.4375,4.0625 8.625,3.875 8.5,4 Q 8.375,4.125 8.28125,4.28125 L 8.1875,4.4375 8.234375,4.359375 8.28125,4.28125 7.984375,3.984375 7.6875,3.6875 7.625,3.75 7.5625,3.8125 7.6875,3.6875 Q 7.8125,3.5625 7.875,3.375 L 7.9375,3.1875 7.84375,3.46875 7.75,3.75 7.875,3.375"
           id="path68604"
           inkscape:connector-curvature="0" />
        <path
           style="fill:#54502f;fill-opacity:0.98431373"
           d="M 9,3.5 Q 9.25,3.25 9.6875,3.1875 L 10.125,3.125 10.1875,3.0625 10.25,3 10.125,3.125 Q 10,3.25 10,3.5 L 10,3.75 10,3.375 10,3 10,3.5 10,4 9.625,4.125 9.25,4.25 9.53125,4.15625 9.8125,4.0625 9.625,4.125 Q 9.4375,4.1875 9.3125,4.3125 L 9.1875,4.4375 9.25,4.375 9.3125,4.3125 9.03125,4.03125 8.75,3.75 9,3.5 M 8.9375,3.5625 8.75,3.75 8.6875,3.8125 8.625,3.875 8.75,3.75 Q 8.875,3.625 9,3.5 L 9.125,3.375 8.9375,3.5625"
           id="path68606"
           inkscape:connector-curvature="0" />
        <path
           style="fill:#c6c572;fill-opacity:1"
           d="M 10,3.5 Q 10,3 10.5,3 L 11,3 11,3.5 11,4 10.5,4 10,4 10,3.5 M 10.625,4 11,4 11.125,4 11.25,4 11,4 q -0.25,0 -0.5,0 l -0.25,0 0.375,0 M 11.125,3 11,3 10.625,3 10.25,3 10.5,3 q 0.25,0 0.5,0 l 0.25,0 -0.125,0"
           id="path68608"
           inkscape:connector-curvature="0" />
        <path
           style="fill:#cdcc6a;fill-opacity:1"
           d="M 11,3.5 11,3 11.5,3 12,3 11.625,3 11.25,3 11.5,3 q 0.25,0 0.46875,0.03125 L 12.1875,3.0625 12.078125,3.046875 11.96875,3.03125 l 0,0.5 0,0.5 0.109375,0.015625 L 12.1875,4.0625 11.96875,4.03125 Q 11.75,4 11.5,4 L 11.25,4 11.625,4 12,4 11.5,4 11,4 11,3.5 M 10.875,4 11,4 11.375,4 11.75,4 11.5,4 Q 11.25,4 11,4 l -0.25,0 0.125,0 M 11.375,3 11,3 10.875,3 10.75,3 11,3 q 0.25,0 0.5,0 l 0.25,0 -0.375,0"
           id="path68610"
           inkscape:connector-curvature="0" />
        <path
           style="fill:#7b7735;fill-opacity:1"
           d="m 11.96875,3.53125 0,-0.5 L 11.859375,3.015625 11.75,3 11.96875,3.03125 Q 12.1875,3.0625 12.375,3.125 L 12.5625,3.1875 12.28125,3.09375 12,3 12.375,3.125 Q 12.75,3.25 13,3.5 L 13.25,3.75 12.96875,4.03125 12.6875,4.3125 12.75,4.375 12.8125,4.4375 12.6875,4.3125 Q 12.5625,4.1875 12.375,4.125 L 12.1875,4.0625 12.46875,4.15625 12.75,4.25 12.375,4.125 12,4 12.28125,4.09375 12.5625,4.1875 12.375,4.125 Q 12.1875,4.0625 11.96875,4.03125 L 11.75,4 l 0.109375,0.015625 0.109375,0.015625 0,-0.5 M 13.3125,3.8125 13.25,3.75 13.0625,3.5625 12.875,3.375 13,3.5 q 0.125,0.125 0.25,0.25 l 0.125,0.125 -0.0625,-0.0625"
           id="path68612"
           inkscape:connector-curvature="0" />
        <path
           style="fill:#020200;fill-opacity:0.63921569"
           d="M 13,3.5 12.75,3.25 12.9375,3.4375 13.125,3.625 13,3.5 Q 12.875,3.375 12.71875,3.28125 L 12.5625,3.1875 12.640625,3.234375 12.71875,3.28125 13.015625,2.984375 13.3125,2.6875 13.25,2.625 13.1875,2.5625 l 0.125,0.125 q 0.125,0.125 0.3125,0.1875 L 13.8125,2.9375 13.53125,2.84375 13.25,2.75 13.625,2.875 Q 14,3 14.125,3.375 L 14.25,3.75 14.15625,3.46875 14.0625,3.1875 14.125,3.375 q 0.0625,0.1875 0.1875,0.3125 l 0.125,0.125 L 14.375,3.75 14.3125,3.6875 14.015625,3.984375 13.71875,4.28125 13.765625,4.359375 13.8125,4.4375 13.71875,4.28125 Q 13.625,4.125 13.5,4 L 13.375,3.875 13.5625,4.0625 13.75,4.25 13.5,4 Q 13.25,3.75 13,3.5"
           id="path68614"
           inkscape:connector-curvature="0" />
        <path
           style="fill:#000000;fill-opacity:0.16862745"
           d="M 7,4.5 Q 7,4 7.375,3.875 L 7.75,3.75 7.46875,3.84375 7.1875,3.9375 7.375,3.875 Q 7.5625,3.8125 7.6875,3.6875 L 7.8125,3.5625 7.75,3.625 7.6875,3.6875 7.984375,3.984375 8.28125,4.28125 8.328125,4.203125 8.375,4.125 8.28125,4.28125 Q 8.1875,4.4375 8.125,4.625 L 8.0625,4.8125 8.15625,4.53125 8.25,4.25 8.1875,4.6875 8.125,5.125 7.5625,5.0625 7,5 7,4.5"
           id="path68616"
           inkscape:connector-curvature="0" />
        <path
           style="fill:#484526;fill-opacity:0.98039216"
           d="M 8.1875,4.6875 Q 8.25,4.25 8.5,4 L 8.75,3.75 9.03125,4.03125 9.3125,4.3125 9.375,4.25 9.4375,4.1875 9.3125,4.3125 Q 9.1875,4.4375 9.125,4.625 L 9.0625,4.8125 9.15625,4.53125 9.25,4.25 9.125,4.625 9,5 8.5,5 8,5 8.375,5 8.75,5 8.5,5 Q 8.25,5 8.125,5.125 L 8,5.25 8.0625,5.1875 8.125,5.125 8.1875,4.6875 m 0.625,-1 L 8.75,3.75 8.5625,3.9375 8.375,4.125 8.5,4 Q 8.625,3.875 8.75,3.75 L 8.875,3.625 8.8125,3.6875"
           id="path68618"
           inkscape:connector-curvature="0" />
        <path
           style="fill:#fcf888;fill-opacity:1"
           d="M 9.125,4.625 Q 9.25,4.25 9.625,4.125 L 10,4 9.875,4.375 Q 9.75,4.75 9.375,4.875 L 9,5 9.125,4.625"
           id="path68620"
           inkscape:connector-curvature="0" />
        <path
           style="fill:#ffff78;fill-opacity:1"
           d="M 9.875,4.375 10,4 10.5,4 11,4 11,4.5 11,5 10.625,5.125 10.25,5.25 10.53125,5.15625 10.8125,5.0625 10.625,5.125 Q 10.4375,5.1875 10.28125,5.28125 L 10.125,5.375 10.203125,5.328125 10.28125,5.28125 9.984375,4.984375 9.6875,4.6875 9.625,4.75 9.5625,4.8125 9.6875,4.6875 Q 9.8125,4.5625 9.875,4.375 L 9.9375,4.1875 9.84375,4.46875 9.75,4.75 9.875,4.375"
           id="path68622"
           inkscape:connector-curvature="0" />
        <path
           style="fill:#ffff72;fill-opacity:1"
           d="M 11,4.5 11,4 11.5,4 12,4 11.875,4.375 q -0.125,0.375 -0.5,0.5 L 11,5 11,4.5"
           id="path68624"
           inkscape:connector-curvature="0" />
        <path
           style="fill:#ffff68;fill-opacity:1"
           d="M 11.875,4.375 12,4 12.375,4.125 q 0.375,0.125 0.5,0.5 L 13,5 12.625,5.125 12.25,5.25 12.53125,5.15625 12.8125,5.0625 12.625,5.125 Q 12.4375,5.1875 12.28125,5.28125 L 12.125,5.375 12.203125,5.328125 12.28125,5.28125 11.984375,4.984375 11.6875,4.6875 11.625,4.75 11.5625,4.8125 11.6875,4.6875 Q 11.8125,4.5625 11.875,4.375 L 11.9375,4.1875 11.84375,4.46875 11.75,4.75 11.875,4.375"
           id="path68626"
           inkscape:connector-curvature="0" />
        <path
           style="fill:#73621f;fill-opacity:0.99607843"
           d="M 12.875,4.625 12.75,4.25 12.84375,4.53125 12.9375,4.8125 12.875,4.625 Q 12.8125,4.4375 12.6875,4.3125 L 12.5625,4.1875 12.625,4.25 12.6875,4.3125 12.96875,4.03125 13.25,3.75 13.5,4 q 0.25,0.25 0.375,0.625 L 14,5 13.90625,4.71875 13.8125,4.4375 13.875,4.625 q 0.0625,0.1875 0.09375,0.40625 L 14,5.25 13.984375,5.140625 13.96875,5.03125 l -0.5,0 -0.5,0 0.01563,0.109375 L 13,5.25 12.96875,5.03125 Q 12.9375,4.8125 12.875,4.625 L 12.8125,4.4375 12.90625,4.71875 13,5 12.875,4.625 M 13.4375,3.9375 13.25,3.75 13.1875,3.6875 13.125,3.625 13.25,3.75 Q 13.375,3.875 13.5,4 l 0.125,0.125 -0.1875,-0.1875"
           id="path68628"
           inkscape:connector-curvature="0" />
        <path
           style="fill:#000000;fill-opacity:0.4"
           d="M 13.875,4.625 13.75,4.25 13.84375,4.53125 13.9375,4.8125 13.875,4.625 Q 13.8125,4.4375 13.71875,4.28125 L 13.625,4.125 13.671875,4.203125 13.71875,4.28125 14.015625,3.984375 14.3125,3.6875 14.25,3.625 14.1875,3.5625 l 0.125,0.125 q 0.125,0.125 0.3125,0.1875 L 14.8125,3.9375 14.53125,3.84375 14.25,3.75 14.625,3.875 Q 15,4 15,4.5 L 15,5 14.5,5 14,5 13.875,4.625"
           id="path68630"
           inkscape:connector-curvature="0" />
        <path
           style="fill:#000000;fill-opacity:0.4627451"
           d="M 7,5.5 7,5 7.5625,5.0625 8.125,5.125 8.1875,5.0625 8.25,5 8.125,5.125 Q 8,5.25 8,5.5 L 8,5.75 8,5.375 8,5 8,5.5 8,6 7.5,6 7,6 7,5.5 M 8,6.125 8,6 8,5.625 8,5.25 8,5.5 Q 8,5.75 8,6 L 8,6.25 8,6.125"
           id="path68632"
           inkscape:connector-curvature="0" />
        <path
           style="fill:#b6b15b;fill-opacity:1"
           d="M 8,5.5 Q 8,5 8.5,5 L 9,5 9,5.5 9,6 8.5,6 8,6 8,5.5 M 8,5.625 8,6 8,6.125 8,6.25 8,6 Q 8,5.75 8,5.5 L 8,5.25 8,5.625"
           id="path68634"
           inkscape:connector-curvature="0" />
        <path
           style="fill:#ffff70;fill-opacity:1"
           d="M 9,5.5 9,5 9.375,4.875 9.75,4.75 9.46875,4.84375 9.1875,4.9375 9.375,4.875 Q 9.5625,4.8125 9.6875,4.6875 L 9.8125,4.5625 9.75,4.625 9.6875,4.6875 9.984375,4.984375 10.28125,5.28125 10.359375,5.234375 10.4375,5.1875 10.28125,5.28125 Q 10.125,5.375 10,5.5 L 9.875,5.625 10.0625,5.4375 10.25,5.25 10,5.5 Q 9.75,5.75 9.375,5.875 L 9,6 9,5.5"
           id="path68636"
           inkscape:connector-curvature="0" />
        <path
           style="fill:#fcf75b;fill-opacity:1"
           d="M 10,5.5 Q 10.25,5.25 10.625,5.125 L 11,5 11,5.5 11,6 10.625,6.125 10.25,6.25 10.53125,6.15625 10.8125,6.0625 10.625,6.125 Q 10.4375,6.1875 10.3125,6.3125 L 10.1875,6.4375 10.25,6.375 10.3125,6.3125 10.015625,6.015625 9.71875,5.71875 9.640625,5.765625 9.5625,5.8125 9.71875,5.71875 Q 9.875,5.625 10,5.5 L 10.125,5.375 9.9375,5.5625 9.75,5.75 10,5.5"
           id="path68638"
           inkscape:connector-curvature="0" />
        <path
           style="fill:#fcf75e;fill-opacity:1"
           d="M 11,5.5 11,5 11.375,4.875 11.75,4.75 11.46875,4.84375 11.1875,4.9375 11.375,4.875 Q 11.5625,4.8125 11.6875,4.6875 L 11.8125,4.5625 11.75,4.625 11.6875,4.6875 11.984375,4.984375 12.28125,5.28125 12.359375,5.234375 12.4375,5.1875 12.28125,5.28125 Q 12.125,5.375 12,5.5 L 11.875,5.625 12.0625,5.4375 12.25,5.25 12,5.5 Q 11.75,5.75 11.375,5.875 L 11,6 11,5.5"
           id="path68640"
           inkscape:connector-curvature="0" />
        <path
           style="fill:#fffd5f;fill-opacity:1"
           d="M 12,5.5 Q 12.25,5.25 12.625,5.125 L 13,5 13,5.5 13,6 12.625,6.125 12.25,6.25 12.53125,6.15625 12.8125,6.0625 12.625,6.125 Q 12.4375,6.1875 12.28125,6.28125 L 12.125,6.375 12.203125,6.328125 12.28125,6.28125 12,6 11.71875,5.71875 11.640625,5.765625 11.5625,5.8125 11.71875,5.71875 Q 11.875,5.625 12,5.5 L 12.125,5.375 11.9375,5.5625 11.75,5.75 12,5.5"
           id="path68642"
           inkscape:connector-curvature="0" />
        <path
           style="fill:#dfc03a;fill-opacity:1"
           d="M 13,5.5 13,5 13,5.375 13,5.75 13,5.5 Q 13,5.25 12.96875,5.03125 L 12.9375,4.8125 l 0.01563,0.109375 0.01563,0.109375 0.5,0 0.5,0 L 13.953125,4.921875 13.9375,4.8125 13.96875,5.03125 Q 14,5.25 14,5.5 L 14,5.75 14,5.375 14,5 14,5.5 14,6 13.5,6 13,6 13,5.5"
           id="path68644"
           inkscape:connector-curvature="0" />
        <path
           style="fill:#090501;fill-opacity:0.74901961"
           d="M 14,5.5 14,5 14.5,5 15,5 15,5.5 15,6 14.5,6 14,6 14,5.5"
           id="path68646"
           inkscape:connector-curvature="0" />
        <path
           style="fill:#000000;fill-opacity:0.44705882"
           d="M 7,6.5 7,6 7.5,6 8,6 8,6.5 8,7 8,6.625 8,6.25 8,6.5 Q 8,6.75 8.125,6.875 L 8.25,7 8.1875,6.9375 8.125,6.875 7.5625,6.9375 7,7 7,6.5 M 8,6.375 8,6 8,5.875 8,5.75 8,6 Q 8,6.25 8,6.5 L 8,6.75 8,6.375"
           id="path68648"
           inkscape:connector-curvature="0" />
        <path
           style="fill:#b1ac40;fill-opacity:1"
           d="M 8,6.5 8,6 8.5,6 9,6 9,6.5 9,7 8.5,7 Q 8,7 8,6.5 M 8,5.875 8,6 8,6.375 8,6.75 8,6.5 Q 8,6.25 8,6 L 8,5.75 8,5.875"
           id="path68650"
           inkscape:connector-curvature="0" />
        <path
           style="fill:#ffff5b;fill-opacity:1"
           d="M 9,6.5 9,6 9.375,5.875 9.75,5.75 9.46875,5.84375 9.1875,5.9375 9.375,5.875 Q 9.5625,5.8125 9.71875,5.71875 L 9.875,5.625 9.796875,5.671875 9.71875,5.71875 10.015625,6.015625 10.3125,6.3125 10.375,6.25 10.4375,6.1875 10.3125,6.3125 Q 10.1875,6.4375 10.125,6.625 L 10.0625,6.8125 10.15625,6.53125 10.25,6.25 10.125,6.625 10,7 9.5,7 9,7 9,6.5"
           id="path68652"
           inkscape:connector-curvature="0" />
        <path
           style="fill:#fbf653;fill-opacity:1"
           d="m 10.125,6.625 q 0.125,-0.375 0.5,-0.5 L 11,6 11,6.5 11,7 10.5,7 10,7 10.125,6.625"
           id="path68654"
           inkscape:connector-curvature="0" />
        <path
           style="fill:#fbf854;fill-opacity:1"
           d="M 11,6.5 11,6 11.375,5.875 11.75,5.75 11.46875,5.84375 11.1875,5.9375 11.375,5.875 Q 11.5625,5.8125 11.71875,5.71875 L 11.875,5.625 11.796875,5.671875 11.71875,5.71875 12,6 12.28125,6.28125 12.359375,6.234375 12.4375,6.1875 12.28125,6.28125 Q 12.125,6.375 12,6.5 L 11.875,6.625 12.0625,6.4375 12.25,6.25 12,6.5 Q 11.75,6.75 11.375,6.875 L 11,7 11,6.5"
           id="path68656"
           inkscape:connector-curvature="0" />
        <path
           style="fill:#fffb51;fill-opacity:1"
           d="M 12,6.5 Q 12.25,6.25 12.625,6.125 L 13,6 13,6.5 13,7 12.625,7.125 12.25,7.25 12.53125,7.15625 12.8125,7.0625 12.625,7.125 Q 12.4375,7.1875 12.3125,7.3125 L 12.1875,7.4375 12.25,7.375 12.3125,7.3125 12.015625,7.015625 11.71875,6.71875 11.640625,6.765625 11.5625,6.8125 11.71875,6.71875 Q 11.875,6.625 12,6.5 L 12.125,6.375 11.9375,6.5625 11.75,6.75 12,6.5"
           id="path68658"
           inkscape:connector-curvature="0" />
        <path
           style="fill:#d9b930;fill-opacity:1"
           d="M 13,6.5 13,6 13.5,6 14,6 14,6.5 14,7 13.5,7 13,7 13,6.5 M 14,7.125 14,7 14,6.625 14,6.25 14,6.5 q 0,0.25 0,0.5 l 0,0.25 0,-0.125"
           id="path68660"
           inkscape:connector-curvature="0" />
        <path
           style="fill:#080601;fill-opacity:0.72156863"
           d="M 14,6.5 14,6 14.5,6 15,6 15,6.5 15,7 14.5,7 14,7 14,6.5"
           id="path68662"
           inkscape:connector-curvature="0" />
        <path
           style="fill:#000000;fill-opacity:0.12941176"
           d="M 7,7.5 7,7 7.5625,6.9375 8.125,6.875 8.1875,7.3125 8.25,7.75 8.15625,7.46875 8.0625,7.1875 8.125,7.375 Q 8.1875,7.5625 8.28125,7.71875 L 8.375,7.875 8.328125,7.796875 8.28125,7.71875 7.984375,8.015625 7.6875,8.3125 7.75,8.375 7.8125,8.4375 7.6875,8.3125 Q 7.5625,8.1875 7.375,8.125 L 7.1875,8.0625 7.46875,8.15625 7.75,8.25 7.375,8.125 7,8 7,7.5"
           id="path68664"
           inkscape:connector-curvature="0" />
        <path
           style="fill:#423f0c;fill-opacity:0.96078431"
           d="M 8.1875,7.3125 8.125,6.875 8.0625,6.8125 8,6.75 8.125,6.875 Q 8.25,7 8.5,7 L 8.75,7 8.375,7 8,7 8.5,7 9,7 9.125,7.375 9.25,7.75 9.15625,7.46875 9.0625,7.1875 9.125,7.375 Q 9.1875,7.5625 9.3125,7.6875 L 9.4375,7.8125 9.375,7.75 9.3125,7.6875 9.03125,7.96875 8.75,8.25 8.5,8 Q 8.25,7.75 8.1875,7.3125 m 0.375,0.75 L 8.75,8.25 8.8125,8.3125 8.875,8.375 8.75,8.25 Q 8.625,8.125 8.5,8 L 8.375,7.875 8.5625,8.0625"
           id="path68666"
           inkscape:connector-curvature="0" />
        <path
           style="fill:#fae73d;fill-opacity:1"
           d="M 9.125,7.375 9,7 9.5,7 10,7 10,7.5 10,8 9.625,7.875 Q 9.25,7.75 9.125,7.375 M 10.125,7 10,7 9.625,7 9.25,7 9.5,7 Q 9.75,7 10,7 l 0.25,0 -0.125,0"
           id="path68668"
           inkscape:connector-curvature="0" />
        <path
           style="fill:#fffd47;fill-opacity:1"
           d="M 10,7.5 10,7 10.5,7 11,7 11,7.5 11,8 10.5,8 10,8 10,7.5 M 10.375,7 10,7 9.875,7 9.75,7 10,7 q 0.25,0 0.5,0 l 0.25,0 -0.375,0"
           id="path68670"
           inkscape:connector-curvature="0" />
        <path
           style="fill:#fffc47;fill-opacity:1"
           d="M 11,7.5 11,7 11.375,6.875 11.75,6.75 11.46875,6.84375 11.1875,6.9375 11.375,6.875 Q 11.5625,6.8125 11.71875,6.71875 L 11.875,6.625 11.796875,6.671875 11.71875,6.71875 12.015625,7.015625 12.3125,7.3125 12.375,7.25 12.4375,7.1875 12.3125,7.3125 Q 12.1875,7.4375 12.125,7.625 L 12.0625,7.8125 12.15625,7.53125 12.25,7.25 12.125,7.625 12,8 11.5,8 11,8 11,7.5"
           id="path68672"
           inkscape:connector-curvature="0" />
        <path
           style="fill:#ffee3b;fill-opacity:1"
           d="m 12.125,7.625 q 0.125,-0.375 0.5,-0.5 L 13,7 12.875,7.375 q -0.125,0.375 -0.5,0.5 L 12,8 12.125,7.625"
           id="path68674"
           inkscape:connector-curvature="0" />
        <path
           style="fill:#685613;fill-opacity:1"
           d="M 12.875,7.375 13,7 13.5,7 14,7 14,7.5 14,8 14,7.625 14,7.25 14,7.5 q 0,0.25 0.03125,0.46875 L 14.0625,8.1875 14.046875,8.078125 14.03125,7.96875 13.640625,8.109375 13.25,8.25 13.53125,8.15625 13.8125,8.0625 13.625,8.125 Q 13.4375,8.1875 13.34375,8.28125 L 13.25,8.375 13.296875,8.328125 13.34375,8.28125 13.015625,7.984375 12.6875,7.6875 12.625,7.75 12.5625,7.8125 12.6875,7.6875 Q 12.8125,7.5625 12.875,7.375 L 12.9375,7.1875 12.84375,7.46875 12.75,7.75 12.875,7.375 M 14,7.375 14,7 14,6.875 14,6.75 14,7 q 0,0.25 0,0.5 l 0,0.25 0,-0.375"
           id="path68676"
           inkscape:connector-curvature="0" />
        <path
           style="fill:#000000;fill-opacity:0.38039216"
           d="M 14,7.5 14,7 14.5,7 15,7 15,7.5 15,8 14.5,8 14,8 14,7.5"
           id="path68678"
           inkscape:connector-curvature="0" />
        <path
           style="fill:#000000;fill-opacity:0.0627451"
           d="M 6.875,8.375 7,8 7.375,8.125 q 0.375,0.125 0.5,0.5 L 8,9 7.625,9.125 7.25,9.25 7.53125,9.15625 7.8125,9.0625 7.625,9.125 Q 7.4375,9.1875 7.3125,9.3125 L 7.1875,9.4375 7.25,9.375 7.3125,9.3125 7,9 6.6875,8.6875 6.625,8.75 6.5625,8.8125 6.6875,8.6875 Q 6.8125,8.5625 6.875,8.375 L 6.9375,8.1875 6.84375,8.46875 6.75,8.75 6.875,8.375"
           id="path68680"
           inkscape:connector-curvature="0" />
        <path
           style="fill:#000000;fill-opacity:0.79215686"
           d="M 7.875,8.625 7.75,8.25 7.84375,8.53125 7.9375,8.8125 7.875,8.625 Q 7.8125,8.4375 7.6875,8.3125 L 7.5625,8.1875 7.625,8.25 7.6875,8.3125 7.984375,8.015625 8.28125,7.71875 8.234375,7.640625 8.1875,7.5625 8.28125,7.71875 Q 8.375,7.875 8.5,8 L 8.625,8.125 8.4375,7.9375 8.25,7.75 8.5,8 Q 8.75,8.25 9,8.5 L 9.25,8.75 9.0625,8.5625 8.875,8.375 9,8.5 Q 9.125,8.625 9.28125,8.71875 L 9.4375,8.8125 9.359375,8.765625 9.28125,8.71875 8.984375,9.015625 8.6875,9.3125 8.75,9.375 8.8125,9.4375 8.6875,9.3125 Q 8.5625,9.1875 8.375,9.125 L 8.1875,9.0625 8.46875,9.15625 8.75,9.25 8.375,9.125 8,9 7.875,8.625"
           id="path68682"
           inkscape:connector-curvature="0" />
        <path
           style="fill:#463a0b;fill-opacity:1"
           d="M 9,8.5 8.75,8.25 9.03125,7.96875 9.3125,7.6875 9.25,7.625 9.1875,7.5625 9.3125,7.6875 Q 9.4375,7.8125 9.625,7.875 L 9.8125,7.9375 9.53125,7.84375 9.25,7.75 9.625,7.875 10,8 10.015625,8.484375 10.03125,8.96875 10.140625,8.984375 10.25,9 10.03125,8.96875 Q 9.8125,8.9375 9.625,8.875 L 9.4375,8.8125 9.71875,8.90625 10,9 9.625,8.875 Q 9.25,8.75 9,8.5 M 8.6875,8.1875 8.75,8.25 8.9375,8.4375 9.125,8.625 9,8.5 Q 8.875,8.375 8.75,8.25 L 8.625,8.125 8.6875,8.1875"
           id="path68684"
           inkscape:connector-curvature="0" />
        <path
           style="fill:#aa921c;fill-opacity:1"
           d="M 10.015625,8.484375 10,8 10.5,8 11,8 11,8.5 11,9 10.5,9 10,9 10.375,9 10.75,9 10.5,9 Q 10.25,9 10.03125,8.96875 L 9.8125,8.9375 9.921875,8.953125 10.03125,8.96875 10.015625,8.484375"
           id="path68686"
           inkscape:connector-curvature="0" />
        <path
           style="fill:#b1971d;fill-opacity:1"
           d="M 11,8.5 11,8 11.5,8 12,8 11.625,8 11.25,8 11.5,8 q 0.25,0 0.46875,-0.03125 L 12.1875,7.9375 12.078125,7.953125 11.96875,7.96875 l 0,0.53125 0,0.53125 0.109375,0.015625 L 12.1875,9.0625 11.96875,9.03125 Q 11.75,9 11.5,9 L 11.25,9 11.625,9 12,9 11.5,9 11,9 11,8.5"
           id="path68688"
           inkscape:connector-curvature="0" />
        <path
           style="fill:#715e12;fill-opacity:1"
           d="m 11.96875,8.5 0,-0.53125 L 11.859375,7.984375 11.75,8 11.96875,7.96875 Q 12.1875,7.9375 12.375,7.875 L 12.5625,7.8125 12.28125,7.90625 12,8 12.375,7.875 12.75,7.75 12.46875,7.84375 12.1875,7.9375 12.375,7.875 Q 12.5625,7.8125 12.6875,7.6875 L 12.8125,7.5625 12.75,7.625 12.6875,7.6875 13.015625,7.984375 13.34375,8.28125 13.390625,8.234375 13.4375,8.1875 13.34375,8.28125 Q 13.25,8.375 13.25,8.5 l 0,0.125 0,-0.1875 0,-0.1875 0,0.25 0,0.25 0,-0.1875 0,-0.1875 0,0.125 q 0,0.125 0.0625,0.25 L 13.375,8.875 13.34375,8.8125 13.3125,8.75 13,9.03125 12.6875,9.3125 12.75,9.375 12.8125,9.4375 12.6875,9.3125 Q 12.5625,9.1875 12.375,9.125 L 12.1875,9.0625 12.46875,9.15625 12.75,9.25 12.375,9.125 12,9 12.28125,9.09375 12.5625,9.1875 12.375,9.125 Q 12.1875,9.0625 11.96875,9.03125 L 11.75,9 l 0.109375,0.015625 0.109375,0.015625 0,-0.53125"
           id="path68690"
           inkscape:connector-curvature="0" />
        <path
           style="fill:#37300a;fill-opacity:1"
           d="m 13.25,8.5 q 0,-0.25 0.390625,-0.390625 L 14.03125,7.96875 14.015625,7.859375 14,7.75 14.03125,7.96875 Q 14.0625,8.1875 14.125,8.375 L 14.1875,8.5625 14.09375,8.28125 14,8 14.125,8.375 14.25,8.75 14.15625,8.46875 14.0625,8.1875 14.125,8.375 q 0.0625,0.1875 0.15625,0.34375 L 14.375,8.875 14.328125,8.796875 14.28125,8.71875 13.984375,8.984375 13.6875,9.25 13.71875,9.3125 13.75,9.375 13.6875,9.25 Q 13.625,9.125 13.5,9 L 13.375,8.875 13.5625,9.0625 13.75,9.25 13.5,9 Q 13.25,8.75 13.25,8.5"
           id="path68692"
           inkscape:connector-curvature="0" />
        <path
           style="fill:#000000;fill-opacity:0.43921569"
           d="M 14.125,8.375 14,8 14.5,8 15,8 15.125,8.375 15.25,8.75 15.15625,8.46875 15.0625,8.1875 15.125,8.375 q 0.0625,0.1875 0.1875,0.3125 l 0.125,0.125 L 15.375,8.75 15.3125,8.6875 15.03125,8.96875 14.75,9.25 14.5,9 Q 14.25,8.75 14.125,8.375 M 14.5625,9.0625 14.75,9.25 14.8125,9.3125 14.875,9.375 14.75,9.25 Q 14.625,9.125 14.5,9 l -0.125,-0.125 0.1875,0.1875"
           id="path68694"
           inkscape:connector-curvature="0" />
        <path
           style="fill:#000000;fill-opacity:0.31372549"
           d="M 6,9.5 Q 6,9 6.375,8.875 L 6.75,8.75 6.46875,8.84375 6.1875,8.9375 6.375,8.875 Q 6.5625,8.8125 6.6875,8.6875 L 6.8125,8.5625 6.75,8.625 6.6875,8.6875 7,9 7.3125,9.3125 7.375,9.25 7.4375,9.1875 7.3125,9.3125 Q 7.1875,9.4375 7.125,9.625 L 7.0625,9.8125 7.15625,9.53125 7.25,9.25 7.125,9.625 7,10 6.5,10 6,10 6,9.5"
           id="path68696"
           inkscape:connector-curvature="0" />
        <path
           style="fill:#38381f;fill-opacity:0.91764706"
           d="M 7.125,9.625 Q 7.25,9.25 7.625,9.125 L 8,9 7.71875,9.09375 7.4375,9.1875 7.625,9.125 Q 7.8125,9.0625 8,9.0625 l 0.1875,0 -0.09375,0 L 8,9.0625 7.875,9.40625 Q 7.75,9.75 7.390625,9.890625 L 7.03125,10.03125 7.015625,10.140625 7,10.25 7.03125,10.03125 Q 7.0625,9.8125 7.125,9.625 L 7.1875,9.4375 7.09375,9.71875 7,10 7.125,9.625"
           id="path68698"
           inkscape:connector-curvature="0" />
        <path
           style="fill:#998c2a;fill-opacity:1"
           d="M 7.875,9.40625 8,9.0625 l -0.09375,0 -0.09375,0 0.1875,0 q 0.1875,0 0.375,0.0625 L 8.5625,9.1875 8.28125,9.09375 8,9 8.375,9.125 q 0.375,0.125 0.5,0.5 L 9,10 8.90625,9.71875 8.8125,9.4375 8.875,9.625 q 0.0625,0.1875 0.09375,0.40625 L 9,10.25 8.984375,10.140625 8.96875,10.03125 8.609375,10.140625 8.25,10.25 8.53125,10.15625 8.8125,10.0625 8.625,10.125 Q 8.4375,10.1875 8.3125,10.3125 L 8.1875,10.4375 8.25,10.375 8.3125,10.3125 8,10 7.6875,9.6875 7.625,9.75 7.5625,9.8125 7.6875,9.6875 Q 7.8125,9.5625 7.875,9.375 L 7.9375,9.1875 7.84375,9.46875 7.75,9.75 7.875,9.40625"
           id="path68700"
           inkscape:connector-curvature="0" />
        <path
           style="fill:#050300;fill-opacity:0.79607843"
           d="M 8.875,9.625 8.75,9.25 8.84375,9.53125 8.9375,9.8125 8.875,9.625 Q 8.8125,9.4375 8.6875,9.3125 L 8.5625,9.1875 8.625,9.25 8.6875,9.3125 8.984375,9.015625 9.28125,8.71875 9.203125,8.671875 9.125,8.625 9.28125,8.71875 Q 9.4375,8.8125 9.625,8.875 L 9.8125,8.9375 9.53125,8.84375 9.25,8.75 9.625,8.875 10,9 10,9.5 10,10 9.484375,10.015625 8.96875,10.03125 8.984375,10.140625 9,10.25 8.96875,10.03125 Q 8.9375,9.8125 8.875,9.625 L 8.8125,9.4375 8.90625,9.71875 9,10 8.875,9.625"
           id="path68702"
           inkscape:connector-curvature="0" />
        <path
           style="fill:#000000;fill-opacity:0.5372549"
           d="M 10,9.5 10,9 10.5,9 11,9 11,9.5 11,10 10.5,10 10,10 10,9.5"
           id="path68704"
           inkscape:connector-curvature="0" />
        <path
           style="fill:#000000;fill-opacity:0.58431373"
           d="M 11,9.5 11,9 11.5,9 12,9 12,9.5 12,10 11.5,10 11,10 11,9.5"
           id="path68706"
           inkscape:connector-curvature="0" />
        <path
           style="fill:#000000;fill-opacity:0.6627451"
           d="M 12,9.5 12,9 12.375,9.125 q 0.375,0.125 0.5,0.5 L 13,10 12.5,10 12,10 12,9.5"
           id="path68708"
           inkscape:connector-curvature="0" />
        <path
           style="fill:#7b6e19;fill-opacity:1"
           d="M 12.875,9.625 12.75,9.25 12.84375,9.53125 12.9375,9.8125 12.875,9.625 Q 12.8125,9.4375 12.6875,9.3125 L 12.5625,9.1875 12.625,9.25 12.6875,9.3125 13,9.03125 13.3125,8.75 13.28125,8.6875 13.25,8.625 13.3125,8.75 Q 13.375,8.875 13.5,9 L 13.625,9.125 13.4375,8.9375 13.25,8.75 13.5,9 q 0.25,0.25 0.25,0.5 0,0.25 -0.390625,0.390625 L 12.96875,10.03125 12.984375,10.140625 13,10.25 12.96875,10.03125 Q 12.9375,9.8125 12.875,9.625 L 12.8125,9.4375 12.90625,9.71875 13,10 12.875,9.625"
           id="path68710"
           inkscape:connector-curvature="0" />
        <path
           style="fill:#4d4616;fill-opacity:0.98823529"
           d="m 13.75,9.5 0,-0.25 0,0.1875 0,0.1875 0,-0.125 q 0,-0.125 -0.0625,-0.25 L 13.625,9.125 13.65625,9.1875 13.6875,9.25 13.984375,8.984375 14.28125,8.71875 14.234375,8.640625 14.1875,8.5625 14.28125,8.71875 Q 14.375,8.875 14.5,9 L 14.625,9.125 14.4375,8.9375 14.25,8.75 14.5,9 q 0.25,0.25 0.5,0.5 l 0.25,0.25 -0.265625,0.296875 -0.265625,0.296875 0.04687,0.04687 0.04687,0.04687 -0.09375,-0.09375 Q 14.625,10.25 14.5,10.25 l -0.125,0 0.1875,0 0.1875,0 -0.25,0 -0.25,0 0.1875,0 0.1875,0 -0.125,0 q -0.125,0 -0.21875,0.09375 l -0.09375,0.09375 0.04687,-0.04687 0.04687,-0.04687 -0.3125,-0.3125 -0.3125,-0.3125 L 13.60937,9.765635 13.5625,9.8125 13.65625,9.71875 Q 13.75,9.625 13.75,9.5 l 0,-0.125 0,0.1875 0,0.1875 0,-0.25 M 15.3125,9.8125 15.25,9.75 15.0625,9.5625 14.875,9.375 15,9.5 q 0.125,0.125 0.25,0.25 l 0.125,0.125 -0.0625,-0.0625"
           id="path68712"
           inkscape:connector-curvature="0" />
        <path
           style="fill:#0b0b02;fill-opacity:0.66666667"
           d="M 15,9.5 14.75,9.25 15.03125,8.96875 15.3125,8.6875 15.25,8.625 15.1875,8.5625 l 0.125,0.125 q 0.125,0.125 0.3125,0.1875 L 15.8125,8.9375 15.53125,8.84375 15.25,8.75 15.625,8.875 16,9 16.125,9.375 16.25,9.75 16.15625,9.46875 16.0625,9.1875 16.125,9.375 q 0.0625,0.1875 0.1875,0.3125 l 0.125,0.125 L 16.375,9.75 16.3125,9.6875 16.015625,9.984375 15.71875,10.28125 l 0.04687,0.07813 0.04687,0.07813 -0.09375,-0.15625 Q 15.625,10.125 15.5,10 L 15.375,9.875 15.5625,10.0625 15.75,10.25 15.5,10 Q 15.25,9.75 15,9.5 M 14.6875,9.1875 14.75,9.25 14.9375,9.4375 15.125,9.625 15,9.5 Q 14.875,9.375 14.75,9.25 l -0.125,-0.125 0.0625,0.0625"
           id="path68714"
           inkscape:connector-curvature="0" />
        <path
           style="fill:#000000;fill-opacity:0.01176471"
           d="M 16.125,9.375 16,9 16.5,9 Q 17,9 17,9.5 L 17,10 16.625,9.875 q -0.375,-0.125 -0.5,-0.5"
           id="path68716"
           inkscape:connector-curvature="0" />
        <path
           style="fill:#000000;fill-opacity:0.69411765"
           d="M 5.875,10.375 6,10 6.5,10 7,10 7,10.5 7,11 6.625,11.125 6.25,11.25 6.53125,11.15625 6.8125,11.0625 6.625,11.125 Q 6.4375,11.1875 6.3125,11.3125 L 6.1875,11.4375 6.25,11.375 6.3125,11.3125 6,11 5.6875,10.6875 5.625,10.75 5.5625,10.8125 5.6875,10.6875 Q 5.8125,10.5625 5.875,10.375 L 5.9375,10.1875 5.84375,10.46875 5.75,10.75 5.875,10.375"
           id="path68718"
           inkscape:connector-curvature="0" />
        <path
           style="fill:#ab9d2f;fill-opacity:1"
           d="M 7,10.5 7,10 7,10.375 7,10.75 7,10.5 Q 7,10.25 7.03125,10.03125 L 7.0625,9.8125 7.046875,9.921875 7.03125,10.03125 7.390625,9.890625 7.75,9.75 7.46875,9.84375 7.1875,9.9375 7.375,9.875 Q 7.5625,9.8125 7.6875,9.6875 L 7.8125,9.5625 7.75,9.625 7.6875,9.6875 8,10 8.3125,10.3125 8.375,10.25 8.4375,10.1875 8.3125,10.3125 Q 8.1875,10.4375 8.125,10.625 L 8.0625,10.8125 8.15625,10.53125 8.25,10.25 8.125,10.625 8,11 7.5,11 7,11 7,10.5"
           id="path68720"
           inkscape:connector-curvature="0" />
        <path
           style="fill:#e6c322;fill-opacity:1"
           d="M 8.125,10.625 Q 8.25,10.25 8.609375,10.140625 L 8.96875,10.03125 8.953125,9.921875 8.9375,9.8125 8.96875,10.03125 Q 9,10.25 9,10.5 L 9,10.75 9,10.375 9,10 9,10.5 Q 9,11 8.5,11 L 8,11 8.125,10.625"
           id="path68722"
           inkscape:connector-curvature="0" />
        <path
           style="fill:#030200;fill-opacity:0.63921569"
           d="M 9,10.5 9,10 9,10.375 9,10.75 9,10.5 Q 9,10.25 8.96875,10.03125 L 8.9375,9.8125 8.953125,9.921875 8.96875,10.03125 9.484375,10.015625 10,10 10,10.5 10,11 9.4375,10.9375 8.875,10.875 8.8125,10.9375 8.75,11 8.875,10.875 Q 9,10.75 9,10.5 L 9,10.25 9,10.625 9,11 9,10.5"
           id="path68724"
           inkscape:connector-curvature="0" />
        <path
           style="fill:#000000;fill-opacity:0"
           d="m 10,10.5 0,-0.5 0.5,0 0.5,0 0.5,0 0.5,0 0,0.5 0,0.5 0,0.5 q 0,0.5 0.375,0.625 0.375,0.125 0.65625,-0.15625 L 13.3125,11.6875 13.25,11.625 l -0.0625,-0.0625 0.125,0.125 q 0.125,0.125 0.3125,0.1875 L 13.8125,11.9375 13.53125,11.84375 13.25,11.75 13.625,11.875 14,12 l 0,0.5 0,0.5 -0.125,0.375 q -0.125,0.375 -0.5,0.5 L 13,14 12.625,13.875 Q 12.25,13.75 12.125,13.375 12,13 11.5,13 l -0.5,0 -0.5,0 q -0.5,0 -0.625,0.375 -0.125,0.375 -0.5,0.5 L 9,14 9,13.5 9,13 9.125,12.625 Q 9.25,12.25 9.625,12.125 10,12 10,11.5 l 0,-0.5 0,-0.5"
           id="path68726"
           inkscape:connector-curvature="0" />
        <path
           style="fill:#000000;fill-opacity:0.07058824"
           d="m 12,10.5 0,-0.5 0.5,0 0.5,0 0,0.5 0,0.5 -0.5,0 -0.5,0 0,-0.5"
           id="path68728"
           inkscape:connector-curvature="0" />
        <path
           style="fill:#413b16;fill-opacity:0.98431373"
           d="m 13,10.5 0,-0.5 0,0.375 0,0.375 0,-0.25 q 0,-0.25 -0.03125,-0.46875 L 12.9375,9.8125 12.953125,9.921875 12.96875,10.03125 13.359375,9.890625 13.75,9.75 13.46875,9.84375 13.1875,9.9375 13.375,9.875 Q 13.5625,9.8125 13.65625,9.71875 L 13.75,9.625 13.70313,9.671875 13.65626,9.71875 l 0.3125,0.3125 0.3125,0.3125 0.04687,-0.04687 L 14.375,10.25 14.28125,10.34375 Q 14.1875,10.4375 14.125,10.625 L 14.0625,10.8125 14.15625,10.53125 14.25,10.25 14.125,10.625 14,11 13.515625,10.984375 13.03125,10.96875 13.046875,11.078125 13.0625,11.1875 13.03125,10.96875 Q 13,10.75 13,10.5 l 0,-0.25 0,0.375 0,0.375 0,-0.5"
           id="path68730"
           inkscape:connector-curvature="0" />
        <path
           style="fill:#ffef43;fill-opacity:1"
           d="M 14.125,10.625 Q 14.25,10.25 14.5,10.25 q 0.25,0 0.375,0.375 Q 15,11 14.5,11 l -0.5,0 0.125,-0.375"
           id="path68732"
           inkscape:connector-curvature="0" />
        <path
           style="fill:#4a3907;fill-opacity:0.98039216"
           d="M 14.875,10.625 14.75,10.25 14.84375,10.53125 14.9375,10.8125 14.875,10.625 Q 14.8125,10.4375 14.71875,10.34375 L 14.625,10.25 l 0.04687,0.04687 0.04687,0.04687 0.265625,-0.296875 L 15.25,9.75 15.5,10 q 0.25,0.25 0.375,0.625 L 16,11 15.4375,10.9375 14.875,10.875 14.8125,10.9375 14.75,11 14.875,10.875 Q 15,10.75 15,10.5 l 0,-0.25 0,0.375 L 15,11 14.875,10.625 M 15.4375,9.9375 15.25,9.75 15.1875,9.6875 15.125,9.625 15.25,9.75 Q 15.375,9.875 15.5,10 l 0.125,0.125 -0.1875,-0.1875"
           id="path68734"
           inkscape:connector-curvature="0" />
        <path
           style="fill:#000000;fill-opacity:0.10980392"
           d="M 15.875,10.625 15.75,10.25 15.84375,10.53125 15.9375,10.8125 15.875,10.625 Q 15.8125,10.4375 15.71875,10.28125 L 15.625,10.125 15.67187,10.20313 15.71874,10.28126 16.015625,9.984375 16.3125,9.6875 16.25,9.625 16.1875,9.5625 l 0.125,0.125 q 0.125,0.125 0.3125,0.1875 L 16.8125,9.9375 16.53125,9.84375 16.25,9.75 16.625,9.875 17,10 l 0,0.5 0,0.5 -0.5,0 -0.5,0 -0.125,-0.375"
           id="path68736"
           inkscape:connector-curvature="0" />
        <path
           style="fill:#000000;fill-opacity:0.03921569"
           d="M 3.875,11.375 Q 4,11 4.5,11 L 5,11 5,11.5 5,12 4.625,12.125 4.25,12.25 4.53125,12.15625 4.8125,12.0625 4.625,12.125 Q 4.4375,12.1875 4.3125,12.3125 L 4.1875,12.4375 4.25,12.375 4.3125,12.3125 4,12 3.6875,11.6875 3.625,11.75 3.5625,11.8125 3.6875,11.6875 Q 3.8125,11.5625 3.875,11.375 L 3.9375,11.1875 3.84375,11.46875 3.75,11.75 3.875,11.375"
           id="path68738"
           inkscape:connector-curvature="0" />
        <path
           style="fill:#000000;fill-opacity:0.11372549"
           d="M 5,11.5 5,11 5.375,10.875 5.75,10.75 5.46875,10.84375 5.1875,10.9375 5.375,10.875 Q 5.5625,10.8125 5.6875,10.6875 L 5.8125,10.5625 5.75,10.625 5.6875,10.6875 6,11 6.3125,11.3125 6.375,11.25 6.4375,11.1875 6.3125,11.3125 Q 6.1875,11.4375 6.125,11.625 L 6.0625,11.8125 6.15625,11.53125 6.25,11.25 6.125,11.625 6,12 5.5,12 5,12 5,11.5"
           id="path68740"
           inkscape:connector-curvature="0" />
        <path
           style="fill:#27210e;fill-opacity:0.88627451"
           d="m 6.125,11.625 q 0.125,-0.375 0.5,-0.5 L 7,11 7.125,11.375 7.25,11.75 7.15625,11.46875 7.0625,11.1875 7.125,11.375 q 0.0625,0.1875 0.15625,0.28125 L 7.375,11.75 7.328125,11.703125 7.28125,11.65625 6.984375,11.984375 6.6875,12.3125 6.75,12.375 6.8125,12.4375 6.6875,12.3125 Q 6.5625,12.1875 6.375,12.125 L 6.1875,12.0625 6.46875,12.15625 6.75,12.25 6.375,12.125 6,12 6.125,11.625"
           id="path68742"
           inkscape:connector-curvature="0" />
        <path
           style="fill:#82711b;fill-opacity:1"
           d="M 7.125,11.375 7,11 7.5,11 8,11 7.875,11.375 Q 7.75,11.75 7.5,11.75 q -0.25,0 -0.375,-0.375"
           id="path68744"
           inkscape:connector-curvature="0" />
        <path
           style="fill:#312603;fill-opacity:0.93333333"
           d="M 7.875,11.375 8,11 8.5,11 9,11 8.625,11 8.25,11 8.5,11 q 0.25,0 0.375,-0.125 L 9,10.75 8.9375,10.8125 8.875,10.875 8.8125,11.3125 Q 8.75,11.75 8.5,12 L 8.25,12.25 8.4375,12.0625 8.625,11.875 8.5,12 Q 8.375,12.125 8.28125,12.28125 L 8.1875,12.4375 8.234375,12.359375 8.28125,12.28125 8,11.96875 7.71875,11.65625 7.671875,11.703125 7.625,11.75 7.71875,11.65625 Q 7.8125,11.5625 7.875,11.375 L 7.9375,11.1875 7.84375,11.46875 7.75,11.75 7.875,11.375"
           id="path68746"
           inkscape:connector-curvature="0" />
        <path
           style="fill:#000000;fill-opacity:0.32156863"
           d="M 8.8125,11.3125 8.875,10.875 9.4375,10.9375 10,11 10,11.5 Q 10,12 9.625,12.125 L 9.25,12.25 9.53125,12.15625 9.8125,12.0625 9.625,12.125 Q 9.4375,12.1875 9.3125,12.3125 L 9.1875,12.4375 9.25,12.375 9.3125,12.3125 9.015625,12.015625 8.71875,11.71875 8.671875,11.796875 8.625,11.875 8.71875,11.71875 Q 8.8125,11.5625 8.875,11.375 L 8.9375,11.1875 8.84375,11.46875 8.75,11.75 8.8125,11.3125"
           id="path68748"
           inkscape:connector-curvature="0" />
        <path
           style="fill:#000000;fill-opacity:0.03921569"
           d="m 12,11.5 0,-0.5 0.5,0 0.5,0 0.125,0.375 0.125,0.375 -0.09375,-0.28125 -0.09375,-0.28125 0.0625,0.1875 q 0.0625,0.1875 0.1875,0.3125 l 0.125,0.125 L 13.375,11.75 13.3125,11.6875 13.03125,11.96875 Q 12.75,12.25 12.375,12.125 12,12 12,11.5"
           id="path68750"
           inkscape:connector-curvature="0" />
        <path
           style="fill:#141404;fill-opacity:0.73333333"
           d="M 13.125,11.375 13,11 13.09375,11.28125 13.1875,11.5625 13.125,11.375 Q 13.0625,11.1875 13.03125,10.96875 L 13,10.75 l 0.01563,0.109375 0.01563,0.109375 0.484375,0.01563 L 14,11 l 0.01563,0.484375 0.01563,0.484375 0.109375,0.01563 L 14.25,12 14.03125,11.96875 Q 13.8125,11.9375 13.625,11.875 L 13.4375,11.8125 13.71875,11.90625 14,12 13.625,11.875 q -0.375,-0.125 -0.5,-0.5"
           id="path68752"
           inkscape:connector-curvature="0" />
        <path
           style="fill:#806a0c;fill-opacity:0.99607843"
           d="M 14.015625,11.484375 14,11 l 0.5,0 0.5,0 -0.375,0 -0.375,0 0.25,0 q 0.25,0 0.375,-0.125 L 15,10.75 l -0.0625,0.0625 -0.0625,0.0625 0.04687,0.546875 0.04687,0.546875 0.109375,-0.01563 0.109375,-0.01563 -0.21875,0.03125 Q 14.75,12 14.5,12 l -0.25,0 0.375,0 0.375,0 -0.5,0 -0.5,0 0.375,0 0.375,0 -0.25,0 q -0.25,0 -0.46875,-0.03125 l -0.21875,-0.03125 0.109375,0.01563 0.109375,0.01563 -0.01563,-0.484375"
           id="path68754"
           inkscape:connector-curvature="0" />
        <path
           style="fill:#503e07;fill-opacity:0.98431373"
           d="M 14.921875,11.421875 14.875,10.875 15.4375,10.9375 16,11 15.875,11.375 q -0.125,0.375 -0.5,0.5 L 15,12 15.28125,11.90625 15.5625,11.8125 15.375,11.875 q -0.1875,0.0625 -0.40625,0.09375 L 14.75,12 14.859375,11.98437 14.96875,11.96874 14.92188,11.421865"
           id="path68756"
           inkscape:connector-curvature="0" />
        <path
           style="fill:#000000;fill-opacity:0.20392157"
           d="M 15.875,11.375 16,11 l 0.5,0 0.5,0 -0.125,0.375 Q 16.75,11.75 16.5,12 L 16.25,12.25 16.4375,12.0625 16.625,11.875 16.5,12 q -0.125,0.125 -0.21875,0.28125 L 16.1875,12.4375 16.23437,12.35937 16.28124,12.28124 15.984375,11.984375 15.6875,11.6875 15.625,11.75 l -0.0625,0.0625 0.125,-0.125 q 0.125,-0.125 0.1875,-0.3125 L 15.9375,11.1875 15.84375,11.46875 15.75,11.75 15.875,11.375"
           id="path68758"
           inkscape:connector-curvature="0" />
        <path
           style="fill:#000000;fill-opacity:0.07058824"
           d="M 16.875,11.375 17,11 l 0.5,0 0.5,0 0,0.5 0,0.5 -0.375,0.125 -0.375,0.125 0.28125,-0.09375 0.28125,-0.09375 -0.1875,0.0625 q -0.1875,0.0625 -0.3125,0.1875 l -0.125,0.125 L 17.25,12.375 17.3125,12.3125 17.015625,12.015625 16.71875,11.71875 16.671875,11.796875 16.625,11.875 16.71875,11.71875 Q 16.8125,11.5625 16.875,11.375 L 16.9375,11.1875 16.84375,11.46875 16.75,11.75 16.875,11.375"
           id="path68760"
           inkscape:connector-curvature="0" />
        <path
           style="fill:#000000;fill-opacity:0.00392157"
           d="m 18,11.5 0,-0.5 0.5,0 q 0.5,0 0.625,0.375 L 19.25,11.75 19.15625,11.46875 19.0625,11.1875 19.125,11.375 q 0.0625,0.1875 0.1875,0.3125 l 0.125,0.125 L 19.375,11.75 19.3125,11.6875 19,12 l -0.3125,0.3125 0.0625,0.0625 0.0625,0.0625 -0.125,-0.125 Q 18.5625,12.1875 18.375,12.125 L 18.1875,12.0625 18.46875,12.15625 18.75,12.25 18.375,12.125 18,12 18,11.5"
           id="path68762"
           inkscape:connector-curvature="0" />
        <path
           style="fill:#000000;fill-opacity:0.08235294"
           d="M 2,12.5 Q 2,12 2.5,12 L 3,12 2.875,12.375 q -0.125,0.375 -0.5,0.5 L 2,13 2,12.5"
           id="path68764"
           inkscape:connector-curvature="0" />
        <path
           style="fill:#010001;fill-opacity:0.67843137"
           d="M 2.875,12.375 3,12 3.375,11.875 3.75,11.75 3.46875,11.84375 3.1875,11.9375 3.375,11.875 Q 3.5625,11.8125 3.6875,11.6875 L 3.8125,11.5625 3.75,11.625 3.6875,11.6875 4,12 4.3125,12.3125 4.375,12.25 4.4375,12.1875 4.3125,12.3125 Q 4.1875,12.4375 4.125,12.625 L 4.0625,12.8125 4.15625,12.53125 4.25,12.25 4.125,12.625 4,13 3.625,13.125 3.25,13.25 3.53125,13.15625 3.8125,13.0625 3.625,13.125 Q 3.4375,13.1875 3.3125,13.3125 L 3.1875,13.4375 3.25,13.375 3.3125,13.3125 3,13 2.6875,12.6875 2.625,12.75 2.5625,12.8125 2.6875,12.6875 Q 2.8125,12.5625 2.875,12.375 L 2.9375,12.1875 2.84375,12.46875 2.75,12.75 2.875,12.375"
           id="path68766"
           inkscape:connector-curvature="0" />
        <path
           style="fill:#343417;fill-opacity:0.9372549"
           d="m 4.125,12.625 q 0.125,-0.375 0.5,-0.5 L 5,12 5,12.5 5,13 4.5,13 4,13 4.125,12.625 M 4.625,13 5,13 5.125,13 5.25,13 5,13 q -0.25,0 -0.5,0 l -0.25,0 0.375,0"
           id="path68768"
           inkscape:connector-curvature="0" />
        <path
           style="fill:#36340f;fill-opacity:0.96470588"
           d="M 5,12.5 5,12 5.5,12 6,12 6,12.5 6,13 5.5,13 5,13 5,12.5 M 4.875,13 5,13 5.375,13 5.75,13 5.5,13 Q 5.25,13 5,13 l -0.25,0 0.125,0"
           id="path68770"
           inkscape:connector-curvature="0" />
        <path
           style="fill:#564d17;fill-opacity:1"
           d="M 6,12.5 6,12 6.375,12.125 q 0.375,0.125 0.5,0.5 L 7,13 6.90625,12.71875 6.8125,12.4375 6.875,12.625 q 0.0625,0.1875 0.09375,0.40625 L 7,13.25 6.984375,13.140625 6.96875,13.03125 6.484375,13.015625 6,13 6,12.5"
           id="path68772"
           inkscape:connector-curvature="0" />
        <path
           style="fill:#262006;fill-opacity:0.90588235"
           d="M 6.875,12.625 6.75,12.25 6.84375,12.53125 6.9375,12.8125 6.875,12.625 Q 6.8125,12.4375 6.6875,12.3125 L 6.5625,12.1875 6.625,12.25 6.6875,12.3125 6.984375,11.984375 7.28125,11.65625 7.234375,11.609375 7.1875,11.5625 7.28125,11.65625 Q 7.375,11.75 7.5,11.75 l 0.125,0 -0.1875,0 -0.1875,0 0.25,0 0.25,0 -0.1875,0 -0.1875,0 0.125,0 q 0.125,0 0.21875,-0.09375 L 7.8125,11.5625 7.765625,11.609375 7.71875,11.65625 8,11.96875 8.28125,12.28125 8.328125,12.203125 8.375,12.125 8.28125,12.28125 Q 8.1875,12.4375 8.125,12.625 L 8.0625,12.8125 8.15625,12.53125 8.25,12.25 8.125,12.625 8,13 7.5,13 7,13 6.875,12.625"
           id="path68774"
           inkscape:connector-curvature="0" />
        <path
           style="fill:#000000;fill-opacity:0.03921569"
           d="M 8.125,12.625 Q 8.25,12.25 8.5,12 L 8.75,11.75 8.5625,11.9375 8.375,12.125 8.5,12 Q 8.625,11.875 8.71875,11.71875 L 8.8125,11.5625 8.765625,11.640625 8.71875,11.71875 9.015625,12.015625 9.3125,12.3125 9.375,12.25 9.4375,12.1875 9.3125,12.3125 Q 9.1875,12.4375 9.125,12.625 L 9.0625,12.8125 9.15625,12.53125 9.25,12.25 9.125,12.625 9,13 8.5,13 8,13 8.125,12.625"
           id="path68776"
           inkscape:connector-curvature="0" />
        <path
           style="fill:#000000;fill-opacity:0.31764706"
           d="m 14,12.5 0,-0.5 0.5,0 0.5,0 -0.125,0.375 q -0.125,0.375 -0.5,0.5 L 14,13 14,12.5"
           id="path68778"
           inkscape:connector-curvature="0" />
        <path
           style="fill:#000000;fill-opacity:0.74901961"
           d="M 14.875,12.375 15,12 15.375,11.875 15.75,11.75 15.46875,11.84375 15.1875,11.9375 15.375,11.875 q 0.1875,-0.0625 0.3125,-0.1875 l 0.125,-0.125 -0.0625,0.0625 -0.0625,0.0625 0.296875,0.296875 0.296875,0.296875 0.04687,-0.07813 L 16.375,12.125 16.28125,12.28125 Q 16.1875,12.4375 16.125,12.625 L 16.0625,12.8125 16.15625,12.53125 16.25,12.25 16.171875,12.671875 16.09375,13.09375 15.671875,13.171875 15.25,13.25 15.53125,13.15625 15.8125,13.0625 15.625,13.125 q -0.1875,0.0625 -0.3125,0.1875 l -0.125,0.125 L 15.25,13.375 15.3125,13.3125 15,13 14.6875,12.6875 14.625,12.75 l -0.0625,0.0625 0.125,-0.125 q 0.125,-0.125 0.1875,-0.3125 L 14.9375,12.1875 14.84375,12.46875 14.75,12.75 14.875,12.375"
           id="path68780"
           inkscape:connector-curvature="0" />
        <path
           style="fill:#1b180c;fill-opacity:0.88235294"
           d="M 16.171875,12.671875 Q 16.25,12.25 16.5,12 L 16.75,11.75 16.5625,11.9375 16.375,12.125 16.5,12 q 0.125,-0.125 0.21875,-0.28125 l 0.09375,-0.15625 -0.04687,0.07813 -0.04687,0.07813 0.296875,0.296875 0.296875,0.296875 0.0625,-0.0625 0.0625,-0.0625 -0.125,0.125 q -0.125,0.125 -0.1875,0.3125 L 17.0625,12.8125 17.15625,12.53125 17.25,12.25 17.125,12.625 17,13 l -0.5,0 -0.5,0 0.375,0 0.375,0 -0.25,0 q -0.25,0 -0.40625,0.09375 l -0.15625,0.09375 0.07813,-0.04687 0.07813,-0.04687 0.07813,-0.421875"
           id="path68782"
           inkscape:connector-curvature="0" />
        <path
           style="fill:#3c3a18;fill-opacity:0.95294118"
           d="m 17.125,12.625 q 0.125,-0.375 0.5,-0.5 L 18,12 l 0,0.5 0,0.5 -0.5,0 -0.5,0 0.125,-0.375"
           id="path68784"
           inkscape:connector-curvature="0" />
        <path
           style="fill:#1f1e04;fill-opacity:0.89019608"
           d="m 18,12.5 0,-0.5 0.375,0.125 q 0.375,0.125 0.5,0.5 L 19,13 18.5,13 18,13 18,12.5"
           id="path68786"
           inkscape:connector-curvature="0" />
        <path
           style="fill:#000000;fill-opacity:0.46666667"
           d="M 18.875,12.625 18.75,12.25 18.84375,12.53125 18.9375,12.8125 18.875,12.625 q -0.0625,-0.1875 -0.1875,-0.3125 l -0.125,-0.125 0.0625,0.0625 0.0625,0.0625 L 19,12 19.3125,11.6875 19.25,11.625 l -0.0625,-0.0625 0.125,0.125 q 0.125,0.125 0.3125,0.1875 L 19.8125,11.9375 19.53125,11.84375 19.25,11.75 19.625,11.875 Q 20,12 20.125,12.375 L 20.25,12.75 20.15625,12.46875 20.0625,12.1875 20.125,12.375 q 0.0625,0.1875 0.1875,0.3125 l 0.125,0.125 L 20.375,12.75 20.3125,12.6875 20,13 l -0.3125,0.3125 0.0625,0.0625 0.0625,0.0625 -0.125,-0.125 Q 19.5625,13.1875 19.375,13.125 L 19.1875,13.0625 19.46875,13.15625 19.75,13.25 19.375,13.125 19,13 18.875,12.625"
           id="path68788"
           inkscape:connector-curvature="0" />
        <path
           style="fill:#000000;fill-opacity:0.02352941"
           d="M 1,13.5 Q 1,13 1.5,13 L 2,13 1.875,13.375 q -0.125,0.375 -0.5,0.5 L 1,14 1,13.5"
           id="path68790"
           inkscape:connector-curvature="0" />
        <path
           style="fill:#1a190e;fill-opacity:0.83529412"
           d="M 1.875,13.375 2,13 2.375,12.875 2.75,12.75 2.46875,12.84375 2.1875,12.9375 2.375,12.875 Q 2.5625,12.8125 2.6875,12.6875 L 2.8125,12.5625 2.75,12.625 2.6875,12.6875 3,13 3.3125,13.3125 3.375,13.25 3.4375,13.1875 3.3125,13.3125 Q 3.1875,13.4375 3.125,13.625 L 3.0625,13.8125 3.15625,13.53125 3.25,13.25 3.125,13.625 3,14 2.625,14.125 2.25,14.25 2.53125,14.15625 2.8125,14.0625 2.625,14.125 Q 2.4375,14.1875 2.3125,14.3125 L 2.1875,14.4375 2.25,14.375 2.3125,14.3125 2,14 1.6875,13.6875 1.625,13.75 1.5625,13.8125 1.6875,13.6875 Q 1.8125,13.5625 1.875,13.375 L 1.9375,13.1875 1.84375,13.46875 1.75,13.75 1.875,13.375"
           id="path68792"
           inkscape:connector-curvature="0" />
        <path
           style="fill:#beb75b;fill-opacity:1"
           d="m 3.125,13.625 q 0.125,-0.375 0.5,-0.5 L 4,13 3.875,13.375 q -0.125,0.375 -0.5,0.5 L 3,14 3.125,13.625"
           id="path68794"
           inkscape:connector-curvature="0" />
        <path
           style="fill:#fef34b;fill-opacity:1"
           d="M 3.875,13.375 4,13 4.5,13 5,13 5.015625,13.515625 5.03125,14.03125 5.140625,14.015625 5.25,14 5.03125,14.03125 Q 4.8125,14.0625 4.625,14.125 L 4.4375,14.1875 4.71875,14.09375 5,14 4.625,14.125 4.25,14.25 4.53125,14.15625 4.8125,14.0625 4.625,14.125 Q 4.4375,14.1875 4.28125,14.28125 L 4.125,14.375 4.203125,14.328125 4.28125,14.28125 3.984375,13.984375 3.6875,13.6875 3.625,13.75 3.5625,13.8125 3.6875,13.6875 Q 3.8125,13.5625 3.875,13.375 L 3.9375,13.1875 3.84375,13.46875 3.75,13.75 3.875,13.375 M 5.125,13 5,13 4.625,13 4.25,13 4.5,13 q 0.25,0 0.5,0 l 0.25,0 -0.125,0"
           id="path68796"
           inkscape:connector-curvature="0" />
        <path
           style="fill:#fff129;fill-opacity:1"
           d="M 5.015625,13.515625 5,13 5.5,13 6,13 6,13.5 6,14 5.5,14 5,14 5.375,14 5.75,14 5.5,14 Q 5.25,14 5.03125,14.03125 L 4.8125,14.0625 4.921875,14.046875 5.03125,14.03125 5.015625,13.515625 M 5.625,14 6,14 6.125,14 6.25,14 6,14 q -0.25,0 -0.5,0 l -0.25,0 0.375,0 M 5.375,13 5,13 4.875,13 4.75,13 5,13 q 0.25,0 0.5,0 l 0.25,0 -0.375,0"
           id="path68798"
           inkscape:connector-curvature="0" />
        <path
           style="fill:#c4ad0b;fill-opacity:1"
           d="M 6,13.5 6,13 6.484375,13.015625 6.96875,13.03125 6.953125,12.921875 6.9375,12.8125 6.96875,13.03125 Q 7,13.25 7,13.5 L 7,13.75 7,13.375 7,13 7,13.5 7,14 6.5,14 6,14 6,13.5 M 5.875,14 6,14 6.375,14 6.75,14 6.5,14 Q 6.25,14 6,14 l -0.25,0 0.125,0"
           id="path68800"
           inkscape:connector-curvature="0" />
        <path
           style="fill:#241c01;fill-opacity:0.91372549"
           d="M 7,13.5 7,13 7.5,13 8,13 8,13.5 8,14 7.5,14 7,14 7,13.5 M 8,14.125 8,14 8,13.625 8,13.25 8,13.5 q 0,0.25 0,0.5 l 0,0.25 0,-0.125"
           id="path68802"
           inkscape:connector-curvature="0" />
        <path
           style="fill:#000000;fill-opacity:0.04705882"
           d="M 8,13.5 8,13 8.5,13 9,13 9,13.5 9,14 8.5,14 8,14 8,13.5"
           id="path68804"
           inkscape:connector-curvature="0" />
        <path
           style="fill:#000000;fill-opacity:0.05882353"
           d="M 9.875,13.375 Q 10,13 10.5,13 l 0.5,0 0,0.5 0,0.5 -0.375,0.125 -0.375,0.125 0.28125,-0.09375 0.28125,-0.09375 -0.1875,0.0625 q -0.1875,0.0625 -0.34375,0.15625 L 10.125,14.375 10.203125,14.328125 10.28125,14.28125 9.984375,13.984375 9.6875,13.6875 9.625,13.75 9.5625,13.8125 9.6875,13.6875 Q 9.8125,13.5625 9.875,13.375 L 9.9375,13.1875 9.84375,13.46875 9.75,13.75 9.875,13.375"
           id="path68806"
           inkscape:connector-curvature="0" />
        <path
           style="fill:#000000;fill-opacity:0.22745098"
           d="m 11,13.5 0,-0.5 0.5,0 q 0.5,0 0.625,0.375 L 12.25,13.75 12.15625,13.46875 12.0625,13.1875 12.125,13.375 q 0.0625,0.1875 0.1875,0.3125 l 0.125,0.125 L 12.375,13.75 12.3125,13.6875 12,14 l -0.3125,0.3125 0.0625,0.0625 0.0625,0.0625 -0.125,-0.125 Q 11.5625,14.1875 11.375,14.125 L 11.1875,14.0625 11.46875,14.15625 11.75,14.25 11.375,14.125 11,14 11,13.5"
           id="path68808"
           inkscape:connector-curvature="0" />
        <path
           style="fill:#000000;fill-opacity:0.30196078"
           d="M 13.875,13.375 14,13 14.375,12.875 14.75,12.75 14.46875,12.84375 14.1875,12.9375 14.375,12.875 q 0.1875,-0.0625 0.3125,-0.1875 l 0.125,-0.125 L 14.75,12.625 14.6875,12.6875 15,13 l 0.3125,0.3125 0.0625,-0.0625 0.0625,-0.0625 -0.125,0.125 q -0.125,0.125 -0.1875,0.3125 L 15.0625,13.8125 15.15625,13.53125 15.25,13.25 15.125,13.625 15,14 14.625,14.125 14.25,14.25 14.53125,14.15625 14.8125,14.0625 14.625,14.125 q -0.1875,0.0625 -0.3125,0.1875 l -0.125,0.125 L 14.25,14.375 14.3125,14.3125 14,14 13.6875,13.6875 13.625,13.75 l -0.0625,0.0625 0.125,-0.125 q 0.125,-0.125 0.1875,-0.3125 L 13.9375,13.1875 13.84375,13.46875 13.75,13.75 13.875,13.375"
           id="path68810"
           inkscape:connector-curvature="0" />
        <path
           style="fill:#615e31;fill-opacity:0.98431373"
           d="m 15.125,13.625 q 0.125,-0.375 0.546875,-0.453125 l 0.421875,-0.07813 0.07813,-0.04687 L 16.25,13 16.09375,13.09375 Q 15.9375,13.1875 15.875,13.375 L 15.8125,13.5625 15.90625,13.28125 16,13 15.875,13.375 q -0.125,0.375 -0.5,0.5 L 15,14 15.125,13.625"
           id="path68812"
           inkscape:connector-curvature="0" />
        <path
           style="fill:#ebdd5e;fill-opacity:1"
           d="M 15.875,13.375 Q 16,13 16.5,13 l 0.5,0 0.01563,0.515625 0.01563,0.515625 0.109375,-0.01563 L 17.25,14 17.03125,14.03125 Q 16.8125,14.0625 16.625,14.125 L 16.4375,14.1875 16.71875,14.09375 17,14 16.625,14.125 16.25,14.25 16.53125,14.15625 16.8125,14.0625 16.625,14.125 q -0.1875,0.0625 -0.3125,0.1875 l -0.125,0.125 L 16.25,14.375 16.3125,14.3125 16,14 15.6875,13.6875 15.625,13.75 l -0.0625,0.0625 0.125,-0.125 q 0.125,-0.125 0.1875,-0.3125 L 15.9375,13.1875 15.84375,13.46875 15.75,13.75 15.875,13.375"
           id="path68814"
           inkscape:connector-curvature="0" />
        <path
           style="fill:#ffe735;fill-opacity:1"
           d="M 17.015625,13.515625 17,13 l 0.5,0 0.5,0 0,0.5 0,0.5 -0.5,0 -0.5,0 0.375,0 0.375,0 -0.25,0 q -0.25,0 -0.46875,0.03125 l -0.21875,0.03125 0.109375,-0.01563 0.109375,-0.01563 -0.01563,-0.515625"
           id="path68816"
           inkscape:connector-curvature="0" />
        <path
           style="fill:#f1ce13;fill-opacity:1"
           d="m 18,13.5 0,-0.5 0.5,0 0.5,0 0,0.5 0,0.5 -0.5,0 -0.5,0 0,-0.5"
           id="path68818"
           inkscape:connector-curvature="0" />
        <path
           style="fill:#7f6103;fill-opacity:1"
           d="m 19,13.5 0,-0.5 0.375,0.125 q 0.375,0.125 0.5,0.5 L 20,14 19.5,14 19,14 19,13.5 m 0,0.125 0,0.375 0,0.125 0,0.125 0,-0.25 q 0,-0.25 0,-0.5 l 0,-0.25 0,0.375"
           id="path68820"
           inkscape:connector-curvature="0" />
        <path
           style="fill:#000000;fill-opacity:0.50196078"
           d="M 19.875,13.625 19.75,13.25 19.84375,13.53125 19.9375,13.8125 19.875,13.625 q -0.0625,-0.1875 -0.1875,-0.3125 l -0.125,-0.125 0.0625,0.0625 0.0625,0.0625 L 20,13 20.3125,12.6875 20.25,12.625 l -0.0625,-0.0625 0.125,0.125 q 0.125,0.125 0.3125,0.1875 L 20.8125,12.9375 20.53125,12.84375 20.25,12.75 l 0.375,0.125 q 0.375,0.125 0.5,0.5 0.125,0.375 -0.15625,0.65625 l -0.28125,0.28125 0.0625,0.0625 0.0625,0.0625 -0.125,-0.125 Q 20.5625,14.1875 20.375,14.125 L 20.1875,14.0625 20.46875,14.15625 20.75,14.25 20.375,14.125 20,14 19.875,13.625"
           id="path68822"
           inkscape:connector-curvature="0" />
        <path
           style="fill:#000000;fill-opacity:0.34509804"
           d="M 1,14.5 1,14 1.375,13.875 1.75,13.75 1.46875,13.84375 1.1875,13.9375 1.375,13.875 Q 1.5625,13.8125 1.6875,13.6875 L 1.8125,13.5625 1.75,13.625 1.6875,13.6875 2,14 2.3125,14.3125 2.375,14.25 2.4375,14.1875 2.3125,14.3125 Q 2.1875,14.4375 2.125,14.625 L 2.0625,14.8125 2.15625,14.53125 2.25,14.25 2.125,14.625 2,15 2.09375,14.71875 2.1875,14.4375 2.125,14.625 Q 2.0625,14.8125 2.03125,15.03125 L 2,15.25 2.015625,15.140625 2.03125,15.03125 1.515625,15.015625 1,15 1,14.5"
           id="path68824"
           inkscape:connector-curvature="0" />
        <path
           style="fill:#8b843d;fill-opacity:1"
           d="m 2.125,14.625 q 0.125,-0.375 0.5,-0.5 L 3,14 3,14.5 3,15 2.515625,15.015625 2.03125,15.03125 2.015625,15.140625 2,15.25 2.03125,15.03125 Q 2.0625,14.8125 2.125,14.625 L 2.1875,14.4375 2.09375,14.71875 2,15 2.125,14.625"
           id="path68826"
           inkscape:connector-curvature="0" />
        <path
           style="fill:#ffff48;fill-opacity:1"
           d="M 3,14.5 3,14 3.375,13.875 3.75,13.75 3.46875,13.84375 3.1875,13.9375 3.375,13.875 Q 3.5625,13.8125 3.6875,13.6875 L 3.8125,13.5625 3.75,13.625 3.6875,13.6875 3.984375,13.984375 4.28125,14.28125 4.359375,14.234375 4.4375,14.1875 4.28125,14.28125 Q 4.125,14.375 4,14.5 L 3.875,14.625 4.0625,14.4375 4.25,14.25 4,14.5 Q 3.75,14.75 3.375,14.875 L 3,15 3,14.5"
           id="path68828"
           inkscape:connector-curvature="0" />
        <path
           style="fill:#f8e304;fill-opacity:1"
           d="M 4,14.5 Q 4.25,14.25 4.625,14.125 L 5,14 5,14.5 5,15 4.625,15.125 4.25,15.25 4.53125,15.15625 4.8125,15.0625 4.625,15.125 Q 4.4375,15.1875 4.3125,15.3125 L 4.1875,15.4375 4.25,15.375 4.3125,15.3125 4.015625,15.015625 3.71875,14.71875 3.640625,14.765625 3.5625,14.8125 3.71875,14.71875 Q 3.875,14.625 4,14.5 L 4.125,14.375 3.9375,14.5625 3.75,14.75 4,14.5"
           id="path68830"
           inkscape:connector-curvature="0" />
        <path
           style="fill:#f7e308;fill-opacity:1"
           d="M 5,14.5 5,14 5.5,14 6,14 6,14.5 6,15 5.5,15 5,15 5,14.5"
           id="path68832"
           inkscape:connector-curvature="0" />
        <path
           style="fill:#ffea0c;fill-opacity:1"
           d="M 6,14.5 6,14 6.5,14 7,14 7,14.5 7,15 6.5,15 6,15 6,14.5"
           id="path68834"
           inkscape:connector-curvature="0" />
        <path
           style="fill:#a68205;fill-opacity:1"
           d="M 7,14.5 7,14 7.5,14 8,14 8,14.5 8,15 7.5,15 7,15 7,14.5 M 7,14.625 7,15 7,15.125 7,15.25 7,15 q 0,-0.25 0,-0.5 l 0,-0.25 0,0.375 m 1,0.5 L 8,15 8,14.625 8,14.25 8,14.5 q 0,0.25 0,0.5 l 0,0.25 0,-0.125 M 8,14.375 8,14 8,13.875 8,13.75 8,14 q 0,0.25 0,0.5 l 0,0.25 0,-0.375"
           id="path68836"
           inkscape:connector-curvature="0" />
        <path
           style="fill:#000000;fill-opacity:0.47058824"
           d="M 8,14.5 8,14 8.5,14 9,14 8.875,14.375 q -0.125,0.375 -0.5,0.5 L 8,15 8,14.5 M 8,14.625 8,15 8,15.125 8,15.25 8,15 q 0,-0.25 0,-0.5 l 0,-0.25 0,0.375"
           id="path68838"
           inkscape:connector-curvature="0" />
        <path
           style="fill:#050502;fill-opacity:0.41176471"
           d="M 8.875,14.375 9,14 9.375,13.875 9.75,13.75 9.46875,13.84375 9.1875,13.9375 9.375,13.875 q 0.1875,-0.0625 0.3125,-0.1875 l 0.125,-0.125 -0.0625,0.0625 -0.0625,0.0625 0.296875,0.296875 0.296875,0.296875 0.07813,-0.04687 0.07813,-0.04687 -0.15625,0.09375 Q 10.125,14.375 10,14.5 L 9.875,14.625 10.0625,14.4375 10.25,14.25 10,14.5 Q 9.75,14.75 9.5,15 L 9.25,15.25 9.4375,15.0625 9.625,14.875 9.5,15 Q 9.375,15.125 9.3125,15.25 L 9.25,15.375 9.28125,15.3125 9.3125,15.25 9,14.96875 8.6875,14.6875 8.625,14.75 8.5625,14.8125 8.6875,14.6875 Q 8.8125,14.5625 8.875,14.375 L 8.9375,14.1875 8.84375,14.46875 8.75,14.75 8.875,14.375"
           id="path68840"
           inkscape:connector-curvature="0" />
        <path
           style="fill:#353315;fill-opacity:0.91764706"
           d="m 10,14.5 q 0.25,-0.25 0.625,-0.375 L 11,14 10.71875,14.09375 10.4375,14.1875 10.625,14.125 Q 10.8125,14.0625 11,14.0625 l 0.1875,0 -0.09375,0 -0.09375,0 0,0.46875 L 11,15 10.625,15.125 10.25,15.25 10.53125,15.15625 10.8125,15.0625 10.625,15.125 q -0.1875,0.0625 -0.28125,0.15625 L 10.25,15.375 10.296875,15.328125 10.34375,15.28125 10.046875,15.015625 9.75,14.75 10,14.5 M 9.9375,14.5625 9.75,14.75 9.6875,14.8125 9.625,14.875 9.75,14.75 Q 9.875,14.625 10,14.5 l 0.125,-0.125 -0.1875,0.1875"
           id="path68842"
           inkscape:connector-curvature="0" />
        <path
           style="fill:#4b410c;fill-opacity:0.98039216"
           d="m 11,14.53125 0,-0.46875 -0.09375,0 -0.09375,0 0.1875,0 q 0.1875,0 0.375,0.0625 L 11.5625,14.1875 11.28125,14.09375 11,14 l 0.375,0.125 q 0.375,0.125 0.5,0.5 L 12,15 11.5,15 11,15 11,14.53125"
           id="path68844"
           inkscape:connector-curvature="0" />
        <path
           style="fill:#120f03;fill-opacity:0.75686275"
           d="M 11.875,14.625 11.75,14.25 11.84375,14.53125 11.9375,14.8125 11.875,14.625 q -0.0625,-0.1875 -0.1875,-0.3125 l -0.125,-0.125 0.0625,0.0625 0.0625,0.0625 L 12,14 12.3125,13.6875 12.25,13.625 l -0.0625,-0.0625 0.125,0.125 q 0.125,0.125 0.3125,0.1875 L 12.8125,13.9375 12.53125,13.84375 12.25,13.75 12.625,13.875 13,14 l 0,0.5 0,0.5 -0.5,0 -0.5,0 -0.125,-0.375"
           id="path68846"
           inkscape:connector-curvature="0" />
        <path
           style="fill:#111005;fill-opacity:0.63529412"
           d="M 13,14.5 13,14 13.375,13.875 13.75,13.75 13.46875,13.84375 13.1875,13.9375 13.375,13.875 q 0.1875,-0.0625 0.3125,-0.1875 l 0.125,-0.125 L 13.75,13.625 13.6875,13.6875 14,14 l 0.3125,0.3125 0.0625,-0.0625 0.0625,-0.0625 -0.125,0.125 q -0.125,0.125 -0.1875,0.3125 L 14.0625,14.8125 14.15625,14.53125 14.25,14.25 14.125,14.625 14,15 13.5,15 13,15 13,14.5"
           id="path68848"
           inkscape:connector-curvature="0" />
        <path
           style="fill:#221f0b;fill-opacity:0.93333333"
           d="m 14.125,14.625 q 0.125,-0.375 0.5,-0.5 L 15,14 l 0,0.5 0,0.5 -0.5,0 -0.5,0 0.125,-0.375"
           id="path68850"
           inkscape:connector-curvature="0" />
        <path
           style="fill:#f3df61;fill-opacity:1"
           d="M 15,14.5 15,14 15.375,13.875 15.75,13.75 15.46875,13.84375 15.1875,13.9375 15.375,13.875 q 0.1875,-0.0625 0.3125,-0.1875 l 0.125,-0.125 L 15.75,13.625 15.6875,13.6875 16,14 l 0.3125,0.3125 0.0625,-0.0625 0.0625,-0.0625 -0.125,0.125 q -0.125,0.125 -0.1875,0.3125 L 16.0625,14.8125 16.15625,14.53125 16.25,14.25 16.125,14.625 16,15 16.09375,14.71875 16.1875,14.4375 16.125,14.625 q -0.0625,0.1875 -0.09375,0.40625 L 16,15.25 16.015625,15.140625 16.03125,15.03125 15.515625,15.015625 15,15 15,14.5"
           id="path68852"
           inkscape:connector-curvature="0" />
        <path
           style="fill:#ffdc1c;fill-opacity:1"
           d="m 16.125,14.625 q 0.125,-0.375 0.5,-0.5 L 17,14 l 0,0.5 0,0.5 -0.5,0 -0.5,0 0.125,-0.375"
           id="path68854"
           inkscape:connector-curvature="0" />
        <path
           style="fill:#f7cc04;fill-opacity:1"
           d="m 17,14.5 0,-0.5 0.5,0 0.5,0 0,0.5 0,0.5 -0.5,0 -0.5,0 0,-0.5"
           id="path68856"
           inkscape:connector-curvature="0" />
        <path
           style="fill:#fdd10a;fill-opacity:1"
           d="m 18,14.5 0,-0.5 0.5,0 0.5,0 0,0.5 0,0.5 -0.5,0 -0.5,0 0,-0.5"
           id="path68858"
           inkscape:connector-curvature="0" />
        <path
           style="fill:#fdbe08;fill-opacity:1"
           d="m 19,14.5 0,-0.5 0.5,0 0.5,0 0,0.5 0,0.5 -0.5,0 -0.5,0 0,-0.5 m 1,0.625 0,-0.125 0,-0.375 0,-0.375 0,0.25 q 0,0.25 0,0.5 l 0,0.25 0,-0.125 m -1,-1.25 0,0.125 0,0.375 0,0.375 0,-0.25 q 0,-0.25 0,-0.5 l 0,-0.25 0,0.125"
           id="path68860"
           inkscape:connector-curvature="0" />
        <path
           style="fill:#321f01;fill-opacity:0.91764706"
           d="m 20,14.5 0,-0.5 0.375,0.125 q 0.375,0.125 0.5,0.5 L 21,15 20.90625,14.71875 20.8125,14.4375 20.875,14.625 q 0.0625,0.1875 0.09375,0.40625 L 21,15.25 20.984375,15.140625 20.96875,15.03125 20.484375,15.015625 20,15 20,14.5 m 0,0.125 0,0.375 0,0.125 0,0.125 0,-0.25 q 0,-0.25 0,-0.5 l 0,-0.25 0,0.375"
           id="path68862"
           inkscape:connector-curvature="0" />
        <path
           style="fill:#000000;fill-opacity:0.56470588"
           d="M 1,15.5 1,15 1.515625,15.015625 2.03125,15.03125 2.046875,14.921875 2.0625,14.8125 2.03125,15.03125 Q 2,15.25 2,15.5 L 2,15.75 2,15.375 2,15 2,15.5 2,16 1.5,16 1,16 1,15.5"
           id="path68864"
           inkscape:connector-curvature="0" />
        <path
           style="fill:#bbaf2c;fill-opacity:1"
           d="M 2,15.5 2,15 2,15.375 2,15.75 2,15.5 Q 2,15.25 2.03125,15.03125 L 2.0625,14.8125 2.046875,14.921875 2.03125,15.03125 2.515625,15.015625 3,15 3,15.5 3,16 2.5,16 2,16 2,15.5"
           id="path68866"
           inkscape:connector-curvature="0" />
        <path
           style="fill:#ffed11;fill-opacity:1"
           d="M 3,15.5 3,15 3.375,14.875 3.75,14.75 3.46875,14.84375 3.1875,14.9375 3.375,14.875 Q 3.5625,14.8125 3.71875,14.71875 L 3.875,14.625 3.796875,14.671875 3.71875,14.71875 4.015625,15.015625 4.3125,15.3125 4.375,15.25 4.4375,15.1875 4.3125,15.3125 Q 4.1875,15.4375 4.125,15.625 L 4.0625,15.8125 4.15625,15.53125 4.25,15.25 4.125,15.625 4,16 3.5,16 3,16 3,15.5"
           id="path68868"
           inkscape:connector-curvature="0" />
        <path
           style="fill:#f5de07;fill-opacity:1"
           d="m 4.125,15.625 q 0.125,-0.375 0.5,-0.5 L 5,15 5,15.5 5,16 4.5,16 4,16 4.125,15.625"
           id="path68870"
           inkscape:connector-curvature="0" />
        <path
           style="fill:#f5dd09;fill-opacity:1"
           d="M 5,15.5 5,15 5.5,15 6,15 6,15.5 6,16 5.5,16 5,16 5,15.5"
           id="path68872"
           inkscape:connector-curvature="0" />
        <path
           style="fill:#fee209;fill-opacity:1"
           d="M 6,15.5 6,15 6.5,15 7,15 7,15.5 7,16 6.5,16 6,16 6,15.5"
           id="path68874"
           inkscape:connector-curvature="0" />
        <path
           style="fill:#d1a305;fill-opacity:1"
           d="M 7,15.5 7,15 7.5,15 8,15 8,15.5 8,16 7.5,16 7,16 7,15.5 M 7,15.625 7,16 7,16.125 7,16.25 7,16 q 0,-0.25 0,-0.5 l 0,-0.25 0,0.375 m 1,0.5 L 8,16 8,15.625 8,15.25 8,15.5 q 0,0.25 0,0.5 l 0,0.25 0,-0.125 M 8,15.375 8,15 8,14.875 8,14.75 8,15 q 0,0.25 0,0.5 l 0,0.25 0,-0.375 M 7,14.875 7,15 7,15.375 7,15.75 7,15.5 Q 7,15.25 7,15 l 0,-0.25 0,0.125"
           id="path68876"
           inkscape:connector-curvature="0" />
        <path
           style="fill:#000000;fill-opacity:0.69019608"
           d="M 8,15.5 8,15 8.375,14.875 8.75,14.75 8.46875,14.84375 8.1875,14.9375 8.375,14.875 Q 8.5625,14.8125 8.6875,14.6875 L 8.8125,14.5625 8.75,14.625 8.6875,14.6875 9,14.96875 9.3125,15.25 9.34375,15.1875 9.375,15.125 9.3125,15.25 Q 9.25,15.375 9.25,15.5 l 0,0.125 0,-0.1875 0,-0.1875 0,0.25 0,0.25 0,-0.1875 0,-0.1875 0,0.125 q 0,0.125 0.0625,0.25 L 9.375,15.875 9.34375,15.8125 9.3125,15.75 9,16.03125 8.6875,16.3125 8.75,16.375 8.8125,16.4375 8.6875,16.3125 Q 8.5625,16.1875 8.375,16.125 L 8.1875,16.0625 8.46875,16.15625 8.75,16.25 8.375,16.125 8,16 8,15.5 M 8,15.625 8,16 8,16.125 8,16.25 8,16 q 0,-0.25 0,-0.5 l 0,-0.25 0,0.375 M 8,14.875 8,15 8,15.375 8,15.75 8,15.5 Q 8,15.25 8,15 l 0,-0.25 0,0.125"
           id="path68878"
           inkscape:connector-curvature="0" />
        <path
           style="fill:#272007;fill-opacity:0.91372549"
           d="m 9.25,15.5 q 0,-0.25 0.25,-0.5 l 0.25,-0.25 0.296875,0.265625 0.296875,0.265625 0.04687,-0.04687 0.04687,-0.04687 -0.09375,0.09375 Q 10.25,15.375 10.25,15.5 l 0,0.125 0,-0.1875 0,-0.1875 0,0.25 0,0.25 0,-0.1875 0,-0.1875 0,0.125 q 0,0.125 0.09375,0.21875 L 10.4375,15.8125 10.39063,15.76563 10.34376,15.71876 10.046885,15.984385 9.75,16.25 9.5,16 Q 9.25,15.75 9.25,15.5 M 9.5625,16.0625 9.75,16.25 9.8125,16.3125 9.875,16.375 9.75,16.25 Q 9.625,16.125 9.5,16 l -0.125,-0.125 0.1875,0.1875 m 0.25,-1.375 L 9.75,14.75 9.5625,14.9375 9.375,15.125 9.5,15 q 0.125,-0.125 0.25,-0.25 l 0.125,-0.125 -0.0625,0.0625"
           id="path68880"
           inkscape:connector-curvature="0" />
        <path
           style="fill:#dcba2b;fill-opacity:1"
           d="m 10.25,15.5 q 0,-0.25 0.375,-0.375 L 11,15 11,15.5 11,16 10.625,15.875 Q 10.25,15.75 10.25,15.5"
           id="path68882"
           inkscape:connector-curvature="0" />
        <path
           style="fill:#d0a10d;fill-opacity:1"
           d="m 11,15.5 0,-0.5 0.5,0 0.5,0 0,0.5 0,0.5 -0.5,0 -0.5,0 0,-0.5"
           id="path68884"
           inkscape:connector-curvature="0" />
        <path
           style="fill:#725b0d;fill-opacity:1"
           d="m 12,15.5 0,-0.5 0.5,0 0.5,0 0,0.5 0,0.5 -0.5,0 -0.5,0 0,-0.5"
           id="path68886"
           inkscape:connector-curvature="0" />
        <path
           style="fill:#6b5712;fill-opacity:1"
           d="m 13,15.5 0,-0.5 0.5,0 0.5,0 0,0.5 0,0.5 -0.5,0 -0.5,0 0,-0.5"
           id="path68888"
           inkscape:connector-curvature="0" />
        <path
           style="fill:#605217;fill-opacity:1"
           d="m 14,15.5 0,-0.5 0.5,0 0.5,0 0,0.5 0,0.5 -0.5,0 -0.5,0 0,-0.5"
           id="path68890"
           inkscape:connector-curvature="0" />
        <path
           style="fill:#fedc2d;fill-opacity:1"
           d="m 15,15.5 0,-0.5 0.515625,0.01563 0.515625,0.01563 0.01563,-0.109375 0.01563,-0.109375 -0.03125,0.21875 Q 16,15.25 16,15.5 l 0,0.25 0,-0.375 0,-0.375 0,0.5 0,0.5 -0.5,0 -0.5,0 0,-0.5 m 1,0.625 0,-0.125 0,-0.375 0,-0.375 0,0.25 q 0,0.25 0,0.5 l 0,0.25 0,-0.125"
           id="path68892"
           inkscape:connector-curvature="0" />
        <path
           style="fill:#f6c905;fill-opacity:1"
           d="m 16,15.5 0,-0.5 0.5,0 0.5,0 0,0.5 0,0.5 -0.5,0 -0.5,0 0,-0.5"
           id="path68894"
           inkscape:connector-curvature="0" />
        <path
           style="fill:#f5c709;fill-opacity:1"
           d="m 17,15.5 0,-0.5 0.5,0 0.5,0 0.5,0 0.5,0 -0.125,0.375 q -0.125,0.375 -0.5,0.5 L 18,16 17.5,16 17,16 17,15.5"
           id="path68896"
           inkscape:connector-curvature="0" />
        <path
           style="fill:#ffc308;fill-opacity:1"
           d="M 18.875,15.375 19,15 l 0.5,0 0.5,0 0,0.5 0,0.5 -0.375,0.125 -0.375,0.125 0.28125,-0.09375 0.28125,-0.09375 -0.1875,0.0625 q -0.1875,0.0625 -0.34375,0.15625 L 19.125,16.375 19.203125,16.328125 19.28125,16.28125 18.984375,15.984375 18.6875,15.6875 18.625,15.75 l -0.0625,0.0625 0.125,-0.125 q 0.125,-0.125 0.1875,-0.3125 L 18.9375,15.1875 18.84375,15.46875 18.75,15.75 18.875,15.375 M 20,15.375 20,15 20,14.875 20,14.75 20,15 q 0,0.25 0,0.5 l 0,0.25 0,-0.375"
           id="path68898"
           inkscape:connector-curvature="0" />
        <path
           style="fill:#5c3c02;fill-opacity:0.97647059"
           d="m 20,15.5 0,-0.5 0.484375,0.01563 0.484375,0.01563 -0.01563,-0.109375 -0.01563,-0.109375 0.03125,0.21875 Q 21,15.25 21,15.5 l 0,0.25 0,-0.375 0,-0.375 0,0.5 0,0.5 0,-0.375 0,-0.375 0,0.25 q 0,0.25 -0.03125,0.46875 L 20.9375,16.1875 20.95313,16.078125 20.96876,15.96875 20.484385,15.98438 20,16 20,15.5 m 0,-0.625 0,0.125 0,0.375 0,0.375 0,-0.25 q 0,-0.25 0,-0.5 l 0,-0.25 0,0.125"
           id="path68900"
           inkscape:connector-curvature="0" />
        <path
           style="fill:#000000;fill-opacity:0.38431373"
           d="M 1,16.5 1,16 1.5,16 2,16 2,16.5 2,17 1.5,17 1,17 1,16.5"
           id="path68902"
           inkscape:connector-curvature="0" />
        <path
           style="fill:#907f08;fill-opacity:1"
           d="M 2,16.5 2,16 2.5,16 3,16 3,16.5 3,17 2.515625,16.984375 2.03125,16.96875 2.046875,17.078125 2.0625,17.1875 2.03125,16.96875 Q 2,16.75 2,16.5 L 2,16.25 2,16.625 2,17 2,16.5"
           id="path68904"
           inkscape:connector-curvature="0" />
        <path
           style="fill:#ffeb0b;fill-opacity:1"
           d="M 3,16.5 3,16 3.5,16 4,16 4,16.5 4,17 3.5,17 3,17 3,16.5"
           id="path68906"
           inkscape:connector-curvature="0" />
        <path
           style="fill:#f5dc09;fill-opacity:1"
           d="M 4,16.5 4,16 4.5,16 5,16 5,16.5 5,17 4.5,17 4,17 4,16.5"
           id="path68908"
           inkscape:connector-curvature="0" />
        <path
           style="fill:#f5db09;fill-opacity:1"
           d="M 5,16.5 5,16 5.5,16 6,16 5.875,16.375 q -0.125,0.375 -0.5,0.5 L 5,17 5,16.5"
           id="path68910"
           inkscape:connector-curvature="0" />
        <path
           style="fill:#ffda09;fill-opacity:1"
           d="M 5.875,16.375 6,16 6.5,16 7,16 7,16.5 7,17 6.625,17.125 6.25,17.25 6.53125,17.15625 6.8125,17.0625 6.625,17.125 Q 6.4375,17.1875 6.3125,17.3125 L 6.1875,17.4375 6.25,17.375 6.3125,17.3125 6,17 5.6875,16.6875 5.625,16.75 5.5625,16.8125 5.6875,16.6875 Q 5.8125,16.5625 5.875,16.375 L 5.9375,16.1875 5.84375,16.46875 5.75,16.75 5.875,16.375"
           id="path68912"
           inkscape:connector-curvature="0" />
        <path
           style="fill:#ad8204;fill-opacity:1"
           d="M 7,16.5 7,16 7.5,16 8,16 8,16.5 8,17 8,16.625 8,16.25 8,16.5 q 0,0.25 -0.03125,0.46875 L 7.9375,17.1875 7.953125,17.078125 7.96875,16.96875 7.484375,16.984375 7,17 7,16.5 M 8,16.375 8,16 8,15.875 8,15.75 8,16 q 0,0.25 0,0.5 l 0,0.25 0,-0.375 M 7,15.875 7,16 7,16.375 7,16.75 7,16.5 Q 7,16.25 7,16 l 0,-0.25 0,0.125"
           id="path68914"
           inkscape:connector-curvature="0" />
        <path
           style="fill:#000000;fill-opacity:0.49803922"
           d="M 8,16.5 8,16 8.375,16.125 q 0.375,0.125 0.5,0.5 L 9,17 8.5,17 8,17 8,16.5 M 8,15.875 8,16 8,16.375 8,16.75 8,16.5 Q 8,16.25 8,16 l 0,-0.25 0,0.125"
           id="path68916"
           inkscape:connector-curvature="0" />
        <path
           style="fill:#000000;fill-opacity:0.29411765"
           d="M 8.875,16.625 8.75,16.25 8.84375,16.53125 8.9375,16.8125 8.875,16.625 Q 8.8125,16.4375 8.6875,16.3125 L 8.5625,16.1875 8.625,16.25 8.6875,16.3125 9,16.03125 9.3125,15.75 9.28125,15.6875 9.25,15.625 9.3125,15.75 Q 9.375,15.875 9.5,16 L 9.625,16.125 9.4375,15.9375 9.25,15.75 9.5,16 q 0.25,0.25 0.5,0.5 L 10.25,16.75 10.0625,16.5625 9.875,16.375 10,16.5 q 0.125,0.125 0.28125,0.21875 l 0.15625,0.09375 -0.07813,-0.04687 -0.07813,-0.04687 -0.265625,0.265625 Q 9.75,17.25 9.375,17.125 L 9,17 8.875,16.625"
           id="path68918"
           inkscape:connector-curvature="0" />
        <path
           style="fill:#1b0f00;fill-opacity:0.83921569"
           d="M 10,16.5 9.75,16.25 10.046875,15.984375 10.34375,15.71875 10.296875,15.671875 10.25,15.625 10.34375,15.71875 Q 10.4375,15.8125 10.625,15.875 L 10.8125,15.9375 10.53125,15.84375 10.25,15.75 10.625,15.875 11,16 l 0,0.46875 0,0.46875 0.09375,0 0.09375,0 -0.1875,0 q -0.1875,0 -0.375,-0.0625 L 10.4375,16.8125 10.71875,16.90625 11,17 10.625,16.875 Q 10.25,16.75 10,16.5 M 9.6875,16.1875 9.75,16.25 9.9375,16.4375 10.125,16.625 10,16.5 Q 9.875,16.375 9.75,16.25 l -0.125,-0.125 0.0625,0.0625"
           id="path68920"
           inkscape:connector-curvature="0" />
        <path
           style="fill:#322300;fill-opacity:0.94509804"
           d="M 11,16.46875 11,16 l 0.5,0 0.5,0 -0.125,0.375 q -0.125,0.375 -0.5,0.5 L 11,17 11.28125,16.90625 11.5625,16.8125 11.375,16.875 Q 11.1875,16.9375 11,16.9375 l -0.1875,0 0.09375,0 0.09375,0 0,-0.46875"
           id="path68922"
           inkscape:connector-curvature="0" />
        <path
           style="fill:#000000;fill-opacity:0.63529412"
           d="M 11.875,16.375 12,16 l 0.5,0 0.5,0 0,0.5 0,0.5 -0.375,0.125 -0.375,0.125 0.28125,-0.09375 0.28125,-0.09375 -0.1875,0.0625 q -0.1875,0.0625 -0.3125,0.1875 l -0.125,0.125 L 12.25,17.375 12.3125,17.3125 12,17 11.6875,16.6875 11.625,16.75 l -0.0625,0.0625 0.125,-0.125 q 0.125,-0.125 0.1875,-0.3125 L 11.9375,16.1875 11.84375,16.46875 11.75,16.75 11.875,16.375"
           id="path68924"
           inkscape:connector-curvature="0" />
        <path
           style="fill:#000000;fill-opacity:0.49803922"
           d="m 13,16.5 0,-0.5 0.5,0 0.5,0 0.125,0.375 0.125,0.375 -0.09375,-0.28125 -0.09375,-0.28125 0.0625,0.1875 q 0.0625,0.1875 0.1875,0.3125 l 0.125,0.125 L 14.375,16.75 14.3125,16.6875 14,17 l -0.3125,0.3125 0.0625,0.0625 0.0625,0.0625 -0.125,-0.125 Q 13.5625,17.1875 13.375,17.125 L 13.1875,17.0625 13.46875,17.15625 13.75,17.25 13.375,17.125 13,17 13,16.5 M 14.125,16 14,16 l -0.375,0 -0.375,0 0.25,0 q 0.25,0 0.5,0 l 0.25,0 -0.125,0"
           id="path68926"
           inkscape:connector-curvature="0" />
        <path
           style="fill:#1f1902;fill-opacity:0.9254902"
           d="M 14.125,16.375 14,16 l 0.5,0 0.5,0 0,0.5 0,0.5 -0.375,-0.125 q -0.375,-0.125 -0.5,-0.5 M 14.375,16 14,16 13.875,16 13.75,16 14,16 q 0.25,0 0.5,0 l 0.25,0 -0.375,0"
           id="path68928"
           inkscape:connector-curvature="0" />
        <path
           style="fill:#f2bf0d;fill-opacity:1"
           d="m 15,16.5 0,-0.5 0.5,0 0.5,0 -0.0625,0.5625 -0.0625,0.5625 0.0625,0.0625 L 16,17.25 15.875,17.125 Q 15.75,17 15.5,17 l -0.25,0 0.375,0 0.375,0 -0.5,0 -0.5,0 0,-0.5"
           id="path68930"
           inkscape:connector-curvature="0" />
        <path
           style="fill:#fcc909;fill-opacity:1"
           d="M 15.9375,16.5625 16,16 l 0.5,0 0.5,0 0,0.5 0,0.5 -0.5625,0.0625 -0.5625,0.0625 0.0625,-0.5625"
           id="path68932"
           inkscape:connector-curvature="0" />
        <path
           style="fill:#f5c309;fill-opacity:1"
           d="m 17,16.5 0,-0.5 0.5,0 0.5,0 0,0.5 0,0.5 -0.5,0 -0.5,0 0,-0.5"
           id="path68934"
           inkscape:connector-curvature="0" />
        <path
           style="fill:#f9c109;fill-opacity:1"
           d="M 18,16.5 18,16 18.375,15.875 18.75,15.75 18.46875,15.84375 18.1875,15.9375 18.375,15.875 q 0.1875,-0.0625 0.3125,-0.1875 l 0.125,-0.125 -0.0625,0.0625 -0.0625,0.0625 0.296875,0.296875 0.296875,0.296875 0.07813,-0.04687 0.07813,-0.04687 -0.15625,0.09375 Q 19.125,16.375 19,16.5 L 18.875,16.625 19.0625,16.4375 19.25,16.25 19,16.5 q -0.25,0.25 -0.625,0.375 L 18,17 18,16.5"
           id="path68936"
           inkscape:connector-curvature="0" />
        <path
           style="fill:#fdaf07;fill-opacity:1"
           d="m 19,16.5 q 0.25,-0.25 0.625,-0.375 L 20,16 20,16.5 20,17 19.625,17.125 19.25,17.25 19.53125,17.15625 19.8125,17.0625 19.625,17.125 q -0.1875,0.0625 -0.3125,0.1875 l -0.125,0.125 0.0625,-0.0625 0.0625,-0.0625 -0.296875,-0.296875 -0.296875,-0.296875 -0.07813,0.04687 -0.07813,0.04687 0.15625,-0.09375 Q 18.875,16.625 19,16.5 L 19.125,16.375 18.9375,16.5625 18.75,16.75 19,16.5"
           id="path68938"
           inkscape:connector-curvature="0" />
        <path
           style="fill:#352401;fill-opacity:0.92941176"
           d="M 20,16.5 20,16 20.484375,15.98437 20.96875,15.96874 20.98438,15.859365 21,15.75 20.96875,15.96875 Q 20.9375,16.1875 20.875,16.375 L 20.8125,16.5625 20.90625,16.28125 21,16 20.875,16.375 q -0.125,0.375 -0.5,0.5 L 20,17 20,16.5"
           id="path68940"
           inkscape:connector-curvature="0" />
        <path
           style="fill:#000000;fill-opacity:0.03137255"
           d="M 1,17.5 1,17 1.5,17 2,17 2.125,17.375 2.25,17.75 2.15625,17.46875 2.0625,17.1875 2.125,17.375 q 0.0625,0.1875 0.15625,0.34375 L 2.375,17.875 2.328125,17.796875 2.28125,17.71875 1.984375,18.015625 1.6875,18.3125 1.75,18.375 1.8125,18.4375 1.6875,18.3125 Q 1.5625,18.1875 1.375,18.125 L 1.1875,18.0625 1.46875,18.15625 1.75,18.25 1.375,18.125 Q 1,18 1,17.5"
           id="path68942"
           inkscape:connector-curvature="0" />
        <path
           style="fill:#191400;fill-opacity:0.87058824"
           d="M 2.125,17.375 2,17 2.09375,17.28125 2.1875,17.5625 2.125,17.375 Q 2.0625,17.1875 2.03125,16.96875 L 2,16.75 2.015625,16.859375 2.03125,16.96875 2.515625,16.984375 3,17 3.125,17.375 3.25,17.75 3.15625,17.46875 3.0625,17.1875 3.125,17.375 q 0.0625,0.1875 0.1875,0.3125 l 0.125,0.125 L 3.375,17.75 3.3125,17.6875 3.015625,17.984375 2.71875,18.28125 2.765625,18.359375 2.8125,18.4375 2.71875,18.28125 Q 2.625,18.125 2.5,18 L 2.375,17.875 2.5625,18.0625 2.75,18.25 2.5,18 Q 2.25,17.75 2.125,17.375"
           id="path68944"
           inkscape:connector-curvature="0" />
        <path
           style="fill:#cc9f05;fill-opacity:1"
           d="M 3.125,17.375 3,17 3.5,17 4,17 4,17.5 4,18 3.625,17.875 Q 3.25,17.75 3.125,17.375 M 4.125,17 4,17 3.625,17 3.25,17 3.5,17 q 0.25,0 0.5,0 l 0.25,0 -0.125,0"
           id="path68946"
           inkscape:connector-curvature="0" />
        <path
           style="fill:#ffd008;fill-opacity:1"
           d="M 4,17.5 4,17 4.5,17 5,17 5,17.5 5,18 4.5,18 4,18 4,17.5 M 4.375,17 4,17 3.875,17 3.75,17 4,17 q 0.25,0 0.5,0 l 0.25,0 -0.375,0"
           id="path68948"
           inkscape:connector-curvature="0" />
        <path
           style="fill:#ffcf08;fill-opacity:1"
           d="M 5,17.5 5,17 5.375,16.875 5.75,16.75 5.46875,16.84375 5.1875,16.9375 5.375,16.875 Q 5.5625,16.8125 5.6875,16.6875 L 5.8125,16.5625 5.75,16.625 5.6875,16.6875 6,17 6.3125,17.3125 6.375,17.25 6.4375,17.1875 6.3125,17.3125 Q 6.1875,17.4375 6.125,17.625 L 6.0625,17.8125 6.15625,17.53125 6.25,17.25 6.125,17.625 6,18 5.5,18 5,18 5,17.5"
           id="path68950"
           inkscape:connector-curvature="0" />
        <path
           style="fill:#d9a205;fill-opacity:1"
           d="m 6.125,17.625 q 0.125,-0.375 0.5,-0.5 L 7,17 7,17.5 Q 7,18 6.5,18 L 6,18 6.125,17.625"
           id="path68952"
           inkscape:connector-curvature="0" />
        <path
           style="fill:#2b2001;fill-opacity:0.93333333"
           d="M 7,17.5 7,17 7.484375,16.984375 7.96875,16.96875 7.984375,16.859375 8,16.75 7.96875,16.96875 Q 7.9375,17.1875 7.875,17.375 L 7.8125,17.5625 7.90625,17.28125 8,17 7.875,17.375 Q 7.75,17.75 7.3125,17.8125 L 6.875,17.875 6.8125,17.9375 6.75,18 6.875,17.875 Q 7,17.75 7,17.5 L 7,17.25 7,17.625 7,18 7,17.5"
           id="path68954"
           inkscape:connector-curvature="0" />
        <path
           style="fill:#000000;fill-opacity:0.0745098"
           d="M 7.875,17.375 8,17 8.5,17 9,17 9,17.5 Q 9,18 8.625,18.125 L 8.25,18.25 8.53125,18.15625 8.8125,18.0625 8.625,18.125 Q 8.4375,18.1875 8.3125,18.3125 L 8.1875,18.4375 8.25,18.375 8.3125,18.3125 8,18 7.6875,17.6875 7.625,17.75 7.5625,17.8125 7.6875,17.6875 Q 7.8125,17.5625 7.875,17.375 L 7.9375,17.1875 7.84375,17.46875 7.75,17.75 7.875,17.375"
           id="path68956"
           inkscape:connector-curvature="0" />
        <path
           style="fill:#000000;fill-opacity:0.05490196"
           d="M 11,17.5 11,17 11.375,16.875 11.75,16.75 11.46875,16.84375 11.1875,16.9375 11.375,16.875 q 0.1875,-0.0625 0.3125,-0.1875 l 0.125,-0.125 L 11.75,16.625 11.6875,16.6875 12,17 l 0.3125,0.3125 0.0625,-0.0625 0.0625,-0.0625 -0.125,0.125 q -0.125,0.125 -0.1875,0.3125 L 12.0625,17.8125 12.15625,17.53125 12.25,17.25 12.125,17.625 Q 12,18 11.5,18 11,18 11,17.5"
           id="path68958"
           inkscape:connector-curvature="0" />
        <path
           style="fill:#000000;fill-opacity:0.37254902"
           d="M 13.875,17.625 13.75,17.25 13.84375,17.53125 13.9375,17.8125 13.875,17.625 q -0.0625,-0.1875 -0.1875,-0.3125 l -0.125,-0.125 0.0625,0.0625 0.0625,0.0625 L 14,17 14.3125,16.6875 14.25,16.625 l -0.0625,-0.0625 0.125,0.125 q 0.125,0.125 0.3125,0.1875 L 14.8125,16.9375 14.53125,16.84375 14.25,16.75 14.625,16.875 15,17 15.125,17.375 15.25,17.75 15.15625,17.46875 15.0625,17.1875 15.125,17.375 q 0.0625,0.1875 0.1875,0.3125 l 0.125,0.125 L 15.375,17.75 15.3125,17.6875 15,18 l -0.3125,0.3125 0.0625,0.0625 0.0625,0.0625 -0.125,-0.125 Q 14.5625,18.1875 14.375,18.125 L 14.1875,18.0625 14.46875,18.15625 14.75,18.25 14.375,18.125 Q 14,18 13.875,17.625"
           id="path68960"
           inkscape:connector-curvature="0" />
        <path
           style="fill:#6a4902;fill-opacity:1"
           d="M 15.125,17.375 15,17 l 0.5,0 q 0.5,0 0.5,0.5 l 0,0.5 -0.375,-0.125 q -0.375,-0.125 -0.5,-0.5"
           id="path68962"
           inkscape:connector-curvature="0" />
        <path
           style="fill:#f8ad07;fill-opacity:1"
           d="m 16,17.5 0,-0.5 0,0.375 0,0.375 0,-0.25 q 0,-0.25 -0.125,-0.375 L 15.75,17 15.8125,17.0625 15.875,17.125 16.4375,17.0625 17,17 l 0,0.5 0,0.5 -0.5,0 -0.5,0 0,-0.5 M 16.625,18 17,18 17.125,18 17.25,18 17,18 q -0.25,0 -0.5,0 l -0.25,0 0.375,0"
           id="path68964"
           inkscape:connector-curvature="0" />
        <path
           style="fill:#ffb808;fill-opacity:1"
           d="m 17,17.5 0,-0.5 0.5,0 0.5,0 0,0.5 0,0.5 -0.5,0 -0.5,0 0,-0.5 M 16.875,18 17,18 l 0.375,0 0.375,0 -0.25,0 q -0.25,0 -0.5,0 l -0.25,0 0.125,0 m 0.75,0 0.375,0 0.125,0 0.125,0 -0.25,0 q -0.25,0 -0.5,0 l -0.25,0 0.375,0"
           id="path68966"
           inkscape:connector-curvature="0" />
        <path
           style="fill:#feac07;fill-opacity:1"
           d="M 18,17.5 18,17 18.375,16.875 18.75,16.75 18.46875,16.84375 18.1875,16.9375 18.375,16.875 q 0.1875,-0.0625 0.34375,-0.15625 L 18.875,16.625 l -0.07813,0.04687 -0.07813,0.04687 0.296875,0.296875 0.296875,0.296875 0.0625,-0.0625 0.0625,-0.0625 -0.125,0.125 q -0.125,0.125 -0.1875,0.3125 L 19.0625,17.8125 19.15625,17.53125 19.25,17.25 19.125,17.625 19,18 18.5,18 18,18 18,17.5 M 17.875,18 18,18 l 0.375,0 0.375,0 -0.25,0 q -0.25,0 -0.5,0 l -0.25,0 0.125,0"
           id="path68968"
           inkscape:connector-curvature="0" />
        <path
           style="fill:#8c5903;fill-opacity:1"
           d="m 19.125,17.625 q 0.125,-0.375 0.5,-0.5 L 20,17 19.875,17.375 q -0.125,0.375 -0.5,0.5 L 19,18 19.125,17.625"
           id="path68970"
           inkscape:connector-curvature="0" />
        <path
           style="fill:#020000;fill-opacity:0.54117647"
           d="M 19.875,17.375 20,17 20.375,16.875 20.75,16.75 20.46875,16.84375 20.1875,16.9375 20.375,16.875 q 0.1875,-0.0625 0.3125,-0.1875 l 0.125,-0.125 -0.0625,0.0625 -0.0625,0.0625 0.28125,0.28125 Q 21.25,17.25 21.125,17.625 21,18 20.625,18.125 L 20.25,18.25 20.53125,18.15625 20.8125,18.0625 20.625,18.125 q -0.1875,0.0625 -0.3125,0.1875 l -0.125,0.125 L 20.25,18.375 20.3125,18.3125 20,18 19.6875,17.6875 19.625,17.75 l -0.0625,0.0625 0.125,-0.125 q 0.125,-0.125 0.1875,-0.3125 L 19.9375,17.1875 19.84375,17.46875 19.75,17.75 19.875,17.375"
           id="path68972"
           inkscape:connector-curvature="0" />
        <path
           style="fill:#000000;fill-opacity:0.14901961"
           d="M 1.875,18.625 1.75,18.25 1.84375,18.53125 1.9375,18.8125 1.875,18.625 Q 1.8125,18.4375 1.6875,18.3125 L 1.5625,18.1875 1.625,18.25 1.6875,18.3125 1.984375,18.015625 2.28125,17.71875 2.234375,17.640625 2.1875,17.5625 2.28125,17.71875 Q 2.375,17.875 2.5,18 L 2.625,18.125 2.4375,17.9375 2.25,17.75 2.5,18 q 0.25,0.25 0.375,0.625 L 3,19 2.5,19 Q 2,19 1.875,18.625"
           id="path68974"
           inkscape:connector-curvature="0" />
        <path
           style="fill:#0d0900;fill-opacity:0.76470588"
           d="M 2.875,18.625 2.75,18.25 2.84375,18.53125 2.9375,18.8125 2.875,18.625 Q 2.8125,18.4375 2.71875,18.28125 L 2.625,18.125 2.671875,18.203125 2.71875,18.28125 3.015625,17.984375 3.3125,17.6875 3.25,17.625 3.1875,17.5625 l 0.125,0.125 q 0.125,0.125 0.3125,0.1875 L 3.8125,17.9375 3.53125,17.84375 3.25,17.75 3.625,17.875 4,18 4.125,18.375 4.25,18.75 4.15625,18.46875 4.0625,18.1875 4.125,18.375 q 0.0625,0.1875 0.1875,0.3125 l 0.125,0.125 L 4.375,18.75 4.3125,18.6875 4.03125,18.96875 Q 3.75,19.25 3.375,19.125 L 3,19 2.875,18.625"
           id="path68976"
           inkscape:connector-curvature="0" />
        <path
           style="fill:#503702;fill-opacity:0.94901961"
           d="M 4.125,18.375 4,18 4.5,18 5,18 5,18.5 5,19 4.625,18.875 q -0.375,-0.125 -0.5,-0.5"
           id="path68978"
           inkscape:connector-curvature="0" />
        <path
           style="fill:#523b02;fill-opacity:0.95686275"
           d="M 5,18.5 5,18 5.5,18 6,18 5.875,18.375 q -0.125,0.375 -0.5,0.5 L 5,19 5,18.5"
           id="path68980"
           inkscape:connector-curvature="0" />
        <path
           style="fill:#120d00;fill-opacity:0.8"
           d="M 5.875,18.375 6,18 6.5,18 7,18 6.625,18 6.25,18 6.5,18 q 0.25,0 0.375,-0.125 L 7,17.75 6.9375,17.8125 6.875,17.875 6.9375,18.4375 7,19 6.625,19.125 Q 6.25,19.25 5.96875,18.96875 L 5.6875,18.6875 5.625,18.75 5.5625,18.8125 5.6875,18.6875 Q 5.8125,18.5625 5.875,18.375 L 5.9375,18.1875 5.84375,18.46875 5.75,18.75 5.875,18.375"
           id="path68982"
           inkscape:connector-curvature="0" />
        <path
           style="fill:#000000;fill-opacity:0.21960784"
           d="M 6.9375,18.4375 6.875,17.875 7.3125,17.8125 7.75,17.75 7.46875,17.84375 7.1875,17.9375 7.375,17.875 Q 7.5625,17.8125 7.6875,17.6875 L 7.8125,17.5625 7.75,17.625 7.6875,17.6875 8,18 8.3125,18.3125 8.375,18.25 8.4375,18.1875 8.3125,18.3125 Q 8.1875,18.4375 8.125,18.625 L 8.0625,18.8125 8.15625,18.53125 8.25,18.25 8.125,18.625 Q 8,19 7.5,19 L 7,19 6.9375,18.4375"
           id="path68984"
           inkscape:connector-curvature="0" />
        <path
           style="fill:#000000;fill-opacity:0.4627451"
           d="M 14.875,18.625 14.75,18.25 14.84375,18.53125 14.9375,18.8125 14.875,18.625 q -0.0625,-0.1875 -0.1875,-0.3125 l -0.125,-0.125 0.0625,0.0625 0.0625,0.0625 L 15,18 15.3125,17.6875 15.25,17.625 l -0.0625,-0.0625 0.125,0.125 q 0.125,0.125 0.3125,0.1875 L 15.8125,17.9375 15.53125,17.84375 15.25,17.75 15.625,17.875 16,18 16.125,18.375 16.25,18.75 16.15625,18.46875 16.0625,18.1875 16.125,18.375 q 0.0625,0.1875 0.1875,0.3125 l 0.125,0.125 L 16.375,18.75 16.3125,18.6875 16.03125,18.96875 Q 15.75,19.25 15.375,19.125 15,19 14.875,18.625"
           id="path68986"
           inkscape:connector-curvature="0" />
        <path
           style="fill:#2c1e01;fill-opacity:0.89411765"
           d="M 16.125,18.375 16,18 l 0.5,0 0.5,0 0.01563,0.484375 0.01563,0.484375 0.109375,0.01563 L 17.25,19 17.03125,18.96875 Q 16.8125,18.9375 16.625,18.875 L 16.4375,18.8125 16.71875,18.90625 17,19 16.625,18.875 q -0.375,-0.125 -0.5,-0.5 m 1,-0.375 -0.125,0 -0.375,0 -0.375,0 0.25,0 q 0.25,0 0.5,0 l 0.25,0 -0.125,0"
           id="path68988"
           inkscape:connector-curvature="0" />
        <path
           style="fill:#5c3b02;fill-opacity:0.96470588"
           d="M 17.015625,18.484375 17,18 l 0.5,0 0.5,0 -0.01563,0.484375 -0.01563,0.484375 0.109375,-0.01563 0.109375,-0.01563 -0.21875,0.03125 Q 17.75,19 17.5,19 l -0.25,0 0.375,0 0.375,0 -0.5,0 -0.5,0 0.375,0 0.375,0 -0.25,0 q -0.25,0 -0.46875,-0.03125 l -0.21875,-0.03125 0.109375,0.01563 0.109375,0.01563 -0.01563,-0.484375 M 18.125,18 18,18 l -0.375,0 -0.375,0 0.25,0 q 0.25,0 0.5,0 l 0.25,0 -0.125,0 M 17.375,18 17,18 16.875,18 16.75,18 17,18 q 0.25,0 0.5,0 l 0.25,0 -0.375,0"
           id="path68990"
           inkscape:connector-curvature="0" />
        <path
           style="fill:#372101;fill-opacity:0.92156863"
           d="M 17.984375,18.484375 18,18 l 0.5,0 0.5,0 -0.125,0.375 q -0.125,0.375 -0.5,0.5 L 18,19 18.28125,18.90625 18.5625,18.8125 18.375,18.875 q -0.1875,0.0625 -0.40625,0.09375 L 17.75,19 17.859375,18.98437 17.96875,18.96874 17.98438,18.484365 M 18.375,18 18,18 17.875,18 17.75,18 18,18 q 0.25,0 0.5,0 l 0.25,0 -0.375,0"
           id="path68992"
           inkscape:connector-curvature="0" />
        <path
           style="fill:#000000;fill-opacity:0.57647059"
           d="M 18.875,18.375 19,18 19.375,17.875 19.75,17.75 19.46875,17.84375 19.1875,17.9375 19.375,17.875 q 0.1875,-0.0625 0.3125,-0.1875 l 0.125,-0.125 L 19.75,17.625 19.6875,17.6875 20,18 l 0.3125,0.3125 0.0625,-0.0625 0.0625,-0.0625 -0.125,0.125 q -0.125,0.125 -0.1875,0.3125 L 20.0625,18.8125 20.15625,18.53125 20.25,18.25 20.125,18.625 Q 20,19 19.625,19.125 19.25,19.25 18.96875,18.96875 L 18.6875,18.6875 18.625,18.75 l -0.0625,0.0625 0.125,-0.125 q 0.125,-0.125 0.1875,-0.3125 L 18.9375,18.1875 18.84375,18.46875 18.75,18.75 18.875,18.375"
           id="path68994"
           inkscape:connector-curvature="0" />
      </g>
    </g>
  </g>
</svg>
