<?xml version="1.0" encoding="UTF-8" standalone="no"?>
<!-- Created with Inkscape (http://www.inkscape.org/) -->

<svg
   xmlns:dc="http://purl.org/dc/elements/1.1/"
   xmlns:cc="http://creativecommons.org/ns#"
   xmlns:rdf="http://www.w3.org/1999/02/22-rdf-syntax-ns#"
   xmlns:svg="http://www.w3.org/2000/svg"
   xmlns="http://www.w3.org/2000/svg"
   xmlns:sodipodi="http://sodipodi.sourceforge.net/DTD/sodipodi-0.dtd"
   xmlns:inkscape="http://www.inkscape.org/namespaces/inkscape"
   width="20"
   height="20"
   viewBox="0 0 20 20"
   id="svg3347"
   version="1.1"
   inkscape:version="0.91 r13725"
   sodipodi:docname="Civ5Icon.TradeWhite.svg">
  <defs
     id="defs3349" />
  <sodipodi:namedview
     id="base"
     pagecolor="#ffffff"
     bordercolor="#666666"
     borderopacity="1.0"
     inkscape:pageopacity="0.0"
     inkscape:pageshadow="2"
     inkscape:zoom="11.2"
     inkscape:cx="7.324946"
     inkscape:cy="8.5424036"
     inkscape:document-units="px"
     inkscape:current-layer="g27203"
     showgrid="false"
     units="px"
     inkscape:window-width="1477"
     inkscape:window-height="962"
     inkscape:window-x="533"
     inkscape:window-y="95"
     inkscape:window-maximized="0" />
  <metadata
     id="metadata3352">
    <rdf:RDF>
      <cc:Work
         rdf:about="">
        <dc:format>image/svg+xml</dc:format>
        <dc:type
           rdf:resource="http://purl.org/dc/dcmitype/StillImage" />
        <dc:title></dc:title>
      </cc:Work>
    </rdf:RDF>
  </metadata>
  <g
     inkscape:label="Layer 1"
     inkscape:groupmode="layer"
     id="layer1"
     transform="translate(0,-1032.3622)">
    <g
       transform="translate(-0.22321519 1031.8712)"
       id="g27203">
      <g
         transform="translate(-0.71428523,-0.44650042)"
         id="g69007">
        <path
           style="fill:#000000;fill-opacity:0"
           d="M 0,0.5 0,0 0.5,0 1,0 1.5,0 2,0 2.5,0 3,0 3.5,0 4,0 4.5,0 5,0 5.5,0 6,0 6.5,0 7,0 7.5,0 8,0 8.5,0 9,0 9.5,0 10,0 l 0.5,0 0.5,0 0.5,0 0.5,0 0.5,0 0.5,0 0.5,0 0.5,0 0.5,0 0.5,0 0.5,0 0.5,0 0.5,0 0.5,0 0.5,0 0.5,0 0.5,0 0.5,0 0.5,0 0.5,0 0.5,0 0.5,0 0.5,0 0.5,0 0,0.5 0,0.5 0,0.5 0,0.5 0,0.5 0,0.5 0,0.5 0,0.5 0,0.5 0,0.5 0,0.5 0,0.5 0,0.5 0,0.5 0,0.5 0,0.5 0,0.5 0,0.5 0,0.5 0,0.5 0,0.5 0,0.5 0,0.5 0,0.5 0,0.5 0,0.5 0,0.5 0,0.5 0,0.5 0,0.5 0,0.5 0,0.5 0,0.5 0,0.5 0,0.5 0,0.5 0,0.5 0,0.5 0,0.5 0,0.5 0,0.5 0,0.5 0,0.5 0,0.5 -0.5,0 L 21,22 20.5,22 20,22 19.5,22 19,22 18.5,22 18,22 17.5,22 17,22 16.5,22 16,22 15.5,22 15,22 14.5,22 14,22 13.5,22 13,22 12.5,22 12,22 11.5,22 11,22 10.5,22 10,22 9.5,22 9,22 8.5,22 8,22 7.5,22 7,22 6.5,22 6,22 5.5,22 5,22 4.5,22 4,22 3.5,22 3,22 2.5,22 2,22 1.5,22 1,22 0.5,22 0,22 0,21.5 0,21 0,20.5 0,20 0,19.5 0,19 0,18.5 0,18 0,17.5 0,17 0,16.5 0,16 0,15.5 0,15 0,14.5 0,14 0,13.5 0,13 0,12.5 0,12 0,11.5 0,11 0,10.5 0,10 0,9.5 0,9 0,8.5 0,8 0,7.5 0,7 0,6.5 0,6 0,5.5 0,5 0,4.5 0,4 0,3.5 0,3 0,2.5 0,2 0,1.5 0,1 0,0.5 M 19.625,19.125 Q 20,19 20.125,18.625 20.25,18.25 20.625,18.125 21,18 21,17.5 L 21,17 21.125,16.625 Q 21.25,16.25 20.953125,15.984375 l -0.296875,-0.265625 -0.04687,0.04687 -0.04687,0.04687 0.09375,-0.09375 Q 20.75,15.625 20.75,15.5 l 0,-0.125 0,0.1875 0,0.1875 0,-0.25 0,-0.25 0,0.1875 0,0.1875 0,-0.125 q 0,-0.125 -0.09375,-0.21875 l -0.09375,-0.09375 0.04687,0.04687 0.04687,0.04687 0.296875,-0.265625 Q 21.25,14.75 21.125,14.375 L 21,14 21,13.5 Q 21,13 20.625,12.875 20.25,12.75 20.125,12.375 20,12 19.5,12 L 19,12 18.625,11.875 Q 18.25,11.75 18.125,11.375 18,11 17.5,11 L 17,11 17,10.5 17,10 17,9.5 Q 17,9 16.5,9 L 16,9 15.625,8.875 Q 15.25,8.75 15.125,8.375 L 15,8 15,7.5 15,7 15,6.5 15,6 15,5.5 15,5 15,4.5 Q 15,4 14.625,3.875 14.25,3.75 14.125,3.375 14,3 13.625,2.875 13.25,2.75 13.125,2.375 13,2 12.5,2 L 12,2 11.5,2 11,2 10.5,2 10,2 9.5,2 Q 9,2 8.875,2.375 8.75,2.75 8.375,2.875 8,3 7.875,3.375 7.75,3.75 7.375,3.875 7,4 7,4.5 L 7,5 7,5.5 7,6 7,6.5 7,7 7,7.5 7,8 6.875,8.375 Q 6.75,8.75 6.375,8.875 6,9 6,9.5 L 6,10 6,10.5 6,11 5.5,11 5,11 4.5,11 Q 4,11 3.875,11.375 3.75,11.75 3.375,11.875 L 3,12 2.5,12 Q 2,12 2,12.5 L 2,13 1.5,13 Q 1,13 1,13.5 L 1,14 1,14.5 1,15 1,15.5 1,16 1,16.5 1,17 1,17.5 Q 1,18 1.5,18 L 2,18 2,18.5 Q 2,19 2.5,19 L 3,19 3.375,19.125 Q 3.75,19.25 4.03125,18.96875 L 4.3125,18.6875 4.25,18.625 4.1875,18.5625 l 0.125,0.125 q 0.125,0.125 0.3125,0.1875 L 4.8125,18.9375 4.53125,18.84375 4.25,18.75 4.625,18.875 5,19 5.375,18.875 5.75,18.75 5.46875,18.84375 5.1875,18.9375 5.375,18.875 Q 5.5625,18.8125 5.6875,18.6875 L 5.8125,18.5625 5.75,18.625 5.6875,18.6875 5.96875,18.96875 Q 6.25,19.25 6.625,19.125 L 7,19 7.5,19 Q 8,19 8,18.5 L 8,18 8.5,18 Q 9,18 9,17.5 l 0,-0.5 0.5,0 0.5,0 0.5,0 0.5,0 0,0.5 Q 11,18 11.5,18 12,18 12,17.5 l 0,-0.5 0.5,0 0.5,0 0.5,0 0.5,0 0,0.5 q 0,0.5 0.375,0.625 0.375,0.125 0.5,0.5 Q 15,19 15.5,19 l 0.5,0 0.375,0.125 q 0.375,0.125 0.65625,-0.15625 L 17.3125,18.6875 17.25,18.625 l -0.0625,-0.0625 0.125,0.125 q 0.125,0.125 0.3125,0.1875 L 17.8125,18.9375 17.53125,18.84375 17.25,18.75 17.625,18.875 18,19 18.375,18.875 18.75,18.75 18.46875,18.84375 18.1875,18.9375 18.375,18.875 q 0.1875,-0.0625 0.3125,-0.1875 l 0.125,-0.125 -0.0625,0.0625 -0.0625,0.0625 0.28125,0.28125 Q 19.25,19.25 19.625,19.125"
           id="path69009"
           inkscape:connector-curvature="0" />
        <path
           style="fill:#000000;fill-opacity:0.21960784"
           d="M 8.875,2.375 Q 9,2 9.5,2 L 10,2 10.0625,2.5625 10.125,3.125 9.6875,3.1875 9.25,3.25 9.53125,3.15625 9.8125,3.0625 9.625,3.125 Q 9.4375,3.1875 9.28125,3.28125 L 9.125,3.375 9.203125,3.328125 9.28125,3.28125 8.984375,2.984375 8.6875,2.6875 8.625,2.75 8.5625,2.8125 8.6875,2.6875 Q 8.8125,2.5625 8.875,2.375 L 8.9375,2.1875 8.84375,2.46875 8.75,2.75 8.875,2.375"
           id="path69011"
           inkscape:connector-curvature="0" />
        <path
           style="fill:#000000;fill-opacity:0.58039216"
           d="M 10.0625,2.5625 10,2 10.5,2 11,2 11,2.5 11,3 10.5,3 10,3 10.375,3 10.75,3 10.5,3 Q 10.25,3 10.125,3.125 L 10,3.25 10.0625,3.1875 10.125,3.125 10.0625,2.5625"
           id="path69013"
           inkscape:connector-curvature="0" />
        <path
           style="fill:#000000;fill-opacity:0.61568627"
           d="M 11,2.5 11,2 11.5,2 12,2 11.984375,2.515625 11.96875,3.03125 12.078125,3.046875 12.1875,3.0625 11.96875,3.03125 Q 11.75,3 11.5,3 L 11.25,3 11.625,3 12,3 11.5,3 11,3 11,2.5"
           id="path69015"
           inkscape:connector-curvature="0" />
        <path
           style="fill:#000000;fill-opacity:0.32941176"
           d="M 11.984375,2.515625 12,2 12.5,2 Q 13,2 13.125,2.375 L 13.25,2.75 13.15625,2.46875 13.0625,2.1875 13.125,2.375 q 0.0625,0.1875 0.1875,0.3125 l 0.125,0.125 L 13.375,2.75 13.3125,2.6875 13.015625,2.984375 12.71875,3.28125 12.796875,3.328125 12.875,3.375 12.71875,3.28125 Q 12.5625,3.1875 12.375,3.125 L 12.1875,3.0625 12.46875,3.15625 12.75,3.25 12.375,3.125 12,3 12.28125,3.09375 12.5625,3.1875 12.375,3.125 Q 12.1875,3.0625 11.96875,3.03125 L 11.75,3 11.859375,3.015625 11.96875,3.03125 11.984375,2.515625"
           id="path69017"
           inkscape:connector-curvature="0" />
        <path
           style="fill:#000000;fill-opacity:0.45098039"
           d="M 7.875,3.375 Q 8,3 8.375,2.875 L 8.75,2.75 8.46875,2.84375 8.1875,2.9375 8.375,2.875 Q 8.5625,2.8125 8.6875,2.6875 L 8.8125,2.5625 8.75,2.625 8.6875,2.6875 8.984375,2.984375 9.28125,3.28125 9.359375,3.234375 9.4375,3.1875 9.28125,3.28125 Q 9.125,3.375 9,3.5 L 8.875,3.625 9.0625,3.4375 9.25,3.25 9,3.5 Q 8.75,3.75 8.5,4 L 8.25,4.25 8.4375,4.0625 8.625,3.875 8.5,4 Q 8.375,4.125 8.28125,4.28125 L 8.1875,4.4375 8.234375,4.359375 8.28125,4.28125 7.984375,3.984375 7.6875,3.6875 7.625,3.75 7.5625,3.8125 7.6875,3.6875 Q 7.8125,3.5625 7.875,3.375 L 7.9375,3.1875 7.84375,3.46875 7.75,3.75 7.875,3.375"
           id="path69019"
           inkscape:connector-curvature="0" />
        <path
           style="fill:#4e514f;fill-opacity:0.98039216"
           d="M 9,3.5 Q 9.25,3.25 9.6875,3.1875 L 10.125,3.125 10.1875,3.0625 10.25,3 10.125,3.125 Q 10,3.25 10,3.5 L 10,3.75 10,3.375 10,3 10,3.5 Q 10,4 9.625,4.125 L 9.25,4.25 9.53125,4.15625 9.8125,4.0625 9.625,4.125 Q 9.4375,4.1875 9.3125,4.3125 L 9.1875,4.4375 9.25,4.375 9.3125,4.3125 9.03125,4.03125 8.75,3.75 9,3.5 M 8.9375,3.5625 8.75,3.75 8.6875,3.8125 8.625,3.875 8.75,3.75 Q 8.875,3.625 9,3.5 L 9.125,3.375 8.9375,3.5625"
           id="path69021"
           inkscape:connector-curvature="0" />
        <path
           style="fill:#b7c0c6;fill-opacity:1"
           d="M 10,3.5 Q 10,3 10.5,3 L 11,3 11,3.5 11,4 10.453125,3.953125 9.90625,3.90625 9.859375,3.984375 9.8125,4.0625 9.90625,3.90625 Q 10,3.75 10,3.5 L 10,3.25 10,3.625 10,4 10,3.5"
           id="path69023"
           inkscape:connector-curvature="0" />
        <path
           style="fill:#bbc5cd;fill-opacity:1"
           d="M 11,3.5 11,3 11.5,3 12,3 11.625,3 11.25,3 11.5,3 q 0.25,0 0.46875,0.03125 L 12.1875,3.0625 12.078125,3.046875 11.96875,3.03125 l 0,0.5 0,0.5 0.109375,0.015625 L 12.1875,4.0625 11.96875,4.03125 Q 11.75,4 11.5,4 L 11.25,4 11.625,4 12,4 11.5,4 11,4 11,3.5"
           id="path69025"
           inkscape:connector-curvature="0" />
        <path
           style="fill:#6f7677;fill-opacity:1"
           d="m 11.96875,3.53125 0,-0.5 L 11.859375,3.015625 11.75,3 11.96875,3.03125 Q 12.1875,3.0625 12.375,3.125 L 12.5625,3.1875 12.28125,3.09375 12,3 12.375,3.125 Q 12.75,3.25 13,3.5 L 13.25,3.75 12.984375,4.015625 12.71875,4.28125 12.796875,4.328125 12.875,4.375 12.71875,4.28125 Q 12.5625,4.1875 12.375,4.125 L 12.1875,4.0625 12.46875,4.15625 12.75,4.25 12.375,4.125 12,4 12.28125,4.09375 12.5625,4.1875 12.375,4.125 Q 12.1875,4.0625 11.96875,4.03125 L 11.75,4 l 0.109375,0.015625 0.109375,0.015625 0,-0.5 M 13.3125,3.8125 13.25,3.75 13.0625,3.5625 12.875,3.375 13,3.5 q 0.125,0.125 0.25,0.25 l 0.125,0.125 -0.0625,-0.0625"
           id="path69027"
           inkscape:connector-curvature="0" />
        <path
           style="fill:#020202;fill-opacity:0.64313725"
           d="M 13,3.5 12.75,3.25 12.9375,3.4375 13.125,3.625 13,3.5 Q 12.875,3.375 12.71875,3.28125 L 12.5625,3.1875 12.640625,3.234375 12.71875,3.28125 13.015625,2.984375 13.3125,2.6875 13.25,2.625 13.1875,2.5625 l 0.125,0.125 q 0.125,0.125 0.3125,0.1875 L 13.8125,2.9375 13.53125,2.84375 13.25,2.75 13.625,2.875 Q 14,3 14.125,3.375 L 14.25,3.75 14.15625,3.46875 14.0625,3.1875 14.125,3.375 q 0.0625,0.1875 0.1875,0.3125 l 0.125,0.125 L 14.375,3.75 14.3125,3.6875 14.015625,3.984375 13.71875,4.28125 13.765625,4.359375 13.8125,4.4375 13.71875,4.28125 Q 13.625,4.125 13.5,4 L 13.375,3.875 13.5625,4.0625 13.75,4.25 13.5,4 Q 13.25,3.75 13,3.5"
           id="path69029"
           inkscape:connector-curvature="0" />
        <path
           style="fill:#000000;fill-opacity:0.16470588"
           d="M 7,4.5 Q 7,4 7.375,3.875 L 7.75,3.75 7.46875,3.84375 7.1875,3.9375 7.375,3.875 Q 7.5625,3.8125 7.6875,3.6875 L 7.8125,3.5625 7.75,3.625 7.6875,3.6875 7.984375,3.984375 8.28125,4.28125 8.328125,4.203125 8.375,4.125 8.28125,4.28125 Q 8.1875,4.4375 8.125,4.625 L 8.0625,4.8125 8.15625,4.53125 8.25,4.25 8.1875,4.6875 8.125,5.125 7.5625,5.0625 7,5 7,4.5"
           id="path69031"
           inkscape:connector-curvature="0" />
        <path
           style="fill:#434643;fill-opacity:0.98039216"
           d="M 8.1875,4.6875 Q 8.25,4.25 8.5,4 L 8.75,3.75 9.03125,4.03125 9.3125,4.3125 9.375,4.25 9.4375,4.1875 9.3125,4.3125 Q 9.1875,4.4375 9.125,4.625 L 9.0625,4.8125 9.15625,4.53125 9.25,4.25 9.125,4.625 Q 9,5 8.5,5 L 8,5 8.375,5 8.75,5 8.5,5 Q 8.25,5 8.125,5.125 L 8,5.25 8.0625,5.1875 8.125,5.125 8.1875,4.6875 m 0.625,-1 L 8.75,3.75 8.5625,3.9375 8.375,4.125 8.5,4 Q 8.625,3.875 8.75,3.75 L 8.875,3.625 8.8125,3.6875"
           id="path69033"
           inkscape:connector-curvature="0" />
        <path
           style="fill:#eff8fd;fill-opacity:1"
           d="M 9.125,4.625 Q 9.25,4.25 9.625,4.125 L 10,4 9.71875,4.09375 9.4375,4.1875 9.625,4.125 Q 9.8125,4.0625 9.90625,3.90625 L 10,3.75 9.953125,3.828125 9.90625,3.90625 9.953125,4.453125 10,5 9.453125,4.953125 8.90625,4.90625 8.828125,4.953125 8.75,5 8.90625,4.90625 Q 9.0625,4.8125 9.125,4.625 L 9.1875,4.4375 9.09375,4.71875 9,5 9.125,4.625"
           id="path69035"
           inkscape:connector-curvature="0" />
        <path
           style="fill:#f9fcff;fill-opacity:1"
           d="M 9.953125,4.453125 9.90625,3.90625 10.453125,3.953125 11,4 11.5,4 12,4 12,4.5 12,5 11.5,5 Q 11,5 10.5,5 L 10,5 9.953125,4.453125"
           id="path69037"
           inkscape:connector-curvature="0" />
        <path
           style="fill:#edf7ff;fill-opacity:1"
           d="M 12,4.5 12,4 12.375,4.125 Q 12.75,4.25 13,4.5 L 13.25,4.75 13.0625,4.5625 12.875,4.375 13,4.5 q 0.125,0.125 0.28125,0.21875 L 13.4375,4.8125 13.359375,4.765625 13.28125,4.71875 12.984375,5.015625 12.6875,5.3125 12.75,5.375 12.8125,5.4375 12.6875,5.3125 Q 12.5625,5.1875 12.375,5.125 L 12.1875,5.0625 12.46875,5.15625 12.75,5.25 12.375,5.125 12,5 12,4.5"
           id="path69039"
           inkscape:connector-curvature="0" />
        <path
           style="fill:#646d6e;fill-opacity:0.99215686"
           d="M 13,4.5 12.75,4.25 12.9375,4.4375 13.125,4.625 13,4.5 Q 12.875,4.375 12.71875,4.28125 L 12.5625,4.1875 12.640625,4.234375 12.71875,4.28125 12.984375,4.015625 13.25,3.75 13.5,4 q 0.25,0.25 0.375,0.625 L 14,5 13.90625,4.71875 13.8125,4.4375 13.875,4.625 q 0.0625,0.1875 0.09375,0.40625 L 14,5.25 13.984375,5.140625 13.96875,5.03125 13.609375,4.890625 Q 13.25,4.75 13,4.5 M 13.4375,3.9375 13.25,3.75 13.1875,3.6875 13.125,3.625 13.25,3.75 Q 13.375,3.875 13.5,4 l 0.125,0.125 -0.1875,-0.1875"
           id="path69041"
           inkscape:connector-curvature="0" />
        <path
           style="fill:#000000;fill-opacity:0.4"
           d="M 13.875,4.625 13.75,4.25 13.84375,4.53125 13.9375,4.8125 13.875,4.625 Q 13.8125,4.4375 13.71875,4.28125 L 13.625,4.125 13.671875,4.203125 13.71875,4.28125 14.015625,3.984375 14.3125,3.6875 14.25,3.625 14.1875,3.5625 l 0.125,0.125 q 0.125,0.125 0.3125,0.1875 L 14.8125,3.9375 14.53125,3.84375 14.25,3.75 14.625,3.875 Q 15,4 15,4.5 L 15,5 14.5,5 14,5 13.875,4.625"
           id="path69043"
           inkscape:connector-curvature="0" />
        <path
           style="fill:#000000;fill-opacity:0.4627451"
           d="M 7,5.5 7,5 7.5625,5.0625 8.125,5.125 8.1875,5.0625 8.25,5 8.125,5.125 Q 8,5.25 8,5.5 L 8,5.75 8,5.375 8,5 8,5.5 8,6 7.5,6 7,6 7,5.5"
           id="path69045"
           inkscape:connector-curvature="0" />
        <path
           style="fill:#a6b0b6;fill-opacity:1"
           d="M 8,5.5 Q 8,5 8.5,5 L 9,5 8.625,5 8.25,5 8.5,5 Q 8.75,5 8.90625,4.90625 L 9.0625,4.8125 8.984375,4.859375 8.90625,4.90625 8.953125,5.453125 9,6 8.5,6 8,6 8,5.5"
           id="path69047"
           inkscape:connector-curvature="0" />
        <path
           style="fill:#f9fcff;fill-opacity:1"
           d="M 8.953125,5.453125 8.90625,4.90625 9.453125,4.953125 10,5 10,5.5 10,6 9.5,6 9,6 8.953125,5.453125"
           id="path69049"
           inkscape:connector-curvature="0" />
        <path
           style="fill:#ffffff;fill-opacity:1"
           d="M 10,5.5 10,5 10.5,5 q 0.5,0 1,0 L 12,5 12,5.5 12,6 11.875,6.375 Q 11.75,6.75 11.375,6.875 11,7 10.625,6.875 10.25,6.75 10.125,6.375 L 10,6 10,5.5"
           id="path69051"
           inkscape:connector-curvature="0" />
        <path
           style="fill:#f8fcff;fill-opacity:1"
           d="M 12,5.5 12,5 12.375,5.125 q 0.375,0.125 0.5,0.5 L 13,6 12.5,6 12,6 12,5.5"
           id="path69053"
           inkscape:connector-curvature="0" />
        <path
           style="fill:#c1d7df;fill-opacity:1"
           d="M 12.875,5.625 12.75,5.25 12.84375,5.53125 12.9375,5.8125 12.875,5.625 Q 12.8125,5.4375 12.6875,5.3125 L 12.5625,5.1875 12.625,5.25 12.6875,5.3125 12.984375,5.015625 13.28125,4.71875 13.203125,4.671875 13.125,4.625 13.28125,4.71875 Q 13.4375,4.8125 13.625,4.875 L 13.8125,4.9375 13.53125,4.84375 13.25,4.75 13.609375,4.890625 13.96875,5.03125 13.953125,4.921875 13.9375,4.8125 13.96875,5.03125 Q 14,5.25 14,5.5 L 14,5.75 14,5.375 14,5 14,5.5 14,6 13.5,6 13,6 12.875,5.625"
           id="path69055"
           inkscape:connector-curvature="0" />
        <path
           style="fill:#080805;fill-opacity:0.74117647"
           d="M 14,5.5 14,5 14.5,5 15,5 15,5.5 15,6 14.5,6 14,6 14,5.5"
           id="path69057"
           inkscape:connector-curvature="0" />
        <path
           style="fill:#000000;fill-opacity:0.44313725"
           d="M 7,6.5 7,6 7.5,6 8,6 8,6.5 8,7 8,6.625 8,6.25 8,6.5 Q 8,6.75 8.125,6.875 L 8.25,7 8.1875,6.9375 8.125,6.875 7.5625,6.9375 7,7 7,6.5"
           id="path69059"
           inkscape:connector-curvature="0" />
        <path
           style="fill:#9da9b1;fill-opacity:1"
           d="M 8,6.5 8,6 8.5,6 9,6 8.953125,6.546875 8.90625,7.09375 8.984375,7.140625 9.0625,7.1875 8.90625,7.09375 Q 8.75,7 8.5,7 L 8.25,7 8.625,7 9,7 8.5,7 Q 8,7 8,6.5"
           id="path69061"
           inkscape:connector-curvature="0" />
        <path
           style="fill:#f8fcff;fill-opacity:1"
           d="M 8.953125,6.546875 9,6 9.5,6 10,6 10.125,6.375 10.25,6.75 10.15625,6.46875 10.0625,6.1875 10.125,6.375 q 0.0625,0.1875 0.1875,0.3125 l 0.125,0.125 L 10.375,6.75 10.3125,6.6875 10,7 9.6875,7.3125 9.75,7.375 9.8125,7.4375 9.6875,7.3125 Q 9.5625,7.1875 9.375,7.125 L 9.1875,7.0625 9.46875,7.15625 9.75,7.25 9.328125,7.171875 8.90625,7.09375 8.953125,6.546875"
           id="path69063"
           inkscape:connector-curvature="0" />
        <path
           style="fill:#f7fcff;fill-opacity:1"
           d="M 11.875,6.375 12,6 12.5,6 13,6 12.875,6.375 Q 12.75,6.75 12.5,7 12.25,7.25 12.125,7.625 L 12,8 11.5,8 11,8 10.5,8 10,8 9.875,7.625 9.75,7.25 9.84375,7.53125 9.9375,7.8125 9.875,7.625 Q 9.8125,7.4375 9.6875,7.3125 L 9.5625,7.1875 9.625,7.25 9.6875,7.3125 10,7 10.3125,6.6875 10.25,6.625 10.1875,6.5625 l 0.125,0.125 q 0.125,0.125 0.3125,0.1875 L 10.8125,6.9375 10.53125,6.84375 10.25,6.75 10.625,6.875 q 0.375,0.125 0.75,0 0.375,-0.125 0.5,-0.5"
           id="path69065"
           inkscape:connector-curvature="0" />
        <path
           style="fill:#bbd1d9;fill-opacity:1"
           d="M 12.875,6.375 13,6 13.5,6 14,6 14,6.5 Q 14,7 13.625,7.125 L 13.25,7.25 13.53125,7.15625 13.8125,7.0625 13.625,7.125 Q 13.4375,7.1875 13.28125,7.28125 L 13.125,7.375 13.203125,7.328125 13.28125,7.28125 13,7 12.71875,6.71875 12.671875,6.796875 12.625,6.875 12.71875,6.71875 Q 12.8125,6.5625 12.875,6.375 L 12.9375,6.1875 12.84375,6.46875 12.75,6.75 12.875,6.375"
           id="path69067"
           inkscape:connector-curvature="0" />
        <path
           style="fill:#050805;fill-opacity:0.72941176"
           d="M 14,6.5 14,6 14.5,6 15,6 15,6.5 15,7 14.453125,6.953125 13.90625,6.90625 13.859375,6.984375 13.8125,7.0625 13.90625,6.90625 Q 14,6.75 14,6.5 L 14,6.25 14,6.625 14,7 14,6.5"
           id="path69069"
           inkscape:connector-curvature="0" />
        <path
           style="fill:#000000;fill-opacity:0.1254902"
           d="M 7,7.5 7,7 7.5625,6.9375 8.125,6.875 8.1875,7.3125 8.25,7.75 8.15625,7.46875 8.0625,7.1875 8.125,7.375 Q 8.1875,7.5625 8.28125,7.71875 L 8.375,7.875 8.328125,7.796875 8.28125,7.71875 7.984375,8.015625 7.6875,8.3125 7.75,8.375 7.8125,8.4375 7.6875,8.3125 Q 7.5625,8.1875 7.375,8.125 L 7.1875,8.0625 7.46875,8.15625 7.75,8.25 7.375,8.125 7,8 7,7.5"
           id="path69071"
           inkscape:connector-curvature="0" />
        <path
           style="fill:#3d3f3c;fill-opacity:0.96470588"
           d="M 8.1875,7.3125 8.125,6.875 8.0625,6.8125 8,6.75 8.125,6.875 Q 8.25,7 8.5,7 L 8.75,7 8.375,7 8,7 8.5,7 Q 9,7 9.125,7.375 L 9.25,7.75 9.15625,7.46875 9.0625,7.1875 9.125,7.375 Q 9.1875,7.5625 9.3125,7.6875 L 9.4375,7.8125 9.375,7.75 9.3125,7.6875 9.03125,7.96875 8.75,8.25 8.5,8 Q 8.25,7.75 8.1875,7.3125 m 0.375,0.75 L 8.75,8.25 8.8125,8.3125 8.875,8.375 8.75,8.25 Q 8.625,8.125 8.5,8 L 8.375,7.875 8.5625,8.0625"
           id="path69073"
           inkscape:connector-curvature="0" />
        <path
           style="fill:#e5f4fc;fill-opacity:1"
           d="M 9.125,7.375 9,7 9.09375,7.28125 9.1875,7.5625 9.125,7.375 Q 9.0625,7.1875 8.90625,7.09375 L 8.75,7 8.828125,7.046875 8.90625,7.09375 9.328125,7.171875 Q 9.75,7.25 9.875,7.625 L 10,8 9.625,7.875 Q 9.25,7.75 9.125,7.375"
           id="path69075"
           inkscape:connector-curvature="0" />
        <path
           style="fill:#e8f7ff;fill-opacity:1"
           d="M 12.125,7.625 Q 12.25,7.25 12.5,7 L 12.75,6.75 12.5625,6.9375 12.375,7.125 12.5,7 Q 12.625,6.875 12.71875,6.71875 L 12.8125,6.5625 12.765625,6.640625 12.71875,6.71875 13,7 13.28125,7.28125 13.359375,7.234375 13.4375,7.1875 13.28125,7.28125 Q 13.125,7.375 13,7.5 L 12.875,7.625 13.0625,7.4375 13.25,7.25 13,7.5 Q 12.75,7.75 12.375,7.875 L 12,8 12.125,7.625"
           id="path69077"
           inkscape:connector-curvature="0" />
        <path
           style="fill:#5a6463;fill-opacity:1"
           d="M 13,7.5 Q 13.25,7.25 13.625,7.125 L 14,7 13.71875,7.09375 13.4375,7.1875 13.625,7.125 Q 13.8125,7.0625 13.90625,6.90625 L 14,6.75 13.953125,6.828125 13.90625,6.90625 13.953125,7.453125 14,8 13.625,8.125 13.25,8.25 13.53125,8.15625 13.8125,8.0625 13.625,8.125 Q 13.4375,8.1875 13.34375,8.28125 L 13.25,8.375 13.296875,8.328125 13.34375,8.28125 13.03125,8 12.71875,7.71875 12.640625,7.765625 12.5625,7.8125 12.71875,7.71875 Q 12.875,7.625 13,7.5 L 13.125,7.375 12.9375,7.5625 12.75,7.75 13,7.5"
           id="path69079"
           inkscape:connector-curvature="0" />
        <path
           style="fill:#000000;fill-opacity:0.38431373"
           d="M 13.953125,7.453125 13.90625,6.90625 14.453125,6.953125 15,7 15,7.5 15,8 14.5,8 14,8 13.953125,7.453125"
           id="path69081"
           inkscape:connector-curvature="0" />
        <path
           style="fill:#000000;fill-opacity:0.06666667"
           d="M 6.875,8.375 7,8 7.375,8.125 q 0.375,0.125 0.5,0.5 L 8,9 7.625,9.125 7.25,9.25 7.53125,9.15625 7.8125,9.0625 7.625,9.125 Q 7.4375,9.1875 7.3125,9.3125 L 7.1875,9.4375 7.25,9.375 7.3125,9.3125 7,9 6.6875,8.6875 6.625,8.75 6.5625,8.8125 6.6875,8.6875 Q 6.8125,8.5625 6.875,8.375 L 6.9375,8.1875 6.84375,8.46875 6.75,8.75 6.875,8.375"
           id="path69083"
           inkscape:connector-curvature="0" />
        <path
           style="fill:#000000;fill-opacity:0.79215686"
           d="M 7.875,8.625 7.75,8.25 7.84375,8.53125 7.9375,8.8125 7.875,8.625 Q 7.8125,8.4375 7.6875,8.3125 L 7.5625,8.1875 7.625,8.25 7.6875,8.3125 7.984375,8.015625 8.28125,7.71875 8.234375,7.640625 8.1875,7.5625 8.28125,7.71875 Q 8.375,7.875 8.5,8 L 8.625,8.125 8.4375,7.9375 8.25,7.75 8.5,8 Q 8.75,8.25 9,8.5 L 9.25,8.75 9.0625,8.5625 8.875,8.375 9,8.5 Q 9.125,8.625 9.28125,8.71875 L 9.4375,8.8125 9.359375,8.765625 9.28125,8.71875 8.984375,9.015625 8.6875,9.3125 8.75,9.375 8.8125,9.4375 8.6875,9.3125 Q 8.5625,9.1875 8.375,9.125 L 8.1875,9.0625 8.46875,9.15625 8.75,9.25 8.375,9.125 8,9 7.875,8.625"
           id="path69085"
           inkscape:connector-curvature="0" />
        <path
           style="fill:#3e423f;fill-opacity:0.99215686"
           d="M 9,8.5 8.75,8.25 9.03125,7.96875 9.3125,7.6875 9.25,7.625 9.1875,7.5625 9.3125,7.6875 Q 9.4375,7.8125 9.625,7.875 L 9.8125,7.9375 9.53125,7.84375 9.25,7.75 9.625,7.875 10,8 9.71875,7.90625 9.4375,7.8125 9.625,7.875 q 0.1875,0.0625 0.40625,0.09375 L 10.25,8 10.140625,7.984375 10.03125,7.96875 l 0,0.5 0,0.5 0.109375,0.015625 L 10.25,9 10.03125,8.96875 Q 9.8125,8.9375 9.625,8.875 L 9.4375,8.8125 9.71875,8.90625 10,9 9.625,8.875 Q 9.25,8.75 9,8.5 M 8.6875,8.1875 8.75,8.25 8.9375,8.4375 9.125,8.625 9,8.5 Q 8.875,8.375 8.75,8.25 L 8.625,8.125 8.6875,8.1875"
           id="path69087"
           inkscape:connector-curvature="0" />
        <path
           style="fill:#90a3aa;fill-opacity:1"
           d="m 10.03125,8.46875 0,-0.5 L 9.921875,7.953125 9.8125,7.9375 10.03125,7.96875 Q 10.25,8 10.5,8 L 10.75,8 10.375,8 10,8 10.5,8 11,8 11,8.5 11,9 10.5,9 10,9 10.375,9 10.75,9 10.5,9 Q 10.25,9 10.03125,8.96875 L 9.8125,8.9375 9.921875,8.953125 10.03125,8.96875 l 0,-0.5"
           id="path69089"
           inkscape:connector-curvature="0" />
        <path
           style="fill:#96aab1;fill-opacity:1"
           d="M 11,8.5 11,8 11.5,8 12,8 11.625,8 11.25,8 11.5,8 q 0.25,0 0.46875,-0.03125 L 12.1875,7.9375 12.078125,7.953125 11.96875,7.96875 l 0,0.53125 0,0.53125 0.109375,0.015625 L 12.1875,9.0625 11.96875,9.03125 Q 11.75,9 11.5,9 L 11.25,9 11.625,9 12,9 11.5,9 11,9 11,8.5"
           id="path69091"
           inkscape:connector-curvature="0" />
        <path
           style="fill:#606d71;fill-opacity:1"
           d="m 11.96875,8.5 0,-0.53125 L 11.859375,7.984375 11.75,8 11.96875,7.96875 Q 12.1875,7.9375 12.375,7.875 L 12.5625,7.8125 12.28125,7.90625 12,8 12.375,7.875 12.75,7.75 12.46875,7.84375 12.1875,7.9375 12.375,7.875 Q 12.5625,7.8125 12.71875,7.71875 L 12.875,7.625 12.796875,7.671875 12.71875,7.71875 13.03125,8 13.34375,8.28125 13.390625,8.234375 13.4375,8.1875 13.34375,8.28125 Q 13.25,8.375 13.25,8.5 l 0,0.125 0,-0.1875 0,-0.1875 0,0.25 0,0.25 0,-0.1875 0,-0.1875 0,0.125 q 0,0.125 0.0625,0.25 L 13.375,8.875 13.34375,8.8125 13.3125,8.75 13,9.03125 12.6875,9.3125 12.75,9.375 12.8125,9.4375 12.6875,9.3125 Q 12.5625,9.1875 12.375,9.125 L 12.1875,9.0625 12.46875,9.15625 12.75,9.25 12.375,9.125 12,9 12.28125,9.09375 12.5625,9.1875 12.375,9.125 Q 12.1875,9.0625 11.96875,9.03125 L 11.75,9 l 0.109375,0.015625 0.109375,0.015625 0,-0.53125"
           id="path69093"
           inkscape:connector-curvature="0" />
        <path
           style="fill:#2f3535;fill-opacity:0.99607843"
           d="m 13.25,8.5 q 0,-0.25 0.375,-0.375 L 14,8 14.125,8.375 14.25,8.75 14.15625,8.46875 14.0625,8.1875 14.125,8.375 q 0.0625,0.1875 0.15625,0.34375 L 14.375,8.875 14.328125,8.796875 14.28125,8.71875 13.984375,8.984375 13.6875,9.25 13.71875,9.3125 13.75,9.375 13.6875,9.25 Q 13.625,9.125 13.5,9 L 13.375,8.875 13.5625,9.0625 13.75,9.25 13.5,9 Q 13.25,8.75 13.25,8.5"
           id="path69095"
           inkscape:connector-curvature="0" />
        <path
           style="fill:#000000;fill-opacity:0.43529412"
           d="M 14.125,8.375 14,8 14.5,8 15,8 15.125,8.375 15.25,8.75 15.15625,8.46875 15.0625,8.1875 15.125,8.375 q 0.0625,0.1875 0.1875,0.3125 l 0.125,0.125 L 15.375,8.75 15.3125,8.6875 15.03125,8.96875 14.75,9.25 14.5,9 Q 14.25,8.75 14.125,8.375 M 14.5625,9.0625 14.75,9.25 14.8125,9.3125 14.875,9.375 14.75,9.25 Q 14.625,9.125 14.5,9 l -0.125,-0.125 0.1875,0.1875"
           id="path69097"
           inkscape:connector-curvature="0" />
        <path
           style="fill:#000000;fill-opacity:0.31764706"
           d="M 6,9.5 Q 6,9 6.375,8.875 L 6.75,8.75 6.46875,8.84375 6.1875,8.9375 6.375,8.875 Q 6.5625,8.8125 6.6875,8.6875 L 6.8125,8.5625 6.75,8.625 6.6875,8.6875 7,9 7.3125,9.3125 7.375,9.25 7.4375,9.1875 7.3125,9.3125 Q 7.1875,9.4375 7.125,9.625 L 7.0625,9.8125 7.15625,9.53125 7.25,9.25 7.171875,9.671875 7.09375,10.09375 6.546875,10.046875 6,10 6,9.5"
           id="path69099"
           inkscape:connector-curvature="0" />
        <path
           style="fill:#363835;fill-opacity:0.91764706"
           d="M 7.171875,9.671875 Q 7.25,9.25 7.625,9.125 L 8,9 7.71875,9.09375 7.4375,9.1875 7.625,9.125 Q 7.8125,9.0625 8,9.0625 l 0.1875,0 -0.09375,0 L 8,9.0625 7.875,9.40625 Q 7.75,9.75 7.375,9.875 L 7,10 7.28125,9.90625 7.5625,9.8125 7.375,9.875 Q 7.1875,9.9375 7.09375,10.09375 L 7,10.25 7.046875,10.171875 7.09375,10.09375 7.171875,9.671875"
           id="path69101"
           inkscape:connector-curvature="0" />
        <path
           style="fill:#859396;fill-opacity:1"
           d="M 7.875,9.40625 8,9.0625 l -0.09375,0 -0.09375,0 0.1875,0 q 0.1875,0 0.375,0.0625 L 8.5625,9.1875 8.28125,9.09375 8,9 8.375,9.125 q 0.375,0.125 0.5,0.5 L 9,10 8.90625,9.71875 8.8125,9.4375 8.875,9.625 Q 8.9375,9.8125 8.9375,10 l 0,0.1875 0,-0.09375 L 8.9375,10 8.59375,10.125 8.25,10.25 8.53125,10.15625 8.8125,10.0625 8.625,10.125 Q 8.4375,10.1875 8.3125,10.3125 L 8.1875,10.4375 8.25,10.375 8.3125,10.3125 8,10 7.6875,9.6875 7.625,9.75 7.5625,9.8125 7.6875,9.6875 Q 7.8125,9.5625 7.875,9.375 L 7.9375,9.1875 7.84375,9.46875 7.75,9.75 7.875,9.40625"
           id="path69103"
           inkscape:connector-curvature="0" />
        <path
           style="fill:#030503;fill-opacity:0.79215686"
           d="M 8.875,9.625 8.75,9.25 8.84375,9.53125 8.9375,9.8125 8.875,9.625 Q 8.8125,9.4375 8.6875,9.3125 L 8.5625,9.1875 8.625,9.25 8.6875,9.3125 8.984375,9.015625 9.28125,8.71875 9.203125,8.671875 9.125,8.625 9.28125,8.71875 Q 9.4375,8.8125 9.625,8.875 L 9.8125,8.9375 9.53125,8.84375 9.25,8.75 9.625,8.875 10,9 l 0,0.5 0,0.5 -0.53125,0 -0.53125,0 0,0.09375 0,0.09375 0,-0.1875 q 0,-0.1875 -0.0625,-0.375 L 8.8125,9.4375 8.90625,9.71875 9,10 8.875,9.625"
           id="path69105"
           inkscape:connector-curvature="0" />
        <path
           style="fill:#000000;fill-opacity:0.54509804"
           d="M 10,9.5 10,9 10.5,9 11,9 11,9.5 11,10 10.5,10 10,10 10,9.5"
           id="path69107"
           inkscape:connector-curvature="0" />
        <path
           style="fill:#000000;fill-opacity:0.58431373"
           d="M 11,9.5 11,9 11.5,9 12,9 11.625,9 11.25,9 11.5,9 q 0.25,0 0.46875,0.03125 L 12.1875,9.0625 12.078125,9.046875 11.96875,9.03125 11.984375,9.515625 12,10 11.5,10 11,10 11,9.5"
           id="path69109"
           inkscape:connector-curvature="0" />
        <path
           style="fill:#000000;fill-opacity:0.65490196"
           d="M 11.984375,9.515625 11.96875,9.03125 11.859375,9.015625 11.75,9 11.96875,9.03125 Q 12.1875,9.0625 12.375,9.125 L 12.5625,9.1875 12.28125,9.09375 12,9 12.375,9.125 q 0.375,0.125 0.5,0.5 L 13,10 12.5,10 12,10 11.984375,9.515625"
           id="path69111"
           inkscape:connector-curvature="0" />
        <path
           style="fill:#6a7678;fill-opacity:1"
           d="M 12.875,9.625 12.75,9.25 12.84375,9.53125 12.9375,9.8125 12.875,9.625 Q 12.8125,9.4375 12.6875,9.3125 L 12.5625,9.1875 12.625,9.25 12.6875,9.3125 13,9.03125 13.3125,8.75 13.28125,8.6875 13.25,8.625 13.3125,8.75 Q 13.375,8.875 13.5,9 L 13.625,9.125 13.4375,8.9375 13.25,8.75 13.5,9 q 0.25,0.25 0.25,0.5 0,0.25 -0.375,0.375 L 13,10 12.875,9.625 M 12.90625,9.71875 13,10 13.03125,10.09375 13.0625,10.1875 13,10 Q 12.9375,9.8125 12.875,9.625 l -0.0625,-0.1875 0.09375,0.28125"
           id="path69113"
           inkscape:connector-curvature="0" />
        <path
           style="fill:#454b48;fill-opacity:0.98431373"
           d="m 13.75,9.5 0,-0.25 0,0.1875 0,0.1875 0,-0.125 q 0,-0.125 -0.0625,-0.25 L 13.625,9.125 13.65625,9.1875 13.6875,9.25 13.984375,8.984375 14.28125,8.71875 14.234375,8.640625 14.1875,8.5625 14.28125,8.71875 Q 14.375,8.875 14.5,9 L 14.625,9.125 14.4375,8.9375 14.25,8.75 14.5,9 q 0.25,0.25 0.5,0.5 l 0.25,0.25 -0.265625,0.296875 -0.265625,0.296875 0.04687,0.04687 0.04687,0.04687 -0.09375,-0.09375 Q 14.625,10.25 14.5,10.25 l -0.125,0 0.1875,0 0.1875,0 -0.25,0 -0.25,0 0.1875,0 0.1875,0 -0.125,0 q -0.125,0 -0.21875,0.09375 l -0.09375,0.09375 0.04687,-0.04687 0.04687,-0.04687 -0.3125,-0.3125 -0.3125,-0.3125 L 13.60937,9.765635 13.5625,9.8125 13.65625,9.71875 Q 13.75,9.625 13.75,9.5 l 0,-0.125 0,0.1875 0,0.1875 0,-0.25 M 15.3125,9.8125 15.25,9.75 15.0625,9.5625 14.875,9.375 15,9.5 q 0.125,0.125 0.25,0.25 l 0.125,0.125 -0.0625,-0.0625"
           id="path69115"
           inkscape:connector-curvature="0" />
        <path
           style="fill:#0b0b08;fill-opacity:0.6627451"
           d="M 15,9.5 14.75,9.25 15.03125,8.96875 15.3125,8.6875 15.25,8.625 15.1875,8.5625 l 0.125,0.125 q 0.125,0.125 0.3125,0.1875 L 15.8125,8.9375 15.53125,8.84375 15.25,8.75 15.625,8.875 16,9 16.125,9.375 16.25,9.75 16.15625,9.46875 16.0625,9.1875 16.125,9.375 q 0.0625,0.1875 0.1875,0.3125 l 0.125,0.125 L 16.375,9.75 16.3125,9.6875 16.015625,9.984375 15.71875,10.28125 l 0.04687,0.07813 0.04687,0.07813 -0.09375,-0.15625 Q 15.625,10.125 15.5,10 L 15.375,9.875 15.5625,10.0625 15.75,10.25 15.5,10 Q 15.25,9.75 15,9.5 M 14.6875,9.1875 14.75,9.25 14.9375,9.4375 15.125,9.625 15,9.5 Q 14.875,9.375 14.75,9.25 l -0.125,-0.125 0.0625,0.0625"
           id="path69117"
           inkscape:connector-curvature="0" />
        <path
           style="fill:#000000;fill-opacity:0.00392157"
           d="M 16.125,9.375 16,9 16.5,9 Q 17,9 17,9.5 L 17,10 16.625,9.875 q -0.375,-0.125 -0.5,-0.5"
           id="path69119"
           inkscape:connector-curvature="0" />
        <path
           style="fill:#000000;fill-opacity:0.69019608"
           d="M 6,10.5 6,10 6.546875,10.046875 7.09375,10.09375 7.140625,10.015625 7.1875,9.9375 7.09375,10.09375 Q 7,10.25 7,10.5 L 7,10.75 7,10.375 7,10 7,10.5 7,11 6.5,11 6,11 6,10.5"
           id="path69121"
           inkscape:connector-curvature="0" />
        <path
           style="fill:#95a4ab;fill-opacity:1"
           d="M 7,10.5 Q 7,10 7.375,9.875 L 7.75,9.75 7.46875,9.84375 7.1875,9.9375 7.375,9.875 Q 7.5625,9.8125 7.6875,9.6875 L 7.8125,9.5625 7.75,9.625 7.6875,9.6875 8,10 8.3125,10.3125 8.375,10.25 8.4375,10.1875 8.3125,10.3125 Q 8.1875,10.4375 8.125,10.625 L 8.0625,10.8125 8.15625,10.53125 8.25,10.25 8.125,10.625 8,11 7.5,11 7,11 7,10.5"
           id="path69123"
           inkscape:connector-curvature="0" />
        <path
           style="fill:#c3dde6;fill-opacity:1"
           d="M 8.125,10.625 Q 8.25,10.25 8.59375,10.125 L 8.9375,10 l 0,-0.09375 0,-0.09375 0,0.1875 q 0,0.1875 -0.0625,0.375 L 8.8125,10.5625 8.90625,10.28125 9,10 8.875,10.375 q -0.125,0.375 -0.5,0.5 L 8,11 8.125,10.625 M 8.09375,10.71875 8,11 7.96875,11.09375 7.9375,11.1875 8,11 q 0.0625,-0.1875 0.125,-0.375 l 0.0625,-0.1875 -0.09375,0.28125"
           id="path69125"
           inkscape:connector-curvature="0" />
        <path
           style="fill:#020302;fill-opacity:0.64705882"
           d="M 8.875,10.375 9,10 8.90625,10.28125 8.8125,10.5625 8.875,10.375 Q 8.9375,10.1875 8.9375,10 l 0,-0.1875 0,0.09375 0,0.09375 0.53125,0 L 10,10 10,10.5 10,11 9.625,11.125 9.25,11.25 9.53125,11.15625 9.8125,11.0625 9.625,11.125 Q 9.4375,11.1875 9.3125,11.3125 L 9.1875,11.4375 9.25,11.375 9.3125,11.3125 9,11 8.6875,10.6875 8.625,10.75 8.5625,10.8125 8.6875,10.6875 Q 8.8125,10.5625 8.875,10.375 L 8.9375,10.1875 8.84375,10.46875 8.75,10.75 8.875,10.375"
           id="path69127"
           inkscape:connector-curvature="0" />
        <path
           style="fill:#000000;fill-opacity:0"
           d="m 10,10.5 0,-0.5 0.5,0 0.5,0 0.5,0 0.5,0 0,0.5 0,0.5 0,0.5 q 0,0.5 0.5,0.5 l 0.5,0 0.375,0.125 q 0.375,0.125 0.5,0.5 L 14,13 14,13.5 14,14 13.5,14 13,14 12.625,13.875 Q 12.25,13.75 12.125,13.375 12,13 11.5,13 l -0.5,0 -0.5,0 q -0.5,0 -0.625,0.375 -0.125,0.375 -0.5,0.5 L 9,14 9,13.5 9,13 9,12.5 9,12 9.5,12 Q 10,12 10,11.5 l 0,-0.5 0,-0.5"
           id="path69129"
           inkscape:connector-curvature="0" />
        <path
           style="fill:#000000;fill-opacity:0.07058824"
           d="m 12,10.5 0,-0.5 0.5,0 0.5,0 0.125,0.375 0.125,0.375 -0.09375,-0.28125 -0.09375,-0.28125 0.0625,0.1875 q 0.0625,0.1875 0.1875,0.3125 l 0.125,0.125 L 13.375,10.75 13.3125,10.6875 13,11 l -0.3125,0.3125 0.0625,0.0625 0.0625,0.0625 -0.125,-0.125 Q 12.5625,11.1875 12.375,11.125 L 12.1875,11.0625 12.46875,11.15625 12.75,11.25 12.375,11.125 12,11 12,10.5"
           id="path69131"
           inkscape:connector-curvature="0" />
        <path
           style="fill:#383c3a;fill-opacity:0.98039216"
           d="M 13.125,10.375 13,10 13.375,9.875 13.75,9.75 13.46875,9.84375 13.1875,9.9375 13.375,9.875 Q 13.5625,9.8125 13.65625,9.71875 L 13.75,9.625 13.70313,9.671875 13.65626,9.71875 l 0.3125,0.3125 0.3125,0.3125 0.04687,-0.04687 L 14.375,10.25 14.28125,10.34375 Q 14.1875,10.4375 14.125,10.625 L 14.0625,10.8125 14.15625,10.53125 14.25,10.25 14.125,10.625 14,11 l 0,-0.375 0,-0.375 0,0.25 q 0,0.25 0.125,0.375 L 14.25,11 14.1875,10.9375 14.125,10.875 13.6875,10.8125 Q 13.25,10.75 13.125,10.375 M 12.96875,9.90625 13,10 13.09375,10.28125 13.1875,10.5625 13.125,10.375 Q 13.0625,10.1875 13,10 l -0.0625,-0.1875 0.03125,0.09375"
           id="path69133"
           inkscape:connector-curvature="0" />
        <path
           style="fill:#ddf3ff;fill-opacity:1"
           d="M 14.125,10.625 Q 14.25,10.25 14.5,10.25 q 0.25,0 0.375,0.375 Q 15,11 14.5,11 14,11 14.125,10.625"
           id="path69135"
           inkscape:connector-curvature="0" />
        <path
           style="fill:#3c4643;fill-opacity:0.98431373"
           d="M 14.875,10.625 14.75,10.25 14.84375,10.53125 14.9375,10.8125 14.875,10.625 Q 14.8125,10.4375 14.71875,10.34375 L 14.625,10.25 l 0.04687,0.04687 0.04687,0.04687 0.265625,-0.296875 L 15.25,9.75 15.5,10 q 0.25,0.25 0.375,0.625 L 16,11 15.4375,10.9375 14.875,10.875 14.8125,10.9375 14.75,11 14.875,10.875 Q 15,10.75 15,10.5 l 0,-0.25 0,0.375 L 15,11 14.875,10.625 M 15.4375,9.9375 15.25,9.75 15.1875,9.6875 15.125,9.625 15.25,9.75 Q 15.375,9.875 15.5,10 l 0.125,0.125 -0.1875,-0.1875"
           id="path69137"
           inkscape:connector-curvature="0" />
        <path
           style="fill:#000000;fill-opacity:0.11372549"
           d="M 15.875,10.625 15.75,10.25 15.84375,10.53125 15.9375,10.8125 15.875,10.625 Q 15.8125,10.4375 15.71875,10.28125 L 15.625,10.125 15.67187,10.20313 15.71874,10.28126 16.015625,9.984375 16.3125,9.6875 16.25,9.625 16.1875,9.5625 l 0.125,0.125 q 0.125,0.125 0.3125,0.1875 L 16.8125,9.9375 16.53125,9.84375 16.25,9.75 16.625,9.875 17,10 l 0,0.5 0,0.5 -0.5,0 -0.5,0 -0.125,-0.375"
           id="path69139"
           inkscape:connector-curvature="0" />
        <path
           style="fill:#000000;fill-opacity:0.03529412"
           d="M 3.875,11.375 Q 4,11 4.5,11 L 5,11 5,11.5 5,12 4.625,12.125 4.25,12.25 4.53125,12.15625 4.8125,12.0625 4.625,12.125 Q 4.4375,12.1875 4.3125,12.3125 L 4.1875,12.4375 4.25,12.375 4.3125,12.3125 4,12 3.6875,11.6875 3.625,11.75 3.5625,11.8125 3.6875,11.6875 Q 3.8125,11.5625 3.875,11.375 L 3.9375,11.1875 3.84375,11.46875 3.75,11.75 3.875,11.375"
           id="path69141"
           inkscape:connector-curvature="0" />
        <path
           style="fill:#000000;fill-opacity:0.10980392"
           d="M 5,11.5 5,11 5.5,11 6,11 5.875,11.375 q -0.125,0.375 -0.5,0.5 L 5,12 5,11.5"
           id="path69143"
           inkscape:connector-curvature="0" />
        <path
           style="fill:#21251d;fill-opacity:0.88235294"
           d="M 5.875,11.375 6,11 6.5,11 7,11 6.875,11.375 Q 6.75,11.75 6.5,12 L 6.25,12.25 6.4375,12.0625 6.625,11.875 6.5,12 Q 6.375,12.125 6.28125,12.28125 L 6.1875,12.4375 6.234375,12.359375 6.28125,12.28125 5.984375,11.984375 5.6875,11.6875 5.625,11.75 5.5625,11.8125 5.6875,11.6875 Q 5.8125,11.5625 5.875,11.375 L 5.9375,11.1875 5.84375,11.46875 5.75,11.75 5.875,11.375"
           id="path69145"
           inkscape:connector-curvature="0" />
        <path
           style="fill:#6f7d82;fill-opacity:1"
           d="M 6.875,11.375 7,11 7.5,11 8,11 7.875,11.375 Q 7.75,11.75 7.5,12 L 7.25,12.25 7.4375,12.0625 7.625,11.875 7.5,12 Q 7.375,12.125 7.28125,12.28125 L 7.1875,12.4375 7.234375,12.359375 7.28125,12.28125 7,12 6.71875,11.71875 6.671875,11.796875 6.625,11.875 6.71875,11.71875 Q 6.8125,11.5625 6.875,11.375 L 6.9375,11.1875 6.84375,11.46875 6.75,11.75 6.875,11.375"
           id="path69147"
           inkscape:connector-curvature="0" />
        <path
           style="fill:#282e26;fill-opacity:0.93333333"
           d="M 7.875,11.375 8,11 8.375,10.875 8.75,10.75 8.46875,10.84375 8.1875,10.9375 8.375,10.875 Q 8.5625,10.8125 8.6875,10.6875 L 8.8125,10.5625 8.75,10.625 8.6875,10.6875 9,11 9.3125,11.3125 9.375,11.25 9.4375,11.1875 9.3125,11.3125 Q 9.1875,11.4375 9.125,11.625 L 9.0625,11.8125 9.15625,11.53125 9.25,11.25 9.125,11.625 9,12 8.625,12.125 8.25,12.25 8.53125,12.15625 8.8125,12.0625 8.625,12.125 Q 8.4375,12.1875 8.3125,12.3125 L 8.1875,12.4375 8.25,12.375 8.3125,12.3125 8.015625,12.015625 7.71875,11.71875 7.671875,11.796875 7.625,11.875 7.71875,11.71875 Q 7.8125,11.5625 7.875,11.375 L 7.9375,11.1875 7.84375,11.46875 7.75,11.75 7.875,11.375 M 8.03125,10.90625 8,11 7.90625,11.28125 7.8125,11.5625 7.875,11.375 Q 7.9375,11.1875 8,11 l 0.0625,-0.1875 -0.03125,0.09375"
           id="path69149"
           inkscape:connector-curvature="0" />
        <path
           style="fill:#000000;fill-opacity:0.31764706"
           d="m 9.125,11.625 q 0.125,-0.375 0.5,-0.5 L 10,11 10,11.5 Q 10,12 9.5,12 L 9,12 9.125,11.625"
           id="path69151"
           inkscape:connector-curvature="0" />
        <path
           style="fill:#000000;fill-opacity:0.04313725"
           d="m 12,11.5 0,-0.5 0.375,0.125 q 0.375,0.125 0.5,0.5 L 13,12 12.5,12 Q 12,12 12,11.5"
           id="path69153"
           inkscape:connector-curvature="0" />
        <path
           style="fill:#151511;fill-opacity:0.74509804"
           d="M 12.875,11.625 12.75,11.25 12.84375,11.53125 12.9375,11.8125 12.875,11.625 q -0.0625,-0.1875 -0.1875,-0.3125 l -0.125,-0.125 0.0625,0.0625 0.0625,0.0625 L 13,11 13.3125,10.6875 13.25,10.625 l -0.0625,-0.0625 0.125,0.125 q 0.125,0.125 0.3125,0.1875 L 13.8125,10.9375 13.53125,10.84375 13.25,10.75 13.6875,10.8125 14.125,10.875 14.1875,11.3125 14.25,11.75 14.15625,11.46875 14.0625,11.1875 14.125,11.375 q 0.0625,0.1875 0.1875,0.3125 l 0.125,0.125 L 14.375,11.75 14.3125,11.6875 14,12 l -0.3125,0.3125 0.0625,0.0625 0.0625,0.0625 -0.125,-0.125 Q 13.5625,12.1875 13.375,12.125 L 13.1875,12.0625 13.46875,12.15625 13.75,12.25 13.375,12.125 13,12 12.875,11.625"
           id="path69155"
           inkscape:connector-curvature="0" />
        <path
           style="fill:#6c7a78;fill-opacity:1"
           d="M 14.1875,11.3125 14.125,10.875 14.0625,10.8125 14,10.75 14.125,10.875 Q 14.25,11 14.5,11 l 0.25,0 -0.375,0 -0.375,0 0.5,0 0.5,0 -0.375,0 -0.375,0 0.25,0 q 0.25,0 0.375,-0.125 L 15,10.75 14.9375,10.8125 14.875,10.875 14.9375,11.4375 15,12 14.625,11.875 Q 14.25,11.75 14.1875,11.3125"
           id="path69157"
           inkscape:connector-curvature="0" />
        <path
           style="fill:#434d49;fill-opacity:0.98039216"
           d="M 14.9375,11.4375 14.875,10.875 15.4375,10.9375 16,11 15.875,11.375 q -0.125,0.375 -0.5,0.5 L 15,12 14.9375,11.4375"
           id="path69159"
           inkscape:connector-curvature="0" />
        <path
           style="fill:#000000;fill-opacity:0.21176471"
           d="M 15.875,11.375 16,11 l 0.5,0 0.5,0 -0.125,0.375 Q 16.75,11.75 16.5,12 L 16.25,12.25 16.4375,12.0625 16.625,11.875 16.5,12 q -0.125,0.125 -0.21875,0.28125 L 16.1875,12.4375 16.23437,12.35937 16.28124,12.28124 15.984375,11.984375 15.6875,11.6875 15.625,11.75 l -0.0625,0.0625 0.125,-0.125 q 0.125,-0.125 0.1875,-0.3125 L 15.9375,11.1875 15.84375,11.46875 15.75,11.75 15.875,11.375"
           id="path69161"
           inkscape:connector-curvature="0" />
        <path
           style="fill:#000000;fill-opacity:0.06666667"
           d="M 16.875,11.375 17,11 l 0.5,0 q 0.5,0 0.625,0.375 L 18.25,11.75 18.15625,11.46875 18.0625,11.1875 18.125,11.375 q 0.0625,0.1875 0.1875,0.3125 l 0.125,0.125 -0.0625,-0.0625 -0.0625,-0.0625 -0.296875,0.328125 -0.296875,0.328125 0.04687,0.04687 0.04687,0.04687 -0.09375,-0.09375 Q 17.625,12.25 17.5,12.25 l -0.125,0 0.1875,0 0.1875,0 -0.25,0 -0.25,0 0.1875,0 0.1875,0 -0.125,0 q -0.125,0 -0.21875,0.09375 L 17.1875,12.4375 17.23437,12.39063 17.28124,12.34376 17,12.03125 16.71875,11.71875 16.671875,11.796875 16.625,11.875 16.71875,11.71875 Q 16.8125,11.5625 16.875,11.375 L 16.9375,11.1875 16.84375,11.46875 16.75,11.75 16.875,11.375"
           id="path69163"
           inkscape:connector-curvature="0" />
        <path
           style="fill:#000000;fill-opacity:0.07843137"
           d="M 2,12.5 Q 2,12 2.5,12 L 3,12 2.875,12.375 q -0.125,0.375 -0.5,0.5 L 2,13 2,12.5"
           id="path69165"
           inkscape:connector-curvature="0" />
        <path
           style="fill:#010001;fill-opacity:0.67843137"
           d="M 2.875,12.375 3,12 3.375,11.875 3.75,11.75 3.46875,11.84375 3.1875,11.9375 3.375,11.875 Q 3.5625,11.8125 3.6875,11.6875 L 3.8125,11.5625 3.75,11.625 3.6875,11.6875 4,12 4.3125,12.3125 4.375,12.25 4.4375,12.1875 4.3125,12.3125 Q 4.1875,12.4375 4.125,12.625 L 4.0625,12.8125 4.15625,12.53125 4.25,12.25 4.140625,12.640625 4.03125,13.03125 4.140625,13.015625 4.25,13 4.03125,13.03125 Q 3.8125,13.0625 3.625,13.125 L 3.4375,13.1875 3.71875,13.09375 4,13 3.625,13.125 3.25,13.25 3.53125,13.15625 3.8125,13.0625 3.625,13.125 Q 3.4375,13.1875 3.3125,13.3125 L 3.1875,13.4375 3.25,13.375 3.3125,13.3125 3,13 2.6875,12.6875 2.625,12.75 2.5625,12.8125 2.6875,12.6875 Q 2.8125,12.5625 2.875,12.375 L 2.9375,12.1875 2.84375,12.46875 2.75,12.75 2.875,12.375"
           id="path69167"
           inkscape:connector-curvature="0" />
        <path
           style="fill:#31332f;fill-opacity:0.93333333"
           d="M 4.140625,12.640625 Q 4.25,12.25 4.625,12.125 L 5,12 5,12.5 5,13 4.5,13 4,13 4.375,13 4.75,13 4.5,13 Q 4.25,13 4.03125,13.03125 L 3.8125,13.0625 3.921875,13.046875 4.03125,13.03125 4.140625,12.640625"
           id="path69169"
           inkscape:connector-curvature="0" />
        <path
           style="fill:#303330;fill-opacity:0.96470588"
           d="M 5,12.5 5,12 5.375,11.875 5.75,11.75 5.46875,11.84375 5.1875,11.9375 5.375,11.875 Q 5.5625,11.8125 5.6875,11.6875 L 5.8125,11.5625 5.75,11.625 5.6875,11.6875 5.984375,11.984375 6.28125,12.28125 6.328125,12.203125 6.375,12.125 6.28125,12.28125 Q 6.1875,12.4375 6.125,12.625 L 6.0625,12.8125 6.15625,12.53125 6.25,12.25 6.125,12.625 6,13 5.5,13 5,13 5,12.5"
           id="path69171"
           inkscape:connector-curvature="0" />
        <path
           style="fill:#4b5356;fill-opacity:1"
           d="M 6.125,12.625 Q 6.25,12.25 6.5,12 L 6.75,11.75 6.5625,11.9375 6.375,12.125 6.5,12 Q 6.625,11.875 6.71875,11.71875 L 6.8125,11.5625 6.765625,11.640625 6.71875,11.71875 7,12 7.28125,12.28125 7.328125,12.203125 7.375,12.125 7.28125,12.28125 Q 7.1875,12.4375 7.125,12.625 L 7.0625,12.8125 7.15625,12.53125 7.25,12.25 7.0625,12.6875 6.875,13.125 6.9375,13.1875 7,13.25 6.875,13.125 Q 6.75,13 6.5,13 L 6.25,13 6.625,13 7,13 6.5,13 6,13 6.125,12.625"
           id="path69173"
           inkscape:connector-curvature="0" />
        <path
           style="fill:#21231b;fill-opacity:0.90196078"
           d="M 7.0625,12.6875 Q 7.25,12.25 7.5,12 L 7.75,11.75 7.5625,11.9375 7.375,12.125 7.5,12 Q 7.625,11.875 7.71875,11.71875 L 7.8125,11.5625 7.765625,11.640625 7.71875,11.71875 8.015625,12.015625 8.3125,12.3125 8.375,12.25 8.4375,12.1875 8.3125,12.3125 Q 8.1875,12.4375 8.125,12.625 L 8.0625,12.8125 8.15625,12.53125 8.25,12.25 8.125,12.625 8,13 7.4375,13.0625 6.875,13.125 7.0625,12.6875"
           id="path69175"
           inkscape:connector-curvature="0" />
        <path
           style="fill:#000000;fill-opacity:0.03921569"
           d="m 8.125,12.625 q 0.125,-0.375 0.5,-0.5 L 9,12 9,12.5 9,13 8.5,13 8,13 8.125,12.625"
           id="path69177"
           inkscape:connector-curvature="0" />
        <path
           style="fill:#000000;fill-opacity:0.31764706"
           d="M 13.875,12.625 13.75,12.25 13.84375,12.53125 13.9375,12.8125 13.875,12.625 q -0.0625,-0.1875 -0.1875,-0.3125 l -0.125,-0.125 0.0625,0.0625 0.0625,0.0625 L 14,12 14.3125,11.6875 14.25,11.625 l -0.0625,-0.0625 0.125,0.125 q 0.125,0.125 0.3125,0.1875 L 14.8125,11.9375 14.53125,11.84375 14.25,11.75 14.625,11.875 15,12 14.875,12.375 q -0.125,0.375 -0.5,0.5 L 14,13 13.875,12.625"
           id="path69179"
           inkscape:connector-curvature="0" />
        <path
           style="fill:#000000;fill-opacity:0.75294118"
           d="M 14.875,12.375 15,12 15.375,11.875 15.75,11.75 15.46875,11.84375 15.1875,11.9375 15.375,11.875 q 0.1875,-0.0625 0.3125,-0.1875 l 0.125,-0.125 -0.0625,0.0625 -0.0625,0.0625 0.296875,0.296875 0.296875,0.296875 0.04687,-0.07813 L 16.375,12.125 16.28125,12.28125 Q 16.1875,12.4375 16.125,12.625 L 16.0625,12.8125 16.15625,12.53125 16.25,12.25 16.171875,12.671875 16.09375,13.09375 15.671875,13.171875 15.25,13.25 15.53125,13.15625 15.8125,13.0625 15.625,13.125 q -0.1875,0.0625 -0.3125,0.1875 l -0.125,0.125 L 15.25,13.375 15.3125,13.3125 15,13 14.6875,12.6875 14.625,12.75 l -0.0625,0.0625 0.125,-0.125 q 0.125,-0.125 0.1875,-0.3125 L 14.9375,12.1875 14.84375,12.46875 14.75,12.75 14.875,12.375"
           id="path69181"
           inkscape:connector-curvature="0" />
        <path
           style="fill:#1a1a14;fill-opacity:0.87843137"
           d="M 16.171875,12.671875 Q 16.25,12.25 16.5,12 L 16.75,11.75 16.5625,11.9375 16.375,12.125 16.5,12 q 0.125,-0.125 0.21875,-0.28125 l 0.09375,-0.15625 -0.04687,0.07813 -0.04687,0.07813 0.28125,0.3125 0.28125,0.3125 0.04687,-0.04687 L 17.375,12.25 17.28125,12.34375 Q 17.1875,12.4375 17.125,12.625 L 17.0625,12.8125 17.15625,12.53125 17.25,12.25 17.125,12.625 17,13 l -0.5,0 -0.5,0 0.375,0 0.375,0 -0.25,0 q -0.25,0 -0.40625,0.09375 l -0.15625,0.09375 0.07813,-0.04687 0.07813,-0.04687 0.07813,-0.421875"
           id="path69183"
           inkscape:connector-curvature="0" />
        <path
           style="fill:#393a37;fill-opacity:0.96470588"
           d="M 17.125,12.625 Q 17.25,12.25 17.5,12.25 q 0.25,0 0.375,0.375 L 18,13 17.5,13 17,13 17.125,12.625"
           id="path69185"
           inkscape:connector-curvature="0" />
        <path
           style="fill:#1e1f18;fill-opacity:0.89019608"
           d="M 17.875,12.625 17.75,12.25 17.84375,12.53125 17.9375,12.8125 17.875,12.625 Q 17.8125,12.4375 17.71875,12.34375 L 17.625,12.25 l 0.04687,0.04687 0.04687,0.04687 0.296875,-0.328125 L 18.3125,11.6875 18.25,11.625 l -0.0625,-0.0625 0.125,0.125 q 0.125,0.125 0.3125,0.1875 L 18.8125,11.9375 18.53125,11.84375 18.25,11.75 18.625,11.875 19,12 l -0.01563,0.515625 -0.01563,0.515625 0.109375,0.01563 0.109375,0.01563 -0.21875,-0.03125 Q 18.75,13 18.5,13 l -0.25,0 0.375,0 0.375,0 -0.5,0 -0.5,0 -0.125,-0.375"
           id="path69187"
           inkscape:connector-curvature="0" />
        <path
           style="fill:#000000;fill-opacity:0.46666667"
           d="M 18.984375,12.515625 19,12 l 0.5,0 q 0.5,0 0.625,0.375 L 20.25,12.75 20.15625,12.46875 20.0625,12.1875 20.125,12.375 q 0.0625,0.1875 0.1875,0.3125 l 0.125,0.125 L 20.375,12.75 20.3125,12.6875 20,13 l -0.3125,0.3125 0.0625,0.0625 0.0625,0.0625 -0.125,-0.125 Q 19.5625,13.1875 19.375,13.125 L 19.1875,13.0625 19.46875,13.15625 19.75,13.25 19.375,13.125 19,13 19.28125,13.09375 19.5625,13.1875 19.375,13.125 Q 19.1875,13.0625 18.96875,13.03125 L 18.75,13 l 0.109375,0.01563 0.109375,0.01563 0.01563,-0.515625"
           id="path69189"
           inkscape:connector-curvature="0" />
        <path
           style="fill:#000000;fill-opacity:0.02352941"
           d="M 1,13.5 Q 1,13 1.5,13 L 2,13 1.875,13.375 q -0.125,0.375 -0.5,0.5 L 1,14 1,13.5"
           id="path69191"
           inkscape:connector-curvature="0" />
        <path
           style="fill:#191914;fill-opacity:0.83137255"
           d="M 1.875,13.375 2,13 2.375,12.875 2.75,12.75 2.46875,12.84375 2.1875,12.9375 2.375,12.875 Q 2.5625,12.8125 2.6875,12.6875 L 2.8125,12.5625 2.75,12.625 2.6875,12.6875 3,13 3.3125,13.3125 3.375,13.25 3.4375,13.1875 3.3125,13.3125 Q 3.1875,13.4375 3.125,13.625 L 3.0625,13.8125 3.15625,13.53125 3.25,13.25 3.125,13.625 3,14 3.09375,13.71875 3.1875,13.4375 3.125,13.625 Q 3.0625,13.8125 3.03125,14.03125 L 3,14.25 3.015625,14.140625 3.03125,14.03125 2.640625,14.140625 2.25,14.25 2.53125,14.15625 2.8125,14.0625 2.625,14.125 Q 2.4375,14.1875 2.3125,14.3125 L 2.1875,14.4375 2.25,14.375 2.3125,14.3125 2,14 1.6875,13.6875 1.625,13.75 1.5625,13.8125 1.6875,13.6875 Q 1.8125,13.5625 1.875,13.375 L 1.9375,13.1875 1.84375,13.46875 1.75,13.75 1.875,13.375"
           id="path69193"
           inkscape:connector-curvature="0" />
        <path
           style="fill:#c8cfd4;fill-opacity:1"
           d="m 3.125,13.625 q 0.125,-0.375 0.5,-0.5 L 4,13 3.71875,13.09375 3.4375,13.1875 3.625,13.125 Q 3.8125,13.0625 4.03125,13.03125 L 4.25,13 4.140625,13.015625 4.03125,13.03125 3.890625,13.390625 Q 3.75,13.75 3.375,13.875 L 3,14 3.125,13.625"
           id="path69195"
           inkscape:connector-curvature="0" />
        <path
           style="fill:#f7fcff;fill-opacity:1"
           d="M 3.890625,13.390625 4.03125,13.03125 3.921875,13.046875 3.8125,13.0625 4.03125,13.03125 Q 4.25,13 4.5,13 L 4.75,13 4.375,13 4,13 4.5,13 5,13 5,13.5 5,14 4.625,14.125 q -0.375,0.125 -0.5,0.5 L 4,15 3.5,15 3,15 3,14.5 3,14 3.375,13.875 Q 3.75,13.75 3.890625,13.390625"
           id="path69197"
           inkscape:connector-curvature="0" />
        <path
           style="fill:#f5fcff;fill-opacity:1"
           d="M 5,13.5 5,13 5.5,13 6,13 6.125,13.375 6.25,13.75 6.15625,13.46875 6.0625,13.1875 6.125,13.375 q 0.0625,0.1875 0.1875,0.3125 l 0.125,0.125 L 6.375,13.75 6.3125,13.6875 6,14 5.6875,14.3125 5.75,14.375 5.8125,14.4375 5.6875,14.3125 Q 5.5625,14.1875 5.375,14.125 L 5.1875,14.0625 5.46875,14.15625 5.75,14.25 5.375,14.125 5,14 5,13.5"
           id="path69199"
           inkscape:connector-curvature="0" />
        <path
           style="fill:#c2d1d8;fill-opacity:1"
           d="M 6.125,13.375 6,13 6.5,13 Q 7,13 7,13.5 L 7,14 7,13.625 7,13.25 7,13.5 q 0,0.25 0.09375,0.40625 L 7.1875,14.0625 7.140625,13.984375 7.09375,13.90625 6.671875,13.828125 Q 6.25,13.75 6.125,13.375"
           id="path69201"
           inkscape:connector-curvature="0" />
        <path
           style="fill:#1c1e1c;fill-opacity:0.91372549"
           d="M 7,13.5 7,13 7,13.375 7,13.75 7,13.5 Q 7,13.25 6.875,13.125 L 6.75,13 6.8125,13.0625 6.875,13.125 7.4375,13.0625 8,13 8.125,13.375 8.25,13.75 8.15625,13.46875 8.0625,13.1875 8.125,13.375 q 0.0625,0.1875 0.1875,0.3125 l 0.125,0.125 L 8.375,13.75 8.3125,13.6875 8,14 7.6875,14.3125 7.75,14.375 7.8125,14.4375 7.6875,14.3125 Q 7.5625,14.1875 7.375,14.125 L 7.1875,14.0625 7.46875,14.15625 7.75,14.25 7.375,14.125 Q 7,14 7,13.5"
           id="path69203"
           inkscape:connector-curvature="0" />
        <path
           style="fill:#000000;fill-opacity:0.04705882"
           d="M 8.125,13.375 8,13 8.5,13 9,13 9,13.5 9,14 8.625,13.875 q -0.375,-0.125 -0.5,-0.5"
           id="path69205"
           inkscape:connector-curvature="0" />
        <path
           style="fill:#000000;fill-opacity:0.0627451"
           d="M 9.875,13.375 Q 10,13 10.5,13 l 0.5,0 0,0.5 0,0.5 -0.375,0.125 -0.375,0.125 0.28125,-0.09375 0.28125,-0.09375 -0.1875,0.0625 q -0.1875,0.0625 -0.34375,0.15625 L 10.125,14.375 10.203125,14.328125 10.28125,14.28125 9.984375,13.984375 9.6875,13.6875 9.625,13.75 9.5625,13.8125 9.6875,13.6875 Q 9.8125,13.5625 9.875,13.375 L 9.9375,13.1875 9.84375,13.46875 9.75,13.75 9.875,13.375"
           id="path69207"
           inkscape:connector-curvature="0" />
        <path
           style="fill:#000000;fill-opacity:0.22745098"
           d="m 11,13.5 0,-0.5 0.5,0 q 0.5,0 0.625,0.375 L 12.25,13.75 12.15625,13.46875 12.0625,13.1875 12.125,13.375 q 0.0625,0.1875 0.1875,0.3125 l 0.125,0.125 L 12.375,13.75 12.3125,13.6875 12.015625,13.984375 11.71875,14.28125 11.79688,14.32812 11.875,14.375 11.71875,14.28125 Q 11.5625,14.1875 11.375,14.125 L 11.1875,14.0625 11.46875,14.15625 11.75,14.25 11.375,14.125 11,14 11,13.5"
           id="path69209"
           inkscape:connector-curvature="0" />
        <path
           style="fill:#000000;fill-opacity:0.30196078"
           d="M 14,13.5 14,13 14.375,12.875 14.75,12.75 14.46875,12.84375 14.1875,12.9375 14.375,12.875 q 0.1875,-0.0625 0.3125,-0.1875 l 0.125,-0.125 L 14.75,12.625 14.6875,12.6875 15,13 l 0.3125,0.3125 0.0625,-0.0625 0.0625,-0.0625 -0.125,0.125 q -0.125,0.125 -0.1875,0.3125 L 15.0625,13.8125 15.15625,13.53125 15.25,13.25 15.171875,13.671875 15.09375,14.09375 14.546875,14.046875 14,14 14,13.5"
           id="path69211"
           inkscape:connector-curvature="0" />
        <path
           style="fill:#5c5f5f;fill-opacity:0.98431373"
           d="m 15.171875,13.671875 q 0.07813,-0.421875 0.5,-0.5 l 0.421875,-0.07813 0.07813,-0.04687 L 16.25,13 16.09375,13.09375 Q 15.9375,13.1875 15.875,13.375 L 15.8125,13.5625 15.90625,13.28125 16,13 15.875,13.375 q -0.125,0.375 -0.5,0.5 L 15,14 15.28125,13.90625 15.5625,13.8125 15.375,13.875 q -0.1875,0.0625 -0.28125,0.21875 L 15,14.25 l 0.04687,-0.07813 0.04687,-0.07813 0.07813,-0.421875"
           id="path69213"
           inkscape:connector-curvature="0" />
        <path
           style="fill:#e1ecf2;fill-opacity:1"
           d="M 15.875,13.375 Q 16,13 16.5,13 l 0.5,0 0,0.5 0,0.5 -0.375,0.125 -0.375,0.125 0.28125,-0.09375 0.28125,-0.09375 -0.1875,0.0625 q -0.1875,0.0625 -0.28125,0.15625 L 16.25,14.375 16.296875,14.328125 16.34375,14.28125 16.015625,13.984375 15.6875,13.6875 15.625,13.75 l -0.0625,0.0625 0.125,-0.125 q 0.125,-0.125 0.1875,-0.3125 L 15.9375,13.1875 15.84375,13.46875 15.75,13.75 15.875,13.375"
           id="path69215"
           inkscape:connector-curvature="0" />
        <path
           style="fill:#f6fcff;fill-opacity:1"
           d="m 17,13.5 0,-0.5 0.5,0 0.5,0 0,0.5 0,0.5 -0.5,0 -0.5,0 0,-0.5"
           id="path69217"
           inkscape:connector-curvature="0" />
        <path
           style="fill:#f2f9fc;fill-opacity:1"
           d="m 18,13.5 0,-0.5 0.5,0 0.5,0 -0.375,0 -0.375,0 0.25,0 q 0.25,0 0.46875,0.03125 L 19.1875,13.0625 19.078125,13.046875 18.96875,13.03125 19.109375,13.390625 19.25,13.75 19.15625,13.46875 19.0625,13.1875 19.125,13.375 q 0.0625,0.1875 0.1875,0.3125 l 0.125,0.125 L 19.375,13.75 19.3125,13.6875 19,14 l -0.3125,0.3125 0.0625,0.0625 0.0625,0.0625 -0.125,-0.125 Q 18.5625,14.1875 18.375,14.125 L 18.1875,14.0625 18.46875,14.15625 18.75,14.25 18.375,14.125 18,14 18,13.5"
           id="path69219"
           inkscape:connector-curvature="0" />
        <path
           style="fill:#9ca7a6;fill-opacity:1"
           d="M 19.109375,13.390625 18.96875,13.03125 18.859375,13.015625 18.75,13 18.96875,13.03125 Q 19.1875,13.0625 19.375,13.125 L 19.5625,13.1875 19.28125,13.09375 19,13 l 0.375,0.125 q 0.375,0.125 0.5,0.5 L 20,14 19.90625,13.71875 19.8125,13.4375 19.875,13.625 q 0.0625,0.1875 0.09375,0.40625 L 20,14.25 19.984375,14.140625 19.96875,14.03125 19.609375,13.890625 q -0.359375,-0.140625 -0.5,-0.5"
           id="path69221"
           inkscape:connector-curvature="0" />
        <path
           style="fill:#000000;fill-opacity:0.49803922"
           d="M 19.875,13.625 19.75,13.25 19.84375,13.53125 19.9375,13.8125 19.875,13.625 q -0.0625,-0.1875 -0.1875,-0.3125 l -0.125,-0.125 0.0625,0.0625 0.0625,0.0625 L 20,13 20.3125,12.6875 20.25,12.625 l -0.0625,-0.0625 0.125,0.125 q 0.125,0.125 0.3125,0.1875 L 20.8125,12.9375 20.53125,12.84375 20.25,12.75 20.625,12.875 Q 21,13 21,13.5 l 0,0.5 -0.515625,0.01563 -0.515625,0.01563 0.01563,0.109375 L 20,14.25 19.96875,14.03125 Q 19.9375,13.8125 19.875,13.625 L 19.8125,13.4375 19.90625,13.71875 20,14 19.875,13.625"
           id="path69223"
           inkscape:connector-curvature="0" />
        <path
           style="fill:#000000;fill-opacity:0.34901961"
           d="M 1,14.5 1,14 1.375,13.875 1.75,13.75 1.46875,13.84375 1.1875,13.9375 1.375,13.875 Q 1.5625,13.8125 1.6875,13.6875 L 1.8125,13.5625 1.75,13.625 1.6875,13.6875 2,14 2.3125,14.3125 2.375,14.25 2.4375,14.1875 2.3125,14.3125 Q 2.1875,14.4375 2.125,14.625 L 2.0625,14.8125 2.15625,14.53125 2.25,14.25 2.125,14.625 2,15 1.5,15 1,15 1,14.5"
           id="path69225"
           inkscape:connector-curvature="0" />
        <path
           style="fill:#7e8688;fill-opacity:1"
           d="M 2.125,14.625 Q 2.25,14.25 2.640625,14.140625 L 3.03125,14.03125 3.046875,13.921875 3.0625,13.8125 3.03125,14.03125 Q 3,14.25 3,14.5 L 3,14.75 3,14.375 3,14 3,14.5 3,15 2.5,15 2,15 2.125,14.625"
           id="path69227"
           inkscape:connector-curvature="0" />
        <path
           style="fill:#ffffff;fill-opacity:1"
           d="m 4.125,14.625 q 0.125,-0.375 0.5,-0.5 L 5,14 5.375,14.125 q 0.375,0.125 0.5,0.5 0.125,0.375 0,0.75 -0.125,0.375 -0.5,0.5 Q 5,16 4.625,15.875 4.25,15.75 4.125,15.375 L 4,15 4.125,14.625"
           id="path69229"
           inkscape:connector-curvature="0" />
        <path
           style="fill:#f4fbff;fill-opacity:1"
           d="M 5.875,14.625 5.75,14.25 5.84375,14.53125 5.9375,14.8125 5.875,14.625 Q 5.8125,14.4375 5.6875,14.3125 L 5.5625,14.1875 5.625,14.25 5.6875,14.3125 6,14 6.3125,13.6875 6.25,13.625 6.1875,13.5625 l 0.125,0.125 q 0.125,0.125 0.3125,0.1875 L 6.8125,13.9375 6.53125,13.84375 6.25,13.75 6.671875,13.828125 7.09375,13.90625 7.046875,14.453125 7,15 6.875,15.375 Q 6.75,15.75 6.5,16 L 6.25,16.25 6.4375,16.0625 6.625,15.875 6.5,16 Q 6.375,16.125 6.28125,16.28125 L 6.1875,16.4375 6.234375,16.359375 6.28125,16.28125 5.984375,15.984375 5.6875,15.6875 5.625,15.75 5.5625,15.8125 5.6875,15.6875 Q 5.8125,15.5625 5.875,15.375 L 5.9375,15.1875 5.84375,15.46875 5.75,15.75 5.875,15.375 Q 6,15 5.875,14.625"
           id="path69231"
           inkscape:connector-curvature="0" />
        <path
           style="fill:#89a0a5;fill-opacity:1"
           d="M 7.046875,14.453125 7.09375,13.90625 7.046875,13.828125 7,13.75 7.09375,13.90625 Q 7.1875,14.0625 7.375,14.125 L 7.5625,14.1875 7.28125,14.09375 7,14 7.375,14.125 q 0.375,0.125 0.5,0.5 L 8,15 7.5,15 7,15 7.046875,14.453125"
           id="path69233"
           inkscape:connector-curvature="0" />
        <path
           style="fill:#000000;fill-opacity:0.46666667"
           d="M 7.875,14.625 7.75,14.25 7.84375,14.53125 7.9375,14.8125 7.875,14.625 Q 7.8125,14.4375 7.6875,14.3125 L 7.5625,14.1875 7.625,14.25 7.6875,14.3125 8,14 8.3125,13.6875 8.25,13.625 8.1875,13.5625 l 0.125,0.125 q 0.125,0.125 0.3125,0.1875 L 8.8125,13.9375 8.53125,13.84375 8.25,13.75 8.625,13.875 9,14 9,14.5 9,15 8.5,15 8,15 7.875,14.625"
           id="path69235"
           inkscape:connector-curvature="0" />
        <path
           style="fill:#050505;fill-opacity:0.41568627"
           d="M 9,14.5 9,14 9.375,13.875 9.75,13.75 9.46875,13.84375 9.1875,13.9375 9.375,13.875 q 0.1875,-0.0625 0.3125,-0.1875 l 0.125,-0.125 -0.0625,0.0625 -0.0625,0.0625 0.296875,0.296875 0.296875,0.296875 0.07813,-0.04687 0.07813,-0.04687 -0.15625,0.09375 Q 10.125,14.375 10,14.5 L 9.875,14.625 10.0625,14.4375 10.25,14.25 10,14.5 Q 9.75,14.75 9.375,14.875 L 9,15 9,14.5"
           id="path69237"
           inkscape:connector-curvature="0" />
        <path
           style="fill:#31332b;fill-opacity:0.91372549"
           d="m 10,14.5 q 0.25,-0.25 0.625,-0.375 L 11,14 11,14.5 11,15 10.625,15.125 10.25,15.25 10.53125,15.15625 10.8125,15.0625 10.625,15.125 q -0.1875,0.0625 -0.28125,0.15625 L 10.25,15.375 10.296875,15.328125 10.34375,15.28125 10.03125,15 9.71875,14.71875 9.640625,14.765625 9.5625,14.8125 9.71875,14.71875 Q 9.875,14.625 10,14.5 L 10.125,14.375 9.9375,14.5625 9.75,14.75 10,14.5"
           id="path69239"
           inkscape:connector-curvature="0" />
        <path
           style="fill:#414743;fill-opacity:0.98039216"
           d="m 11,14.5 0,-0.5 0.375,0.125 Q 11.75,14.25 12,14.5 L 12.25,14.75 12.0625,14.5625 11.875,14.375 12,14.5 q 0.125,0.125 0.28125,0.21875 l 0.15625,0.09375 -0.07813,-0.04687 -0.07813,-0.04687 -0.296875,0.296875 -0.296875,0.296875 0.0625,0.0625 0.0625,0.0625 -0.125,-0.125 Q 11.5625,15.1875 11.375,15.125 L 11.1875,15.0625 11.46875,15.15625 11.75,15.25 11.375,15.125 11,15 11,14.5"
           id="path69241"
           inkscape:connector-curvature="0" />
        <path
           style="fill:#0e0e0e;fill-opacity:0.76078431"
           d="M 12,14.5 11.75,14.25 11.9375,14.4375 12.125,14.625 12,14.5 q -0.125,-0.125 -0.28125,-0.21875 l -0.15625,-0.09375 0.07813,0.04687 0.07813,0.04687 0.296875,-0.296875 L 12.3125,13.6875 12.25,13.625 l -0.0625,-0.0625 0.125,0.125 q 0.125,0.125 0.3125,0.1875 L 12.8125,13.9375 12.53125,13.84375 12.25,13.75 12.625,13.875 13,14 13,14.5 13,15 12.625,14.875 Q 12.25,14.75 12,14.5"
           id="path69243"
           inkscape:connector-curvature="0" />
        <path
           style="fill:#10100d;fill-opacity:0.63529412"
           d="m 13,14.5 0,-0.5 0.5,0 0.5,0 0,0.5 0,0.5 -0.5,0 -0.5,0 0,-0.5"
           id="path69245"
           inkscape:connector-curvature="0" />
        <path
           style="fill:#1f211b;fill-opacity:0.93333333"
           d="m 14,14.5 0,-0.5 0.546875,0.04687 0.546875,0.04687 0.04687,-0.07813 0.04687,-0.07813 -0.09375,0.15625 Q 15,14.25 15,14.5 l 0,0.25 0,-0.375 0,-0.375 0,0.5 0,0.5 -0.5,0 -0.5,0 0,-0.5 m 1,0.625 0,-0.125 0,-0.375 0,-0.375 0,0.25 q 0,0.25 0,0.5 l 0,0.25 0,-0.125"
           id="path69247"
           inkscape:connector-curvature="0" />
        <path
           style="fill:#d9ebf3;fill-opacity:1"
           d="M 15,14.5 Q 15,14 15.375,13.875 L 15.75,13.75 15.46875,13.84375 15.1875,13.9375 15.375,13.875 q 0.1875,-0.0625 0.3125,-0.1875 l 0.125,-0.125 -0.0625,0.0625 -0.0625,0.0625 0.328125,0.296875 0.328125,0.296875 0.04687,-0.04687 0.04687,-0.04687 -0.09375,0.09375 Q 16.25,14.375 16.25,14.5 l 0,0.125 0,-0.1875 0,-0.1875 0,0.25 0,0.25 0,-0.1875 0,-0.1875 0,0.125 q 0,0.125 0.09375,0.21875 l 0.09375,0.09375 -0.04687,-0.04687 -0.04687,-0.04687 -0.3125,0.28125 -0.3125,0.28125 0.07813,0.04687 L 15.875,15.375 15.71875,15.28125 Q 15.5625,15.1875 15.375,15.125 L 15.1875,15.0625 15.46875,15.15625 15.75,15.25 15.375,15.125 15,15 15,14.5 m 0,0.125 0,0.375 0,0.125 0,0.125 0,-0.25 q 0,-0.25 0,-0.5 l 0,-0.25 0,0.375"
           id="path69249"
           inkscape:connector-curvature="0" />
        <path
           style="fill:#f5fcff;fill-opacity:1"
           d="m 16.25,14.5 q 0,-0.25 0.375,-0.375 L 17,14 17,14.5 17,15 16.625,14.875 Q 16.25,14.75 16.25,14.5"
           id="path69251"
           inkscape:connector-curvature="0" />
        <path
           style="fill:#ffffff;fill-opacity:1"
           d="m 17,14.5 0,-0.5 0.5,0 0.5,0 0.375,0.125 q 0.375,0.125 0.5,0.5 L 19,15 18.875,15.375 q -0.125,0.375 -0.5,0.5 L 18,16 17.625,15.875 q -0.375,-0.125 -0.5,-0.5 L 17,15 17,14.5"
           id="path69253"
           inkscape:connector-curvature="0" />
        <path
           style="fill:#f2fdff;fill-opacity:1"
           d="M 18.875,14.625 18.75,14.25 18.84375,14.53125 18.9375,14.8125 18.875,14.625 q -0.0625,-0.1875 -0.1875,-0.3125 l -0.125,-0.125 0.0625,0.0625 0.0625,0.0625 L 19,14 19.3125,13.6875 19.25,13.625 l -0.0625,-0.0625 0.125,0.125 q 0.125,0.125 0.3125,0.1875 L 19.8125,13.9375 19.53125,13.84375 19.25,13.75 19.609375,13.890625 19.96875,14.03125 19.953125,13.921875 19.9375,13.8125 19.96875,14.03125 Q 20,14.25 20,14.5 l 0,0.25 0,-0.375 0,-0.375 0,0.5 0,0.5 -0.5,0 -0.5,0 -0.125,-0.375 M 20,15.125 20,15 l 0,-0.375 0,-0.375 0,0.25 q 0,0.25 0,0.5 l 0,0.25 0,-0.125"
           id="path69255"
           inkscape:connector-curvature="0" />
        <path
           style="fill:#242c1f;fill-opacity:0.92156863"
           d="m 20,14.5 0,-0.5 0,0.375 0,0.375 0,-0.25 q 0,-0.25 -0.03125,-0.46875 L 19.9375,13.8125 19.95313,13.921875 19.96876,14.03125 20.484385,14.01562 21,14 l 0.125,0.375 q 0.125,0.375 -0.171875,0.640625 L 20.65625,15.28125 20.70312,15.32812 20.75,15.375 20.65625,15.28125 Q 20.5625,15.1875 20.375,15.125 L 20.1875,15.0625 20.46875,15.15625 20.75,15.25 20.375,15.125 20,15 20,14.5 m 0,0.125 0,0.375 0,0.125 0,0.125 0,-0.25 q 0,-0.25 0,-0.5 l 0,-0.25 0,0.375"
           id="path69257"
           inkscape:connector-curvature="0" />
        <path
           style="fill:#000000;fill-opacity:0.56078425"
           d="M 1,15.5 1,15 1.5,15 2,15 2,15.5 2,16 1.5,16 1,16 1,15.5"
           id="path69259"
           inkscape:connector-curvature="0" />
        <path
           style="fill:#a1b2bb;fill-opacity:1"
           d="M 2,15.5 2,15 2.5,15 3,15 3,15.5 3,16 2.5,16 2,16 2,15.5"
           id="path69261"
           inkscape:connector-curvature="0" />
        <path
           style="fill:#f4fbff;fill-opacity:1"
           d="M 3,15.5 3,15 3.5,15 4,15 4.125,15.375 4.25,15.75 4.15625,15.46875 4.0625,15.1875 4.125,15.375 q 0.0625,0.1875 0.1875,0.3125 l 0.125,0.125 L 4.375,15.75 4.3125,15.6875 4,16 3.6875,16.3125 3.75,16.375 3.8125,16.4375 3.6875,16.3125 Q 3.5625,16.1875 3.375,16.125 L 3.1875,16.0625 3.46875,16.15625 3.75,16.25 3.375,16.125 3,16 3,15.5"
           id="path69263"
           inkscape:connector-curvature="0" />
        <path
           style="fill:#acc9d1;fill-opacity:1"
           d="M 6.875,15.375 7,15 7.5,15 8,15 8,15.5 8,16 7.625,16.125 7.25,16.25 7.53125,16.15625 7.8125,16.0625 7.625,16.125 Q 7.4375,16.1875 7.28125,16.28125 L 7.125,16.375 7.203125,16.328125 7.28125,16.28125 7,16 6.71875,15.71875 6.671875,15.796875 6.625,15.875 6.71875,15.71875 Q 6.8125,15.5625 6.875,15.375 L 6.9375,15.1875 6.84375,15.46875 6.75,15.75 6.875,15.375"
           id="path69265"
           inkscape:connector-curvature="0" />
        <path
           style="fill:#000000;fill-opacity:0.69411765"
           d="M 8,15.5 8,15 8.5,15 9,15 9,15.5 9,16 8.5,16 8,16 8,15.5"
           id="path69267"
           inkscape:connector-curvature="0" />
        <path
           style="fill:#20251f;fill-opacity:0.91764706"
           d="M 9,15.5 9,15 9.375,14.875 9.75,14.75 9.46875,14.84375 9.1875,14.9375 9.375,14.875 Q 9.5625,14.8125 9.71875,14.71875 L 9.875,14.625 9.796875,14.671875 9.71875,14.71875 10.03125,15 l 0.3125,0.28125 0.04687,-0.04687 0.04687,-0.04687 -0.09375,0.09375 Q 10.25,15.375 10.25,15.5 l 0,0.125 0,-0.1875 0,-0.1875 0,0.25 0,0.25 0,-0.1875 0,-0.1875 0,0.125 q 0,0.125 0.09375,0.21875 L 10.4375,15.8125 10.39063,15.76563 10.34376,15.71876 10.015635,16.015635 9.6875,16.3125 9.75,16.375 9.8125,16.4375 9.6875,16.3125 Q 9.5625,16.1875 9.375,16.125 L 9.1875,16.0625 9.46875,16.15625 9.75,16.25 9.375,16.125 9,16 9,15.5"
           id="path69269"
           inkscape:connector-curvature="0" />
        <path
           style="fill:#bcd4dc;fill-opacity:1"
           d="m 10.25,15.5 q 0,-0.25 0.375,-0.375 L 11,15 11,15.5 11,16 10.625,15.875 Q 10.25,15.75 10.25,15.5"
           id="path69271"
           inkscape:connector-curvature="0" />
        <path
           style="fill:#adc9d0;fill-opacity:1"
           d="m 11,15.5 0,-0.5 0.375,0.125 q 0.375,0.125 0.5,0.5 L 12,16 11.5,16 11,16 11,15.5 M 11.625,16 12,16 12.125,16 12.25,16 12,16 q -0.25,0 -0.5,0 l -0.25,0 0.375,0"
           id="path69273"
           inkscape:connector-curvature="0" />
        <path
           style="fill:#606e72;fill-opacity:1"
           d="M 11.875,15.625 11.75,15.25 11.84375,15.53125 11.9375,15.8125 11.875,15.625 q -0.0625,-0.1875 -0.1875,-0.3125 l -0.125,-0.125 0.0625,0.0625 0.0625,0.0625 0.296875,-0.296875 L 12.28125,14.71875 12.20312,14.67188 12.125,14.625 12.28125,14.71875 Q 12.4375,14.8125 12.625,14.875 L 12.8125,14.9375 12.53125,14.84375 12.25,14.75 12.625,14.875 13,15 l 0,0.5 0,0.5 -0.5,0 -0.5,0 -0.125,-0.375 m 0,0.375 0.125,0 0.375,0 0.375,0 -0.25,0 q -0.25,0 -0.5,0 l -0.25,0 0.125,0"
           id="path69275"
           inkscape:connector-curvature="0" />
        <path
           style="fill:#5b686b;fill-opacity:1"
           d="m 13,15.5 0,-0.5 0.5,0 0.5,0 0,0.5 0,0.5 -0.5,0 -0.5,0 0,-0.5"
           id="path69277"
           inkscape:connector-curvature="0" />
        <path
           style="fill:#535d60;fill-opacity:1"
           d="m 14,15.5 0,-0.5 0.5,0 0.5,0 0,0.5 0,0.5 -0.5,0 -0.5,0 0,-0.5 m 1,0.625 0,-0.125 0,-0.375 0,-0.375 0,0.25 q 0,0.25 0,0.5 l 0,0.25 0,-0.125 M 15,15.375 15,15 15,14.875 15,14.75 15,15 q 0,0.25 0,0.5 l 0,0.25 0,-0.375"
           id="path69279"
           inkscape:connector-curvature="0" />
        <path
           style="fill:#d8f3fe;fill-opacity:1"
           d="m 15,15.5 0,-0.5 0.375,0.125 Q 15.75,15.25 16,15.5 l 0.25,0.25 -0.28125,0.28125 -0.28125,0.28125 0.0625,0.0625 0.0625,0.0625 -0.125,-0.125 Q 15.5625,16.1875 15.375,16.125 L 15.1875,16.0625 15.46875,16.15625 15.75,16.25 15.375,16.125 15,16 15,15.5 m 0,0.125 0,0.375 0,0.125 0,0.125 0,-0.25 q 0,-0.25 0,-0.5 l 0,-0.25 0,0.375 M 16.3125,15.8125 16.25,15.75 16.0625,15.5625 15.875,15.375 16,15.5 q 0.125,0.125 0.25,0.25 l 0.125,0.125 -0.0625,-0.0625 M 15,14.875 15,15 l 0,0.375 0,0.375 0,-0.25 q 0,-0.25 0,-0.5 l 0,-0.25 0,0.125"
           id="path69281"
           inkscape:connector-curvature="0" />
        <path
           style="fill:#f2fafd;fill-opacity:1"
           d="M 16,15.5 15.75,15.25 15.9375,15.4375 16.125,15.625 16,15.5 Q 15.875,15.375 15.71875,15.28125 L 15.5625,15.1875 15.64063,15.23437 15.71876,15.28124 16.03125,15 16.34375,14.71875 16.296875,14.671875 16.25,14.625 16.34375,14.71875 Q 16.4375,14.8125 16.625,14.875 L 16.8125,14.9375 16.53125,14.84375 16.25,14.75 16.625,14.875 17,15 l 0.125,0.375 q 0.125,0.375 0.5,0.5 L 18,16 18,16.5 18,17 17.5,17 17,17 16.875,16.625 Q 16.75,16.25 16.5,16 16.25,15.75 16,15.5 m 0.875,1.5 0.125,0 0.375,0 0.375,0 -0.25,0 q -0.25,0 -0.5,0 l -0.25,0 0.125,0"
           id="path69283"
           inkscape:connector-curvature="0" />
        <path
           style="fill:#f4fdff;fill-opacity:1"
           d="M 18.875,15.375 19,15 l 0.5,0 0.5,0 0,0.5 0,0.5 -0.375,0.125 -0.375,0.125 0.28125,-0.09375 0.28125,-0.09375 -0.1875,0.0625 q -0.1875,0.0625 -0.3125,0.1875 l -0.125,0.125 L 19.25,16.375 19.3125,16.3125 19,16 18.6875,15.6875 18.625,15.75 l -0.0625,0.0625 0.125,-0.125 q 0.125,-0.125 0.1875,-0.3125 L 18.9375,15.1875 18.84375,15.46875 18.75,15.75 18.875,15.375 M 20,15.375 20,15 20,14.875 20,14.75 20,15 q 0,0.25 0,0.5 l 0,0.25 0,-0.375"
           id="path69285"
           inkscape:connector-curvature="0" />
        <path
           style="fill:#3f5a43;fill-opacity:0.97254902"
           d="m 20,15.5 0,-0.5 0.375,0.125 q 0.375,0.125 0.375,0.375 0,0.25 -0.375,0.375 L 20,16 20,15.5 m 0,-0.625 0,0.125 0,0.375 0,0.375 0,-0.25 q 0,-0.25 0,-0.5 l 0,-0.25 0,0.125"
           id="path69287"
           inkscape:connector-curvature="0" />
        <path
           style="fill:#000000;fill-opacity:0.38431373"
           d="M 1,16.5 1,16 1.5,16 2,16 2.125,16.375 2.25,16.75 2.15625,16.46875 2.0625,16.1875 2.125,16.375 q 0.0625,0.1875 0.1875,0.3125 l 0.125,0.125 L 2.375,16.75 2.3125,16.6875 2,17 1.6875,17.3125 1.75,17.375 1.8125,17.4375 1.6875,17.3125 Q 1.5625,17.1875 1.375,17.125 L 1.1875,17.0625 1.46875,17.15625 1.75,17.25 1.375,17.125 1,17 1,16.5"
           id="path69289"
           inkscape:connector-curvature="0" />
        <path
           style="fill:#79888c;fill-opacity:1"
           d="M 2.125,16.375 2,16 2.5,16 3,16 3,16.5 3,17 2.625,16.875 q -0.375,-0.125 -0.5,-0.5"
           id="path69291"
           inkscape:connector-curvature="0" />
        <path
           style="fill:#e2f4ff;fill-opacity:1"
           d="M 3,16.5 3,16 3.375,16.125 q 0.375,0.125 0.5,0.5 L 4,17 3.5,17 3,17 3,16.5"
           id="path69293"
           inkscape:connector-curvature="0" />
        <path
           style="fill:#f2f9fd;fill-opacity:1"
           d="M 3.875,16.625 3.75,16.25 3.84375,16.53125 3.9375,16.8125 3.875,16.625 Q 3.8125,16.4375 3.6875,16.3125 L 3.5625,16.1875 3.625,16.25 3.6875,16.3125 4,16 4.3125,15.6875 4.25,15.625 4.1875,15.5625 l 0.125,0.125 q 0.125,0.125 0.3125,0.1875 L 4.8125,15.9375 4.53125,15.84375 4.25,15.75 4.625,15.875 Q 5,16 5.375,15.875 L 5.75,15.75 5.46875,15.84375 5.1875,15.9375 5.375,15.875 Q 5.5625,15.8125 5.6875,15.6875 L 5.8125,15.5625 5.75,15.625 5.6875,15.6875 5.984375,15.984375 6.28125,16.28125 6.328125,16.203125 6.375,16.125 6.28125,16.28125 Q 6.1875,16.4375 6.125,16.625 L 6.0625,16.8125 6.15625,16.53125 6.25,16.25 6.109375,16.609375 5.96875,16.96875 6.078125,16.953125 6.1875,16.9375 5.96875,16.96875 Q 5.75,17 5.5,17 L 5.25,17 5.625,17 6,17 5.5,17 Q 5,17 4.5,17 L 4,17 3.875,16.625"
           id="path69295"
           inkscape:connector-curvature="0" />
        <path
           style="fill:#e2f6ff;fill-opacity:1"
           d="M 6.109375,16.609375 Q 6.25,16.25 6.5,16 L 6.75,15.75 6.5625,15.9375 6.375,16.125 6.5,16 Q 6.625,15.875 6.71875,15.71875 L 6.8125,15.5625 6.765625,15.640625 6.71875,15.71875 7,16 7.28125,16.28125 7.359375,16.234375 7.4375,16.1875 7.28125,16.28125 Q 7.125,16.375 7,16.5 L 6.875,16.625 7.0625,16.4375 7.25,16.25 7,16.5 Q 6.75,16.75 6.375,16.875 L 6,17 6.28125,16.90625 6.5625,16.8125 6.375,16.875 Q 6.1875,16.9375 5.96875,16.96875 L 5.75,17 5.859375,16.984375 5.96875,16.96875 6.109375,16.609375"
           id="path69297"
           inkscape:connector-curvature="0" />
        <path
           style="fill:#8ca8ad;fill-opacity:1"
           d="M 7,16.5 Q 7.25,16.25 7.625,16.125 L 8,16 7.875,16.375 Q 7.75,16.75 7.5,17 L 7.25,17.25 6.984375,16.984375 6.71875,16.71875 6.640625,16.765625 6.5625,16.8125 6.71875,16.71875 Q 6.875,16.625 7,16.5 L 7.125,16.375 6.9375,16.5625 6.75,16.75 7,16.5 M 7.1875,17.3125 7.25,17.25 7.4375,17.0625 7.625,16.875 7.5,17 q -0.125,0.125 -0.25,0.25 l -0.125,0.125 0.0625,-0.0625"
           id="path69299"
           inkscape:connector-curvature="0" />
        <path
           style="fill:#000000;fill-opacity:0.49411765"
           d="M 7.875,16.375 8,16 8.5,16 9,16 9,16.5 9,17 8.625,17.125 8.25,17.25 8.53125,17.15625 8.8125,17.0625 8.625,17.125 Q 8.4375,17.1875 8.3125,17.3125 L 8.1875,17.4375 8.25,17.375 8.3125,17.3125 8.015625,17.015625 7.71875,16.71875 7.671875,16.796875 7.625,16.875 7.71875,16.71875 Q 7.8125,16.5625 7.875,16.375 L 7.9375,16.1875 7.84375,16.46875 7.75,16.75 7.875,16.375"
           id="path69301"
           inkscape:connector-curvature="0" />
        <path
           style="fill:#000000;fill-opacity:0.29019608"
           d="M 9,16.5 9,16 9.375,16.125 q 0.375,0.125 0.5,0.5 L 10,17 9.5,17 9,17 9,16.5"
           id="path69303"
           inkscape:connector-curvature="0" />
        <path
           style="fill:#15190f;fill-opacity:0.83921569"
           d="M 9.875,16.625 9.75,16.25 9.84375,16.53125 9.9375,16.8125 9.875,16.625 Q 9.8125,16.4375 9.6875,16.3125 L 9.5625,16.1875 9.625,16.25 9.6875,16.3125 10.015625,16.015625 10.34375,15.71875 10.296875,15.671875 10.25,15.625 10.34375,15.71875 Q 10.4375,15.8125 10.625,15.875 L 10.8125,15.9375 10.53125,15.84375 10.25,15.75 10.625,15.875 11,16 11,16.5 11,17 10.5,17 10,17 9.875,16.625"
           id="path69305"
           inkscape:connector-curvature="0" />
        <path
           style="fill:#272d27;fill-opacity:0.9372549"
           d="m 11,16.5 0,-0.5 0.5,0 0.5,0 0,0.5 0,0.5 -0.5,0 -0.5,0 0,-0.5 M 12.125,16 12,16 l -0.375,0 -0.375,0 0.25,0 q 0.25,0 0.5,0 l 0.25,0 -0.125,0"
           id="path69307"
           inkscape:connector-curvature="0" />
        <path
           style="fill:#000000;fill-opacity:0.63137255"
           d="m 12,16.5 0,-0.5 0.5,0 0.5,0 0,0.5 0,0.5 -0.5,0 -0.5,0 0,-0.5 M 12.375,16 12,16 11.875,16 11.75,16 12,16 q 0.25,0 0.5,0 l 0.25,0 -0.375,0"
           id="path69309"
           inkscape:connector-curvature="0" />
        <path
           style="fill:#000000;fill-opacity:0.49411765"
           d="m 13,16.5 0,-0.5 0.5,0 0.5,0 0,0.5 0,0.5 -0.5,0 -0.5,0 0,-0.5"
           id="path69311"
           inkscape:connector-curvature="0" />
        <path
           style="fill:#1c1e16;fill-opacity:0.9254902"
           d="m 14,16.5 0,-0.5 0.5,0 0.5,0 0,0.5 0,0.5 0,-0.375 0,-0.375 0,0.25 q 0,0.25 0.125,0.375 L 15.25,17 15.1875,16.9375 15.125,16.875 14.5625,16.9375 14,17 14,16.5 M 15,16.375 15,16 15,15.875 15,15.75 15,16 q 0,0.25 0,0.5 l 0,0.25 0,-0.375"
           id="path69313"
           inkscape:connector-curvature="0" />
        <path
           style="fill:#c9e9f2;fill-opacity:1"
           d="m 15,16.5 0,-0.5 0.375,0.125 q 0.375,0.125 0.4375,0.5625 L 15.875,17.125 15.9375,17.1875 16,17.25 15.875,17.125 Q 15.75,17 15.5,17 l -0.25,0 0.375,0 0.375,0 -0.5,0 Q 15,17 15,16.5 m 0,-0.625 0,0.125 0,0.375 0,0.375 0,-0.25 q 0,-0.25 0,-0.5 l 0,-0.25 0,0.125"
           id="path69315"
           inkscape:connector-curvature="0" />
        <path
           style="fill:#e0f6fd;fill-opacity:1"
           d="M 15.8125,16.6875 15.75,16.25 15.84375,16.53125 15.9375,16.8125 15.875,16.625 q -0.0625,-0.1875 -0.1875,-0.3125 l -0.125,-0.125 0.0625,0.0625 0.0625,0.0625 0.28125,-0.28125 L 16.25,15.75 16.5,16 q 0.25,0.25 0.375,0.625 L 17,17 16.4375,17.0625 15.875,17.125 15.8125,16.6875 M 16.625,17 17,17 17.125,17 17.25,17 17,17 q -0.25,0 -0.5,0 l -0.25,0 0.375,0 M 16.4375,15.9375 16.25,15.75 16.1875,15.6875 16.125,15.625 16.25,15.75 q 0.125,0.125 0.25,0.25 l 0.125,0.125 -0.1875,-0.1875"
           id="path69317"
           inkscape:connector-curvature="0" />
        <path
           style="fill:#f3fbfe;fill-opacity:1"
           d="M 18,16.5 18,16 18.375,15.875 18.75,15.75 18.46875,15.84375 18.1875,15.9375 18.375,15.875 q 0.1875,-0.0625 0.3125,-0.1875 l 0.125,-0.125 L 18.75,15.625 18.6875,15.6875 19,16 l 0.3125,0.3125 0.0625,-0.0625 0.0625,-0.0625 -0.125,0.125 q -0.125,0.125 -0.1875,0.3125 L 19.0625,16.8125 19.15625,16.53125 19.25,16.25 19.125,16.625 19,17 18.5,17 18,17 18,16.5"
           id="path69319"
           inkscape:connector-curvature="0" />
        <path
           style="fill:#cdfef2;fill-opacity:1"
           d="m 19.125,16.625 q 0.125,-0.375 0.5,-0.5 L 20,16 l 0,0.5 0,0.5 0,-0.375 0,-0.375 0,0.25 q 0,0.25 -0.03125,0.46875 L 19.9375,17.1875 19.95313,17.078125 19.96876,16.96875 19.484385,16.98438 19,17 19.125,16.625"
           id="path69321"
           inkscape:connector-curvature="0" />
        <path
           style="fill:#253124;fill-opacity:0.92941176"
           d="M 20,16.5 20,16 20.375,15.875 20.75,15.75 20.46875,15.84375 20.1875,15.9375 20.375,15.875 q 0.1875,-0.0625 0.28125,-0.15625 L 20.75,15.625 l -0.04687,0.04687 -0.04687,0.04687 0.296875,0.265625 Q 21.25,16.25 21.125,16.625 L 21,17 20.5,17 20,17 20,16.5"
           id="path69323"
           inkscape:connector-curvature="0" />
        <path
           style="fill:#000000;fill-opacity:0.03137255"
           d="M 1,17.5 1,17 1.375,17.125 q 0.375,0.125 0.5,0.5 L 2,18 1.5,18 Q 1,18 1,17.5"
           id="path69325"
           inkscape:connector-curvature="0" />
        <path
           style="fill:#171811;fill-opacity:0.85882353"
           d="M 1.875,17.625 1.75,17.25 1.84375,17.53125 1.9375,17.8125 1.875,17.625 Q 1.8125,17.4375 1.6875,17.3125 L 1.5625,17.1875 1.625,17.25 1.6875,17.3125 2,17 2.3125,16.6875 2.25,16.625 2.1875,16.5625 l 0.125,0.125 q 0.125,0.125 0.3125,0.1875 L 2.8125,16.9375 2.53125,16.84375 2.25,16.75 2.625,16.875 3,17 3.125,17.375 3.25,17.75 3.15625,17.46875 3.0625,17.1875 3.125,17.375 q 0.0625,0.1875 0.1875,0.3125 l 0.125,0.125 L 3.375,17.75 3.3125,17.6875 3,18 2.6875,18.3125 2.75,18.375 2.8125,18.4375 2.6875,18.3125 Q 2.5625,18.1875 2.375,18.125 L 2.1875,18.0625 2.46875,18.15625 2.75,18.25 2.375,18.125 2,18 1.875,17.625"
           id="path69327"
           inkscape:connector-curvature="0" />
        <path
           style="fill:#a8c4cc;fill-opacity:1"
           d="M 3.125,17.375 3,17 3.5,17 4,17 4.015625,17.484375 4.03125,17.96875 4.140625,17.984375 4.25,18 4.03125,17.96875 Q 3.8125,17.9375 3.625,17.875 L 3.4375,17.8125 3.71875,17.90625 4,18 3.625,17.875 q -0.375,-0.125 -0.5,-0.5"
           id="path69329"
           inkscape:connector-curvature="0" />
        <path
           style="fill:#d3f4ff;fill-opacity:1"
           d="M 4.015625,17.484375 4,17 4.5,17 q 0.5,0 1,0 L 6,17 5.984375,17.484375 5.96875,17.96875 6.078125,17.953125 6.1875,17.9375 5.96875,17.96875 Q 5.75,18 5.5,18 L 5.25,18 5.625,18 6,18 5.5,18 5,18 4.5,18 4,18 4.375,18 4.75,18 4.5,18 Q 4.25,18 4.03125,17.96875 L 3.8125,17.9375 3.921875,17.953125 4.03125,17.96875 4.015625,17.484375"
           id="path69331"
           inkscape:connector-curvature="0" />
        <path
           style="fill:#afd4d9;fill-opacity:1"
           d="M 5.984375,17.484375 6,17 6.375,16.875 6.75,16.75 6.46875,16.84375 6.1875,16.9375 6.375,16.875 Q 6.5625,16.8125 6.71875,16.71875 L 6.875,16.625 6.796875,16.671875 6.71875,16.71875 6.984375,16.984375 7.25,17.25 7,17.5 Q 6.75,17.75 6.375,17.875 L 6,18 6.28125,17.90625 6.5625,17.8125 6.375,17.875 Q 6.1875,17.9375 5.96875,17.96875 L 5.75,18 5.859375,17.984375 5.96875,17.96875 5.984375,17.484375 M 7.0625,17.4375 7.25,17.25 7.3125,17.1875 7.375,17.125 7.25,17.25 Q 7.125,17.375 7,17.5 l -0.125,0.125 0.1875,-0.1875"
           id="path69333"
           inkscape:connector-curvature="0" />
        <path
           style="fill:#222821;fill-opacity:0.93333333"
           d="M 7,17.5 Q 7.25,17.25 7.5,17 L 7.75,16.75 7.5625,16.9375 7.375,17.125 7.5,17 Q 7.625,16.875 7.71875,16.71875 L 7.8125,16.5625 7.765625,16.640625 7.71875,16.71875 8.015625,17.015625 8.3125,17.3125 8.375,17.25 8.4375,17.1875 8.3125,17.3125 Q 8.1875,17.4375 8.125,17.625 L 8.0625,17.8125 8.15625,17.53125 8.25,17.25 8.125,17.625 8,18 7.625,18.125 7.25,18.25 7.53125,18.15625 7.8125,18.0625 7.625,18.125 Q 7.4375,18.1875 7.3125,18.3125 L 7.1875,18.4375 7.25,18.375 7.3125,18.3125 7.015625,18.015625 6.71875,17.71875 6.640625,17.765625 6.5625,17.8125 6.71875,17.71875 Q 6.875,17.625 7,17.5 L 7.125,17.375 6.9375,17.5625 6.75,17.75 7,17.5"
           id="path69335"
           inkscape:connector-curvature="0" />
        <path
           style="fill:#000000;fill-opacity:0.0745098"
           d="m 8.125,17.625 q 0.125,-0.375 0.5,-0.5 L 9,17 9,17.5 Q 9,18 8.5,18 L 8,18 8.125,17.625"
           id="path69337"
           inkscape:connector-curvature="0" />
        <path
           style="fill:#000000;fill-opacity:0.05490196"
           d="m 11,17.5 0,-0.5 0.5,0 0.5,0 0,0.5 Q 12,18 11.5,18 11,18 11,17.5"
           id="path69339"
           inkscape:connector-curvature="0" />
        <path
           style="fill:#000000;fill-opacity:0.38039216"
           d="M 14,17.5 14,17 14.5625,16.9375 15.125,16.875 15.1875,17.3125 15.25,17.75 15.15625,17.46875 15.0625,17.1875 15.125,17.375 q 0.0625,0.1875 0.1875,0.3125 l 0.125,0.125 L 15.375,17.75 15.3125,17.6875 15,18 l -0.3125,0.3125 0.0625,0.0625 0.0625,0.0625 -0.125,-0.125 Q 14.5625,18.1875 14.375,18.125 L 14.1875,18.0625 14.46875,18.15625 14.75,18.25 14.375,18.125 Q 14,18 14,17.5"
           id="path69341"
           inkscape:connector-curvature="0" />
        <path
           style="fill:#4c685e;fill-opacity:0.99607843"
           d="M 15.1875,17.3125 15.125,16.875 15.0625,16.8125 15,16.75 15.125,16.875 Q 15.25,17 15.5,17 l 0.25,0 -0.375,0 -0.375,0 0.5,0 q 0.5,0 0.5,0.5 l 0,0.5 0,-0.375 0,-0.375 0,0.25 q 0,0.25 0.125,0.375 L 16.25,18 16.1875,17.9375 16.125,17.875 15.6875,17.8125 q -0.4375,-0.0625 -0.5,-0.5"
           id="path69343"
           inkscape:connector-curvature="0" />
        <path
           style="fill:#b4f8ec;fill-opacity:1"
           d="m 16,17.5 0,-0.5 0,0.375 0,0.375 0,-0.25 q 0,-0.25 -0.125,-0.375 L 15.75,17 15.8125,17.0625 15.875,17.125 16.4375,17.0625 17,17 l 0,0.5 0,0.5 -0.5,0 Q 16,18 16,17.5 M 16.625,18 17,18 17.125,18 17.25,18 17,18 q -0.25,0 -0.5,0 l -0.25,0 0.375,0"
           id="path69345"
           inkscape:connector-curvature="0" />
        <path
           style="fill:#c3fffc;fill-opacity:1"
           d="m 17,17.5 0,-0.5 0.5,0 0.5,0 0,0.5 0,0.5 -0.5,0 -0.5,0 0,-0.5 M 16.875,18 17,18 l 0.375,0 0.375,0 -0.25,0 q -0.25,0 -0.5,0 l -0.25,0 0.125,0 m 0.75,0 0.375,0 0.125,0 0.125,0 -0.25,0 q -0.25,0 -0.5,0 l -0.25,0 0.375,0 m 0.5,-1 -0.125,0 -0.375,0 -0.375,0 0.25,0 q 0.25,0 0.5,0 l 0.25,0 -0.125,0"
           id="path69347"
           inkscape:connector-curvature="0" />
        <path
           style="fill:#affee5;fill-opacity:1"
           d="m 18,17.5 0,-0.5 0.5,0 0.5,0 0,0.5 0,0.5 -0.5,0 -0.5,0 0,-0.5 M 17.875,18 18,18 l 0.375,0 0.375,0 -0.25,0 q -0.25,0 -0.5,0 l -0.25,0 0.125,0 m 0.5,-1 L 18,17 17.875,17 17.75,17 18,17 q 0.25,0 0.5,0 l 0.25,0 -0.375,0"
           id="path69349"
           inkscape:connector-curvature="0" />
        <path
           style="fill:#578c6e;fill-opacity:1"
           d="M 19,17.5 19,17 19.484375,16.98437 19.96875,16.96874 19.98438,16.859365 20,16.75 19.96875,16.96875 Q 19.9375,17.1875 19.875,17.375 L 19.8125,17.5625 19.90625,17.28125 20,17 19.875,17.375 q -0.125,0.375 -0.5,0.5 L 19,18 19,17.5"
           id="path69351"
           inkscape:connector-curvature="0" />
        <path
           style="fill:#020000;fill-opacity:0.53333327"
           d="M 19.875,17.375 20,17 l 0.5,0 0.5,0 0,0.5 q 0,0.5 -0.375,0.625 L 20.25,18.25 20.53125,18.15625 20.8125,18.0625 20.625,18.125 q -0.1875,0.0625 -0.3125,0.1875 l -0.125,0.125 L 20.25,18.375 20.3125,18.3125 20,18 19.6875,17.6875 19.625,17.75 l -0.0625,0.0625 0.125,-0.125 q 0.125,-0.125 0.1875,-0.3125 L 19.9375,17.1875 19.84375,17.46875 19.75,17.75 19.875,17.375"
           id="path69353"
           inkscape:connector-curvature="0" />
        <path
           style="fill:#000000;fill-opacity:0.14901961"
           d="M 2,18.5 2,18 2.375,18.125 q 0.375,0.125 0.5,0.5 L 3,19 2.5,19 Q 2,19 2,18.5"
           id="path69355"
           inkscape:connector-curvature="0" />
        <path
           style="fill:#0b0b07;fill-opacity:0.76078431"
           d="M 2.875,18.625 2.75,18.25 2.84375,18.53125 2.9375,18.8125 2.875,18.625 Q 2.8125,18.4375 2.6875,18.3125 L 2.5625,18.1875 2.625,18.25 2.6875,18.3125 3,18 3.3125,17.6875 3.25,17.625 3.1875,17.5625 l 0.125,0.125 q 0.125,0.125 0.3125,0.1875 L 3.8125,17.9375 3.53125,17.84375 3.25,17.75 3.625,17.875 4,18 3.71875,17.90625 3.4375,17.8125 3.625,17.875 q 0.1875,0.0625 0.40625,0.09375 L 4.25,18 4.140625,17.984375 4.03125,17.96875 4.140625,18.359375 4.25,18.75 4.15625,18.46875 4.0625,18.1875 4.125,18.375 q 0.0625,0.1875 0.1875,0.3125 l 0.125,0.125 L 4.375,18.75 4.3125,18.6875 4.03125,18.96875 Q 3.75,19.25 3.375,19.125 L 3,19 2.875,18.625"
           id="path69357"
           inkscape:connector-curvature="0" />
        <path
           style="fill:#404942;fill-opacity:0.94901961"
           d="M 4.140625,18.359375 4.03125,17.96875 3.921875,17.953125 3.8125,17.9375 4.03125,17.96875 Q 4.25,18 4.5,18 L 4.75,18 4.375,18 4,18 4.5,18 5,18 5,18.5 5,19 4.625,18.875 Q 4.25,18.75 4.140625,18.359375"
           id="path69359"
           inkscape:connector-curvature="0" />
        <path
           style="fill:#425247;fill-opacity:0.95686275"
           d="M 5,18.5 5,18 5.5,18 6,18 5.625,18 5.25,18 5.5,18 q 0.25,0 0.46875,-0.03125 L 6.1875,17.9375 6.078125,17.953125 5.96875,17.96875 5.859375,18.359375 Q 5.75,18.75 5.375,18.875 L 5,19 5,18.5"
           id="path69361"
           inkscape:connector-curvature="0" />
        <path
           style="fill:#10120d;fill-opacity:0.8"
           d="M 5.859375,18.359375 5.96875,17.96875 5.859375,17.984375 5.75,18 5.96875,17.96875 Q 6.1875,17.9375 6.375,17.875 L 6.5625,17.8125 6.28125,17.90625 6,18 6.375,17.875 6.75,17.75 6.46875,17.84375 6.1875,17.9375 6.375,17.875 Q 6.5625,17.8125 6.71875,17.71875 L 6.875,17.625 6.796875,17.671875 6.71875,17.71875 7.015625,18.015625 7.3125,18.3125 7.375,18.25 7.4375,18.1875 7.3125,18.3125 Q 7.1875,18.4375 7.125,18.625 L 7.0625,18.8125 7.15625,18.53125 7.25,18.25 7.125,18.625 7,19 6.625,19.125 Q 6.25,19.25 5.96875,18.96875 L 5.6875,18.6875 5.625,18.75 5.5625,18.8125 5.6875,18.6875 Q 5.8125,18.5625 5.875,18.375 L 5.9375,18.1875 5.84375,18.46875 5.75,18.75 5.859375,18.359375"
           id="path69363"
           inkscape:connector-curvature="0" />
        <path
           style="fill:#000000;fill-opacity:0.21960784"
           d="m 7.125,18.625 q 0.125,-0.375 0.5,-0.5 L 8,18 8,18.5 Q 8,19 7.5,19 L 7,19 7.125,18.625"
           id="path69365"
           inkscape:connector-curvature="0" />
        <path
           style="fill:#000000;fill-opacity:0.4627451"
           d="M 14.875,18.625 14.75,18.25 14.84375,18.53125 14.9375,18.8125 14.875,18.625 q -0.0625,-0.1875 -0.1875,-0.3125 l -0.125,-0.125 0.0625,0.0625 0.0625,0.0625 L 15,18 15.3125,17.6875 15.25,17.625 l -0.0625,-0.0625 0.125,0.125 q 0.125,0.125 0.3125,0.1875 L 15.8125,17.9375 15.53125,17.84375 15.25,17.75 15.6875,17.8125 16.125,17.875 16.0625,18.4375 16,19 15.5,19 Q 15,19 14.875,18.625"
           id="path69367"
           inkscape:connector-curvature="0" />
        <path
           style="fill:#222b1a;fill-opacity:0.89411765"
           d="M 16.0625,18.4375 16.125,17.875 16.0625,17.8125 16,17.75 16.125,17.875 Q 16.25,18 16.5,18 l 0.25,0 -0.375,0 -0.375,0 0.5,0 0.5,0 0.125,0.375 0.125,0.375 -0.09375,-0.28125 -0.09375,-0.28125 0.0625,0.1875 q 0.0625,0.1875 0.1875,0.3125 l 0.125,0.125 L 17.375,18.75 17.3125,18.6875 17.03125,18.96875 Q 16.75,19.25 16.375,19.125 L 16,19 16.0625,18.4375 M 17.125,18 17,18 l -0.375,0 -0.375,0 0.25,0 q 0.25,0 0.5,0 l 0.25,0 -0.125,0"
           id="path69369"
           inkscape:connector-curvature="0" />
        <path
           style="fill:#3f573f;fill-opacity:0.96078431"
           d="M 17.125,18.375 17,18 l 0.5,0 0.5,0 0,0.5 0,0.5 -0.375,-0.125 q -0.375,-0.125 -0.5,-0.5 m 1,-0.375 -0.125,0 -0.375,0 -0.375,0 0.25,0 q 0.25,0 0.5,0 l 0.25,0 -0.125,0 M 17.375,18 17,18 16.875,18 16.75,18 17,18 q 0.25,0 0.5,0 l 0.25,0 -0.375,0"
           id="path69371"
           inkscape:connector-curvature="0" />
        <path
           style="fill:#28351f;fill-opacity:0.91372549"
           d="m 18,18.5 0,-0.5 0.5,0 0.5,0 -0.125,0.375 q -0.125,0.375 -0.5,0.5 L 18,19 18,18.5 M 18.375,18 18,18 17.875,18 17.75,18 18,18 q 0.25,0 0.5,0 l 0.25,0 -0.375,0"
           id="path69373"
           inkscape:connector-curvature="0" />
        <path
           style="fill:#000000;fill-opacity:0.57647059"
           d="M 18.875,18.375 19,18 19.375,17.875 19.75,17.75 19.46875,17.84375 19.1875,17.9375 19.375,17.875 q 0.1875,-0.0625 0.3125,-0.1875 l 0.125,-0.125 L 19.75,17.625 19.6875,17.6875 20,18 l 0.3125,0.3125 0.0625,-0.0625 0.0625,-0.0625 -0.125,0.125 q -0.125,0.125 -0.1875,0.3125 L 20.0625,18.8125 20.15625,18.53125 20.25,18.25 20.125,18.625 Q 20,19 19.625,19.125 19.25,19.25 18.96875,18.96875 L 18.6875,18.6875 18.625,18.75 l -0.0625,0.0625 0.125,-0.125 q 0.125,-0.125 0.1875,-0.3125 L 18.9375,18.1875 18.84375,18.46875 18.75,18.75 18.875,18.375"
           id="path69375"
           inkscape:connector-curvature="0" />
      </g>
    </g>
  </g>
</svg>
