<?xml version="1.0" encoding="UTF-8" standalone="no"?>
<!-- Created with Inkscape (http://www.inkscape.org/) -->

<svg
   xmlns:dc="http://purl.org/dc/elements/1.1/"
   xmlns:cc="http://creativecommons.org/ns#"
   xmlns:rdf="http://www.w3.org/1999/02/22-rdf-syntax-ns#"
   xmlns:svg="http://www.w3.org/2000/svg"
   xmlns="http://www.w3.org/2000/svg"
   xmlns:sodipodi="http://sodipodi.sourceforge.net/DTD/sodipodi-0.dtd"
   xmlns:inkscape="http://www.inkscape.org/namespaces/inkscape"
   width="20"
   height="20"
   viewBox="0 0 20 20"
   id="svg3347"
   version="1.1"
   inkscape:version="0.91 r13725"
   sodipodi:docname="Civ5Icon.Bullet.svg">
  <defs
     id="defs3349" />
  <sodipodi:namedview
     id="base"
     pagecolor="#ffffff"
     bordercolor="#666666"
     borderopacity="1.0"
     inkscape:pageopacity="0.0"
     inkscape:pageshadow="2"
     inkscape:zoom="11.2"
     inkscape:cx="13.251856"
     inkscape:cy="8.3638322"
     inkscape:document-units="px"
     inkscape:current-layer="layer1"
     showgrid="false"
     units="px"
     inkscape:window-width="958"
     inkscape:window-height="1048"
     inkscape:window-x="953"
     inkscape:window-y="0"
     inkscape:window-maximized="0" />
  <metadata
     id="metadata3352">
    <rdf:RDF>
      <cc:Work
         rdf:about="">
        <dc:format>image/svg+xml</dc:format>
        <dc:type
           rdf:resource="http://purl.org/dc/dcmitype/StillImage" />
        <dc:title></dc:title>
      </cc:Work>
    </rdf:RDF>
  </metadata>
  <g
     inkscape:label="Layer 1"
     inkscape:groupmode="layer"
     id="layer1"
     transform="translate(0,-1032.3622)">
    <g
       transform="translate(-0.49107159,1031.6031)"
       id="g11229">
      <path
         style="fill:#000000;fill-opacity:0"
         d="M 0,0.5 0,0 0.5,0 1,0 1.5,0 2,0 2.5,0 3,0 3.5,0 4,0 4.5,0 5,0 5.5,0 6,0 6.5,0 7,0 7.5,0 8,0 8.5,0 9,0 9.5,0 10,0 l 0.5,0 0.5,0 0.5,0 0.5,0 0.5,0 0.5,0 0.5,0 0.5,0 0.5,0 0.5,0 0.5,0 0.5,0 0.5,0 0.5,0 0.5,0 0.5,0 0.5,0 0.5,0 0.5,0 0.5,0 0.5,0 0.5,0 0.5,0 0.5,0 0,0.5 0,0.5 0,0.5 0,0.5 0,0.5 0,0.5 0,0.5 0,0.5 0,0.5 0,0.5 0,0.5 0,0.5 0,0.5 0,0.5 0,0.5 0,0.5 0,0.5 0,0.5 0,0.5 0,0.5 0,0.5 0,0.5 0,0.5 0,0.5 0,0.5 0,0.5 0,0.5 0,0.5 0,0.5 0,0.5 0,0.5 0,0.5 0,0.5 0,0.5 0,0.5 0,0.5 0,0.5 0,0.5 0,0.5 0,0.5 0,0.5 0,0.5 0,0.5 0,0.5 -0.5,0 L 21,22 20.5,22 20,22 19.5,22 19,22 18.5,22 18,22 17.5,22 17,22 16.5,22 16,22 15.5,22 15,22 14.5,22 14,22 13.5,22 13,22 12.5,22 12,22 11.5,22 11,22 10.5,22 10,22 9.5,22 9,22 8.5,22 8,22 7.5,22 7,22 6.5,22 6,22 5.5,22 5,22 4.5,22 4,22 3.5,22 3,22 2.5,22 2,22 1.5,22 1,22 0.5,22 0,22 0,21.5 0,21 0,20.5 0,20 0,19.5 0,19 0,18.5 0,18 0,17.5 0,17 0,16.5 0,16 0,15.5 0,15 0,14.5 0,14 0,13.5 0,13 0,12.5 0,12 0,11.5 0,11 0,10.5 0,10 0,9.5 0,9 0,8.5 0,8 0,7.5 0,7 0,6.5 0,6 0,5.5 0,5 0,4.5 0,4 0,3.5 0,3 0,2.5 0,2 0,1.5 0,1 0,0.5 M 13.5,15 Q 14,15 14,14.5 l 0,-0.5 0.5,0 Q 15,14 15,13.5 L 15,13 15,12.5 15,12 15,11.5 15,11 15,10.5 Q 15,10 14.5,10 L 14,10 14,9.5 Q 14,9 13.453125,9.046875 L 12.90625,9.09375 12.828125,8.671875 q -0.07813,-0.421875 -0.5,-0.5 L 11.90625,8.09375 11.984375,8.140625 12.0625,8.1875 11.90625,8.09375 Q 11.75,8 11.5,8 L 11.25,8 11.625,8 12,8 11.5,8 11,8 10.5,8 10,8 9.5,8 Q 9,8 8.625,8.125 8.25,8.25 8.125,8.625 L 8,9 7.5,9 Q 7,9 6.875,9.375 6.75,9.75 7.03125,10.03125 L 7.3125,10.3125 7.375,10.25 7.4375,10.1875 7.3125,10.3125 Q 7.1875,10.4375 7.125,10.625 L 7.0625,10.8125 7.15625,10.53125 7.25,10.25 7.125,10.625 Q 7,11 7,11.5 l 0,0.5 0.125,0.375 q 0.125,0.375 0.5,0.5 L 8,13 8.125,13.375 q 0.125,0.375 0.5,0.5 L 9,14 9,14.5 Q 9,15 9.5,15 l 0.5,0 0.5,0 0.5,0 0.5,0 0.5,0 0.5,0 0.5,0 0.5,0"
         id="path11231"
         inkscape:connector-curvature="0" />
      <path
         style="fill:#818172;fill-opacity:0.4745098"
         d="M 8.125,8.625 Q 8.25,8.25 8.625,8.125 L 9,8 8.71875,8.09375 8.4375,8.1875 8.625,8.125 Q 8.8125,8.0625 9.03125,8.03125 L 9.25,8 9.140625,8.015625 9.03125,8.03125 9.015625,8.515625 Q 9,9 8.515625,9.015625 L 8.03125,9.03125 8.015625,9.140625 8,9.25 8.03125,9.03125 Q 8.0625,8.8125 8.125,8.625 L 8.1875,8.4375 8.09375,8.71875 8,9 8.125,8.625"
         id="path11233"
         inkscape:connector-curvature="0" />
      <path
         style="fill:#e9e9e3;fill-opacity:0.91372549"
         d="M 9.015625,8.515625 9.03125,8.03125 8.921875,8.046875 8.8125,8.0625 9.03125,8.03125 Q 9.25,8 9.5,8 L 9.75,8 9.375,8 9,8 9.5,8 10,8 10,8.5 10,9 9.4375,8.9375 8.875,8.875 8.8125,8.9375 8.75,9 8.875,8.875 Q 9,8.75 9,8.5 L 9,8.25 9,8.625 9,9 9.015625,8.515625"
         id="path11235"
         inkscape:connector-curvature="0" />
      <path
         style="fill:#f4f4f0;fill-opacity:1"
         d="M 10,8.5 10,8 10.5,8 11,8 11.125,8.375 11.25,8.75 11.15625,8.46875 11.0625,8.1875 11.125,8.375 q 0.0625,0.1875 0.15625,0.34375 L 11.375,8.875 11.328125,8.796875 11.28125,8.71875 11.015625,8.984375 Q 10.75,9.25 10.375,9.125 L 10,9 10,8.5"
         id="path11237"
         inkscape:connector-curvature="0" />
      <path
         style="fill:#dbdbca;fill-opacity:0.87058824"
         d="M 11.125,8.375 11,8 11.5,8 Q 12,8 12.125,8.375 L 12.25,8.75 12.15625,8.46875 12.0625,8.1875 12.125,8.375 q 0.0625,0.1875 0.1875,0.3125 l 0.125,0.125 L 12.375,8.75 12.3125,8.6875 12.015625,8.984375 11.71875,9.28125 11.765625,9.359375 11.8125,9.4375 11.71875,9.28125 Q 11.625,9.125 11.5,9 L 11.375,8.875 11.5625,9.0625 11.75,9.25 11.5,9 Q 11.25,8.75 11.125,8.375"
         id="path11239"
         inkscape:connector-curvature="0" />
      <path
         style="fill:#4d4d42;fill-opacity:0.34901961"
         d="M 12.125,8.375 12,8 12.09375,8.28125 12.1875,8.5625 12.125,8.375 Q 12.0625,8.1875 11.90625,8.09375 L 11.75,8 l 0.07813,0.046875 0.07813,0.046875 0.421875,0.078125 q 0.421875,0.078125 0.5,0.5 L 12.90625,9.09375 12.953125,9.171875 13,9.25 12.90625,9.09375 Q 12.8125,8.9375 12.625,8.875 L 12.4375,8.8125 12.71875,8.90625 13,9 12.625,8.875 q -0.375,-0.125 -0.5,-0.5"
         id="path11241"
         inkscape:connector-curvature="0" />
      <path
         style="fill:#313128;fill-opacity:0.3254902"
         d="M 6.875,9.375 Q 7,9 7.5,9 L 8,9 8,9.5 8,10 7.625,10.125 7.25,10.25 7.53125,10.15625 7.8125,10.0625 7.625,10.125 Q 7.4375,10.1875 7.3125,10.3125 L 7.1875,10.4375 7.25,10.375 7.3125,10.3125 7.03125,10.03125 Q 6.75,9.75 6.875,9.375"
         id="path11243"
         inkscape:connector-curvature="0" />
      <path
         style="fill:#f2f2d9;fill-opacity:1"
         d="M 8,9.5 8,9 8,9.375 8,9.75 8,9.5 Q 8,9.25 8.03125,9.03125 L 8.0625,8.8125 8.046875,8.921875 8.03125,9.03125 8.515625,9.015625 9,9 8.625,9 8.25,9 8.5,9 Q 8.75,9 8.875,8.875 L 9,8.75 8.9375,8.8125 8.875,8.875 9.0625,9.3125 9.25,9.75 9.15625,9.46875 9.0625,9.1875 9.125,9.375 Q 9.1875,9.5625 9.28125,9.71875 L 9.375,9.875 9.328125,9.796875 9.28125,9.71875 9,10 8.71875,10.28125 8.796875,10.328125 8.875,10.375 8.71875,10.28125 Q 8.5625,10.1875 8.375,10.125 L 8.1875,10.0625 8.46875,10.15625 8.75,10.25 8.375,10.125 8,10 8,9.5"
         id="path11245"
         inkscape:connector-curvature="0" />
      <path
         style="fill:#ffffff;fill-opacity:1"
         d="M 9.0625,9.3125 8.875,8.875 9.4375,8.9375 10,9 10.375,9.125 Q 10.75,9.25 11.015625,8.984375 L 11.28125,8.71875 11.234375,8.640625 11.1875,8.5625 11.28125,8.71875 Q 11.375,8.875 11.5,9 L 11.625,9.125 11.4375,8.9375 11.25,8.75 11.5,9 q 0.25,0.25 0.375,0.625 L 12,10 11.5,10 11,10 10.625,9.875 Q 10.25,9.75 10,10 L 9.75,10.25 9.5,10 Q 9.25,9.75 9.0625,9.3125 m 0.5,0.75 L 9.75,10.25 9.8125,10.3125 9.875,10.375 9.75,10.25 Q 9.625,10.125 9.5,10 L 9.375,9.875 9.5625,10.0625"
         id="path11247"
         inkscape:connector-curvature="0" />
      <path
         style="fill:#e0e0cc;fill-opacity:0.98431373"
         d="M 11.875,9.625 11.75,9.25 11.84375,9.53125 11.9375,9.8125 11.875,9.625 Q 11.8125,9.4375 11.71875,9.28125 L 11.625,9.125 11.671875,9.203125 11.71875,9.28125 12.015625,8.984375 12.3125,8.6875 12.25,8.625 12.1875,8.5625 l 0.125,0.125 q 0.125,0.125 0.3125,0.1875 L 12.8125,8.9375 12.53125,8.84375 12.25,8.75 12.625,8.875 Q 13,9 13,9.5 L 13,10 12.5,10 12,10 11.875,9.625"
         id="path11249"
         inkscape:connector-curvature="0" />
      <path
         style="fill:#12150f;fill-opacity:0.33333333"
         d="M 13,9.5 13,9 13,9.375 13,9.75 13,9.5 Q 13,9.25 12.90625,9.09375 L 12.8125,8.9375 12.859375,9.015625 12.90625,9.09375 13.453125,9.046875 Q 14,9 14,9.5 l 0,0.5 -0.5,0 -0.5,0 0,-0.5"
         id="path11251"
         inkscape:connector-curvature="0" />
      <path
         style="fill:#53584f;fill-opacity:0.63529412"
         d="m 7.125,10.625 q 0.125,-0.375 0.5,-0.5 L 8,10 8,10.5 8,11 7.515625,11.015625 7.03125,11.03125 7.015625,11.140625 7,11.25 7.03125,11.03125 Q 7.0625,10.8125 7.125,10.625 L 7.1875,10.4375 7.09375,10.71875 7,11 7.125,10.625"
         id="path11253"
         inkscape:connector-curvature="0" />
      <path
         style="fill:#d9d9b8;fill-opacity:1"
         d="M 8,10.5 8,10 8.375,10.125 Q 8.75,10.25 9,10.5 L 9.25,10.75 8.96875,11.03125 8.6875,11.3125 8.75,11.375 8.8125,11.4375 8.6875,11.3125 Q 8.5625,11.1875 8.375,11.125 L 8.1875,11.0625 8.46875,11.15625 8.75,11.25 8.375,11.125 8,11 8,10.5 M 9.3125,10.8125 9.25,10.75 9.0625,10.5625 8.875,10.375 9,10.5 q 0.125,0.125 0.25,0.25 l 0.125,0.125 -0.0625,-0.0625"
         id="path11255"
         inkscape:connector-curvature="0" />
      <path
         style="fill:#fbfbe6;fill-opacity:1"
         d="M 9,10.5 8.75,10.25 8.9375,10.4375 9.125,10.625 9,10.5 Q 8.875,10.375 8.71875,10.28125 L 8.5625,10.1875 8.640625,10.234375 8.71875,10.28125 9,10 9.28125,9.71875 9.234375,9.640625 9.1875,9.5625 9.28125,9.71875 Q 9.375,9.875 9.5,10 L 9.625,10.125 9.4375,9.9375 9.25,9.75 9.5,10 q 0.25,0.25 0.5,0.5 L 10.25,10.75 10.0625,10.5625 9.875,10.375 10,10.5 q 0.125,0.125 0.28125,0.21875 L 10.4375,10.8125 10.359375,10.765625 10.28125,10.71875 10,11 9.71875,11.28125 9.765625,11.359375 9.8125,11.4375 9.71875,11.28125 Q 9.625,11.125 9.5,11 L 9.375,10.875 9.5625,11.0625 9.75,11.25 9.5,11 Q 9.25,10.75 9,10.5"
         id="path11257"
         inkscape:connector-curvature="0" />
      <path
         style="fill:#fffff8;fill-opacity:1"
         d="M 10,10.5 9.75,10.25 10,10 Q 10.25,9.75 10.625,9.875 L 11,10 11,10.5 11,11 10.625,10.875 Q 10.25,10.75 10,10.5 M 9.6875,10.1875 9.75,10.25 9.9375,10.4375 10.125,10.625 10,10.5 Q 9.875,10.375 9.75,10.25 l -0.125,-0.125 0.0625,0.0625"
         id="path11259"
         inkscape:connector-curvature="0" />
      <path
         style="fill:#fffffb;fill-opacity:1"
         d="m 11,10.5 0,-0.5 0.5,0 0.5,0 -0.125,0.375 q -0.125,0.375 -0.5,0.5 L 11,11 11,10.5"
         id="path11261"
         inkscape:connector-curvature="0" />
      <path
         style="fill:#f5f5dd;fill-opacity:1"
         d="M 11.875,10.375 12,10 l 0.5,0 0.5,0 0,0.5 0,0.5 0,-0.375 0,-0.375 0,0.25 q 0,0.25 -0.03125,0.46875 L 12.9375,11.1875 12.953125,11.078125 12.96875,10.96875 12.609375,11.109375 12.25,11.25 12.53125,11.15625 12.8125,11.0625 12.625,11.125 q -0.1875,0.0625 -0.3125,0.1875 l -0.125,0.125 L 12.25,11.375 12.3125,11.3125 12,11 11.6875,10.6875 11.625,10.75 l -0.0625,0.0625 0.125,-0.125 q 0.125,-0.125 0.1875,-0.3125 L 11.9375,10.1875 11.84375,10.46875 11.75,10.75 11.875,10.375"
         id="path11263"
         inkscape:connector-curvature="0" />
      <path
         style="fill:#323229;fill-opacity:0.7254902"
         d="m 13,10.5 0,-0.5 0.5,0 0.5,0 0,0.5 0,0.5 -0.515625,-0.01563 -0.515625,-0.01563 -0.01563,0.109375 -0.01563,0.109375 0.03125,-0.21875 Q 13,10.75 13,10.5 l 0,-0.25 0,0.375 0,0.375 0,-0.5"
         id="path11265"
         inkscape:connector-curvature="0" />
      <path
         style="fill:#000000;fill-opacity:0.09803922"
         d="m 14,10.5 0,-0.5 0.5,0 q 0.5,0 0.5,0.5 l 0,0.5 -0.5,0 -0.5,0 0,-0.5"
         id="path11267"
         inkscape:connector-curvature="0" />
      <path
         style="fill:#3b4e4e;fill-opacity:0.58039216"
         d="M 7,11.5 7,11 7,11.375 7,11.75 7,11.5 Q 7,11.25 7.03125,11.03125 L 7.0625,10.8125 7.046875,10.921875 7.03125,11.03125 7.515625,11.015625 8,11 8,11.5 8,12 7.5,12 7,12 7,11.5"
         id="path11269"
         inkscape:connector-curvature="0" />
      <path
         style="fill:#8e9585;fill-opacity:1"
         d="M 8,11.5 8,11 8.375,11.125 q 0.375,0.125 0.5,0.5 L 9,12 8.5,12 8,12 8,11.5 M 8,11.625 8,12 8,12.125 8,12.25 8,12 q 0,-0.25 0,-0.5 l 0,-0.25 0,0.375"
         id="path11271"
         inkscape:connector-curvature="0" />
      <path
         style="fill:#bfbe9c;fill-opacity:1"
         d="M 8.875,11.625 8.75,11.25 8.84375,11.53125 8.9375,11.8125 8.875,11.625 Q 8.8125,11.4375 8.6875,11.3125 L 8.5625,11.1875 8.625,11.25 8.6875,11.3125 8.96875,11.03125 9.25,10.75 9.5,11 q 0.25,0.25 0.375,0.625 L 10,12 9.5,12 9,12 8.875,11.625 M 9.4375,10.9375 9.25,10.75 9.1875,10.6875 9.125,10.625 9.25,10.75 Q 9.375,10.875 9.5,11 l 0.125,0.125 -0.1875,-0.1875"
         id="path11273"
         inkscape:connector-curvature="0" />
      <path
         style="fill:#e1e2be;fill-opacity:1"
         d="M 9.875,11.625 9.75,11.25 9.84375,11.53125 9.9375,11.8125 9.875,11.625 Q 9.8125,11.4375 9.71875,11.28125 L 9.625,11.125 9.671875,11.203125 9.71875,11.28125 10,11 10.28125,10.71875 10.203125,10.671875 10.125,10.625 10.28125,10.71875 Q 10.4375,10.8125 10.625,10.875 L 10.8125,10.9375 10.53125,10.84375 10.25,10.75 10.625,10.875 11,11 11,11.5 11,12 10.5,12 10,12 9.875,11.625"
         id="path11275"
         inkscape:connector-curvature="0" />
      <path
         style="fill:#ebebc8;fill-opacity:1"
         d="M 11,11.5 11,11 11.375,10.875 11.75,10.75 11.46875,10.84375 11.1875,10.9375 11.375,10.875 q 0.1875,-0.0625 0.3125,-0.1875 l 0.125,-0.125 L 11.75,10.625 11.6875,10.6875 12,11 l 0.3125,0.3125 0.0625,-0.0625 0.0625,-0.0625 -0.125,0.125 q -0.125,0.125 -0.1875,0.3125 L 12.0625,11.8125 12.15625,11.53125 12.25,11.25 12.125,11.625 12,12 11.5,12 11,12 11,11.5"
         id="path11277"
         inkscape:connector-curvature="0" />
      <path
         style="fill:#c1c2a0;fill-opacity:1"
         d="M 12.125,11.625 Q 12.25,11.25 12.609375,11.109375 L 12.96875,10.96875 12.984375,10.859375 13,10.75 12.96875,10.96875 Q 12.9375,11.1875 12.875,11.375 L 12.8125,11.5625 12.90625,11.28125 13,11 12.875,11.375 q -0.125,0.375 -0.5,0.5 L 12,12 12.125,11.625"
         id="path11279"
         inkscape:connector-curvature="0" />
      <path
         style="fill:#21211d;fill-opacity:0.71764706"
         d="M 12.875,11.375 13,11 12.90625,11.28125 12.8125,11.5625 12.875,11.375 q 0.0625,-0.1875 0.09375,-0.40625 L 13,10.75 12.98437,10.859375 12.96874,10.96875 13.484365,10.98438 14,11 14,11.5 14,12 13.625,12.125 13.25,12.25 13.53125,12.15625 13.8125,12.0625 13.625,12.125 q -0.1875,0.0625 -0.34375,0.15625 L 13.125,12.375 13.203125,12.328125 13.28125,12.28125 12.984375,11.984375 12.6875,11.6875 12.625,11.75 l -0.0625,0.0625 0.125,-0.125 q 0.125,-0.125 0.1875,-0.3125 L 12.9375,11.1875 12.84375,11.46875 12.75,11.75 12.875,11.375"
         id="path11281"
         inkscape:connector-curvature="0" />
      <path
         style="fill:#000000;fill-opacity:0.23137255"
         d="m 14,11.5 0,-0.5 0.5,0 0.5,0 0,0.5 0,0.5 -0.5,0 -0.5,0 0,-0.5"
         id="path11283"
         inkscape:connector-curvature="0" />
      <path
         style="fill:#152a2a;fill-opacity:0.19215686"
         d="M 7.125,12.375 7,12 7.5,12 8,12 8,12.5 8,13 7.625,12.875 q -0.375,-0.125 -0.5,-0.5"
         id="path11285"
         inkscape:connector-curvature="0" />
      <path
         style="fill:#5ba3ae;fill-opacity:0.96862745"
         d="M 8,12.5 8,12 8.5,12 9,12 8.984375,12.515625 8.96875,13.03125 9.078125,13.046875 9.1875,13.0625 8.96875,13.03125 Q 8.75,13 8.5,13 L 8.25,13 8.625,13 9,13 8.5,13 8,13 8,12.5 M 8,11.875 8,12 8,12.375 8,12.75 8,12.5 Q 8,12.25 8,12 l 0,-0.25 0,0.125"
         id="path11287"
         inkscape:connector-curvature="0" />
      <path
         style="fill:#72877f;fill-opacity:1"
         d="M 8.984375,12.515625 9,12 9.5,12 10,12 10.125,12.375 10.25,12.75 10.15625,12.46875 10.0625,12.1875 10.125,12.375 q 0.0625,0.1875 0.1875,0.3125 l 0.125,0.125 L 10.375,12.75 10.3125,12.6875 10,13 9.6875,13.3125 9.75,13.375 9.8125,13.4375 9.6875,13.3125 Q 9.5625,13.1875 9.375,13.125 L 9.1875,13.0625 9.46875,13.15625 9.75,13.25 9.375,13.125 9,13 9.28125,13.09375 9.5625,13.1875 9.375,13.125 Q 9.1875,13.0625 8.96875,13.03125 L 8.75,13 8.859375,13.015625 8.96875,13.03125 8.984375,12.515625 M 10.125,12 10,12 9.625,12 9.25,12 9.5,12 q 0.25,0 0.5,0 l 0.25,0 -0.125,0"
         id="path11289"
         inkscape:connector-curvature="0" />
      <path
         style="fill:#848470;fill-opacity:1"
         d="M 10.125,12.375 10,12 l 0.5,0 0.5,0 0,0.5 0,0.5 -0.375,-0.125 q -0.375,-0.125 -0.5,-0.5 M 10.375,12 10,12 9.875,12 9.75,12 10,12 q 0.25,0 0.5,0 l 0.25,0 -0.375,0"
         id="path11291"
         inkscape:connector-curvature="0" />
      <path
         style="fill:#8b8b76;fill-opacity:1"
         d="m 11,12.5 0,-0.5 0.5,0 0.5,0 -0.375,0 -0.375,0 0.25,0 q 0.25,0 0.46875,-0.03125 l 0.21875,-0.03125 -0.109375,0.01563 -0.109375,0.01563 -0.109375,0.390625 Q 11.75,12.75 11.375,12.875 L 11,13 11,12.5"
         id="path11293"
         inkscape:connector-curvature="0" />
      <path
         style="fill:#515148;fill-opacity:0.94901961"
         d="M 11.859375,12.359375 11.96875,11.96875 11.859375,11.984375 11.75,12 11.96875,11.96875 Q 12.1875,11.9375 12.375,11.875 L 12.5625,11.8125 12.28125,11.90625 12,12 12.375,11.875 12.75,11.75 12.46875,11.84375 12.1875,11.9375 12.375,11.875 q 0.1875,-0.0625 0.3125,-0.1875 l 0.125,-0.125 -0.0625,0.0625 -0.0625,0.0625 0.296875,0.296875 0.296875,0.296875 0.07813,-0.04687 0.07813,-0.04687 -0.15625,0.09375 Q 13.125,12.375 13,12.5 L 12.875,12.625 13.0625,12.4375 13.25,12.25 13,12.5 Q 12.75,12.75 12.5,13 L 12.25,13.25 11.96875,12.96875 11.6875,12.6875 11.625,12.75 l -0.0625,0.0625 0.125,-0.125 q 0.125,-0.125 0.1875,-0.3125 L 11.9375,12.1875 11.84375,12.46875 11.75,12.75 11.859375,12.359375 M 12.1875,13.3125 12.25,13.25 12.4375,13.0625 12.625,12.875 12.5,13 q -0.125,0.125 -0.25,0.25 l -0.125,0.125 0.0625,-0.0625"
         id="path11295"
         inkscape:connector-curvature="0" />
      <path
         style="fill:#040404;fill-opacity:0.55686275"
         d="m 13,12.5 q 0.25,-0.25 0.625,-0.375 L 14,12 14,12.5 14,13 13.625,13.125 13.25,13.25 13.53125,13.15625 13.8125,13.0625 13.625,13.125 q -0.1875,0.0625 -0.3125,0.1875 l -0.125,0.125 L 13.25,13.375 13.3125,13.3125 13.03125,13.03125 12.75,12.75 13,12.5 M 12.9375,12.5625 12.75,12.75 12.6875,12.8125 12.625,12.875 12.75,12.75 Q 12.875,12.625 13,12.5 l 0.125,-0.125 -0.1875,0.1875"
         id="path11297"
         inkscape:connector-curvature="0" />
      <path
         style="fill:#000000;fill-opacity:0.21960784"
         d="m 14,12.5 0,-0.5 0.5,0 0.5,0 0,0.5 0,0.5 -0.5,0 -0.5,0 0,-0.5"
         id="path11299"
         inkscape:connector-curvature="0" />
      <path
         style="fill:#275861;fill-opacity:0.32941176"
         d="M 8.125,13.375 8,13 8.5,13 9,13 9,13.5 9,14 8.625,13.875 q -0.375,-0.125 -0.5,-0.5"
         id="path11301"
         inkscape:connector-curvature="0" />
      <path
         style="fill:#3d717d;fill-opacity:0.86666667"
         d="M 9,13.5 9,13 9.375,13.125 q 0.375,0.125 0.5,0.5 L 10,14 9.5,14 9,14 9,13.5 M 9.625,14 10,14 10.125,14 10.25,14 10,14 q -0.25,0 -0.5,0 l -0.25,0 0.375,0"
         id="path11303"
         inkscape:connector-curvature="0" />
      <path
         style="fill:#425656;fill-opacity:0.93333333"
         d="M 9.875,13.625 9.75,13.25 9.84375,13.53125 9.9375,13.8125 9.875,13.625 Q 9.8125,13.4375 9.6875,13.3125 L 9.5625,13.1875 9.625,13.25 9.6875,13.3125 10,13 10.3125,12.6875 10.25,12.625 l -0.0625,-0.0625 0.125,0.125 q 0.125,0.125 0.3125,0.1875 L 10.8125,12.9375 10.53125,12.84375 10.25,12.75 10.625,12.875 11,13 10.71875,12.90625 10.4375,12.8125 10.625,12.875 q 0.1875,0.0625 0.375,0.0625 l 0.1875,0 -0.09375,0 -0.09375,0 -0.01563,0.515625 -0.01563,0.515625 0.109375,-0.01563 0.109375,-0.01563 -0.21875,0.03125 Q 10.75,14 10.5,14 l -0.25,0 0.375,0 L 11,14 10.5,14 10,14 9.875,13.625 m 0,0.375 0.125,0 0.375,0 0.375,0 -0.25,0 q -0.25,0 -0.5,0 l -0.25,0 0.125,0"
         id="path11305"
         inkscape:connector-curvature="0" />
      <path
         style="fill:#333333;fill-opacity:0.85098039"
         d="M 10.984375,13.453125 11,12.9375 l -0.09375,0 -0.09375,0 0.1875,0 q 0.1875,0 0.375,-0.0625 L 11.5625,12.8125 11.28125,12.90625 11,13 11.375,12.875 11.75,12.75 11.46875,12.84375 11.1875,12.9375 11.375,12.875 q 0.1875,-0.0625 0.3125,-0.1875 l 0.125,-0.125 -0.0625,0.0625 -0.0625,0.0625 0.28125,0.28125 L 12.25,13.25 12,13.5 q -0.25,0.25 -0.625,0.375 L 11,14 11.28125,13.90625 11.5625,13.8125 11.375,13.875 q -0.1875,0.0625 -0.40625,0.09375 L 10.75,14 10.859375,13.98437 10.96875,13.96874 10.98438,13.453115 M 12.0625,13.4375 12.25,13.25 12.3125,13.1875 12.375,13.125 12.25,13.25 Q 12.125,13.375 12,13.5 l -0.125,0.125 0.1875,-0.1875"
         id="path11307"
         inkscape:connector-curvature="0" />
      <path
         style="fill:#070907;fill-opacity:0.58823529"
         d="m 12,13.5 q 0.25,-0.25 0.5,-0.5 l 0.25,-0.25 0.28125,0.28125 0.28125,0.28125 0.0625,-0.0625 0.0625,-0.0625 -0.125,0.125 q -0.125,0.125 -0.1875,0.3125 L 13.0625,13.8125 13.15625,13.53125 13.25,13.25 13.125,13.625 13,14 12.625,14.125 12.25,14.25 12.53125,14.15625 12.8125,14.0625 12.625,14.125 q -0.1875,0.0625 -0.3125,0.1875 l -0.125,0.125 0.0625,-0.0625 0.0625,-0.0625 -0.296875,-0.296875 -0.296875,-0.296875 -0.07813,0.04687 -0.07813,0.04687 0.15625,-0.09375 Q 11.875,13.625 12,13.5 L 12.125,13.375 11.9375,13.5625 11.75,13.75 12,13.5 M 12.8125,12.6875 12.75,12.75 12.5625,12.9375 12.375,13.125 12.5,13 q 0.125,-0.125 0.25,-0.25 l 0.125,-0.125 -0.0625,0.0625"
         id="path11309"
         inkscape:connector-curvature="0" />
      <path
         style="fill:#000000;fill-opacity:0.44313725"
         d="m 13.125,13.625 q 0.125,-0.375 0.5,-0.5 L 14,13 l 0,0.5 0,0.5 -0.5,0 -0.5,0 0.125,-0.375"
         id="path11311"
         inkscape:connector-curvature="0" />
      <path
         style="fill:#000000;fill-opacity:0.05490196"
         d="m 14,13.5 0,-0.5 0.5,0 0.5,0 0,0.5 Q 15,14 14.5,14 l -0.5,0 0,-0.5"
         id="path11313"
         inkscape:connector-curvature="0" />
      <path
         style="fill:#000000;fill-opacity:0.12941176"
         d="m 9,14.5 0,-0.5 0.5,0 0.5,0 0,0.5 0,0.5 -0.5,0 Q 9,15 9,14.5"
         id="path11315"
         inkscape:connector-curvature="0" />
      <path
         style="fill:#000000;fill-opacity:0.37254902"
         d="m 10,14.5 0,-0.5 0.5,0 0.5,0 0,0.5 0,0.5 -0.5,0 -0.5,0 0,-0.5"
         id="path11317"
         inkscape:connector-curvature="0" />
      <path
         style="fill:#000000;fill-opacity:0.43529412"
         d="M 11,14.5 11,14 11.375,13.875 11.75,13.75 11.46875,13.84375 11.1875,13.9375 11.375,13.875 q 0.1875,-0.0625 0.34375,-0.15625 L 11.875,13.625 l -0.07813,0.04687 -0.07813,0.04687 0.296875,0.296875 0.296875,0.296875 0.0625,-0.0625 0.0625,-0.0625 -0.125,0.125 q -0.125,0.125 -0.1875,0.3125 L 12.0625,14.8125 12.15625,14.53125 12.25,14.25 12.125,14.625 12,15 11.5,15 11,15 11,14.5"
         id="path11319"
         inkscape:connector-curvature="0" />
      <path
         style="fill:#000000;fill-opacity:0.34117647"
         d="m 12.125,14.625 q 0.125,-0.375 0.5,-0.5 L 13,14 l 0,0.5 0,0.5 -0.5,0 -0.5,0 0.125,-0.375"
         id="path11321"
         inkscape:connector-curvature="0" />
      <path
         style="fill:#000000;fill-opacity:0.09019608"
         d="m 13,14.5 0,-0.5 0.5,0 0.5,0 0,0.5 Q 14,15 13.5,15 l -0.5,0 0,-0.5"
         id="path11323"
         inkscape:connector-curvature="0" />
    </g>
  </g>
</svg>
