<?xml version="1.0" encoding="UTF-8" standalone="no"?>
<!-- Created with Inkscape (http://www.inkscape.org/) -->

<svg
   xmlns:dc="http://purl.org/dc/elements/1.1/"
   xmlns:cc="http://creativecommons.org/ns#"
   xmlns:rdf="http://www.w3.org/1999/02/22-rdf-syntax-ns#"
   xmlns:svg="http://www.w3.org/2000/svg"
   xmlns="http://www.w3.org/2000/svg"
   xmlns:sodipodi="http://sodipodi.sourceforge.net/DTD/sodipodi-0.dtd"
   xmlns:inkscape="http://www.inkscape.org/namespaces/inkscape"
   width="20"
   height="20"
   viewBox="0 0 20 20"
   id="svg3347"
   version="1.1"
   inkscape:version="0.91 r13725"
   sodipodi:docname="Civ5Icon.ReligionShinto.svg">
  <defs
     id="defs3349" />
  <sodipodi:namedview
     id="base"
     pagecolor="#ffffff"
     bordercolor="#666666"
     borderopacity="1.0"
     inkscape:pageopacity="0.0"
     inkscape:pageshadow="2"
     inkscape:zoom="11.2"
     inkscape:cx="6.1091119"
     inkscape:cy="8.5424036"
     inkscape:document-units="px"
     inkscape:current-layer="g27203"
     showgrid="false"
     units="px"
     inkscape:window-width="1477"
     inkscape:window-height="962"
     inkscape:window-x="533"
     inkscape:window-y="95"
     inkscape:window-maximized="0" />
  <metadata
     id="metadata3352">
    <rdf:RDF>
      <cc:Work
         rdf:about="">
        <dc:format>image/svg+xml</dc:format>
        <dc:type
           rdf:resource="http://purl.org/dc/dcmitype/StillImage" />
        <dc:title></dc:title>
      </cc:Work>
    </rdf:RDF>
  </metadata>
  <g
     inkscape:label="Layer 1"
     inkscape:groupmode="layer"
     id="layer1"
     transform="translate(0,-1032.3622)">
    <g
       transform="translate(-0.22321519 1031.8712)"
       id="g27203">
      <g
         transform="translate(-0.80357069 -1.3393575)"
         id="g33356">
        <path
           style="fill:#000000;fill-opacity:0"
           d="M 0,0.5 0,0 0.5,0 1,0 1.5,0 2,0 2.5,0 3,0 3.5,0 4,0 4.5,0 5,0 5.5,0 6,0 6.5,0 7,0 7.5,0 8,0 8.5,0 9,0 9.5,0 10,0 l 0.5,0 0.5,0 0.5,0 0.5,0 0.5,0 0.5,0 0.5,0 0.5,0 0.5,0 0.5,0 0.5,0 0.5,0 0.5,0 0.5,0 0.5,0 0.5,0 0.5,0 0.5,0 0.5,0 0.5,0 0.5,0 0.5,0 0.5,0 0.5,0 0,0.5 0,0.5 0,0.5 0,0.5 0,0.5 0,0.5 0,0.5 0,0.5 0,0.5 0,0.5 0,0.5 0,0.5 0,0.5 0,0.5 0,0.5 0,0.5 0,0.5 0,0.5 0,0.5 0,0.5 0,0.5 0,0.5 0,0.5 0,0.5 0,0.5 0,0.5 0,0.5 0,0.5 0,0.5 0,0.5 0,0.5 0,0.5 0,0.5 0,0.5 0,0.5 0,0.5 0,0.5 0,0.5 0,0.5 0,0.5 0,0.5 0,0.5 0,0.5 0,0.5 -0.5,0 L 21,22 20.5,22 20,22 19.5,22 19,22 18.5,22 18,22 17.5,22 17,22 16.5,22 16,22 15.5,22 15,22 14.5,22 14,22 13.5,22 13,22 12.5,22 12,22 11.5,22 11,22 10.5,22 10,22 9.5,22 9,22 8.5,22 8,22 7.5,22 7,22 6.5,22 6,22 5.5,22 5,22 4.5,22 4,22 3.5,22 3,22 2.5,22 2,22 1.5,22 1,22 0.5,22 0,22 0,21.5 0,21 0,20.5 0,20 0,19.5 0,19 0,18.5 0,18 0,17.5 0,17 0,16.5 0,16 0,15.5 0,15 0,14.5 0,14 0,13.5 0,13 0,12.5 0,12 0,11.5 0,11 0,10.5 0,10 0,9.5 0,9 0,8.5 0,8 0,7.5 0,7 0,6.5 0,6 0,5.5 0,5 0,4.5 0,4 0,3.5 0,3 0,2.5 0,2 0,1.5 0,1 0,0.5 M 15.5,19 q 0.5,0 0.625,-0.375 0.125,-0.375 0.5,-0.5 Q 17,18 17,17.5 l 0,-0.5 0,-0.5 0,-0.5 0,-0.5 0,-0.5 0,-0.5 0,-0.5 0,-0.5 0,-0.5 0.5,0 Q 18,13 18,12.5 L 18,12 18,11.5 Q 18,11 17.5,11 l -0.5,0 0,-0.5 0,-0.5 0.5,0 Q 18,10 18,9.5 L 18,9 18,8.5 18,8 18.5,8 Q 19,8 19,7.5 L 19,7 19,6.5 19,6 19,5.5 Q 19,5 18.5,5 L 18,5 18,4.5 Q 18,4 17.5,4 L 17,4 16.5,4 Q 16,4 16,4.5 L 16,5 15.5,5 15,5 14.5,5 14,5 13.5,5 13,5 12.5,5 12,5 11.5,5 11,5 10.5,5 10,5 9.5,5 9,5 8.5,5 8,5 7.5,5 7,5 6.5,5 6,5 6,4.5 Q 6,4 5.5,4 L 5,4 4.5,4 Q 4,4 4,4.5 L 4,5 3.5,5 Q 3,5 3,5.5 L 3,6 3,6.5 3,7 3,7.5 Q 3,8 3.5,8 L 4,8 4,8.5 4,9 4,9.5 Q 4,10 4.5,10 L 5,10 5,10.5 5,11 4.5,11 Q 4,11 4,11.5 L 4,12 4,12.5 Q 4,13 4.5,13 l 0.5,0 0,0.5 0,0.5 0,0.5 0,0.5 0,0.5 0,0.5 0,0.5 0,0.5 0,0.5 q 0,0.5 0.375,0.625 0.375,0.125 0.5,0.5 Q 6,19 6.5,19 L 7,19 7.5,19 Q 8,19 8.125,18.625 8.25,18.25 8.625,18.125 9,18 9,17.5 L 9,17 9.5,17 Q 10,17 10,16.5 l 0,-0.5 0,-0.5 0,-0.5 0,-0.5 0,-0.5 0.5,0 0.5,0 0.5,0 0.5,0 0,0.5 0,0.5 0,0.5 0,0.5 0,0.5 0,0.5 0,0.5 q 0,0.5 0.5,0.5 l 0.5,0 0,0.5 q 0,0.5 0.5,0.5 l 0.5,0 0.5,0 0.5,0 0.5,0"
           id="path33358" />
        <path
           style="fill:#000000;fill-opacity:0.16470588"
           d="M 4,4.5 Q 4,4 4.5,4 L 5,4 5,4.5 5,5 4.5,5 4,5 4,4.5"
           id="path33360" />
        <path
           style="fill:#000000;fill-opacity:0.03137255"
           d="M 5,4.5 5,4 5.5,4 Q 6,4 6,4.5 L 6,5 5.5,5 5,5 5,4.5"
           id="path33362" />
        <path
           style="fill:#000000;fill-opacity:0.07843137"
           d="M 16,4.5 Q 16,4 16.5,4 L 17,4 17,4.5 17,5 16.5,5 16,5 16,4.5"
           id="path33364" />
        <path
           style="fill:#000000;fill-opacity:0.1372549"
           d="M 17,4.5 17,4 17.5,4 Q 18,4 18,4.5 L 18,5 17.5,5 17,5 17,4.5"
           id="path33366" />
        <path
           style="fill:#000000;fill-opacity:0.16470588"
           d="M 3,5.5 Q 3,5 3.5,5 L 4,5 3.875,5.375 Q 3.75,5.75 3.375,5.875 L 3,6 3,5.5"
           id="path33368" />
        <path
           style="fill:#1b1b1b;fill-opacity:0.80392157"
           d="M 3.875,5.375 4,5 4.5,5 5,5 5.0625,5.5625 5.125,6.125 4.6875,6.1875 4.25,6.25 4.53125,6.15625 4.8125,6.0625 4.625,6.125 Q 4.4375,6.1875 4.34375,6.28125 L 4.25,6.375 4.296875,6.328125 4.34375,6.28125 4.015625,5.984375 3.6875,5.6875 3.625,5.75 3.5625,5.8125 3.6875,5.6875 Q 3.8125,5.5625 3.875,5.375 L 3.9375,5.1875 3.84375,5.46875 3.75,5.75 3.875,5.375"
           id="path33370" />
        <path
           style="fill:#040404;fill-opacity:0.99215686"
           d="M 5.0625,5.5625 5,5 5.5,5 6,5 6,5.5 6,6 5.5,6 5,6 5.375,6 5.75,6 5.5,6 Q 5.25,6 5.125,6.125 L 5,6.25 5.0625,6.1875 5.125,6.125 5.0625,5.5625 M 5.625,6 6,6 6.125,6 6.25,6 6,6 Q 5.75,6 5.5,6 L 5.25,6 5.625,6"
           id="path33372" />
        <path
           style="fill:#000000;fill-opacity:0.89803922"
           d="M 6,5.5 6,5 6.5,5 7,5 7,5.5 7,6 6.5,6 6,6 6,5.5 M 5.875,6 6,6 6.375,6 6.75,6 6.5,6 Q 6.25,6 6,6 L 5.75,6 5.875,6"
           id="path33374" />
        <path
           style="fill:#000000;fill-opacity:0.76078431"
           d="M 7,5.5 7,5 7.5,5 8,5 8,5.5 8,6 7.5,6 7,6 7,5.5"
           id="path33376" />
        <path
           style="fill:#000000;fill-opacity:0.65490196"
           d="M 8,5.5 8,5 8.5,5 9,5 9,5.5 9,6 8.5,6 8,6 8,5.5"
           id="path33378" />
        <path
           style="fill:#000000;fill-opacity:0.61568627"
           d="M 9,5.5 9,5 9.5,5 10,5 10,5.5 10,6 9.5,6 9,6 9,5.5"
           id="path33380" />
        <path
           style="fill:#000000;fill-opacity:0.57254902"
           d="M 10,5.5 10,5 10.5,5 11,5 11,5.5 11,6 10.5,6 10,6 10,5.5"
           id="path33382" />
        <path
           style="fill:#000000;fill-opacity:0.58039216"
           d="M 11,5.5 11,5 11.5,5 12,5 12,5.5 12,6 11.5,6 11,6 11,5.5"
           id="path33384" />
        <path
           style="fill:#000000;fill-opacity:0.61960784"
           d="M 12,5.5 12,5 12.5,5 13,5 13,5.5 13,6 12.5,6 12,6 12,5.5"
           id="path33386" />
        <path
           style="fill:#000000;fill-opacity:0.6627451"
           d="M 13,5.5 13,5 13.5,5 14,5 14,5.5 14,6 13.5,6 13,6 13,5.5"
           id="path33388" />
        <path
           style="fill:#000000;fill-opacity:0.78431373"
           d="M 14,5.5 14,5 14.5,5 15,5 15,5.5 15,6 14.5,6 14,6 14,5.5"
           id="path33390" />
        <path
           style="fill:#000000;fill-opacity:0.9254902"
           d="M 15,5.5 15,5 15.5,5 16,5 16,5.5 16,6 15.5,6 15,6 15,5.5 M 15.625,6 16,6 16.125,6 16.25,6 16,6 q -0.25,0 -0.5,0 l -0.25,0 0.375,0"
           id="path33392" />
        <path
           style="fill:#0a0a0a;fill-opacity:0.99607843"
           d="M 16,5.5 16,5 16.5,5 17,5 16.9375,5.5625 16.875,6.125 16.9375,6.1875 17,6.25 16.875,6.125 Q 16.75,6 16.5,6 L 16.25,6 16.625,6 17,6 16.5,6 16,6 16,5.5 M 15.875,6 16,6 16.375,6 16.75,6 16.5,6 Q 16.25,6 16,6 l -0.25,0 0.125,0"
           id="path33394" />
        <path
           style="fill:#1b1b1b;fill-opacity:0.65882353"
           d="M 16.9375,5.5625 17,5 17.5,5 18,5 18.125,5.375 18.25,5.75 18.15625,5.46875 18.0625,5.1875 18.125,5.375 q 0.0625,0.1875 0.1875,0.3125 l 0.125,0.125 L 18.375,5.75 18.3125,5.6875 17.984375,5.984375 17.65625,6.28125 17.703125,6.328125 17.75,6.375 17.65625,6.28125 Q 17.5625,6.1875 17.375,6.125 L 17.1875,6.0625 17.46875,6.15625 17.75,6.25 17.3125,6.1875 16.875,6.125 16.9375,5.5625"
           id="path33396" />
        <path
           style="fill:#000000;fill-opacity:0.1372549"
           d="M 18.125,5.375 18,5 18.5,5 Q 19,5 19,5.5 L 19,6 18.625,5.875 q -0.375,-0.125 -0.5,-0.5"
           id="path33398" />
        <path
           style="fill:#000000;fill-opacity:0.70980392"
           d="M 3,6.5 3,6 3.375,5.875 3.75,5.75 3.46875,5.84375 3.1875,5.9375 3.375,5.875 Q 3.5625,5.8125 3.6875,5.6875 L 3.8125,5.5625 3.75,5.625 3.6875,5.6875 4.015625,5.984375 4.34375,6.28125 4.390625,6.234375 4.4375,6.1875 4.34375,6.28125 Q 4.25,6.375 4.25,6.5 l 0,0.125 0,-0.1875 0,-0.1875 0,0.25 0,0.25 0,-0.1875 0,-0.1875 0,0.125 q 0,0.125 0.0625,0.25 L 4.375,6.875 4.34375,6.8125 4.3125,6.75 4,7.03125 3.6875,7.3125 3.75,7.375 3.8125,7.4375 3.6875,7.3125 Q 3.5625,7.1875 3.375,7.125 L 3.1875,7.0625 3.46875,7.15625 3.75,7.25 3.375,7.125 3,7 3,6.5"
           id="path33400" />
        <path
           style="fill:#767676;fill-opacity:0.99607843"
           d="m 4.25,6.5 q 0,-0.25 0.4375,-0.3125 L 5.125,6.125 5.1875,6.0625 5.25,6 5.125,6.125 Q 5,6.25 5,6.5 L 5,6.75 5,6.375 5,6 5.125,6.375 5.25,6.75 5.15625,6.46875 5.0625,6.1875 5.125,6.375 Q 5.1875,6.5625 5.3125,6.6875 L 5.4375,6.8125 5.375,6.75 5.3125,6.6875 5.015625,6.984375 4.71875,7.28125 4.765625,7.359375 4.8125,7.4375 4.71875,7.28125 Q 4.625,7.125 4.5,7 L 4.375,6.875 4.5625,7.0625 4.75,7.25 4.5,7 Q 4.25,6.75 4.25,6.5"
           id="path33402" />
        <path
           style="fill:#e7e7e7;fill-opacity:1"
           d="M 5.125,6.375 Q 5,6 5.5,6 L 6,6 6,6.5 6,7 5.625,6.875 Q 5.25,6.75 5.125,6.375 M 6.125,6 6,6 5.625,6 5.25,6 5.5,6 Q 5.75,6 6,6 L 6.25,6 6.125,6"
           id="path33404" />
        <path
           style="fill:#acacac;fill-opacity:1"
           d="M 6,6.5 6,6 6.5,6 7,6 7,6.5 7,7 6.5,7 6,7 6,6.5 M 6.375,6 6,6 5.875,6 5.75,6 6,6 Q 6.25,6 6.5,6 L 6.75,6 6.375,6"
           id="path33406" />
        <path
           style="fill:#828282;fill-opacity:1"
           d="M 7,6.5 7,6 7.5,6 8,6 8,6.5 8,7 7.5,7 7,7 7,6.5"
           id="path33408" />
        <path
           style="fill:#696969;fill-opacity:0.99607843"
           d="M 8,6.5 8,6 8.5,6 9,6 9,6.5 9,7 8.5,7 8,7 8,6.5"
           id="path33410" />
        <path
           style="fill:#616161;fill-opacity:0.99607843"
           d="M 9,6.5 9,6 9.5,6 10,6 10,6.5 10,7 9.5,7 9,7 9,6.5"
           id="path33412" />
        <path
           style="fill:#585858;fill-opacity:0.99607843"
           d="M 10,6.5 10,6 10.5,6 11,6 11,6.5 11,7 10.5,7 10,7 10,6.5"
           id="path33414" />
        <path
           style="fill:#5a5a5a;fill-opacity:0.99607843"
           d="M 11,6.5 11,6 11.5,6 12,6 12,6.5 12,7 11.5,7 11,7 11,6.5"
           id="path33416" />
        <path
           style="fill:#626262;fill-opacity:0.99607843"
           d="M 12,6.5 12,6 12.5,6 13,6 13,6.5 13,7 12.5,7 12,7 12,6.5"
           id="path33418" />
        <path
           style="fill:#6b6b6b;fill-opacity:0.99607843"
           d="M 13,6.5 13,6 13.5,6 14,6 14,6.5 14,7 13.5,7 13,7 13,6.5"
           id="path33420" />
        <path
           style="fill:#898989;fill-opacity:1"
           d="M 14,6.5 14,6 14.5,6 15,6 15,6.5 15,7 14.5,7 14,7 14,6.5"
           id="path33422" />
        <path
           style="fill:#b5b5b5;fill-opacity:1"
           d="M 15,6.5 15,6 15.5,6 16,6 15.875,6.375 q -0.125,0.375 -0.5,0.5 L 15,7 15,6.5 M 16.125,6 16,6 15.625,6 15.25,6 15.5,6 q 0.25,0 0.5,0 l 0.25,0 -0.125,0"
           id="path33424" />
        <path
           style="fill:#efefef;fill-opacity:1"
           d="M 15.875,6.375 16,6 16.5,6 Q 17,6 16.875,6.375 16.75,6.75 16.5,7 L 16.25,7.25 16.4375,7.0625 16.625,6.875 16.5,7 Q 16.375,7.125 16.28125,7.28125 L 16.1875,7.4375 16.234375,7.359375 16.28125,7.28125 15.984375,6.984375 15.6875,6.6875 15.625,6.75 15.5625,6.8125 15.6875,6.6875 Q 15.8125,6.5625 15.875,6.375 L 15.9375,6.1875 15.84375,6.46875 15.75,6.75 15.875,6.375 M 16.375,6 16,6 15.875,6 15.75,6 16,6 q 0.25,0 0.5,0 l 0.25,0 -0.375,0"
           id="path33426" />
        <path
           style="fill:#4b4b4b;fill-opacity:1"
           d="M 16.875,6.375 17,6 17,6.375 17,6.75 17,6.5 Q 17,6.25 16.875,6.125 L 16.75,6 16.8125,6.0625 16.875,6.125 17.3125,6.1875 Q 17.75,6.25 17.75,6.5 17.75,6.75 17.5,7 L 17.25,7.25 16.984375,6.984375 16.71875,6.71875 16.671875,6.796875 16.625,6.875 16.71875,6.71875 Q 16.8125,6.5625 16.875,6.375 L 16.9375,6.1875 16.84375,6.46875 16.75,6.75 16.875,6.375 M 17.1875,7.3125 17.25,7.25 17.4375,7.0625 17.625,6.875 17.5,7 q -0.125,0.125 -0.25,0.25 l -0.125,0.125 0.0625,-0.0625"
           id="path33428" />
        <path
           style="fill:#000000;fill-opacity:0.50196078"
           d="m 17.75,6.5 0,-0.25 0,0.1875 0,0.1875 0,-0.125 q 0,-0.125 -0.09375,-0.21875 L 17.5625,6.1875 17.609375,6.234375 17.65625,6.28125 17.984375,5.984375 18.3125,5.6875 18.25,5.625 18.1875,5.5625 l 0.125,0.125 q 0.125,0.125 0.3125,0.1875 L 18.8125,5.9375 18.53125,5.84375 18.25,5.75 18.625,5.875 19,6 19,6.5 19,7 18.625,7.125 18.25,7.25 18.53125,7.15625 18.8125,7.0625 18.625,7.125 Q 18.4375,7.1875 18.3125,7.3125 L 18.1875,7.4375 18.25,7.375 18.3125,7.3125 18,7.03125 17.6875,6.75 17.65625,6.8125 17.625,6.875 17.6875,6.75 Q 17.75,6.625 17.75,6.5 l 0,-0.125 0,0.1875 0,0.1875 0,-0.25"
           id="path33430" />
        <path
           style="fill:#000000;fill-opacity:0.18039216"
           d="M 3,7.5 3,7 3.375,7.125 q 0.375,0.125 0.5,0.5 L 4,8 3.5,8 Q 3,8 3,7.5"
           id="path33432" />
        <path
           style="fill:#191919;fill-opacity:0.95294118"
           d="M 3.875,7.625 3.75,7.25 3.84375,7.53125 3.9375,7.8125 3.875,7.625 Q 3.8125,7.4375 3.6875,7.3125 L 3.5625,7.1875 3.625,7.25 3.6875,7.3125 4,7.03125 4.3125,6.75 4.28125,6.6875 4.25,6.625 4.3125,6.75 Q 4.375,6.875 4.5,7 L 4.625,7.125 4.4375,6.9375 4.25,6.75 4.5,7 Q 4.75,7.25 4.875,7.625 L 5,8 4.5,8 4,8 3.875,7.625"
           id="path33434" />
        <path
           style="fill:#868686;fill-opacity:1"
           d="M 4.875,7.625 4.75,7.25 4.84375,7.53125 4.9375,7.8125 4.875,7.625 Q 4.8125,7.4375 4.71875,7.28125 L 4.625,7.125 4.671875,7.203125 4.71875,7.28125 5.015625,6.984375 5.3125,6.6875 5.25,6.625 5.1875,6.5625 5.3125,6.6875 Q 5.4375,6.8125 5.625,6.875 L 5.8125,6.9375 5.53125,6.84375 5.25,6.75 5.625,6.875 6,7 6,7.5 6,8 5.5,8 5,8 4.875,7.625"
           id="path33436" />
        <path
           style="fill:#f2f2f2;fill-opacity:1"
           d="M 6,7.5 6,7 6.5,7 7,7 6.875,7.375 Q 6.75,7.75 6.375,7.875 L 6,8 6,7.5"
           id="path33438" />
        <path
           style="fill:#ffffff;fill-opacity:1"
           d="M 6.875,7.375 7,7 7.5,7 8,7 8.5,7 9,7 9,7.5 9,8 8.5,8 8,8 7.625,8.125 7.25,8.25 7.53125,8.15625 7.8125,8.0625 7.625,8.125 Q 7.4375,8.1875 7.28125,8.28125 L 7.125,8.375 7.203125,8.328125 7.28125,8.28125 6.984375,7.984375 6.6875,7.6875 6.625,7.75 6.5625,7.8125 6.6875,7.6875 Q 6.8125,7.5625 6.875,7.375 L 6.9375,7.1875 6.84375,7.46875 6.75,7.75 6.875,7.375"
           id="path33440" />
        <path
           style="fill:#fbfbfb;fill-opacity:1"
           d="M 9,7.5 9,7 9.5,7 10,7 10,7.5 10,8 9.5,8 9,8 9,7.5"
           id="path33442" />
        <path
           style="fill:#ffffff;fill-opacity:1"
           d="M 10,7.5 10,7 10.5,7 11,7 11,7.5 11,8 10.5,8 10,8 10,7.5"
           id="path33444" />
        <path
           style="fill:#fefefe;fill-opacity:1"
           d="M 11,7.5 11,7 11.5,7 12,7 12,7.5 12,8 11.5,8 11,8 11,7.5"
           id="path33446" />
        <path
           style="fill:#fbfbfb;fill-opacity:1"
           d="M 12,7.5 12,7 12.5,7 13,7 13,7.5 13,8 12.5,8 12,8 12,7.5"
           id="path33448" />
        <path
           style="fill:#ffffff;fill-opacity:1"
           d="M 13,7.5 13,7 13.5,7 14,7 14.5,7 15,7 15.125,7.375 15.25,7.75 15.15625,7.46875 15.0625,7.1875 15.125,7.375 q 0.0625,0.1875 0.1875,0.3125 l 0.125,0.125 L 15.375,7.75 15.3125,7.6875 15.015625,7.984375 14.71875,8.28125 14.796875,8.328125 14.875,8.375 14.71875,8.28125 Q 14.5625,8.1875 14.375,8.125 L 14.1875,8.0625 14.46875,8.15625 14.75,8.25 14.375,8.125 14,8 13.5,8 13,8 13,7.5"
           id="path33450" />
        <path
           style="fill:#d3d3d3;fill-opacity:1"
           d="M 15.125,7.375 15,7 15.375,6.875 15.75,6.75 15.46875,6.84375 15.1875,6.9375 15.375,6.875 Q 15.5625,6.8125 15.6875,6.6875 L 15.8125,6.5625 15.75,6.625 15.6875,6.6875 15.984375,6.984375 16.28125,7.28125 16.328125,7.203125 16.375,7.125 16.28125,7.28125 Q 16.1875,7.4375 16.125,7.625 L 16.0625,7.8125 16.15625,7.53125 16.25,7.25 16.125,7.625 16,8 15.625,7.875 q -0.375,-0.125 -0.5,-0.5"
           id="path33452" />
        <path
           style="fill:#7a7a7a;fill-opacity:1"
           d="M 16.125,7.625 Q 16.25,7.25 16.5,7 L 16.75,6.75 16.5625,6.9375 16.375,7.125 16.5,7 Q 16.625,6.875 16.71875,6.71875 L 16.8125,6.5625 16.765625,6.640625 16.71875,6.71875 16.984375,6.984375 17.25,7.25 17,7.5 Q 16.75,7.75 16.375,7.875 L 16,8 16.125,7.625 M 16.09375,7.71875 16,8 15.96875,8.09375 15.9375,8.1875 16,8 Q 16.0625,7.8125 16.125,7.625 L 16.1875,7.4375 16.09375,7.71875 M 17.0625,7.4375 17.25,7.25 17.3125,7.1875 17.375,7.125 17.25,7.25 Q 17.125,7.375 17,7.5 l -0.125,0.125 0.1875,-0.1875"
           id="path33454" />
        <path
           style="fill:#0c0c0c;fill-opacity:0.88627451"
           d="M 17,7.5 Q 17.25,7.25 17.5,7 L 17.75,6.75 17.5625,6.9375 17.375,7.125 17.5,7 Q 17.625,6.875 17.6875,6.75 L 17.75,6.625 17.71875,6.6875 17.6875,6.75 18,7.03125 18.3125,7.3125 18.375,7.25 18.4375,7.1875 18.3125,7.3125 Q 18.1875,7.4375 18.125,7.625 L 18.0625,7.8125 18.15625,7.53125 18.25,7.25 18.125,7.625 18,8 17.625,8.125 17.25,8.25 17.53125,8.15625 17.8125,8.0625 17.625,8.125 Q 17.4375,8.1875 17.28125,8.28125 L 17.125,8.375 17.203125,8.328125 17.28125,8.28125 17,8 16.71875,7.71875 16.640625,7.765625 16.5625,7.8125 16.71875,7.71875 Q 16.875,7.625 17,7.5 L 17.125,7.375 16.9375,7.5625 16.75,7.75 17,7.5"
           id="path33456" />
        <path
           style="fill:#000000;fill-opacity:0.08627451"
           d="m 18.125,7.625 q 0.125,-0.375 0.5,-0.5 L 19,7 19,7.5 Q 19,8 18.5,8 L 18,8 18.125,7.625"
           id="path33458" />
        <path
           style="fill:#000000;fill-opacity:0.65490196"
           d="M 4,8.5 4,8 4.5,8 5,8 5.125,8.375 5.25,8.75 5.15625,8.46875 5.0625,8.1875 5.125,8.375 Q 5.1875,8.5625 5.28125,8.71875 L 5.375,8.875 5.328125,8.796875 5.28125,8.71875 4.984375,9.015625 4.6875,9.3125 4.75,9.375 4.8125,9.4375 4.6875,9.3125 Q 4.5625,9.1875 4.375,9.125 L 4.1875,9.0625 4.46875,9.15625 4.75,9.25 4.375,9.125 4,9 4,8.5"
           id="path33460" />
        <path
           style="fill:#5a5a5a;fill-opacity:0.99607843"
           d="M 5.125,8.375 5,8 5.5,8 6,8 6.125,8.375 6.25,8.75 6.15625,8.46875 6.0625,8.1875 6.125,8.375 Q 6.1875,8.5625 6.28125,8.65625 L 6.375,8.75 6.328125,8.703125 6.28125,8.65625 6.015625,8.953125 5.75,9.25 5.5,9 Q 5.25,8.75 5.125,8.375 M 5.5625,9.0625 5.75,9.25 5.8125,9.3125 5.875,9.375 5.75,9.25 Q 5.625,9.125 5.5,9 L 5.375,8.875 5.5625,9.0625"
           id="path33462" />
        <path
           style="fill:#d0d0d0;fill-opacity:1"
           d="M 6.125,8.375 6,8 6.375,7.875 6.75,7.75 6.46875,7.84375 6.1875,7.9375 6.375,7.875 Q 6.5625,7.8125 6.6875,7.6875 L 6.8125,7.5625 6.75,7.625 6.6875,7.6875 6.984375,7.984375 7.28125,8.28125 7.359375,8.234375 7.4375,8.1875 7.28125,8.28125 Q 7.125,8.375 7,8.5 L 6.875,8.625 7.0625,8.4375 7.25,8.25 7,8.5 Q 6.75,8.75 6.5,8.75 6.25,8.75 6.125,8.375"
           id="path33464" />
        <path
           style="fill:#6b6b6b;fill-opacity:1"
           d="M 7,8.5 Q 7.25,8.25 7.625,8.125 L 8,8 8,8.5 8,9 7.625,9.125 7.25,9.25 7.53125,9.15625 7.8125,9.0625 7.625,9.125 Q 7.4375,9.1875 7.3125,9.3125 L 7.1875,9.4375 7.25,9.375 7.3125,9.3125 7.03125,9 6.75,8.6875 6.6875,8.71875 6.625,8.75 6.75,8.6875 Q 6.875,8.625 7,8.5 L 7.125,8.375 6.9375,8.5625 6.75,8.75 7,8.5"
           id="path33466" />
        <path
           style="fill:#696969;fill-opacity:1"
           d="M 8,8.5 8,8 8.5,8 9,8 9.125,8.375 9.25,8.75 9.15625,8.46875 9.0625,8.1875 9.125,8.375 Q 9.1875,8.5625 9.28125,8.65625 L 9.375,8.75 9.328125,8.703125 9.28125,8.65625 8.984375,8.984375 8.6875,9.3125 8.75,9.375 8.8125,9.4375 8.6875,9.3125 Q 8.5625,9.1875 8.375,9.125 L 8.1875,9.0625 8.46875,9.15625 8.75,9.25 8.375,9.125 8,9 8,8.5"
           id="path33468" />
        <path
           style="fill:#666666;fill-opacity:1"
           d="M 9.125,8.375 9,8 9.5,8 10,8 9.875,8.375 Q 9.75,8.75 9.5,8.75 9.25,8.75 9.125,8.375"
           id="path33470" />
        <path
           style="fill:#4d4d4d;fill-opacity:1"
           d="M 9.875,8.375 10,8 10.5,8 11,8 11,8.5 11,9 10.625,9.125 10.25,9.25 10.53125,9.15625 10.8125,9.0625 10.625,9.125 Q 10.4375,9.1875 10.3125,9.3125 L 10.1875,9.4375 10.25,9.375 10.3125,9.3125 10.015625,8.984375 9.71875,8.65625 9.671875,8.703125 9.625,8.75 9.71875,8.65625 Q 9.8125,8.5625 9.875,8.375 L 9.9375,8.1875 9.84375,8.46875 9.75,8.75 9.875,8.375"
           id="path33472" />
        <path
           style="fill:#505050;fill-opacity:1"
           d="M 11,8.5 11,8 11.5,8 12,8 12.125,8.375 12.25,8.75 12.15625,8.46875 12.0625,8.1875 12.125,8.375 q 0.0625,0.1875 0.15625,0.28125 L 12.375,8.75 12.328125,8.703125 12.28125,8.65625 11.984375,8.984375 11.6875,9.3125 11.75,9.375 11.8125,9.4375 11.6875,9.3125 Q 11.5625,9.1875 11.375,9.125 L 11.1875,9.0625 11.46875,9.15625 11.75,9.25 11.375,9.125 11,9 11,8.5"
           id="path33474" />
        <path
           style="fill:#696969;fill-opacity:1"
           d="M 12.125,8.375 12,8 12.5,8 13,8 12.875,8.375 Q 12.75,8.75 12.5,8.75 q -0.25,0 -0.375,-0.375"
           id="path33476" />
        <path
           style="fill:#676767;fill-opacity:1"
           d="M 12.875,8.375 13,8 13.5,8 14,8 14,8.5 14,9 13.625,9.125 13.25,9.25 13.53125,9.15625 13.8125,9.0625 13.625,9.125 Q 13.4375,9.1875 13.3125,9.3125 L 13.1875,9.4375 13.25,9.375 13.3125,9.3125 13.015625,8.984375 12.71875,8.65625 12.671875,8.703125 12.625,8.75 12.71875,8.65625 Q 12.8125,8.5625 12.875,8.375 L 12.9375,8.1875 12.84375,8.46875 12.75,8.75 12.875,8.375"
           id="path33478" />
        <path
           style="fill:#6f6f6f;fill-opacity:1"
           d="M 14,8.5 14,8 14.375,8.125 Q 14.75,8.25 15,8.5 L 15.25,8.75 15.0625,8.5625 14.875,8.375 15,8.5 q 0.125,0.125 0.25,0.1875 L 15.375,8.75 15.3125,8.71875 15.25,8.6875 14.96875,9 14.6875,9.3125 14.75,9.375 14.8125,9.4375 14.6875,9.3125 Q 14.5625,9.1875 14.375,9.125 L 14.1875,9.0625 14.46875,9.15625 14.75,9.25 14.375,9.125 14,9 14,8.5"
           id="path33480" />
        <path
           style="fill:#d0d0d0;fill-opacity:1"
           d="M 15,8.5 14.75,8.25 14.9375,8.4375 15.125,8.625 15,8.5 Q 14.875,8.375 14.71875,8.28125 L 14.5625,8.1875 14.640625,8.234375 14.71875,8.28125 15.015625,7.984375 15.3125,7.6875 15.25,7.625 15.1875,7.5625 l 0.125,0.125 q 0.125,0.125 0.3125,0.1875 L 15.8125,7.9375 15.53125,7.84375 15.25,7.75 15.625,7.875 16,8 15.875,8.375 Q 15.75,8.75 15.5,8.75 15.25,8.75 15,8.5"
           id="path33482" />
        <path
           style="fill:#343434;fill-opacity:0.99607843"
           d="M 15.875,8.375 16,8 16.375,7.875 16.75,7.75 16.46875,7.84375 16.1875,7.9375 16.375,7.875 Q 16.5625,7.8125 16.71875,7.71875 L 16.875,7.625 16.796875,7.671875 16.71875,7.71875 17,8 17.28125,8.28125 17.359375,8.234375 17.4375,8.1875 17.28125,8.28125 Q 17.125,8.375 17,8.5 L 16.875,8.625 17.0625,8.4375 17.25,8.25 17,8.5 Q 16.75,8.75 16.5,9 L 16.25,9.25 15.984375,8.953125 15.71875,8.65625 15.671875,8.703125 15.625,8.75 15.71875,8.65625 Q 15.8125,8.5625 15.875,8.375 L 15.9375,8.1875 15.84375,8.46875 15.75,8.75 15.875,8.375 M 16.1875,9.3125 16.25,9.25 16.4375,9.0625 16.625,8.875 16.5,9 Q 16.375,9.125 16.25,9.25 L 16.125,9.375 16.1875,9.3125 M 16.03125,7.90625 16,8 15.90625,8.28125 15.8125,8.5625 15.875,8.375 Q 15.9375,8.1875 16,8 l 0.0625,-0.1875 -0.03125,0.09375"
           id="path33484" />
        <path
           style="fill:#000000;fill-opacity:0.41960784"
           d="M 17,8.5 Q 17.25,8.25 17.625,8.125 L 18,8 18,8.5 18,9 17.625,9.125 17.25,9.25 17.53125,9.15625 17.8125,9.0625 17.625,9.125 Q 17.4375,9.1875 17.3125,9.3125 L 17.1875,9.4375 17.25,9.375 17.3125,9.3125 17.03125,9.03125 16.75,8.75 17,8.5 M 16.9375,8.5625 16.75,8.75 16.6875,8.8125 16.625,8.875 16.75,8.75 Q 16.875,8.625 17,8.5 l 0.125,-0.125 -0.1875,0.1875"
           id="path33486" />
        <path
           style="fill:#000000;fill-opacity:0.12941176"
           d="M 4,9.5 4,9 4.375,9.125 q 0.375,0.125 0.5,0.5 L 5,10 4.5,10 Q 4,10 4,9.5"
           id="path33488" />
        <path
           style="fill:#151515;fill-opacity:0.82745098"
           d="M 4.875,9.625 4.75,9.25 4.84375,9.53125 4.9375,9.8125 4.875,9.625 Q 4.8125,9.4375 4.6875,9.3125 L 4.5625,9.1875 4.625,9.25 4.6875,9.3125 4.984375,9.015625 5.28125,8.71875 5.234375,8.640625 5.1875,8.5625 5.28125,8.71875 Q 5.375,8.875 5.5,9 L 5.625,9.125 5.4375,8.9375 5.25,8.75 5.5,9 Q 5.75,9.25 6,9.5 L 6.25,9.75 6.0625,9.5625 5.875,9.375 6,9.5 Q 6.125,9.625 6.28125,9.71875 L 6.4375,9.8125 6.359375,9.765625 6.28125,9.71875 5.96875,10 5.65625,10.28125 5.703125,10.328125 5.75,10.375 5.65625,10.28125 Q 5.5625,10.1875 5.375,10.125 L 5.1875,10.0625 5.46875,10.15625 5.75,10.25 5.375,10.125 5,10 4.875,9.625"
           id="path33490" />
        <path
           style="fill:#444444;fill-opacity:1"
           d="M 6,9.5 5.75,9.25 6.015625,8.953125 6.28125,8.65625 6.234375,8.609375 6.1875,8.5625 6.28125,8.65625 Q 6.375,8.75 6.5,8.75 l 0.125,0 -0.1875,0 -0.1875,0 0.25,0 0.25,0 -0.1875,0 -0.1875,0 0.125,0 q 0.125,0 0.25,-0.0625 L 6.875,8.625 6.8125,8.65625 6.75,8.6875 7.03125,9 7.3125,9.3125 7.375,9.25 7.4375,9.1875 7.3125,9.3125 Q 7.1875,9.4375 7.125,9.625 L 7.0625,9.8125 7.15625,9.53125 7.25,9.25 7.125,9.625 7,10 6.625,9.875 Q 6.25,9.75 6,9.5 M 6.96875,10.09375 7,10 7.09375,9.71875 7.1875,9.4375 7.125,9.625 Q 7.0625,9.8125 7,10 L 6.9375,10.1875 6.96875,10.09375 M 5.6875,9.1875 5.75,9.25 5.9375,9.4375 6.125,9.625 6,9.5 Q 5.875,9.375 5.75,9.25 L 5.625,9.125 5.6875,9.1875"
           id="path33492" />
        <path
           style="fill:#f8f8f8;fill-opacity:1"
           d="M 7.125,9.625 Q 7.25,9.25 7.625,9.125 L 8,9 7.875,9.375 Q 7.75,9.75 7.375,9.875 L 7,10 7.125,9.625 M 7.09375,9.71875 7,10 6.96875,10.09375 6.9375,10.1875 7,10 Q 7.0625,9.8125 7.125,9.625 L 7.1875,9.4375 7.09375,9.71875"
           id="path33494" />
        <path
           style="fill:#cccccc;fill-opacity:1"
           d="M 7.875,9.375 8,9 8.375,9.125 Q 8.75,9.25 8.9375,9.6875 L 9.125,10.125 8.6875,10.1875 8.25,10.25 8.53125,10.15625 8.8125,10.0625 8.625,10.125 Q 8.4375,10.1875 8.34375,10.28125 L 8.25,10.375 8.296875,10.328125 8.34375,10.28125 8.015625,9.984375 7.6875,9.6875 7.625,9.75 7.5625,9.8125 7.6875,9.6875 Q 7.8125,9.5625 7.875,9.375 L 7.9375,9.1875 7.84375,9.46875 7.75,9.75 7.875,9.375"
           id="path33496" />
        <path
           style="fill:#7b7b7b;fill-opacity:1"
           d="M 8.9375,9.6875 8.75,9.25 8.84375,9.53125 8.9375,9.8125 8.875,9.625 Q 8.8125,9.4375 8.6875,9.3125 L 8.5625,9.1875 8.625,9.25 8.6875,9.3125 8.984375,8.984375 9.28125,8.65625 9.234375,8.609375 9.1875,8.5625 9.28125,8.65625 Q 9.375,8.75 9.5,8.75 l 0.125,0 -0.1875,0 -0.1875,0 0.25,0 0.25,0 -0.1875,0 -0.1875,0 0.125,0 q 0.125,0 0.21875,-0.09375 L 9.8125,8.5625 9.765625,8.609375 9.71875,8.65625 10.015625,8.984375 10.3125,9.3125 10.375,9.25 10.4375,9.1875 10.3125,9.3125 Q 10.1875,9.4375 10.125,9.625 L 10.0625,9.8125 10.15625,9.53125 10.25,9.25 10.125,9.625 10,10 9.5,10 9,10 9.375,10 9.75,10 9.5,10 Q 9.25,10 9.125,10.125 L 9,10.25 9.0625,10.1875 9.125,10.125 8.9375,9.6875 M 9.96875,10.09375 10,10 10.09375,9.71875 10.1875,9.4375 10.125,9.625 Q 10.0625,9.8125 10,10 l -0.0625,0.1875 0.03125,-0.09375"
           id="path33498" />
        <path
           style="fill:#ffffff;fill-opacity:1"
           d="m 10.125,9.625 q 0.125,-0.375 0.5,-0.5 L 11,9 10.875,9.375 q -0.125,0.375 -0.5,0.5 L 10,10 10.125,9.625"
           id="path33500" />
        <path
           style="fill:#f7f7f7;fill-opacity:1"
           d="M 10.875,9.375 11,9 11.375,9.125 q 0.375,0.125 0.5,0.5 L 12,10 11.625,10.125 11.25,10.25 11.53125,10.15625 11.8125,10.0625 11.625,10.125 q -0.1875,0.0625 -0.28125,0.15625 L 11.25,10.375 11.296875,10.328125 11.34375,10.28125 11.015625,9.984375 10.6875,9.6875 10.625,9.75 10.5625,9.8125 10.6875,9.6875 Q 10.8125,9.5625 10.875,9.375 L 10.9375,9.1875 10.84375,9.46875 10.75,9.75 10.875,9.375"
           id="path33502" />
        <path
           style="fill:#787878;fill-opacity:1"
           d="M 11.875,9.625 11.75,9.25 11.84375,9.53125 11.9375,9.8125 11.875,9.625 Q 11.8125,9.4375 11.6875,9.3125 L 11.5625,9.1875 11.625,9.25 11.6875,9.3125 11.984375,8.984375 12.28125,8.65625 12.234375,8.609375 12.1875,8.5625 12.28125,8.65625 Q 12.375,8.75 12.5,8.75 l 0.125,0 -0.1875,0 -0.1875,0 0.25,0 0.25,0 -0.1875,0 -0.1875,0 0.125,0 q 0.125,0 0.21875,-0.09375 L 12.8125,8.5625 12.765625,8.609375 12.71875,8.65625 13.015625,8.984375 13.3125,9.3125 13.375,9.25 13.4375,9.1875 13.3125,9.3125 Q 13.1875,9.4375 13.125,9.625 L 13.0625,9.8125 13.15625,9.53125 13.25,9.25 13.125,9.625 13,10 l -0.515625,0.01563 -0.515625,0.01563 0.01563,0.109375 L 12,10.25 11.96875,10.03125 Q 11.9375,9.8125 11.875,9.625 L 11.8125,9.4375 11.90625,9.71875 12,10 11.875,9.625 M 12.96875,10.09375 13,10 13.09375,9.71875 13.1875,9.4375 13.125,9.625 Q 13.0625,9.8125 13,10 l -0.0625,0.1875 0.03125,-0.09375"
           id="path33504" />
        <path
           style="fill:#ededed;fill-opacity:1"
           d="m 13.125,9.625 q 0.125,-0.375 0.5,-0.5 L 14,9 14,9.5 14,10 13.5,10 13,10 13.125,9.625"
           id="path33506" />
        <path
           style="fill:#d6d6d6;fill-opacity:1"
           d="M 14,9.5 14,9 14.375,9.125 q 0.375,0.125 0.5,0.5 L 15,10 14.5,10 14,10 14,9.5 M 15.03125,10.09375 15,10 14.90625,9.71875 14.8125,9.4375 14.875,9.625 Q 14.9375,9.8125 15,10 l 0.0625,0.1875 -0.03125,-0.09375"
           id="path33508" />
        <path
           style="fill:#404040;fill-opacity:1"
           d="M 14.875,9.625 14.75,9.25 14.84375,9.53125 14.9375,9.8125 14.875,9.625 Q 14.8125,9.4375 14.6875,9.3125 L 14.5625,9.1875 14.625,9.25 14.6875,9.3125 14.96875,9 15.25,8.6875 15.1875,8.65625 15.125,8.625 15.25,8.6875 Q 15.375,8.75 15.5,8.75 l 0.125,0 -0.1875,0 -0.1875,0 0.25,0 0.25,0 -0.1875,0 -0.1875,0 0.125,0 q 0.125,0 0.21875,-0.09375 L 15.8125,8.5625 15.765625,8.609375 15.71875,8.65625 15.984375,8.953125 16.25,9.25 16,9.5 Q 15.75,9.75 15.375,9.875 L 15,10 14.875,9.625 M 14.90625,9.71875 15,10 15.03125,10.09375 15.0625,10.1875 15,10 Q 14.9375,9.8125 14.875,9.625 L 14.8125,9.4375 14.90625,9.71875 M 16.0625,9.4375 16.25,9.25 16.3125,9.1875 16.375,9.125 16.25,9.25 Q 16.125,9.375 16,9.5 l -0.125,0.125 0.1875,-0.1875"
           id="path33510" />
        <path
           style="fill:#0a0a0a;fill-opacity:0.67843137"
           d="M 16,9.5 Q 16.25,9.25 16.5,9 L 16.75,8.75 17.03125,9.03125 17.3125,9.3125 17.375,9.25 17.4375,9.1875 17.3125,9.3125 Q 17.1875,9.4375 17.125,9.625 L 17.0625,9.8125 17.15625,9.53125 17.25,9.25 17.125,9.625 17,10 16.625,10.125 16.25,10.25 16.53125,10.15625 16.8125,10.0625 16.625,10.125 q -0.1875,0.0625 -0.28125,0.15625 L 16.25,10.375 16.296875,10.328125 16.34375,10.28125 16.03125,10 15.71875,9.71875 15.640625,9.765625 15.5625,9.8125 15.71875,9.71875 Q 15.875,9.625 16,9.5 L 16.125,9.375 15.9375,9.5625 15.75,9.75 16,9.5 M 16.8125,8.6875 16.75,8.75 16.5625,8.9375 16.375,9.125 16.5,9 q 0.125,-0.125 0.25,-0.25 l 0.125,-0.125 -0.0625,0.0625"
           id="path33512" />
        <path
           style="fill:#000000;fill-opacity:0.05490196"
           d="m 17.125,9.625 q 0.125,-0.375 0.5,-0.5 L 18,9 18,9.5 Q 18,10 17.5,10 L 17,10 17.125,9.625"
           id="path33514" />
        <path
           style="fill:#000000;fill-opacity:0.43921569"
           d="M 5,10.5 5,10 5.375,10.125 Q 5.75,10.25 5.75,10.5 q 0,0.25 -0.375,0.375 L 5,11 5,10.5"
           id="path33516" />
        <path
           style="fill:#121212;fill-opacity:1"
           d="m 5.75,10.5 0,-0.25 0,0.1875 0,0.1875 0,-0.125 q 0,-0.125 -0.09375,-0.21875 L 5.5625,10.1875 5.609375,10.234375 5.65625,10.28125 5.96875,10 6.28125,9.71875 6.203125,9.671875 6.125,9.625 6.28125,9.71875 Q 6.4375,9.8125 6.625,9.875 L 6.8125,9.9375 6.53125,9.84375 6.25,9.75 6.625,9.875 7,10 6.875,10.375 Q 6.75,10.75 6.5,11 L 6.25,11.25 6.4375,11.0625 6.625,10.875 6.5,11 Q 6.375,11.125 6.3125,11.25 L 6.25,11.375 6.28125,11.3125 6.3125,11.25 5.984375,10.984375 5.65625,10.71875 5.609375,10.765625 5.5625,10.8125 5.65625,10.71875 Q 5.75,10.625 5.75,10.5 l 0,-0.125 0,0.1875 0,0.1875 0,-0.25 M 6.90625,10.28125 7,10 7.03125,9.90625 7.0625,9.8125 7,10 q -0.0625,0.1875 -0.125,0.375 l -0.0625,0.1875 0.09375,-0.28125"
           id="path33518" />
        <path
           style="fill:#f3f3f3;fill-opacity:1"
           d="M 6.875,10.375 7,10 7.375,9.875 7.75,9.75 7.46875,9.84375 7.1875,9.9375 7.375,9.875 Q 7.5625,9.8125 7.6875,9.6875 L 7.8125,9.5625 7.75,9.625 7.6875,9.6875 8.015625,9.984375 8.34375,10.28125 8.390625,10.234375 8.4375,10.1875 8.34375,10.28125 Q 8.25,10.375 8.25,10.5 l 0,0.125 0,-0.1875 0,-0.1875 0,0.25 0,0.25 0,-0.1875 0,-0.1875 0,0.125 q 0,0.125 0.09375,0.21875 L 8.4375,10.8125 8.390625,10.765625 8.34375,10.71875 8.046875,10.984375 Q 7.75,11.25 7.5,11.25 l -0.25,0 0.1875,0 0.1875,0 -0.125,0 q -0.125,0 -0.1875,0.0625 L 7.25,11.375 7.28125,11.34375 7.3125,11.3125 7.015625,11.015625 6.71875,10.71875 6.671875,10.796875 6.625,10.875 6.71875,10.71875 Q 6.8125,10.5625 6.875,10.375 L 6.9375,10.1875 6.84375,10.46875 6.75,10.75 6.875,10.375 M 7.03125,9.90625 7,10 6.90625,10.28125 6.8125,10.5625 6.875,10.375 Q 6.9375,10.1875 7,10 L 7.0625,9.8125 7.03125,9.90625"
           id="path33520" />
        <path
           style="fill:#aeaeae;fill-opacity:1"
           d="m 8.25,10.5 q 0,-0.25 0.4375,-0.3125 L 9.125,10.125 9.1875,10.0625 9.25,10 9.125,10.125 Q 9,10.25 9,10.5 L 9,10.75 9,10.375 9,10 9,10.5 9,11 9,10.625 9,10.25 9,10.5 q 0,0.25 0.125,0.375 L 9.25,11 9.1875,10.9375 9.125,10.875 8.6875,10.8125 Q 8.25,10.75 8.25,10.5"
           id="path33522" />
        <path
           style="fill:#000000;fill-opacity:1"
           d="M 9,10.5 Q 9,10 9.5,10 L 10,10 9.875,10.375 Q 9.75,10.75 9.375,10.875 9,11 9,10.5 M 9.90625,10.28125 10,10 10.03125,9.90625 10.0625,9.8125 10,10 q -0.0625,0.1875 -0.125,0.375 l -0.0625,0.1875 0.09375,-0.28125"
           id="path33524" />
        <path
           style="fill:#f6f6f6;fill-opacity:1"
           d="M 9.875,10.375 10,10 10.375,9.875 10.75,9.75 10.46875,9.84375 10.1875,9.9375 10.375,9.875 q 0.1875,-0.0625 0.3125,-0.1875 l 0.125,-0.125 -0.0625,0.0625 -0.0625,0.0625 0.328125,0.296875 0.328125,0.296875 0.04687,-0.04687 0.04687,-0.04687 -0.09375,0.09375 Q 11.25,10.375 11.25,10.5 l 0,0.125 0,-0.1875 0,-0.1875 0,0.25 0,0.25 0,-0.1875 0,-0.1875 0,0.125 q 0,0.125 0.09375,0.21875 l 0.09375,0.09375 -0.04687,-0.04687 -0.04687,-0.04687 -0.3125,0.3125 -0.3125,0.3125 0.04687,0.04687 0.04687,0.04687 -0.09375,-0.09375 Q 10.625,11.25 10.5,11.25 l -0.125,0 0.1875,0 0.1875,0 -0.25,0 -0.25,0 0.1875,0 0.1875,0 -0.125,0 q -0.125,0 -0.21875,0.09375 l -0.09375,0.09375 0.04687,-0.04687 0.04687,-0.04687 L 9.984375,11.015625 9.6875,10.6875 9.625,10.75 9.5625,10.8125 9.6875,10.6875 Q 9.8125,10.5625 9.875,10.375 L 9.9375,10.1875 9.84375,10.46875 9.75,10.75 9.875,10.375"
           id="path33526" />
        <path
           style="fill:#c7c7c7;fill-opacity:1"
           d="m 11.25,10.5 q 0,-0.25 0.375,-0.375 L 12,10 l 0,0.5 0,0.5 0,-0.375 0,-0.375 0,0.25 q 0,0.25 0.125,0.375 L 12.25,11 12.1875,10.9375 12.125,10.875 11.6875,10.8125 Q 11.25,10.75 11.25,10.5"
           id="path33528" />
        <path
           style="fill:#000000;fill-opacity:1"
           d="m 12,10.5 0,-0.5 0,0.375 0,0.375 0,-0.25 q 0,-0.25 -0.03125,-0.46875 L 11.9375,9.8125 l 0.01563,0.109375 0.01563,0.109375 0.515625,-0.01563 L 13,10 12.875,10.375 q -0.125,0.375 -0.5,0.5 Q 12,11 12,10.5 M 12.90625,10.28125 13,10 13.03125,9.90625 13.0625,9.8125 13,10 q -0.0625,0.1875 -0.125,0.375 l -0.0625,0.1875 0.09375,-0.28125"
           id="path33530" />
        <path
           style="fill:#dedede;fill-opacity:1"
           d="M 12.875,10.375 13,10 l 0.5,0 0.5,0 0,0.5 0,0.5 -0.375,0.125 -0.375,0.125 0.28125,-0.09375 0.28125,-0.09375 -0.1875,0.0625 q -0.1875,0.0625 -0.3125,0.1875 l -0.125,0.125 L 13.25,11.375 13.3125,11.3125 13,11 12.6875,10.6875 12.625,10.75 l -0.0625,0.0625 0.125,-0.125 q 0.125,-0.125 0.1875,-0.3125 L 12.9375,10.1875 12.84375,10.46875 12.75,10.75 12.875,10.375"
           id="path33532" />
        <path
           style="fill:#d2d2d2;fill-opacity:1"
           d="m 14,10.5 0,-0.5 0.5,0 0.5,0 0.125,0.375 0.125,0.375 -0.09375,-0.28125 -0.09375,-0.28125 0.0625,0.1875 q 0.0625,0.1875 0.15625,0.34375 L 15.375,10.875 15.328125,10.796875 15.28125,10.71875 14.96875,11 l -0.3125,0.28125 0.04687,0.04687 L 14.75,11.375 14.65625,11.28125 Q 14.5625,11.1875 14.375,11.125 L 14.1875,11.0625 14.46875,11.15625 14.75,11.25 14.375,11.125 14,11 14,10.5 M 15.09375,10.28125 15,10 14.96875,9.90625 14.9375,9.8125 15,10 q 0.0625,0.1875 0.125,0.375 l 0.0625,0.1875 -0.09375,-0.28125"
           id="path33534" />
        <path
           style="fill:#020202;fill-opacity:1"
           d="M 15.125,10.375 15,10 15.375,9.875 15.75,9.75 15.46875,9.84375 15.1875,9.9375 15.375,9.875 Q 15.5625,9.8125 15.71875,9.71875 L 15.875,9.625 15.796875,9.671875 15.71875,9.71875 16.03125,10 l 0.3125,0.28125 0.04687,-0.04687 0.04687,-0.04687 -0.09375,0.09375 Q 16.25,10.375 16.25,10.5 l 0,0.125 0,-0.1875 0,-0.1875 0,0.25 0,0.25 0,-0.1875 0,-0.1875 0,0.125 q 0,0.125 0.09375,0.21875 l 0.09375,0.09375 -0.04687,-0.04687 -0.04687,-0.04687 -0.328125,0.265625 L 15.6875,11.25 15.71875,11.3125 15.75,11.375 15.6875,11.25 Q 15.625,11.125 15.5,11 L 15.375,10.875 15.5625,11.0625 15.75,11.25 15.5,11 Q 15.25,10.75 15.125,10.375 M 14.96875,9.90625 15,10 15.09375,10.28125 15.1875,10.5625 15.125,10.375 Q 15.0625,10.1875 15,10 l -0.0625,-0.1875 0.03125,0.09375"
           id="path33536" />
        <path
           style="fill:#000000;fill-opacity:0.12941176"
           d="m 16.25,10.5 q 0,-0.25 0.375,-0.375 L 17,10 17,10.5 17,11 16.625,10.875 Q 16.25,10.75 16.25,10.5"
           id="path33538" />
        <path
           style="fill:#000000;fill-opacity:0.25490196"
           d="M 4,11.5 Q 4,11 4.5,11 L 5,11 5,11.5 5,12 4.5,12 4,12 4,11.5"
           id="path33540" />
        <path
           style="fill:#232323;fill-opacity:0.99607843"
           d="M 5,11.5 5,11 5.375,10.875 5.75,10.75 5.46875,10.84375 5.1875,10.9375 5.375,10.875 Q 5.5625,10.8125 5.65625,10.71875 L 5.75,10.625 5.703125,10.671875 5.65625,10.71875 5.984375,10.984375 6.3125,11.25 6.34375,11.1875 6.375,11.125 6.3125,11.25 Q 6.25,11.375 6.25,11.5 l 0,0.125 0,-0.1875 0,-0.1875 0,0.25 0,0.25 0,-0.1875 0,-0.1875 0,0.125 q 0,0.125 0.0625,0.25 L 6.375,11.875 6.34375,11.8125 6.3125,11.75 6.015625,12.015625 5.71875,12.28125 5.796875,12.328125 5.875,12.375 5.71875,12.28125 Q 5.5625,12.1875 5.375,12.125 L 5.1875,12.0625 5.46875,12.15625 5.75,12.25 5.375,12.125 5,12 5,11.5"
           id="path33542" />
        <path
           style="fill:#f2f2f2;fill-opacity:1"
           d="M 6.25,11.5 Q 6.25,11.25 6.5,11 L 6.75,10.75 6.5625,10.9375 6.375,11.125 6.5,11 Q 6.625,10.875 6.71875,10.71875 L 6.8125,10.5625 6.765625,10.640625 6.71875,10.71875 7.015625,11.015625 7.3125,11.3125 7.34375,11.28125 7.375,11.25 7.3125,11.3125 Q 7.25,11.375 7.25,11.5 l 0,0.125 0,-0.1875 0,-0.1875 0,0.25 q 0,0.25 -0.265625,0.515625 L 6.71875,12.28125 6.765625,12.359375 6.8125,12.4375 6.71875,12.28125 Q 6.625,12.125 6.5,12 L 6.375,11.875 6.5625,12.0625 6.75,12.25 6.5,12 Q 6.25,11.75 6.25,11.5"
           id="path33544" />
        <path
           style="fill:#ffffff;fill-opacity:1"
           d="m 7.25,11.5 q 0,-0.25 0.25,-0.25 0.25,0 0.546875,-0.265625 L 8.34375,10.71875 8.296875,10.671875 8.25,10.625 8.34375,10.71875 Q 8.4375,10.8125 8.625,10.875 L 8.8125,10.9375 8.53125,10.84375 8.25,10.75 8.6875,10.8125 9.125,10.875 9.0625,11.4375 9,12 8.625,12.125 Q 8.25,12.25 8.125,12.625 8,13 8,13.5 L 8,14 8,14.5 8,15 8,15.5 8,16 8,16.5 Q 8,17 7.5,17 L 7,17 7,16.5 Q 7,16 7,15.5 L 7,15 7,14.5 7,14 7,13.5 Q 7,13 6.875,12.625 L 6.75,12.25 6.84375,12.53125 6.9375,12.8125 6.875,12.625 Q 6.8125,12.4375 6.71875,12.28125 L 6.625,12.125 6.671875,12.203125 6.71875,12.28125 6.984375,12.015625 Q 7.25,11.75 7.25,11.5 M 6.875,17 7,17 7.375,17 7.75,17 7.5,17 Q 7.25,17 7,17 l -0.25,0 0.125,0"
           id="path33546" />
        <path
           style="fill:#fbfbfb;fill-opacity:1"
           d="M 9.0625,11.4375 9.125,10.875 9.0625,10.8125 9,10.75 9.125,10.875 Q 9.25,11 9.5,11 L 9.75,11 9.375,11 9,11 9.375,10.875 9.75,10.75 9.46875,10.84375 9.1875,10.9375 9.375,10.875 q 0.1875,-0.0625 0.3125,-0.1875 l 0.125,-0.125 -0.0625,0.0625 -0.0625,0.0625 0.296875,0.328125 0.296875,0.328125 0.04687,-0.04687 L 10.375,11.25 10.28125,11.34375 Q 10.1875,11.4375 10.125,11.625 L 10.0625,11.8125 10.15625,11.53125 10.25,11.25 10.125,11.625 10,12 9.5,12 9,12 9.0625,11.4375"
           id="path33548" />
        <path
           style="fill:#ffffff;fill-opacity:1"
           d="M 10.125,11.625 Q 10.25,11.25 10.5,11.25 q 0.25,0 0.375,0.375 L 11,12 10.5,12 10,12 10.125,11.625"
           id="path33550" />
        <path
           style="fill:#fefefe;fill-opacity:1"
           d="M 10.875,11.625 10.75,11.25 10.84375,11.53125 10.9375,11.8125 10.875,11.625 Q 10.8125,11.4375 10.71875,11.34375 L 10.625,11.25 l 0.04687,0.04687 0.04687,0.04687 0.3125,-0.3125 0.3125,-0.3125 -0.04687,-0.04687 L 11.25,10.625 11.34375,10.71875 Q 11.4375,10.8125 11.625,10.875 L 11.8125,10.9375 11.53125,10.84375 11.25,10.75 11.6875,10.8125 12.125,10.875 12.0625,11.4375 12,12 11.5,12 11,12 10.875,11.625"
           id="path33552" />
        <path
           style="fill:#fbfbfb;fill-opacity:1"
           d="M 12.0625,11.4375 12.125,10.875 12.0625,10.8125 12,10.75 12.125,10.875 Q 12.25,11 12.5,11 l 0.25,0 -0.375,0 L 12,11 12.375,10.875 12.75,10.75 12.46875,10.84375 12.1875,10.9375 12.375,10.875 q 0.1875,-0.0625 0.3125,-0.1875 l 0.125,-0.125 L 12.75,10.625 12.6875,10.6875 13,11 l 0.3125,0.3125 0.0625,-0.0625 0.0625,-0.0625 -0.125,0.125 q -0.125,0.125 -0.1875,0.3125 L 13.0625,11.8125 13.15625,11.53125 13.25,11.25 13.0625,11.6875 12.875,12.125 12.9375,12.1875 13,12.25 12.875,12.125 Q 12.75,12 12.5,12 l -0.25,0 0.375,0 0.375,0 -0.5,0 -0.5,0 0.0625,-0.5625"
           id="path33554" />
        <path
           style="fill:#ffffff;fill-opacity:1"
           d="M 13.0625,11.6875 Q 13.25,11.25 13.625,11.125 L 14,11 l 0.375,0.125 q 0.375,0.125 0.375,0.375 0,0.25 -0.25,0.25 -0.25,0 -0.515625,0.265625 l -0.265625,0.265625 0.07813,0.04687 L 13.875,12.375 13.71875,12.28125 Q 13.5625,12.1875 13.375,12.125 L 13.1875,12.0625 13.46875,12.15625 13.75,12.25 13.3125,12.1875 12.875,12.125 13.0625,11.6875"
           id="path33556" />
        <path
           style="fill:#d3d3d3;fill-opacity:1"
           d="m 14.75,11.5 0,-0.25 0,0.1875 0,0.1875 0,-0.125 q 0,-0.125 -0.09375,-0.21875 l -0.09375,-0.09375 0.04687,0.04687 0.04687,0.04687 0.3125,-0.28125 0.3125,-0.28125 -0.04687,-0.07813 -0.04687,-0.07813 0.09375,0.15625 Q 15.375,10.875 15.5,11 L 15.625,11.125 15.4375,10.9375 15.25,10.75 15.5,11 q 0.25,0.25 0.25,0.5 0,0.25 -0.25,0.5 L 15.25,12.25 15.4375,12.0625 15.625,11.875 15.5,12 q -0.125,0.125 -0.21875,0.28125 l -0.09375,0.15625 0.04687,-0.07813 0.04687,-0.07813 L 14.984375,11.984375 14.6875,11.6875 14.65625,11.71875 14.625,11.75 14.6875,11.6875 Q 14.75,11.625 14.75,11.5 l 0,-0.125 0,0.1875 0,0.1875 0,-0.25"
           id="path33558" />
        <path
           style="fill:#080808;fill-opacity:0.97254902"
           d="m 15.75,11.5 0,-0.25 0,0.1875 0,0.1875 0,-0.125 q 0,-0.125 -0.0625,-0.25 L 15.625,11.125 15.65625,11.1875 15.6875,11.25 16.015625,10.984375 16.34375,10.71875 16.296875,10.671875 16.25,10.625 16.34375,10.71875 Q 16.4375,10.8125 16.625,10.875 L 16.8125,10.9375 16.53125,10.84375 16.25,10.75 16.625,10.875 17,11 17,11.5 17,12 16.625,12.125 16.25,12.25 16.53125,12.15625 16.8125,12.0625 16.625,12.125 q -0.1875,0.0625 -0.34375,0.15625 L 16.125,12.375 16.203125,12.328125 16.28125,12.28125 15.984375,12.015625 15.6875,11.75 15.65625,11.8125 15.625,11.875 15.6875,11.75 Q 15.75,11.625 15.75,11.5 l 0,-0.125 0,0.1875 0,0.1875 0,-0.25"
           id="path33560" />
        <path
           style="fill:#000000;fill-opacity:0.0627451"
           d="m 17,11.5 0,-0.5 0.5,0 q 0.5,0 0.5,0.5 l 0,0.5 -0.5,0 -0.5,0 0,-0.5"
           id="path33562" />
        <path
           style="fill:#000000;fill-opacity:0.07058824"
           d="M 4,12.5 4,12 4.5,12 5,12 5,12.5 5,13 4.5,13 Q 4,13 4,12.5"
           id="path33564" />
        <path
           style="fill:#0c0c0c;fill-opacity:0.65098039"
           d="M 5,12.5 5,12 5.375,12.125 Q 5.75,12.25 6,12.5 L 6.25,12.75 6.0625,12.5625 5.875,12.375 6,12.5 q 0.125,0.125 0.28125,0.21875 L 6.4375,12.8125 6.359375,12.765625 6.28125,12.71875 5.984375,13.015625 5.6875,13.3125 5.75,13.375 5.8125,13.4375 5.6875,13.3125 Q 5.5625,13.1875 5.375,13.125 L 5.1875,13.0625 5.46875,13.15625 5.75,13.25 5.375,13.125 5,13 5,12.5"
           id="path33566" />
        <path
           style="fill:#444444;fill-opacity:1"
           d="M 6,12.5 5.75,12.25 5.9375,12.4375 6.125,12.625 6,12.5 Q 5.875,12.375 5.71875,12.28125 L 5.5625,12.1875 5.640625,12.234375 5.71875,12.28125 6.015625,12.015625 6.3125,11.75 6.28125,11.6875 6.25,11.625 6.3125,11.75 Q 6.375,11.875 6.5,12 L 6.625,12.125 6.4375,11.9375 6.25,11.75 6.5,12 q 0.25,0.25 0.375,0.625 L 7,13 6.90625,12.71875 6.8125,12.4375 6.875,12.625 q 0.0625,0.1875 0.09375,0.40625 L 7,13.25 6.984375,13.140625 6.96875,13.03125 6.609375,12.890625 Q 6.25,12.75 6,12.5"
           id="path33568" />
        <path
           style="fill:#9d9d9d;fill-opacity:1"
           d="m 8.125,12.625 q 0.125,-0.375 0.5,-0.5 L 9,12 8.71875,12.09375 8.4375,12.1875 8.625,12.125 Q 8.8125,12.0625 9.03125,12.03125 L 9.25,12 9.140625,12.015625 9.03125,12.03125 9.015625,12.515625 9,13 8.515625,13.015625 8.03125,13.03125 8.015625,13.140625 8,13.25 8.03125,13.03125 Q 8.0625,12.8125 8.125,12.625 L 8.1875,12.4375 8.09375,12.71875 8,13 8.125,12.625"
           id="path33570" />
        <path
           style="fill:#393939;fill-opacity:1"
           d="M 9.015625,12.515625 9.03125,12.03125 8.921875,12.046875 8.8125,12.0625 9.03125,12.03125 Q 9.25,12 9.5,12 L 9.75,12 9.375,12 9,12 9.5,12 10,12 9.875,12.375 q -0.125,0.375 -0.5,0.5 L 9,13 9.015625,12.515625"
           id="path33572" />
        <path
           style="fill:#303030;fill-opacity:1"
           d="M 9.875,12.375 10,12 l 0.5,0 0.5,0 0.125,0.375 0.125,0.375 -0.09375,-0.28125 -0.09375,-0.28125 0.0625,0.1875 q 0.0625,0.1875 0.1875,0.3125 l 0.125,0.125 -0.0625,-0.0625 -0.0625,-0.0625 -0.296875,0.328125 -0.296875,0.328125 0.04687,0.04687 0.04687,0.04687 -0.09375,-0.09375 Q 10.625,13.25 10.5,13.25 l -0.125,0 0.1875,0 0.1875,0 -0.25,0 -0.25,0 0.1875,0 0.1875,0 -0.125,0 q -0.125,0 -0.21875,0.09375 l -0.09375,0.09375 0.04687,-0.04687 0.04687,-0.04687 L 9.984375,13.015625 9.6875,12.6875 9.625,12.75 9.5625,12.8125 9.6875,12.6875 Q 9.8125,12.5625 9.875,12.375 L 9.9375,12.1875 9.84375,12.46875 9.75,12.75 9.875,12.375"
           id="path33574" />
        <path
           style="fill:#323232;fill-opacity:1"
           d="M 11.125,12.375 11,12 l 0.5,0 0.5,0 0,0.5 0,0.5 -0.375,-0.125 q -0.375,-0.125 -0.5,-0.5"
           id="path33576" />
        <path
           style="fill:#383838;fill-opacity:1"
           d="m 12,12.5 0,-0.5 0.5,0 q 0.5,0 0.5,0.5 l 0,0.5 -0.5,0 -0.5,0 0,-0.5 m 1,0.625 0,-0.125 0,-0.375 0,-0.375 0,0.25 q 0,0.25 0,0.5 l 0,0.25 0,-0.125"
           id="path33578" />
        <path
           style="fill:#c5c5c5;fill-opacity:1"
           d="m 13,12.5 0,-0.5 0,0.375 0,0.375 0,-0.25 q 0,-0.25 -0.125,-0.375 L 12.75,12 l 0.0625,0.0625 0.0625,0.0625 0.4375,0.0625 Q 13.75,12.25 14,12.5 L 14.25,12.75 14.0625,12.5625 13.875,12.375 14,12.5 q 0.125,0.125 0.28125,0.21875 l 0.15625,0.09375 -0.07813,-0.04687 -0.07813,-0.04687 -0.296875,0.296875 -0.296875,0.296875 0.0625,0.0625 0.0625,0.0625 -0.125,-0.125 Q 13.5625,13.1875 13.375,13.125 L 13.1875,13.0625 13.46875,13.15625 13.75,13.25 13.375,13.125 13,13 13,12.5 m 0,0.125 0,0.375 0,0.125 0,0.125 0,-0.25 q 0,-0.25 0,-0.5 l 0,-0.25 0,0.375"
           id="path33580" />
        <path
           style="fill:#e1e1e1;fill-opacity:1"
           d="M 14,12.5 13.75,12.25 13.9375,12.4375 14.125,12.625 14,12.5 q -0.125,-0.125 -0.28125,-0.21875 l -0.15625,-0.09375 0.07813,0.04687 0.07813,0.04687 0.265625,-0.265625 Q 14.25,11.75 14.5,11.75 l 0.25,0 -0.1875,0 -0.1875,0 0.125,0 q 0.125,0 0.1875,-0.0625 l 0.0625,-0.0625 -0.03125,0.03125 -0.03125,0.03125 0.296875,0.296875 0.296875,0.296875 0.04687,-0.07813 L 15.375,12.125 15.28125,12.28125 Q 15.1875,12.4375 15.125,12.625 L 15.0625,12.8125 15.15625,12.53125 15.25,12.25 15.125,12.625 15,13 15.09375,12.71875 15.1875,12.4375 15.125,12.625 q -0.0625,0.1875 -0.09375,0.40625 L 15,13.25 15.015625,13.140625 15.03125,13.03125 14.640625,12.890625 Q 14.25,12.75 14,12.5"
           id="path33582" />
        <path
           style="fill:#323232;fill-opacity:1"
           d="M 15.125,12.625 Q 15.25,12.25 15.5,12 L 15.75,11.75 15.5625,11.9375 15.375,12.125 15.5,12 q 0.125,-0.125 0.1875,-0.25 l 0.0625,-0.125 -0.03125,0.0625 -0.03125,0.0625 0.296875,0.265625 0.296875,0.265625 0.07813,-0.04687 0.07813,-0.04687 -0.15625,0.09375 Q 16.125,12.375 16,12.5 L 15.875,12.625 16.0625,12.4375 16.25,12.25 16,12.5 q -0.25,0.25 -0.609375,0.390625 L 15.03125,13.03125 15.015625,13.140625 15,13.25 15.03125,13.03125 Q 15.0625,12.8125 15.125,12.625 L 15.1875,12.4375 15.09375,12.71875 15,13 15.125,12.625"
           id="path33584" />
        <path
           style="fill:#050505;fill-opacity:0.40784314"
           d="m 16,12.5 q 0.25,-0.25 0.625,-0.375 L 17,12 17,12.5 17,13 16.625,13.125 16.25,13.25 16.53125,13.15625 16.8125,13.0625 16.625,13.125 q -0.1875,0.0625 -0.3125,0.1875 l -0.125,0.125 0.0625,-0.0625 0.0625,-0.0625 -0.296875,-0.296875 -0.296875,-0.296875 -0.07813,0.04687 -0.07813,0.04687 0.15625,-0.09375 Q 15.875,12.625 16,12.5 L 16.125,12.375 15.9375,12.5625 15.75,12.75 16,12.5"
           id="path33586" />
        <path
           style="fill:#000000;fill-opacity:0.01568627"
           d="m 17,12.5 0,-0.5 0.5,0 0.5,0 0,0.5 Q 18,13 17.5,13 l -0.5,0 0,-0.5"
           id="path33588" />
        <path
           style="fill:#000000;fill-opacity:0.14901961"
           d="M 5,13.5 5,13 5.375,13.125 q 0.375,0.125 0.5,0.5 L 6,14 5.5,14 5,14 5,13.5"
           id="path33590" />
        <path
           style="fill:#0b0b0b;fill-opacity:1"
           d="M 5.875,13.625 5.75,13.25 5.84375,13.53125 5.9375,13.8125 5.875,13.625 Q 5.8125,13.4375 5.6875,13.3125 L 5.5625,13.1875 5.625,13.25 5.6875,13.3125 5.984375,13.015625 6.28125,12.71875 6.203125,12.671875 6.125,12.625 6.28125,12.71875 Q 6.4375,12.8125 6.625,12.875 L 6.8125,12.9375 6.53125,12.84375 6.25,12.75 6.609375,12.890625 6.96875,13.03125 6.953125,12.921875 6.9375,12.8125 6.96875,13.03125 Q 7,13.25 7,13.5 L 7,13.75 7,13.375 7,13 7,13.5 7,14 6.5,14 6,14 5.875,13.625"
           id="path33592" />
        <path
           style="fill:#6a6a6a;fill-opacity:1"
           d="M 8,13.5 8,13 8,13.375 8,13.75 8,13.5 Q 8,13.25 8.03125,13.03125 L 8.0625,12.8125 8.046875,12.921875 8.03125,13.03125 8.515625,13.015625 9,13 9,13.5 9,14 8.5,14 8,14 8,13.5"
           id="path33594" />
        <path
           style="fill:#000000;fill-opacity:0.79215686"
           d="M 9,13.5 9,13 9.375,12.875 9.75,12.75 9.46875,12.84375 9.1875,12.9375 9.375,12.875 q 0.1875,-0.0625 0.3125,-0.1875 l 0.125,-0.125 -0.0625,0.0625 -0.0625,0.0625 0.296875,0.328125 0.296875,0.328125 0.04687,-0.04687 L 10.375,13.25 10.28125,13.34375 Q 10.1875,13.4375 10.125,13.625 L 10.0625,13.8125 10.15625,13.53125 10.25,13.25 10.125,13.625 10,14 9.5,14 9,14 9,13.5"
           id="path33596" />
        <path
           style="fill:#000000;fill-opacity:0.34117647"
           d="M 10.125,13.625 Q 10.25,13.25 10.5,13.25 q 0.25,0 0.375,0.375 L 11,14 10.5,14 10,14 10.125,13.625"
           id="path33598" />
        <path
           style="fill:#000000;fill-opacity:0.35294118"
           d="M 10.875,13.625 10.75,13.25 10.84375,13.53125 10.9375,13.8125 10.875,13.625 Q 10.8125,13.4375 10.71875,13.34375 L 10.625,13.25 l 0.04687,0.04687 0.04687,0.04687 0.296875,-0.328125 L 11.3125,12.6875 11.25,12.625 l -0.0625,-0.0625 0.125,0.125 q 0.125,0.125 0.3125,0.1875 L 11.8125,12.9375 11.53125,12.84375 11.25,12.75 11.625,12.875 12,13 l 0,0.5 0,0.5 -0.5,0 -0.5,0 -0.125,-0.375"
           id="path33600" />
        <path
           style="fill:#000000;fill-opacity:0.91764706"
           d="m 12,13.5 0,-0.5 0.5,0 0.5,0 0,0.5 0,0.5 -0.5,0 -0.5,0 0,-0.5 M 13,13.375 13,13 13,12.875 13,12.75 13,13 q 0,0.25 0,0.5 l 0,0.25 0,-0.375"
           id="path33602" />
        <path
           style="fill:#a0a0a0;fill-opacity:1"
           d="m 13,13.5 0,-0.5 0.375,0.125 q 0.375,0.125 0.5,0.5 L 14,14 13.5,14 13,14 13,13.5 m 0,-0.625 0,0.125 0,0.375 0,0.375 0,-0.25 q 0,-0.25 0,-0.5 l 0,-0.25 0,0.125"
           id="path33604" />
        <path
           style="fill:#e3e3e3;fill-opacity:1"
           d="M 13.875,13.625 13.75,13.25 13.84375,13.53125 13.9375,13.8125 13.875,13.625 q -0.0625,-0.1875 -0.1875,-0.3125 l -0.125,-0.125 0.0625,0.0625 0.0625,0.0625 0.296875,-0.296875 0.296875,-0.296875 -0.07813,-0.04687 L 14.125,12.625 14.28125,12.71875 Q 14.4375,12.8125 14.625,12.875 L 14.8125,12.9375 14.53125,12.84375 14.25,12.75 l 0.390625,0.140625 0.390625,0.140625 0.01563,-0.109375 0.01563,-0.109375 -0.03125,0.21875 Q 15,13.25 15,13.5 l 0,0.25 0,-0.375 0,-0.375 0,0.5 0,0.5 -0.5,0 -0.5,0 -0.125,-0.375"
           id="path33606" />
        <path
           style="fill:#000000;fill-opacity:0.99215686"
           d="m 15,13.5 0,-0.5 0,0.375 0,0.375 0,-0.25 q 0,-0.25 0.03125,-0.46875 L 15.0625,12.8125 15.046875,12.921875 15.03125,13.03125 15.390625,12.890625 15.75,12.75 15.46875,12.84375 15.1875,12.9375 15.375,12.875 q 0.1875,-0.0625 0.34375,-0.15625 L 15.875,12.625 l -0.07813,0.04687 -0.07813,0.04687 0.296875,0.296875 0.296875,0.296875 0.0625,-0.0625 0.0625,-0.0625 -0.125,0.125 q -0.125,0.125 -0.1875,0.3125 L 16.0625,13.8125 16.15625,13.53125 16.25,13.25 16.125,13.625 16,14 15.5,14 15,14 15,13.5"
           id="path33608" />
        <path
           style="fill:#000000;fill-opacity:0.01568627"
           d="m 16.125,13.625 q 0.125,-0.375 0.5,-0.5 L 17,13 l 0,0.5 0,0.5 -0.5,0 -0.5,0 0.125,-0.375"
           id="path33610" />
        <path
           style="fill:#000000;fill-opacity:0.30196078"
           d="M 5,14.5 5,14 5.5,14 6,14 5.875,14.375 q -0.125,0.375 -0.5,0.5 L 5,15 5,14.5"
           id="path33612" />
        <path
           style="fill:#2a2a2a;fill-opacity:1"
           d="M 5.875,14.375 6,14 6.5,14 7,14 7,14.5 7,15 6.625,15.125 6.25,15.25 6.53125,15.15625 6.8125,15.0625 6.625,15.125 Q 6.4375,15.1875 6.3125,15.3125 L 6.1875,15.4375 6.25,15.375 6.3125,15.3125 6,15 5.6875,14.6875 5.625,14.75 5.5625,14.8125 5.6875,14.6875 Q 5.8125,14.5625 5.875,14.375 L 5.9375,14.1875 5.84375,14.46875 5.75,14.75 5.875,14.375"
           id="path33614" />
        <path
           style="fill:#515151;fill-opacity:1"
           d="M 8,14.5 8,14 8.5,14 9,14 8.875,14.375 q -0.125,0.375 -0.5,0.5 L 8,15 8,14.5"
           id="path33616" />
        <path
           style="fill:#000000;fill-opacity:0.53333333"
           d="M 8.875,14.375 9,14 9.5,14 10,14 10,14.5 10,15 9.625,15.125 9.25,15.25 9.53125,15.15625 9.8125,15.0625 9.625,15.125 Q 9.4375,15.1875 9.3125,15.3125 L 9.1875,15.4375 9.25,15.375 9.3125,15.3125 9,15 8.6875,14.6875 8.625,14.75 8.5625,14.8125 8.6875,14.6875 Q 8.8125,14.5625 8.875,14.375 L 8.9375,14.1875 8.84375,14.46875 8.75,14.75 8.875,14.375"
           id="path33618" />
        <path
           style="fill:#000000;fill-opacity:0.76078431"
           d="m 12,14.5 0,-0.5 0.5,0 0.5,0 0,0.5 0,0.5 -0.5,0 -0.5,0 0,-0.5"
           id="path33620" />
        <path
           style="fill:#828282;fill-opacity:1"
           d="m 13,14.5 0,-0.5 0.5,0 0.5,0 0,0.5 0,0.5 -0.5,0 -0.5,0 0,-0.5"
           id="path33622" />
        <path
           style="fill:#f8f8f8;fill-opacity:1"
           d="m 14,14.5 0,-0.5 0.5,0 0.5,0 0,0.5 0,0.5 -0.5,0 -0.5,0 0,-0.5"
           id="path33624" />
        <path
           style="fill:#0a0a0a;fill-opacity:1"
           d="m 15,14.5 0,-0.5 0.5,0 0.5,0 0,0.5 0,0.5 -0.5,0 -0.5,0 0,-0.5"
           id="path33626" />
        <path
           style="fill:#000000;fill-opacity:0.07843137"
           d="m 16,14.5 0,-0.5 0.5,0 0.5,0 0,0.5 0,0.5 -0.5,0 -0.5,0 0,-0.5"
           id="path33628" />
        <path
           style="fill:#000000;fill-opacity:0.55686275"
           d="M 5,15.5 5,15 5.375,14.875 5.75,14.75 5.46875,14.84375 5.1875,14.9375 5.375,14.875 Q 5.5625,14.8125 5.6875,14.6875 L 5.8125,14.5625 5.75,14.625 5.6875,14.6875 6,15 6.3125,15.3125 6.375,15.25 6.4375,15.1875 6.3125,15.3125 Q 6.1875,15.4375 6.125,15.625 L 6.0625,15.8125 6.15625,15.53125 6.25,15.25 6.125,15.625 6,16 5.5,16 5,16 5,15.5"
           id="path33630" />
        <path
           style="fill:#555555;fill-opacity:1"
           d="m 6.125,15.625 q 0.125,-0.375 0.5,-0.5 L 7,15 7,15.5 7,16 6.515625,16.015625 6.03125,16.03125 6.015625,16.140625 6,16.25 6.03125,16.03125 Q 6.0625,15.8125 6.125,15.625 L 6.1875,15.4375 6.09375,15.71875 6,16 6.125,15.625 M 7,16.125 7,16 7,15.625 7,15.25 7,15.5 q 0,0.25 0,0.5 l 0,0.25 0,-0.125"
           id="path33632" />
        <path
           style="fill:#2b2b2b;fill-opacity:1"
           d="M 8,15.5 8,15 8.375,14.875 8.75,14.75 8.46875,14.84375 8.1875,14.9375 8.375,14.875 Q 8.5625,14.8125 8.6875,14.6875 L 8.8125,14.5625 8.75,14.625 8.6875,14.6875 9,15 9.3125,15.3125 9.375,15.25 9.4375,15.1875 9.3125,15.3125 Q 9.1875,15.4375 9.125,15.625 L 9.0625,15.8125 9.15625,15.53125 9.25,15.25 9.125,15.625 9,16 8.5,16 8,16 8,15.5"
           id="path33634" />
        <path
           style="fill:#000000;fill-opacity:0.30980392"
           d="m 9.125,15.625 q 0.125,-0.375 0.5,-0.5 L 10,15 10,15.5 10,16 9.5,16 9,16 9.125,15.625"
           id="path33636" />
        <path
           style="fill:#000000;fill-opacity:0.55686275"
           d="m 12,15.5 0,-0.5 0.5,0 0.5,0 0.125,0.375 0.125,0.375 -0.09375,-0.28125 -0.09375,-0.28125 0.0625,0.1875 q 0.0625,0.1875 0.1875,0.3125 l 0.125,0.125 L 13.375,15.75 13.3125,15.6875 13,16 l -0.3125,0.3125 0.0625,0.0625 0.0625,0.0625 -0.125,-0.125 Q 12.5625,16.1875 12.375,16.125 L 12.1875,16.0625 12.46875,16.15625 12.75,16.25 12.375,16.125 12,16 12,15.5"
           id="path33638" />
        <path
           style="fill:#555555;fill-opacity:1"
           d="M 13.125,15.375 13,15 l 0.5,0 0.5,0 0,0.5 0,0.5 -0.375,-0.125 q -0.375,-0.125 -0.5,-0.5"
           id="path33640" />
        <path
           style="fill:#ffffff;fill-opacity:1"
           d="m 14,15.5 0,-0.5 0.5,0 0.5,0 0,0.5 q 0,0.5 -0.125,0.875 -0.125,0.375 -0.5,0.5 Q 14,17 14,16.5 l 0,-0.5 0,-0.5"
           id="path33642" />
        <path
           style="fill:#2b2b2b;fill-opacity:1"
           d="m 15,15.5 0,-0.5 0.5,0 0.5,0 0.125,0.375 0.125,0.375 -0.09375,-0.28125 -0.09375,-0.28125 0.0625,0.1875 q 0.0625,0.1875 0.1875,0.3125 l 0.125,0.125 L 16.375,15.75 16.3125,15.6875 16,16 l -0.3125,0.3125 0.0625,0.0625 0.0625,0.0625 -0.125,-0.125 Q 15.5625,16.1875 15.375,16.125 L 15.1875,16.0625 15.46875,16.15625 15.75,16.25 15.359375,16.109375 14.96875,15.96875 14.953125,16.078125 14.9375,16.1875 14.96875,15.96875 Q 15,15.75 15,15.5 l 0,-0.25 0,0.375 0,0.375 0,-0.5"
           id="path33644" />
        <path
           style="fill:#000000;fill-opacity:0.30980392"
           d="M 16.125,15.375 16,15 l 0.5,0 0.5,0 0,0.5 0,0.5 -0.375,-0.125 q -0.375,-0.125 -0.5,-0.5"
           id="path33646" />
        <path
           style="fill:#000000;fill-opacity:0.86666667"
           d="M 5,16.5 5,16 5.5,16 6,16 6,16.5 6,17 5.5,17 5,17 5,16.5"
           id="path33648" />
        <path
           style="fill:#a2a2a2;fill-opacity:1"
           d="M 6,16.5 6,16 6,16.375 6,16.75 6,16.5 Q 6,16.25 6.03125,16.03125 L 6.0625,15.8125 6.046875,15.921875 6.03125,16.03125 6.515625,16.015625 7,16 7,16.5 7,17 6.515625,16.984375 6.03125,16.96875 6.046875,17.078125 6.0625,17.1875 6.03125,16.96875 Q 6,16.75 6,16.5 L 6,16.25 6,16.625 6,17 6,16.5 M 6.625,17 7,17 7.125,17 7.25,17 7,17 q -0.25,0 -0.5,0 l -0.25,0 0.375,0 M 7,16.375 7,16 7,15.875 7,15.75 7,16 q 0,0.25 0,0.5 l 0,0.25 0,-0.375"
           id="path33650" />
        <path
           style="fill:#080808;fill-opacity:1"
           d="M 8,16.5 8,16 8.5,16 9,16 9,16.5 9,17 8.4375,16.9375 7.875,16.875 7.8125,16.9375 7.75,17 7.875,16.875 Q 8,16.75 8,16.5 L 8,16.25 8,16.625 8,17 8,16.5"
           id="path33652" />
        <path
           style="fill:#000000;fill-opacity:0.0627451"
           d="m 9,16.5 0,-0.5 0.5,0 0.5,0 0,0.5 Q 10,17 9.5,17 L 9,17 9,16.5"
           id="path33654" />
        <path
           style="fill:#000000;fill-opacity:0.2745098"
           d="m 12,16.5 0,-0.5 0.375,0.125 q 0.375,0.125 0.5,0.5 L 13,17 12.5,17 12,17 12,16.5"
           id="path33656" />
        <path
           style="fill:#262626;fill-opacity:1"
           d="M 12.875,16.625 12.75,16.25 12.84375,16.53125 12.9375,16.8125 12.875,16.625 q -0.0625,-0.1875 -0.1875,-0.3125 l -0.125,-0.125 0.0625,0.0625 0.0625,0.0625 L 13,16 13.3125,15.6875 13.25,15.625 l -0.0625,-0.0625 0.125,0.125 q 0.125,0.125 0.3125,0.1875 L 13.8125,15.9375 13.53125,15.84375 13.25,15.75 13.625,15.875 14,16 l 0,0.5 0,0.5 0,-0.375 0,-0.375 0,0.25 q 0,0.25 0.125,0.375 L 14.25,17 14.1875,16.9375 14.125,16.875 13.5625,16.9375 13,17 12.875,16.625"
           id="path33658" />
        <path
           style="fill:#6c6c6c;fill-opacity:1"
           d="M 14.875,16.375 15,16 14.90625,16.28125 14.8125,16.5625 14.875,16.375 q 0.0625,-0.1875 0.09375,-0.40625 L 15,15.75 l -0.01563,0.109375 -0.01563,0.109375 0.390625,0.140625 Q 15.75,16.25 15.875,16.625 L 16,17 15.90625,16.71875 15.8125,16.4375 15.875,16.625 q 0.0625,0.1875 0.0625,0.375 l 0,0.1875 0,-0.09375 0,-0.09375 -0.34375,0.125 L 15.25,17.25 15.53125,17.15625 15.8125,17.0625 15.625,17.125 q -0.1875,0.0625 -0.3125,0.1875 l -0.125,0.125 L 15.25,17.375 15.3125,17.3125 15,17 14.6875,16.6875 14.625,16.75 l -0.0625,0.0625 0.125,-0.125 q 0.125,-0.125 0.1875,-0.3125 L 14.9375,16.1875 14.84375,16.46875 14.75,16.75 14.875,16.375"
           id="path33660" />
        <path
           style="fill:#000000;fill-opacity:0.66666667"
           d="M 15.875,16.625 15.75,16.25 15.84375,16.53125 15.9375,16.8125 15.875,16.625 q -0.0625,-0.1875 -0.1875,-0.3125 l -0.125,-0.125 0.0625,0.0625 0.0625,0.0625 L 16,16 16.3125,15.6875 16.25,15.625 l -0.0625,-0.0625 0.125,0.125 q 0.125,0.125 0.3125,0.1875 L 16.8125,15.9375 16.53125,15.84375 16.25,15.75 16.625,15.875 17,16 l 0,0.5 0,0.5 -0.5,0 -0.5,0 -0.125,-0.375"
           id="path33662" />
        <path
           style="fill:#000000;fill-opacity:0.48627451"
           d="M 5,17.5 5,17 5.5,17 6,17 6.125,17.375 q 0.125,0.375 0.5,0.5 L 7,18 7,18.5 7,19 6.5,19 Q 6,19 5.875,18.625 5.75,18.25 5.375,18.125 5,18 5,17.5"
           id="path33664" />
        <path
           style="fill:#494949;fill-opacity:0.98431373"
           d="M 6.125,17.375 6,17 6.09375,17.28125 6.1875,17.5625 6.125,17.375 Q 6.0625,17.1875 6.03125,16.96875 L 6,16.75 6.015625,16.859375 6.03125,16.96875 6.515625,16.984375 7,17 7,17.5 7,18 6.625,17.875 q -0.375,-0.125 -0.5,-0.5"
           id="path33666" />
        <path
           style="fill:#505050;fill-opacity:1"
           d="M 7,17.5 7,17 7.5,17 8,17 7.625,17 7.25,17 7.5,17 q 0.25,0 0.375,-0.125 L 8,16.75 7.9375,16.8125 7.875,16.875 7.8125,17.3125 Q 7.75,17.75 7.375,17.875 L 7,18 7,17.5"
           id="path33668" />
        <path
           style="fill:#000000;fill-opacity:0.56078431"
           d="M 7.8125,17.3125 7.875,16.875 8.4375,16.9375 9,17 9,17.5 Q 9,18 8.625,18.125 L 8.25,18.25 8.53125,18.15625 8.8125,18.0625 8.625,18.125 Q 8.4375,18.1875 8.3125,18.3125 L 8.1875,18.4375 8.25,18.375 8.3125,18.3125 8,18 7.6875,17.6875 7.625,17.75 7.5625,17.8125 7.6875,17.6875 Q 7.8125,17.5625 7.875,17.375 L 7.9375,17.1875 7.84375,17.46875 7.75,17.75 7.8125,17.3125"
           id="path33670" />
        <path
           style="fill:#000000;fill-opacity:0.02352941"
           d="m 12,17.5 0,-0.5 0.5,0 0.5,0 0,0.5 0,0.5 -0.5,0 Q 12,18 12,17.5"
           id="path33672" />
        <path
           style="fill:#040404;fill-opacity:0.72941176"
           d="M 13,17.5 13,17 13.5625,16.9375 14.125,16.875 14.1875,17.3125 14.25,17.75 14.15625,17.46875 14.0625,17.1875 14.125,17.375 q 0.0625,0.1875 0.1875,0.3125 l 0.125,0.125 L 14.375,17.75 14.3125,17.6875 14,18 l -0.3125,0.3125 0.0625,0.0625 0.0625,0.0625 -0.125,-0.125 Q 13.5625,18.1875 13.375,18.125 L 13.1875,18.0625 13.46875,18.15625 13.75,18.25 13.375,18.125 13,18 13,17.5"
           id="path33674" />
        <path
           style="fill:#5f5f5f;fill-opacity:1"
           d="M 14.1875,17.3125 14.125,16.875 14.0625,16.8125 14,16.75 14.125,16.875 Q 14.25,17 14.5,17 l 0.25,0 -0.375,0 L 14,17 14.375,16.875 14.75,16.75 14.46875,16.84375 14.1875,16.9375 14.375,16.875 q 0.1875,-0.0625 0.3125,-0.1875 l 0.125,-0.125 L 14.75,16.625 14.6875,16.6875 15,17 l 0.3125,0.3125 0.0625,-0.0625 0.0625,-0.0625 -0.125,0.125 q -0.125,0.125 -0.1875,0.3125 L 15.0625,17.8125 15.15625,17.53125 15.25,17.25 15.125,17.625 15,18 14.625,17.875 Q 14.25,17.75 14.1875,17.3125"
           id="path33676" />
        <path
           style="fill:#353535;fill-opacity:0.94901961"
           d="m 15.125,17.625 q 0.125,-0.375 0.46875,-0.5 L 15.9375,17 l 0,-0.09375 0,-0.09375 0,0.1875 q 0,0.1875 -0.0625,0.375 L 15.8125,17.5625 15.90625,17.28125 16,17 15.875,17.375 q -0.125,0.375 -0.5,0.5 L 15,18 15.125,17.625"
           id="path33678" />
        <path
           style="fill:#000000;fill-opacity:0.37254902"
           d="M 15.875,17.375 16,17 l 0.5,0 0.5,0 0,0.5 q 0,0.5 -0.375,0.625 -0.375,0.125 -0.5,0.5 Q 16,19 15.5,19 l -0.5,0 0,-0.5 0,-0.5 0.375,-0.125 q 0.375,-0.125 0.5,-0.5"
           id="path33680" />
        <path
           style="fill:#000000;fill-opacity:0.52941176"
           d="M 7,18.5 7,18 7.375,17.875 7.75,17.75 7.46875,17.84375 7.1875,17.9375 7.375,17.875 Q 7.5625,17.8125 7.6875,17.6875 L 7.8125,17.5625 7.75,17.625 7.6875,17.6875 8,18 8.3125,18.3125 8.375,18.25 8.4375,18.1875 8.3125,18.3125 Q 8.1875,18.4375 8.125,18.625 L 8.0625,18.8125 8.15625,18.53125 8.25,18.25 8.125,18.625 Q 8,19 7.5,19 L 7,19 7,18.5"
           id="path33682" />
        <path
           style="fill:#000000;fill-opacity:0.02352941"
           d="m 13,18.5 0,-0.5 0.375,0.125 q 0.375,0.125 0.5,0.5 L 14,19 13.5,19 Q 13,19 13,18.5"
           id="path33684" />
        <path
           style="fill:#000000;fill-opacity:0.60784314"
           d="M 13.875,18.625 13.75,18.25 13.84375,18.53125 13.9375,18.8125 13.875,18.625 q -0.0625,-0.1875 -0.1875,-0.3125 l -0.125,-0.125 0.0625,0.0625 0.0625,0.0625 L 14,18 14.3125,17.6875 14.25,17.625 l -0.0625,-0.0625 0.125,0.125 q 0.125,0.125 0.3125,0.1875 L 14.8125,17.9375 14.53125,17.84375 14.25,17.75 14.625,17.875 15,18 l 0,0.5 0,0.5 -0.5,0 -0.5,0 -0.125,-0.375"
           id="path33686" />
      </g>
    </g>
  </g>
</svg>
