<?xml version="1.0" encoding="UTF-8" standalone="no"?>
<!-- Created with Inkscape (http://www.inkscape.org/) -->

<svg
   xmlns:dc="http://purl.org/dc/elements/1.1/"
   xmlns:cc="http://creativecommons.org/ns#"
   xmlns:rdf="http://www.w3.org/1999/02/22-rdf-syntax-ns#"
   xmlns:svg="http://www.w3.org/2000/svg"
   xmlns="http://www.w3.org/2000/svg"
   xmlns:sodipodi="http://sodipodi.sourceforge.net/DTD/sodipodi-0.dtd"
   xmlns:inkscape="http://www.inkscape.org/namespaces/inkscape"
   width="20"
   height="20"
   viewBox="0 0 20 20"
   id="svg3347"
   version="1.1"
   inkscape:version="0.91 r13725"
   sodipodi:docname="Civ5Icon.Team11.svg">
  <defs
     id="defs3349" />
  <sodipodi:namedview
     id="base"
     pagecolor="#ffffff"
     bordercolor="#666666"
     borderopacity="1.0"
     inkscape:pageopacity="0.0"
     inkscape:pageshadow="2"
     inkscape:zoom="11.2"
     inkscape:cx="7.324946"
     inkscape:cy="8.5424036"
     inkscape:document-units="px"
     inkscape:current-layer="g27203"
     showgrid="false"
     units="px"
     inkscape:window-width="1477"
     inkscape:window-height="962"
     inkscape:window-x="533"
     inkscape:window-y="95"
     inkscape:window-maximized="0" />
  <metadata
     id="metadata3352">
    <rdf:RDF>
      <cc:Work
         rdf:about="">
        <dc:format>image/svg+xml</dc:format>
        <dc:type
           rdf:resource="http://purl.org/dc/dcmitype/StillImage" />
        <dc:title></dc:title>
      </cc:Work>
    </rdf:RDF>
  </metadata>
  <g
     inkscape:label="Layer 1"
     inkscape:groupmode="layer"
     id="layer1"
     transform="translate(0,-1032.3622)">
    <g
       transform="translate(-0.22321519 1031.8712)"
       id="g27203">
      <g
         transform="translate(-0.44642728,-0.17864258)"
         id="g67782">
        <path
           style="fill:#000000;fill-opacity:0"
           d="M 0,0.5 0,0 0.5,0 1,0 1.5,0 2,0 2.5,0 3,0 3.5,0 4,0 4.5,0 5,0 5.5,0 6,0 6.5,0 7,0 7.5,0 8,0 8.5,0 9,0 9.5,0 10,0 l 0.5,0 0.5,0 0.5,0 0.5,0 0.5,0 0.5,0 0.5,0 0.5,0 0.5,0 0.5,0 0.5,0 0.5,0 0.5,0 0.5,0 0.5,0 0.5,0 0.5,0 0.5,0 0.5,0 0.5,0 0.5,0 0.5,0 0.5,0 0.5,0 0,0.5 0,0.5 0,0.5 0,0.5 0,0.5 0,0.5 0,0.5 0,0.5 0,0.5 0,0.5 0,0.5 0,0.5 0,0.5 0,0.5 0,0.5 0,0.5 0,0.5 0,0.5 0,0.5 0,0.5 0,0.5 0,0.5 0,0.5 0,0.5 0,0.5 0,0.5 0,0.5 0,0.5 0,0.5 0,0.5 0,0.5 0,0.5 0,0.5 0,0.5 0,0.5 0,0.5 0,0.5 0,0.5 0,0.5 0,0.5 0,0.5 0,0.5 0,0.5 0,0.5 -0.5,0 L 21,22 20.5,22 20,22 19.5,22 19,22 18.5,22 18,22 17.5,22 17,22 16.5,22 16,22 15.5,22 15,22 14.5,22 14,22 13.5,22 13,22 12.5,22 12,22 11.5,22 11,22 10.5,22 10,22 9.5,22 9,22 8.5,22 8,22 7.5,22 7,22 6.5,22 6,22 5.5,22 5,22 4.5,22 4,22 3.5,22 3,22 2.5,22 2,22 1.5,22 1,22 0.5,22 0,22 0,21.5 0,21 0,20.5 0,20 0,19.5 0,19 0,18.5 0,18 0,17.5 0,17 0,16.5 0,16 0,15.5 0,15 0,14.5 0,14 0,13.5 0,13 0,12.5 0,12 0,11.5 0,11 0,10.5 0,10 0,9.5 0,9 0,8.5 0,8 0,7.5 0,7 0,6.5 0,6 0,5.5 0,5 0,4.5 0,4 0,3.5 0,3 0,2.5 0,2 0,1.5 0,1 0,0.5 M 14.625,20.875 15,21 15.375,20.875 q 0.375,-0.125 0.5,-0.5 L 16,20 15.875,19.625 Q 15.75,19.25 15.5,19 15.25,18.75 15.125,18.375 15,18 14.625,17.875 14.25,17.75 14.125,17.375 14,17 13.625,16.875 13.25,16.75 13.125,16.375 13,16 12.625,15.875 12.25,15.75 12.125,15.375 L 12,15 l 0,-0.5 0,-0.5 0,-0.5 0,-0.5 0.5,0 0.5,0 0,0.5 q 0,0.5 0.5,0.5 l 0.5,0 0.5,0 0.5,0 0.5,0 0.5,0 0.5,0 0.5,0 0.5,0 Q 18,14 18,13.5 l 0,-0.5 0.5,0 Q 19,13 19,12.5 l 0,-0.5 0.5,0 Q 20,12 20,11.5 L 20,11 20,10.5 20,10 20,9.5 20,9 20,8.5 20,8 20,7.5 20,7 20,6.5 Q 20,6 19.5,6 L 19,6 19,5.5 Q 19,5 18.5,5 L 18,5 18,4.5 Q 18,4 17.5,4 L 17,4 17,3.5 Q 17,3 16.5,3 L 16,3 16,2.5 Q 16,2 15.5,2 L 15,2 15,1.5 Q 15,1 14.5,1 L 14,1 13.5,1 13,1 12.5,1 Q 12,1 12,1.5 L 12,2 12,2.5 12,3 11.5,3 Q 11,3 11,3.5 L 11,4 11,4.5 11,5 10.5,5 10,5 10,4.5 Q 10,4 9.5,4 L 9,4 9,3.5 Q 9,3 8.5,3 L 8,3 7.5,3 Q 7,3 7,3.5 L 7,4 6.5,4 6,4 5.5,4 Q 5,4 5,4.5 L 5,5 4.5,5 Q 4,5 4,5.5 L 4,6 4,6.5 4,7 3.625,6.875 Q 3.25,6.75 2.984375,7.046875 L 2.71875,7.34375 2.765625,7.390625 2.8125,7.4375 2.71875,7.34375 Q 2.625,7.25 2.5,7.25 l -0.125,0 0.1875,0 0.1875,0 -0.25,0 -0.25,0 0.1875,0 0.1875,0 -0.125,0 q -0.125,0 -0.21875,0.09375 L 2.1875,7.4375 2.234375,7.390625 2.28125,7.34375 2.015625,7.046875 Q 1.75,6.75 1.375,6.875 1,7 0.875,7.375 0.75,7.75 1.046875,8.015625 L 1.34375,8.28125 1.390625,8.234375 1.4375,8.1875 1.34375,8.28125 Q 1.25,8.375 1.25,8.5 l 0,0.125 0,-0.1875 0,-0.1875 0,0.25 0,0.25 0,-0.1875 0,-0.1875 0,0.125 q 0,0.125 0.09375,0.21875 L 1.4375,8.8125 1.390625,8.765625 1.34375,8.71875 1.046875,8.984375 Q 0.75,9.25 0.875,9.625 1,10 1.375,10.125 q 0.375,0.125 0.5,0.5 0.125,0.375 0.5,0.5 0.375,0.125 0.5,0.5 0.125,0.375 0.5,0.5 0.375,0.125 0.5,0.5 Q 4,13 4.375,13.125 4.75,13.25 5.015625,12.984375 L 5.28125,12.71875 5.234375,12.640625 5.1875,12.5625 5.28125,12.71875 Q 5.375,12.875 5.5,13 L 5.625,13.125 5.4375,12.9375 5.25,12.75 5.5,13 q 0.25,0.25 0.5,0.5 0.25,0.25 0.5,0.5 0.25,0.25 0.375,0.625 0.125,0.375 0.5,0.5 0.375,0.125 0.5,0.5 0.125,0.375 0.5,0.5 0.375,0.125 0.5,0.5 0.125,0.375 0.5,0.5 0.375,0.125 0.5,0.5 0.125,0.375 0.5,0.5 0.375,0.125 0.5,0.5 0.125,0.375 0.5,0.5 0.375,0.125 0.5,0.5 0.125,0.375 0.5,0.5 0.375,0.125 0.65625,-0.15625 L 13.3125,19.6875 13.25,19.625 l -0.0625,-0.0625 0.125,0.125 q 0.125,0.125 0.3125,0.1875 L 13.8125,19.9375 13.53125,19.84375 13.25,19.75 13.625,19.875 14,20 l 0.125,0.375 q 0.125,0.375 0.5,0.5"
           id="path67784"
           inkscape:connector-curvature="0" />
        <path
           style="fill:#000000;fill-opacity:0.2"
           d="M 12,1.5 Q 12,1 12.5,1 L 13,1 13,1.5 13,2 12.5,2 12,2 12,1.5"
           id="path67786"
           inkscape:connector-curvature="0" />
        <path
           style="fill:#040404;fill-opacity:0.70196078"
           d="M 13,1.5 13,1 13.5,1 14,1 14,1.5 14,2 13.5,2 13,2 13,1.5"
           id="path67788"
           inkscape:connector-curvature="0" />
        <path
           style="fill:#000000;fill-opacity:0.03921569"
           d="M 14,1.5 14,1 14.5,1 Q 15,1 15,1.5 L 15,2 14.5,2 14,2 14,1.5"
           id="path67790"
           inkscape:connector-curvature="0" />
        <path
           style="fill:#050505;fill-opacity:0.59607843"
           d="M 12,2.5 12,2 12.5,2 13,2 13,2.5 13,3 12.5,3 12,3 12,2.5"
           id="path67792"
           inkscape:connector-curvature="0" />
        <path
           style="fill:#0f0f0f;fill-opacity:1"
           d="M 13,2.5 13,2 13.5,2 14,2 14,2.5 14,3 13.5,3 13,3 13,2.5"
           id="path67794"
           inkscape:connector-curvature="0" />
        <path
           style="fill:#101010;fill-opacity:0.85490196"
           d="M 14,2.5 14,2 14.5,2 15,2 15,2.5 15,3 14.5,3 14,3 14,2.5"
           id="path67796"
           inkscape:connector-curvature="0" />
        <path
           style="fill:#000000;fill-opacity:0.01960784"
           d="M 15,2.5 15,2 15.5,2 Q 16,2 16,2.5 L 16,3 15.5,3 15,3 15,2.5"
           id="path67798"
           inkscape:connector-curvature="0" />
        <path
           style="fill:#000000;fill-opacity:0.30588235"
           d="M 7,3.5 Q 7,3 7.5,3 L 8,3 8,3.5 8,4 7.5,4 7,4 7,3.5"
           id="path67800"
           inkscape:connector-curvature="0" />
        <path
           style="fill:#000000;fill-opacity:0.27058824"
           d="M 8,3.5 8,3 8.5,3 Q 9,3 9,3.5 L 9,4 8.5,4 8,4 8,3.5"
           id="path67802"
           inkscape:connector-curvature="0" />
        <path
           style="fill:#000000;fill-opacity:0.02352941"
           d="M 11,3.5 Q 11,3 11.5,3 L 12,3 12,3.5 12,4 11.5,4 11,4 11,3.5"
           id="path67804"
           inkscape:connector-curvature="0" />
        <path
           style="fill:#141414;fill-opacity:0.94509804"
           d="M 12,3.5 12,3 12.5,3 13,3 13,3.5 13,4 12.5,4 12,4 12,3.5"
           id="path67806"
           inkscape:connector-curvature="0" />
        <path
           style="fill:#262626;fill-opacity:1"
           d="M 13,3.5 13,3 13.5,3 14,3 14,3.5 14,4 13.5,4 13,4 13,3.5"
           id="path67808"
           inkscape:connector-curvature="0" />
        <path
           style="fill:#161616;fill-opacity:1"
           d="M 14,3.5 14,3 14.5,3 15,3 15,3.5 15,4 14.5,4 14,4 14,3.5"
           id="path67810"
           inkscape:connector-curvature="0" />
        <path
           style="fill:#0e0e0e;fill-opacity:0.83921569"
           d="M 15,3.5 15,3 15.5,3 16,3 16,3.5 16,4 15.5,4 15,4 15,3.5"
           id="path67812"
           inkscape:connector-curvature="0" />
        <path
           style="fill:#000000;fill-opacity:0.00784314"
           d="M 16,3.5 16,3 16.5,3 Q 17,3 17,3.5 L 17,4 16.5,4 16,4 16,3.5"
           id="path67814"
           inkscape:connector-curvature="0" />
        <path
           style="fill:#000000;fill-opacity:0.09019608"
           d="M 5,4.5 Q 5,4 5.5,4 L 6,4 6,4.5 6,5 5.5,5 5,5 5,4.5"
           id="path67816"
           inkscape:connector-curvature="0" />
        <path
           style="fill:#0d0d0d;fill-opacity:0.8"
           d="M 6,4.5 6,4 6.5,4 7,4 6.875,4.375 Q 6.75,4.75 6.375,4.875 L 6,5 6,4.5"
           id="path67818"
           inkscape:connector-curvature="0" />
        <path
           style="fill:#131313;fill-opacity:1"
           d="M 6.875,4.375 7,4 7.5,4 8,4 8.125,4.375 8.25,4.75 8.15625,4.46875 8.0625,4.1875 8.125,4.375 Q 8.1875,4.5625 8.3125,4.6875 L 8.4375,4.8125 8.375,4.75 8.3125,4.6875 8.015625,5.015625 7.71875,5.34375 7.765625,5.390625 7.8125,5.4375 7.71875,5.34375 Q 7.625,5.25 7.5,5.25 l -0.125,0 0.1875,0 0.1875,0 -0.25,0 -0.25,0 0.1875,0 0.1875,0 -0.125,0 q -0.125,0 -0.21875,0.09375 L 7.1875,5.4375 7.234375,5.390625 7.28125,5.34375 6.984375,5.015625 6.6875,4.6875 6.625,4.75 6.5625,4.8125 6.6875,4.6875 Q 6.8125,4.5625 6.875,4.375 L 6.9375,4.1875 6.84375,4.46875 6.75,4.75 6.875,4.375"
           id="path67820"
           inkscape:connector-curvature="0" />
        <path
           style="fill:#151515;fill-opacity:0.99607843"
           d="M 8.125,4.375 8,4 8.5,4 9,4 9,4.5 9,5 8.625,4.875 Q 8.25,4.75 8.125,4.375"
           id="path67822"
           inkscape:connector-curvature="0" />
        <path
           style="fill:#020202;fill-opacity:0.54117647"
           d="M 9,4.5 9,4 9.5,4 Q 10,4 10,4.5 L 10,5 9.5,5 9,5 9,4.5"
           id="path67824"
           inkscape:connector-curvature="0" />
        <path
           style="fill:#090909;fill-opacity:0.74117647"
           d="M 11,4.5 11,4 11.5,4 12,4 12,4.5 12,5 11.5,5 11,5 11,4.5"
           id="path67826"
           inkscape:connector-curvature="0" />
        <path
           style="fill:#151515;fill-opacity:1"
           d="M 12,4.5 12,4 12.5,4 13,4 13,4.5 13,5 12.5,5 12,5 12,4.5"
           id="path67828"
           inkscape:connector-curvature="0" />
        <path
           style="fill:#2e2e2e;fill-opacity:1"
           d="M 13,4.5 13,4 13.5,4 14,4 14,4.5 14,5 13.5,5 13,5 13,4.5"
           id="path67830"
           inkscape:connector-curvature="0" />
        <path
           style="fill:#383838;fill-opacity:1"
           d="M 14,4.5 14,4 14.5,4 15,4 15,4.5 15,5 14.5,5 14,5 14,4.5"
           id="path67832"
           inkscape:connector-curvature="0" />
        <path
           style="fill:#161616;fill-opacity:1"
           d="M 15,4.5 15,4 15.5,4 16,4 16,4.5 16,5 15.5,5 15,5 15,4.5"
           id="path67834"
           inkscape:connector-curvature="0" />
        <path
           style="fill:#0e0e0e;fill-opacity:0.83137255"
           d="M 16,4.5 16,4 16.5,4 17,4 17,4.5 17,5 16.5,5 16,5 16,4.5"
           id="path67836"
           inkscape:connector-curvature="0" />
        <path
           style="fill:#000000;fill-opacity:0.02352941"
           d="M 17,4.5 17,4 17.5,4 Q 18,4 18,4.5 L 18,5 17.5,5 17,5 17,4.5"
           id="path67838"
           inkscape:connector-curvature="0" />
        <path
           style="fill:#000000;fill-opacity:0.10980392"
           d="M 4,5.5 Q 4,5 4.5,5 L 5,5 5,5.5 5,6 4.5,6 4,6 4,5.5"
           id="path67840"
           inkscape:connector-curvature="0" />
        <path
           style="fill:#131313;fill-opacity:0.91764706"
           d="M 5,5.5 5,5 5.5,5 6,5 6,5.5 6,6 5.5,6 5,6 5,5.5"
           id="path67842"
           inkscape:connector-curvature="0" />
        <path
           style="fill:#1b1b1b;fill-opacity:1"
           d="M 6,5.5 6,5 6.375,4.875 6.75,4.75 6.46875,4.84375 6.1875,4.9375 6.375,4.875 Q 6.5625,4.8125 6.6875,4.6875 L 6.8125,4.5625 6.75,4.625 6.6875,4.6875 6.984375,5.015625 7.28125,5.34375 7.328125,5.296875 7.375,5.25 7.28125,5.34375 Q 7.1875,5.4375 7.125,5.625 L 7.0625,5.8125 7.15625,5.53125 7.25,5.25 7.125,5.625 7,6 6.5,6 6,6 6,5.5"
           id="path67844"
           inkscape:connector-curvature="0" />
        <path
           style="fill:#484848;fill-opacity:1"
           d="M 7.125,5.625 Q 7.25,5.25 7.5,5.25 q 0.25,0 0.375,0.375 L 8,6 7.5,6 7,6 7.125,5.625"
           id="path67846"
           inkscape:connector-curvature="0" />
        <path
           style="fill:#2d2d2d;fill-opacity:1"
           d="M 7.875,5.625 7.75,5.25 7.84375,5.53125 7.9375,5.8125 7.875,5.625 Q 7.8125,5.4375 7.71875,5.34375 L 7.625,5.25 7.671875,5.296875 7.71875,5.34375 8.015625,5.015625 8.3125,4.6875 8.25,4.625 8.1875,4.5625 8.3125,4.6875 Q 8.4375,4.8125 8.625,4.875 L 8.8125,4.9375 8.53125,4.84375 8.25,4.75 8.625,4.875 9,5 9.125,5.375 9.25,5.75 9.15625,5.46875 9.0625,5.1875 9.125,5.375 Q 9.1875,5.5625 9.28125,5.71875 L 9.375,5.875 9.328125,5.796875 9.28125,5.71875 9,6 8.71875,6.28125 8.796875,6.328125 8.875,6.375 8.71875,6.28125 Q 8.5625,6.1875 8.375,6.125 L 8.1875,6.0625 8.46875,6.15625 8.75,6.25 8.375,6.125 8,6 7.875,5.625"
           id="path67848"
           inkscape:connector-curvature="0" />
        <path
           style="fill:#141414;fill-opacity:1"
           d="M 9.125,5.375 9,5 9.5,5 10,5 10.125,5.375 q 0.125,0.375 0.5,0.5 L 11,6 11.125,6.375 11.25,6.75 11.15625,6.46875 11.0625,6.1875 11.125,6.375 q 0.0625,0.1875 0.1875,0.3125 l 0.125,0.125 L 11.375,6.75 11.3125,6.6875 11,7 10.6875,7.3125 10.75,7.375 10.8125,7.4375 10.6875,7.3125 Q 10.5625,7.1875 10.375,7.125 L 10.1875,7.0625 10.46875,7.15625 10.75,7.25 10.375,7.125 10,7 9.875,6.625 Q 9.75,6.25 9.5,6 9.25,5.75 9.125,5.375"
           id="path67850"
           inkscape:connector-curvature="0" />
        <path
           style="fill:#050505;fill-opacity:0.90980392"
           d="M 10.125,5.375 10,5 10.5,5 11,5 11,5.5 11,6 10.625,5.875 q -0.375,-0.125 -0.5,-0.5"
           id="path67852"
           inkscape:connector-curvature="0" />
        <path
           style="fill:#0f0f0f;fill-opacity:1"
           d="M 11,5.5 11,5 11.5,5 12,5 12,5.5 12,6 11.5,6 11,6 11,5.5"
           id="path67854"
           inkscape:connector-curvature="0" />
        <path
           style="fill:#1d1d1d;fill-opacity:1"
           d="M 12,5.5 12,5 12.5,5 13,5 13,5.5 13,6 12.5,6 12,6 12,5.5"
           id="path67856"
           inkscape:connector-curvature="0" />
        <path
           style="fill:#2b2b2b;fill-opacity:1"
           d="M 13,5.5 13,5 13.5,5 14,5 14,5.5 14,6 13.5,6 13,6 13,5.5"
           id="path67858"
           inkscape:connector-curvature="0" />
        <path
           style="fill:#393939;fill-opacity:1"
           d="M 14,5.5 14,5 14.5,5 15,5 15,5.5 15,6 14.5,6 14,6 14,5.5"
           id="path67860"
           inkscape:connector-curvature="0" />
        <path
           style="fill:#383838;fill-opacity:1"
           d="M 15,5.5 15,5 15.5,5 16,5 16,5.5 16,6 16,6.5 16,7 15.5,7 15,7 15,6.5 15,6 15,5.5"
           id="path67862"
           inkscape:connector-curvature="0" />
        <path
           style="fill:#161616;fill-opacity:1"
           d="M 16,5.5 16,5 16.5,5 17,5 17,5.5 17,6 16.5,6 16,6 16,5.5"
           id="path67864"
           inkscape:connector-curvature="0" />
        <path
           style="fill:#0f0f0f;fill-opacity:0.84313725"
           d="M 17,5.5 17,5 17.5,5 18,5 18,5.5 18,6 17.5,6 17,6 17,5.5"
           id="path67866"
           inkscape:connector-curvature="0" />
        <path
           style="fill:#000000;fill-opacity:0.03137255"
           d="M 18,5.5 18,5 18.5,5 Q 19,5 19,5.5 L 19,6 18.5,6 18,6 18,5.5"
           id="path67868"
           inkscape:connector-curvature="0" />
        <path
           style="fill:#0e0e0e;fill-opacity:0.83529412"
           d="M 4,6.5 4,6 4.5,6 5,6 5,6.5 5,7 4.5,7 4,7 4,6.5"
           id="path67870"
           inkscape:connector-curvature="0" />
        <path
           style="fill:#1b1b1b;fill-opacity:1"
           d="M 5,6.5 5,6 5.5,6 6,6 6,6.5 6,7 5.5,7 5,7 5,6.5"
           id="path67872"
           inkscape:connector-curvature="0" />
        <path
           style="fill:#2e2e2e;fill-opacity:1"
           d="M 6,6.5 6,6 6.5,6 7,6 7,6.5 7,7 6.5,7 6,7 6,6.5"
           id="path67874"
           inkscape:connector-curvature="0" />
        <path
           style="fill:#3d3d3d;fill-opacity:1"
           d="M 7,6.5 7,6 7.5,6 8,6 8.125,6.375 8.25,6.75 8.15625,6.46875 8.0625,6.1875 8.125,6.375 Q 8.1875,6.5625 8.28125,6.71875 L 8.375,6.875 8.328125,6.796875 8.28125,6.71875 7.984375,7.015625 7.6875,7.3125 7.75,7.375 7.8125,7.4375 7.6875,7.3125 Q 7.5625,7.1875 7.375,7.125 L 7.1875,7.0625 7.46875,7.15625 7.75,7.25 7.375,7.125 7,7 7,6.5"
           id="path67876"
           inkscape:connector-curvature="0" />
        <path
           style="fill:#5d5d5d;fill-opacity:1"
           d="M 8.125,6.375 8,6 8.375,6.125 Q 8.75,6.25 9,6.5 L 9.25,6.75 9.0625,6.5625 8.875,6.375 9,6.5 Q 9.125,6.625 9.28125,6.71875 L 9.4375,6.8125 9.359375,6.765625 9.28125,6.71875 9,7 8.71875,7.28125 8.765625,7.359375 8.8125,7.4375 8.71875,7.28125 Q 8.625,7.125 8.5,7 L 8.375,6.875 8.5625,7.0625 8.75,7.25 8.5,7 Q 8.25,6.75 8.125,6.375"
           id="path67878"
           inkscape:connector-curvature="0" />
        <path
           style="fill:#383838;fill-opacity:1"
           d="M 9,6.5 8.75,6.25 8.9375,6.4375 9.125,6.625 9,6.5 Q 8.875,6.375 8.71875,6.28125 L 8.5625,6.1875 8.640625,6.234375 8.71875,6.28125 9,6 9.28125,5.71875 9.234375,5.640625 9.1875,5.5625 9.28125,5.71875 Q 9.375,5.875 9.5,6 L 9.625,6.125 9.4375,5.9375 9.25,5.75 9.5,6 Q 9.75,6.25 9.875,6.625 L 10,7 9.625,6.875 Q 9.25,6.75 9,6.5"
           id="path67880"
           inkscape:connector-curvature="0" />
        <path
           style="fill:#080808;fill-opacity:1"
           d="M 11.125,6.375 11,6 11.5,6 12,6 12,6.5 12,7 11.625,6.875 q -0.375,-0.125 -0.5,-0.5"
           id="path67882"
           inkscape:connector-curvature="0" />
        <path
           style="fill:#171717;fill-opacity:1"
           d="M 12,6.5 12,6 12.5,6 13,6 13,6.5 13,7 12.5,7 12,7 12,6.5"
           id="path67884"
           inkscape:connector-curvature="0" />
        <path
           style="fill:#1d1d1d;fill-opacity:1"
           d="M 13,6.5 13,6 13.5,6 14,6 14,6.5 14,7 13.5,7 13,7 13,6.5"
           id="path67886"
           inkscape:connector-curvature="0" />
        <path
           style="fill:#2b2b2b;fill-opacity:1"
           d="M 14,6.5 14,6 14.5,6 15,6 15,6.5 15,7 14.5,7 14,7 14,6.5"
           id="path67888"
           inkscape:connector-curvature="0" />
        <path
           style="fill:#343434;fill-opacity:1"
           d="M 16,6.5 16,6 16.5,6 17,6 17,6.5 17,7 16.5,7 16,7 16,6.5"
           id="path67890"
           inkscape:connector-curvature="0" />
        <path
           style="fill:#161616;fill-opacity:1"
           d="M 17,6.5 17,6 17.5,6 18,6 18,6.5 18,7 17.5,7 17,7 17,6.5"
           id="path67892"
           inkscape:connector-curvature="0" />
        <path
           style="fill:#0f0f0f;fill-opacity:0.84313725"
           d="M 18,6.5 18,6 18.5,6 19,6 19,6.5 19,7 18.5,7 18,7 18,6.5"
           id="path67894"
           inkscape:connector-curvature="0" />
        <path
           style="fill:#000000;fill-opacity:0.03137255"
           d="M 19,6.5 19,6 19.5,6 Q 20,6 20,6.5 L 20,7 19.5,7 19,7 19,6.5"
           id="path67896"
           inkscape:connector-curvature="0" />
        <path
           style="fill:#060600;fill-opacity:0.34509804"
           d="M 0.875,7.375 Q 1,7 1.375,6.875 1.75,6.75 2.015625,7.046875 L 2.28125,7.34375 2.328125,7.296875 2.375,7.25 2.28125,7.34375 Q 2.1875,7.4375 2.125,7.625 L 2.0625,7.8125 2.15625,7.53125 2.25,7.25 2.125,7.625 2,8 1.625,8.125 1.25,8.25 1.53125,8.15625 1.8125,8.0625 1.625,8.125 Q 1.4375,8.1875 1.34375,8.28125 L 1.25,8.375 1.296875,8.328125 1.34375,8.28125 1.046875,8.015625 Q 0.75,7.75 0.875,7.375"
           id="path67898"
           inkscape:connector-curvature="0" />
        <path
           style="fill:#443600;fill-opacity:0.84705882"
           d="M 2.125,7.625 Q 2.25,7.25 2.5,7.25 q 0.25,0 0.375,0.375 L 3,8 2.5,8 2,8 2.125,7.625"
           id="path67900"
           inkscape:connector-curvature="0" />
        <path
           style="fill:#0b0900;fill-opacity:0.70588235"
           d="M 2.875,7.625 2.75,7.25 2.84375,7.53125 2.9375,7.8125 2.875,7.625 Q 2.8125,7.4375 2.71875,7.34375 L 2.625,7.25 2.671875,7.296875 2.71875,7.34375 2.984375,7.046875 Q 3.25,6.75 3.625,6.875 L 4,7 4.125,7.375 4.25,7.75 4.15625,7.46875 4.0625,7.1875 4.125,7.375 Q 4.1875,7.5625 4.3125,7.6875 L 4.4375,7.8125 4.375,7.75 4.3125,7.6875 4,8 3.6875,8.3125 3.75,8.375 3.8125,8.4375 3.6875,8.3125 Q 3.5625,8.1875 3.375,8.125 L 3.1875,8.0625 3.46875,8.15625 3.75,8.25 3.375,8.125 3,8 2.875,7.625"
           id="path67902"
           inkscape:connector-curvature="0" />
        <path
           style="fill:#121212;fill-opacity:1"
           d="M 4.125,7.375 4,7 4.5,7 5,7 5,7.5 5,8 4.625,7.875 Q 4.25,7.75 4.125,7.375"
           id="path67904"
           inkscape:connector-curvature="0" />
        <path
           style="fill:#202020;fill-opacity:1"
           d="M 5,7.5 5,7 5.5,7 6,7 6,7.5 6,8 5.5,8 5,8 5,7.5"
           id="path67906"
           inkscape:connector-curvature="0" />
        <path
           style="fill:#212121;fill-opacity:1"
           d="M 6,7.5 6,7 6.5,7 7,7 7.375,7.125 Q 7.75,7.25 7.875,7.625 8,8 8.5,8 L 9,8 9,8.5 9,9 8.5,9 8,9 7.5,9 7,9 7,8.5 Q 7,8 6.5,8 L 6,8 6,7.5"
           id="path67908"
           inkscape:connector-curvature="0" />
        <path
           style="fill:#262626;fill-opacity:1"
           d="M 7.875,7.625 7.75,7.25 7.84375,7.53125 7.9375,7.8125 7.875,7.625 Q 7.8125,7.4375 7.6875,7.3125 L 7.5625,7.1875 7.625,7.25 7.6875,7.3125 7.984375,7.015625 8.28125,6.71875 8.234375,6.640625 8.1875,6.5625 8.28125,6.71875 Q 8.375,6.875 8.5,7 L 8.625,7.125 8.4375,6.9375 8.25,6.75 8.5,7 Q 8.75,7.25 8.875,7.625 L 9,8 8.5,8 Q 8,8 7.875,7.625"
           id="path67910"
           inkscape:connector-curvature="0" />
        <path
           style="fill:#3b3b3b;fill-opacity:1"
           d="M 8.875,7.625 8.75,7.25 8.84375,7.53125 8.9375,7.8125 8.875,7.625 Q 8.8125,7.4375 8.71875,7.28125 L 8.625,7.125 8.671875,7.203125 8.71875,7.28125 9,7 9.28125,6.71875 9.203125,6.671875 9.125,6.625 9.28125,6.71875 Q 9.4375,6.8125 9.625,6.875 L 9.8125,6.9375 9.53125,6.84375 9.25,6.75 9.625,6.875 10,7 10,7.5 10,8 9.5,8 9,8 8.875,7.625"
           id="path67912"
           inkscape:connector-curvature="0" />
        <path
           style="fill:#3f3f3f;fill-opacity:1"
           d="M 10,7.5 10,7 10.375,7.125 q 0.375,0.125 0.5,0.5 L 11,8 10.5,8 10,8 10,7.5"
           id="path67914"
           inkscape:connector-curvature="0" />
        <path
           style="fill:#161616;fill-opacity:1"
           d="M 10.875,7.625 10.75,7.25 10.84375,7.53125 10.9375,7.8125 10.875,7.625 Q 10.8125,7.4375 10.6875,7.3125 L 10.5625,7.1875 10.625,7.25 10.6875,7.3125 11,7 11.3125,6.6875 11.25,6.625 11.1875,6.5625 l 0.125,0.125 q 0.125,0.125 0.3125,0.1875 L 11.8125,6.9375 11.53125,6.84375 11.25,6.75 11.625,6.875 12,7 12,7.5 12,8 11.5,8 11,8 10.875,7.625"
           id="path67916"
           inkscape:connector-curvature="0" />
        <path
           style="fill:#090909;fill-opacity:1"
           d="M 12,7.5 12,7 12.5,7 13,7 13,7.5 13,8 12.5,8 12,8 12,7.5"
           id="path67918"
           inkscape:connector-curvature="0" />
        <path
           style="fill:#141414;fill-opacity:1"
           d="M 13,7.5 13,7 13.5,7 14,7 14,7.5 14,8 13.5,8 13,8 13,7.5"
           id="path67920"
           inkscape:connector-curvature="0" />
        <path
           style="fill:#1d1d1d;fill-opacity:1"
           d="M 14,7.5 14,7 14.5,7 15,7 15,7.5 15,8 14.5,8 14,8 14,7.5"
           id="path67922"
           inkscape:connector-curvature="0" />
        <path
           style="fill:#292929;fill-opacity:1"
           d="M 15,7.5 15,7 15.5,7 16,7 16,7.5 16,8 15.5,8 15,8 15,7.5"
           id="path67924"
           inkscape:connector-curvature="0" />
        <path
           style="fill:#2e2e2e;fill-opacity:1"
           d="M 16,7.5 16,7 16.5,7 17,7 17,7.5 17,8 16.5,8 16,8 16,7.5"
           id="path67926"
           inkscape:connector-curvature="0" />
        <path
           style="fill:#2d2d2d;fill-opacity:1"
           d="M 17,7.5 17,7 17.5,7 18,7 18,7.5 18,8 17.5,8 17,8 17,7.5"
           id="path67928"
           inkscape:connector-curvature="0" />
        <path
           style="fill:#161616;fill-opacity:1"
           d="M 18,7.5 18,7 18.5,7 19,7 19,7.5 19,8 18.5,8 18,8 18,7.5"
           id="path67930"
           inkscape:connector-curvature="0" />
        <path
           style="fill:#0d0d0d;fill-opacity:0.81960784"
           d="M 19,7.5 19,7 19.5,7 20,7 20,7.5 20,8 19.5,8 19,8 19,7.5"
           id="path67932"
           inkscape:connector-curvature="0" />
        <path
           style="fill:#2e2000;fill-opacity:0.81176471"
           d="m 1.25,8.5 q 0,-0.25 0.375,-0.375 L 2,8 2,8.5 2,9 1.625,8.875 Q 1.25,8.75 1.25,8.5"
           id="path67934"
           inkscape:connector-curvature="0" />
        <path
           style="fill:#ffcc00;fill-opacity:1"
           d="M 2,8.5 2,8 2.5,8 3,8 3,8.5 3,9 2.5,9 2,9 2,8.5"
           id="path67936"
           inkscape:connector-curvature="0" />
        <path
           style="fill:#895000;fill-opacity:1"
           d="M 3,8.5 3,8 3.375,8.125 q 0.375,0.125 0.5,0.5 L 4,9 3.5,9 3,9 3,8.5"
           id="path67938"
           inkscape:connector-curvature="0" />
        <path
           style="fill:#0e0d0c;fill-opacity:1"
           d="M 3.875,8.625 3.75,8.25 3.84375,8.53125 3.9375,8.8125 3.875,8.625 Q 3.8125,8.4375 3.6875,8.3125 L 3.5625,8.1875 3.625,8.25 3.6875,8.3125 4,8 4.3125,7.6875 4.25,7.625 4.1875,7.5625 4.3125,7.6875 Q 4.4375,7.8125 4.625,7.875 L 4.8125,7.9375 4.53125,7.84375 4.25,7.75 4.625,7.875 5,8 5.125,8.375 5.25,8.75 5.15625,8.46875 5.0625,8.1875 5.125,8.375 Q 5.1875,8.5625 5.3125,8.6875 L 5.4375,8.8125 5.375,8.75 5.3125,8.6875 5.015625,8.984375 4.71875,9.28125 4.796875,9.328125 4.875,9.375 4.71875,9.28125 Q 4.5625,9.1875 4.375,9.125 L 4.1875,9.0625 4.46875,9.15625 4.75,9.25 4.375,9.125 4,9 3.875,8.625"
           id="path67940"
           inkscape:connector-curvature="0" />
        <path
           style="fill:#1d1d1d;fill-opacity:1"
           d="M 5.125,8.375 5,8 5.5,8 6,8 6,8.5 6,9 5.625,8.875 Q 5.25,8.75 5.125,8.375"
           id="path67942"
           inkscape:connector-curvature="0" />
        <path
           style="fill:#1e1e1e;fill-opacity:1"
           d="M 6,8.5 6,8 6.5,8 Q 7,8 7,8.5 L 7,9 6.5,9 6,9 6,8.5"
           id="path67944"
           inkscape:connector-curvature="0" />
        <path
           style="fill:#242424;fill-opacity:1"
           d="M 9,8.5 9,8 9.5,8 10,8 10,8.5 10,9 9.5,9 9,9 9,8.5"
           id="path67946"
           inkscape:connector-curvature="0" />
        <path
           style="fill:#292929;fill-opacity:1"
           d="M 10,8.5 10,8 10.5,8 11,8 11,8.5 11,9 10.5,9 10,9 10,8.5"
           id="path67948"
           inkscape:connector-curvature="0" />
        <path
           style="fill:#383838;fill-opacity:1"
           d="M 11,8.5 11,8 11.5,8 12,8 12,8.5 12,9 11.5,9 11,9 11,8.5"
           id="path67950"
           inkscape:connector-curvature="0" />
        <path
           style="fill:#1a1a1a;fill-opacity:1"
           d="M 12,8.5 12,8 12.5,8 13,8 13,8.5 13,9 12.5,9 12,9 12,8.5"
           id="path67952"
           inkscape:connector-curvature="0" />
        <path
           style="fill:#0a0a0a;fill-opacity:1"
           d="M 13,8.5 13,8 13.5,8 14,8 14,8.5 14,9 13.5,9 13,9 13,8.5"
           id="path67954"
           inkscape:connector-curvature="0" />
        <path
           style="fill:#0f0f0f;fill-opacity:1"
           d="M 14,8.5 14,8 14.5,8 15,8 15,8.5 15,9 14.5,9 14,9 14,8.5"
           id="path67956"
           inkscape:connector-curvature="0" />
        <path
           style="fill:#1d1d1d;fill-opacity:1"
           d="M 15,8.5 15,8 15.5,8 16,8 16,8.5 16,9 15.5,9 15,9 15,8.5"
           id="path67958"
           inkscape:connector-curvature="0" />
        <path
           style="fill:#262626;fill-opacity:1"
           d="M 16,8.5 16,8 16.5,8 17,8 17,8.5 17,9 16.5,9 16,9 16,8.5"
           id="path67960"
           inkscape:connector-curvature="0" />
        <path
           style="fill:#2b2b2b;fill-opacity:1"
           d="M 17,8.5 17,8 17.5,8 18,8 18,8.5 18,9 17.5,9 17,9 17,8.5"
           id="path67962"
           inkscape:connector-curvature="0" />
        <path
           style="fill:#262626;fill-opacity:1"
           d="M 18,8.5 18,8 18.5,8 19,8 19,8.5 19,9 18.5,9 18,9 18,8.5"
           id="path67964"
           inkscape:connector-curvature="0" />
        <path
           style="fill:#141414;fill-opacity:1"
           d="M 19,8.5 19,8 19.5,8 20,8 20,8.5 20,9 19.5,9 19,9 19,8.5"
           id="path67966"
           inkscape:connector-curvature="0" />
        <path
           style="fill:#080300;fill-opacity:0.36862745"
           d="M 0.875,9.625 Q 0.75,9.25 1.046875,8.984375 L 1.34375,8.71875 1.296875,8.671875 1.25,8.625 1.34375,8.71875 Q 1.4375,8.8125 1.625,8.875 L 1.8125,8.9375 1.53125,8.84375 1.25,8.75 1.625,8.875 2,9 2.125,9.375 2.25,9.75 2.15625,9.46875 2.0625,9.1875 2.125,9.375 Q 2.1875,9.5625 2.28125,9.71875 L 2.375,9.875 2.328125,9.796875 2.28125,9.71875 1.984375,10.015625 1.6875,10.3125 1.75,10.375 1.8125,10.4375 1.6875,10.3125 Q 1.5625,10.1875 1.375,10.125 L 1.1875,10.0625 1.46875,10.15625 1.75,10.25 1.375,10.125 Q 1,10 0.875,9.625"
           id="path67968"
           inkscape:connector-curvature="0" />
        <path
           style="fill:#592800;fill-opacity:0.98431373"
           d="M 2.125,9.375 2,9 2.5,9 3,9 3.125,9.375 3.25,9.75 3.15625,9.46875 3.0625,9.1875 3.125,9.375 Q 3.1875,9.5625 3.3125,9.6875 L 3.4375,9.8125 3.375,9.75 3.3125,9.6875 3.03125,9.96875 2.75,10.25 2.5,10 Q 2.25,9.75 2.125,9.375 M 2.5625,10.0625 2.75,10.25 2.8125,10.3125 2.875,10.375 2.75,10.25 Q 2.625,10.125 2.5,10 L 2.375,9.875 2.5625,10.0625"
           id="path67970"
           inkscape:connector-curvature="0" />
        <path
           style="fill:#d49a00;fill-opacity:1"
           d="M 3.125,9.375 3,9 3.5,9 4,9 4,9.5 4,10 3.625,9.875 Q 3.25,9.75 3.125,9.375"
           id="path67972"
           inkscape:connector-curvature="0" />
        <path
           style="fill:#b77900;fill-opacity:1"
           d="M 4,9.5 4,9 4.375,9.125 Q 4.75,9.25 5,9.5 L 5.25,9.75 4.984375,10.015625 4.71875,10.28125 4.796875,10.328125 4.875,10.375 4.71875,10.28125 Q 4.5625,10.1875 4.375,10.125 L 4.1875,10.0625 4.46875,10.15625 4.75,10.25 4.375,10.125 4,10 4,9.5 M 5.3125,9.8125 5.25,9.75 5.0625,9.5625 4.875,9.375 5,9.5 Q 5.125,9.625 5.25,9.75 L 5.375,9.875 5.3125,9.8125"
           id="path67974"
           inkscape:connector-curvature="0" />
        <path
           style="fill:#110c0c;fill-opacity:1"
           d="M 5,9.5 4.75,9.25 4.9375,9.4375 5.125,9.625 5,9.5 Q 4.875,9.375 4.71875,9.28125 L 4.5625,9.1875 4.640625,9.234375 4.71875,9.28125 5.015625,8.984375 5.3125,8.6875 5.25,8.625 5.1875,8.5625 5.3125,8.6875 Q 5.4375,8.8125 5.625,8.875 L 5.8125,8.9375 5.53125,8.84375 5.25,8.75 5.625,8.875 6,9 6.125,9.375 6.25,9.75 6.15625,9.46875 6.0625,9.1875 6.125,9.375 Q 6.1875,9.5625 6.3125,9.6875 L 6.4375,9.8125 6.375,9.75 6.3125,9.6875 6.03125,9.96875 5.75,10.25 5.5,10 Q 5.25,9.75 5,9.5 M 5.5625,10.0625 5.75,10.25 5.8125,10.3125 5.875,10.375 5.75,10.25 Q 5.625,10.125 5.5,10 L 5.375,9.875 5.5625,10.0625"
           id="path67976"
           inkscape:connector-curvature="0" />
        <path
           style="fill:#1d1d1d;fill-opacity:1"
           d="M 6.125,9.375 6,9 6.5,9 7,9 7,9.5 7,10 6.625,9.875 Q 6.25,9.75 6.125,9.375"
           id="path67978"
           inkscape:connector-curvature="0" />
        <path
           style="fill:#1e1e1e;fill-opacity:1"
           d="M 7,9.5 7,9 7.5,9 8,9 8,9.5 8,10 7.5,10 7,10 7,9.5"
           id="path67980"
           inkscape:connector-curvature="0" />
        <path
           style="fill:#202020;fill-opacity:1"
           d="M 8,9.5 8,9 8.5,9 9,9 9,9.5 9,10 8.5,10 8,10 8,9.5"
           id="path67982"
           inkscape:connector-curvature="0" />
        <path
           style="fill:#212121;fill-opacity:1"
           d="M 9,9.5 9,9 9.5,9 10,9 l 0.5,0 0.5,0 0,0.5 0,0.5 0,0.5 0,0.5 -0.5,0 -0.5,0 0,-0.5 Q 10,10 9.5,10 L 9,10 9,9.5"
           id="path67984"
           inkscape:connector-curvature="0" />
        <path
           style="fill:#232323;fill-opacity:1"
           d="M 11,9.5 11,9 11.5,9 12,9 12,9.5 12,10 11.5,10 11,10 11,9.5"
           id="path67986"
           inkscape:connector-curvature="0" />
        <path
           style="fill:#262626;fill-opacity:1"
           d="M 12,9.5 12,9 12.5,9 13,9 13,9.5 13,10 12.5,10 12,10 12,9.5"
           id="path67988"
           inkscape:connector-curvature="0" />
        <path
           style="fill:#202020;fill-opacity:1"
           d="M 13,9.5 13,9 13.5,9 14,9 14,9.5 14,10 13.5,10 13,10 13,9.5"
           id="path67990"
           inkscape:connector-curvature="0" />
        <path
           style="fill:#0b0b0b;fill-opacity:1"
           d="M 14,9.5 14,9 14.5,9 15,9 15,9.5 15,10 14.5,10 14,10 14,9.5"
           id="path67992"
           inkscape:connector-curvature="0" />
        <path
           style="fill:#0e0e0e;fill-opacity:1"
           d="M 15,9.5 15,9 15.5,9 16,9 16,9.5 16,10 15.5,10 15,10 15,9.5"
           id="path67994"
           inkscape:connector-curvature="0" />
        <path
           style="fill:#1d1d1d;fill-opacity:1"
           d="M 16,9.5 16,9 16.5,9 17,9 17,9.5 17,10 16.5,10 16,10 16,9.5"
           id="path67996"
           inkscape:connector-curvature="0" />
        <path
           style="fill:#232323;fill-opacity:1"
           d="M 17,9.5 17,9 17.5,9 18,9 18,9.5 18,10 17.5,10 17,10 17,9.5"
           id="path67998"
           inkscape:connector-curvature="0" />
        <path
           style="fill:#202020;fill-opacity:1"
           d="M 18,9.5 18,9 18.5,9 19,9 19,9.5 19,10 18.5,10 18,10 18,9.5"
           id="path68000"
           inkscape:connector-curvature="0" />
        <path
           style="fill:#141414;fill-opacity:0.96078431"
           d="M 19,9.5 19,9 19.5,9 20,9 20,9.5 20,10 19.5,10 19,10 19,9.5"
           id="path68002"
           inkscape:connector-curvature="0" />
        <path
           style="fill:#000000;fill-opacity:0.26666667"
           d="M 1.875,10.625 1.75,10.25 1.84375,10.53125 1.9375,10.8125 1.875,10.625 Q 1.8125,10.4375 1.6875,10.3125 L 1.5625,10.1875 1.625,10.25 1.6875,10.3125 1.984375,10.015625 2.28125,9.71875 2.234375,9.640625 2.1875,9.5625 2.28125,9.71875 Q 2.375,9.875 2.5,10 L 2.625,10.125 2.4375,9.9375 2.25,9.75 2.5,10 Q 2.75,10.25 3,10.5 L 3.25,10.75 3.0625,10.5625 2.875,10.375 3,10.5 q 0.125,0.125 0.28125,0.21875 L 3.4375,10.8125 3.359375,10.765625 3.28125,10.71875 2.984375,11.015625 2.6875,11.3125 2.75,11.375 2.8125,11.4375 2.6875,11.3125 Q 2.5625,11.1875 2.375,11.125 L 2.1875,11.0625 2.46875,11.15625 2.75,11.25 2.375,11.125 Q 2,11 1.875,10.625"
           id="path68004"
           inkscape:connector-curvature="0" />
        <path
           style="fill:#633800;fill-opacity:0.96078431"
           d="M 3,10.5 2.75,10.25 3.03125,9.96875 3.3125,9.6875 3.25,9.625 3.1875,9.5625 3.3125,9.6875 Q 3.4375,9.8125 3.625,9.875 L 3.8125,9.9375 3.53125,9.84375 3.25,9.75 3.625,9.875 4,10 4,10.5 4,11 3.625,10.875 Q 3.25,10.75 3,10.5 M 2.6875,10.1875 2.75,10.25 2.9375,10.4375 3.125,10.625 3,10.5 Q 2.875,10.375 2.75,10.25 l -0.125,-0.125 0.0625,0.0625"
           id="path68006"
           inkscape:connector-curvature="0" />
        <path
           style="fill:#ffb600;fill-opacity:1"
           d="M 4,10.5 4,10 4.375,10.125 Q 4.75,10.25 5,10.5 L 5.25,10.75 4.96875,11.03125 4.6875,11.3125 4.75,11.375 4.8125,11.4375 4.6875,11.3125 Q 4.5625,11.1875 4.375,11.125 L 4.1875,11.0625 4.46875,11.15625 4.75,11.25 4.375,11.125 4,11 4,10.5 M 5.3125,10.8125 5.25,10.75 5.0625,10.5625 4.875,10.375 5,10.5 q 0.125,0.125 0.25,0.25 l 0.125,0.125 -0.0625,-0.0625"
           id="path68008"
           inkscape:connector-curvature="0" />
        <path
           style="fill:#b97900;fill-opacity:1"
           d="M 5,10.5 4.75,10.25 4.9375,10.4375 5.125,10.625 5,10.5 Q 4.875,10.375 4.71875,10.28125 L 4.5625,10.1875 4.640625,10.234375 4.71875,10.28125 4.984375,10.015625 5.25,9.75 5.5,10 Q 5.75,10.25 6,10.5 L 6.25,10.75 5.984375,11.015625 5.71875,11.28125 5.765625,11.359375 5.8125,11.4375 5.71875,11.28125 Q 5.625,11.125 5.5,11 L 5.375,10.875 5.5625,11.0625 5.75,11.25 5.5,11 Q 5.25,10.75 5,10.5 M 6.3125,10.8125 6.25,10.75 6.0625,10.5625 5.875,10.375 6,10.5 q 0.125,0.125 0.25,0.25 L 6.375,10.875 6.3125,10.8125 M 5.4375,9.9375 5.25,9.75 5.1875,9.6875 5.125,9.625 5.25,9.75 Q 5.375,9.875 5.5,10 L 5.625,10.125 5.4375,9.9375"
           id="path68010"
           inkscape:connector-curvature="0" />
        <path
           style="fill:#110d0c;fill-opacity:1"
           d="M 6,10.5 5.75,10.25 6.03125,9.96875 6.3125,9.6875 6.25,9.625 6.1875,9.5625 6.3125,9.6875 Q 6.4375,9.8125 6.625,9.875 L 6.8125,9.9375 6.53125,9.84375 6.25,9.75 6.625,9.875 7,10 7.125,10.375 7.25,10.75 7.15625,10.46875 7.0625,10.1875 7.125,10.375 q 0.0625,0.1875 0.1875,0.3125 l 0.125,0.125 L 7.375,10.75 7.3125,10.6875 7.015625,10.984375 6.71875,11.28125 6.765625,11.359375 6.8125,11.4375 6.71875,11.28125 Q 6.625,11.125 6.5,11 L 6.375,10.875 6.5625,11.0625 6.75,11.25 6.5,11 Q 6.25,10.75 6,10.5 M 5.6875,10.1875 5.75,10.25 5.9375,10.4375 6.125,10.625 6,10.5 Q 5.875,10.375 5.75,10.25 l -0.125,-0.125 0.0625,0.0625"
           id="path68012"
           inkscape:connector-curvature="0" />
        <path
           style="fill:#1d1d1d;fill-opacity:1"
           d="M 7.125,10.375 7,10 7.5,10 8,10 8.5,10 9,10 9,10.5 Q 9,11 9.5,11 l 0.5,0 0,0.5 q 0,0.5 0.5,0.5 l 0.5,0 0,0.5 0,0.5 -0.5,0 L 10,13 9.625,12.875 Q 9.25,12.75 9.125,12.375 9,12 8.625,11.875 8.25,11.75 8.125,11.375 8,11 7.625,10.875 7.25,10.75 7.125,10.375"
           id="path68014"
           inkscape:connector-curvature="0" />
        <path
           style="fill:#202020;fill-opacity:1"
           d="M 9,10.5 9,10 9.5,10 Q 10,10 10,10.5 L 10,11 9.5,11 Q 9,11 9,10.5"
           id="path68016"
           inkscape:connector-curvature="0" />
        <path
           style="fill:#202020;fill-opacity:1"
           d="m 11,10.5 0,-0.5 0.5,0 0.5,0 0.5,0 0.5,0 0,0.5 0,0.5 -0.5,0 Q 12,11 12,11.5 l 0,0.5 -0.5,0 -0.5,0 0,-0.5 0,-0.5 0,-0.5"
           id="path68018"
           inkscape:connector-curvature="0" />
        <path
           style="fill:#1d1d1d;fill-opacity:1"
           d="m 13,10.5 0,-0.5 0.5,0 0.5,0 0,0.5 0,0.5 -0.5,0 -0.5,0 0,-0.5"
           id="path68020"
           inkscape:connector-curvature="0" />
        <path
           style="fill:#0f0f0f;fill-opacity:1"
           d="m 14,10.5 0,-0.5 0.5,0 0.5,0 0,0.5 0,0.5 -0.5,0 -0.5,0 0,-0.5"
           id="path68022"
           inkscape:connector-curvature="0" />
        <path
           style="fill:#050505;fill-opacity:1"
           d="m 15,10.5 0,-0.5 0.5,0 0.5,0 0,0.5 0,0.5 -0.5,0 -0.5,0 0,-0.5"
           id="path68024"
           inkscape:connector-curvature="0" />
        <path
           style="fill:#131313;fill-opacity:1"
           d="m 16,10.5 0,-0.5 0.5,0 0.5,0 0,0.5 0,0.5 -0.5,0 -0.5,0 0,-0.5"
           id="path68026"
           inkscape:connector-curvature="0" />
        <path
           style="fill:#1d1d1d;fill-opacity:1"
           d="m 17,10.5 0,-0.5 0.5,0 0.5,0 0,0.5 0,0.5 0,0.5 0,0.5 -0.5,0 -0.5,0 0,-0.5 0,-0.5 0,-0.5"
           id="path68028"
           inkscape:connector-curvature="0" />
        <path
           style="fill:#161616;fill-opacity:1"
           d="m 18,10.5 0,-0.5 0.5,0 0.5,0 0,0.5 0,0.5 -0.5,0 -0.5,0 0,-0.5"
           id="path68030"
           inkscape:connector-curvature="0" />
        <path
           style="fill:#080808;fill-opacity:0.65490196"
           d="m 19,10.5 0,-0.5 0.5,0 0.5,0 0,0.5 0,0.5 -0.5,0 -0.5,0 0,-0.5"
           id="path68032"
           inkscape:connector-curvature="0" />
        <path
           style="fill:#000000;fill-opacity:0.16470588"
           d="M 2.875,11.625 2.75,11.25 2.84375,11.53125 2.9375,11.8125 2.875,11.625 Q 2.8125,11.4375 2.6875,11.3125 L 2.5625,11.1875 2.625,11.25 2.6875,11.3125 2.984375,11.015625 3.28125,10.71875 3.203125,10.671875 3.125,10.625 3.28125,10.71875 Q 3.4375,10.8125 3.625,10.875 L 3.8125,10.9375 3.53125,10.84375 3.25,10.75 3.625,10.875 4,11 4.125,11.375 4.25,11.75 4.15625,11.46875 4.0625,11.1875 4.125,11.375 q 0.0625,0.1875 0.1875,0.3125 l 0.125,0.125 L 4.375,11.75 4.3125,11.6875 4,12 3.6875,12.3125 3.75,12.375 3.8125,12.4375 3.6875,12.3125 Q 3.5625,12.1875 3.375,12.125 L 3.1875,12.0625 3.46875,12.15625 3.75,12.25 3.375,12.125 Q 3,12 2.875,11.625"
           id="path68034"
           inkscape:connector-curvature="0" />
        <path
           style="fill:#471f00;fill-opacity:0.92156863"
           d="M 4.125,11.375 4,11 4.375,11.125 q 0.375,0.125 0.5,0.5 L 5,12 4.625,11.875 q -0.375,-0.125 -0.5,-0.5"
           id="path68036"
           inkscape:connector-curvature="0" />
        <path
           style="fill:#f7a800;fill-opacity:1"
           d="M 4.875,11.625 4.75,11.25 4.84375,11.53125 4.9375,11.8125 4.875,11.625 Q 4.8125,11.4375 4.6875,11.3125 L 4.5625,11.1875 4.625,11.25 4.6875,11.3125 4.96875,11.03125 5.25,10.75 5.5,11 q 0.25,0.25 0.375,0.625 L 6,12 5.5,12 5,12 4.875,11.625 M 5.4375,10.9375 5.25,10.75 5.1875,10.6875 5.125,10.625 5.25,10.75 Q 5.375,10.875 5.5,11 l 0.125,0.125 -0.1875,-0.1875"
           id="path68038"
           inkscape:connector-curvature="0" />
        <path
           style="fill:#bc7c00;fill-opacity:1"
           d="M 5.875,11.625 5.75,11.25 5.84375,11.53125 5.9375,11.8125 5.875,11.625 Q 5.8125,11.4375 5.71875,11.28125 L 5.625,11.125 5.671875,11.203125 5.71875,11.28125 5.984375,11.015625 6.25,10.75 6.5,11 q 0.25,0.25 0.375,0.625 L 7,12 6.5,12 6,12 5.875,11.625 M 6.4375,10.9375 6.25,10.75 6.1875,10.6875 6.125,10.625 6.25,10.75 Q 6.375,10.875 6.5,11 l 0.125,0.125 -0.1875,-0.1875"
           id="path68040"
           inkscape:connector-curvature="0" />
        <path
           style="fill:#130f0c;fill-opacity:1"
           d="M 6.875,11.625 6.75,11.25 6.84375,11.53125 6.9375,11.8125 6.875,11.625 Q 6.8125,11.4375 6.71875,11.28125 L 6.625,11.125 6.671875,11.203125 6.71875,11.28125 7.015625,10.984375 7.3125,10.6875 7.25,10.625 7.1875,10.5625 l 0.125,0.125 q 0.125,0.125 0.3125,0.1875 L 7.8125,10.9375 7.53125,10.84375 7.25,10.75 7.625,10.875 Q 8,11 8.125,11.375 L 8.25,11.75 8.15625,11.46875 8.0625,11.1875 8.125,11.375 q 0.0625,0.1875 0.1875,0.3125 l 0.125,0.125 L 8.375,11.75 8.3125,11.6875 8,12 7.6875,12.3125 7.75,12.375 7.8125,12.4375 7.6875,12.3125 Q 7.5625,12.1875 7.375,12.125 L 7.1875,12.0625 7.46875,12.15625 7.75,12.25 7.375,12.125 7,12 6.875,11.625"
           id="path68042"
           inkscape:connector-curvature="0" />
        <path
           style="fill:#1e1e1e;fill-opacity:1"
           d="m 10,11.5 0,-0.5 0.5,0 0.5,0 0,0.5 0,0.5 -0.5,0 Q 10,12 10,11.5"
           id="path68044"
           inkscape:connector-curvature="0" />
        <path
           style="fill:#141414;fill-opacity:1"
           d="M 12,11.5 Q 12,11 12.5,11 l 0.5,0 0,0.5 0,0.5 -0.5,0 -0.5,0 0,-0.5"
           id="path68046"
           inkscape:connector-curvature="0" />
        <path
           style="fill:#080808;fill-opacity:1"
           d="m 13,11.5 0,-0.5 0.5,0 0.5,0 0,0.5 0,0.5 -0.5,0 -0.5,0 0,-0.5"
           id="path68048"
           inkscape:connector-curvature="0" />
        <path
           style="fill:#0c0c0c;fill-opacity:1"
           d="m 14,11.5 0,-0.5 0.5,0 0.5,0 0,0.5 0,0.5 -0.5,0 -0.5,0 0,-0.5"
           id="path68050"
           inkscape:connector-curvature="0" />
        <path
           style="fill:#070707;fill-opacity:1"
           d="m 15,11.5 0,-0.5 0.5,0 0.5,0 0,0.5 0,0.5 -0.5,0 -0.5,0 0,-0.5"
           id="path68052"
           inkscape:connector-curvature="0" />
        <path
           style="fill:#151515;fill-opacity:1"
           d="m 16,11.5 0,-0.5 0.5,0 0.5,0 0,0.5 0,0.5 -0.5,0 -0.5,0 0,-0.5"
           id="path68054"
           inkscape:connector-curvature="0" />
        <path
           style="fill:#131313;fill-opacity:0.91764706"
           d="m 18,11.5 0,-0.5 0.5,0 0.5,0 0,0.5 0,0.5 -0.5,0 -0.5,0 0,-0.5"
           id="path68056"
           inkscape:connector-curvature="0" />
        <path
           style="fill:#000000;fill-opacity:0.07058824"
           d="m 19,11.5 0,-0.5 0.5,0 0.5,0 0,0.5 Q 20,12 19.5,12 l -0.5,0 0,-0.5"
           id="path68058"
           inkscape:connector-curvature="0" />
        <path
           style="fill:#000000;fill-opacity:0.07843137"
           d="M 3.875,12.625 3.75,12.25 3.84375,12.53125 3.9375,12.8125 3.875,12.625 Q 3.8125,12.4375 3.6875,12.3125 L 3.5625,12.1875 3.625,12.25 3.6875,12.3125 4,12 4.3125,11.6875 4.25,11.625 4.1875,11.5625 l 0.125,0.125 q 0.125,0.125 0.3125,0.1875 L 4.8125,11.9375 4.53125,11.84375 4.25,11.75 4.625,11.875 5,12 5.125,12.375 5.25,12.75 5.15625,12.46875 5.0625,12.1875 5.125,12.375 q 0.0625,0.1875 0.15625,0.34375 L 5.375,12.875 5.328125,12.796875 5.28125,12.71875 5.015625,12.984375 Q 4.75,13.25 4.375,13.125 4,13 3.875,12.625"
           id="path68060"
           inkscape:connector-curvature="0" />
        <path
           style="fill:#2c1200;fill-opacity:0.85490196"
           d="M 5.125,12.375 5,12 5.5,12 6,12 6.125,12.375 6.25,12.75 6.15625,12.46875 6.0625,12.1875 6.125,12.375 q 0.0625,0.1875 0.1875,0.3125 l 0.125,0.125 L 6.375,12.75 6.3125,12.6875 6.03125,12.96875 5.75,13.25 5.5,13 Q 5.25,12.75 5.125,12.375 M 5.5625,13.0625 5.75,13.25 5.8125,13.3125 5.875,13.375 5.75,13.25 Q 5.625,13.125 5.5,13 l -0.125,-0.125 0.1875,0.1875"
           id="path68062"
           inkscape:connector-curvature="0" />
        <path
           style="fill:#e99700;fill-opacity:1"
           d="M 6.125,12.375 6,12 6.5,12 7,12 7,12.5 7,13 6.625,12.875 q -0.375,-0.125 -0.5,-0.5"
           id="path68064"
           inkscape:connector-curvature="0" />
        <path
           style="fill:#a96100;fill-opacity:1"
           d="M 7,12.5 7,12 7.375,12.125 q 0.375,0.125 0.5,0.5 L 8,13 7.5,13 7,13 7,12.5"
           id="path68066"
           inkscape:connector-curvature="0" />
        <path
           style="fill:#0d0d0d;fill-opacity:1"
           d="M 7.875,12.625 7.75,12.25 7.84375,12.53125 7.9375,12.8125 7.875,12.625 Q 7.8125,12.4375 7.6875,12.3125 L 7.5625,12.1875 7.625,12.25 7.6875,12.3125 8,12 8.3125,11.6875 8.25,11.625 8.1875,11.5625 l 0.125,0.125 q 0.125,0.125 0.3125,0.1875 L 8.8125,11.9375 8.53125,11.84375 8.25,11.75 8.625,11.875 Q 9,12 9.125,12.375 L 9.25,12.75 9.15625,12.46875 9.0625,12.1875 9.125,12.375 q 0.0625,0.1875 0.1875,0.3125 l 0.125,0.125 L 9.375,12.75 9.3125,12.6875 9,13 8.6875,13.3125 8.75,13.375 8.8125,13.4375 8.6875,13.3125 Q 8.5625,13.1875 8.375,13.125 L 8.1875,13.0625 8.46875,13.15625 8.75,13.25 8.375,13.125 8,13 7.875,12.625"
           id="path68068"
           inkscape:connector-curvature="0" />
        <path
           style="fill:#131313;fill-opacity:1"
           d="m 11,12.5 0,-0.5 0.5,0 0.5,0 0,0.5 0,0.5 -0.5,0 -0.5,0 0,-0.5"
           id="path68070"
           inkscape:connector-curvature="0" />
        <path
           style="fill:#060606;fill-opacity:0.77254902"
           d="m 12,12.5 0,-0.5 0.5,0 0.5,0 0,0.5 0,0.5 -0.5,0 -0.5,0 0,-0.5"
           id="path68072"
           inkscape:connector-curvature="0" />
        <path
           style="fill:#0a0c0c;fill-opacity:0.88235294"
           d="m 13,12.5 0,-0.5 0.5,0 0.5,0 0,0.5 0,0.5 -0.5,0 -0.5,0 0,-0.5"
           id="path68074"
           inkscape:connector-curvature="0" />
        <path
           style="fill:#0b0b0b;fill-opacity:1"
           d="m 14,12.5 0,-0.5 0.5,0 0.5,0 0,0.5 0,0.5 -0.5,0 -0.5,0 0,-0.5"
           id="path68076"
           inkscape:connector-curvature="0" />
        <path
           style="fill:#090909;fill-opacity:1"
           d="m 15,12.5 0,-0.5 0.5,0 0.5,0 0,0.5 0,0.5 -0.5,0 -0.5,0 0,-0.5"
           id="path68078"
           inkscape:connector-curvature="0" />
        <path
           style="fill:#161616;fill-opacity:1"
           d="m 16,12.5 0,-0.5 0.5,0 0.5,0 0,0.5 0,0.5 -0.5,0 -0.5,0 0,-0.5"
           id="path68080"
           inkscape:connector-curvature="0" />
        <path
           style="fill:#121212;fill-opacity:0.91372549"
           d="m 17,12.5 0,-0.5 0.5,0 0.5,0 0,0.5 0,0.5 -0.5,0 -0.5,0 0,-0.5"
           id="path68082"
           inkscape:connector-curvature="0" />
        <path
           style="fill:#000000;fill-opacity:0.16078431"
           d="m 18,12.5 0,-0.5 0.5,0 0.5,0 0,0.5 Q 19,13 18.5,13 l -0.5,0 0,-0.5"
           id="path68084"
           inkscape:connector-curvature="0" />
        <path
           style="fill:#1e0a00;fill-opacity:0.77647059"
           d="M 6,13.5 5.75,13.25 6.03125,12.96875 6.3125,12.6875 6.25,12.625 6.1875,12.5625 l 0.125,0.125 q 0.125,0.125 0.3125,0.1875 L 6.8125,12.9375 6.53125,12.84375 6.25,12.75 6.625,12.875 7,13 7.125,13.375 7.25,13.75 7.15625,13.46875 7.0625,13.1875 7.125,13.375 q 0.0625,0.1875 0.1875,0.3125 l 0.125,0.125 L 7.375,13.75 7.3125,13.6875 7.015625,13.984375 6.71875,14.28125 6.765625,14.359375 6.8125,14.4375 6.71875,14.28125 Q 6.625,14.125 6.5,14 L 6.375,13.875 6.5625,14.0625 6.75,14.25 6.5,14 Q 6.25,13.75 6,13.5 M 5.6875,13.1875 5.75,13.25 5.9375,13.4375 6.125,13.625 6,13.5 Q 5.875,13.375 5.75,13.25 l -0.125,-0.125 0.0625,0.0625"
           id="path68086"
           inkscape:connector-curvature="0" />
        <path
           style="fill:#985f00;fill-opacity:1"
           d="M 7.125,13.375 7,13 7.5,13 8,13 8,13.5 8,14 7.625,13.875 q -0.375,-0.125 -0.5,-0.5"
           id="path68088"
           inkscape:connector-curvature="0" />
        <path
           style="fill:#b47800;fill-opacity:1"
           d="M 8,13.5 8,13 8.375,13.125 q 0.375,0.125 0.5,0.5 L 9,14 8.90625,13.71875 8.8125,13.4375 8.875,13.625 q 0.0625,0.1875 0.1875,0.3125 l 0.125,0.125 L 9.125,14 9.0625,13.9375 8.53125,13.96875 8,14 8,13.5"
           id="path68090"
           inkscape:connector-curvature="0" />
        <path
           style="fill:#120e0c;fill-opacity:1"
           d="M 8.875,13.625 8.75,13.25 8.84375,13.53125 8.9375,13.8125 8.875,13.625 Q 8.8125,13.4375 8.6875,13.3125 L 8.5625,13.1875 8.625,13.25 8.6875,13.3125 9,13 9.3125,12.6875 9.25,12.625 9.1875,12.5625 l 0.125,0.125 q 0.125,0.125 0.3125,0.1875 L 9.8125,12.9375 9.53125,12.84375 9.25,12.75 9.625,12.875 10,13 10.125,13.375 10.25,13.75 10.15625,13.46875 10.0625,13.1875 10.125,13.375 q 0.0625,0.1875 0.1875,0.3125 l 0.125,0.125 L 10.375,13.75 10.3125,13.6875 10.015625,13.984375 9.71875,14.28125 9.796875,14.328125 9.875,14.375 9.71875,14.28125 Q 9.5625,14.1875 9.375,14.125 L 9.1875,14.0625 9.46875,14.15625 9.75,14.25 9.375,14.125 Q 9,14 8.875,13.625"
           id="path68092"
           inkscape:connector-curvature="0" />
        <path
           style="fill:#1a1a1a;fill-opacity:1"
           d="M 10.125,13.375 10,13 l 0.5,0 0.5,0 0,0.5 0,0.5 -0.375,-0.125 q -0.375,-0.125 -0.5,-0.5"
           id="path68094"
           inkscape:connector-curvature="0" />
        <path
           style="fill:#0b0b0b;fill-opacity:0.85490196"
           d="m 11,13.5 0,-0.5 0.5,0 0.5,0 0,0.5 0,0.5 -0.5,0 -0.5,0 0,-0.5"
           id="path68096"
           inkscape:connector-curvature="0" />
        <path
           style="fill:#000000;fill-opacity:0.01176471"
           d="m 13,13.5 0,-0.5 0.5,0 0.5,0 0,0.5 0,0.5 -0.5,0 Q 13,14 13,13.5"
           id="path68098"
           inkscape:connector-curvature="0" />
        <path
           style="fill:#010101;fill-opacity:0.72941176"
           d="m 14,13.5 0,-0.5 0.5,0 0.5,0 0,0.5 0,0.5 -0.5,0 -0.5,0 0,-0.5"
           id="path68100"
           inkscape:connector-curvature="0" />
        <path
           style="fill:#0a0a0a;fill-opacity:0.95294118"
           d="m 15,13.5 0,-0.5 0.5,0 0.5,0 0,0.5 0,0.5 -0.5,0 -0.5,0 0,-0.5"
           id="path68102"
           inkscape:connector-curvature="0" />
        <path
           style="fill:#080808;fill-opacity:0.65490196"
           d="m 16,13.5 0,-0.5 0.5,0 0.5,0 0,0.5 0,0.5 -0.5,0 -0.5,0 0,-0.5"
           id="path68104"
           inkscape:connector-curvature="0" />
        <path
           style="fill:#000000;fill-opacity:0.03529412"
           d="m 17,13.5 0,-0.5 0.5,0 0.5,0 0,0.5 Q 18,14 17.5,14 l -0.5,0 0,-0.5"
           id="path68106"
           inkscape:connector-curvature="0" />
        <path
           style="fill:#130700;fill-opacity:0.68235294"
           d="M 6.875,14.625 6.75,14.25 6.84375,14.53125 6.9375,14.8125 6.875,14.625 Q 6.8125,14.4375 6.71875,14.28125 L 6.625,14.125 6.671875,14.203125 6.71875,14.28125 7.015625,13.984375 7.3125,13.6875 7.25,13.625 7.1875,13.5625 l 0.125,0.125 q 0.125,0.125 0.3125,0.1875 L 7.8125,13.9375 7.53125,13.84375 7.25,13.75 7.625,13.875 8,14 8.125,14.375 8.25,14.75 8.15625,14.46875 8.0625,14.1875 8.125,14.375 q 0.0625,0.1875 0.1875,0.3125 l 0.125,0.125 L 8.375,14.75 8.3125,14.6875 8,15 7.6875,15.3125 7.75,15.375 7.8125,15.4375 7.6875,15.3125 Q 7.5625,15.1875 7.375,15.125 L 7.1875,15.0625 7.46875,15.15625 7.75,15.25 7.375,15.125 Q 7,15 6.875,14.625"
           id="path68108"
           inkscape:connector-curvature="0" />
        <path
           style="fill:#c57600;fill-opacity:1"
           d="M 8.125,14.375 8,14 8.53125,13.96875 9.0625,13.9375 9,14.5 8.9375,15.0625 9,15.125 9.0625,15.1875 8.9375,15.0625 Q 8.8125,14.9375 8.625,14.875 L 8.4375,14.8125 8.71875,14.90625 9,15 8.625,14.875 q -0.375,-0.125 -0.5,-0.5"
           id="path68110"
           inkscape:connector-curvature="0" />
        <path
           style="fill:#c47a00;fill-opacity:1"
           d="M 9,14.5 9.0625,13.9375 9,13.875 8.9375,13.8125 l 0.125,0.125 q 0.125,0.125 0.3125,0.1875 L 9.5625,14.1875 9.28125,14.09375 9,14 9.375,14.125 Q 9.75,14.25 10,14.5 L 10.25,14.75 9.96875,15.03125 9.6875,15.3125 9.75,15.375 9.8125,15.4375 9.6875,15.3125 Q 9.5625,15.1875 9.375,15.125 L 9.1875,15.0625 9.46875,15.15625 9.75,15.25 9.34375,15.15625 8.9375,15.0625 9,14.5 M 10.3125,14.8125 10.25,14.75 10.0625,14.5625 9.875,14.375 10,14.5 q 0.125,0.125 0.25,0.25 l 0.125,0.125 -0.0625,-0.0625"
           id="path68112"
           inkscape:connector-curvature="0" />
        <path
           style="fill:#0f0b08;fill-opacity:0.98823529"
           d="M 10,14.5 9.75,14.25 9.9375,14.4375 10.125,14.625 10,14.5 Q 9.875,14.375 9.71875,14.28125 L 9.5625,14.1875 9.640625,14.234375 9.71875,14.28125 10.015625,13.984375 10.3125,13.6875 10.25,13.625 l -0.0625,-0.0625 0.125,0.125 q 0.125,0.125 0.3125,0.1875 L 10.8125,13.9375 10.53125,13.84375 10.25,13.75 10.625,13.875 11,14 11.125,14.375 11.25,14.75 11.15625,14.46875 11.0625,14.1875 11.125,14.375 q 0.0625,0.1875 0.1875,0.3125 l 0.125,0.125 L 11.375,14.75 11.3125,14.6875 11.03125,14.96875 10.75,15.25 10.5,15 Q 10.25,14.75 10,14.5 M 10.5625,15.0625 10.75,15.25 10.8125,15.3125 10.875,15.375 10.75,15.25 Q 10.625,15.125 10.5,15 l -0.125,-0.125 0.1875,0.1875"
           id="path68114"
           inkscape:connector-curvature="0" />
        <path
           style="fill:#000000;fill-opacity:0.21568627"
           d="M 11.125,14.375 11,14 l 0.5,0 0.5,0 0,0.5 0,0.5 -0.375,-0.125 q -0.375,-0.125 -0.5,-0.5"
           id="path68116"
           inkscape:connector-curvature="0" />
        <path
           style="fill:#030000;fill-opacity:0.57254902"
           d="M 7.875,15.625 7.75,15.25 7.84375,15.53125 7.9375,15.8125 7.875,15.625 Q 7.8125,15.4375 7.6875,15.3125 L 7.5625,15.1875 7.625,15.25 7.6875,15.3125 8,15 8.3125,14.6875 8.25,14.625 8.1875,14.5625 l 0.125,0.125 q 0.125,0.125 0.3125,0.1875 L 8.8125,14.9375 8.53125,14.84375 8.25,14.75 8.625,14.875 Q 9,15 9.125,15.375 L 9.25,15.75 9.15625,15.46875 9.0625,15.1875 9.125,15.375 q 0.0625,0.1875 0.1875,0.3125 l 0.125,0.125 L 9.375,15.75 9.3125,15.6875 9,16 8.6875,16.3125 8.75,16.375 8.8125,16.4375 8.6875,16.3125 Q 8.5625,16.1875 8.375,16.125 L 8.1875,16.0625 8.46875,16.15625 8.75,16.25 8.375,16.125 Q 8,16 7.875,15.625"
           id="path68118"
           inkscape:connector-curvature="0" />
        <path
           style="fill:#a65e00;fill-opacity:1"
           d="M 9.125,15.375 9,15 9.09375,15.28125 9.1875,15.5625 9.125,15.375 Q 9.0625,15.1875 8.9375,15.0625 L 8.8125,14.9375 8.875,15 8.9375,15.0625 9.34375,15.15625 Q 9.75,15.25 9.875,15.625 L 10,16 9.625,15.875 q -0.375,-0.125 -0.5,-0.5"
           id="path68120"
           inkscape:connector-curvature="0" />
        <path
           style="fill:#c37500;fill-opacity:1"
           d="M 9.875,15.625 9.75,15.25 9.84375,15.53125 9.9375,15.8125 9.875,15.625 Q 9.8125,15.4375 9.6875,15.3125 L 9.5625,15.1875 9.625,15.25 9.6875,15.3125 9.96875,15.03125 10.25,14.75 10.5,15 q 0.25,0.25 0.5,0.5 l 0.25,0.25 -0.265625,0.265625 -0.265625,0.265625 0.07813,0.04687 L 10.875,16.375 10.71875,16.28125 Q 10.5625,16.1875 10.375,16.125 L 10.1875,16.0625 10.46875,16.15625 10.75,16.25 10.375,16.125 10,16 9.875,15.625 M 11.3125,15.8125 11.25,15.75 11.0625,15.5625 10.875,15.375 11,15.5 q 0.125,0.125 0.25,0.25 l 0.125,0.125 -0.0625,-0.0625 M 10.4375,14.9375 10.25,14.75 10.1875,14.6875 10.125,14.625 10.25,14.75 q 0.125,0.125 0.25,0.25 l 0.125,0.125 -0.1875,-0.1875"
           id="path68122"
           inkscape:connector-curvature="0" />
        <path
           style="fill:#0a0700;fill-opacity:0.59607843"
           d="M 11,15.5 10.75,15.25 11.03125,14.96875 11.3125,14.6875 11.25,14.625 l -0.0625,-0.0625 0.125,0.125 q 0.125,0.125 0.3125,0.1875 L 11.8125,14.9375 11.53125,14.84375 11.25,14.75 11.625,14.875 12,15 12.125,15.375 12.25,15.75 12.15625,15.46875 12.0625,15.1875 12.125,15.375 q 0.0625,0.1875 0.1875,0.3125 l 0.125,0.125 L 12.375,15.75 12.3125,15.6875 12.03125,15.96875 11.75,16.25 11.5,16 Q 11.25,15.75 11,15.5 M 11.5625,16.0625 11.75,16.25 11.8125,16.3125 11.875,16.375 11.75,16.25 Q 11.625,16.125 11.5,16 l -0.125,-0.125 0.1875,0.1875 M 10.6875,15.1875 10.75,15.25 10.9375,15.4375 11.125,15.625 11,15.5 q -0.125,-0.125 -0.25,-0.25 l -0.125,-0.125 0.0625,0.0625"
           id="path68124"
           inkscape:connector-curvature="0" />
        <path
           style="fill:#000000;fill-opacity:0.43921569"
           d="M 8.875,16.625 8.75,16.25 8.84375,16.53125 8.9375,16.8125 8.875,16.625 Q 8.8125,16.4375 8.6875,16.3125 L 8.5625,16.1875 8.625,16.25 8.6875,16.3125 9,16 9.3125,15.6875 9.25,15.625 9.1875,15.5625 l 0.125,0.125 q 0.125,0.125 0.3125,0.1875 L 9.8125,15.9375 9.53125,15.84375 9.25,15.75 9.625,15.875 10,16 10.125,16.375 10.25,16.75 10.15625,16.46875 10.0625,16.1875 10.125,16.375 q 0.0625,0.1875 0.15625,0.34375 L 10.375,16.875 10.328125,16.796875 10.28125,16.71875 9.984375,17.015625 9.6875,17.3125 9.75,17.375 9.8125,17.4375 9.6875,17.3125 Q 9.5625,17.1875 9.375,17.125 L 9.1875,17.0625 9.46875,17.15625 9.75,17.25 9.375,17.125 Q 9,17 8.875,16.625"
           id="path68126"
           inkscape:connector-curvature="0" />
        <path
           style="fill:#8a4a00;fill-opacity:0.98431373"
           d="M 10.125,16.375 10,16 10.375,16.125 Q 10.75,16.25 11,16.5 L 11.25,16.75 11,17 10.75,17.25 10.5,17 Q 10.25,16.75 10.125,16.375 M 10.5625,17.0625 10.75,17.25 10.8125,17.3125 10.875,17.375 10.75,17.25 Q 10.625,17.125 10.5,17 l -0.125,-0.125 0.1875,0.1875 m 0.75,-0.25 L 11.25,16.75 11.0625,16.5625 10.875,16.375 11,16.5 q 0.125,0.125 0.25,0.25 l 0.125,0.125 -0.0625,-0.0625"
           id="path68128"
           inkscape:connector-curvature="0" />
        <path
           style="fill:#c06f00;fill-opacity:1"
           d="M 11,16.5 10.75,16.25 10.9375,16.4375 11.125,16.625 11,16.5 q -0.125,-0.125 -0.28125,-0.21875 l -0.15625,-0.09375 0.07813,0.04687 0.07813,0.04687 0.265625,-0.265625 L 11.25,15.75 11.5,16 q 0.25,0.25 0.5,0.5 l 0.25,0.25 -0.265625,0.265625 -0.265625,0.265625 0.04687,0.07813 0.04687,0.07813 -0.09375,-0.15625 Q 11.625,17.125 11.5,17 L 11.375,16.875 11.5625,17.0625 11.75,17.25 11.5,17 Q 11.25,16.75 11,16.5 M 12.3125,16.8125 12.25,16.75 12.0625,16.5625 11.875,16.375 12,16.5 q 0.125,0.125 0.25,0.25 l 0.125,0.125 -0.0625,-0.0625 M 11.4375,15.9375 11.25,15.75 11.1875,15.6875 11.125,15.625 11.25,15.75 q 0.125,0.125 0.25,0.25 l 0.125,0.125 -0.1875,-0.1875"
           id="path68130"
           inkscape:connector-curvature="0" />
        <path
           style="fill:#0e0500;fill-opacity:0.58431373"
           d="M 12,16.5 11.75,16.25 12.03125,15.96875 12.3125,15.6875 12.25,15.625 l -0.0625,-0.0625 0.125,0.125 q 0.125,0.125 0.3125,0.1875 L 12.8125,15.9375 12.53125,15.84375 12.25,15.75 12.625,15.875 Q 13,16 13.125,16.375 L 13.25,16.75 13.15625,16.46875 13.0625,16.1875 13.125,16.375 q 0.0625,0.1875 0.1875,0.3125 l 0.125,0.125 L 13.375,16.75 13.3125,16.6875 13.03125,16.96875 12.75,17.25 12.5,17 Q 12.25,16.75 12,16.5 M 12.5625,17.0625 12.75,17.25 12.8125,17.3125 12.875,17.375 12.75,17.25 Q 12.625,17.125 12.5,17 l -0.125,-0.125 0.1875,0.1875 M 11.6875,16.1875 11.75,16.25 11.9375,16.4375 12.125,16.625 12,16.5 q -0.125,-0.125 -0.25,-0.25 l -0.125,-0.125 0.0625,0.0625"
           id="path68132"
           inkscape:connector-curvature="0" />
        <path
           style="fill:#000000;fill-opacity:0.29411765"
           d="M 9.875,17.625 9.75,17.25 9.84375,17.53125 9.9375,17.8125 9.875,17.625 Q 9.8125,17.4375 9.6875,17.3125 l -0.125,-0.125 0.0625,0.0625 0.0625,0.0625 0.296875,-0.296875 0.296875,-0.296875 -0.04687,-0.07813 -0.04687,-0.07813 0.09375,0.15625 Q 10.375,16.875 10.5,17 L 10.625,17.125 10.4375,16.9375 10.25,16.75 10.5,17 q 0.25,0.25 0.5,0.5 L 11.25,17.75 11.0625,17.5625 10.875,17.375 11,17.5 q 0.125,0.125 0.28125,0.21875 l 0.15625,0.09375 -0.07813,-0.04687 -0.07813,-0.04687 -0.296875,0.296875 -0.296875,0.296875 0.0625,0.0625 0.0625,0.0625 -0.125,-0.125 Q 10.5625,18.1875 10.375,18.125 L 10.1875,18.0625 10.46875,18.15625 10.75,18.25 10.375,18.125 Q 10,18 9.875,17.625"
           id="path68134"
           inkscape:connector-curvature="0" />
        <path
           style="fill:#763d00;fill-opacity:0.96470588"
           d="M 11,17.5 10.75,17.25 11,17 11.25,16.75 11.5,17 q 0.25,0.25 0.375,0.625 L 12,18 11.625,17.875 Q 11.25,17.75 11,17.5 M 11.4375,16.9375 11.25,16.75 11.1875,16.6875 11.125,16.625 11.25,16.75 q 0.125,0.125 0.25,0.25 l 0.125,0.125 -0.1875,-0.1875 m -0.75,0.25 L 10.75,17.25 10.9375,17.4375 11.125,17.625 11,17.5 q -0.125,-0.125 -0.25,-0.25 l -0.125,-0.125 0.0625,0.0625"
           id="path68136"
           inkscape:connector-curvature="0" />
        <path
           style="fill:#b36100;fill-opacity:1"
           d="M 11.875,17.625 11.75,17.25 11.84375,17.53125 11.9375,17.8125 11.875,17.625 Q 11.8125,17.4375 11.71875,17.28125 L 11.625,17.125 l 0.04687,0.07813 0.04687,0.07813 0.265625,-0.265625 L 12.25,16.75 12.5,17 q 0.25,0.25 0.5,0.5 l 0.25,0.25 -0.28125,0.28125 -0.28125,0.28125 0.0625,0.0625 0.0625,0.0625 -0.125,-0.125 Q 12.5625,18.1875 12.375,18.125 L 12.1875,18.0625 12.46875,18.15625 12.75,18.25 12.375,18.125 12,18 11.875,17.625 M 13.3125,17.8125 13.25,17.75 13.0625,17.5625 12.875,17.375 13,17.5 q 0.125,0.125 0.25,0.25 l 0.125,0.125 -0.0625,-0.0625 M 12.4375,16.9375 12.25,16.75 12.1875,16.6875 12.125,16.625 12.25,16.75 q 0.125,0.125 0.25,0.25 l 0.125,0.125 -0.1875,-0.1875"
           id="path68138"
           inkscape:connector-curvature="0" />
        <path
           style="fill:#130a00;fill-opacity:0.58823529"
           d="M 13,17.5 12.75,17.25 13.03125,16.96875 13.3125,16.6875 13.25,16.625 l -0.0625,-0.0625 0.125,0.125 q 0.125,0.125 0.3125,0.1875 L 13.8125,16.9375 13.53125,16.84375 13.25,16.75 13.625,16.875 Q 14,17 14.125,17.375 L 14.25,17.75 14.15625,17.46875 14.0625,17.1875 14.125,17.375 q 0.0625,0.1875 0.1875,0.3125 l 0.125,0.125 -0.0625,-0.0625 -0.0625,-0.0625 -0.296875,0.296875 -0.296875,0.296875 0.04687,0.07813 0.04687,0.07813 -0.09375,-0.15625 Q 13.625,18.125 13.5,18 L 13.375,17.875 13.5625,18.0625 13.75,18.25 13.5,18 Q 13.25,17.75 13,17.5 M 12.6875,17.1875 12.75,17.25 12.9375,17.4375 13.125,17.625 13,17.5 q -0.125,-0.125 -0.25,-0.25 l -0.125,-0.125 0.0625,0.0625"
           id="path68140"
           inkscape:connector-curvature="0" />
        <path
           style="fill:#000000;fill-opacity:0.18039216"
           d="M 10.875,18.625 10.75,18.25 10.84375,18.53125 10.9375,18.8125 10.875,18.625 q -0.0625,-0.1875 -0.1875,-0.3125 l -0.125,-0.125 0.0625,0.0625 0.0625,0.0625 0.296875,-0.296875 L 11.28125,17.71875 11.20312,17.67188 11.125,17.625 11.28125,17.71875 Q 11.4375,17.8125 11.625,17.875 L 11.8125,17.9375 11.53125,17.84375 11.25,17.75 11.625,17.875 12,18 12.125,18.375 12.25,18.75 12.15625,18.46875 12.0625,18.1875 12.125,18.375 q 0.0625,0.1875 0.1875,0.3125 l 0.125,0.125 L 12.375,18.75 12.3125,18.6875 12,19 l -0.3125,0.3125 0.0625,0.0625 0.0625,0.0625 -0.125,-0.125 Q 11.5625,19.1875 11.375,19.125 L 11.1875,19.0625 11.46875,19.15625 11.75,19.25 11.375,19.125 Q 11,19 10.875,18.625"
           id="path68142"
           inkscape:connector-curvature="0" />
        <path
           style="fill:#5c2c00;fill-opacity:0.93333333"
           d="M 12.125,18.375 12,18 l 0.375,0.125 q 0.375,0.125 0.5,0.5 L 13,19 12.625,18.875 q -0.375,-0.125 -0.5,-0.5"
           id="path68144"
           inkscape:connector-curvature="0" />
        <path
           style="fill:#a65500;fill-opacity:1"
           d="M 12.875,18.625 12.75,18.25 12.84375,18.53125 12.9375,18.8125 12.875,18.625 q -0.0625,-0.1875 -0.1875,-0.3125 l -0.125,-0.125 0.0625,0.0625 0.0625,0.0625 0.28125,-0.28125 L 13.25,17.75 13.5,18 q 0.25,0.25 0.375,0.625 L 14,19 13.5,19 13,19 12.875,18.625 M 13.4375,17.9375 13.25,17.75 13.1875,17.6875 13.125,17.625 13.25,17.75 q 0.125,0.125 0.25,0.25 l 0.125,0.125 -0.1875,-0.1875"
           id="path68146"
           inkscape:connector-curvature="0" />
        <path
           style="fill:#140c00;fill-opacity:0.59215686"
           d="M 13.875,18.625 13.75,18.25 13.84375,18.53125 13.9375,18.8125 13.875,18.625 Q 13.8125,18.4375 13.71875,18.28125 L 13.625,18.125 l 0.04687,0.07813 0.04687,0.07813 0.296875,-0.296875 L 14.3125,17.6875 14.25,17.625 l -0.0625,-0.0625 0.125,0.125 q 0.125,0.125 0.3125,0.1875 L 14.8125,17.9375 14.53125,17.84375 14.25,17.75 14.625,17.875 Q 15,18 15.125,18.375 L 15.25,18.75 15.15625,18.46875 15.0625,18.1875 15.125,18.375 q 0.0625,0.1875 0.15625,0.34375 L 15.375,18.875 15.328125,18.796875 15.28125,18.71875 14.96875,19 14.65625,19.28125 14.70312,19.32812 14.75,19.375 14.65625,19.28125 Q 14.5625,19.1875 14.375,19.125 L 14.1875,19.0625 14.46875,19.15625 14.75,19.25 14.375,19.125 14,19 13.875,18.625"
           id="path68148"
           inkscape:connector-curvature="0" />
        <path
           style="fill:#000000;fill-opacity:0.07843137"
           d="M 11.875,19.625 11.75,19.25 11.84375,19.53125 11.9375,19.8125 11.875,19.625 q -0.0625,-0.1875 -0.1875,-0.3125 l -0.125,-0.125 0.0625,0.0625 0.0625,0.0625 L 12,19 12.3125,18.6875 12.25,18.625 l -0.0625,-0.0625 0.125,0.125 q 0.125,0.125 0.3125,0.1875 L 12.8125,18.9375 12.53125,18.84375 12.25,18.75 12.625,18.875 13,19 13.125,19.375 13.25,19.75 13.15625,19.46875 13.0625,19.1875 13.125,19.375 q 0.0625,0.1875 0.1875,0.3125 l 0.125,0.125 L 13.375,19.75 13.3125,19.6875 13.03125,19.96875 Q 12.75,20.25 12.375,20.125 12,20 11.875,19.625"
           id="path68150"
           inkscape:connector-curvature="0" />
        <path
           style="fill:#421f00;fill-opacity:0.86666667"
           d="M 13.125,19.375 13,19 l 0.5,0 0.5,0 0,0.5 0,0.5 -0.375,-0.125 q -0.375,-0.125 -0.5,-0.5"
           id="path68152"
           inkscape:connector-curvature="0" />
        <path
           style="fill:#954700;fill-opacity:1"
           d="m 14,19.5 0,-0.5 0.375,0.125 q 0.375,0.125 0.375,0.375 0,0.25 -0.375,0.375 L 14,20 14,19.5"
           id="path68154"
           inkscape:connector-curvature="0" />
        <path
           style="fill:#190c00;fill-opacity:0.59607843"
           d="m 14.75,19.5 0,-0.25 0,0.1875 0,0.1875 0,-0.125 q 0,-0.125 -0.09375,-0.21875 l -0.09375,-0.09375 0.04687,0.04687 0.04687,0.04687 0.3125,-0.28125 0.3125,-0.28125 -0.04687,-0.07813 -0.04687,-0.07813 0.09375,0.15625 Q 15.375,18.875 15.5,19 L 15.625,19.125 15.4375,18.9375 15.25,18.75 15.5,19 q 0.25,0.25 0.375,0.625 L 16,20 15.625,20.125 15.25,20.25 15.53125,20.15625 15.8125,20.0625 15.625,20.125 q -0.1875,0.0625 -0.3125,0.1875 l -0.125,0.125 0.0625,-0.0625 0.0625,-0.0625 -0.328125,-0.296875 -0.328125,-0.296875 -0.04687,0.04687 -0.04687,0.04687 0.09375,-0.09375 Q 14.75,19.625 14.75,19.5 l 0,-0.125 0,0.1875 0,0.1875 0,-0.25"
           id="path68156"
           inkscape:connector-curvature="0" />
        <path
           style="fill:#291000;fill-opacity:0.77254902"
           d="M 14.125,20.375 14,20 14.375,19.875 14.75,19.75 14.46875,19.84375 14.1875,19.9375 14.375,19.875 q 0.1875,-0.0625 0.28125,-0.15625 L 14.75,19.625 l -0.04687,0.04687 -0.04687,0.04687 0.328125,0.296875 0.328125,0.296875 0.0625,-0.0625 0.0625,-0.0625 -0.125,0.125 q -0.125,0.125 -0.1875,0.3125 L 15.0625,20.8125 15.15625,20.53125 15.25,20.25 15.125,20.625 15,21 14.625,20.875 q -0.375,-0.125 -0.5,-0.5"
           id="path68158"
           inkscape:connector-curvature="0" />
        <path
           style="fill:#260f00;fill-opacity:0.70980392"
           d="m 15.125,20.625 q 0.125,-0.375 0.5,-0.5 L 16,20 15.875,20.375 q -0.125,0.375 -0.5,0.5 L 15,21 15.125,20.625"
           id="path68160"
           inkscape:connector-curvature="0" />
      </g>
    </g>
  </g>
</svg>
