<?xml version="1.0" encoding="UTF-8" standalone="no"?>
<!-- Created with Inkscape (http://www.inkscape.org/) -->

<svg
   xmlns:dc="http://purl.org/dc/elements/1.1/"
   xmlns:cc="http://creativecommons.org/ns#"
   xmlns:rdf="http://www.w3.org/1999/02/22-rdf-syntax-ns#"
   xmlns:svg="http://www.w3.org/2000/svg"
   xmlns="http://www.w3.org/2000/svg"
   xmlns:sodipodi="http://sodipodi.sourceforge.net/DTD/sodipodi-0.dtd"
   xmlns:inkscape="http://www.inkscape.org/namespaces/inkscape"
   width="20"
   height="20"
   viewBox="0 0 20 20"
   id="svg3347"
   version="1.1"
   inkscape:version="0.91 r13725"
   sodipodi:docname="Civ5Icon.Denounce.svg">
  <defs
     id="defs3349" />
  <sodipodi:namedview
     id="base"
     pagecolor="#ffffff"
     bordercolor="#666666"
     borderopacity="1.0"
     inkscape:pageopacity="0.0"
     inkscape:pageshadow="2"
     inkscape:zoom="11.2"
     inkscape:cx="13.251856"
     inkscape:cy="8.3638322"
     inkscape:document-units="px"
     inkscape:current-layer="layer1"
     showgrid="false"
     units="px"
     inkscape:window-width="1477"
     inkscape:window-height="962"
     inkscape:window-x="533"
     inkscape:window-y="95"
     inkscape:window-maximized="0" />
  <metadata
     id="metadata3352">
    <rdf:RDF>
      <cc:Work
         rdf:about="">
        <dc:format>image/svg+xml</dc:format>
        <dc:type
           rdf:resource="http://purl.org/dc/dcmitype/StillImage" />
        <dc:title></dc:title>
      </cc:Work>
    </rdf:RDF>
  </metadata>
  <g
     inkscape:label="Layer 1"
     inkscape:groupmode="layer"
     id="layer1"
     transform="translate(0,-1032.3622)">
    <g
       transform="translate(-1.2946438,1031.4247)"
       id="g14739">
      <path
         style="fill:#000000;fill-opacity:0"
         d="M 0,0.5 0,0 0.5,0 1,0 1.5,0 2,0 2.5,0 3,0 3.5,0 4,0 4,0.5 4,1 4.5,1 5,1 5,1.5 5,2 5,2.5 5,3 5,3.5 5,4 4.5,4 4,4 4,3.5 Q 4,3 3.5,3 3,3 3,3.5 L 3,4 3,4.5 3,5 3,5.5 3,6 3,6.5 3,7 3,7.5 Q 3,8 3,8.5 L 3,9 2.5,9 Q 2,9 2,9.5 L 2,10 1.5,10 Q 1,10 1,10.5 L 1,11 1,11.5 1,12 1,12.5 1,13 1,13.5 Q 1,14 1.375,14.125 1.75,14.25 2.03125,13.96875 L 2.3125,13.6875 2.28125,13.65625 2.25,13.625 2.3125,13.6875 Q 2.375,13.75 2.5,13.75 l 0.125,0 -0.1875,0 -0.1875,0 0.25,0 0.25,0 -0.1875,0 -0.1875,0 0.125,0 q 0.125,0 0.1875,-0.0625 L 2.75,13.625 2.71875,13.65625 2.6875,13.6875 2.984375,14.015625 3.28125,14.34375 3.328125,14.296875 3.375,14.25 3.28125,14.34375 Q 3.1875,14.4375 3.125,14.625 L 3.0625,14.8125 3.15625,14.53125 3.25,14.25 3.125,14.625 Q 3,15 3.5,15 L 4,15 4.5,15 5,15 5.5,15 6,15 6.5,15 7,15 7.5,15 8,15 8,15.5 8,16 8,16.5 8,17 8,17.5 8,18 8,18.5 Q 8,19 8.5,19 L 9,19 9,19.5 9,20 9,20.5 Q 9,21 9.5,21 L 10,21 10,21.5 10,22 9.5,22 9,22 8.5,22 8,22 7.5,22 7,22 6.5,22 6,22 5.5,22 5,22 4.5,22 4,22 3.5,22 3,22 2.5,22 2,22 1.5,22 1,22 0.5,22 0,22 0,21.5 0,21 0,20.5 0,20 0,19.5 0,19 0,18.5 0,18 0,17.5 0,17 0,16.5 0,16 0,15.5 0,15 0,14.5 0,14 0,13.5 0,13 0,12.5 0,12 0,11.5 0,11 0,10.5 0,10 0,9.5 0,9 0,8.5 0,8 0,7.5 0,7 0,6.5 0,6 0,5.5 0,5 0,4.5 0,4 0,3.5 0,3 0,2.5 0,2 0,1.5 0,1 0,0.5 M 1.5,3 Q 2,3 2,2.5 2,2 1.5,2 1,2 1,2.5 1,3 1.5,3 M 4,1.5 4,1 3.5,1 Q 3,1 3,1.5 3,2 3.5,2 4,2 4,1.5"
         id="path14741"
         inkscape:connector-curvature="0" />
      <path
         style="fill:#000000;fill-opacity:0.03137255"
         d="M 4,0.5 4,0 4.5,0 5,0 5,0.5 5,1 4.5,1 4,1 4,0.5"
         id="path14743"
         inkscape:connector-curvature="0" />
      <path
         style="fill:#000000;fill-opacity:0.01568627"
         d="M 5,0.5 5,0 5.5,0 6,0 6,0.5 6,1 5.5,1 5,1 5,0.5"
         id="path14745"
         inkscape:connector-curvature="0" />
      <path
         style="fill:#0c0000;fill-opacity:0.08235294"
         d="M 6,0.5 6,0 6.5,0 7,0 7,0.5 7,1 6.5,1 6,1 6,0.5"
         id="path14747"
         inkscape:connector-curvature="0" />
      <path
         style="fill:#090909;fill-opacity:0.10588235"
         d="M 7,0.5 7,0 7.5,0 8,0 8,0.5 8,1 7.5,1 7,1 7,0.5"
         id="path14749"
         inkscape:connector-curvature="0" />
      <path
         style="fill:#110909;fill-opacity:0.11764706"
         d="M 8,0.5 8,0 8.5,0 9,0 9,0.5 9,1 8.5,1 8,1 8,0.5"
         id="path14751"
         inkscape:connector-curvature="0" />
      <path
         style="fill:#0f0000;fill-opacity:0.06666667"
         d="M 9,0.5 9,0 9.5,0 10,0 10,0.5 10,1 9.5,1 9,1 9,0.5"
         id="path14753"
         inkscape:connector-curvature="0" />
      <path
         style="fill:#1a0000;fill-opacity:0.03921569"
         d="M 10,0.5 10,0 10.5,0 11,0 10.875,0.375 q -0.125,0.375 -0.5,0.5 L 10,1 10,0.5"
         id="path14755"
         inkscape:connector-curvature="0" />
      <path
         style="fill:#000000;fill-opacity:0"
         d="M 10.875,0.375 11,0 11.5,0 12,0 12.5,0 13,0 13.5,0 14,0 14.5,0 15,0 15.5,0 16,0 16.5,0 17,0 17,0.5 Q 17,1 17.375,1.125 17.75,1.25 18.03125,0.96875 L 18.3125,0.6875 18.25,0.625 18.1875,0.5625 l 0.125,0.125 q 0.125,0.125 0.3125,0.1875 L 18.8125,0.9375 18.53125,0.84375 18.25,0.75 18.625,0.875 19,1 19,1.5 19,2 18.625,1.875 Q 18.25,1.75 17.984375,2.046875 L 17.71875,2.34375 17.765625,2.390625 17.8125,2.4375 17.71875,2.34375 Q 17.625,2.25 17.5,2.25 l -0.125,0 0.1875,0 0.1875,0 -0.25,0 -0.25,0 0.1875,0 0.1875,0 -0.125,0 q -0.125,0 -0.1875,0.0625 L 17.25,2.375 17.28125,2.34375 17.3125,2.3125 17.03125,2.03125 Q 16.75,1.75 16.375,1.875 L 16,2 16,1.5 Q 16,1 15.5,1 L 15,1 14.5,1 14,1 13.5,1 13,1 12.5,1 12,1 11.625,1.125 11.25,1.25 11.53125,1.15625 11.8125,1.0625 11.625,1.125 Q 11.4375,1.1875 11.3125,1.3125 L 11.1875,1.4375 11.25,1.375 11.3125,1.3125 11,1 10.6875,0.6875 10.625,0.75 10.5625,0.8125 10.6875,0.6875 Q 10.8125,0.5625 10.875,0.375 L 10.9375,0.1875 10.84375,0.46875 10.75,0.75 10.875,0.375"
         id="path14757"
         inkscape:connector-curvature="0" />
      <path
         style="fill:#000000;fill-opacity:0.01176471"
         d="M 17,0.5 17,0 17.5,0 18,0 18.125,0.375 18.25,0.75 18.15625,0.46875 18.0625,0.1875 18.125,0.375 q 0.0625,0.1875 0.1875,0.3125 l 0.125,0.125 L 18.375,0.75 18.3125,0.6875 18.03125,0.96875 Q 17.75,1.25 17.375,1.125 17,1 17,0.5"
         id="path14759"
         inkscape:connector-curvature="0" />
      <path
         style="fill:#1a0000;fill-opacity:0.03921569"
         d="M 18.125,0.375 18,0 18.5,0 19,0 19,0.5 19,1 18.625,0.875 q -0.375,-0.125 -0.5,-0.5"
         id="path14761"
         inkscape:connector-curvature="0" />
      <path
         style="fill:#140000;fill-opacity:0.05098039"
         d="M 19,0.5 19,0 19.5,0 20,0 19.875,0.375 q -0.125,0.375 -0.5,0.5 L 19,1 19,0.5"
         id="path14763"
         inkscape:connector-curvature="0" />
      <path
         style="fill:#000000;fill-opacity:0"
         d="M 19.875,0.375 20,0 l 0.5,0 0.5,0 0.5,0 0.5,0 0,0.5 0,0.5 0,0.5 0,0.5 0,0.5 0,0.5 0,0.5 0,0.5 0,0.5 0,0.5 0,0.5 0,0.5 0,0.5 0,0.5 0,0.5 0,0.5 0,0.5 0,0.5 0,0.5 0,0.5 0,0.5 0,0.5 0,0.5 0,0.5 0,0.5 0,0.5 0,0.5 0,0.5 0,0.5 0,0.5 0,0.5 0,0.5 0,0.5 0,0.5 0,0.5 0,0.5 0,0.5 0,0.5 0,0.5 0,0.5 0,0.5 0,0.5 0,0.5 0,0.5 -0.5,0 -0.5,0 -0.5,0 -0.5,0 -0.5,0 -0.5,0 -0.5,0 -0.5,0 -0.5,0 -0.5,0 -0.5,0 -0.5,0 -0.5,0 -0.5,0 0,-0.5 0,-0.5 0.5,0 Q 16,21 16,20.5 L 16,20 16,19.5 Q 16,19 15.5,19 l -0.5,0 0,-0.5 0,-0.5 0,-0.5 0,-0.5 0.5,0 Q 16,17 16,16.5 l 0,-0.5 0,-0.5 0,-0.5 0.5,0 Q 17,15 17,14.5 l 0,-0.5 0.5,0 0.5,0 0.5,0 Q 19,14 19,13.5 l 0,-0.5 0.5,0 0.5,0 0.5,0 Q 21,13 21,12.5 L 21,12 21.125,11.625 Q 21.25,11.25 20.953125,10.984375 l -0.296875,-0.265625 -0.04687,0.04687 -0.04687,0.04687 0.09375,-0.09375 Q 20.75,10.625 20.75,10.5 l 0,-0.125 0,0.1875 0,0.1875 0,-0.25 0,-0.25 0,0.1875 0,0.1875 0,-0.125 q 0,-0.125 -0.09375,-0.21875 l -0.09375,-0.09375 0.04687,0.04687 0.04687,0.04687 0.296875,-0.265625 Q 21.25,9.75 21.125,9.375 L 21,9 21,8.5 21,8 21,7.5 Q 21,7 21,6.5 L 21,6 21,5.5 21,5 21,4.5 21,4 21,3.5 Q 21,3 20.625,2.875 20.25,2.75 20.125,2.375 L 20,2 20.5,2 Q 21,2 21,1.5 21,1 20.625,1.125 20.25,1.25 19.96875,0.96875 L 19.6875,0.6875 19.625,0.75 19.5625,0.8125 19.6875,0.6875 Q 19.8125,0.5625 19.875,0.375 L 19.9375,0.1875 19.84375,0.46875 19.75,0.75 19.875,0.375"
         id="path14765"
         inkscape:connector-curvature="0" />
      <path
         style="fill:#000000;fill-opacity:0.01176471"
         d="M 3,1.5 Q 3,1 3.5,1 L 4,1 4,1.5 Q 4,2 3.5,2 3,2 3,1.5"
         id="path14767"
         inkscape:connector-curvature="0" />
      <path
         style="fill:#000000;fill-opacity:0.12156863"
         d="M 5,1.5 5,1 5.5,1 6,1 6,1.5 6,2 5.5,2 5,2 5,1.5"
         id="path14769"
         inkscape:connector-curvature="0" />
      <path
         style="fill:#000000;fill-opacity:0.85098039"
         d="M 6,1.5 6,1 6.5,1 7,1 6.875,1.375 Q 6.75,1.75 6.375,1.875 L 6,2 6,1.5"
         id="path14771"
         inkscape:connector-curvature="0" />
      <path
         style="fill:#040201;fill-opacity:1"
         d="M 6.875,1.375 7,1 7.5,1 8,1 8,1.5 8,2 7.625,2.125 7.25,2.25 7.53125,2.15625 7.8125,2.0625 7.625,2.125 Q 7.4375,2.1875 7.3125,2.3125 L 7.1875,2.4375 7.25,2.375 7.3125,2.3125 7,2 6.6875,1.6875 6.625,1.75 6.5625,1.8125 6.6875,1.6875 Q 6.8125,1.5625 6.875,1.375 L 6.9375,1.1875 6.84375,1.46875 6.75,1.75 6.875,1.375"
         id="path14773"
         inkscape:connector-curvature="0" />
      <path
         style="fill:#030101;fill-opacity:1"
         d="M 8,1.5 8,1 8.5,1 9,1 9,1.5 9,2 8.5,2 8,2 8,1.5"
         id="path14775"
         inkscape:connector-curvature="0" />
      <path
         style="fill:#070302;fill-opacity:0.99607843"
         d="M 9,1.5 9,1 9.5,1 10,1 10,1.5 10,2 9.5,2 9,2 9,1.5"
         id="path14777"
         inkscape:connector-curvature="0" />
      <path
         style="fill:#020101;fill-opacity:0.99607843"
         d="M 10,1.5 10,1 10.375,0.875 10.75,0.75 10.46875,0.84375 10.1875,0.9375 10.375,0.875 Q 10.5625,0.8125 10.6875,0.6875 L 10.8125,0.5625 10.75,0.625 10.6875,0.6875 11,1 11.3125,1.3125 11.375,1.25 11.4375,1.1875 11.3125,1.3125 Q 11.1875,1.4375 11.125,1.625 L 11.0625,1.8125 11.15625,1.53125 11.25,1.25 11.125,1.625 11,2 10.5,2 10,2 10,1.5"
         id="path14779"
         inkscape:connector-curvature="0" />
      <path
         style="fill:#010000;fill-opacity:0.99607843"
         d="m 11.125,1.625 q 0.125,-0.375 0.5,-0.5 L 12,1 12,1.5 12,2 11.5,2 11,2 11.125,1.625"
         id="path14781"
         inkscape:connector-curvature="0" />
      <path
         style="fill:#010000;fill-opacity:0.95294118"
         d="M 12,1.5 12,1 12.5,1 13,1 13,1.5 13,2 12.5,2 12,2 12,1.5 M 12.625,2 13,2 13.125,2 13.25,2 13,2 q -0.25,0 -0.5,0 l -0.25,0 0.375,0"
         id="path14783"
         inkscape:connector-curvature="0" />
      <path
         style="fill:#000000;fill-opacity:0.89411765"
         d="M 13,1.5 13,1 13.5,1 14,1 13.9375,1.5625 13.875,2.125 13.9375,2.1875 14,2.25 13.875,2.125 Q 13.75,2 13.5,2 L 13.25,2 13.625,2 14,2 13.5,2 13,2 13,1.5 M 12.875,2 13,2 13.375,2 13.75,2 13.5,2 Q 13.25,2 13,2 l -0.25,0 0.125,0"
         id="path14785"
         inkscape:connector-curvature="0" />
      <path
         style="fill:#000000;fill-opacity:0.49803922"
         d="M 13.9375,1.5625 14,1 14.5,1 15,1 15.125,1.375 15.25,1.75 15.15625,1.46875 15.0625,1.1875 15.125,1.375 q 0.0625,0.1875 0.1875,0.3125 l 0.125,0.125 L 15.375,1.75 15.3125,1.6875 15,2 14.6875,2.3125 14.75,2.375 14.8125,2.4375 14.6875,2.3125 Q 14.5625,2.1875 14.375,2.125 L 14.1875,2.0625 14.46875,2.15625 14.75,2.25 14.3125,2.1875 13.875,2.125 13.9375,1.5625"
         id="path14787"
         inkscape:connector-curvature="0" />
      <path
         style="fill:#000000;fill-opacity:0.01176471"
         d="M 15.125,1.375 15,1 15.5,1 Q 16,1 16,1.5 L 16,2 15.625,1.875 q -0.375,-0.125 -0.5,-0.5"
         id="path14789"
         inkscape:connector-curvature="0" />
      <path
         style="fill:#000000;fill-opacity:0.00392157"
         d="M 19,1.5 19,1 19.375,0.875 19.75,0.75 19.46875,0.84375 19.1875,0.9375 19.375,0.875 Q 19.5625,0.8125 19.6875,0.6875 L 19.8125,0.5625 19.75,0.625 19.6875,0.6875 19.96875,0.96875 Q 20.25,1.25 20.625,1.125 21,1 21,1.5 21,2 20.5,2 L 20,2 19.5,2 19,2 19,1.5"
         id="path14791"
         inkscape:connector-curvature="0" />
      <path
         style="fill:#000000;fill-opacity:0.00784314"
         d="M 1,2.5 Q 1,2 1.5,2 2,2 2,2.5 2,3 1.5,3 1,3 1,2.5"
         id="path14793"
         inkscape:connector-curvature="0" />
      <path
         style="fill:#020000;fill-opacity:0.84313725"
         d="M 5,2.5 5,2 5.5,2 6,2 5.875,2.375 Q 5.75,2.75 5.375,2.875 L 5,3 5,2.5"
         id="path14795"
         inkscape:connector-curvature="0" />
      <path
         style="fill:#030201;fill-opacity:1"
         d="M 5.875,2.375 6,2 6.375,1.875 6.75,1.75 6.46875,1.84375 6.1875,1.9375 6.375,1.875 Q 6.5625,1.8125 6.6875,1.6875 L 6.8125,1.5625 6.75,1.625 6.6875,1.6875 7,2 7.3125,2.3125 7.375,2.25 7.4375,2.1875 7.3125,2.3125 Q 7.1875,2.4375 7.125,2.625 L 7.0625,2.8125 7.15625,2.53125 7.25,2.25 7.125,2.625 7,3 6.625,3.125 6.25,3.25 6.53125,3.15625 6.8125,3.0625 6.625,3.125 Q 6.4375,3.1875 6.3125,3.3125 L 6.1875,3.4375 6.25,3.375 6.3125,3.3125 6,3 5.6875,2.6875 5.625,2.75 5.5625,2.8125 5.6875,2.6875 Q 5.8125,2.5625 5.875,2.375 L 5.9375,2.1875 5.84375,2.46875 5.75,2.75 5.875,2.375"
         id="path14797"
         inkscape:connector-curvature="0" />
      <path
         style="fill:#fdb831;fill-opacity:1"
         d="M 7.125,2.625 Q 7.25,2.25 7.625,2.125 L 8,2 8,2.5 8,3 7.5,3 7,3 7.125,2.625"
         id="path14799"
         inkscape:connector-curvature="0" />
      <path
         style="fill:#ffc435;fill-opacity:1"
         d="M 8,2.5 8,2 8.5,2 9,2 9.5,2 10,2 10,2.5 10,3 9.5,3 9,3 8.5,3 8,3 8,2.5"
         id="path14801"
         inkscape:connector-curvature="0" />
      <path
         style="fill:#ffc535;fill-opacity:1"
         d="M 10,2.5 10,2 10.5,2 11,2 11,2.5 11,3 10.5,3 10,3 10,2.5"
         id="path14803"
         inkscape:connector-curvature="0" />
      <path
         style="fill:#fec033;fill-opacity:1"
         d="M 11,2.5 11,2 11.5,2 12,2 12.5,2 13,2 13,2.5 13,3 12.5,3 12,3 11.5,3 11,3 11,2.5 M 13.125,2 13,2 12.625,2 12.25,2 12.5,2 q 0.25,0 0.5,0 l 0.25,0 -0.125,0"
         id="path14805"
         inkscape:connector-curvature="0" />
      <path
         style="fill:#f8a92c;fill-opacity:1"
         d="M 13,2.5 13,2 13.5,2 Q 14,2 14,2.5 L 14,3 13.5,3 13,3 13,2.5 M 13.375,2 13,2 12.875,2 12.75,2 13,2 q 0.25,0 0.5,0 l 0.25,0 -0.375,0"
         id="path14807"
         inkscape:connector-curvature="0" />
      <path
         style="fill:#200501;fill-opacity:1"
         d="M 14,2.5 14,2 14,2.375 14,2.75 14,2.5 Q 14,2.25 13.875,2.125 L 13.75,2 13.8125,2.0625 13.875,2.125 14.3125,2.1875 Q 14.75,2.25 14.875,2.625 L 15,3 14.5,3 14,3 14,2.5"
         id="path14809"
         inkscape:connector-curvature="0" />
      <path
         style="fill:#000000;fill-opacity:0.9372549"
         d="M 14.875,2.625 14.75,2.25 14.84375,2.53125 14.9375,2.8125 14.875,2.625 Q 14.8125,2.4375 14.6875,2.3125 L 14.5625,2.1875 14.625,2.25 14.6875,2.3125 15,2 15.3125,1.6875 15.25,1.625 15.1875,1.5625 l 0.125,0.125 q 0.125,0.125 0.3125,0.1875 L 15.8125,1.9375 15.53125,1.84375 15.25,1.75 15.625,1.875 16,2 16,2.5 16,3 15.5,3 15,3 14.875,2.625"
         id="path14811"
         inkscape:connector-curvature="0" />
      <path
         style="fill:#000000;fill-opacity:0.16078431"
         d="M 16,2.5 16,2 16.375,1.875 Q 16.75,1.75 17.03125,2.03125 L 17.3125,2.3125 17.34375,2.28125 17.375,2.25 17.3125,2.3125 Q 17.25,2.375 17.25,2.5 l 0,0.125 0,-0.1875 0,-0.1875 0,0.25 0,0.25 0,-0.1875 0,-0.1875 0,0.125 q 0,0.125 0.09375,0.21875 L 17.4375,2.8125 17.390625,2.765625 17.34375,2.71875 17.015625,3.015625 16.6875,3.3125 16.75,3.375 16.8125,3.4375 16.6875,3.3125 Q 16.5625,3.1875 16.375,3.125 L 16.1875,3.0625 16.46875,3.15625 16.75,3.25 16.375,3.125 16,3 16,2.5"
         id="path14813"
         inkscape:connector-curvature="0" />
      <path
         style="fill:#110000;fill-opacity:0.11764706"
         d="m 17.25,2.5 q 0,-0.25 0.25,-0.25 0.25,0 0.375,0.375 L 18,3 17.625,2.875 Q 17.25,2.75 17.25,2.5"
         id="path14815"
         inkscape:connector-curvature="0" />
      <path
         style="fill:#090000;fill-opacity:0.11372549"
         d="M 17.875,2.625 17.75,2.25 17.84375,2.53125 17.9375,2.8125 17.875,2.625 Q 17.8125,2.4375 17.71875,2.34375 L 17.625,2.25 17.671875,2.296875 17.71875,2.34375 17.984375,2.046875 Q 18.25,1.75 18.625,1.875 L 19,2 18.875,2.375 q -0.125,0.375 -0.5,0.5 L 18,3 17.875,2.625"
         id="path14817"
         inkscape:connector-curvature="0" />
      <path
         style="fill:#000000;fill-opacity:0.01568627"
         d="M 18.875,2.375 19,2 19.5,2 20,2 20.125,2.375 20.25,2.75 20.15625,2.46875 20.0625,2.1875 20.125,2.375 q 0.0625,0.1875 0.1875,0.3125 l 0.125,0.125 L 20.375,2.75 20.3125,2.6875 20.015625,3.015625 19.71875,3.34375 19.765625,3.390625 19.8125,3.4375 19.71875,3.34375 Q 19.625,3.25 19.5,3.25 l -0.125,0 0.1875,0 0.1875,0 -0.25,0 -0.25,0 0.1875,0 0.1875,0 -0.125,0 q -0.125,0 -0.21875,0.09375 L 19.1875,3.4375 19.234375,3.390625 19.28125,3.34375 18.984375,3.015625 18.6875,2.6875 18.625,2.75 18.5625,2.8125 18.6875,2.6875 Q 18.8125,2.5625 18.875,2.375 L 18.9375,2.1875 18.84375,2.46875 18.75,2.75 18.875,2.375"
         id="path14819"
         inkscape:connector-curvature="0" />
      <path
         style="fill:#000000;fill-opacity:0.00392157"
         d="M 3,3.5 Q 3,3 3.5,3 4,3 4,3.5 L 4,4 3.5,4 3,4 3,3.5"
         id="path14821"
         inkscape:connector-curvature="0" />
      <path
         style="fill:#020100;fill-opacity:0.96862745"
         d="M 5,3.5 5,3 5.375,2.875 5.75,2.75 5.46875,2.84375 5.1875,2.9375 5.375,2.875 Q 5.5625,2.8125 5.6875,2.6875 L 5.8125,2.5625 5.75,2.625 5.6875,2.6875 6,3 6.3125,3.3125 6.375,3.25 6.4375,3.1875 6.3125,3.3125 Q 6.1875,3.4375 6.125,3.625 L 6.0625,3.8125 6.15625,3.53125 6.25,3.25 6.125,3.625 6,4 5.5,4 5,4 5,3.5"
         id="path14823"
         inkscape:connector-curvature="0" />
      <path
         style="fill:#b00506;fill-opacity:1"
         d="M 6.125,3.625 Q 6.25,3.25 6.625,3.125 L 7,3 7,3.5 7,4 6.515625,4.015625 6.03125,4.03125 6.015625,4.140625 6,4.25 6.03125,4.03125 Q 6.0625,3.8125 6.125,3.625 L 6.1875,3.4375 6.09375,3.71875 6,4 6.125,3.625"
         id="path14825"
         inkscape:connector-curvature="0" />
      <path
         style="fill:#f52004;fill-opacity:1"
         d="M 7,3.5 7,3 7.5,3 8,3 8,3.5 8,4 7.5,4 7,4 7,3.5"
         id="path14827"
         inkscape:connector-curvature="0" />
      <path
         style="fill:#fa2606;fill-opacity:1"
         d="M 8,3.5 8,3 8.5,3 9,3 9.125,3.375 9.25,3.75 9.15625,3.46875 9.0625,3.1875 9.125,3.375 Q 9.1875,3.5625 9.28125,3.65625 L 9.375,3.75 9.328125,3.703125 9.28125,3.65625 8.984375,3.984375 8.6875,4.3125 8.75,4.375 8.8125,4.4375 8.6875,4.3125 Q 8.5625,4.1875 8.375,4.125 L 8.1875,4.0625 8.46875,4.15625 8.75,4.25 8.375,4.125 8,4 8,3.5"
         id="path14829"
         inkscape:connector-curvature="0" />
      <path
         style="fill:#fa2906;fill-opacity:1"
         d="M 9.125,3.375 9,3 9.5,3 10,3 9.875,3.375 Q 9.75,3.75 9.5,3.75 9.25,3.75 9.125,3.375"
         id="path14831"
         inkscape:connector-curvature="0" />
      <path
         style="fill:#fa2606;fill-opacity:1"
         d="M 9.875,3.375 10,3 10.5,3 11,3 11.015625,3.515625 11.03125,4.03125 11.140625,4.015625 11.25,4 11.03125,4.03125 Q 10.8125,4.0625 10.625,4.125 L 10.4375,4.1875 10.71875,4.09375 11,4 10.625,4.125 10.25,4.25 10.53125,4.15625 10.8125,4.0625 10.625,4.125 Q 10.4375,4.1875 10.28125,4.28125 L 10.125,4.375 10.203125,4.328125 10.28125,4.28125 10,3.96875 9.71875,3.65625 9.671875,3.703125 9.625,3.75 9.71875,3.65625 Q 9.8125,3.5625 9.875,3.375 L 9.9375,3.1875 9.84375,3.46875 9.75,3.75 9.875,3.375 M 11.125,3 11,3 10.625,3 10.25,3 10.5,3 q 0.25,0 0.5,0 l 0.25,0 -0.125,0"
         id="path14833"
         inkscape:connector-curvature="0" />
      <path
         style="fill:#fa3f0d;fill-opacity:1"
         d="M 11.015625,3.515625 11,3 11.5,3 12,3 12,3.5 12,4 11.5,4 11,4 11.375,4 11.75,4 11.5,4 Q 11.25,4 11.03125,4.03125 L 10.8125,4.0625 10.921875,4.046875 11.03125,4.03125 11.015625,3.515625 M 11.375,3 11,3 10.875,3 10.75,3 11,3 q 0.25,0 0.5,0 l 0.25,0 -0.375,0"
         id="path14835"
         inkscape:connector-curvature="0" />
      <path
         style="fill:#fb470f;fill-opacity:1"
         d="M 12,3.5 12,3 12.5,3 13,3 12.984375,3.484375 12.96875,3.96875 13.078125,3.953125 13.1875,3.9375 12.96875,3.96875 Q 12.75,4 12.5,4 L 12.25,4 12.625,4 13,4 12.5,4 12,4 12,3.5"
         id="path14837"
         inkscape:connector-curvature="0" />
      <path
         style="fill:#fa340a;fill-opacity:1"
         d="M 12.984375,3.484375 13,3 13.5,3 14,3 13.875,3.375 q -0.125,0.375 -0.5,0.5 L 13,4 13.28125,3.90625 13.5625,3.8125 13.375,3.875 Q 13.1875,3.9375 12.96875,3.96875 L 12.75,4 12.859375,3.984375 12.96875,3.96875 12.984375,3.484375"
         id="path14839"
         inkscape:connector-curvature="0" />
      <path
         style="fill:#f81500;fill-opacity:1"
         d="M 13.875,3.375 14,3 14.5,3 15,3 15.125,3.375 15.25,3.75 15.15625,3.46875 15.0625,3.1875 15.125,3.375 q 0.0625,0.1875 0.1875,0.3125 l 0.125,0.125 L 15.375,3.75 15.3125,3.6875 15.03125,3.96875 Q 14.75,4.25 14.5,4.25 14.25,4.25 13.96875,3.96875 L 13.6875,3.6875 13.625,3.75 13.5625,3.8125 13.6875,3.6875 Q 13.8125,3.5625 13.875,3.375 L 13.9375,3.1875 13.84375,3.46875 13.75,3.75 13.875,3.375"
         id="path14841"
         inkscape:connector-curvature="0" />
      <path
         style="fill:#6e0900;fill-opacity:1"
         d="M 15.125,3.375 15,3 15.5,3 16,3 15.625,3 15.25,3 15.5,3 q 0.25,0 0.46875,0.03125 L 16.1875,3.0625 16.078125,3.046875 15.96875,3.03125 16,3.5 16.03125,3.96875 16.140625,3.984375 16.25,4 16.03125,3.96875 Q 15.8125,3.9375 15.625,3.875 L 15.4375,3.8125 15.71875,3.90625 16,4 15.625,3.875 q -0.375,-0.125 -0.5,-0.5"
         id="path14843"
         inkscape:connector-curvature="0" />
      <path
         style="fill:#460600;fill-opacity:1"
         d="M 16,3.5 15.96875,3.03125 15.859375,3.015625 15.75,3 15.96875,3.03125 Q 16.1875,3.0625 16.375,3.125 L 16.5625,3.1875 16.28125,3.09375 16,3 16.375,3.125 q 0.375,0.125 0.5,0.5 L 17,4 16.5,4 16,4 16.375,4 16.75,4 16.5,4 Q 16.25,4 16.03125,3.96875 L 15.8125,3.9375 15.921875,3.953125 16.03125,3.96875 16,3.5 M 16.625,4 17,4 17.125,4 17.25,4 17,4 q -0.25,0 -0.5,0 l -0.25,0 0.375,0"
         id="path14845"
         inkscape:connector-curvature="0" />
      <path
         style="fill:#0e0100;fill-opacity:1"
         d="M 16.875,3.625 16.75,3.25 16.84375,3.53125 16.9375,3.8125 16.875,3.625 Q 16.8125,3.4375 16.6875,3.3125 L 16.5625,3.1875 16.625,3.25 16.6875,3.3125 17.015625,3.015625 17.34375,2.71875 17.296875,2.671875 17.25,2.625 17.34375,2.71875 Q 17.4375,2.8125 17.625,2.875 L 17.8125,2.9375 17.53125,2.84375 17.25,2.75 17.625,2.875 18,3 18,3.5 18,4 17.5,4 17,4 16.875,3.625 M 16.875,4 17,4 17.375,4 17.75,4 17.5,4 Q 17.25,4 17,4 l -0.25,0 0.125,0"
         id="path14847"
         inkscape:connector-curvature="0" />
      <path
         style="fill:#060000;fill-opacity:1"
         d="M 18,3.5 18,3 18.375,2.875 18.75,2.75 18.46875,2.84375 18.1875,2.9375 18.375,2.875 Q 18.5625,2.8125 18.6875,2.6875 L 18.8125,2.5625 18.75,2.625 18.6875,2.6875 18.984375,3.015625 19.28125,3.34375 19.328125,3.296875 19.375,3.25 19.28125,3.34375 Q 19.1875,3.4375 19.125,3.625 L 19.0625,3.8125 19.15625,3.53125 19.25,3.25 19.125,3.625 19,4 18.5,4 18,4 18,3.5 M 18.625,4 19,4 19.125,4 19.25,4 19,4 q -0.25,0 -0.5,0 l -0.25,0 0.375,0"
         id="path14849"
         inkscape:connector-curvature="0" />
      <path
         style="fill:#2a0300;fill-opacity:1"
         d="M 19.125,3.625 Q 19.25,3.25 19.5,3.25 q 0.25,0 0.375,0.375 L 20,4 19.90625,3.71875 19.8125,3.4375 19.875,3.625 q 0.0625,0.1875 0.09375,0.40625 L 20,4.25 19.984375,4.140625 19.96875,4.03125 19.484375,4.015625 19,4 19.125,3.625 M 18.875,4 19,4 19.375,4 19.75,4 19.5,4 Q 19.25,4 19,4 l -0.25,0 0.125,0"
         id="path14851"
         inkscape:connector-curvature="0" />
      <path
         style="fill:#0c0803;fill-opacity:0.65098039"
         d="M 19.875,3.625 19.75,3.25 19.84375,3.53125 19.9375,3.8125 19.875,3.625 Q 19.8125,3.4375 19.71875,3.34375 L 19.625,3.25 19.671875,3.296875 19.71875,3.34375 20.015625,3.015625 20.3125,2.6875 20.25,2.625 20.1875,2.5625 l 0.125,0.125 q 0.125,0.125 0.3125,0.1875 L 20.8125,2.9375 20.53125,2.84375 20.25,2.75 20.625,2.875 Q 21,3 21,3.5 L 21,4 20.5,4 20,4 19.875,3.625"
         id="path14853"
         inkscape:connector-curvature="0" />
      <path
         style="fill:#0b0000;fill-opacity:0.09019608"
         d="M 3,4.5 3,4 3.5,4 4,4 4,4.5 4,5 3.5,5 3,5 3,4.5"
         id="path14855"
         inkscape:connector-curvature="0" />
      <path
         style="fill:#020100;fill-opacity:0.91372549"
         d="M 4,4.5 4,4 4.5,4 5,4 4.875,4.375 Q 4.75,4.75 4.375,4.875 L 4,5 4,4.5"
         id="path14857"
         inkscape:connector-curvature="0" />
      <path
         style="fill:#000000;fill-opacity:0.99607843"
         d="M 4.875,4.375 5,4 5.5,4 6,4 6,4.5 6,5 5.625,5.125 5.25,5.25 5.53125,5.15625 5.8125,5.0625 5.625,5.125 Q 5.4375,5.1875 5.3125,5.3125 L 5.1875,5.4375 5.25,5.375 5.3125,5.3125 5,5 4.6875,4.6875 4.625,4.75 4.5625,4.8125 4.6875,4.6875 Q 4.8125,4.5625 4.875,4.375 L 4.9375,4.1875 4.84375,4.46875 4.75,4.75 4.875,4.375"
         id="path14859"
         inkscape:connector-curvature="0" />
      <path
         style="fill:#480600;fill-opacity:1"
         d="M 6,4.5 6,4 6,4.375 6,4.75 6,4.5 Q 6,4.25 6.03125,4.03125 L 6.0625,3.8125 6.046875,3.921875 6.03125,4.03125 6.515625,4.015625 7,4 7,4.5 7,5 6.5,5 6,5 6,4.5"
         id="path14861"
         inkscape:connector-curvature="0" />
      <path
         style="fill:#d71100;fill-opacity:1"
         d="M 7,4.5 7,4 7.5,4 8,4 8.375,4.125 Q 8.75,4.25 8.859375,4.609375 L 8.96875,4.96875 9.078125,4.953125 9.1875,4.9375 8.96875,4.96875 Q 8.75,5 8.5,5 L 8.25,5 8.625,5 9,5 8.5,5 8,5 7.5,5 7,5 7,4.5"
         id="path14863"
         inkscape:connector-curvature="0" />
      <path
         style="fill:#e81300;fill-opacity:1"
         d="M 8.859375,4.609375 8.75,4.25 8.84375,4.53125 8.9375,4.8125 8.875,4.625 Q 8.8125,4.4375 8.6875,4.3125 L 8.5625,4.1875 8.625,4.25 8.6875,4.3125 8.984375,3.984375 9.28125,3.65625 9.234375,3.609375 9.1875,3.5625 9.28125,3.65625 Q 9.375,3.75 9.5,3.75 l 0.125,0 -0.1875,0 -0.1875,0 0.25,0 0.25,0 -0.1875,0 -0.1875,0 0.125,0 q 0.125,0 0.21875,-0.09375 L 9.8125,3.5625 9.765625,3.609375 9.71875,3.65625 10,3.96875 10.28125,4.28125 10.359375,4.234375 10.4375,4.1875 10.28125,4.28125 Q 10.125,4.375 10,4.5 L 9.875,4.625 10.0625,4.4375 10.25,4.25 10,4.5 Q 9.75,4.75 9.375,4.875 L 9,5 9.28125,4.90625 9.5625,4.8125 9.375,4.875 Q 9.1875,4.9375 8.96875,4.96875 L 8.75,5 8.859375,4.984375 8.96875,4.96875 8.859375,4.609375"
         id="path14865"
         inkscape:connector-curvature="0" />
      <path
         style="fill:#f91400;fill-opacity:1"
         d="M 10,4.5 Q 10.25,4.25 10.625,4.125 11,4 11.5,4 L 12,4 12.5,4 Q 13,4 13.375,3.875 L 13.75,3.75 13.46875,3.84375 13.1875,3.9375 13.375,3.875 Q 13.5625,3.8125 13.6875,3.6875 L 13.8125,3.5625 13.75,3.625 13.6875,3.6875 13.96875,3.96875 Q 14.25,4.25 14.5,4.25 q 0.25,0 0.53125,-0.28125 L 15.3125,3.6875 15.25,3.625 15.1875,3.5625 l 0.125,0.125 q 0.125,0.125 0.3125,0.1875 L 15.8125,3.9375 15.53125,3.84375 15.25,3.75 15.625,3.875 Q 16,4 16.5,4 17,4 17.5,4 L 18,4 18,4.5 Q 18,5 18.5,5 L 19,5 19,5.5 Q 19,6 19.5,6 l 0.5,0 0,0.5 q 0,0.5 0,1 L 20,8 20,8.5 20,9 20,9.5 20,10 19.5,10 19,10 19,9.5 Q 19,9 18.625,8.875 18.25,8.75 18.125,8.375 18,8 17.5,8 17,8 16.875,8.375 16.75,8.75 17.015625,9.046875 L 17.28125,9.34375 17.328125,9.296875 17.375,9.25 17.28125,9.34375 Q 17.1875,9.4375 17.125,9.625 L 17.0625,9.8125 17.15625,9.53125 17.25,9.25 17.125,9.625 17,10 16.5,10 Q 16,10 15.625,10.125 L 15.25,10.25 15.53125,10.15625 15.8125,10.0625 15.625,10.125 q -0.1875,0.0625 -0.3125,0.1875 l -0.125,0.125 0.0625,-0.0625 0.0625,-0.0625 -0.28125,-0.28125 Q 14.75,9.75 14.375,9.875 14,10 13.875,10.375 q -0.125,0.375 -0.5,0.5 -0.375,0.125 -0.5,0.5 -0.125,0.375 0.140625,0.640625 L 13.28125,12.28125 13.32812,12.20312 13.375,12.125 13.28125,12.28125 Q 13.1875,12.4375 13.125,12.625 L 13.0625,12.8125 13.15625,12.53125 13.25,12.25 13.125,12.625 13,13 12.5,13 q -0.5,0 -0.625,0.375 -0.125,0.375 0.15625,0.65625 l 0.28125,0.28125 0.0625,-0.0625 0.0625,-0.0625 -0.125,0.125 q -0.125,0.125 -0.1875,0.3125 L 12.0625,14.8125 12.15625,14.53125 12.25,14.25 12.125,14.625 Q 12,15 12,15.5 12,16 12.125,16.375 L 12.25,16.75 12.15625,16.46875 12.0625,16.1875 12.125,16.375 q 0.0625,0.1875 0.1875,0.3125 l 0.125,0.125 -0.0625,-0.0625 -0.0625,-0.0625 -0.296875,0.296875 -0.296875,0.296875 0.04687,0.07813 0.04687,0.07813 -0.09375,-0.15625 Q 11.625,17.125 11.5,17 L 11.375,16.875 11.5625,17.0625 11.75,17.25 11.5,17 q -0.25,-0.25 -0.53125,0.03125 l -0.28125,0.28125 0.0625,0.0625 0.0625,0.0625 -0.125,-0.125 Q 10.5625,17.1875 10.375,17.125 L 10.1875,17.0625 10.46875,17.15625 10.75,17.25 10.375,17.125 10,17 10,16.5 q 0,-0.5 0,-1 0,-0.5 0,-1 L 10,14 10,13.5 Q 10,13 9.875,12.625 9.75,12.25 9.375,12.125 9,12 8.5,12 L 8,12 7.5,12 7,12 6.5,12 6,12 6,11.5 6,11 6.5,11 Q 7,11 7.375,10.875 7.75,10.75 7.75,10.5 7.75,10.25 7.5,10 7.25,9.75 7.25,9.5 7.25,9.25 6.96875,8.96875 L 6.6875,8.6875 6.625,8.75 6.5625,8.8125 6.6875,8.6875 Q 6.8125,8.5625 6.875,8.375 L 6.9375,8.1875 6.84375,8.46875 6.75,8.75 6.875,8.375 7,8 7.5,8 Q 8,8 8.375,7.875 8.75,7.75 8.75,7.5 8.75,7.25 8.5,7 8.25,6.75 8.125,6.375 L 8,6 8,5.5 8,5 8.5,5 Q 9,5 9.375,4.875 9.75,4.75 10,4.5 m 0,12.125 0,0.375 0,0.125 0,0.125 0,-0.25 q 0,-0.25 0,-0.5 l 0,-0.25 0,0.375 M 12.5,6 Q 13,6 13,5.5 13,5 12.5,5 L 12,5 11.5,5 Q 11,5 11,5.5 11,6 11.5,6 l 0.5,0 0.5,0 m 3,0 Q 16,6 16,5.5 16,5 15.5,5 15,5 15,5.5 15,6 15.5,6 m 1.125,4 0.375,0 0.125,0 0.125,0 -0.25,0 q -0.25,0 -0.5,0 l -0.25,0 0.375,0"
         id="path14867"
         inkscape:connector-curvature="0" />
      <path
         style="fill:#f81500;fill-opacity:1"
         d="M 18,4.5 18,4 18.5,4 19,4 19,4.5 19,5 18.5,5 Q 18,5 18,4.5"
         id="path14869"
         inkscape:connector-curvature="0" />
      <path
         style="fill:#f81600;fill-opacity:1"
         d="M 19,4.5 19,4 19.484375,4.015625 19.96875,4.03125 19.953125,3.921875 19.9375,3.8125 19.96875,4.03125 Q 20,4.25 20,4.5 L 20,4.75 20,4.375 20,4 20,4.5 20,5 19.5,5 19,5 19,4.5"
         id="path14871"
         inkscape:connector-curvature="0" />
      <path
         style="fill:#050100;fill-opacity:0.99215686"
         d="M 20,4.5 20,4 20.5,4 21,4 21,4.5 21,5 20.5,5 20,5 20,4.5"
         id="path14873"
         inkscape:connector-curvature="0" />
      <path
         style="fill:#020200;fill-opacity:0.6"
         d="M 3,5.5 3,5 3.5,5 4,5 4,5.5 4,6 3.5,6 3,6 3,5.5"
         id="path14875"
         inkscape:connector-curvature="0" />
      <path
         style="fill:#020100;fill-opacity:1"
         d="M 4,5.5 4,5 4.375,4.875 4.75,4.75 4.46875,4.84375 4.1875,4.9375 4.375,4.875 Q 4.5625,4.8125 4.6875,4.6875 L 4.8125,4.5625 4.75,4.625 4.6875,4.6875 5,5 5.3125,5.3125 5.375,5.25 5.4375,5.1875 5.3125,5.3125 Q 5.1875,5.4375 5.125,5.625 L 5.0625,5.8125 5.15625,5.53125 5.25,5.25 5.125,5.625 5,6 4.5,6 4,6 4,5.5"
         id="path14877"
         inkscape:connector-curvature="0" />
      <path
         style="fill:#ec8021;fill-opacity:1"
         d="M 5.125,5.625 Q 5.25,5.25 5.625,5.125 L 6,5 6,5.5 6,6 5.515625,6.015625 5.03125,6.03125 5.015625,6.140625 5,6.25 5.03125,6.03125 Q 5.0625,5.8125 5.125,5.625 L 5.1875,5.4375 5.09375,5.71875 5,6 5.125,5.625"
         id="path14879"
         inkscape:connector-curvature="0" />
      <path
         style="fill:#fcb12f;fill-opacity:1"
         d="M 6,5.5 6,5 6.5,5 7,5 7,5.5 7,6 6.5,6 6,6 6,5.5 M 7,6.125 7,6 7,5.625 7,5.25 7,5.5 Q 7,5.75 7,6 L 7,6.25 7,6.125"
         id="path14881"
         inkscape:connector-curvature="0" />
      <path
         style="fill:#f51c02;fill-opacity:1"
         d="M 7,5.5 7,5 7.5,5 8,5 8,5.5 8,6 7.5,6 7,6 7,5.5"
         id="path14883"
         inkscape:connector-curvature="0" />
      <path
         style="fill:#f91601;fill-opacity:1"
         d="M 11,5.5 Q 11,5 11.5,5 L 12,5 12,5.5 12,6 11.5,6 Q 11,6 11,5.5"
         id="path14885"
         inkscape:connector-curvature="0" />
      <path
         style="fill:#f91801;fill-opacity:1"
         d="M 12,5.5 12,5 12.5,5 Q 13,5 13,5.5 13,6 12.5,6 L 12,6 12,5.5"
         id="path14887"
         inkscape:connector-curvature="0" />
      <path
         style="fill:#f81400;fill-opacity:1"
         d="M 15,5.5 Q 15,5 15.5,5 16,5 16,5.5 16,6 15.5,6 15,6 15,5.5"
         id="path14889"
         inkscape:connector-curvature="0" />
      <path
         style="fill:#fb1500;fill-opacity:1"
         d="M 19,5.5 19,5 19.5,5 20,5 20,5.5 20,6 19.5,6 Q 19,6 19,5.5"
         id="path14891"
         inkscape:connector-curvature="0" />
      <path
         style="fill:#0d0602;fill-opacity:0.99607843"
         d="M 20,5.5 20,5 20.5,5 21,5 21,5.5 21,6 20.5,6 20,6 20,5.5"
         id="path14893"
         inkscape:connector-curvature="0" />
      <path
         style="fill:#010000;fill-opacity:0.87843137"
         d="M 3,6.5 3,6 3.5,6 4,6 4,6.5 4,7 3.5,7 3,7 3,6.5"
         id="path14895"
         inkscape:connector-curvature="0" />
      <path
         style="fill:#010100;fill-opacity:1"
         d="M 4,6.5 4,6 4.5,6 5,6 5,6.5 5,7 4.5,7 4,7 4,6.5"
         id="path14897"
         inkscape:connector-curvature="0" />
      <path
         style="fill:#c43512;fill-opacity:1"
         d="M 5,6.5 5,6 5,6.375 5,6.75 5,6.5 Q 5,6.25 5.03125,6.03125 L 5.0625,5.8125 5.046875,5.921875 5.03125,6.03125 5.515625,6.015625 6,6 6,6.5 6,7 5.5,7 5,7 5,6.5 M 5,6.625 5,7 5,7.125 5,7.25 5,7 Q 5,6.75 5,6.5 L 5,6.25 5,6.625"
         id="path14899"
         inkscape:connector-curvature="0" />
      <path
         style="fill:#fb5814;fill-opacity:1"
         d="M 6,6.5 6,6 6.5,6 7,6 7,6.5 7,7 6.5,7 6,7 6,6.5 M 7,6.375 7,6 7,5.875 7,5.75 7,6 Q 7,6.25 7,6.5 L 7,6.75 7,6.375"
         id="path14901"
         inkscape:connector-curvature="0" />
      <path
         style="fill:#f91901;fill-opacity:1"
         d="M 7,6.5 7,6 7.5,6 8,6 8.125,6.375 8.25,6.75 8.15625,6.46875 8.0625,6.1875 8.125,6.375 Q 8.1875,6.5625 8.28125,6.71875 L 8.375,6.875 8.328125,6.796875 8.28125,6.71875 7.984375,7.015625 7.6875,7.3125 7.75,7.375 7.8125,7.4375 7.6875,7.3125 Q 7.5625,7.1875 7.375,7.125 L 7.1875,7.0625 7.46875,7.15625 7.75,7.25 7.375,7.125 7,7 7,6.5"
         id="path14903"
         inkscape:connector-curvature="0" />
      <path
         style="fill:#0b0803;fill-opacity:1"
         d="M 20,6.5 20,6 20.5,6 21,6 21,6.5 q 0,0.5 0,1 L 21,8 20.5,8 20,8 20,7.5 q 0,-0.5 0,-1"
         id="path14905"
         inkscape:connector-curvature="0" />
      <path
         style="fill:#000000;fill-opacity:1"
         d="M 3,7.5 3,7 3.5,7 4,7 4.5,7 5,7 5,7.5 5,8 4.625,8.125 Q 4.25,8.25 4.125,8.625 L 4,9 3.5,9 3,9 3,8.5 Q 3,8 3,7.5"
         id="path14907"
         inkscape:connector-curvature="0" />
      <path
         style="fill:#140200;fill-opacity:1"
         d="M 5,7.5 5,7 5.5,7 6,7 6,7.5 6,8 5.5,8 5,8 5,7.5 M 5,6.875 5,7 5,7.375 5,7.75 5,7.5 Q 5,7.25 5,7 L 5,6.75 5,6.875"
         id="path14909"
         inkscape:connector-curvature="0" />
      <path
         style="fill:#a80d00;fill-opacity:1"
         d="M 6,7.5 6,7 6.5,7 7,7 7,7.5 7,8 6.5,8 6,8 6,7.5"
         id="path14911"
         inkscape:connector-curvature="0" />
      <path
         style="fill:#d71100;fill-opacity:1"
         d="M 7,7.5 7,7 7.375,7.125 Q 7.75,7.25 7.859375,7.609375 L 7.96875,7.96875 8.078125,7.953125 8.1875,7.9375 7.96875,7.96875 Q 7.75,8 7.5,8 L 7.25,8 7.625,8 8,8 7.5,8 7,8 7,7.5"
         id="path14913"
         inkscape:connector-curvature="0" />
      <path
         style="fill:#e81300;fill-opacity:1"
         d="M 7.859375,7.609375 7.75,7.25 7.84375,7.53125 7.9375,7.8125 7.875,7.625 Q 7.8125,7.4375 7.6875,7.3125 L 7.5625,7.1875 7.625,7.25 7.6875,7.3125 7.984375,7.015625 8.28125,6.71875 8.234375,6.640625 8.1875,6.5625 8.28125,6.71875 Q 8.375,6.875 8.5,7 L 8.625,7.125 8.4375,6.9375 8.25,6.75 8.5,7 q 0.25,0.25 0.25,0.5 0,0.25 -0.375,0.375 L 8,8 8.28125,7.90625 8.5625,7.8125 8.375,7.875 Q 8.1875,7.9375 7.96875,7.96875 L 7.75,8 7.859375,7.984375 7.96875,7.96875 7.859375,7.609375"
         id="path14915"
         inkscape:connector-curvature="0" />
      <path
         style="fill:#c76e1c;fill-opacity:1"
         d="M 4.125,8.625 Q 4.25,8.25 4.625,8.125 L 5,8 5,8.5 5,9 4.515625,9.015625 4.03125,9.03125 4.015625,9.140625 4,9.25 4.03125,9.03125 Q 4.0625,8.8125 4.125,8.625 L 4.1875,8.4375 4.09375,8.71875 4,9 4.125,8.625"
         id="path14917"
         inkscape:connector-curvature="0" />
      <path
         style="fill:#fdb630;fill-opacity:1"
         d="M 5,8.5 5,8 5.5,8 6,8 6,8.5 6,9 5.5,9 5,9 5,8.5 M 6,9.125 6,9 6,8.625 6,8.25 6,8.5 Q 6,8.75 6,9 L 6,9.25 6,9.125"
         id="path14919"
         inkscape:connector-curvature="0" />
      <path
         style="fill:#f41f03;fill-opacity:1"
         d="M 6,8.5 6,8 6.5,8 7,8 6.875,8.375 Q 6.75,8.75 6.375,8.875 L 6,9 6,8.5"
         id="path14921"
         inkscape:connector-curvature="0" />
      <path
         style="fill:#f81400;fill-opacity:1"
         d="M 16.875,8.375 Q 17,8 17.5,8 18,8 18.125,8.375 L 18.25,8.75 18.15625,8.46875 18.0625,8.1875 18.125,8.375 q 0.0625,0.1875 0.1875,0.3125 l 0.125,0.125 L 18.375,8.75 18.3125,8.6875 18.015625,9.015625 17.71875,9.34375 17.765625,9.390625 17.8125,9.4375 17.71875,9.34375 Q 17.625,9.25 17.5,9.25 l -0.125,0 0.1875,0 0.1875,0 -0.25,0 -0.25,0 0.1875,0 0.1875,0 -0.125,0 q -0.125,0 -0.21875,0.09375 L 17.1875,9.4375 17.234375,9.390625 17.28125,9.34375 17.015625,9.046875 Q 16.75,8.75 16.875,8.375"
         id="path14923"
         inkscape:connector-curvature="0" />
      <path
         style="fill:#100603;fill-opacity:1"
         d="M 20,8.5 20,8 20.5,8 21,8 21,8.5 21,9 20.5,9 20,9 20,8.5"
         id="path14925"
         inkscape:connector-curvature="0" />
      <path
         style="fill:#000000;fill-opacity:0.00392157"
         d="M 2,9.5 Q 2,9 2.5,9 L 3,9 3,9.5 3,10 2.5,10 2,10 2,9.5"
         id="path14927"
         inkscape:connector-curvature="0" />
      <path
         style="fill:#000000;fill-opacity:0.99607843"
         d="M 3,9.5 3,9 3.5,9 4,9 4,9.5 q 0,0.5 0,1 L 4,11 3.625,11.125 3.25,11.25 3.53125,11.15625 3.8125,11.0625 3.625,11.125 Q 3.4375,11.1875 3.3125,11.3125 L 3.1875,11.4375 3.25,11.375 3.3125,11.3125 3,11 2.6875,10.6875 2.625,10.75 2.5625,10.8125 2.6875,10.6875 Q 2.8125,10.5625 2.875,10.375 L 2.9375,10.1875 2.84375,10.46875 2.75,10.75 2.875,10.375 3,10 3,9.5"
         id="path14929"
         inkscape:connector-curvature="0" />
      <path
         style="fill:#af4611;fill-opacity:1"
         d="M 4,9.5 4,9 4,9.375 4,9.75 4,9.5 Q 4,9.25 4.03125,9.03125 L 4.0625,8.8125 4.046875,8.921875 4.03125,9.03125 4.515625,9.015625 5,9 5,9.5 5,10 4.5,10 4,10 4,9.5 M 4,9.625 4,10 4,10.125 4,10.25 4,10 Q 4,9.75 4,9.5 L 4,9.25 4,9.625"
         id="path14931"
         inkscape:connector-curvature="0" />
      <path
         style="fill:#fb8221;fill-opacity:1"
         d="M 5,9.5 5,9 5.5,9 6,9 5.984375,9.515625 5.96875,10.03125 6.078125,10.046875 6.1875,10.0625 5.96875,10.03125 Q 5.75,10 5.5,10 L 5.25,10 5.625,10 6,10 5.5,10 5,10 5,9.5 M 6,9.375 6,9 6,8.875 6,8.75 6,9 Q 6,9.25 6,9.5 L 6,9.75 6,9.375"
         id="path14933"
         inkscape:connector-curvature="0" />
      <path
         style="fill:#f91d03;fill-opacity:1"
         d="M 5.984375,9.515625 6,9 6.375,8.875 6.75,8.75 6.46875,8.84375 6.1875,8.9375 6.375,8.875 Q 6.5625,8.8125 6.6875,8.6875 L 6.8125,8.5625 6.75,8.625 6.6875,8.6875 6.96875,8.96875 Q 7.25,9.25 7.25,9.5 l 0,0.25 0,-0.1875 0,-0.1875 0,0.125 q 0,0.125 0.0625,0.25 L 7.375,9.875 7.34375,9.8125 7.3125,9.75 7,10.03125 6.6875,10.3125 6.75,10.375 6.8125,10.4375 6.6875,10.3125 Q 6.5625,10.1875 6.375,10.125 L 6.1875,10.0625 6.46875,10.15625 6.75,10.25 6.375,10.125 6,10 6.28125,10.09375 6.5625,10.1875 6.375,10.125 Q 6.1875,10.0625 5.96875,10.03125 L 5.75,10 5.859375,10.015625 5.96875,10.03125 5.984375,9.515625"
         id="path14935"
         inkscape:connector-curvature="0" />
      <path
         style="fill:#ea1101;fill-opacity:1"
         d="M 17.125,9.625 Q 17.25,9.25 17.5,9.25 q 0.25,0 0.375,0.375 L 18,10 17.5,10 17,10 17.125,9.625 M 16.875,10 17,10 l 0.375,0 0.375,0 -0.25,0 q -0.25,0 -0.5,0 l -0.25,0 0.125,0"
         id="path14937"
         inkscape:connector-curvature="0" />
      <path
         style="fill:#f11201;fill-opacity:1"
         d="M 17.875,9.625 17.75,9.25 17.84375,9.53125 17.9375,9.8125 17.875,9.625 Q 17.8125,9.4375 17.71875,9.34375 L 17.625,9.25 17.671875,9.296875 17.71875,9.34375 18.015625,9.015625 18.3125,8.6875 18.25,8.625 18.1875,8.5625 l 0.125,0.125 q 0.125,0.125 0.3125,0.1875 L 18.8125,8.9375 18.53125,8.84375 18.25,8.75 18.625,8.875 Q 19,9 19,9.5 L 19,10 18.5,10 18,10 17.875,9.625"
         id="path14939"
         inkscape:connector-curvature="0" />
      <path
         style="fill:#050101;fill-opacity:1"
         d="M 20,9.5 20,9 20.5,9 21,9 21.125,9.375 Q 21.25,9.75 20.953125,10.015625 L 20.65625,10.28125 20.70312,10.32812 20.75,10.375 20.65625,10.28125 Q 20.5625,10.1875 20.375,10.125 L 20.1875,10.0625 20.46875,10.15625 20.75,10.25 20.375,10.125 20,10 20,9.5"
         id="path14941"
         inkscape:connector-curvature="0" />
      <path
         style="fill:#000000;fill-opacity:0.05882353"
         d="M 1,10.5 Q 1,10 1.5,10 L 2,10 2,10.5 2,11 1.5,11 1,11 1,10.5"
         id="path14943"
         inkscape:connector-curvature="0" />
      <path
         style="fill:#000000;fill-opacity:0.76078431"
         d="M 2,10.5 2,10 2.5,10 3,10 2.875,10.375 q -0.125,0.375 -0.5,0.5 L 2,11 2,10.5"
         id="path14945"
         inkscape:connector-curvature="0" />
      <path
         style="fill:#7f0a00;fill-opacity:1"
         d="M 4,10.5 4,10 4.5,10 5,10 5,10.5 5,11 4.5,11 4,11 4,10.5 M 4,9.875 4,10 4,10.375 4,10.75 4,10.5 Q 4,10.25 4,10 L 4,9.75 4,9.875"
         id="path14947"
         inkscape:connector-curvature="0" />
      <path
         style="fill:#a40d00;fill-opacity:1"
         d="M 5,10.5 5,10 5.5,10 6,10 6,10.5 6,11 5.5,11 5,11 5,10.5"
         id="path14949"
         inkscape:connector-curvature="0" />
      <path
         style="fill:#a80d00;fill-opacity:1"
         d="M 6,10.5 6,10 6.375,10.125 Q 6.75,10.25 6.859375,10.609375 L 6.96875,10.96875 7.078125,10.953125 7.1875,10.9375 6.96875,10.96875 Q 6.75,11 6.5,11 L 6.25,11 6.625,11 7,11 6.5,11 6,11 6,10.5"
         id="path14951"
         inkscape:connector-curvature="0" />
      <path
         style="fill:#e81300;fill-opacity:1"
         d="M 6.859375,10.609375 6.75,10.25 6.84375,10.53125 6.9375,10.8125 6.875,10.625 Q 6.8125,10.4375 6.6875,10.3125 L 6.5625,10.1875 6.625,10.25 6.6875,10.3125 7,10.03125 7.3125,9.75 7.28125,9.6875 7.25,9.625 7.3125,9.75 Q 7.375,9.875 7.5,10 L 7.625,10.125 7.4375,9.9375 7.25,9.75 7.5,10 q 0.25,0.25 0.25,0.5 0,0.25 -0.375,0.375 L 7,11 7.28125,10.90625 7.5625,10.8125 7.375,10.875 Q 7.1875,10.9375 6.96875,10.96875 L 6.75,11 6.859375,10.984375 6.96875,10.96875 6.859375,10.609375"
         id="path14953"
         inkscape:connector-curvature="0" />
      <path
         style="fill:#f71400;fill-opacity:1"
         d="M 13.875,10.375 Q 14,10 14.375,9.875 14.75,9.75 15.03125,10.03125 l 0.28125,0.28125 0.0625,-0.0625 0.0625,-0.0625 -0.125,0.125 q -0.125,0.125 -0.1875,0.3125 L 15.0625,10.8125 15.15625,10.53125 15.25,10.25 15.125,10.625 15,11 14.625,11.125 14.25,11.25 14.53125,11.15625 14.8125,11.0625 14.625,11.125 q -0.1875,0.0625 -0.34375,0.15625 L 14.125,11.375 14.203125,11.328125 14.28125,11.28125 13.984375,10.984375 13.6875,10.6875 13.625,10.75 l -0.0625,0.0625 0.125,-0.125 q 0.125,-0.125 0.1875,-0.3125 L 13.9375,10.1875 13.84375,10.46875 13.75,10.75 13.875,10.375 M 14.71875,11.09375 15,11 15.09375,10.96875 15.1875,10.9375 15,11 q -0.1875,0.0625 -0.375,0.125 l -0.1875,0.0625 0.28125,-0.09375"
         id="path14955"
         inkscape:connector-curvature="0" />
      <path
         style="fill:#cd0a04;fill-opacity:1"
         d="m 15.125,10.625 q 0.125,-0.375 0.5,-0.5 L 16,10 15.71875,10.09375 15.4375,10.1875 15.625,10.125 q 0.1875,-0.0625 0.40625,-0.09375 L 16.25,10 16.140625,10.01563 16.03125,10.03126 15.890625,10.390635 Q 15.75,10.75 15.375,10.875 L 15,11 15.125,10.625 M 14.90625,11.03125 15,11 15.28125,10.90625 15.5625,10.8125 15.375,10.875 Q 15.1875,10.9375 15,11 l -0.1875,0.0625 0.09375,-0.03125"
         id="path14957"
         inkscape:connector-curvature="0" />
      <path
         style="fill:#a70207;fill-opacity:1"
         d="M 15.890625,10.390625 16.03125,10.03125 15.921875,10.046875 15.8125,10.0625 16.03125,10.03125 Q 16.25,10 16.5,10 l 0.25,0 -0.375,0 -0.375,0 0.5,0 0.5,0 0,0.5 Q 17,11 16.625,11.125 16.25,11.25 15.96875,10.96875 L 15.6875,10.6875 15.625,10.75 l -0.0625,0.0625 0.125,-0.125 q 0.125,-0.125 0.1875,-0.3125 L 15.9375,10.1875 15.84375,10.46875 15.75,10.75 15.890625,10.390625"
         id="path14959"
         inkscape:connector-curvature="0" />
      <path
         style="fill:#a40107;fill-opacity:1"
         d="m 17,10.5 0,-0.5 0.5,0 0.5,0 0.5,0 0.5,0 -0.125,0.375 q -0.125,0.375 -0.5,0.5 Q 18,11 18,11.5 L 18,12 17.5,12 17,12 16.625,12.125 16.25,12.25 16.53125,12.15625 16.8125,12.0625 16.625,12.125 q -0.1875,0.0625 -0.34375,0.15625 L 16.125,12.375 16.20313,12.32813 16.28126,12.28126 16.015635,12.015635 Q 15.75,11.75 15.5,12 15.25,12.25 15,12.5 14.75,12.75 14.5,13 l -0.25,0.25 -0.265625,-0.265625 -0.265625,-0.265625 -0.07813,0.04687 -0.07813,0.04687 0.15625,-0.09375 Q 13.875,12.625 14,12.5 L 14.125,12.375 13.9375,12.5625 13.75,12.75 14,12.5 q 0.25,-0.25 0.5,-0.5 0.25,-0.25 0.375,-0.625 L 15,11 15.375,10.875 15.75,10.75 15.46875,10.84375 15.1875,10.9375 15.375,10.875 q 0.1875,-0.0625 0.3125,-0.1875 l 0.125,-0.125 -0.0625,0.0625 -0.0625,0.0625 0.28125,0.28125 Q 16.25,11.25 16.625,11.125 17,11 17,10.5 M 14.1875,13.3125 14.25,13.25 14.4375,13.0625 14.625,12.875 14.5,13 q -0.125,0.125 -0.25,0.25 l -0.125,0.125 0.0625,-0.0625"
         id="path14961"
         inkscape:connector-curvature="0" />
      <path
         style="fill:#a60107;fill-opacity:1"
         d="M 18.875,10.375 19,10 l 0.5,0 0.5,0 0,0.5 0,0.5 -0.375,0.125 -0.375,0.125 0.28125,-0.09375 0.28125,-0.09375 -0.1875,0.0625 q -0.1875,0.0625 -0.3125,0.1875 l -0.125,0.125 L 19.25,11.375 19.3125,11.3125 19,11 18.6875,10.6875 18.625,10.75 l -0.0625,0.0625 0.125,-0.125 q 0.125,-0.125 0.1875,-0.3125 L 18.9375,10.1875 18.84375,10.46875 18.75,10.75 18.875,10.375"
         id="path14963"
         inkscape:connector-curvature="0" />
      <path
         style="fill:#1b0101;fill-opacity:0.99215686"
         d="m 20,10.5 0,-0.5 0.375,0.125 q 0.375,0.125 0.375,0.375 0,0.25 -0.375,0.375 L 20,11 20,10.5"
         id="path14965"
         inkscape:connector-curvature="0" />
      <path
         style="fill:#000000;fill-opacity:0.03921569"
         d="M 1,11.5 1,11 1.5,11 2,11 2,11.5 2,12 1.5,12 1,12 1,11.5"
         id="path14967"
         inkscape:connector-curvature="0" />
      <path
         style="fill:#010000;fill-opacity:1"
         d="M 2,11.5 2,11 2.375,10.875 2.75,10.75 2.46875,10.84375 2.1875,10.9375 2.375,10.875 Q 2.5625,10.8125 2.6875,10.6875 L 2.8125,10.5625 2.75,10.625 2.6875,10.6875 3,11 3.3125,11.3125 3.375,11.25 3.4375,11.1875 3.3125,11.3125 Q 3.1875,11.4375 3.125,11.625 L 3.0625,11.8125 3.15625,11.53125 3.25,11.25 3.125,11.625 3,12 3.125,12.375 3.25,12.75 3.15625,12.46875 3.0625,12.1875 3.125,12.375 q 0.0625,0.1875 0.1875,0.3125 l 0.125,0.125 L 3.375,12.75 3.3125,12.6875 3,13 2.6875,13.3125 2.71875,13.34375 2.75,13.375 2.6875,13.3125 Q 2.625,13.25 2.5,13.25 l -0.125,0 0.1875,0 0.1875,0 -0.25,0 -0.25,0 0.1875,0 0.1875,0 -0.125,0 q -0.125,0 -0.1875,0.0625 L 2.25,13.375 2.28125,13.34375 2.3125,13.3125 2,13 1.6875,12.6875 1.625,12.75 1.5625,12.8125 1.6875,12.6875 Q 1.8125,12.5625 1.875,12.375 L 1.9375,12.1875 1.84375,12.46875 1.75,12.75 1.875,12.375 2,12 2,11.5"
         id="path14969"
         inkscape:connector-curvature="0" />
      <path
         style="fill:#a04711;fill-opacity:1"
         d="m 3.125,11.625 q 0.125,-0.375 0.5,-0.5 L 4,11 4,11.5 4,12 3.5,12 3,12 3.125,11.625"
         id="path14971"
         inkscape:connector-curvature="0" />
      <path
         style="fill:#feb22f;fill-opacity:1"
         d="M 4,11.5 4,11 4.5,11 5,11 5,11.5 5,12 4.5,12 4,12 4,11.5 M 4,11.625 4,12 4,12.125 4,12.25 4,12 q 0,-0.25 0,-0.5 l 0,-0.25 0,0.375"
         id="path14973"
         inkscape:connector-curvature="0" />
      <path
         style="fill:#f91f03;fill-opacity:1"
         d="M 5,11.5 5,11 5.5,11 6,11 6,11.5 6,12 5.5,12 5,12 5,11.5"
         id="path14975"
         inkscape:connector-curvature="0" />
      <path
         style="fill:#f51300;fill-opacity:1"
         d="M 12.875,11.375 Q 13,11 13.375,10.875 L 13.75,10.75 13.46875,10.84375 13.1875,10.9375 13.375,10.875 q 0.1875,-0.0625 0.3125,-0.1875 l 0.125,-0.125 -0.0625,0.0625 -0.0625,0.0625 0.296875,0.296875 0.296875,0.296875 0.07813,-0.04687 0.07813,-0.04687 -0.15625,0.09375 Q 14.125,11.375 14,11.5 L 13.875,11.625 14.0625,11.4375 14.25,11.25 14,11.5 Q 13.75,11.75 13.5,12 L 13.25,12.25 13.4375,12.0625 13.625,11.875 13.5,12 q -0.125,0.125 -0.21875,0.28125 l -0.09375,0.15625 0.04687,-0.07813 0.04687,-0.07813 -0.265625,-0.265625 Q 12.75,11.75 12.875,11.375"
         id="path14977"
         inkscape:connector-curvature="0" />
      <path
         style="fill:#b00406;fill-opacity:1"
         d="m 14,11.5 q 0.25,-0.25 0.625,-0.375 L 15,11 14.875,11.375 Q 14.75,11.75 14.5,12 L 14.25,12.25 14,12 13.75,11.75 14,11.5 M 13.9375,11.5625 13.75,11.75 13.6875,11.8125 13.625,11.875 13.75,11.75 Q 13.875,11.625 14,11.5 l 0.125,-0.125 -0.1875,0.1875 m 0.25,0.75 L 14.25,12.25 14.4375,12.0625 14.625,11.875 14.5,12 q -0.125,0.125 -0.25,0.25 l -0.125,0.125 0.0625,-0.0625"
         id="path14979"
         inkscape:connector-curvature="0" />
      <path
         style="fill:#a30207;fill-opacity:1"
         d="M 18,11.5 Q 18,11 18.375,10.875 L 18.75,10.75 18.46875,10.84375 18.1875,10.9375 18.375,10.875 q 0.1875,-0.0625 0.3125,-0.1875 l 0.125,-0.125 L 18.75,10.625 18.6875,10.6875 19,11 l 0.3125,0.3125 0.0625,-0.0625 0.0625,-0.0625 -0.125,0.125 q -0.125,0.125 -0.1875,0.3125 L 19.0625,11.8125 19.15625,11.53125 19.25,11.25 19.109375,11.609375 18.96875,11.96875 19.078125,11.953125 19.1875,11.9375 18.96875,11.96875 Q 18.75,12 18.5,12 l -0.25,0 0.375,0 0.375,0 -0.5,0 -0.5,0 0,-0.5"
         id="path14981"
         inkscape:connector-curvature="0" />
      <path
         style="fill:#6f0303;fill-opacity:0.99215686"
         d="M 19.109375,11.609375 Q 19.25,11.25 19.625,11.125 L 20,11 19.875,11.375 q -0.125,0.375 -0.5,0.5 L 19,12 19.28125,11.90625 19.5625,11.8125 19.375,11.875 q -0.1875,0.0625 -0.40625,0.09375 L 18.75,12 l 0.109375,-0.01563 0.109375,-0.01563 0.140625,-0.359375"
         id="path14983"
         inkscape:connector-curvature="0" />
      <path
         style="fill:#060000;fill-opacity:0.99215686"
         d="M 19.875,11.375 20,11 20.375,10.875 20.75,10.75 20.46875,10.84375 20.1875,10.9375 20.375,10.875 q 0.1875,-0.0625 0.28125,-0.15625 L 20.75,10.625 l -0.04687,0.04687 -0.04687,0.04687 0.296875,0.265625 Q 21.25,11.25 21.125,11.625 L 21,12 20.625,12.125 20.25,12.25 20.53125,12.15625 20.8125,12.0625 20.625,12.125 q -0.1875,0.0625 -0.3125,0.1875 l -0.125,0.125 L 20.25,12.375 20.3125,12.3125 20,12 19.6875,11.6875 19.625,11.75 l -0.0625,0.0625 0.125,-0.125 q 0.125,-0.125 0.1875,-0.3125 L 19.9375,11.1875 19.84375,11.46875 19.75,11.75 19.875,11.375"
         id="path14985"
         inkscape:connector-curvature="0" />
      <path
         style="fill:#000000;fill-opacity:0.04313725"
         d="M 1,12.5 1,12 1.5,12 2,12 1.875,12.375 q -0.125,0.375 -0.5,0.5 L 1,13 1,12.5"
         id="path14987"
         inkscape:connector-curvature="0" />
      <path
         style="fill:#96380d;fill-opacity:1"
         d="M 3.125,12.375 3,12 3.5,12 4,12 4,12.5 4,13 3.625,12.875 q -0.375,-0.125 -0.5,-0.5"
         id="path14989"
         inkscape:connector-curvature="0" />
      <path
         style="fill:#ed982a;fill-opacity:1"
         d="M 4,12.5 4,12 4.5,12 5,12 5,12.5 5,13 4.5,13 4,13 4,12.5 M 4,11.875 4,12 4,12.375 4,12.75 4,12.5 Q 4,12.25 4,12 l 0,-0.25 0,0.125"
         id="path14991"
         inkscape:connector-curvature="0" />
      <path
         style="fill:#b20d08;fill-opacity:1"
         d="M 5,12.5 5,12 5.5,12 6,12 6,12.5 6,13 5.5,13 5,13 5,12.5 M 5.625,13 6,13 6.125,13 6.25,13 6,13 q -0.25,0 -0.5,0 l -0.25,0 0.375,0 M 6.125,12 6,12 5.625,12 5.25,12 5.5,12 q 0.25,0 0.5,0 l 0.25,0 -0.125,0"
         id="path14993"
         inkscape:connector-curvature="0" />
      <path
         style="fill:#bb0605;fill-opacity:1"
         d="M 6,12.5 6,12 6.5,12 7,12 7,12.5 7,13 6.5,13 6,13 6,12.5 M 5.875,13 6,13 6.375,13 6.75,13 6.5,13 Q 6.25,13 6,13 l -0.25,0 0.125,0 M 6.375,12 6,12 5.875,12 5.75,12 6,12 q 0.25,0 0.5,0 l 0.25,0 -0.375,0"
         id="path14995"
         inkscape:connector-curvature="0" />
      <path
         style="fill:#b40506;fill-opacity:1"
         d="M 7,12.5 7,12 7.5,12 8,12 8,12.5 8,13 7.5,13 7,13 7,12.5"
         id="path14997"
         inkscape:connector-curvature="0" />
      <path
         style="fill:#b10406;fill-opacity:1"
         d="M 8,12.5 8,12 8.5,12 9,12 8.625,12 8.25,12 8.5,12 q 0.25,0 0.46875,0.03125 L 9.1875,12.0625 9.078125,12.046875 8.96875,12.03125 8.984375,12.515625 9,13 8.5,13 8,13 8,12.5"
         id="path14999"
         inkscape:connector-curvature="0" />
      <path
         style="fill:#cc0a03;fill-opacity:1"
         d="M 8.984375,12.515625 8.96875,12.03125 8.859375,12.015625 8.75,12 8.96875,12.03125 Q 9.1875,12.0625 9.375,12.125 L 9.5625,12.1875 9.28125,12.09375 9,12 9.375,12.125 q 0.375,0.125 0.5,0.5 L 10,13 9.90625,12.71875 9.8125,12.4375 9.875,12.625 q 0.0625,0.1875 0.09375,0.40625 L 10,13.25 9.984375,13.140625 9.96875,13.03125 9.484375,13.015625 9,13 8.984375,12.515625"
         id="path15001"
         inkscape:connector-curvature="0" />
      <path
         style="fill:#bc0705;fill-opacity:1"
         d="M 13.125,12.625 Q 13.25,12.25 13.5,12 L 13.75,11.75 14,12 14.25,12.25 14,12.5 q -0.25,0.25 -0.609375,0.390625 L 13.03125,13.03125 13.015625,13.140625 13,13.25 13.03125,13.03125 Q 13.0625,12.8125 13.125,12.625 L 13.1875,12.4375 13.09375,12.71875 13,13 13.125,12.625 M 14.0625,12.4375 14.25,12.25 14.3125,12.1875 14.375,12.125 14.25,12.25 Q 14.125,12.375 14,12.5 l -0.125,0.125 0.1875,-0.1875 m -0.25,-0.75 L 13.75,11.75 13.5625,11.9375 13.375,12.125 13.5,12 q 0.125,-0.125 0.25,-0.25 l 0.125,-0.125 -0.0625,0.0625"
         id="path15003"
         inkscape:connector-curvature="0" />
      <path
         style="fill:#9e0406;fill-opacity:1"
         d="m 15,12.5 q 0.25,-0.25 0.5,-0.5 0.25,-0.25 0.515625,0.01563 l 0.265625,0.265625 0.07813,-0.04687 0.07813,-0.04687 -0.15625,0.09375 Q 16.125,12.375 16,12.5 L 15.875,12.625 16.0625,12.4375 16.25,12.25 16,12.5 Q 15.75,12.75 15.5,13 L 15.25,13.25 15,13 14.75,12.75 15,12.5 M 14.9375,12.5625 14.75,12.75 14.6875,12.8125 14.625,12.875 14.75,12.75 Q 14.875,12.625 15,12.5 l 0.125,-0.125 -0.1875,0.1875 m 0.25,0.75 L 15.25,13.25 15.4375,13.0625 15.625,12.875 15.5,13 q -0.125,0.125 -0.25,0.25 l -0.125,0.125 0.0625,-0.0625"
         id="path15005"
         inkscape:connector-curvature="0" />
      <path
         style="fill:#010000;fill-opacity:1"
         d="m 16,12.5 q 0.25,-0.25 0.625,-0.375 L 17,12 l 0,0.5 0,0.5 -0.375,0.125 Q 16.25,13.25 16,13 L 15.75,12.75 16,12.5 M 15.9375,12.5625 15.75,12.75 15.6875,12.8125 15.625,12.875 15.75,12.75 Q 15.875,12.625 16,12.5 l 0.125,-0.125 -0.1875,0.1875"
         id="path15007"
         inkscape:connector-curvature="0" />
      <path
         style="fill:#000000;fill-opacity:1"
         d="m 17,12.5 0,-0.5 0.5,0 0.5,0 0.5,0 0.5,0 0,0.5 0,0.5 -0.5,0 -0.5,0 -0.5,0 -0.5,0 0,-0.5"
         id="path15009"
         inkscape:connector-curvature="0" />
      <path
         style="fill:#000000;fill-opacity:0.99607843"
         d="M 19,12.5 19,12 19.375,11.875 19.75,11.75 19.46875,11.84375 19.1875,11.9375 19.375,11.875 q 0.1875,-0.0625 0.3125,-0.1875 l 0.125,-0.125 L 19.75,11.625 19.6875,11.6875 20,12 l 0.3125,0.3125 0.0625,-0.0625 0.0625,-0.0625 -0.125,0.125 q -0.125,0.125 -0.1875,0.3125 L 20.0625,12.8125 20.15625,12.53125 20.25,12.25 20.125,12.625 20,13 19.5,13 19,13 19,12.5"
         id="path15011"
         inkscape:connector-curvature="0" />
      <path
         style="fill:#000000;fill-opacity:0.81960784"
         d="m 20.125,12.625 q 0.125,-0.375 0.5,-0.5 L 21,12 21,12.5 Q 21,13 20.5,13 l -0.5,0 0.125,-0.375"
         id="path15013"
         inkscape:connector-curvature="0" />
      <path
         style="fill:#000000;fill-opacity:0.00784314"
         d="M 1,13.5 1,13 1.375,12.875 1.75,12.75 1.46875,12.84375 1.1875,12.9375 1.375,12.875 Q 1.5625,12.8125 1.6875,12.6875 L 1.8125,12.5625 1.75,12.625 1.6875,12.6875 2,13 2.3125,13.3125 2.34375,13.28125 2.375,13.25 2.3125,13.3125 Q 2.25,13.375 2.25,13.5 l 0,0.125 0,-0.1875 0,-0.1875 0,0.25 0,0.25 0,-0.1875 0,-0.1875 0,0.125 q 0,0.125 0.0625,0.1875 L 2.375,13.75 2.34375,13.71875 2.3125,13.6875 2.03125,13.96875 Q 1.75,14.25 1.375,14.125 1,14 1,13.5"
         id="path15015"
         inkscape:connector-curvature="0" />
      <path
         style="fill:#0f0000;fill-opacity:0.12941176"
         d="m 2.25,13.5 q 0,-0.25 0.25,-0.25 0.25,0 0.25,0.25 0,0.25 -0.25,0.25 -0.25,0 -0.25,-0.25"
         id="path15017"
         inkscape:connector-curvature="0" />
      <path
         style="fill:#060100;fill-opacity:0.9254902"
         d="m 2.75,13.5 0,-0.25 0,0.1875 0,0.1875 0,-0.125 q 0,-0.125 -0.0625,-0.1875 L 2.625,13.25 2.65625,13.28125 2.6875,13.3125 3,13 3.3125,12.6875 3.25,12.625 3.1875,12.5625 l 0.125,0.125 q 0.125,0.125 0.3125,0.1875 L 3.8125,12.9375 3.53125,12.84375 3.25,12.75 3.625,12.875 4,13 4.125,13.375 4.25,13.75 4.15625,13.46875 4.0625,13.1875 4.125,13.375 q 0.0625,0.1875 0.1875,0.3125 l 0.125,0.125 L 4.375,13.75 4.3125,13.6875 4.015625,14.015625 3.71875,14.34375 3.765625,14.390625 3.8125,14.4375 3.71875,14.34375 Q 3.625,14.25 3.5,14.25 l -0.125,0 0.1875,0 0.1875,0 -0.25,0 -0.25,0 0.1875,0 0.1875,0 -0.125,0 q -0.125,0 -0.21875,0.09375 L 3.1875,14.4375 3.234375,14.390625 3.28125,14.34375 2.984375,14.015625 2.6875,13.6875 2.65625,13.71875 2.625,13.75 2.6875,13.6875 Q 2.75,13.625 2.75,13.5 l 0,-0.125 0,0.1875 0,0.1875 0,-0.25"
         id="path15019"
         inkscape:connector-curvature="0" />
      <path
         style="fill:#360002;fill-opacity:0.99215686"
         d="M 4.125,13.375 4,13 4.5,13 5,13 5.015625,13.484375 5.03125,13.96875 5.140625,13.984375 5.25,14 5.03125,13.96875 Q 4.8125,13.9375 4.625,13.875 L 4.4375,13.8125 4.71875,13.90625 5,14 4.625,13.875 q -0.375,-0.125 -0.5,-0.5"
         id="path15021"
         inkscape:connector-curvature="0" />
      <path
         style="fill:#1e0001;fill-opacity:1"
         d="M 5.015625,13.484375 5,13 5.5,13 6,13 6,13.5 6,14 5.5,14 5,14 5.375,14 5.75,14 5.5,14 Q 5.25,14 5.03125,13.96875 L 4.8125,13.9375 4.921875,13.953125 5.03125,13.96875 5.015625,13.484375"
         id="path15023"
         inkscape:connector-curvature="0" />
      <path
         style="fill:#220001;fill-opacity:1"
         d="M 6,13.5 6,13 6.5,13 7,13 7,13.5 7,14 6.5,14 6,14 6,13.5"
         id="path15025"
         inkscape:connector-curvature="0" />
      <path
         style="fill:#1f0001;fill-opacity:0.99215686"
         d="M 7,13.5 7,13 7.5,13 8,13 8,13.5 8,14 7.5,14 7,14 7,13.5"
         id="path15027"
         inkscape:connector-curvature="0" />
      <path
         style="fill:#1d0001;fill-opacity:0.99607843"
         d="M 8,13.5 8,13 8.5,13 9,13 8.875,13.375 q -0.125,0.375 -0.5,0.5 L 8,14 8,13.5"
         id="path15029"
         inkscape:connector-curvature="0" />
      <path
         style="fill:#070000;fill-opacity:1"
         d="M 8.875,13.375 9,13 9.484375,13.015625 9.96875,13.03125 9.953125,12.921875 9.9375,12.8125 9.96875,13.03125 Q 10,13.25 10,13.5 l 0,0.25 0,-0.375 L 10,13 10,13.5 10,14 9.625,14.125 9.25,14.25 9.53125,14.15625 9.8125,14.0625 9.625,14.125 Q 9.4375,14.1875 9.3125,14.3125 L 9.1875,14.4375 9.25,14.375 9.3125,14.3125 9,14 8.6875,13.6875 8.625,13.75 8.5625,13.8125 8.6875,13.6875 Q 8.8125,13.5625 8.875,13.375 L 8.9375,13.1875 8.84375,13.46875 8.75,13.75 8.875,13.375"
         id="path15031"
         inkscape:connector-curvature="0" />
      <path
         style="fill:#f41300;fill-opacity:1"
         d="M 11.875,13.375 Q 12,13 12.5,13 l 0.5,0 0,0.5 0,0.5 0,-0.375 0,-0.375 0,0.25 q 0,0.25 -0.03125,0.46875 L 12.9375,14.1875 12.953125,14.078125 12.96875,13.96875 12.609375,14.109375 12.25,14.25 12.53125,14.15625 12.8125,14.0625 12.625,14.125 q -0.1875,0.0625 -0.3125,0.1875 l -0.125,0.125 0.0625,-0.0625 0.0625,-0.0625 -0.28125,-0.28125 Q 11.75,13.75 11.875,13.375"
         id="path15033"
         inkscape:connector-curvature="0" />
      <path
         style="fill:#a50107;fill-opacity:1"
         d="m 13,13.5 0,-0.5 0,0.375 0,0.375 0,-0.25 q 0,-0.25 0.03125,-0.46875 L 13.0625,12.8125 13.046875,12.921875 13.03125,13.03125 13.390625,12.890625 13.75,12.75 13.46875,12.84375 13.1875,12.9375 13.375,12.875 q 0.1875,-0.0625 0.34375,-0.15625 L 13.875,12.625 13.79687,12.67187 13.71874,12.71874 13.984365,12.984365 14.25,13.25 14,13.5 q -0.25,0.25 -0.625,0.375 L 13,14 13,13.5 M 14.0625,13.4375 14.25,13.25 14.3125,13.1875 14.375,13.125 14.25,13.25 Q 14.125,13.375 14,13.5 l -0.125,0.125 0.1875,-0.1875"
         id="path15035"
         inkscape:connector-curvature="0" />
      <path
         style="fill:#a30107;fill-opacity:1"
         d="M 14,13.5 Q 14.25,13.25 14.5,13 L 14.75,12.75 15,13 15.25,13.25 15,13.5 Q 14.75,13.75 14.5,14 14.25,14.25 14,14.5 13.75,14.75 13.5,15 L 13.25,15.25 13.4375,15.0625 13.625,14.875 13.5,15 q -0.125,0.125 -0.21875,0.28125 L 13.1875,15.4375 13.23437,15.35937 13.28124,15.28124 12.984375,14.984375 12.6875,14.6875 12.625,14.75 l -0.0625,0.0625 0.125,-0.125 q 0.125,-0.125 0.1875,-0.3125 L 12.9375,14.1875 12.84375,14.46875 12.75,14.75 12.875,14.375 13,14 13.375,13.875 Q 13.75,13.75 14,13.5 M 15.0625,13.4375 15.25,13.25 15.3125,13.1875 15.375,13.125 15.25,13.25 Q 15.125,13.375 15,13.5 l -0.125,0.125 0.1875,-0.1875 m -0.25,-0.75 L 14.75,12.75 14.5625,12.9375 14.375,13.125 14.5,13 q 0.125,-0.125 0.25,-0.25 l 0.125,-0.125 -0.0625,0.0625"
         id="path15037"
         inkscape:connector-curvature="0" />
      <path
         style="fill:#000000;fill-opacity:1"
         d="M 15,13.5 Q 15.25,13.25 15.5,13 L 15.75,12.75 16,13 q 0.25,0.25 0.625,0.125 L 17,13 l 0,0.5 0,0.5 -0.5,0 Q 16,14 16,14.5 l 0,0.5 -0.5,0 -0.5,0 0.125,-0.375 Q 15.25,14.25 15,14 L 14.75,13.75 15,13.5 M 14.9375,13.5625 14.75,13.75 14.6875,13.8125 14.625,13.875 14.75,13.75 Q 14.875,13.625 15,13.5 l 0.125,-0.125 -0.1875,0.1875 m 0.875,-0.875 L 15.75,12.75 15.5625,12.9375 15.375,13.125 15.5,13 q 0.125,-0.125 0.25,-0.25 l 0.125,-0.125 -0.0625,0.0625"
         id="path15039"
         inkscape:connector-curvature="0" />
      <path
         style="fill:#000000;fill-opacity:0.66666667"
         d="m 17,13.5 0,-0.5 0.5,0 0.5,0 0,0.5 0,0.5 -0.5,0 -0.5,0 0,-0.5"
         id="path15041"
         inkscape:connector-curvature="0" />
      <path
         style="fill:#000000;fill-opacity:0.09411765"
         d="m 18,13.5 0,-0.5 0.5,0 0.5,0 0,0.5 Q 19,14 18.5,14 l -0.5,0 0,-0.5"
         id="path15043"
         inkscape:connector-curvature="0" />
      <path
         style="fill:#000000;fill-opacity:0.00392157"
         d="M 3.125,14.625 Q 3.25,14.25 3.5,14.25 q 0.25,0 0.375,0.375 L 4,15 3.5,15 Q 3,15 3.125,14.625"
         id="path15045"
         inkscape:connector-curvature="0" />
      <path
         style="fill:#000000;fill-opacity:0.01176471"
         d="M 3.875,14.625 3.75,14.25 3.84375,14.53125 3.9375,14.8125 3.875,14.625 Q 3.8125,14.4375 3.71875,14.34375 L 3.625,14.25 3.671875,14.296875 3.71875,14.34375 4.015625,14.015625 4.3125,13.6875 4.25,13.625 4.1875,13.5625 l 0.125,0.125 q 0.125,0.125 0.3125,0.1875 L 4.8125,13.9375 4.53125,13.84375 4.25,13.75 4.625,13.875 5,14 5,14.5 5,15 4.5,15 4,15 3.875,14.625"
         id="path15047"
         inkscape:connector-curvature="0" />
      <path
         style="fill:#000000;fill-opacity:0.00392157"
         d="M 5,14.5 5,14 5.5,14 6,14 6,14.5 6,15 5.5,15 5,15 5,14.5"
         id="path15049"
         inkscape:connector-curvature="0" />
      <path
         style="fill:#000000;fill-opacity:0.00784314"
         d="M 6,14.5 6,14 6.5,14 7,14 7,14.5 7,15 6.5,15 6,15 6,14.5"
         id="path15051"
         inkscape:connector-curvature="0" />
      <path
         style="fill:#000000;fill-opacity:0.03529412"
         d="M 7,14.5 7,14 7.5,14 8,14 8,14.5 8,15 7.5,15 7,15 7,14.5"
         id="path15053"
         inkscape:connector-curvature="0" />
      <path
         style="fill:#000000;fill-opacity:0.78039216"
         d="M 8,14.5 8,14 8.375,13.875 8.75,13.75 8.46875,13.84375 8.1875,13.9375 8.375,13.875 Q 8.5625,13.8125 8.6875,13.6875 L 8.8125,13.5625 8.75,13.625 8.6875,13.6875 9,14 9.3125,14.3125 9.375,14.25 9.4375,14.1875 9.3125,14.3125 Q 9.1875,14.4375 9.125,14.625 L 9.0625,14.8125 9.15625,14.53125 9.25,14.25 9.125,14.625 9,15 8.5,15 8,15 8,14.5"
         id="path15055"
         inkscape:connector-curvature="0" />
      <path
         style="fill:#000000;fill-opacity:1"
         d="m 9.125,14.625 q 0.125,-0.375 0.5,-0.5 L 10,14 l 0,0.5 q 0,0.5 0,1 0,0.5 0,1 0,0.5 0,1 0,0.5 0.125,0.875 L 10.25,18.75 10.15625,18.46875 10.0625,18.1875 10.125,18.375 q 0.0625,0.1875 0.1875,0.3125 l 0.125,0.125 L 10.375,18.75 10.3125,18.6875 10,19 9.6875,19.3125 9.75,19.375 9.8125,19.4375 9.6875,19.3125 Q 9.5625,19.1875 9.375,19.125 L 9.1875,19.0625 9.46875,19.15625 9.75,19.25 9.375,19.125 9,19 9,18.5 9,18 9,17.5 9,17 9,16.5 9,16 9,15.5 9,15 9.125,14.625"
         id="path15057"
         inkscape:connector-curvature="0" />
      <path
         style="fill:#cb0a04;fill-opacity:1"
         d="M 12.125,14.625 Q 12.25,14.25 12.609375,14.109375 L 12.96875,13.96875 12.984375,13.859375 13,13.75 12.96875,13.96875 Q 12.9375,14.1875 12.875,14.375 L 12.8125,14.5625 12.90625,14.28125 13,14 12.875,14.375 Q 12.75,14.75 12.390625,14.890625 L 12.03125,15.03125 12.015625,15.140625 12,15.25 12.03125,15.03125 Q 12.0625,14.8125 12.125,14.625 L 12.1875,14.4375 12.09375,14.71875 12,15 12.125,14.625"
         id="path15059"
         inkscape:connector-curvature="0" />
      <path
         style="fill:#070000;fill-opacity:1"
         d="M 14,14.5 Q 14.25,14.25 14.5,14 L 14.75,13.75 15,14 q 0.25,0.25 0.125,0.625 L 15,15 14.625,15.125 14.25,15.25 14.53125,15.15625 14.8125,15.0625 14.625,15.125 q -0.1875,0.0625 -0.28125,0.15625 L 14.25,15.375 14.296875,15.328125 14.34375,15.28125 14.046875,15.015625 13.75,14.75 14,14.5 M 13.9375,14.5625 13.75,14.75 13.6875,14.8125 13.625,14.875 13.75,14.75 Q 13.875,14.625 14,14.5 l 0.125,-0.125 -0.1875,0.1875 m 0.875,-0.875 L 14.75,13.75 14.5625,13.9375 14.375,14.125 14.5,14 q 0.125,-0.125 0.25,-0.25 l 0.125,-0.125 -0.0625,0.0625"
         id="path15061"
         inkscape:connector-curvature="0" />
      <path
         style="fill:#000000;fill-opacity:0.36862745"
         d="M 16,14.5 Q 16,14 16.5,14 l 0.5,0 0,0.5 Q 17,15 16.5,15 l -0.5,0 0,-0.5"
         id="path15063"
         inkscape:connector-curvature="0" />
      <path
         style="fill:#000000;fill-opacity:0.64313725"
         d="M 8,15.5 8,15 8.5,15 9,15 9,15.5 9,16 8.5,16 8,16 8,15.5"
         id="path15065"
         inkscape:connector-curvature="0" />
      <path
         style="fill:#b10406;fill-opacity:1"
         d="m 12,15.5 0,-0.5 0,0.375 0,0.375 0,-0.25 q 0,-0.25 0.03125,-0.46875 L 12.0625,14.8125 12.046875,14.921875 12.03125,15.03125 12.390625,14.890625 12.75,14.75 12.46875,14.84375 12.1875,14.9375 12.375,14.875 q 0.1875,-0.0625 0.3125,-0.1875 l 0.125,-0.125 -0.0625,0.0625 -0.0625,0.0625 0.296875,0.296875 0.296875,0.296875 0.04687,-0.07813 L 13.375,15.125 13.28125,15.28125 Q 13.1875,15.4375 13.125,15.625 L 13.0625,15.8125 13.15625,15.53125 13.25,15.25 13.125,15.625 13,16 13.09375,15.71875 13.1875,15.4375 13.125,15.625 q -0.0625,0.1875 -0.09375,0.40625 L 13,16.25 13.01563,16.140625 13.03126,16.03125 12.53126,16 l -0.5,-0.03125 0.01563,0.109375 0.01563,0.109375 -0.03125,-0.21875 Q 12,15.75 12,15.5 l 0,-0.25 0,0.375 0,0.375 0,-0.5"
         id="path15067"
         inkscape:connector-curvature="0" />
      <path
         style="fill:#0e0001;fill-opacity:1"
         d="M 13.125,15.625 Q 13.25,15.25 13.5,15 l 0.25,-0.25 0.296875,0.265625 0.296875,0.265625 0.04687,-0.04687 0.04687,-0.04687 -0.09375,0.09375 Q 14.25,15.375 14.25,15.5 l 0,0.125 0,-0.1875 0,-0.1875 0,0.25 0,0.25 0,-0.1875 0,-0.1875 0,0.125 q 0,0.125 0.09375,0.21875 l 0.09375,0.09375 -0.04687,-0.04687 -0.04687,-0.04687 -0.328125,0.296875 -0.328125,0.296875 0.0625,0.0625 0.0625,0.0625 -0.125,-0.125 Q 13.5625,16.1875 13.375,16.125 L 13.1875,16.0625 13.46875,16.15625 13.75,16.25 13.375,16.125 13,16 13.125,15.625 M 13.8125,14.6875 13.75,14.75 13.5625,14.9375 13.375,15.125 13.5,15 q 0.125,-0.125 0.25,-0.25 l 0.125,-0.125 -0.0625,0.0625"
         id="path15069"
         inkscape:connector-curvature="0" />
      <path
         style="fill:#010000;fill-opacity:1"
         d="m 14.25,15.5 q 0,-0.25 0.375,-0.375 L 15,15 15,15.5 15,16 14.625,15.875 Q 14.25,15.75 14.25,15.5"
         id="path15071"
         inkscape:connector-curvature="0" />
      <path
         style="fill:#000000;fill-opacity:0.03137255"
         d="m 15,15.5 0,-0.5 0.5,0 0.5,0 0,0.5 0,0.5 -0.5,0 -0.5,0 0,-0.5"
         id="path15073"
         inkscape:connector-curvature="0" />
      <path
         style="fill:#000000;fill-opacity:0.58431373"
         d="M 8,16.5 8,16 8.5,16 9,16 9,16.5 9,17 8.5,17 8,17 8,16.5"
         id="path15075"
         inkscape:connector-curvature="0" />
      <path
         style="fill:#df0e02;fill-opacity:1"
         d="M 12.125,16.375 12,16 12.09375,16.28125 12.1875,16.5625 12.125,16.375 Q 12.0625,16.1875 12.03125,15.96875 L 12,15.75 l 0.01563,0.109375 0.01563,0.109375 0.5,0.03125 0.5,0.03125 0.01563,-0.109375 0.01563,-0.109375 -0.03125,0.21875 Q 13,16.25 13,16.5 l 0,0.25 0,-0.375 0,-0.375 0,0.5 0,0.5 -0.375,-0.125 q -0.375,-0.125 -0.5,-0.5 M 13,17.125 13,17 l 0,-0.375 0,-0.375 0,0.25 q 0,0.25 0,0.5 l 0,0.25 0,-0.125"
         id="path15077"
         inkscape:connector-curvature="0" />
      <path
         style="fill:#140000;fill-opacity:1"
         d="m 13,16.5 0,-0.5 0.375,0.125 q 0.375,0.125 0.5,0.5 L 14,17 13.5,17 13,17 13,16.5"
         id="path15079"
         inkscape:connector-curvature="0" />
      <path
         style="fill:#000000;fill-opacity:0.38039216"
         d="M 13.875,16.625 13.75,16.25 13.84375,16.53125 13.9375,16.8125 13.875,16.625 q -0.0625,-0.1875 -0.1875,-0.3125 l -0.125,-0.125 0.0625,0.0625 0.0625,0.0625 0.328125,-0.296875 L 14.34375,15.71875 14.29688,15.67188 14.25,15.625 14.34375,15.71875 Q 14.4375,15.8125 14.625,15.875 L 14.8125,15.9375 14.53125,15.84375 14.25,15.75 14.625,15.875 15,16 l 0,0.5 0,0.5 -0.5,0 -0.5,0 -0.125,-0.375"
         id="path15081"
         inkscape:connector-curvature="0" />
      <path
         style="fill:#000000;fill-opacity:0.00392157"
         d="m 15,16.5 0,-0.5 0.5,0 0.5,0 0,0.5 Q 16,17 15.5,17 l -0.5,0 0,-0.5"
         id="path15083"
         inkscape:connector-curvature="0" />
      <path
         style="fill:#000000;fill-opacity:0.32941176"
         d="M 8,17.5 8,17 8.5,17 9,17 9,17.5 9,18 8.5,18 8,18 8,17.5"
         id="path15085"
         inkscape:connector-curvature="0" />
      <path
         style="fill:#de1100;fill-opacity:1"
         d="m 10,17.5 0,-0.5 0.375,0.125 q 0.375,0.125 0.5,0.5 L 11,18 10.90625,17.71875 10.8125,17.4375 10.875,17.625 q 0.0625,0.1875 0.09375,0.40625 L 11,18.25 10.984375,18.140625 10.96875,18.03125 10.5,18 10.03125,17.96875 10.046875,18.078125 10.0625,18.1875 10.03125,17.96875 Q 10,17.75 10,17.5 l 0,-0.25 0,0.375 0,0.375 0,-0.5 m 0,-0.625 0,0.125 0,0.375 0,0.375 0,-0.25 q 0,-0.25 0,-0.5 l 0,-0.25 0,0.125"
         id="path15087"
         inkscape:connector-curvature="0" />
      <path
         style="fill:#f81400;fill-opacity:1"
         d="M 10.875,17.625 10.75,17.25 10.84375,17.53125 10.9375,17.8125 10.875,17.625 q -0.0625,-0.1875 -0.1875,-0.3125 l -0.125,-0.125 0.0625,0.0625 0.0625,0.0625 0.28125,-0.28125 Q 11.25,16.75 11.5,17 q 0.25,0.25 0.375,0.625 L 12,18 l 0,0.5 0,0.5 -0.5,0 -0.5,0 0,-0.5 Q 11,18 10.875,17.625"
         id="path15089"
         inkscape:connector-curvature="0" />
      <path
         style="fill:#f31300;fill-opacity:1"
         d="M 11.875,17.625 11.75,17.25 11.84375,17.53125 11.9375,17.8125 11.875,17.625 Q 11.8125,17.4375 11.71875,17.28125 L 11.625,17.125 l 0.04687,0.07813 0.04687,0.07813 0.296875,-0.296875 L 12.3125,16.6875 12.25,16.625 l -0.0625,-0.0625 0.125,0.125 q 0.125,0.125 0.3125,0.1875 L 12.8125,16.9375 12.53125,16.84375 12.25,16.75 12.625,16.875 13,17 13,17.5 13,18 12.5,18 12,18 11.875,17.625 M 13,17.375 13,17 13,16.875 13,16.75 13,17 q 0,0.25 0,0.5 l 0,0.25 0,-0.375"
         id="path15091"
         inkscape:connector-curvature="0" />
      <path
         style="fill:#160101;fill-opacity:1"
         d="m 13,17.5 0,-0.5 0.5,0 0.5,0 0,0.5 0,0.5 -0.5,0 -0.5,0 0,-0.5 m 0,0.125 0,0.375 0,0.125 0,0.125 0,-0.25 q 0,-0.25 0,-0.5 l 0,-0.25 0,0.375 m 1,0.5 0,-0.125 0,-0.375 0,-0.375 0,0.25 q 0,0.25 0,0.5 l 0,0.25 0,-0.125"
         id="path15093"
         inkscape:connector-curvature="0" />
      <path
         style="fill:#000000;fill-opacity:0.43529412"
         d="m 14,17.5 0,-0.5 0.5,0 0.5,0 0,0.5 0,0.5 -0.5,0 -0.5,0 0,-0.5"
         id="path15095"
         inkscape:connector-curvature="0" />
      <path
         style="fill:#000000;fill-opacity:0.22352941"
         d="M 8,18.5 8,18 8.5,18 9,18 9,18.5 9,19 8.5,19 Q 8,19 8,18.5"
         id="path15097"
         inkscape:connector-curvature="0" />
      <path
         style="fill:#9b0d00;fill-opacity:1"
         d="M 10.125,18.375 10,18 10.09375,18.28125 10.1875,18.5625 10.125,18.375 Q 10.0625,18.1875 10.03125,17.96875 L 10,17.75 10.015625,17.859375 10.03125,17.96875 10.5,18 10.96875,18.03125 10.953125,17.921875 10.9375,17.8125 10.96875,18.03125 Q 11,18.25 11,18.5 l 0,0.25 0,-0.375 0,-0.375 0,0.5 0,0.5 -0.375,-0.125 q -0.375,-0.125 -0.5,-0.5"
         id="path15099"
         inkscape:connector-curvature="0" />
      <path
         style="fill:#f91400;fill-opacity:1"
         d="m 12,18.5 0,-0.5 0.5,0 0.5,0 0,0.5 0,0.5 -0.5,0 -0.5,0 0,-0.5"
         id="path15101"
         inkscape:connector-curvature="0" />
      <path
         style="fill:#680502;fill-opacity:1"
         d="m 13,18.5 0,-0.5 0.5,0 0.5,0 0,0.5 0,0.5 0,-0.375 0,-0.375 0,0.25 q 0,0.25 -0.03125,0.46875 L 13.9375,19.1875 13.95313,19.078125 13.96876,18.96875 13.484385,18.98438 13,19 13,18.5 M 14,18.375 14,18 14,17.875 14,17.75 14,18 q 0,0.25 0,0.5 l 0,0.25 0,-0.375 m -1,-0.5 0,0.125 0,0.375 0,0.375 0,-0.25 q 0,-0.25 0,-0.5 l 0,-0.25 0,0.125"
         id="path15103"
         inkscape:connector-curvature="0" />
      <path
         style="fill:#020000;fill-opacity:0.91764706"
         d="m 14,18.5 0,-0.5 0.5,0 0.5,0 0,0.5 0,0.5 -0.5,0 -0.5,0 0,-0.5"
         id="path15105"
         inkscape:connector-curvature="0" />
      <path
         style="fill:#000000;fill-opacity:0.75294118"
         d="M 9,19.5 9,19 9.375,19.125 q 0.375,0.125 0.5,0.5 L 10,20 9.5,20 9,20 9,19.5"
         id="path15107"
         inkscape:connector-curvature="0" />
      <path
         style="fill:#000000;fill-opacity:0.99607843"
         d="M 9.875,19.625 9.75,19.25 9.84375,19.53125 9.9375,19.8125 9.875,19.625 Q 9.8125,19.4375 9.6875,19.3125 L 9.5625,19.1875 9.625,19.25 9.6875,19.3125 10,19 10.3125,18.6875 10.25,18.625 l -0.0625,-0.0625 0.125,0.125 q 0.125,0.125 0.3125,0.1875 L 10.8125,18.9375 10.53125,18.84375 10.25,18.75 10.625,18.875 11,19 11.125,19.375 11.25,19.75 11.15625,19.46875 11.0625,19.1875 11.125,19.375 q 0.0625,0.1875 0.1875,0.3125 l 0.125,0.125 L 11.375,19.75 11.3125,19.6875 11,20 l -0.3125,0.3125 0.0625,0.0625 0.0625,0.0625 -0.125,-0.125 Q 10.5625,20.1875 10.375,20.125 L 10.1875,20.0625 10.46875,20.15625 10.75,20.25 10.375,20.125 10,20 9.875,19.625"
         id="path15109"
         inkscape:connector-curvature="0" />
      <path
         style="fill:#de1100;fill-opacity:1"
         d="M 11.125,19.375 11,19 l 0.5,0 0.5,0 0.5,0 0.5,0 -0.01563,0.484375 -0.01563,0.484375 0.109375,-0.01563 0.109375,-0.01563 -0.21875,0.03125 Q 12.75,20 12.5,20 l -0.25,0 0.375,0 0.375,0 -0.5,0 q -0.5,0 -0.875,-0.125 -0.375,-0.125 -0.5,-0.5"
         id="path15111"
         inkscape:connector-curvature="0" />
      <path
         style="fill:#c20805;fill-opacity:1"
         d="M 12.984375,19.484375 13,19 13.484375,18.984375 13.96875,18.96875 13.984375,18.859375 14,18.75 13.96875,18.96875 Q 13.9375,19.1875 13.875,19.375 L 13.8125,19.5625 13.90625,19.28125 14,19 13.875,19.375 q -0.125,0.375 -0.5,0.5 L 13,20 13.28125,19.90625 13.5625,19.8125 13.375,19.875 q -0.1875,0.0625 -0.40625,0.09375 L 12.75,20 l 0.109375,-0.01563 0.109375,-0.01563 0.01563,-0.484375"
         id="path15113"
         inkscape:connector-curvature="0" />
      <path
         style="fill:#060000;fill-opacity:1"
         d="M 13.875,19.375 14,19 l 0.5,0 0.5,0 0,0.5 0,0.5 -0.375,0.125 -0.375,0.125 0.28125,-0.09375 0.28125,-0.09375 -0.1875,0.0625 q -0.1875,0.0625 -0.3125,0.1875 l -0.125,0.125 L 14.25,20.375 14.3125,20.3125 14,20 13.6875,19.6875 13.625,19.75 l -0.0625,0.0625 0.125,-0.125 q 0.125,-0.125 0.1875,-0.3125 L 13.9375,19.1875 13.84375,19.46875 13.75,19.75 13.875,19.375"
         id="path15115"
         inkscape:connector-curvature="0" />
      <path
         style="fill:#000000;fill-opacity:0.00784314"
         d="m 15,19.5 0,-0.5 0.5,0 q 0.5,0 0.5,0.5 l 0,0.5 -0.5,0 -0.5,0 0,-0.5"
         id="path15117"
         inkscape:connector-curvature="0" />
      <path
         style="fill:#000000;fill-opacity:0.00392157"
         d="m 9,20.5 0,-0.5 0.5,0 0.5,0 0,0.5 0,0.5 -0.5,0 Q 9,21 9,20.5"
         id="path15119"
         inkscape:connector-curvature="0" />
      <path
         style="fill:#000000;fill-opacity:0.85098039"
         d="m 10,20.5 0,-0.5 0.375,0.125 q 0.375,0.125 0.5,0.5 L 11,21 10.5,21 10,21 10,20.5"
         id="path15121"
         inkscape:connector-curvature="0" />
      <path
         style="fill:#000000;fill-opacity:1"
         d="M 10.875,20.625 10.75,20.25 10.84375,20.53125 10.9375,20.8125 10.875,20.625 q -0.0625,-0.1875 -0.1875,-0.3125 l -0.125,-0.125 0.0625,0.0625 0.0625,0.0625 L 11,20 11.3125,19.6875 11.25,19.625 l -0.0625,-0.0625 0.125,0.125 q 0.125,0.125 0.3125,0.1875 L 11.8125,19.9375 11.53125,19.84375 11.25,19.75 11.625,19.875 Q 12,20 12.5,20 13,20 13.375,19.875 L 13.75,19.75 13.46875,19.84375 13.1875,19.9375 13.375,19.875 q 0.1875,-0.0625 0.3125,-0.1875 l 0.125,-0.125 L 13.75,19.625 13.6875,19.6875 14,20 l 0.3125,0.3125 0.0625,-0.0625 0.0625,-0.0625 -0.125,0.125 q -0.125,0.125 -0.1875,0.3125 L 14.0625,20.8125 14.15625,20.53125 14.25,20.25 14.125,20.625 14,21 13.5,21 13,21 12.5,21 12,21 11.5,21 11,21 10.875,20.625"
         id="path15123"
         inkscape:connector-curvature="0" />
      <path
         style="fill:#000000;fill-opacity:0.88627451"
         d="m 14.125,20.625 q 0.125,-0.375 0.5,-0.5 L 15,20 l 0,0.5 0,0.5 -0.5,0 -0.5,0 0.125,-0.375"
         id="path15125"
         inkscape:connector-curvature="0" />
      <path
         style="fill:#000000;fill-opacity:0.00392157"
         d="m 15,20.5 0,-0.5 0.5,0 0.5,0 0,0.5 Q 16,21 15.5,21 l -0.5,0 0,-0.5"
         id="path15127"
         inkscape:connector-curvature="0" />
      <path
         style="fill:#000000;fill-opacity:0.01176471"
         d="m 10,21.5 0,-0.5 0.5,0 0.5,0 0,0.5 0,0.5 -0.5,0 -0.5,0 0,-0.5"
         id="path15129"
         inkscape:connector-curvature="0" />
      <path
         style="fill:#000000;fill-opacity:0.43529412"
         d="m 11,21.5 0,-0.5 0.5,0 0.5,0 0,0.5 0,0.5 -0.5,0 -0.5,0 0,-0.5"
         id="path15131"
         inkscape:connector-curvature="0" />
      <path
         style="fill:#000000;fill-opacity:0.6745098"
         d="m 12,21.5 0,-0.5 0.5,0 0.5,0 0,0.5 0,0.5 -0.5,0 -0.5,0 0,-0.5"
         id="path15133"
         inkscape:connector-curvature="0" />
      <path
         style="fill:#000000;fill-opacity:0.45098039"
         d="m 13,21.5 0,-0.5 0.5,0 0.5,0 0,0.5 0,0.5 -0.5,0 -0.5,0 0,-0.5"
         id="path15135"
         inkscape:connector-curvature="0" />
      <path
         style="fill:#000000;fill-opacity:0.01960784"
         d="m 14,21.5 0,-0.5 0.5,0 0.5,0 0,0.5 0,0.5 -0.5,0 -0.5,0 0,-0.5"
         id="path15137"
         inkscape:connector-curvature="0" />
    </g>
  </g>
</svg>
