<?xml version="1.0" encoding="UTF-8" standalone="no"?>
<!-- Created with Inkscape (http://www.inkscape.org/) -->

<svg
   xmlns:dc="http://purl.org/dc/elements/1.1/"
   xmlns:cc="http://creativecommons.org/ns#"
   xmlns:rdf="http://www.w3.org/1999/02/22-rdf-syntax-ns#"
   xmlns:svg="http://www.w3.org/2000/svg"
   xmlns="http://www.w3.org/2000/svg"
   xmlns:sodipodi="http://sodipodi.sourceforge.net/DTD/sodipodi-0.dtd"
   xmlns:inkscape="http://www.inkscape.org/namespaces/inkscape"
   width="20"
   height="20"
   viewBox="0 0 20 20"
   id="svg3347"
   version="1.1"
   inkscape:version="0.91 r13725"
   sodipodi:docname="Civ5Icon.ReligionOrthodox.svg">
  <defs
     id="defs3349" />
  <sodipodi:namedview
     id="base"
     pagecolor="#ffffff"
     bordercolor="#666666"
     borderopacity="1.0"
     inkscape:pageopacity="0.0"
     inkscape:pageshadow="2"
     inkscape:zoom="11.2"
     inkscape:cx="6.1091119"
     inkscape:cy="8.5424036"
     inkscape:document-units="px"
     inkscape:current-layer="g27203"
     showgrid="false"
     units="px"
     inkscape:window-width="1477"
     inkscape:window-height="962"
     inkscape:window-x="533"
     inkscape:window-y="95"
     inkscape:window-maximized="0" />
  <metadata
     id="metadata3352">
    <rdf:RDF>
      <cc:Work
         rdf:about="">
        <dc:format>image/svg+xml</dc:format>
        <dc:type
           rdf:resource="http://purl.org/dc/dcmitype/StillImage" />
        <dc:title></dc:title>
      </cc:Work>
    </rdf:RDF>
  </metadata>
  <g
     inkscape:label="Layer 1"
     inkscape:groupmode="layer"
     id="layer1"
     transform="translate(0,-1032.3622)">
    <g
       transform="translate(-0.22321519 1031.8712)"
       id="g27203">
      <g
         transform="translate(-1.249999,-0.35721429)"
         id="g32735">
        <path
           style="fill:#000000;fill-opacity:0"
           d="M 0,0.5 0,0 0.5,0 1,0 1.5,0 2,0 2.5,0 3,0 3.5,0 4,0 4.5,0 5,0 5.5,0 6,0 6.5,0 7,0 7.5,0 8,0 8.5,0 9,0 9.5,0 10,0 l 0.5,0 0.5,0 0.5,0 0.5,0 0.5,0 0.5,0 0.5,0 0.5,0 0.5,0 0.5,0 0.5,0 0.5,0 0.5,0 0.5,0 0.5,0 0.5,0 0.5,0 0.5,0 0.5,0 0.5,0 0.5,0 0.5,0 0.5,0 0.5,0 0,0.5 0,0.5 0,0.5 0,0.5 0,0.5 0,0.5 0,0.5 0,0.5 0,0.5 0,0.5 0,0.5 0,0.5 0,0.5 0,0.5 0,0.5 0,0.5 0,0.5 0,0.5 0,0.5 0,0.5 0,0.5 0,0.5 0,0.5 0,0.5 0,0.5 0,0.5 0,0.5 0,0.5 0,0.5 0,0.5 0,0.5 0,0.5 0,0.5 0,0.5 0,0.5 0,0.5 0,0.5 0,0.5 0,0.5 0,0.5 0,0.5 0,0.5 0,0.5 0,0.5 -0.5,0 L 21,22 20.5,22 20,22 19.5,22 19,22 18.5,22 18,22 17.5,22 17,22 16.5,22 16,22 15.5,22 15,22 14.5,22 14,22 13.5,22 13,22 12.5,22 12,22 11.5,22 11,22 10.5,22 10,22 9.5,22 9,22 8.5,22 8,22 7.5,22 7,22 6.5,22 6,22 5.5,22 5,22 4.5,22 4,22 3.5,22 3,22 2.5,22 2,22 1.5,22 1,22 0.5,22 0,22 0,21.5 0,21 0,20.5 0,20 0,19.5 0,19 0,18.5 0,18 0,17.5 0,17 0,16.5 0,16 0,15.5 0,15 0,14.5 0,14 0,13.5 0,13 0,12.5 0,12 0,11.5 0,11 0,10.5 0,10 0,9.5 0,9 0,8.5 0,8 0,7.5 0,7 0,6.5 0,6 0,5.5 0,5 0,4.5 0,4 0,3.5 0,3 0,2.5 0,2 0,1.5 0,1 0,0.5 M 12.5,20 Q 13,20 13,19.5 l 0,-0.5 0.5,0 Q 14,19 14,18.5 l 0,-0.5 0,-0.5 0,-0.5 0,-0.5 0,-0.5 0.5,0 Q 15,16 15,15.5 L 15,15 15,14.5 Q 15,14 14.625,13.875 14.25,13.75 14.125,13.375 14,13 13.5,13 l -0.5,0 0,-0.5 0,-0.5 0.5,0 0.5,0 0.5,0 0.5,0 0.5,0 Q 16,12 16,11.5 l 0,-0.5 0.5,0 Q 17,11 17,10.5 L 17,10 17,9.5 17,9 17,8.5 Q 17,8 16.5,8 L 16,8 16,7.5 16,7 16,6.5 16,6 16,5.5 Q 16,5 15.5,5 L 15,5 15,4.5 Q 15,4 14.5,4 L 14,4 14,3.5 Q 14,3 13.5,3 L 13,3 13,2.5 Q 13,2 12.5,2 L 12,2 11.5,2 11,2 10.5,2 10,2 9.5,2 Q 9,2 9,2.5 L 9,3 8.5,3 Q 8,3 8,3.5 L 8,4 7.5,4 Q 7,4 7,4.5 L 7,5 6.5,5 Q 6,5 6,5.5 L 6,6 6,6.5 6,7 5.875,7.375 Q 5.75,7.75 5.375,7.875 5,8 5,8.5 L 5,9 5,9.5 5,10 5,10.5 Q 5,11 5.5,11 L 6,11 6,11.5 Q 6,12 6.5,12 L 7,12 7,12.5 7,13 7,13.5 Q 7,14 7.5,14 L 8,14 8,14.5 Q 8,15 8.5,15 L 9,15 9,15.5 9,16 9,16.5 9,17 8.5,17 Q 8,17 8,17.5 L 8,18 8,18.5 Q 8,19 8.5,19 L 9,19 9,19.5 Q 9,20 9.5,20 l 0.5,0 0.5,0 0.5,0 0.5,0 0.5,0 0.5,0"
           id="path32737"
           inkscape:connector-curvature="0" />
        <path
           style="fill:#000000;fill-opacity:0.18039216"
           d="M 9,2.5 Q 9,2 9.5,2 L 10,2 9.875,2.375 Q 9.75,2.75 9.375,2.875 L 9,3 9,2.5"
           id="path32739"
           inkscape:connector-curvature="0" />
        <path
           style="fill:#000000;fill-opacity:0.9254902"
           d="M 9.875,2.375 10,2 10.5,2 11,2 11,2.5 11,3 10.625,3.125 10.25,3.25 10.53125,3.15625 10.8125,3.0625 10.625,3.125 Q 10.4375,3.1875 10.3125,3.3125 L 10.1875,3.4375 10.25,3.375 10.3125,3.3125 10,3 9.6875,2.6875 9.625,2.75 9.5625,2.8125 9.6875,2.6875 Q 9.8125,2.5625 9.875,2.375 L 9.9375,2.1875 9.84375,2.46875 9.75,2.75 9.875,2.375"
           id="path32741"
           inkscape:connector-curvature="0" />
        <path
           style="fill:#000000;fill-opacity:0.8627451"
           d="M 11,2.5 11,2 11.5,2 12,2 12.125,2.375 12.25,2.75 12.15625,2.46875 12.0625,2.1875 12.125,2.375 q 0.0625,0.1875 0.1875,0.3125 l 0.125,0.125 L 12.375,2.75 12.3125,2.6875 12,3 11.6875,3.3125 11.75,3.375 11.8125,3.4375 11.6875,3.3125 Q 11.5625,3.1875 11.375,3.125 L 11.1875,3.0625 11.46875,3.15625 11.75,3.25 11.375,3.125 11,3 11,2.5"
           id="path32743"
           inkscape:connector-curvature="0" />
        <path
           style="fill:#000000;fill-opacity:0.08627451"
           d="M 12.125,2.375 12,2 12.5,2 Q 13,2 13,2.5 L 13,3 12.625,2.875 q -0.375,-0.125 -0.5,-0.5"
           id="path32745"
           inkscape:connector-curvature="0" />
        <path
           style="fill:#000000;fill-opacity:0.18039216"
           d="M 8,3.5 Q 8,3 8.5,3 L 9,3 9,3.5 9,4 8.5,4 8,4 8,3.5"
           id="path32747"
           inkscape:connector-curvature="0" />
        <path
           style="fill:#0b0b0b;fill-opacity:0.95686275"
           d="M 9,3.5 9,3 9.375,2.875 9.75,2.75 9.46875,2.84375 9.1875,2.9375 9.375,2.875 Q 9.5625,2.8125 9.6875,2.6875 L 9.8125,2.5625 9.75,2.625 9.6875,2.6875 10,3 10.3125,3.3125 10.375,3.25 10.4375,3.1875 10.3125,3.3125 Q 10.1875,3.4375 10.125,3.625 L 10.0625,3.8125 10.15625,3.53125 10.25,3.25 10.125,3.625 10,4 9.5,4 9,4 9,3.5"
           id="path32749"
           inkscape:connector-curvature="0" />
        <path
           style="fill:#cdcdcd;fill-opacity:1"
           d="m 10.125,3.625 q 0.125,-0.375 0.5,-0.5 L 11,3 11.125,3.375 11.25,3.75 11.15625,3.46875 11.0625,3.1875 11.125,3.375 q 0.0625,0.1875 0.1875,0.3125 l 0.125,0.125 L 11.375,3.75 11.3125,3.6875 10.984375,3.984375 10.65625,4.28125 10.703125,4.328125 10.75,4.375 10.65625,4.28125 Q 10.5625,4.1875 10.375,4.125 L 10.1875,4.0625 10.46875,4.15625 10.75,4.25 10.375,4.125 10,4 10.125,3.625"
           id="path32751"
           inkscape:connector-curvature="0" />
        <path
           style="fill:#aeaeae;fill-opacity:1"
           d="M 11.125,3.375 11,3 11.375,3.125 q 0.375,0.125 0.5,0.5 L 12,4 11.90625,3.71875 11.8125,3.4375 11.875,3.625 q 0.0625,0.1875 0.09375,0.40625 L 12,4.25 11.984375,4.140625 11.96875,4.03125 11.609375,3.890625 Q 11.25,3.75 11.125,3.375"
           id="path32753"
           inkscape:connector-curvature="0" />
        <path
           style="fill:#050505;fill-opacity:0.88235294"
           d="M 11.875,3.625 11.75,3.25 11.84375,3.53125 11.9375,3.8125 11.875,3.625 Q 11.8125,3.4375 11.6875,3.3125 L 11.5625,3.1875 11.625,3.25 11.6875,3.3125 12,3 12.3125,2.6875 12.25,2.625 12.1875,2.5625 l 0.125,0.125 q 0.125,0.125 0.3125,0.1875 L 12.8125,2.9375 12.53125,2.84375 12.25,2.75 12.625,2.875 13,3 13,3.5 13,4 12.484375,4.015625 11.96875,4.03125 11.984375,4.140625 12,4.25 11.96875,4.03125 Q 11.9375,3.8125 11.875,3.625 L 11.8125,3.4375 11.90625,3.71875 12,4 11.875,3.625"
           id="path32755"
           inkscape:connector-curvature="0" />
        <path
           style="fill:#000000;fill-opacity:0.08627451"
           d="M 13,3.5 13,3 13.5,3 Q 14,3 14,3.5 L 14,4 13.5,4 13,4 13,3.5"
           id="path32757"
           inkscape:connector-curvature="0" />
        <path
           style="fill:#000000;fill-opacity:0.07843137"
           d="M 7,4.5 Q 7,4 7.5,4 L 8,4 7.875,4.375 Q 7.75,4.75 7.375,4.875 L 7,5 7,4.5"
           id="path32759"
           inkscape:connector-curvature="0" />
        <path
           style="fill:#000000;fill-opacity:0.80784314"
           d="M 7.875,4.375 8,4 8.5,4 9,4 9,4.5 9,5 8.625,5.125 8.25,5.25 8.53125,5.15625 8.8125,5.0625 8.625,5.125 Q 8.4375,5.1875 8.3125,5.3125 L 8.1875,5.4375 8.25,5.375 8.3125,5.3125 8,5 7.6875,4.6875 7.625,4.75 7.5625,4.8125 7.6875,4.6875 Q 7.8125,4.5625 7.875,4.375 L 7.9375,4.1875 7.84375,4.46875 7.75,4.75 7.875,4.375"
           id="path32761"
           inkscape:connector-curvature="0" />
        <path
           style="fill:#0c0c0c;fill-opacity:0.99607843"
           d="M 9,4.5 9,4 9.5,4 10,4 10,4.5 10,5 9.5,5 9,5 9,4.5"
           id="path32763"
           inkscape:connector-curvature="0" />
        <path
           style="fill:#f6f6f6;fill-opacity:1"
           d="M 10,4.5 10,4 10.375,4.125 Q 10.75,4.25 10.75,4.5 q 0,0.25 -0.375,0.375 L 10,5 10,4.5"
           id="path32765"
           inkscape:connector-curvature="0" />
        <path
           style="fill:#e2e2e2;fill-opacity:1"
           d="m 10.75,4.5 0,-0.25 0,0.1875 0,0.1875 0,-0.125 q 0,-0.125 -0.09375,-0.21875 L 10.5625,4.1875 10.609375,4.234375 10.65625,4.28125 10.984375,3.984375 11.3125,3.6875 11.25,3.625 11.1875,3.5625 l 0.125,0.125 q 0.125,0.125 0.3125,0.1875 L 11.8125,3.9375 11.53125,3.84375 11.25,3.75 11.609375,3.890625 11.96875,4.03125 11.953125,3.921875 11.9375,3.8125 11.96875,4.03125 Q 12,4.25 12,4.5 L 12,4.75 12,4.375 12,4 12,4.5 12,5 11.625,5.125 11.25,5.25 11.53125,5.15625 11.8125,5.0625 11.625,5.125 Q 11.4375,5.1875 11.34375,5.28125 L 11.25,5.375 11.296875,5.328125 11.34375,5.28125 11,5 10.65625,4.71875 10.609375,4.765625 10.5625,4.8125 10.65625,4.71875 Q 10.75,4.625 10.75,4.5 l 0,-0.125 0,0.1875 0,0.1875 0,-0.25"
           id="path32767"
           inkscape:connector-curvature="0" />
        <path
           style="fill:#000000;fill-opacity:0.98431373"
           d="M 12,4.5 12,4 12,4.375 12,4.75 12,4.5 Q 12,4.25 11.96875,4.03125 L 11.9375,3.8125 11.953125,3.921875 11.96875,4.03125 12.484375,4.015625 13,4 13,4.5 13,5 12.5,5 12,5 12,4.5"
           id="path32769"
           inkscape:connector-curvature="0" />
        <path
           style="fill:#000000;fill-opacity:0.68627451"
           d="M 13,4.5 13,4 13.5,4 14,4 14.125,4.375 14.25,4.75 14.15625,4.46875 14.0625,4.1875 14.125,4.375 q 0.0625,0.1875 0.1875,0.3125 l 0.125,0.125 L 14.375,4.75 14.3125,4.6875 14,5 13.6875,5.3125 13.75,5.375 13.8125,5.4375 13.6875,5.3125 Q 13.5625,5.1875 13.375,5.125 L 13.1875,5.0625 13.46875,5.15625 13.75,5.25 13.375,5.125 13,5 13,4.5"
           id="path32771"
           inkscape:connector-curvature="0" />
        <path
           style="fill:#000000;fill-opacity:0.03137255"
           d="M 14.125,4.375 14,4 14.5,4 Q 15,4 15,4.5 L 15,5 14.625,4.875 q -0.375,-0.125 -0.5,-0.5"
           id="path32773"
           inkscape:connector-curvature="0" />
        <path
           style="fill:#000000;fill-opacity:0.07843137"
           d="M 6,5.5 Q 6,5 6.5,5 L 7,5 7,5.5 7,6 6.5,6 6,6 6,5.5"
           id="path32775"
           inkscape:connector-curvature="0" />
        <path
           style="fill:#050505;fill-opacity:0.87843137"
           d="M 7,5.5 7,5 7.375,4.875 7.75,4.75 7.46875,4.84375 7.1875,4.9375 7.375,4.875 Q 7.5625,4.8125 7.6875,4.6875 L 7.8125,4.5625 7.75,4.625 7.6875,4.6875 8,5 8.3125,5.3125 8.375,5.25 8.4375,5.1875 8.3125,5.3125 Q 8.1875,5.4375 8.125,5.625 L 8.0625,5.8125 8.15625,5.53125 8.25,5.25 8.125,5.625 8,6 7.5,6 7,6 7,5.5"
           id="path32777"
           inkscape:connector-curvature="0" />
        <path
           style="fill:#858585;fill-opacity:1"
           d="M 8.125,5.625 Q 8.25,5.25 8.625,5.125 L 9,5 8.71875,5.09375 8.4375,5.1875 8.625,5.125 Q 8.8125,5.0625 9.03125,5.03125 L 9.25,5 9.140625,5.015625 9.03125,5.03125 9.015625,5.515625 9,6 8.53125,6 8.0625,6 l 0,0.09375 0,0.09375 0,-0.1875 q 0,-0.1875 0.0625,-0.375 L 8.1875,5.4375 8.09375,5.71875 8,6 8.125,5.625 M 8.625,6 9,6 9.125,6 9.25,6 9,6 Q 8.75,6 8.5,6 L 8.25,6 8.625,6"
           id="path32779"
           inkscape:connector-curvature="0" />
        <path
           style="fill:#333333;fill-opacity:1"
           d="M 9,5.5 9,5 9.5,5 10,5 10,5.5 Q 10,6 9.5,6 L 9,6 9,5.5 M 8.875,6 9,6 9.375,6 9.75,6 9.5,6 Q 9.25,6 9,6 L 8.75,6 8.875,6"
           id="path32781"
           inkscape:connector-curvature="0" />
        <path
           style="fill:#cacaca;fill-opacity:1"
           d="M 10,5.5 10,5 10.375,4.875 10.75,4.75 10.46875,4.84375 10.1875,4.9375 10.375,4.875 Q 10.5625,4.8125 10.65625,4.71875 L 10.75,4.625 10.703125,4.671875 10.65625,4.71875 11,5 11.34375,5.28125 11.390625,5.234375 11.4375,5.1875 11.34375,5.28125 Q 11.25,5.375 11.25,5.5 l 0,0.125 0,-0.1875 0,-0.1875 0,0.25 0,0.25 0,-0.1875 0,-0.1875 0,0.125 q 0,0.125 0.09375,0.21875 L 11.4375,5.8125 11.390625,5.765625 11.34375,5.71875 11.015625,6.015625 10.6875,6.3125 10.75,6.375 10.8125,6.4375 10.6875,6.3125 Q 10.5625,6.1875 10.375,6.125 L 10.1875,6.0625 10.46875,6.15625 10.75,6.25 10.3125,6.0625 9.875,5.875 9.8125,5.9375 9.75,6 9.875,5.875 Q 10,5.75 10,5.5 L 10,5.25 10,5.625 10,6 10,5.5"
           id="path32783"
           inkscape:connector-curvature="0" />
        <path
           style="fill:#919191;fill-opacity:1"
           d="m 11.25,5.5 q 0,-0.25 0.375,-0.375 L 12,5 12.015625,5.484375 12.03125,5.96875 12.140625,5.984375 12.25,6 12.03125,5.96875 Q 11.8125,5.9375 11.625,5.875 L 11.4375,5.8125 11.71875,5.90625 12,6 11.625,5.875 Q 11.25,5.75 11.25,5.5"
           id="path32785"
           inkscape:connector-curvature="0" />
        <path
           style="fill:#4d4d4d;fill-opacity:1"
           d="M 12.015625,5.484375 12,5 12.5,5 13,5 13,5.5 13,6 12.5,6 12,6 12.375,6 12.75,6 12.5,6 Q 12.25,6 12.03125,5.96875 L 11.8125,5.9375 11.921875,5.953125 12.03125,5.96875 12.015625,5.484375"
           id="path32787"
           inkscape:connector-curvature="0" />
        <path
           style="fill:#666666;fill-opacity:1"
           d="M 13,5.5 13,5 13.375,5.125 Q 13.75,5.25 13.8125,5.6875 L 13.875,6.125 13.9375,6.1875 14,6.25 13.875,6.125 Q 13.75,6 13.5,6 L 13.25,6 13.625,6 14,6 13.5,6 13,6 13,5.5"
           id="path32789"
           inkscape:connector-curvature="0" />
        <path
           style="fill:#030303;fill-opacity:0.75686275"
           d="M 13.8125,5.6875 13.75,5.25 13.84375,5.53125 13.9375,5.8125 13.875,5.625 Q 13.8125,5.4375 13.6875,5.3125 L 13.5625,5.1875 13.625,5.25 13.6875,5.3125 14,5 14.3125,4.6875 14.25,4.625 14.1875,4.5625 l 0.125,0.125 q 0.125,0.125 0.3125,0.1875 L 14.8125,4.9375 14.53125,4.84375 14.25,4.75 14.625,4.875 15,5 15,5.5 15,6 14.4375,6.0625 13.875,6.125 13.8125,5.6875"
           id="path32791"
           inkscape:connector-curvature="0" />
        <path
           style="fill:#000000;fill-opacity:0.03137255"
           d="M 15,5.5 15,5 15.5,5 Q 16,5 16,5.5 L 16,6 15.5,6 15,6 15,5.5"
           id="path32793"
           inkscape:connector-curvature="0" />
        <path
           style="fill:#000000;fill-opacity:0.40392157"
           d="M 6,6.5 6,6 6.5,6 7,6 7,6.5 7,7 6.5,7 6,7 6,6.5"
           id="path32795"
           inkscape:connector-curvature="0" />
        <path
           style="fill:#272727;fill-opacity:1"
           d="M 7,6.5 7,6 7.5,6 8,6 8.125,6.375 8.25,6.75 8.15625,6.46875 8.0625,6.1875 8.125,6.375 Q 8.1875,6.5625 8.3125,6.6875 L 8.4375,6.8125 8.375,6.75 8.3125,6.6875 8.015625,6.984375 7.71875,7.28125 7.796875,7.328125 7.875,7.375 7.71875,7.28125 Q 7.5625,7.1875 7.375,7.125 L 7.1875,7.0625 7.46875,7.15625 7.75,7.25 7.375,7.125 7,7 7,6.5"
           id="path32797"
           inkscape:connector-curvature="0" />
        <path
           style="fill:#ffffff;fill-opacity:1"
           d="M 8.125,6.375 8,6 8.09375,6.28125 8.1875,6.5625 8.125,6.375 Q 8.0625,6.1875 8.0625,6 l 0,-0.1875 0,0.09375 L 8.0625,6 8.53125,6 9,6 9,6.5 9,7 8.625,6.875 Q 8.25,6.75 8.125,6.375 M 9.125,6 9,6 8.625,6 8.25,6 8.5,6 Q 8.75,6 9,6 L 9.25,6 9.125,6"
           id="path32799"
           inkscape:connector-curvature="0" />
        <path
           style="fill:#fcfcfc;fill-opacity:1"
           d="M 9,6.5 9,6 9.5,6 10,6 9.625,6 9.25,6 9.5,6 Q 9.75,6 9.875,5.875 L 10,5.75 9.9375,5.8125 9.875,5.875 l 0,0.625 0,0.625 L 9.9375,7.1875 10,7.25 9.875,7.125 Q 9.75,7 9.5,7 L 9.25,7 9.625,7 10,7 9.5,7 9,7 9,6.5 M 9.375,6 9,6 8.875,6 8.75,6 9,6 Q 9.25,6 9.5,6 L 9.75,6 9.375,6"
           id="path32801"
           inkscape:connector-curvature="0" />
        <path
           style="fill:#fafafa;fill-opacity:1"
           d="m 9.875,6.5 0,-0.625 0.4375,0.1875 Q 10.75,6.25 10.875,6.625 L 11,7 10.4375,7.0625 9.875,7.125 9.875,6.5"
           id="path32803"
           inkscape:connector-curvature="0" />
        <path
           style="fill:#f7f7f7;fill-opacity:1"
           d="M 10.875,6.625 10.75,6.25 10.84375,6.53125 10.9375,6.8125 10.875,6.625 Q 10.8125,6.4375 10.6875,6.3125 L 10.5625,6.1875 10.625,6.25 10.6875,6.3125 11.015625,6.015625 11.34375,5.71875 11.296875,5.671875 11.25,5.625 11.34375,5.71875 Q 11.4375,5.8125 11.625,5.875 L 11.8125,5.9375 11.53125,5.84375 11.25,5.75 11.625,5.875 12,6 11.71875,5.90625 11.4375,5.8125 11.625,5.875 q 0.1875,0.0625 0.40625,0.09375 L 12.25,6 12.140625,5.984375 12.03125,5.96875 12.015625,6.484375 12,7 11.5,7 11,7 10.875,6.625 M 11.625,7 12,7 12.125,7 12.25,7 12,7 q -0.25,0 -0.5,0 l -0.25,0 0.375,0"
           id="path32805"
           inkscape:connector-curvature="0" />
        <path
           style="fill:#ffffff;fill-opacity:1"
           d="M 12.015625,6.484375 12.03125,5.96875 11.921875,5.953125 11.8125,5.9375 12.03125,5.96875 Q 12.25,6 12.5,6 L 12.75,6 12.375,6 12,6 12.5,6 13,6 13.5,6 q 0.5,0 0.375,0.375 -0.125,0.375 -0.5,0.5 L 13,7 12.5,7 12,7 12.015625,6.484375 M 11.875,7 12,7 12.375,7 12.75,7 12.5,7 Q 12.25,7 12,7 l -0.25,0 0.125,0"
           id="path32807"
           inkscape:connector-curvature="0" />
        <path
           style="fill:#0d0d0d;fill-opacity:1"
           d="M 13.875,6.375 14,6 14,6.375 14,6.75 14,6.5 Q 14,6.25 13.875,6.125 L 13.75,6 13.8125,6.0625 13.875,6.125 14.4375,6.0625 15,6 15,6.5 15,7 14.625,7.125 14.25,7.25 14.53125,7.15625 14.8125,7.0625 14.625,7.125 Q 14.4375,7.1875 14.3125,7.3125 L 14.1875,7.4375 14.25,7.375 14.3125,7.3125 14,7 13.6875,6.6875 13.625,6.75 13.5625,6.8125 13.6875,6.6875 Q 13.8125,6.5625 13.875,6.375 L 13.9375,6.1875 13.84375,6.46875 13.75,6.75 13.875,6.375"
           id="path32809"
           inkscape:connector-curvature="0" />
        <path
           style="fill:#000000;fill-opacity:0.18823529"
           d="M 15,6.5 15,6 15.5,6 16,6 16,6.5 16,7 15.5,7 15,7 15,6.5"
           id="path32811"
           inkscape:connector-curvature="0" />
        <path
           style="fill:#000000;fill-opacity:0.49803922"
           d="M 5.875,7.375 6,7 6.5,7 7,7 7.046875,7.546875 7.09375,8.09375 6.671875,8.171875 Q 6.25,8.25 6.171875,8.671875 L 6.09375,9.09375 5.546875,9.046875 5,9 5,8.5 Q 5,8 5.375,7.875 5.75,7.75 5.875,7.375"
           id="path32813"
           inkscape:connector-curvature="0" />
        <path
           style="fill:#000000;fill-opacity:0.96862745"
           d="M 7.046875,7.546875 7,7 7.375,7.125 Q 7.75,7.25 8,7.5 L 8.25,7.75 8.0625,7.5625 7.875,7.375 8,7.5 Q 8.125,7.625 8.28125,7.71875 L 8.4375,7.8125 8.359375,7.765625 8.28125,7.71875 8,8 7.71875,8.28125 7.796875,8.328125 7.875,8.375 7.71875,8.28125 Q 7.5625,8.1875 7.375,8.125 L 7.1875,8.0625 7.46875,8.15625 7.75,8.25 7.375,8.125 7,8 7.375,8 7.75,8 7.5,8 Q 7.25,8 7.09375,8.09375 L 6.9375,8.1875 7.015625,8.140625 7.09375,8.09375 7.046875,7.546875"
           id="path32815"
           inkscape:connector-curvature="0" />
        <path
           style="fill:#3b3b3b;fill-opacity:1"
           d="M 8,7.5 7.75,7.25 7.9375,7.4375 8.125,7.625 8,7.5 Q 7.875,7.375 7.71875,7.28125 L 7.5625,7.1875 7.640625,7.234375 7.71875,7.28125 8.015625,6.984375 8.3125,6.6875 8.25,6.625 8.1875,6.5625 8.3125,6.6875 Q 8.4375,6.8125 8.625,6.875 L 8.8125,6.9375 8.53125,6.84375 8.25,6.75 8.625,6.875 9,7 9,7.5 9,8 8.625,7.875 Q 8.25,7.75 8,7.5"
           id="path32817"
           inkscape:connector-curvature="0" />
        <path
           style="fill:#0c0c0c;fill-opacity:1"
           d="M 9,7.5 9,7 9.5,7 Q 10,7 10,7.5 L 10,8 9.5,8 9,8 9,7.5"
           id="path32819"
           inkscape:connector-curvature="0" />
        <path
           style="fill:#c0c0c0;fill-opacity:1"
           d="M 10,7.5 10,7 10,7.375 10,7.75 10,7.5 Q 10,7.25 9.875,7.125 L 9.75,7 9.8125,7.0625 9.875,7.125 10.4375,7.0625 11,7 11.125,7.375 11.25,7.75 11.15625,7.46875 11.0625,7.1875 11.125,7.375 q 0.0625,0.1875 0.1875,0.3125 l 0.125,0.125 L 11.375,7.75 11.3125,7.6875 11.015625,7.984375 10.71875,8.28125 10.796875,8.328125 10.875,8.375 10.71875,8.28125 Q 10.5625,8.1875 10.375,8.125 L 10.1875,8.0625 10.46875,8.15625 10.75,8.25 10.375,8.125 10,8 10,7.5 M 11.125,7 11,7 10.625,7 10.25,7 10.5,7 q 0.25,0 0.5,0 l 0.25,0 -0.125,0"
           id="path32821"
           inkscape:connector-curvature="0" />
        <path
           style="fill:#7c7c7c;fill-opacity:1"
           d="M 11.125,7.375 11,7 11.5,7 12,7 12,7.5 12,8 12,7.625 12,7.25 12,7.5 q 0,0.25 0.03125,0.46875 L 12.0625,8.1875 12.046875,8.078125 12.03125,7.96875 11.640625,7.859375 Q 11.25,7.75 11.125,7.375 M 12.125,7 12,7 11.625,7 11.25,7 11.5,7 q 0.25,0 0.5,0 l 0.25,0 -0.125,0 M 11.375,7 11,7 10.875,7 10.75,7 11,7 q 0.25,0 0.5,0 l 0.25,0 -0.375,0"
           id="path32823"
           inkscape:connector-curvature="0" />
        <path
           style="fill:#191919;fill-opacity:1"
           d="M 12,7.5 12,7 12.5,7 13,7 13,7.5 13,8 12.5,8 12,8 12,7.5 M 12.375,7 12,7 11.875,7 11.75,7 12,7 q 0.25,0 0.5,0 l 0.25,0 -0.375,0"
           id="path32825"
           inkscape:connector-curvature="0" />
        <path
           style="fill:#292929;fill-opacity:1"
           d="M 13,7.5 13,7 13.375,6.875 13.75,6.75 13.46875,6.84375 13.1875,6.9375 13.375,6.875 Q 13.5625,6.8125 13.6875,6.6875 L 13.8125,6.5625 13.75,6.625 13.6875,6.6875 14,7 14.3125,7.3125 14.375,7.25 14.4375,7.1875 14.3125,7.3125 Q 14.1875,7.4375 14.125,7.625 L 14.0625,7.8125 14.15625,7.53125 14.25,7.25 14.1875,7.6875 14.125,8.125 13.5625,8.0625 13,8 13,7.5"
           id="path32827"
           inkscape:connector-curvature="0" />
        <path
           style="fill:#000000;fill-opacity:0.95294118"
           d="M 14.1875,7.6875 Q 14.25,7.25 14.625,7.125 L 15,7 15.125,7.375 15.25,7.75 15.15625,7.46875 15.0625,7.1875 15.125,7.375 q 0.0625,0.1875 0.1875,0.3125 l 0.125,0.125 L 15.375,7.75 15.3125,7.6875 15,8 14.6875,8.3125 14.75,8.375 14.8125,8.4375 14.6875,8.3125 Q 14.5625,8.1875 14.375,8.125 L 14.1875,8.0625 14.46875,8.15625 14.75,8.25 14.375,8.125 14,8 14.375,8 14.75,8 14.5,8 Q 14.25,8 14.125,8.125 L 14,8.25 14.0625,8.1875 14.125,8.125 14.1875,7.6875"
           id="path32829"
           inkscape:connector-curvature="0" />
        <path
           style="fill:#000000;fill-opacity:0.31372549"
           d="M 15.125,7.375 15,7 15.5,7 16,7 16,7.5 16,8 15.625,7.875 q -0.375,-0.125 -0.5,-0.5"
           id="path32831"
           inkscape:connector-curvature="0" />
        <path
           style="fill:#383838;fill-opacity:0.99607843"
           d="M 6.171875,8.671875 Q 6.25,8.25 6.671875,8.171875 L 7.09375,8.09375 7.171875,8.046875 7.25,8 7.09375,8.09375 Q 6.9375,8.1875 6.875,8.375 L 6.8125,8.5625 6.90625,8.28125 7,8 6.875,8.375 Q 6.75,8.75 6.375,8.875 L 6,9 6.28125,8.90625 6.5625,8.8125 6.375,8.875 Q 6.1875,8.9375 6.09375,9.09375 L 6,9.25 6.046875,9.171875 6.09375,9.09375 6.171875,8.671875"
           id="path32833"
           inkscape:connector-curvature="0" />
        <path
           style="fill:#bababa;fill-opacity:1"
           d="M 6.875,8.375 Q 7,8 7.375,8.125 7.75,8.25 8,8.5 L 8.25,8.75 8.0625,8.5625 7.875,8.375 8,8.5 Q 8.125,8.625 8.28125,8.71875 L 8.4375,8.8125 8.359375,8.765625 8.28125,8.71875 8,9.03125 7.71875,9.34375 7.765625,9.390625 7.8125,9.4375 7.71875,9.34375 Q 7.625,9.25 7.5,9.25 l -0.125,0 0.1875,0 0.1875,0 -0.25,0 -0.25,0 0.1875,0 0.1875,0 -0.125,0 q -0.125,0 -0.21875,0.09375 L 7.1875,9.4375 7.234375,9.390625 7.28125,9.34375 6.984375,9.015625 6.6875,8.6875 6.625,8.75 6.5625,8.8125 6.6875,8.6875 Q 6.8125,8.5625 6.875,8.375 L 6.9375,8.1875 6.84375,8.46875 6.75,8.75 6.875,8.375"
           id="path32835"
           inkscape:connector-curvature="0" />
        <path
           style="fill:#2b2b2b;fill-opacity:1"
           d="M 8,8.5 7.75,8.25 7.9375,8.4375 8.125,8.625 8,8.5 Q 7.875,8.375 7.71875,8.28125 L 7.5625,8.1875 7.640625,8.234375 7.71875,8.28125 8,8 8.28125,7.71875 8.203125,7.671875 8.125,7.625 8.28125,7.71875 Q 8.4375,7.8125 8.625,7.875 L 8.8125,7.9375 8.53125,7.84375 8.25,7.75 8.625,7.875 9,8 9,8.5 9,9 8.625,8.875 Q 8.25,8.75 8,8.5"
           id="path32837"
           inkscape:connector-curvature="0" />
        <path
           style="fill:#323232;fill-opacity:1"
           d="M 9,8.5 9,8 9.5,8 10,8 9.875,8.375 Q 9.75,8.75 9.375,8.875 L 9,9 9,8.5"
           id="path32839"
           inkscape:connector-curvature="0" />
        <path
           style="fill:#dddddd;fill-opacity:1"
           d="M 9.875,8.375 10,8 10.375,8.125 Q 10.75,8.25 11,8.5 L 11.25,8.75 10.984375,9.046875 10.71875,9.34375 10.765625,9.390625 10.8125,9.4375 10.71875,9.34375 Q 10.625,9.25 10.5,9.25 l -0.125,0 0.1875,0 0.1875,0 -0.25,0 -0.25,0 0.1875,0 0.1875,0 -0.125,0 q -0.125,0 -0.1875,0.0625 L 10.25,9.375 10.28125,9.34375 10.3125,9.3125 10,9 9.6875,8.6875 9.625,8.75 9.5625,8.8125 9.6875,8.6875 Q 9.8125,8.5625 9.875,8.375 L 9.9375,8.1875 9.84375,8.46875 9.75,8.75 9.875,8.375 M 11.3125,8.8125 11.25,8.75 11.0625,8.5625 10.875,8.375 11,8.5 q 0.125,0.125 0.25,0.25 l 0.125,0.125 -0.0625,-0.0625"
           id="path32841"
           inkscape:connector-curvature="0" />
        <path
           style="fill:#bbbbbb;fill-opacity:1"
           d="M 11,8.5 10.75,8.25 10.9375,8.4375 11.125,8.625 11,8.5 Q 10.875,8.375 10.71875,8.28125 L 10.5625,8.1875 10.640625,8.234375 10.71875,8.28125 11.015625,7.984375 11.3125,7.6875 11.25,7.625 11.1875,7.5625 l 0.125,0.125 q 0.125,0.125 0.3125,0.1875 L 11.8125,7.9375 11.53125,7.84375 11.25,7.75 11.640625,7.859375 12.03125,7.96875 12.015625,7.859375 12,7.75 12.03125,7.96875 Q 12.0625,8.1875 12.125,8.375 L 12.1875,8.5625 12.09375,8.28125 12,8 12.125,8.375 12.25,8.75 12.15625,8.46875 12.0625,8.1875 12.125,8.375 q 0.0625,0.1875 0.1875,0.3125 l 0.125,0.125 L 12.375,8.75 12.3125,8.6875 12.015625,8.984375 11.71875,9.28125 11.765625,9.359375 11.8125,9.4375 11.71875,9.28125 Q 11.625,9.125 11.5,9 L 11.375,8.875 11.5625,9.0625 11.75,9.25 11.5,9 Q 11.25,8.75 11,8.5"
           id="path32843"
           inkscape:connector-curvature="0" />
        <path
           style="fill:#2f2f2f;fill-opacity:1"
           d="M 12.125,8.375 12,8 12.5,8 13,8 13,8.5 13,9 12.625,8.875 q -0.375,-0.125 -0.5,-0.5"
           id="path32845"
           inkscape:connector-curvature="0" />
        <path
           style="fill:#3a3a3a;fill-opacity:1"
           d="M 13,8.5 13,8 13.5625,8.0625 14.125,8.125 14.1875,8.0625 14.25,8 14.125,8.125 Q 14,8.25 14,8.5 L 14,8.75 14,8.375 14,8 14,8.5 Q 14,9 13.5,9 L 13,9 13,8.5"
           id="path32847"
           inkscape:connector-curvature="0" />
        <path
           style="fill:#bebebe;fill-opacity:1"
           d="m 14,8.5 q 0,-0.5 0.375,-0.375 0.375,0.125 0.5,0.5 L 15,9 14.4375,8.9375 13.875,8.875 13.8125,8.9375 13.75,9 13.875,8.875 Q 14,8.75 14,8.5 L 14,8.25 14,8.625 14,9 14,8.5"
           id="path32849"
           inkscape:connector-curvature="0" />
        <path
           style="fill:#1c1c1c;fill-opacity:0.98823529"
           d="M 14.875,8.625 14.75,8.25 14.84375,8.53125 14.9375,8.8125 14.875,8.625 Q 14.8125,8.4375 14.6875,8.3125 L 14.5625,8.1875 14.625,8.25 14.6875,8.3125 15,8 15.3125,7.6875 15.25,7.625 15.1875,7.5625 l 0.125,0.125 q 0.125,0.125 0.3125,0.1875 L 15.8125,7.9375 15.53125,7.84375 15.25,7.75 15.625,7.875 16,8 16.125,8.375 16.25,8.75 16.15625,8.46875 16.0625,8.1875 16.125,8.375 q 0.0625,0.1875 0.1875,0.3125 l 0.125,0.125 L 16.375,8.75 16.3125,8.6875 15.984375,8.984375 15.65625,9.28125 15.703125,9.328125 15.75,9.375 15.65625,9.28125 Q 15.5625,9.1875 15.375,9.125 L 15.1875,9.0625 15.46875,9.15625 15.75,9.25 15.375,9.125 15,9 14.875,8.625"
           id="path32851"
           inkscape:connector-curvature="0" />
        <path
           style="fill:#000000;fill-opacity:0.31372549"
           d="M 16.125,8.375 16,8 16.5,8 Q 17,8 17,8.5 L 17,9 16.625,8.875 q -0.375,-0.125 -0.5,-0.5"
           id="path32853"
           inkscape:connector-curvature="0" />
        <path
           style="fill:#000000;fill-opacity:0.8627451"
           d="M 5,9.5 5,9 5.546875,9.046875 6.09375,9.09375 6.140625,9.015625 6.1875,8.9375 6.09375,9.09375 Q 6,9.25 6,9.5 L 6,9.75 6,9.375 6,9 6.125,9.375 6.25,9.75 6.15625,9.46875 6.0625,9.1875 6.125,9.375 Q 6.1875,9.5625 6.3125,9.6875 L 6.4375,9.8125 6.375,9.75 6.3125,9.6875 6,10 5.6875,10.3125 5.75,10.375 5.8125,10.4375 5.6875,10.3125 Q 5.5625,10.1875 5.375,10.125 L 5.1875,10.0625 5.46875,10.15625 5.75,10.25 5.375,10.125 5,10 5,9.5"
           id="path32855"
           inkscape:connector-curvature="0" />
        <path
           style="fill:#aeaeae;fill-opacity:1"
           d="M 6.125,9.375 Q 6,9 6.375,8.875 L 6.75,8.75 6.46875,8.84375 6.1875,8.9375 6.375,8.875 Q 6.5625,8.8125 6.6875,8.6875 L 6.8125,8.5625 6.75,8.625 6.6875,8.6875 6.984375,9.015625 7.28125,9.34375 7.328125,9.296875 7.375,9.25 7.28125,9.34375 Q 7.1875,9.4375 7.125,9.625 L 7.0625,9.8125 7.15625,9.53125 7.25,9.25 7.140625,9.609375 7.03125,9.96875 7.140625,9.984375 7.25,10 7.03125,9.96875 Q 6.8125,9.9375 6.625,9.875 L 6.4375,9.8125 6.71875,9.90625 7,10 6.625,9.875 Q 6.25,9.75 6.125,9.375"
           id="path32857"
           inkscape:connector-curvature="0" />
        <path
           style="fill:#ffffff;fill-opacity:1"
           d="M 7.140625,9.609375 Q 7.25,9.25 7.5,9.25 q 0.25,0 0.375,0.375 L 8,10 7.5,10 7,10 7.375,10 7.75,10 7.5,10 Q 7.25,10 7.03125,9.96875 L 6.8125,9.9375 6.921875,9.953125 7.03125,9.96875 7.140625,9.609375 M 7.625,10 8,10 8.125,10 8.25,10 8,10 q -0.25,0 -0.5,0 l -0.25,0 0.375,0"
           id="path32859"
           inkscape:connector-curvature="0" />
        <path
           style="fill:#eaeaea;fill-opacity:1"
           d="M 7.875,9.625 7.75,9.25 7.84375,9.53125 7.9375,9.8125 7.875,9.625 Q 7.8125,9.4375 7.71875,9.34375 L 7.625,9.25 7.671875,9.296875 7.71875,9.34375 8,9.03125 8.28125,8.71875 8.203125,8.671875 8.125,8.625 8.28125,8.71875 Q 8.4375,8.8125 8.625,8.875 L 8.8125,8.9375 8.53125,8.84375 8.25,8.75 8.625,8.875 9,9 9.375,8.875 9.75,8.75 9.46875,8.84375 9.1875,8.9375 9.375,8.875 Q 9.5625,8.8125 9.6875,8.6875 L 9.8125,8.5625 9.75,8.625 9.6875,8.6875 10,9 10.3125,9.3125 10.34375,9.28125 10.375,9.25 10.3125,9.3125 Q 10.25,9.375 10.25,9.5 l 0,0.125 0,-0.1875 0,-0.1875 0,0.25 0,0.25 0,-0.1875 0,-0.1875 0,0.125 q 0,0.125 0.09375,0.21875 L 10.4375,9.8125 10.390625,9.765625 10.34375,9.71875 10.015625,10.015625 9.6875,10.3125 9.75,10.375 9.8125,10.4375 9.6875,10.3125 Q 9.5625,10.1875 9.375,10.125 L 9.1875,10.0625 9.46875,10.15625 9.75,10.25 9.375,10.125 9,10 8.5,10 8,10 7.875,9.625 M 7.875,10 8,10 8.375,10 8.75,10 8.5,10 Q 8.25,10 8,10 l -0.25,0 0.125,0"
           id="path32861"
           inkscape:connector-curvature="0" />
        <path
           style="fill:#fafafa;fill-opacity:1"
           d="m 10.25,9.5 q 0,-0.25 0.25,-0.25 0.25,0 0.375,0.375 L 11,10 10.625,9.875 Q 10.25,9.75 10.25,9.5"
           id="path32863"
           inkscape:connector-curvature="0" />
        <path
           style="fill:#f7f7f7;fill-opacity:1"
           d="M 10.875,9.625 10.75,9.25 10.84375,9.53125 10.9375,9.8125 10.875,9.625 Q 10.8125,9.4375 10.71875,9.34375 L 10.625,9.25 10.671875,9.296875 10.71875,9.34375 10.984375,9.046875 11.25,8.75 11.5,9 q 0.25,0.25 0.375,0.625 L 12,10 11.5,10 11,10 10.875,9.625 M 11.4375,8.9375 11.25,8.75 11.1875,8.6875 11.125,8.625 11.25,8.75 Q 11.375,8.875 11.5,9 l 0.125,0.125 -0.1875,-0.1875"
           id="path32865"
           inkscape:connector-curvature="0" />
        <path
           style="fill:#eaeaea;fill-opacity:1"
           d="M 11.875,9.625 11.75,9.25 11.84375,9.53125 11.9375,9.8125 11.875,9.625 Q 11.8125,9.4375 11.71875,9.28125 L 11.625,9.125 11.671875,9.203125 11.71875,9.28125 12.015625,8.984375 12.3125,8.6875 12.25,8.625 12.1875,8.5625 l 0.125,0.125 q 0.125,0.125 0.3125,0.1875 L 12.8125,8.9375 12.53125,8.84375 12.25,8.75 12.625,8.875 13,9 13,9.5 13,10 12.5,10 12,10 11.875,9.625"
           id="path32867"
           inkscape:connector-curvature="0" />
        <path
           style="fill:#efefef;fill-opacity:1"
           d="M 13,9.5 13,9 13.5,9 14,9 13.625,9 13.25,9 13.5,9 q 0.25,0 0.375,-0.125 L 14,8.75 13.9375,8.8125 13.875,8.875 13.9375,9.4375 14,10 13.5,10 13,10 13,9.5 M 13.625,10 14,10 14.125,10 14.25,10 14,10 q -0.25,0 -0.5,0 l -0.25,0 0.375,0"
           id="path32869"
           inkscape:connector-curvature="0" />
        <path
           style="fill:#ffffff;fill-opacity:1"
           d="M 13.9375,9.4375 13.875,8.875 14.4375,8.9375 15,9 15,9.5 15,10 14.5,10 14,10 13.9375,9.4375 M 13.875,10 14,10 l 0.375,0 0.375,0 -0.25,0 q -0.25,0 -0.5,0 l -0.25,0 0.125,0"
           id="path32871"
           inkscape:connector-curvature="0" />
        <path
           style="fill:#696969;fill-opacity:1"
           d="M 15,9.5 15,9 15.375,9.125 Q 15.75,9.25 15.75,9.5 q 0,0.25 -0.375,0.375 L 15,10 15,9.5"
           id="path32873"
           inkscape:connector-curvature="0" />
        <path
           style="fill:#000000;fill-opacity:0.69019608"
           d="m 15.75,9.5 0,-0.25 0,0.1875 0,0.1875 0,-0.125 q 0,-0.125 -0.09375,-0.21875 L 15.5625,9.1875 15.609375,9.234375 15.65625,9.28125 15.984375,8.984375 16.3125,8.6875 16.25,8.625 16.1875,8.5625 l 0.125,0.125 q 0.125,0.125 0.3125,0.1875 L 16.8125,8.9375 16.53125,8.84375 16.25,8.75 16.625,8.875 17,9 17,9.5 17,10 16.625,10.125 16.25,10.25 16.53125,10.15625 16.8125,10.0625 16.625,10.125 q -0.1875,0.0625 -0.3125,0.1875 l -0.125,0.125 L 16.25,10.375 16.3125,10.3125 15.984375,10.015625 15.65625,9.71875 15.609375,9.765625 15.5625,9.8125 15.65625,9.71875 Q 15.75,9.625 15.75,9.5 l 0,-0.125 0,0.1875 0,0.1875 0,-0.25"
           id="path32875"
           inkscape:connector-curvature="0" />
        <path
           style="fill:#000000;fill-opacity:0.11372549"
           d="M 5,10.5 5,10 5.375,10.125 q 0.375,0.125 0.5,0.5 L 6,11 5.5,11 Q 5,11 5,10.5"
           id="path32877"
           inkscape:connector-curvature="0" />
        <path
           style="fill:#080808;fill-opacity:0.94509804"
           d="M 5.875,10.625 5.75,10.25 5.84375,10.53125 5.9375,10.8125 5.875,10.625 Q 5.8125,10.4375 5.6875,10.3125 L 5.5625,10.1875 5.625,10.25 5.6875,10.3125 6,10 6.3125,9.6875 6.25,9.625 6.1875,9.5625 6.3125,9.6875 Q 6.4375,9.8125 6.625,9.875 L 6.8125,9.9375 6.53125,9.84375 6.25,9.75 6.625,9.875 7,10 6.71875,9.90625 6.4375,9.8125 6.625,9.875 Q 6.8125,9.9375 7.03125,9.96875 L 7.25,10 7.140625,9.984375 7.03125,9.96875 7.140625,10.359375 7.25,10.75 7.15625,10.46875 7.0625,10.1875 7.125,10.375 q 0.0625,0.1875 0.15625,0.28125 L 7.375,10.75 7.328125,10.703125 7.28125,10.65625 6.984375,10.984375 6.6875,11.3125 6.75,11.375 6.8125,11.4375 6.6875,11.3125 Q 6.5625,11.1875 6.375,11.125 L 6.1875,11.0625 6.46875,11.15625 6.75,11.25 6.375,11.125 6,11 5.875,10.625"
           id="path32879"
           inkscape:connector-curvature="0" />
        <path
           style="fill:#353535;fill-opacity:1"
           d="M 7.140625,10.359375 7.03125,9.96875 6.921875,9.953125 6.8125,9.9375 7.03125,9.96875 Q 7.25,10 7.5,10 L 7.75,10 7.375,10 7,10 7.5,10 8,10 7.875,10.375 Q 7.75,10.75 7.5,10.75 7.25,10.75 7.140625,10.359375 M 8.125,10 8,10 7.625,10 7.25,10 7.5,10 q 0.25,0 0.5,0 l 0.25,0 -0.125,0"
           id="path32881"
           inkscape:connector-curvature="0" />
        <path
           style="fill:#000000;fill-opacity:0.98823529"
           d="M 7.875,10.375 8,10 8.5,10 9,10 9,10.5 9,11 8.625,11.125 8.25,11.25 8.53125,11.15625 8.8125,11.0625 8.625,11.125 Q 8.4375,11.1875 8.28125,11.28125 L 8.125,11.375 8.203125,11.328125 8.28125,11.28125 8,10.96875 7.71875,10.65625 7.671875,10.703125 7.625,10.75 7.71875,10.65625 Q 7.8125,10.5625 7.875,10.375 L 7.9375,10.1875 7.84375,10.46875 7.75,10.75 7.875,10.375 M 8.375,10 8,10 7.875,10 7.75,10 8,10 q 0.25,0 0.5,0 l 0.25,0 -0.375,0"
           id="path32883"
           inkscape:connector-curvature="0" />
        <path
           style="fill:#000000;fill-opacity:1"
           d="M 9,10.5 9,10 9.375,10.125 q 0.375,0.125 0.5,0.5 L 10,11 9.5,11 9,11 9,10.5"
           id="path32885"
           inkscape:connector-curvature="0" />
        <path
           style="fill:#c6c6c6;fill-opacity:1"
           d="M 9.875,10.625 9.75,10.25 9.84375,10.53125 9.9375,10.8125 9.875,10.625 Q 9.8125,10.4375 9.6875,10.3125 L 9.5625,10.1875 9.625,10.25 9.6875,10.3125 10.015625,10.015625 10.34375,9.71875 10.296875,9.671875 10.25,9.625 10.34375,9.71875 Q 10.4375,9.8125 10.625,9.875 L 10.8125,9.9375 10.53125,9.84375 10.25,9.75 10.625,9.875 11,10 10.71875,9.90625 10.4375,9.8125 10.625,9.875 q 0.1875,0.0625 0.40625,0.09375 L 11.25,10 11.140625,9.984375 11.03125,9.96875 11.015625,10.484375 11,11 10.5,11 10,11 9.875,10.625"
           id="path32887"
           inkscape:connector-curvature="0" />
        <path
           style="fill:#878787;fill-opacity:1"
           d="M 11.015625,10.484375 11.03125,9.96875 10.921875,9.953125 10.8125,9.9375 11.03125,9.96875 Q 11.25,10 11.5,10 l 0.25,0 -0.375,0 -0.375,0 0.5,0 0.5,0 0,0.5 0,0.5 -0.5,0 -0.5,0 0.01563,-0.515625 M 12.125,10 12,10 l -0.375,0 -0.375,0 0.25,0 q 0.25,0 0.5,0 l 0.25,0 -0.125,0"
           id="path32889"
           inkscape:connector-curvature="0" />
        <path
           style="fill:#000000;fill-opacity:0.99607843"
           d="m 12,10.5 0,-0.5 0.5,0 0.5,0 0,0.5 0,0.5 -0.5,0 -0.5,0 0,-0.5 M 12.375,10 12,10 11.875,10 11.75,10 12,10 q 0.25,0 0.5,0 l 0.25,0 -0.375,0"
           id="path32891"
           inkscape:connector-curvature="0" />
        <path
           style="fill:#020202;fill-opacity:0.99607843"
           d="m 13,10.5 0,-0.5 0.5,0 0.5,0 0.125,0.375 0.125,0.375 -0.09375,-0.28125 -0.09375,-0.28125 0.0625,0.1875 q 0.0625,0.1875 0.15625,0.28125 L 14.375,10.75 14.328125,10.703125 14.28125,10.65625 13.984375,10.984375 13.6875,11.3125 13.75,11.375 l 0.0625,0.0625 -0.125,-0.125 Q 13.5625,11.1875 13.375,11.125 L 13.1875,11.0625 13.46875,11.15625 13.75,11.25 13.375,11.125 13,11 13,10.5 M 14.125,10 14,10 l -0.375,0 -0.375,0 0.25,0 q 0.25,0 0.5,0 l 0.25,0 -0.125,0"
           id="path32893"
           inkscape:connector-curvature="0" />
        <path
           style="fill:#393939;fill-opacity:1"
           d="M 14.125,10.375 14,10 l 0.5,0 0.5,0 -0.125,0.375 Q 14.75,10.75 14.5,10.75 q -0.25,0 -0.375,-0.375 M 14.375,10 14,10 13.875,10 13.75,10 14,10 q 0.25,0 0.5,0 l 0.25,0 -0.375,0"
           id="path32895"
           inkscape:connector-curvature="0" />
        <path
           style="fill:#000000;fill-opacity:0.84705882"
           d="M 14.875,10.375 15,10 15.375,9.875 15.75,9.75 15.46875,9.84375 15.1875,9.9375 15.375,9.875 Q 15.5625,9.8125 15.65625,9.71875 L 15.75,9.625 15.703125,9.671875 15.65625,9.71875 15.984375,10.015625 16.3125,10.3125 16.375,10.25 l 0.0625,-0.0625 -0.125,0.125 q -0.125,0.125 -0.1875,0.3125 L 16.0625,10.8125 16.15625,10.53125 16.25,10.25 16.125,10.625 16,11 15.625,11.125 15.25,11.25 15.53125,11.15625 15.8125,11.0625 15.625,11.125 q -0.1875,0.0625 -0.3125,0.1875 l -0.125,0.125 L 15.25,11.375 15.3125,11.3125 15.015625,10.984375 14.71875,10.65625 14.671875,10.703125 14.625,10.75 14.71875,10.65625 Q 14.8125,10.5625 14.875,10.375 L 14.9375,10.1875 14.84375,10.46875 14.75,10.75 14.875,10.375"
           id="path32897"
           inkscape:connector-curvature="0" />
        <path
           style="fill:#000000;fill-opacity:0.00784314"
           d="m 16.125,10.625 q 0.125,-0.375 0.5,-0.5 L 17,10 17,10.5 Q 17,11 16.5,11 l -0.5,0 0.125,-0.375"
           id="path32899"
           inkscape:connector-curvature="0" />
        <path
           style="fill:#000000;fill-opacity:0.11372549"
           d="M 6,11.5 6,11 6.375,11.125 q 0.375,0.125 0.5,0.5 L 7,12 6.5,12 Q 6,12 6,11.5"
           id="path32901"
           inkscape:connector-curvature="0" />
        <path
           style="fill:#000000;fill-opacity:0.49019608"
           d="M 6.875,11.625 6.75,11.25 6.84375,11.53125 6.9375,11.8125 6.875,11.625 Q 6.8125,11.4375 6.6875,11.3125 L 6.5625,11.1875 6.625,11.25 6.6875,11.3125 6.984375,10.984375 7.28125,10.65625 7.234375,10.609375 7.1875,10.5625 7.28125,10.65625 Q 7.375,10.75 7.5,10.75 l 0.125,0 -0.1875,0 -0.1875,0 0.25,0 0.25,0 -0.1875,0 -0.1875,0 0.125,0 q 0.125,0 0.21875,-0.09375 L 7.8125,10.5625 7.765625,10.609375 7.71875,10.65625 8,10.96875 8.28125,11.28125 8.359375,11.234375 8.4375,11.1875 8.28125,11.28125 Q 8.125,11.375 8,11.5 L 7.875,11.625 8.0625,11.4375 8.25,11.25 8,11.5 Q 7.75,11.75 7.375,11.875 L 7,12 6.875,11.625"
           id="path32903"
           inkscape:connector-curvature="0" />
        <path
           style="fill:#000000;fill-opacity:0.89411765"
           d="M 8,11.5 Q 8.25,11.25 8.625,11.125 L 9,11 9,11.5 9,12 8.625,12.125 Q 8.25,12.25 8.25,12.5 l 0,0.25 0,-0.1875 0,-0.1875 0,0.125 q 0,0.125 0.0625,0.25 L 8.375,12.875 8.34375,12.8125 8.3125,12.75 8,13.03125 7.6875,13.3125 7.75,13.375 7.8125,13.4375 7.6875,13.3125 Q 7.5625,13.1875 7.375,13.125 L 7.1875,13.0625 7.46875,13.15625 7.75,13.25 7.375,13.125 7,13 7,12.5 7,12 7.375,11.875 Q 7.75,11.75 8,11.5"
           id="path32905"
           inkscape:connector-curvature="0" />
        <path
           style="fill:#000000;fill-opacity:0.98823529"
           d="M 9,11.5 9,11 9.5,11 10,11 9.875,11.375 q -0.125,0.375 -0.5,0.5 L 9,12 9,11.5"
           id="path32907"
           inkscape:connector-curvature="0" />
        <path
           style="fill:#c1c1c1;fill-opacity:1"
           d="M 9.875,11.375 10,11 l 0.5,0 0.5,0 0,0.5 0,0.5 -0.375,0.125 -0.375,0.125 0.28125,-0.09375 0.28125,-0.09375 -0.1875,0.0625 q -0.1875,0.0625 -0.34375,0.15625 L 10.125,12.375 10.203125,12.328125 10.28125,12.28125 9.984375,11.984375 9.6875,11.6875 9.625,11.75 9.5625,11.8125 9.6875,11.6875 Q 9.8125,11.5625 9.875,11.375 L 9.9375,11.1875 9.84375,11.46875 9.75,11.75 9.875,11.375"
           id="path32909"
           inkscape:connector-curvature="0" />
        <path
           style="fill:#8a8a8a;fill-opacity:1"
           d="m 11,11.5 0,-0.5 0.5,0 0.5,0 0,0.5 0,0.5 -0.5,0 -0.5,0 0,-0.5"
           id="path32911"
           inkscape:connector-curvature="0" />
        <path
           style="fill:#000000;fill-opacity:0.77647059"
           d="m 12,11.5 0,-0.5 0.5,0 0.5,0 0,0.5 0,0.5 -0.5,0 -0.5,0 0,-0.5"
           id="path32913"
           inkscape:connector-curvature="0" />
        <path
           style="fill:#000000;fill-opacity:0.03921569"
           d="m 13,11.5 0,-0.5 0.375,0.125 q 0.375,0.125 0.5,0.5 L 14,12 13.5,12 13,12 13,11.5"
           id="path32915"
           inkscape:connector-curvature="0" />
        <path
           style="fill:#000000;fill-opacity:0.50196078"
           d="M 13.875,11.625 13.75,11.25 13.84375,11.53125 13.9375,11.8125 13.875,11.625 q -0.0625,-0.1875 -0.1875,-0.3125 l -0.125,-0.125 0.0625,0.0625 0.0625,0.0625 0.296875,-0.328125 0.296875,-0.328125 -0.04687,-0.04687 -0.04687,-0.04687 0.09375,0.09375 Q 14.375,10.75 14.5,10.75 l 0.125,0 -0.1875,0 -0.1875,0 0.25,0 0.25,0 -0.1875,0 -0.1875,0 0.125,0 q 0.125,0 0.21875,-0.09375 l 0.09375,-0.09375 -0.04687,0.04687 -0.04687,0.04687 0.296875,0.328125 0.296875,0.328125 0.0625,-0.0625 0.0625,-0.0625 -0.125,0.125 q -0.125,0.125 -0.1875,0.3125 L 15.0625,11.8125 15.15625,11.53125 15.25,11.25 15.125,11.625 15,12 14.5,12 14,12 13.875,11.625"
           id="path32917"
           inkscape:connector-curvature="0" />
        <path
           style="fill:#000000;fill-opacity:0.00784314"
           d="m 15.125,11.625 q 0.125,-0.375 0.5,-0.5 L 16,11 16,11.5 Q 16,12 15.5,12 l -0.5,0 0.125,-0.375"
           id="path32919"
           inkscape:connector-curvature="0" />
        <path
           style="fill:#bdbdbd;fill-opacity:1"
           d="m 8.25,12.5 q 0,-0.25 0.375,-0.375 L 9,12 9.125,12.375 9.25,12.75 9.15625,12.46875 9.0625,12.1875 9.125,12.375 q 0.0625,0.1875 0.15625,0.28125 L 9.375,12.75 9.328125,12.703125 9.28125,12.65625 9.015625,12.953125 8.75,13.25 8.5,13 Q 8.25,12.75 8.25,12.5 M 8.5625,13.0625 8.75,13.25 8.8125,13.3125 8.875,13.375 8.75,13.25 Q 8.625,13.125 8.5,13 l -0.125,-0.125 0.1875,0.1875"
           id="path32921"
           inkscape:connector-curvature="0" />
        <path
           style="fill:#aeaeae;fill-opacity:1"
           d="M 9.125,12.375 9,12 9.375,11.875 9.75,11.75 9.46875,11.84375 9.1875,11.9375 9.375,11.875 q 0.1875,-0.0625 0.3125,-0.1875 l 0.125,-0.125 -0.0625,0.0625 -0.0625,0.0625 0.296875,0.296875 0.296875,0.296875 0.07813,-0.04687 0.07813,-0.04687 -0.15625,0.09375 Q 10.125,12.375 10,12.5 L 9.875,12.625 10.0625,12.4375 10.25,12.25 10,12.5 q -0.25,0.25 -0.5,0.25 -0.25,0 -0.375,-0.375"
           id="path32923"
           inkscape:connector-curvature="0" />
        <path
           style="fill:#d9d9d9;fill-opacity:1"
           d="m 10,12.5 q 0.25,-0.25 0.625,-0.375 L 11,12 11.125,12.375 11.25,12.75 11.15625,12.46875 11.0625,12.1875 11.125,12.375 q 0.0625,0.1875 0.1875,0.3125 l 0.125,0.125 L 11.375,12.75 11.3125,12.6875 11.03125,13 10.75,13.3125 10.8125,13.34375 10.875,13.375 10.75,13.3125 Q 10.625,13.25 10.5,13.25 l -0.125,0 0.1875,0 0.1875,0 -0.25,0 -0.25,0 0.1875,0 0.1875,0 -0.125,0 q -0.125,0 -0.1875,0.0625 L 10.25,13.375 10.28125,13.34375 10.3125,13.3125 10.03125,13 9.75,12.6875 9.6875,12.71875 9.625,12.75 9.75,12.6875 Q 9.875,12.625 10,12.5 L 10.125,12.375 9.9375,12.5625 9.75,12.75 10,12.5"
           id="path32925"
           inkscape:connector-curvature="0" />
        <path
           style="fill:#717171;fill-opacity:1"
           d="M 11.125,12.375 11,12 l 0.5,0 0.5,0 0,0.5 0,0.5 0,-0.375 0,-0.375 0,0.25 q 0,0.25 0.03125,0.46875 L 12.0625,13.1875 12.046875,13.078125 12.03125,12.96875 11.640625,12.859375 Q 11.25,12.75 11.125,12.375"
           id="path32927"
           inkscape:connector-curvature="0" />
        <path
           style="fill:#000000;fill-opacity:0.8"
           d="m 12,12.5 0,-0.5 0.5,0 0.5,0 0,0.5 0,0.5 -0.484375,-0.01563 -0.484375,-0.01563 0.01563,0.109375 0.01563,0.109375 -0.03125,-0.21875 Q 12,12.75 12,12.5 l 0,-0.25 0,0.375 0,0.375 0,-0.5"
           id="path32929"
           inkscape:connector-curvature="0" />
        <path
           style="fill:#000000;fill-opacity:0.37254902"
           d="M 7,13.5 7,13 7.375,13.125 q 0.375,0.125 0.5,0.5 L 8,14 7.5,14 Q 7,14 7,13.5"
           id="path32931"
           inkscape:connector-curvature="0" />
        <path
           style="fill:#232323;fill-opacity:0.99607843"
           d="M 7.875,13.625 7.75,13.25 7.84375,13.53125 7.9375,13.8125 7.875,13.625 Q 7.8125,13.4375 7.6875,13.3125 L 7.5625,13.1875 7.625,13.25 7.6875,13.3125 8,13.03125 8.3125,12.75 8.28125,12.6875 8.25,12.625 8.3125,12.75 Q 8.375,12.875 8.5,13 L 8.625,13.125 8.4375,12.9375 8.25,12.75 8.5,13 Q 8.75,13.25 9,13.5 L 9.25,13.75 8.96875,14.03125 8.6875,14.3125 8.75,14.375 8.8125,14.4375 8.6875,14.3125 Q 8.5625,14.1875 8.375,14.125 L 8.1875,14.0625 8.46875,14.15625 8.75,14.25 8.375,14.125 8,14 7.875,13.625 M 9.3125,13.8125 9.25,13.75 9.0625,13.5625 8.875,13.375 9,13.5 q 0.125,0.125 0.25,0.25 l 0.125,0.125 -0.0625,-0.0625"
           id="path32933"
           inkscape:connector-curvature="0" />
        <path
           style="fill:#cacaca;fill-opacity:1"
           d="M 9,13.5 8.75,13.25 9.015625,12.953125 9.28125,12.65625 9.234375,12.609375 9.1875,12.5625 9.28125,12.65625 Q 9.375,12.75 9.5,12.75 l 0.125,0 -0.1875,0 -0.1875,0 0.25,0 0.25,0 -0.1875,0 -0.1875,0 0.125,0 q 0.125,0 0.25,-0.0625 L 9.875,12.625 9.8125,12.65625 9.75,12.6875 10.03125,13 10.3125,13.3125 10.34375,13.28125 10.375,13.25 10.3125,13.3125 Q 10.25,13.375 10.25,13.5 l 0,0.125 0,-0.1875 0,-0.1875 0,0.25 0,0.25 0,-0.1875 0,-0.1875 0,0.125 q 0,0.125 0.0625,0.25 L 10.375,13.875 10.34375,13.8125 10.3125,13.75 10.015625,14.015625 9.71875,14.28125 9.765625,14.359375 9.8125,14.4375 9.71875,14.28125 Q 9.625,14.125 9.5,14 L 9.375,13.875 9.5625,14.0625 9.75,14.25 9.5,14 Q 9.25,13.75 9,13.5 M 8.6875,13.1875 8.75,13.25 8.9375,13.4375 9.125,13.625 9,13.5 Q 8.875,13.375 8.75,13.25 l -0.125,-0.125 0.0625,0.0625"
           id="path32935"
           inkscape:connector-curvature="0" />
        <path
           style="fill:#fbfbfb;fill-opacity:1"
           d="m 10.25,13.5 q 0,-0.25 0.25,-0.25 0.25,0 0.5,0.25 L 11.25,13.75 10.96875,14 10.6875,14.25 10.71875,14.3125 10.75,14.375 10.6875,14.25 Q 10.625,14.125 10.5,14 L 10.375,13.875 10.5625,14.0625 10.75,14.25 10.5,14 Q 10.25,13.75 10.25,13.5 M 11.3125,13.8125 11.25,13.75 11.0625,13.5625 10.875,13.375 11,13.5 q 0.125,0.125 0.25,0.25 l 0.125,0.125 -0.0625,-0.0625"
           id="path32937"
           inkscape:connector-curvature="0" />
        <path
           style="fill:#cfcfcf;fill-opacity:1"
           d="M 11,13.5 10.75,13.25 10.9375,13.4375 11.125,13.625 11,13.5 Q 10.875,13.375 10.75,13.3125 L 10.625,13.25 10.6875,13.28125 10.75,13.3125 11.03125,13 11.3125,12.6875 11.25,12.625 l -0.0625,-0.0625 0.125,0.125 q 0.125,0.125 0.3125,0.1875 L 11.8125,12.9375 11.53125,12.84375 11.25,12.75 11.640625,12.859375 12.03125,12.96875 12.015625,12.859375 12,12.75 12.03125,12.96875 Q 12.0625,13.1875 12.125,13.375 L 12.1875,13.5625 12.09375,13.28125 12,13 12.125,13.375 12.25,13.75 12.15625,13.46875 12.0625,13.1875 12.125,13.375 q 0.0625,0.1875 0.1875,0.3125 l 0.125,0.125 -0.0625,-0.0625 -0.0625,-0.0625 -0.296875,0.296875 -0.296875,0.296875 0.04687,0.07813 0.04687,0.07813 -0.09375,-0.15625 Q 11.625,14.125 11.5,14 L 11.375,13.875 11.5625,14.0625 11.75,14.25 11.5,14 Q 11.25,13.75 11,13.5"
           id="path32939"
           inkscape:connector-curvature="0" />
        <path
           style="fill:#1b1b1b;fill-opacity:1"
           d="M 12.125,13.375 12,13 12.09375,13.28125 12.1875,13.5625 12.125,13.375 Q 12.0625,13.1875 12.03125,12.96875 L 12,12.75 l 0.01563,0.109375 0.01563,0.109375 0.484375,0.01563 L 13,13 l 0,0.5 0,0.5 -0.375,-0.125 q -0.375,-0.125 -0.5,-0.5"
           id="path32941"
           inkscape:connector-curvature="0" />
        <path
           style="fill:#000000;fill-opacity:0.82352941"
           d="m 13,13.5 0,-0.5 0.5,0 q 0.5,0 0.625,0.375 L 14.25,13.75 14.15625,13.46875 14.0625,13.1875 14.125,13.375 q 0.0625,0.1875 0.1875,0.3125 l 0.125,0.125 L 14.375,13.75 14.3125,13.6875 13.984375,13.984375 13.65625,14.28125 13.70312,14.32812 13.75,14.375 13.65625,14.28125 Q 13.5625,14.1875 13.375,14.125 L 13.1875,14.0625 13.46875,14.15625 13.75,14.25 13.375,14.125 13,14 13,13.5"
           id="path32943"
           inkscape:connector-curvature="0" />
        <path
           style="fill:#000000;fill-opacity:0.37254902"
           d="M 8,14.5 8,14 8.375,14.125 q 0.375,0.125 0.5,0.5 L 9,15 8.5,15 Q 8,15 8,14.5"
           id="path32945"
           inkscape:connector-curvature="0" />
        <path
           style="fill:#000000;fill-opacity:0.99215686"
           d="M 8.875,14.625 8.75,14.25 8.84375,14.53125 8.9375,14.8125 8.875,14.625 Q 8.8125,14.4375 8.6875,14.3125 L 8.5625,14.1875 8.625,14.25 8.6875,14.3125 8.96875,14.03125 9.25,13.75 9.5,14 q 0.25,0.25 0.375,0.625 L 10,15 9.5,15 9,15 8.875,14.625 M 9.4375,13.9375 9.25,13.75 9.1875,13.6875 9.125,13.625 9.25,13.75 Q 9.375,13.875 9.5,14 l 0.125,0.125 -0.1875,-0.1875"
           id="path32947"
           inkscape:connector-curvature="0" />
        <path
           style="fill:#b8b8b8;fill-opacity:1"
           d="M 9.875,14.625 9.75,14.25 9.84375,14.53125 9.9375,14.8125 9.875,14.625 Q 9.8125,14.4375 9.71875,14.28125 L 9.625,14.125 9.671875,14.203125 9.71875,14.28125 10.015625,14.015625 10.3125,13.75 10.28125,13.6875 10.25,13.625 10.3125,13.75 Q 10.375,13.875 10.5,14 L 10.625,14.125 10.4375,13.9375 10.25,13.75 10.5,14 q 0.25,0.25 0.25,0.5 0,0.25 -0.375,0.375 L 10,15 9.875,14.625"
           id="path32949"
           inkscape:connector-curvature="0" />
        <path
           style="fill:#f4f4f4;fill-opacity:1"
           d="m 10.75,14.5 0,-0.25 0,0.1875 0,0.1875 0,-0.125 q 0,-0.125 -0.0625,-0.25 L 10.625,14.125 10.65625,14.1875 10.6875,14.25 10.96875,14 11.25,13.75 11.5,14 q 0.25,0.25 0.390625,0.640625 L 12.03125,15.03125 12.140625,15.015625 12.25,15 12.03125,15.03125 Q 11.8125,15.0625 11.625,15.125 L 11.4375,15.1875 11.71875,15.09375 12,15 11.625,15.125 11.25,15.25 11.53125,15.15625 11.8125,15.0625 11.625,15.125 q -0.1875,0.0625 -0.3125,0.1875 l -0.125,0.125 0.0625,-0.0625 0.0625,-0.0625 -0.328125,-0.296875 -0.328125,-0.296875 -0.04687,0.04687 -0.04687,0.04687 0.09375,-0.09375 Q 10.75,14.625 10.75,14.5 l 0,-0.125 0,0.1875 0,0.1875 0,-0.25 M 11.4375,13.9375 11.25,13.75 11.1875,13.6875 11.125,13.625 11.25,13.75 q 0.125,0.125 0.25,0.25 l 0.125,0.125 -0.1875,-0.1875"
           id="path32951"
           inkscape:connector-curvature="0" />
        <path
           style="fill:#fdfdfd;fill-opacity:1"
           d="M 11.890625,14.640625 11.75,14.25 11.84375,14.53125 11.9375,14.8125 11.875,14.625 Q 11.8125,14.4375 11.71875,14.28125 L 11.625,14.125 l 0.04687,0.07813 0.04687,0.07813 0.296875,-0.296875 L 12.3125,13.6875 12.25,13.625 l -0.0625,-0.0625 0.125,0.125 q 0.125,0.125 0.3125,0.1875 L 12.8125,13.9375 12.53125,13.84375 12.25,13.75 12.625,13.875 13,14 13,14.5 Q 13,15 12.5,15 l -0.5,0 0.375,0 0.375,0 -0.25,0 q -0.25,0 -0.46875,0.03125 L 11.8125,15.0625 11.921875,15.04687 12.03125,15.03124 11.890625,14.640615 M 13.09375,14.03125 13,14 12.71875,13.90625 12.4375,13.8125 12.625,13.875 Q 12.8125,13.9375 13,14 l 0.1875,0.0625 -0.09375,-0.03125"
           id="path32953"
           inkscape:connector-curvature="0" />
        <path
           style="fill:#7c7c7c;fill-opacity:1"
           d="m 13,14.5 0,-0.5 0.375,0.125 q 0.375,0.125 0.375,0.375 0,0.25 -0.4375,0.3125 L 12.875,14.875 12.8125,14.9375 12.75,15 12.875,14.875 Q 13,14.75 13,14.5 l 0,-0.25 0,0.375 0,0.375 0,-0.5 M 13.28125,14.09375 13,14 12.90625,13.96875 12.8125,13.9375 13,14 q 0.1875,0.0625 0.375,0.125 l 0.1875,0.0625 -0.28125,-0.09375"
           id="path32955"
           inkscape:connector-curvature="0" />
        <path
           style="fill:#000000;fill-opacity:0.74117647"
           d="m 13.75,14.5 0,-0.25 0,0.1875 0,0.1875 0,-0.125 q 0,-0.125 -0.09375,-0.21875 l -0.09375,-0.09375 0.04687,0.04687 0.04687,0.04687 0.328125,-0.296875 L 14.3125,13.6875 14.25,13.625 l -0.0625,-0.0625 0.125,0.125 q 0.125,0.125 0.3125,0.1875 L 14.8125,13.9375 14.53125,13.84375 14.25,13.75 14.625,13.875 Q 15,14 15,14.5 L 15,15 14.625,15.125 14.25,15.25 14.53125,15.15625 14.8125,15.0625 14.625,15.125 q -0.1875,0.0625 -0.3125,0.1875 l -0.125,0.125 0.0625,-0.0625 0.0625,-0.0625 -0.328125,-0.296875 -0.328125,-0.296875 -0.04687,0.04687 -0.04687,0.04687 0.09375,-0.09375 Q 13.75,14.625 13.75,14.5 l 0,-0.125 0,0.1875 0,0.1875 0,-0.25"
           id="path32957"
           inkscape:connector-curvature="0" />
        <path
           style="fill:#000000;fill-opacity:0.90980392"
           d="M 9,15.5 9,15 9.5,15 10,15 10,15.5 10,16 9.5,16 9,16 9,15.5"
           id="path32959"
           inkscape:connector-curvature="0" />
        <path
           style="fill:#c5c5c5;fill-opacity:1"
           d="M 10,15.5 10,15 10.375,14.875 10.75,14.75 10.46875,14.84375 10.1875,14.9375 10.375,14.875 q 0.1875,-0.0625 0.28125,-0.15625 L 10.75,14.625 l -0.04687,0.04687 -0.04687,0.04687 0.328125,0.296875 0.328125,0.296875 0.0625,-0.0625 0.0625,-0.0625 -0.125,0.125 q -0.125,0.125 -0.1875,0.3125 L 11.0625,15.8125 11.15625,15.53125 11.25,15.25 11.125,15.625 11,16 10.5,16 10,16 10,15.5"
           id="path32961"
           inkscape:connector-curvature="0" />
        <path
           style="fill:#7c7c7c;fill-opacity:1"
           d="m 11.125,15.625 q 0.125,-0.375 0.5,-0.5 L 12,15 11.71875,15.09375 11.4375,15.1875 11.625,15.125 q 0.1875,-0.0625 0.40625,-0.09375 L 12.25,15 12.140625,15.015625 12.03125,15.03125 12.015625,15.515625 12,16 11.5,16 11,16 11.125,15.625"
           id="path32963"
           inkscape:connector-curvature="0" />
        <path
           style="fill:#272727;fill-opacity:1"
           d="m 12.015625,15.515625 0.01563,-0.484375 -0.109375,0.01563 -0.109375,0.01563 0.21875,-0.03125 Q 12.25,15 12.5,15 l 0.25,0 -0.375,0 -0.375,0 0.5,0 0.5,0 -0.375,0 -0.375,0 0.25,0 q 0.25,0 0.375,-0.125 L 13,14.75 12.9375,14.8125 12.875,14.875 12.9375,15.4375 13,16 12.5,16 12,16 12.01563,15.515625"
           id="path32965"
           inkscape:connector-curvature="0" />
        <path
           style="fill:#2e2e2e;fill-opacity:0.94901961"
           d="M 12.9375,15.4375 12.875,14.875 13.3125,14.8125 13.75,14.75 13.46875,14.84375 13.1875,14.9375 13.375,14.875 q 0.1875,-0.0625 0.28125,-0.15625 L 13.75,14.625 l -0.04687,0.04687 -0.04687,0.04687 0.328125,0.296875 0.328125,0.296875 0.0625,-0.0625 0.0625,-0.0625 -0.125,0.125 q -0.125,0.125 -0.1875,0.3125 L 14.0625,15.8125 14.15625,15.53125 14.25,15.25 14.125,15.625 14,16 13.5,16 13,16 12.9375,15.4375"
           id="path32967"
           inkscape:connector-curvature="0" />
        <path
           style="fill:#000000;fill-opacity:0.42745098"
           d="m 14.125,15.625 q 0.125,-0.375 0.5,-0.5 L 15,15 15,15.5 Q 15,16 14.5,16 l -0.5,0 0.125,-0.375"
           id="path32969"
           inkscape:connector-curvature="0" />
        <path
           style="fill:#000000;fill-opacity:0.94117647"
           d="M 9,16.5 9,16 9.5,16 10,16 10,16.5 10,17 9.5,17 9,17 9,16.5 m 1,0.625 0,-0.125 0,-0.375 0,-0.375 0,0.25 q 0,0.25 0,0.5 l 0,0.25 0,-0.125"
           id="path32971"
           inkscape:connector-curvature="0" />
        <path
           style="fill:#c6c6c6;fill-opacity:1"
           d="m 10,16.5 0,-0.5 0.5,0 0.5,0 0.125,0.375 0.125,0.375 -0.09375,-0.28125 -0.09375,-0.28125 0.0625,0.1875 q 0.0625,0.1875 0.1875,0.3125 l 0.125,0.125 L 11.375,16.75 11.3125,16.6875 11,17 l -0.3125,0.3125 0.0625,0.0625 0.0625,0.0625 -0.125,-0.125 Q 10.5625,17.1875 10.375,17.125 L 10.1875,17.0625 10.46875,17.15625 10.75,17.25 10.375,17.125 10,17 10,16.5 m 0,0.125 0,0.375 0,0.125 0,0.125 0,-0.25 q 0,-0.25 0,-0.5 l 0,-0.25 0,0.375"
           id="path32973"
           inkscape:connector-curvature="0" />
        <path
           style="fill:#838383;fill-opacity:1"
           d="M 11.125,16.375 11,16 l 0.5,0 0.5,0 0,0.5 0,0.5 -0.375,-0.125 q -0.375,-0.125 -0.5,-0.5 M 12,17.125 12,17 l 0,-0.375 0,-0.375 0,0.25 q 0,0.25 0,0.5 l 0,0.25 0,-0.125"
           id="path32975"
           inkscape:connector-curvature="0" />
        <path
           style="fill:#000000;fill-opacity:0.87843137"
           d="m 12,16.5 0,-0.5 0.5,0 0.5,0 0,0.5 0,0.5 -0.5,0 -0.5,0 0,-0.5"
           id="path32977"
           inkscape:connector-curvature="0" />
        <path
           style="fill:#000000;fill-opacity:0.42745098"
           d="m 13,16.5 0,-0.5 0.5,0 0.5,0 0,0.5 0,0.5 -0.5,0 -0.5,0 0,-0.5"
           id="path32979"
           inkscape:connector-curvature="0" />
        <path
           style="fill:#000000;fill-opacity:0.31372549"
           d="M 8,17.5 Q 8,17 8.5,17 L 9,17 9,17.5 9,18 8.5,18 8,18 8,17.5"
           id="path32981"
           inkscape:connector-curvature="0" />
        <path
           style="fill:#1b1b1b;fill-opacity:1"
           d="m 9,17.5 0,-0.5 0.5,0 0.5,0 0,0.5 0,0.5 0,-0.375 0,-0.375 0,0.25 q 0,0.25 0.03125,0.46875 L 10.0625,18.1875 10.046875,18.078125 10.03125,17.96875 9.515625,17.984375 9,18 9,17.5 M 10,17.375 10,17 10,16.875 10,16.75 10,17 q 0,0.25 0,0.5 l 0,0.25 0,-0.375"
           id="path32983"
           inkscape:connector-curvature="0" />
        <path
           style="fill:#fdfdfd;fill-opacity:1"
           d="m 10,17.5 0,-0.5 0.375,0.125 q 0.375,0.125 0.5,0.5 L 11,18 10.515625,17.984375 10.03125,17.96875 10.046875,18.078125 10.0625,18.1875 10.03125,17.96875 Q 10,17.75 10,17.5 l 0,-0.25 0,0.375 0,0.375 0,-0.5 m 0,-0.625 0,0.125 0,0.375 0,0.375 0,-0.25 q 0,-0.25 0,-0.5 l 0,-0.25 0,0.125"
           id="path32985"
           inkscape:connector-curvature="0" />
        <path
           style="fill:#efefef;fill-opacity:1"
           d="M 10.875,17.625 10.75,17.25 10.84375,17.53125 10.9375,17.8125 10.875,17.625 q -0.0625,-0.1875 -0.1875,-0.3125 l -0.125,-0.125 0.0625,0.0625 0.0625,0.0625 L 11,17 11.3125,16.6875 11.25,16.625 l -0.0625,-0.0625 0.125,0.125 q 0.125,0.125 0.3125,0.1875 L 11.8125,16.9375 11.53125,16.84375 11.25,16.75 11.625,16.875 12,17 l 0,0.5 0,0.5 0,-0.375 0,-0.375 0,0.25 q 0,0.25 -0.03125,0.46875 L 11.9375,18.1875 11.95313,18.078125 11.96876,17.96875 11.484385,17.98438 11,18 10.875,17.625 M 12,17.375 12,17 12,16.875 12,16.75 12,17 q 0,0.25 0,0.5 l 0,0.25 0,-0.375"
           id="path32987"
           inkscape:connector-curvature="0" />
        <path
           style="fill:#090909;fill-opacity:0.98823529"
           d="m 12,17.5 0,-0.5 0.5,0 0.5,0 0,0.5 0,0.5 -0.5,0 -0.5,0 0,-0.5"
           id="path32989"
           inkscape:connector-curvature="0" />
        <path
           style="fill:#000000;fill-opacity:0.14509804"
           d="m 13,17.5 0,-0.5 0.5,0 0.5,0 0,0.5 0,0.5 -0.5,0 -0.5,0 0,-0.5"
           id="path32991"
           inkscape:connector-curvature="0" />
        <path
           style="fill:#000000;fill-opacity:0.11372549"
           d="M 8,18.5 8,18 8.5,18 9,18 9,18.5 9,19 8.5,19 Q 8,19 8,18.5"
           id="path32993"
           inkscape:connector-curvature="0" />
        <path
           style="fill:#060606;fill-opacity:0.90588235"
           d="M 9,18.5 9,18 9.515625,17.984375 10.03125,17.96875 10.015625,17.859375 10,17.75 10.03125,17.96875 Q 10.0625,18.1875 10.125,18.375 L 10.1875,18.5625 10.09375,18.28125 10,18 10.125,18.375 10.25,18.75 10.15625,18.46875 10.0625,18.1875 10.125,18.375 q 0.0625,0.1875 0.1875,0.3125 l 0.125,0.125 L 10.375,18.75 10.3125,18.6875 10,19 9.6875,19.3125 9.75,19.375 9.8125,19.4375 9.6875,19.3125 Q 9.5625,19.1875 9.375,19.125 L 9.1875,19.0625 9.46875,19.15625 9.75,19.25 9.375,19.125 9,19 9,18.5"
           id="path32995"
           inkscape:connector-curvature="0" />
        <path
           style="fill:#a1a1a1;fill-opacity:1"
           d="M 10.125,18.375 10,18 10.09375,18.28125 10.1875,18.5625 10.125,18.375 Q 10.0625,18.1875 10.03125,17.96875 L 10,17.75 l 0.01563,0.109375 0.01563,0.109375 0.484375,0.01563 L 11,18 l 0,0.5 0,0.5 -0.375,-0.125 q -0.375,-0.125 -0.5,-0.5"
           id="path32997"
           inkscape:connector-curvature="0" />
        <path
           style="fill:#7c7c7c;fill-opacity:1"
           d="M 11,18.5 11,18 11.484375,17.98437 11.96875,17.96874 11.98438,17.859365 12,17.75 11.96875,17.96875 Q 11.9375,18.1875 11.875,18.375 L 11.8125,18.5625 11.90625,18.28125 12,18 11.875,18.375 q -0.125,0.375 -0.5,0.5 L 11,19 11,18.5"
           id="path32999"
           inkscape:connector-curvature="0" />
        <path
           style="fill:#030303;fill-opacity:0.8"
           d="M 11.875,18.375 12,18 l 0.5,0 0.5,0 0,0.5 0,0.5 -0.375,0.125 -0.375,0.125 0.28125,-0.09375 0.28125,-0.09375 -0.1875,0.0625 q -0.1875,0.0625 -0.3125,0.1875 l -0.125,0.125 L 12.25,19.375 12.3125,19.3125 12,19 11.6875,18.6875 11.625,18.75 l -0.0625,0.0625 0.125,-0.125 q 0.125,-0.125 0.1875,-0.3125 L 11.9375,18.1875 11.84375,18.46875 11.75,18.75 11.875,18.375"
           id="path33001"
           inkscape:connector-curvature="0" />
        <path
           style="fill:#000000;fill-opacity:0.04705882"
           d="m 13,18.5 0,-0.5 0.5,0 0.5,0 0,0.5 Q 14,19 13.5,19 l -0.5,0 0,-0.5"
           id="path33003"
           inkscape:connector-curvature="0" />
        <path
           style="fill:#000000;fill-opacity:0.11372549"
           d="M 9,19.5 9,19 9.375,19.125 q 0.375,0.125 0.5,0.5 L 10,20 9.5,20 Q 9,20 9,19.5"
           id="path33005"
           inkscape:connector-curvature="0" />
        <path
           style="fill:#000000;fill-opacity:0.83137255"
           d="M 9.875,19.625 9.75,19.25 9.84375,19.53125 9.9375,19.8125 9.875,19.625 Q 9.8125,19.4375 9.6875,19.3125 L 9.5625,19.1875 9.625,19.25 9.6875,19.3125 10,19 10.3125,18.6875 10.25,18.625 l -0.0625,-0.0625 0.125,0.125 q 0.125,0.125 0.3125,0.1875 L 10.8125,18.9375 10.53125,18.84375 10.25,18.75 10.625,18.875 11,19 11,19.5 11,20 10.5,20 10,20 9.875,19.625"
           id="path33007"
           inkscape:connector-curvature="0" />
        <path
           style="fill:#000000;fill-opacity:0.74117647"
           d="M 11,19.5 11,19 11.375,18.875 11.75,18.75 11.46875,18.84375 11.1875,18.9375 11.375,18.875 q 0.1875,-0.0625 0.3125,-0.1875 l 0.125,-0.125 L 11.75,18.625 11.6875,18.6875 12,19 l 0.3125,0.3125 0.0625,-0.0625 0.0625,-0.0625 -0.125,0.125 q -0.125,0.125 -0.1875,0.3125 L 12.0625,19.8125 12.15625,19.53125 12.25,19.25 12.125,19.625 12,20 11.5,20 11,20 11,19.5"
           id="path33009"
           inkscape:connector-curvature="0" />
        <path
           style="fill:#000000;fill-opacity:0.04705882"
           d="m 12.125,19.625 q 0.125,-0.375 0.5,-0.5 L 13,19 13,19.5 Q 13,20 12.5,20 l -0.5,0 0.125,-0.375"
           id="path33011"
           inkscape:connector-curvature="0" />
      </g>
    </g>
  </g>
</svg>
