<?xml version="1.0" encoding="UTF-8" standalone="no"?>
<!-- Created with Inkscape (http://www.inkscape.org/) -->

<svg
   xmlns:dc="http://purl.org/dc/elements/1.1/"
   xmlns:cc="http://creativecommons.org/ns#"
   xmlns:rdf="http://www.w3.org/1999/02/22-rdf-syntax-ns#"
   xmlns:svg="http://www.w3.org/2000/svg"
   xmlns="http://www.w3.org/2000/svg"
   xmlns:sodipodi="http://sodipodi.sourceforge.net/DTD/sodipodi-0.dtd"
   xmlns:inkscape="http://www.inkscape.org/namespaces/inkscape"
   width="20"
   height="20"
   viewBox="0 0 20 20"
   id="svg3347"
   version="1.1"
   inkscape:version="0.91 r13725"
   sodipodi:docname="Civ5Icon.Team1.svg">
  <defs
     id="defs3349" />
  <sodipodi:namedview
     id="base"
     pagecolor="#ffffff"
     bordercolor="#666666"
     borderopacity="1.0"
     inkscape:pageopacity="0.0"
     inkscape:pageshadow="2"
     inkscape:zoom="11.2"
     inkscape:cx="7.324946"
     inkscape:cy="8.5424036"
     inkscape:document-units="px"
     inkscape:current-layer="g27203"
     showgrid="false"
     units="px"
     inkscape:window-width="1477"
     inkscape:window-height="962"
     inkscape:window-x="533"
     inkscape:window-y="95"
     inkscape:window-maximized="0" />
  <metadata
     id="metadata3352">
    <rdf:RDF>
      <cc:Work
         rdf:about="">
        <dc:format>image/svg+xml</dc:format>
        <dc:type
           rdf:resource="http://purl.org/dc/dcmitype/StillImage" />
        <dc:title></dc:title>
      </cc:Work>
    </rdf:RDF>
  </metadata>
  <g
     inkscape:label="Layer 1"
     inkscape:groupmode="layer"
     id="layer1"
     transform="translate(0,-1032.3622)">
    <g
       transform="translate(-0.22321519 1031.8712)"
       id="g27203">
      <g
         transform="translate(-0.44642673,-0.26792884)"
         id="g63928">
        <path
           style="fill:#000000;fill-opacity:0"
           d="M 0,0.5 0,0 0.5,0 1,0 1.5,0 2,0 2.5,0 3,0 3.5,0 4,0 4.5,0 5,0 5.5,0 6,0 6.5,0 7,0 7.5,0 8,0 8.5,0 9,0 9.5,0 10,0 l 0.5,0 0.5,0 0.5,0 0.5,0 0.5,0 0.5,0 0.5,0 0.5,0 0.5,0 0.5,0 0.5,0 0.5,0 0.5,0 0.5,0 0.5,0 0.5,0 0.5,0 0.5,0 0.5,0 0.5,0 0.5,0 0.5,0 0.5,0 0.5,0 0,0.5 0,0.5 0,0.5 0,0.5 0,0.5 0,0.5 0,0.5 0,0.5 0,0.5 0,0.5 0,0.5 0,0.5 0,0.5 0,0.5 0,0.5 0,0.5 0,0.5 0,0.5 0,0.5 0,0.5 0,0.5 0,0.5 0,0.5 0,0.5 0,0.5 0,0.5 0,0.5 0,0.5 0,0.5 0,0.5 0,0.5 0,0.5 0,0.5 0,0.5 0,0.5 0,0.5 0,0.5 0,0.5 0,0.5 0,0.5 0,0.5 0,0.5 0,0.5 0,0.5 -0.5,0 L 21,22 20.5,22 20,22 19.5,22 19,22 18.5,22 18,22 17.5,22 17,22 16.5,22 16,22 15.5,22 15,22 14.5,22 14,22 13.5,22 13,22 12.5,22 12,22 11.5,22 11,22 10.5,22 10,22 9.5,22 9,22 8.5,22 8,22 7.5,22 7,22 6.5,22 6,22 5.5,22 5,22 4.5,22 4,22 3.5,22 3,22 2.5,22 2,22 1.5,22 1,22 0.5,22 0,22 0,21.5 0,21 0,20.5 0,20 0,19.5 0,19 0,18.5 0,18 0,17.5 0,17 0,16.5 0,16 0,15.5 0,15 0,14.5 0,14 0,13.5 0,13 0,12.5 0,12 0,11.5 0,11 0,10.5 0,10 0,9.5 0,9 0,8.5 0,8 0,7.5 0,7 0,6.5 0,6 0,5.5 0,5 0,4.5 0,4 0,3.5 0,3 0,2.5 0,2 0,1.5 0,1 0,0.5 M 14.625,20.875 15,21 15.375,20.875 q 0.375,-0.125 0.5,-0.5 L 16,20 15.875,19.625 Q 15.75,19.25 15.5,19 15.25,18.75 15.125,18.375 15,18 14.625,17.875 14.25,17.75 14.125,17.375 14,17 13.625,16.875 13.25,16.75 13.125,16.375 13,16 12.625,15.875 12.25,15.75 12.125,15.375 L 12,15 12,14.5 12,14 12.125,13.625 Q 12.25,13.25 12.5,13.25 q 0.25,0 0.375,0.375 Q 13,14 13.5,14 l 0.5,0 0.375,0.125 q 0.375,0.125 0.640625,-0.171875 l 0.265625,-0.296875 -0.04687,-0.04687 -0.04687,-0.04687 0.09375,0.09375 Q 15.375,13.75 15.5,13.75 l 0.125,0 -0.1875,0 -0.1875,0 0.25,0 0.25,0 -0.1875,0 -0.1875,0 0.125,0 q 0.125,0 0.21875,-0.09375 l 0.09375,-0.09375 -0.04687,0.04687 -0.04687,0.04687 0.265625,0.296875 Q 16.25,14.25 16.625,14.125 L 17,14 l 0.5,0 q 0.5,0 0.625,-0.375 0.125,-0.375 0.5,-0.5 0.375,-0.125 0.5,-0.5 0.125,-0.375 0.5,-0.5 Q 20,12 20,11.5 L 20,11 20.125,10.625 Q 20.25,10.25 19.96875,9.96875 L 19.6875,9.6875 19.625,9.75 19.5625,9.8125 19.6875,9.6875 Q 19.8125,9.5625 19.875,9.375 L 19.9375,9.1875 19.84375,9.46875 19.75,9.75 19.875,9.375 Q 20,9 20,8.5 L 20,8 20,8.375 20,8.75 20,8.5 Q 20,8.25 19.875,8.125 L 19.75,8 19.8125,8.0625 19.875,8.125 19.8125,7.6875 19.75,7.25 19.84375,7.53125 19.9375,7.8125 19.875,7.625 Q 19.8125,7.4375 19.71875,7.28125 L 19.625,7.125 19.671875,7.203125 19.71875,7.28125 19.984375,7.015625 Q 20.25,6.75 20.125,6.375 20,6 19.5,6 L 19,6 19,5.5 Q 19,5 18.625,4.875 18.25,4.75 18.125,4.375 18,4 17.625,3.875 17.25,3.75 17.125,3.375 17,3 16.5,3 L 16,3 16,2.5 Q 16,2 15.625,1.875 15.25,1.75 15.125,1.375 15,1 14.5,1 L 14,1 13.5,1 13,1 12.5,1 Q 12,1 12,1.5 L 12,2 11.875,2.375 Q 11.75,2.75 11.375,2.875 11,3 11,3.5 L 11,4 10.875,4.375 Q 10.75,4.75 10.5,4.75 10.25,4.75 10.125,4.375 10,4 9.625,3.875 9.25,3.75 9.125,3.375 9,3 8.5,3 L 8,3 7.5,3 Q 7,3 6.875,3.375 6.75,3.75 6.375,3.875 L 6,4 5.5,4 Q 5,4 4.875,4.375 4.75,4.75 4.375,4.875 4,5 4,5.5 L 4,6 3.875,6.375 Q 3.75,6.75 3.5,6.75 3.25,6.75 2.984375,7.046875 L 2.71875,7.34375 2.765625,7.390625 2.8125,7.4375 2.71875,7.34375 Q 2.625,7.25 2.5,7.25 l -0.125,0 0.1875,0 0.1875,0 -0.25,0 -0.25,0 0.1875,0 0.1875,0 -0.125,0 q -0.125,0 -0.21875,0.09375 L 2.1875,7.4375 2.234375,7.390625 2.28125,7.34375 2.015625,7.046875 Q 1.75,6.75 1.375,6.875 1,7 0.875,7.375 0.75,7.75 1.046875,8.015625 L 1.34375,8.28125 1.390625,8.234375 1.4375,8.1875 1.34375,8.28125 Q 1.25,8.375 1.25,8.5 l 0,0.125 0,-0.1875 0,-0.1875 0,0.25 0,0.25 0,-0.1875 0,-0.1875 0,0.125 q 0,0.125 0.09375,0.21875 L 1.4375,8.8125 1.390625,8.765625 1.34375,8.71875 1.046875,8.984375 Q 0.75,9.25 0.875,9.625 1,10 1.375,10.125 q 0.375,0.125 0.5,0.5 0.125,0.375 0.5,0.5 0.375,0.125 0.5,0.5 0.125,0.375 0.5,0.5 0.375,0.125 0.5,0.5 Q 4,13 4.375,13.125 4.75,13.25 5.015625,12.984375 L 5.28125,12.71875 5.234375,12.640625 5.1875,12.5625 5.28125,12.71875 Q 5.375,12.875 5.5,13 L 5.625,13.125 5.4375,12.9375 5.25,12.75 5.5,13 q 0.25,0.25 0.5,0.5 0.25,0.25 0.5,0.5 0.25,0.25 0.375,0.625 0.125,0.375 0.5,0.5 0.375,0.125 0.5,0.5 0.125,0.375 0.5,0.5 0.375,0.125 0.5,0.5 0.125,0.375 0.5,0.5 0.375,0.125 0.5,0.5 0.125,0.375 0.5,0.5 0.375,0.125 0.5,0.5 0.125,0.375 0.5,0.5 0.375,0.125 0.5,0.5 0.125,0.375 0.5,0.5 0.375,0.125 0.65625,-0.15625 L 13.3125,19.6875 13.25,19.625 l -0.0625,-0.0625 0.125,0.125 q 0.125,0.125 0.3125,0.1875 L 13.8125,19.9375 13.53125,19.84375 13.25,19.75 13.625,19.875 14,20 l 0.125,0.375 q 0.125,0.375 0.5,0.5"
           id="path63930"
           inkscape:connector-curvature="0" />
        <path
           style="fill:#000000;fill-opacity:0.2"
           d="M 12,1.5 Q 12,1 12.5,1 L 13,1 12.875,1.375 q -0.125,0.375 -0.5,0.5 L 12,2 12,1.5"
           id="path63932"
           inkscape:connector-curvature="0" />
        <path
           style="fill:#0c0c0c;fill-opacity:0.69411765"
           d="M 12.875,1.375 13,1 13.5,1 14,1 14.125,1.375 14.25,1.75 14.15625,1.46875 14.0625,1.1875 14.125,1.375 q 0.0625,0.1875 0.15625,0.34375 L 14.375,1.875 14.328125,1.796875 14.28125,1.71875 14.015625,2.015625 13.75,2.3125 13.8125,2.34375 13.875,2.375 13.75,2.3125 Q 13.625,2.25 13.5,2.25 l -0.125,0 0.1875,0 0.1875,0 -0.25,0 -0.25,0 0.1875,0 0.1875,0 -0.125,0 q -0.125,0 -0.21875,0.09375 L 13.1875,2.4375 13.234375,2.390625 13.28125,2.34375 12.984375,2.015625 12.6875,1.6875 12.625,1.75 12.5625,1.8125 12.6875,1.6875 Q 12.8125,1.5625 12.875,1.375 L 12.9375,1.1875 12.84375,1.46875 12.75,1.75 12.875,1.375"
           id="path63934"
           inkscape:connector-curvature="0" />
        <path
           style="fill:#000000;fill-opacity:0.03921569"
           d="M 14.125,1.375 14,1 14.5,1 Q 15,1 15.125,1.375 L 15.25,1.75 15.15625,1.46875 15.0625,1.1875 15.125,1.375 q 0.0625,0.1875 0.1875,0.3125 l 0.125,0.125 L 15.375,1.75 15.3125,1.6875 15.03125,1.96875 14.75,2.25 14.5,2 Q 14.25,1.75 14.125,1.375 M 14.5625,2.0625 14.75,2.25 14.8125,2.3125 14.875,2.375 14.75,2.25 Q 14.625,2.125 14.5,2 l -0.125,-0.125 0.1875,0.1875"
           id="path63936"
           inkscape:connector-curvature="0" />
        <path
           style="fill:#0e0e0e;fill-opacity:0.59215686"
           d="M 11.875,2.375 12,2 12.375,1.875 12.75,1.75 12.46875,1.84375 12.1875,1.9375 12.375,1.875 Q 12.5625,1.8125 12.6875,1.6875 L 12.8125,1.5625 12.75,1.625 12.6875,1.6875 12.984375,2.015625 13.28125,2.34375 13.328125,2.296875 13.375,2.25 13.28125,2.34375 Q 13.1875,2.4375 13.125,2.625 L 13.0625,2.8125 13.15625,2.53125 13.25,2.25 13.125,2.625 13,3 12.625,3.125 12.25,3.25 12.53125,3.15625 12.8125,3.0625 12.625,3.125 Q 12.4375,3.1875 12.3125,3.3125 L 12.1875,3.4375 12.25,3.375 12.3125,3.3125 12,3 11.6875,2.6875 11.625,2.75 11.5625,2.8125 11.6875,2.6875 Q 11.8125,2.5625 11.875,2.375 L 11.9375,2.1875 11.84375,2.46875 11.75,2.75 11.875,2.375"
           id="path63938"
           inkscape:connector-curvature="0" />
        <path
           style="fill:#c5c5c5;fill-opacity:1"
           d="M 13.125,2.625 Q 13.25,2.25 13.5,2.25 13.75,2.25 14,2.5 L 14.25,2.75 13.96875,3.03125 13.6875,3.3125 13.75,3.375 13.8125,3.4375 13.6875,3.3125 Q 13.5625,3.1875 13.375,3.125 L 13.1875,3.0625 13.46875,3.15625 13.75,3.25 13.375,3.125 13,3 13.125,2.625 M 14.3125,2.8125 14.25,2.75 14.0625,2.5625 13.875,2.375 14,2.5 q 0.125,0.125 0.25,0.25 l 0.125,0.125 -0.0625,-0.0625"
           id="path63940"
           inkscape:connector-curvature="0" />
        <path
           style="fill:#363636;fill-opacity:0.84705882"
           d="M 14,2.5 13.75,2.25 13.9375,2.4375 14.125,2.625 14,2.5 Q 13.875,2.375 13.75,2.3125 L 13.625,2.25 13.6875,2.28125 13.75,2.3125 14.015625,2.015625 14.28125,1.71875 14.234375,1.640625 14.1875,1.5625 14.28125,1.71875 Q 14.375,1.875 14.5,2 L 14.625,2.125 14.4375,1.9375 14.25,1.75 14.5,2 Q 14.75,2.25 15,2.5 L 15.25,2.75 15.0625,2.5625 14.875,2.375 15,2.5 q 0.125,0.125 0.28125,0.21875 L 15.4375,2.8125 15.359375,2.765625 15.28125,2.71875 15.015625,2.984375 14.75,3.25 14.5,3 Q 14.25,2.75 14,2.5 M 14.5625,3.0625 14.75,3.25 14.8125,3.3125 14.875,3.375 14.75,3.25 Q 14.625,3.125 14.5,3 l -0.125,-0.125 0.1875,0.1875"
           id="path63942"
           inkscape:connector-curvature="0" />
        <path
           style="fill:#000000;fill-opacity:0.02352941"
           d="M 15,2.5 14.75,2.25 15.03125,1.96875 15.3125,1.6875 15.25,1.625 15.1875,1.5625 l 0.125,0.125 q 0.125,0.125 0.3125,0.1875 L 15.8125,1.9375 15.53125,1.84375 15.25,1.75 15.625,1.875 Q 16,2 16,2.5 L 16,3 15.625,2.875 Q 15.25,2.75 15,2.5 M 14.6875,2.1875 14.75,2.25 14.9375,2.4375 15.125,2.625 15,2.5 Q 14.875,2.375 14.75,2.25 l -0.125,-0.125 0.0625,0.0625"
           id="path63944"
           inkscape:connector-curvature="0" />
        <path
           style="fill:#000000;fill-opacity:0.30196078"
           d="M 6.875,3.375 Q 7,3 7.5,3 L 8,3 8,3.5 8,4 7.625,4.125 7.25,4.25 7.53125,4.15625 7.8125,4.0625 7.625,4.125 Q 7.4375,4.1875 7.3125,4.3125 L 7.1875,4.4375 7.25,4.375 7.3125,4.3125 7,4 6.6875,3.6875 6.625,3.75 6.5625,3.8125 6.6875,3.6875 Q 6.8125,3.5625 6.875,3.375 L 6.9375,3.1875 6.84375,3.46875 6.75,3.75 6.875,3.375"
           id="path63946"
           inkscape:connector-curvature="0" />
        <path
           style="fill:#000000;fill-opacity:0.2627451"
           d="M 8,3.5 8,3 8.5,3 Q 9,3 9.125,3.375 L 9.25,3.75 9.15625,3.46875 9.0625,3.1875 9.125,3.375 Q 9.1875,3.5625 9.3125,3.6875 L 9.4375,3.8125 9.375,3.75 9.3125,3.6875 9.015625,3.984375 8.71875,4.28125 8.796875,4.328125 8.875,4.375 8.71875,4.28125 Q 8.5625,4.1875 8.375,4.125 L 8.1875,4.0625 8.46875,4.15625 8.75,4.25 8.375,4.125 8,4 8,3.5"
           id="path63948"
           inkscape:connector-curvature="0" />
        <path
           style="fill:#000000;fill-opacity:0.02745098"
           d="M 11,3.5 Q 11,3 11.375,2.875 L 11.75,2.75 11.46875,2.84375 11.1875,2.9375 11.375,2.875 Q 11.5625,2.8125 11.6875,2.6875 L 11.8125,2.5625 11.75,2.625 11.6875,2.6875 12,3 12.3125,3.3125 12.375,3.25 12.4375,3.1875 12.3125,3.3125 Q 12.1875,3.4375 12.125,3.625 L 12.0625,3.8125 12.15625,3.53125 12.25,3.25 12.15625,3.65625 12.0625,4.0625 11.53125,4.03125 11,4 11,3.5"
           id="path63950"
           inkscape:connector-curvature="0" />
        <path
           style="fill:#545454;fill-opacity:0.94509804"
           d="M 12.15625,3.65625 Q 12.25,3.25 12.625,3.125 L 13,3 12.875,3.375 q -0.125,0.375 -0.5,0.5 L 12,4 12.28125,3.90625 12.5625,3.8125 12.375,3.875 Q 12.1875,3.9375 12.0625,4.0625 L 11.9375,4.1875 12,4.125 12.0625,4.0625 12.15625,3.65625"
           id="path63952"
           inkscape:connector-curvature="0" />
        <path
           style="fill:#ffffff;fill-opacity:1"
           d="M 12.875,3.375 13,3 13.375,3.125 q 0.375,0.125 0.5,0.5 0.125,0.375 0.5,0.5 0.375,0.125 0.5,0.5 0.125,0.375 0.5,0.5 0.375,0.125 0.5,0.5 0.125,0.375 0.5,0.5 0.375,0.125 0.5,0.5 0.125,0.375 0.5,0.5 0.375,0.125 0.5,0.5 Q 18,8 18.546875,7.953125 L 19.09375,7.90625 19.046875,8.453125 Q 19,9 19,9.5 l 0,0.5 -0.5,0 q -0.5,0 -0.625,0.375 -0.125,0.375 -0.5,0.5 L 17,11 17,10.5 17,10 17,9.5 Q 17,9 16.625,8.875 16.25,8.75 16,9 L 15.75,9.25 15.5,9 Q 15.25,8.75 15,8.5 14.75,8.25 14.5,8 14.25,7.75 14.125,7.375 14,7 13.625,6.875 13.25,6.75 13.125,6.375 13,6 12.625,5.875 12.25,5.75 12.25,5.5 12.25,5.25 12.625,5.125 13,5 13.125,4.625 13.25,4.25 12.96875,3.96875 L 12.6875,3.6875 12.625,3.75 12.5625,3.8125 12.6875,3.6875 Q 12.8125,3.5625 12.875,3.375 L 12.9375,3.1875 12.84375,3.46875 12.75,3.75 12.875,3.375 M 15.5625,9.0625 15.75,9.25 15.8125,9.3125 15.875,9.375 15.75,9.25 Q 15.625,9.125 15.5,9 L 15.375,8.875 15.5625,9.0625 M 19,10.125 19,10 19,9.625 19,9.25 19,9.5 q 0,0.25 0,0.5 l 0,0.25 0,-0.125"
           id="path63954"
           inkscape:connector-curvature="0" />
        <path
           style="fill:#e6e6e6;fill-opacity:1"
           d="M 13.875,3.625 13.75,3.25 13.84375,3.53125 13.9375,3.8125 13.875,3.625 Q 13.8125,3.4375 13.6875,3.3125 L 13.5625,3.1875 13.625,3.25 13.6875,3.3125 13.96875,3.03125 14.25,2.75 14.5,3 Q 14.75,3.25 15,3.5 L 15.25,3.75 14.96875,4.03125 14.6875,4.3125 14.75,4.375 14.8125,4.4375 14.6875,4.3125 Q 14.5625,4.1875 14.375,4.125 L 14.1875,4.0625 14.46875,4.15625 14.75,4.25 14.375,4.125 Q 14,4 13.875,3.625 M 15.3125,3.8125 15.25,3.75 15.0625,3.5625 14.875,3.375 15,3.5 q 0.125,0.125 0.25,0.25 L 15.375,3.875 15.3125,3.8125 M 14.4375,2.9375 14.25,2.75 14.1875,2.6875 14.125,2.625 14.25,2.75 Q 14.375,2.875 14.5,3 l 0.125,0.125 -0.1875,-0.1875"
           id="path63956"
           inkscape:connector-curvature="0" />
        <path
           style="fill:#2d2d2d;fill-opacity:0.83529412"
           d="M 15,3.5 14.75,3.25 15.015625,2.984375 15.28125,2.71875 15.203125,2.671875 15.125,2.625 15.28125,2.71875 Q 15.4375,2.8125 15.625,2.875 L 15.8125,2.9375 15.53125,2.84375 15.25,2.75 15.625,2.875 16,3 16.125,3.375 16.25,3.75 16.15625,3.46875 16.0625,3.1875 16.125,3.375 q 0.0625,0.1875 0.15625,0.34375 L 16.375,3.875 16.328125,3.796875 16.28125,3.71875 16.015625,3.984375 15.75,4.25 15.5,4 Q 15.25,3.75 15,3.5 M 15.5625,4.0625 15.75,4.25 15.8125,4.3125 15.875,4.375 15.75,4.25 Q 15.625,4.125 15.5,4 L 15.375,3.875 15.5625,4.0625 M 14.6875,3.1875 14.75,3.25 14.9375,3.4375 15.125,3.625 15,3.5 Q 14.875,3.375 14.75,3.25 l -0.125,-0.125 0.0625,0.0625"
           id="path63958"
           inkscape:connector-curvature="0" />
        <path
           style="fill:#000000;fill-opacity:0.01568627"
           d="M 16.125,3.375 16,3 16.5,3 Q 17,3 17.125,3.375 L 17.25,3.75 17.15625,3.46875 17.0625,3.1875 17.125,3.375 q 0.0625,0.1875 0.1875,0.3125 l 0.125,0.125 L 17.375,3.75 17.3125,3.6875 17.03125,3.96875 16.75,4.25 16.5,4 Q 16.25,3.75 16.125,3.375 M 16.5625,4.0625 16.75,4.25 16.8125,4.3125 16.875,4.375 16.75,4.25 Q 16.625,4.125 16.5,4 l -0.125,-0.125 0.1875,0.1875"
           id="path63960"
           inkscape:connector-curvature="0" />
        <path
           style="fill:#000000;fill-opacity:0.09019608"
           d="M 4.875,4.375 Q 5,4 5.5,4 L 6,4 5.875,4.375 Q 5.75,4.75 5.5,5 L 5.25,5.25 4.96875,4.96875 4.6875,4.6875 4.625,4.75 4.5625,4.8125 4.6875,4.6875 Q 4.8125,4.5625 4.875,4.375 L 4.9375,4.1875 4.84375,4.46875 4.75,4.75 4.875,4.375 M 5.1875,5.3125 5.25,5.25 5.4375,5.0625 5.625,4.875 5.5,5 Q 5.375,5.125 5.25,5.25 L 5.125,5.375 5.1875,5.3125"
           id="path63962"
           inkscape:connector-curvature="0" />
        <path
           style="fill:#2e2e2e;fill-opacity:0.81176471"
           d="M 5.875,4.375 6,4 6.375,3.875 6.75,3.75 6.46875,3.84375 6.1875,3.9375 6.375,3.875 Q 6.5625,3.8125 6.6875,3.6875 L 6.8125,3.5625 6.75,3.625 6.6875,3.6875 7,4 7.3125,4.3125 7.375,4.25 7.4375,4.1875 7.3125,4.3125 Q 7.1875,4.4375 7.125,4.625 L 7.0625,4.8125 7.15625,4.53125 7.25,4.25 7.125,4.625 Q 7,5 6.625,5.125 L 6.25,5.25 6.53125,5.15625 6.8125,5.0625 6.625,5.125 Q 6.4375,5.1875 6.28125,5.28125 L 6.125,5.375 6.203125,5.328125 6.28125,5.28125 6,5 5.71875,4.71875 5.671875,4.796875 5.625,4.875 5.71875,4.71875 Q 5.8125,4.5625 5.875,4.375 L 5.9375,4.1875 5.84375,4.46875 5.75,4.75 5.875,4.375"
           id="path63964"
           inkscape:connector-curvature="0" />
        <path
           style="fill:#adadad;fill-opacity:1"
           d="M 7.125,4.625 Q 7.25,4.25 7.625,4.125 L 8,4 8,4.5 8,5 7.46875,4.96875 6.9375,4.9375 6.875,5 6.8125,5.0625 6.9375,4.9375 Q 7.0625,4.8125 7.125,4.625 L 7.1875,4.4375 7.09375,4.71875 7,5 7.125,4.625"
           id="path63966"
           inkscape:connector-curvature="0" />
        <path
           style="fill:#949494;fill-opacity:0.98823529"
           d="M 8,4.5 8,4 8.375,4.125 Q 8.75,4.25 9,4.5 L 9.25,4.75 8.984375,5.015625 8.71875,5.28125 8.796875,5.328125 8.875,5.375 8.71875,5.28125 Q 8.5625,5.1875 8.375,5.125 L 8.1875,5.0625 8.46875,5.15625 8.75,5.25 8.375,5.125 8,5 8,4.5 M 9.3125,4.8125 9.25,4.75 9.0625,4.5625 8.875,4.375 9,4.5 Q 9.125,4.625 9.25,4.75 L 9.375,4.875 9.3125,4.8125"
           id="path63968"
           inkscape:connector-curvature="0" />
        <path
           style="fill:#060606;fill-opacity:0.5372549"
           d="M 9,4.5 8.75,4.25 8.9375,4.4375 9.125,4.625 9,4.5 Q 8.875,4.375 8.71875,4.28125 L 8.5625,4.1875 8.640625,4.234375 8.71875,4.28125 9.015625,3.984375 9.3125,3.6875 9.25,3.625 9.1875,3.5625 9.3125,3.6875 Q 9.4375,3.8125 9.625,3.875 L 9.8125,3.9375 9.53125,3.84375 9.25,3.75 9.625,3.875 Q 10,4 10.125,4.375 L 10.25,4.75 10.15625,4.46875 10.0625,4.1875 10.125,4.375 q 0.0625,0.1875 0.15625,0.28125 L 10.375,4.75 10.328125,4.703125 10.28125,4.65625 10.015625,4.953125 9.75,5.25 9.5,5 Q 9.25,4.75 9,4.5 M 9.5625,5.0625 9.75,5.25 9.8125,5.3125 9.875,5.375 9.75,5.25 Q 9.625,5.125 9.5,5 L 9.375,4.875 9.5625,5.0625"
           id="path63970"
           inkscape:connector-curvature="0" />
        <path
           style="fill:#1b1b1b;fill-opacity:0.73333333"
           d="M 10.875,4.375 11,4 11.53125,4.03125 12.0625,4.0625 12.125,4 12.1875,3.9375 12.0625,4.0625 Q 11.9375,4.1875 11.875,4.375 L 11.8125,4.5625 11.90625,4.28125 12,4 11.875,4.375 Q 11.75,4.75 11.5,5 L 11.25,5.25 10.984375,4.953125 10.71875,4.65625 10.671875,4.703125 10.625,4.75 10.71875,4.65625 Q 10.8125,4.5625 10.875,4.375 L 10.9375,4.1875 10.84375,4.46875 10.75,4.75 10.875,4.375 M 11.1875,5.3125 11.25,5.25 11.4375,5.0625 11.625,4.875 11.5,5 q -0.125,0.125 -0.25,0.25 l -0.125,0.125 0.0625,-0.0625"
           id="path63972"
           inkscape:connector-curvature="0" />
        <path
           style="fill:#e0e0e0;fill-opacity:1"
           d="M 11.875,4.375 Q 12,4 12.375,3.875 L 12.75,3.75 12.46875,3.84375 12.1875,3.9375 12.375,3.875 Q 12.5625,3.8125 12.6875,3.6875 L 12.8125,3.5625 12.75,3.625 12.6875,3.6875 12.96875,3.96875 Q 13.25,4.25 13.125,4.625 13,5 12.625,5.125 L 12.25,5.25 12.53125,5.15625 12.8125,5.0625 12.625,5.125 Q 12.4375,5.1875 12.34375,5.28125 L 12.25,5.375 12.296875,5.328125 12.34375,5.28125 12.03125,5 11.71875,4.71875 11.671875,4.796875 11.625,4.875 11.71875,4.71875 Q 11.8125,4.5625 11.875,4.375 L 11.9375,4.1875 11.84375,4.46875 11.75,4.75 11.875,4.375"
           id="path63974"
           inkscape:connector-curvature="0" />
        <path
           style="fill:#e4e4e4;fill-opacity:1"
           d="M 14.875,4.625 14.75,4.25 14.84375,4.53125 14.9375,4.8125 14.875,4.625 Q 14.8125,4.4375 14.6875,4.3125 L 14.5625,4.1875 14.625,4.25 14.6875,4.3125 14.96875,4.03125 15.25,3.75 15.5,4 Q 15.75,4.25 16,4.5 L 16.25,4.75 15.96875,5.03125 15.6875,5.3125 15.75,5.375 15.8125,5.4375 15.6875,5.3125 Q 15.5625,5.1875 15.375,5.125 L 15.1875,5.0625 15.46875,5.15625 15.75,5.25 15.375,5.125 Q 15,5 14.875,4.625 M 16.3125,4.8125 16.25,4.75 16.0625,4.5625 15.875,4.375 16,4.5 q 0.125,0.125 0.25,0.25 L 16.375,4.875 16.3125,4.8125 M 15.4375,3.9375 15.25,3.75 15.1875,3.6875 15.125,3.625 15.25,3.75 Q 15.375,3.875 15.5,4 l 0.125,0.125 -0.1875,-0.1875"
           id="path63976"
           inkscape:connector-curvature="0" />
        <path
           style="fill:#313131;fill-opacity:0.83529412"
           d="M 16,4.5 15.75,4.25 16.015625,3.984375 16.28125,3.71875 16.234375,3.640625 16.1875,3.5625 16.28125,3.71875 Q 16.375,3.875 16.5,4 L 16.625,4.125 16.4375,3.9375 16.25,3.75 16.5,4 Q 16.75,4.25 17,4.5 L 17.25,4.75 17,5 16.75,5.25 16.5,5 Q 16.25,4.75 16,4.5 M 16.5625,5.0625 16.75,5.25 16.8125,5.3125 16.875,5.375 16.75,5.25 Q 16.625,5.125 16.5,5 l -0.125,-0.125 0.1875,0.1875 m 0.75,-0.25 L 17.25,4.75 17.0625,4.5625 16.875,4.375 17,4.5 q 0.125,0.125 0.25,0.25 L 17.375,4.875 17.3125,4.8125 M 15.6875,4.1875 15.75,4.25 15.9375,4.4375 16.125,4.625 16,4.5 Q 15.875,4.375 15.75,4.25 l -0.125,-0.125 0.0625,0.0625"
           id="path63978"
           inkscape:connector-curvature="0" />
        <path
           style="fill:#000000;fill-opacity:0.01960784"
           d="M 17,4.5 16.75,4.25 17.03125,3.96875 17.3125,3.6875 17.25,3.625 17.1875,3.5625 l 0.125,0.125 q 0.125,0.125 0.3125,0.1875 L 17.8125,3.9375 17.53125,3.84375 17.25,3.75 17.625,3.875 Q 18,4 18.125,4.375 L 18.25,4.75 18.15625,4.46875 18.0625,4.1875 18.125,4.375 q 0.0625,0.1875 0.1875,0.3125 l 0.125,0.125 L 18.375,4.75 18.3125,4.6875 18.03125,4.96875 17.75,5.25 17.5,5 Q 17.25,4.75 17,4.5 M 17.5625,5.0625 17.75,5.25 17.8125,5.3125 17.875,5.375 17.75,5.25 Q 17.625,5.125 17.5,5 L 17.375,4.875 17.5625,5.0625 M 16.6875,4.1875 16.75,4.25 16.9375,4.4375 17.125,4.625 17,4.5 Q 16.875,4.375 16.75,4.25 l -0.125,-0.125 0.0625,0.0625"
           id="path63980"
           inkscape:connector-curvature="0" />
        <path
           style="fill:#000000;fill-opacity:0.10980392"
           d="M 4,5.5 Q 4,5 4.375,4.875 L 4.75,4.75 4.46875,4.84375 4.1875,4.9375 4.375,4.875 Q 4.5625,4.8125 4.6875,4.6875 L 4.8125,4.5625 4.75,4.625 4.6875,4.6875 4.96875,4.96875 5.25,5.25 5,5.5 Q 4.75,5.75 4.375,5.875 L 4,6 4,5.5 M 5.0625,5.4375 5.25,5.25 5.3125,5.1875 5.375,5.125 5.25,5.25 Q 5.125,5.375 5,5.5 L 4.875,5.625 5.0625,5.4375"
           id="path63982"
           inkscape:connector-curvature="0" />
        <path
           style="fill:#494949;fill-opacity:0.92156863"
           d="M 5,5.5 Q 5.25,5.25 5.5,5 L 5.75,4.75 5.5625,4.9375 5.375,5.125 5.5,5 Q 5.625,4.875 5.71875,4.71875 L 5.8125,4.5625 5.765625,4.640625 5.71875,4.71875 6,5 6.28125,5.28125 6.359375,5.234375 6.4375,5.1875 6.28125,5.28125 Q 6.125,5.375 6,5.5 L 5.875,5.625 6.0625,5.4375 6.25,5.25 6,5.5 Q 5.75,5.75 5.5,6 L 5.25,6.25 5.4375,6.0625 5.625,5.875 5.5,6 Q 5.375,6.125 5.28125,6.28125 L 5.1875,6.4375 5.234375,6.359375 5.28125,6.28125 5,6 4.71875,5.71875 4.640625,5.765625 4.5625,5.8125 4.71875,5.71875 Q 4.875,5.625 5,5.5 L 5.125,5.375 4.9375,5.5625 4.75,5.75 5,5.5"
           id="path63984"
           inkscape:connector-curvature="0" />
        <path
           style="fill:#f1f1f1;fill-opacity:1"
           d="M 6,5.5 Q 6.25,5.25 6.625,5.125 L 7,5 6.71875,5.09375 6.4375,5.1875 6.625,5.125 Q 6.8125,5.0625 6.9375,4.9375 L 7.0625,4.8125 7,4.875 6.9375,4.9375 6.96875,5.46875 Q 7,6 6.625,6.125 L 6.25,6.25 6.53125,6.15625 6.8125,6.0625 6.625,6.125 Q 6.4375,6.1875 6.3125,6.3125 L 6.1875,6.4375 6.25,6.375 6.3125,6.3125 6.03125,6.03125 5.75,5.75 6,5.5 M 5.9375,5.5625 5.75,5.75 5.6875,5.8125 5.625,5.875 5.75,5.75 Q 5.875,5.625 6,5.5 L 6.125,5.375 5.9375,5.5625"
           id="path63986"
           inkscape:connector-curvature="0" />
        <path
           style="fill:#ffffff;fill-opacity:1"
           d="M 6.96875,5.46875 6.9375,4.9375 7.46875,4.96875 8,5 8.375,5.125 Q 8.75,5.25 9,5.5 9.25,5.75 9.5,6 9.75,6.25 9.875,6.625 10,7 10.375,7.125 q 0.375,0.125 0.5,0.5 0.125,0.375 0.5,0.5 0.375,0.125 0.5,0.5 0.125,0.375 0.5,0.5 0.375,0.125 0.5,0.5 L 13,10 12.875,10.375 q -0.125,0.375 -0.5,0.5 -0.375,0.125 -0.5,0.5 -0.125,0.375 -0.5,0.5 Q 11,12 10.875,12.375 10.75,12.75 10.5,12.75 10.25,12.75 10,13 L 9.75,13.25 9.5,13 Q 9.25,12.75 9,12.5 8.75,12.25 8.5,12 8.25,11.75 8,11.5 7.75,11.25 7.5,11 7.25,10.75 7,10.5 6.75,10.25 6.5,10 6.25,9.75 6,9.5 5.75,9.25 5.5,9 5.25,8.75 5.125,8.375 5,8 4.96875,7.46875 L 4.9375,6.9375 5.46875,6.96875 Q 6,7 6.125,6.625 6.25,6.25 6.625,6.125 7,6 6.96875,5.46875 M 9.5625,13.0625 9.75,13.25 9.8125,13.3125 9.875,13.375 9.75,13.25 Q 9.625,13.125 9.5,13 l -0.125,-0.125 0.1875,0.1875"
           id="path63988"
           inkscape:connector-curvature="0" />
        <path
           style="fill:#b8b8b8;fill-opacity:1"
           d="M 9,5.5 8.75,5.25 8.9375,5.4375 9.125,5.625 9,5.5 Q 8.875,5.375 8.71875,5.28125 L 8.5625,5.1875 8.640625,5.234375 8.71875,5.28125 8.984375,5.015625 9.25,4.75 9.5,5 Q 9.75,5.25 10,5.5 L 10.25,5.75 10.0625,5.5625 9.875,5.375 10,5.5 q 0.125,0.125 0.25,0.1875 L 10.375,5.75 10.3125,5.71875 10.25,5.6875 9.984375,5.984375 9.71875,6.28125 9.765625,6.359375 9.8125,6.4375 9.71875,6.28125 Q 9.625,6.125 9.5,6 L 9.375,5.875 9.5625,6.0625 9.75,6.25 9.5,6 Q 9.25,5.75 9,5.5 M 9.4375,4.9375 9.25,4.75 9.1875,4.6875 9.125,4.625 9.25,4.75 Q 9.375,4.875 9.5,5 L 9.625,5.125 9.4375,4.9375"
           id="path63990"
           inkscape:connector-curvature="0" />
        <path
           style="fill:#212121;fill-opacity:0.91372549"
           d="M 10,5.5 9.75,5.25 10.015625,4.953125 10.28125,4.65625 10.234375,4.609375 10.1875,4.5625 10.28125,4.65625 Q 10.375,4.75 10.5,4.75 l 0.125,0 -0.1875,0 -0.1875,0 0.25,0 0.25,0 -0.1875,0 -0.1875,0 0.125,0 q 0.125,0 0.21875,-0.09375 L 10.8125,4.5625 10.765625,4.609375 10.71875,4.65625 10.984375,4.953125 11.25,5.25 11,5.5 Q 10.75,5.75 10.5,5.75 10.25,5.75 10,5.5 M 11.0625,5.4375 11.25,5.25 11.3125,5.1875 11.375,5.125 11.25,5.25 Q 11.125,5.375 11,5.5 L 10.875,5.625 11.0625,5.4375 M 9.6875,5.1875 9.75,5.25 9.9375,5.4375 10.125,5.625 10,5.5 Q 9.875,5.375 9.75,5.25 L 9.625,5.125 9.6875,5.1875"
           id="path63992"
           inkscape:connector-curvature="0" />
        <path
           style="fill:#bebebe;fill-opacity:1"
           d="M 11,5.5 Q 11.25,5.25 11.5,5 L 11.75,4.75 11.5625,4.9375 11.375,5.125 11.5,5 Q 11.625,4.875 11.71875,4.71875 L 11.8125,4.5625 11.765625,4.640625 11.71875,4.71875 12.03125,5 12.34375,5.28125 12.390625,5.234375 12.4375,5.1875 12.34375,5.28125 Q 12.25,5.375 12.25,5.5 l 0,0.125 0,-0.1875 0,-0.1875 0,0.25 0,0.25 0,-0.1875 0,-0.1875 0,0.125 q 0,0.125 0.09375,0.21875 L 12.4375,5.8125 12.390625,5.765625 12.34375,5.71875 12.046875,6.015625 11.75,6.3125 11.8125,6.34375 11.875,6.375 11.75,6.3125 Q 11.625,6.25 11.5,6.25 l -0.125,0 0.1875,0 0.1875,0 -0.25,0 -0.25,0 0.1875,0 0.1875,0 -0.125,0 q -0.125,0 -0.1875,0.0625 L 11.25,6.375 11.28125,6.34375 11.3125,6.3125 11.03125,6 10.75,5.6875 10.6875,5.71875 10.625,5.75 10.75,5.6875 Q 10.875,5.625 11,5.5 L 11.125,5.375 10.9375,5.5625 10.75,5.75 11,5.5"
           id="path63994"
           inkscape:connector-curvature="0" />
        <path
           style="fill:#e6e6e6;fill-opacity:1"
           d="M 15.875,5.625 15.75,5.25 15.84375,5.53125 15.9375,5.8125 15.875,5.625 Q 15.8125,5.4375 15.6875,5.3125 L 15.5625,5.1875 15.625,5.25 15.6875,5.3125 15.96875,5.03125 16.25,4.75 16.5,5 Q 16.75,5.25 17,5.5 L 17.25,5.75 16.96875,6.03125 16.6875,6.3125 16.75,6.375 16.8125,6.4375 16.6875,6.3125 Q 16.5625,6.1875 16.375,6.125 L 16.1875,6.0625 16.46875,6.15625 16.75,6.25 16.375,6.125 Q 16,6 15.875,5.625 M 17.3125,5.8125 17.25,5.75 17.0625,5.5625 16.875,5.375 17,5.5 q 0.125,0.125 0.25,0.25 L 17.375,5.875 17.3125,5.8125 M 16.4375,4.9375 16.25,4.75 16.1875,4.6875 16.125,4.625 16.25,4.75 Q 16.375,4.875 16.5,5 l 0.125,0.125 -0.1875,-0.1875"
           id="path63996"
           inkscape:connector-curvature="0" />
        <path
           style="fill:#323232;fill-opacity:0.84705882"
           d="M 17,5.5 16.75,5.25 17,5 17.25,4.75 17.5,5 Q 17.75,5.25 18,5.5 L 18.25,5.75 18.0625,5.5625 17.875,5.375 18,5.5 q 0.125,0.125 0.28125,0.21875 L 18.4375,5.8125 18.359375,5.765625 18.28125,5.71875 18.015625,5.984375 17.75,6.25 17.5,6 Q 17.25,5.75 17,5.5 M 17.5625,6.0625 17.75,6.25 17.8125,6.3125 17.875,6.375 17.75,6.25 Q 17.625,6.125 17.5,6 L 17.375,5.875 17.5625,6.0625 M 17.4375,4.9375 17.25,4.75 17.1875,4.6875 17.125,4.625 17.25,4.75 Q 17.375,4.875 17.5,5 l 0.125,0.125 -0.1875,-0.1875 m -0.75,0.25 L 16.75,5.25 16.9375,5.4375 17.125,5.625 17,5.5 Q 16.875,5.375 16.75,5.25 l -0.125,-0.125 0.0625,0.0625"
           id="path63998"
           inkscape:connector-curvature="0" />
        <path
           style="fill:#000000;fill-opacity:0.02745098"
           d="M 18,5.5 17.75,5.25 18.03125,4.96875 18.3125,4.6875 18.25,4.625 18.1875,4.5625 l 0.125,0.125 q 0.125,0.125 0.3125,0.1875 L 18.8125,4.9375 18.53125,4.84375 18.25,4.75 18.625,4.875 Q 19,5 19,5.5 L 19,6 18.625,5.875 Q 18.25,5.75 18,5.5 M 17.6875,5.1875 17.75,5.25 17.9375,5.4375 18.125,5.625 18,5.5 Q 17.875,5.375 17.75,5.25 l -0.125,-0.125 0.0625,0.0625"
           id="path64000"
           inkscape:connector-curvature="0" />
        <path
           style="fill:#2f2f2f;fill-opacity:0.83529412"
           d="M 3.875,6.375 4,6 4.375,5.875 4.75,5.75 4.46875,5.84375 4.1875,5.9375 4.375,5.875 Q 4.5625,5.8125 4.71875,5.71875 L 4.875,5.625 4.796875,5.671875 4.71875,5.71875 5,6 5.28125,6.28125 5.328125,6.203125 5.375,6.125 5.28125,6.28125 Q 5.1875,6.4375 5.125,6.625 L 5.0625,6.8125 5.15625,6.53125 5.25,6.25 5.125,6.625 Q 5,7 4.625,7.125 L 4.25,7.25 4.53125,7.15625 4.8125,7.0625 4.625,7.125 Q 4.4375,7.1875 4.3125,7.3125 L 4.1875,7.4375 4.25,7.375 4.3125,7.3125 4.015625,6.984375 3.71875,6.65625 3.671875,6.703125 3.625,6.75 3.71875,6.65625 Q 3.8125,6.5625 3.875,6.375 L 3.9375,6.1875 3.84375,6.46875 3.75,6.75 3.875,6.375"
           id="path64002"
           inkscape:connector-curvature="0" />
        <path
           style="fill:#f3f3f3;fill-opacity:1"
           d="M 5.125,6.625 Q 5.25,6.25 5.5,6 L 5.75,5.75 6.03125,6.03125 6.3125,6.3125 6.375,6.25 6.4375,6.1875 6.3125,6.3125 Q 6.1875,6.4375 6.125,6.625 L 6.0625,6.8125 6.15625,6.53125 6.25,6.25 6.125,6.625 Q 6,7 5.46875,6.96875 L 4.9375,6.9375 4.875,7 4.8125,7.0625 4.9375,6.9375 Q 5.0625,6.8125 5.125,6.625 L 5.1875,6.4375 5.09375,6.71875 5,7 5.125,6.625 M 5.8125,5.6875 5.75,5.75 5.5625,5.9375 5.375,6.125 5.5,6 Q 5.625,5.875 5.75,5.75 L 5.875,5.625 5.8125,5.6875"
           id="path64004"
           inkscape:connector-curvature="0" />
        <path
           style="fill:#d4d4d4;fill-opacity:1"
           d="M 9.875,6.625 9.75,6.25 9.84375,6.53125 9.9375,6.8125 9.875,6.625 Q 9.8125,6.4375 9.71875,6.28125 L 9.625,6.125 9.671875,6.203125 9.71875,6.28125 9.984375,5.984375 10.25,5.6875 10.1875,5.65625 10.125,5.625 10.25,5.6875 Q 10.375,5.75 10.5,5.75 l 0.125,0 -0.1875,0 -0.1875,0 0.25,0 0.25,0 -0.1875,0 -0.1875,0 0.125,0 q 0.125,0 0.25,-0.0625 L 10.875,5.625 10.8125,5.65625 10.75,5.6875 11.03125,6 11.3125,6.3125 11.34375,6.28125 11.375,6.25 11.3125,6.3125 Q 11.25,6.375 11.25,6.5 l 0,0.125 0,-0.1875 0,-0.1875 0,0.25 0,0.25 0,-0.1875 0,-0.1875 0,0.125 q 0,0.125 0.0625,0.25 L 11.375,6.875 11.34375,6.8125 11.3125,6.75 11,7.03125 10.6875,7.3125 10.75,7.375 10.8125,7.4375 10.6875,7.3125 Q 10.5625,7.1875 10.375,7.125 L 10.1875,7.0625 10.46875,7.15625 10.75,7.25 10.375,7.125 Q 10,7 9.875,6.625"
           id="path64006"
           inkscape:connector-curvature="0" />
        <path
           style="fill:#919191;fill-opacity:1"
           d="m 11.25,6.5 q 0,-0.25 0.25,-0.25 0.25,0 0.5,0.25 L 12.25,6.75 12,7 11.75,7.25 11.5,7 Q 11.25,6.75 11.25,6.5 M 11.5625,7.0625 11.75,7.25 11.8125,7.3125 11.875,7.375 11.75,7.25 Q 11.625,7.125 11.5,7 l -0.125,-0.125 0.1875,0.1875 m 0.75,-0.25 L 12.25,6.75 12.0625,6.5625 11.875,6.375 12,6.5 q 0.125,0.125 0.25,0.25 l 0.125,0.125 -0.0625,-0.0625"
           id="path64008"
           inkscape:connector-curvature="0" />
        <path
           style="fill:#ebebeb;fill-opacity:1"
           d="M 12,6.5 11.75,6.25 11.9375,6.4375 12.125,6.625 12,6.5 Q 11.875,6.375 11.75,6.3125 L 11.625,6.25 11.6875,6.28125 11.75,6.3125 12.046875,6.015625 12.34375,5.71875 12.296875,5.671875 12.25,5.625 12.34375,5.71875 Q 12.4375,5.8125 12.625,5.875 L 12.8125,5.9375 12.53125,5.84375 12.25,5.75 12.625,5.875 Q 13,6 13.125,6.375 L 13.25,6.75 13.15625,6.46875 13.0625,6.1875 13.125,6.375 q 0.0625,0.1875 0.1875,0.3125 l 0.125,0.125 L 13.375,6.75 13.3125,6.6875 13.03125,6.96875 12.75,7.25 12.5,7 Q 12.25,6.75 12,6.5 M 12.5625,7.0625 12.75,7.25 12.8125,7.3125 12.875,7.375 12.75,7.25 Q 12.625,7.125 12.5,7 l -0.125,-0.125 0.1875,0.1875"
           id="path64010"
           inkscape:connector-curvature="0" />
        <path
           style="fill:#e7e7e7;fill-opacity:1"
           d="M 16.875,6.625 16.75,6.25 16.84375,6.53125 16.9375,6.8125 16.875,6.625 Q 16.8125,6.4375 16.6875,6.3125 L 16.5625,6.1875 16.625,6.25 16.6875,6.3125 16.96875,6.03125 17.25,5.75 17.5,6 Q 17.75,6.25 18,6.5 L 18.25,6.75 17.96875,7.03125 17.6875,7.3125 17.75,7.375 17.8125,7.4375 17.6875,7.3125 Q 17.5625,7.1875 17.375,7.125 L 17.1875,7.0625 17.46875,7.15625 17.75,7.25 17.375,7.125 Q 17,7 16.875,6.625 M 18.3125,6.8125 18.25,6.75 18.0625,6.5625 17.875,6.375 18,6.5 q 0.125,0.125 0.25,0.25 L 18.375,6.875 18.3125,6.8125 M 17.4375,5.9375 17.25,5.75 17.1875,5.6875 17.125,5.625 17.25,5.75 Q 17.375,5.875 17.5,6 l 0.125,0.125 -0.1875,-0.1875"
           id="path64012"
           inkscape:connector-curvature="0" />
        <path
           style="fill:#2f2f2f;fill-opacity:0.84313725"
           d="M 18,6.5 17.75,6.25 18.015625,5.984375 18.28125,5.71875 18.203125,5.671875 18.125,5.625 18.28125,5.71875 Q 18.4375,5.8125 18.625,5.875 L 18.8125,5.9375 18.53125,5.84375 18.25,5.75 18.625,5.875 19,6 19.125,6.375 19.25,6.75 19.15625,6.46875 19.0625,6.1875 19.125,6.375 q 0.0625,0.1875 0.15625,0.34375 L 19.375,6.875 19.328125,6.796875 19.28125,6.71875 19,7 18.71875,7.28125 18.765625,7.359375 18.8125,7.4375 18.71875,7.28125 Q 18.625,7.125 18.5,7 L 18.375,6.875 18.5625,7.0625 18.75,7.25 18.5,7 Q 18.25,6.75 18,6.5 M 17.6875,6.1875 17.75,6.25 17.9375,6.4375 18.125,6.625 18,6.5 Q 17.875,6.375 17.75,6.25 l -0.125,-0.125 0.0625,0.0625"
           id="path64014"
           inkscape:connector-curvature="0" />
        <path
           style="fill:#000000;fill-opacity:0.03137255"
           d="M 19.125,6.375 19,6 19.5,6 Q 20,6 20.125,6.375 20.25,6.75 19.984375,7.015625 L 19.71875,7.28125 19.765625,7.359375 19.8125,7.4375 19.71875,7.28125 Q 19.625,7.125 19.5,7 L 19.375,6.875 19.5625,7.0625 19.75,7.25 19.5,7 Q 19.25,6.75 19.125,6.375"
           id="path64016"
           inkscape:connector-curvature="0" />
        <path
           style="fill:#060600;fill-opacity:0.34117647"
           d="M 0.875,7.375 Q 1,7 1.375,6.875 1.75,6.75 2.015625,7.046875 L 2.28125,7.34375 2.328125,7.296875 2.375,7.25 2.28125,7.34375 Q 2.1875,7.4375 2.125,7.625 L 2.0625,7.8125 2.15625,7.53125 2.25,7.25 2.125,7.625 2,8 1.625,8.125 1.25,8.25 1.53125,8.15625 1.8125,8.0625 1.625,8.125 Q 1.4375,8.1875 1.34375,8.28125 L 1.25,8.375 1.296875,8.328125 1.34375,8.28125 1.046875,8.015625 Q 0.75,7.75 0.875,7.375"
           id="path64018"
           inkscape:connector-curvature="0" />
        <path
           style="fill:#443600;fill-opacity:0.84705882"
           d="M 2.125,7.625 Q 2.25,7.25 2.5,7.25 q 0.25,0 0.375,0.375 L 3,8 2.5,8 2,8 2.125,7.625"
           id="path64020"
           inkscape:connector-curvature="0" />
        <path
           style="fill:#0b0900;fill-opacity:0.70196078"
           d="M 2.875,7.625 2.75,7.25 2.84375,7.53125 2.9375,7.8125 2.875,7.625 Q 2.8125,7.4375 2.71875,7.34375 L 2.625,7.25 2.671875,7.296875 2.71875,7.34375 2.984375,7.046875 Q 3.25,6.75 3.5,6.75 l 0.25,0 -0.1875,0 -0.1875,0 0.125,0 q 0.125,0 0.21875,-0.09375 L 3.8125,6.5625 3.765625,6.609375 3.71875,6.65625 4.015625,6.984375 4.3125,7.3125 4.375,7.25 4.4375,7.1875 4.3125,7.3125 Q 4.1875,7.4375 4.125,7.625 L 4.0625,7.8125 4.15625,7.53125 4.25,7.25 4.125,7.625 4,8 3.5,8 3,8 2.875,7.625"
           id="path64022"
           inkscape:connector-curvature="0" />
        <path
           style="fill:#b4b4b4;fill-opacity:1"
           d="M 4.125,7.625 Q 4.25,7.25 4.625,7.125 L 5,7 4.71875,7.09375 4.4375,7.1875 4.625,7.125 Q 4.8125,7.0625 4.9375,6.9375 L 5.0625,6.8125 5,6.875 4.9375,6.9375 4.96875,7.46875 5,8 5,7.625 5,7.25 5,7.5 Q 5,7.75 5.03125,7.96875 L 5.0625,8.1875 5.046875,8.078125 5.03125,7.96875 4.515625,7.984375 4,8 4.125,7.625"
           id="path64024"
           inkscape:connector-curvature="0" />
        <path
           style="fill:#dedede;fill-opacity:1"
           d="M 10.875,7.625 10.75,7.25 10.84375,7.53125 10.9375,7.8125 10.875,7.625 Q 10.8125,7.4375 10.6875,7.3125 L 10.5625,7.1875 10.625,7.25 10.6875,7.3125 11,7.03125 11.3125,6.75 11.28125,6.6875 11.25,6.625 11.3125,6.75 Q 11.375,6.875 11.5,7 L 11.625,7.125 11.4375,6.9375 11.25,6.75 11.5,7 Q 11.75,7.25 12,7.5 L 12.25,7.75 11.96875,8.03125 11.6875,8.3125 11.75,8.375 11.8125,8.4375 11.6875,8.3125 Q 11.5625,8.1875 11.375,8.125 L 11.1875,8.0625 11.46875,8.15625 11.75,8.25 11.375,8.125 Q 11,8 10.875,7.625 M 12.3125,7.8125 12.25,7.75 12.0625,7.5625 11.875,7.375 12,7.5 q 0.125,0.125 0.25,0.25 l 0.125,0.125 -0.0625,-0.0625"
           id="path64026"
           inkscape:connector-curvature="0" />
        <path
           style="fill:#8e8e8e;fill-opacity:1"
           d="M 12,7.5 11.75,7.25 12,7 12.25,6.75 12.5,7 Q 12.75,7.25 13,7.5 L 13.25,7.75 13,8 12.75,8.25 12.5,8 Q 12.25,7.75 12,7.5 M 12.5625,8.0625 12.75,8.25 12.8125,8.3125 12.875,8.375 12.75,8.25 Q 12.625,8.125 12.5,8 l -0.125,-0.125 0.1875,0.1875 m 0.75,-0.25 L 13.25,7.75 13.0625,7.5625 12.875,7.375 13,7.5 q 0.125,0.125 0.25,0.25 L 13.375,7.875 13.3125,7.8125 M 12.4375,6.9375 12.25,6.75 12.1875,6.6875 12.125,6.625 12.25,6.75 Q 12.375,6.875 12.5,7 l 0.125,0.125 -0.1875,-0.1875 m -0.75,0.25 L 11.75,7.25 11.9375,7.4375 12.125,7.625 12,7.5 Q 11.875,7.375 11.75,7.25 l -0.125,-0.125 0.0625,0.0625"
           id="path64028"
           inkscape:connector-curvature="0" />
        <path
           style="fill:#dadada;fill-opacity:1"
           d="M 13,7.5 12.75,7.25 13.03125,6.96875 13.3125,6.6875 13.25,6.625 13.1875,6.5625 l 0.125,0.125 q 0.125,0.125 0.3125,0.1875 L 13.8125,6.9375 13.53125,6.84375 13.25,6.75 13.625,6.875 Q 14,7 14.125,7.375 L 14.25,7.75 14.15625,7.46875 14.0625,7.1875 14.125,7.375 q 0.0625,0.1875 0.15625,0.34375 L 14.375,7.875 14.328125,7.796875 14.28125,7.71875 14.015625,7.984375 13.75,8.25 13.5,8 Q 13.25,7.75 13,7.5 M 13.5625,8.0625 13.75,8.25 13.8125,8.3125 13.875,8.375 13.75,8.25 Q 13.625,8.125 13.5,8 L 13.375,7.875 13.5625,8.0625 M 12.6875,7.1875 12.75,7.25 12.9375,7.4375 13.125,7.625 13,7.5 Q 12.875,7.375 12.75,7.25 l -0.125,-0.125 0.0625,0.0625"
           id="path64030"
           inkscape:connector-curvature="0" />
        <path
           style="fill:#e5e5e5;fill-opacity:1"
           d="M 17.875,7.625 17.75,7.25 17.84375,7.53125 17.9375,7.8125 17.875,7.625 Q 17.8125,7.4375 17.6875,7.3125 L 17.5625,7.1875 17.625,7.25 17.6875,7.3125 17.96875,7.03125 18.25,6.75 18.5,7 q 0.25,0.25 0.375,0.625 L 19,8 18.90625,7.71875 18.8125,7.4375 18.875,7.625 q 0.0625,0.1875 0.21875,0.28125 L 19.25,8 19.171875,7.953125 19.09375,7.90625 18.546875,7.953125 Q 18,8 17.875,7.625 M 18.4375,6.9375 18.25,6.75 18.1875,6.6875 18.125,6.625 18.25,6.75 Q 18.375,6.875 18.5,7 l 0.125,0.125 -0.1875,-0.1875"
           id="path64032"
           inkscape:connector-curvature="0" />
        <path
           style="fill:#343434;fill-opacity:0.81960784"
           d="M 18.875,7.625 18.75,7.25 18.84375,7.53125 18.9375,7.8125 18.875,7.625 Q 18.8125,7.4375 18.71875,7.28125 L 18.625,7.125 18.671875,7.203125 18.71875,7.28125 19,7 19.28125,6.71875 19.234375,6.640625 19.1875,6.5625 19.28125,6.71875 Q 19.375,6.875 19.5,7 L 19.625,7.125 19.4375,6.9375 19.25,6.75 19.5,7 q 0.25,0.25 0.3125,0.6875 L 19.875,8.125 19.9375,8.1875 20,8.25 19.875,8.125 Q 19.75,8 19.5,8 L 19.25,8 19.625,8 20,8 19.5,8 Q 19,8 18.875,7.625"
           id="path64034"
           inkscape:connector-curvature="0" />
        <path
           style="fill:#2e2000;fill-opacity:0.81176471"
           d="m 1.25,8.5 q 0,-0.25 0.375,-0.375 L 2,8 2,8.5 2,9 1.625,8.875 Q 1.25,8.75 1.25,8.5"
           id="path64036"
           inkscape:connector-curvature="0" />
        <path
           style="fill:#ffcc00;fill-opacity:1"
           d="M 2,8.5 2,8 2.5,8 3,8 3,8.5 3,9 2.5,9 2,9 2,8.5"
           id="path64038"
           inkscape:connector-curvature="0" />
        <path
           style="fill:#895000;fill-opacity:1"
           d="M 3,8.5 3,8 3.5,8 4,8 4,8.5 4,9 3.5,9 3,9 3,8.5"
           id="path64040"
           inkscape:connector-curvature="0" />
        <path
           style="fill:#6f6e6c;fill-opacity:1"
           d="M 4,8.5 4,8 4.515625,7.984375 5.03125,7.96875 5.015625,7.859375 5,7.75 5.03125,7.96875 Q 5.0625,8.1875 5.125,8.375 L 5.1875,8.5625 5.09375,8.28125 5,8 5.125,8.375 5.25,8.75 5.15625,8.46875 5.0625,8.1875 5.125,8.375 Q 5.1875,8.5625 5.28125,8.71875 L 5.375,8.875 5.328125,8.796875 5.28125,8.71875 5,9 4.71875,9.28125 4.796875,9.328125 4.875,9.375 4.71875,9.28125 Q 4.5625,9.1875 4.375,9.125 L 4.1875,9.0625 4.46875,9.15625 4.75,9.25 4.375,9.125 4,9 4,8.5"
           id="path64042"
           inkscape:connector-curvature="0" />
        <path
           style="fill:#ededed;fill-opacity:1"
           d="M 11.875,8.625 11.75,8.25 11.84375,8.53125 11.9375,8.8125 11.875,8.625 Q 11.8125,8.4375 11.6875,8.3125 L 11.5625,8.1875 11.625,8.25 11.6875,8.3125 11.96875,8.03125 12.25,7.75 12.5,8 Q 12.75,8.25 13,8.5 L 13.25,8.75 12.96875,9.03125 12.6875,9.3125 12.75,9.375 12.8125,9.4375 12.6875,9.3125 Q 12.5625,9.1875 12.375,9.125 L 12.1875,9.0625 12.46875,9.15625 12.75,9.25 12.375,9.125 Q 12,9 11.875,8.625 M 13.3125,8.8125 13.25,8.75 13.0625,8.5625 12.875,8.375 13,8.5 q 0.125,0.125 0.25,0.25 L 13.375,8.875 13.3125,8.8125 M 12.4375,7.9375 12.25,7.75 12.1875,7.6875 12.125,7.625 12.25,7.75 Q 12.375,7.875 12.5,8 l 0.125,0.125 -0.1875,-0.1875"
           id="path64044"
           inkscape:connector-curvature="0" />
        <path
           style="fill:#989898;fill-opacity:1"
           d="M 13,8.5 12.75,8.25 13,8 13.25,7.75 13.5,8 Q 13.75,8.25 14,8.5 L 14.25,8.75 13.984375,9.015625 13.71875,9.28125 13.765625,9.359375 13.8125,9.4375 13.71875,9.28125 Q 13.625,9.125 13.5,9 L 13.375,8.875 13.5625,9.0625 13.75,9.25 13.5,9 Q 13.25,8.75 13,8.5 M 14.3125,8.8125 14.25,8.75 14.0625,8.5625 13.875,8.375 14,8.5 q 0.125,0.125 0.25,0.25 L 14.375,8.875 14.3125,8.8125 M 13.4375,7.9375 13.25,7.75 13.1875,7.6875 13.125,7.625 13.25,7.75 Q 13.375,7.875 13.5,8 l 0.125,0.125 -0.1875,-0.1875 m -0.75,0.25 L 12.75,8.25 12.9375,8.4375 13.125,8.625 13,8.5 Q 12.875,8.375 12.75,8.25 l -0.125,-0.125 0.0625,0.0625"
           id="path64046"
           inkscape:connector-curvature="0" />
        <path
           style="fill:#c4c4c4;fill-opacity:1"
           d="M 14,8.5 13.75,8.25 14.015625,7.984375 14.28125,7.71875 14.234375,7.640625 14.1875,7.5625 14.28125,7.71875 Q 14.375,7.875 14.5,8 L 14.625,8.125 14.4375,7.9375 14.25,7.75 14.5,8 Q 14.75,8.25 15,8.5 L 15.25,8.75 14.96875,9 14.6875,9.25 14.71875,9.3125 14.75,9.375 14.6875,9.25 Q 14.625,9.125 14.5,9 L 14.375,8.875 14.5625,9.0625 14.75,9.25 14.5,9 Q 14.25,8.75 14,8.5 M 15.3125,8.8125 15.25,8.75 15.0625,8.5625 14.875,8.375 15,8.5 q 0.125,0.125 0.25,0.25 L 15.375,8.875 15.3125,8.8125 M 13.6875,8.1875 13.75,8.25 13.9375,8.4375 14.125,8.625 14,8.5 Q 13.875,8.375 13.75,8.25 l -0.125,-0.125 0.0625,0.0625"
           id="path64048"
           inkscape:connector-curvature="0" />
        <path
           style="fill:#ababab;fill-opacity:0.99607843"
           d="M 19.046875,8.453125 19.09375,7.90625 19.015625,7.859375 18.9375,7.8125 19.09375,7.90625 Q 19.25,8 19.5,8 L 19.75,8 19.375,8 19,8 19.5,8 Q 20,8 20,8.5 L 20,9 20,8.625 20,8.25 20,8.5 q 0,0.25 -0.03125,0.46875 L 19.9375,9.1875 19.953125,9.078125 19.96875,8.96875 19.484375,8.984375 19,9 19.046875,8.453125 M 19,8.625 19,9 19,9.125 19,9.25 19,9 q 0,-0.25 0,-0.5 l 0,-0.25 0,0.375"
           id="path64050"
           inkscape:connector-curvature="0" />
        <path
           style="fill:#080300;fill-opacity:0.36078431"
           d="M 0.875,9.625 Q 0.75,9.25 1.046875,8.984375 L 1.34375,8.71875 1.296875,8.671875 1.25,8.625 1.34375,8.71875 Q 1.4375,8.8125 1.625,8.875 L 1.8125,8.9375 1.53125,8.84375 1.25,8.75 1.625,8.875 2,9 2.125,9.375 2.25,9.75 2.15625,9.46875 2.0625,9.1875 2.125,9.375 Q 2.1875,9.5625 2.28125,9.71875 L 2.375,9.875 2.328125,9.796875 2.28125,9.71875 1.984375,10.015625 1.6875,10.3125 1.75,10.375 1.8125,10.4375 1.6875,10.3125 Q 1.5625,10.1875 1.375,10.125 L 1.1875,10.0625 1.46875,10.15625 1.75,10.25 1.375,10.125 Q 1,10 0.875,9.625"
           id="path64052"
           inkscape:connector-curvature="0" />
        <path
           style="fill:#592800;fill-opacity:0.97647059"
           d="M 2.125,9.375 2,9 2.5,9 3,9 3.125,9.375 3.25,9.75 3.15625,9.46875 3.0625,9.1875 3.125,9.375 Q 3.1875,9.5625 3.3125,9.6875 L 3.4375,9.8125 3.375,9.75 3.3125,9.6875 3.03125,9.96875 2.75,10.25 2.5,10 Q 2.25,9.75 2.125,9.375 M 2.5625,10.0625 2.75,10.25 2.8125,10.3125 2.875,10.375 2.75,10.25 Q 2.625,10.125 2.5,10 L 2.375,9.875 2.5625,10.0625"
           id="path64054"
           inkscape:connector-curvature="0" />
        <path
           style="fill:#d49a00;fill-opacity:1"
           d="M 3.125,9.375 3,9 3.5,9 4,9 4,9.5 4,10 3.625,9.875 Q 3.25,9.75 3.125,9.375"
           id="path64056"
           inkscape:connector-curvature="0" />
        <path
           style="fill:#b77900;fill-opacity:1"
           d="M 4,9.5 4,9 4.375,9.125 Q 4.75,9.25 5,9.5 L 5.25,9.75 4.984375,10.015625 4.71875,10.28125 4.796875,10.328125 4.875,10.375 4.71875,10.28125 Q 4.5625,10.1875 4.375,10.125 L 4.1875,10.0625 4.46875,10.15625 4.75,10.25 4.375,10.125 4,10 4,9.5 M 5.3125,9.8125 5.25,9.75 5.0625,9.5625 4.875,9.375 5,9.5 Q 5.125,9.625 5.25,9.75 L 5.375,9.875 5.3125,9.8125"
           id="path64058"
           inkscape:connector-curvature="0" />
        <path
           style="fill:#706b6b;fill-opacity:1"
           d="M 5,9.5 4.75,9.25 4.9375,9.4375 5.125,9.625 5,9.5 Q 4.875,9.375 4.71875,9.28125 L 4.5625,9.1875 4.640625,9.234375 4.71875,9.28125 5,9 5.28125,8.71875 5.234375,8.640625 5.1875,8.5625 5.28125,8.71875 Q 5.375,8.875 5.5,9 L 5.625,9.125 5.4375,8.9375 5.25,8.75 5.5,9 Q 5.75,9.25 6,9.5 L 6.25,9.75 6,10 5.75,10.25 5.5,10 Q 5.25,9.75 5,9.5 M 5.5625,10.0625 5.75,10.25 5.8125,10.3125 5.875,10.375 5.75,10.25 Q 5.625,10.125 5.5,10 L 5.375,9.875 5.5625,10.0625 m 0.75,-0.25 L 6.25,9.75 6.0625,9.5625 5.875,9.375 6,9.5 Q 6.125,9.625 6.25,9.75 L 6.375,9.875 6.3125,9.8125"
           id="path64060"
           inkscape:connector-curvature="0" />
        <path
           style="fill:#fbfbfb;fill-opacity:1"
           d="M 12.875,9.625 12.75,9.25 12.84375,9.53125 12.9375,9.8125 12.875,9.625 Q 12.8125,9.4375 12.6875,9.3125 L 12.5625,9.1875 12.625,9.25 12.6875,9.3125 12.96875,9.03125 13.25,8.75 13.5,9 q 0.25,0.25 0.375,0.625 L 14,10 13.5,10 13,10 12.875,9.625 M 13.4375,8.9375 13.25,8.75 13.1875,8.6875 13.125,8.625 13.25,8.75 Q 13.375,8.875 13.5,9 l 0.125,0.125 -0.1875,-0.1875"
           id="path64062"
           inkscape:connector-curvature="0" />
        <path
           style="fill:#a9a9a9;fill-opacity:1"
           d="M 13.875,9.625 13.75,9.25 13.84375,9.53125 13.9375,9.8125 13.875,9.625 Q 13.8125,9.4375 13.71875,9.28125 L 13.625,9.125 13.671875,9.203125 13.71875,9.28125 13.984375,9.015625 14.25,8.75 14.5,9 q 0.25,0.25 0.25,0.5 0,0.25 -0.375,0.375 L 14,10 13.875,9.625 M 14.4375,8.9375 14.25,8.75 14.1875,8.6875 14.125,8.625 14.25,8.75 Q 14.375,8.875 14.5,9 l 0.125,0.125 -0.1875,-0.1875"
           id="path64064"
           inkscape:connector-curvature="0" />
        <path
           style="fill:#bcbbbb;fill-opacity:1"
           d="m 14.75,9.5 0,-0.25 0,0.1875 0,0.1875 0,-0.125 q 0,-0.125 -0.0625,-0.25 L 14.625,9.125 14.65625,9.1875 14.6875,9.25 14.96875,9 15.25,8.75 15.5,9 Q 15.75,9.25 16,9.5 L 16.25,9.75 16.0625,9.5625 15.875,9.375 16,9.5 q 0.125,0.125 0.28125,0.21875 L 16.4375,9.8125 16.359375,9.765625 16.28125,9.71875 16,10.03125 l -0.28125,0.3125 0.04687,0.04687 0.04687,0.04687 -0.09375,-0.09375 Q 15.625,10.25 15.5,10.25 l -0.125,0 0.1875,0 0.1875,0 -0.25,0 -0.25,0 0.1875,0 0.1875,0 -0.125,0 q -0.125,0 -0.21875,0.09375 l -0.09375,0.09375 0.04687,-0.04687 0.04687,-0.04687 -0.3125,-0.3125 -0.3125,-0.3125 L 14.60937,9.765635 14.5625,9.8125 14.65625,9.71875 Q 14.75,9.625 14.75,9.5 l 0,-0.125 0,0.1875 0,0.1875 0,-0.25 M 15.4375,8.9375 15.25,8.75 15.1875,8.6875 15.125,8.625 15.25,8.75 Q 15.375,8.875 15.5,9 l 0.125,0.125 -0.1875,-0.1875"
           id="path64066"
           inkscape:connector-curvature="0" />
        <path
           style="fill:#fefefe;fill-opacity:1"
           d="M 16,9.5 15.75,9.25 16,9 Q 16.25,8.75 16.625,8.875 17,9 17,9.5 L 17,10 16.625,9.875 Q 16.25,9.75 16,9.5 M 15.6875,9.1875 15.75,9.25 15.9375,9.4375 16.125,9.625 16,9.5 Q 15.875,9.375 15.75,9.25 l -0.125,-0.125 0.0625,0.0625"
           id="path64068"
           inkscape:connector-curvature="0" />
        <path
           style="fill:#6f6f6f;fill-opacity:0.95294118"
           d="M 19,9.5 19,9 19.484375,8.984375 19.96875,8.96875 19.984375,8.859375 20,8.75 19.96875,8.96875 Q 19.9375,9.1875 19.875,9.375 L 19.8125,9.5625 19.90625,9.28125 20,9 19.875,9.375 q -0.125,0.375 -0.5,0.5 L 19,10 19,9.5 m 0,0.125 0,0.375 0,0.125 0,0.125 0,-0.25 q 0,-0.25 0,-0.5 l 0,-0.25 0,0.375 M 19,8.875 19,9 19,9.375 19,9.75 19,9.5 Q 19,9.25 19,9 l 0,-0.25 0,0.125"
           id="path64070"
           inkscape:connector-curvature="0" />
        <path
           style="fill:#000000;fill-opacity:0.25882353"
           d="M 1.875,10.625 1.75,10.25 1.84375,10.53125 1.9375,10.8125 1.875,10.625 Q 1.8125,10.4375 1.6875,10.3125 L 1.5625,10.1875 1.625,10.25 1.6875,10.3125 1.984375,10.015625 2.28125,9.71875 2.234375,9.640625 2.1875,9.5625 2.28125,9.71875 Q 2.375,9.875 2.5,10 L 2.625,10.125 2.4375,9.9375 2.25,9.75 2.5,10 Q 2.75,10.25 3,10.5 L 3.25,10.75 3.0625,10.5625 2.875,10.375 3,10.5 q 0.125,0.125 0.28125,0.21875 L 3.4375,10.8125 3.359375,10.765625 3.28125,10.71875 2.984375,11.015625 2.6875,11.3125 2.75,11.375 2.8125,11.4375 2.6875,11.3125 Q 2.5625,11.1875 2.375,11.125 L 2.1875,11.0625 2.46875,11.15625 2.75,11.25 2.375,11.125 Q 2,11 1.875,10.625"
           id="path64072"
           inkscape:connector-curvature="0" />
        <path
           style="fill:#633800;fill-opacity:0.96078431"
           d="M 3,10.5 2.75,10.25 3.03125,9.96875 3.3125,9.6875 3.25,9.625 3.1875,9.5625 3.3125,9.6875 Q 3.4375,9.8125 3.625,9.875 L 3.8125,9.9375 3.53125,9.84375 3.25,9.75 3.625,9.875 4,10 4,10.5 4,11 3.625,10.875 Q 3.25,10.75 3,10.5 M 2.6875,10.1875 2.75,10.25 2.9375,10.4375 3.125,10.625 3,10.5 Q 2.875,10.375 2.75,10.25 l -0.125,-0.125 0.0625,0.0625"
           id="path64074"
           inkscape:connector-curvature="0" />
        <path
           style="fill:#ffb600;fill-opacity:1"
           d="M 4,10.5 4,10 4.375,10.125 Q 4.75,10.25 5,10.5 L 5.25,10.75 4.96875,11.03125 4.6875,11.3125 4.75,11.375 4.8125,11.4375 4.6875,11.3125 Q 4.5625,11.1875 4.375,11.125 L 4.1875,11.0625 4.46875,11.15625 4.75,11.25 4.375,11.125 4,11 4,10.5 M 5.3125,10.8125 5.25,10.75 5.0625,10.5625 4.875,10.375 5,10.5 q 0.125,0.125 0.25,0.25 l 0.125,0.125 -0.0625,-0.0625"
           id="path64076"
           inkscape:connector-curvature="0" />
        <path
           style="fill:#b97900;fill-opacity:1"
           d="M 5,10.5 4.75,10.25 4.9375,10.4375 5.125,10.625 5,10.5 Q 4.875,10.375 4.71875,10.28125 L 4.5625,10.1875 4.640625,10.234375 4.71875,10.28125 4.984375,10.015625 5.25,9.75 5.5,10 Q 5.75,10.25 6,10.5 L 6.25,10.75 5.984375,11.015625 5.71875,11.28125 5.765625,11.359375 5.8125,11.4375 5.71875,11.28125 Q 5.625,11.125 5.5,11 L 5.375,10.875 5.5625,11.0625 5.75,11.25 5.5,11 Q 5.25,10.75 5,10.5 M 6.3125,10.8125 6.25,10.75 6.0625,10.5625 5.875,10.375 6,10.5 q 0.125,0.125 0.25,0.25 L 6.375,10.875 6.3125,10.8125 M 5.4375,9.9375 5.25,9.75 5.1875,9.6875 5.125,9.625 5.25,9.75 Q 5.375,9.875 5.5,10 L 5.625,10.125 5.4375,9.9375"
           id="path64078"
           inkscape:connector-curvature="0" />
        <path
           style="fill:#6e6a69;fill-opacity:1"
           d="M 6,10.5 5.75,10.25 6,10 6.25,9.75 6.5,10 Q 6.75,10.25 7,10.5 L 7.25,10.75 6.984375,11.015625 6.71875,11.28125 6.765625,11.359375 6.8125,11.4375 6.71875,11.28125 Q 6.625,11.125 6.5,11 L 6.375,10.875 6.5625,11.0625 6.75,11.25 6.5,11 Q 6.25,10.75 6,10.5 M 7.3125,10.8125 7.25,10.75 7.0625,10.5625 6.875,10.375 7,10.5 q 0.125,0.125 0.25,0.25 L 7.375,10.875 7.3125,10.8125 M 6.4375,9.9375 6.25,9.75 6.1875,9.6875 6.125,9.625 6.25,9.75 Q 6.375,9.875 6.5,10 L 6.625,10.125 6.4375,9.9375 m -0.75,0.25 L 5.75,10.25 5.9375,10.4375 6.125,10.625 6,10.5 Q 5.875,10.375 5.75,10.25 l -0.125,-0.125 0.0625,0.0625"
           id="path64080"
           inkscape:connector-curvature="0" />
        <path
           style="fill:#fdfbfb;fill-opacity:1"
           d="M 12.875,10.375 13,10 l 0.5,0 0.5,0 0,0.5 0,0.5 -0.375,0.125 -0.375,0.125 0.28125,-0.09375 0.28125,-0.09375 -0.1875,0.0625 q -0.1875,0.0625 -0.3125,0.1875 l -0.125,0.125 L 13.25,11.375 13.3125,11.3125 13,11 12.6875,10.6875 12.625,10.75 l -0.0625,0.0625 0.125,-0.125 q 0.125,-0.125 0.1875,-0.3125 L 12.9375,10.1875 12.84375,10.46875 12.75,10.75 12.875,10.375"
           id="path64082"
           inkscape:connector-curvature="0" />
        <path
           style="fill:#c3c3c3;fill-opacity:1"
           d="M 14,10.5 14,10 14.375,9.875 14.75,9.75 14.46875,9.84375 14.1875,9.9375 14.375,9.875 Q 14.5625,9.8125 14.65625,9.71875 L 14.75,9.625 14.70313,9.671875 14.65626,9.71875 l 0.3125,0.3125 0.3125,0.3125 0.04687,-0.04687 L 15.375,10.25 15.28125,10.34375 Q 15.1875,10.4375 15.125,10.625 L 15.0625,10.8125 15.15625,10.53125 15.25,10.25 15.125,10.625 15,11 14.5,11 14,11 14,10.5"
           id="path64084"
           inkscape:connector-curvature="0" />
        <path
           style="fill:#697071;fill-opacity:1"
           d="M 15.125,10.625 Q 15.25,10.25 15.5,10.25 q 0.25,0 0.375,0.375 L 16,11 15.90625,10.71875 15.8125,10.4375 15.875,10.625 q 0.0625,0.1875 0.09375,0.40625 L 16,11.25 15.984375,11.140625 15.96875,11.03125 15.484375,11.015625 15,11 15.125,10.625"
           id="path64086"
           inkscape:connector-curvature="0" />
        <path
           style="fill:#d6d6d6;fill-opacity:1"
           d="M 15.875,10.625 15.75,10.25 15.84375,10.53125 15.9375,10.8125 15.875,10.625 Q 15.8125,10.4375 15.71875,10.34375 L 15.625,10.25 15.67187,10.29687 15.71874,10.34374 16,10.03125 16.28125,9.71875 16.203125,9.671875 16.125,9.625 16.28125,9.71875 Q 16.4375,9.8125 16.625,9.875 L 16.8125,9.9375 16.53125,9.84375 16.25,9.75 16.625,9.875 17,10 l 0,0.5 0,0.5 -0.5,0 -0.5,0 -0.125,-0.375"
           id="path64088"
           inkscape:connector-curvature="0" />
        <path
           style="fill:#e5e5e5;fill-opacity:1"
           d="M 17.875,10.375 Q 18,10 18.5,10 l 0.5,0 0,0.5 q 0,0.5 -0.375,0.625 L 18.25,11.25 18.53125,11.15625 18.8125,11.0625 18.625,11.125 q -0.1875,0.0625 -0.34375,0.15625 L 18.125,11.375 18.203125,11.328125 18.28125,11.28125 17.984375,10.984375 17.6875,10.6875 17.625,10.75 l -0.0625,0.0625 0.125,-0.125 q 0.125,-0.125 0.1875,-0.3125 L 17.9375,10.1875 17.84375,10.46875 17.75,10.75 17.875,10.375 M 19,10.375 19,10 19,9.875 19,9.75 19,10 q 0,0.25 0,0.5 l 0,0.25 0,-0.375"
           id="path64090"
           inkscape:connector-curvature="0" />
        <path
           style="fill:#151515;fill-opacity:0.6627451"
           d="M 19,10.5 19,10 19.375,9.875 19.75,9.75 19.46875,9.84375 19.1875,9.9375 19.375,9.875 Q 19.5625,9.8125 19.6875,9.6875 L 19.8125,9.5625 19.75,9.625 19.6875,9.6875 19.96875,9.96875 Q 20.25,10.25 20.125,10.625 L 20,11 19.453125,10.95313 18.90625,10.90626 l -0.04687,0.07813 -0.04687,0.07813 0.09375,-0.15625 Q 19,10.75 19,10.5 l 0,-0.25 0,0.375 0,0.375 0,-0.5 m 0,-0.625 0,0.125 0,0.375 0,0.375 0,-0.25 q 0,-0.25 0,-0.5 l 0,-0.25 0,0.125"
           id="path64092"
           inkscape:connector-curvature="0" />
        <path
           style="fill:#000000;fill-opacity:0.16862745"
           d="M 2.875,11.625 2.75,11.25 2.84375,11.53125 2.9375,11.8125 2.875,11.625 Q 2.8125,11.4375 2.6875,11.3125 L 2.5625,11.1875 2.625,11.25 2.6875,11.3125 2.984375,11.015625 3.28125,10.71875 3.203125,10.671875 3.125,10.625 3.28125,10.71875 Q 3.4375,10.8125 3.625,10.875 L 3.8125,10.9375 3.53125,10.84375 3.25,10.75 3.625,10.875 4,11 4.125,11.375 4.25,11.75 4.15625,11.46875 4.0625,11.1875 4.125,11.375 q 0.0625,0.1875 0.1875,0.3125 l 0.125,0.125 L 4.375,11.75 4.3125,11.6875 4,12 3.6875,12.3125 3.75,12.375 3.8125,12.4375 3.6875,12.3125 Q 3.5625,12.1875 3.375,12.125 L 3.1875,12.0625 3.46875,12.15625 3.75,12.25 3.375,12.125 Q 3,12 2.875,11.625"
           id="path64094"
           inkscape:connector-curvature="0" />
        <path
           style="fill:#471f00;fill-opacity:0.91764706"
           d="M 4.125,11.375 4,11 4.375,11.125 q 0.375,0.125 0.5,0.5 L 5,12 4.625,11.875 q -0.375,-0.125 -0.5,-0.5"
           id="path64096"
           inkscape:connector-curvature="0" />
        <path
           style="fill:#f7a800;fill-opacity:1"
           d="M 4.875,11.625 4.75,11.25 4.84375,11.53125 4.9375,11.8125 4.875,11.625 Q 4.8125,11.4375 4.6875,11.3125 L 4.5625,11.1875 4.625,11.25 4.6875,11.3125 4.96875,11.03125 5.25,10.75 5.5,11 q 0.25,0.25 0.375,0.625 L 6,12 5.5,12 5,12 4.875,11.625 M 5.4375,10.9375 5.25,10.75 5.1875,10.6875 5.125,10.625 5.25,10.75 Q 5.375,10.875 5.5,11 l 0.125,0.125 -0.1875,-0.1875"
           id="path64098"
           inkscape:connector-curvature="0" />
        <path
           style="fill:#bc7c00;fill-opacity:1"
           d="M 5.875,11.625 5.75,11.25 5.84375,11.53125 5.9375,11.8125 5.875,11.625 Q 5.8125,11.4375 5.71875,11.28125 L 5.625,11.125 5.671875,11.203125 5.71875,11.28125 5.984375,11.015625 6.25,10.75 6.5,11 q 0.25,0.25 0.375,0.625 L 7,12 6.5,12 6,12 5.875,11.625 M 6.4375,10.9375 6.25,10.75 6.1875,10.6875 6.125,10.625 6.25,10.75 Q 6.375,10.875 6.5,11 l 0.125,0.125 -0.1875,-0.1875"
           id="path64100"
           inkscape:connector-curvature="0" />
        <path
           style="fill:#726e6b;fill-opacity:1"
           d="M 6.875,11.625 6.75,11.25 6.84375,11.53125 6.9375,11.8125 6.875,11.625 Q 6.8125,11.4375 6.71875,11.28125 L 6.625,11.125 6.671875,11.203125 6.71875,11.28125 6.984375,11.015625 7.25,10.75 7.5,11 Q 7.75,11.25 8,11.5 L 8.25,11.75 7.96875,12.03125 7.6875,12.3125 7.75,12.375 7.8125,12.4375 7.6875,12.3125 Q 7.5625,12.1875 7.375,12.125 L 7.1875,12.0625 7.46875,12.15625 7.75,12.25 7.375,12.125 7,12 6.875,11.625 M 8.3125,11.8125 8.25,11.75 8.0625,11.5625 7.875,11.375 8,11.5 q 0.125,0.125 0.25,0.25 L 8.375,11.875 8.3125,11.8125 M 7.4375,10.9375 7.25,10.75 7.1875,10.6875 7.125,10.625 7.25,10.75 Q 7.375,10.875 7.5,11 l 0.125,0.125 -0.1875,-0.1875"
           id="path64102"
           inkscape:connector-curvature="0" />
        <path
           style="fill:#d7d5d5;fill-opacity:1"
           d="M 11.875,11.375 Q 12,11 12.375,10.875 L 12.75,10.75 12.46875,10.84375 12.1875,10.9375 12.375,10.875 q 0.1875,-0.0625 0.3125,-0.1875 l 0.125,-0.125 L 12.75,10.625 12.6875,10.6875 13,11 l 0.3125,0.3125 0.0625,-0.0625 0.0625,-0.0625 -0.125,0.125 q -0.125,0.125 -0.1875,0.3125 L 13.0625,11.8125 13.15625,11.53125 13.25,11.25 13.125,11.625 13,12 12.625,12.125 12.25,12.25 12.53125,12.15625 12.8125,12.0625 12.625,12.125 q -0.1875,0.0625 -0.34375,0.15625 L 12.125,12.375 12.203125,12.328125 12.28125,12.28125 11.984375,11.984375 11.6875,11.6875 11.625,11.75 l -0.0625,0.0625 0.125,-0.125 q 0.125,-0.125 0.1875,-0.3125 L 11.9375,11.1875 11.84375,11.46875 11.75,11.75 11.875,11.375"
           id="path64104"
           inkscape:connector-curvature="0" />
        <path
           style="fill:#829293;fill-opacity:1"
           d="m 13.125,11.625 q 0.125,-0.375 0.5,-0.5 L 14,11 l 0,0.5 0,0.5 -0.5,0 -0.5,0 0.125,-0.375 M 14,12.125 14,12 l 0,-0.375 0,-0.375 0,0.25 q 0,0.25 0,0.5 l 0,0.25 0,-0.125"
           id="path64106"
           inkscape:connector-curvature="0" />
        <path
           style="fill:#98c4c5;fill-opacity:1"
           d="m 14,11.5 0,-0.5 0.5,0 0.5,0 0,0.5 0,0.5 -0.5,0 -0.5,0 0,-0.5"
           id="path64108"
           inkscape:connector-curvature="0" />
        <path
           style="fill:#769293;fill-opacity:1"
           d="m 15,11.5 0,-0.5 0.484375,0.01563 0.484375,0.01563 -0.01563,-0.109375 -0.01563,-0.109375 0.03125,0.21875 Q 16,11.25 16,11.5 l 0,0.25 0,-0.375 0,-0.375 0,0.5 0,0.5 -0.5,0 -0.5,0 0,-0.5 m 0,0.125 0,0.375 0,0.125 0,0.125 0,-0.25 q 0,-0.25 0,-0.5 l 0,-0.25 0,0.375 m 1,0.5 0,-0.125 0,-0.375 0,-0.375 0,0.25 q 0,0.25 0,0.5 l 0,0.25 0,-0.125"
           id="path64110"
           inkscape:connector-curvature="0" />
        <path
           style="fill:#e2e1e0;fill-opacity:1"
           d="m 16,11.5 0,-0.5 0.5,0 0.5,0 -0.125,0.375 q -0.125,0.375 -0.5,0.5 L 16,12 16,11.5"
           id="path64112"
           inkscape:connector-curvature="0" />
        <path
           style="fill:#fefefe;fill-opacity:1"
           d="M 16.875,11.375 17,11 17.375,10.875 17.75,10.75 17.46875,10.84375 17.1875,10.9375 17.375,10.875 q 0.1875,-0.0625 0.3125,-0.1875 l 0.125,-0.125 -0.0625,0.0625 -0.0625,0.0625 0.296875,0.296875 0.296875,0.296875 0.07813,-0.04687 0.07813,-0.04687 -0.15625,0.09375 Q 18.125,11.375 18,11.5 L 17.875,11.625 18.0625,11.4375 18.25,11.25 18,11.5 Q 17.75,11.75 17.5,12 L 17.25,12.25 17.4375,12.0625 17.625,11.875 17.5,12 q -0.125,0.125 -0.21875,0.28125 L 17.1875,12.4375 17.23437,12.35937 17.28124,12.28124 16.984375,11.984375 16.6875,11.6875 16.625,11.75 l -0.0625,0.0625 0.125,-0.125 q 0.125,-0.125 0.1875,-0.3125 L 16.9375,11.1875 16.84375,11.46875 16.75,11.75 16.875,11.375"
           id="path64114"
           inkscape:connector-curvature="0" />
        <path
           style="fill:#4a4a4a;fill-opacity:0.91764706"
           d="m 18,11.5 q 0.25,-0.25 0.625,-0.375 L 19,11 18.71875,11.09375 18.4375,11.1875 18.625,11.125 q 0.1875,-0.0625 0.28125,-0.21875 L 19,10.75 l -0.04687,0.07813 -0.04687,0.07813 -0.07813,0.421875 Q 18.75,11.75 18.5,12 L 18.25,12.25 18,12 17.75,11.75 18,11.5 M 17.9375,11.5625 17.75,11.75 17.6875,11.8125 17.625,11.875 17.75,11.75 Q 17.875,11.625 18,11.5 l 0.125,-0.125 -0.1875,0.1875 m 0.25,0.75 L 18.25,12.25 18.4375,12.0625 18.625,11.875 18.5,12 q -0.125,0.125 -0.25,0.25 l -0.125,0.125 0.0625,-0.0625"
           id="path64116"
           inkscape:connector-curvature="0" />
        <path
           style="fill:#000000;fill-opacity:0.06666667"
           d="M 18.828125,11.328125 18.906255,10.90625 19.45313,10.95312 20,11 l 0,0.5 q 0,0.5 -0.375,0.625 L 19.25,12.25 19.53125,12.15625 19.8125,12.0625 19.625,12.125 q -0.1875,0.0625 -0.3125,0.1875 l -0.125,0.125 L 19.25,12.375 19.3125,12.3125 19.015625,12.015625 18.71875,11.71875 18.671875,11.796875 18.625,11.875 18.71875,11.71875 Q 18.8125,11.5625 18.875,11.375 L 18.9375,11.1875 18.84375,11.46875 18.75,11.75 18.82813,11.328125"
           id="path64118"
           inkscape:connector-curvature="0" />
        <path
           style="fill:#000000;fill-opacity:0.0745098"
           d="M 3.875,12.625 3.75,12.25 3.84375,12.53125 3.9375,12.8125 3.875,12.625 Q 3.8125,12.4375 3.6875,12.3125 L 3.5625,12.1875 3.625,12.25 3.6875,12.3125 4,12 4.3125,11.6875 4.25,11.625 4.1875,11.5625 l 0.125,0.125 q 0.125,0.125 0.3125,0.1875 L 4.8125,11.9375 4.53125,11.84375 4.25,11.75 4.625,11.875 5,12 5.125,12.375 5.25,12.75 5.15625,12.46875 5.0625,12.1875 5.125,12.375 q 0.0625,0.1875 0.15625,0.34375 L 5.375,12.875 5.328125,12.796875 5.28125,12.71875 5.015625,12.984375 Q 4.75,13.25 4.375,13.125 4,13 3.875,12.625"
           id="path64120"
           inkscape:connector-curvature="0" />
        <path
           style="fill:#2c1200;fill-opacity:0.85490196"
           d="M 5.125,12.375 5,12 5.5,12 6,12 6.125,12.375 6.25,12.75 6.15625,12.46875 6.0625,12.1875 6.125,12.375 q 0.0625,0.1875 0.1875,0.3125 l 0.125,0.125 L 6.375,12.75 6.3125,12.6875 6.03125,12.96875 5.75,13.25 5.5,13 Q 5.25,12.75 5.125,12.375 M 5.5625,13.0625 5.75,13.25 5.8125,13.3125 5.875,13.375 5.75,13.25 Q 5.625,13.125 5.5,13 l -0.125,-0.125 0.1875,0.1875"
           id="path64122"
           inkscape:connector-curvature="0" />
        <path
           style="fill:#e99700;fill-opacity:1"
           d="M 6.125,12.375 6,12 6.5,12 7,12 7,12.5 7,13 6.625,12.875 q -0.375,-0.125 -0.5,-0.5"
           id="path64124"
           inkscape:connector-curvature="0" />
        <path
           style="fill:#a96100;fill-opacity:1"
           d="M 7,12.5 7,12 7.375,12.125 q 0.375,0.125 0.5,0.5 L 8,13 7.5,13 7,13 7,12.5"
           id="path64126"
           inkscape:connector-curvature="0" />
        <path
           style="fill:#707070;fill-opacity:1"
           d="M 7.875,12.625 7.75,12.25 7.84375,12.53125 7.9375,12.8125 7.875,12.625 Q 7.8125,12.4375 7.6875,12.3125 L 7.5625,12.1875 7.625,12.25 7.6875,12.3125 7.96875,12.03125 8.25,11.75 8.5,12 Q 8.75,12.25 9,12.5 L 9.25,12.75 8.96875,13.03125 8.6875,13.3125 8.75,13.375 8.8125,13.4375 8.6875,13.3125 Q 8.5625,13.1875 8.375,13.125 L 8.1875,13.0625 8.46875,13.15625 8.75,13.25 8.375,13.125 8,13 7.875,12.625 M 9.3125,12.8125 9.25,12.75 9.0625,12.5625 8.875,12.375 9,12.5 q 0.125,0.125 0.25,0.25 L 9.375,12.875 9.3125,12.8125 M 8.4375,11.9375 8.25,11.75 8.1875,11.6875 8.125,11.625 8.25,11.75 Q 8.375,11.875 8.5,12 l 0.125,0.125 -0.1875,-0.1875"
           id="path64128"
           inkscape:connector-curvature="0" />
        <path
           style="fill:#d3d3d3;fill-opacity:1"
           d="M 10.875,12.375 Q 11,12 11.375,11.875 L 11.75,11.75 11.46875,11.84375 11.1875,11.9375 11.375,11.875 q 0.1875,-0.0625 0.3125,-0.1875 l 0.125,-0.125 -0.0625,0.0625 -0.0625,0.0625 0.296875,0.296875 0.296875,0.296875 0.07813,-0.04687 0.07813,-0.04687 -0.15625,0.09375 Q 12.125,12.375 12,12.5 L 11.875,12.625 12.0625,12.4375 12.25,12.25 12,12.5 Q 11.75,12.75 11.5,13 L 11.25,13.25 10.984375,12.953125 10.71875,12.65625 10.671875,12.703125 10.625,12.75 10.71875,12.65625 Q 10.8125,12.5625 10.875,12.375 L 10.9375,12.1875 10.84375,12.46875 10.75,12.75 10.875,12.375 M 11.1875,13.3125 11.25,13.25 11.4375,13.0625 11.625,12.875 11.5,13 q -0.125,0.125 -0.25,0.25 l -0.125,0.125 0.0625,-0.0625"
           id="path64130"
           inkscape:connector-curvature="0" />
        <path
           style="fill:#131313;fill-opacity:0.77254902"
           d="m 12,12.5 q 0.25,-0.25 0.625,-0.375 L 13,12 13.125,12.375 13.25,12.75 13.15625,12.46875 13.0625,12.1875 13.125,12.375 q 0.0625,0.1875 0.1875,0.3125 l 0.125,0.125 -0.0625,-0.0625 -0.0625,-0.0625 -0.296875,0.328125 -0.296875,0.328125 0.04687,0.04687 0.04687,0.04687 -0.09375,-0.09375 Q 12.625,13.25 12.5,13.25 l -0.125,0 0.1875,0 0.1875,0 -0.25,0 -0.25,0 0.1875,0 0.1875,0 -0.125,0 q -0.125,0 -0.21875,0.09375 L 12.1875,13.4375 12.23437,13.39063 12.28124,13.34376 12.015625,13.046875 11.75,12.75 12,12.5 M 11.9375,12.5625 11.75,12.75 11.6875,12.8125 11.625,12.875 11.75,12.75 Q 11.875,12.625 12,12.5 l 0.125,-0.125 -0.1875,0.1875"
           id="path64132"
           inkscape:connector-curvature="0" />
        <path
           style="fill:#233133;fill-opacity:0.89019608"
           d="M 13.125,12.375 13,12 l 0.5,0 0.5,0 0,0.5 0,0.5 0,-0.375 0,-0.375 0,0.25 q 0,0.25 0.125,0.375 L 14.25,13 14.1875,12.9375 14.125,12.875 13.6875,12.8125 Q 13.25,12.75 13.125,12.375 M 14,12.375 14,12 14,11.875 14,11.75 14,12 q 0,0.25 0,0.5 l 0,0.25 0,-0.375"
           id="path64134"
           inkscape:connector-curvature="0" />
        <path
           style="fill:#92bfc0;fill-opacity:1"
           d="m 14,12.5 0,-0.5 0.5,0 0.5,0 0,0.5 0,0.5 -0.5,0 Q 14,13 14,12.5"
           id="path64136"
           inkscape:connector-curvature="0" />
        <path
           style="fill:#99a0a1;fill-opacity:1"
           d="m 15,12.5 0,-0.5 0.5,0 0.5,0 0,0.5 0,0.5 -0.5,0 -0.5,0 0,-0.5 M 15.625,13 16,13 16.125,13 16.25,13 16,13 q -0.25,0 -0.5,0 l -0.25,0 0.375,0 M 16,12.375 16,12 16,11.875 16,11.75 16,12 q 0,0.25 0,0.5 l 0,0.25 0,-0.375 m -1,-0.5 0,0.125 0,0.375 0,0.375 0,-0.25 q 0,-0.25 0,-0.5 l 0,-0.25 0,0.125"
           id="path64138"
           inkscape:connector-curvature="0" />
        <path
           style="fill:#e5e4e4;fill-opacity:1"
           d="M 16,12.5 16,12 16.375,11.875 16.75,11.75 16.46875,11.84375 16.1875,11.9375 16.375,11.875 q 0.1875,-0.0625 0.3125,-0.1875 l 0.125,-0.125 -0.0625,0.0625 -0.0625,0.0625 0.296875,0.296875 0.296875,0.296875 0.04687,-0.07813 L 17.375,12.125 17.28125,12.28125 Q 17.1875,12.4375 17.125,12.625 L 17.0625,12.8125 17.15625,12.53125 17.25,12.25 17.125,12.625 Q 17,13 16.5,13 L 16,13 16,12.5 M 15.875,13 16,13 l 0.375,0 0.375,0 -0.25,0 q -0.25,0 -0.5,0 l -0.25,0 0.125,0"
           id="path64140"
           inkscape:connector-curvature="0" />
        <path
           style="fill:#4c4c4c;fill-opacity:0.91372549"
           d="M 17.125,12.625 Q 17.25,12.25 17.5,12 L 17.75,11.75 18,12 18.25,12.25 18,12.5 q -0.25,0.25 -0.671875,0.328125 l -0.421875,0.07813 -0.07813,0.04687 L 16.75,13 16.90625,12.90625 Q 17.0625,12.8125 17.125,12.625 L 17.1875,12.4375 17.09375,12.71875 17,13 17.125,12.625 M 18.0625,12.4375 18.25,12.25 18.3125,12.1875 18.375,12.125 18.25,12.25 Q 18.125,12.375 18,12.5 l -0.125,0.125 0.1875,-0.1875 m -0.25,-0.75 L 17.75,11.75 17.5625,11.9375 17.375,12.125 17.5,12 q 0.125,-0.125 0.25,-0.25 l 0.125,-0.125 -0.0625,0.0625"
           id="path64142"
           inkscape:connector-curvature="0" />
        <path
           style="fill:#000000;fill-opacity:0.16470588"
           d="M 18,12.5 Q 18.25,12.25 18.5,12 L 18.75,11.75 18.5625,11.9375 18.375,12.125 18.5,12 q 0.125,-0.125 0.21875,-0.28125 l 0.09375,-0.15625 -0.04687,0.07813 -0.04687,0.07813 0.296875,0.296875 0.296875,0.296875 0.0625,-0.0625 0.0625,-0.0625 -0.125,0.125 q -0.125,0.125 -0.1875,0.3125 L 19.0625,12.8125 19.15625,12.53125 19.25,12.25 19.125,12.625 Q 19,13 18.625,13.125 L 18.25,13.25 18.53125,13.15625 18.8125,13.0625 18.625,13.125 q -0.1875,0.0625 -0.3125,0.1875 l -0.125,0.125 0.0625,-0.0625 0.0625,-0.0625 -0.296875,-0.296875 -0.296875,-0.296875 -0.07813,0.04687 -0.07813,0.04687 0.15625,-0.09375 Q 17.875,12.625 18,12.5 L 18.125,12.375 17.9375,12.5625 17.75,12.75 18,12.5"
           id="path64144"
           inkscape:connector-curvature="0" />
        <path
           style="fill:#1d0a00;fill-opacity:0.78039216"
           d="M 6,13.5 5.75,13.25 6.03125,12.96875 6.3125,12.6875 6.25,12.625 6.1875,12.5625 l 0.125,0.125 q 0.125,0.125 0.3125,0.1875 L 6.8125,12.9375 6.53125,12.84375 6.25,12.75 6.625,12.875 7,13 7.125,13.375 7.25,13.75 7.15625,13.46875 7.0625,13.1875 7.125,13.375 q 0.0625,0.1875 0.1875,0.3125 l 0.125,0.125 L 7.375,13.75 7.3125,13.6875 7.015625,13.984375 6.71875,14.28125 6.765625,14.359375 6.8125,14.4375 6.71875,14.28125 Q 6.625,14.125 6.5,14 L 6.375,13.875 6.5625,14.0625 6.75,14.25 6.5,14 Q 6.25,13.75 6,13.5 M 5.6875,13.1875 5.75,13.25 5.9375,13.4375 6.125,13.625 6,13.5 Q 5.875,13.375 5.75,13.25 l -0.125,-0.125 0.0625,0.0625"
           id="path64146"
           inkscape:connector-curvature="0" />
        <path
           style="fill:#985f00;fill-opacity:1"
           d="M 7.125,13.375 7,13 7.5,13 8,13 8,13.5 8,14 7.625,13.875 q -0.375,-0.125 -0.5,-0.5"
           id="path64148"
           inkscape:connector-curvature="0" />
        <path
           style="fill:#b47800;fill-opacity:1"
           d="M 8,13.5 8,13 8.375,13.125 Q 8.75,13.25 8.859375,13.640625 L 8.96875,14.03125 9.078125,14.046875 9.1875,14.0625 8.96875,14.03125 Q 8.75,14 8.5,14 L 8.25,14 8.625,14 9,14 8.5,14 8,14 8,13.5"
           id="path64150"
           inkscape:connector-curvature="0" />
        <path
           style="fill:#716d6b;fill-opacity:1"
           d="M 8.859375,13.640625 8.75,13.25 8.84375,13.53125 8.9375,13.8125 8.875,13.625 Q 8.8125,13.4375 8.6875,13.3125 L 8.5625,13.1875 8.625,13.25 8.6875,13.3125 8.96875,13.03125 9.25,12.75 9.5,13 q 0.25,0.25 0.5,0.5 L 10.25,13.75 10.0625,13.5625 9.875,13.375 10,13.5 q 0.125,0.125 0.25,0.1875 L 10.375,13.75 10.3125,13.71875 10.25,13.6875 9.984375,13.984375 9.71875,14.28125 9.796875,14.328125 9.875,14.375 9.71875,14.28125 Q 9.5625,14.1875 9.375,14.125 L 9.1875,14.0625 9.46875,14.15625 9.75,14.25 9.375,14.125 9,14 9.28125,14.09375 9.5625,14.1875 9.375,14.125 Q 9.1875,14.0625 8.96875,14.03125 L 8.75,14 8.859375,14.015625 8.96875,14.03125 8.859375,13.640625 M 9.4375,12.9375 9.25,12.75 9.1875,12.6875 9.125,12.625 9.25,12.75 Q 9.375,12.875 9.5,13 l 0.125,0.125 -0.1875,-0.1875"
           id="path64152"
           inkscape:connector-curvature="0" />
        <path
           style="fill:#f5f5f5;fill-opacity:1"
           d="M 10,13.5 9.75,13.25 10,13 q 0.25,-0.25 0.5,-0.25 l 0.25,0 -0.1875,0 -0.1875,0 0.125,0 q 0.125,0 0.21875,-0.09375 l 0.09375,-0.09375 -0.04687,0.04687 -0.04687,0.04687 0.265625,0.296875 L 11.25,13.25 11,13.5 q -0.25,0.25 -0.5,0.25 -0.25,0 -0.5,-0.25 M 11.0625,13.4375 11.25,13.25 11.3125,13.1875 11.375,13.125 11.25,13.25 Q 11.125,13.375 11,13.5 l -0.125,0.125 0.1875,-0.1875 M 9.6875,13.1875 9.75,13.25 9.9375,13.4375 10.125,13.625 10,13.5 Q 9.875,13.375 9.75,13.25 l -0.125,-0.125 0.0625,0.0625"
           id="path64154"
           inkscape:connector-curvature="0" />
        <path
           style="fill:#2c2c2c;fill-opacity:0.85490196"
           d="m 11,13.5 q 0.25,-0.25 0.5,-0.5 l 0.25,-0.25 0.265625,0.296875 0.265625,0.296875 0.04687,-0.04687 L 12.375,13.25 12.28125,13.34375 Q 12.1875,13.4375 12.125,13.625 L 12.0625,13.8125 12.15625,13.53125 12.25,13.25 12.125,13.625 12,14 11.625,14.125 11.25,14.25 11.53125,14.15625 11.8125,14.0625 11.625,14.125 q -0.1875,0.0625 -0.3125,0.1875 l -0.125,0.125 L 11.25,14.375 11.3125,14.3125 11.03125,14 10.75,13.6875 10.6875,13.71875 10.625,13.75 10.75,13.6875 Q 10.875,13.625 11,13.5 L 11.125,13.375 10.9375,13.5625 10.75,13.75 11,13.5 M 11.8125,12.6875 11.75,12.75 11.5625,12.9375 11.375,13.125 11.5,13 q 0.125,-0.125 0.25,-0.25 l 0.125,-0.125 -0.0625,0.0625"
           id="path64156"
           inkscape:connector-curvature="0" />
        <path
           style="fill:#000000;fill-opacity:0.00784314"
           d="M 12.875,13.625 12.75,13.25 12.84375,13.53125 12.9375,13.8125 12.875,13.625 Q 12.8125,13.4375 12.71875,13.34375 L 12.625,13.25 l 0.04687,0.04687 0.04687,0.04687 0.296875,-0.328125 L 13.3125,12.6875 13.25,12.625 l -0.0625,-0.0625 0.125,0.125 q 0.125,0.125 0.3125,0.1875 L 13.8125,12.9375 13.53125,12.84375 13.25,12.75 13.6875,12.8125 14.125,12.875 14.0625,13.4375 14,14 13.5,14 Q 13,14 12.875,13.625"
           id="path64158"
           inkscape:connector-curvature="0" />
        <path
           style="fill:#040505;fill-opacity:0.72941176"
           d="M 14.0625,13.4375 14.125,12.875 14.0625,12.8125 14,12.75 14.125,12.875 Q 14.25,13 14.5,13 l 0.25,0 -0.375,0 -0.375,0 0.5,0 0.5,0 0.125,0.375 0.125,0.375 -0.09375,-0.28125 -0.09375,-0.28125 0.0625,0.1875 q 0.0625,0.1875 0.15625,0.28125 L 15.375,13.75 15.32813,13.70313 15.28126,13.65626 15.015635,13.953135 Q 14.75,14.25 14.375,14.125 L 14,14 14.0625,13.4375"
           id="path64160"
           inkscape:connector-curvature="0" />
        <path
           style="fill:#333636;fill-opacity:0.95294118"
           d="M 15.125,13.375 15,13 l 0.5,0 0.5,0 -0.125,0.375 Q 15.75,13.75 15.5,13.75 q -0.25,0 -0.375,-0.375 m 1,-0.375 -0.125,0 -0.375,0 -0.375,0 0.25,0 q 0.25,0 0.5,0 l 0.25,0 -0.125,0"
           id="path64162"
           inkscape:connector-curvature="0" />
        <path
           style="fill:#151515;fill-opacity:0.6627451"
           d="M 15.875,13.375 16,13 l 0.5,0 0.5,0 -0.375,0 -0.375,0 0.25,0 q 0.25,0 0.40625,-0.09375 l 0.15625,-0.09375 -0.07813,0.04687 -0.07813,0.04687 0.04687,0.546875 L 17,14 16.625,14.125 Q 16.25,14.25 15.984375,13.953125 L 15.71875,13.65625 15.671875,13.703125 15.625,13.75 15.71875,13.65625 Q 15.8125,13.5625 15.875,13.375 L 15.9375,13.1875 15.84375,13.46875 15.75,13.75 15.875,13.375 M 16.375,13 16,13 15.875,13 15.75,13 16,13 q 0.25,0 0.5,0 l 0.25,0 -0.375,0"
           id="path64164"
           inkscape:connector-curvature="0" />
        <path
           style="fill:#000000;fill-opacity:0.03921569"
           d="M 16.953125,13.453125 16.90625,12.90625 17.328125,12.828125 17.75,12.75 17.46875,12.84375 17.1875,12.9375 17.375,12.875 q 0.1875,-0.0625 0.34375,-0.15625 L 17.875,12.625 l -0.07813,0.04687 -0.07813,0.04687 0.296875,0.296875 0.296875,0.296875 0.0625,-0.0625 0.0625,-0.0625 -0.125,0.125 q -0.125,0.125 -0.1875,0.3125 L 18.0625,13.8125 18.15625,13.53125 18.25,13.25 18.125,13.625 Q 18,14 17.5,14 L 17,14 16.95313,13.453125"
           id="path64166"
           inkscape:connector-curvature="0" />
        <path
           style="fill:#130700;fill-opacity:0.6745098"
           d="M 6.875,14.625 6.75,14.25 6.84375,14.53125 6.9375,14.8125 6.875,14.625 Q 6.8125,14.4375 6.71875,14.28125 L 6.625,14.125 6.671875,14.203125 6.71875,14.28125 7.015625,13.984375 7.3125,13.6875 7.25,13.625 7.1875,13.5625 l 0.125,0.125 q 0.125,0.125 0.3125,0.1875 L 7.8125,13.9375 7.53125,13.84375 7.25,13.75 7.625,13.875 8,14 8.125,14.375 8.25,14.75 8.15625,14.46875 8.0625,14.1875 8.125,14.375 q 0.0625,0.1875 0.1875,0.3125 l 0.125,0.125 L 8.375,14.75 8.3125,14.6875 8,15 7.6875,15.3125 7.75,15.375 7.8125,15.4375 7.6875,15.3125 Q 7.5625,15.1875 7.375,15.125 L 7.1875,15.0625 7.46875,15.15625 7.75,15.25 7.375,15.125 Q 7,15 6.875,14.625"
           id="path64168"
           inkscape:connector-curvature="0" />
        <path
           style="fill:#c57600;fill-opacity:1"
           d="M 8.125,14.375 8,14 8.5,14 9,14 8.96875,14.53125 8.9375,15.0625 9,15.125 9.0625,15.1875 8.9375,15.0625 Q 8.8125,14.9375 8.625,14.875 L 8.4375,14.8125 8.71875,14.90625 9,15 8.625,14.875 q -0.375,-0.125 -0.5,-0.5"
           id="path64170"
           inkscape:connector-curvature="0" />
        <path
           style="fill:#c47a00;fill-opacity:1"
           d="M 8.96875,14.53125 9,14 9.375,14.125 Q 9.75,14.25 10,14.5 L 10.25,14.75 10.0625,14.5625 9.875,14.375 10,14.5 q 0.125,0.125 0.28125,0.21875 L 10.4375,14.8125 10.359375,14.765625 10.28125,14.71875 9.984375,15.015625 9.6875,15.3125 9.75,15.375 9.8125,15.4375 9.6875,15.3125 Q 9.5625,15.1875 9.375,15.125 L 9.1875,15.0625 9.46875,15.15625 9.75,15.25 9.34375,15.15625 8.9375,15.0625 8.96875,14.53125"
           id="path64172"
           inkscape:connector-curvature="0" />
        <path
           style="fill:#4e4b48;fill-opacity:1"
           d="M 10,14.5 9.75,14.25 9.9375,14.4375 10.125,14.625 10,14.5 Q 9.875,14.375 9.71875,14.28125 L 9.5625,14.1875 9.640625,14.234375 9.71875,14.28125 9.984375,13.984375 10.25,13.6875 10.1875,13.65625 10.125,13.625 10.25,13.6875 Q 10.375,13.75 10.5,13.75 l 0.125,0 -0.1875,0 -0.1875,0 0.25,0 0.25,0 -0.1875,0 -0.1875,0 0.125,0 q 0.125,0 0.25,-0.0625 L 10.875,13.625 10.8125,13.65625 10.75,13.6875 11.03125,14 11.3125,14.3125 11.375,14.25 l 0.0625,-0.0625 -0.125,0.125 q -0.125,0.125 -0.1875,0.3125 L 11.0625,14.8125 11.15625,14.53125 11.25,14.25 11.125,14.625 11,15 11.09375,14.71875 11.1875,14.4375 11.125,14.625 Q 11.0625,14.8125 11.0625,15 l 0,0.1875 0,-0.09375 0,-0.09375 -0.40625,-0.125 Q 10.25,14.75 10,14.5"
           id="path64174"
           inkscape:connector-curvature="0" />
        <path
           style="fill:#000000;fill-opacity:0.21960784"
           d="m 11.125,14.625 q 0.125,-0.375 0.5,-0.5 L 12,14 l 0,0.5 0,0.5 -0.5,0 -0.5,0 0.125,-0.375"
           id="path64176"
           inkscape:connector-curvature="0" />
        <path
           style="fill:#030000;fill-opacity:0.57254902"
           d="M 7.875,15.625 7.75,15.25 7.84375,15.53125 7.9375,15.8125 7.875,15.625 Q 7.8125,15.4375 7.6875,15.3125 L 7.5625,15.1875 7.625,15.25 7.6875,15.3125 8,15 8.3125,14.6875 8.25,14.625 8.1875,14.5625 l 0.125,0.125 q 0.125,0.125 0.3125,0.1875 L 8.8125,14.9375 8.53125,14.84375 8.25,14.75 8.625,14.875 Q 9,15 9.125,15.375 L 9.25,15.75 9.15625,15.46875 9.0625,15.1875 9.125,15.375 q 0.0625,0.1875 0.1875,0.3125 l 0.125,0.125 L 9.375,15.75 9.3125,15.6875 9,16 8.6875,16.3125 8.75,16.375 8.8125,16.4375 8.6875,16.3125 Q 8.5625,16.1875 8.375,16.125 L 8.1875,16.0625 8.46875,16.15625 8.75,16.25 8.375,16.125 Q 8,16 7.875,15.625"
           id="path64178"
           inkscape:connector-curvature="0" />
        <path
           style="fill:#a75e00;fill-opacity:1"
           d="M 9.125,15.375 9,15 9.09375,15.28125 9.1875,15.5625 9.125,15.375 Q 9.0625,15.1875 8.9375,15.0625 L 8.8125,14.9375 8.875,15 8.9375,15.0625 9.34375,15.15625 Q 9.75,15.25 9.875,15.625 L 10,16 9.625,15.875 q -0.375,-0.125 -0.5,-0.5"
           id="path64180"
           inkscape:connector-curvature="0" />
        <path
           style="fill:#c37500;fill-opacity:1"
           d="M 9.875,15.625 9.75,15.25 9.84375,15.53125 9.9375,15.8125 9.875,15.625 Q 9.8125,15.4375 9.6875,15.3125 L 9.5625,15.1875 9.625,15.25 9.6875,15.3125 9.984375,15.015625 10.28125,14.71875 10.203125,14.671875 10.125,14.625 10.28125,14.71875 Q 10.4375,14.8125 10.625,14.875 L 10.8125,14.9375 10.53125,14.84375 10.25,14.75 10.65625,14.875 11.0625,15 l 0,-0.09375 0,-0.09375 0,0.1875 q 0,0.1875 0.0625,0.375 L 11.1875,15.5625 11.09375,15.28125 11,15 11.125,15.375 11.25,15.75 11.15625,15.46875 11.0625,15.1875 11.125,15.375 q 0.0625,0.1875 0.15625,0.34375 L 11.375,15.875 11.328125,15.796875 11.28125,15.71875 11,16 10.71875,16.28125 10.79688,16.32812 10.875,16.375 10.71875,16.28125 Q 10.5625,16.1875 10.375,16.125 L 10.1875,16.0625 10.46875,16.15625 10.75,16.25 10.375,16.125 10,16 9.875,15.625"
           id="path64182"
           inkscape:connector-curvature="0" />
        <path
           style="fill:#0a0700;fill-opacity:0.58431373"
           d="M 11.125,15.375 11,15 l 0.5,0 0.5,0 0.125,0.375 0.125,0.375 -0.09375,-0.28125 -0.09375,-0.28125 0.0625,0.1875 q 0.0625,0.1875 0.1875,0.3125 l 0.125,0.125 L 12.375,15.75 12.3125,15.6875 12.03125,15.96875 11.75,16.25 11.5,16 Q 11.25,15.75 11.125,15.375 M 11.5625,16.0625 11.75,16.25 11.8125,16.3125 11.875,16.375 11.75,16.25 Q 11.625,16.125 11.5,16 l -0.125,-0.125 0.1875,0.1875"
           id="path64184"
           inkscape:connector-curvature="0" />
        <path
           style="fill:#000000;fill-opacity:0.44313725"
           d="M 8.875,16.625 8.75,16.25 8.84375,16.53125 8.9375,16.8125 8.875,16.625 Q 8.8125,16.4375 8.6875,16.3125 L 8.5625,16.1875 8.625,16.25 8.6875,16.3125 9,16 9.3125,15.6875 9.25,15.625 9.1875,15.5625 l 0.125,0.125 q 0.125,0.125 0.3125,0.1875 L 9.8125,15.9375 9.53125,15.84375 9.25,15.75 9.625,15.875 10,16 10.125,16.375 10.25,16.75 10.15625,16.46875 10.0625,16.1875 10.125,16.375 q 0.0625,0.1875 0.15625,0.34375 L 10.375,16.875 10.328125,16.796875 10.28125,16.71875 9.984375,17.015625 9.6875,17.3125 9.75,17.375 9.8125,17.4375 9.6875,17.3125 Q 9.5625,17.1875 9.375,17.125 L 9.1875,17.0625 9.46875,17.15625 9.75,17.25 9.375,17.125 Q 9,17 8.875,16.625"
           id="path64186"
           inkscape:connector-curvature="0" />
        <path
           style="fill:#894900;fill-opacity:0.98823529"
           d="M 10.125,16.375 10,16 10.375,16.125 Q 10.75,16.25 11,16.5 L 11.25,16.75 11,17 10.75,17.25 10.5,17 Q 10.25,16.75 10.125,16.375 M 10.5625,17.0625 10.75,17.25 10.8125,17.3125 10.875,17.375 10.75,17.25 Q 10.625,17.125 10.5,17 l -0.125,-0.125 0.1875,0.1875 m 0.75,-0.25 L 11.25,16.75 11.0625,16.5625 10.875,16.375 11,16.5 q 0.125,0.125 0.25,0.25 l 0.125,0.125 -0.0625,-0.0625"
           id="path64188"
           inkscape:connector-curvature="0" />
        <path
           style="fill:#c06f00;fill-opacity:1"
           d="M 11,16.5 10.75,16.25 10.9375,16.4375 11.125,16.625 11,16.5 Q 10.875,16.375 10.71875,16.28125 L 10.5625,16.1875 10.64063,16.23437 10.71876,16.28124 11,16 l 0.28125,-0.28125 -0.04687,-0.07813 -0.04687,-0.07813 0.09375,0.15625 Q 11.375,15.875 11.5,16 L 11.625,16.125 11.4375,15.9375 11.25,15.75 11.5,16 q 0.25,0.25 0.5,0.5 l 0.25,0.25 -0.265625,0.265625 -0.265625,0.265625 0.04687,0.07813 0.04687,0.07813 -0.09375,-0.15625 Q 11.625,17.125 11.5,17 L 11.375,16.875 11.5625,17.0625 11.75,17.25 11.5,17 Q 11.25,16.75 11,16.5 M 12.3125,16.8125 12.25,16.75 12.0625,16.5625 11.875,16.375 12,16.5 q 0.125,0.125 0.25,0.25 l 0.125,0.125 -0.0625,-0.0625"
           id="path64190"
           inkscape:connector-curvature="0" />
        <path
           style="fill:#0e0500;fill-opacity:0.58431373"
           d="M 12,16.5 11.75,16.25 12.03125,15.96875 12.3125,15.6875 12.25,15.625 l -0.0625,-0.0625 0.125,0.125 q 0.125,0.125 0.3125,0.1875 L 12.8125,15.9375 12.53125,15.84375 12.25,15.75 12.625,15.875 Q 13,16 13.125,16.375 L 13.25,16.75 13.15625,16.46875 13.0625,16.1875 13.125,16.375 q 0.0625,0.1875 0.1875,0.3125 l 0.125,0.125 L 13.375,16.75 13.3125,16.6875 13.03125,16.96875 12.75,17.25 12.5,17 Q 12.25,16.75 12,16.5 M 12.5625,17.0625 12.75,17.25 12.8125,17.3125 12.875,17.375 12.75,17.25 Q 12.625,17.125 12.5,17 l -0.125,-0.125 0.1875,0.1875 M 11.6875,16.1875 11.75,16.25 11.9375,16.4375 12.125,16.625 12,16.5 q -0.125,-0.125 -0.25,-0.25 l -0.125,-0.125 0.0625,0.0625"
           id="path64192"
           inkscape:connector-curvature="0" />
        <path
           style="fill:#000000;fill-opacity:0.29411765"
           d="M 9.875,17.625 9.75,17.25 9.84375,17.53125 9.9375,17.8125 9.875,17.625 Q 9.8125,17.4375 9.6875,17.3125 l -0.125,-0.125 0.0625,0.0625 0.0625,0.0625 0.296875,-0.296875 0.296875,-0.296875 -0.04687,-0.07813 -0.04687,-0.07813 0.09375,0.15625 Q 10.375,16.875 10.5,17 L 10.625,17.125 10.4375,16.9375 10.25,16.75 10.5,17 q 0.25,0.25 0.5,0.5 L 11.25,17.75 11.0625,17.5625 10.875,17.375 11,17.5 q 0.125,0.125 0.28125,0.21875 l 0.15625,0.09375 -0.07813,-0.04687 -0.07813,-0.04687 -0.296875,0.296875 -0.296875,0.296875 0.0625,0.0625 0.0625,0.0625 -0.125,-0.125 Q 10.5625,18.1875 10.375,18.125 L 10.1875,18.0625 10.46875,18.15625 10.75,18.25 10.375,18.125 Q 10,18 9.875,17.625"
           id="path64194"
           inkscape:connector-curvature="0" />
        <path
           style="fill:#763d00;fill-opacity:0.96470588"
           d="M 11,17.5 10.75,17.25 11,17 11.25,16.75 11.5,17 q 0.25,0.25 0.375,0.625 L 12,18 11.625,17.875 Q 11.25,17.75 11,17.5 M 11.4375,16.9375 11.25,16.75 11.1875,16.6875 11.125,16.625 11.25,16.75 q 0.125,0.125 0.25,0.25 l 0.125,0.125 -0.1875,-0.1875 m -0.75,0.25 L 10.75,17.25 10.9375,17.4375 11.125,17.625 11,17.5 q -0.125,-0.125 -0.25,-0.25 l -0.125,-0.125 0.0625,0.0625"
           id="path64196"
           inkscape:connector-curvature="0" />
        <path
           style="fill:#b36100;fill-opacity:1"
           d="M 11.875,17.625 11.75,17.25 11.84375,17.53125 11.9375,17.8125 11.875,17.625 Q 11.8125,17.4375 11.71875,17.28125 L 11.625,17.125 l 0.04687,0.07813 0.04687,0.07813 0.265625,-0.265625 L 12.25,16.75 12.5,17 q 0.25,0.25 0.5,0.5 l 0.25,0.25 -0.28125,0.28125 -0.28125,0.28125 0.0625,0.0625 0.0625,0.0625 -0.125,-0.125 Q 12.5625,18.1875 12.375,18.125 L 12.1875,18.0625 12.46875,18.15625 12.75,18.25 12.375,18.125 12,18 11.875,17.625 M 13.3125,17.8125 13.25,17.75 13.0625,17.5625 12.875,17.375 13,17.5 q 0.125,0.125 0.25,0.25 l 0.125,0.125 -0.0625,-0.0625 M 12.4375,16.9375 12.25,16.75 12.1875,16.6875 12.125,16.625 12.25,16.75 q 0.125,0.125 0.25,0.25 l 0.125,0.125 -0.1875,-0.1875"
           id="path64198"
           inkscape:connector-curvature="0" />
        <path
           style="fill:#130a00;fill-opacity:0.58431373"
           d="M 13,17.5 12.75,17.25 13.03125,16.96875 13.3125,16.6875 13.25,16.625 l -0.0625,-0.0625 0.125,0.125 q 0.125,0.125 0.3125,0.1875 L 13.8125,16.9375 13.53125,16.84375 13.25,16.75 13.625,16.875 Q 14,17 14.125,17.375 L 14.25,17.75 14.15625,17.46875 14.0625,17.1875 14.125,17.375 q 0.0625,0.1875 0.1875,0.3125 l 0.125,0.125 -0.0625,-0.0625 -0.0625,-0.0625 -0.296875,0.296875 -0.296875,0.296875 0.04687,0.07813 0.04687,0.07813 -0.09375,-0.15625 Q 13.625,18.125 13.5,18 L 13.375,17.875 13.5625,18.0625 13.75,18.25 13.5,18 Q 13.25,17.75 13,17.5 M 12.6875,17.1875 12.75,17.25 12.9375,17.4375 13.125,17.625 13,17.5 q -0.125,-0.125 -0.25,-0.25 l -0.125,-0.125 0.0625,0.0625"
           id="path64200"
           inkscape:connector-curvature="0" />
        <path
           style="fill:#000000;fill-opacity:0.18039216"
           d="M 10.875,18.625 10.75,18.25 10.84375,18.53125 10.9375,18.8125 10.875,18.625 q -0.0625,-0.1875 -0.1875,-0.3125 l -0.125,-0.125 0.0625,0.0625 0.0625,0.0625 0.296875,-0.296875 L 11.28125,17.71875 11.20312,17.67188 11.125,17.625 11.28125,17.71875 Q 11.4375,17.8125 11.625,17.875 L 11.8125,17.9375 11.53125,17.84375 11.25,17.75 11.625,17.875 12,18 12.125,18.375 12.25,18.75 12.15625,18.46875 12.0625,18.1875 12.125,18.375 q 0.0625,0.1875 0.1875,0.3125 l 0.125,0.125 L 12.375,18.75 12.3125,18.6875 12,19 l -0.3125,0.3125 0.0625,0.0625 0.0625,0.0625 -0.125,-0.125 Q 11.5625,19.1875 11.375,19.125 L 11.1875,19.0625 11.46875,19.15625 11.75,19.25 11.375,19.125 Q 11,19 10.875,18.625"
           id="path64202"
           inkscape:connector-curvature="0" />
        <path
           style="fill:#5d2d00;fill-opacity:0.92941176"
           d="M 12.125,18.375 12,18 l 0.375,0.125 q 0.375,0.125 0.5,0.5 L 13,19 12.625,18.875 q -0.375,-0.125 -0.5,-0.5"
           id="path64204"
           inkscape:connector-curvature="0" />
        <path
           style="fill:#a65500;fill-opacity:1"
           d="M 12.875,18.625 12.75,18.25 12.84375,18.53125 12.9375,18.8125 12.875,18.625 q -0.0625,-0.1875 -0.1875,-0.3125 l -0.125,-0.125 0.0625,0.0625 0.0625,0.0625 0.28125,-0.28125 L 13.25,17.75 13.5,18 q 0.25,0.25 0.375,0.625 L 14,19 13.5,19 13,19 12.875,18.625 M 13.4375,17.9375 13.25,17.75 13.1875,17.6875 13.125,17.625 13.25,17.75 q 0.125,0.125 0.25,0.25 l 0.125,0.125 -0.1875,-0.1875"
           id="path64206"
           inkscape:connector-curvature="0" />
        <path
           style="fill:#140c00;fill-opacity:0.59215686"
           d="M 13.875,18.625 13.75,18.25 13.84375,18.53125 13.9375,18.8125 13.875,18.625 Q 13.8125,18.4375 13.71875,18.28125 L 13.625,18.125 l 0.04687,0.07813 0.04687,0.07813 0.296875,-0.296875 L 14.3125,17.6875 14.25,17.625 l -0.0625,-0.0625 0.125,0.125 q 0.125,0.125 0.3125,0.1875 L 14.8125,17.9375 14.53125,17.84375 14.25,17.75 14.625,17.875 Q 15,18 15.125,18.375 L 15.25,18.75 15.15625,18.46875 15.0625,18.1875 15.125,18.375 q 0.0625,0.1875 0.15625,0.34375 L 15.375,18.875 15.328125,18.796875 15.28125,18.71875 14.96875,19 14.65625,19.28125 14.70312,19.32812 14.75,19.375 14.65625,19.28125 Q 14.5625,19.1875 14.375,19.125 L 14.1875,19.0625 14.46875,19.15625 14.75,19.25 14.375,19.125 14,19 13.875,18.625"
           id="path64208"
           inkscape:connector-curvature="0" />
        <path
           style="fill:#000000;fill-opacity:0.0745098"
           d="M 11.875,19.625 11.75,19.25 11.84375,19.53125 11.9375,19.8125 11.875,19.625 q -0.0625,-0.1875 -0.1875,-0.3125 l -0.125,-0.125 0.0625,0.0625 0.0625,0.0625 L 12,19 12.3125,18.6875 12.25,18.625 l -0.0625,-0.0625 0.125,0.125 q 0.125,0.125 0.3125,0.1875 L 12.8125,18.9375 12.53125,18.84375 12.25,18.75 12.625,18.875 13,19 13.125,19.375 13.25,19.75 13.15625,19.46875 13.0625,19.1875 13.125,19.375 q 0.0625,0.1875 0.1875,0.3125 l 0.125,0.125 L 13.375,19.75 13.3125,19.6875 13.03125,19.96875 Q 12.75,20.25 12.375,20.125 12,20 11.875,19.625"
           id="path64210"
           inkscape:connector-curvature="0" />
        <path
           style="fill:#441f00;fill-opacity:0.85882353"
           d="M 13.125,19.375 13,19 l 0.5,0 0.5,0 0,0.5 0,0.5 -0.375,-0.125 q -0.375,-0.125 -0.5,-0.5"
           id="path64212"
           inkscape:connector-curvature="0" />
        <path
           style="fill:#954700;fill-opacity:1"
           d="m 14,19.5 0,-0.5 0.375,0.125 q 0.375,0.125 0.375,0.375 0,0.25 -0.375,0.375 L 14,20 14,19.5"
           id="path64214"
           inkscape:connector-curvature="0" />
        <path
           style="fill:#190c00;fill-opacity:0.59607843"
           d="m 14.75,19.5 0,-0.25 0,0.1875 0,0.1875 0,-0.125 q 0,-0.125 -0.09375,-0.21875 l -0.09375,-0.09375 0.04687,0.04687 0.04687,0.04687 0.3125,-0.28125 0.3125,-0.28125 -0.04687,-0.07813 -0.04687,-0.07813 0.09375,0.15625 Q 15.375,18.875 15.5,19 L 15.625,19.125 15.4375,18.9375 15.25,18.75 15.5,19 q 0.25,0.25 0.375,0.625 L 16,20 15.625,20.125 15.25,20.25 15.53125,20.15625 15.8125,20.0625 15.625,20.125 q -0.1875,0.0625 -0.3125,0.1875 l -0.125,0.125 0.0625,-0.0625 0.0625,-0.0625 -0.328125,-0.296875 -0.328125,-0.296875 -0.04687,0.04687 -0.04687,0.04687 0.09375,-0.09375 Q 14.75,19.625 14.75,19.5 l 0,-0.125 0,0.1875 0,0.1875 0,-0.25"
           id="path64216"
           inkscape:connector-curvature="0" />
        <path
           style="fill:#291000;fill-opacity:0.77254902"
           d="M 14.125,20.375 14,20 14.375,19.875 14.75,19.75 14.46875,19.84375 14.1875,19.9375 14.375,19.875 q 0.1875,-0.0625 0.28125,-0.15625 L 14.75,19.625 l -0.04687,0.04687 -0.04687,0.04687 0.328125,0.296875 0.328125,0.296875 0.0625,-0.0625 0.0625,-0.0625 -0.125,0.125 q -0.125,0.125 -0.1875,0.3125 L 15.0625,20.8125 15.15625,20.53125 15.25,20.25 15.125,20.625 15,21 14.625,20.875 q -0.375,-0.125 -0.5,-0.5"
           id="path64218"
           inkscape:connector-curvature="0" />
        <path
           style="fill:#261000;fill-opacity:0.70588235"
           d="m 15.125,20.625 q 0.125,-0.375 0.5,-0.5 L 16,20 15.875,20.375 q -0.125,0.375 -0.5,0.5 L 15,21 15.125,20.625"
           id="path64220"
           inkscape:connector-curvature="0" />
      </g>
    </g>
  </g>
</svg>
