<?xml version="1.0" encoding="UTF-8" standalone="no"?>
<!-- Created with Inkscape (http://www.inkscape.org/) -->

<svg
   xmlns:dc="http://purl.org/dc/elements/1.1/"
   xmlns:cc="http://creativecommons.org/ns#"
   xmlns:rdf="http://www.w3.org/1999/02/22-rdf-syntax-ns#"
   xmlns:svg="http://www.w3.org/2000/svg"
   xmlns="http://www.w3.org/2000/svg"
   xmlns:sodipodi="http://sodipodi.sourceforge.net/DTD/sodipodi-0.dtd"
   xmlns:inkscape="http://www.inkscape.org/namespaces/inkscape"
   width="20"
   height="20"
   viewBox="0 0 20 20"
   id="svg3347"
   version="1.1"
   inkscape:version="0.91 r13725"
   sodipodi:docname="Civ5Icon.Plus.svg">
  <defs
     id="defs3349" />
  <sodipodi:namedview
     id="base"
     pagecolor="#ffffff"
     bordercolor="#666666"
     borderopacity="1.0"
     inkscape:pageopacity="0.0"
     inkscape:pageshadow="2"
     inkscape:zoom="11.2"
     inkscape:cx="13.251856"
     inkscape:cy="8.3638322"
     inkscape:document-units="px"
     inkscape:current-layer="layer1"
     showgrid="false"
     units="px"
     inkscape:window-width="1477"
     inkscape:window-height="962"
     inkscape:window-x="533"
     inkscape:window-y="95"
     inkscape:window-maximized="0" />
  <metadata
     id="metadata3352">
    <rdf:RDF>
      <cc:Work
         rdf:about="">
        <dc:format>image/svg+xml</dc:format>
        <dc:type
           rdf:resource="http://purl.org/dc/dcmitype/StillImage" />
        <dc:title></dc:title>
      </cc:Work>
    </rdf:RDF>
  </metadata>
  <g
     inkscape:label="Layer 1"
     inkscape:groupmode="layer"
     id="layer1"
     transform="translate(0,-1032.3622)">
    <g
       transform="translate(-0.75892757,1031.6925)"
       id="g26366">
      <path
         style="fill:#000000;fill-opacity:0"
         d="M 0,0.5 0,0 0.5,0 1,0 1.5,0 2,0 2.5,0 3,0 3.5,0 4,0 4.5,0 5,0 5.5,0 6,0 6.5,0 7,0 7.5,0 8,0 8.5,0 9,0 9.5,0 10,0 l 0.5,0 0.5,0 0.5,0 0.5,0 0.5,0 0.5,0 0.5,0 0.5,0 0.5,0 0.5,0 0.5,0 0.5,0 0.5,0 0.5,0 0.5,0 0.5,0 0.5,0 0.5,0 0.5,0 0.5,0 0.5,0 0.5,0 0.5,0 0.5,0 0,0.5 0,0.5 0,0.5 0,0.5 0,0.5 0,0.5 0,0.5 0,0.5 0,0.5 0,0.5 0,0.5 0,0.5 0,0.5 0,0.5 0,0.5 0,0.5 0,0.5 0,0.5 0,0.5 0,0.5 0,0.5 0,0.5 0,0.5 0,0.5 0,0.5 0,0.5 0,0.5 0,0.5 0,0.5 0,0.5 0,0.5 0,0.5 0,0.5 0,0.5 0,0.5 0,0.5 0,0.5 0,0.5 0,0.5 0,0.5 0,0.5 0,0.5 0,0.5 0,0.5 -0.5,0 L 21,22 20.5,22 20,22 19.5,22 19,22 18.5,22 18,22 17.5,22 17,22 16.5,22 16,22 15.5,22 15,22 14.5,22 14,22 13.5,22 13,22 12.5,22 12,22 11.5,22 11,22 10.5,22 10,22 9.5,22 9,22 8.5,22 8,22 7.5,22 7,22 6.5,22 6,22 5.5,22 5,22 4.5,22 4,22 3.5,22 3,22 2.5,22 2,22 1.5,22 1,22 0.5,22 0,22 0,21.5 0,21 0,20.5 0,20 0,19.5 0,19 0,18.5 0,18 0,17.5 0,17 0,16.5 0,16 0,15.5 0,15 0,14.5 0,14 0,13.5 0,13 0,12.5 0,12 0,11.5 0,11 0,10.5 0,10 0,9.5 0,9 0,8.5 0,8 0,7.5 0,7 0,6.5 0,6 0,5.5 0,5 0,4.5 0,4 0,3.5 0,3 0,2.5 0,2 0,1.5 0,1 0,0.5 M 12.5,19 Q 13,19 13,18.5 l 0,-0.5 0,-0.5 0,-0.5 0,-0.5 0,-0.5 0,-0.5 0,-0.5 0,-0.5 0,-0.5 0.5,0 q 0.5,0 1,0 0.5,0 1,0 l 0.5,0 0.5,0 0.5,0 0.5,0 Q 18,14 18,13.5 L 18,13 18,12.5 18,12 18,11.5 Q 18,11 17.5,11 L 17,11 16.875,10.625 q -0.125,-0.375 -0.5,-0.5 L 16,10 15.5,10 15,10 14.5,10 14,10 13.5,10 13,10 13,9.5 13,9 13,8.5 13,8 13,7.5 13,7 13,6.5 Q 13,6 12.5,6 L 12,6 11.875,5.625 Q 11.75,5.25 11.375,5.125 11,5 10.5,5 10,5 9.625,5.125 9.25,5.25 9.125,5.625 L 9,6 9,6.5 9,7 9,7.5 9,8 9,8.5 9,9 8.875,9.375 Q 8.75,9.75 8.375,9.875 L 8,10 7.5,10 Q 7,10 6.5,10 L 6,10 5.5,10 5,10 4.625,10.125 Q 4.25,10.25 4.125,10.625 4,11 4,11.5 q 0,0.5 0.125,0.875 0.125,0.375 0.5,0.5 L 5,13 5,13.5 Q 5,14 5.5,14 l 0.5,0 0.5,0 0.5,0 0.5,0 q 0.5,0 1,0 l 0.5,0 0,0.5 0,0.5 0,0.5 0,0.5 0,0.5 0,0.5 0.125,0.375 q 0.125,0.375 0.5,0.5 L 10,18 l 0,0.5 q 0,0.5 0.5,0.5 l 0.5,0 0.5,0 0.5,0 0.5,0"
         id="path26368"
         inkscape:connector-curvature="0" />
      <path
         style="fill:#686858;fill-opacity:0.75294118"
         d="M 9.125,5.625 Q 9.25,5.25 9.625,5.125 L 10,5 9.71875,5.09375 9.4375,5.1875 9.625,5.125 Q 9.8125,5.0625 10.03125,5.03125 L 10.25,5 10.140625,5.015625 10.03125,5.03125 10.015625,5.515625 10,6 9.5,6 9,6 9.125,5.625"
         id="path26370"
         inkscape:connector-curvature="0" />
      <path
         style="fill:#a9aa8b;fill-opacity:1"
         d="M 10.015625,5.515625 10.03125,5.03125 9.921875,5.046875 9.8125,5.0625 10.03125,5.03125 Q 10.25,5 10.5,5 L 10.75,5 10.375,5 10,5 10.5,5 11,5 10.625,5 10.25,5 10.5,5 q 0.25,0 0.46875,0.03125 L 11.1875,5.0625 11.078125,5.046875 10.96875,5.03125 10.984375,5.515625 11,6 10.5,6 10,6 10.015625,5.515625"
         id="path26372"
         inkscape:connector-curvature="0" />
      <path
         style="fill:#545447;fill-opacity:0.81176471"
         d="M 10.984375,5.515625 10.96875,5.03125 10.859375,5.015625 10.75,5 10.96875,5.03125 Q 11.1875,5.0625 11.375,5.125 L 11.5625,5.1875 11.28125,5.09375 11,5 11.375,5.125 q 0.375,0.125 0.5,0.5 L 12,6 11.5,6 11,6 10.984375,5.515625"
         id="path26374"
         inkscape:connector-curvature="0" />
      <path
         style="fill:#6e6e5b;fill-opacity:0.75686275"
         d="M 9,6.5 9,6 9.5,6 10,6 10,6.5 10,7 9.5,7 9,7 9,6.5"
         id="path26376"
         inkscape:connector-curvature="0" />
      <path
         style="fill:#d6d6ab;fill-opacity:1"
         d="M 10,6.5 10,6 10.5,6 11,6 11,6.5 11,7 10.5,7 10,7 10,6.5"
         id="path26378"
         inkscape:connector-curvature="0" />
      <path
         style="fill:#62624d;fill-opacity:0.91372549"
         d="M 11,6.5 11,6 11.5,6 12,6 12,6.5 12,7 11.5,7 11,7 11,6.5"
         id="path26380"
         inkscape:connector-curvature="0" />
      <path
         style="fill:#000000;fill-opacity:0.41568627"
         d="M 12,6.5 12,6 12.5,6 Q 13,6 13,6.5 L 13,7 12.5,7 12,7 12,6.5"
         id="path26382"
         inkscape:connector-curvature="0" />
      <path
         style="fill:#767660;fill-opacity:0.75686275"
         d="M 9,7.5 9,7 9.5,7 10,7 10,7.5 10,8 9.5,8 9,8 9,7.5"
         id="path26384"
         inkscape:connector-curvature="0" />
      <path
         style="fill:#f0f0be;fill-opacity:1"
         d="M 10,7.5 10,7 10.5,7 11,7 11,7.5 11,8 10.5,8 10,8 10,7.5"
         id="path26386"
         inkscape:connector-curvature="0" />
      <path
         style="fill:#6d6d55;fill-opacity:0.92156863"
         d="M 11,7.5 11,7 11.5,7 12,7 12,7.5 12,8 11.5,8 11,8 11,7.5"
         id="path26388"
         inkscape:connector-curvature="0" />
      <path
         style="fill:#000000;fill-opacity:0.41960784"
         d="M 12,7.5 12,7 12.5,7 13,7 13,7.5 13,8 12.5,8 12,8 12,7.5"
         id="path26390"
         inkscape:connector-curvature="0" />
      <path
         style="fill:#787863;fill-opacity:0.76078431"
         d="M 9,8.5 9,8 9.5,8 10,8 10,8.5 10,9 9.5,9 9,9 9,8.5"
         id="path26392"
         inkscape:connector-curvature="0" />
      <path
         style="fill:#eeeebd;fill-opacity:1"
         d="m 10,8.5 0,-0.5 0.5,0 0.5,0 0,0.5 0,0.5 0,0.5 0,0.5 0.125,0.375 q 0.125,0.375 0.5,0.5 L 12,11 l 0,0.5 0,0.5 -0.375,0.125 q -0.375,0.125 -0.5,0.5 L 11,13 10.5,13 10,13 9.875,12.625 Q 9.75,12.25 9.375,12.125 L 9,12 8.5,12 8,12 7.5,12 7,12 7,11.5 7,11 7.5,11 8,11 8.5,11 q 0.5,0 0.875,-0.125 0.375,-0.125 0.5,-0.5 L 10,10 10,9.5 10,9 10,8.5"
         id="path26394"
         inkscape:connector-curvature="0" />
      <path
         style="fill:#6d6d54;fill-opacity:0.92156863"
         d="M 11,8.5 11,8 11.5,8 12,8 12,8.5 12,9 11.5,9 11,9 11,8.5"
         id="path26396"
         inkscape:connector-curvature="0" />
      <path
         style="fill:#000000;fill-opacity:0.42745098"
         d="M 12,8.5 12,8 12.5,8 13,8 13,8.5 13,9 12.5,9 12,9 12,8.5"
         id="path26398"
         inkscape:connector-curvature="0" />
      <path
         style="fill:#767660;fill-opacity:0.75686275"
         d="M 8.875,9.375 9,9 9.5,9 10,9 10,9.5 10,10 9.625,10.125 Q 9.25,10.25 8.96875,9.96875 L 8.6875,9.6875 8.625,9.75 8.5625,9.8125 8.6875,9.6875 Q 8.8125,9.5625 8.875,9.375 L 8.9375,9.1875 8.84375,9.46875 8.75,9.75 8.875,9.375"
         id="path26400"
         inkscape:connector-curvature="0" />
      <path
         style="fill:#6b6b54;fill-opacity:0.92941176"
         d="M 11,9.5 11,9 11.5,9 12,9 12.125,9.375 12.25,9.75 12.15625,9.46875 12.0625,9.1875 12.125,9.375 q 0.0625,0.1875 0.1875,0.3125 l 0.125,0.125 L 12.375,9.75 12.3125,9.6875 12,10 l -0.3125,0.3125 0.0625,0.0625 0.0625,0.0625 -0.125,-0.125 Q 11.5625,10.1875 11.375,10.125 L 11.1875,10.0625 11.46875,10.15625 11.75,10.25 11.375,10.125 11,10 11,9.5"
         id="path26402"
         inkscape:connector-curvature="0" />
      <path
         style="fill:#000000;fill-opacity:0.41176471"
         d="M 12.125,9.375 12,9 12.5,9 13,9 13,9.5 13,10 12.625,9.875 q -0.375,-0.125 -0.5,-0.5"
         id="path26404"
         inkscape:connector-curvature="0" />
      <path
         style="fill:#55554a;fill-opacity:0.81568627"
         d="m 4.125,10.625 q 0.125,-0.375 0.5,-0.5 L 5,10 5,10.5 5,11 4.515625,11.015625 4.03125,11.03125 4.015625,11.140625 4,11.25 4.03125,11.03125 Q 4.0625,10.8125 4.125,10.625 L 4.1875,10.4375 4.09375,10.71875 4,11 4.125,10.625"
         id="path26406"
         inkscape:connector-curvature="0" />
      <path
         style="fill:#6a6a57;fill-opacity:0.82352941"
         d="M 5,10.5 5,10 5.5,10 6,10 6,10.5 6,11 5.5,11 5,11 5,10.5"
         id="path26408"
         inkscape:connector-curvature="0" />
      <path
         style="fill:#77775f;fill-opacity:0.83529412"
         d="M 6,10.5 6,10 6.5,10 q 0.5,0 1,0 L 8,10 8,10.5 8,11 7.5,11 7,11 6.5,11 6,11 6,10.5"
         id="path26410"
         inkscape:connector-curvature="0" />
      <path
         style="fill:#777761;fill-opacity:0.83921569"
         d="M 8,10.5 8,10 8.375,9.875 8.75,9.75 8.46875,9.84375 8.1875,9.9375 8.375,9.875 Q 8.5625,9.8125 8.6875,9.6875 L 8.8125,9.5625 8.75,9.625 8.6875,9.6875 8.96875,9.96875 Q 9.25,10.25 9.625,10.125 L 10,10 9.875,10.375 Q 9.75,10.75 9.375,10.875 9,11 8.5,11 L 8,11 8,10.5"
         id="path26412"
         inkscape:connector-curvature="0" />
      <path
         style="fill:#6c6c55;fill-opacity:0.9254902"
         d="M 11.125,10.375 11,10 l 0.375,0.125 q 0.375,0.125 0.5,0.5 L 12,11 11.625,10.875 q -0.375,-0.125 -0.5,-0.5"
         id="path26414"
         inkscape:connector-curvature="0" />
      <path
         style="fill:#6e6e59;fill-opacity:0.90196078"
         d="M 11.875,10.625 11.75,10.25 11.84375,10.53125 11.9375,10.8125 11.875,10.625 q -0.0625,-0.1875 -0.1875,-0.3125 l -0.125,-0.125 0.0625,0.0625 0.0625,0.0625 L 12,10 12.3125,9.6875 12.25,9.625 12.1875,9.5625 l 0.125,0.125 q 0.125,0.125 0.3125,0.1875 L 12.8125,9.9375 12.53125,9.84375 12.25,9.75 12.625,9.875 13,10 l 0,0.5 0,0.5 -0.5,0 -0.5,0 -0.125,-0.375"
         id="path26416"
         inkscape:connector-curvature="0" />
      <path
         style="fill:#7a7a63;fill-opacity:0.83529412"
         d="m 13,10.5 0,-0.5 0.5,0 0.5,0 0,0.5 0,0.5 -0.5,0 -0.5,0 0,-0.5"
         id="path26418"
         inkscape:connector-curvature="0" />
      <path
         style="fill:#7c7c65;fill-opacity:0.81960784"
         d="m 14,10.5 0,-0.5 0.5,0 0.5,0 0,0.5 0,0.5 -0.5,0 -0.5,0 0,-0.5"
         id="path26420"
         inkscape:connector-curvature="0" />
      <path
         style="fill:#75755f;fill-opacity:0.82352941"
         d="m 15,10.5 0,-0.5 0.5,0 0.5,0 0.125,0.375 0.125,0.375 -0.09375,-0.28125 -0.09375,-0.28125 0.0625,0.1875 q 0.0625,0.1875 0.1875,0.3125 l 0.125,0.125 L 16.375,10.75 16.3125,10.6875 16,11 l -0.3125,0.3125 0.0625,0.0625 0.0625,0.0625 -0.125,-0.125 Q 15.5625,11.1875 15.375,11.125 L 15.1875,11.0625 15.46875,11.15625 15.75,11.25 15.375,11.125 15,11 15,10.5"
         id="path26422"
         inkscape:connector-curvature="0" />
      <path
         style="fill:#555546;fill-opacity:0.81960784"
         d="M 16.125,10.375 16,10 l 0.375,0.125 q 0.375,0.125 0.5,0.5 L 17,11 16.90625,10.71875 16.8125,10.4375 16.875,10.625 q 0.0625,0.1875 0.09375,0.40625 L 17,11.25 16.984375,11.140625 16.96875,11.03125 16.609375,10.890625 Q 16.25,10.75 16.125,10.375"
         id="path26424"
         inkscape:connector-curvature="0" />
      <path
         style="fill:#a9aa8b;fill-opacity:1"
         d="M 4,11.5 4,11 4,11.375 4,11.75 4,11.5 Q 4,11.25 4.03125,11.03125 L 4.0625,10.8125 4.046875,10.921875 4.03125,11.03125 4.515625,11.015625 5,11 5,11.5 5,12 4.515625,11.984375 4.03125,11.96875 4.046875,12.078125 4.0625,12.1875 4.03125,11.96875 Q 4,11.75 4,11.5 L 4,11.25 4,11.625 4,12 4,11.5"
         id="path26426"
         inkscape:connector-curvature="0" />
      <path
         style="fill:#d6d6ab;fill-opacity:1"
         d="M 5,11.5 5,11 5.5,11 6,11 6,11.5 6,12 5.5,12 5,12 5,11.5"
         id="path26428"
         inkscape:connector-curvature="0" />
      <path
         style="fill:#f0f0be;fill-opacity:1"
         d="M 6,11.5 6,11 6.5,11 7,11 7,11.5 7,12 6.5,12 6,12 6,11.5"
         id="path26430"
         inkscape:connector-curvature="0" />
      <path
         style="fill:#f6f6c2;fill-opacity:1"
         d="m 12,11.5 0,-0.5 0.5,0 0.5,0 0.5,0 0.5,0 0,0.5 0,0.5 -0.5,0 -0.5,0 -0.5,0 -0.5,0 0,-0.5"
         id="path26432"
         inkscape:connector-curvature="0" />
      <path
         style="fill:#ffffcc;fill-opacity:1"
         d="m 14,11.5 0,-0.5 0.5,0 0.5,0 0,0.5 0,0.5 -0.5,0 -0.5,0 0,-0.5"
         id="path26434"
         inkscape:connector-curvature="0" />
      <path
         style="fill:#f4f4c0;fill-opacity:1"
         d="m 15,11.5 0,-0.5 0.375,0.125 q 0.375,0.125 0.5,0.5 L 16,12 15.5,12 15,12 15,11.5 M 15.625,12 16,12 16.125,12 16.25,12 16,12 q -0.25,0 -0.5,0 l -0.25,0 0.375,0"
         id="path26436"
         inkscape:connector-curvature="0" />
      <path
         style="fill:#a3a384;fill-opacity:1"
         d="M 15.875,11.625 15.75,11.25 15.84375,11.53125 15.9375,11.8125 15.875,11.625 q -0.0625,-0.1875 -0.1875,-0.3125 l -0.125,-0.125 0.0625,0.0625 0.0625,0.0625 L 16,11 16.3125,10.6875 16.25,10.625 l -0.0625,-0.0625 0.125,0.125 q 0.125,0.125 0.3125,0.1875 L 16.8125,10.9375 16.53125,10.84375 16.25,10.75 16.609375,10.890625 16.96875,11.03125 16.953125,10.921875 16.9375,10.8125 16.96875,11.03125 Q 17,11.25 17,11.5 l 0,0.25 0,-0.375 0,-0.375 0,0.5 0,0.5 0,-0.375 0,-0.375 0,0.25 q 0,0.25 -0.03125,0.46875 L 16.9375,12.1875 16.95313,12.078125 16.96876,11.96875 16.484385,11.98438 16,12 15.875,11.625 m 0,0.375 0.125,0 0.375,0 0.375,0 -0.25,0 q -0.25,0 -0.5,0 l -0.25,0 0.125,0"
         id="path26438"
         inkscape:connector-curvature="0" />
      <path
         style="fill:#000000;fill-opacity:0.40784314"
         d="m 17,11.5 0,-0.5 0.5,0 q 0.5,0 0.5,0.5 l 0,0.5 -0.5,0 -0.5,0 0,-0.5"
         id="path26440"
         inkscape:connector-curvature="0" />
      <path
         style="fill:#676759;fill-opacity:0.74509804"
         d="M 4.125,12.375 4,12 4.09375,12.28125 4.1875,12.5625 4.125,12.375 Q 4.0625,12.1875 4.03125,11.96875 L 4,11.75 4.015625,11.859375 4.03125,11.96875 4.515625,11.984375 5,12 5,12.5 5,13 4.625,12.875 q -0.375,-0.125 -0.5,-0.5"
         id="path26442"
         inkscape:connector-curvature="0" />
      <path
         style="fill:#5f5f4e;fill-opacity:0.87058824"
         d="M 5,12.5 5,12 5.5,12 6,12 6,12.5 6,13 5.5,13 5,13 5,12.5"
         id="path26444"
         inkscape:connector-curvature="0" />
      <path
         style="fill:#666653;fill-opacity:0.87843137"
         d="M 6,12.5 6,12 6.5,12 7,12 7,12.5 7,13 6.5,13 6,13 6,12.5"
         id="path26446"
         inkscape:connector-curvature="0" />
      <path
         style="fill:#686853;fill-opacity:0.8745098"
         d="M 7,12.5 7,12 7.5,12 8,12 8,12.5 8,13 7.5,13 7,13 7,12.5"
         id="path26448"
         inkscape:connector-curvature="0" />
      <path
         style="fill:#686852;fill-opacity:0.88235294"
         d="M 8,12.5 8,12 8.5,12 9,12 9.125,12.375 9.25,12.75 9.15625,12.46875 9.0625,12.1875 9.125,12.375 q 0.0625,0.1875 0.1875,0.3125 l 0.125,0.125 L 9.375,12.75 9.3125,12.6875 9,13 8.6875,13.3125 8.75,13.375 8.8125,13.4375 8.6875,13.3125 Q 8.5625,13.1875 8.375,13.125 L 8.1875,13.0625 8.46875,13.15625 8.75,13.25 8.375,13.125 8,13 8,12.5"
         id="path26450"
         inkscape:connector-curvature="0" />
      <path
         style="fill:#676753;fill-opacity:0.88627451"
         d="M 9.125,12.375 9,12 9.375,12.125 q 0.375,0.125 0.5,0.5 L 10,13 9.625,12.875 q -0.375,-0.125 -0.5,-0.5"
         id="path26452"
         inkscape:connector-curvature="0" />
      <path
         style="fill:#666653;fill-opacity:0.87843137"
         d="m 11.125,12.625 q 0.125,-0.375 0.5,-0.5 L 12,12 11.875,12.375 q -0.125,0.375 -0.5,0.5 L 11,13 11.125,12.625"
         id="path26454"
         inkscape:connector-curvature="0" />
      <path
         style="fill:#696957;fill-opacity:0.87843137"
         d="M 11.875,12.375 12,12 l 0.5,0 0.5,0 0,0.5 0,0.5 -0.375,0.125 -0.375,0.125 0.28125,-0.09375 0.28125,-0.09375 -0.1875,0.0625 q -0.1875,0.0625 -0.3125,0.1875 l -0.125,0.125 L 12.25,13.375 12.3125,13.3125 12,13 11.6875,12.6875 11.625,12.75 l -0.0625,0.0625 0.125,-0.125 q 0.125,-0.125 0.1875,-0.3125 L 11.9375,12.1875 11.84375,12.46875 11.75,12.75 11.875,12.375"
         id="path26456"
         inkscape:connector-curvature="0" />
      <path
         style="fill:#6b6b56;fill-opacity:0.88235294"
         d="m 13,12.5 0,-0.5 0.5,0 0.5,0 0,0.5 0,0.5 -0.5,0 -0.5,0 0,-0.5"
         id="path26458"
         inkscape:connector-curvature="0" />
      <path
         style="fill:#6b6b53;fill-opacity:0.8745098"
         d="m 14,12.5 0,-0.5 0.5,0 0.5,0 0,0.5 0,0.5 -0.5,0 -0.5,0 0,-0.5"
         id="path26460"
         inkscape:connector-curvature="0" />
      <path
         style="fill:#626252;fill-opacity:0.87058824"
         d="m 15,12.5 0,-0.5 0.5,0 0.5,0 0,0.5 0,0.5 -0.5,0 -0.5,0 0,-0.5"
         id="path26462"
         inkscape:connector-curvature="0" />
      <path
         style="fill:#49493c;fill-opacity:0.87843137"
         d="M 16,12.5 16,12 16.484375,11.98437 16.96875,11.96874 16.98438,11.859365 17,11.75 16.96875,11.96875 Q 16.9375,12.1875 16.875,12.375 L 16.8125,12.5625 16.90625,12.28125 17,12 16.875,12.375 q -0.125,0.375 -0.5,0.5 L 16,13 16,12.5"
         id="path26464"
         inkscape:connector-curvature="0" />
      <path
         style="fill:#000000;fill-opacity:0.49803922"
         d="M 16.875,12.375 17,12 l 0.5,0 0.5,0 0,0.5 0,0.5 -0.375,0.125 -0.375,0.125 0.28125,-0.09375 0.28125,-0.09375 -0.1875,0.0625 q -0.1875,0.0625 -0.3125,0.1875 l -0.125,0.125 L 17.25,13.375 17.3125,13.3125 17,13 16.6875,12.6875 16.625,12.75 l -0.0625,0.0625 0.125,-0.125 q 0.125,-0.125 0.1875,-0.3125 L 16.9375,12.1875 16.84375,12.46875 16.75,12.75 16.875,12.375"
         id="path26466"
         inkscape:connector-curvature="0" />
      <path
         style="fill:#000000;fill-opacity:0.37647059"
         d="M 5,13.5 5,13 5.5,13 6,13 6,13.5 6,14 5.5,14 Q 5,14 5,13.5"
         id="path26468"
         inkscape:connector-curvature="0" />
      <path
         style="fill:#000000;fill-opacity:0.37254902"
         d="M 6,13.5 6,13 6.5,13 7,13 7,13.5 7,14 6.5,14 6,14 6,13.5"
         id="path26470"
         inkscape:connector-curvature="0" />
      <path
         style="fill:#000000;fill-opacity:0.37647059"
         d="M 7,13.5 7,13 7.5,13 8,13 8.375,13.125 q 0.375,0.125 0.5,0.5 L 9,14 8.5,14 Q 8,14 7.5,14 L 7,14 7,13.5"
         id="path26472"
         inkscape:connector-curvature="0" />
      <path
         style="fill:#6e6e59;fill-opacity:0.85098039"
         d="M 8.875,13.625 8.75,13.25 8.84375,13.53125 8.9375,13.8125 8.875,13.625 Q 8.8125,13.4375 8.6875,13.3125 L 8.5625,13.1875 8.625,13.25 8.6875,13.3125 9,13 9.3125,12.6875 9.25,12.625 9.1875,12.5625 l 0.125,0.125 q 0.125,0.125 0.3125,0.1875 L 9.8125,12.9375 9.53125,12.84375 9.25,12.75 9.625,12.875 10,13 10,13.5 10,14 9.5,14 9,14 8.875,13.625"
         id="path26474"
         inkscape:connector-curvature="0" />
      <path
         style="fill:#f6f6c2;fill-opacity:1"
         d="m 10,13.5 0,-0.5 0.5,0 0.5,0 0,0.5 0,0.5 0,0.5 0,0.5 -0.5,0 -0.5,0 0,-0.5 0,-0.5 0,-0.5"
         id="path26476"
         inkscape:connector-curvature="0" />
      <path
         style="fill:#6d6d59;fill-opacity:0.9254902"
         d="M 11,13.5 11,13 11.375,12.875 11.75,12.75 11.46875,12.84375 11.1875,12.9375 11.375,12.875 q 0.1875,-0.0625 0.3125,-0.1875 l 0.125,-0.125 L 11.75,12.625 11.6875,12.6875 12,13 l 0.3125,0.3125 0.0625,-0.0625 0.0625,-0.0625 -0.125,0.125 q -0.125,0.125 -0.1875,0.3125 L 12.0625,13.8125 12.15625,13.53125 12.25,13.25 12.125,13.625 12,14 11.5,14 11,14 11,13.5"
         id="path26478"
         inkscape:connector-curvature="0" />
      <path
         style="fill:#000000;fill-opacity:0.38431373"
         d="m 12.125,13.625 q 0.125,-0.375 0.5,-0.5 L 13,13 l 0,0.5 0,0.5 -0.5,0 -0.5,0 0.125,-0.375"
         id="path26480"
         inkscape:connector-curvature="0" />
      <path
         style="fill:#000000;fill-opacity:0.38039216"
         d="m 13,13.5 0,-0.5 0.5,0 0.5,0 0.5,0 0.5,0 0.5,0 0.5,0 0,0.5 0,0.5 -0.5,0 q -0.5,0 -1,0 -0.5,0 -1,0 l -0.5,0 0,-0.5"
         id="path26482"
         inkscape:connector-curvature="0" />
      <path
         style="fill:#000000;fill-opacity:0.37254902"
         d="M 16,13.5 16,13 16.375,12.875 16.75,12.75 16.46875,12.84375 16.1875,12.9375 16.375,12.875 q 0.1875,-0.0625 0.3125,-0.1875 l 0.125,-0.125 L 16.75,12.625 16.6875,12.6875 17,13 l 0.3125,0.3125 0.0625,-0.0625 0.0625,-0.0625 -0.125,0.125 q -0.125,0.125 -0.1875,0.3125 L 17.0625,13.8125 17.15625,13.53125 17.25,13.25 17.125,13.625 17,14 16.5,14 16,14 16,13.5"
         id="path26484"
         inkscape:connector-curvature="0" />
      <path
         style="fill:#000000;fill-opacity:0.37647059"
         d="m 17.125,13.625 q 0.125,-0.375 0.5,-0.5 L 18,13 18,13.5 Q 18,14 17.5,14 l -0.5,0 0.125,-0.375"
         id="path26486"
         inkscape:connector-curvature="0" />
      <path
         style="fill:#7c7c63;fill-opacity:0.76078431"
         d="M 9,14.5 9,14 9.5,14 10,14 10,14.5 10,15 9.5,15 9,15 9,14.5"
         id="path26488"
         inkscape:connector-curvature="0" />
      <path
         style="fill:#6f6f5a;fill-opacity:0.91764706"
         d="m 11,14.5 0,-0.5 0.5,0 0.5,0 0,0.5 0,0.5 -0.5,0 -0.5,0 0,-0.5"
         id="path26490"
         inkscape:connector-curvature="0" />
      <path
         style="fill:#000000;fill-opacity:0.41568627"
         d="m 12,14.5 0,-0.5 0.5,0 0.5,0 0,0.5 0,0.5 -0.5,0 -0.5,0 0,-0.5"
         id="path26492"
         inkscape:connector-curvature="0" />
      <path
         style="fill:#7c7c64;fill-opacity:0.75294118"
         d="M 9,15.5 9,15 9.5,15 10,15 10,15.5 10,16 9.5,16 9,16 9,15.5"
         id="path26494"
         inkscape:connector-curvature="0" />
      <path
         style="fill:#ffffcc;fill-opacity:1"
         d="m 10,15.5 0,-0.5 0.5,0 0.5,0 0,0.5 0,0.5 -0.5,0 -0.5,0 0,-0.5"
         id="path26496"
         inkscape:connector-curvature="0" />
      <path
         style="fill:#70705a;fill-opacity:0.91372549"
         d="m 11,15.5 0,-0.5 0.5,0 0.5,0 0,0.5 0,0.5 -0.5,0 -0.5,0 0,-0.5"
         id="path26498"
         inkscape:connector-curvature="0" />
      <path
         style="fill:#000000;fill-opacity:0.42352941"
         d="m 12,15.5 0,-0.5 0.5,0 0.5,0 0,0.5 0,0.5 -0.5,0 -0.5,0 0,-0.5"
         id="path26500"
         inkscape:connector-curvature="0" />
      <path
         style="fill:#75755d;fill-opacity:0.74901961"
         d="M 9,16.5 9,16 9.5,16 10,16 10.125,16.375 10.25,16.75 10.15625,16.46875 10.0625,16.1875 10.125,16.375 q 0.0625,0.1875 0.1875,0.3125 l 0.125,0.125 L 10.375,16.75 10.3125,16.6875 10,17 9.6875,17.3125 9.75,17.375 9.8125,17.4375 9.6875,17.3125 Q 9.5625,17.1875 9.375,17.125 L 9.1875,17.0625 9.46875,17.15625 9.75,17.25 9.375,17.125 9,17 9,16.5"
         id="path26502"
         inkscape:connector-curvature="0" />
      <path
         style="fill:#f4f4c0;fill-opacity:1"
         d="M 10.125,16.375 10,16 l 0.5,0 0.5,0 0,0.5 0,0.5 -0.375,-0.125 q -0.375,-0.125 -0.5,-0.5 M 11,17.125 11,17 l 0,-0.375 0,-0.375 0,0.25 q 0,0.25 0,0.5 l 0,0.25 0,-0.125"
         id="path26504"
         inkscape:connector-curvature="0" />
      <path
         style="fill:#686854;fill-opacity:0.90588235"
         d="m 11,16.5 0,-0.5 0.5,0 0.5,0 0,0.5 0,0.5 -0.5,0 -0.5,0 0,-0.5"
         id="path26506"
         inkscape:connector-curvature="0" />
      <path
         style="fill:#000000;fill-opacity:0.40784314"
         d="m 12,16.5 0,-0.5 0.5,0 0.5,0 0,0.5 0,0.5 -0.5,0 -0.5,0 0,-0.5"
         id="path26508"
         inkscape:connector-curvature="0" />
      <path
         style="fill:#555548;fill-opacity:0.74509804"
         d="M 9.125,17.375 9,17 9.375,17.125 Q 9.75,17.25 9.890625,17.609375 L 10.03125,17.96875 10.140625,17.98438 10.25,18 10.03125,17.96875 Q 9.8125,17.9375 9.625,17.875 L 9.4375,17.8125 9.71875,17.90625 10,18 9.625,17.875 q -0.375,-0.125 -0.5,-0.5"
         id="path26510"
         inkscape:connector-curvature="0" />
      <path
         style="fill:#a3a384;fill-opacity:1"
         d="M 9.890625,17.609375 9.75,17.25 9.84375,17.53125 9.9375,17.8125 9.875,17.625 Q 9.8125,17.4375 9.6875,17.3125 L 9.5625,17.1875 9.625,17.25 9.6875,17.3125 10,17 10.3125,16.6875 10.25,16.625 l -0.0625,-0.0625 0.125,0.125 q 0.125,0.125 0.3125,0.1875 L 10.8125,16.9375 10.53125,16.84375 10.25,16.75 10.625,16.875 11,17 l -0.01563,0.484375 -0.01563,0.484375 0.109375,-0.01563 0.109375,-0.01563 -0.21875,0.03125 Q 10.75,18 10.5,18 l -0.25,0 0.375,0 0.375,0 -0.5,0 -0.5,0 0.375,0 0.375,0 -0.25,0 q -0.25,0 -0.46875,-0.03125 L 9.8125,17.9375 9.921875,17.953125 10.03125,17.96875 9.890625,17.609375 M 11,17.375 11,17 11,16.875 11,16.75 11,17 q 0,0.25 0,0.5 l 0,0.25 0,-0.375"
         id="path26512"
         inkscape:connector-curvature="0" />
      <path
         style="fill:#4d4d3f;fill-opacity:0.91372549"
         d="M 10.984375,17.484375 11,17 l 0.5,0 0.5,0 -0.125,0.375 q -0.125,0.375 -0.5,0.5 L 11,18 11.28125,17.90625 11.5625,17.8125 11.375,17.875 q -0.1875,0.0625 -0.40625,0.09375 L 10.75,18 l 0.109375,-0.01563 0.109375,-0.01563 0.01563,-0.484375"
         id="path26514"
         inkscape:connector-curvature="0" />
      <path
         style="fill:#000000;fill-opacity:0.41176471"
         d="M 11.875,17.375 12,17 l 0.5,0 0.5,0 0,0.5 0,0.5 -0.375,0.125 -0.375,0.125 0.28125,-0.09375 0.28125,-0.09375 -0.1875,0.0625 q -0.1875,0.0625 -0.3125,0.1875 l -0.125,0.125 L 12.25,18.375 12.3125,18.3125 12,18 11.6875,17.6875 11.625,17.75 l -0.0625,0.0625 0.125,-0.125 q 0.125,-0.125 0.1875,-0.3125 L 11.9375,17.1875 11.84375,17.46875 11.75,17.75 11.875,17.375"
         id="path26516"
         inkscape:connector-curvature="0" />
      <path
         style="fill:#000000;fill-opacity:0.37647059"
         d="m 10,18.5 0,-0.5 0.5,0 0.5,0 0,0.5 0,0.5 -0.5,0 Q 10,19 10,18.5"
         id="path26518"
         inkscape:connector-curvature="0" />
      <path
         style="fill:#000000;fill-opacity:0.49803922"
         d="M 11,18.5 11,18 11.375,17.875 11.75,17.75 11.46875,17.84375 11.1875,17.9375 11.375,17.875 q 0.1875,-0.0625 0.3125,-0.1875 l 0.125,-0.125 L 11.75,17.625 11.6875,17.6875 12,18 l 0.3125,0.3125 0.0625,-0.0625 0.0625,-0.0625 -0.125,0.125 q -0.125,0.125 -0.1875,0.3125 L 12.0625,18.8125 12.15625,18.53125 12.25,18.25 12.125,18.625 12,19 11.5,19 11,19 11,18.5"
         id="path26520"
         inkscape:connector-curvature="0" />
      <path
         style="fill:#000000;fill-opacity:0.41568627"
         d="m 12.125,18.625 q 0.125,-0.375 0.5,-0.5 L 13,18 13,18.5 Q 13,19 12.5,19 l -0.5,0 0.125,-0.375"
         id="path26522"
         inkscape:connector-curvature="0" />
    </g>
  </g>
</svg>
