<?xml version="1.0" encoding="UTF-8" standalone="no"?>
<!-- Created with Inkscape (http://www.inkscape.org/) -->

<svg
   xmlns:dc="http://purl.org/dc/elements/1.1/"
   xmlns:cc="http://creativecommons.org/ns#"
   xmlns:rdf="http://www.w3.org/1999/02/22-rdf-syntax-ns#"
   xmlns:svg="http://www.w3.org/2000/svg"
   xmlns="http://www.w3.org/2000/svg"
   xmlns:sodipodi="http://sodipodi.sourceforge.net/DTD/sodipodi-0.dtd"
   xmlns:inkscape="http://www.inkscape.org/namespaces/inkscape"
   width="20"
   height="20"
   viewBox="0 0 20 20"
   id="svg3347"
   version="1.1"
   inkscape:version="0.91 r13725"
   sodipodi:docname="Civ5Icon.ReligionConfucianism.svg">
  <defs
     id="defs3349" />
  <sodipodi:namedview
     id="base"
     pagecolor="#ffffff"
     bordercolor="#666666"
     borderopacity="1.0"
     inkscape:pageopacity="0.0"
     inkscape:pageshadow="2"
     inkscape:zoom="11.2"
     inkscape:cx="13.251856"
     inkscape:cy="8.3638322"
     inkscape:document-units="px"
     inkscape:current-layer="g27203"
     showgrid="false"
     units="px"
     inkscape:window-width="1477"
     inkscape:window-height="962"
     inkscape:window-x="533"
     inkscape:window-y="95"
     inkscape:window-maximized="0" />
  <metadata
     id="metadata3352">
    <rdf:RDF>
      <cc:Work
         rdf:about="">
        <dc:format>image/svg+xml</dc:format>
        <dc:type
           rdf:resource="http://purl.org/dc/dcmitype/StillImage" />
        <dc:title></dc:title>
      </cc:Work>
    </rdf:RDF>
  </metadata>
  <g
     inkscape:label="Layer 1"
     inkscape:groupmode="layer"
     id="layer1"
     transform="translate(0,-1032.3622)">
    <g
       transform="translate(-0.22321519 1031.8712)"
       id="g27203">
      <g
         transform="translate(-0.17857097,-0.35721444)"
         id="g31247">
        <path
           style="fill:#000000;fill-opacity:0"
           d="M 0,0.5 0,0 0.5,0 1,0 1.5,0 2,0 2.5,0 3,0 3.5,0 4,0 4.5,0 5,0 5.5,0 6,0 6.5,0 7,0 7.5,0 8,0 8.5,0 9,0 9.5,0 10,0 l 0.5,0 0.5,0 0.5,0 0.5,0 0.5,0 0.5,0 0.5,0 0.5,0 0.5,0 0.5,0 0.5,0 0.5,0 0.5,0 0.5,0 0.5,0 0.5,0 0.5,0 0.5,0 0.5,0 0.5,0 0.5,0 0.5,0 0.5,0 0.5,0 0,0.5 0,0.5 0,0.5 0,0.5 0,0.5 0,0.5 0,0.5 0,0.5 0,0.5 0,0.5 0,0.5 0,0.5 0,0.5 0,0.5 0,0.5 0,0.5 0,0.5 0,0.5 0,0.5 0,0.5 0,0.5 0,0.5 0,0.5 0,0.5 0,0.5 0,0.5 0,0.5 0,0.5 0,0.5 0,0.5 0,0.5 0,0.5 0,0.5 0,0.5 0,0.5 0,0.5 0,0.5 0,0.5 0,0.5 0,0.5 0,0.5 0,0.5 0,0.5 0,0.5 -0.5,0 L 21,22 20.5,22 20,22 19.5,22 19,22 18.5,22 18,22 17.5,22 17,22 16.5,22 16,22 15.5,22 15,22 14.5,22 14,22 13.5,22 13,22 12.5,22 12,22 11.5,22 11,22 10.5,22 10,22 9.5,22 9,22 8.5,22 8,22 7.5,22 7,22 6.5,22 6,22 5.5,22 5,22 4.5,22 4,22 3.5,22 3,22 2.5,22 2,22 1.5,22 1,22 0.5,22 0,22 0,21.5 0,21 0,20.5 0,20 0,19.5 0,19 0,18.5 0,18 0,17.5 0,17 0,16.5 0,16 0,15.5 0,15 0,14.5 0,14 0,13.5 0,13 0,12.5 0,12 0,11.5 0,11 0,10.5 0,10 0,9.5 0,9 0,8.5 0,8 0,7.5 0,7 0,6.5 0,6 0,5.5 0,5 0,4.5 0,4 0,3.5 0,3 0,2.5 0,2 0,1.5 0,1 0,0.5 M 10.5,20 q 0.5,0 0.625,-0.375 0.125,-0.375 0.5,-0.5 Q 12,19 12,18.5 l 0,-0.5 0,-0.5 0,-0.5 0.5,0 0.5,0 0.5,0 0.5,0 0.5,0 0.5,0 0,0.5 q 0,0.5 0.5,0.5 l 0.5,0 0.5,0 Q 17,18 17,17.5 l 0,-0.5 0.5,0 0.5,0 0.5,0 Q 19,17 19,16.5 l 0,-0.5 0.5,0 Q 20,16 20,15.5 20,15 19.5,15 L 19,15 19,14.5 Q 19,14 18.5,14 L 18,14 18,13.5 Q 18,13 17.5,13 L 17,13 16.5,13 16,13 15.5,13 15,13 14.625,12.875 q -0.375,-0.125 -0.5,-0.5 L 14,12 14.125,11.625 q 0.125,-0.375 0.5,-0.5 L 15,11 15.5,11 Q 16,11 16,10.5 l 0,-0.5 0.5,0 0.5,0 0.5,0 Q 18,10 18,9.5 L 18,9 18.5,9 Q 19,9 19,8.5 L 19,8 19,7.5 19,7 19,6.5 Q 19,6 18.5,6 L 18,6 18,5.5 Q 18,5 17.5,5 L 17,5 16.5,5 Q 16,5 16,5.5 L 16,6 15.5,6 Q 15,6 14.875,6.375 14.75,6.75 14.375,6.875 L 14,7 13.5,7 13,7 13,6.5 13,6 13,5.5 Q 13,5 12.5,5 L 12,5 12,4.5 Q 12,4 11.625,3.875 11.25,3.75 11.125,3.375 11,3 10.5,3 L 10,3 10,2.5 Q 10,2 9.5,2 9,2 9,2.5 L 9,3 8.5,3 Q 8,3 8,3.5 L 8,4 7.5,4 Q 7,4 7,4.5 L 7,5 7,5.5 Q 7,6 7.5,6 L 8,6 8,6.5 8,7 8,7.5 8,8 8,8.5 8,9 7.5,9 Q 7,9 6.875,9.375 6.75,9.75 6.375,9.875 L 6,10 5.5,10 5,10 4.5,10 4,10 3.5,10 Q 3,10 3,10.5 L 3,11 2.5,11 Q 2,11 2,11.5 L 2,12 2,12.5 2,13 2,13.5 Q 2,14 2.5,14 l 0.5,0 0,0.5 0,0.5 0,0.5 0,0.5 0,0.5 q 0,0.5 0.375,0.625 0.375,0.125 0.5,0.5 Q 4,18 4.5,18 l 0.5,0 0.5,0 0.5,0 0.5,0 0.5,0 0.5,0 0.5,0 0,0.5 q 0,0.5 0.375,0.625 0.375,0.125 0.5,0.5 Q 9,20 9.5,20 l 0.5,0 0.5,0"
           id="path31249"
           inkscape:connector-curvature="0" />
        <path
           style="fill:#000000;fill-opacity:0.03137255"
           d="M 9,2.5 Q 9,2 9.5,2 10,2 10,2.5 L 10,3 9.5,3 9,3 9,2.5"
           id="path31251"
           inkscape:connector-curvature="0" />
        <path
           style="fill:#000000;fill-opacity:0.04705882"
           d="M 8,3.5 Q 8,3 8.5,3 L 9,3 8.875,3.375 Q 8.75,3.75 8.375,3.875 L 8,4 8,3.5"
           id="path31253"
           inkscape:connector-curvature="0" />
        <path
           style="fill:#040404;fill-opacity:0.94117647"
           d="M 8.875,3.375 9,3 9.5,3 10,3 l 0,0.53125 0,0.53125 0.09375,0 0.09375,0 -0.1875,0 q -0.1875,0 -0.375,0.0625 L 9.4375,4.1875 9.71875,4.09375 10,4 9.625,4.125 9.25,4.25 9.53125,4.15625 9.8125,4.0625 9.625,4.125 Q 9.4375,4.1875 9.3125,4.3125 L 9.1875,4.4375 9.25,4.375 9.3125,4.3125 9,4 8.6875,3.6875 8.625,3.75 8.5625,3.8125 8.6875,3.6875 Q 8.8125,3.5625 8.875,3.375 L 8.9375,3.1875 8.84375,3.46875 8.75,3.75 8.875,3.375"
           id="path31255"
           inkscape:connector-curvature="0" />
        <path
           style="fill:#000000;fill-opacity:0.78431373"
           d="M 10,3.53125 10,3 10.5,3 Q 11,3 11.125,3.375 L 11.25,3.75 11.15625,3.46875 11.0625,3.1875 11.125,3.375 q 0.0625,0.1875 0.1875,0.3125 l 0.125,0.125 L 11.375,3.75 11.3125,3.6875 11,4 10.6875,4.3125 10.75,4.375 10.8125,4.4375 10.6875,4.3125 Q 10.5625,4.1875 10.375,4.125 L 10.1875,4.0625 10.46875,4.15625 10.75,4.25 10.375,4.125 10,4 10.28125,4.09375 10.5625,4.1875 10.375,4.125 Q 10.1875,4.0625 10,4.0625 l -0.1875,0 0.09375,0 0.09375,0 0,-0.53125"
           id="path31257"
           inkscape:connector-curvature="0" />
        <path
           style="fill:#000000;fill-opacity:0.01568627"
           d="M 7,4.5 Q 7,4 7.5,4 L 8,4 8,4.5 8,5 7.5,5 7,5 7,4.5"
           id="path31259"
           inkscape:connector-curvature="0" />
        <path
           style="fill:#020202;fill-opacity:0.94117647"
           d="M 8,4.5 8,4 8.375,3.875 8.75,3.75 8.46875,3.84375 8.1875,3.9375 8.375,3.875 Q 8.5625,3.8125 8.6875,3.6875 L 8.8125,3.5625 8.75,3.625 8.6875,3.6875 9,4 9.3125,4.3125 9.375,4.25 9.4375,4.1875 9.3125,4.3125 Q 9.1875,4.4375 9.125,4.625 L 9.0625,4.8125 9.15625,4.53125 9.25,4.25 9.125,4.625 9,5 8.5,5 8,5 8,4.5"
           id="path31261"
           inkscape:connector-curvature="0" />
        <path
           style="fill:#bfbfbf;fill-opacity:1"
           d="M 9.125,4.625 Q 9.25,4.25 9.625,4.125 L 10,4 9.71875,4.09375 9.4375,4.1875 9.625,4.125 Q 9.8125,4.0625 10,4.0625 l 0.1875,0 -0.09375,0 L 10,4.0625 10,4.53125 10,5 9.5,5 9,5 9.125,4.625"
           id="path31263"
           inkscape:connector-curvature="0" />
        <path
           style="fill:#868686;fill-opacity:1"
           d="m 10,4.53125 0,-0.46875 -0.09375,0 -0.09375,0 0.1875,0 q 0.1875,0 0.375,0.0625 L 10.5625,4.1875 10.28125,4.09375 10,4 10.375,4.125 q 0.375,0.125 0.5,0.5 L 11,5 10.90625,4.71875 10.8125,4.4375 10.875,4.625 q 0.0625,0.1875 0.09375,0.40625 L 11,5.25 10.984375,5.140625 10.96875,5.03125 10.484375,5.015625 10,5 10,4.53125 M 9.875,5 10,5 10.375,5 10.75,5 10.5,5 Q 10.25,5 10,5 L 9.75,5 9.875,5"
           id="path31265"
           inkscape:connector-curvature="0" />
        <path
           style="fill:#000000;fill-opacity:0.79607843"
           d="M 10.875,4.625 10.75,4.25 10.84375,4.53125 10.9375,4.8125 10.875,4.625 Q 10.8125,4.4375 10.6875,4.3125 L 10.5625,4.1875 10.625,4.25 10.6875,4.3125 11,4 11.3125,3.6875 11.25,3.625 11.1875,3.5625 l 0.125,0.125 q 0.125,0.125 0.3125,0.1875 L 11.8125,3.9375 11.53125,3.84375 11.25,3.75 11.625,3.875 Q 12,4 12,4.5 L 12,5 11.5,5 11,5 10.875,4.625"
           id="path31267"
           inkscape:connector-curvature="0" />
        <path
           style="fill:#000000;fill-opacity:0.03137255"
           d="M 7,5.5 7,5 7.5,5 8,5 8,5.5 8,6 7.5,6 Q 7,6 7,5.5"
           id="path31269"
           inkscape:connector-curvature="0" />
        <path
           style="fill:#040404;fill-opacity:0.97254902"
           d="M 8,5.5 8,5 8.5,5 9,5 9,5.5 9,6 9,5.625 9,5.25 9,5.5 Q 9,5.75 9.09375,5.90625 L 9.1875,6.0625 9.140625,5.984375 9.09375,5.90625 8.546875,5.953125 8,6 8,5.5"
           id="path31271"
           inkscape:connector-curvature="0" />
        <path
           style="fill:#d4d4d4;fill-opacity:1"
           d="M 9,5.5 9,5 9.5,5 10,5 10.125,5.375 10.25,5.75 10.15625,5.46875 10.0625,5.1875 10.125,5.375 q 0.0625,0.1875 0.1875,0.3125 l 0.125,0.125 L 10.375,5.75 10.3125,5.6875 10,6 9.6875,6.3125 9.75,6.375 9.8125,6.4375 9.6875,6.3125 Q 9.5625,6.1875 9.375,6.125 L 9.1875,6.0625 9.46875,6.15625 9.75,6.25 9.375,6.125 Q 9,6 9,5.5"
           id="path31273"
           inkscape:connector-curvature="0" />
        <path
           style="fill:#f6f6f6;fill-opacity:1"
           d="M 10.125,5.375 10,5 10.484375,5.015625 10.96875,5.03125 10.953125,4.921875 10.9375,4.8125 10.96875,5.03125 Q 11,5.25 11,5.5 L 11,5.75 11,5.375 11,5 11,5.5 11,6 10.625,5.875 q -0.375,-0.125 -0.5,-0.5"
           id="path31275"
           inkscape:connector-curvature="0" />
        <path
           style="fill:#0c0c0c;fill-opacity:1"
           d="M 11,5.5 11,5 11.5,5 12,5 12,5.5 12,6 11.5,6 11,6 11,5.5"
           id="path31277"
           inkscape:connector-curvature="0" />
        <path
           style="fill:#000000;fill-opacity:0.09019608"
           d="M 12,5.5 12,5 12.5,5 Q 13,5 13,5.5 L 13,6 12.5,6 12,6 12,5.5"
           id="path31279"
           inkscape:connector-curvature="0" />
        <path
           style="fill:#000000;fill-opacity:0.14901961"
           d="M 16,5.5 Q 16,5 16.5,5 L 17,5 17,5.5 17,6 16.5,6 16,6 16,5.5"
           id="path31281"
           inkscape:connector-curvature="0" />
        <path
           style="fill:#000000;fill-opacity:0.03137255"
           d="M 17,5.5 17,5 17.5,5 Q 18,5 18,5.5 L 18,6 17.5,6 17,6 17,5.5"
           id="path31283"
           inkscape:connector-curvature="0" />
        <path
           style="fill:#000000;fill-opacity:0.60784314"
           d="M 8,6.5 8,6 8.546875,5.953125 9.09375,5.90625 9.171875,6.328125 9.25,6.75 9.15625,6.46875 9.0625,6.1875 9.125,6.375 Q 9.1875,6.5625 9.3125,6.6875 L 9.4375,6.8125 9.375,6.75 9.3125,6.6875 8.984375,6.984375 8.65625,7.28125 8.703125,7.328125 8.75,7.375 8.65625,7.28125 Q 8.5625,7.1875 8.375,7.125 L 8.1875,7.0625 8.46875,7.15625 8.75,7.25 8.375,7.125 8,7 8,6.5"
           id="path31285"
           inkscape:connector-curvature="0" />
        <path
           style="fill:#5d5d5d;fill-opacity:1"
           d="M 9.171875,6.328125 9.09375,5.90625 9.046875,5.828125 9,5.75 9.09375,5.90625 Q 9.1875,6.0625 9.375,6.125 L 9.5625,6.1875 9.28125,6.09375 9,6 9.375,6.125 q 0.375,0.125 0.5,0.5 L 10,7 9.625,6.875 Q 9.25,6.75 9.171875,6.328125"
           id="path31287"
           inkscape:connector-curvature="0" />
        <path
           style="fill:#ffffff;fill-opacity:1"
           d="M 9.875,6.625 9.75,6.25 9.84375,6.53125 9.9375,6.8125 9.875,6.625 Q 9.8125,6.4375 9.6875,6.3125 L 9.5625,6.1875 9.625,6.25 9.6875,6.3125 10,6 10.3125,5.6875 10.25,5.625 10.1875,5.5625 l 0.125,0.125 q 0.125,0.125 0.3125,0.1875 L 10.8125,5.9375 10.53125,5.84375 10.25,5.75 10.625,5.875 11,6 11,6.5 11,7 11,7.5 11,8 11,8.5 11,9 11.125,9.375 q 0.125,0.375 0.5,0.5 L 12,10 11.875,10.375 q -0.125,0.375 -0.5,0.5 L 11,11 10.5,11 10,11 10,10.5 10,10 10.125,9.625 Q 10.25,9.25 9.984375,8.984375 L 9.71875,8.71875 9.671875,8.796875 9.625,8.875 9.71875,8.71875 Q 9.8125,8.5625 9.875,8.375 L 9.9375,8.1875 9.84375,8.46875 9.75,8.75 9.875,8.375 10,8 10,7.5 10,7 9.875,6.625"
           id="path31289"
           inkscape:connector-curvature="0" />
        <path
           style="fill:#2f2f2f;fill-opacity:1"
           d="M 11,6.5 11,6 11.5,6 12,6 12.125,6.375 12.25,6.75 12.15625,6.46875 12.0625,6.1875 12.125,6.375 q 0.0625,0.1875 0.1875,0.3125 l 0.125,0.125 L 12.375,6.75 12.3125,6.6875 12,7 11.6875,7.3125 11.75,7.375 11.8125,7.4375 11.6875,7.3125 Q 11.5625,7.1875 11.375,7.125 L 11.1875,7.0625 11.46875,7.15625 11.75,7.25 11.375,7.125 11,7 11,6.5"
           id="path31291"
           inkscape:connector-curvature="0" />
        <path
           style="fill:#000000;fill-opacity:0.33333333"
           d="M 12.125,6.375 12,6 12.5,6 13,6 13,6.5 13,7 12.625,6.875 q -0.375,-0.125 -0.5,-0.5"
           id="path31293"
           inkscape:connector-curvature="0" />
        <path
           style="fill:#000000;fill-opacity:0.82352941"
           d="M 14.875,6.375 Q 15,6 15.5,6 L 16,6 16,6.5 16,7 15.625,7.125 15.25,7.25 15.53125,7.15625 15.8125,7.0625 15.625,7.125 Q 15.4375,7.1875 15.28125,7.28125 L 15.125,7.375 15.203125,7.328125 15.28125,7.28125 14.984375,6.984375 14.6875,6.6875 14.625,6.75 14.5625,6.8125 14.6875,6.6875 Q 14.8125,6.5625 14.875,6.375 L 14.9375,6.1875 14.84375,6.46875 14.75,6.75 14.875,6.375"
           id="path31295"
           inkscape:connector-curvature="0" />
        <path
           style="fill:#141414;fill-opacity:1"
           d="M 16,6.5 16,6 16.5,6 17,6 17.125,6.375 17.25,6.75 17.15625,6.46875 17.0625,6.1875 17.125,6.375 q 0.0625,0.1875 0.1875,0.3125 l 0.125,0.125 L 17.375,6.75 17.3125,6.6875 17,7 16.6875,7.3125 16.75,7.375 16.8125,7.4375 16.6875,7.3125 Q 16.5625,7.1875 16.375,7.125 L 16.1875,7.0625 16.46875,7.15625 16.75,7.25 16.375,7.125 16,7 16,6.5"
           id="path31297"
           inkscape:connector-curvature="0" />
        <path
           style="fill:#090909;fill-opacity:0.46666667"
           d="M 17.125,6.375 17,6 17.5,6 18,6 18,6.5 18,7 17.625,6.875 q -0.375,-0.125 -0.5,-0.5"
           id="path31299"
           inkscape:connector-curvature="0" />
        <path
           style="fill:#000000;fill-opacity:0.03137255"
           d="M 18,6.5 18,6 18.5,6 Q 19,6 19,6.5 L 19,7 18.5,7 18,7 18,6.5"
           id="path31301"
           inkscape:connector-curvature="0" />
        <path
           style="fill:#000000;fill-opacity:0.32156863"
           d="M 8,7.5 8,7 8.375,7.125 Q 8.75,7.25 8.75,7.5 8.75,7.75 8.375,7.875 L 8,8 8,7.5"
           id="path31303"
           inkscape:connector-curvature="0" />
        <path
           style="fill:#2d2d2d;fill-opacity:1"
           d="m 8.75,7.5 0,-0.25 0,0.1875 0,0.1875 0,-0.125 Q 8.75,7.375 8.65625,7.28125 L 8.5625,7.1875 8.609375,7.234375 8.65625,7.28125 8.984375,6.984375 9.3125,6.6875 9.25,6.625 9.1875,6.5625 9.3125,6.6875 Q 9.4375,6.8125 9.625,6.875 L 9.8125,6.9375 9.53125,6.84375 9.25,6.75 9.625,6.875 10,7 10,7.5 10,8 9.625,8.125 9.25,8.25 9.53125,8.15625 9.8125,8.0625 9.625,8.125 Q 9.4375,8.1875 9.28125,8.28125 L 9.125,8.375 9.203125,8.328125 9.28125,8.28125 8.96875,8 8.65625,7.71875 8.609375,7.765625 8.5625,7.8125 8.65625,7.71875 Q 8.75,7.625 8.75,7.5 l 0,-0.125 0,0.1875 0,0.1875 0,-0.25"
           id="path31305"
           inkscape:connector-curvature="0" />
        <path
           style="fill:#444444;fill-opacity:1"
           d="M 11,7.5 11,7 11.375,7.125 q 0.375,0.125 0.5,0.5 L 12,8 11.5,8 11,8 11,7.5"
           id="path31307"
           inkscape:connector-curvature="0" />
        <path
           style="fill:#000000;fill-opacity:0.4627451"
           d="M 11.875,7.625 11.75,7.25 11.84375,7.53125 11.9375,7.8125 11.875,7.625 Q 11.8125,7.4375 11.6875,7.3125 L 11.5625,7.1875 11.625,7.25 11.6875,7.3125 12,7 12.3125,6.6875 12.25,6.625 12.1875,6.5625 l 0.125,0.125 q 0.125,0.125 0.3125,0.1875 L 12.8125,6.9375 12.53125,6.84375 12.25,6.75 12.625,6.875 13,7 13,7.5 13,8 12.5,8 12,8 11.875,7.625"
           id="path31309"
           inkscape:connector-curvature="0" />
        <path
           style="fill:#000000;fill-opacity:0.12156863"
           d="M 13,7.5 13,7 13.5,7 14,7 13.875,7.375 q -0.125,0.375 -0.5,0.5 L 13,8 13,7.5"
           id="path31311"
           inkscape:connector-curvature="0" />
        <path
           style="fill:#000000;fill-opacity:0.98431373"
           d="M 13.875,7.375 14,7 14.375,6.875 14.75,6.75 14.46875,6.84375 14.1875,6.9375 14.375,6.875 Q 14.5625,6.8125 14.6875,6.6875 L 14.8125,6.5625 14.75,6.625 14.6875,6.6875 14.984375,6.984375 15.28125,7.28125 15.359375,7.234375 15.4375,7.1875 15.28125,7.28125 Q 15.125,7.375 15,7.5 L 14.875,7.625 15.0625,7.4375 15.25,7.25 15,7.5 Q 14.75,7.75 14.5,8 L 14.25,8.25 13.96875,7.96875 13.6875,7.6875 13.625,7.75 13.5625,7.8125 13.6875,7.6875 Q 13.8125,7.5625 13.875,7.375 L 13.9375,7.1875 13.84375,7.46875 13.75,7.75 13.875,7.375 M 14.1875,8.3125 14.25,8.25 14.4375,8.0625 14.625,7.875 14.5,8 q -0.125,0.125 -0.25,0.25 l -0.125,0.125 0.0625,-0.0625"
           id="path31313"
           inkscape:connector-curvature="0" />
        <path
           style="fill:#8b8b8b;fill-opacity:1"
           d="M 15,7.5 Q 15.25,7.25 15.625,7.125 L 16,7 15.71875,7.09375 15.4375,7.1875 15.625,7.125 Q 15.8125,7.0625 16,7.0625 l 0.1875,0 -0.09375,0 -0.09375,0 -0.125,0.34375 Q 15.75,7.75 15.5,8 L 15.25,8.25 15.4375,8.0625 15.625,7.875 15.5,8 Q 15.375,8.125 15.28125,8.28125 L 15.1875,8.4375 15.234375,8.359375 15.28125,8.28125 15.015625,8.015625 14.75,7.75 15,7.5 M 14.9375,7.5625 14.75,7.75 14.6875,7.8125 14.625,7.875 14.75,7.75 Q 14.875,7.625 15,7.5 l 0.125,-0.125 -0.1875,0.1875"
           id="path31315"
           inkscape:connector-curvature="0" />
        <path
           style="fill:#f8f8f8;fill-opacity:1"
           d="M 15.875,7.40625 16,7.0625 l -0.09375,0 -0.09375,0 0.1875,0 q 0.1875,0 0.375,0.0625 L 16.5625,7.1875 16.28125,7.09375 16,7 16.375,7.125 q 0.375,0.125 0.5,0.5 L 17,8 16.90625,7.71875 16.8125,7.4375 16.875,7.625 Q 16.9375,7.8125 16.9375,8 l 0,0.1875 0,-0.09375 L 16.9375,8 16.59375,8.125 16.25,8.25 16.53125,8.15625 16.8125,8.0625 16.625,8.125 Q 16.4375,8.1875 16.3125,8.3125 L 16.1875,8.4375 16.25,8.375 16.3125,8.3125 16.015625,8.015625 15.71875,7.71875 15.671875,7.796875 15.625,7.875 15.71875,7.71875 Q 15.8125,7.5625 15.875,7.375 L 15.9375,7.1875 15.84375,7.46875 15.75,7.75 15.875,7.40625"
           id="path31317"
           inkscape:connector-curvature="0" />
        <path
           style="fill:#2f2f2f;fill-opacity:1"
           d="M 16.875,7.625 16.75,7.25 16.84375,7.53125 16.9375,7.8125 16.875,7.625 Q 16.8125,7.4375 16.6875,7.3125 L 16.5625,7.1875 16.625,7.25 16.6875,7.3125 17,7 17.3125,6.6875 17.25,6.625 17.1875,6.5625 l 0.125,0.125 q 0.125,0.125 0.3125,0.1875 L 17.8125,6.9375 17.53125,6.84375 17.25,6.75 17.625,6.875 18,7 18,7.5 18,8 17.46875,8 16.9375,8 l 0,0.09375 0,0.09375 0,-0.1875 q 0,-0.1875 -0.0625,-0.375 L 16.8125,7.4375 16.90625,7.71875 17,8 16.875,7.625"
           id="path31319"
           inkscape:connector-curvature="0" />
        <path
           style="fill:#000000;fill-opacity:0.33333333"
           d="M 18,7.5 18,7 18.5,7 19,7 19,7.5 19,8 18.5,8 18,8 18,7.5"
           id="path31321"
           inkscape:connector-curvature="0" />
        <path
           style="fill:#000000;fill-opacity:0.50588229"
           d="M 8,8.5 8,8 8.375,7.875 8.75,7.75 8.46875,7.84375 8.1875,7.9375 8.375,7.875 Q 8.5625,7.8125 8.65625,7.71875 L 8.75,7.625 8.703125,7.671875 8.65625,7.71875 8.96875,8 9.28125,8.28125 9.359375,8.234375 9.4375,8.1875 9.28125,8.28125 Q 9.125,8.375 9,8.5 L 8.875,8.625 9.0625,8.4375 9.25,8.25 9,8.5 Q 8.75,8.75 8.375,8.875 L 8,9 8,8.5"
           id="path31323"
           inkscape:connector-curvature="0" />
        <path
           style="fill:#343434;fill-opacity:1"
           d="M 9,8.5 Q 9.25,8.25 9.625,8.125 L 10,8 9.875,8.375 Q 9.75,8.75 9.5,9 L 9.25,9.25 8.984375,8.984375 8.71875,8.71875 8.640625,8.765625 8.5625,8.8125 8.71875,8.71875 Q 8.875,8.625 9,8.5 L 9.125,8.375 8.9375,8.5625 8.75,8.75 9,8.5 M 9.1875,9.3125 9.25,9.25 9.4375,9.0625 9.625,8.875 9.5,9 Q 9.375,9.125 9.25,9.25 L 9.125,9.375 9.1875,9.3125"
           id="path31325"
           inkscape:connector-curvature="0" />
        <path
           style="fill:#424242;fill-opacity:1"
           d="M 11,8.5 11,8 11.5,8 12,8 12.125,8.375 12.25,8.75 12.15625,8.46875 12.0625,8.1875 12.125,8.375 q 0.0625,0.1875 0.1875,0.3125 l 0.125,0.125 L 12.375,8.75 12.3125,8.6875 12,9 11.6875,9.3125 11.75,9.375 11.8125,9.4375 11.6875,9.3125 Q 11.5625,9.1875 11.375,9.125 L 11.1875,9.0625 11.46875,9.15625 11.75,9.25 11.375,9.125 11,9 11,8.5"
           id="path31327"
           inkscape:connector-curvature="0" />
        <path
           style="fill:#000000;fill-opacity:0.80784314"
           d="M 12.125,8.375 12,8 12.5,8 13,8 13.046875,8.546875 13.09375,9.09375 12.671875,8.921875 Q 12.25,8.75 12.125,8.375"
           id="path31329"
           inkscape:connector-curvature="0" />
        <path
           style="fill:#101010;fill-opacity:1"
           d="M 13.046875,8.546875 13,8 13.375,7.875 13.75,7.75 13.46875,7.84375 13.1875,7.9375 13.375,7.875 Q 13.5625,7.8125 13.6875,7.6875 L 13.8125,7.5625 13.75,7.625 13.6875,7.6875 13.96875,7.96875 14.25,8.25 14,8.5 Q 13.75,8.75 13.375,8.875 L 13,9 13.28125,8.90625 13.5625,8.8125 13.375,8.875 Q 13.1875,8.9375 13.09375,9.09375 L 13,9.25 13.046875,9.171875 13.09375,9.09375 13.046875,8.546875 M 14.0625,8.4375 14.25,8.25 14.3125,8.1875 14.375,8.125 14.25,8.25 Q 14.125,8.375 14,8.5 l -0.125,0.125 0.1875,-0.1875"
           id="path31331"
           inkscape:connector-curvature="0" />
        <path
           style="fill:#b8b8b8;fill-opacity:1"
           d="M 14,8.5 Q 14.25,8.25 14.5,8 L 14.75,7.75 15.015625,8.015625 15.28125,8.28125 15.328125,8.203125 15.375,8.125 15.28125,8.28125 Q 15.1875,8.4375 15.125,8.625 L 15.0625,8.8125 15.15625,8.53125 15.25,8.25 15.171875,8.671875 15.09375,9.09375 14.671875,9.171875 14.25,9.25 14.53125,9.15625 14.8125,9.0625 14.625,9.125 Q 14.4375,9.1875 14.3125,9.3125 L 14.1875,9.4375 14.25,9.375 14.3125,9.3125 14.015625,9.015625 13.71875,8.71875 13.640625,8.765625 13.5625,8.8125 13.71875,8.71875 Q 13.875,8.625 14,8.5 L 14.125,8.375 13.9375,8.5625 13.75,8.75 14,8.5 M 14.8125,7.6875 14.75,7.75 14.5625,7.9375 14.375,8.125 14.5,8 q 0.125,-0.125 0.25,-0.25 l 0.125,-0.125 -0.0625,0.0625"
           id="path31333"
           inkscape:connector-curvature="0" />
        <path
           style="fill:#dcdcdc;fill-opacity:1"
           d="M 15.171875,8.671875 Q 15.25,8.25 15.5,8 L 15.75,7.75 15.5625,7.9375 15.375,8.125 15.5,8 Q 15.625,7.875 15.71875,7.71875 L 15.8125,7.5625 15.765625,7.640625 15.71875,7.71875 16.015625,8.015625 16.3125,8.3125 16.375,8.25 16.4375,8.1875 16.3125,8.3125 Q 16.1875,8.4375 16.125,8.625 L 16.0625,8.8125 16.15625,8.53125 16.25,8.25 16.109375,8.609375 15.96875,8.96875 16.078125,8.953125 16.1875,8.9375 15.96875,8.96875 Q 15.75,9 15.5,9 L 15.25,9 15.625,9 16,9 15.5,9 15,9 15.375,9 15.75,9 15.5,9 Q 15.25,9 15.09375,9.09375 L 14.9375,9.1875 15.015625,9.140625 15.09375,9.09375 15.171875,8.671875"
           id="path31335"
           inkscape:connector-curvature="0" />
        <path
           style="fill:#a7a7a7;fill-opacity:1"
           d="M 16.109375,8.609375 Q 16.25,8.25 16.59375,8.125 L 16.9375,8 l 0,-0.09375 0,-0.09375 0,0.1875 q 0,0.1875 -0.0625,0.375 L 16.8125,8.5625 16.90625,8.28125 17,8 16.875,8.375 q -0.125,0.375 -0.5,0.5 L 16,9 16.28125,8.90625 16.5625,8.8125 16.375,8.875 Q 16.1875,8.9375 15.96875,8.96875 L 15.75,9 15.859375,8.984375 15.96875,8.96875 16.109375,8.609375"
           id="path31337"
           inkscape:connector-curvature="0" />
        <path
           style="fill:#080808;fill-opacity:0.93333333"
           d="M 16.875,8.375 17,8 16.90625,8.28125 16.8125,8.5625 16.875,8.375 Q 16.9375,8.1875 16.9375,8 l 0,-0.1875 0,0.09375 0,0.09375 0.53125,0 L 18,8 18,8.5 18,9 17.625,9.125 17.25,9.25 17.53125,9.15625 17.8125,9.0625 17.625,9.125 Q 17.4375,9.1875 17.3125,9.3125 L 17.1875,9.4375 17.25,9.375 17.3125,9.3125 17,9 16.6875,8.6875 16.625,8.75 16.5625,8.8125 16.6875,8.6875 Q 16.8125,8.5625 16.875,8.375 L 16.9375,8.1875 16.84375,8.46875 16.75,8.75 16.875,8.375"
           id="path31339"
           inkscape:connector-curvature="0" />
        <path
           style="fill:#000000;fill-opacity:0.07058824"
           d="M 18,8.5 18,8 18.5,8 19,8 19,8.5 Q 19,9 18.5,9 L 18,9 18,8.5"
           id="path31341"
           inkscape:connector-curvature="0" />
        <path
           style="fill:#000000;fill-opacity:0.63137255"
           d="M 6.875,9.375 Q 7,9 7.5,9 L 8,9 8.046875,9.546875 8.09375,10.09375 7.671875,10.171875 7.25,10.25 7.53125,10.15625 7.8125,10.0625 7.625,10.125 Q 7.4375,10.1875 7.3125,10.3125 L 7.1875,10.4375 7.25,10.375 7.3125,10.3125 7,10 6.6875,9.6875 6.625,9.75 6.5625,9.8125 6.6875,9.6875 Q 6.8125,9.5625 6.875,9.375 L 6.9375,9.1875 6.84375,9.46875 6.75,9.75 6.875,9.375"
           id="path31343"
           inkscape:connector-curvature="0" />
        <path
           style="fill:#1e1e1e;fill-opacity:1"
           d="M 8.046875,9.546875 8,9 8.375,8.875 8.75,8.75 8.46875,8.84375 8.1875,8.9375 8.375,8.875 Q 8.5625,8.8125 8.71875,8.71875 L 8.875,8.625 8.796875,8.671875 8.71875,8.71875 8.984375,8.984375 9.25,9.25 9,9.5 Q 8.75,9.75 8.375,9.875 L 8,10 8.28125,9.90625 8.5625,9.8125 8.375,9.875 Q 8.1875,9.9375 8.09375,10.09375 L 8,10.25 8.046875,10.171875 8.09375,10.09375 8.046875,9.546875 M 9.0625,9.4375 9.25,9.25 9.3125,9.1875 9.375,9.125 9.25,9.25 Q 9.125,9.375 9,9.5 L 8.875,9.625 9.0625,9.4375"
           id="path31345"
           inkscape:connector-curvature="0" />
        <path
           style="fill:#d5d5d5;fill-opacity:1"
           d="M 9,9.5 Q 9.25,9.25 9.5,9 L 9.75,8.75 9.5625,8.9375 9.375,9.125 9.5,9 Q 9.625,8.875 9.71875,8.71875 L 9.8125,8.5625 9.765625,8.640625 9.71875,8.71875 9.984375,8.984375 Q 10.25,9.25 10.125,9.625 L 10,10 9.625,10.125 9.25,10.25 9.53125,10.15625 9.8125,10.0625 9.625,10.125 Q 9.4375,10.1875 9.34375,10.28125 L 9.25,10.375 9.296875,10.328125 9.34375,10.28125 9.03125,10 8.71875,9.71875 8.640625,9.765625 8.5625,9.8125 8.71875,9.71875 Q 8.875,9.625 9,9.5 L 9.125,9.375 8.9375,9.5625 8.75,9.75 9,9.5"
           id="path31347"
           inkscape:connector-curvature="0" />
        <path
           style="fill:#737373;fill-opacity:1"
           d="M 11.125,9.375 11,9 11.375,9.125 q 0.375,0.125 0.5,0.5 L 12,10 11.625,9.875 q -0.375,-0.125 -0.5,-0.5"
           id="path31349"
           inkscape:connector-curvature="0" />
        <path
           style="fill:#5e5e5e;fill-opacity:1"
           d="M 11.875,9.625 11.75,9.25 11.84375,9.53125 11.9375,9.8125 11.875,9.625 Q 11.8125,9.4375 11.6875,9.3125 L 11.5625,9.1875 11.625,9.25 11.6875,9.3125 12,9 12.3125,8.6875 12.25,8.625 12.1875,8.5625 l 0.125,0.125 q 0.125,0.125 0.3125,0.1875 L 12.8125,8.9375 12.53125,8.84375 12.25,8.75 12.671875,8.921875 13.09375,9.09375 13.140625,9.015625 13.1875,8.9375 13.09375,9.09375 Q 13,9.25 13,9.5 L 13,9.75 13,9.375 13,9 13.125,9.375 13.25,9.75 13.15625,9.46875 13.0625,9.1875 13.125,9.375 q 0.0625,0.1875 0.1875,0.3125 l 0.125,0.125 L 13.375,9.75 13.3125,9.6875 12.984375,9.984375 12.65625,10.28125 12.703125,10.328125 12.75,10.375 12.65625,10.28125 Q 12.5625,10.1875 12.375,10.125 L 12.1875,10.0625 12.46875,10.15625 12.75,10.25 12.375,10.125 12,10 11.875,9.625"
           id="path31351"
           inkscape:connector-curvature="0" />
        <path
           style="fill:#d7d7d7;fill-opacity:1"
           d="M 13.125,9.375 Q 13,9 13.375,8.875 L 13.75,8.75 13.46875,8.84375 13.1875,8.9375 13.375,8.875 Q 13.5625,8.8125 13.71875,8.71875 L 13.875,8.625 13.796875,8.671875 13.71875,8.71875 14.015625,9.015625 14.3125,9.3125 14.375,9.25 14.4375,9.1875 14.3125,9.3125 Q 14.1875,9.4375 14.125,9.625 L 14.0625,9.8125 14.15625,9.53125 14.25,9.25 14.125,9.625 14,10 13.625,9.875 q -0.375,-0.125 -0.5,-0.5"
           id="path31353"
           inkscape:connector-curvature="0" />
        <path
           style="fill:#8b8b8b;fill-opacity:1"
           d="M 14.125,9.625 Q 14.25,9.25 14.671875,9.171875 L 15.09375,9.09375 15.171875,9.046875 15.25,9 15.09375,9.09375 Q 14.9375,9.1875 14.875,9.375 L 14.8125,9.5625 14.90625,9.28125 15,9 14.875,9.375 q -0.125,0.375 -0.5,0.5 L 14,10 14.125,9.625"
           id="path31355"
           inkscape:connector-curvature="0" />
        <path
           style="fill:#020202;fill-opacity:0.99607843"
           d="M 14.875,9.375 Q 15,9 15.5,9 L 16,9 15.625,9 15.25,9 15.5,9 q 0.25,0 0.46875,-0.03125 L 16.1875,8.9375 16.078125,8.953125 15.96875,8.96875 15.984375,9.484375 16,10 15.625,10.125 15.25,10.25 15.53125,10.15625 15.8125,10.0625 15.625,10.125 q -0.1875,0.0625 -0.3125,0.1875 l -0.125,0.125 L 15.25,10.375 15.3125,10.3125 15,10 14.6875,9.6875 14.625,9.75 14.5625,9.8125 14.6875,9.6875 Q 14.8125,9.5625 14.875,9.375 L 14.9375,9.1875 14.84375,9.46875 14.75,9.75 14.875,9.375"
           id="path31357"
           inkscape:connector-curvature="0" />
        <path
           style="fill:#000000;fill-opacity:0.88235294"
           d="M 15.984375,9.484375 15.96875,8.96875 15.859375,8.984375 15.75,9 15.96875,8.96875 Q 16.1875,8.9375 16.375,8.875 L 16.5625,8.8125 16.28125,8.90625 16,9 16.375,8.875 16.75,8.75 16.46875,8.84375 16.1875,8.9375 16.375,8.875 Q 16.5625,8.8125 16.6875,8.6875 L 16.8125,8.5625 16.75,8.625 16.6875,8.6875 17,9 17.3125,9.3125 17.375,9.25 17.4375,9.1875 17.3125,9.3125 Q 17.1875,9.4375 17.125,9.625 L 17.0625,9.8125 17.15625,9.53125 17.25,9.25 17.125,9.625 17,10 16.5,10 16,10 15.984375,9.484375"
           id="path31359"
           inkscape:connector-curvature="0" />
        <path
           style="fill:#000000;fill-opacity:0.07058824"
           d="m 17.125,9.625 q 0.125,-0.375 0.5,-0.5 L 18,9 18,9.5 Q 18,10 17.5,10 L 17,10 17.125,9.625"
           id="path31361"
           inkscape:connector-curvature="0" />
        <path
           style="fill:#000000;fill-opacity:0.09019608"
           d="M 3,10.5 Q 3,10 3.5,10 L 4,10 4,10.5 4,11 3.5,11 3,11 3,10.5"
           id="path31363"
           inkscape:connector-curvature="0" />
        <path
           style="fill:#000000;fill-opacity:0.32156863"
           d="M 4,10.5 4,10 4.5,10 5,10 5,10.5 5,11 4.5,11 4,11 4,10.5"
           id="path31365"
           inkscape:connector-curvature="0" />
        <path
           style="fill:#000000;fill-opacity:0.29411765"
           d="M 5,10.5 5,10 5.5,10 6,10 5.875,10.375 q -0.125,0.375 -0.5,0.5 L 5,11 5,10.5"
           id="path31367"
           inkscape:connector-curvature="0" />
        <path
           style="fill:#000000;fill-opacity:0.9254902"
           d="M 5.875,10.375 6,10 6.375,9.875 6.75,9.75 6.46875,9.84375 6.1875,9.9375 6.375,9.875 Q 6.5625,9.8125 6.6875,9.6875 L 6.8125,9.5625 6.75,9.625 6.6875,9.6875 7,10 7.3125,10.3125 7.375,10.25 7.4375,10.1875 7.3125,10.3125 Q 7.1875,10.4375 7.125,10.625 L 7.0625,10.8125 7.15625,10.53125 7.25,10.25 7.125,10.625 7,11 6.625,11.125 6.25,11.25 6.53125,11.15625 6.8125,11.0625 6.625,11.125 Q 6.4375,11.1875 6.3125,11.3125 L 6.1875,11.4375 6.25,11.375 6.3125,11.3125 6,11 5.6875,10.6875 5.625,10.75 5.5625,10.8125 5.6875,10.6875 Q 5.8125,10.5625 5.875,10.375 L 5.9375,10.1875 5.84375,10.46875 5.75,10.75 5.875,10.375"
           id="path31369"
           inkscape:connector-curvature="0" />
        <path
           style="fill:#4f4f4f;fill-opacity:1"
           d="M 7.125,10.625 Q 7.25,10.25 7.671875,10.171875 L 8.09375,10.09375 8.140625,10.015625 8.1875,9.9375 8.09375,10.09375 Q 8,10.25 8,10.5 L 8,10.75 8,10.375 8,10 8.125,10.375 8.25,10.75 8.15625,10.46875 8.0625,10.1875 8.125,10.375 q 0.0625,0.1875 0.15625,0.34375 L 8.375,10.875 8.328125,10.796875 8.28125,10.71875 7.984375,11.015625 7.6875,11.3125 7.75,11.375 7.8125,11.4375 7.6875,11.3125 Q 7.5625,11.1875 7.375,11.125 L 7.1875,11.0625 7.46875,11.15625 7.75,11.25 7.375,11.125 7,11 7.125,10.625"
           id="path31371"
           inkscape:connector-curvature="0" />
        <path
           style="fill:#d6d6d6;fill-opacity:1"
           d="M 8.125,10.375 Q 8,10 8.375,9.875 L 8.75,9.75 8.46875,9.84375 8.1875,9.9375 8.375,9.875 Q 8.5625,9.8125 8.71875,9.71875 L 8.875,9.625 8.796875,9.671875 8.71875,9.71875 9.03125,10 9.34375,10.28125 9.390625,10.234375 9.4375,10.1875 9.34375,10.28125 Q 9.25,10.375 9.25,10.5 l 0,0.125 0,-0.1875 0,-0.1875 0,0.25 0,0.25 0,-0.1875 0,-0.1875 0,0.125 q 0,0.125 0.09375,0.21875 L 9.4375,10.8125 9.390625,10.765625 9.34375,10.71875 9.03125,11 8.71875,11.28125 8.765625,11.359375 8.8125,11.4375 8.71875,11.28125 Q 8.625,11.125 8.5,11 L 8.375,10.875 8.5625,11.0625 8.75,11.25 8.5,11 Q 8.25,10.75 8.125,10.375"
           id="path31373"
           inkscape:connector-curvature="0" />
        <path
           style="fill:#f3f3f3;fill-opacity:1"
           d="m 9.25,10.5 q 0,-0.25 0.375,-0.375 L 10,10 10,10.5 10,11 9.625,10.875 Q 9.25,10.75 9.25,10.5"
           id="path31375"
           inkscape:connector-curvature="0" />
        <path
           style="fill:#d8d8d8;fill-opacity:1"
           d="M 11.875,10.375 12,10 l 0.375,0.125 q 0.375,0.125 0.375,0.375 0,0.25 -0.25,0.5 L 12.25,11.25 12.4375,11.0625 12.625,10.875 12.5,11 q -0.125,0.125 -0.21875,0.28125 L 12.1875,11.4375 12.23437,11.35937 12.28124,11.28124 11.984375,10.984375 11.6875,10.6875 11.625,10.75 l -0.0625,0.0625 0.125,-0.125 q 0.125,-0.125 0.1875,-0.3125 L 11.9375,10.1875 11.84375,10.46875 11.75,10.75 11.875,10.375"
           id="path31377"
           inkscape:connector-curvature="0" />
        <path
           style="fill:#4a4a4a;fill-opacity:1"
           d="m 12.75,10.5 0,-0.25 0,0.1875 0,0.1875 0,-0.125 q 0,-0.125 -0.09375,-0.21875 L 12.5625,10.1875 12.60937,10.23437 12.65624,10.28124 12.984375,9.984375 13.3125,9.6875 13.25,9.625 13.1875,9.5625 l 0.125,0.125 q 0.125,0.125 0.3125,0.1875 L 13.8125,9.9375 13.53125,9.84375 13.25,9.75 13.625,9.875 14,10 13.875,10.375 Q 13.75,10.75 13.5,11 L 13.25,11.25 13.4375,11.0625 13.625,10.875 13.5,11 q -0.125,0.125 -0.1875,0.25 L 13.25,11.375 13.28125,11.3125 13.3125,11.25 13,11 12.6875,10.75 12.65625,10.8125 12.625,10.875 12.6875,10.75 Q 12.75,10.625 12.75,10.5 l 0,-0.125 0,0.1875 0,0.1875 0,-0.25"
           id="path31379"
           inkscape:connector-curvature="0" />
        <path
           style="fill:#000000;fill-opacity:0.89411765"
           d="M 13.875,10.375 14,10 14.375,9.875 14.75,9.75 14.46875,9.84375 14.1875,9.9375 14.375,9.875 Q 14.5625,9.8125 14.6875,9.6875 L 14.8125,9.5625 14.75,9.625 14.6875,9.6875 15,10 l 0.3125,0.3125 0.0625,-0.0625 0.0625,-0.0625 -0.125,0.125 q -0.125,0.125 -0.1875,0.3125 L 15.0625,10.8125 15.15625,10.53125 15.25,10.25 15.125,10.625 15,11 14.625,11.125 14.25,11.25 14.53125,11.15625 14.8125,11.0625 14.625,11.125 q -0.1875,0.0625 -0.3125,0.1875 l -0.125,0.125 L 14.25,11.375 14.3125,11.3125 14.015625,11.015625 13.71875,10.71875 13.671875,10.796875 13.625,10.875 13.71875,10.71875 Q 13.8125,10.5625 13.875,10.375 L 13.9375,10.1875 13.84375,10.46875 13.75,10.75 13.875,10.375"
           id="path31381"
           inkscape:connector-curvature="0" />
        <path
           style="fill:#000000;fill-opacity:0.01568627"
           d="m 15.125,10.625 q 0.125,-0.375 0.5,-0.5 L 16,10 16,10.5 Q 16,11 15.5,11 l -0.5,0 0.125,-0.375"
           id="path31383"
           inkscape:connector-curvature="0" />
        <path
           style="fill:#000000;fill-opacity:0.09019608"
           d="M 2,11.5 Q 2,11 2.5,11 L 3,11 2.875,11.375 q -0.125,0.375 -0.5,0.5 L 2,12 2,11.5"
           id="path31385"
           inkscape:connector-curvature="0" />
        <path
           style="fill:#0a0a0a;fill-opacity:0.8627451"
           d="M 2.875,11.375 3,11 3.5,11 4,11 4,11.5 4,12 3.625,12.125 3.25,12.25 3.53125,12.15625 3.8125,12.0625 3.625,12.125 Q 3.4375,12.1875 3.34375,12.28125 L 3.25,12.375 3.296875,12.328125 3.34375,12.28125 3.015625,11.984375 2.6875,11.6875 2.625,11.75 2.5625,11.8125 2.6875,11.6875 Q 2.8125,11.5625 2.875,11.375 L 2.9375,11.1875 2.84375,11.46875 2.75,11.75 2.875,11.375"
           id="path31387"
           inkscape:connector-curvature="0" />
        <path
           style="fill:#2d2d2d;fill-opacity:1"
           d="M 4,11.5 4,11 4.5,11 5,11 5,11.5 5,12 4.5,12 4,12 4,11.5"
           id="path31389"
           inkscape:connector-curvature="0" />
        <path
           style="fill:#292929;fill-opacity:1"
           d="M 5,11.5 5,11 5.375,10.875 5.75,10.75 5.46875,10.84375 5.1875,10.9375 5.375,10.875 Q 5.5625,10.8125 5.6875,10.6875 L 5.8125,10.5625 5.75,10.625 5.6875,10.6875 6,11 6.3125,11.3125 6.375,11.25 6.4375,11.1875 6.3125,11.3125 Q 6.1875,11.4375 6.125,11.625 L 6.0625,11.8125 6.15625,11.53125 6.25,11.25 6.125,11.625 Q 6,12 5.5,12 L 5,12 5,11.5"
           id="path31391"
           inkscape:connector-curvature="0" />
        <path
           style="fill:#9b9b9b;fill-opacity:1"
           d="m 6.125,11.625 q 0.125,-0.375 0.5,-0.5 L 7,11 6.875,11.375 Q 6.75,11.75 6.328125,11.828125 L 5.90625,11.90625 5.828125,11.953125 5.75,12 5.90625,11.90625 Q 6.0625,11.8125 6.125,11.625 L 6.1875,11.4375 6.09375,11.71875 6,12 6.125,11.625"
           id="path31393"
           inkscape:connector-curvature="0" />
        <path
           style="fill:#d9d9d9;fill-opacity:1"
           d="M 6.875,11.375 7,11 7.375,11.125 q 0.375,0.125 0.5,0.5 L 8,12 7.625,12.125 7.25,12.25 7.53125,12.15625 7.8125,12.0625 7.625,12.125 Q 7.4375,12.1875 7.28125,12.28125 L 7.125,12.375 7.203125,12.328125 7.28125,12.28125 6.984375,11.984375 6.6875,11.6875 6.625,11.75 6.5625,11.8125 6.6875,11.6875 Q 6.8125,11.5625 6.875,11.375 L 6.9375,11.1875 6.84375,11.46875 6.75,11.75 6.875,11.375"
           id="path31395"
           inkscape:connector-curvature="0" />
        <path
           style="fill:#6a6a6a;fill-opacity:1"
           d="M 7.875,11.625 7.75,11.25 7.84375,11.53125 7.9375,11.8125 7.875,11.625 Q 7.8125,11.4375 7.6875,11.3125 L 7.5625,11.1875 7.625,11.25 7.6875,11.3125 7.984375,11.015625 8.28125,10.71875 8.234375,10.640625 8.1875,10.5625 8.28125,10.71875 Q 8.375,10.875 8.5,11 L 8.625,11.125 8.4375,10.9375 8.25,10.75 8.5,11 q 0.25,0.25 0.375,0.625 L 9,12 8.5,12 8,12 7.875,11.625 M 8.625,12 9,12 9.125,12 9.25,12 9,12 q -0.25,0 -0.5,0 l -0.25,0 0.375,0"
           id="path31397"
           inkscape:connector-curvature="0" />
        <path
           style="fill:#ededed;fill-opacity:1"
           d="M 8.875,11.625 8.75,11.25 8.84375,11.53125 8.9375,11.8125 8.875,11.625 Q 8.8125,11.4375 8.71875,11.28125 L 8.625,11.125 8.671875,11.203125 8.71875,11.28125 9.03125,11 9.34375,10.71875 9.296875,10.671875 9.25,10.625 9.34375,10.71875 Q 9.4375,10.8125 9.625,10.875 L 9.8125,10.9375 9.53125,10.84375 9.25,10.75 9.625,10.875 10,11 10,11.5 10,12 9.5,12 9,12 8.875,11.625 M 8.875,12 9,12 9.375,12 9.75,12 9.5,12 Q 9.25,12 9,12 l -0.25,0 0.125,0"
           id="path31399"
           inkscape:connector-curvature="0" />
        <path
           style="fill:#fafafa;fill-opacity:1"
           d="m 10,11.5 0,-0.5 0.5,0 0.5,0 0.125,0.375 0.125,0.375 -0.09375,-0.28125 -0.09375,-0.28125 0.0625,0.1875 q 0.0625,0.1875 0.1875,0.3125 l 0.125,0.125 L 11.375,11.75 11.3125,11.6875 11,12 l -0.3125,0.3125 0.0625,0.0625 0.0625,0.0625 -0.125,-0.125 Q 10.5625,12.1875 10.375,12.125 L 10.1875,12.0625 10.46875,12.15625 10.75,12.25 10.375,12.125 10,12 10,11.5"
           id="path31401"
           inkscape:connector-curvature="0" />
        <path
           style="fill:#f6f6f6;fill-opacity:1"
           d="M 11.125,11.375 11,11 11.375,10.875 11.75,10.75 11.46875,10.84375 11.1875,10.9375 11.375,10.875 q 0.1875,-0.0625 0.3125,-0.1875 l 0.125,-0.125 -0.0625,0.0625 -0.0625,0.0625 0.296875,0.296875 0.296875,0.296875 0.04687,-0.07813 L 12.375,11.125 12.28125,11.28125 Q 12.1875,11.4375 12.125,11.625 L 12.0625,11.8125 12.15625,11.53125 12.25,11.25 12.125,11.625 12,12 l 0,-0.375 0,-0.375 0,0.25 q 0,0.25 0.09375,0.40625 L 12.1875,12.0625 12.14063,11.98437 12.09376,11.90624 11.671885,11.82811 Q 11.25,11.75 11.125,11.375"
           id="path31403"
           inkscape:connector-curvature="0" />
        <path
           style="fill:#1e1e1e;fill-opacity:1"
           d="M 12.125,11.625 Q 12.25,11.25 12.5,11 L 12.75,10.75 12.5625,10.9375 12.375,11.125 12.5,11 q 0.125,-0.125 0.1875,-0.25 L 12.75,10.625 12.71875,10.6875 12.6875,10.75 13,11 13.3125,11.25 13.34375,11.1875 13.375,11.125 13.3125,11.25 Q 13.25,11.375 13.25,11.5 l 0,0.125 0,-0.1875 0,-0.1875 0,0.25 0,0.25 0,-0.1875 0,-0.1875 0,0.125 q 0,0.125 0.09375,0.21875 l 0.09375,0.09375 -0.04687,-0.04687 -0.04687,-0.04687 -0.3125,0.28125 -0.3125,0.28125 0.07813,0.04687 L 12.875,12.375 12.71875,12.28125 Q 12.5625,12.1875 12.375,12.125 L 12.1875,12.0625 12.46875,12.15625 12.75,12.25 12.375,12.125 Q 12,12 12.125,11.625"
           id="path31405"
           inkscape:connector-curvature="0" />
        <path
           style="fill:#000000;fill-opacity:0.60784314"
           d="m 13.25,11.5 q 0,-0.25 0.25,-0.5 L 13.75,10.75 13.5625,10.9375 13.375,11.125 13.5,11 q 0.125,-0.125 0.21875,-0.28125 l 0.09375,-0.15625 -0.04687,0.07813 -0.04687,0.07813 0.296875,0.296875 0.296875,0.296875 0.0625,-0.0625 0.0625,-0.0625 -0.125,0.125 q -0.125,0.125 -0.1875,0.3125 L 14.0625,11.8125 14.15625,11.53125 14.25,11.25 14.125,11.625 14,12 13.625,11.875 Q 13.25,11.75 13.25,11.5"
           id="path31407"
           inkscape:connector-curvature="0" />
        <path
           style="fill:#000000;fill-opacity:0.75294118"
           d="M 2,12.5 2,12 2.375,11.875 2.75,11.75 2.46875,11.84375 2.1875,11.9375 2.375,11.875 Q 2.5625,11.8125 2.6875,11.6875 L 2.8125,11.5625 2.75,11.625 2.6875,11.6875 3.015625,11.984375 3.34375,12.28125 3.390625,12.234375 3.4375,12.1875 3.34375,12.28125 Q 3.25,12.375 3.25,12.5 l 0,0.125 0,-0.1875 0,-0.1875 0,0.25 0,0.25 0,-0.1875 0,-0.1875 0,0.125 q 0,0.125 0.0625,0.25 L 3.375,12.875 3.34375,12.8125 3.3125,12.75 3,13.03125 2.6875,13.3125 2.75,13.375 2.8125,13.4375 2.6875,13.3125 Q 2.5625,13.1875 2.375,13.125 L 2.1875,13.0625 2.46875,13.15625 2.75,13.25 2.375,13.125 2,13 2,12.5"
           id="path31409"
           inkscape:connector-curvature="0" />
        <path
           style="fill:#808080;fill-opacity:1"
           d="m 3.25,12.5 q 0,-0.25 0.375,-0.375 L 4,12 3.71875,12.09375 3.4375,12.1875 3.625,12.125 Q 3.8125,12.0625 4.03125,12.03125 L 4.25,12 4.140625,12.015625 4.03125,12.03125 4.140625,12.390625 4.25,12.75 4.15625,12.46875 4.0625,12.1875 4.125,12.375 q 0.0625,0.1875 0.1875,0.3125 l 0.125,0.125 L 4.375,12.75 4.3125,12.6875 4.03125,12.96875 3.75,13.25 3.5,13 Q 3.25,12.75 3.25,12.5 M 3.5625,13.0625 3.75,13.25 3.8125,13.3125 3.875,13.375 3.75,13.25 Q 3.625,13.125 3.5,13 l -0.125,-0.125 0.1875,0.1875"
           id="path31411"
           inkscape:connector-curvature="0" />
        <path
           style="fill:#ffffff;fill-opacity:1"
           d="M 4.140625,12.390625 4.03125,12.03125 3.921875,12.046875 3.8125,12.0625 4.03125,12.03125 Q 4.25,12 4.5,12 L 4.75,12 4.375,12 4,12 4.5,12 5,12 5.5,12 6,12 5.625,12 5.25,12 5.5,12 q 0.25,0 0.40625,-0.09375 L 6.0625,11.8125 5.984375,11.859375 5.90625,11.90625 5.953125,12.453125 6,13 5.5,13 5,13 4.625,12.875 Q 4.25,12.75 4.140625,12.390625"
           id="path31413"
           inkscape:connector-curvature="0" />
        <path
           style="fill:#afafaf;fill-opacity:1"
           d="M 5.953125,12.453125 5.90625,11.90625 6.328125,11.828125 6.75,11.75 6.46875,11.84375 6.1875,11.9375 6.375,11.875 Q 6.5625,11.8125 6.6875,11.6875 L 6.8125,11.5625 6.75,11.625 6.6875,11.6875 6.984375,11.984375 7.28125,12.28125 7.359375,12.234375 7.4375,12.1875 7.28125,12.28125 Q 7.125,12.375 7,12.5 L 6.875,12.625 7.0625,12.4375 7.25,12.25 7,12.5 Q 6.75,12.75 6.375,12.875 L 6,13 5.953125,12.453125"
           id="path31415"
           inkscape:connector-curvature="0" />
        <path
           style="fill:#030303;fill-opacity:1"
           d="M 7,12.5 Q 7.25,12.25 7.625,12.125 L 8,12 8,12.5 8,13 7.625,13.125 7.25,13.25 7.53125,13.15625 7.8125,13.0625 7.625,13.125 Q 7.4375,13.1875 7.28125,13.28125 L 7.125,13.375 7.203125,13.328125 7.28125,13.28125 7,13 6.71875,12.71875 6.640625,12.765625 6.5625,12.8125 6.71875,12.71875 Q 6.875,12.625 7,12.5 L 7.125,12.375 6.9375,12.5625 6.75,12.75 7,12.5"
           id="path31417"
           inkscape:connector-curvature="0" />
        <path
           style="fill:#a6a6a6;fill-opacity:1"
           d="M 8,12.5 8,12 8.5,12 9,12 9.0625,12.5625 9.125,13.125 8.5625,13.0625 8,13 8,12.5"
           id="path31419"
           inkscape:connector-curvature="0" />
        <path
           style="fill:#a9a9a9;fill-opacity:1"
           d="M 9.0625,12.5625 9,12 9.5,12 10,12 10.125,12.375 10.25,12.75 10.15625,12.46875 10.0625,12.1875 10.125,12.375 q 0.0625,0.1875 0.1875,0.3125 l 0.125,0.125 L 10.375,12.75 10.3125,12.6875 10,13 9.6875,13.3125 9.75,13.375 9.8125,13.4375 9.6875,13.3125 Q 9.5625,13.1875 9.375,13.125 L 9.1875,13.0625 9.46875,13.15625 9.75,13.25 9.375,13.125 9,13 9.375,13 9.75,13 9.5,13 Q 9.25,13 9.125,13.125 L 9,13.25 9.0625,13.1875 9.125,13.125 9.0625,12.5625"
           id="path31421"
           inkscape:connector-curvature="0" />
        <path
           style="fill:#bbbbbb;fill-opacity:1"
           d="M 10.125,12.375 10,12 l 0.375,0.125 q 0.375,0.125 0.5,0.5 L 11,13 10.625,12.875 q -0.375,-0.125 -0.5,-0.5"
           id="path31423"
           inkscape:connector-curvature="0" />
        <path
           style="fill:#ffffff;fill-opacity:1"
           d="M 10.875,12.625 10.75,12.25 10.84375,12.53125 10.9375,12.8125 10.875,12.625 q -0.0625,-0.1875 -0.1875,-0.3125 l -0.125,-0.125 0.0625,0.0625 0.0625,0.0625 L 11,12 11.3125,11.6875 11.25,11.625 l -0.0625,-0.0625 0.125,0.125 q 0.125,0.125 0.3125,0.1875 L 11.8125,11.9375 11.53125,11.84375 11.25,11.75 l 0.421875,0.07813 0.421875,0.07813 0.07813,0.421875 L 12.25,12.75 12.15625,12.46875 12.0625,12.1875 12.125,12.375 q 0.0625,0.1875 0.15625,0.34375 L 12.375,12.875 12.328125,12.796875 12.28125,12.71875 11.984375,13.015625 11.6875,13.3125 11.75,13.375 l 0.0625,0.0625 -0.125,-0.125 Q 11.5625,13.1875 11.375,13.125 L 11.1875,13.0625 11.46875,13.15625 11.75,13.25 11.359375,13.140625 10.96875,13.03125 10.984375,13.140625 11,13.25 10.96875,13.03125 Q 10.9375,12.8125 10.875,12.625 L 10.8125,12.4375 10.90625,12.71875 11,13 10.875,12.625"
           id="path31425"
           inkscape:connector-curvature="0" />
        <path
           style="fill:#b5b5b5;fill-opacity:1"
           d="M 12.171875,12.328125 12.09375,11.90625 12.046875,11.828125 12,11.75 12.09375,11.90625 Q 12.1875,12.0625 12.375,12.125 L 12.5625,12.1875 12.28125,12.09375 12,12 12.375,12.125 Q 12.75,12.25 13,12.5 L 13.25,12.75 13,13 12.75,13.25 12.5,13 Q 12.25,12.75 12.171875,12.328125 M 12.5625,13.0625 12.75,13.25 12.8125,13.3125 12.875,13.375 12.75,13.25 Q 12.625,13.125 12.5,13 l -0.125,-0.125 0.1875,0.1875 m 0.75,-0.25 L 13.25,12.75 13.0625,12.5625 12.875,12.375 13,12.5 q 0.125,0.125 0.25,0.25 l 0.125,0.125 -0.0625,-0.0625"
           id="path31427"
           inkscape:connector-curvature="0" />
        <path
           style="fill:#000000;fill-opacity:0.98431373"
           d="M 13,12.5 12.75,12.25 12.9375,12.4375 13.125,12.625 13,12.5 Q 12.875,12.375 12.71875,12.28125 L 12.5625,12.1875 12.64063,12.23437 12.71876,12.28124 13.03125,12 13.34375,11.71875 13.296875,11.671875 13.25,11.625 13.34375,11.71875 Q 13.4375,11.8125 13.625,11.875 L 13.8125,11.9375 13.53125,11.84375 13.25,11.75 13.625,11.875 14,12 14.125,12.375 14.25,12.75 14.15625,12.46875 14.0625,12.1875 14.125,12.375 q 0.0625,0.1875 0.1875,0.3125 l 0.125,0.125 -0.0625,-0.0625 -0.0625,-0.0625 -0.296875,0.296875 -0.296875,0.296875 0.04687,0.07813 0.04687,0.07813 -0.09375,-0.15625 Q 13.625,13.125 13.5,13 L 13.375,12.875 13.5625,13.0625 13.75,13.25 13.5,13 Q 13.25,12.75 13,12.5"
           id="path31429"
           inkscape:connector-curvature="0" />
        <path
           style="fill:#000000;fill-opacity:0.2627451"
           d="M 2,13.5 2,13 2.375,13.125 q 0.375,0.125 0.5,0.5 L 3,14 2.5,14 Q 2,14 2,13.5"
           id="path31431"
           inkscape:connector-curvature="0" />
        <path
           style="fill:#232323;fill-opacity:0.94901961"
           d="M 2.875,13.625 2.75,13.25 2.84375,13.53125 2.9375,13.8125 2.875,13.625 Q 2.8125,13.4375 2.6875,13.3125 L 2.5625,13.1875 2.625,13.25 2.6875,13.3125 3,13.03125 3.3125,12.75 3.28125,12.6875 3.25,12.625 3.3125,12.75 Q 3.375,12.875 3.5,13 L 3.625,13.125 3.4375,12.9375 3.25,12.75 3.5,13 Q 3.75,13.25 4,13.5 L 4.25,13.75 4.0625,13.5625 3.875,13.375 4,13.5 q 0.125,0.125 0.28125,0.21875 L 4.4375,13.8125 4.359375,13.765625 4.28125,13.71875 3.984375,14.015625 3.6875,14.3125 3.75,14.375 3.8125,14.4375 3.6875,14.3125 Q 3.5625,14.1875 3.375,14.125 L 3.1875,14.0625 3.46875,14.15625 3.75,14.25 3.375,14.125 3,14 2.875,13.625"
           id="path31433"
           inkscape:connector-curvature="0" />
        <path
           style="fill:#636363;fill-opacity:1"
           d="M 4,13.5 3.75,13.25 4.03125,12.96875 4.3125,12.6875 4.25,12.625 4.1875,12.5625 l 0.125,0.125 q 0.125,0.125 0.3125,0.1875 L 4.8125,12.9375 4.53125,12.84375 4.25,12.75 4.625,12.875 5,13 5,13.5 5,14 4.625,13.875 Q 4.25,13.75 4,13.5 M 3.6875,13.1875 3.75,13.25 3.9375,13.4375 4.125,13.625 4,13.5 Q 3.875,13.375 3.75,13.25 l -0.125,-0.125 0.0625,0.0625"
           id="path31435"
           inkscape:connector-curvature="0" />
        <path
           style="fill:#484848;fill-opacity:1"
           d="M 5,13.5 5,13 5.5,13 6,13 6.125,13.375 6.25,13.75 6.15625,13.46875 6.0625,13.1875 6.125,13.375 q 0.0625,0.1875 0.15625,0.28125 L 6.375,13.75 6.328125,13.703125 6.28125,13.65625 5.984375,13.984375 5.6875,14.3125 5.75,14.375 5.8125,14.4375 5.6875,14.3125 Q 5.5625,14.1875 5.375,14.125 L 5.1875,14.0625 5.46875,14.15625 5.75,14.25 5.375,14.125 5,14 5,13.5"
           id="path31437"
           inkscape:connector-curvature="0" />
        <path
           style="fill:#000000;fill-opacity:0.98823529"
           d="M 6.125,13.375 6,13 6.375,12.875 6.75,12.75 6.46875,12.84375 6.1875,12.9375 6.375,12.875 Q 6.5625,12.8125 6.71875,12.71875 L 6.875,12.625 6.796875,12.671875 6.71875,12.71875 7,13 7.28125,13.28125 7.359375,13.234375 7.4375,13.1875 7.28125,13.28125 Q 7.125,13.375 7,13.5 L 6.875,13.625 7.0625,13.4375 7.25,13.25 7,13.5 q -0.25,0.25 -0.5,0.25 -0.25,0 -0.375,-0.375"
           id="path31439"
           inkscape:connector-curvature="0" />
        <path
           style="fill:#5c5c5c;fill-opacity:1"
           d="M 7,13.5 Q 7.25,13.25 7.625,13.125 L 8,13 7.875,13.375 Q 7.75,13.75 7.5,14 L 7.25,14.25 7,13.96875 6.75,13.6875 6.6875,13.71875 6.625,13.75 6.75,13.6875 Q 6.875,13.625 7,13.5 L 7.125,13.375 6.9375,13.5625 6.75,13.75 7,13.5 M 7.1875,14.3125 7.25,14.25 7.4375,14.0625 7.625,13.875 7.5,14 q -0.125,0.125 -0.25,0.25 l -0.125,0.125 0.0625,-0.0625"
           id="path31441"
           inkscape:connector-curvature="0" />
        <path
           style="fill:#ececec;fill-opacity:1"
           d="M 7.875,13.375 8,13 8.5625,13.0625 9.125,13.125 9.1875,13.0625 9.25,13 9.125,13.125 Q 9,13.25 9,13.5 L 9,13.75 9,13.375 9,13 9,13.5 Q 9,14 8.625,14.125 L 8.25,14.25 8.53125,14.15625 8.8125,14.0625 8.625,14.125 Q 8.4375,14.1875 8.28125,14.28125 L 8.125,14.375 8.203125,14.328125 8.28125,14.28125 8,14 7.71875,13.71875 7.671875,13.796875 7.625,13.875 7.71875,13.71875 Q 7.8125,13.5625 7.875,13.375 L 7.9375,13.1875 7.84375,13.46875 7.75,13.75 7.875,13.375"
           id="path31443"
           inkscape:connector-curvature="0" />
        <path
           style="fill:#0a0a0a;fill-opacity:1"
           d="m 9,13.5 q 0,-0.5 0.375,-0.375 0.375,0.125 0.5,0.5 L 10,14 9.453125,13.953125 8.90625,13.90625 8.859375,13.984375 8.8125,14.0625 8.90625,13.90625 Q 9,13.75 9,13.5 L 9,13.25 9,13.625 9,14 9,13.5"
           id="path31445"
           inkscape:connector-curvature="0" />
        <path
           style="fill:#b7b7b7;fill-opacity:1"
           d="M 9.875,13.625 9.75,13.25 9.84375,13.53125 9.9375,13.8125 9.875,13.625 Q 9.8125,13.4375 9.6875,13.3125 L 9.5625,13.1875 9.625,13.25 9.6875,13.3125 10,13 10.3125,12.6875 10.25,12.625 l -0.0625,-0.0625 0.125,0.125 q 0.125,0.125 0.3125,0.1875 L 10.8125,12.9375 10.53125,12.84375 10.25,12.75 10.625,12.875 11,13 11,13.5 11,14 10.5,14 10,14 9.875,13.625"
           id="path31447"
           inkscape:connector-curvature="0" />
        <path
           style="fill:#737373;fill-opacity:1"
           d="m 11,13.5 0,-0.5 0,0.375 0,0.375 0,-0.25 q 0,-0.25 -0.03125,-0.46875 l -0.03125,-0.21875 0.01563,0.109375 0.01563,0.109375 0.390625,0.109375 Q 11.75,13.25 11.875,13.625 L 12,14 11.90625,13.71875 11.8125,13.4375 11.875,13.625 q 0.0625,0.1875 0.1875,0.3125 l 0.125,0.125 L 12.125,14 12.0625,13.9375 11.53125,13.96875 11,14 11,13.5 m 0,0.125 0,0.375 0,0.125 0,0.125 0,-0.25 q 0,-0.25 0,-0.5 l 0,-0.25 0,0.375"
           id="path31449"
           inkscape:connector-curvature="0" />
        <path
           style="fill:#fafafa;fill-opacity:1"
           d="M 11.875,13.625 11.75,13.25 11.84375,13.53125 11.9375,13.8125 11.875,13.625 q -0.0625,-0.1875 -0.1875,-0.3125 l -0.125,-0.125 0.0625,0.0625 0.0625,0.0625 0.296875,-0.296875 0.296875,-0.296875 -0.04687,-0.07813 -0.04687,-0.07813 0.09375,0.15625 Q 12.375,12.875 12.5,13 L 12.625,13.125 12.4375,12.9375 12.25,12.75 12.5,13 q 0.25,0.25 0.5,0.5 L 13.25,13.75 13.0625,13.5625 12.875,13.375 13,13.5 q 0.125,0.125 0.28125,0.21875 L 13.4375,13.8125 13.359375,13.765625 13.28125,13.71875 13,14 12.71875,14.28125 12.79688,14.32812 12.875,14.375 12.71875,14.28125 Q 12.5625,14.1875 12.375,14.125 L 12.1875,14.0625 12.46875,14.15625 12.75,14.25 12.375,14.125 Q 12,14 11.875,13.625"
           id="path31451"
           inkscape:connector-curvature="0" />
        <path
           style="fill:#8e8e8e;fill-opacity:1"
           d="M 13,13.5 12.75,13.25 13,13 13.25,12.75 13.5,13 q 0.25,0.25 0.375,0.625 L 14,14 13.90625,13.71875 13.8125,13.4375 13.875,13.625 q 0.0625,0.1875 0.1875,0.3125 l 0.125,0.125 L 14.125,14 14.0625,13.9375 13.65625,13.84375 Q 13.25,13.75 13,13.5 M 13.4375,12.9375 13.25,12.75 13.1875,12.6875 13.125,12.625 13.25,12.75 q 0.125,0.125 0.25,0.25 l 0.125,0.125 -0.1875,-0.1875 m -0.75,0.25 L 12.75,13.25 12.9375,13.4375 13.125,13.625 13,13.5 q -0.125,-0.125 -0.25,-0.25 l -0.125,-0.125 0.0625,0.0625"
           id="path31453"
           inkscape:connector-curvature="0" />
        <path
           style="fill:#000000;fill-opacity:0.98823529"
           d="M 13.875,13.625 13.75,13.25 13.84375,13.53125 13.9375,13.8125 13.875,13.625 Q 13.8125,13.4375 13.71875,13.28125 L 13.625,13.125 l 0.04687,0.07813 0.04687,0.07813 0.296875,-0.296875 L 14.3125,12.6875 14.25,12.625 l -0.0625,-0.0625 0.125,0.125 q 0.125,0.125 0.3125,0.1875 L 14.8125,12.9375 14.53125,12.84375 14.25,12.75 14.625,12.875 15,13 15.125,13.375 15.25,13.75 15.15625,13.46875 15.0625,13.1875 15.125,13.375 q 0.0625,0.1875 0.1875,0.3125 l 0.125,0.125 L 15.375,13.75 15.3125,13.6875 15,14 l -0.3125,0.3125 0.0625,0.0625 0.0625,0.0625 -0.125,-0.125 Q 14.5625,14.1875 14.375,14.125 L 14.1875,14.0625 14.46875,14.15625 14.75,14.25 14.375,14.125 Q 14,14 13.875,13.625"
           id="path31455"
           inkscape:connector-curvature="0" />
        <path
           style="fill:#000000;fill-opacity:0.32941176"
           d="M 15.125,13.375 15,13 l 0.5,0 0.5,0 0,0.5 0,0.5 -0.375,-0.125 q -0.375,-0.125 -0.5,-0.5"
           id="path31457"
           inkscape:connector-curvature="0" />
        <path
           style="fill:#000000;fill-opacity:0.03921569"
           d="m 16,13.5 0,-0.5 0.5,0 0.5,0 0,0.5 0,0.5 -0.5,0 -0.5,0 0,-0.5"
           id="path31459"
           inkscape:connector-curvature="0" />
        <path
           style="fill:#000000;fill-opacity:0.05490196"
           d="m 17,13.5 0,-0.5 0.5,0 q 0.5,0 0.5,0.5 l 0,0.5 -0.5,0 -0.5,0 0,-0.5"
           id="path31461"
           inkscape:connector-curvature="0" />
        <path
           style="fill:#000000;fill-opacity:0.2627451"
           d="M 3,14.5 3,14 3.375,14.125 q 0.375,0.125 0.5,0.5 L 4,15 3.5,15 3,15 3,14.5"
           id="path31463"
           inkscape:connector-curvature="0" />
        <path
           style="fill:#000000;fill-opacity:0.7372549"
           d="M 3.875,14.625 3.75,14.25 3.84375,14.53125 3.9375,14.8125 3.875,14.625 Q 3.8125,14.4375 3.6875,14.3125 L 3.5625,14.1875 3.625,14.25 3.6875,14.3125 3.984375,14.015625 4.28125,13.71875 4.203125,13.671875 4.125,13.625 4.28125,13.71875 Q 4.4375,13.8125 4.625,13.875 L 4.8125,13.9375 4.53125,13.84375 4.25,13.75 4.625,13.875 5,14 4.875,14.375 q -0.125,0.375 -0.5,0.5 L 4,15 3.875,14.625"
           id="path31465"
           inkscape:connector-curvature="0" />
        <path
           style="fill:#000000;fill-opacity:0.92156863"
           d="M 4.875,14.375 5,14 5.375,14.125 q 0.375,0.125 0.5,0.5 L 6,15 5.625,15.125 5.25,15.25 5.53125,15.15625 5.8125,15.0625 5.625,15.125 Q 5.4375,15.1875 5.28125,15.28125 L 5.125,15.375 5.203125,15.328125 5.28125,15.28125 4.984375,14.984375 4.6875,14.6875 4.625,14.75 4.5625,14.8125 4.6875,14.6875 Q 4.8125,14.5625 4.875,14.375 L 4.9375,14.1875 4.84375,14.46875 4.75,14.75 4.875,14.375"
           id="path31467"
           inkscape:connector-curvature="0" />
        <path
           style="fill:#363636;fill-opacity:1"
           d="M 5.875,14.625 5.75,14.25 5.84375,14.53125 5.9375,14.8125 5.875,14.625 Q 5.8125,14.4375 5.6875,14.3125 L 5.5625,14.1875 5.625,14.25 5.6875,14.3125 5.984375,13.984375 6.28125,13.65625 6.234375,13.609375 6.1875,13.5625 6.28125,13.65625 Q 6.375,13.75 6.5,13.75 l 0.125,0 -0.1875,0 -0.1875,0 0.25,0 0.25,0 -0.1875,0 -0.1875,0 0.125,0 q 0.125,0 0.25,-0.0625 L 6.875,13.625 6.8125,13.65625 6.75,13.6875 7,13.96875 7.25,14.25 7,14.5 Q 6.75,14.75 6.375,14.875 L 6,15 5.875,14.625 M 7.0625,14.4375 7.25,14.25 7.3125,14.1875 7.375,14.125 7.25,14.25 Q 7.125,14.375 7,14.5 l -0.125,0.125 0.1875,-0.1875"
           id="path31469"
           inkscape:connector-curvature="0" />
        <path
           style="fill:#ffffff;fill-opacity:1"
           d="M 7,14.5 Q 7.25,14.25 7.5,14 L 7.75,13.75 7.5625,13.9375 7.375,14.125 7.5,14 Q 7.625,13.875 7.71875,13.71875 L 7.8125,13.5625 7.765625,13.640625 7.71875,13.71875 8,14 8.28125,14.28125 8.359375,14.234375 8.4375,14.1875 8.28125,14.28125 Q 8.125,14.375 8,14.5 L 7.875,14.625 8.0625,14.4375 8.25,14.25 8,14.5 Q 7.75,14.75 7.5,15 L 7.25,15.25 6.984375,14.984375 6.71875,14.71875 6.640625,14.765625 6.5625,14.8125 6.71875,14.71875 Q 6.875,14.625 7,14.5 L 7.125,14.375 6.9375,14.5625 6.75,14.75 7,14.5 M 7.1875,15.3125 7.25,15.25 7.4375,15.0625 7.625,14.875 7.5,15 q -0.125,0.125 -0.25,0.25 l -0.125,0.125 0.0625,-0.0625"
           id="path31471"
           inkscape:connector-curvature="0" />
        <path
           style="fill:#3c3c3c;fill-opacity:1"
           d="M 8,14.5 Q 8.25,14.25 8.625,14.125 L 9,14 8.71875,14.09375 8.4375,14.1875 8.625,14.125 Q 8.8125,14.0625 8.90625,13.90625 L 9,13.75 8.953125,13.828125 8.90625,13.90625 8.828125,14.328125 Q 8.75,14.75 8.5,15 L 8.25,15.25 8.4375,15.0625 8.625,14.875 8.5,15 Q 8.375,15.125 8.3125,15.25 L 8.25,15.375 8.28125,15.3125 8.3125,15.25 8.03125,15 7.75,14.75 8,14.5 M 7.9375,14.5625 7.75,14.75 7.6875,14.8125 7.625,14.875 7.75,14.75 Q 7.875,14.625 8,14.5 l 0.125,-0.125 -0.1875,0.1875"
           id="path31473"
           inkscape:connector-curvature="0" />
        <path
           style="fill:#000000;fill-opacity:0.98039216"
           d="M 8.828125,14.328125 8.90625,13.90625 9.453125,13.953125 10,14 10,14.5 10,15 9.625,15.125 9.25,15.25 9.53125,15.15625 9.8125,15.0625 9.625,15.125 Q 9.4375,15.1875 9.3125,15.3125 L 9.1875,15.4375 9.25,15.375 9.3125,15.3125 9.015625,15.015625 8.71875,14.71875 8.671875,14.796875 8.625,14.875 8.71875,14.71875 Q 8.8125,14.5625 8.875,14.375 L 8.9375,14.1875 8.84375,14.46875 8.75,14.75 8.828125,14.328125"
           id="path31475"
           inkscape:connector-curvature="0" />
        <path
           style="fill:#c7c7c7;fill-opacity:1"
           d="m 10,14.5 0,-0.5 0.5,0 0.5,0 0,0.5 0,0.5 -0.5,0 -0.5,0 0,-0.5"
           id="path31477"
           inkscape:connector-curvature="0" />
        <path
           style="fill:#232323;fill-opacity:0.99607843"
           d="M 11,14.5 11,14 11.53125,13.96875 12.0625,13.9375 12.15625,14.34375 12.25,14.75 12.15625,14.46875 12.0625,14.1875 12.125,14.375 q 0.0625,0.1875 0.15625,0.34375 L 12.375,14.875 12.328125,14.796875 12.28125,14.71875 11.984375,15.015625 11.6875,15.3125 11.75,15.375 l 0.0625,0.0625 -0.125,-0.125 Q 11.5625,15.1875 11.375,15.125 L 11.1875,15.0625 11.46875,15.15625 11.75,15.25 11.375,15.125 11,15 11,14.5 m 0,-0.625 0,0.125 0,0.375 0,0.375 0,-0.25 q 0,-0.25 0,-0.5 l 0,-0.25 0,0.125"
           id="path31479"
           inkscape:connector-curvature="0" />
        <path
           style="fill:#313131;fill-opacity:1"
           d="M 12.15625,14.34375 12.0625,13.9375 12,13.875 l -0.0625,-0.0625 0.125,0.125 q 0.125,0.125 0.3125,0.1875 L 12.5625,14.1875 12.28125,14.09375 12,14 12.375,14.125 Q 12.75,14.25 13,14.5 l 0.25,0.25 -0.265625,0.265625 -0.265625,0.265625 0.04687,0.07813 0.04687,0.07813 -0.09375,-0.15625 Q 12.625,15.125 12.5,15 L 12.375,14.875 12.5625,15.0625 12.75,15.25 12.5,15 Q 12.25,14.75 12.15625,14.34375 M 13.3125,14.8125 13.25,14.75 13.0625,14.5625 12.875,14.375 13,14.5 q 0.125,0.125 0.25,0.25 l 0.125,0.125 -0.0625,-0.0625"
           id="path31481"
           inkscape:connector-curvature="0" />
        <path
           style="fill:#eeeeee;fill-opacity:1"
           d="M 13,14.5 12.75,14.25 12.9375,14.4375 13.125,14.625 13,14.5 Q 12.875,14.375 12.71875,14.28125 L 12.5625,14.1875 12.64063,14.23437 12.71876,14.28124 13,14 13.28125,13.71875 13.203125,13.671875 13.125,13.625 13.28125,13.71875 Q 13.4375,13.8125 13.625,13.875 L 13.8125,13.9375 13.53125,13.84375 13.25,13.75 13.65625,13.84375 14.0625,13.9375 14.15625,14.34375 14.25,14.75 14.15625,14.46875 14.0625,14.1875 14.125,14.375 q 0.0625,0.1875 0.1875,0.3125 l 0.125,0.125 L 14.375,14.75 14.3125,14.6875 14.03125,14.96875 13.75,15.25 13.5,15 Q 13.25,14.75 13,14.5 M 13.5625,15.0625 13.75,15.25 13.8125,15.3125 13.875,15.375 13.75,15.25 Q 13.625,15.125 13.5,15 l -0.125,-0.125 0.1875,0.1875"
           id="path31483"
           inkscape:connector-curvature="0" />
        <path
           style="fill:#c1c1c1;fill-opacity:1"
           d="M 14.15625,14.34375 14.0625,13.9375 14,13.875 l -0.0625,-0.0625 0.125,0.125 q 0.125,0.125 0.3125,0.1875 L 14.5625,14.1875 14.28125,14.09375 14,14 l 0.375,0.125 q 0.375,0.125 0.5,0.5 L 15,15 14.90625,14.71875 14.8125,14.4375 14.875,14.625 q 0.0625,0.1875 0.21875,0.28125 L 15.25,15 15.17187,14.95313 15.09374,14.90626 14.671865,14.82813 Q 14.25,14.75 14.15625,14.34375"
           id="path31485"
           inkscape:connector-curvature="0" />
        <path
           style="fill:#2e2e2e;fill-opacity:1"
           d="M 14.875,14.625 14.75,14.25 14.84375,14.53125 14.9375,14.8125 14.875,14.625 q -0.0625,-0.1875 -0.1875,-0.3125 l -0.125,-0.125 0.0625,0.0625 0.0625,0.0625 L 15,14 15.3125,13.6875 15.25,13.625 l -0.0625,-0.0625 0.125,0.125 q 0.125,0.125 0.3125,0.1875 L 15.8125,13.9375 15.53125,13.84375 15.25,13.75 15.625,13.875 16,14 l 0,0.5 0,0.5 -0.5,0 Q 15,15 14.875,14.625 M 15.625,15 16,15 16.125,15 16.25,15 16,15 q -0.25,0 -0.5,0 l -0.25,0 0.375,0"
           id="path31487"
           inkscape:connector-curvature="0" />
        <path
           style="fill:#050505;fill-opacity:0.95294118"
           d="m 16,14.5 0,-0.5 0.5,0 0.5,0 -0.0625,0.5625 -0.0625,0.5625 0.0625,0.0625 L 17,15.25 16.875,15.125 Q 16.75,15 16.5,15 l -0.25,0 0.375,0 0.375,0 -0.5,0 -0.5,0 0,-0.5 M 15.875,15 16,15 l 0.375,0 0.375,0 -0.25,0 q -0.25,0 -0.5,0 l -0.25,0 0.125,0"
           id="path31489"
           inkscape:connector-curvature="0" />
        <path
           style="fill:#0d0d0d;fill-opacity:0.5372549"
           d="M 16.9375,14.5625 17,14 l 0.5,0 0.5,0 0.125,0.375 0.125,0.375 -0.09375,-0.28125 -0.09375,-0.28125 0.0625,0.1875 q 0.0625,0.1875 0.1875,0.3125 l 0.125,0.125 L 18.375,14.75 18.3125,14.6875 17.984375,14.984375 17.65625,15.28125 17.70312,15.32812 17.75,15.375 17.65625,15.28125 Q 17.5625,15.1875 17.375,15.125 L 17.1875,15.0625 17.46875,15.15625 17.75,15.25 17.3125,15.1875 16.875,15.125 16.9375,14.5625"
           id="path31491"
           inkscape:connector-curvature="0" />
        <path
           style="fill:#000000;fill-opacity:0.0627451"
           d="M 18.125,14.375 18,14 l 0.5,0 q 0.5,0 0.5,0.5 l 0,0.5 -0.375,-0.125 q -0.375,-0.125 -0.5,-0.5"
           id="path31493"
           inkscape:connector-curvature="0" />
        <path
           style="fill:#000000;fill-opacity:0.29411765"
           d="M 3,15.5 3,15 3.5,15 4,15 3.875,15.375 q -0.125,0.375 -0.5,0.5 L 3,16 3,15.5"
           id="path31495"
           inkscape:connector-curvature="0" />
        <path
           style="fill:#282828;fill-opacity:0.95686275"
           d="M 3.875,15.375 4,15 4.375,14.875 4.75,14.75 4.46875,14.84375 4.1875,14.9375 4.375,14.875 Q 4.5625,14.8125 4.6875,14.6875 L 4.8125,14.5625 4.75,14.625 4.6875,14.6875 4.984375,14.984375 5.28125,15.28125 5.359375,15.234375 5.4375,15.1875 5.28125,15.28125 Q 5.125,15.375 5,15.5 L 4.875,15.625 5.0625,15.4375 5.25,15.25 5,15.5 Q 4.75,15.75 4.5,16 L 4.25,16.25 4.4375,16.0625 4.625,15.875 4.5,16 Q 4.375,16.125 4.3125,16.25 L 4.25,16.375 4.28125,16.3125 4.3125,16.25 4,15.96875 3.6875,15.6875 3.625,15.75 3.5625,15.8125 3.6875,15.6875 Q 3.8125,15.5625 3.875,15.375 L 3.9375,15.1875 3.84375,15.46875 3.75,15.75 3.875,15.375"
           id="path31497"
           inkscape:connector-curvature="0" />
        <path
           style="fill:#808080;fill-opacity:1"
           d="M 5,15.5 Q 5.25,15.25 5.625,15.125 L 6,15 5.875,15.375 Q 5.75,15.75 5.5,16 L 5.25,16.25 5.4375,16.0625 5.625,15.875 5.5,16 Q 5.375,16.125 5.28125,16.28125 L 5.1875,16.4375 5.234375,16.359375 5.28125,16.28125 5.015625,16.015625 4.75,15.75 5,15.5 M 4.9375,15.5625 4.75,15.75 4.6875,15.8125 4.625,15.875 4.75,15.75 Q 4.875,15.625 5,15.5 l 0.125,-0.125 -0.1875,0.1875"
           id="path31499"
           inkscape:connector-curvature="0" />
        <path
           style="fill:#ededed;fill-opacity:1"
           d="M 5.875,15.375 6,15 6.375,14.875 6.75,14.75 6.46875,14.84375 6.1875,14.9375 6.375,14.875 Q 6.5625,14.8125 6.71875,14.71875 L 6.875,14.625 6.796875,14.671875 6.71875,14.71875 6.984375,14.984375 7.25,15.25 7,15.5 Q 6.75,15.75 6.5,16 L 6.25,16.25 6.4375,16.0625 6.625,15.875 6.5,16 Q 6.375,16.125 6.28125,16.28125 L 6.1875,16.4375 6.234375,16.359375 6.28125,16.28125 6,16 5.71875,15.71875 5.671875,15.796875 5.625,15.875 5.71875,15.71875 Q 5.8125,15.5625 5.875,15.375 L 5.9375,15.1875 5.84375,15.46875 5.75,15.75 5.875,15.375 M 7.0625,15.4375 7.25,15.25 7.3125,15.1875 7.375,15.125 7.25,15.25 Q 7.125,15.375 7,15.5 l -0.125,0.125 0.1875,-0.1875"
           id="path31501"
           inkscape:connector-curvature="0" />
        <path
           style="fill:#595959;fill-opacity:1"
           d="M 7,15.5 Q 7.25,15.25 7.5,15 L 7.75,14.75 8.03125,15 8.3125,15.25 8.34375,15.1875 8.375,15.125 8.3125,15.25 Q 8.25,15.375 8.25,15.5 l 0,0.125 0,-0.1875 0,-0.1875 0,0.25 0,0.25 0,-0.1875 0,-0.1875 0,0.125 q 0,0.125 0.09375,0.21875 L 8.4375,15.8125 8.390625,15.765625 8.34375,15.71875 8.046875,16.015625 7.75,16.3125 7.8125,16.34375 7.875,16.375 7.75,16.3125 Q 7.625,16.25 7.5,16.25 l -0.125,0 0.1875,0 0.1875,0 -0.25,0 Q 7.25,16.25 7,16.5 6.75,16.75 6.328125,16.828125 L 5.90625,16.90625 5.828125,16.953125 5.75,17 5.90625,16.90625 Q 6.0625,16.8125 6.125,16.625 L 6.1875,16.4375 6.09375,16.71875 6,17 6.125,16.625 Q 6.25,16.25 6.5,16 6.75,15.75 7,15.5 M 7.8125,14.6875 7.75,14.75 7.5625,14.9375 7.375,15.125 7.5,15 q 0.125,-0.125 0.25,-0.25 l 0.125,-0.125 -0.0625,0.0625"
           id="path31503"
           inkscape:connector-curvature="0" />
        <path
           style="fill:#050505;fill-opacity:0.95686275"
           d="M 8.25,15.5 Q 8.25,15.25 8.5,15 L 8.75,14.75 8.5625,14.9375 8.375,15.125 8.5,15 Q 8.625,14.875 8.71875,14.71875 L 8.8125,14.5625 8.765625,14.640625 8.71875,14.71875 9.015625,15.015625 9.3125,15.3125 9.375,15.25 9.4375,15.1875 9.3125,15.3125 Q 9.1875,15.4375 9.125,15.625 L 9.0625,15.8125 9.15625,15.53125 9.25,15.25 9.125,15.625 9,16 8.625,15.875 Q 8.25,15.75 8.25,15.5"
           id="path31505"
           inkscape:connector-curvature="0" />
        <path
           style="fill:#292929;fill-opacity:1"
           d="m 9.125,15.625 q 0.125,-0.375 0.5,-0.5 L 10,15 10,15.5 Q 10,16 9.5,16 L 9,16 9.125,15.625"
           id="path31507"
           inkscape:connector-curvature="0" />
        <path
           style="fill:#c1c1c1;fill-opacity:1"
           d="m 10,15.5 0,-0.5 0.5,0 0.5,0 0,0.5 L 11,16 10.4375,15.9375 9.875,15.875 9.8125,15.9375 9.75,16 9.875,15.875 Q 10,15.75 10,15.5 l 0,-0.25 0,0.375 0,0.375 0,-0.5"
           id="path31509"
           inkscape:connector-curvature="0" />
        <path
           style="fill:#2c2c2c;fill-opacity:0.98039216"
           d="m 11,15.5 0,-0.5 0.375,0.125 q 0.375,0.125 0.5,0.5 L 12,16 11.5,16 11,16 11,15.5"
           id="path31511"
           inkscape:connector-curvature="0" />
        <path
           style="fill:#000000;fill-opacity:0.65490196"
           d="M 11.875,15.625 11.75,15.25 11.84375,15.53125 11.9375,15.8125 11.875,15.625 q -0.0625,-0.1875 -0.1875,-0.3125 l -0.125,-0.125 0.0625,0.0625 0.0625,0.0625 0.296875,-0.296875 0.296875,-0.296875 -0.04687,-0.07813 -0.04687,-0.07813 0.09375,0.15625 Q 12.375,14.875 12.5,15 L 12.625,15.125 12.4375,14.9375 12.25,14.75 12.5,15 q 0.25,0.25 0.375,0.625 L 13,16 12.5,16 12,16 11.875,15.625"
           id="path31513"
           inkscape:connector-curvature="0" />
        <path
           style="fill:#1c1c1c;fill-opacity:1"
           d="M 12.875,15.625 12.75,15.25 12.84375,15.53125 12.9375,15.8125 12.875,15.625 Q 12.8125,15.4375 12.71875,15.28125 L 12.625,15.125 l 0.04687,0.07813 0.04687,0.07813 0.265625,-0.265625 L 13.25,14.75 13.5,15 q 0.25,0.25 0.5,0.5 L 14.25,15.75 14.0625,15.5625 13.875,15.375 14,15.5 q 0.125,0.125 0.28125,0.21875 l 0.15625,0.09375 -0.07813,-0.04687 -0.07813,-0.04687 -0.296875,0.296875 -0.296875,0.296875 0.0625,0.0625 0.0625,0.0625 -0.125,-0.125 Q 13.5625,16.1875 13.375,16.125 L 13.1875,16.0625 13.46875,16.15625 13.75,16.25 13.375,16.125 13,16 12.875,15.625 M 13.4375,14.9375 13.25,14.75 13.1875,14.6875 13.125,14.625 13.25,14.75 q 0.125,0.125 0.25,0.25 l 0.125,0.125 -0.1875,-0.1875"
           id="path31515"
           inkscape:connector-curvature="0" />
        <path
           style="fill:#bfbfbf;fill-opacity:1"
           d="M 14,15.5 13.75,15.25 14.03125,14.96875 14.3125,14.6875 14.25,14.625 l -0.0625,-0.0625 0.125,0.125 q 0.125,0.125 0.3125,0.1875 L 14.8125,14.9375 14.53125,14.84375 14.25,14.75 l 0.421875,0.07813 0.421875,0.07813 -0.03125,0.53125 -0.03125,0.53125 0.109375,0.01563 L 15.25,16 15.03125,15.96875 Q 14.8125,15.9375 14.625,15.875 L 14.4375,15.8125 14.71875,15.90625 15,16 14.625,15.875 Q 14.25,15.75 14,15.5 M 13.6875,15.1875 13.75,15.25 13.9375,15.4375 14.125,15.625 14,15.5 q -0.125,-0.125 -0.25,-0.25 l -0.125,-0.125 0.0625,0.0625"
           id="path31517"
           inkscape:connector-curvature="0" />
        <path
           style="fill:#f7f7f7;fill-opacity:1"
           d="m 15.0625,15.4375 0.03125,-0.53125 -0.07813,-0.04687 -0.07813,-0.04687 0.15625,0.09375 Q 15.25,15 15.5,15 l 0.25,0 -0.375,0 -0.375,0 0.5,0 0.5,0 -0.01563,0.484375 -0.01563,0.484375 0.109375,-0.01563 0.109375,-0.01563 -0.21875,0.03125 Q 15.75,16 15.5,16 l -0.25,0 0.375,0 0.375,0 -0.5,0 -0.5,0 0.375,0 0.375,0 -0.25,0 q -0.25,0 -0.46875,-0.03125 l -0.21875,-0.03125 0.109375,0.01563 0.109375,0.01563 0.03125,-0.53125 M 16.125,15 16,15 l -0.375,0 -0.375,0 0.25,0 q 0.25,0 0.5,0 l 0.25,0 -0.125,0"
           id="path31519"
           inkscape:connector-curvature="0" />
        <path
           style="fill:#b6b6b6;fill-opacity:1"
           d="M 15.984375,15.484375 16,15 l 0.5,0 q 0.5,0 0.375,0.375 -0.125,0.375 -0.5,0.5 L 16,16 16.28125,15.90625 16.5625,15.8125 16.375,15.875 q -0.1875,0.0625 -0.40625,0.09375 L 15.75,16 15.859375,15.98437 15.96875,15.96874 15.98438,15.484365 M 16.375,15 16,15 15.875,15 15.75,15 16,15 q 0.25,0 0.5,0 l 0.25,0 -0.375,0"
           id="path31521"
           inkscape:connector-curvature="0" />
        <path
           style="fill:#444444;fill-opacity:0.97647059"
           d="M 16.875,15.375 17,15 l 0,0.375 0,0.375 0,-0.25 q 0,-0.25 -0.125,-0.375 L 16.75,15 l 0.0625,0.0625 0.0625,0.0625 0.4375,0.0625 Q 17.75,15.25 17.75,15.5 q 0,0.25 -0.25,0.5 L 17.25,16.25 17.4375,16.0625 17.625,15.875 17.5,16 q -0.125,0.125 -0.21875,0.28125 L 17.1875,16.4375 17.23437,16.35937 17.28124,16.28124 16.984375,15.984375 16.6875,15.6875 16.625,15.75 l -0.0625,0.0625 0.125,-0.125 q 0.125,-0.125 0.1875,-0.3125 L 16.9375,15.1875 16.84375,15.46875 16.75,15.75 16.875,15.375"
           id="path31523"
           inkscape:connector-curvature="0" />
        <path
           style="fill:#020202;fill-opacity:0.47843137"
           d="m 17.75,15.5 0,-0.25 0,0.1875 0,0.1875 0,-0.125 q 0,-0.125 -0.09375,-0.21875 l -0.09375,-0.09375 0.04687,0.04687 0.04687,0.04687 0.328125,-0.296875 L 18.3125,14.6875 18.25,14.625 l -0.0625,-0.0625 0.125,0.125 q 0.125,0.125 0.3125,0.1875 L 18.8125,14.9375 18.53125,14.84375 18.25,14.75 18.625,14.875 19,15 19,15.5 19,16 18.625,16.125 18.25,16.25 18.53125,16.15625 18.8125,16.0625 18.625,16.125 q -0.1875,0.0625 -0.3125,0.1875 l -0.125,0.125 L 18.25,16.375 18.3125,16.3125 18,16.03125 17.6875,15.75 17.65625,15.8125 17.625,15.875 17.6875,15.75 Q 17.75,15.625 17.75,15.5 l 0,-0.125 0,0.1875 0,0.1875 0,-0.25"
           id="path31525"
           inkscape:connector-curvature="0" />
        <path
           style="fill:#000000;fill-opacity:0.00784314"
           d="m 19,15.5 0,-0.5 0.5,0 Q 20,15 20,15.5 20,16 19.5,16 l -0.5,0 0,-0.5"
           id="path31527"
           inkscape:connector-curvature="0" />
        <path
           style="fill:#000000;fill-opacity:0.63921569"
           d="M 3,16.5 3,16 3.375,15.875 3.75,15.75 3.46875,15.84375 3.1875,15.9375 3.375,15.875 Q 3.5625,15.8125 3.6875,15.6875 L 3.8125,15.5625 3.75,15.625 3.6875,15.6875 4,15.96875 4.3125,16.25 4.34375,16.1875 4.375,16.125 4.3125,16.25 Q 4.25,16.375 4.25,16.5 l 0,0.125 0,-0.1875 0,-0.1875 0,0.25 q 0,0.25 0.375,0.375 L 5,17 5,17.5 5,18 4.5,18 Q 4,18 3.875,17.625 3.75,17.25 3.375,17.125 3,17 3,16.5"
           id="path31529"
           inkscape:connector-curvature="0" />
        <path
           style="fill:#666666;fill-opacity:0.99607843"
           d="M 4.25,16.5 Q 4.25,16.25 4.5,16 L 4.75,15.75 5.015625,16.015625 5.28125,16.28125 5.328125,16.203125 5.375,16.125 5.28125,16.28125 Q 5.1875,16.4375 5.125,16.625 L 5.0625,16.8125 5.15625,16.53125 5.25,16.25 5.140625,16.609375 5.03125,16.96875 5.140625,16.984375 5.25,17 5.03125,16.96875 Q 4.8125,16.9375 4.625,16.875 L 4.4375,16.8125 4.71875,16.90625 5,17 4.625,16.875 Q 4.25,16.75 4.25,16.5 M 4.8125,15.6875 4.75,15.75 4.5625,15.9375 4.375,16.125 4.5,16 q 0.125,-0.125 0.25,-0.25 l 0.125,-0.125 -0.0625,0.0625"
           id="path31531"
           inkscape:connector-curvature="0" />
        <path
           style="fill:#e3e3e3;fill-opacity:1"
           d="M 5.140625,16.609375 Q 5.25,16.25 5.5,16 L 5.75,15.75 5.5625,15.9375 5.375,16.125 5.5,16 Q 5.625,15.875 5.71875,15.71875 L 5.8125,15.5625 5.765625,15.640625 5.71875,15.71875 6,16 6.28125,16.28125 6.328125,16.203125 6.375,16.125 6.28125,16.28125 Q 6.1875,16.4375 6.125,16.625 L 6.0625,16.8125 6.15625,16.53125 6.25,16.25 6.125,16.625 Q 6,17 5.5,17 L 5,17 5.375,17 5.75,17 5.5,17 Q 5.25,17 5.03125,16.96875 L 4.8125,16.9375 4.921875,16.95313 5.03125,16.96876 5.140625,16.609385"
           id="path31533"
           inkscape:connector-curvature="0" />
        <path
           style="fill:#000000;fill-opacity:0.95686275"
           d="m 7,16.5 q 0.25,-0.25 0.5,-0.25 0.25,0 0.5,0.25 L 8.25,16.75 8.0625,16.5625 7.875,16.375 8,16.5 q 0.125,0.125 0.28125,0.21875 L 8.4375,16.8125 8.359375,16.765625 8.28125,16.71875 8,17.03125 7.71875,17.34375 7.765625,17.390625 7.8125,17.4375 7.71875,17.34375 Q 7.625,17.25 7.5,17.25 l -0.125,0 0.1875,0 0.1875,0 -0.25,0 -0.25,0 0.1875,0 0.1875,0 -0.125,0 q -0.125,0 -0.21875,0.09375 L 7.1875,17.4375 7.234375,17.390625 7.28125,17.34375 7,17.03125 6.71875,16.71875 6.640625,16.765625 6.5625,16.8125 6.71875,16.71875 Q 6.875,16.625 7,16.5 L 7.125,16.375 6.9375,16.5625 6.75,16.75 7,16.5"
           id="path31535"
           inkscape:connector-curvature="0" />
        <path
           style="fill:#7f7f7f;fill-opacity:1"
           d="M 8,16.5 7.75,16.25 7.9375,16.4375 8.125,16.625 8,16.5 Q 7.875,16.375 7.75,16.3125 L 7.625,16.25 7.6875,16.28125 7.75,16.3125 8.046875,16.015625 8.34375,15.71875 8.296875,15.671875 8.25,15.625 8.34375,15.71875 Q 8.4375,15.8125 8.625,15.875 L 8.8125,15.9375 8.53125,15.84375 8.25,15.75 8.625,15.875 9,16 8.71875,15.90625 8.4375,15.8125 8.625,15.875 q 0.1875,0.0625 0.40625,0.09375 L 9.25,16 9.140625,15.984375 9.03125,15.96875 9.015625,16.484375 9,17 8.625,16.875 Q 8.25,16.75 8,16.5 M 9,17.125 9,17 9,16.625 9,16.25 9,16.5 q 0,0.25 0,0.5 l 0,0.25 0,-0.125"
           id="path31537"
           inkscape:connector-curvature="0" />
        <path
           style="fill:#fcfcfc;fill-opacity:1"
           d="M 9.015625,16.484375 9.03125,15.96875 8.921875,15.953125 8.8125,15.9375 9.03125,15.96875 Q 9.25,16 9.5,16 L 9.75,16 9.375,16 9,16 9.5,16 10,16 9.625,16 9.25,16 9.5,16 q 0.25,0 0.375,-0.125 L 10,15.75 9.9375,15.8125 9.875,15.875 9.9375,16.4375 10,17 9.5,17 9,17 9.015625,16.484375 M 9,16.625 9,17 9,17.125 9,17.25 9,17 q 0,-0.25 0,-0.5 l 0,-0.25 0,0.375"
           id="path31539"
           inkscape:connector-curvature="0" />
        <path
           style="fill:#cfcfcf;fill-opacity:1"
           d="M 9.9375,16.4375 9.875,15.875 10.4375,15.9375 11,16 11,16.5 11,17 10.5,17 10,17 9.9375,16.4375"
           id="path31541"
           inkscape:connector-curvature="0" />
        <path
           style="fill:#111111;fill-opacity:0.98039216"
           d="m 11,16.5 0,-0.5 0.5,0 0.5,0 0,0.5 0,0.5 -0.5,0 -0.5,0 0,-0.5"
           id="path31543"
           inkscape:connector-curvature="0" />
        <path
           style="fill:#000000;fill-opacity:0.12941176"
           d="m 12,16.5 0,-0.5 0.5,0 0.5,0 0,0.5 0,0.5 -0.5,0 -0.5,0 0,-0.5"
           id="path31545"
           inkscape:connector-curvature="0" />
        <path
           style="fill:#000000;fill-opacity:0.20784314"
           d="m 13,16.5 0,-0.5 0.375,0.125 q 0.375,0.125 0.5,0.5 L 14,17 13.5,17 13,17 13,16.5"
           id="path31547"
           inkscape:connector-curvature="0" />
        <path
           style="fill:#000000;fill-opacity:0.95686275"
           d="M 13.875,16.625 13.75,16.25 13.84375,16.53125 13.9375,16.8125 13.875,16.625 q -0.0625,-0.1875 -0.1875,-0.3125 l -0.125,-0.125 0.0625,0.0625 0.0625,0.0625 0.296875,-0.296875 L 14.28125,15.71875 14.20312,15.67188 14.125,15.625 14.28125,15.71875 Q 14.4375,15.8125 14.625,15.875 L 14.8125,15.9375 14.53125,15.84375 14.25,15.75 14.625,15.875 15,16 14.71875,15.90625 14.4375,15.8125 14.625,15.875 q 0.1875,0.0625 0.40625,0.09375 L 15.25,16 15.140625,15.984375 15.03125,15.96875 15.015625,16.484375 15,17 14.5,17 14,17 13.875,16.625"
           id="path31549"
           inkscape:connector-curvature="0" />
        <path
           style="fill:#2c2c2c;fill-opacity:1"
           d="M 15.015625,16.484375 15.03125,15.96875 14.921875,15.953125 14.8125,15.9375 15.03125,15.96875 Q 15.25,16 15.5,16 l 0.25,0 -0.375,0 -0.375,0 0.5,0 0.5,0 -0.375,0 -0.375,0 0.25,0 q 0.25,0 0.46875,-0.03125 L 16.1875,15.9375 16.078125,15.95313 15.96875,15.96876 15.98438,16.484385 16,17 15.5,17 15,17 15.01563,16.484375"
           id="path31551"
           inkscape:connector-curvature="0" />
        <path
           style="fill:#1e1e1e;fill-opacity:0.96470588"
           d="M 15.984375,16.484375 15.96875,15.96875 15.859375,15.984375 15.75,16 15.96875,15.96875 Q 16.1875,15.9375 16.375,15.875 L 16.5625,15.8125 16.28125,15.90625 16,16 16.375,15.875 16.75,15.75 16.46875,15.84375 16.1875,15.9375 16.375,15.875 q 0.1875,-0.0625 0.3125,-0.1875 l 0.125,-0.125 -0.0625,0.0625 -0.0625,0.0625 0.296875,0.296875 0.296875,0.296875 0.04687,-0.07813 L 17.375,16.125 17.28125,16.28125 Q 17.1875,16.4375 17.125,16.625 L 17.0625,16.8125 17.15625,16.53125 17.25,16.25 17.125,16.625 17,17 16.5,17 16,17 15.984375,16.484375"
           id="path31553"
           inkscape:connector-curvature="0" />
        <path
           style="fill:#000000;fill-opacity:0.58039216"
           d="M 17.125,16.625 Q 17.25,16.25 17.5,16 L 17.75,15.75 17.5625,15.9375 17.375,16.125 17.5,16 q 0.125,-0.125 0.1875,-0.25 L 17.75,15.625 17.71875,15.6875 17.6875,15.75 18,16.03125 18.3125,16.3125 18.375,16.25 l 0.0625,-0.0625 -0.125,0.125 q -0.125,0.125 -0.1875,0.3125 L 18.0625,16.8125 18.15625,16.53125 18.25,16.25 18.125,16.625 18,17 17.5,17 17,17 17.125,16.625"
           id="path31555"
           inkscape:connector-curvature="0" />
        <path
           style="fill:#000000;fill-opacity:0.00784314"
           d="m 18.125,16.625 q 0.125,-0.375 0.5,-0.5 L 19,16 19,16.5 Q 19,17 18.5,17 l -0.5,0 0.125,-0.375"
           id="path31557"
           inkscape:connector-curvature="0" />
        <path
           style="fill:#000000;fill-opacity:0.98823529"
           d="M 5,17.5 5,17 5.5,17 6,17 5.625,17 5.25,17 5.5,17 q 0.25,0 0.40625,-0.09375 L 6.0625,16.8125 5.984375,16.859375 5.90625,16.90625 5.953125,17.453125 6,18 5.5,18 5,18 5,17.5"
           id="path31559"
           inkscape:connector-curvature="0" />
        <path
           style="fill:#000000;fill-opacity:0.57647059"
           d="M 5.953125,17.453125 5.90625,16.90625 6.328125,16.828125 6.75,16.75 6.46875,16.84375 6.1875,16.9375 6.375,16.875 Q 6.5625,16.8125 6.71875,16.71875 L 6.875,16.625 6.796875,16.671875 6.71875,16.71875 7,17.03125 7.28125,17.34375 7.328125,17.296875 7.375,17.25 7.28125,17.34375 Q 7.1875,17.4375 7.125,17.625 L 7.0625,17.8125 7.15625,17.53125 7.25,17.25 7.125,17.625 7,18 6.5,18 6,18 5.953125,17.453125"
           id="path31561"
           inkscape:connector-curvature="0" />
        <path
           style="fill:#000000;fill-opacity:0.20784314"
           d="M 7.125,17.625 Q 7.25,17.25 7.5,17.25 q 0.25,0 0.375,0.375 L 8,18 7.5,18 7,18 7.125,17.625"
           id="path31563"
           inkscape:connector-curvature="0" />
        <path
           style="fill:#1c1c1c;fill-opacity:0.99607843"
           d="M 7.875,17.625 7.75,17.25 7.84375,17.53125 7.9375,17.8125 7.875,17.625 Q 7.8125,17.4375 7.71875,17.34375 L 7.625,17.25 7.671875,17.296875 7.71875,17.34375 8,17.03125 8.28125,16.71875 8.203125,16.671875 8.125,16.625 8.28125,16.71875 Q 8.4375,16.8125 8.625,16.875 L 8.8125,16.9375 8.53125,16.84375 8.25,16.75 8.625,16.875 9,17 9,17.5 9,18 9,17.625 9,17.25 9,17.5 q 0,0.25 0.125,0.375 L 9.25,18 9.1875,17.9375 9.125,17.875 8.5625,17.9375 8,18 7.875,17.625 M 9,17.375 9,17 9,16.875 9,16.75 9,17 q 0,0.25 0,0.5 l 0,0.25 0,-0.375"
           id="path31565"
           inkscape:connector-curvature="0" />
        <path
           style="fill:#ebebeb;fill-opacity:1"
           d="m 9,17.5 0,-0.5 0.5,0 0.5,0 0,0.5 0,0.5 -0.5,0 Q 9,18 9,17.5 M 9,16.875 9,17 9,17.375 9,17.75 9,17.5 Q 9,17.25 9,17 l 0,-0.25 0,0.125"
           id="path31567"
           inkscape:connector-curvature="0" />
        <path
           style="fill:#d3d3d3;fill-opacity:1"
           d="m 10,17.5 0,-0.5 0.5,0 0.5,0 0,0.5 Q 11,18 10.5,18 l -0.5,0 0,-0.5"
           id="path31569"
           inkscape:connector-curvature="0" />
        <path
           style="fill:#000000;fill-opacity:0.97254902"
           d="m 11,17.5 0,-0.5 0.5,0 0.5,0 0,0.5 L 12,18 11.4375,17.9375 10.875,17.875 10.8125,17.9375 10.75,18 10.875,17.875 Q 11,17.75 11,17.5 l 0,-0.25 0,0.375 0,0.375 0,-0.5"
           id="path31571"
           inkscape:connector-curvature="0" />
        <path
           style="fill:#000000;fill-opacity:0.31372549"
           d="m 15,17.5 0,-0.5 0.5,0 0.5,0 0,0.5 0,0.5 -0.5,0 Q 15,18 15,17.5"
           id="path31573"
           inkscape:connector-curvature="0" />
        <path
           style="fill:#000000;fill-opacity:0.21568627"
           d="m 16,17.5 0,-0.5 0.5,0 0.5,0 0,0.5 Q 17,18 16.5,18 l -0.5,0 0,-0.5"
           id="path31575"
           inkscape:connector-curvature="0" />
        <path
           style="fill:#000000;fill-opacity:0.6627451"
           d="M 8,18.5 8,18 8.5625,17.9375 9.125,17.875 9.1875,18.3125 9.25,18.75 9.15625,18.46875 9.0625,18.1875 9.125,18.375 q 0.0625,0.1875 0.1875,0.3125 l 0.125,0.125 L 9.375,18.75 9.3125,18.6875 9,19 8.6875,19.3125 8.75,19.375 8.8125,19.4375 8.6875,19.3125 Q 8.5625,19.1875 8.375,19.125 L 8.1875,19.0625 8.46875,19.15625 8.75,19.25 8.375,19.125 Q 8,19 8,18.5"
           id="path31577"
           inkscape:connector-curvature="0" />
        <path
           style="fill:#595959;fill-opacity:1"
           d="M 9.1875,18.3125 9.125,17.875 9.0625,17.8125 9,17.75 9.125,17.875 Q 9.25,18 9.5,18 L 9.75,18 9.375,18 9,18 9.5,18 10,18 10,18.5 10,19 9.625,18.875 Q 9.25,18.75 9.1875,18.3125"
           id="path31579"
           inkscape:connector-curvature="0" />
        <path
           style="fill:#5d5d5d;fill-opacity:0.99607843"
           d="m 10,18.5 0,-0.5 0.5,0 0.5,0 -0.375,0 -0.375,0 0.25,0 q 0.25,0 0.375,-0.125 L 11,17.75 10.9375,17.8125 10.875,17.875 10.8125,18.3125 Q 10.75,18.75 10.375,18.875 L 10,19 10,18.5"
           id="path31581"
           inkscape:connector-curvature="0" />
        <path
           style="fill:#000000;fill-opacity:0.59607843"
           d="M 10.8125,18.3125 10.875,17.875 11.4375,17.9375 12,18 l 0,0.5 q 0,0.5 -0.375,0.625 -0.375,0.125 -0.5,0.5 Q 11,20 10.5,20 l -0.5,0 0,-0.5 0,-0.5 0.375,-0.125 q 0.375,-0.125 0.4375,-0.5625"
           id="path31583"
           inkscape:connector-curvature="0" />
        <path
           style="fill:#000000;fill-opacity:0.57647059"
           d="M 8.875,19.625 8.75,19.25 8.84375,19.53125 8.9375,19.8125 8.875,19.625 Q 8.8125,19.4375 8.6875,19.3125 L 8.5625,19.1875 8.625,19.25 8.6875,19.3125 9,19 9.3125,18.6875 9.25,18.625 9.1875,18.5625 l 0.125,0.125 q 0.125,0.125 0.3125,0.1875 L 9.8125,18.9375 9.53125,18.84375 9.25,18.75 9.625,18.875 10,19 10,19.5 10,20 9.5,20 Q 9,20 8.875,19.625"
           id="path31585"
           inkscape:connector-curvature="0" />
      </g>
    </g>
  </g>
</svg>
