<?xml version="1.0" encoding="UTF-8" standalone="no"?>
<!-- Created with Inkscape (http://www.inkscape.org/) -->

<svg
   xmlns:dc="http://purl.org/dc/elements/1.1/"
   xmlns:cc="http://creativecommons.org/ns#"
   xmlns:rdf="http://www.w3.org/1999/02/22-rdf-syntax-ns#"
   xmlns:svg="http://www.w3.org/2000/svg"
   xmlns="http://www.w3.org/2000/svg"
   xmlns:sodipodi="http://sodipodi.sourceforge.net/DTD/sodipodi-0.dtd"
   xmlns:inkscape="http://www.inkscape.org/namespaces/inkscape"
   width="20"
   height="20"
   viewBox="0 0 20 20"
   id="svg3347"
   version="1.1"
   inkscape:version="0.91 r13725"
   sodipodi:docname="Civ5Icon.ReligionHinduism.svg">
  <defs
     id="defs3349" />
  <sodipodi:namedview
     id="base"
     pagecolor="#ffffff"
     bordercolor="#666666"
     borderopacity="1.0"
     inkscape:pageopacity="0.0"
     inkscape:pageshadow="2"
     inkscape:zoom="11.2"
     inkscape:cx="13.251856"
     inkscape:cy="8.3638322"
     inkscape:document-units="px"
     inkscape:current-layer="g27203"
     showgrid="false"
     units="px"
     inkscape:window-width="1477"
     inkscape:window-height="962"
     inkscape:window-x="533"
     inkscape:window-y="95"
     inkscape:window-maximized="0" />
  <metadata
     id="metadata3352">
    <rdf:RDF>
      <cc:Work
         rdf:about="">
        <dc:format>image/svg+xml</dc:format>
        <dc:type
           rdf:resource="http://purl.org/dc/dcmitype/StillImage" />
        <dc:title></dc:title>
      </cc:Work>
    </rdf:RDF>
  </metadata>
  <g
     inkscape:label="Layer 1"
     inkscape:groupmode="layer"
     id="layer1"
     transform="translate(0,-1032.3622)">
    <g
       transform="translate(-0.22321519 1031.8712)"
       id="g27203">
      <g
         transform="translate(-0.35714078,-0.35721402)"
         id="g31598">
        <path
           style="fill:#000000;fill-opacity:0"
           d="M 0,0.5 0,0 0.5,0 1,0 1.5,0 2,0 2.5,0 3,0 3.5,0 4,0 4.5,0 5,0 5.5,0 6,0 6.5,0 7,0 7.5,0 8,0 8.5,0 9,0 9.5,0 10,0 l 0.5,0 0.5,0 0.5,0 0.5,0 0.5,0 0.5,0 0.5,0 0.5,0 0.5,0 0.5,0 0.5,0 0.5,0 0.5,0 0.5,0 0.5,0 0.5,0 0.5,0 0.5,0 0.5,0 0.5,0 0.5,0 0.5,0 0.5,0 0.5,0 0,0.5 0,0.5 0,0.5 0,0.5 0,0.5 0,0.5 0,0.5 0,0.5 0,0.5 0,0.5 0,0.5 0,0.5 0,0.5 0,0.5 0,0.5 0,0.5 0,0.5 0,0.5 0,0.5 0,0.5 0,0.5 0,0.5 0,0.5 0,0.5 0,0.5 0,0.5 0,0.5 0,0.5 0,0.5 0,0.5 0,0.5 0,0.5 0,0.5 0,0.5 0,0.5 0,0.5 0,0.5 0,0.5 0,0.5 0,0.5 0,0.5 0,0.5 0,0.5 0,0.5 -0.5,0 L 21,22 20.5,22 20,22 19.5,22 19,22 18.5,22 18,22 17.5,22 17,22 16.5,22 16,22 15.5,22 15,22 14.5,22 14,22 13.5,22 13,22 12.5,22 12,22 11.5,22 11,22 10.5,22 10,22 9.5,22 9,22 8.5,22 8,22 7.5,22 7,22 6.5,22 6,22 5.5,22 5,22 4.5,22 4,22 3.5,22 3,22 2.5,22 2,22 1.5,22 1,22 0.5,22 0,22 0,21.5 0,21 0,20.5 0,20 0,19.5 0,19 0,18.5 0,18 0,17.5 0,17 0,16.5 0,16 0,15.5 0,15 0,14.5 0,14 0,13.5 0,13 0,12.5 0,12 0,11.5 0,11 0,10.5 0,10 0,9.5 0,9 0,8.5 0,8 0,7.5 0,7 0,6.5 0,6 0,5.5 0,5 0,4.5 0,4 0,3.5 0,3 0,2.5 0,2 0,1.5 0,1 0,0.5 M 15.5,19 Q 16,19 16,18.5 l 0,-0.5 0.5,0 q 0.5,0 0.625,-0.375 0.125,-0.375 0.5,-0.5 Q 18,17 18,16.5 l 0,-0.5 0.5,0 Q 19,16 19,15.5 L 19,15 19,14.5 Q 19,14 18.5,14 L 18,14 18,13.5 Q 18,13 17.625,12.875 17.25,12.75 17.125,12.375 17,12 16.625,11.875 16.25,11.75 16.125,11.375 L 16,11 16,10.5 16,10 16.5,10 Q 17,10 17,9.5 L 17,9 17,8.5 17,8 17,7.5 Q 17,7 16.625,6.875 16.25,6.75 16.125,6.375 16,6 15.5,6 L 15,6 15,5.5 Q 15,5 14.5,5 L 14,5 14,4.5 Q 14,4 13.5,4 L 13,4 12.5,4 12,4 11.5,4 Q 11,4 11,4.5 L 11,5 10.5,5 10,5 10,4.5 Q 10,4 9.5,4 9,4 9,4.5 L 9,5 8.5,5 Q 8,5 8,5.5 L 8,6 8,6.5 8,7 7.5,7 7,7 6.5,7 6,7 5.5,7 Q 5,7 5,7.5 L 5,8 4.5,8 Q 4,8 4,8.5 L 4,9 3.5,9 Q 3,9 3,9.5 L 3,10 3,10.5 Q 3,11 3.5,11 L 4,11 4,11.5 4,12 4,12.5 4,13 3.875,13.375 Q 3.75,13.75 3.375,13.875 3,14 3,14.5 L 3,15 3,15.5 Q 3,16 3.5,16 L 4,16 4,16.5 Q 4,17 4.5,17 L 5,17 5,17.5 Q 5,18 5.5,18 L 6,18 6,18.5 Q 6,19 6.5,19 l 0.5,0 0.5,0 0.5,0 0.5,0 0.5,0 0.5,0 0.5,0 0.5,0 Q 11,19 11,18.5 l 0,-0.5 0.5,0 Q 12,18 12,17.5 l 0,-0.5 0.5,0 0.5,0 0,0.5 q 0,0.5 0.5,0.5 l 0.5,0 0.5,0 0.5,0 0,0.5 q 0,0.5 0.5,0.5"
           id="path31600"
           inkscape:connector-curvature="0" />
        <path
           style="fill:#000000;fill-opacity:0.07843137"
           d="M 9,4.5 Q 9,4 9.5,4 10,4 10,4.5 L 10,5 9.5,5 9,5 9,4.5"
           id="path31602"
           inkscape:connector-curvature="0" />
        <path
           style="fill:#000000;fill-opacity:0.19215686"
           d="M 11,4.5 Q 11,4 11.5,4 L 12,4 11.875,4.375 q -0.125,0.375 -0.5,0.5 L 11,5 11,4.5"
           id="path31604"
           inkscape:connector-curvature="0" />
        <path
           style="fill:#000000;fill-opacity:0.6"
           d="M 11.875,4.375 12,4 12.5,4 13,4 13.125,4.375 13.25,4.75 13.15625,4.46875 13.0625,4.1875 13.125,4.375 q 0.0625,0.1875 0.1875,0.3125 l 0.125,0.125 L 13.375,4.75 13.3125,4.6875 13.03125,5 12.75,5.3125 12.8125,5.34375 12.875,5.375 12.75,5.3125 Q 12.625,5.25 12.5,5.25 l -0.125,0 0.1875,0 0.1875,0 -0.25,0 -0.25,0 0.1875,0 0.1875,0 -0.125,0 q -0.125,0 -0.25,0.0625 L 12.125,5.375 12.1875,5.34375 12.25,5.3125 11.96875,5 11.6875,4.6875 11.625,4.75 11.5625,4.8125 11.6875,4.6875 Q 11.8125,4.5625 11.875,4.375 L 11.9375,4.1875 11.84375,4.46875 11.75,4.75 11.875,4.375"
           id="path31606"
           inkscape:connector-curvature="0" />
        <path
           style="fill:#000000;fill-opacity:0.12156863"
           d="M 13.125,4.375 13,4 13.5,4 Q 14,4 14,4.5 L 14,5 13.625,4.875 q -0.375,-0.125 -0.5,-0.5"
           id="path31608"
           inkscape:connector-curvature="0" />
        <path
           style="fill:#000000;fill-opacity:0.07843137"
           d="M 8,5.5 Q 8,5 8.5,5 L 9,5 8.875,5.375 Q 8.75,5.75 8.375,5.875 L 8,6 8,5.5"
           id="path31610"
           inkscape:connector-curvature="0" />
        <path
           style="fill:#111111;fill-opacity:0.58431373"
           d="M 8.875,5.375 9,5 9.5,5 10,5 10,5.5 10,6 9.625,6.125 9.25,6.25 9.53125,6.15625 9.8125,6.0625 9.625,6.125 Q 9.4375,6.1875 9.34375,6.28125 L 9.25,6.375 9.296875,6.328125 9.34375,6.28125 9.015625,5.984375 8.6875,5.6875 8.625,5.75 8.5625,5.8125 8.6875,5.6875 Q 8.8125,5.5625 8.875,5.375 L 8.9375,5.1875 8.84375,5.46875 8.75,5.75 8.875,5.375"
           id="path31612"
           inkscape:connector-curvature="0" />
        <path
           style="fill:#000000;fill-opacity:0.76862745"
           d="M 10,5.5 10,5 10.5,5 11,5 11,5.5 11,6 10.5,6 10,6 10,5.5"
           id="path31614"
           inkscape:connector-curvature="0" />
        <path
           style="fill:#1d1d1d;fill-opacity:0.89019608"
           d="M 11,5.5 11,5 11.375,4.875 11.75,4.75 11.46875,4.84375 11.1875,4.9375 11.375,4.875 Q 11.5625,4.8125 11.6875,4.6875 L 11.8125,4.5625 11.75,4.625 11.6875,4.6875 11.96875,5 12.25,5.3125 12.3125,5.28125 12.375,5.25 12.25,5.3125 Q 12.125,5.375 12,5.5 L 11.875,5.625 12.0625,5.4375 12.25,5.25 12,5.5 Q 11.75,5.75 11.375,5.875 L 11,6 11,5.5"
           id="path31616"
           inkscape:connector-curvature="0" />
        <path
           style="fill:#5e5e5e;fill-opacity:1"
           d="m 12,5.5 q 0.25,-0.25 0.5,-0.25 0.25,0 0.5,0.25 L 13.25,5.75 12.984375,6.046875 12.71875,6.34375 12.765625,6.390625 12.8125,6.4375 12.71875,6.34375 Q 12.625,6.25 12.5,6.25 l -0.125,0 0.1875,0 0.1875,0 -0.25,0 -0.25,0 0.1875,0 0.1875,0 -0.125,0 q -0.125,0 -0.21875,0.09375 L 12.1875,6.4375 12.234375,6.390625 12.28125,6.34375 12,6.03125 11.71875,5.71875 11.640625,5.765625 11.5625,5.8125 11.71875,5.71875 Q 11.875,5.625 12,5.5 L 12.125,5.375 11.9375,5.5625 11.75,5.75 12,5.5 M 13.3125,5.8125 13.25,5.75 13.0625,5.5625 12.875,5.375 13,5.5 q 0.125,0.125 0.25,0.25 l 0.125,0.125 -0.0625,-0.0625"
           id="path31618"
           inkscape:connector-curvature="0" />
        <path
           style="fill:#0f0f0f;fill-opacity:0.84313725"
           d="M 13,5.5 12.75,5.25 12.9375,5.4375 13.125,5.625 13,5.5 Q 12.875,5.375 12.75,5.3125 L 12.625,5.25 12.6875,5.28125 12.75,5.3125 13.03125,5 13.3125,4.6875 13.25,4.625 13.1875,4.5625 l 0.125,0.125 q 0.125,0.125 0.3125,0.1875 L 13.8125,4.9375 13.53125,4.84375 13.25,4.75 13.625,4.875 14,5 14.125,5.375 14.25,5.75 14.15625,5.46875 14.0625,5.1875 14.125,5.375 q 0.0625,0.1875 0.1875,0.3125 l 0.125,0.125 L 14.375,5.75 14.3125,5.6875 14,5.96875 13.6875,6.25 13.71875,6.3125 13.75,6.375 13.6875,6.25 Q 13.625,6.125 13.5,6 L 13.375,5.875 13.5625,6.0625 13.75,6.25 13.5,6 Q 13.25,5.75 13,5.5"
           id="path31620"
           inkscape:connector-curvature="0" />
        <path
           style="fill:#000000;fill-opacity:0.30980392"
           d="M 14.125,5.375 14,5 14.5,5 Q 15,5 15,5.5 L 15,6 14.625,5.875 q -0.375,-0.125 -0.5,-0.5"
           id="path31622"
           inkscape:connector-curvature="0" />
        <path
           style="fill:#000000;fill-opacity:0.51372549"
           d="M 8,6.5 8,6 8.375,5.875 8.75,5.75 8.46875,5.84375 8.1875,5.9375 8.375,5.875 Q 8.5625,5.8125 8.6875,5.6875 L 8.8125,5.5625 8.75,5.625 8.6875,5.6875 9.015625,5.984375 9.34375,6.28125 9.390625,6.234375 9.4375,6.1875 9.34375,6.28125 Q 9.25,6.375 9.25,6.5 l 0,0.125 0,-0.1875 0,-0.1875 0,0.25 0,0.25 0,-0.1875 0,-0.1875 0,0.125 q 0,0.125 0.09375,0.21875 L 9.4375,6.8125 9.390625,6.765625 9.34375,6.71875 9.015625,7.015625 8.6875,7.3125 8.75,7.375 8.8125,7.4375 8.6875,7.3125 Q 8.5625,7.1875 8.375,7.125 L 8.1875,7.0625 8.46875,7.15625 8.75,7.25 8.375,7.125 8,7 8,6.5"
           id="path31624"
           inkscape:connector-curvature="0" />
        <path
           style="fill:#535353;fill-opacity:0.93333333"
           d="m 9.25,6.5 q 0,-0.25 0.375,-0.375 L 10,6 10,6.5 10,7 9.625,6.875 Q 9.25,6.75 9.25,6.5"
           id="path31626"
           inkscape:connector-curvature="0" />
        <path
           style="fill:#717171;fill-opacity:0.99607843"
           d="M 10,6.5 10,6 10.5,6 11,6 11,6.5 11,7 10.5,7 10,7 10,6.5"
           id="path31628"
           inkscape:connector-curvature="0" />
        <path
           style="fill:#5b5b5b;fill-opacity:1"
           d="M 11,6.5 11,6 11.375,5.875 11.75,5.75 11.46875,5.84375 11.1875,5.9375 11.375,5.875 Q 11.5625,5.8125 11.71875,5.71875 L 11.875,5.625 11.796875,5.671875 11.71875,5.71875 12,6.03125 12.28125,6.34375 12.328125,6.296875 12.375,6.25 12.28125,6.34375 Q 12.1875,6.4375 12.125,6.625 L 12.0625,6.8125 12.15625,6.53125 12.25,6.25 12.125,6.625 12,7 12,6.625 12,6.25 12,6.5 q 0,0.25 0.125,0.375 L 12.25,7 12.1875,6.9375 12.125,6.875 11.5625,6.9375 11,7 11,6.5"
           id="path31630"
           inkscape:connector-curvature="0" />
        <path
           style="fill:#ffffff;fill-opacity:1"
           d="M 12.125,6.625 Q 12.25,6.25 12.5,6.25 q 0.25,0 0.375,0.375 Q 13,7 12.5,7 12,7 12.125,6.625"
           id="path31632"
           inkscape:connector-curvature="0" />
        <path
           style="fill:#494949;fill-opacity:1"
           d="M 12.875,6.625 12.75,6.25 12.84375,6.53125 12.9375,6.8125 12.875,6.625 Q 12.8125,6.4375 12.71875,6.34375 L 12.625,6.25 12.671875,6.296875 12.71875,6.34375 12.984375,6.046875 13.25,5.75 13.5,6 q 0.25,0.25 0.25,0.5 0,0.25 -0.4375,0.3125 L 12.875,6.875 12.8125,6.9375 12.75,7 12.875,6.875 Q 13,6.75 13,6.5 L 13,6.25 13,6.625 13,7 12.875,6.625 M 13.4375,5.9375 13.25,5.75 13.1875,5.6875 13.125,5.625 13.25,5.75 Q 13.375,5.875 13.5,6 l 0.125,0.125 -0.1875,-0.1875"
           id="path31634"
           inkscape:connector-curvature="0" />
        <path
           style="fill:#1e1e1e;fill-opacity:0.95294118"
           d="m 13.75,6.5 0,-0.25 0,0.1875 0,0.1875 0,-0.125 q 0,-0.125 -0.0625,-0.25 L 13.625,6.125 13.65625,6.1875 13.6875,6.25 14,5.96875 14.3125,5.6875 14.25,5.625 14.1875,5.5625 l 0.125,0.125 q 0.125,0.125 0.3125,0.1875 L 14.8125,5.9375 14.53125,5.84375 14.25,5.75 14.625,5.875 15,6 15,6.5 15,7 14.625,7.125 14.25,7.25 14.53125,7.15625 14.8125,7.0625 14.625,7.125 Q 14.4375,7.1875 14.28125,7.28125 L 14.125,7.375 14.203125,7.328125 14.28125,7.28125 13.96875,7 13.65625,6.71875 13.609375,6.765625 13.5625,6.8125 13.65625,6.71875 Q 13.75,6.625 13.75,6.5 l 0,-0.125 0,0.1875 0,0.1875 0,-0.25"
           id="path31636"
           inkscape:connector-curvature="0" />
        <path
           style="fill:#000000;fill-opacity:0.82745098"
           d="M 15,6.5 15,6 15.5,6 Q 16,6 16.125,6.375 L 16.25,6.75 16.15625,6.46875 16.0625,6.1875 16.125,6.375 q 0.0625,0.1875 0.1875,0.3125 l 0.125,0.125 L 16.375,6.75 16.3125,6.6875 16,7 15.6875,7.3125 15.75,7.375 15.8125,7.4375 15.6875,7.3125 Q 15.5625,7.1875 15.375,7.125 L 15.1875,7.0625 15.46875,7.15625 15.75,7.25 15.375,7.125 15,7 15,6.5"
           id="path31638"
           inkscape:connector-curvature="0" />
        <path
           style="fill:#000000;fill-opacity:0.09019608"
           d="M 5,7.5 Q 5,7 5.5,7 L 6,7 5.875,7.375 Q 5.75,7.75 5.375,7.875 L 5,8 5,7.5"
           id="path31640"
           inkscape:connector-curvature="0" />
        <path
           style="fill:#000000;fill-opacity:0.62745098"
           d="M 5.875,7.375 6,7 6.5,7 7,7 7,7.5 7,8 6.625,8.125 6.25,8.25 6.53125,8.15625 6.8125,8.0625 6.625,8.125 Q 6.4375,8.1875 6.3125,8.3125 L 6.1875,8.4375 6.25,8.375 6.3125,8.3125 6,8 5.6875,7.6875 5.625,7.75 5.5625,7.8125 5.6875,7.6875 Q 5.8125,7.5625 5.875,7.375 L 5.9375,7.1875 5.84375,7.46875 5.75,7.75 5.875,7.375"
           id="path31642"
           inkscape:connector-curvature="0" />
        <path
           style="fill:#000000;fill-opacity:0.8745098"
           d="M 7,7.5 7,7 7.5,7 8,7 8,7.5 8,8 7.5,8 7,8 7,7.5"
           id="path31644"
           inkscape:connector-curvature="0" />
        <path
           style="fill:#000000;fill-opacity:0.8627451"
           d="M 8,7.5 8,7 8.375,7.125 Q 8.75,7.25 8.828125,7.671875 L 8.90625,8.09375 8.984375,8.140625 9.0625,8.1875 8.90625,8.09375 Q 8.75,8 8.5,8 L 8.25,8 8.625,8 9,8 8.5,8 8,8 8,7.5"
           id="path31646"
           inkscape:connector-curvature="0" />
        <path
           style="fill:#000000;fill-opacity:0.98431373"
           d="M 8.828125,7.671875 8.75,7.25 8.84375,7.53125 8.9375,7.8125 8.875,7.625 Q 8.8125,7.4375 8.6875,7.3125 L 8.5625,7.1875 8.625,7.25 8.6875,7.3125 9.015625,7.015625 9.34375,6.71875 9.296875,6.671875 9.25,6.625 9.34375,6.71875 Q 9.4375,6.8125 9.625,6.875 L 9.8125,6.9375 9.53125,6.84375 9.25,6.75 9.625,6.875 10,7 9.71875,6.90625 9.4375,6.8125 9.625,6.875 q 0.1875,0.0625 0.40625,0.09375 L 10.25,7 10.140625,6.984375 10.03125,6.96875 10.140625,7.359375 10.25,7.75 10.15625,7.46875 10.0625,7.1875 10.125,7.375 q 0.0625,0.1875 0.15625,0.34375 L 10.375,7.875 10.328125,7.796875 10.28125,7.71875 10,8 9.71875,8.28125 9.796875,8.328125 9.875,8.375 9.71875,8.28125 Q 9.5625,8.1875 9.375,8.125 L 9.1875,8.0625 9.46875,8.15625 9.75,8.25 9.328125,8.171875 8.90625,8.09375 8.828125,7.671875"
           id="path31648"
           inkscape:connector-curvature="0" />
        <path
           style="fill:#c5c5c5;fill-opacity:1"
           d="M 10.140625,7.359375 10.03125,6.96875 9.921875,6.953125 9.8125,6.9375 10.03125,6.96875 Q 10.25,7 10.5,7 L 10.75,7 10.375,7 10,7 10.5,7 11,7 11.125,7.375 11.25,7.75 11.15625,7.46875 11.0625,7.1875 11.125,7.375 q 0.0625,0.1875 0.15625,0.34375 L 11.375,7.875 11.328125,7.796875 11.28125,7.71875 11.015625,7.984375 10.75,8.25 10.5,8 Q 10.25,7.75 10.140625,7.359375 M 10.5625,8.0625 10.75,8.25 10.8125,8.3125 10.875,8.375 10.75,8.25 Q 10.625,8.125 10.5,8 L 10.375,7.875 10.5625,8.0625 M 11.125,7 11,7 10.625,7 10.25,7 10.5,7 q 0.25,0 0.5,0 l 0.25,0 -0.125,0"
           id="path31650"
           inkscape:connector-curvature="0" />
        <path
           style="fill:#2d2d2d;fill-opacity:1"
           d="M 11.125,7.375 11,7 11.5625,6.9375 12.125,6.875 12.1875,7.3125 12.25,7.75 12.15625,7.46875 12.0625,7.1875 12.125,7.375 q 0.0625,0.1875 0.1875,0.3125 l 0.125,0.125 L 12.375,7.75 12.3125,7.6875 12.03125,7.96875 11.75,8.25 11.5,8 Q 11.25,7.75 11.125,7.375 M 11.5625,8.0625 11.75,8.25 11.8125,8.3125 11.875,8.375 11.75,8.25 Q 11.625,8.125 11.5,8 l -0.125,-0.125 0.1875,0.1875"
           id="path31652"
           inkscape:connector-curvature="0" />
        <path
           style="fill:#121212;fill-opacity:1"
           d="M 12.1875,7.3125 12.125,6.875 12.0625,6.8125 12,6.75 12.125,6.875 Q 12.25,7 12.5,7 L 12.75,7 12.375,7 12,7 12.5,7 13,7 12.625,7 12.25,7 12.5,7 q 0.25,0 0.375,-0.125 L 13,6.75 12.9375,6.8125 12.875,6.875 12.9375,7.4375 13,8 12.625,7.875 Q 12.25,7.75 12.1875,7.3125"
           id="path31654"
           inkscape:connector-curvature="0" />
        <path
           style="fill:#000000;fill-opacity:0.98431373"
           d="M 12.9375,7.4375 12.875,6.875 13.3125,6.8125 13.75,6.75 13.46875,6.84375 13.1875,6.9375 13.375,6.875 Q 13.5625,6.8125 13.65625,6.71875 L 13.75,6.625 13.703125,6.671875 13.65625,6.71875 13.96875,7 14.28125,7.28125 14.359375,7.234375 14.4375,7.1875 14.28125,7.28125 Q 14.125,7.375 14,7.5 L 13.875,7.625 14.0625,7.4375 14.25,7.25 14,7.5 Q 13.75,7.75 13.375,7.875 L 13,8 12.9375,7.4375"
           id="path31656"
           inkscape:connector-curvature="0" />
        <path
           style="fill:#989898;fill-opacity:1"
           d="M 14,7.5 Q 14.25,7.25 14.625,7.125 L 15,7 15.125,7.375 15.25,7.75 15.15625,7.46875 15.0625,7.1875 15.125,7.375 q 0.0625,0.1875 0.1875,0.3125 l 0.125,0.125 L 15.375,7.75 15.3125,7.6875 15,8 14.6875,8.3125 14.71875,8.34375 14.75,8.375 14.6875,8.3125 Q 14.625,8.25 14.5,8.25 l -0.125,0 0.1875,0 0.1875,0 -0.25,0 -0.25,0 0.1875,0 0.1875,0 -0.125,0 q -0.125,0 -0.25,0.0625 L 14.125,8.375 14.1875,8.34375 14.25,8.3125 13.984375,8.015625 13.71875,7.71875 13.640625,7.765625 13.5625,7.8125 13.71875,7.71875 Q 13.875,7.625 14,7.5 L 14.125,7.375 13.9375,7.5625 13.75,7.75 14,7.5"
           id="path31658"
           inkscape:connector-curvature="0" />
        <path
           style="fill:#878787;fill-opacity:1"
           d="M 15.125,7.375 15,7 15.375,7.125 q 0.375,0.125 0.5,0.5 L 16,8 15.625,7.875 q -0.375,-0.125 -0.5,-0.5"
           id="path31660"
           inkscape:connector-curvature="0" />
        <path
           style="fill:#000000;fill-opacity:0.78039216"
           d="M 15.875,7.625 15.75,7.25 15.84375,7.53125 15.9375,7.8125 15.875,7.625 Q 15.8125,7.4375 15.6875,7.3125 L 15.5625,7.1875 15.625,7.25 15.6875,7.3125 16,7 16.3125,6.6875 16.25,6.625 16.1875,6.5625 l 0.125,0.125 q 0.125,0.125 0.3125,0.1875 L 16.8125,6.9375 16.53125,6.84375 16.25,6.75 16.625,6.875 Q 17,7 17,7.5 L 17,8 16.5,8 16,8 15.875,7.625"
           id="path31662"
           inkscape:connector-curvature="0" />
        <path
           style="fill:#000000;fill-opacity:0.28627451"
           d="M 4,8.5 Q 4,8 4.5,8 L 5,8 4.875,8.375 Q 4.75,8.75 4.375,8.875 L 4,9 4,8.5"
           id="path31664"
           inkscape:connector-curvature="0" />
        <path
           style="fill:#0c0c0c;fill-opacity:0.99607843"
           d="M 4.875,8.375 5,8 5.375,7.875 5.75,7.75 5.46875,7.84375 5.1875,7.9375 5.375,7.875 Q 5.5625,7.8125 5.6875,7.6875 L 5.8125,7.5625 5.75,7.625 5.6875,7.6875 6,8 6.3125,8.3125 6.375,8.25 6.4375,8.1875 6.3125,8.3125 Q 6.1875,8.4375 6.125,8.625 L 6.0625,8.8125 6.15625,8.53125 6.25,8.25 6.140625,8.640625 6.03125,9.03125 6.140625,9.015625 6.25,9 6.03125,9.03125 Q 5.8125,9.0625 5.625,9.125 L 5.4375,9.1875 5.71875,9.09375 6,9 5.625,9.125 5.25,9.25 5.53125,9.15625 5.8125,9.0625 5.625,9.125 Q 5.4375,9.1875 5.3125,9.3125 L 5.1875,9.4375 5.25,9.375 5.3125,9.3125 5,9 4.6875,8.6875 4.625,8.75 4.5625,8.8125 4.6875,8.6875 Q 4.8125,8.5625 4.875,8.375 L 4.9375,8.1875 4.84375,8.46875 4.75,8.75 4.875,8.375"
           id="path31666"
           inkscape:connector-curvature="0" />
        <path
           style="fill:#636363;fill-opacity:1"
           d="M 6.140625,8.640625 Q 6.25,8.25 6.625,8.125 L 7,8 6.71875,8.09375 6.4375,8.1875 6.625,8.125 Q 6.8125,8.0625 7.03125,8.03125 L 7.25,8 7.140625,8.015625 7.03125,8.03125 7.015625,8.515625 7,9 6.5,9 6,9 6.375,9 6.75,9 6.5,9 Q 6.25,9 6.03125,9.03125 L 5.8125,9.0625 5.921875,9.046875 6.03125,9.03125 6.140625,8.640625 M 7,9.125 7,9 7,8.625 7,8.25 7,8.5 Q 7,8.75 7,9 L 7,9.25 7,9.125"
           id="path31668"
           inkscape:connector-curvature="0" />
        <path
           style="fill:#a5a5a5;fill-opacity:1"
           d="M 7.015625,8.515625 7.03125,8.03125 6.921875,8.046875 6.8125,8.0625 7.03125,8.03125 Q 7.25,8 7.5,8 L 7.75,8 7.375,8 7,8 7.5,8 8,8 8,8.5 8,9 7.5,9 7,9 7.015625,8.515625"
           id="path31670"
           inkscape:connector-curvature="0" />
        <path
           style="fill:#a1a1a1;fill-opacity:1"
           d="M 8,8.5 8,8 8.5,8 Q 9,8 9.125,8.375 L 9.25,8.75 9.15625,8.46875 9.0625,8.1875 9.125,8.375 Q 9.1875,8.5625 9.28125,8.71875 L 9.375,8.875 9.328125,8.796875 9.28125,8.71875 8.984375,9.015625 8.6875,9.3125 8.75,9.375 8.8125,9.4375 8.6875,9.3125 Q 8.5625,9.1875 8.375,9.125 L 8.1875,9.0625 8.46875,9.15625 8.75,9.25 8.375,9.125 8,9 8,8.5"
           id="path31672"
           inkscape:connector-curvature="0" />
        <path
           style="fill:#3c3c3c;fill-opacity:0.99607843"
           d="M 9.125,8.375 9,8 9.09375,8.28125 9.1875,8.5625 9.125,8.375 Q 9.0625,8.1875 8.90625,8.09375 L 8.75,8 8.828125,8.046875 8.90625,8.09375 9.328125,8.171875 Q 9.75,8.25 10,8.5 L 10.25,8.75 10,9 9.75,9.25 9.5,9 Q 9.25,8.75 9.125,8.375 M 9.5625,9.0625 9.75,9.25 9.8125,9.3125 9.875,9.375 9.75,9.25 Q 9.625,9.125 9.5,9 L 9.375,8.875 9.5625,9.0625 m 0.75,-0.25 L 10.25,8.75 10.0625,8.5625 9.875,8.375 10,8.5 q 0.125,0.125 0.25,0.25 l 0.125,0.125 -0.0625,-0.0625"
           id="path31674"
           inkscape:connector-curvature="0" />
        <path
           style="fill:#2a2a2a;fill-opacity:1"
           d="M 10,8.5 9.75,8.25 9.9375,8.4375 10.125,8.625 10,8.5 Q 9.875,8.375 9.71875,8.28125 L 9.5625,8.1875 9.640625,8.234375 9.71875,8.28125 10,8 10.28125,7.71875 10.234375,7.640625 10.1875,7.5625 10.28125,7.71875 Q 10.375,7.875 10.5,8 L 10.625,8.125 10.4375,7.9375 10.25,7.75 10.5,8 Q 10.75,8.25 11,8.5 L 11.25,8.75 10.984375,9.015625 10.71875,9.28125 10.765625,9.359375 10.8125,9.4375 10.71875,9.28125 Q 10.625,9.125 10.5,9 L 10.375,8.875 10.5625,9.0625 10.75,9.25 10.5,9 Q 10.25,8.75 10,8.5 M 11.3125,8.8125 11.25,8.75 11.0625,8.5625 10.875,8.375 11,8.5 q 0.125,0.125 0.25,0.25 l 0.125,0.125 -0.0625,-0.0625"
           id="path31676"
           inkscape:connector-curvature="0" />
        <path
           style="fill:#a7a7a7;fill-opacity:1"
           d="M 11,8.5 10.75,8.25 11.015625,7.984375 11.28125,7.71875 11.234375,7.640625 11.1875,7.5625 11.28125,7.71875 Q 11.375,7.875 11.5,8 L 11.625,8.125 11.4375,7.9375 11.25,7.75 11.5,8 Q 11.75,8.25 12,8.5 L 12.25,8.75 12.0625,8.5625 11.875,8.375 12,8.5 q 0.125,0.125 0.28125,0.21875 L 12.4375,8.8125 12.359375,8.765625 12.28125,8.71875 12.015625,8.984375 11.75,9.25 11.5,9 Q 11.25,8.75 11,8.5 M 11.5625,9.0625 11.75,9.25 11.8125,9.3125 11.875,9.375 11.75,9.25 Q 11.625,9.125 11.5,9 L 11.375,8.875 11.5625,9.0625 M 10.6875,8.1875 10.75,8.25 10.9375,8.4375 11.125,8.625 11,8.5 Q 10.875,8.375 10.75,8.25 l -0.125,-0.125 0.0625,0.0625"
           id="path31678"
           inkscape:connector-curvature="0" />
        <path
           style="fill:#595959;fill-opacity:1"
           d="M 12,8.5 11.75,8.25 12.03125,7.96875 12.3125,7.6875 12.25,7.625 12.1875,7.5625 l 0.125,0.125 q 0.125,0.125 0.3125,0.1875 L 12.8125,7.9375 12.53125,7.84375 12.25,7.75 12.625,7.875 13,8 12.71875,7.90625 12.4375,7.8125 12.625,7.875 Q 12.8125,7.9375 13,7.9375 l 0.1875,0 -0.09375,0 -0.09375,0 0,0.5 0,0.5 0.09375,0 0.09375,0 -0.1875,0 q -0.1875,0 -0.375,-0.0625 L 12.4375,8.8125 12.71875,8.90625 13,9 12.625,8.875 Q 12.25,8.75 12,8.5 M 11.6875,8.1875 11.75,8.25 11.9375,8.4375 12.125,8.625 12,8.5 Q 11.875,8.375 11.75,8.25 l -0.125,-0.125 0.0625,0.0625"
           id="path31680"
           inkscape:connector-curvature="0" />
        <path
           style="fill:#8b8b8b;fill-opacity:1"
           d="m 13,8.4375 0,-0.5 -0.09375,0 -0.09375,0 0.1875,0 q 0.1875,0 0.375,-0.0625 L 13.5625,7.8125 13.28125,7.90625 13,8 13.375,7.875 13.75,7.75 13.46875,7.84375 13.1875,7.9375 13.375,7.875 Q 13.5625,7.8125 13.71875,7.71875 L 13.875,7.625 13.796875,7.671875 13.71875,7.71875 13.984375,8.015625 14.25,8.3125 14.3125,8.28125 14.375,8.25 14.25,8.3125 Q 14.125,8.375 14,8.5 L 13.875,8.625 14.0625,8.4375 14.25,8.25 14,8.5 Q 13.75,8.75 13.375,8.875 L 13,9 13.28125,8.90625 13.5625,8.8125 13.375,8.875 Q 13.1875,8.9375 13,8.9375 l -0.1875,0 0.09375,0 0.09375,0 0,-0.5"
           id="path31682"
           inkscape:connector-curvature="0" />
        <path
           style="fill:#ffffff;fill-opacity:1"
           d="m 14,8.5 q 0.25,-0.25 0.5,-0.25 0.25,0 0.25,0.25 0,0.25 -0.25,0.5 L 14.25,9.25 14.4375,9.0625 14.625,8.875 14.5,9 Q 14.375,9.125 14.28125,9.28125 L 14.1875,9.4375 14.234375,9.359375 14.28125,9.28125 14,9 13.71875,8.71875 13.640625,8.765625 13.5625,8.8125 13.71875,8.71875 Q 13.875,8.625 14,8.5 L 14.125,8.375 13.9375,8.5625 13.75,8.75 14,8.5"
           id="path31684"
           inkscape:connector-curvature="0" />
        <path
           style="fill:#ababab;fill-opacity:1"
           d="m 14.75,8.5 0,-0.25 0,0.1875 0,0.1875 0,-0.125 q 0,-0.125 -0.0625,-0.1875 L 14.625,8.25 14.65625,8.28125 14.6875,8.3125 15,8 15.3125,7.6875 15.25,7.625 15.1875,7.5625 l 0.125,0.125 q 0.125,0.125 0.3125,0.1875 L 15.8125,7.9375 15.53125,7.84375 15.25,7.75 15.625,7.875 16,8 15.875,8.375 Q 15.75,8.75 15.5,9 L 15.25,9.25 14.96875,9 14.6875,8.75 14.65625,8.8125 14.625,8.875 14.6875,8.75 Q 14.75,8.625 14.75,8.5 l 0,-0.125 0,0.1875 0,0.1875 0,-0.25 M 15.1875,9.3125 15.25,9.25 15.4375,9.0625 15.625,8.875 15.5,9 q -0.125,0.125 -0.25,0.25 l -0.125,0.125 0.0625,-0.0625"
           id="path31686"
           inkscape:connector-curvature="0" />
        <path
           style="fill:#000000;fill-opacity:0.89019608"
           d="M 15.875,8.375 16,8 16.5,8 17,8 17,8.5 17,9 16.625,9.125 16.25,9.25 16.53125,9.15625 16.8125,9.0625 16.625,9.125 Q 16.4375,9.1875 16.3125,9.3125 L 16.1875,9.4375 16.25,9.375 16.3125,9.3125 16.015625,9.015625 15.71875,8.71875 15.671875,8.796875 15.625,8.875 15.71875,8.71875 Q 15.8125,8.5625 15.875,8.375 L 15.9375,8.1875 15.84375,8.46875 15.75,8.75 15.875,8.375"
           id="path31688"
           inkscape:connector-curvature="0" />
        <path
           style="fill:#000000;fill-opacity:0.21568627"
           d="M 3,9.5 Q 3,9 3.5,9 L 4,9 4,9.5 4,10 3.5,10 3,10 3,9.5"
           id="path31690"
           inkscape:connector-curvature="0" />
        <path
           style="fill:#1d1d1d;fill-opacity:0.99215686"
           d="M 4,9.5 4,9 4.375,8.875 4.75,8.75 4.46875,8.84375 4.1875,8.9375 4.375,8.875 Q 4.5625,8.8125 4.6875,8.6875 L 4.8125,8.5625 4.75,8.625 4.6875,8.6875 5,9 5.3125,9.3125 5.375,9.25 5.4375,9.1875 5.3125,9.3125 Q 5.1875,9.4375 5.125,9.625 L 5.0625,9.8125 5.15625,9.53125 5.25,9.25 5.125,9.625 5,10 4.5,10 4,10 4,9.5"
           id="path31692"
           inkscape:connector-curvature="0" />
        <path
           style="fill:#e1e1e1;fill-opacity:1"
           d="M 5.125,9.625 Q 5.25,9.25 5.625,9.125 L 6,9 5.71875,9.09375 5.4375,9.1875 5.625,9.125 Q 5.8125,9.0625 6.03125,9.03125 L 6.25,9 6.140625,9.015625 6.03125,9.03125 6.078125,9.578125 6.125,10.125 5.5625,10.0625 5,10 5.125,9.625"
           id="path31694"
           inkscape:connector-curvature="0" />
        <path
           style="fill:#ffffff;fill-opacity:1"
           d="M 6.078125,9.578125 6.03125,9.03125 5.921875,9.046875 5.8125,9.0625 6.03125,9.03125 Q 6.25,9 6.5,9 L 6.75,9 6.375,9 6,9 6.5,9 7,9 7,9.5 7,10 6.5,10 6,10 6.375,10 6.75,10 6.5,10 Q 6.25,10 6.125,10.125 L 6,10.25 6.0625,10.1875 6.125,10.125 6.078125,9.578125 M 7,9.375 7,9 7,8.875 7,8.75 7,9 Q 7,9.25 7,9.5 L 7,9.75 7,9.375"
           id="path31696"
           inkscape:connector-curvature="0" />
        <path
           style="fill:#c9c9c9;fill-opacity:1"
           d="M 7,9.5 7,9 7.5,9 8,9 8,9.5 8,10 7.5,10 7,10 7,9.5"
           id="path31698"
           inkscape:connector-curvature="0" />
        <path
           style="fill:#9a9a9a;fill-opacity:1"
           d="M 8,9.5 8,9 8.375,9.125 Q 8.75,9.25 8.8125,9.6875 L 8.875,10.125 8.9375,10.1875 9,10.25 8.875,10.125 Q 8.75,10 8.5,10 L 8.25,10 8.625,10 9,10 8.5,10 8,10 8,9.5"
           id="path31700"
           inkscape:connector-curvature="0" />
        <path
           style="fill:#c9c9c9;fill-opacity:1"
           d="M 8.8125,9.6875 8.75,9.25 8.84375,9.53125 8.9375,9.8125 8.875,9.625 Q 8.8125,9.4375 8.6875,9.3125 L 8.5625,9.1875 8.625,9.25 8.6875,9.3125 8.984375,9.015625 9.28125,8.71875 9.234375,8.640625 9.1875,8.5625 9.28125,8.71875 Q 9.375,8.875 9.5,9 L 9.625,9.125 9.4375,8.9375 9.25,8.75 9.5,9 Q 9.75,9.25 10,9.5 L 10.25,9.75 10.0625,9.5625 9.875,9.375 10,9.5 q 0.125,0.125 0.28125,0.21875 L 10.4375,9.8125 10.359375,9.765625 10.28125,9.71875 9.984375,10.015625 9.6875,10.3125 9.75,10.375 9.8125,10.4375 9.6875,10.3125 Q 9.5625,10.1875 9.375,10.125 L 9.1875,10.0625 9.46875,10.15625 9.75,10.25 9.3125,10.1875 8.875,10.125 8.8125,9.6875"
           id="path31702"
           inkscape:connector-curvature="0" />
        <path
           style="fill:#4f4f4f;fill-opacity:1"
           d="M 10,9.5 9.75,9.25 10,9 10.25,8.75 10.5,9 q 0.25,0.25 0.328125,0.671875 l 0.07813,0.421875 0.04687,0.07813 L 11,10.25 10.90625,10.09375 Q 10.8125,9.9375 10.625,9.875 L 10.4375,9.8125 10.71875,9.90625 11,10 10.625,9.875 Q 10.25,9.75 10,9.5 M 10.4375,8.9375 10.25,8.75 10.1875,8.6875 10.125,8.625 10.25,8.75 Q 10.375,8.875 10.5,9 l 0.125,0.125 -0.1875,-0.1875 m -0.75,0.25 L 9.75,9.25 9.9375,9.4375 10.125,9.625 10,9.5 Q 9.875,9.375 9.75,9.25 L 9.625,9.125 9.6875,9.1875"
           id="path31704"
           inkscape:connector-curvature="0" />
        <path
           style="fill:#2b2b2b;fill-opacity:0.99607843"
           d="M 10.828125,9.671875 10.75,9.25 10.84375,9.53125 10.9375,9.8125 10.875,9.625 Q 10.8125,9.4375 10.71875,9.28125 L 10.625,9.125 10.671875,9.203125 10.71875,9.28125 10.984375,9.015625 11.25,8.75 11.5,9 Q 11.75,9.25 12,9.5 L 12.25,9.75 12.0625,9.5625 11.875,9.375 12,9.5 q 0.125,0.125 0.28125,0.21875 L 12.4375,9.8125 12.359375,9.765625 12.28125,9.71875 11.984375,10.015625 11.6875,10.3125 11.75,10.375 l 0.0625,0.0625 -0.125,-0.125 Q 11.5625,10.1875 11.375,10.125 L 11.1875,10.0625 11.46875,10.15625 11.75,10.25 11.328125,10.171875 10.90625,10.09375 10.828125,9.671875 M 11.4375,8.9375 11.25,8.75 11.1875,8.6875 11.125,8.625 11.25,8.75 Q 11.375,8.875 11.5,9 l 0.125,0.125 -0.1875,-0.1875"
           id="path31706"
           inkscape:connector-curvature="0" />
        <path
           style="fill:#bdbdbd;fill-opacity:1"
           d="M 12,9.5 11.75,9.25 12.015625,8.984375 12.28125,8.71875 12.203125,8.671875 12.125,8.625 12.28125,8.71875 Q 12.4375,8.8125 12.625,8.875 L 12.8125,8.9375 12.53125,8.84375 12.25,8.75 12.625,8.875 13,9 13,9.5 13,10 12.625,9.875 Q 12.25,9.75 12,9.5 M 11.6875,9.1875 11.75,9.25 11.9375,9.4375 12.125,9.625 12,9.5 Q 11.875,9.375 11.75,9.25 l -0.125,-0.125 0.0625,0.0625"
           id="path31708"
           inkscape:connector-curvature="0" />
        <path
           style="fill:#e0e0e0;fill-opacity:1"
           d="M 13,9.5 13,9 13.375,8.875 13.75,8.75 13.46875,8.84375 13.1875,8.9375 13.375,8.875 Q 13.5625,8.8125 13.71875,8.71875 L 13.875,8.625 13.796875,8.671875 13.71875,8.71875 14,9 14.28125,9.28125 14.328125,9.203125 14.375,9.125 14.28125,9.28125 Q 14.1875,9.4375 14.125,9.625 L 14.0625,9.8125 14.15625,9.53125 14.25,9.25 14.109375,9.609375 13.96875,9.96875 14.078125,9.953125 14.1875,9.9375 13.96875,9.96875 Q 13.75,10 13.5,10 l -0.25,0 0.375,0 0.375,0 -0.5,0 -0.5,0 0,-0.5"
           id="path31710"
           inkscape:connector-curvature="0" />
        <path
           style="fill:#959595;fill-opacity:1"
           d="M 14.109375,9.609375 Q 14.25,9.25 14.5,9 L 14.75,8.75 14.5625,8.9375 14.375,9.125 14.5,9 Q 14.625,8.875 14.6875,8.75 L 14.75,8.625 14.71875,8.6875 14.6875,8.75 14.96875,9 15.25,9.25 15,9.5 Q 14.75,9.75 14.375,9.875 L 14,10 14.28125,9.90625 14.5625,9.8125 14.375,9.875 Q 14.1875,9.9375 13.96875,9.96875 L 13.75,10 13.859375,9.984375 13.96875,9.96875 14.109375,9.609375 M 15.0625,9.4375 15.25,9.25 15.3125,9.1875 15.375,9.125 15.25,9.25 Q 15.125,9.375 15,9.5 l -0.125,0.125 0.1875,-0.1875"
           id="path31712"
           inkscape:connector-curvature="0" />
        <path
           style="fill:#131313;fill-opacity:0.98431373"
           d="M 15,9.5 Q 15.25,9.25 15.5,9 L 15.75,8.75 15.5625,8.9375 15.375,9.125 15.5,9 Q 15.625,8.875 15.71875,8.71875 L 15.8125,8.5625 15.765625,8.640625 15.71875,8.71875 16.015625,9.015625 16.3125,9.3125 16.375,9.25 16.4375,9.1875 16.3125,9.3125 Q 16.1875,9.4375 16.125,9.625 L 16.0625,9.8125 16.15625,9.53125 16.25,9.25 16.125,9.625 16,10 15.625,10.125 15.25,10.25 15.53125,10.15625 15.8125,10.0625 15.625,10.125 q -0.1875,0.0625 -0.3125,0.1875 l -0.125,0.125 L 15.25,10.375 15.3125,10.3125 15.015625,10.015625 14.71875,9.71875 14.640625,9.765625 14.5625,9.8125 14.71875,9.71875 Q 14.875,9.625 15,9.5 L 15.125,9.375 14.9375,9.5625 14.75,9.75 15,9.5"
           id="path31714"
           inkscape:connector-curvature="0" />
        <path
           style="fill:#000000;fill-opacity:0.14509804"
           d="m 16.125,9.625 q 0.125,-0.375 0.5,-0.5 L 17,9 17,9.5 Q 17,10 16.5,10 L 16,10 16.125,9.625"
           id="path31716"
           inkscape:connector-curvature="0" />
        <path
           style="fill:#000000;fill-opacity:0.16470588"
           d="M 3,10.5 3,10 3.5,10 4,10 4,10.5 4,11 3.5,11 Q 3,11 3,10.5"
           id="path31718"
           inkscape:connector-curvature="0" />
        <path
           style="fill:#171717;fill-opacity:0.95294118"
           d="M 4,10.5 4,10 4.5,10 5,10 5.125,10.375 5.25,10.75 5.15625,10.46875 5.0625,10.1875 5.125,10.375 q 0.0625,0.1875 0.1875,0.3125 l 0.125,0.125 L 5.375,10.75 5.3125,10.6875 5,11 4.6875,11.3125 4.75,11.375 4.8125,11.4375 4.6875,11.3125 Q 4.5625,11.1875 4.375,11.125 L 4.1875,11.0625 4.46875,11.15625 4.75,11.25 4.375,11.125 4,11 4,10.5"
           id="path31720"
           inkscape:connector-curvature="0" />
        <path
           style="fill:#b4b4b4;fill-opacity:1"
           d="M 5.125,10.375 5,10 5.5625,10.0625 6.125,10.125 6.1875,10.0625 6.25,10 6.125,10.125 Q 6,10.25 6,10.5 L 6,10.75 6,10.375 6,10 6,10.5 Q 6,11 5.625,10.875 5.25,10.75 5.125,10.375"
           id="path31722"
           inkscape:connector-curvature="0" />
        <path
           style="fill:#464646;fill-opacity:1"
           d="M 6,10.5 Q 6,10 6.5,10 L 7,10 6.875,10.375 Q 6.75,10.75 6.3125,10.8125 L 5.875,10.875 5.8125,10.9375 5.75,11 5.875,10.875 Q 6,10.75 6,10.5 L 6,10.25 6,10.625 6,11 6,10.5"
           id="path31724"
           inkscape:connector-curvature="0" />
        <path
           style="fill:#000000;fill-opacity:0.98039216"
           d="M 6.875,10.375 7,10 7.5,10 8,10 7.875,10.375 Q 7.75,10.75 7.5,11 L 7.25,11.25 7.4375,11.0625 7.625,10.875 7.5,11 Q 7.375,11.125 7.28125,11.28125 L 7.1875,11.4375 7.234375,11.359375 7.28125,11.28125 6.984375,10.984375 6.6875,10.6875 6.625,10.75 6.5625,10.8125 6.6875,10.6875 Q 6.8125,10.5625 6.875,10.375 L 6.9375,10.1875 6.84375,10.46875 6.75,10.75 6.875,10.375"
           id="path31726"
           inkscape:connector-curvature="0" />
        <path
           style="fill:#000000;fill-opacity:1"
           d="M 7.875,10.375 8,10 8.5,10 Q 9,10 8.875,10.375 8.75,10.75 8.5,11 L 8.25,11.25 8.4375,11.0625 8.625,10.875 8.5,11 Q 8.375,11.125 8.28125,11.28125 L 8.1875,11.4375 8.234375,11.359375 8.28125,11.28125 8,11 7.71875,10.71875 7.671875,10.796875 7.625,10.875 7.71875,10.71875 Q 7.8125,10.5625 7.875,10.375 L 7.9375,10.1875 7.84375,10.46875 7.75,10.75 7.875,10.375"
           id="path31728"
           inkscape:connector-curvature="0" />
        <path
           style="fill:#cdcdcd;fill-opacity:1"
           d="M 8.875,10.375 9,10 9,10.375 9,10.75 9,10.5 Q 9,10.25 8.875,10.125 L 8.75,10 8.8125,10.0625 8.875,10.125 9.3125,10.1875 q 0.4375,0.0625 0.625,0.5 L 10.125,11.125 9.6875,11.1875 9.25,11.25 9.53125,11.15625 9.8125,11.0625 9.625,11.125 Q 9.4375,11.1875 9.28125,11.28125 L 9.125,11.375 9.203125,11.328125 9.28125,11.28125 9,11 8.71875,10.71875 8.671875,10.796875 8.625,10.875 8.71875,10.71875 Q 8.8125,10.5625 8.875,10.375 L 8.9375,10.1875 8.84375,10.46875 8.75,10.75 8.875,10.375"
           id="path31730"
           inkscape:connector-curvature="0" />
        <path
           style="fill:#cbcbcb;fill-opacity:1"
           d="M 9.9375,10.6875 9.75,10.25 9.84375,10.53125 9.9375,10.8125 9.875,10.625 Q 9.8125,10.4375 9.6875,10.3125 L 9.5625,10.1875 9.625,10.25 9.6875,10.3125 9.984375,10.015625 10.28125,9.71875 10.203125,9.671875 10.125,9.625 10.28125,9.71875 Q 10.4375,9.8125 10.625,9.875 L 10.8125,9.9375 10.53125,9.84375 10.25,9.75 10.625,9.875 Q 11,10 11,10.5 11,11 10.5,11 l -0.5,0 0.375,0 0.375,0 -0.25,0 q -0.25,0 -0.375,0.125 L 10,11.25 10.0625,11.1875 10.125,11.125 9.9375,10.6875"
           id="path31732"
           inkscape:connector-curvature="0" />
        <path
           style="fill:#000000;fill-opacity:0.96862745"
           d="m 11,10.5 0,-0.5 0,0.375 0,0.375 0,-0.25 q 0,-0.25 -0.09375,-0.40625 L 10.8125,9.9375 l 0.04687,0.078125 0.04687,0.07813 0.421875,0.07813 Q 11.75,10.25 11.875,10.625 L 12,11 11.4375,10.9375 10.875,10.875 10.8125,10.9375 10.75,11 10.875,10.875 Q 11,10.75 11,10.5 l 0,-0.25 0,0.375 0,0.375 0,-0.5"
           id="path31734"
           inkscape:connector-curvature="0" />
        <path
           style="fill:#000000;fill-opacity:0.93333333"
           d="M 11.875,10.625 11.75,10.25 11.84375,10.53125 11.9375,10.8125 11.875,10.625 q -0.0625,-0.1875 -0.1875,-0.3125 l -0.125,-0.125 0.0625,0.0625 0.0625,0.0625 0.296875,-0.296875 L 12.28125,9.71875 12.203125,9.671875 12.125,9.625 12.28125,9.71875 Q 12.4375,9.8125 12.625,9.875 L 12.8125,9.9375 12.53125,9.84375 12.25,9.75 12.625,9.875 13,10 l 0,0.5 0,0.5 -0.5,0 -0.5,0 -0.125,-0.375"
           id="path31736"
           inkscape:connector-curvature="0" />
        <path
           style="fill:#000000;fill-opacity:0.98431373"
           d="m 13,10.5 0,-0.5 0.5,0 0.5,0 -0.375,0 -0.375,0 0.25,0 q 0.25,0 0.46875,-0.03125 L 14.1875,9.9375 14.078125,9.953125 13.96875,9.96875 13.984375,10.484375 14,11 13.5,11 13,11 13,10.5"
           id="path31738"
           inkscape:connector-curvature="0" />
        <path
           style="fill:#000000;fill-opacity:0.82745098"
           d="M 13.984375,10.484375 13.96875,9.96875 13.859375,9.984375 13.75,10 13.96875,9.96875 Q 14.1875,9.9375 14.375,9.875 L 14.5625,9.8125 14.28125,9.90625 14,10 14.375,9.875 14.75,9.75 14.46875,9.84375 14.1875,9.9375 14.375,9.875 Q 14.5625,9.8125 14.71875,9.71875 L 14.875,9.625 14.796875,9.671875 14.71875,9.71875 15.015625,10.015625 15.3125,10.3125 15.375,10.25 l 0.0625,-0.0625 -0.125,0.125 q -0.125,0.125 -0.1875,0.3125 L 15.0625,10.8125 15.15625,10.53125 15.25,10.25 15.125,10.625 15,11 14.5,11 14,11 13.984375,10.484375"
           id="path31740"
           inkscape:connector-curvature="0" />
        <path
           style="fill:#000000;fill-opacity:0.14509804"
           d="m 15.125,10.625 q 0.125,-0.375 0.5,-0.5 L 16,10 l 0,0.5 0,0.5 -0.5,0 -0.5,0 0.125,-0.375"
           id="path31742"
           inkscape:connector-curvature="0" />
        <path
           style="fill:#000000;fill-opacity:0.16470588"
           d="M 4,11.5 4,11 4.375,11.125 q 0.375,0.125 0.5,0.5 L 5,12 4.5,12 4,12 4,11.5"
           id="path31744"
           inkscape:connector-curvature="0" />
        <path
           style="fill:#000000;fill-opacity:0.92156863"
           d="M 4.875,11.625 4.75,11.25 4.84375,11.53125 4.9375,11.8125 4.875,11.625 Q 4.8125,11.4375 4.6875,11.3125 L 4.5625,11.1875 4.625,11.25 4.6875,11.3125 5,11 5.3125,10.6875 5.25,10.625 5.1875,10.5625 l 0.125,0.125 q 0.125,0.125 0.3125,0.1875 L 5.8125,10.9375 5.53125,10.84375 5.25,10.75 5.625,10.875 6,11 5.625,11 5.25,11 5.5,11 q 0.25,0 0.375,-0.125 L 6,10.75 5.9375,10.8125 5.875,10.875 5.8125,11.3125 Q 5.75,11.75 5.375,11.875 L 5,12 4.875,11.625"
           id="path31746"
           inkscape:connector-curvature="0" />
        <path
           style="fill:#000000;fill-opacity:0.88235294"
           d="M 5.8125,11.3125 5.875,10.875 6.3125,10.8125 6.75,10.75 6.46875,10.84375 6.1875,10.9375 6.375,10.875 Q 6.5625,10.8125 6.6875,10.6875 L 6.8125,10.5625 6.75,10.625 6.6875,10.6875 6.984375,10.984375 7.28125,11.28125 7.328125,11.203125 7.375,11.125 7.28125,11.28125 Q 7.1875,11.4375 7.125,11.625 L 7.0625,11.8125 7.15625,11.53125 7.25,11.25 7.125,11.625 7,12 6.625,12.125 6.25,12.25 6.53125,12.15625 6.8125,12.0625 6.625,12.125 Q 6.4375,12.1875 6.3125,12.3125 L 6.1875,12.4375 6.25,12.375 6.3125,12.3125 6,12 5.6875,11.6875 5.625,11.75 5.5625,11.8125 5.6875,11.6875 Q 5.8125,11.5625 5.875,11.375 L 5.9375,11.1875 5.84375,11.46875 5.75,11.75 5.8125,11.3125"
           id="path31748"
           inkscape:connector-curvature="0" />
        <path
           style="fill:#171717;fill-opacity:1"
           d="M 7.125,11.625 Q 7.25,11.25 7.5,11 L 7.75,10.75 7.5625,10.9375 7.375,11.125 7.5,11 Q 7.625,10.875 7.71875,10.71875 L 7.8125,10.5625 7.765625,10.640625 7.71875,10.71875 8,11 8.28125,11.28125 8.328125,11.203125 8.375,11.125 8.28125,11.28125 Q 8.1875,11.4375 8.125,11.625 L 8.0625,11.8125 8.15625,11.53125 8.25,11.25 8.125,11.625 Q 8,12 7.5,12 L 7,12 7.125,11.625"
           id="path31750"
           inkscape:connector-curvature="0" />
        <path
           style="fill:#b9b9b9;fill-opacity:1"
           d="M 8.125,11.625 Q 8.25,11.25 8.5,11 L 8.75,10.75 8.5625,10.9375 8.375,11.125 8.5,11 Q 8.625,10.875 8.71875,10.71875 L 8.8125,10.5625 8.765625,10.640625 8.71875,10.71875 9,11 9.28125,11.28125 9.359375,11.234375 9.4375,11.1875 9.28125,11.28125 Q 9.125,11.375 9,11.5 L 8.875,11.625 9.0625,11.4375 9.25,11.25 9,11.5 Q 8.75,11.75 8.328125,11.828125 L 7.90625,11.90625 7.828125,11.953125 7.75,12 7.90625,11.90625 Q 8.0625,11.8125 8.125,11.625 L 8.1875,11.4375 8.09375,11.71875 8,12 8.125,11.625"
           id="path31752"
           inkscape:connector-curvature="0" />
        <path
           style="fill:#ffffff;fill-opacity:1"
           d="M 9,11.5 Q 9.25,11.25 9.6875,11.1875 L 10.125,11.125 10.1875,11.0625 10.25,11 10.125,11.125 Q 10,11.25 10,11.5 l 0,0.25 0,-0.375 L 10,11 10,11.5 10,12 9.625,12.125 9.25,12.25 9.53125,12.15625 9.8125,12.0625 9.625,12.125 Q 9.4375,12.1875 9.3125,12.3125 L 9.1875,12.4375 9.25,12.375 9.3125,12.3125 9.015625,12.015625 8.71875,11.71875 8.640625,11.765625 8.5625,11.8125 8.71875,11.71875 Q 8.875,11.625 9,11.5 L 9.125,11.375 8.9375,11.5625 8.75,11.75 9,11.5"
           id="path31754"
           inkscape:connector-curvature="0" />
        <path
           style="fill:#3e3e3e;fill-opacity:1"
           d="M 10,11.5 Q 10,11 10.5,11 l 0.5,0 -0.375,0 -0.375,0 0.25,0 q 0.25,0 0.375,-0.125 L 11,10.75 10.9375,10.8125 10.875,10.875 10.9375,11.4375 11,12 10.5,12 10,12 10,11.5"
           id="path31756"
           inkscape:connector-curvature="0" />
        <path
           style="fill:#000000;fill-opacity:0.42745098"
           d="M 10.9375,11.4375 10.875,10.875 11.4375,10.9375 12,11 l 0,0.5 0,0.5 -0.5,0 -0.5,0 -0.0625,-0.5625"
           id="path31758"
           inkscape:connector-curvature="0" />
        <path
           style="fill:#000000;fill-opacity:0.16470588"
           d="m 12,11.5 0,-0.5 0.5,0 0.5,0 -0.125,0.375 q -0.125,0.375 -0.5,0.5 L 12,12 12,11.5"
           id="path31760"
           inkscape:connector-curvature="0" />
        <path
           style="fill:#000000;fill-opacity:0.76078431"
           d="M 12.875,11.375 13,11 l 0.5,0 0.5,0 0,0.5 0,0.5 -0.375,0.125 -0.375,0.125 0.28125,-0.09375 0.28125,-0.09375 -0.1875,0.0625 q -0.1875,0.0625 -0.3125,0.1875 l -0.125,0.125 L 13.25,12.375 13.3125,12.3125 13,12 12.6875,11.6875 12.625,11.75 l -0.0625,0.0625 0.125,-0.125 q 0.125,-0.125 0.1875,-0.3125 L 12.9375,11.1875 12.84375,11.46875 12.75,11.75 12.875,11.375"
           id="path31762"
           inkscape:connector-curvature="0" />
        <path
           style="fill:#000000;fill-opacity:0.89019608"
           d="m 14,11.5 0,-0.5 0.5,0 0.5,0 0,0.5 0,0.5 -0.5,0 -0.5,0 0,-0.5"
           id="path31764"
           inkscape:connector-curvature="0" />
        <path
           style="fill:#000000;fill-opacity:0.59607843"
           d="m 15,11.5 0,-0.5 0.5,0 0.5,0 0.125,0.375 0.125,0.375 -0.09375,-0.28125 -0.09375,-0.28125 0.0625,0.1875 q 0.0625,0.1875 0.1875,0.3125 l 0.125,0.125 L 16.375,11.75 16.3125,11.6875 16.015625,11.984375 15.71875,12.28125 15.79688,12.32812 15.875,12.375 15.71875,12.28125 Q 15.5625,12.1875 15.375,12.125 L 15.1875,12.0625 15.46875,12.15625 15.75,12.25 15.375,12.125 15,12 15,11.5"
           id="path31766"
           inkscape:connector-curvature="0" />
        <path
           style="fill:#000000;fill-opacity:0.07843137"
           d="M 4,12.5 4,12 4.5,12 5,12 5,12.5 5,13 4.5,13 4,13 4,12.5"
           id="path31768"
           inkscape:connector-curvature="0" />
        <path
           style="fill:#0c0c0c;fill-opacity:0.78039216"
           d="M 5,12.5 5,12 5.375,11.875 5.75,11.75 5.46875,11.84375 5.1875,11.9375 5.375,11.875 Q 5.5625,11.8125 5.6875,11.6875 L 5.8125,11.5625 5.75,11.625 5.6875,11.6875 6,12 6.3125,12.3125 6.375,12.25 6.4375,12.1875 6.3125,12.3125 Q 6.1875,12.4375 6.125,12.625 L 6.0625,12.8125 6.15625,12.53125 6.25,12.25 6.125,12.625 6,13 6.09375,12.71875 6.1875,12.4375 6.125,12.625 Q 6.0625,12.8125 6.0625,13 l 0,0.1875 0,-0.09375 L 6.0625,13 5.53125,13 5,13 5,12.5"
           id="path31770"
           inkscape:connector-curvature="0" />
        <path
           style="fill:#797979;fill-opacity:1"
           d="m 6.125,12.625 q 0.125,-0.375 0.5,-0.5 L 7,12 6.71875,12.09375 6.4375,12.1875 6.625,12.125 Q 6.8125,12.0625 7.03125,12.03125 L 7.25,12 7.140625,12.015625 7.03125,12.03125 6.890625,12.390625 Q 6.75,12.75 6.40625,12.875 L 6.0625,13 l 0,0.09375 0,0.09375 0,-0.1875 q 0,-0.1875 0.0625,-0.375 L 6.1875,12.4375 6.09375,12.71875 6,13 6.125,12.625"
           id="path31772"
           inkscape:connector-curvature="0" />
        <path
           style="fill:#f2f2f2;fill-opacity:1"
           d="M 6.890625,12.390625 7.03125,12.03125 6.921875,12.046875 6.8125,12.0625 7.03125,12.03125 Q 7.25,12 7.5,12 L 7.75,12 7.375,12 7,12 7.5,12 8,12 7.625,12 7.25,12 7.5,12 q 0.25,0 0.40625,-0.09375 L 8.0625,11.8125 7.984375,11.859375 7.90625,11.90625 8,12.5 8.09375,13.09375 7.671875,13.171875 7.25,13.25 7.53125,13.15625 7.8125,13.0625 7.625,13.125 Q 7.4375,13.1875 7.3125,13.3125 L 7.1875,13.4375 7.25,13.375 7.3125,13.3125 7,13 6.6875,12.6875 6.625,12.75 6.5625,12.8125 6.6875,12.6875 Q 6.8125,12.5625 6.875,12.375 L 6.9375,12.1875 6.84375,12.46875 6.75,12.75 6.890625,12.390625"
           id="path31774"
           inkscape:connector-curvature="0" />
        <path
           style="fill:#fdfdfd;fill-opacity:1"
           d="M 8,12.5 7.90625,11.90625 8.328125,11.828125 8.75,11.75 8.46875,11.84375 8.1875,11.9375 8.375,11.875 Q 8.5625,11.8125 8.71875,11.71875 L 8.875,11.625 8.796875,11.671875 8.71875,11.71875 9.015625,12.015625 9.3125,12.3125 9.375,12.25 9.4375,12.1875 9.3125,12.3125 Q 9.1875,12.4375 9.125,12.625 L 9.0625,12.8125 9.15625,12.53125 9.25,12.25 9.125,12.625 9,13 8.5,13 8,13 8.375,13 8.75,13 8.5,13 Q 8.25,13 8.09375,13.09375 L 7.9375,13.1875 8.015625,13.140625 8.09375,13.09375 8,12.5"
           id="path31776"
           inkscape:connector-curvature="0" />
        <path
           style="fill:#d7d7d7;fill-opacity:1"
           d="m 9.125,12.625 q 0.125,-0.375 0.5,-0.5 L 10,12 10.125,12.375 10.25,12.75 10.15625,12.46875 10.0625,12.1875 10.125,12.375 q 0.0625,0.1875 0.1875,0.3125 l 0.125,0.125 L 10.375,12.75 10.3125,12.6875 10,13 9.6875,13.3125 9.75,13.375 9.8125,13.4375 9.6875,13.3125 Q 9.5625,13.1875 9.375,13.125 L 9.1875,13.0625 9.46875,13.15625 9.75,13.25 9.375,13.125 9,13 9.125,12.625"
           id="path31778"
           inkscape:connector-curvature="0" />
        <path
           style="fill:#313131;fill-opacity:1"
           d="M 10.125,12.375 10,12 l 0.5,0 0.5,0 0,0.5 0,0.5 -0.375,-0.125 q -0.375,-0.125 -0.5,-0.5"
           id="path31780"
           inkscape:connector-curvature="0" />
        <path
           style="fill:#000000;fill-opacity:0.94117647"
           d="m 11,12.5 0,-0.5 0.5,0 0.5,0 0,0.5 0,0.5 -0.5,0 -0.5,0 0,-0.5 M 11.625,13 12,13 12.125,13 12.25,13 12,13 q -0.25,0 -0.5,0 l -0.25,0 0.375,0"
           id="path31782"
           inkscape:connector-curvature="0" />
        <path
           style="fill:#161616;fill-opacity:1"
           d="M 12,12.5 12,12 12.375,11.875 12.75,11.75 12.46875,11.84375 12.1875,11.9375 12.375,11.875 q 0.1875,-0.0625 0.3125,-0.1875 l 0.125,-0.125 L 12.75,11.625 12.6875,11.6875 13,12 l 0.3125,0.3125 0.0625,-0.0625 0.0625,-0.0625 -0.125,0.125 q -0.125,0.125 -0.1875,0.3125 L 13.0625,12.8125 13.15625,12.53125 13.25,12.25 13.109375,12.640625 12.96875,13.03125 13.078125,13.046875 13.1875,13.0625 12.96875,13.03125 Q 12.75,13 12.5,13 l -0.25,0 0.375,0 0.375,0 -0.5,0 -0.5,0 0,-0.5 M 11.875,13 12,13 l 0.375,0 0.375,0 -0.25,0 q -0.25,0 -0.5,0 l -0.25,0 0.125,0"
           id="path31784"
           inkscape:connector-curvature="0" />
        <path
           style="fill:#828282;fill-opacity:1"
           d="M 13.109375,12.640625 Q 13.25,12.25 13.625,12.125 L 14,12 14.125,12.375 14.25,12.75 14.15625,12.46875 14.0625,12.1875 14.125,12.375 q 0.0625,0.1875 0.15625,0.34375 L 14.375,12.875 14.328125,12.796875 14.28125,12.71875 13.984375,13.015625 13.6875,13.3125 13.75,13.375 l 0.0625,0.0625 -0.125,-0.125 Q 13.5625,13.1875 13.375,13.125 L 13.1875,13.0625 13.46875,13.15625 13.75,13.25 13.375,13.125 13,13 13.28125,13.09375 13.5625,13.1875 13.375,13.125 Q 13.1875,13.0625 12.96875,13.03125 L 12.75,13 l 0.109375,0.01563 0.109375,0.01563 0.140625,-0.390625"
           id="path31786"
           inkscape:connector-curvature="0" />
        <path
           style="fill:#aaaaaa;fill-opacity:1"
           d="M 14.125,12.375 14,12 l 0.5,0 0.5,0 -0.375,0 -0.375,0 0.25,0 q 0.25,0 0.46875,0.03125 L 15.1875,12.0625 15.078125,12.046875 14.96875,12.03125 15.109375,12.390625 15.25,12.75 15.15625,12.46875 15.0625,12.1875 15.125,12.375 q 0.0625,0.1875 0.15625,0.34375 L 15.375,12.875 15.328125,12.796875 15.28125,12.71875 15,13 l -0.28125,0.28125 0.04687,0.07813 0.04687,0.07813 -0.09375,-0.15625 Q 14.625,13.125 14.5,13 L 14.375,12.875 14.5625,13.0625 14.75,13.25 14.5,13 q -0.25,-0.25 -0.375,-0.625"
           id="path31788"
           inkscape:connector-curvature="0" />
        <path
           style="fill:#5d5d5d;fill-opacity:0.99607843"
           d="M 15.109375,12.390625 14.96875,12.03125 14.859375,12.015625 14.75,12 14.96875,12.03125 Q 15.1875,12.0625 15.375,12.125 L 15.5625,12.1875 15.28125,12.09375 15,12 15.375,12.125 Q 15.75,12.25 16,12.5 l 0.25,0.25 -0.265625,0.265625 -0.265625,0.265625 0.04687,0.07813 0.04687,0.07813 -0.09375,-0.15625 Q 15.625,13.125 15.5,13 L 15.375,12.875 15.5625,13.0625 15.75,13.25 15.5,13 Q 15.25,12.75 15.109375,12.390625 M 16.3125,12.8125 16.25,12.75 16.0625,12.5625 15.875,12.375 16,12.5 q 0.125,0.125 0.25,0.25 l 0.125,0.125 -0.0625,-0.0625"
           id="path31790"
           inkscape:connector-curvature="0" />
        <path
           style="fill:#000000;fill-opacity:0.87058824"
           d="M 16,12.5 15.75,12.25 15.9375,12.4375 16.125,12.625 16,12.5 q -0.125,-0.125 -0.28125,-0.21875 l -0.15625,-0.09375 0.07813,0.04687 0.07813,0.04687 0.296875,-0.296875 L 16.3125,11.6875 16.25,11.625 l -0.0625,-0.0625 0.125,0.125 q 0.125,0.125 0.3125,0.1875 L 16.8125,11.9375 16.53125,11.84375 16.25,11.75 16.625,11.875 Q 17,12 17.125,12.375 L 17.25,12.75 17.15625,12.46875 17.0625,12.1875 17.125,12.375 q 0.0625,0.1875 0.1875,0.3125 l 0.125,0.125 -0.0625,-0.0625 -0.0625,-0.0625 -0.296875,0.296875 -0.296875,0.296875 0.04687,0.07813 0.04687,0.07813 -0.09375,-0.15625 Q 16.625,13.125 16.5,13 L 16.375,12.875 16.5625,13.0625 16.75,13.25 16.5,13 Q 16.25,12.75 16,12.5"
           id="path31792"
           inkscape:connector-curvature="0" />
        <path
           style="fill:#000000;fill-opacity:0.28627451"
           d="M 3.875,13.375 4,13 4.5,13 5,13 5.125,13.375 5.25,13.75 5.15625,13.46875 5.0625,13.1875 5.125,13.375 q 0.0625,0.1875 0.15625,0.34375 L 5.375,13.875 5.328125,13.796875 5.28125,13.71875 4.984375,14.015625 4.6875,14.3125 4.71875,14.34375 4.75,14.375 4.6875,14.3125 Q 4.625,14.25 4.5,14.25 l -0.125,0 0.1875,0 0.1875,0 -0.25,0 -0.25,0 0.1875,0 0.1875,0 -0.125,0 q -0.125,0 -0.1875,0.0625 L 4.25,14.375 4.28125,14.34375 4.3125,14.3125 4,14 3.6875,13.6875 3.625,13.75 3.5625,13.8125 3.6875,13.6875 Q 3.8125,13.5625 3.875,13.375 L 3.9375,13.1875 3.84375,13.46875 3.75,13.75 3.875,13.375"
           id="path31794"
           inkscape:connector-curvature="0" />
        <path
           style="fill:#0a0a0a;fill-opacity:0.96862745"
           d="M 5.125,13.375 5,13 l 0.53125,0 0.53125,0 0,-0.09375 0,-0.09375 0,0.1875 q 0,0.1875 0.0625,0.375 L 6.1875,13.5625 6.09375,13.28125 6,13 6.125,13.375 6.25,13.75 6.15625,13.46875 6.0625,13.1875 6.125,13.375 q 0.0625,0.1875 0.1875,0.3125 l 0.125,0.125 L 6.375,13.75 6.3125,13.6875 6.03125,13.96875 5.75,14.25 5.5,14 Q 5.25,13.75 5.125,13.375 M 5.5625,14.0625 5.75,14.25 5.8125,14.3125 5.875,14.375 5.75,14.25 Q 5.625,14.125 5.5,14 l -0.125,-0.125 0.1875,0.1875"
           id="path31796"
           inkscape:connector-curvature="0" />
        <path
           style="fill:#c9c9c9;fill-opacity:1"
           d="M 6.125,13.375 6,13 6.09375,13.28125 6.1875,13.5625 6.125,13.375 Q 6.0625,13.1875 6.0625,13 l 0,-0.1875 0,0.09375 L 6.0625,13 6.40625,12.875 6.75,12.75 6.46875,12.84375 6.1875,12.9375 6.375,12.875 Q 6.5625,12.8125 6.6875,12.6875 L 6.8125,12.5625 6.75,12.625 6.6875,12.6875 7,13 7.3125,13.3125 7.375,13.25 7.4375,13.1875 7.3125,13.3125 Q 7.1875,13.4375 7.125,13.625 L 7.0625,13.8125 7.15625,13.53125 7.25,13.25 7.125,13.625 7,14 6.625,13.875 q -0.375,-0.125 -0.5,-0.5"
           id="path31798"
           inkscape:connector-curvature="0" />
        <path
           style="fill:#b6b6b6;fill-opacity:1"
           d="M 7.125,13.625 Q 7.25,13.25 7.671875,13.171875 L 8.09375,13.09375 8.171875,13.046875 8.25,13 8.09375,13.09375 Q 7.9375,13.1875 7.875,13.375 L 7.8125,13.5625 7.90625,13.28125 8,13 7.875,13.375 q -0.125,0.375 -0.5,0.5 L 7,14 7.125,13.625"
           id="path31800"
           inkscape:connector-curvature="0" />
        <path
           style="fill:#242424;fill-opacity:1"
           d="M 7.875,13.375 Q 8,13 8.5,13 L 9,13 9,13.5 9,14 8.625,14.125 8.25,14.25 8.53125,14.15625 8.8125,14.0625 8.625,14.125 Q 8.4375,14.1875 8.3125,14.3125 L 8.1875,14.4375 8.25,14.375 8.3125,14.3125 8,14 7.6875,13.6875 7.625,13.75 7.5625,13.8125 7.6875,13.6875 Q 7.8125,13.5625 7.875,13.375 L 7.9375,13.1875 7.84375,13.46875 7.75,13.75 7.875,13.375"
           id="path31802"
           inkscape:connector-curvature="0" />
        <path
           style="fill:#282828;fill-opacity:1"
           d="M 9,13.5 9,13 9.375,13.125 q 0.375,0.125 0.5,0.5 L 10,14 9.5,14 9,14 9,13.5"
           id="path31804"
           inkscape:connector-curvature="0" />
        <path
           style="fill:#e6e6e6;fill-opacity:1"
           d="M 9.875,13.625 9.75,13.25 9.84375,13.53125 9.9375,13.8125 9.875,13.625 Q 9.8125,13.4375 9.6875,13.3125 L 9.5625,13.1875 9.625,13.25 9.6875,13.3125 10,13 10.3125,12.6875 10.25,12.625 l -0.0625,-0.0625 0.125,0.125 q 0.125,0.125 0.3125,0.1875 L 10.8125,12.9375 10.53125,12.84375 10.25,12.75 10.625,12.875 11,13 11,13.5 11,14 11.0625,14.5625 11.125,15.125 10.546875,15.04687 9.96875,14.96875 9.953125,15.078125 9.9375,15.1875 9.96875,14.96875 Q 10,14.75 10,14.5 l 0,-0.25 0,0.375 L 10,15 10,14.5 10,14 9.875,13.625"
           id="path31806"
           inkscape:connector-curvature="0" />
        <path
           style="fill:#aaaaaa;fill-opacity:1"
           d="m 11,13.5 0,-0.5 0.5,0 0.5,0 0.125,0.375 0.125,0.375 -0.09375,-0.28125 -0.09375,-0.28125 0.0625,0.1875 q 0.0625,0.1875 0.1875,0.3125 l 0.125,0.125 L 12.375,13.75 12.3125,13.6875 12,14 l -0.3125,0.3125 0.0625,0.0625 0.0625,0.0625 -0.125,-0.125 Q 11.5625,14.1875 11.375,14.125 L 11.1875,14.0625 11.46875,14.15625 11.75,14.25 11.375,14.125 11,14 11,13.5 M 12.125,13 12,13 l -0.375,0 -0.375,0 0.25,0 q 0.25,0 0.5,0 l 0.25,0 -0.125,0"
           id="path31808"
           inkscape:connector-curvature="0" />
        <path
           style="fill:#f3f3f3;fill-opacity:1"
           d="M 12.125,13.375 12,13 l 0.5,0 0.5,0 0.04687,0.546875 0.04687,0.546875 -0.421875,-0.171875 Q 12.25,13.75 12.125,13.375 M 12.375,13 12,13 11.875,13 11.75,13 12,13 q 0.25,0 0.5,0 l 0.25,0 -0.375,0"
           id="path31810"
           inkscape:connector-curvature="0" />
        <path
           style="fill:#ffffff;fill-opacity:1"
           d="M 13.046875,13.546875 13,13 l 0.375,0.125 q 0.375,0.125 0.5,0.5 L 14,14 l -0.5,0 -0.5,0 0.375,0 0.375,0 -0.25,0 q -0.25,0 -0.40625,0.09375 l -0.15625,0.09375 0.07813,-0.04687 0.07813,-0.04687 -0.04687,-0.546875 M 13.625,14 14,14 14.125,14 14.25,14 14,14 q -0.25,0 -0.5,0 l -0.25,0 0.375,0"
           id="path31812"
           inkscape:connector-curvature="0" />
        <path
           style="fill:#afafaf;fill-opacity:1"
           d="M 13.875,13.625 13.75,13.25 13.84375,13.53125 13.9375,13.8125 13.875,13.625 q -0.0625,-0.1875 -0.1875,-0.3125 l -0.125,-0.125 0.0625,0.0625 0.0625,0.0625 0.296875,-0.296875 0.296875,-0.296875 -0.04687,-0.07813 -0.04687,-0.07813 0.09375,0.15625 Q 14.375,12.875 14.5,13 L 14.625,13.125 14.4375,12.9375 14.25,12.75 14.5,13 q 0.25,0.25 0.375,0.625 L 15,14 14.5,14 14,14 13.875,13.625 m 0,0.375 0.125,0 0.375,0 0.375,0 -0.25,0 q -0.25,0 -0.5,0 l -0.25,0 0.125,0"
           id="path31814"
           inkscape:connector-curvature="0" />
        <path
           style="fill:#b4b4b4;fill-opacity:1"
           d="M 14.875,13.625 14.75,13.25 14.84375,13.53125 14.9375,13.8125 14.875,13.625 Q 14.8125,13.4375 14.71875,13.28125 L 14.625,13.125 14.67187,13.20313 14.71874,13.28126 15,13 l 0.28125,-0.28125 -0.04687,-0.07813 -0.04687,-0.07813 0.09375,0.15625 Q 15.375,12.875 15.5,13 L 15.625,13.125 15.4375,12.9375 15.25,12.75 15.5,13 q 0.25,0.25 0.375,0.625 L 16,14 15.5,14 15,14 14.875,13.625"
           id="path31816"
           inkscape:connector-curvature="0" />
        <path
           style="fill:#6f6f6f;fill-opacity:1"
           d="M 15.875,13.625 15.75,13.25 15.84375,13.53125 15.9375,13.8125 15.875,13.625 Q 15.8125,13.4375 15.71875,13.28125 L 15.625,13.125 l 0.04687,0.07813 0.04687,0.07813 0.265625,-0.265625 L 16.25,12.75 16.5,13 q 0.25,0.25 0.375,0.625 L 17,14 16.90625,13.71875 16.8125,13.4375 16.875,13.625 q 0.0625,0.1875 0.09375,0.40625 L 17,14.25 16.984375,14.140625 16.96875,14.03125 16.484375,14.015625 16,14 15.875,13.625 M 16.4375,12.9375 16.25,12.75 16.1875,12.6875 16.125,12.625 16.25,12.75 q 0.125,0.125 0.25,0.25 l 0.125,0.125 -0.1875,-0.1875"
           id="path31818"
           inkscape:connector-curvature="0" />
        <path
           style="fill:#000000;fill-opacity:0.74901961"
           d="M 16.875,13.625 16.75,13.25 16.84375,13.53125 16.9375,13.8125 16.875,13.625 Q 16.8125,13.4375 16.71875,13.28125 L 16.625,13.125 l 0.04687,0.07813 0.04687,0.07813 0.296875,-0.296875 L 17.3125,12.6875 17.25,12.625 l -0.0625,-0.0625 0.125,0.125 q 0.125,0.125 0.3125,0.1875 L 17.8125,12.9375 17.53125,12.84375 17.25,12.75 17.625,12.875 Q 18,13 18,13.5 l 0,0.5 -0.5,0 -0.5,0 -0.125,-0.375"
           id="path31820"
           inkscape:connector-curvature="0" />
        <path
           style="fill:#000000;fill-opacity:0.22745098"
           d="M 3,14.5 Q 3,14 3.375,13.875 L 3.75,13.75 3.46875,13.84375 3.1875,13.9375 3.375,13.875 Q 3.5625,13.8125 3.6875,13.6875 L 3.8125,13.5625 3.75,13.625 3.6875,13.6875 4,14 4.3125,14.3125 4.34375,14.28125 4.375,14.25 4.3125,14.3125 Q 4.25,14.375 4.25,14.5 l 0,0.125 0,-0.1875 0,-0.1875 0,0.25 0,0.25 0,-0.1875 0,-0.1875 0,0.125 q 0,0.125 0.0625,0.1875 L 4.375,14.75 4.34375,14.71875 4.3125,14.6875 4,15 3.6875,15.3125 3.75,15.375 3.8125,15.4375 3.6875,15.3125 Q 3.5625,15.1875 3.375,15.125 L 3.1875,15.0625 3.46875,15.15625 3.75,15.25 3.375,15.125 3,15 3,14.5"
           id="path31822"
           inkscape:connector-curvature="0" />
        <path
           style="fill:#373737;fill-opacity:0.56078425"
           d="m 4.25,14.5 q 0,-0.25 0.25,-0.25 0.25,0 0.25,0.25 0,0.25 -0.25,0.25 -0.25,0 -0.25,-0.25"
           id="path31824"
           inkscape:connector-curvature="0" />
        <path
           style="fill:#0f0f0f;fill-opacity:0.82745098"
           d="m 4.75,14.5 0,-0.25 0,0.1875 0,0.1875 0,-0.125 q 0,-0.125 -0.0625,-0.1875 L 4.625,14.25 4.65625,14.28125 4.6875,14.3125 4.984375,14.015625 5.28125,13.71875 5.234375,13.640625 5.1875,13.5625 5.28125,13.71875 Q 5.375,13.875 5.5,14 L 5.625,14.125 5.4375,13.9375 5.25,13.75 5.5,14 Q 5.75,14.25 6,14.5 L 6.25,14.75 6.0625,14.5625 5.875,14.375 6,14.5 q 0.125,0.125 0.28125,0.21875 L 6.4375,14.8125 6.359375,14.765625 6.28125,14.71875 5.984375,15.015625 5.6875,15.3125 5.71875,15.34375 5.75,15.375 5.6875,15.3125 Q 5.625,15.25 5.5,15.25 l -0.125,0 0.1875,0 0.1875,0 -0.25,0 -0.25,0 0.1875,0 0.1875,0 -0.125,0 q -0.125,0 -0.1875,0.0625 L 5.25,15.375 5.28125,15.34375 5.3125,15.3125 5,15 4.6875,14.6875 4.65625,14.71875 4.625,14.75 4.6875,14.6875 Q 4.75,14.625 4.75,14.5 l 0,-0.125 0,0.1875 0,0.1875 0,-0.25"
           id="path31826"
           inkscape:connector-curvature="0" />
        <path
           style="fill:#000000;fill-opacity:0.96862745"
           d="M 6,14.5 5.75,14.25 6.03125,13.96875 6.3125,13.6875 6.25,13.625 6.1875,13.5625 l 0.125,0.125 q 0.125,0.125 0.3125,0.1875 L 6.8125,13.9375 6.53125,13.84375 6.25,13.75 6.625,13.875 7,14 7,14.5 7,15 6.625,14.875 Q 6.25,14.75 6,14.5 M 5.6875,14.1875 5.75,14.25 5.9375,14.4375 6.125,14.625 6,14.5 Q 5.875,14.375 5.75,14.25 l -0.125,-0.125 0.0625,0.0625"
           id="path31828"
           inkscape:connector-curvature="0" />
        <path
           style="fill:#000000;fill-opacity:0.91764706"
           d="M 7,14.5 7,14 7.375,13.875 7.75,13.75 7.46875,13.84375 7.1875,13.9375 7.375,13.875 Q 7.5625,13.8125 7.6875,13.6875 L 7.8125,13.5625 7.75,13.625 7.6875,13.6875 8,14 8.3125,14.3125 8.375,14.25 8.4375,14.1875 8.3125,14.3125 Q 8.1875,14.4375 8.125,14.625 L 8.0625,14.8125 8.15625,14.53125 8.25,14.25 8.125,14.625 8,15 7.5,15 7,15 7,14.5"
           id="path31830"
           inkscape:connector-curvature="0" />
        <path
           style="fill:#000000;fill-opacity:0.2627451"
           d="m 8.125,14.625 q 0.125,-0.375 0.5,-0.5 L 9,14 8.875,14.375 q -0.125,0.375 -0.5,0.5 L 8,15 8.125,14.625"
           id="path31832"
           inkscape:connector-curvature="0" />
        <path
           style="fill:#000000;fill-opacity:0.99607843"
           d="M 8.875,14.375 9,14 l 0.5,0 0.5,0 0,0.5 0,0.5 0,-0.375 0,-0.375 0,0.25 q 0,0.25 -0.03125,0.46875 L 9.9375,15.1875 9.953125,15.078125 9.96875,14.96875 9.609375,15.109375 9.25,15.25 9.53125,15.15625 9.8125,15.0625 9.625,15.125 Q 9.4375,15.1875 9.3125,15.3125 L 9.1875,15.4375 9.25,15.375 9.3125,15.3125 9,15 8.6875,14.6875 8.625,14.75 8.5625,14.8125 8.6875,14.6875 Q 8.8125,14.5625 8.875,14.375 L 8.9375,14.1875 8.84375,14.46875 8.75,14.75 8.875,14.375"
           id="path31834"
           inkscape:connector-curvature="0" />
        <path
           style="fill:#b4b4b4;fill-opacity:1"
           d="M 11.0625,14.5625 11,14 l 0.375,0.125 q 0.375,0.125 0.5,0.5 L 12,15 l -0.5,0 -0.5,0 0.375,0 0.375,0 -0.25,0 q -0.25,0 -0.375,0.125 L 11,15.25 11.0625,15.1875 11.125,15.125 11.0625,14.5625"
           id="path31836"
           inkscape:connector-curvature="0" />
        <path
           style="fill:#959595;fill-opacity:1"
           d="M 11.875,14.625 11.75,14.25 11.84375,14.53125 11.9375,14.8125 11.875,14.625 q -0.0625,-0.1875 -0.1875,-0.3125 l -0.125,-0.125 0.0625,0.0625 0.0625,0.0625 L 12,14 12.3125,13.6875 12.25,13.625 l -0.0625,-0.0625 0.125,0.125 q 0.125,0.125 0.3125,0.1875 L 12.8125,13.9375 12.53125,13.84375 12.25,13.75 12.671875,13.921875 13.09375,14.09375 13.17188,14.04688 13.25,14 13.09375,14.09375 Q 12.9375,14.1875 12.875,14.375 L 12.8125,14.5625 12.90625,14.28125 13,14 12.875,14.375 q -0.125,0.375 -0.5,0.5 L 12,15 11.875,14.625"
           id="path31838"
           inkscape:connector-curvature="0" />
        <path
           style="fill:#262626;fill-opacity:1"
           d="M 12.875,14.375 Q 13,14 13.5,14 l 0.5,0 0,0.5 0,0.5 -0.375,0.125 -0.375,0.125 0.28125,-0.09375 0.28125,-0.09375 -0.1875,0.0625 q -0.1875,0.0625 -0.28125,0.15625 L 13.25,15.375 13.296875,15.328125 13.34375,15.28125 13.015625,14.984375 12.6875,14.6875 12.625,14.75 l -0.0625,0.0625 0.125,-0.125 q 0.125,-0.125 0.1875,-0.3125 L 12.9375,14.1875 12.84375,14.46875 12.75,14.75 12.875,14.375 M 14.125,14 14,14 l -0.375,0 -0.375,0 0.25,0 q 0.25,0 0.5,0 l 0.25,0 -0.125,0"
           id="path31840"
           inkscape:connector-curvature="0" />
        <path
           style="fill:#000000;fill-opacity:0.97647059"
           d="m 14,14.5 0,-0.5 0.5,0 0.5,0 0,0.5 0,0.5 -0.5,0 -0.5,0 0,-0.5 M 14.375,14 14,14 13.875,14 13.75,14 14,14 q 0.25,0 0.5,0 l 0.25,0 -0.375,0"
           id="path31842"
           inkscape:connector-curvature="0" />
        <path
           style="fill:#161616;fill-opacity:1"
           d="m 15,14.5 0,-0.5 0.5,0 0.5,0 0,0.5 Q 16,15 15.5,15 l -0.5,0 0,-0.5"
           id="path31844"
           inkscape:connector-curvature="0" />
        <path
           style="fill:#f5f5f5;fill-opacity:1"
           d="m 16,14.5 0,-0.5 0.484375,0.01563 0.484375,0.01563 -0.01563,-0.109375 -0.01563,-0.109375 0.03125,0.21875 Q 17,14.25 17,14.5 l 0,0.25 0,-0.375 L 17,14 17,14.5 17,15 16.4375,14.9375 15.875,14.875 15.8125,14.9375 15.75,15 15.875,14.875 Q 16,14.75 16,14.5 l 0,-0.25 0,0.375 0,0.375 0,-0.5"
           id="path31846"
           inkscape:connector-curvature="0" />
        <path
           style="fill:#1c1c1c;fill-opacity:1"
           d="m 17,14.5 0,-0.5 0.5,0 0.5,0 0,0.5 0,0.5 -0.5,0 -0.5,0 0,-0.5"
           id="path31848"
           inkscape:connector-curvature="0" />
        <path
           style="fill:#000000;fill-opacity:0.20784314"
           d="m 18,14.5 0,-0.5 0.5,0 q 0.5,0 0.5,0.5 l 0,0.5 -0.5,0 -0.5,0 0,-0.5"
           id="path31850"
           inkscape:connector-curvature="0" />
        <path
           style="fill:#000000;fill-opacity:0.18823529"
           d="M 3,15.5 3,15 3.375,15.125 q 0.375,0.125 0.5,0.5 L 4,16 3.5,16 Q 3,16 3,15.5"
           id="path31852"
           inkscape:connector-curvature="0" />
        <path
           style="fill:#1d1d1d;fill-opacity:0.85098039"
           d="M 3.875,15.625 3.75,15.25 3.84375,15.53125 3.9375,15.8125 3.875,15.625 Q 3.8125,15.4375 3.6875,15.3125 L 3.5625,15.1875 3.625,15.25 3.6875,15.3125 4,15 4.3125,14.6875 4.28125,14.65625 4.25,14.625 4.3125,14.6875 Q 4.375,14.75 4.5,14.75 l 0.125,0 -0.1875,0 -0.1875,0 0.25,0 0.25,0 -0.1875,0 -0.1875,0 0.125,0 q 0.125,0 0.1875,-0.0625 L 4.75,14.625 4.71875,14.65625 4.6875,14.6875 5,15 5.3125,15.3125 5.34375,15.28125 5.375,15.25 5.3125,15.3125 Q 5.25,15.375 5.25,15.5 l 0,0.125 0,-0.1875 0,-0.1875 0,0.25 0,0.25 0,-0.1875 0,-0.1875 0,0.125 q 0,0.125 0.0625,0.1875 L 5.375,15.75 5.34375,15.71875 5.3125,15.6875 5,16 4.6875,16.3125 4.75,16.375 4.8125,16.4375 4.6875,16.3125 Q 4.5625,16.1875 4.375,16.125 L 4.1875,16.0625 4.46875,16.15625 4.75,16.25 4.375,16.125 4,16 3.875,15.625"
           id="path31854"
           inkscape:connector-curvature="0" />
        <path
           style="fill:#797979;fill-opacity:0.96470588"
           d="m 5.25,15.5 q 0,-0.25 0.25,-0.25 0.25,0 0.25,0.25 0,0.25 -0.25,0.25 -0.25,0 -0.25,-0.25"
           id="path31856"
           inkscape:connector-curvature="0" />
        <path
           style="fill:#212121;fill-opacity:0.98823529"
           d="m 5.75,15.5 0,-0.25 0,0.1875 0,0.1875 0,-0.125 q 0,-0.125 -0.0625,-0.1875 L 5.625,15.25 5.65625,15.28125 5.6875,15.3125 5.984375,15.015625 6.28125,14.71875 6.203125,14.671875 6.125,14.625 6.28125,14.71875 Q 6.4375,14.8125 6.625,14.875 L 6.8125,14.9375 6.53125,14.84375 6.25,14.75 6.625,14.875 7,15 7,15.5 7,16 6.625,16.125 6.25,16.25 6.53125,16.15625 6.8125,16.0625 6.625,16.125 Q 6.4375,16.1875 6.34375,16.28125 L 6.25,16.375 6.296875,16.328125 6.34375,16.28125 6.015625,15.984375 5.6875,15.6875 5.65625,15.71875 5.625,15.75 5.6875,15.6875 Q 5.75,15.625 5.75,15.5 l 0,-0.125 0,0.1875 0,0.1875 0,-0.25"
           id="path31858"
           inkscape:connector-curvature="0" />
        <path
           style="fill:#000000;fill-opacity:0.82352941"
           d="M 7,15.5 7,15 7.5,15 8,15 8,15.5 8,16 7.5,16 7,16 7,15.5"
           id="path31860"
           inkscape:connector-curvature="0" />
        <path
           style="fill:#000000;fill-opacity:0.92156863"
           d="M 8,15.5 8,15 8.375,14.875 8.75,14.75 8.46875,14.84375 8.1875,14.9375 8.375,14.875 Q 8.5625,14.8125 8.6875,14.6875 L 8.8125,14.5625 8.75,14.625 8.6875,14.6875 9,15 9.3125,15.3125 9.375,15.25 9.4375,15.1875 9.3125,15.3125 Q 9.1875,15.4375 9.125,15.625 L 9.0625,15.8125 9.15625,15.53125 9.25,15.25 9.125,15.625 9,16 8.5,16 8,16 8,15.5"
           id="path31862"
           inkscape:connector-curvature="0" />
        <path
           style="fill:#595959;fill-opacity:1"
           d="M 9.125,15.625 Q 9.25,15.25 9.609375,15.109375 L 9.96875,14.96875 9.984375,14.859375 10,14.75 9.96875,14.96875 Q 9.9375,15.1875 9.875,15.375 L 9.8125,15.5625 9.90625,15.28125 10,15 9.875,15.375 q -0.125,0.375 -0.5,0.5 L 9,16 9.125,15.625"
           id="path31864"
           inkscape:connector-curvature="0" />
        <path
           style="fill:#ffffff;fill-opacity:1"
           d="M 9.875,15.375 10,15 9.90625,15.28125 9.8125,15.5625 9.875,15.375 Q 9.9375,15.1875 9.96875,14.96875 L 10,14.75 9.984375,14.859375 9.96875,14.96875 10.546875,15.046875 11.125,15.125 11.1875,15.0625 11.25,15 11.125,15.125 Q 11,15.25 11,15.5 l 0,0.25 0,-0.375 0,-0.375 0,0.5 0,0.5 0,-0.375 0,-0.375 0,0.25 q 0,0.25 -0.03125,0.46875 l -0.03125,0.21875 0.01563,-0.109375 0.01563,-0.109375 -0.359375,0.140625 Q 10.25,16.25 10,16.5 9.75,16.75 9.5,16.75 9.25,16.75 9.125,16.375 L 9,16 9.375,15.875 q 0.375,-0.125 0.5,-0.5"
           id="path31866"
           inkscape:connector-curvature="0" />
        <path
           style="fill:#212121;fill-opacity:1"
           d="M 11,15.5 Q 11,15 11.5,15 l 0.5,0 0,0.5 0,0.5 -0.515625,-0.01563 -0.515625,-0.01563 -0.01563,0.109375 -0.01563,0.109375 0.03125,-0.21875 Q 11,15.75 11,15.5 l 0,-0.25 0,0.375 0,0.375 0,-0.5"
           id="path31868"
           inkscape:connector-curvature="0" />
        <path
           style="fill:#000000;fill-opacity:0.9372549"
           d="M 12,15.5 12,15 12.375,14.875 12.75,14.75 12.46875,14.84375 12.1875,14.9375 12.375,14.875 q 0.1875,-0.0625 0.3125,-0.1875 l 0.125,-0.125 -0.0625,0.0625 -0.0625,0.0625 0.328125,0.296875 0.328125,0.296875 0.04687,-0.04687 0.04687,-0.04687 -0.09375,0.09375 Q 13.25,15.375 13.25,15.5 l 0,0.125 0,-0.1875 0,-0.1875 0,0.25 0,0.25 0,-0.1875 0,-0.1875 0,0.125 q 0,0.125 0.09375,0.21875 l 0.09375,0.09375 -0.04687,-0.04687 -0.04687,-0.04687 -0.328125,0.296875 -0.328125,0.296875 0.0625,0.0625 0.0625,0.0625 -0.125,-0.125 Q 12.5625,16.1875 12.375,16.125 L 12.1875,16.0625 12.46875,16.15625 12.75,16.25 12.375,16.125 12,16 12,15.5"
           id="path31870"
           inkscape:connector-curvature="0" />
        <path
           style="fill:#525252;fill-opacity:0.95294118"
           d="m 13.25,15.5 q 0,-0.25 0.375,-0.375 L 14,15 14,15.5 14,16 13.625,15.875 Q 13.25,15.75 13.25,15.5"
           id="path31872"
           inkscape:connector-curvature="0" />
        <path
           style="fill:#656565;fill-opacity:0.99607843"
           d="m 14,15.5 0,-0.5 0.5,0 0.5,0 -0.125,0.375 q -0.125,0.375 -0.5,0.5 L 14,16 14,15.5 M 15.125,15 15,15 l -0.375,0 -0.375,0 0.25,0 q 0.25,0 0.5,0 l 0.25,0 -0.125,0"
           id="path31874"
           inkscape:connector-curvature="0" />
        <path
           style="fill:#a6a6a6;fill-opacity:1"
           d="M 14.875,15.375 15,15 l 0.5,0 0.5,0 -0.375,0 -0.375,0 0.25,0 q 0.25,0 0.375,-0.125 L 16,14.75 15.9375,14.8125 15.875,14.875 15.8125,15.3125 Q 15.75,15.75 15.5,16 L 15.25,16.25 15.4375,16.0625 15.625,15.875 15.5,16 q -0.125,0.125 -0.21875,0.28125 L 15.1875,16.4375 15.23437,16.35937 15.28124,16.28124 14.984375,15.984375 14.6875,15.6875 14.625,15.75 l -0.0625,0.0625 0.125,-0.125 q 0.125,-0.125 0.1875,-0.3125 L 14.9375,15.1875 14.84375,15.46875 14.75,15.75 14.875,15.375 M 15.375,15 15,15 14.875,15 14.75,15 15,15 q 0.25,0 0.5,0 l 0.25,0 -0.375,0"
           id="path31876"
           inkscape:connector-curvature="0" />
        <path
           style="fill:#ffffff;fill-opacity:1"
           d="M 15.8125,15.3125 15.875,14.875 16.4375,14.9375 17,15 l 0,0.5 0,0.5 0,-0.375 0,-0.375 0,0.25 q 0,0.25 -0.03125,0.46875 L 16.9375,16.1875 16.953125,16.078125 16.96875,15.96875 16.609375,16.109375 16.25,16.25 16.53125,16.15625 16.8125,16.0625 16.625,16.125 q -0.1875,0.0625 -0.3125,0.1875 l -0.125,0.125 L 16.25,16.375 16.3125,16.3125 16.015625,16.015625 15.71875,15.71875 15.671875,15.796875 15.625,15.875 15.71875,15.71875 Q 15.8125,15.5625 15.875,15.375 L 15.9375,15.1875 15.84375,15.46875 15.75,15.75 15.8125,15.3125"
           id="path31878"
           inkscape:connector-curvature="0" />
        <path
           style="fill:#191919;fill-opacity:1"
           d="m 17,15.5 0,-0.5 0.5,0 0.5,0 0,0.5 0,0.5 -0.5,0 -0.5,0 0,-0.5"
           id="path31880"
           inkscape:connector-curvature="0" />
        <path
           style="fill:#000000;fill-opacity:0.18823529"
           d="m 18,15.5 0,-0.5 0.5,0 0.5,0 0,0.5 Q 19,16 18.5,16 l -0.5,0 0,-0.5"
           id="path31882"
           inkscape:connector-curvature="0" />
        <path
           style="fill:#000000;fill-opacity:0.42352941"
           d="M 4,16.5 4,16 4.375,16.125 q 0.375,0.125 0.5,0.5 L 5,17 4.5,17 Q 4,17 4,16.5"
           id="path31884"
           inkscape:connector-curvature="0" />
        <path
           style="fill:#282828;fill-opacity:0.98823529"
           d="M 4.875,16.625 4.75,16.25 4.84375,16.53125 4.9375,16.8125 4.875,16.625 Q 4.8125,16.4375 4.6875,16.3125 L 4.5625,16.1875 4.625,16.25 4.6875,16.3125 5,16 5.3125,15.6875 5.28125,15.65625 5.25,15.625 5.3125,15.6875 Q 5.375,15.75 5.5,15.75 l 0.125,0 -0.1875,0 -0.1875,0 0.25,0 0.25,0 -0.1875,0 -0.1875,0 0.125,0 q 0.125,0 0.1875,-0.0625 L 5.75,15.625 5.71875,15.65625 5.6875,15.6875 6.015625,15.984375 6.34375,16.28125 6.390625,16.234375 6.4375,16.1875 6.34375,16.28125 Q 6.25,16.375 6.25,16.5 l 0,0.125 0,-0.1875 0,-0.1875 0,0.25 0,0.25 0,-0.1875 0,-0.1875 0,0.125 q 0,0.125 0.0625,0.25 L 6.375,16.875 6.34375,16.8125 6.3125,16.75 6,17.03125 5.6875,17.3125 5.75,17.375 5.8125,17.4375 5.6875,17.3125 Q 5.5625,17.1875 5.375,17.125 L 5.1875,17.0625 5.46875,17.15625 5.75,17.25 5.375,17.125 5,17 4.875,16.625"
           id="path31886"
           inkscape:connector-curvature="0" />
        <path
           style="fill:#b1b1b1;fill-opacity:1"
           d="m 6.25,16.5 q 0,-0.25 0.375,-0.375 L 7,16 7.125,16.375 7.25,16.75 7.15625,16.46875 7.0625,16.1875 7.125,16.375 q 0.0625,0.1875 0.15625,0.28125 L 7.375,16.75 7.328125,16.703125 7.28125,16.65625 7.015625,16.953125 6.75,17.25 6.5,17 Q 6.25,16.75 6.25,16.5 M 6.5625,17.0625 6.75,17.25 6.8125,17.3125 6.875,17.375 6.75,17.25 Q 6.625,17.125 6.5,17 l -0.125,-0.125 0.1875,0.1875"
           id="path31888"
           inkscape:connector-curvature="0" />
        <path
           style="fill:#838383;fill-opacity:1"
           d="M 7.125,16.375 7,16 7.5,16 8,16 7.875,16.375 Q 7.75,16.75 7.5,16.75 q -0.25,0 -0.375,-0.375"
           id="path31890"
           inkscape:connector-curvature="0" />
        <path
           style="fill:#929292;fill-opacity:1"
           d="M 7.875,16.375 8,16 8.5,16 9,16 9.125,16.375 Q 9.25,16.75 9.5,16.75 l 0.25,0 -0.1875,0 -0.1875,0 0.125,0 q 0.125,0 0.25,-0.0625 L 9.875,16.625 9.8125,16.65625 9.75,16.6875 10,16.96875 10.25,17.25 10,17.5 Q 9.75,17.75 9.375,17.875 L 9,18 9.28125,17.90625 9.5625,17.8125 9.375,17.875 Q 9.1875,17.9375 8.96875,17.96875 L 8.75,18 8.859375,17.984375 8.96875,17.96875 8.859375,17.609375 Q 8.75,17.25 8.5,17.25 l -0.25,0 0.1875,0 0.1875,0 -0.125,0 q -0.125,0 -0.21875,0.09375 L 8.1875,17.4375 8.234375,17.390625 8.28125,17.34375 8,17 7.71875,16.65625 7.671875,16.703125 7.625,16.75 7.71875,16.65625 Q 7.8125,16.5625 7.875,16.375 L 7.9375,16.1875 7.84375,16.46875 7.75,16.75 7.875,16.375 M 10.0625,17.4375 10.25,17.25 10.3125,17.1875 10.375,17.125 10.25,17.25 Q 10.125,17.375 10,17.5 l -0.125,0.125 0.1875,-0.1875"
           id="path31892"
           inkscape:connector-curvature="0" />
        <path
           style="fill:#bebebe;fill-opacity:1"
           d="m 10,16.5 q 0.25,-0.25 0.609375,-0.390625 L 10.96875,15.96875 10.984375,15.859375 11,15.75 10.96875,15.96875 Q 10.9375,16.1875 10.875,16.375 L 10.8125,16.5625 10.90625,16.28125 11,16 10.875,16.375 Q 10.75,16.75 10.5,17 L 10.25,17.25 10,16.96875 9.75,16.6875 9.6875,16.71875 9.625,16.75 9.75,16.6875 Q 9.875,16.625 10,16.5 L 10.125,16.375 9.9375,16.5625 9.75,16.75 10,16.5 M 10.1875,17.3125 10.25,17.25 10.4375,17.0625 10.625,16.875 10.5,17 q -0.125,0.125 -0.25,0.25 l -0.125,0.125 0.0625,-0.0625"
           id="path31894"
           inkscape:connector-curvature="0" />
        <path
           style="fill:#050505;fill-opacity:0.95294118"
           d="M 10.875,16.375 11,16 10.90625,16.28125 10.8125,16.5625 10.875,16.375 q 0.0625,-0.1875 0.09375,-0.40625 L 11,15.75 10.98437,15.859375 10.96874,15.96875 11.484365,15.98438 12,16 12,16.5 12,17 11.625,17.125 11.25,17.25 11.53125,17.15625 11.8125,17.0625 11.625,17.125 q -0.1875,0.0625 -0.3125,0.1875 l -0.125,0.125 L 11.25,17.375 11.3125,17.3125 11.015625,17.015625 10.71875,16.71875 10.671875,16.796875 10.625,16.875 10.71875,16.71875 Q 10.8125,16.5625 10.875,16.375 L 10.9375,16.1875 10.84375,16.46875 10.75,16.75 10.875,16.375"
           id="path31896"
           inkscape:connector-curvature="0" />
        <path
           style="fill:#000000;fill-opacity:0.17254902"
           d="m 12,16.5 0,-0.5 0.375,0.125 q 0.375,0.125 0.5,0.5 L 13,17 12.5,17 12,17 12,16.5"
           id="path31898"
           inkscape:connector-curvature="0" />
        <path
           style="fill:#131313;fill-opacity:0.94509804"
           d="M 12.875,16.625 12.75,16.25 12.84375,16.53125 12.9375,16.8125 12.875,16.625 q -0.0625,-0.1875 -0.1875,-0.3125 l -0.125,-0.125 0.0625,0.0625 0.0625,0.0625 0.328125,-0.296875 L 13.34375,15.71875 13.29688,15.67188 13.25,15.625 13.34375,15.71875 Q 13.4375,15.8125 13.625,15.875 L 13.8125,15.9375 13.53125,15.84375 13.25,15.75 13.625,15.875 14,16 13.71875,15.90625 13.4375,15.8125 13.625,15.875 q 0.1875,0.0625 0.375,0.0625 l 0.1875,0 -0.09375,0 -0.09375,0 0.125,0.40625 L 14.25,16.75 14.15625,16.46875 14.0625,16.1875 14.125,16.375 q 0.0625,0.1875 0.1875,0.3125 l 0.125,0.125 L 14.375,16.75 14.3125,16.6875 14,17 l -0.3125,0.3125 0.0625,0.0625 0.0625,0.0625 -0.125,-0.125 Q 13.5625,17.1875 13.375,17.125 L 13.1875,17.0625 13.46875,17.15625 13.75,17.25 13.375,17.125 13,17 12.875,16.625"
           id="path31900"
           inkscape:connector-curvature="0" />
        <path
           style="fill:#9b9b9b;fill-opacity:1"
           d="M 14.125,16.34375 14,15.9375 l -0.09375,0 -0.09375,0 0.1875,0 q 0.1875,0 0.375,-0.0625 L 14.5625,15.8125 14.28125,15.90625 14,16 14.375,15.875 14.75,15.75 14.46875,15.84375 14.1875,15.9375 14.375,15.875 q 0.1875,-0.0625 0.3125,-0.1875 l 0.125,-0.125 -0.0625,0.0625 -0.0625,0.0625 0.296875,0.296875 0.296875,0.296875 0.04687,-0.07813 L 15.375,16.125 15.28125,16.28125 Q 15.1875,16.4375 15.125,16.625 L 15.0625,16.8125 15.15625,16.53125 15.25,16.25 15.140625,16.609375 15.03125,16.96875 15.140625,16.984375 15.25,17 15.03125,16.96875 Q 14.8125,16.9375 14.625,16.875 L 14.4375,16.8125 14.71875,16.90625 15,17 14.625,16.875 q -0.375,-0.125 -0.5,-0.53125"
           id="path31902"
           inkscape:connector-curvature="0" />
        <path
           style="fill:#e9e9e9;fill-opacity:1"
           d="M 15.140625,16.609375 Q 15.25,16.25 15.5,16 L 15.75,15.75 15.5625,15.9375 15.375,16.125 15.5,16 q 0.125,-0.125 0.21875,-0.28125 l 0.09375,-0.15625 -0.04687,0.07813 -0.04687,0.07813 0.296875,0.296875 0.296875,0.296875 0.0625,-0.0625 0.0625,-0.0625 -0.125,0.125 q -0.125,0.125 -0.1875,0.3125 L 16.0625,16.8125 16.15625,16.53125 16.25,16.25 16.109375,16.609375 15.96875,16.96875 16.078125,16.953125 16.1875,16.9375 15.96875,16.96875 Q 15.75,17 15.5,17 l -0.25,0 0.375,0 0.375,0 -0.5,0 -0.5,0 0.375,0 0.375,0 -0.25,0 q -0.25,0 -0.46875,-0.03125 l -0.21875,-0.03125 0.109375,0.01563 0.109375,0.01563 0.109375,-0.359375"
           id="path31904"
           inkscape:connector-curvature="0" />
        <path
           style="fill:#727272;fill-opacity:1"
           d="m 16.109375,16.609375 q 0.140625,-0.359375 0.5,-0.5 L 16.96875,15.96875 16.984375,15.859375 17,15.75 16.96875,15.96875 Q 16.9375,16.1875 16.875,16.375 L 16.8125,16.5625 16.90625,16.28125 17,16 16.875,16.375 q -0.125,0.375 -0.5,0.5 L 16,17 16.28125,16.90625 16.5625,16.8125 16.375,16.875 q -0.1875,0.0625 -0.40625,0.09375 L 15.75,17 l 0.109375,-0.01563 0.109375,-0.01563 0.140625,-0.359375"
           id="path31906"
           inkscape:connector-curvature="0" />
        <path
           style="fill:#000000;fill-opacity:0.75294118"
           d="M 16.875,16.375 17,16 l 0.5,0 0.5,0 0,0.5 q 0,0.5 -0.375,0.625 L 17.25,17.25 17.53125,17.15625 17.8125,17.0625 17.625,17.125 q -0.1875,0.0625 -0.3125,0.1875 l -0.125,0.125 L 17.25,17.375 17.3125,17.3125 17,17 16.6875,16.6875 16.625,16.75 l -0.0625,0.0625 0.125,-0.125 q 0.125,-0.125 0.1875,-0.3125 L 16.9375,16.1875 16.84375,16.46875 16.75,16.75 16.875,16.375"
           id="path31908"
           inkscape:connector-curvature="0" />
        <path
           style="fill:#000000;fill-opacity:0.42745098"
           d="M 5,17.5 5,17 5.375,17.125 q 0.375,0.125 0.5,0.5 L 6,18 5.5,18 Q 5,18 5,17.5"
           id="path31910"
           inkscape:connector-curvature="0" />
        <path
           style="fill:#1a1a1a;fill-opacity:0.98823529"
           d="M 5.875,17.625 5.75,17.25 5.84375,17.53125 5.9375,17.8125 5.875,17.625 Q 5.8125,17.4375 5.6875,17.3125 L 5.5625,17.1875 5.625,17.25 5.6875,17.3125 6,17.03125 6.3125,16.75 6.28125,16.6875 6.25,16.625 6.3125,16.75 Q 6.375,16.875 6.5,17 L 6.625,17.125 6.4375,16.9375 6.25,16.75 6.5,17 Q 6.75,17.25 7,17.5 L 7.25,17.75 7.0625,17.5625 6.875,17.375 7,17.5 q 0.125,0.125 0.28125,0.21875 L 7.4375,17.8125 7.359375,17.765625 7.28125,17.71875 6.984375,18.015625 6.6875,18.3125 6.75,18.375 6.8125,18.4375 6.6875,18.3125 Q 6.5625,18.1875 6.375,18.125 L 6.1875,18.0625 6.46875,18.15625 6.75,18.25 6.375,18.125 6,18 5.875,17.625"
           id="path31912"
           inkscape:connector-curvature="0" />
        <path
           style="fill:#959595;fill-opacity:1"
           d="M 7,17.5 6.75,17.25 7.015625,16.953125 7.28125,16.65625 7.234375,16.609375 7.1875,16.5625 7.28125,16.65625 Q 7.375,16.75 7.5,16.75 l 0.125,0 -0.1875,0 -0.1875,0 0.25,0 0.25,0 -0.1875,0 -0.1875,0 0.125,0 q 0.125,0 0.21875,-0.09375 L 7.8125,16.5625 7.765625,16.609375 7.71875,16.65625 8,17 8.28125,17.34375 8.328125,17.296875 8.375,17.25 8.28125,17.34375 Q 8.1875,17.4375 8.125,17.625 L 8.0625,17.8125 8.15625,17.53125 8.25,17.25 8.140625,17.609375 8.03125,17.96875 8.140625,17.984375 8.25,18 8.03125,17.96875 Q 7.8125,17.9375 7.625,17.875 L 7.4375,17.8125 7.71875,17.90625 8,18 7.625,17.875 Q 7.25,17.75 7,17.5 M 6.6875,17.1875 6.75,17.25 6.9375,17.4375 7.125,17.625 7,17.5 Q 6.875,17.375 6.75,17.25 l -0.125,-0.125 0.0625,0.0625"
           id="path31914"
           inkscape:connector-curvature="0" />
        <path
           style="fill:#cccccc;fill-opacity:1"
           d="M 8.140625,17.609375 Q 8.25,17.25 8.5,17.25 q 0.25,0 0.359375,0.359375 L 8.96875,17.96875 9.078125,17.953125 9.1875,17.9375 8.96875,17.96875 Q 8.75,18 8.5,18 L 8.25,18 8.625,18 9,18 8.5,18 8,18 8.375,18 8.75,18 8.5,18 Q 8.25,18 8.03125,17.96875 L 7.8125,17.9375 7.921875,17.95313 8.03125,17.96876 8.140625,17.609385"
           id="path31916"
           inkscape:connector-curvature="0" />
        <path
           style="fill:#0d0d0d;fill-opacity:0.98823529"
           d="M 10,17.5 Q 10.25,17.25 10.5,17 L 10.75,16.75 10.5625,16.9375 10.375,17.125 10.5,17 q 0.125,-0.125 0.21875,-0.28125 l 0.09375,-0.15625 -0.04687,0.07813 -0.04687,0.07813 0.296875,0.296875 0.296875,0.296875 0.0625,-0.0625 0.0625,-0.0625 -0.125,0.125 q -0.125,0.125 -0.1875,0.3125 L 11.0625,17.8125 11.15625,17.53125 11.25,17.25 11.125,17.625 11,18 10.625,18.125 10.25,18.25 10.53125,18.15625 10.8125,18.0625 10.625,18.125 q -0.1875,0.0625 -0.3125,0.1875 l -0.125,0.125 L 10.25,18.375 10.3125,18.3125 10.015625,18.015625 9.71875,17.71875 9.640625,17.765625 9.5625,17.8125 9.71875,17.71875 Q 9.875,17.625 10,17.5 L 10.125,17.375 9.9375,17.5625 9.75,17.75 10,17.5"
           id="path31918"
           inkscape:connector-curvature="0" />
        <path
           style="fill:#000000;fill-opacity:0.13333333"
           d="m 11.125,17.625 q 0.125,-0.375 0.5,-0.5 L 12,17 12,17.5 Q 12,18 11.5,18 l -0.5,0 0.125,-0.375"
           id="path31920"
           inkscape:connector-curvature="0" />
        <path
           style="fill:#000000;fill-opacity:0.1372549"
           d="m 13,17.5 0,-0.5 0.375,0.125 q 0.375,0.125 0.5,0.5 L 14,18 13.5,18 Q 13,18 13,17.5"
           id="path31922"
           inkscape:connector-curvature="0" />
        <path
           style="fill:#000000;fill-opacity:0.85882353"
           d="M 13.875,17.625 13.75,17.25 13.84375,17.53125 13.9375,17.8125 13.875,17.625 q -0.0625,-0.1875 -0.1875,-0.3125 l -0.125,-0.125 0.0625,0.0625 0.0625,0.0625 L 14,17 14.3125,16.6875 14.25,16.625 l -0.0625,-0.0625 0.125,0.125 q 0.125,0.125 0.3125,0.1875 L 14.8125,16.9375 14.53125,16.84375 14.25,16.75 14.625,16.875 15,17 14.71875,16.90625 14.4375,16.8125 14.625,16.875 q 0.1875,0.0625 0.40625,0.09375 L 15.25,17 15.140625,16.984375 15.03125,16.96875 15.015625,17.484375 15,18 14.5,18 14,18 13.875,17.625"
           id="path31924"
           inkscape:connector-curvature="0" />
        <path
           style="fill:#090909;fill-opacity:0.99215686"
           d="M 15.015625,17.484375 15.03125,16.96875 14.921875,16.953125 14.8125,16.9375 15.03125,16.96875 Q 15.25,17 15.5,17 l 0.25,0 -0.375,0 -0.375,0 0.5,0 0.5,0 0,0.5 0,0.5 -0.5,0 -0.5,0 0.01563,-0.515625"
           id="path31926"
           inkscape:connector-curvature="0" />
        <path
           style="fill:#000000;fill-opacity:0.71764706"
           d="M 16,17.5 16,17 16.375,16.875 16.75,16.75 16.46875,16.84375 16.1875,16.9375 16.375,16.875 q 0.1875,-0.0625 0.3125,-0.1875 l 0.125,-0.125 L 16.75,16.625 16.6875,16.6875 17,17 l 0.3125,0.3125 0.0625,-0.0625 0.0625,-0.0625 -0.125,0.125 q -0.125,0.125 -0.1875,0.3125 L 17.0625,17.8125 17.15625,17.53125 17.25,17.25 17.125,17.625 Q 17,18 16.5,18 l -0.5,0 0,-0.5"
           id="path31928"
           inkscape:connector-curvature="0" />
        <path
           style="fill:#000000;fill-opacity:0.19215686"
           d="M 6,18.5 6,18 6.375,18.125 q 0.375,0.125 0.5,0.5 L 7,19 6.5,19 Q 6,19 6,18.5"
           id="path31930"
           inkscape:connector-curvature="0" />
        <path
           style="fill:#000000;fill-opacity:0.82745098"
           d="M 6.875,18.625 6.75,18.25 6.84375,18.53125 6.9375,18.8125 6.875,18.625 Q 6.8125,18.4375 6.6875,18.3125 L 6.5625,18.1875 6.625,18.25 6.6875,18.3125 6.984375,18.015625 7.28125,17.71875 7.203125,17.671875 7.125,17.625 7.28125,17.71875 Q 7.4375,17.8125 7.625,17.875 L 7.8125,17.9375 7.53125,17.84375 7.25,17.75 7.625,17.875 8,18 7.71875,17.90625 7.4375,17.8125 7.625,17.875 q 0.1875,0.0625 0.40625,0.09375 L 8.25,18 8.140625,17.984375 8.03125,17.96875 8.015625,18.484375 8,19 7.5,19 7,19 6.875,18.625"
           id="path31932"
           inkscape:connector-curvature="0" />
        <path
           style="fill:#000000;fill-opacity:0.96078431"
           d="M 8.015625,18.484375 8.03125,17.96875 7.921875,17.953125 7.8125,17.9375 8.03125,17.96875 Q 8.25,18 8.5,18 L 8.75,18 8.375,18 8,18 8.5,18 9,18 8.625,18 8.25,18 8.5,18 q 0.25,0 0.46875,-0.03125 L 9.1875,17.9375 9.078125,17.953125 8.96875,17.96875 8.984375,18.484375 9,19 8.5,19 8,19 8.015625,18.484375"
           id="path31934"
           inkscape:connector-curvature="0" />
        <path
           style="fill:#000000;fill-opacity:0.81568627"
           d="M 8.984375,18.484375 8.96875,17.96875 8.859375,17.984375 8.75,18 8.96875,17.96875 Q 9.1875,17.9375 9.375,17.875 L 9.5625,17.8125 9.28125,17.90625 9,18 9.375,17.875 9.75,17.75 9.46875,17.84375 9.1875,17.9375 9.375,17.875 Q 9.5625,17.8125 9.71875,17.71875 L 9.875,17.625 9.796875,17.671875 9.71875,17.71875 10.015625,18.015625 10.3125,18.3125 10.375,18.25 l 0.0625,-0.0625 -0.125,0.125 q -0.125,0.125 -0.1875,0.3125 L 10.0625,18.8125 10.15625,18.53125 10.25,18.25 10.125,18.625 10,19 9.5,19 9,19 8.984375,18.484375"
           id="path31936"
           inkscape:connector-curvature="0" />
        <path
           style="fill:#000000;fill-opacity:0.09803922"
           d="m 10.125,18.625 q 0.125,-0.375 0.5,-0.5 L 11,18 11,18.5 Q 11,19 10.5,19 l -0.5,0 0.125,-0.375"
           id="path31938"
           inkscape:connector-curvature="0" />
        <path
           style="fill:#000000;fill-opacity:0.07058824"
           d="m 15,18.5 0,-0.5 0.5,0 0.5,0 0,0.5 Q 16,19 15.5,19 15,19 15,18.5"
           id="path31940"
           inkscape:connector-curvature="0" />
      </g>
    </g>
  </g>
</svg>
