<?xml version="1.0" encoding="UTF-8" standalone="no"?>
<!-- Created with Inkscape (http://www.inkscape.org/) -->

<svg
   xmlns:dc="http://purl.org/dc/elements/1.1/"
   xmlns:cc="http://creativecommons.org/ns#"
   xmlns:rdf="http://www.w3.org/1999/02/22-rdf-syntax-ns#"
   xmlns:svg="http://www.w3.org/2000/svg"
   xmlns="http://www.w3.org/2000/svg"
   xmlns:sodipodi="http://sodipodi.sourceforge.net/DTD/sodipodi-0.dtd"
   xmlns:inkscape="http://www.inkscape.org/namespaces/inkscape"
   width="20"
   height="20"
   viewBox="0 0 20 20"
   id="svg3347"
   version="1.1"
   inkscape:version="0.91 r13725"
   sodipodi:docname="Civ5Icon.ReligionIslam.svg">
  <defs
     id="defs3349" />
  <sodipodi:namedview
     id="base"
     pagecolor="#ffffff"
     bordercolor="#666666"
     borderopacity="1.0"
     inkscape:pageopacity="0.0"
     inkscape:pageshadow="2"
     inkscape:zoom="11.2"
     inkscape:cx="13.251856"
     inkscape:cy="8.3638322"
     inkscape:document-units="px"
     inkscape:current-layer="g27203"
     showgrid="false"
     units="px"
     inkscape:window-width="1477"
     inkscape:window-height="962"
     inkscape:window-x="533"
     inkscape:window-y="95"
     inkscape:window-maximized="0" />
  <metadata
     id="metadata3352">
    <rdf:RDF>
      <cc:Work
         rdf:about="">
        <dc:format>image/svg+xml</dc:format>
        <dc:type
           rdf:resource="http://purl.org/dc/dcmitype/StillImage" />
        <dc:title></dc:title>
      </cc:Work>
    </rdf:RDF>
  </metadata>
  <g
     inkscape:label="Layer 1"
     inkscape:groupmode="layer"
     id="layer1"
     transform="translate(0,-1032.3622)">
    <g
       transform="translate(-0.22321519 1031.8712)"
       id="g27203">
      <g
         transform="translate(-0.80357045 -0.62507182)"
         id="g31953">
        <path
           style="fill:#000000;fill-opacity:0"
           d="M 0,0.5 0,0 0.5,0 1,0 1.5,0 2,0 2.5,0 3,0 3.5,0 4,0 4.5,0 5,0 5.5,0 6,0 6.5,0 7,0 7.5,0 8,0 8.5,0 9,0 9.5,0 10,0 l 0.5,0 0.5,0 0.5,0 0.5,0 0.5,0 0.5,0 0.5,0 0.5,0 0.5,0 0.5,0 0.5,0 0.5,0 0.5,0 0.5,0 0.5,0 0.5,0 0.5,0 0.5,0 0.5,0 0.5,0 0.5,0 0.5,0 0.5,0 0.5,0 0,0.5 0,0.5 0,0.5 0,0.5 0,0.5 0,0.5 0,0.5 0,0.5 0,0.5 0,0.5 0,0.5 0,0.5 0,0.5 0,0.5 0,0.5 0,0.5 0,0.5 0,0.5 0,0.5 0,0.5 0,0.5 0,0.5 0,0.5 0,0.5 0,0.5 0,0.5 0,0.5 0,0.5 0,0.5 0,0.5 0,0.5 0,0.5 0,0.5 0,0.5 0,0.5 0,0.5 0,0.5 0,0.5 0,0.5 0,0.5 0,0.5 0,0.5 0,0.5 0,0.5 -0.5,0 L 21,22 20.5,22 20,22 19.5,22 19,22 18.5,22 18,22 17.5,22 17,22 16.5,22 16,22 15.5,22 15,22 14.5,22 14,22 13.5,22 13,22 12.5,22 12,22 11.5,22 11,22 10.5,22 10,22 9.5,22 9,22 8.5,22 8,22 7.5,22 7,22 6.5,22 6,22 5.5,22 5,22 4.5,22 4,22 3.5,22 3,22 2.5,22 2,22 1.5,22 1,22 0.5,22 0,22 0,21.5 0,21 0,20.5 0,20 0,19.5 0,19 0,18.5 0,18 0,17.5 0,17 0,16.5 0,16 0,15.5 0,15 0,14.5 0,14 0,13.5 0,13 0,12.5 0,12 0,11.5 0,11 0,10.5 0,10 0,9.5 0,9 0,8.5 0,8 0,7.5 0,7 0,6.5 0,6 0,5.5 0,5 0,4.5 0,4 0,3.5 0,3 0,2.5 0,2 0,1.5 0,1 0,0.5 M 11.5,20 Q 12,20 12,19.5 l 0,-0.5 0.5,0 0.5,0 0.5,0 0.5,0 0.5,0 Q 15,19 15,18.5 l 0,-0.5 0.5,0 q 0.5,0 0.625,-0.375 0.125,-0.375 0.5,-0.5 0.375,-0.125 0.5,-0.5 0.125,-0.375 0.5,-0.5 Q 18,16 18,15.5 l 0,-0.5 0.5,0 Q 19,15 19,14.5 l 0,-0.5 0,-0.5 0,-0.5 0.5,0 Q 20,13 20,12.5 L 20,12 20,11.5 20,11 20,10.5 20,10 20,9.5 20,9 20,8.5 Q 20,8 19.5,8 L 19,8 19,7.5 19,7 19,6.5 Q 19,6 18.5,6 L 18,6 18,5.5 Q 18,5 17.625,4.875 17.25,4.75 17.125,4.375 17,4 16.625,3.875 16.25,3.75 16.125,3.375 16,3 15.5,3 L 15,3 15,2.5 Q 15,2 14.5,2 L 14,2 13.5,2 Q 13,2 13,2.5 L 13,3 12.5,3 Q 12,3 12,3.5 L 12,4 12,4.5 Q 12,5 12.5,5 L 13,5 13,5.5 Q 13,6 13.5,6 L 14,6 14,6.5 Q 14,7 14.5,7 L 15,7 15,7.5 15,8 15,8.5 15,9 15,9.5 15,10 14.5,10 14,10 14,9.5 14,9 14,8.5 Q 14,8 13.625,7.875 13.25,7.75 13.125,7.375 13,7 12.5,7 L 12,7 12,6.5 Q 12,6 11.5,6 L 11,6 11,5.5 Q 11,5 10.5,5 L 10,5 9.5,5 Q 9,5 9,5.5 L 9,6 8.5,6 Q 8,6 8,6.5 L 8,7 7.5,7 7,7 6.5,7 Q 6,7 6,7.5 L 6,8 5.5,8 Q 5,8 5,8.5 L 5,9 5,9.5 Q 5,10 5.5,10 L 6,10 6,10.5 6,11 6,11.5 6,12 5.5,12 5,12 5,11.5 Q 5,11 4.5,11 L 4,11 4,10.5 Q 4,10 3.5,10 L 3,10 2.5,10 Q 2,10 2,10.5 L 2,11 1.5,11 Q 1,11 1,11.5 L 1,12 1,12.5 Q 1,13 1.5,13 l 0.5,0 0,0.5 q 0,0.5 0.375,0.625 0.375,0.125 0.5,0.5 L 3,15 3,15.5 Q 3,16 3.5,16 L 4,16 4,16.5 Q 4,17 4.5,17 L 5,17 5,17.5 Q 5,18 5.5,18 l 0.5,0 0.375,0.125 q 0.375,0.125 0.5,0.5 Q 7,19 7.5,19 L 8,19 8.5,19 9,19 9,19.5 Q 9,20 9.5,20 l 0.5,0 0.5,0 0.5,0 0.5,0"
           id="path31955" />
        <path
           style="fill:#000000;fill-opacity:0.01568627"
           d="M 13,2.5 Q 13,2 13.5,2 L 14,2 14,2.5 14,3 13.5,3 13,3 13,2.5"
           id="path31957" />
        <path
           style="fill:#000000;fill-opacity:0.08627451"
           d="M 14,2.5 14,2 14.5,2 Q 15,2 15,2.5 L 15,3 14.5,3 14,3 14,2.5"
           id="path31959" />
        <path
           style="fill:#000000;fill-opacity:0.01568627"
           d="M 12,3.5 Q 12,3 12.5,3 L 13,3 13,3.5 13,4 12.5,4 12,4 12,3.5"
           id="path31961" />
        <path
           style="fill:#101010;fill-opacity:0.1254902"
           d="M 13,3.5 13,3 13.5,3 14,3 13.875,3.375 q -0.125,0.375 -0.5,0.5 L 13,4 13,3.5"
           id="path31963" />
        <path
           style="fill:#191919;fill-opacity:0.44705882"
           d="M 13.875,3.375 14,3 14.5,3 15,3 15,3.5 15,4 14.625,4.125 14.25,4.25 14.53125,4.15625 14.8125,4.0625 14.625,4.125 Q 14.4375,4.1875 14.34375,4.28125 L 14.25,4.375 14.296875,4.328125 14.34375,4.28125 14.015625,3.984375 13.6875,3.6875 13.625,3.75 13.5625,3.8125 13.6875,3.6875 Q 13.8125,3.5625 13.875,3.375 L 13.9375,3.1875 13.84375,3.46875 13.75,3.75 13.875,3.375"
           id="path31965" />
        <path
           style="fill:#000000;fill-opacity:0.56862745"
           d="M 15,3.5 15,3 15.5,3 Q 16,3 16.125,3.375 L 16.25,3.75 16.15625,3.46875 16.0625,3.1875 16.125,3.375 q 0.0625,0.1875 0.1875,0.3125 l 0.125,0.125 L 16.375,3.75 16.3125,3.6875 16.015625,3.984375 15.71875,4.28125 15.796875,4.328125 15.875,4.375 15.71875,4.28125 Q 15.5625,4.1875 15.375,4.125 L 15.1875,4.0625 15.46875,4.15625 15.75,4.25 15.375,4.125 15,4 15,3.5"
           id="path31967" />
        <path
           style="fill:#000000;fill-opacity:0.00784314"
           d="M 12,4.5 12,4 12.5,4 13,4 13,4.5 13,5 12.5,5 Q 12,5 12,4.5"
           id="path31969" />
        <path
           style="fill:#030303;fill-opacity:0.35294118"
           d="M 13,4.5 13,4 13.375,3.875 13.75,3.75 13.46875,3.84375 13.1875,3.9375 13.375,3.875 Q 13.5625,3.8125 13.6875,3.6875 L 13.8125,3.5625 13.75,3.625 13.6875,3.6875 14.015625,3.984375 14.34375,4.28125 14.390625,4.234375 14.4375,4.1875 14.34375,4.28125 Q 14.25,4.375 14.25,4.5 l 0,0.125 0,-0.1875 0,-0.1875 0,0.25 0,0.25 0,-0.1875 0,-0.1875 0,0.125 q 0,0.125 0.09375,0.21875 L 14.4375,4.8125 14.390625,4.765625 14.34375,4.71875 14.015625,5.015625 13.6875,5.3125 13.75,5.375 13.8125,5.4375 13.6875,5.3125 Q 13.5625,5.1875 13.375,5.125 L 13.1875,5.0625 13.46875,5.15625 13.75,5.25 13.375,5.125 13,5 13,4.5"
           id="path31971" />
        <path
           style="fill:#363636;fill-opacity:0.80784314"
           d="m 14.25,4.5 q 0,-0.25 0.375,-0.375 L 15,4 15,4.5 15,5 14.625,4.875 Q 14.25,4.75 14.25,4.5"
           id="path31973" />
        <path
           style="fill:#525252;fill-opacity:0.97254902"
           d="M 15,4.5 15,4 15.375,4.125 Q 15.75,4.25 16,4.5 L 16.25,4.75 15.96875,5.03125 15.6875,5.3125 15.75,5.375 15.8125,5.4375 15.6875,5.3125 Q 15.5625,5.1875 15.375,5.125 L 15.1875,5.0625 15.46875,5.15625 15.75,5.25 15.375,5.125 15,5 15,4.5 M 16.3125,4.8125 16.25,4.75 16.0625,4.5625 15.875,4.375 16,4.5 q 0.125,0.125 0.25,0.25 l 0.125,0.125 -0.0625,-0.0625"
           id="path31975" />
        <path
           style="fill:#000000;fill-opacity:0.83137255"
           d="M 16,4.5 15.75,4.25 15.9375,4.4375 16.125,4.625 16,4.5 Q 15.875,4.375 15.71875,4.28125 L 15.5625,4.1875 15.640625,4.234375 15.71875,4.28125 16.015625,3.984375 16.3125,3.6875 16.25,3.625 16.1875,3.5625 l 0.125,0.125 q 0.125,0.125 0.3125,0.1875 L 16.8125,3.9375 16.53125,3.84375 16.25,3.75 16.625,3.875 Q 17,4 17.125,4.375 L 17.25,4.75 17.15625,4.46875 17.0625,4.1875 17.125,4.375 q 0.0625,0.1875 0.1875,0.3125 l 0.125,0.125 L 17.375,4.75 17.3125,4.6875 17.015625,4.984375 16.71875,5.28125 16.765625,5.359375 16.8125,5.4375 16.71875,5.28125 Q 16.625,5.125 16.5,5 L 16.375,4.875 16.5625,5.0625 16.75,5.25 16.5,5 Q 16.25,4.75 16,4.5"
           id="path31977" />
        <path
           style="fill:#000000;fill-opacity:0.14901961"
           d="M 9,5.5 Q 9,5 9.5,5 L 10,5 10,5.5 10,6 9.5,6 9,6 9,5.5"
           id="path31979" />
        <path
           style="fill:#000000;fill-opacity:0.0627451"
           d="M 10,5.5 10,5 10.5,5 Q 11,5 11,5.5 L 11,6 10.5,6 10,6 10,5.5"
           id="path31981" />
        <path
           style="fill:#000000;fill-opacity:0.00784314"
           d="M 13,5.5 13,5 13.375,5.125 q 0.375,0.125 0.5,0.5 L 14,6 13.5,6 Q 13,6 13,5.5"
           id="path31983" />
        <path
           style="fill:#000000;fill-opacity:0.88627451"
           d="M 13.875,5.625 13.75,5.25 13.84375,5.53125 13.9375,5.8125 13.875,5.625 Q 13.8125,5.4375 13.6875,5.3125 L 13.5625,5.1875 13.625,5.25 13.6875,5.3125 14.015625,5.015625 14.34375,4.71875 14.296875,4.671875 14.25,4.625 14.34375,4.71875 Q 14.4375,4.8125 14.625,4.875 L 14.8125,4.9375 14.53125,4.84375 14.25,4.75 14.625,4.875 15,5 15.125,5.375 15.25,5.75 15.15625,5.46875 15.0625,5.1875 15.125,5.375 q 0.0625,0.1875 0.1875,0.3125 l 0.125,0.125 L 15.375,5.75 15.3125,5.6875 15,6 14.6875,6.3125 14.75,6.375 14.8125,6.4375 14.6875,6.3125 Q 14.5625,6.1875 14.375,6.125 L 14.1875,6.0625 14.46875,6.15625 14.75,6.25 14.375,6.125 14,6 13.875,5.625 M 15.09375,5.03125 15,5 14.71875,4.90625 14.4375,4.8125 14.625,4.875 Q 14.8125,4.9375 15,5 l 0.1875,0.0625 -0.09375,-0.03125"
           id="path31985" />
        <path
           style="fill:#949494;fill-opacity:0.99607843"
           d="M 15.125,5.375 15,5 15.375,5.125 q 0.375,0.125 0.5,0.5 L 16,6 15.625,5.875 Q 15.25,5.75 15.125,5.375 M 15.28125,5.09375 15,5 14.90625,4.96875 14.8125,4.9375 15,5 q 0.1875,0.0625 0.375,0.125 l 0.1875,0.0625 -0.28125,-0.09375"
           id="path31987" />
        <path
           style="fill:#666666;fill-opacity:1"
           d="M 15.875,5.625 15.75,5.25 15.84375,5.53125 15.9375,5.8125 15.875,5.625 Q 15.8125,5.4375 15.6875,5.3125 L 15.5625,5.1875 15.625,5.25 15.6875,5.3125 15.96875,5.03125 16.25,4.75 16.5,5 q 0.25,0.25 0.375,0.625 L 17,6 16.90625,5.71875 16.8125,5.4375 16.875,5.625 q 0.0625,0.1875 0.09375,0.40625 L 17,6.25 16.984375,6.140625 16.96875,6.03125 16.484375,6.015625 16,6 15.875,5.625 M 16.4375,4.9375 16.25,4.75 16.1875,4.6875 16.125,4.625 16.25,4.75 Q 16.375,4.875 16.5,5 l 0.125,0.125 -0.1875,-0.1875"
           id="path31989" />
        <path
           style="fill:#000000;fill-opacity:0.7254902"
           d="M 16.875,5.625 16.75,5.25 16.84375,5.53125 16.9375,5.8125 16.875,5.625 Q 16.8125,5.4375 16.71875,5.28125 L 16.625,5.125 16.671875,5.203125 16.71875,5.28125 17.015625,4.984375 17.3125,4.6875 17.25,4.625 17.1875,4.5625 l 0.125,0.125 q 0.125,0.125 0.3125,0.1875 L 17.8125,4.9375 17.53125,4.84375 17.25,4.75 17.625,4.875 Q 18,5 18,5.5 L 18,6 17.5,6 17,6 16.875,5.625"
           id="path31991" />
        <path
           style="fill:#000000;fill-opacity:0.14901961"
           d="M 8,6.5 Q 8,6 8.5,6 L 9,6 8.875,6.375 Q 8.75,6.75 8.375,6.875 L 8,7 8,6.5"
           id="path31993" />
        <path
           style="fill:#171717;fill-opacity:0.86666667"
           d="M 8.875,6.375 9,6 9.5,6 10,6 10.125,6.375 10.25,6.75 10.15625,6.46875 10.0625,6.1875 10.125,6.375 q 0.0625,0.1875 0.15625,0.34375 L 10.375,6.875 10.328125,6.796875 10.28125,6.71875 10.015625,7.015625 9.75,7.3125 9.8125,7.34375 9.875,7.375 9.75,7.3125 Q 9.625,7.25 9.5,7.25 l -0.125,0 0.1875,0 0.1875,0 -0.25,0 -0.25,0 0.1875,0 0.1875,0 -0.125,0 q -0.125,0 -0.25,0.0625 L 9.125,7.375 9.1875,7.34375 9.25,7.3125 8.96875,7 8.6875,6.6875 8.625,6.75 8.5625,6.8125 8.6875,6.6875 Q 8.8125,6.5625 8.875,6.375 L 8.9375,6.1875 8.84375,6.46875 8.75,6.75 8.875,6.375"
           id="path31995" />
        <path
           style="fill:#0e0e0e;fill-opacity:0.56470588"
           d="M 10.125,6.375 10,6 10.5,6 11,6 11.125,6.375 11.25,6.75 11.15625,6.46875 11.0625,6.1875 11.125,6.375 q 0.0625,0.1875 0.1875,0.3125 l 0.125,0.125 L 11.375,6.75 11.3125,6.6875 11.015625,6.984375 10.71875,7.28125 10.765625,7.359375 10.8125,7.4375 10.71875,7.28125 Q 10.625,7.125 10.5,7 L 10.375,6.875 10.5625,7.0625 10.75,7.25 10.5,7 Q 10.25,6.75 10.125,6.375"
           id="path31997" />
        <path
           style="fill:#000000;fill-opacity:0.0627451"
           d="M 11.125,6.375 11,6 11.5,6 Q 12,6 12,6.5 L 12,7 11.625,6.875 q -0.375,-0.125 -0.5,-0.5"
           id="path31999" />
        <path
           style="fill:#000000;fill-opacity:0.29019608"
           d="M 14,6.5 14,6 14.375,6.125 q 0.375,0.125 0.5,0.5 L 15,7 14.5,7 Q 14,7 14,6.5"
           id="path32001" />
        <path
           style="fill:#282828;fill-opacity:1"
           d="M 14.875,6.625 14.75,6.25 14.84375,6.53125 14.9375,6.8125 14.875,6.625 Q 14.8125,6.4375 14.6875,6.3125 L 14.5625,6.1875 14.625,6.25 14.6875,6.3125 15,6 15.3125,5.6875 15.25,5.625 15.1875,5.5625 l 0.125,0.125 q 0.125,0.125 0.3125,0.1875 L 15.8125,5.9375 15.53125,5.84375 15.25,5.75 15.625,5.875 16,6 15.71875,5.90625 15.4375,5.8125 15.625,5.875 q 0.1875,0.0625 0.40625,0.09375 L 16.25,6 16.140625,5.984375 16.03125,5.96875 16.015625,6.484375 16,7 15.5,7 15,7 14.875,6.625"
           id="path32003" />
        <path
           style="fill:#f1f1f1;fill-opacity:1"
           d="M 16.015625,6.484375 16.03125,5.96875 15.921875,5.953125 15.8125,5.9375 16.03125,5.96875 Q 16.25,6 16.5,6 L 16.75,6 16.375,6 16,6 16.484375,6.015625 16.96875,6.03125 16.953125,5.921875 16.9375,5.8125 16.96875,6.03125 Q 17,6.25 17,6.5 L 17,6.75 17,6.375 17,6 17,6.5 17,7 17,6.625 17,6.25 17,6.5 q 0,0.25 0.09375,0.40625 L 17.1875,7.0625 17.140625,6.984375 17.09375,6.90625 16.546875,6.953125 16,7 16.015625,6.484375"
           id="path32005" />
        <path
           style="fill:#202020;fill-opacity:1"
           d="M 17,6.5 17,6 17.5,6 18,6 18.125,6.375 18.25,6.75 18.15625,6.46875 18.0625,6.1875 18.125,6.375 q 0.0625,0.1875 0.1875,0.3125 l 0.125,0.125 L 18.375,6.75 18.3125,6.6875 18,7 17.6875,7.3125 17.75,7.375 17.8125,7.4375 17.6875,7.3125 Q 17.5625,7.1875 17.375,7.125 L 17.1875,7.0625 17.46875,7.15625 17.75,7.25 17.375,7.125 Q 17,7 17,6.5"
           id="path32007" />
        <path
           style="fill:#000000;fill-opacity:0.23529412"
           d="M 18.125,6.375 18,6 18.5,6 Q 19,6 19,6.5 L 19,7 18.625,6.875 q -0.375,-0.125 -0.5,-0.5"
           id="path32009" />
        <path
           style="fill:#000000;fill-opacity:0.07843137"
           d="M 6,7.5 Q 6,7 6.5,7 L 7,7 6.875,7.375 Q 6.75,7.75 6.375,7.875 L 6,8 6,7.5"
           id="path32011" />
        <path
           style="fill:#000000;fill-opacity:0.59607843"
           d="M 6.875,7.375 7,7 7.5,7 8,7 8,7.5 8,8 7.625,8.125 7.25,8.25 7.53125,8.15625 7.8125,8.0625 7.625,8.125 Q 7.4375,8.1875 7.3125,8.3125 L 7.1875,8.4375 7.25,8.375 7.3125,8.3125 7,8 6.6875,7.6875 6.625,7.75 6.5625,7.8125 6.6875,7.6875 Q 6.8125,7.5625 6.875,7.375 L 6.9375,7.1875 6.84375,7.46875 6.75,7.75 6.875,7.375"
           id="path32013" />
        <path
           style="fill:#000000;fill-opacity:0.9254902"
           d="M 8,7.5 8,7 8.375,6.875 8.75,6.75 8.46875,6.84375 8.1875,6.9375 8.375,6.875 Q 8.5625,6.8125 8.6875,6.6875 L 8.8125,6.5625 8.75,6.625 8.6875,6.6875 8.96875,7 9.25,7.3125 9.3125,7.28125 9.375,7.25 9.25,7.3125 Q 9.125,7.375 9,7.5 L 8.875,7.625 9.0625,7.4375 9.25,7.25 9,7.5 Q 8.75,7.75 8.375,7.875 L 8,8 8,7.5"
           id="path32015" />
        <path
           style="fill:#8e8e8e;fill-opacity:1"
           d="M 9,7.5 Q 9.25,7.25 9.5,7.25 9.75,7.25 10,7.5 L 10.25,7.75 10.0625,7.5625 9.875,7.375 10,7.5 q 0.125,0.125 0.28125,0.21875 L 10.4375,7.8125 10.359375,7.765625 10.28125,7.71875 10.015625,8.015625 9.75,8.3125 9.8125,8.34375 9.875,8.375 9.75,8.3125 Q 9.625,8.25 9.5,8.25 l -0.125,0 0.1875,0 0.1875,0 -0.25,0 -0.25,0 0.1875,0 0.1875,0 -0.125,0 q -0.125,0 -0.25,0.0625 L 9.125,8.375 9.1875,8.34375 9.25,8.3125 8.984375,8.015625 8.71875,7.71875 8.640625,7.765625 8.5625,7.8125 8.71875,7.71875 Q 8.875,7.625 9,7.5 L 9.125,7.375 8.9375,7.5625 8.75,7.75 9,7.5"
           id="path32017" />
        <path
           style="fill:#3c3c3c;fill-opacity:0.99215686"
           d="M 10,7.5 9.75,7.25 9.9375,7.4375 10.125,7.625 10,7.5 Q 9.875,7.375 9.75,7.3125 L 9.625,7.25 9.6875,7.28125 9.75,7.3125 10.015625,7.015625 10.28125,6.71875 10.234375,6.640625 10.1875,6.5625 10.28125,6.71875 Q 10.375,6.875 10.5,7 L 10.625,7.125 10.4375,6.9375 10.25,6.75 10.5,7 q 0.25,0.25 0.375,0.625 L 11,8 10.625,7.875 Q 10.25,7.75 10,7.5"
           id="path32019" />
        <path
           style="fill:#000000;fill-opacity:0.81960784"
           d="M 10.875,7.625 10.75,7.25 10.84375,7.53125 10.9375,7.8125 10.875,7.625 Q 10.8125,7.4375 10.71875,7.28125 L 10.625,7.125 10.671875,7.203125 10.71875,7.28125 11.015625,6.984375 11.3125,6.6875 11.25,6.625 11.1875,6.5625 l 0.125,0.125 q 0.125,0.125 0.3125,0.1875 L 11.8125,6.9375 11.53125,6.84375 11.25,6.75 11.625,6.875 12,7 12,7.5 12,8 11.5,8 11,8 10.875,7.625"
           id="path32021" />
        <path
           style="fill:#000000;fill-opacity:0.39215686"
           d="M 12,7.5 12,7 12.5,7 q 0.5,0 0.625,0.375 0.125,0.375 0.5,0.5 Q 14,8 14,8.5 L 14,9 13.625,9.125 13.25,9.25 13.53125,9.15625 13.8125,9.0625 13.625,9.125 Q 13.4375,9.1875 13.3125,9.3125 L 13.1875,9.4375 13.25,9.375 13.3125,9.3125 12.984375,9.015625 12.65625,8.71875 12.609375,8.765625 12.5625,8.8125 12.65625,8.71875 Q 12.75,8.625 12.75,8.5 l 0,-0.125 0,0.1875 0,0.1875 0,-0.25 q 0,-0.25 -0.375,-0.375 L 12,8 12,7.5"
           id="path32023" />
        <path
           style="fill:#000000;fill-opacity:0.99215686"
           d="M 15,7.5 15,7 15.5,7 16,7 16,7.5 16,8 15.5,8 15,8 15,7.5"
           id="path32025" />
        <path
           style="fill:#e2e2e2;fill-opacity:1"
           d="M 16,7.5 16,7 16.546875,6.953125 17.09375,6.90625 16.921875,7.328125 Q 16.75,7.75 16.375,7.875 L 16,8 16,7.5"
           id="path32027" />
        <path
           style="fill:#9a9a9a;fill-opacity:1"
           d="M 16.921875,7.328125 17.09375,6.90625 17.046875,6.828125 17,6.75 17.09375,6.90625 Q 17.1875,7.0625 17.375,7.125 L 17.5625,7.1875 17.28125,7.09375 17,7 17.375,7.125 q 0.375,0.125 0.5,0.5 L 18,8 17.90625,7.71875 17.8125,7.4375 17.875,7.625 q 0.0625,0.1875 0.09375,0.40625 L 18,8.25 17.984375,8.140625 17.96875,8.03125 17.609375,8.140625 17.25,8.25 17.53125,8.15625 17.8125,8.0625 17.625,8.125 Q 17.4375,8.1875 17.3125,8.3125 L 17.1875,8.4375 17.25,8.375 17.3125,8.3125 17,8 16.6875,7.6875 16.625,7.75 16.5625,7.8125 16.6875,7.6875 Q 16.8125,7.5625 16.875,7.375 L 16.9375,7.1875 16.84375,7.46875 16.75,7.75 16.921875,7.328125"
           id="path32029" />
        <path
           style="fill:#000000;fill-opacity:0.85490196"
           d="M 17.875,7.625 17.75,7.25 17.84375,7.53125 17.9375,7.8125 17.875,7.625 Q 17.8125,7.4375 17.6875,7.3125 L 17.5625,7.1875 17.625,7.25 17.6875,7.3125 18,7 18.3125,6.6875 18.25,6.625 18.1875,6.5625 l 0.125,0.125 q 0.125,0.125 0.3125,0.1875 L 18.8125,6.9375 18.53125,6.84375 18.25,6.75 18.625,6.875 19,7 19,7.5 19,8 18.484375,8.015625 17.96875,8.03125 17.984375,8.140625 18,8.25 17.96875,8.03125 Q 17.9375,7.8125 17.875,7.625 L 17.8125,7.4375 17.90625,7.71875 18,8 17.875,7.625"
           id="path32031" />
        <path
           style="fill:#000000;fill-opacity:0.07843137"
           d="M 5,8.5 Q 5,8 5.5,8 L 6,8 6,8.5 6,9 5.5,9 5,9 5,8.5"
           id="path32033" />
        <path
           style="fill:#0f0f0f;fill-opacity:0.6627451"
           d="M 6,8.5 6,8 6.375,7.875 6.75,7.75 6.46875,7.84375 6.1875,7.9375 6.375,7.875 Q 6.5625,7.8125 6.6875,7.6875 L 6.8125,7.5625 6.75,7.625 6.6875,7.6875 7,8 7.3125,8.3125 7.375,8.25 7.4375,8.1875 7.3125,8.3125 Q 7.1875,8.4375 7.125,8.625 L 7.0625,8.8125 7.15625,8.53125 7.25,8.25 7.125,8.625 7,9 6.5,9 6,9 6,8.5"
           id="path32035" />
        <path
           style="fill:#5f5f5f;fill-opacity:0.97647059"
           d="M 7.125,8.625 Q 7.25,8.25 7.625,8.125 L 8,8 7.875,8.375 Q 7.75,8.75 7.375,8.875 L 7,9 7.125,8.625"
           id="path32037" />
        <path
           style="fill:#626262;fill-opacity:1"
           d="M 7.875,8.375 8,8 8.375,7.875 8.75,7.75 8.46875,7.84375 8.1875,7.9375 8.375,7.875 Q 8.5625,7.8125 8.71875,7.71875 L 8.875,7.625 8.796875,7.671875 8.71875,7.71875 8.984375,8.015625 9.25,8.3125 9.3125,8.28125 9.375,8.25 9.25,8.3125 Q 9.125,8.375 9,8.5 L 8.875,8.625 9.0625,8.4375 9.25,8.25 9,8.5 Q 8.75,8.75 8.5,9 L 8.25,9.25 8.4375,9.0625 8.625,8.875 8.5,9 Q 8.375,9.125 8.28125,9.28125 L 8.1875,9.4375 8.234375,9.359375 8.28125,9.28125 7.984375,8.984375 7.6875,8.6875 7.625,8.75 7.5625,8.8125 7.6875,8.6875 Q 7.8125,8.5625 7.875,8.375 L 7.9375,8.1875 7.84375,8.46875 7.75,8.75 7.875,8.375"
           id="path32039" />
        <path
           style="fill:#ededed;fill-opacity:1"
           d="M 9,8.5 Q 9.25,8.25 9.5,8.25 9.75,8.25 10,8.5 L 10.25,8.75 10,9 Q 9.75,9.25 9.5,9.25 l -0.25,0 0.1875,0 0.1875,0 -0.125,0 q -0.125,0 -0.1875,0.0625 L 9.25,9.375 9.28125,9.34375 9.3125,9.3125 9.03125,9.03125 8.75,8.75 9,8.5 M 8.9375,8.5625 8.75,8.75 8.6875,8.8125 8.625,8.875 8.75,8.75 Q 8.875,8.625 9,8.5 L 9.125,8.375 8.9375,8.5625 m 1.375,0.25 L 10.25,8.75 10.0625,8.5625 9.875,8.375 10,8.5 q 0.125,0.125 0.25,0.25 l 0.125,0.125 -0.0625,-0.0625"
           id="path32041" />
        <path
           style="fill:#b5b5b5;fill-opacity:1"
           d="M 10,8.5 9.75,8.25 9.9375,8.4375 10.125,8.625 10,8.5 Q 9.875,8.375 9.75,8.3125 L 9.625,8.25 9.6875,8.28125 9.75,8.3125 10.015625,8.015625 10.28125,7.71875 10.203125,7.671875 10.125,7.625 10.28125,7.71875 Q 10.4375,7.8125 10.625,7.875 L 10.8125,7.9375 10.53125,7.84375 10.25,7.75 10.625,7.875 11,8 11.125,8.375 11.25,8.75 11.15625,8.46875 11.0625,8.1875 11.125,8.375 q 0.0625,0.1875 0.1875,0.3125 l 0.125,0.125 L 11.375,8.75 11.3125,8.6875 11.015625,8.984375 10.71875,9.28125 10.765625,9.359375 10.8125,9.4375 10.71875,9.28125 Q 10.625,9.125 10.5,9 L 10.375,8.875 10.5625,9.0625 10.75,9.25 10.5,9 Q 10.25,8.75 10,8.5"
           id="path32043" />
        <path
           style="fill:#727272;fill-opacity:1"
           d="M 11.125,8.375 11,8 11.5,8 12,8 11.625,8 11.25,8 11.5,8 q 0.25,0 0.46875,0.03125 L 12.1875,8.0625 12.078125,8.046875 11.96875,8.03125 11.984375,8.515625 12,9 12,8.625 12,8.25 12,8.5 q 0,0.25 -0.03125,0.46875 L 11.9375,9.1875 11.953125,9.078125 11.96875,8.96875 11.609375,8.859375 Q 11.25,8.75 11.125,8.375"
           id="path32045" />
        <path
           style="fill:#3d3d3d;fill-opacity:0.91372549"
           d="M 11.984375,8.515625 11.96875,8.03125 11.859375,8.015625 11.75,8 11.96875,8.03125 Q 12.1875,8.0625 12.375,8.125 L 12.5625,8.1875 12.28125,8.09375 12,8 12.375,8.125 Q 12.75,8.25 12.75,8.5 q 0,0.25 -0.375,0.375 L 12,9 11.984375,8.515625"
           id="path32047" />
        <path
           style="fill:#000000;fill-opacity:0.92941176"
           d="M 15,8.5 15,8 15.5,8 16,8 16,8.5 16,9 15.5,9 15,9 15,8.5"
           id="path32049" />
        <path
           style="fill:#bbbbbb;fill-opacity:1"
           d="M 16,8.5 16,8 16.375,7.875 16.75,7.75 16.46875,7.84375 16.1875,7.9375 16.375,7.875 Q 16.5625,7.8125 16.6875,7.6875 L 16.8125,7.5625 16.75,7.625 16.6875,7.6875 17,8 17.3125,8.3125 17.375,8.25 17.4375,8.1875 17.3125,8.3125 Q 17.1875,8.4375 17.125,8.625 L 17.0625,8.8125 17.15625,8.53125 17.25,8.25 17.125,8.625 17,9 16.5,9 16,9 16,8.5"
           id="path32051" />
        <path
           style="fill:#f1f1f1;fill-opacity:1"
           d="M 17.125,8.625 Q 17.25,8.25 17.609375,8.140625 L 17.96875,8.03125 17.953125,7.921875 17.9375,7.8125 17.96875,8.03125 Q 18,8.25 18,8.5 L 18,8.75 18,8.375 18,8 18,8.5 18,9 17.5,9 17,9 17.125,8.625"
           id="path32053" />
        <path
           style="fill:#080808;fill-opacity:0.99607843"
           d="M 18,8.5 18,8 18,8.375 18,8.75 18,8.5 Q 18,8.25 17.96875,8.03125 L 17.9375,7.8125 17.953125,7.921875 17.96875,8.03125 18.484375,8.015625 19,8 19,8.5 19,9 18.5,9 18,9 18,8.5"
           id="path32055" />
        <path
           style="fill:#000000;fill-opacity:0.0627451"
           d="M 19,8.5 19,8 19.5,8 Q 20,8 20,8.5 L 20,9 19.5,9 19,9 19,8.5"
           id="path32057" />
        <path
           style="fill:#000000;fill-opacity:0.02352941"
           d="M 5,9.5 5,9 5.5,9 6,9 6,9.5 6,10 5.5,10 Q 5,10 5,9.5"
           id="path32059" />
        <path
           style="fill:#030303;fill-opacity:0.62352941"
           d="M 6,9.5 6,9 6.5,9 7,9 7.125,9.375 7.25,9.75 7.15625,9.46875 7.0625,9.1875 7.125,9.375 Q 7.1875,9.5625 7.3125,9.6875 L 7.4375,9.8125 7.375,9.75 7.3125,9.6875 7,10 6.6875,10.3125 6.75,10.375 6.8125,10.4375 6.6875,10.3125 Q 6.5625,10.1875 6.375,10.125 L 6.1875,10.0625 6.46875,10.15625 6.75,10.25 6.375,10.125 6,10 6,9.5"
           id="path32061" />
        <path
           style="fill:#585858;fill-opacity:1"
           d="M 7.125,9.375 7,9 7.375,8.875 7.75,8.75 7.46875,8.84375 7.1875,8.9375 7.375,8.875 Q 7.5625,8.8125 7.6875,8.6875 L 7.8125,8.5625 7.75,8.625 7.6875,8.6875 7.984375,8.984375 8.28125,9.28125 8.328125,9.203125 8.375,9.125 8.28125,9.28125 Q 8.1875,9.4375 8.125,9.625 L 8.0625,9.8125 8.15625,9.53125 8.25,9.25 8.125,9.625 8,10 7.625,9.875 Q 7.25,9.75 7.125,9.375"
           id="path32063" />
        <path
           style="fill:#ebebeb;fill-opacity:1"
           d="M 8.125,9.625 Q 8.25,9.25 8.5,9 L 8.75,8.75 9.03125,9.03125 9.3125,9.3125 9.34375,9.28125 9.375,9.25 9.3125,9.3125 Q 9.25,9.375 9.25,9.5 l 0,0.125 0,-0.1875 0,-0.1875 0,0.25 q 0,0.25 -0.28125,0.53125 L 8.6875,10.3125 8.75,10.375 8.8125,10.4375 8.6875,10.3125 Q 8.5625,10.1875 8.375,10.125 L 8.1875,10.0625 8.46875,10.15625 8.75,10.25 8.375,10.125 8,10 8.125,9.625 M 8.8125,8.6875 8.75,8.75 8.5625,8.9375 8.375,9.125 8.5,9 Q 8.625,8.875 8.75,8.75 L 8.875,8.625 8.8125,8.6875"
           id="path32065" />
        <path
           style="fill:#ffffff;fill-opacity:1"
           d="M 9.25,9.5 Q 9.25,9.25 9.5,9.25 9.75,9.25 10,9 L 10.25,8.75 10.5,9 q 0.25,0.25 0.421875,0.671875 l 0.171875,0.421875 0.04687,-0.07813 L 11.1875,9.9375 11.09375,10.09375 Q 11,10.25 11,10.5 l 0,0.25 0,-0.375 0,-0.375 0,0.5 Q 11,11 10.5,11 10,11 9.5,11 L 9,11 9.375,11 9.75,11 9.5,11 Q 9.25,11 9.125,11.125 L 9,11.25 9.0625,11.1875 9.125,11.125 8.9375,10.6875 8.75,10.25 8.84375,10.53125 8.9375,10.8125 8.875,10.625 Q 8.8125,10.4375 8.6875,10.3125 L 8.5625,10.1875 8.625,10.25 8.6875,10.3125 8.96875,10.03125 Q 9.25,9.75 9.25,9.5 M 10.4375,8.9375 10.25,8.75 10.1875,8.6875 10.125,8.625 10.25,8.75 Q 10.375,8.875 10.5,9 l 0.125,0.125 -0.1875,-0.1875"
           id="path32067" />
        <path
           style="fill:#b3b3b3;fill-opacity:1"
           d="M 10.921875,9.671875 10.75,9.25 10.84375,9.53125 10.9375,9.8125 10.875,9.625 Q 10.8125,9.4375 10.71875,9.28125 L 10.625,9.125 10.671875,9.203125 10.71875,9.28125 11.015625,8.984375 11.3125,8.6875 11.25,8.625 11.1875,8.5625 l 0.125,0.125 q 0.125,0.125 0.3125,0.1875 L 11.8125,8.9375 11.53125,8.84375 11.25,8.75 11.609375,8.859375 11.96875,8.96875 11.984375,8.859375 12,8.75 11.96875,8.96875 Q 11.9375,9.1875 11.875,9.375 L 11.8125,9.5625 11.90625,9.28125 12,9 11.875,9.375 q -0.125,0.375 -0.5,0.5 L 11,10 11.28125,9.90625 11.5625,9.8125 11.375,9.875 q -0.1875,0.0625 -0.28125,0.21875 L 11,10.25 l 0.04687,-0.07813 0.04687,-0.07813 -0.171875,-0.421875"
           id="path32069" />
        <path
           style="fill:#232323;fill-opacity:0.96470588"
           d="M 11.875,9.375 12,9 12.375,8.875 12.75,8.75 12.46875,8.84375 12.1875,8.9375 12.375,8.875 Q 12.5625,8.8125 12.65625,8.71875 L 12.75,8.625 12.703125,8.671875 12.65625,8.71875 12.984375,9.015625 13.3125,9.3125 13.375,9.25 13.4375,9.1875 13.3125,9.3125 Q 13.1875,9.4375 13.125,9.625 L 13.0625,9.8125 13.15625,9.53125 13.25,9.25 13.125,9.625 13,10 12.625,10.125 12.25,10.25 12.53125,10.15625 12.8125,10.0625 12.625,10.125 q -0.1875,0.0625 -0.28125,0.15625 L 12.25,10.375 12.296875,10.328125 12.34375,10.28125 12.015625,9.984375 11.6875,9.6875 11.625,9.75 11.5625,9.8125 11.6875,9.6875 Q 11.8125,9.5625 11.875,9.375 L 11.9375,9.1875 11.84375,9.46875 11.75,9.75 11.875,9.375"
           id="path32071" />
        <path
           style="fill:#000000;fill-opacity:0.24705882"
           d="m 13.125,9.625 q 0.125,-0.375 0.5,-0.5 L 14,9 14,9.5 14,10 13.5,10 13,10 13.125,9.625"
           id="path32073" />
        <path
           style="fill:#000000;fill-opacity:0.93333333"
           d="M 15,9.5 15,9 15.5,9 16,9 16,9.5 16,10 15.5,10 15,10 15,9.5"
           id="path32075" />
        <path
           style="fill:#bcbcbc;fill-opacity:1"
           d="M 16,9.5 16,9 16.5,9 17,9 16.875,9.375 q -0.125,0.375 -0.5,0.5 L 16,10 16,9.5"
           id="path32077" />
        <path
           style="fill:#ffffff;fill-opacity:1"
           d="M 16.875,9.375 17,9 l 0.5,0 0.5,0 0,0.5 0,0.5 0,0.5 0,0.5 -0.5,0 -0.5,0 0.125,-0.375 Q 17.25,10.25 16.96875,9.96875 L 16.6875,9.6875 16.625,9.75 16.5625,9.8125 16.6875,9.6875 Q 16.8125,9.5625 16.875,9.375 L 16.9375,9.1875 16.84375,9.46875 16.75,9.75 16.875,9.375"
           id="path32079" />
        <path
           style="fill:#292929;fill-opacity:1"
           d="M 18,9.5 18,9 18.5,9 19,9 19.125,9.375 19.25,9.75 19.15625,9.46875 19.0625,9.1875 19.125,9.375 q 0.0625,0.1875 0.1875,0.3125 l 0.125,0.125 L 19.375,9.75 19.3125,9.6875 18.984375,9.984375 18.65625,10.28125 18.703125,10.328125 18.75,10.375 18.65625,10.28125 Q 18.5625,10.1875 18.375,10.125 L 18.1875,10.0625 18.46875,10.15625 18.75,10.25 18.375,10.125 18,10 18,9.5"
           id="path32081" />
        <path
           style="fill:#000000;fill-opacity:0.29411765"
           d="M 19.125,9.375 19,9 19.5,9 20,9 20,9.5 20,10 19.625,9.875 q -0.375,-0.125 -0.5,-0.5"
           id="path32083" />
        <path
           style="fill:#000000;fill-opacity:0.01568627"
           d="M 2,10.5 Q 2,10 2.5,10 L 3,10 3,10.5 3,11 2.5,11 2,11 2,10.5"
           id="path32085" />
        <path
           style="fill:#000000;fill-opacity:0.05490196"
           d="M 3,10.5 3,10 3.5,10 Q 4,10 4,10.5 L 4,11 3.5,11 3,11 3,10.5"
           id="path32087" />
        <path
           style="fill:#000000;fill-opacity:0.02352941"
           d="M 6,10.5 6,10 6.375,10.125 q 0.375,0.125 0.5,0.5 L 7,11 6.5,11 6,11 6,10.5"
           id="path32089" />
        <path
           style="fill:#000000;fill-opacity:0.94509804"
           d="M 6.875,10.625 6.75,10.25 6.84375,10.53125 6.9375,10.8125 6.875,10.625 Q 6.8125,10.4375 6.6875,10.3125 L 6.5625,10.1875 6.625,10.25 6.6875,10.3125 7,10 7.3125,9.6875 7.25,9.625 7.1875,9.5625 7.3125,9.6875 Q 7.4375,9.8125 7.625,9.875 L 7.8125,9.9375 7.53125,9.84375 7.25,9.75 7.625,9.875 8,10 8,10.5 8,11 7.5,11 7,11 6.875,10.625"
           id="path32091" />
        <path
           style="fill:#9c9c9c;fill-opacity:1"
           d="M 8,10.5 8,10 8.375,10.125 Q 8.75,10.25 8.9375,10.6875 L 9.125,11.125 8.5625,11.0625 8,11 8,10.5"
           id="path32093" />
        <path
           style="fill:#252525;fill-opacity:1"
           d="M 11,10.5 Q 11,10 11.375,9.875 L 11.75,9.75 11.46875,9.84375 11.1875,9.9375 11.375,9.875 q 0.1875,-0.0625 0.3125,-0.1875 l 0.125,-0.125 -0.0625,0.0625 -0.0625,0.0625 0.328125,0.296875 0.328125,0.296875 0.04687,-0.04687 0.04687,-0.04687 -0.09375,0.09375 Q 12.25,10.375 12.25,10.5 l 0,0.125 0,-0.1875 0,-0.1875 0,0.25 0,0.25 0,-0.1875 0,-0.1875 0,0.125 q 0,0.125 0.09375,0.21875 L 12.4375,10.8125 12.390625,10.765625 12.34375,10.71875 12,11 l -0.34375,0.28125 0.04687,0.04687 L 11.75,11.375 11.65625,11.28125 Q 11.5625,11.1875 11.375,11.125 L 11.1875,11.0625 11.46875,11.15625 11.75,11.25 11.3125,11.0625 10.875,10.875 10.8125,10.9375 10.75,11 10.875,10.875 Q 11,10.75 11,10.5 l 0,-0.25 0,0.375 0,0.375 0,-0.5"
           id="path32095" />
        <path
           style="fill:#000000;fill-opacity:0.45098039"
           d="m 12.25,10.5 q 0,-0.25 0.375,-0.375 L 13,10 13,10.5 13,11 12.625,10.875 Q 12.25,10.75 12.25,10.5"
           id="path32097" />
        <path
           style="fill:#000000;fill-opacity:0"
           d="m 13,10.5 0,-0.5 0.5,0 0.5,0 0,0.5 0,0.5 0,0.5 0,0.5 -0.5,0 -0.5,0 0,-0.5 0,-0.5 0,-0.5"
           id="path32099" />
        <path
           style="fill:#000000;fill-opacity:0.03921569"
           d="m 14,10.5 0,-0.5 0.5,0 0.5,0 -0.125,0.375 q -0.125,0.375 -0.5,0.5 L 14,11 14,10.5"
           id="path32101" />
        <path
           style="fill:#050505;fill-opacity:0.99215686"
           d="M 14.875,10.375 15,10 l 0.5,0 0.5,0 0,0.5 0,0.5 -0.375,0.125 -0.375,0.125 0.28125,-0.09375 0.28125,-0.09375 -0.1875,0.0625 q -0.1875,0.0625 -0.3125,0.1875 l -0.125,0.125 L 15.25,11.375 15.3125,11.3125 15,11 14.6875,10.6875 14.625,10.75 l -0.0625,0.0625 0.125,-0.125 q 0.125,-0.125 0.1875,-0.3125 L 14.9375,10.1875 14.84375,10.46875 14.75,10.75 14.875,10.375 M 16,11.125 16,11 l 0,-0.375 0,-0.375 0,0.25 q 0,0.25 0,0.5 l 0,0.25 0,-0.125"
           id="path32103" />
        <path
           style="fill:#e4e4e4;fill-opacity:1"
           d="M 16,10.5 16,10 16.375,9.875 16.75,9.75 16.46875,9.84375 16.1875,9.9375 16.375,9.875 Q 16.5625,9.8125 16.6875,9.6875 L 16.8125,9.5625 16.75,9.625 16.6875,9.6875 16.96875,9.96875 Q 17.25,10.25 17.125,10.625 L 17,11 16.5,11 16,11 16,10.5 m 0,0.125 0,0.375 0,0.125 0,0.125 0,-0.25 q 0,-0.25 0,-0.5 l 0,-0.25 0,0.375"
           id="path32105" />
        <path
           style="fill:#393939;fill-opacity:1"
           d="m 18,10.5 0,-0.5 0.375,0.125 q 0.375,0.125 0.375,0.375 0,0.25 -0.375,0.375 L 18,11 18,10.5"
           id="path32107" />
        <path
           style="fill:#000000;fill-opacity:0.39607843"
           d="m 18.75,10.5 0,-0.25 0,0.1875 0,0.1875 0,-0.125 q 0,-0.125 -0.09375,-0.21875 l -0.09375,-0.09375 0.04687,0.04687 0.04687,0.04687 L 18.984375,9.984375 19.3125,9.6875 19.25,9.625 19.1875,9.5625 l 0.125,0.125 q 0.125,0.125 0.3125,0.1875 L 19.8125,9.9375 19.53125,9.84375 19.25,9.75 19.625,9.875 20,10 20,10.5 20,11 19.625,11.125 19.25,11.25 19.53125,11.15625 19.8125,11.0625 19.625,11.125 q -0.1875,0.0625 -0.3125,0.1875 l -0.125,0.125 0.0625,-0.0625 0.0625,-0.0625 -0.328125,-0.296875 -0.328125,-0.296875 -0.04687,0.04687 -0.04687,0.04687 0.09375,-0.09375 Q 18.75,10.625 18.75,10.5 l 0,-0.125 0,0.1875 0,0.1875 0,-0.25"
           id="path32109" />
        <path
           style="fill:#000000;fill-opacity:0.01568627"
           d="M 1,11.5 Q 1,11 1.5,11 L 2,11 2,11.5 2,12 1.5,12 1,12 1,11.5"
           id="path32111" />
        <path
           style="fill:#151515;fill-opacity:0.09411765"
           d="M 2,11.5 2,11 2.5,11 3,11 2.875,11.375 q -0.125,0.375 -0.5,0.5 L 2,12 2,11.5"
           id="path32113" />
        <path
           style="fill:#0d0d0d;fill-opacity:0.54509804"
           d="M 2.875,11.375 3,11 3.5,11 4,11 4.125,11.375 4.25,11.75 4.15625,11.46875 4.0625,11.1875 4.125,11.375 q 0.0625,0.1875 0.1875,0.3125 l 0.125,0.125 L 4.375,11.75 4.3125,11.6875 4.015625,12.015625 3.71875,12.34375 3.765625,12.390625 3.8125,12.4375 3.71875,12.34375 Q 3.625,12.25 3.5,12.25 l -0.125,0 0.1875,0 0.1875,0 -0.25,0 -0.25,0 0.1875,0 0.1875,0 -0.125,0 q -0.125,0 -0.21875,0.09375 L 3.1875,12.4375 3.234375,12.390625 3.28125,12.34375 2.984375,12.015625 2.6875,11.6875 2.625,11.75 2.5625,11.8125 2.6875,11.6875 Q 2.8125,11.5625 2.875,11.375 L 2.9375,11.1875 2.84375,11.46875 2.75,11.75 2.875,11.375"
           id="path32115" />
        <path
           style="fill:#000000;fill-opacity:0.1372549"
           d="M 4.125,11.375 4,11 4.5,11 Q 5,11 5,11.5 L 5,12 4.625,11.875 q -0.375,-0.125 -0.5,-0.5"
           id="path32117" />
        <path
           style="fill:#000000;fill-opacity:0.12156863"
           d="M 6,11.5 6,11 6.5,11 7,11 7,11.5 7,12 6.5,12 6,12 6,11.5"
           id="path32119" />
        <path
           style="fill:#101010;fill-opacity:0.90980392"
           d="M 7,11.5 7,11 7.5,11 8,11 8.125,11.375 8.25,11.75 8.15625,11.46875 8.0625,11.1875 8.125,11.375 q 0.0625,0.1875 0.1875,0.3125 l 0.125,0.125 L 8.375,11.75 8.3125,11.6875 8,12 7.6875,12.3125 7.75,12.375 7.8125,12.4375 7.6875,12.3125 Q 7.5625,12.1875 7.375,12.125 L 7.1875,12.0625 7.46875,12.15625 7.75,12.25 7.375,12.125 7,12 7,11.5"
           id="path32121" />
        <path
           style="fill:#a2a2a2;fill-opacity:1"
           d="M 8.125,11.375 8,11 8.5625,11.0625 9.125,11.125 9.1875,11.0625 9.25,11 9.125,11.125 Q 9,11.25 9,11.5 L 9,11.75 9,11.375 9,11 9,11.5 Q 9,12 8.625,11.875 8.25,11.75 8.125,11.375"
           id="path32123" />
        <path
           style="fill:#373737;fill-opacity:1"
           d="M 9,11.5 Q 9,11 9.5,11 L 10,11 10,11.5 10,12 9.4375,11.9375 8.875,11.875 8.8125,11.9375 8.75,12 8.875,11.875 Q 9,11.75 9,11.5 L 9,11.25 9,11.625 9,12 9,11.5 M 9.625,12 10,12 10.125,12 10.25,12 10,12 q -0.25,0 -0.5,0 l -0.25,0 0.375,0 m 0.5,-1 L 10,11 9.625,11 9.25,11 9.5,11 q 0.25,0 0.5,0 l 0.25,0 -0.125,0"
           id="path32125" />
        <path
           style="fill:#808080;fill-opacity:1"
           d="m 10,11.5 0,-0.5 0.5,0 0.5,0 -0.375,0 -0.375,0 0.25,0 q 0.25,0 0.375,-0.125 L 11,10.75 10.9375,10.8125 10.875,10.875 10.9375,11.4375 11,12 10.5,12 10,12 10,11.5 M 9.875,12 10,12 l 0.375,0 0.375,0 -0.25,0 q -0.25,0 -0.5,0 l -0.25,0 0.125,0 m 0.5,-1 L 10,11 9.875,11 9.75,11 10,11 q 0.25,0 0.5,0 l 0.25,0 -0.375,0"
           id="path32127" />
        <path
           style="fill:#707070;fill-opacity:0.98431373"
           d="M 10.9375,11.4375 10.875,10.875 11.3125,11.0625 Q 11.75,11.25 11.75,11.5 q 0,0.25 -0.375,0.375 L 11,12 10.9375,11.4375"
           id="path32129" />
        <path
           style="fill:#000000;fill-opacity:0.69019608"
           d="m 11.75,11.5 0,-0.25 0,0.1875 0,0.1875 0,-0.125 q 0,-0.125 -0.09375,-0.21875 l -0.09375,-0.09375 0.04687,0.04687 0.04687,0.04687 L 12,11 12.34375,10.71875 12.296875,10.671875 12.25,10.625 12.34375,10.71875 Q 12.4375,10.8125 12.625,10.875 L 12.8125,10.9375 12.53125,10.84375 12.25,10.75 12.625,10.875 13,11 13,11.5 13,12 12.625,12.125 12.25,12.25 12.53125,12.15625 12.8125,12.0625 12.625,12.125 q -0.1875,0.0625 -0.3125,0.1875 l -0.125,0.125 0.0625,-0.0625 0.0625,-0.0625 -0.328125,-0.296875 -0.328125,-0.296875 -0.04687,0.04687 -0.04687,0.04687 0.09375,-0.09375 Q 11.75,11.625 11.75,11.5 l 0,-0.125 0,0.1875 0,0.1875 0,-0.25"
           id="path32131" />
        <path
           style="fill:#000000;fill-opacity:0.49019608"
           d="M 14,11.5 14,11 14.375,10.875 14.75,10.75 14.46875,10.84375 14.1875,10.9375 14.375,10.875 q 0.1875,-0.0625 0.3125,-0.1875 l 0.125,-0.125 L 14.75,10.625 14.6875,10.6875 15,11 l 0.3125,0.3125 0.0625,-0.0625 0.0625,-0.0625 -0.125,0.125 q -0.125,0.125 -0.1875,0.3125 L 15.0625,11.8125 15.15625,11.53125 15.25,11.25 15.1875,11.6875 15.125,12.125 14.5625,12.0625 14,12 14,11.5"
           id="path32133" />
        <path
           style="fill:#484848;fill-opacity:1"
           d="M 15.1875,11.6875 Q 15.25,11.25 15.625,11.125 L 16,11 16,11.5 Q 16,12 15.5,12 l -0.5,0 0.375,0 0.375,0 -0.25,0 q -0.25,0 -0.375,0.125 L 15,12.25 15.0625,12.1875 15.125,12.125 15.1875,11.6875 M 16,11.375 16,11 16,10.875 16,10.75 16,11 q 0,0.25 0,0.5 l 0,0.25 0,-0.375"
           id="path32135" />
        <path
           style="fill:#ffffff;fill-opacity:1"
           d="m 16,11.5 0,-0.5 0.5,0 0.5,0 -0.125,0.375 q -0.125,0.375 0.15625,0.65625 l 0.28125,0.28125 0.0625,-0.0625 0.0625,-0.0625 -0.125,0.125 q -0.125,0.125 -0.1875,0.3125 L 17.0625,12.8125 17.15625,12.53125 17.25,12.25 17.125,12.625 Q 17,13 17,13.5 l 0,0.5 -0.5,0 q -0.5,0 -0.625,0.375 -0.125,0.375 -0.5,0.5 -0.375,0.125 -0.5,0.5 -0.125,0.375 -0.5,0.5 Q 14,16 14,16.5 l 0,0.5 -0.5,0 Q 13,17 12.625,17.125 L 12.25,17.25 12.53125,17.15625 12.8125,17.0625 12.625,17.125 q -0.1875,0.0625 -0.3125,0.1875 l -0.125,0.125 0.0625,-0.0625 0.0625,-0.0625 -0.28125,-0.28125 Q 11.75,16.75 11.375,16.875 L 11,17 10.5,17 10,17 9.625,16.875 Q 9.25,16.75 8.96875,17.03125 L 8.6875,17.3125 8.75,17.375 8.8125,17.4375 8.6875,17.3125 Q 8.5625,17.1875 8.375,17.125 L 8.1875,17.0625 8.46875,17.15625 8.75,17.25 8.375,17.125 Q 8,17 7.5,17 L 7,17 7.125,16.625 Q 7.25,16.25 7.625,16.125 8,16 8.5,16 l 0.5,0 0.5,0 0.5,0 0.5,0 q 0.5,0 0.875,-0.125 L 11.75,15.75 11.46875,15.84375 11.1875,15.9375 11.375,15.875 q 0.1875,-0.0625 0.3125,-0.1875 l 0.125,-0.125 -0.0625,0.0625 -0.0625,0.0625 0.28125,0.28125 Q 12.25,16.25 12.625,16.125 13,16 12.953125,15.453125 l -0.04687,-0.546875 0.421875,-0.07813 Q 13.75,14.75 14,14.5 14.25,14.25 14.5,14 14.75,13.75 14.875,13.375 L 15,13 15.375,12.875 Q 15.75,12.75 15.8125,12.3125 L 15.875,11.875 15.8125,11.9375 15.75,12 15.875,11.875 Q 16,11.75 16,11.5 l 0,-0.25 0,0.375 0,0.375 0,-0.5 M 13.625,17 14,17 14.125,17 14.25,17 14,17 q -0.25,0 -0.5,0 l -0.25,0 0.375,0 M 16,10.875 16,11 l 0,0.375 0,0.375 0,-0.25 q 0,-0.25 0,-0.5 l 0,-0.25 0,0.125"
           id="path32137" />
        <path
           style="fill:#fcfcfc;fill-opacity:1"
           d="M 16.875,11.375 17,11 l 0.5,0 0.5,0 0,0.5 0,0.5 -0.375,0.125 -0.375,0.125 0.28125,-0.09375 0.28125,-0.09375 -0.1875,0.0625 q -0.1875,0.0625 -0.3125,0.1875 l -0.125,0.125 0.0625,-0.0625 0.0625,-0.0625 -0.28125,-0.28125 Q 16.75,11.75 16.875,11.375"
           id="path32139" />
        <path
           style="fill:#242424;fill-opacity:1"
           d="M 18,11.5 18,11 18.375,10.875 18.75,10.75 18.46875,10.84375 18.1875,10.9375 18.375,10.875 q 0.1875,-0.0625 0.28125,-0.15625 L 18.75,10.625 l -0.04687,0.04687 -0.04687,0.04687 0.328125,0.296875 0.328125,0.296875 0.0625,-0.0625 0.0625,-0.0625 -0.125,0.125 q -0.125,0.125 -0.1875,0.3125 L 19.0625,11.8125 19.15625,11.53125 19.25,11.25 19.125,11.625 19,12 18.5,12 18,12 18,11.5"
           id="path32141" />
        <path
           style="fill:#000000;fill-opacity:0.2627451"
           d="m 19.125,11.625 q 0.125,-0.375 0.5,-0.5 L 20,11 l 0,0.5 0,0.5 -0.5,0 -0.5,0 0.125,-0.375"
           id="path32143" />
        <path
           style="fill:#000000;fill-opacity:0.00784314"
           d="M 1,12.5 1,12 1.5,12 2,12 2,12.5 2,13 1.5,13 Q 1,13 1,12.5"
           id="path32145" />
        <path
           style="fill:#020202;fill-opacity:0.50196078"
           d="M 2,12.5 2,12 2.375,11.875 2.75,11.75 2.46875,11.84375 2.1875,11.9375 2.375,11.875 Q 2.5625,11.8125 2.6875,11.6875 L 2.8125,11.5625 2.75,11.625 2.6875,11.6875 2.984375,12.015625 3.28125,12.34375 3.328125,12.296875 3.375,12.25 3.28125,12.34375 Q 3.1875,12.4375 3.125,12.625 L 3.0625,12.8125 3.15625,12.53125 3.25,12.25 3.125,12.625 3,13 2.5,13 2,13 2,12.5"
           id="path32147" />
        <path
           style="fill:#525252;fill-opacity:0.87058824"
           d="M 3.125,12.625 Q 3.25,12.25 3.5,12.25 q 0.25,0 0.375,0.375 L 4,13 3.5,13 3,13 3.125,12.625"
           id="path32149" />
        <path
           style="fill:#090909;fill-opacity:0.93333333"
           d="M 3.875,12.625 3.75,12.25 3.84375,12.53125 3.9375,12.8125 3.875,12.625 Q 3.8125,12.4375 3.71875,12.34375 L 3.625,12.25 3.671875,12.296875 3.71875,12.34375 4.015625,12.015625 4.3125,11.6875 4.25,11.625 4.1875,11.5625 l 0.125,0.125 q 0.125,0.125 0.3125,0.1875 L 4.8125,11.9375 4.53125,11.84375 4.25,11.75 4.625,11.875 5,12 5.125,12.375 5.25,12.75 5.15625,12.46875 5.0625,12.1875 5.125,12.375 q 0.0625,0.1875 0.1875,0.3125 l 0.125,0.125 L 5.375,12.75 5.3125,12.6875 5.015625,12.984375 4.71875,13.28125 4.796875,13.328125 4.875,13.375 4.71875,13.28125 Q 4.5625,13.1875 4.375,13.125 L 4.1875,13.0625 4.46875,13.15625 4.75,13.25 4.359375,13.140625 3.96875,13.03125 3.984375,13.140625 4,13.25 3.96875,13.03125 Q 3.9375,12.8125 3.875,12.625 L 3.8125,12.4375 3.90625,12.71875 4,13 3.875,12.625"
           id="path32151" />
        <path
           style="fill:#000000;fill-opacity:0.08627451"
           d="M 5.125,12.375 5,12 5.5,12 6,12 6,12.5 6,13 5.625,12.875 q -0.375,-0.125 -0.5,-0.5"
           id="path32153" />
        <path
           style="fill:#000000;fill-opacity:0.07843137"
           d="M 6,12.5 6,12 6.5,12 7,12 7,12.5 7,13 6.5,13 6,13 6,12.5"
           id="path32155" />
        <path
           style="fill:#232323;fill-opacity:0.28235294"
           d="M 7,12.5 7,12 7.375,12.125 q 0.375,0.125 0.5,0.5 L 8,13 7.5,13 7,13 7,12.5"
           id="path32157" />
        <path
           style="fill:#040404;fill-opacity:0.89019608"
           d="M 7.875,12.625 7.75,12.25 7.84375,12.53125 7.9375,12.8125 7.875,12.625 Q 7.8125,12.4375 7.6875,12.3125 L 7.5625,12.1875 7.625,12.25 7.6875,12.3125 8,12 8.3125,11.6875 8.25,11.625 8.1875,11.5625 l 0.125,0.125 q 0.125,0.125 0.3125,0.1875 L 8.8125,11.9375 8.53125,11.84375 8.25,11.75 8.625,11.875 9,12 8.625,12 8.25,12 8.5,12 q 0.25,0 0.375,-0.125 L 9,11.75 8.9375,11.8125 8.875,11.875 8.9375,12.4375 9,13 8.5,13 8,13 7.875,12.625"
           id="path32159" />
        <path
           style="fill:#000000;fill-opacity:0.40784314"
           d="M 8.9375,12.4375 8.875,11.875 9.4375,11.9375 10,12 10,12.5 10,13 9.5,13 9,13 8.9375,12.4375"
           id="path32161" />
        <path
           style="fill:#000000;fill-opacity:0.78431373"
           d="m 10,12.5 0,-0.5 0.5,0 0.5,0 0,0.5 0,0.5 -0.5,0 -0.5,0 0,-0.5"
           id="path32163" />
        <path
           style="fill:#161616;fill-opacity:0.76470588"
           d="M 11,12.5 11,12 11.375,11.875 11.75,11.75 11.46875,11.84375 11.1875,11.9375 11.375,11.875 q 0.1875,-0.0625 0.28125,-0.15625 L 11.75,11.625 l -0.04687,0.04687 -0.04687,0.04687 0.328125,0.296875 0.328125,0.296875 0.0625,-0.0625 0.0625,-0.0625 -0.125,0.125 q -0.125,0.125 -0.1875,0.3125 L 12.0625,12.8125 12.15625,12.53125 12.25,12.25 12.125,12.625 12,13 11.5,13 11,13 11,12.5"
           id="path32165" />
        <path
           style="fill:#000000;fill-opacity:0.12941176"
           d="m 12.125,12.625 q 0.125,-0.375 0.5,-0.5 L 13,12 l 0,0.5 0,0.5 -0.5,0 -0.5,0 0.125,-0.375"
           id="path32167" />
        <path
           style="fill:#000000;fill-opacity:0.00784314"
           d="m 13,12.5 0,-0.5 0.5,0 0.5,0 -0.125,0.375 q -0.125,0.375 -0.5,0.5 L 13,13 13,12.5"
           id="path32169" />
        <path
           style="fill:#010101;fill-opacity:0.99607843"
           d="M 13.875,12.375 14,12 14.5625,12.0625 15.125,12.125 15.1875,12.0625 15.25,12 15.125,12.125 Q 15,12.25 15,12.5 l 0,0.25 0,-0.375 0,-0.375 0,0.5 0,0.5 -0.375,0.125 -0.375,0.125 0.28125,-0.09375 0.28125,-0.09375 -0.1875,0.0625 q -0.1875,0.0625 -0.34375,0.15625 L 14.125,13.375 14.203125,13.328125 14.28125,13.28125 13.984375,12.984375 13.6875,12.6875 13.625,12.75 l -0.0625,0.0625 0.125,-0.125 q 0.125,-0.125 0.1875,-0.3125 L 13.9375,12.1875 13.84375,12.46875 13.75,12.75 13.875,12.375"
           id="path32171" />
        <path
           style="fill:#cdcdcd;fill-opacity:1"
           d="M 15,12.5 Q 15,12 15.5,12 l 0.5,0 -0.375,0 -0.375,0 0.25,0 q 0.25,0 0.375,-0.125 L 16,11.75 15.9375,11.8125 15.875,11.875 15.8125,12.3125 Q 15.75,12.75 15.375,12.875 L 15,13 15,12.5"
           id="path32173" />
        <path
           style="fill:#cecece;fill-opacity:1"
           d="m 17.125,12.625 q 0.125,-0.375 0.5,-0.5 L 18,12 l 0,0.5 0,0.5 0,-0.375 0,-0.375 0,0.25 q 0,0.25 -0.03125,0.46875 L 17.9375,13.1875 17.953125,13.078125 17.96875,12.96875 17.5,13 17.03125,13.03125 17.015625,13.140625 17,13.25 17.03125,13.03125 Q 17.0625,12.8125 17.125,12.625 L 17.1875,12.4375 17.09375,12.71875 17,13 17.125,12.625"
           id="path32175" />
        <path
           style="fill:#010101;fill-opacity:0.97254902"
           d="m 18,12.5 0,-0.5 0.5,0 0.5,0 0,0.5 0,0.5 -0.515625,-0.01563 -0.515625,-0.01563 -0.01563,0.109375 -0.01563,0.109375 0.03125,-0.21875 Q 18,12.75 18,12.5 l 0,-0.25 0,0.375 0,0.375 0,-0.5"
           id="path32177" />
        <path
           style="fill:#000000;fill-opacity:0.00784314"
           d="m 19,12.5 0,-0.5 0.5,0 0.5,0 0,0.5 Q 20,13 19.5,13 l -0.5,0 0,-0.5"
           id="path32179" />
        <path
           style="fill:#000000;fill-opacity:0.43137255"
           d="M 2,13.5 2,13 2.5,13 3,13 3.125,13.375 3.25,13.75 3.15625,13.46875 3.0625,13.1875 3.125,13.375 q 0.0625,0.1875 0.1875,0.3125 l 0.125,0.125 L 3.375,13.75 3.3125,13.6875 3,14 2.6875,14.3125 2.75,14.375 2.8125,14.4375 2.6875,14.3125 Q 2.5625,14.1875 2.375,14.125 L 2.1875,14.0625 2.46875,14.15625 2.75,14.25 2.375,14.125 Q 2,14 2,13.5"
           id="path32181" />
        <path
           style="fill:#3d3d3d;fill-opacity:0.97254902"
           d="M 3.125,13.375 3,13 3.5,13 4,13 4,13.5 4,14 4,13.625 4,13.25 4,13.5 q 0,0.25 0.03125,0.46875 L 4.0625,14.1875 4.046875,14.078125 4.03125,13.96875 3.640625,13.859375 Q 3.25,13.75 3.125,13.375"
           id="path32183" />
        <path
           style="fill:#999999;fill-opacity:1"
           d="M 4,13.5 4,13 4,13.375 4,13.75 4,13.5 Q 4,13.25 3.96875,13.03125 L 3.9375,12.8125 3.953125,12.921875 3.96875,13.03125 4.359375,13.140625 Q 4.75,13.25 5,13.5 L 5.25,13.75 4.96875,14.03125 4.6875,14.3125 4.75,14.375 4.8125,14.4375 4.6875,14.3125 Q 4.5625,14.1875 4.375,14.125 L 4.1875,14.0625 4.46875,14.15625 4.75,14.25 4.375,14.125 4,14 4,13.5 M 5.3125,13.8125 5.25,13.75 5.0625,13.5625 4.875,13.375 5,13.5 q 0.125,0.125 0.25,0.25 l 0.125,0.125 -0.0625,-0.0625"
           id="path32185" />
        <path
           style="fill:#000000;fill-opacity:0.99215686"
           d="M 5,13.5 4.75,13.25 4.9375,13.4375 5.125,13.625 5,13.5 Q 4.875,13.375 4.71875,13.28125 L 4.5625,13.1875 4.640625,13.234375 4.71875,13.28125 5.015625,12.984375 5.3125,12.6875 5.25,12.625 5.1875,12.5625 l 0.125,0.125 q 0.125,0.125 0.3125,0.1875 L 5.8125,12.9375 5.53125,12.84375 5.25,12.75 5.625,12.875 6,13 6.125,13.375 6.25,13.75 6.15625,13.46875 6.0625,13.1875 6.125,13.375 q 0.0625,0.1875 0.1875,0.3125 l 0.125,0.125 L 6.375,13.75 6.3125,13.6875 6.015625,13.984375 5.71875,14.28125 5.765625,14.359375 5.8125,14.4375 5.71875,14.28125 Q 5.625,14.125 5.5,14 L 5.375,13.875 5.5625,14.0625 5.75,14.25 5.5,14 Q 5.25,13.75 5,13.5"
           id="path32187" />
        <path
           style="fill:#000000;fill-opacity:0.29411765"
           d="M 6.125,13.375 6,13 6.5,13 7,13 7,13.5 7,14 6.625,13.875 q -0.375,-0.125 -0.5,-0.5"
           id="path32189" />
        <path
           style="fill:#000000;fill-opacity:0.07843137"
           d="M 7,13.5 7,13 7.5,13 8,13 8,13.5 8,14 7.5,14 7,14 7,13.5"
           id="path32191" />
        <path
           style="fill:#000000;fill-opacity:0.03921569"
           d="M 8,13.5 8,13 8.5,13 9,13 9,13.5 9,14 8.5,14 8,14 8,13.5"
           id="path32193" />
        <path
           style="fill:#000000;fill-opacity:0"
           d="m 9,13.5 0,-0.5 0.5,0 0.5,0 0.5,0 0.5,0 0,0.5 0,0.5 -0.5,0 L 10,14 9.5,14 9,14 9,13.5"
           id="path32195" />
        <path
           style="fill:#000000;fill-opacity:0.12941176"
           d="m 11,13.5 0,-0.5 0.5,0 0.5,0 0,0.5 0,0.5 -0.5,0 -0.5,0 0,-0.5"
           id="path32197" />
        <path
           style="fill:#000000;fill-opacity:0.32941176"
           d="m 12,13.5 0,-0.5 0.5,0 0.5,0 -0.125,0.375 q -0.125,0.375 -0.5,0.5 L 12,14 12,13.5"
           id="path32199" />
        <path
           style="fill:#000000;fill-opacity:0.98823529"
           d="M 12.875,13.375 13,13 13.375,12.875 13.75,12.75 13.46875,12.84375 13.1875,12.9375 13.375,12.875 q 0.1875,-0.0625 0.3125,-0.1875 l 0.125,-0.125 -0.0625,0.0625 -0.0625,0.0625 0.296875,0.296875 0.296875,0.296875 0.07813,-0.04687 0.07813,-0.04687 -0.15625,0.09375 Q 14.125,13.375 14,13.5 L 13.875,13.625 14.0625,13.4375 14.25,13.25 14,13.5 Q 13.75,13.75 13.5,14 L 13.25,14.25 13.4375,14.0625 13.625,13.875 13.5,14 q -0.125,0.125 -0.21875,0.28125 l -0.09375,0.15625 0.04687,-0.07813 0.04687,-0.07813 L 12.984375,13.984375 12.6875,13.6875 12.625,13.75 l -0.0625,0.0625 0.125,-0.125 q 0.125,-0.125 0.1875,-0.3125 L 12.9375,13.1875 12.84375,13.46875 12.75,13.75 12.875,13.375"
           id="path32201" />
        <path
           style="fill:#9d9d9d;fill-opacity:1"
           d="m 14,13.5 q 0.25,-0.25 0.625,-0.375 L 15,13 14.875,13.375 Q 14.75,13.75 14.5,14 L 14.25,14.25 14,14 13.75,13.75 14,13.5 M 13.9375,13.5625 13.75,13.75 13.6875,13.8125 13.625,13.875 13.75,13.75 Q 13.875,13.625 14,13.5 l 0.125,-0.125 -0.1875,0.1875 m 0.25,0.75 L 14.25,14.25 14.4375,14.0625 14.625,13.875 14.5,14 q -0.125,0.125 -0.25,0.25 l -0.125,0.125 0.0625,-0.0625"
           id="path32203" />
        <path
           style="fill:#7f7f7f;fill-opacity:1"
           d="m 17,13.5 0,-0.5 0,0.375 0,0.375 0,-0.25 q 0,-0.25 0.03125,-0.46875 L 17.0625,12.8125 17.046875,12.921875 17.03125,13.03125 17.5,13 17.96875,12.96875 17.984375,12.859375 18,12.75 17.96875,12.96875 Q 17.9375,13.1875 17.875,13.375 L 17.8125,13.5625 17.90625,13.28125 18,13 17.875,13.375 Q 17.75,13.75 17.359375,13.859375 L 16.96875,13.96875 16.953125,14.078125 16.9375,14.1875 16.96875,13.96875 Q 17,13.75 17,13.5 l 0,-0.25 0,0.375 0,0.375 0,-0.5"
           id="path32205" />
        <path
           style="fill:#000000;fill-opacity:0.75294118"
           d="M 17.875,13.375 18,13 17.90625,13.28125 17.8125,13.5625 17.875,13.375 q 0.0625,-0.1875 0.09375,-0.40625 L 18,12.75 l -0.01563,0.109375 -0.01563,0.109375 0.515625,0.01563 L 19,13 19,13.5 19,14 18.625,14.125 18.25,14.25 18.53125,14.15625 18.8125,14.0625 18.625,14.125 q -0.1875,0.0625 -0.3125,0.1875 l -0.125,0.125 L 18.25,14.375 18.3125,14.3125 18,14 17.6875,13.6875 17.625,13.75 l -0.0625,0.0625 0.125,-0.125 q 0.125,-0.125 0.1875,-0.3125 L 17.9375,13.1875 17.84375,13.46875 17.75,13.75 17.875,13.375"
           id="path32207" />
        <path
           style="fill:#000000;fill-opacity:0.93333333"
           d="M 2.875,14.625 2.75,14.25 2.84375,14.53125 2.9375,14.8125 2.875,14.625 Q 2.8125,14.4375 2.6875,14.3125 L 2.5625,14.1875 2.625,14.25 2.6875,14.3125 3,14 3.3125,13.6875 3.25,13.625 3.1875,13.5625 l 0.125,0.125 q 0.125,0.125 0.3125,0.1875 L 3.8125,13.9375 3.53125,13.84375 3.25,13.75 3.640625,13.859375 4.03125,13.96875 4.015625,13.859375 4,13.75 4.03125,13.96875 Q 4.0625,14.1875 4.125,14.375 L 4.1875,14.5625 4.09375,14.28125 4,14 4.125,14.375 4.25,14.75 4.15625,14.46875 4.0625,14.1875 4.125,14.375 q 0.0625,0.1875 0.1875,0.3125 l 0.125,0.125 L 4.375,14.75 4.3125,14.6875 4,15 3.6875,15.3125 3.75,15.375 3.8125,15.4375 3.6875,15.3125 Q 3.5625,15.1875 3.375,15.125 L 3.1875,15.0625 3.46875,15.15625 3.75,15.25 3.375,15.125 3,15 2.875,14.625"
           id="path32209" />
        <path
           style="fill:#a8a8a8;fill-opacity:1"
           d="M 4.125,14.375 4,14 4.375,14.125 Q 4.75,14.25 4.84375,14.65625 L 4.9375,15.0625 5,15.125 5.0625,15.1875 4.9375,15.0625 Q 4.8125,14.9375 4.625,14.875 L 4.4375,14.8125 4.71875,14.90625 5,15 4.625,14.875 q -0.375,-0.125 -0.5,-0.5"
           id="path32211" />
        <path
           style="fill:#c3c3c3;fill-opacity:1"
           d="M 4.84375,14.65625 4.75,14.25 4.84375,14.53125 4.9375,14.8125 4.875,14.625 Q 4.8125,14.4375 4.6875,14.3125 L 4.5625,14.1875 4.625,14.25 4.6875,14.3125 4.96875,14.03125 5.25,13.75 5.5,14 q 0.25,0.25 0.375,0.625 L 6,15 5.90625,14.71875 5.8125,14.4375 5.875,14.625 q 0.0625,0.1875 0.21875,0.28125 L 6.25,15 6.171875,14.953125 6.09375,14.90625 5.515625,14.984375 4.9375,15.0625 4.84375,14.65625 M 5.4375,13.9375 5.25,13.75 5.1875,13.6875 5.125,13.625 5.25,13.75 Q 5.375,13.875 5.5,14 l 0.125,0.125 -0.1875,-0.1875"
           id="path32213" />
        <path
           style="fill:#292929;fill-opacity:1"
           d="M 5.875,14.625 5.75,14.25 5.84375,14.53125 5.9375,14.8125 5.875,14.625 Q 5.8125,14.4375 5.71875,14.28125 L 5.625,14.125 5.671875,14.203125 5.71875,14.28125 6.015625,13.984375 6.3125,13.6875 6.25,13.625 6.1875,13.5625 l 0.125,0.125 q 0.125,0.125 0.3125,0.1875 L 6.8125,13.9375 6.53125,13.84375 6.25,13.75 6.625,13.875 7,14 7,14.5 7,15 6.5,15 Q 6,15 5.875,14.625 M 6.625,15 7,15 7.125,15 7.25,15 7,15 q -0.25,0 -0.5,0 l -0.25,0 0.375,0"
           id="path32215" />
        <path
           style="fill:#000000;fill-opacity:0.94509804"
           d="M 7,14.5 7,14 7.5,14 8,14 8,14.5 8,15 7.5,15 7,15 7,14.5 M 6.875,15 7,15 7.375,15 7.75,15 7.5,15 Q 7.25,15 7,15 l -0.25,0 0.125,0 M 7.625,15 8,15 8.125,15 8.25,15 8,15 q -0.25,0 -0.5,0 l -0.25,0 0.375,0"
           id="path32217" />
        <path
           style="fill:#000000;fill-opacity:0.74509804"
           d="M 8,14.5 8,14 8.5,14 9,14 9,14.5 9,15 8.5,15 8,15 8,14.5 M 7.875,15 8,15 8.375,15 8.75,15 8.5,15 Q 8.25,15 8,15 l -0.25,0 0.125,0"
           id="path32219" />
        <path
           style="fill:#000000;fill-opacity:0.6627451"
           d="M 9,14.5 9,14 9.5,14 10,14 10,14.5 10,15 9.5,15 9,15 9,14.5"
           id="path32221" />
        <path
           style="fill:#000000;fill-opacity:0.75294118"
           d="m 10,14.5 0,-0.5 0.5,0 0.5,0 0,0.5 0,0.5 -0.5,0 -0.5,0 0,-0.5 M 10.625,15 11,15 11.125,15 11.25,15 11,15 q -0.25,0 -0.5,0 l -0.25,0 0.375,0"
           id="path32223" />
        <path
           style="fill:#000000;fill-opacity:0.94901961"
           d="m 11,14.5 0,-0.5 0.5,0 0.5,0 0,0.5 0,0.5 -0.5,0 -0.5,0 0,-0.5 M 10.875,15 11,15 l 0.375,0 0.375,0 -0.25,0 q -0.25,0 -0.5,0 l -0.25,0 0.125,0 m 0.75,0 0.375,0 0.125,0 0.125,0 -0.25,0 q -0.25,0 -0.5,0 l -0.25,0 0.375,0"
           id="path32225" />
        <path
           style="fill:#2e2e2e;fill-opacity:1"
           d="M 12,14.5 12,14 12.375,13.875 12.75,13.75 12.46875,13.84375 12.1875,13.9375 12.375,13.875 q 0.1875,-0.0625 0.3125,-0.1875 l 0.125,-0.125 -0.0625,0.0625 -0.0625,0.0625 0.296875,0.296875 0.296875,0.296875 0.04687,-0.07813 L 13.375,14.125 13.28125,14.28125 Q 13.1875,14.4375 13.125,14.625 L 13.0625,14.8125 13.15625,14.53125 13.25,14.25 13.125,14.625 Q 13,15 12.5,15 L 12,15 12,14.5 M 11.875,15 12,15 l 0.375,0 0.375,0 -0.25,0 q -0.25,0 -0.5,0 l -0.25,0 0.125,0"
           id="path32227" />
        <path
           style="fill:#b6b6b6;fill-opacity:1"
           d="M 13.125,14.625 Q 13.25,14.25 13.5,14 L 13.75,13.75 14,14 14.25,14.25 14,14.5 q -0.25,0.25 -0.671875,0.328125 l -0.421875,0.07813 -0.07813,0.04687 L 12.75,15 12.90625,14.90625 Q 13.0625,14.8125 13.125,14.625 L 13.1875,14.4375 13.09375,14.71875 13,15 13.125,14.625 M 14.0625,14.4375 14.25,14.25 14.3125,14.1875 14.375,14.125 14.25,14.25 Q 14.125,14.375 14,14.5 l -0.125,0.125 0.1875,-0.1875 m -0.25,-0.75 L 13.75,13.75 13.5625,13.9375 13.375,14.125 13.5,14 q 0.125,-0.125 0.25,-0.25 l 0.125,-0.125 -0.0625,0.0625"
           id="path32229" />
        <path
           style="fill:#ececec;fill-opacity:1"
           d="M 15.875,14.375 Q 16,14 16.5,14 l 0.5,0 -0.125,0.375 Q 16.75,14.75 16.5,15 L 16.25,15.25 15.96875,14.96875 15.6875,14.6875 15.625,14.75 l -0.0625,0.0625 0.125,-0.125 q 0.125,-0.125 0.1875,-0.3125 L 15.9375,14.1875 15.84375,14.46875 15.75,14.75 15.875,14.375 M 16.1875,15.3125 16.25,15.25 16.4375,15.0625 16.625,14.875 16.5,15 q -0.125,0.125 -0.25,0.25 l -0.125,0.125 0.0625,-0.0625"
           id="path32231" />
        <path
           style="fill:#191919;fill-opacity:1"
           d="M 16.875,14.375 17,14 16.90625,14.28125 16.8125,14.5625 16.875,14.375 q 0.0625,-0.1875 0.09375,-0.40625 L 17,13.75 16.984375,13.859375 16.96875,13.96875 17.359375,13.859375 17.75,13.75 17.46875,13.84375 17.1875,13.9375 17.375,13.875 q 0.1875,-0.0625 0.3125,-0.1875 l 0.125,-0.125 L 17.75,13.625 17.6875,13.6875 18,14 l 0.3125,0.3125 0.0625,-0.0625 0.0625,-0.0625 -0.125,0.125 q -0.125,0.125 -0.1875,0.3125 L 18.0625,14.8125 18.15625,14.53125 18.25,14.25 18.125,14.625 18,15 17.625,15.125 17.25,15.25 17.53125,15.15625 17.8125,15.0625 17.625,15.125 q -0.1875,0.0625 -0.34375,0.15625 L 17.125,15.375 17.203125,15.328125 17.28125,15.28125 17,15 16.71875,14.71875 16.671875,14.796875 16.625,14.875 16.71875,14.71875 Q 16.8125,14.5625 16.875,14.375 L 16.9375,14.1875 16.84375,14.46875 16.75,14.75 16.875,14.375"
           id="path32233" />
        <path
           style="fill:#000000;fill-opacity:0.18823529"
           d="m 18.125,14.625 q 0.125,-0.375 0.5,-0.5 L 19,14 19,14.5 Q 19,15 18.5,15 l -0.5,0 0.125,-0.375"
           id="path32235" />
        <path
           style="fill:#000000;fill-opacity:0.09019608"
           d="M 3,15.5 3,15 3.375,15.125 q 0.375,0.125 0.5,0.5 L 4,16 3.5,16 Q 3,16 3,15.5"
           id="path32237" />
        <path
           style="fill:#0c0c0c;fill-opacity:0.99607843"
           d="M 3.875,15.625 3.75,15.25 3.84375,15.53125 3.9375,15.8125 3.875,15.625 Q 3.8125,15.4375 3.6875,15.3125 L 3.5625,15.1875 3.625,15.25 3.6875,15.3125 4,15 4.3125,14.6875 4.25,14.625 4.1875,14.5625 l 0.125,0.125 q 0.125,0.125 0.3125,0.1875 L 4.8125,14.9375 4.53125,14.84375 4.25,14.75 4.625,14.875 Q 5,15 5.125,15.375 L 5.25,15.75 5.15625,15.46875 5.0625,15.1875 5.125,15.375 q 0.0625,0.1875 0.15625,0.34375 L 5.375,15.875 5.328125,15.796875 5.28125,15.71875 4.984375,16.015625 4.6875,16.3125 4.75,16.375 4.8125,16.4375 4.6875,16.3125 Q 4.5625,16.1875 4.375,16.125 L 4.1875,16.0625 4.46875,16.15625 4.75,16.25 4.375,16.125 4,16 3.875,15.625"
           id="path32239" />
        <path
           style="fill:#d9d9d9;fill-opacity:1"
           d="M 5.125,15.375 5,15 5.09375,15.28125 5.1875,15.5625 5.125,15.375 Q 5.0625,15.1875 4.9375,15.0625 L 4.8125,14.9375 4.875,15 4.9375,15.0625 5.515625,14.984375 6.09375,14.90625 6.171875,15.328125 6.25,15.75 6.15625,15.46875 6.0625,15.1875 6.125,15.375 q 0.0625,0.1875 0.15625,0.28125 L 6.375,15.75 6.328125,15.703125 6.28125,15.65625 6.015625,15.953125 5.75,16.25 5.5,16 Q 5.25,15.75 5.125,15.375 M 5.5625,16.0625 5.75,16.25 5.8125,16.3125 5.875,16.375 5.75,16.25 Q 5.625,16.125 5.5,16 l -0.125,-0.125 0.1875,0.1875"
           id="path32241" />
        <path
           style="fill:#ffffff;fill-opacity:1"
           d="M 6.171875,15.328125 6.09375,14.90625 6.015625,14.859375 5.9375,14.8125 6.09375,14.90625 Q 6.25,15 6.5,15 L 6.75,15 6.375,15 6,15 6.5,15 7,15 6.875,15.375 Q 6.75,15.75 6.5,15.75 6.25,15.75 6.171875,15.328125 M 7.125,15 7,15 6.625,15 6.25,15 6.5,15 q 0.25,0 0.5,0 l 0.25,0 -0.125,0"
           id="path32243" />
        <path
           style="fill:#b7b7b7;fill-opacity:1"
           d="M 6.875,15.375 7,15 7.5,15 8,15 8.015625,15.515625 8.03125,16.03125 8.140625,16.015625 8.25,16 8.03125,16.03125 Q 7.8125,16.0625 7.625,16.125 L 7.4375,16.1875 7.71875,16.09375 8,16 7.625,16.125 7.25,16.25 7.53125,16.15625 7.8125,16.0625 7.625,16.125 Q 7.4375,16.1875 7.3125,16.3125 L 7.1875,16.4375 7.25,16.375 7.3125,16.3125 7.015625,15.984375 6.71875,15.65625 6.671875,15.703125 6.625,15.75 6.71875,15.65625 Q 6.8125,15.5625 6.875,15.375 L 6.9375,15.1875 6.84375,15.46875 6.75,15.75 6.875,15.375 M 8.125,15 8,15 7.625,15 7.25,15 7.5,15 q 0.25,0 0.5,0 l 0.25,0 -0.125,0 M 7.375,15 7,15 6.875,15 6.75,15 7,15 q 0.25,0 0.5,0 l 0.25,0 -0.375,0"
           id="path32245" />
        <path
           style="fill:#7e7e7e;fill-opacity:1"
           d="M 8.015625,15.515625 8,15 8.5,15 9,15 9,15.5 9,16 8.5,16 8,16 8.375,16 8.75,16 8.5,16 Q 8.25,16 8.03125,16.03125 L 7.8125,16.0625 7.921875,16.046875 8.03125,16.03125 8.015625,15.515625 M 8.375,15 8,15 7.875,15 7.75,15 8,15 q 0.25,0 0.5,0 l 0.25,0 -0.375,0"
           id="path32247" />
        <path
           style="fill:#6b6b6b;fill-opacity:1"
           d="M 9,15.5 9,15 9.5,15 10,15 10,15.5 10,16 9.5,16 9,16 9,15.5"
           id="path32249" />
        <path
           style="fill:#808080;fill-opacity:1"
           d="m 10,15.5 0,-0.5 0.5,0 0.5,0 -0.01563,0.484375 -0.01563,0.484375 0.109375,-0.01563 0.109375,-0.01563 -0.21875,0.03125 Q 10.75,16 10.5,16 l -0.25,0 0.375,0 0.375,0 -0.5,0 -0.5,0 0,-0.5 M 11.125,15 11,15 l -0.375,0 -0.375,0 0.25,0 q 0.25,0 0.5,0 l 0.25,0 -0.125,0"
           id="path32251" />
        <path
           style="fill:#b8b8b8;fill-opacity:1"
           d="M 10.984375,15.484375 11,15 l 0.5,0 0.5,0 -0.125,0.375 q -0.125,0.375 -0.5,0.5 L 11,16 11.28125,15.90625 11.5625,15.8125 11.375,15.875 q -0.1875,0.0625 -0.40625,0.09375 L 10.75,16 l 0.109375,-0.01563 0.109375,-0.01563 0.01563,-0.484375 M 12.125,15 12,15 l -0.375,0 -0.375,0 0.25,0 q 0.25,0 0.5,0 l 0.25,0 -0.125,0 M 11.375,15 11,15 10.875,15 10.75,15 11,15 q 0.25,0 0.5,0 l 0.25,0 -0.375,0"
           id="path32253" />
        <path
           style="fill:#fbfbfb;fill-opacity:1"
           d="M 11.875,15.375 12,15 l 0.5,0 0.5,0 -0.375,0 -0.375,0 0.25,0 q 0.25,0 0.40625,-0.09375 l 0.15625,-0.09375 -0.07813,0.04687 -0.07813,0.04687 0.04687,0.546875 Q 13,16 12.625,16.125 12.25,16.25 11.96875,15.96875 L 11.6875,15.6875 11.625,15.75 l -0.0625,0.0625 0.125,-0.125 q 0.125,-0.125 0.1875,-0.3125 L 11.9375,15.1875 11.84375,15.46875 11.75,15.75 11.875,15.375 M 12.375,15 12,15 11.875,15 11.75,15 12,15 q 0.25,0 0.5,0 l 0.25,0 -0.375,0"
           id="path32255" />
        <path
           style="fill:#fafafa;fill-opacity:1"
           d="M 14.875,15.375 Q 15,15 15.375,14.875 L 15.75,14.75 15.46875,14.84375 15.1875,14.9375 15.375,14.875 q 0.1875,-0.0625 0.3125,-0.1875 l 0.125,-0.125 -0.0625,0.0625 -0.0625,0.0625 0.28125,0.28125 L 16.25,15.25 16,15.5 Q 15.75,15.75 15.5,16 L 15.25,16.25 15.4375,16.0625 15.625,15.875 15.5,16 q -0.125,0.125 -0.21875,0.28125 l -0.09375,0.15625 0.04687,-0.07813 0.04687,-0.07813 L 14.984375,15.984375 14.6875,15.6875 14.625,15.75 l -0.0625,0.0625 0.125,-0.125 q 0.125,-0.125 0.1875,-0.3125 L 14.9375,15.1875 14.84375,15.46875 14.75,15.75 14.875,15.375 M 16.0625,15.4375 16.25,15.25 16.3125,15.1875 16.375,15.125 16.25,15.25 Q 16.125,15.375 16,15.5 l -0.125,0.125 0.1875,-0.1875"
           id="path32257" />
        <path
           style="fill:#484848;fill-opacity:1"
           d="M 16,15.5 Q 16.25,15.25 16.5,15 L 16.75,14.75 16.5625,14.9375 16.375,15.125 16.5,15 q 0.125,-0.125 0.21875,-0.28125 l 0.09375,-0.15625 -0.04687,0.07813 -0.04687,0.07813 L 17,15 l 0.28125,0.28125 0.07813,-0.04687 0.07813,-0.04687 -0.15625,0.09375 Q 17.125,15.375 17,15.5 L 16.875,15.625 17.0625,15.4375 17.25,15.25 17,15.5 Q 16.75,15.75 16.5,16 L 16.25,16.25 16,16 15.75,15.75 16,15.5 M 15.9375,15.5625 15.75,15.75 15.6875,15.8125 15.625,15.875 15.75,15.75 Q 15.875,15.625 16,15.5 l 0.125,-0.125 -0.1875,0.1875 m 0.25,0.75 L 16.25,16.25 16.4375,16.0625 16.625,15.875 16.5,16 q -0.125,0.125 -0.25,0.25 l -0.125,0.125 0.0625,-0.0625"
           id="path32259" />
        <path
           style="fill:#000000;fill-opacity:0.58431373"
           d="m 17,15.5 q 0.25,-0.25 0.625,-0.375 L 18,15 l 0,0.5 q 0,0.5 -0.375,0.625 L 17.25,16.25 17.53125,16.15625 17.8125,16.0625 17.625,16.125 q -0.1875,0.0625 -0.3125,0.1875 l -0.125,0.125 L 17.25,16.375 17.3125,16.3125 17.03125,16.03125 16.75,15.75 17,15.5 M 16.9375,15.5625 16.75,15.75 16.6875,15.8125 16.625,15.875 16.75,15.75 Q 16.875,15.625 17,15.5 l 0.125,-0.125 -0.1875,0.1875"
           id="path32261" />
        <path
           style="fill:#000000;fill-opacity:0.21568627"
           d="M 4,16.5 4,16 4.375,16.125 q 0.375,0.125 0.5,0.5 L 5,17 4.5,17 Q 4,17 4,16.5"
           id="path32263" />
        <path
           style="fill:#121212;fill-opacity:0.99607843"
           d="M 4.875,16.625 4.75,16.25 4.84375,16.53125 4.9375,16.8125 4.875,16.625 Q 4.8125,16.4375 4.6875,16.3125 L 4.5625,16.1875 4.625,16.25 4.6875,16.3125 4.984375,16.015625 5.28125,15.71875 5.234375,15.640625 5.1875,15.5625 5.28125,15.71875 Q 5.375,15.875 5.5,16 L 5.625,16.125 5.4375,15.9375 5.25,15.75 5.5,16 Q 5.75,16.25 6,16.5 L 6.25,16.75 6.0625,16.5625 5.875,16.375 6,16.5 q 0.125,0.125 0.28125,0.21875 L 6.4375,16.8125 6.359375,16.765625 6.28125,16.71875 5.984375,17.015625 5.6875,17.3125 5.75,17.375 5.8125,17.4375 5.6875,17.3125 Q 5.5625,17.1875 5.375,17.125 L 5.1875,17.0625 5.46875,17.15625 5.75,17.25 5.375,17.125 5,17 4.875,16.625"
           id="path32265" />
        <path
           style="fill:#b3b3b3;fill-opacity:1"
           d="M 6,16.5 5.75,16.25 6.015625,15.953125 6.28125,15.65625 6.234375,15.609375 6.1875,15.5625 6.28125,15.65625 Q 6.375,15.75 6.5,15.75 l 0.125,0 -0.1875,0 -0.1875,0 0.25,0 0.25,0 -0.1875,0 -0.1875,0 0.125,0 q 0.125,0 0.21875,-0.09375 L 6.8125,15.5625 6.765625,15.609375 6.71875,15.65625 7.015625,15.984375 7.3125,16.3125 7.375,16.25 7.4375,16.1875 7.3125,16.3125 Q 7.1875,16.4375 7.125,16.625 L 7.0625,16.8125 7.15625,16.53125 7.25,16.25 7.125,16.625 7,17 6.625,16.875 Q 6.25,16.75 6,16.5 M 5.6875,16.1875 5.75,16.25 5.9375,16.4375 6.125,16.625 6,16.5 Q 5.875,16.375 5.75,16.25 l -0.125,-0.125 0.0625,0.0625"
           id="path32267" />
        <path
           style="fill:#d5d5d5;fill-opacity:1"
           d="M 14,16.5 Q 14,16 14.375,15.875 L 14.75,15.75 14.46875,15.84375 14.1875,15.9375 14.375,15.875 q 0.1875,-0.0625 0.3125,-0.1875 l 0.125,-0.125 -0.0625,0.0625 -0.0625,0.0625 0.296875,0.296875 0.296875,0.296875 0.04687,-0.07813 L 15.375,16.125 15.28125,16.28125 Q 15.1875,16.4375 15.125,16.625 L 15.0625,16.8125 15.15625,16.53125 15.25,16.25 15.125,16.625 Q 15,17 14.5,17 L 14,17 14,16.5 M 13.875,17 14,17 l 0.375,0 0.375,0 -0.25,0 q -0.25,0 -0.5,0 l -0.25,0 0.125,0"
           id="path32269" />
        <path
           style="fill:#404040;fill-opacity:1"
           d="M 15.125,16.625 Q 15.25,16.25 15.5,16 L 15.75,15.75 16,16 16.25,16.25 16,16.5 q -0.25,0.25 -0.671875,0.328125 l -0.421875,0.07813 -0.07813,0.04687 L 14.75,17 14.90625,16.90625 Q 15.0625,16.8125 15.125,16.625 L 15.1875,16.4375 15.09375,16.71875 15,17 15.125,16.625 M 16.0625,16.4375 16.25,16.25 16.3125,16.1875 16.375,16.125 16.25,16.25 Q 16.125,16.375 16,16.5 l -0.125,0.125 0.1875,-0.1875 m -0.25,-0.75 L 15.75,15.75 15.5625,15.9375 15.375,16.125 15.5,16 q 0.125,-0.125 0.25,-0.25 l 0.125,-0.125 -0.0625,0.0625"
           id="path32271" />
        <path
           style="fill:#000000;fill-opacity:0.71372549"
           d="m 16,16.5 q 0.25,-0.25 0.5,-0.5 l 0.25,-0.25 0.28125,0.28125 0.28125,0.28125 0.0625,-0.0625 0.0625,-0.0625 -0.125,0.125 q -0.125,0.125 -0.1875,0.3125 L 17.0625,16.8125 17.15625,16.53125 17.25,16.25 17.125,16.625 Q 17,17 16.625,17.125 L 16.25,17.25 16.53125,17.15625 16.8125,17.0625 16.625,17.125 q -0.1875,0.0625 -0.3125,0.1875 l -0.125,0.125 0.0625,-0.0625 0.0625,-0.0625 -0.296875,-0.296875 -0.296875,-0.296875 -0.07813,0.04687 -0.07813,0.04687 0.15625,-0.09375 Q 15.875,16.625 16,16.5 L 16.125,16.375 15.9375,16.5625 15.75,16.75 16,16.5 M 16.8125,15.6875 16.75,15.75 16.5625,15.9375 16.375,16.125 16.5,16 q 0.125,-0.125 0.25,-0.25 l 0.125,-0.125 -0.0625,0.0625"
           id="path32273" />
        <path
           style="fill:#000000;fill-opacity:0.1372549"
           d="M 5,17.5 5,17 5.375,17.125 q 0.375,0.125 0.5,0.5 L 6,18 5.5,18 Q 5,18 5,17.5"
           id="path32275" />
        <path
           style="fill:#000000;fill-opacity:0.95294118"
           d="M 5.875,17.625 5.75,17.25 5.84375,17.53125 5.9375,17.8125 5.875,17.625 Q 5.8125,17.4375 5.6875,17.3125 L 5.5625,17.1875 5.625,17.25 5.6875,17.3125 5.984375,17.015625 6.28125,16.71875 6.203125,16.671875 6.125,16.625 6.28125,16.71875 Q 6.4375,16.8125 6.625,16.875 L 6.8125,16.9375 6.53125,16.84375 6.25,16.75 6.625,16.875 7,17 7.125,17.375 7.25,17.75 7.15625,17.46875 7.0625,17.1875 7.125,17.375 q 0.0625,0.1875 0.1875,0.3125 l 0.125,0.125 L 7.375,17.75 7.3125,17.6875 7,18 6.6875,18.3125 6.75,18.375 6.8125,18.4375 6.6875,18.3125 Q 6.5625,18.1875 6.375,18.125 L 6.1875,18.0625 6.46875,18.15625 6.75,18.25 6.375,18.125 6,18 5.875,17.625"
           id="path32277" />
        <path
           style="fill:#474747;fill-opacity:1"
           d="M 7.125,17.375 7,17 7.5,17 8,17 7.625,17 7.25,17 7.5,17 q 0.25,0 0.46875,0.03125 L 8.1875,17.0625 8.078125,17.046875 7.96875,17.03125 8,17.5 8.03125,17.96875 8.140625,17.984375 8.25,18 8.03125,17.96875 Q 7.8125,17.9375 7.625,17.875 L 7.4375,17.8125 7.71875,17.90625 8,18 7.625,17.875 q -0.375,-0.125 -0.5,-0.5"
           id="path32279" />
        <path
           style="fill:#979797;fill-opacity:1"
           d="M 8,17.5 7.96875,17.03125 7.859375,17.015625 7.75,17 7.96875,17.03125 Q 8.1875,17.0625 8.375,17.125 L 8.5625,17.1875 8.28125,17.09375 8,17 8.375,17.125 q 0.375,0.125 0.5,0.5 L 9,18 8.5,18 8,18 8.375,18 8.75,18 8.5,18 Q 8.25,18 8.03125,17.96875 L 7.8125,17.9375 7.921875,17.953125 8.03125,17.96875 8,17.5 M 8.625,18 9,18 9.125,18 9.25,18 9,18 q -0.25,0 -0.5,0 l -0.25,0 0.375,0"
           id="path32281" />
        <path
           style="fill:#d7d7d7;fill-opacity:1"
           d="M 8.875,17.625 8.75,17.25 8.84375,17.53125 8.9375,17.8125 8.875,17.625 Q 8.8125,17.4375 8.6875,17.3125 L 8.5625,17.1875 8.625,17.25 8.6875,17.3125 8.96875,17.03125 Q 9.25,16.75 9.625,16.875 L 10,17 10,17.5 10,18 9.5,18 9,18 8.875,17.625 M 8.875,18 9,18 9.375,18 9.75,18 9.5,18 Q 9.25,18 9,18 l -0.25,0 0.125,0"
           id="path32283" />
        <path
           style="fill:#eeeeee;fill-opacity:1"
           d="m 10,17.5 0,-0.5 0.5,0 0.5,0 0,0.5 0,0.5 -0.5,0 -0.5,0 0,-0.5"
           id="path32285" />
        <path
           style="fill:#e4e4e4;fill-opacity:1"
           d="m 11,17.5 0,-0.5 0.375,-0.125 q 0.375,-0.125 0.65625,0.15625 l 0.28125,0.28125 0.0625,-0.0625 0.0625,-0.0625 -0.125,0.125 q -0.125,0.125 -0.1875,0.3125 L 12.0625,17.8125 12.15625,17.53125 12.25,17.25 12.125,17.625 12,18 11.5,18 11,18 11,17.5"
           id="path32287" />
        <path
           style="fill:#bbbbbb;fill-opacity:1"
           d="m 12.125,17.625 q 0.125,-0.375 0.5,-0.5 L 13,17 12.71875,17.09375 12.4375,17.1875 12.625,17.125 q 0.1875,-0.0625 0.40625,-0.09375 L 13.25,17 13.140625,17.015625 13.03125,17.03125 13,17.5 12.96875,17.96875 13.078125,17.953125 13.1875,17.9375 12.96875,17.96875 Q 12.75,18 12.5,18 l -0.25,0 0.375,0 0.375,0 -0.5,0 -0.5,0 0.125,-0.375"
           id="path32289" />
        <path
           style="fill:#666666;fill-opacity:1"
           d="m 13,17.5 0.03125,-0.46875 -0.109375,0.01563 -0.109375,0.01563 0.21875,-0.03125 Q 13.25,17 13.5,17 l 0.25,0 -0.375,0 -0.375,0 0.5,0 0.5,0 -0.125,0.375 q -0.125,0.375 -0.5,0.5 L 13,18 13.28125,17.90625 13.5625,17.8125 13.375,17.875 q -0.1875,0.0625 -0.40625,0.09375 L 12.75,18 12.859375,17.984375 12.96875,17.96875 13,17.5 M 14.125,17 14,17 l -0.375,0 -0.375,0 0.25,0 q 0.25,0 0.5,0 l 0.25,0 -0.125,0"
           id="path32291" />
        <path
           style="fill:#090909;fill-opacity:0.98823529"
           d="M 13.875,17.375 14,17 l 0.5,0 0.5,0 -0.375,0 -0.375,0 0.25,0 q 0.25,0 0.40625,-0.09375 l 0.15625,-0.09375 -0.07813,0.04687 -0.07813,0.04687 0.04687,0.546875 L 15,18 14.625,18.125 14.25,18.25 14.53125,18.15625 14.8125,18.0625 14.625,18.125 q -0.1875,0.0625 -0.3125,0.1875 l -0.125,0.125 L 14.25,18.375 14.3125,18.3125 14,18 13.6875,17.6875 13.625,17.75 l -0.0625,0.0625 0.125,-0.125 q 0.125,-0.125 0.1875,-0.3125 L 13.9375,17.1875 13.84375,17.46875 13.75,17.75 13.875,17.375 M 14.375,17 14,17 13.875,17 13.75,17 14,17 q 0.25,0 0.5,0 l 0.25,0 -0.375,0"
           id="path32293" />
        <path
           style="fill:#000000;fill-opacity:0.47843137"
           d="M 14.953125,17.453125 14.90625,16.90625 15.328125,16.828125 15.75,16.75 15.46875,16.84375 15.1875,16.9375 15.375,16.875 q 0.1875,-0.0625 0.34375,-0.15625 L 15.875,16.625 l -0.07813,0.04687 -0.07813,0.04687 0.296875,0.296875 0.296875,0.296875 0.0625,-0.0625 0.0625,-0.0625 -0.125,0.125 q -0.125,0.125 -0.1875,0.3125 L 16.0625,17.8125 16.15625,17.53125 16.25,17.25 16.125,17.625 Q 16,18 15.5,18 l -0.5,0 -0.04687,-0.546875"
           id="path32295" />
        <path
           style="fill:#000000;fill-opacity:0.47843137"
           d="M 6.875,18.625 6.75,18.25 6.84375,18.53125 6.9375,18.8125 6.875,18.625 Q 6.8125,18.4375 6.6875,18.3125 L 6.5625,18.1875 6.625,18.25 6.6875,18.3125 7,18 7.3125,17.6875 7.25,17.625 7.1875,17.5625 l 0.125,0.125 q 0.125,0.125 0.3125,0.1875 L 7.8125,17.9375 7.53125,17.84375 7.25,17.75 7.625,17.875 8,18 8,18.5 8,19 7.5,19 Q 7,19 6.875,18.625"
           id="path32297" />
        <path
           style="fill:#000000;fill-opacity:0.83921569"
           d="M 8,18.5 8,18 8.5,18 9,18 9,18.5 9,19 8.5,19 8,19 8,18.5 M 9.125,18 9,18 8.625,18 8.25,18 8.5,18 q 0.25,0 0.5,0 l 0.25,0 -0.125,0"
           id="path32299" />
        <path
           style="fill:#030303;fill-opacity:0.98039216"
           d="M 9,18.5 9,18 9.5,18 10,18 10,18.5 10,19 9.5,19 9,19 9,18.5 M 9.375,18 9,18 8.875,18 8.75,18 9,18 q 0.25,0 0.5,0 l 0.25,0 -0.375,0"
           id="path32301" />
        <path
           style="fill:#141414;fill-opacity:0.99607843"
           d="m 10,18.5 0,-0.5 0.5,0 0.5,0 0,0.5 0,0.5 -0.5,0 -0.5,0 0,-0.5"
           id="path32303" />
        <path
           style="fill:#0c0c0c;fill-opacity:0.98823529"
           d="m 11,18.5 0,-0.5 0.5,0 0.5,0 0,0.5 0,0.5 -0.5,0 -0.5,0 0,-0.5"
           id="path32305" />
        <path
           style="fill:#000000;fill-opacity:0.9372549"
           d="m 12,18.5 0,-0.5 0.5,0 0.5,0 -0.375,0 -0.375,0 0.25,0 q 0.25,0 0.46875,-0.03125 l 0.21875,-0.03125 -0.109375,0.01563 -0.109375,0.01563 0.01563,0.515625 L 13,19 12.5,19 12,19 12,18.5"
           id="path32307" />
        <path
           style="fill:#000000;fill-opacity:0.63921569"
           d="M 12.984375,18.484375 12.96875,17.96875 12.859375,17.984375 12.75,18 12.96875,17.96875 Q 13.1875,17.9375 13.375,17.875 L 13.5625,17.8125 13.28125,17.90625 13,18 13.375,17.875 13.75,17.75 13.46875,17.84375 13.1875,17.9375 13.375,17.875 q 0.1875,-0.0625 0.3125,-0.1875 l 0.125,-0.125 L 13.75,17.625 13.6875,17.6875 14,18 l 0.3125,0.3125 0.0625,-0.0625 0.0625,-0.0625 -0.125,0.125 q -0.125,0.125 -0.1875,0.3125 L 14.0625,18.8125 14.15625,18.53125 14.25,18.25 14.125,18.625 14,19 13.5,19 13,19 12.984375,18.484375"
           id="path32309" />
        <path
           style="fill:#000000;fill-opacity:0.07058824"
           d="m 14.125,18.625 q 0.125,-0.375 0.5,-0.5 L 15,18 15,18.5 Q 15,19 14.5,19 l -0.5,0 0.125,-0.375"
           id="path32311" />
        <path
           style="fill:#000000;fill-opacity:0.02352941"
           d="m 9,19.5 0,-0.5 0.5,0 0.5,0 0,0.5 0,0.5 -0.5,0 Q 9,20 9,19.5"
           id="path32313" />
        <path
           style="fill:#000000;fill-opacity:0.14901961"
           d="m 10,19.5 0,-0.5 0.5,0 0.5,0 0,0.5 0,0.5 -0.5,0 -0.5,0 0,-0.5"
           id="path32315" />
        <path
           style="fill:#000000;fill-opacity:0.09019608"
           d="m 11,19.5 0,-0.5 0.5,0 0.5,0 0,0.5 Q 12,20 11.5,20 l -0.5,0 0,-0.5"
           id="path32317" />
      </g>
    </g>
  </g>
</svg>
