<?xml version="1.0" encoding="UTF-8" standalone="no"?>
<!-- Created with Inkscape (http://www.inkscape.org/) -->

<svg
   xmlns:dc="http://purl.org/dc/elements/1.1/"
   xmlns:cc="http://creativecommons.org/ns#"
   xmlns:rdf="http://www.w3.org/1999/02/22-rdf-syntax-ns#"
   xmlns:svg="http://www.w3.org/2000/svg"
   xmlns="http://www.w3.org/2000/svg"
   xmlns:sodipodi="http://sodipodi.sourceforge.net/DTD/sodipodi-0.dtd"
   xmlns:inkscape="http://www.inkscape.org/namespaces/inkscape"
   width="20"
   height="20"
   viewBox="0 0 20 20"
   id="svg3347"
   version="1.1"
   inkscape:version="0.91 r13725"
   sodipodi:docname="Civ5Icon.ViewCity.svg">
  <defs
     id="defs3349" />
  <sodipodi:namedview
     id="base"
     pagecolor="#ffffff"
     bordercolor="#666666"
     borderopacity="1.0"
     inkscape:pageopacity="0.0"
     inkscape:pageshadow="2"
     inkscape:zoom="11.2"
     inkscape:cx="7.324946"
     inkscape:cy="8.5424036"
     inkscape:document-units="px"
     inkscape:current-layer="g27203"
     showgrid="false"
     units="px"
     inkscape:window-width="1477"
     inkscape:window-height="962"
     inkscape:window-x="533"
     inkscape:window-y="95"
     inkscape:window-maximized="0" />
  <metadata
     id="metadata3352">
    <rdf:RDF>
      <cc:Work
         rdf:about="">
        <dc:format>image/svg+xml</dc:format>
        <dc:type
           rdf:resource="http://purl.org/dc/dcmitype/StillImage" />
        <dc:title></dc:title>
      </cc:Work>
    </rdf:RDF>
  </metadata>
  <g
     inkscape:label="Layer 1"
     inkscape:groupmode="layer"
     id="layer1"
     transform="translate(0,-1032.3622)">
    <g
       transform="translate(-0.22321519 1031.8712)"
       id="g27203">
      <g
         transform="translate(-0.80357015 -0.80364287)"
         id="g69388">
        <path
           style="fill:#000000;fill-opacity:0"
           d="M 0,0.5 0,0 0.5,0 1,0 1.5,0 2,0 2.5,0 3,0 3.5,0 4,0 4.5,0 5,0 5.5,0 6,0 6.5,0 7,0 7.5,0 8,0 8.5,0 9,0 9.5,0 10,0 l 0.5,0 0.5,0 0.5,0 0.5,0 0.5,0 0.5,0 0.5,0 0.5,0 0.5,0 0.5,0 0.5,0 0.5,0 0.5,0 0.5,0 0.5,0 0.5,0 0.5,0 0.5,0 0.5,0 0.5,0 0.5,0 0.5,0 0.5,0 0.5,0 0,0.5 0,0.5 0,0.5 0,0.5 0,0.5 0,0.5 0,0.5 0,0.5 0,0.5 0,0.5 0,0.5 0,0.5 0,0.5 0,0.5 0,0.5 0,0.5 0,0.5 0,0.5 0,0.5 0,0.5 0,0.5 0,0.5 0,0.5 0,0.5 0,0.5 0,0.5 0,0.5 0,0.5 0,0.5 0,0.5 0,0.5 0,0.5 0,0.5 0,0.5 0,0.5 0,0.5 0,0.5 0,0.5 0,0.5 0,0.5 0,0.5 0,0.5 0,0.5 0,0.5 -0.5,0 L 21,22 20.5,22 20,22 19.5,22 19,22 18.5,22 18,22 17.5,22 17,22 16.5,22 16,22 15.5,22 15,22 14.5,22 14,22 13.5,22 13,22 12.5,22 12,22 11.5,22 11,22 10.5,22 10,22 9.5,22 9,22 8.5,22 8,22 7.5,22 7,22 6.5,22 6,22 5.5,22 5,22 4.5,22 4,22 3.5,22 3,22 2.5,22 2,22 1.5,22 1,22 0.5,22 0,22 0,21.5 0,21 0,20.5 0,20 0,19.5 0,19 0,18.5 0,18 0,17.5 0,17 0,16.5 0,16 0,15.5 0,15 0,14.5 0,14 0,13.5 0,13 0,12.5 0,12 0,11.5 0,11 0,10.5 0,10 0,9.5 0,9 0,8.5 0,8 0,7.5 0,7 0,6.5 0,6 0,5.5 0,5 0,4.5 0,4 0,3.5 0,3 0,2.5 0,2 0,1.5 0,1 0,0.5 M 6.5,21 Q 7,21 7,20.5 L 7,20 7.5,20 Q 8,20 8,19.5 L 8,19 8.5,19 Q 9,19 9,18.5 L 9,18 9.5,18 Q 10,18 10,17.5 l 0,-0.5 0.5,0 Q 11,17 11,16.5 l 0,-0.5 0.5,0 0.5,0 0.5,0 0.5,0 0.5,0 0.5,0 0.5,0 0.5,0 0.5,0 0.5,0 0.5,0 0.5,0 0.5,0 Q 18,16 18,15.5 l 0,-0.5 0.5,0 Q 19,15 19,14.5 l 0,-0.5 0.5,0 Q 20,14 20,13.5 L 20,13 20,12.5 20,12 20,11.5 20,11 20,10.5 20,10 20,9.5 20,9 20,8.5 20,8 20,7.5 20,7 20,6.5 20,6 20,5.5 Q 20,5 19.5,5 L 19,5 19,4.5 Q 19,4 18.5,4 L 18,4 18,3.5 Q 18,3 17.5,3 L 17,3 16.625,2.875 Q 16.25,2.75 15.96875,3.03125 L 15.6875,3.3125 15.75,3.375 15.8125,3.4375 15.6875,3.3125 Q 15.5625,3.1875 15.375,3.125 L 15.1875,3.0625 15.46875,3.15625 15.75,3.25 15.375,3.125 15,3 14.5,3 14,3 13.5,3 13,3 12.5,3 12,3 11.5,3 11,3 10.5,3 10,3 9.625,3.125 Q 9.25,3.25 9,3.5 8.75,3.75 8.5,4 8.25,4.25 8,4.5 7.75,4.75 7.5,5 7.25,5.25 7.125,5.625 L 7,6 7,6.5 7,7 7,7.5 7,8 7,8.5 7,9 7,9.5 7,10 7,10.5 Q 7,11 7,11.5 7,12 6.625,12.125 6.25,12.25 6,12.5 5.75,12.75 5.375,12.875 L 5,13 4.625,13.125 Q 4.25,13.25 4,13.5 3.75,13.75 3.5,14 3.25,14.25 3,14.5 2.75,14.75 2.5,15 2.25,15.25 2.125,15.625 L 2,16 2.125,16.375 2.25,16.75 2.15625,16.46875 2.0625,16.1875 2.125,16.375 q 0.0625,0.1875 0.1875,0.3125 l 0.125,0.125 L 2.375,16.75 2.3125,16.6875 2.03125,16.96875 Q 1.75,17.25 1.875,17.625 L 2,18 2,18.5 Q 2,19 2.5,19 L 3,19 3,19.5 Q 3,20 3.5,20 L 4,20 4,20.5 Q 4,21 4.5,21 l 0.5,0 0.5,0 0.5,0 0.5,0"
           id="path69390" />
        <path
           style="fill:#e8e8be;fill-opacity:0.61960784"
           d="M 9,3.5 Q 9.25,3.25 9.625,3.125 L 10,3 10,3.5 10,4 9.625,4.125 Q 9.25,4.25 9.125,4.625 L 9,5 8.625,5.125 Q 8.25,5.25 8.125,5.625 L 8,6 7.5,6 7,6 7.125,5.625 Q 7.25,5.25 7.5,5 7.75,4.75 8,4.5 8.25,4.25 8.5,4 8.75,3.75 9,3.5"
           id="path69392" />
        <path
           style="fill:#e7e7bc;fill-opacity:0.93333333"
           d="M 10,3.5 10,3 10.5,3 11,3 10.875,3.375 q -0.125,0.375 -0.5,0.5 L 10,4 10,3.5"
           id="path69394" />
        <path
           style="fill:#ececc0;fill-opacity:1"
           d="M 10.875,3.375 11,3 11.5,3 12,3 12,3.5 12,4 11.625,4.125 11.25,4.25 11.53125,4.15625 11.8125,4.0625 11.625,4.125 Q 11.4375,4.1875 11.3125,4.3125 L 11.1875,4.4375 11.25,4.375 11.3125,4.3125 11,4 10.6875,3.6875 10.625,3.75 10.5625,3.8125 10.6875,3.6875 Q 10.8125,3.5625 10.875,3.375 L 10.9375,3.1875 10.84375,3.46875 10.75,3.75 10.875,3.375"
           id="path69396" />
        <path
           style="fill:#e9e9be;fill-opacity:1"
           d="M 12,3.5 12,3 12.5,3 13,3 13,3.5 13,4 12.5,4 12,4 12,3.5"
           id="path69398" />
        <path
           style="fill:#e3e3b9;fill-opacity:1"
           d="M 13,3.5 13,3 13.5,3 14,3 14,3.5 14,4 13.5,4 13,4 13,3.5"
           id="path69400" />
        <path
           style="fill:#cdcda6;fill-opacity:0.94509804"
           d="M 14,3.5 14,3 14.5,3 15,3 14.875,3.375 q -0.125,0.375 -0.5,0.5 L 14,4 14,3.5"
           id="path69402" />
        <path
           style="fill:#a2a280;fill-opacity:0.70588235"
           d="M 14.875,3.375 15,3 15.375,3.125 q 0.375,0.125 0.5,0.5 L 16,4 15.625,4.125 15.25,4.25 15.53125,4.15625 15.8125,4.0625 15.625,4.125 Q 15.4375,4.1875 15.34375,4.28125 L 15.25,4.375 15.296875,4.328125 15.34375,4.28125 15.015625,3.984375 14.6875,3.6875 14.625,3.75 14.5625,3.8125 14.6875,3.6875 Q 14.8125,3.5625 14.875,3.375 L 14.9375,3.1875 14.84375,3.46875 14.75,3.75 14.875,3.375"
           id="path69404" />
        <path
           style="fill:#000000;fill-opacity:0.1372549"
           d="M 15.875,3.625 15.75,3.25 15.84375,3.53125 15.9375,3.8125 15.875,3.625 Q 15.8125,3.4375 15.6875,3.3125 L 15.5625,3.1875 15.625,3.25 15.6875,3.3125 15.96875,3.03125 Q 16.25,2.75 16.625,2.875 L 17,3 17.125,3.375 17.25,3.75 17.15625,3.46875 17.0625,3.1875 17.125,3.375 q 0.0625,0.1875 0.1875,0.3125 l 0.125,0.125 L 17.375,3.75 17.3125,3.6875 17,4 16.6875,4.3125 16.75,4.375 16.8125,4.4375 16.6875,4.3125 Q 16.5625,4.1875 16.375,4.125 L 16.1875,4.0625 16.46875,4.15625 16.75,4.25 16.375,4.125 16,4 15.875,3.625 M 15.90625,3.71875 16,4 16.03125,4.09375 16.0625,4.1875 16,4 Q 15.9375,3.8125 15.875,3.625 l -0.0625,-0.1875 0.09375,0.28125"
           id="path69406" />
        <path
           style="fill:#000000;fill-opacity:0.03137255"
           d="M 17.125,3.375 17,3 17.5,3 Q 18,3 18,3.5 L 18,4 17.625,3.875 q -0.375,-0.125 -0.5,-0.5"
           id="path69408" />
        <path
           style="fill:#ebebbf;fill-opacity:1"
           d="M 9.125,4.625 Q 9.25,4.25 9.625,4.125 L 10,4 9.875,4.375 Q 9.75,4.75 9.375,4.875 L 9,5 9.125,4.625"
           id="path69410" />
        <path
           style="fill:#d2d4aa;fill-opacity:1"
           d="M 9.875,4.375 10,4 10.375,3.875 10.75,3.75 10.46875,3.84375 10.1875,3.9375 10.375,3.875 Q 10.5625,3.8125 10.6875,3.6875 L 10.8125,3.5625 10.75,3.625 10.6875,3.6875 11,4 11.3125,4.3125 11.375,4.25 11.4375,4.1875 11.3125,4.3125 Q 11.1875,4.4375 11.125,4.625 L 11.0625,4.8125 11.15625,4.53125 11.25,4.25 11.125,4.625 11,5 10.625,5.125 10.25,5.25 10.53125,5.15625 10.8125,5.0625 10.625,5.125 Q 10.4375,5.1875 10.28125,5.28125 L 10.125,5.375 10.203125,5.328125 10.28125,5.28125 9.984375,4.984375 9.6875,4.6875 9.625,4.75 9.5625,4.8125 9.6875,4.6875 Q 9.8125,4.5625 9.875,4.375 L 9.9375,4.1875 9.84375,4.46875 9.75,4.75 9.875,4.375"
           id="path69412" />
        <path
           style="fill:#acb18a;fill-opacity:1"
           d="m 11.125,4.625 q 0.125,-0.375 0.5,-0.5 L 12,4 12,4.5 12,5 11.5,5 11,5 11.125,4.625 M 11.625,5 12,5 12.125,5 12.25,5 12,5 q -0.25,0 -0.5,0 l -0.25,0 0.375,0"
           id="path69414" />
        <path
           style="fill:#888d70;fill-opacity:1"
           d="M 12,4.5 12,4 12.5,4 13,4 13,4.5 13,5 12.5,5 12,5 12,4.5 M 11.875,5 12,5 12.375,5 12.75,5 12.5,5 Q 12.25,5 12,5 l -0.25,0 0.125,0"
           id="path69416" />
        <path
           style="fill:#858a6d;fill-opacity:1"
           d="M 13,4.5 13,4 13.5,4 14,4 14.125,4.375 14.25,4.75 14.15625,4.46875 14.0625,4.1875 14.125,4.375 q 0.0625,0.1875 0.15625,0.34375 L 14.375,4.875 14.328125,4.796875 14.28125,4.71875 14,5 13.71875,5.28125 13.796875,5.328125 13.875,5.375 13.71875,5.28125 Q 13.5625,5.1875 13.375,5.125 L 13.1875,5.0625 13.46875,5.15625 13.75,5.25 13.375,5.125 13,5 13,4.5"
           id="path69418" />
        <path
           style="fill:#989d77;fill-opacity:1"
           d="M 14.125,4.375 14,4 14.375,3.875 14.75,3.75 14.46875,3.84375 14.1875,3.9375 14.375,3.875 Q 14.5625,3.8125 14.6875,3.6875 L 14.8125,3.5625 14.75,3.625 14.6875,3.6875 15.015625,3.984375 15.34375,4.28125 15.390625,4.234375 15.4375,4.1875 15.34375,4.28125 Q 15.25,4.375 15.25,4.5 l 0,0.125 0,-0.1875 0,-0.1875 0,0.25 0,0.25 0,-0.1875 0,-0.1875 0,0.125 q 0,0.125 0.0625,0.25 L 15.375,4.875 15.34375,4.8125 15.3125,4.75 15.015625,5.015625 14.71875,5.28125 14.765625,5.359375 14.8125,5.4375 14.71875,5.28125 Q 14.625,5.125 14.5,5 L 14.375,4.875 14.5625,5.0625 14.75,5.25 14.5,5 Q 14.25,4.75 14.125,4.375"
           id="path69420" />
        <path
           style="fill:#979c77;fill-opacity:1"
           d="m 15.25,4.5 q 0,-0.25 0.375,-0.375 L 16,4 16.125,4.375 16.25,4.75 16.15625,4.46875 16.0625,4.1875 16.125,4.375 q 0.0625,0.1875 0.1875,0.3125 l 0.125,0.125 L 16.375,4.75 16.3125,4.6875 16.015625,4.984375 15.71875,5.28125 15.765625,5.359375 15.8125,5.4375 15.71875,5.28125 Q 15.625,5.125 15.5,5 L 15.375,4.875 15.5625,5.0625 15.75,5.25 15.5,5 Q 15.25,4.75 15.25,4.5"
           id="path69422" />
        <path
           style="fill:#61644c;fill-opacity:0.80784314"
           d="M 16.125,4.375 16,4 16.375,4.125 q 0.375,0.125 0.5,0.5 L 17,5 16.625,4.875 Q 16.25,4.75 16.125,4.375 M 15.96875,3.90625 16,4 16.09375,4.28125 16.1875,4.5625 16.125,4.375 Q 16.0625,4.1875 16,4 l -0.0625,-0.1875 0.03125,0.09375"
           id="path69424" />
        <path
           style="fill:#000000;fill-opacity:0.21960784"
           d="M 16.875,4.625 16.75,4.25 16.84375,4.53125 16.9375,4.8125 16.875,4.625 Q 16.8125,4.4375 16.6875,4.3125 L 16.5625,4.1875 16.625,4.25 16.6875,4.3125 17,4 17.3125,3.6875 17.25,3.625 17.1875,3.5625 l 0.125,0.125 q 0.125,0.125 0.3125,0.1875 L 17.8125,3.9375 17.53125,3.84375 17.25,3.75 17.625,3.875 18,4 18.125,4.375 q 0.125,0.375 0.5,0.5 L 19,5 19,5.5 19,6 18.5,6 18,6 17.875,5.625 Q 17.75,5.25 17.375,5.125 L 17,5 16.875,4.625"
           id="path69426" />
        <path
           style="fill:#000000;fill-opacity:0.03137255"
           d="M 18.125,4.375 18,4 18.5,4 Q 19,4 19,4.5 L 19,5 18.625,4.875 q -0.375,-0.125 -0.5,-0.5"
           id="path69428" />
        <path
           style="fill:#ebebbf;fill-opacity:1"
           d="M 8.125,5.625 Q 8.25,5.25 8.625,5.125 L 9,5 8.875,5.375 Q 8.75,5.75 8.375,5.875 L 8,6 8.125,5.625"
           id="path69430" />
        <path
           style="fill:#c7c9a0;fill-opacity:1"
           d="M 8.875,5.375 9,5 9.375,4.875 9.75,4.75 9.46875,4.84375 9.1875,4.9375 9.375,4.875 Q 9.5625,4.8125 9.6875,4.6875 L 9.8125,4.5625 9.75,4.625 9.6875,4.6875 9.984375,4.984375 10.28125,5.28125 10.359375,5.234375 10.4375,5.1875 10.28125,5.28125 Q 10.125,5.375 10,5.5 L 9.875,5.625 10.0625,5.4375 10.25,5.25 10,5.5 Q 9.75,5.75 9.5,6 L 9.25,6.25 9.4375,6.0625 9.625,5.875 9.5,6 Q 9.375,6.125 9.28125,6.28125 L 9.1875,6.4375 9.234375,6.359375 9.28125,6.28125 8.984375,5.984375 8.6875,5.6875 8.625,5.75 8.5625,5.8125 8.6875,5.6875 Q 8.8125,5.5625 8.875,5.375 L 8.9375,5.1875 8.84375,5.46875 8.75,5.75 8.875,5.375"
           id="path69432" />
        <path
           style="fill:#797c5d;fill-opacity:0.97254902"
           d="M 10,5.5 Q 10.25,5.25 10.625,5.125 L 11,5 10.71875,5.09375 10.4375,5.1875 10.625,5.125 Q 10.8125,5.0625 11.03125,5.03125 L 11.25,5 11.140625,5.015625 11.03125,5.03125 11.015625,5.515625 11,6 10.625,6.125 10.25,6.25 10.53125,6.15625 10.8125,6.0625 10.625,6.125 Q 10.4375,6.1875 10.3125,6.3125 L 10.1875,6.4375 10.25,6.375 10.3125,6.3125 10.03125,6.03125 9.75,5.75 10,5.5 M 9.9375,5.5625 9.75,5.75 9.6875,5.8125 9.625,5.875 9.75,5.75 Q 9.875,5.625 10,5.5 L 10.125,5.375 9.9375,5.5625 M 10.71875,6.09375 11,6 11.09375,5.96875 11.1875,5.9375 11,6 q -0.1875,0.0625 -0.375,0.125 l -0.1875,0.0625 0.28125,-0.09375"
           id="path69434" />
        <path
           style="fill:#3a3d2e;fill-opacity:0.9254902"
           d="M 11.015625,5.515625 11.03125,5.03125 10.921875,5.046875 10.8125,5.0625 11.03125,5.03125 Q 11.25,5 11.5,5 L 11.75,5 11.375,5 11,5 11.5,5 12,5 11.875,5.375 q -0.125,0.375 -0.5,0.5 L 11,6 11.015625,5.515625 M 10.90625,6.03125 11,6 11.28125,5.90625 11.5625,5.8125 11.375,5.875 Q 11.1875,5.9375 11,6 L 10.8125,6.0625 10.90625,6.03125 M 12.125,5 12,5 11.625,5 11.25,5 11.5,5 q 0.25,0 0.5,0 l 0.25,0 -0.125,0"
           id="path69436" />
        <path
           style="fill:#070704;fill-opacity:0.85098039"
           d="M 11.875,5.375 12,5 12.5,5 13,5 13,5.5 13,6 12.625,6.125 12.25,6.25 12.53125,6.15625 12.8125,6.0625 12.625,6.125 Q 12.4375,6.1875 12.3125,6.3125 L 12.1875,6.4375 12.25,6.375 12.3125,6.3125 12,6 11.6875,5.6875 11.625,5.75 11.5625,5.8125 11.6875,5.6875 Q 11.8125,5.5625 11.875,5.375 L 11.9375,5.1875 11.84375,5.46875 11.75,5.75 11.875,5.375 M 12.375,5 12,5 11.875,5 11.75,5 12,5 q 0.25,0 0.5,0 l 0.25,0 -0.375,0"
           id="path69438" />
        <path
           style="fill:#262624;fill-opacity:0.90980392"
           d="M 13,5.5 13,5 13.375,5.125 Q 13.75,5.25 14,5.5 L 14.25,5.75 14.0625,5.5625 13.875,5.375 14,5.5 q 0.125,0.125 0.28125,0.21875 L 14.4375,5.8125 14.359375,5.765625 14.28125,5.71875 13.984375,6.015625 13.6875,6.3125 13.75,6.375 13.8125,6.4375 13.6875,6.3125 Q 13.5625,6.1875 13.375,6.125 L 13.1875,6.0625 13.46875,6.15625 13.75,6.25 13.375,6.125 13,6 13,5.5"
           id="path69440" />
        <path
           style="fill:#6b6d59;fill-opacity:0.97647059"
           d="M 14,5.5 13.75,5.25 13.9375,5.4375 14.125,5.625 14,5.5 Q 13.875,5.375 13.71875,5.28125 L 13.5625,5.1875 13.640625,5.234375 13.71875,5.28125 14,5 14.28125,4.71875 14.234375,4.640625 14.1875,4.5625 14.28125,4.71875 Q 14.375,4.875 14.5,5 L 14.625,5.125 14.4375,4.9375 14.25,4.75 14.5,5 q 0.25,0.25 0.375,0.625 L 15,6 14.90625,5.71875 14.8125,5.4375 14.875,5.625 q 0.0625,0.1875 0.09375,0.40625 L 15,6.25 14.984375,6.140625 14.96875,6.03125 14.609375,5.890625 Q 14.25,5.75 14,5.5"
           id="path69442" />
        <path
           style="fill:#b0b48c;fill-opacity:1"
           d="M 14.875,5.625 14.75,5.25 14.84375,5.53125 14.9375,5.8125 14.875,5.625 Q 14.8125,5.4375 14.71875,5.28125 L 14.625,5.125 14.671875,5.203125 14.71875,5.28125 15.015625,5.015625 15.3125,4.75 15.28125,4.6875 15.25,4.625 15.3125,4.75 Q 15.375,4.875 15.5,5 L 15.625,5.125 15.4375,4.9375 15.25,4.75 15.5,5 q 0.25,0.25 0.375,0.625 L 16,6 15.5,6 15,6 14.875,5.625"
           id="path69444" />
        <path
           style="fill:#959a78;fill-opacity:1"
           d="M 15.875,5.625 15.75,5.25 15.84375,5.53125 15.9375,5.8125 15.875,5.625 Q 15.8125,5.4375 15.71875,5.28125 L 15.625,5.125 15.671875,5.203125 15.71875,5.28125 16.015625,4.984375 16.3125,4.6875 16.25,4.625 16.1875,4.5625 l 0.125,0.125 q 0.125,0.125 0.3125,0.1875 L 16.8125,4.9375 16.53125,4.84375 16.25,4.75 16.625,4.875 17,5 17,5.5 17,6 16.5,6 16,6 15.875,5.625"
           id="path69446" />
        <path
           style="fill:#3b3c38;fill-opacity:0.82745098"
           d="M 17,5.5 17,5 17.375,5.125 q 0.375,0.125 0.5,0.5 L 18,6 17.5,6 17,6 17,5.5"
           id="path69448" />
        <path
           style="fill:#000000;fill-opacity:0.03137255"
           d="M 19,5.5 19,5 19.5,5 Q 20,5 20,5.5 L 20,6 19.5,6 19,6 19,5.5"
           id="path69450" />
        <path
           style="fill:#e6e6bc;fill-opacity:0.93333333"
           d="M 7,6.5 7,6 7.5,6 8,6 8,6.5 8,7 7.5,7 7,7 7,6.5"
           id="path69452" />
        <path
           style="fill:#dcddb3;fill-opacity:1"
           d="M 8,6.5 8,6 8.375,5.875 8.75,5.75 8.46875,5.84375 8.1875,5.9375 8.375,5.875 Q 8.5625,5.8125 8.6875,5.6875 L 8.8125,5.5625 8.75,5.625 8.6875,5.6875 8.984375,5.984375 9.28125,6.28125 9.328125,6.203125 9.375,6.125 9.28125,6.28125 Q 9.1875,6.4375 9.125,6.625 L 9.0625,6.8125 9.15625,6.53125 9.25,6.25 9.125,6.625 9,7 8.5,7 8,7 8,6.5"
           id="path69454" />
        <path
           style="fill:#797d5c;fill-opacity:0.97254902"
           d="M 9.125,6.625 Q 9.25,6.25 9.5,6 L 9.75,5.75 10.03125,6.03125 10.3125,6.3125 10.375,6.25 10.4375,6.1875 10.3125,6.3125 Q 10.1875,6.4375 10.125,6.625 L 10.0625,6.8125 10.15625,6.53125 10.25,6.25 10.125,6.625 10,7 9.515625,7.015625 9.03125,7.03125 9.015625,7.140625 9,7.25 9.03125,7.03125 Q 9.0625,6.8125 9.125,6.625 L 9.1875,6.4375 9.09375,6.71875 9,7 9.125,6.625 M 9.96875,7.09375 10,7 10.09375,6.71875 10.1875,6.4375 10.125,6.625 Q 10.0625,6.8125 10,7 L 9.9375,7.1875 9.96875,7.09375 M 9.8125,5.6875 9.75,5.75 9.5625,5.9375 9.375,6.125 9.5,6 Q 9.625,5.875 9.75,5.75 L 9.875,5.625 9.8125,5.6875"
           id="path69456" />
        <path
           style="fill:#040704;fill-opacity:0.85098039"
           d="m 10.125,6.625 q 0.125,-0.375 0.5,-0.5 L 11,6 11,6.5 11,7 10.5,7 10,7 10.125,6.625"
           id="path69458" />
        <path
           style="fill:#000000;fill-opacity:0.70196078"
           d="M 11,6.5 11,6 11.375,5.875 11.75,5.75 11.46875,5.84375 11.1875,5.9375 11.375,5.875 Q 11.5625,5.8125 11.6875,5.6875 L 11.8125,5.5625 11.75,5.625 11.6875,5.6875 12,6 12.3125,6.3125 12.375,6.25 12.4375,6.1875 12.3125,6.3125 Q 12.1875,6.4375 12.125,6.625 L 12.0625,6.8125 12.15625,6.53125 12.25,6.25 12.125,6.625 12,7 11.5,7 11,7 11,6.5"
           id="path69460" />
        <path
           style="fill:#000000;fill-opacity:0.51372549"
           d="m 12.125,6.625 q 0.125,-0.375 0.5,-0.5 L 13,6 13,6.5 13,7 12.5,7 12,7 12.125,6.625"
           id="path69462" />
        <path
           style="fill:#000000;fill-opacity:0.43137255"
           d="M 13,6.5 13,6 13.375,6.125 q 0.375,0.125 0.5,0.5 L 14,7 13.5,7 13,7 13,6.5"
           id="path69464" />
        <path
           style="fill:#11110f;fill-opacity:0.54117647"
           d="M 13.875,6.625 13.75,6.25 13.84375,6.53125 13.9375,6.8125 13.875,6.625 Q 13.8125,6.4375 13.6875,6.3125 L 13.5625,6.1875 13.625,6.25 13.6875,6.3125 13.984375,6.015625 14.28125,5.71875 14.203125,5.671875 14.125,5.625 14.28125,5.71875 Q 14.4375,5.8125 14.625,5.875 L 14.8125,5.9375 14.53125,5.84375 14.25,5.75 14.609375,5.890625 14.96875,6.03125 14.953125,5.921875 14.9375,5.8125 14.96875,6.03125 Q 15,6.25 15,6.5 L 15,6.75 15,6.375 15,6 15,6.5 15,7 14.5,7 14,7 13.875,6.625"
           id="path69466" />
        <path
           style="fill:#b3b394;fill-opacity:0.95686275"
           d="M 15,6.5 15,6 15.5,6 16,6 15.875,6.375 q -0.125,0.375 -0.5,0.5 L 15,7 15,6.5"
           id="path69468" />
        <path
           style="fill:#babd96;fill-opacity:1"
           d="M 15.875,6.375 16,6 16.5,6 17,6 17,6.5 17,7 16.625,7.125 16.25,7.25 16.53125,7.15625 16.8125,7.0625 16.625,7.125 Q 16.4375,7.1875 16.3125,7.3125 L 16.1875,7.4375 16.25,7.375 16.3125,7.3125 16,7 15.6875,6.6875 15.625,6.75 15.5625,6.8125 15.6875,6.6875 Q 15.8125,6.5625 15.875,6.375 L 15.9375,6.1875 15.84375,6.46875 15.75,6.75 15.875,6.375"
           id="path69470" />
        <path
           style="fill:#4f5348;fill-opacity:0.98431373"
           d="M 17,6.5 17,6 17.5,6 18,6 18,6.5 18,7 17.5,7 17,7 17,6.5"
           id="path69472" />
        <path
           style="fill:#000000;fill-opacity:0.50196078"
           d="M 18,6.5 18,6 18.5,6 19,6 19,6.5 19,7 18.5,7 18,7 18,6.5"
           id="path69474" />
        <path
           style="fill:#000000;fill-opacity:0.1372549"
           d="M 19,6.5 19,6 19.5,6 20,6 20,6.5 20,7 19.5,7 19,7 19,6.5"
           id="path69476" />
        <path
           style="fill:#eaebbf;fill-opacity:1"
           d="M 7,7.5 7,7 7.5,7 8,7 7.875,7.375 Q 7.75,7.75 7.375,7.875 L 7,8 7,7.5"
           id="path69478" />
        <path
           style="fill:#c4c79e;fill-opacity:1"
           d="M 7.875,7.375 8,7 8.5,7 9,7 9,7.5 9,8 8.625,8.125 8.25,8.25 8.53125,8.15625 8.8125,8.0625 8.625,8.125 Q 8.4375,8.1875 8.3125,8.3125 L 8.1875,8.4375 8.25,8.375 8.3125,8.3125 8,8 7.6875,7.6875 7.625,7.75 7.5625,7.8125 7.6875,7.6875 Q 7.8125,7.5625 7.875,7.375 L 7.9375,7.1875 7.84375,7.46875 7.75,7.75 7.875,7.375"
           id="path69480" />
        <path
           style="fill:#3b3d2e;fill-opacity:0.9254902"
           d="M 9,7.5 9,7 9,7.375 9,7.75 9,7.5 Q 9,7.25 9.03125,7.03125 L 9.0625,6.8125 9.046875,6.921875 9.03125,7.03125 9.515625,7.015625 10,7 9.875,7.375 Q 9.75,7.75 9.375,7.875 L 9,8 9,7.5 M 9.90625,7.28125 10,7 10.03125,6.90625 10.0625,6.8125 10,7 Q 9.9375,7.1875 9.875,7.375 L 9.8125,7.5625 9.90625,7.28125"
           id="path69482" />
        <path
           style="fill:#000000;fill-opacity:0.70196078"
           d="M 9.875,7.375 10,7 10.5,7 11,7 11,7.5 11,8 10.625,8.125 10.25,8.25 10.53125,8.15625 10.8125,8.0625 10.625,8.125 Q 10.4375,8.1875 10.34375,8.28125 L 10.25,8.375 10.296875,8.328125 10.34375,8.28125 10.015625,7.984375 9.6875,7.6875 9.625,7.75 9.5625,7.8125 9.6875,7.6875 Q 9.8125,7.5625 9.875,7.375 L 9.9375,7.1875 9.84375,7.46875 9.75,7.75 9.875,7.375"
           id="path69484" />
        <path
           style="fill:#000000;fill-opacity:0.34901961"
           d="M 11,7.5 11,7 11.5,7 12,7 12,7.5 12,8 11.5,8 11,8 11,7.5"
           id="path69486" />
        <path
           style="fill:#000000;fill-opacity:0.11372549"
           d="M 12,7.5 12,7 12.5,7 13,7 13,7.5 13,8 12.5,8 12,8 12,7.5"
           id="path69488" />
        <path
           style="fill:#000000;fill-opacity:0.05490196"
           d="M 13,7.5 13,7 13.5,7 14,7 14,7.5 14,8 13.5,8 13,8 13,7.5"
           id="path69490" />
        <path
           style="fill:#000000;fill-opacity:0.11372549"
           d="M 14,7.5 14,7 14.5,7 15,7 15,7.5 15,8 14.5,8 14,8 14,7.5"
           id="path69492" />
        <path
           style="fill:#9f9f83;fill-opacity:0.65882353"
           d="M 15,7.5 15,7 15.375,6.875 15.75,6.75 15.46875,6.84375 15.1875,6.9375 15.375,6.875 Q 15.5625,6.8125 15.6875,6.6875 L 15.8125,6.5625 15.75,6.625 15.6875,6.6875 16,7 16.3125,7.3125 16.375,7.25 16.4375,7.1875 16.3125,7.3125 Q 16.1875,7.4375 16.125,7.625 L 16.0625,7.8125 16.15625,7.53125 16.25,7.25 16.125,7.625 16,8 15.5,8 15,8 15,7.5 M 15,7.625 15,8 15,8.125 15,8.25 15,8 q 0,-0.25 0,-0.5 l 0,-0.25 0,0.375 M 15.96875,8.09375 16,8 16.09375,7.71875 16.1875,7.4375 16.125,7.625 Q 16.0625,7.8125 16,8 l -0.0625,0.1875 0.03125,-0.09375"
           id="path69494" />
        <path
           style="fill:#dadbb0;fill-opacity:1"
           d="m 16.125,7.625 q 0.125,-0.375 0.5,-0.5 L 17,7 17,7.5 17,8 16.5,8 16,8 16.125,7.625"
           id="path69496" />
        <path
           style="fill:#65685b;fill-opacity:1"
           d="M 17,7.5 17,7 17.5,7 18,7 18,7.5 18,8 17.5,8 17,8 17,7.5"
           id="path69498" />
        <path
           style="fill:#000000;fill-opacity:0.69411765"
           d="M 18,7.5 18,7 18.5,7 19,7 19,7.5 19,8 18.5,8 18,8 18,7.5"
           id="path69500" />
        <path
           style="fill:#000000;fill-opacity:0.24313725"
           d="M 19,7.5 19,7 19.5,7 20,7 20,7.5 20,8 19.5,8 19,8 19,7.5"
           id="path69502" />
        <path
           style="fill:#e4e4ba;fill-opacity:1"
           d="M 7,8.5 7,8 7.375,7.875 7.75,7.75 7.46875,7.84375 7.1875,7.9375 7.375,7.875 Q 7.5625,7.8125 7.6875,7.6875 L 7.8125,7.5625 7.75,7.625 7.6875,7.6875 8,8 8.3125,8.3125 8.375,8.25 8.4375,8.1875 8.3125,8.3125 Q 8.1875,8.4375 8.125,8.625 L 8.0625,8.8125 8.15625,8.53125 8.25,8.25 8.125,8.625 8,9 7.5,9 7,9 7,8.5"
           id="path69504" />
        <path
           style="fill:#b2b58e;fill-opacity:1"
           d="M 8.125,8.625 Q 8.25,8.25 8.625,8.125 L 9,8 9,8.5 9,9 8.5,9 8,9 8.125,8.625"
           id="path69506" />
        <path
           style="fill:#0b0b08;fill-opacity:0.85098039"
           d="M 9,8.5 9,8 9.375,7.875 9.75,7.75 9.46875,7.84375 9.1875,7.9375 9.375,7.875 Q 9.5625,7.8125 9.6875,7.6875 L 9.8125,7.5625 9.75,7.625 9.6875,7.6875 10.015625,7.984375 10.34375,8.28125 10.390625,8.234375 10.4375,8.1875 10.34375,8.28125 Q 10.25,8.375 10.25,8.5 l 0,0.125 0,-0.1875 0,-0.1875 0,0.25 0,0.25 0,-0.1875 0,-0.1875 0,0.125 q 0,0.125 0.09375,0.21875 L 10.4375,8.8125 10.390625,8.765625 10.34375,8.71875 10.03125,9 9.71875,9.28125 9.796875,9.328125 9.875,9.375 9.71875,9.28125 Q 9.5625,9.1875 9.375,9.125 L 9.1875,9.0625 9.46875,9.15625 9.75,9.25 9.375,9.125 9,9 9,8.5"
           id="path69508" />
        <path
           style="fill:#000000;fill-opacity:0.51372549"
           d="m 10.25,8.5 q 0,-0.25 0.375,-0.375 L 11,8 11,8.5 11,9 10.625,8.875 Q 10.25,8.75 10.25,8.5"
           id="path69510" />
        <path
           style="fill:#000000;fill-opacity:0.11372549"
           d="M 11,8.5 11,8 11.5,8 12,8 12,8.5 12,9 11.5,9 11,9 11,8.5"
           id="path69512" />
        <path
           style="fill:#000000;fill-opacity:0"
           d="M 12,8.5 12,8 12.5,8 13,8 13.5,8 14,8 14.5,8 15,8 15.03125,8.53125 15.0625,9.0625 15.125,9 15.1875,8.9375 15.0625,9.0625 Q 14.9375,9.1875 14.875,9.375 L 14.8125,9.5625 14.90625,9.28125 15,9 14.875,9.375 Q 14.75,9.75 14.5,10 14.25,10.25 14,10.5 13.75,10.75 13.375,10.875 L 13,11 13.28125,10.90625 13.5625,10.8125 13.375,10.875 q -0.1875,0.0625 -0.3125,0.1875 l -0.125,0.125 L 13,11.125 13.0625,11.0625 12.53125,11.03125 12,11 12,10.5 12,10 12,9.5 12,9 12,8.5"
           id="path69514" />
        <path
           style="fill:#646453;fill-opacity:0.18039216"
           d="M 15.03125,8.53125 15,8 15.5,8 16,8 15.875,8.375 q -0.125,0.375 -0.5,0.5 L 15,9 15.28125,8.90625 15.5625,8.8125 15.375,8.875 Q 15.1875,8.9375 15.0625,9.0625 L 14.9375,9.1875 15,9.125 15.0625,9.0625 15.03125,8.53125 m 0.875,-0.25 L 16,8 16.03125,7.90625 16.0625,7.8125 16,8 Q 15.9375,8.1875 15.875,8.375 L 15.8125,8.5625 15.90625,8.28125 M 15,7.875 15,8 15,8.375 15,8.75 15,8.5 Q 15,8.25 15,8 l 0,-0.25 0,0.125"
           id="path69516" />
        <path
           style="fill:#e0e1b6;fill-opacity:1"
           d="M 15.875,8.375 16,8 16.5,8 17,8 17,8.5 17,9 16.625,9.125 16.25,9.25 16.53125,9.15625 16.8125,9.0625 16.625,9.125 Q 16.4375,9.1875 16.28125,9.28125 L 16.125,9.375 16.203125,9.328125 16.28125,9.28125 15.984375,8.984375 15.6875,8.6875 15.625,8.75 15.5625,8.8125 15.6875,8.6875 Q 15.8125,8.5625 15.875,8.375 L 15.9375,8.1875 15.84375,8.46875 15.75,8.75 15.875,8.375"
           id="path69518" />
        <path
           style="fill:#686c5d;fill-opacity:1"
           d="M 17,8.5 17,8 17.5,8 18,8 18,8.5 18,9 17.5,9 17,9 17,8.5"
           id="path69520" />
        <path
           style="fill:#000000;fill-opacity:0.77647059"
           d="M 18,8.5 18,8 18.5,8 19,8 19,8.5 19,9 18.5,9 18,9 18,8.5"
           id="path69522" />
        <path
           style="fill:#000000;fill-opacity:0.30980392"
           d="M 19,8.5 19,8 19.5,8 20,8 20,8.5 20,9 19.5,9 19,9 19,8.5"
           id="path69524" />
        <path
           style="fill:#e2e2b8;fill-opacity:1"
           d="M 7,9.5 7,9 7.5,9 8,9 8,9.5 8,10 7.5,10 7,10 7,9.5"
           id="path69526" />
        <path
           style="fill:#b8bb93;fill-opacity:1"
           d="M 8,9.5 8,9 8.5,9 9,9 9,9.5 9,10 8.5,10 8,10 8,9.5"
           id="path69528" />
        <path
           style="fill:#3c3c30;fill-opacity:0.90980392"
           d="M 9,9.5 9,9 9.375,9.125 Q 9.75,9.25 10,9.5 L 10.25,9.75 10.0625,9.5625 9.875,9.375 10,9.5 q 0.125,0.125 0.28125,0.21875 L 10.4375,9.8125 10.359375,9.765625 10.28125,9.71875 10,10 9.71875,10.28125 9.796875,10.328125 9.875,10.375 9.71875,10.28125 Q 9.5625,10.1875 9.375,10.125 L 9.1875,10.0625 9.46875,10.15625 9.75,10.25 9.390625,10.109375 9.03125,9.96875 9.046875,10.078125 9.0625,10.1875 9.03125,9.96875 Q 9,9.75 9,9.5 L 9,9.25 9,9.625 9,10 9,9.5"
           id="path69530" />
        <path
           style="fill:#000000;fill-opacity:0.43137255"
           d="M 10,9.5 9.75,9.25 9.9375,9.4375 10.125,9.625 10,9.5 Q 9.875,9.375 9.71875,9.28125 L 9.5625,9.1875 9.640625,9.234375 9.71875,9.28125 10.03125,9 10.34375,8.71875 10.296875,8.671875 10.25,8.625 10.34375,8.71875 Q 10.4375,8.8125 10.625,8.875 L 10.8125,8.9375 10.53125,8.84375 10.25,8.75 10.625,8.875 11,9 11,9.5 11,10 10.625,9.875 Q 10.25,9.75 10,9.5"
           id="path69532" />
        <path
           style="fill:#000000;fill-opacity:0.05490196"
           d="M 11,9.5 11,9 11.5,9 12,9 12,9.5 12,10 11.5,10 11,10 11,9.5"
           id="path69534" />
        <path
           style="fill:#ddddb6;fill-opacity:0.50588235"
           d="M 14.875,9.375 Q 15,9 15.375,8.875 L 15.75,8.75 15.46875,8.84375 15.1875,8.9375 15.375,8.875 Q 15.5625,8.8125 15.6875,8.6875 L 15.8125,8.5625 15.75,8.625 15.6875,8.6875 15.984375,8.984375 16.28125,9.28125 16.359375,9.234375 16.4375,9.1875 16.28125,9.28125 Q 16.125,9.375 16,9.5 L 15.875,9.625 16.0625,9.4375 16.25,9.25 16,9.5 Q 15.75,9.75 15.5,10 L 15.25,10.25 15.4375,10.0625 15.625,9.875 15.5,10 q -0.125,0.125 -0.21875,0.28125 l -0.09375,0.15625 0.04687,-0.07813 0.04687,-0.07813 L 15,10 14.71875,9.71875 14.671875,9.796875 14.625,9.875 14.71875,9.71875 Q 14.8125,9.5625 14.875,9.375 L 14.9375,9.1875 14.84375,9.46875 14.75,9.75 14.875,9.375"
           id="path69536" />
        <path
           style="fill:#d0d1aa;fill-opacity:1"
           d="M 16,9.5 Q 16.25,9.25 16.625,9.125 L 17,9 17,9.5 17,10 17,9.625 17,9.25 17,9.5 q 0,0.25 -0.03125,0.46875 L 16.9375,10.1875 16.953125,10.078125 16.96875,9.96875 16.609375,10.109375 16.25,10.25 16.53125,10.15625 16.8125,10.0625 16.625,10.125 q -0.1875,0.0625 -0.34375,0.15625 L 16.125,10.375 16.203125,10.328125 16.28125,10.28125 16.015625,10.015625 15.75,9.75 16,9.5 M 15.9375,9.5625 15.75,9.75 15.6875,9.8125 15.625,9.875 15.75,9.75 Q 15.875,9.625 16,9.5 l 0.125,-0.125 -0.1875,0.1875"
           id="path69538" />
        <path
           style="fill:#5b6055;fill-opacity:1"
           d="M 17,9.5 17,9 17.5,9 18,9 18,9.5 18,10 17.5,10 17,10 17,9.5"
           id="path69540" />
        <path
           style="fill:#000000;fill-opacity:0.79215686"
           d="M 18,9.5 18,9 18.5,9 19,9 19,9.5 19,10 18.5,10 18,10 18,9.5"
           id="path69542" />
        <path
           style="fill:#000000;fill-opacity:0.32941176"
           d="M 19,9.5 19,9 19.5,9 20,9 20,9.5 20,10 19.5,10 19,10 19,9.5"
           id="path69544" />
        <path
           style="fill:#d2d2aa;fill-opacity:0.94509804"
           d="M 7,10.5 7,10 7.5,10 8,10 8,10.5 8,11 7.5,11 7,11 7,10.5 M 7,10.625 7,11 7,11.125 7,11.25 7,11 q 0,-0.25 0,-0.5 l 0,-0.25 0,0.375"
           id="path69546" />
        <path
           style="fill:#b6b991;fill-opacity:1"
           d="M 8,10.5 8,10 8.5,10 9,10 9.125,10.375 9.25,10.75 9.15625,10.46875 9.0625,10.1875 9.125,10.375 q 0.0625,0.1875 0.15625,0.34375 L 9.375,10.875 9.328125,10.796875 9.28125,10.71875 8.984375,11.015625 8.6875,11.3125 8.75,11.375 8.8125,11.4375 8.6875,11.3125 Q 8.5625,11.1875 8.375,11.125 L 8.1875,11.0625 8.46875,11.15625 8.75,11.25 8.375,11.125 8,11 8,10.5"
           id="path69548" />
        <path
           style="fill:#6e7259;fill-opacity:0.97647059"
           d="M 9.125,10.375 9,10 9.09375,10.28125 9.1875,10.5625 9.125,10.375 Q 9.0625,10.1875 9.03125,9.96875 L 9,9.75 9.015625,9.859375 9.03125,9.96875 9.390625,10.109375 Q 9.75,10.25 10,10.5 L 10.25,10.75 10.0625,10.5625 9.875,10.375 10,10.5 q 0.125,0.125 0.28125,0.21875 L 10.4375,10.8125 10.359375,10.765625 10.28125,10.71875 10,11 9.71875,11.28125 9.765625,11.359375 9.8125,11.4375 9.71875,11.28125 Q 9.625,11.125 9.5,11 L 9.375,10.875 9.5625,11.0625 9.75,11.25 9.5,11 Q 9.25,10.75 9.125,10.375"
           id="path69550" />
        <path
           style="fill:#0f0f0b;fill-opacity:0.54117647"
           d="M 10,10.5 9.75,10.25 9.9375,10.4375 10.125,10.625 10,10.5 Q 9.875,10.375 9.71875,10.28125 L 9.5625,10.1875 9.640625,10.234375 9.71875,10.28125 10,10 10.28125,9.71875 10.203125,9.671875 10.125,9.625 10.28125,9.71875 Q 10.4375,9.8125 10.625,9.875 L 10.8125,9.9375 10.53125,9.84375 10.25,9.75 10.625,9.875 11,10 11,10.5 11,11 10.625,10.875 Q 10.25,10.75 10,10.5"
           id="path69552" />
        <path
           style="fill:#000000;fill-opacity:0.11372549"
           d="m 11,10.5 0,-0.5 0.5,0 0.5,0 0,0.5 0,0.5 -0.5,0 -0.5,0 0,-0.5"
           id="path69554" />
        <path
           style="fill:#ededc8;fill-opacity:0.05490196"
           d="M 14,10.5 Q 14.25,10.25 14.5,10 L 14.75,9.75 14.5625,9.9375 14.375,10.125 14.5,10 Q 14.625,9.875 14.71875,9.71875 L 14.8125,9.5625 14.765625,9.640625 14.71875,9.71875 15,10 l 0.28125,0.28125 0.04687,-0.07813 L 15.375,10.125 15.28125,10.28125 Q 15.1875,10.4375 15.125,10.625 L 15.0625,10.8125 15.15625,10.53125 15.25,10.25 15.125,10.625 15,11 14.625,11.125 14.25,11.25 14.53125,11.15625 14.8125,11.0625 14.625,11.125 q -0.1875,0.0625 -0.3125,0.1875 l -0.125,0.125 0.0625,-0.0625 0.0625,-0.0625 -0.296875,-0.296875 -0.296875,-0.296875 -0.07813,0.04687 -0.07813,0.04687 0.15625,-0.09375 Q 13.875,10.625 14,10.5 L 14.125,10.375 13.9375,10.5625 13.75,10.75 14,10.5"
           id="path69556" />
        <path
           style="fill:#e4e4b9;fill-opacity:0.8745098"
           d="M 15.125,10.625 Q 15.25,10.25 15.5,10 l 0.25,-0.25 0.265625,0.265625 0.265625,0.265625 0.07813,-0.04687 0.07813,-0.04687 -0.15625,0.09375 Q 16.125,10.375 16,10.5 L 15.875,10.625 16.0625,10.4375 16.25,10.25 16,10.5 q -0.25,0.25 -0.625,0.375 L 15,11 15.125,10.625 M 15.8125,9.6875 15.75,9.75 15.5625,9.9375 15.375,10.125 15.5,10 q 0.125,-0.125 0.25,-0.25 l 0.125,-0.125 -0.0625,0.0625"
           id="path69558" />
        <path
           style="fill:#9ca082;fill-opacity:1"
           d="m 16,10.5 q 0.25,-0.25 0.609375,-0.390625 L 16.96875,9.96875 16.984375,9.859375 17,9.75 16.96875,9.96875 Q 16.9375,10.1875 16.875,10.375 L 16.8125,10.5625 16.90625,10.28125 17,10 16.875,10.375 Q 16.75,10.75 16.5,11 l -0.25,0.25 -0.265625,-0.265625 -0.265625,-0.265625 -0.07813,0.04687 -0.07813,0.04687 0.15625,-0.09375 Q 15.875,10.625 16,10.5 L 16.125,10.375 15.9375,10.5625 15.75,10.75 16,10.5 M 16.1875,11.3125 16.25,11.25 16.4375,11.0625 16.625,10.875 16.5,11 q -0.125,0.125 -0.25,0.25 l -0.125,0.125 0.0625,-0.0625"
           id="path69560" />
        <path
           style="fill:#3d413d;fill-opacity:0.98823529"
           d="M 16.875,10.375 17,10 l 0.5,0 0.5,0 -0.125,0.375 Q 17.75,10.75 17.5,11 L 17.25,11.25 16.984375,10.984375 16.71875,10.71875 16.671875,10.796875 16.625,10.875 16.71875,10.71875 Q 16.8125,10.5625 16.875,10.375 L 16.9375,10.1875 16.84375,10.46875 16.75,10.75 16.875,10.375 M 17.1875,11.3125 17.25,11.25 17.4375,11.0625 17.625,10.875 17.5,11 q -0.125,0.125 -0.25,0.25 l -0.125,0.125 0.0625,-0.0625"
           id="path69562" />
        <path
           style="fill:#000000;fill-opacity:0.77647059"
           d="M 17.875,10.375 18,10 l 0.5,0 0.5,0 0,0.5 0,0.5 -0.375,0.125 -0.375,0.125 0.28125,-0.09375 0.28125,-0.09375 -0.1875,0.0625 q -0.1875,0.0625 -0.3125,0.1875 l -0.125,0.125 L 18.25,11.375 18.3125,11.3125 18.015625,11.015625 17.71875,10.71875 17.671875,10.796875 17.625,10.875 17.71875,10.71875 Q 17.8125,10.5625 17.875,10.375 L 17.9375,10.1875 17.84375,10.46875 17.75,10.75 17.875,10.375"
           id="path69564" />
        <path
           style="fill:#000000;fill-opacity:0.30980392"
           d="m 19,10.5 0,-0.5 0.5,0 0.5,0 0,0.5 0,0.5 -0.5,0 -0.5,0 0,-0.5"
           id="path69566" />
        <path
           style="fill:#949a75;fill-opacity:0.74901961"
           d="M 7,11.5 7,11 7.5,11 8,11 8.125,11.375 8.25,11.75 8.15625,11.46875 8.0625,11.1875 8.125,11.375 q 0.0625,0.1875 0.1875,0.3125 l 0.125,0.125 L 8.375,11.75 8.3125,11.6875 8,12 7.6875,12.3125 7.75,12.375 7.8125,12.4375 7.6875,12.3125 Q 7.5625,12.1875 7.375,12.125 L 7.1875,12.0625 7.46875,12.15625 7.75,12.25 7.328125,12.078125 6.90625,11.90625 6.859375,11.984375 6.8125,12.0625 6.90625,11.90625 Q 7,11.75 7,11.5 L 7,11.25 7,11.625 7,12 7,11.5 M 7,10.875 7,11 7,11.375 7,11.75 7,11.5 Q 7,11.25 7,11 l 0,-0.25 0,0.125"
           id="path69568" />
        <path
           style="fill:#a0a57e;fill-opacity:1"
           d="M 8.125,11.375 8,11 8.375,11.125 q 0.375,0.125 0.5,0.5 L 9,12 8.625,11.875 q -0.375,-0.125 -0.5,-0.5"
           id="path69570" />
        <path
           style="fill:#9a9f79;fill-opacity:1"
           d="M 8.875,11.625 8.75,11.25 8.84375,11.53125 8.9375,11.8125 8.875,11.625 Q 8.8125,11.4375 8.6875,11.3125 L 8.5625,11.1875 8.625,11.25 8.6875,11.3125 8.984375,11.015625 9.28125,10.71875 9.234375,10.640625 9.1875,10.5625 9.28125,10.71875 Q 9.375,10.875 9.5,11 L 9.625,11.125 9.4375,10.9375 9.25,10.75 9.5,11 q 0.25,0.25 0.375,0.625 L 10,12 9.5,12 9,12 8.875,11.625"
           id="path69572" />
        <path
           style="fill:#939676;fill-opacity:0.95686275"
           d="M 9.875,11.625 9.75,11.25 9.84375,11.53125 9.9375,11.8125 9.875,11.625 Q 9.8125,11.4375 9.71875,11.28125 L 9.625,11.125 9.671875,11.203125 9.71875,11.28125 10,11 10.28125,10.71875 10.203125,10.671875 10.125,10.625 10.28125,10.71875 Q 10.4375,10.8125 10.625,10.875 L 10.8125,10.9375 10.53125,10.84375 10.25,10.75 10.625,10.875 11,11 10.875,11.375 q -0.125,0.375 -0.5,0.5 L 10,12 9.875,11.625"
           id="path69574" />
        <path
           style="fill:#9f9f81;fill-opacity:0.65882353"
           d="M 10.875,11.375 11,11 l 0.5,0 0.5,0 0,0.5 0,0.5 -0.375,0.125 -0.375,0.125 0.28125,-0.09375 0.28125,-0.09375 -0.1875,0.0625 q -0.1875,0.0625 -0.3125,0.1875 l -0.125,0.125 L 11.25,12.375 11.3125,12.3125 11,12 10.6875,11.6875 10.625,11.75 l -0.0625,0.0625 0.125,-0.125 q 0.125,-0.125 0.1875,-0.3125 L 10.9375,11.1875 10.84375,11.46875 10.75,11.75 10.875,11.375 M 12.125,11 12,11 l -0.375,0 -0.375,0 0.25,0 q 0.25,0 0.5,0 l 0.25,0 -0.125,0"
           id="path69576" />
        <path
           style="fill:#646453;fill-opacity:0.18039216"
           d="M 12,11.5 12,11 12.53125,11.03125 13.0625,11.0625 13.125,11 l 0.0625,-0.0625 -0.125,0.125 q -0.125,0.125 -0.1875,0.3125 L 12.8125,11.5625 12.90625,11.28125 13,11 12.875,11.375 q -0.125,0.375 -0.5,0.5 L 12,12 12,11.5 M 11.90625,12.03125 12,12 12.28125,11.90625 12.5625,11.8125 12.375,11.875 Q 12.1875,11.9375 12,12 l -0.1875,0.0625 0.09375,-0.03125 M 12.375,11 12,11 11.875,11 11.75,11 12,11 q 0.25,0 0.5,0 l 0.25,0 -0.375,0"
           id="path69578" />
        <path
           style="fill:#ddddb6;fill-opacity:0.50588235"
           d="M 12.875,11.375 Q 13,11 13.375,10.875 L 13.75,10.75 13.46875,10.84375 13.1875,10.9375 13.375,10.875 q 0.1875,-0.0625 0.34375,-0.15625 L 13.875,10.625 l -0.07813,0.04687 -0.07813,0.04687 0.296875,0.296875 0.296875,0.296875 0.0625,-0.0625 0.0625,-0.0625 -0.125,0.125 q -0.125,0.125 -0.1875,0.3125 L 14.0625,11.8125 14.15625,11.53125 14.25,11.25 14.125,11.625 14,12 13.625,12.125 13.25,12.25 13.53125,12.15625 13.8125,12.0625 13.625,12.125 q -0.1875,0.0625 -0.3125,0.1875 l -0.125,0.125 L 13.25,12.375 13.3125,12.3125 13,12 12.6875,11.6875 12.625,11.75 l -0.0625,0.0625 0.125,-0.125 q 0.125,-0.125 0.1875,-0.3125 L 12.9375,11.1875 12.84375,11.46875 12.75,11.75 12.875,11.375"
           id="path69580" />
        <path
           style="fill:#e4e4ba;fill-opacity:0.8745098"
           d="m 14.125,11.625 q 0.125,-0.375 0.5,-0.5 L 15,11 14.875,11.375 q -0.125,0.375 -0.5,0.5 L 14,12 14.125,11.625"
           id="path69582" />
        <path
           style="fill:#c2c5a0;fill-opacity:1"
           d="M 14.875,11.375 15,11 15.375,10.875 15.75,10.75 15.46875,10.84375 15.1875,10.9375 15.375,10.875 q 0.1875,-0.0625 0.34375,-0.15625 L 15.875,10.625 l -0.07813,0.04687 -0.07813,0.04687 0.265625,0.265625 L 16.25,11.25 16,11.5 Q 15.75,11.75 15.5,12 L 15.25,12.25 15.4375,12.0625 15.625,11.875 15.5,12 q -0.125,0.125 -0.21875,0.28125 l -0.09375,0.15625 0.04687,-0.07813 0.04687,-0.07813 L 14.984375,11.984375 14.6875,11.6875 14.625,11.75 l -0.0625,0.0625 0.125,-0.125 q 0.125,-0.125 0.1875,-0.3125 L 14.9375,11.1875 14.84375,11.46875 14.75,11.75 14.875,11.375 M 16.0625,11.4375 16.25,11.25 16.3125,11.1875 16.375,11.125 16.25,11.25 Q 16.125,11.375 16,11.5 l -0.125,0.125 0.1875,-0.1875"
           id="path69584" />
        <path
           style="fill:#63685b;fill-opacity:1"
           d="M 16,11.5 Q 16.25,11.25 16.5,11 L 16.75,10.75 16.5625,10.9375 16.375,11.125 16.5,11 q 0.125,-0.125 0.21875,-0.28125 l 0.09375,-0.15625 -0.04687,0.07813 -0.04687,0.07813 0.265625,0.265625 L 17.25,11.25 17,11.5 Q 16.75,11.75 16.5,12 L 16.25,12.25 16,12 15.75,11.75 16,11.5 M 15.9375,11.5625 15.75,11.75 15.6875,11.8125 15.625,11.875 15.75,11.75 Q 15.875,11.625 16,11.5 l 0.125,-0.125 -0.1875,0.1875 m 0.25,0.75 L 16.25,12.25 16.4375,12.0625 16.625,11.875 16.5,12 q -0.125,0.125 -0.25,0.25 l -0.125,0.125 0.0625,-0.0625 m 0.875,-0.875 L 17.25,11.25 17.3125,11.1875 17.375,11.125 17.25,11.25 Q 17.125,11.375 17,11.5 l -0.125,0.125 0.1875,-0.1875"
           id="path69586" />
        <path
           style="fill:#252826;fill-opacity:0.94509804"
           d="M 17,11.5 Q 17.25,11.25 17.5,11 L 17.75,10.75 17.5625,10.9375 17.375,11.125 17.5,11 q 0.125,-0.125 0.21875,-0.28125 l 0.09375,-0.15625 -0.04687,0.07813 -0.04687,0.07813 0.296875,0.296875 0.296875,0.296875 0.0625,-0.0625 0.0625,-0.0625 -0.125,0.125 q -0.125,0.125 -0.1875,0.3125 L 18.0625,11.8125 18.15625,11.53125 18.25,11.25 18.125,11.625 18,12 17.625,12.125 17.25,12.25 17.53125,12.15625 17.8125,12.0625 17.625,12.125 q -0.1875,0.0625 -0.3125,0.1875 l -0.125,0.125 L 17.25,12.375 17.3125,12.3125 17.03125,12.03125 16.75,11.75 17,11.5 M 16.9375,11.5625 16.75,11.75 16.6875,11.8125 16.625,11.875 16.75,11.75 Q 16.875,11.625 17,11.5 l 0.125,-0.125 -0.1875,0.1875"
           id="path69588" />
        <path
           style="fill:#000000;fill-opacity:0.69411765"
           d="m 18.125,11.625 q 0.125,-0.375 0.5,-0.5 L 19,11 l 0,0.5 0,0.5 -0.5,0 -0.5,0 0.125,-0.375"
           id="path69590" />
        <path
           style="fill:#000000;fill-opacity:0.24313725"
           d="m 19,11.5 0,-0.5 0.5,0 0.5,0 0,0.5 0,0.5 -0.5,0 -0.5,0 0,-0.5"
           id="path69592" />
        <path
           style="fill:#e3e3ba;fill-opacity:0.14509804"
           d="M 6,12.5 Q 6.25,12.25 6.625,12.125 L 7,12 6.71875,12.09375 6.4375,12.1875 6.625,12.125 Q 6.8125,12.0625 6.90625,11.90625 L 7,11.75 6.953125,11.828125 6.90625,11.90625 7.078125,12.328125 7.25,12.75 7.15625,12.46875 7.0625,12.1875 7.125,12.375 q 0.0625,0.1875 0.1875,0.3125 l 0.125,0.125 L 7.375,12.75 7.3125,12.6875 7,13 6.6875,13.3125 6.71875,13.34375 6.75,13.375 6.6875,13.3125 Q 6.625,13.25 6.5,13.25 l -0.125,0 0.1875,0 0.1875,0 -0.25,0 -0.25,0 0.1875,0 0.1875,0 -0.125,0 q -0.125,0 -0.21875,0.09375 L 6.1875,13.4375 6.234375,13.390625 6.28125,13.34375 6,13.03125 5.71875,12.71875 5.640625,12.765625 5.5625,12.8125 5.71875,12.71875 Q 5.875,12.625 6,12.5 L 6.125,12.375 5.9375,12.5625 5.75,12.75 6,12.5"
           id="path69594" />
        <path
           style="fill:#b5b792;fill-opacity:0.96862745"
           d="M 7.078125,12.328125 6.90625,11.90625 7.328125,12.078125 Q 7.75,12.25 7.875,12.625 L 8,13 7.625,12.875 Q 7.25,12.75 7.078125,12.328125"
           id="path69596" />
        <path
           style="fill:#808569;fill-opacity:1"
           d="M 7.875,12.625 7.75,12.25 7.84375,12.53125 7.9375,12.8125 7.875,12.625 Q 7.8125,12.4375 7.6875,12.3125 L 7.5625,12.1875 7.625,12.25 7.6875,12.3125 8,12 8.3125,11.6875 8.25,11.625 8.1875,11.5625 l 0.125,0.125 q 0.125,0.125 0.3125,0.1875 L 8.8125,11.9375 8.53125,11.84375 8.25,11.75 8.625,11.875 9,12 9,12.5 9,13 8.5,13 8,13 7.875,12.625"
           id="path69598" />
        <path
           style="fill:#8e9373;fill-opacity:1"
           d="M 9,12.5 9,12 9.5,12 10,12 10.125,12.375 10.25,12.75 10.15625,12.46875 10.0625,12.1875 10.125,12.375 q 0.0625,0.1875 0.1875,0.3125 l 0.125,0.125 L 10.375,12.75 10.3125,12.6875 10,13 9.6875,13.3125 9.75,13.375 9.8125,13.4375 9.6875,13.3125 Q 9.5625,13.1875 9.375,13.125 L 9.1875,13.0625 9.46875,13.15625 9.75,13.25 9.375,13.125 9,13 9,12.5"
           id="path69600" />
        <path
           style="fill:#a6aa83;fill-opacity:1"
           d="M 10.125,12.375 10,12 10.375,11.875 10.75,11.75 10.46875,11.84375 10.1875,11.9375 10.375,11.875 q 0.1875,-0.0625 0.3125,-0.1875 l 0.125,-0.125 L 10.75,11.625 10.6875,11.6875 11,12 l 0.3125,0.3125 0.0625,-0.0625 0.0625,-0.0625 -0.125,0.125 q -0.125,0.125 -0.1875,0.3125 L 11.0625,12.8125 11.15625,12.53125 11.25,12.25 11.125,12.625 11,13 10.625,12.875 q -0.375,-0.125 -0.5,-0.5"
           id="path69602" />
        <path
           style="fill:#cdcfa5;fill-opacity:1"
           d="m 11.125,12.625 q 0.125,-0.375 0.5,-0.5 L 12,12 l 0,0.5 0,0.5 -0.5,0 -0.5,0 0.125,-0.375"
           id="path69604" />
        <path
           style="fill:#e1e2b7;fill-opacity:1"
           d="M 12,12.5 12,12 12.375,11.875 12.75,11.75 12.46875,11.84375 12.1875,11.9375 12.375,11.875 q 0.1875,-0.0625 0.3125,-0.1875 l 0.125,-0.125 L 12.75,11.625 12.6875,11.6875 13,12 l 0.3125,0.3125 0.0625,-0.0625 0.0625,-0.0625 -0.125,0.125 q -0.125,0.125 -0.1875,0.3125 L 13.0625,12.8125 13.15625,12.53125 13.25,12.25 13.125,12.625 13,13 12.5,13 12,13 12,12.5"
           id="path69606" />
        <path
           style="fill:#dfe0b5;fill-opacity:1"
           d="m 13.125,12.625 q 0.125,-0.375 0.5,-0.5 L 14,12 l 0,0.5 0,0.5 -0.5,0 -0.5,0 0.125,-0.375"
           id="path69608" />
        <path
           style="fill:#b5b894;fill-opacity:1"
           d="M 14,12.5 14,12 14.375,11.875 14.75,11.75 14.46875,11.84375 14.1875,11.9375 14.375,11.875 q 0.1875,-0.0625 0.3125,-0.1875 l 0.125,-0.125 -0.0625,0.0625 -0.0625,0.0625 0.296875,0.296875 0.296875,0.296875 0.04687,-0.07813 L 15.375,12.125 15.28125,12.28125 Q 15.1875,12.4375 15.125,12.625 L 15.0625,12.8125 15.15625,12.53125 15.25,12.25 15.109375,12.609375 14.96875,12.96875 15.078125,12.953125 15.1875,12.9375 14.96875,12.96875 Q 14.75,13 14.5,13 l -0.25,0 0.375,0 0.375,0 -0.5,0 -0.5,0 0,-0.5"
           id="path69610" />
        <path
           style="fill:#727664;fill-opacity:1"
           d="M 15.109375,12.609375 Q 15.25,12.25 15.5,12 L 15.75,11.75 16,12 16.25,12.25 16,12.5 q -0.25,0.25 -0.625,0.375 L 15,13 15.28125,12.90625 15.5625,12.8125 15.375,12.875 q -0.1875,0.0625 -0.40625,0.09375 L 14.75,13 l 0.109375,-0.01563 0.109375,-0.01563 0.140625,-0.359375 M 16.0625,12.4375 16.25,12.25 16.3125,12.1875 16.375,12.125 16.25,12.25 Q 16.125,12.375 16,12.5 l -0.125,0.125 0.1875,-0.1875 m -0.25,-0.75 L 15.75,11.75 15.5625,11.9375 15.375,12.125 15.5,12 q 0.125,-0.125 0.25,-0.25 l 0.125,-0.125 -0.0625,0.0625"
           id="path69612" />
        <path
           style="fill:#272727;fill-opacity:0.9372549"
           d="m 16,12.5 q 0.25,-0.25 0.5,-0.5 l 0.25,-0.25 0.28125,0.28125 0.28125,0.28125 0.0625,-0.0625 0.0625,-0.0625 -0.125,0.125 q -0.125,0.125 -0.1875,0.3125 L 17.0625,12.8125 17.15625,12.53125 17.25,12.25 17.125,12.625 17,13 16.625,13.125 16.25,13.25 16.53125,13.15625 16.8125,13.0625 16.625,13.125 q -0.1875,0.0625 -0.3125,0.1875 l -0.125,0.125 0.0625,-0.0625 0.0625,-0.0625 -0.296875,-0.296875 -0.296875,-0.296875 -0.07813,0.04687 -0.07813,0.04687 0.15625,-0.09375 Q 15.875,12.625 16,12.5 L 16.125,12.375 15.9375,12.5625 15.75,12.75 16,12.5 M 16.8125,11.6875 16.75,11.75 16.5625,11.9375 16.375,12.125 16.5,12 q 0.125,-0.125 0.25,-0.25 l 0.125,-0.125 -0.0625,0.0625"
           id="path69614" />
        <path
           style="fill:#000000;fill-opacity:0.79607843"
           d="m 17.125,12.625 q 0.125,-0.375 0.5,-0.5 L 18,12 l 0,0.5 0,0.5 -0.5,0 -0.5,0 0.125,-0.375"
           id="path69616" />
        <path
           style="fill:#000000;fill-opacity:0.50196078"
           d="m 18,12.5 0,-0.5 0.5,0 0.5,0 0,0.5 0,0.5 -0.5,0 -0.5,0 0,-0.5"
           id="path69618" />
        <path
           style="fill:#000000;fill-opacity:0.1372549"
           d="m 19,12.5 0,-0.5 0.5,0 0.5,0 0,0.5 0,0.5 -0.5,0 -0.5,0 0,-0.5"
           id="path69620" />
        <path
           style="fill:#ffffd5;fill-opacity:0.02352941"
           d="M 4,13.5 Q 4.25,13.25 4.625,13.125 L 5,13 5,13.5 5,14 4.625,14.125 4.25,14.25 4.53125,14.15625 4.8125,14.0625 4.625,14.125 Q 4.4375,14.1875 4.3125,14.3125 L 4.1875,14.4375 4.25,14.375 4.3125,14.3125 4.03125,14.03125 3.75,13.75 4,13.5 M 3.9375,13.5625 3.75,13.75 3.6875,13.8125 3.625,13.875 3.75,13.75 Q 3.875,13.625 4,13.5 l 0.125,-0.125 -0.1875,0.1875"
           id="path69622" />
        <path
           style="fill:#e5e5b9;fill-opacity:0.34117647"
           d="M 5,13.5 5,13 5.375,12.875 5.75,12.75 5.46875,12.84375 5.1875,12.9375 5.375,12.875 Q 5.5625,12.8125 5.71875,12.71875 L 5.875,12.625 5.796875,12.671875 5.71875,12.71875 6,13.03125 6.28125,13.34375 6.328125,13.296875 6.375,13.25 6.28125,13.34375 Q 6.1875,13.4375 6.125,13.625 L 6.0625,13.8125 6.15625,13.53125 6.25,13.25 6.125,13.625 6,14 5.5,14 5,14 5,13.5"
           id="path69624" />
        <path
           style="fill:#eaeabc;fill-opacity:0.96470588"
           d="M 6.125,13.625 Q 6.25,13.25 6.5,13.25 q 0.25,0 0.25,0.25 0,0.25 -0.375,0.375 L 6,14 6.125,13.625"
           id="path69626" />
        <path
           style="fill:#d1d3aa;fill-opacity:1"
           d="m 6.75,13.5 0,-0.25 0,0.1875 0,0.1875 0,-0.125 q 0,-0.125 -0.0625,-0.1875 L 6.625,13.25 6.65625,13.28125 6.6875,13.3125 7,13 7.3125,12.6875 7.25,12.625 7.1875,12.5625 l 0.125,0.125 q 0.125,0.125 0.3125,0.1875 L 7.8125,12.9375 7.53125,12.84375 7.25,12.75 7.625,12.875 8,13 7.875,13.375 Q 7.75,13.75 7.5,14 L 7.25,14.25 6.953125,13.984375 6.65625,13.71875 6.609375,13.765625 6.5625,13.8125 6.65625,13.71875 Q 6.75,13.625 6.75,13.5 l 0,-0.125 0,0.1875 0,0.1875 0,-0.25 M 7.1875,14.3125 7.25,14.25 7.4375,14.0625 7.625,13.875 7.5,14 q -0.125,0.125 -0.25,0.25 l -0.125,0.125 0.0625,-0.0625"
           id="path69628" />
        <path
           style="fill:#5a5f51;fill-opacity:0.99607843"
           d="M 7.875,13.375 8,13 8.5,13 9,13 8.875,13.375 Q 8.75,13.75 8.5,14 L 8.25,14.25 7.984375,13.984375 7.71875,13.71875 7.671875,13.796875 7.625,13.875 7.71875,13.71875 Q 7.8125,13.5625 7.875,13.375 L 7.9375,13.1875 7.84375,13.46875 7.75,13.75 7.875,13.375 M 8.1875,14.3125 8.25,14.25 8.4375,14.0625 8.625,13.875 8.5,14 q -0.125,0.125 -0.25,0.25 l -0.125,0.125 0.0625,-0.0625"
           id="path69630" />
        <path
           style="fill:#33392d;fill-opacity:0.96470588"
           d="M 8.875,13.375 9,13 9.375,13.125 Q 9.75,13.25 9.890625,13.640625 L 10.03125,14.03125 10.140625,14.015625 10.25,14 10.03125,14.03125 Q 9.8125,14.0625 9.625,14.125 L 9.4375,14.1875 9.71875,14.09375 10,14 9.625,14.125 9.25,14.25 9.53125,14.15625 9.8125,14.0625 9.625,14.125 Q 9.4375,14.1875 9.3125,14.3125 L 9.1875,14.4375 9.25,14.375 9.3125,14.3125 9.015625,14.015625 8.71875,13.71875 8.671875,13.796875 8.625,13.875 8.71875,13.71875 Q 8.8125,13.5625 8.875,13.375 L 8.9375,13.1875 8.84375,13.46875 8.75,13.75 8.875,13.375"
           id="path69632" />
        <path
           style="fill:#6c7056;fill-opacity:0.99215686"
           d="M 9.890625,13.640625 9.75,13.25 9.84375,13.53125 9.9375,13.8125 9.875,13.625 Q 9.8125,13.4375 9.6875,13.3125 L 9.5625,13.1875 9.625,13.25 9.6875,13.3125 10,13 10.3125,12.6875 10.25,12.625 l -0.0625,-0.0625 0.125,0.125 q 0.125,0.125 0.3125,0.1875 L 10.8125,12.9375 10.53125,12.84375 10.25,12.75 10.625,12.875 11,13 l 0,0.5 0,0.5 -0.5,0 -0.5,0 0.375,0 0.375,0 -0.25,0 q -0.25,0 -0.46875,0.03125 L 9.8125,14.0625 9.921875,14.046875 10.03125,14.03125 9.890625,13.640625"
           id="path69634" />
        <path
           style="fill:#747963;fill-opacity:1"
           d="m 11,13.5 0,-0.5 0.5,0 0.5,0 0,0.5 0,0.5 -0.5,0 -0.5,0 0,-0.5"
           id="path69636" />
        <path
           style="fill:#696e5e;fill-opacity:1"
           d="m 12,13.5 0,-0.5 0.5,0 0.5,0 0,0.5 0,0.5 -0.5,0 -0.5,0 0,-0.5"
           id="path69638" />
        <path
           style="fill:#5f6457;fill-opacity:1"
           d="m 13,13.5 0,-0.5 0.5,0 0.5,0 0,0.5 0,0.5 -0.5,0 -0.5,0 0,-0.5"
           id="path69640" />
        <path
           style="fill:#3f433d;fill-opacity:0.98823529"
           d="m 14,13.5 0,-0.5 0.5,0 0.5,0 -0.125,0.375 q -0.125,0.375 -0.5,0.5 L 14,14 14,13.5"
           id="path69642" />
        <path
           style="fill:#212625;fill-opacity:0.94509804"
           d="M 14.875,13.375 15,13 15.375,12.875 15.75,12.75 15.46875,12.84375 15.1875,12.9375 15.375,12.875 q 0.1875,-0.0625 0.34375,-0.15625 L 15.875,12.625 l -0.07813,0.04687 -0.07813,0.04687 0.296875,0.296875 0.296875,0.296875 0.0625,-0.0625 0.0625,-0.0625 -0.125,0.125 q -0.125,0.125 -0.1875,0.3125 L 16.0625,13.8125 16.15625,13.53125 16.25,13.25 16.125,13.625 16,14 15.625,14.125 15.25,14.25 15.53125,14.15625 15.8125,14.0625 15.625,14.125 q -0.1875,0.0625 -0.3125,0.1875 l -0.125,0.125 L 15.25,14.375 15.3125,14.3125 15,14 14.6875,13.6875 14.625,13.75 l -0.0625,0.0625 0.125,-0.125 q 0.125,-0.125 0.1875,-0.3125 L 14.9375,13.1875 14.84375,13.46875 14.75,13.75 14.875,13.375"
           id="path69644" />
        <path
           style="fill:#000000;fill-opacity:0.79607843"
           d="m 16.125,13.625 q 0.125,-0.375 0.5,-0.5 L 17,13 l 0,0.5 0,0.5 -0.5,0 -0.5,0 0.125,-0.375"
           id="path69646" />
        <path
           style="fill:#000000;fill-opacity:0.55686275"
           d="m 17,13.5 0,-0.5 0.5,0 0.5,0 0,0.5 0,0.5 -0.5,0 -0.5,0 0,-0.5"
           id="path69648" />
        <path
           style="fill:#000000;fill-opacity:0.21960784"
           d="m 18,13.5 0,-0.5 0.5,0 0.5,0 0,0.5 0,0.5 -0.5,0 -0.5,0 0,-0.5"
           id="path69650" />
        <path
           style="fill:#000000;fill-opacity:0.03137255"
           d="m 19,13.5 0,-0.5 0.5,0 0.5,0 0,0.5 Q 20,14 19.5,14 l -0.5,0 0,-0.5"
           id="path69652" />
        <path
           style="fill:#eaeabf;fill-opacity:0.04705882"
           d="M 3,14.5 Q 3.25,14.25 3.5,14 L 3.75,13.75 4.03125,14.03125 4.3125,14.3125 4.375,14.25 4.4375,14.1875 4.3125,14.3125 Q 4.1875,14.4375 4.125,14.625 L 4.0625,14.8125 4.15625,14.53125 4.25,14.25 4.125,14.625 4,15 3.625,15.125 3.25,15.25 3.53125,15.15625 3.8125,15.0625 3.625,15.125 Q 3.4375,15.1875 3.3125,15.3125 L 3.1875,15.4375 3.25,15.375 3.3125,15.3125 3.03125,15.03125 2.75,14.75 3,14.5 M 2.9375,14.5625 2.75,14.75 2.6875,14.8125 2.625,14.875 2.75,14.75 Q 2.875,14.625 3,14.5 L 3.125,14.375 2.9375,14.5625 M 3.8125,13.6875 3.75,13.75 3.5625,13.9375 3.375,14.125 3.5,14 q 0.125,-0.125 0.25,-0.25 l 0.125,-0.125 -0.0625,0.0625"
           id="path69654" />
        <path
           style="fill:#e7e7c0;fill-opacity:0.89803922"
           d="m 4.125,14.625 q 0.125,-0.375 0.5,-0.5 L 5,14 5,14.5 5,15 4.5,15 4,15 4.125,14.625"
           id="path69656" />
        <path
           style="fill:#ededc1;fill-opacity:1"
           d="M 5,14.5 5,14 5.5,14 6,14 5.875,14.375 q -0.125,0.375 -0.5,0.5 L 5,15 5,14.5"
           id="path69658" />
        <path
           style="fill:#d7d8af;fill-opacity:1"
           d="M 5.875,14.375 6,14 6.375,13.875 6.75,13.75 6.46875,13.84375 6.1875,13.9375 6.375,13.875 Q 6.5625,13.8125 6.65625,13.71875 L 6.75,13.625 6.703125,13.671875 6.65625,13.71875 6.953125,13.984375 7.25,14.25 7,14.5 Q 6.75,14.75 6.5,15 L 6.25,15.25 5.96875,14.96875 5.6875,14.6875 5.625,14.75 5.5625,14.8125 5.6875,14.6875 Q 5.8125,14.5625 5.875,14.375 L 5.9375,14.1875 5.84375,14.46875 5.75,14.75 5.875,14.375 M 6.1875,15.3125 6.25,15.25 6.4375,15.0625 6.625,14.875 6.5,15 Q 6.375,15.125 6.25,15.25 L 6.125,15.375 6.1875,15.3125 M 7.0625,14.4375 7.25,14.25 7.3125,14.1875 7.375,14.125 7.25,14.25 Q 7.125,14.375 7,14.5 l -0.125,0.125 0.1875,-0.1875"
           id="path69660" />
        <path
           style="fill:#737761;fill-opacity:0.99215686"
           d="M 7,14.5 Q 7.25,14.25 7.5,14 L 7.75,13.75 7.5625,13.9375 7.375,14.125 7.5,14 Q 7.625,13.875 7.71875,13.71875 L 7.8125,13.5625 7.765625,13.640625 7.71875,13.71875 7.984375,13.984375 8.25,14.25 8,14.5 Q 7.75,14.75 7.5,15 L 7.25,15.25 7,15 6.75,14.75 7,14.5 M 6.9375,14.5625 6.75,14.75 6.6875,14.8125 6.625,14.875 6.75,14.75 Q 6.875,14.625 7,14.5 l 0.125,-0.125 -0.1875,0.1875 m 0.25,0.75 L 7.25,15.25 7.4375,15.0625 7.625,14.875 7.5,15 Q 7.375,15.125 7.25,15.25 L 7.125,15.375 7.1875,15.3125 M 8.0625,14.4375 8.25,14.25 8.3125,14.1875 8.375,14.125 8.25,14.25 Q 8.125,14.375 8,14.5 l -0.125,0.125 0.1875,-0.1875"
           id="path69662" />
        <path
           style="fill:#0c0c0c;fill-opacity:0.86666667"
           d="M 8,14.5 Q 8.25,14.25 8.5,14 L 8.75,13.75 8.5625,13.9375 8.375,14.125 8.5,14 Q 8.625,13.875 8.71875,13.71875 L 8.8125,13.5625 8.765625,13.640625 8.71875,13.71875 9.015625,14.015625 9.3125,14.3125 9.375,14.25 9.4375,14.1875 9.3125,14.3125 Q 9.1875,14.4375 9.125,14.625 L 9.0625,14.8125 9.15625,14.53125 9.25,14.25 9.125,14.625 9,15 8.625,15.125 8.25,15.25 8.53125,15.15625 8.8125,15.0625 8.625,15.125 Q 8.4375,15.1875 8.3125,15.3125 L 8.1875,15.4375 8.25,15.375 8.3125,15.3125 8.03125,15.03125 7.75,14.75 8,14.5 M 7.9375,14.5625 7.75,14.75 7.6875,14.8125 7.625,14.875 7.75,14.75 Q 7.875,14.625 8,14.5 l 0.125,-0.125 -0.1875,0.1875"
           id="path69664" />
        <path
           style="fill:#000000;fill-opacity:0.77254902"
           d="m 9.125,14.625 q 0.125,-0.375 0.5,-0.5 L 10,14 10,14.5 10,15 9.5,15 9,15 9.125,14.625"
           id="path69666" />
        <path
           style="fill:#000000;fill-opacity:0.6627451"
           d="m 10,14.5 0,-0.5 0.5,0 0.5,0 0,0.5 0,0.5 -0.5,0 -0.5,0 0,-0.5"
           id="path69668" />
        <path
           style="fill:#000000;fill-opacity:0.69803922"
           d="m 11,14.5 0,-0.5 0.5,0 0.5,0 0,0.5 0,0.5 -0.5,0 -0.5,0 0,-0.5"
           id="path69670" />
        <path
           style="fill:#000000;fill-opacity:0.77647059"
           d="m 12,14.5 0,-0.5 0.5,0 0.5,0 0,0.5 0,0.5 -0.5,0 -0.5,0 0,-0.5"
           id="path69672" />
        <path
           style="fill:#000000;fill-opacity:0.79215686"
           d="m 13,14.5 0,-0.5 0.5,0 0.5,0 0,0.5 0,0.5 -0.5,0 -0.5,0 0,-0.5"
           id="path69674" />
        <path
           style="fill:#000000;fill-opacity:0.77647059"
           d="M 14,14.5 14,14 14.375,13.875 14.75,13.75 14.46875,13.84375 14.1875,13.9375 14.375,13.875 q 0.1875,-0.0625 0.3125,-0.1875 l 0.125,-0.125 L 14.75,13.625 14.6875,13.6875 15,14 l 0.3125,0.3125 0.0625,-0.0625 0.0625,-0.0625 -0.125,0.125 q -0.125,0.125 -0.1875,0.3125 L 15.0625,14.8125 15.15625,14.53125 15.25,14.25 15.125,14.625 15,15 14.5,15 14,15 14,14.5"
           id="path69676" />
        <path
           style="fill:#000000;fill-opacity:0.69411765"
           d="m 15.125,14.625 q 0.125,-0.375 0.5,-0.5 L 16,14 l 0,0.5 0,0.5 -0.5,0 -0.5,0 0.125,-0.375"
           id="path69678" />
        <path
           style="fill:#000000;fill-opacity:0.50196078"
           d="m 16,14.5 0,-0.5 0.5,0 0.5,0 0,0.5 0,0.5 -0.5,0 -0.5,0 0,-0.5"
           id="path69680" />
        <path
           style="fill:#000000;fill-opacity:0.21960784"
           d="m 17,14.5 0,-0.5 0.5,0 0.5,0 0,0.5 0,0.5 -0.5,0 -0.5,0 0,-0.5"
           id="path69682" />
        <path
           style="fill:#000000;fill-opacity:0.03137255"
           d="m 18,14.5 0,-0.5 0.5,0 0.5,0 0,0.5 Q 19,15 18.5,15 l -0.5,0 0,-0.5"
           id="path69684" />
        <path
           style="fill:#ffffd5;fill-opacity:0.02352941"
           d="M 2.125,15.625 Q 2.25,15.25 2.5,15 L 2.75,14.75 3.03125,15.03125 3.3125,15.3125 3.375,15.25 3.4375,15.1875 3.3125,15.3125 Q 3.1875,15.4375 3.125,15.625 L 3.0625,15.8125 3.15625,15.53125 3.25,15.25 3.125,15.625 3,16 2.5,16 2,16 2.125,15.625 M 2.8125,14.6875 2.75,14.75 2.5625,14.9375 2.375,15.125 2.5,15 q 0.125,-0.125 0.25,-0.25 l 0.125,-0.125 -0.0625,0.0625"
           id="path69686" />
        <path
           style="fill:#eaeac1;fill-opacity:0.98823529"
           d="m 3.125,15.625 q 0.125,-0.375 0.5,-0.5 L 4,15 4,15.5 4,16 3.5,16 3,16 3.125,15.625"
           id="path69688" />
        <path
           style="fill:#eeeec2;fill-opacity:1"
           d="M 4,15.5 4,15 4.5,15 5,15 4.875,15.375 q -0.125,0.375 -0.5,0.5 L 4,16 4,15.5"
           id="path69690" />
        <path
           style="fill:#c9cba3;fill-opacity:1"
           d="M 4.875,15.375 5,15 5.375,14.875 5.75,14.75 5.46875,14.84375 5.1875,14.9375 5.375,14.875 Q 5.5625,14.8125 5.6875,14.6875 L 5.8125,14.5625 5.75,14.625 5.6875,14.6875 5.96875,14.96875 6.25,15.25 6,15.5 Q 5.75,15.75 5.5,16 L 5.25,16.25 4.96875,15.96875 4.6875,15.6875 4.625,15.75 4.5625,15.8125 4.6875,15.6875 Q 4.8125,15.5625 4.875,15.375 L 4.9375,15.1875 4.84375,15.46875 4.75,15.75 4.875,15.375 M 5.1875,16.3125 5.25,16.25 5.4375,16.0625 5.625,15.875 5.5,16 Q 5.375,16.125 5.25,16.25 L 5.125,16.375 5.1875,16.3125 M 6.0625,15.4375 6.25,15.25 6.3125,15.1875 6.375,15.125 6.25,15.25 Q 6.125,15.375 6,15.5 l -0.125,0.125 0.1875,-0.1875"
           id="path69692" />
        <path
           style="fill:#6a6e5f;fill-opacity:1"
           d="M 6,15.5 Q 6.25,15.25 6.5,15 L 6.75,14.75 7,15 7.25,15.25 7,15.5 Q 6.75,15.75 6.5,16 L 6.25,16.25 6,16 5.75,15.75 6,15.5 M 5.9375,15.5625 5.75,15.75 5.6875,15.8125 5.625,15.875 5.75,15.75 Q 5.875,15.625 6,15.5 l 0.125,-0.125 -0.1875,0.1875 m 0.25,0.75 L 6.25,16.25 6.4375,16.0625 6.625,15.875 6.5,16 Q 6.375,16.125 6.25,16.25 L 6.125,16.375 6.1875,16.3125 M 7.0625,15.4375 7.25,15.25 7.3125,15.1875 7.375,15.125 7.25,15.25 Q 7.125,15.375 7,15.5 l -0.125,0.125 0.1875,-0.1875 m -0.25,-0.75 L 6.75,14.75 6.5625,14.9375 6.375,15.125 6.5,15 q 0.125,-0.125 0.25,-0.25 l 0.125,-0.125 -0.0625,0.0625"
           id="path69694" />
        <path
           style="fill:#121312;fill-opacity:0.91372549"
           d="M 7,15.5 Q 7.25,15.25 7.5,15 L 7.75,14.75 8.03125,15.03125 8.3125,15.3125 8.375,15.25 8.4375,15.1875 8.3125,15.3125 Q 8.1875,15.4375 8.125,15.625 L 8.0625,15.8125 8.15625,15.53125 8.25,15.25 8.125,15.625 8,16 7.625,16.125 7.25,16.25 7.53125,16.15625 7.8125,16.0625 7.625,16.125 Q 7.4375,16.1875 7.28125,16.28125 L 7.125,16.375 7.203125,16.328125 7.28125,16.28125 7.015625,16.015625 6.75,15.75 7,15.5 M 6.9375,15.5625 6.75,15.75 6.6875,15.8125 6.625,15.875 6.75,15.75 Q 6.875,15.625 7,15.5 L 7.125,15.375 6.9375,15.5625 M 7.8125,14.6875 7.75,14.75 7.5625,14.9375 7.375,15.125 7.5,15 q 0.125,-0.125 0.25,-0.25 l 0.125,-0.125 -0.0625,0.0625"
           id="path69696" />
        <path
           style="fill:#000000;fill-opacity:0.74901961"
           d="m 8.125,15.625 q 0.125,-0.375 0.5,-0.5 L 9,15 9,15.5 9,16 8.5,16 8,16 8.125,15.625"
           id="path69698" />
        <path
           style="fill:#000000;fill-opacity:0.43921569"
           d="M 9,15.5 9,15 9.5,15 10,15 10,15.5 10,16 9.5,16 9,16 9,15.5"
           id="path69700" />
        <path
           style="fill:#000000;fill-opacity:0.22745098"
           d="m 10,15.5 0,-0.5 0.5,0 0.5,0 0,0.5 0,0.5 -0.5,0 -0.5,0 0,-0.5"
           id="path69702" />
        <path
           style="fill:#000000;fill-opacity:0.24705882"
           d="m 11,15.5 0,-0.5 0.5,0 0.5,0 0,0.5 0,0.5 -0.5,0 -0.5,0 0,-0.5"
           id="path69704" />
        <path
           style="fill:#000000;fill-opacity:0.30980392"
           d="m 12,15.5 0,-0.5 0.5,0 0.5,0 0,0.5 0,0.5 -0.5,0 -0.5,0 0,-0.5"
           id="path69706" />
        <path
           style="fill:#000000;fill-opacity:0.32941176"
           d="m 13,15.5 0,-0.5 0.5,0 0.5,0 0,0.5 0,0.5 -0.5,0 -0.5,0 0,-0.5"
           id="path69708" />
        <path
           style="fill:#000000;fill-opacity:0.30980392"
           d="m 14,15.5 0,-0.5 0.5,0 0.5,0 0,0.5 0,0.5 -0.5,0 -0.5,0 0,-0.5"
           id="path69710" />
        <path
           style="fill:#000000;fill-opacity:0.24313725"
           d="m 15,15.5 0,-0.5 0.5,0 0.5,0 0,0.5 0,0.5 -0.5,0 -0.5,0 0,-0.5"
           id="path69712" />
        <path
           style="fill:#000000;fill-opacity:0.1372549"
           d="m 16,15.5 0,-0.5 0.5,0 0.5,0 0,0.5 0,0.5 -0.5,0 -0.5,0 0,-0.5"
           id="path69714" />
        <path
           style="fill:#000000;fill-opacity:0.03137255"
           d="m 17,15.5 0,-0.5 0.5,0 0.5,0 0,0.5 Q 18,16 17.5,16 l -0.5,0 0,-0.5"
           id="path69716" />
        <path
           style="fill:#e6e6bc;fill-opacity:0.54901961"
           d="M 2.125,16.375 2,16 2.5,16 3,16 2.96875,16.53125 2.9375,17.0625 3,17.125 3.0625,17.1875 2.9375,17.0625 Q 2.8125,16.9375 2.625,16.875 L 2.4375,16.8125 2.71875,16.90625 3,17 2.625,16.875 q -0.375,-0.125 -0.5,-0.5"
           id="path69718" />
        <path
           style="fill:#ececc0;fill-opacity:1"
           d="M 2.96875,16.53125 3,16 3.5,16 4,16 3.875,16.375 Q 3.75,16.75 3.34375,16.90625 L 2.9375,17.0625 2.96875,16.53125"
           id="path69720" />
        <path
           style="fill:#bcbf9a;fill-opacity:1"
           d="M 3.875,16.375 4,16 4.375,15.875 4.75,15.75 4.46875,15.84375 4.1875,15.9375 4.375,15.875 Q 4.5625,15.8125 4.6875,15.6875 L 4.8125,15.5625 4.75,15.625 4.6875,15.6875 4.96875,15.96875 5.25,16.25 5,16.5 Q 4.75,16.75 4.5,17 L 4.25,17.25 4.4375,17.0625 4.625,16.875 4.5,17 Q 4.375,17.125 4.28125,17.28125 L 4.1875,17.4375 4.234375,17.359375 4.28125,17.28125 3.984375,16.984375 3.6875,16.6875 3.625,16.75 3.5625,16.8125 3.6875,16.6875 Q 3.8125,16.5625 3.875,16.375 L 3.9375,16.1875 3.84375,16.46875 3.75,16.75 3.875,16.375 M 5.0625,16.4375 5.25,16.25 5.3125,16.1875 5.375,16.125 5.25,16.25 Q 5.125,16.375 5,16.5 l -0.125,0.125 0.1875,-0.1875"
           id="path69722" />
        <path
           style="fill:#6c7160;fill-opacity:1"
           d="M 5,16.5 Q 5.25,16.25 5.5,16 L 5.75,15.75 6,16 6.25,16.25 6,16.5 Q 5.75,16.75 5.5,17 L 5.25,17.25 5,17 4.75,16.75 5,16.5 M 4.9375,16.5625 4.75,16.75 4.6875,16.8125 4.625,16.875 4.75,16.75 Q 4.875,16.625 5,16.5 l 0.125,-0.125 -0.1875,0.1875 m 0.25,0.75 L 5.25,17.25 5.4375,17.0625 5.625,16.875 5.5,17 Q 5.375,17.125 5.25,17.25 L 5.125,17.375 5.1875,17.3125 M 6.0625,16.4375 6.25,16.25 6.3125,16.1875 6.375,16.125 6.25,16.25 Q 6.125,16.375 6,16.5 l -0.125,0.125 0.1875,-0.1875 m -0.25,-0.75 L 5.75,15.75 5.5625,15.9375 5.375,16.125 5.5,16 q 0.125,-0.125 0.25,-0.25 l 0.125,-0.125 -0.0625,0.0625"
           id="path69724" />
        <path
           style="fill:#353835;fill-opacity:0.98823529"
           d="M 6,16.5 Q 6.25,16.25 6.5,16 L 6.75,15.75 7.015625,16.015625 7.28125,16.28125 7.359375,16.234375 7.4375,16.1875 7.28125,16.28125 Q 7.125,16.375 7,16.5 L 6.875,16.625 7.0625,16.4375 7.25,16.25 7,16.5 Q 6.75,16.75 6.5,17 L 6.25,17.25 6,17 5.75,16.75 6,16.5 M 5.9375,16.5625 5.75,16.75 5.6875,16.8125 5.625,16.875 5.75,16.75 Q 5.875,16.625 6,16.5 l 0.125,-0.125 -0.1875,0.1875 m 0.25,0.75 L 6.25,17.25 6.4375,17.0625 6.625,16.875 6.5,17 Q 6.375,17.125 6.25,17.25 L 6.125,17.375 6.1875,17.3125 M 6.8125,15.6875 6.75,15.75 6.5625,15.9375 6.375,16.125 6.5,16 q 0.125,-0.125 0.25,-0.25 l 0.125,-0.125 -0.0625,0.0625"
           id="path69726" />
        <path
           style="fill:#000000;fill-opacity:0.82352941"
           d="M 7,16.5 Q 7.25,16.25 7.625,16.125 L 8,16 8,16.5 8,17 7.625,17.125 7.25,17.25 7.53125,17.15625 7.8125,17.0625 7.625,17.125 Q 7.4375,17.1875 7.3125,17.3125 L 7.1875,17.4375 7.25,17.375 7.3125,17.3125 7.03125,17.03125 6.75,16.75 7,16.5 M 6.9375,16.5625 6.75,16.75 6.6875,16.8125 6.625,16.875 6.75,16.75 Q 6.875,16.625 7,16.5 l 0.125,-0.125 -0.1875,0.1875"
           id="path69728" />
        <path
           style="fill:#000000;fill-opacity:0.49019608"
           d="M 8,16.5 8,16 8.5,16 9,16 9,16.5 9,17 8.5,17 8,17 8,16.5"
           id="path69730" />
        <path
           style="fill:#000000;fill-opacity:0.12941176"
           d="M 9,16.5 9,16 9.5,16 10,16 10,16.5 10,17 9.5,17 9,17 9,16.5"
           id="path69732" />
        <path
           style="fill:#000000;fill-opacity:0.00784314"
           d="m 10,16.5 0,-0.5 0.5,0 0.5,0 0,0.5 Q 11,17 10.5,17 l -0.5,0 0,-0.5"
           id="path69734" />
        <path
           style="fill:#000000;fill-opacity:0.05490196"
           d="M 1.875,17.625 Q 1.75,17.25 2.03125,16.96875 L 2.3125,16.6875 2.25,16.625 2.1875,16.5625 l 0.125,0.125 q 0.125,0.125 0.3125,0.1875 L 2.8125,16.9375 2.53125,16.84375 2.25,16.75 2.625,16.875 Q 3,17 3.125,17.375 L 3.25,17.75 3.15625,17.46875 3.0625,17.1875 3.125,17.375 q 0.0625,0.1875 0.1875,0.3125 l 0.125,0.125 L 3.375,17.75 3.3125,17.6875 3,18 2.6875,18.3125 2.75,18.375 2.8125,18.4375 2.6875,18.3125 Q 2.5625,18.1875 2.375,18.125 L 2.1875,18.0625 2.46875,18.15625 2.75,18.25 2.375,18.125 2,18 1.875,17.625"
           id="path69736" />
        <path
           style="fill:#a1a482;fill-opacity:0.96470588"
           d="M 3.125,17.375 3,17 3.09375,17.28125 3.1875,17.5625 3.125,17.375 Q 3.0625,17.1875 2.9375,17.0625 L 2.8125,16.9375 2.875,17 2.9375,17.0625 3.34375,16.90625 3.75,16.75 3.46875,16.84375 3.1875,16.9375 3.375,16.875 Q 3.5625,16.8125 3.6875,16.6875 L 3.8125,16.5625 3.75,16.625 3.6875,16.6875 3.984375,16.984375 4.28125,17.28125 4.328125,17.203125 4.375,17.125 4.28125,17.28125 Q 4.1875,17.4375 4.125,17.625 L 4.0625,17.8125 4.15625,17.53125 4.25,17.25 4.125,17.59375 4,17.9375 l 0.09375,0 0.09375,0 -0.1875,0 q -0.1875,0 -0.375,-0.0625 L 3.4375,17.8125 3.71875,17.90625 4,18 3.625,17.875 q -0.375,-0.125 -0.5,-0.5"
           id="path69738" />
        <path
           style="fill:#6a6f5f;fill-opacity:1"
           d="M 4.125,17.59375 Q 4.25,17.25 4.5,17 L 4.75,16.75 5,17 5.25,17.25 5,17.5 Q 4.75,17.75 4.375,17.875 L 4,18 4.28125,17.90625 4.5625,17.8125 4.375,17.875 Q 4.1875,17.9375 4,17.9375 l -0.1875,0 0.09375,0 0.09375,0 0.125,-0.34375 M 5.0625,17.4375 5.25,17.25 5.3125,17.1875 5.375,17.125 5.25,17.25 Q 5.125,17.375 5,17.5 l -0.125,0.125 0.1875,-0.1875 m -0.25,-0.75 L 4.75,16.75 4.5625,16.9375 4.375,17.125 4.5,17 q 0.125,-0.125 0.25,-0.25 l 0.125,-0.125 -0.0625,0.0625"
           id="path69740" />
        <path
           style="fill:#434744;fill-opacity:0.99607843"
           d="M 5,17.5 Q 5.25,17.25 5.5,17 L 5.75,16.75 6,17 6.25,17.25 6,17.5 Q 5.75,17.75 5.5,18 L 5.25,18.25 5.4375,18.0625 5.625,17.875 5.5,18 Q 5.375,18.125 5.28125,18.28125 L 5.1875,18.4375 5.234375,18.359375 5.28125,18.28125 5,18 4.71875,17.71875 4.640625,17.765625 4.5625,17.8125 4.71875,17.71875 Q 4.875,17.625 5,17.5 L 5.125,17.375 4.9375,17.5625 4.75,17.75 5,17.5 M 6.0625,17.4375 6.25,17.25 6.3125,17.1875 6.375,17.125 6.25,17.25 Q 6.125,17.375 6,17.5 l -0.125,0.125 0.1875,-0.1875 m -0.25,-0.75 L 5.75,16.75 5.5625,16.9375 5.375,17.125 5.5,17 q 0.125,-0.125 0.25,-0.25 l 0.125,-0.125 -0.0625,0.0625"
           id="path69742" />
        <path
           style="fill:#000000;fill-opacity:0.87843137"
           d="M 6,17.5 Q 6.25,17.25 6.5,17 L 6.75,16.75 7.03125,17.03125 7.3125,17.3125 7.375,17.25 7.4375,17.1875 7.3125,17.3125 Q 7.1875,17.4375 7.125,17.625 L 7.0625,17.8125 7.15625,17.53125 7.25,17.25 7.125,17.625 7,18 6.625,18.125 6.25,18.25 6.53125,18.15625 6.8125,18.0625 6.625,18.125 Q 6.4375,18.1875 6.3125,18.3125 L 6.1875,18.4375 6.25,18.375 6.3125,18.3125 6.03125,18.03125 5.75,17.75 6,17.5 M 5.9375,17.5625 5.75,17.75 5.6875,17.8125 5.625,17.875 5.75,17.75 Q 5.875,17.625 6,17.5 L 6.125,17.375 5.9375,17.5625 M 6.8125,16.6875 6.75,16.75 6.5625,16.9375 6.375,17.125 6.5,17 q 0.125,-0.125 0.25,-0.25 l 0.125,-0.125 -0.0625,0.0625"
           id="path69744" />
        <path
           style="fill:#000000;fill-opacity:0.63921569"
           d="m 7.125,17.625 q 0.125,-0.375 0.5,-0.5 L 8,17 8,17.5 8,18 7.5,18 7,18 7.125,17.625"
           id="path69746" />
        <path
           style="fill:#000000;fill-opacity:0.22745098"
           d="M 8,17.5 8,17 8.5,17 9,17 9,17.5 9,18 8.5,18 8,18 8,17.5"
           id="path69748" />
        <path
           style="fill:#000000;fill-opacity:0.01568627"
           d="m 9,17.5 0,-0.5 0.5,0 0.5,0 0,0.5 Q 10,18 9.5,18 L 9,18 9,17.5"
           id="path69750" />
        <path
           style="fill:#000000;fill-opacity:0.03137255"
           d="M 2,18.5 2,18 2.375,18.125 q 0.375,0.125 0.5,0.5 L 3,19 2.5,19 Q 2,19 2,18.5"
           id="path69752" />
        <path
           style="fill:#000000;fill-opacity:0.27058824"
           d="M 2.875,18.625 2.75,18.25 2.84375,18.53125 2.9375,18.8125 2.875,18.625 Q 2.8125,18.4375 2.6875,18.3125 L 2.5625,18.1875 2.625,18.25 2.6875,18.3125 3,18 3.3125,17.6875 3.25,17.625 3.1875,17.5625 l 0.125,0.125 q 0.125,0.125 0.3125,0.1875 L 3.8125,17.9375 3.53125,17.84375 3.25,17.75 3.625,17.875 4,18 4,18.5 4,19 3.5,19 3,19 2.875,18.625"
           id="path69754" />
        <path
           style="fill:#2d2d2b;fill-opacity:0.83137255"
           d="M 4,18.5 4,18 4.375,17.875 4.75,17.75 4.46875,17.84375 4.1875,17.9375 4.375,17.875 Q 4.5625,17.8125 4.71875,17.71875 L 4.875,17.625 4.796875,17.671875 4.71875,17.71875 5,18 5.28125,18.28125 5.328125,18.203125 5.375,18.125 5.28125,18.28125 Q 5.1875,18.4375 5.125,18.625 L 5.0625,18.8125 5.15625,18.53125 5.25,18.25 5.125,18.625 5,19 4.5,19 4,19 4,18.5"
           id="path69756" />
        <path
           style="fill:#000000;fill-opacity:0.79607843"
           d="M 5.125,18.625 Q 5.25,18.25 5.5,18 L 5.75,17.75 6.03125,18.03125 6.3125,18.3125 6.375,18.25 6.4375,18.1875 6.3125,18.3125 Q 6.1875,18.4375 6.125,18.625 L 6.0625,18.8125 6.15625,18.53125 6.25,18.25 6.125,18.625 6,19 5.5,19 5,19 5.125,18.625 M 5.8125,17.6875 5.75,17.75 5.5625,17.9375 5.375,18.125 5.5,18 q 0.125,-0.125 0.25,-0.25 l 0.125,-0.125 -0.0625,0.0625"
           id="path69758" />
        <path
           style="fill:#000000;fill-opacity:0.67058824"
           d="m 6.125,18.625 q 0.125,-0.375 0.5,-0.5 L 7,18 7,18.5 7,19 6.5,19 6,19 6.125,18.625"
           id="path69760" />
        <path
           style="fill:#000000;fill-opacity:0.32941176"
           d="M 7,18.5 7,18 7.5,18 8,18 8,18.5 8,19 7.5,19 7,19 7,18.5"
           id="path69762" />
        <path
           style="fill:#000000;fill-opacity:0.05490196"
           d="M 8,18.5 8,18 8.5,18 9,18 9,18.5 Q 9,19 8.5,19 L 8,19 8,18.5"
           id="path69764" />
        <path
           style="fill:#000000;fill-opacity:0.07058824"
           d="M 3,19.5 3,19 3.5,19 4,19 4,19.5 4,20 3.5,20 Q 3,20 3,19.5"
           id="path69766" />
        <path
           style="fill:#000000;fill-opacity:0.27058824"
           d="M 4,19.5 4,19 4.5,19 5,19 5,19.5 5,20 4.5,20 4,20 4,19.5"
           id="path69768" />
        <path
           style="fill:#000000;fill-opacity:0.40392157"
           d="M 5,19.5 5,19 5.5,19 6,19 6,19.5 6,20 5.5,20 5,20 5,19.5"
           id="path69770" />
        <path
           style="fill:#000000;fill-opacity:0.28235294"
           d="M 6,19.5 6,19 6.5,19 7,19 7,19.5 7,20 6.5,20 6,20 6,19.5"
           id="path69772" />
        <path
           style="fill:#000000;fill-opacity:0.07843137"
           d="M 7,19.5 7,19 7.5,19 8,19 8,19.5 Q 8,20 7.5,20 L 7,20 7,19.5"
           id="path69774" />
        <path
           style="fill:#000000;fill-opacity:0.03137255"
           d="M 4,20.5 4,20 4.5,20 5,20 5,20.5 5,21 4.5,21 Q 4,21 4,20.5"
           id="path69776" />
        <path
           style="fill:#000000;fill-opacity:0.05490196"
           d="M 5,20.5 5,20 5.5,20 6,20 6,20.5 6,21 5.5,21 5,21 5,20.5"
           id="path69778" />
        <path
           style="fill:#000000;fill-opacity:0.03137255"
           d="M 6,20.5 6,20 6.5,20 7,20 7,20.5 Q 7,21 6.5,21 L 6,21 6,20.5"
           id="path69780" />
      </g>
    </g>
  </g>
</svg>
