<?xml version="1.0" encoding="UTF-8" standalone="no"?>
<!-- Created with Inkscape (http://www.inkscape.org/) -->

<svg
   xmlns:dc="http://purl.org/dc/elements/1.1/"
   xmlns:cc="http://creativecommons.org/ns#"
   xmlns:rdf="http://www.w3.org/1999/02/22-rdf-syntax-ns#"
   xmlns:svg="http://www.w3.org/2000/svg"
   xmlns="http://www.w3.org/2000/svg"
   xmlns:sodipodi="http://sodipodi.sourceforge.net/DTD/sodipodi-0.dtd"
   xmlns:inkscape="http://www.inkscape.org/namespaces/inkscape"
   width="20"
   height="20"
   viewBox="0 0 20 20"
   id="svg3347"
   version="1.1"
   inkscape:version="0.91 r13725"
   sodipodi:docname="Civ5Icon.Wtf2.svg">
  <defs
     id="defs3349" />
  <sodipodi:namedview
     id="base"
     pagecolor="#ffffff"
     bordercolor="#666666"
     borderopacity="1.0"
     inkscape:pageopacity="0.0"
     inkscape:pageshadow="2"
     inkscape:zoom="11.2"
     inkscape:cx="10.747777"
     inkscape:cy="7.7388322"
     inkscape:document-units="px"
     inkscape:current-layer="g27203"
     showgrid="false"
     units="px"
     inkscape:window-width="1477"
     inkscape:window-height="962"
     inkscape:window-x="533"
     inkscape:window-y="95"
     inkscape:window-maximized="0" />
  <metadata
     id="metadata3352">
    <rdf:RDF>
      <cc:Work
         rdf:about="">
        <dc:format>image/svg+xml</dc:format>
        <dc:type
           rdf:resource="http://purl.org/dc/dcmitype/StillImage" />
        <dc:title></dc:title>
      </cc:Work>
    </rdf:RDF>
  </metadata>
  <g
     inkscape:label="Layer 1"
     inkscape:groupmode="layer"
     id="layer1"
     transform="translate(0,-1032.3622)">
    <g
       transform="translate(-0.22321519 1031.8712)"
       id="g27203">
      <g
         transform="translate(-0.80356985 -0.35721442)"
         id="g70896">
        <path
           style="fill:#000000;fill-opacity:0"
           d="M 0,0.5 0,0 0.5,0 1,0 1.5,0 2,0 2.5,0 3,0 3.5,0 4,0 4.5,0 5,0 5.5,0 6,0 6.5,0 7,0 7.5,0 8,0 8.5,0 9,0 9.5,0 10,0 l 0.5,0 0.5,0 0.5,0 0.5,0 0.5,0 0.5,0 0.5,0 0.5,0 0.5,0 0.5,0 0.5,0 0.5,0 0.5,0 0.5,0 0.5,0 0.5,0 0.5,0 0.5,0 0.5,0 0.5,0 0.5,0 0.5,0 0.5,0 0.5,0 0,0.5 0,0.5 0,0.5 0,0.5 0,0.5 0,0.5 0,0.5 0,0.5 0,0.5 0,0.5 0,0.5 0,0.5 0,0.5 0,0.5 0,0.5 0,0.5 0,0.5 0,0.5 0,0.5 0,0.5 0,0.5 0,0.5 0,0.5 0,0.5 0,0.5 0,0.5 0,0.5 0,0.5 0,0.5 0,0.5 0,0.5 0,0.5 0,0.5 0,0.5 0,0.5 0,0.5 0,0.5 0,0.5 0,0.5 0,0.5 0,0.5 0,0.5 0,0.5 0,0.5 -0.5,0 L 21,22 20.5,22 20,22 19.5,22 19,22 18.5,22 18,22 17.5,22 17,22 16.5,22 16,22 15.5,22 15,22 14.5,22 14,22 13.5,22 13,22 12.5,22 12,22 11.5,22 11,22 10.5,22 10,22 9.5,22 9,22 8.5,22 8,22 7.5,22 7,22 6.5,22 6,22 5.5,22 5,22 4.5,22 4,22 3.5,22 3,22 2.5,22 2,22 1.5,22 1,22 0.5,22 0,22 0,21.5 0,21 0,20.5 0,20 0,19.5 0,19 0,18.5 0,18 0,17.5 0,17 0,16.5 0,16 0,15.5 0,15 0,14.5 0,14 0,13.5 0,13 0,12.5 0,12 0,11.5 0,11 0,10.5 0,10 0,9.5 0,9 0,8.5 0,8 0,7.5 0,7 0,6.5 0,6 0,5.5 0,5 0,4.5 0,4 0,3.5 0,3 0,2.5 0,2 0,1.5 0,1 0,0.5 M 17.5,17 Q 18,17 18,16.5 L 18,16 18,15.5 18,15 18,14.5 Q 18,14 17.5,14 L 17,14 16.875,13.625 q -0.125,-0.375 -0.5,-0.5 L 16,13 15.5,13 15,13 14.5,13 14,13 13.5,13 13,13 12.5,13 12,13 11.5,13 11,13 11,12.5 q 0,-0.5 0,-1 L 11,11 11,10.5 11,10 11,9.5 11,9 11,8.5 11,8 11,7.5 11,7 11,6.5 11,6 11,5.5 Q 11,5 10.5,5 L 10,5 9.875,4.625 Q 9.75,4.25 9.375,4.125 9,4 8.5,4 8,4 7.625,4.125 7.25,4.25 7.125,4.625 L 7,5 7,5.5 7,6 7,6.5 7,7 7,7.5 7,8 7,8.5 7,9 7,9.5 7,10 7,10.5 7,11 7,11.5 7,12 7,12.5 q 0,0.5 0,1 l 0,0.5 0,0.5 0,0.5 0.125,0.375 q 0.125,0.375 0.5,0.5 L 8,16 8,16.5 q 0,0.5 0.5,0.5 0.5,0 1,0 l 0.5,0 0.5,0 0.5,0 0.5,0 q 0.5,0 1,0 l 0.5,0 0.5,0 0.5,0 0.5,0 0.5,0 0.5,0 0.5,0 0.5,0 0.5,0 0.5,0"
           id="path70898" />
        <path
           style="fill:#686958;fill-opacity:0.74901961"
           d="M 7.125,4.625 Q 7.25,4.25 7.625,4.125 L 8,4 7.71875,4.09375 7.4375,4.1875 7.625,4.125 Q 7.8125,4.0625 8.03125,4.03125 L 8.25,4 8.140625,4.015625 8.03125,4.03125 8.015625,4.515625 8,5 7.5,5 7,5 7.125,4.625"
           id="path70900" />
        <path
           style="fill:#a9aa8b;fill-opacity:1"
           d="M 8.015625,4.515625 8.03125,4.03125 7.921875,4.046875 7.8125,4.0625 8.03125,4.03125 Q 8.25,4 8.5,4 L 8.75,4 8.375,4 8,4 8.5,4 9,4 8.625,4 8.25,4 8.5,4 Q 8.75,4 8.96875,4.03125 L 9.1875,4.0625 9.078125,4.046875 8.96875,4.03125 8.984375,4.515625 9,5 8.5,5 8,5 8.015625,4.515625"
           id="path70902" />
        <path
           style="fill:#555549;fill-opacity:0.81960784"
           d="M 8.984375,4.515625 8.96875,4.03125 8.859375,4.015625 8.75,4 8.96875,4.03125 Q 9.1875,4.0625 9.375,4.125 L 9.5625,4.1875 9.28125,4.09375 9,4 9.375,4.125 q 0.375,0.125 0.5,0.5 L 10,5 9.5,5 9,5 8.984375,4.515625"
           id="path70904" />
        <path
           style="fill:#70705c;fill-opacity:0.75294118"
           d="M 7,5.5 7,5 7.5,5 8,5 8,5.5 8,6 7.5,6 7,6 7,5.5"
           id="path70906" />
        <path
           style="fill:#d6d6ab;fill-opacity:1"
           d="M 8,5.5 8,5 8.5,5 9,5 9,5.5 9,6 8.5,6 8,6 8,5.5"
           id="path70908" />
        <path
           style="fill:#62624d;fill-opacity:0.91372549"
           d="M 9,5.5 9,5 9.5,5 10,5 10,5.5 10,6 9.5,6 9,6 9,5.5"
           id="path70910" />
        <path
           style="fill:#11110c;fill-opacity:0.40784314"
           d="M 10,5.5 10,5 10.5,5 Q 11,5 11,5.5 L 11,6 10.5,6 10,6 10,5.5"
           id="path70912" />
        <path
           style="fill:#767662;fill-opacity:0.76470588"
           d="M 7,6.5 7,6 7.5,6 8,6 8,6.5 8,7 7.5,7 7,7 7,6.5"
           id="path70914" />
        <path
           style="fill:#f0f0be;fill-opacity:1"
           d="M 8,6.5 8,6 8.5,6 9,6 9,6.5 9,7 8.5,7 8,7 8,6.5"
           id="path70916" />
        <path
           style="fill:#6b6b56;fill-opacity:0.92941176"
           d="M 9,6.5 9,6 9.5,6 10,6 10,6.5 10,7 9.5,7 9,7 9,6.5"
           id="path70918" />
        <path
           style="fill:#13130e;fill-opacity:0.41960784"
           d="M 10,6.5 10,6 10.5,6 11,6 11,6.5 11,7 10.5,7 10,7 10,6.5"
           id="path70920" />
        <path
           style="fill:#767660;fill-opacity:0.75686275"
           d="M 7,7.5 7,7 7.5,7 8,7 8,7.5 8,8 7.5,8 7,8 7,7.5"
           id="path70922" />
        <path
           style="fill:#eeeebd;fill-opacity:1"
           d="M 8,7.5 8,7 8.5,7 9,7 9,7.5 Q 9,8 9,8.5 L 9,9 9,9.5 q 0,0.5 0,1 L 9,11 9,11.5 9,12 8.5,12 8,12 8,11.5 8,11 8,10.5 8,10 8,9.5 8,9 8,8.5 8,8 8,7.5"
           id="path70924" />
        <path
           style="fill:#6c6c55;fill-opacity:0.9254902"
           d="M 9,7.5 9,7 9.5,7 10,7 10,7.5 10,8 10,8.5 10,9 9.5,9 9,9 9,8.5 Q 9,8 9,7.5"
           id="path70926" />
        <path
           style="fill:#131311;fill-opacity:0.41960784"
           d="M 10,7.5 10,7 10.5,7 11,7 11,7.5 11,8 10.5,8 10,8 10,7.5"
           id="path70928" />
        <path
           style="fill:#767662;fill-opacity:0.76470588"
           d="M 7,8.5 7,8 7.5,8 8,8 8,8.5 8,9 7.5,9 7,9 7,8.5"
           id="path70930" />
        <path
           style="fill:#13130e;fill-opacity:0.42352941"
           d="M 10,8.5 10,8 10.5,8 11,8 11,8.5 11,9 10.5,9 10,9 10,8.5"
           id="path70932" />
        <path
           style="fill:#787863;fill-opacity:0.76078431"
           d="M 7,9.5 7,9 7.5,9 8,9 8,9.5 8,10 7.5,10 7,10 7,9.5"
           id="path70934" />
        <path
           style="fill:#6d6d54;fill-opacity:0.92156863"
           d="M 9,9.5 9,9 9.5,9 10,9 10,9.5 10,10 10,10.5 10,11 9.5,11 9,11 9,10.5 Q 9,10 9,9.5"
           id="path70936" />
        <path
           style="fill:#13130e;fill-opacity:0.41960784"
           d="M 10,9.5 10,9 10.5,9 11,9 11,9.5 11,10 10.5,10 10,10 10,9.5"
           id="path70938" />
        <path
           style="fill:#767662;fill-opacity:0.76470588"
           d="M 7,10.5 7,10 7.5,10 8,10 8,10.5 8,11 7.5,11 7,11 7,10.5"
           id="path70940" />
        <path
           style="fill:#13130e;fill-opacity:0.42352941"
           d="m 10,10.5 0,-0.5 0.5,0 0.5,0 0,0.5 0,0.5 -0.5,0 -0.5,0 0,-0.5"
           id="path70942" />
        <path
           style="fill:#767660;fill-opacity:0.75686275"
           d="M 7,11.5 7,11 7.5,11 8,11 8,11.5 8,12 7.5,12 7,12 7,11.5"
           id="path70944" />
        <path
           style="fill:#6b6b54;fill-opacity:0.91764706"
           d="M 9,11.5 9,11 9.5,11 10,11 10,11.5 10,12 9.5,12 9,12 9,11.5"
           id="path70946" />
        <path
           style="fill:#13130e;fill-opacity:0.41568627"
           d="m 10,11.5 0,-0.5 0.5,0 0.5,0 0,0.5 q 0,0.5 0,1 l 0,0.5 -0.375,-0.125 q -0.375,-0.125 -0.5,-0.5 L 10,12 10,11.5"
           id="path70948" />
        <path
           style="fill:#7a7a60;fill-opacity:0.75686275"
           d="M 7,12.5 7,12 7.5,12 8,12 8,12.5 q 0,0.5 0,1 L 8,14 7.5,14 7,14 7,13.5 q 0,-0.5 0,-1"
           id="path70950" />
        <path
           style="fill:#f6f6c2;fill-opacity:1"
           d="M 8,12.5 8,12 8.5,12 9,12 9,12.5 9,13 9.125,13.375 9.25,13.75 9.15625,13.46875 9.0625,13.1875 9.125,13.375 q 0.0625,0.1875 0.1875,0.3125 l 0.125,0.125 L 9.375,13.75 9.3125,13.6875 9,14 8.6875,14.3125 8.75,14.375 8.8125,14.4375 8.6875,14.3125 Q 8.5625,14.1875 8.375,14.125 L 8.1875,14.0625 8.46875,14.15625 8.75,14.25 8.375,14.125 8,14 8,13.5 q 0,-0.5 0,-1"
           id="path70952" />
        <path
           style="fill:#6d6d59;fill-opacity:0.91372549"
           d="M 9,12.5 9,12 9.5,12 10,12 10.125,12.375 10.25,12.75 10.15625,12.46875 10.0625,12.1875 10.125,12.375 q 0.0625,0.1875 0.1875,0.3125 l 0.125,0.125 L 10.375,12.75 10.3125,12.6875 10,13 9.6875,13.3125 9.75,13.375 9.8125,13.4375 9.6875,13.3125 Q 9.5625,13.1875 9.375,13.125 L 9.1875,13.0625 9.46875,13.15625 9.75,13.25 9.375,13.125 9,13 9,12.5"
           id="path70954" />
        <path
           style="fill:#6f6f59;fill-opacity:0.91372549"
           d="M 9.125,13.375 9,13 9.375,13.125 q 0.375,0.125 0.5,0.5 L 10,14 9.625,13.875 q -0.375,-0.125 -0.5,-0.5"
           id="path70956" />
        <path
           style="fill:#6e6e59;fill-opacity:0.90196078"
           d="M 9.875,13.625 9.75,13.25 9.84375,13.53125 9.9375,13.8125 9.875,13.625 Q 9.8125,13.4375 9.6875,13.3125 L 9.5625,13.1875 9.625,13.25 9.6875,13.3125 10,13 10.3125,12.6875 10.25,12.625 l -0.0625,-0.0625 0.125,0.125 q 0.125,0.125 0.3125,0.1875 L 10.8125,12.9375 10.53125,12.84375 10.25,12.75 10.625,12.875 11,13 11,13.5 11,14 10.5,14 10,14 9.875,13.625"
           id="path70958" />
        <path
           style="fill:#777761;fill-opacity:0.83921569"
           d="m 11,13.5 0,-0.5 0.5,0 0.5,0 0,0.5 0,0.5 -0.5,0 -0.5,0 0,-0.5"
           id="path70960" />
        <path
           style="fill:#7a7a61;fill-opacity:0.83921569"
           d="m 12,13.5 0,-0.5 0.5,0 0.5,0 0,0.5 0,0.5 -0.5,0 -0.5,0 0,-0.5"
           id="path70962" />
        <path
           style="fill:#7a7a63;fill-opacity:0.83529412"
           d="m 13,13.5 0,-0.5 0.5,0 0.5,0 0,0.5 0,0.5 -0.5,0 -0.5,0 0,-0.5"
           id="path70964" />
        <path
           style="fill:#7c7c65;fill-opacity:0.81960784"
           d="m 14,13.5 0,-0.5 0.5,0 0.5,0 0,0.5 0,0.5 -0.5,0 -0.5,0 0,-0.5"
           id="path70966" />
        <path
           style="fill:#767660;fill-opacity:0.81960784"
           d="m 15,13.5 0,-0.5 0.5,0 0.5,0 0.125,0.375 0.125,0.375 -0.09375,-0.28125 -0.09375,-0.28125 0.0625,0.1875 q 0.0625,0.1875 0.1875,0.3125 l 0.125,0.125 L 16.375,13.75 16.3125,13.6875 16,14 l -0.3125,0.3125 0.0625,0.0625 0.0625,0.0625 -0.125,-0.125 Q 15.5625,14.1875 15.375,14.125 L 15.1875,14.0625 15.46875,14.15625 15.75,14.25 15.375,14.125 15,14 15,13.5"
           id="path70968" />
        <path
           style="fill:#555546;fill-opacity:0.81960784"
           d="M 16.125,13.375 16,13 l 0.375,0.125 q 0.375,0.125 0.5,0.5 L 17,14 16.90625,13.71875 16.8125,13.4375 16.875,13.625 q 0.0625,0.1875 0.09375,0.40625 L 17,14.25 16.984375,14.140625 16.96875,14.03125 16.609375,13.890625 Q 16.25,13.75 16.125,13.375"
           id="path70970" />
        <path
           style="fill:#7b7b65;fill-opacity:0.74509804"
           d="M 7,14.5 7,14 7.5,14 8,14 8.125,14.375 8.25,14.75 8.15625,14.46875 8.0625,14.1875 8.125,14.375 q 0.0625,0.1875 0.1875,0.3125 l 0.125,0.125 L 8.375,14.75 8.3125,14.6875 8,15 7.6875,15.3125 7.75,15.375 7.8125,15.4375 7.6875,15.3125 Q 7.5625,15.1875 7.375,15.125 L 7.1875,15.0625 7.46875,15.15625 7.75,15.25 7.375,15.125 7,15 7,14.5"
           id="path70972" />
        <path
           style="fill:#ffffcc;fill-opacity:1"
           d="M 8.125,14.375 8,14 8.375,14.125 q 0.375,0.125 0.5,0.5 L 9,15 8.625,14.875 q -0.375,-0.125 -0.5,-0.5"
           id="path70974" />
        <path
           style="fill:#eeeebd;fill-opacity:1"
           d="M 8.875,14.625 8.75,14.25 8.84375,14.53125 8.9375,14.8125 8.875,14.625 Q 8.8125,14.4375 8.6875,14.3125 L 8.5625,14.1875 8.625,14.25 8.6875,14.3125 9,14 9.3125,13.6875 9.25,13.625 9.1875,13.5625 l 0.125,0.125 q 0.125,0.125 0.3125,0.1875 L 9.8125,13.9375 9.53125,13.84375 9.25,13.75 9.625,13.875 10,14 l 0.5,0 0.5,0 0.5,0 0.5,0 0,0.5 0,0.5 -0.5,0 L 11,15 10.5,15 10,15 9.5,15 9,15 8.875,14.625"
           id="path70976" />
        <path
           style="fill:#f6f6c2;fill-opacity:1"
           d="m 12,14.5 0,-0.5 0.5,0 0.5,0 0.5,0 0.5,0 0,0.5 0,0.5 -0.5,0 -0.5,0 -0.5,0 -0.5,0 0,-0.5"
           id="path70978" />
        <path
           style="fill:#ffffcc;fill-opacity:1"
           d="m 14,14.5 0,-0.5 0.5,0 0.5,0 0,0.5 0,0.5 -0.5,0 -0.5,0 0,-0.5"
           id="path70980" />
        <path
           style="fill:#f4f4c0;fill-opacity:1"
           d="m 15,14.5 0,-0.5 0.375,0.125 q 0.375,0.125 0.5,0.5 L 16,15 15.5,15 15,15 15,14.5 M 15.625,15 16,15 16.125,15 16.25,15 16,15 q -0.25,0 -0.5,0 l -0.25,0 0.375,0"
           id="path70982" />
        <path
           style="fill:#a3a384;fill-opacity:1"
           d="M 15.875,14.625 15.75,14.25 15.84375,14.53125 15.9375,14.8125 15.875,14.625 q -0.0625,-0.1875 -0.1875,-0.3125 l -0.125,-0.125 0.0625,0.0625 0.0625,0.0625 L 16,14 16.3125,13.6875 16.25,13.625 l -0.0625,-0.0625 0.125,0.125 q 0.125,0.125 0.3125,0.1875 L 16.8125,13.9375 16.53125,13.84375 16.25,13.75 16.609375,13.890625 16.96875,14.03125 16.953125,13.921875 16.9375,13.8125 16.96875,14.03125 Q 17,14.25 17,14.5 l 0,0.25 0,-0.375 0,-0.375 0,0.5 0,0.5 0,-0.375 0,-0.375 0,0.25 q 0,0.25 -0.03125,0.46875 l -0.03125,0.21875 0.01563,-0.109375 0.01563,-0.109375 -0.484375,0.01563 L 16,15 15.875,14.625 m 0,0.375 0.125,0 0.375,0 0.375,0 -0.25,0 q -0.25,0 -0.5,0 l -0.25,0 0.125,0"
           id="path70984" />
        <path
           style="fill:#0f0f0c;fill-opacity:0.40392157"
           d="m 17,14.5 0,-0.5 0.5,0 q 0.5,0 0.5,0.5 l 0,0.5 -0.5,0 -0.5,0 0,-0.5"
           id="path70986" />
        <path
           style="fill:#7c7c63;fill-opacity:0.76078431"
           d="M 7.125,15.375 7,15 7.375,15.125 q 0.375,0.125 0.5,0.5 L 8,16 7.625,15.875 q -0.375,-0.125 -0.5,-0.5"
           id="path70988" />
        <path
           style="fill:#6e6e5a;fill-opacity:0.85098039"
           d="M 7.875,15.625 7.75,15.25 7.84375,15.53125 7.9375,15.8125 7.875,15.625 Q 7.8125,15.4375 7.6875,15.3125 L 7.5625,15.1875 7.625,15.25 7.6875,15.3125 8,15 8.3125,14.6875 8.25,14.625 8.1875,14.5625 l 0.125,0.125 q 0.125,0.125 0.3125,0.1875 L 8.8125,14.9375 8.53125,14.84375 8.25,14.75 8.625,14.875 9,15 9,15.5 9,16 8.5,16 8,16 7.875,15.625"
           id="path70990" />
        <path
           style="fill:#6b6b53;fill-opacity:0.8745098"
           d="M 9,15.5 9,15 9.5,15 10,15 10,15.5 10,16 9.5,16 9,16 9,15.5"
           id="path70992" />
        <path
           style="fill:#686852;fill-opacity:0.88235294"
           d="m 10,15.5 0,-0.5 0.5,0 0.5,0 0,0.5 0,0.5 -0.5,0 -0.5,0 0,-0.5"
           id="path70994" />
        <path
           style="fill:#686853;fill-opacity:0.89019608"
           d="m 11,15.5 0,-0.5 0.5,0 0.5,0 0,0.5 0,0.5 -0.5,0 -0.5,0 0,-0.5"
           id="path70996" />
        <path
           style="fill:#686856;fill-opacity:0.89019608"
           d="m 12,15.5 0,-0.5 0.5,0 0.5,0 0,0.5 0,0.5 -0.5,0 -0.5,0 0,-0.5"
           id="path70998" />
        <path
           style="fill:#6b6b56;fill-opacity:0.88235294"
           d="m 13,15.5 0,-0.5 0.5,0 0.5,0 0,0.5 0,0.5 -0.5,0 -0.5,0 0,-0.5"
           id="path71000" />
        <path
           style="fill:#6a6a54;fill-opacity:0.87058824"
           d="m 14,15.5 0,-0.5 0.5,0 0.5,0 0,0.5 0,0.5 -0.5,0 -0.5,0 0,-0.5"
           id="path71002" />
        <path
           style="fill:#636351;fill-opacity:0.8745098"
           d="m 15,15.5 0,-0.5 0.5,0 0.5,0 -0.125,0.375 q -0.125,0.375 -0.5,0.5 L 15,16 15,15.5"
           id="path71004" />
        <path
           style="fill:#4a4a3b;fill-opacity:0.8745098"
           d="M 15.875,15.375 16,15 16.484375,14.984375 16.96875,14.96875 16.984375,14.859375 17,14.75 16.96875,14.96875 Q 16.9375,15.1875 16.875,15.375 L 16.8125,15.5625 16.90625,15.28125 17,15 16.875,15.375 Q 16.75,15.75 16.5,16 L 16.25,16.25 16.4375,16.0625 16.625,15.875 16.5,16 q -0.125,0.125 -0.21875,0.28125 l -0.09375,0.15625 0.04687,-0.07813 0.04687,-0.07813 L 15.984375,15.984375 15.6875,15.6875 15.625,15.75 l -0.0625,0.0625 0.125,-0.125 q 0.125,-0.125 0.1875,-0.3125 L 15.9375,15.1875 15.84375,15.46875 15.75,15.75 15.875,15.375"
           id="path71006" />
        <path
           style="fill:#000000;fill-opacity:0.50588235"
           d="M 16.875,15.375 17,15 l 0.5,0 0.5,0 0,0.5 0,0.5 -0.375,0.125 -0.375,0.125 0.28125,-0.09375 0.28125,-0.09375 -0.1875,0.0625 q -0.1875,0.0625 -0.3125,0.1875 l -0.125,0.125 L 17.25,16.375 17.3125,16.3125 17.015625,16.015625 16.71875,15.71875 16.671875,15.796875 16.625,15.875 16.71875,15.71875 Q 16.8125,15.5625 16.875,15.375 L 16.9375,15.1875 16.84375,15.46875 16.75,15.75 16.875,15.375"
           id="path71008" />
        <path
           style="fill:#1d1d18;fill-opacity:0.38039216"
           d="m 8,16.5 0,-0.5 0.5,0 0.5,0 0.5,0 0.5,0 0,0.5 0,0.5 -0.5,0 Q 9,17 8.5,17 8,17 8,16.5"
           id="path71010" />
        <path
           style="fill:#20201b;fill-opacity:0.37647059"
           d="m 10,16.5 0,-0.5 0.5,0 0.5,0 0,0.5 0,0.5 -0.5,0 -0.5,0 0,-0.5"
           id="path71012" />
        <path
           style="fill:#1d1d18;fill-opacity:0.38039216"
           d="m 11,16.5 0,-0.5 0.5,0 0.5,0 0.5,0 0.5,0 0,0.5 0,0.5 -0.5,0 q -0.5,0 -1,0 l -0.5,0 0,-0.5"
           id="path71014" />
        <path
           style="fill:#1d1d17;fill-opacity:0.38431373"
           d="m 13,16.5 0,-0.5 0.5,0 0.5,0 0,0.5 0,0.5 -0.5,0 -0.5,0 0,-0.5"
           id="path71016" />
        <path
           style="fill:#1d1d18;fill-opacity:0.38039216"
           d="m 14,16.5 0,-0.5 0.5,0 0.5,0 0,0.5 0,0.5 -0.5,0 -0.5,0 0,-0.5"
           id="path71018" />
        <path
           style="fill:#20201b;fill-opacity:0.37254902"
           d="M 15,16.5 15,16 15.375,15.875 15.75,15.75 15.46875,15.84375 15.1875,15.9375 15.375,15.875 q 0.1875,-0.0625 0.3125,-0.1875 l 0.125,-0.125 -0.0625,0.0625 -0.0625,0.0625 0.296875,0.296875 0.296875,0.296875 0.04687,-0.07813 L 16.375,16.125 16.28125,16.28125 Q 16.1875,16.4375 16.125,16.625 L 16.0625,16.8125 16.15625,16.53125 16.25,16.25 16.125,16.625 16,17 15.5,17 15,17 15,16.5"
           id="path71020" />
        <path
           style="fill:#1e1e16;fill-opacity:0.36862745"
           d="M 16.125,16.625 Q 16.25,16.25 16.5,16 L 16.75,15.75 16.5625,15.9375 16.375,16.125 16.5,16 q 0.125,-0.125 0.21875,-0.28125 l 0.09375,-0.15625 -0.04687,0.07813 -0.04687,0.07813 0.296875,0.296875 0.296875,0.296875 0.0625,-0.0625 0.0625,-0.0625 -0.125,0.125 q -0.125,0.125 -0.1875,0.3125 L 17.0625,16.8125 17.15625,16.53125 17.25,16.25 17.125,16.625 17,17 16.5,17 16,17 16.125,16.625"
           id="path71022" />
        <path
           style="fill:#151512;fill-opacity:0.38039216"
           d="m 17.125,16.625 q 0.125,-0.375 0.5,-0.5 L 18,16 18,16.5 Q 18,17 17.5,17 l -0.5,0 0.125,-0.375"
           id="path71024" />
      </g>
    </g>
  </g>
</svg>
