<?xml version="1.0" encoding="UTF-8" standalone="no"?>
<!-- Created with Inkscape (http://www.inkscape.org/) -->

<svg
   xmlns:dc="http://purl.org/dc/elements/1.1/"
   xmlns:cc="http://creativecommons.org/ns#"
   xmlns:rdf="http://www.w3.org/1999/02/22-rdf-syntax-ns#"
   xmlns:svg="http://www.w3.org/2000/svg"
   xmlns="http://www.w3.org/2000/svg"
   xmlns:sodipodi="http://sodipodi.sourceforge.net/DTD/sodipodi-0.dtd"
   xmlns:inkscape="http://www.inkscape.org/namespaces/inkscape"
   width="20"
   height="20"
   viewBox="0 0 20 20"
   id="svg3347"
   version="1.1"
   inkscape:version="0.91 r13725"
   sodipodi:docname="Civ5Icon.ResSalt.svg">
  <defs
     id="defs3349" />
  <sodipodi:namedview
     id="base"
     pagecolor="#ffffff"
     bordercolor="#666666"
     borderopacity="1.0"
     inkscape:pageopacity="0.0"
     inkscape:pageshadow="2"
     inkscape:zoom="11.2"
     inkscape:cx="7.324946"
     inkscape:cy="8.5424036"
     inkscape:document-units="px"
     inkscape:current-layer="g27203"
     showgrid="false"
     units="px"
     inkscape:window-width="1477"
     inkscape:window-height="962"
     inkscape:window-x="533"
     inkscape:window-y="95"
     inkscape:window-maximized="0" />
  <metadata
     id="metadata3352">
    <rdf:RDF>
      <cc:Work
         rdf:about="">
        <dc:format>image/svg+xml</dc:format>
        <dc:type
           rdf:resource="http://purl.org/dc/dcmitype/StillImage" />
        <dc:title></dc:title>
      </cc:Work>
    </rdf:RDF>
  </metadata>
  <g
     inkscape:label="Layer 1"
     inkscape:groupmode="layer"
     id="layer1"
     transform="translate(0,-1032.3622)">
    <g
       transform="translate(-0.22321519 1031.8712)"
       id="g27203">
      <g
         transform="translate(-0.80357045 -0.53578573)"
         id="g54005">
        <path
           style="fill:#000000;fill-opacity:0"
           d="M 0,0.5 0,0 0.5,0 1,0 1.5,0 2,0 2.5,0 3,0 3.5,0 4,0 4.5,0 5,0 5.5,0 6,0 6.5,0 7,0 7.5,0 8,0 8.5,0 9,0 9.5,0 10,0 l 0.5,0 0.5,0 0.5,0 0.5,0 0.5,0 0.5,0 0.5,0 0.5,0 0.5,0 0.5,0 0.5,0 0.5,0 0.5,0 0.5,0 0.5,0 0.5,0 0.5,0 0.5,0 0.5,0 0.5,0 0.5,0 0.5,0 0.5,0 0.5,0 0,0.5 0,0.5 0,0.5 0,0.5 0,0.5 0,0.5 0,0.5 0,0.5 0,0.5 0,0.5 0,0.5 0,0.5 0,0.5 0,0.5 0,0.5 0,0.5 0,0.5 0,0.5 0,0.5 0,0.5 0,0.5 0,0.5 0,0.5 0,0.5 0,0.5 0,0.5 0,0.5 0,0.5 0,0.5 0,0.5 0,0.5 0,0.5 0,0.5 0,0.5 0,0.5 0,0.5 0,0.5 0,0.5 0,0.5 0,0.5 0,0.5 0,0.5 0,0.5 0,0.5 -0.5,0 L 21,22 20.5,22 20,22 19.5,22 19,22 18.5,22 18,22 17.5,22 17,22 16.5,22 16,22 15.5,22 15,22 14.5,22 14,22 13.5,22 13,22 12.5,22 12,22 11.5,22 11,22 10.5,22 10,22 9.5,22 9,22 8.5,22 8,22 7.5,22 7,22 6.5,22 6,22 5.5,22 5,22 4.5,22 4,22 3.5,22 3,22 2.5,22 2,22 1.5,22 1,22 0.5,22 0,22 0,21.5 0,21 0,20.5 0,20 0,19.5 0,19 0,18.5 0,18 0,17.5 0,17 0,16.5 0,16 0,15.5 0,15 0,14.5 0,14 0,13.5 0,13 0,12.5 0,12 0,11.5 0,11 0,10.5 0,10 0,9.5 0,9 0,8.5 0,8 0,7.5 0,7 0,6.5 0,6 0,5.5 0,5 0,4.5 0,4 0,3.5 0,3 0,2.5 0,2 0,1.5 0,1 0,0.5 M 20.5,21 q 0.5,0 0.5,-0.5 0,-0.5 0,-1 0,-0.5 0,-1 0,-0.5 0,-1 0,-0.5 0,-1 0,-0.5 0,-1 0,-0.5 0,-1 0,-0.5 0,-1 0,-0.5 0,-1 0,-0.5 0,-1 0,-0.5 0,-1 0,-0.5 0,-1 Q 21,9 21,8.5 21,8 21,7.5 21,7 21,6.5 21,6 21,5.5 21,5 21,4.5 21,4 21,3.5 21,3 21,2.5 21,2 21,1.5 21,1 20.5,1 20,1 19.5,1 19,1 18.5,1 18,1 17.5,1 17,1 16.5,1 16,1 15.5,1 15,1 14.5,1 14,1 13.5,1 13,1 12.5,1 12,1 11.5,1 11,1 10.5,1 10,1 9.5,1 9,1 8.5,1 8,1 7.5,1 7,1 6.5,1 6,1 5.5,1 5,1 4.5,1 4,1 3.5,1 3,1 2.5,1 2,1 1.5,1 1,1 1,1.5 q 0,0.5 0,1 0,0.5 0,1 0,0.5 0,1 0,0.5 0,1 0,0.5 0,1 0,0.5 0,1 0,0.5 0,1 0,0.5 0,1 0,0.5 0,1 0,0.5 0,1 0,0.5 0,1 0,0.5 0,1 0,0.5 0,1 0,0.5 0,1 0,0.5 0,1 0,0.5 0,1 0,0.5 0,1 0,0.5 0,1 0,0.5 0,1 0,0.5 0.5,0.5 0.5,0 1,0 0.5,0 1,0 0.5,0 1,0 0.5,0 1,0 0.5,0 1,0 0.5,0 1,0 0.5,0 1,0 0.5,0 1,0 0.5,0 1,0 0.5,0 1,0 0.5,0 1,0 0.5,0 1,0 0.5,0 1,0 0.5,0 1,0 0.5,0 1,0 0.5,0 1,0 0.5,0 1,0 0.5,0 1,0 0.5,0 1,0"
           id="path54007" />
        <path
           style="fill:#000000;fill-opacity:1"
           d="M 1,1.5 Q 1,1 1.5,1 q 0.5,0 1,0 0.5,0 1,0 0.5,0 1,0 0.5,0 1,0 0.5,0 1,0 0.5,0 1,0 0.5,0 1,0 0.5,0 1,0 0.5,0 1,0 0.5,0 1,0 0.5,0 1,0 0.5,0 1,0 0.5,0 1,0 0.5,0 1,0 0.5,0 1,0 0.5,0 1,0 0.5,0 1,0 0.5,0 1,0 0.5,0 1,0 0.5,0 0.5,0.5 0,0.5 0,1 0,0.5 0,1 0,0.5 0,1 0,0.5 0,1 0,0.5 0,1 0,0.5 0,1 0,0.5 0,1 0,0.5 0,1 0,0.5 0,1 0,0.5 0,1 0,0.5 0,1 0,0.5 0,1 0,0.5 0,1 0,0.5 0,1 0,0.5 0,1 0,0.5 0,1 0,0.5 0,1 0,0.5 0,1 0,0.5 0,1 0,0.5 -0.5,0.5 -0.5,0 -1,0 -0.5,0 -1,0 -0.5,0 -1,0 -0.5,0 -1,0 -0.5,0 -1,0 -0.5,0 -1,0 -0.5,0 -1,0 -0.5,0 -1,0 -0.5,0 -1,0 -0.5,0 -1,0 -0.5,0 -1,0 Q 9,21 8.5,21 8,21 7.5,21 7,21 6.5,21 6,21 5.5,21 5,21 4.5,21 4,21 3.5,21 3,21 2.5,21 2,21 1.5,21 1,21 1,20.5 1,20 1,19.5 1,19 1,18.5 1,18 1,17.5 1,17 1,16.5 1,16 1,15.5 1,15 1,14.5 1,14 1,13.5 1,13 1,12.5 1,12 1,11.5 1,11 1,10.5 1,10 1,9.5 1,9 1,8.5 1,8 1,7.5 1,7 1,6.5 1,6 1,5.5 1,5 1,4.5 1,4 1,3.5 1,3 1,2.5 1,2 1,1.5 M 18.5,20 q 0.5,0 0.875,-0.125 0.375,-0.125 0.5,-0.5 L 20,19 20,18.5 q 0,-0.5 0,-1 L 20,17 19.875,16.625 19.75,16.25 19.84375,16.53125 19.9375,16.8125 19.875,16.625 q -0.0625,-0.1875 -0.1875,-0.3125 l -0.125,-0.125 0.0625,0.0625 0.0625,0.0625 0.28125,-0.28125 Q 20.25,15.75 20.25,15.5 q 0,-0.25 -0.265625,-0.546875 L 19.71875,14.65625 19.671875,14.703125 19.625,14.75 19.71875,14.65625 Q 19.8125,14.5625 19.875,14.375 L 19.9375,14.1875 19.84375,14.46875 19.75,14.75 19.875,14.375 Q 20,14 20,13.5 L 20,13 20,12.5 20,12 20,11.5 20,11 20,10.5 20,10 20,9.5 20,9 20,8.5 20,8 20,7.5 20,7 20,6.5 20,6 20,5.5 20,5 20,4.5 20,4 20,3.5 20,3 19.875,2.625 Q 19.75,2.25 19.375,2.125 L 19,2 18.5,2 18,2 17.625,2.125 17.25,2.25 17.53125,2.15625 17.8125,2.0625 17.625,2.125 Q 17.4375,2.1875 17.3125,2.3125 L 17.1875,2.4375 17.25,2.375 17.3125,2.3125 17.03125,2.03125 Q 16.75,1.75 16.375,1.875 L 16,2 15.5,2 15,2 14.5,2 14,2 13.5,2 13,2 12.5,2 12,2 11.5,2 11,2 10.5,2 10,2 9.5,2 9,2 8.5,2 8,2 7.5,2 7,2 6.5,2 6,2 5.5,2 5,2 4.625,1.875 Q 4.25,1.75 3.96875,2.03125 L 3.6875,2.3125 3.75,2.375 3.8125,2.4375 3.6875,2.3125 Q 3.5625,2.1875 3.375,2.125 L 3.1875,2.0625 3.46875,2.15625 3.75,2.25 3.375,2.125 3,2 2.625,2.125 Q 2.25,2.25 2.125,2.625 L 2,3 2,3.5 2,4 2,4.5 2,5 2,5.5 2,6 2,6.5 2,7 2,7.5 2,8 2,8.5 2,9 2,9.5 2,10 2,10.5 2,11 2,11.5 2,12 2,12.5 2,13 2,13.5 2,14 2,14.5 2,15 2,15.5 2,16 2,16.5 2,17 2,17.5 2,18 2,18.5 2,19 2.125,19.375 q 0.125,0.375 0.5,0.5 L 3,20 l 0.5,0 0.5,0 0.5,0 0.5,0 0.5,0 0.5,0 0.5,0 0.5,0 0.5,0 0.5,0 0.5,0 0.5,0 0.5,0 0.5,0 0.5,0 0.5,0 0.5,0 0.5,0 0.5,0 0.5,0 0.5,0 0.5,0 0.5,0 0.5,0 0.5,0 0.5,0 0.5,0 0.5,0 0.5,0 q 0.5,0 1,0"
           id="path54009" />
        <path
           style="fill:#4e4942;fill-opacity:1"
           d="M 2.125,2.625 Q 2.25,2.25 2.625,2.125 L 3,2 3,2.5 3,3 2.5,3 2,3 2.125,2.625"
           id="path54011" />
        <path
           style="fill:#3f3a37;fill-opacity:1"
           d="M 3,2.5 3,2 3.375,2.125 q 0.375,0.125 0.5,0.5 L 4,3 3.5,3 3,3 3,2.5"
           id="path54013" />
        <path
           style="fill:#302d2d;fill-opacity:1"
           d="M 3.875,2.625 3.75,2.25 3.84375,2.53125 3.9375,2.8125 3.875,2.625 Q 3.8125,2.4375 3.6875,2.3125 L 3.5625,2.1875 3.625,2.25 3.6875,2.3125 3.96875,2.03125 Q 4.25,1.75 4.625,1.875 L 5,2 5,2.5 5,3 4.5,3 4,3 3.875,2.625"
           id="path54015" />
        <path
           style="fill:#252324;fill-opacity:1"
           d="M 5,2.5 5,2 5.5,2 6,2 6,2.5 6,3 5.5,3 5,3 5,2.5"
           id="path54017" />
        <path
           style="fill:#1b1a1c;fill-opacity:1"
           d="M 6,2.5 6,2 6.5,2 7,2 7,2.5 7,3 6.5,3 6,3 6,2.5"
           id="path54019" />
        <path
           style="fill:#100f14;fill-opacity:1"
           d="M 7,2.5 7,2 7.5,2 8,2 8,2.5 8,3 7.5,3 7,3 7,2.5"
           id="path54021" />
        <path
           style="fill:#08070a;fill-opacity:1"
           d="M 8,2.5 8,2 8.5,2 9,2 8.875,2.375 Q 8.75,2.75 8.375,2.875 L 8,3 8,2.5"
           id="path54023" />
        <path
           style="fill:#030303;fill-opacity:1"
           d="M 8.875,2.375 9,2 9.5,2 10,2 10.015625,2.515625 10.03125,3.03125 10.140625,3.015625 10.25,3 10.03125,3.03125 Q 9.8125,3.0625 9.625,3.125 L 9.4375,3.1875 9.71875,3.09375 10,3 9.625,3.125 9.25,3.25 9.53125,3.15625 9.8125,3.0625 9.625,3.125 Q 9.4375,3.1875 9.3125,3.3125 L 9.1875,3.4375 9.25,3.375 9.3125,3.3125 9,3 8.6875,2.6875 8.625,2.75 8.5625,2.8125 8.6875,2.6875 Q 8.8125,2.5625 8.875,2.375 L 8.9375,2.1875 8.84375,2.46875 8.75,2.75 8.875,2.375"
           id="path54025" />
        <path
           style="fill:#020201;fill-opacity:1"
           d="M 10.015625,2.515625 10,2 10.5,2 11,2 11,2.5 11,3 10.5,3 10,3 10.375,3 10.75,3 10.5,3 Q 10.25,3 10.03125,3.03125 L 9.8125,3.0625 9.921875,3.046875 10.03125,3.03125 10.015625,2.515625"
           id="path54027" />
        <path
           style="fill:#020303;fill-opacity:1"
           d="M 11,2.5 11,2 11.5,2 12,2 12,2.5 12,3 11.5,3 11,3 11,2.5"
           id="path54029" />
        <path
           style="fill:#030405;fill-opacity:1"
           d="M 12,2.5 12,2 12.5,2 13,2 13,2.5 13,3 12.5,3 12,3 12,2.5"
           id="path54031" />
        <path
           style="fill:#05080a;fill-opacity:1"
           d="M 13,2.5 13,2 13.5,2 14,2 14.125,2.375 14.25,2.75 14.15625,2.46875 14.0625,2.1875 14.125,2.375 q 0.0625,0.1875 0.1875,0.3125 l 0.125,0.125 L 14.375,2.75 14.3125,2.6875 14,3 13.6875,3.3125 13.75,3.375 13.8125,3.4375 13.6875,3.3125 Q 13.5625,3.1875 13.375,3.125 L 13.1875,3.0625 13.46875,3.15625 13.75,3.25 13.375,3.125 13,3 13,2.5"
           id="path54033" />
        <path
           style="fill:#0e1118;fill-opacity:1"
           d="M 14.125,2.375 14,2 14.5,2 15,2 15,2.5 15,3 14.625,2.875 q -0.375,-0.125 -0.5,-0.5"
           id="path54035" />
        <path
           style="fill:#151b24;fill-opacity:1"
           d="M 15,2.5 15,2 15.5,2 16,2 16,2.5 16,3 15.5,3 15,3 15,2.5"
           id="path54037" />
        <path
           style="fill:#1c2530;fill-opacity:1"
           d="M 16,2.5 16,2 16.375,1.875 Q 16.75,1.75 17.03125,2.03125 L 17.3125,2.3125 17.375,2.25 17.4375,2.1875 17.3125,2.3125 Q 17.1875,2.4375 17.125,2.625 L 17.0625,2.8125 17.15625,2.53125 17.25,2.25 17.125,2.625 17,3 16.5,3 16,3 16,2.5"
           id="path54039" />
        <path
           style="fill:#232f3b;fill-opacity:1"
           d="m 17.125,2.625 q 0.125,-0.375 0.5,-0.5 L 18,2 18,2.5 18,3 17.5,3 17,3 17.125,2.625"
           id="path54041" />
        <path
           style="fill:#2a3b49;fill-opacity:1"
           d="M 18,2.5 18,2 18.5,2 19,2 19,2.5 19,3 18.5,3 18,3 18,2.5"
           id="path54043" />
        <path
           style="fill:#334957;fill-opacity:1"
           d="M 19,2.5 19,2 19.375,2.125 q 0.375,0.125 0.5,0.5 L 20,3 19.5,3 19,3 19,2.5"
           id="path54045" />
        <path
           style="fill:#524c47;fill-opacity:1"
           d="M 2,3.5 2,3 2.5,3 3,3 3,3.5 3,4 2.5,4 2,4 2,3.5"
           id="path54047" />
        <path
           style="fill:#423e3d;fill-opacity:1"
           d="M 3,3.5 3,3 3.5,3 4,3 4,3.5 4,4 3.5,4 3,4 3,3.5"
           id="path54049" />
        <path
           style="fill:#363234;fill-opacity:1"
           d="M 4,3.5 4,3 4.5,3 5,3 5,3.5 5,4 4.5,4 4,4 4,3.5"
           id="path54051" />
        <path
           style="fill:#2a2729;fill-opacity:1"
           d="M 5,3.5 5,3 5.5,3 6,3 6,3.5 6,4 5.5,4 5,4 5,3.5"
           id="path54053" />
        <path
           style="fill:#1f1c22;fill-opacity:1"
           d="M 6,3.5 6,3 6.5,3 7,3 7,3.5 7,4 6.5,4 6,4 6,3.5"
           id="path54055" />
        <path
           style="fill:#111216;fill-opacity:1"
           d="M 7,3.5 7,3 7.5,3 8,3 8,3.5 8,4 7.5,4 7,4 7,3.5"
           id="path54057" />
        <path
           style="fill:#0c0c12;fill-opacity:1"
           d="M 8,3.5 8,3 8.375,2.875 8.75,2.75 8.46875,2.84375 8.1875,2.9375 8.375,2.875 Q 8.5625,2.8125 8.6875,2.6875 L 8.8125,2.5625 8.75,2.625 8.6875,2.6875 9,3 9.3125,3.3125 9.375,3.25 9.4375,3.1875 9.3125,3.3125 Q 9.1875,3.4375 9.125,3.625 L 9.0625,3.8125 9.15625,3.53125 9.25,3.25 9.1875,3.6875 9.125,4.125 8.5625,4.0625 8,4 8,3.5"
           id="path54059" />
        <path
           style="fill:#736e68;fill-opacity:1"
           d="M 9.1875,3.6875 Q 9.25,3.25 9.625,3.125 L 10,3 9.71875,3.09375 9.4375,3.1875 9.625,3.125 Q 9.8125,3.0625 10.03125,3.03125 L 10.25,3 10.140625,3.015625 10.03125,3.03125 10,3.5 9.96875,3.96875 10.078125,3.953125 10.1875,3.9375 9.96875,3.96875 Q 9.75,4 9.5,4 L 9.25,4 9.625,4 10,4 9.5,4 9,4 9.375,4 9.75,4 9.5,4 Q 9.25,4 9.125,4.125 L 9,4.25 9.0625,4.1875 9.125,4.125 9.1875,3.6875"
           id="path54061" />
        <path
           style="fill:#bab1aa;fill-opacity:1"
           d="M 10,3.5 10.03125,3.03125 9.921875,3.046875 9.8125,3.0625 10.03125,3.03125 Q 10.25,3 10.5,3 L 10.75,3 10.375,3 10,3 10.5,3 11,3 10.875,3.375 q -0.125,0.375 -0.5,0.5 L 10,4 10.28125,3.90625 10.5625,3.8125 10.375,3.875 Q 10.1875,3.9375 9.96875,3.96875 L 9.75,4 9.859375,3.984375 9.96875,3.96875 10,3.5"
           id="path54063" />
        <path
           style="fill:#d4cdcc;fill-opacity:1"
           d="M 10.875,3.375 11,3 11.5,3 12,3 12.125,3.375 12.25,3.75 12.15625,3.46875 12.0625,3.1875 12.125,3.375 q 0.0625,0.1875 0.1875,0.3125 l 0.125,0.125 L 12.375,3.75 12.3125,3.6875 12.015625,4.015625 11.71875,4.34375 11.765625,4.390625 11.8125,4.4375 11.71875,4.34375 Q 11.625,4.25 11.5,4.25 l -0.125,0 0.1875,0 0.1875,0 -0.25,0 -0.25,0 0.1875,0 0.1875,0 -0.125,0 q -0.125,0 -0.21875,0.09375 L 11.1875,4.4375 11.234375,4.390625 11.28125,4.34375 10.984375,4.015625 10.6875,3.6875 10.625,3.75 10.5625,3.8125 10.6875,3.6875 Q 10.8125,3.5625 10.875,3.375 L 10.9375,3.1875 10.84375,3.46875 10.75,3.75 10.875,3.375"
           id="path54065" />
        <path
           style="fill:#b8afab;fill-opacity:1"
           d="M 12.125,3.375 12,3 12.5,3 13,3 12.625,3 12.25,3 12.5,3 q 0.25,0 0.46875,0.03125 L 13.1875,3.0625 13.078125,3.046875 12.96875,3.03125 12.984375,3.515625 13,4 12.625,3.875 q -0.375,-0.125 -0.5,-0.5"
           id="path54067" />
        <path
           style="fill:#565c63;fill-opacity:1"
           d="M 12.984375,3.515625 12.96875,3.03125 12.859375,3.015625 12.75,3 12.96875,3.03125 Q 13.1875,3.0625 13.375,3.125 L 13.5625,3.1875 13.28125,3.09375 13,3 13.375,3.125 q 0.375,0.125 0.5,0.5 L 14,4 13.90625,3.71875 13.8125,3.4375 13.875,3.625 q 0.0625,0.1875 0.09375,0.40625 L 14,4.25 13.984375,4.140625 13.96875,4.03125 13.484375,4.015625 13,4 12.984375,3.515625 M 13,3.625 13,4 13,4.125 13,4.25 13,4 q 0,-0.25 0,-0.5 l 0,-0.25 0,0.375"
           id="path54069" />
        <path
           style="fill:#090f16;fill-opacity:1"
           d="M 13.875,3.625 13.75,3.25 13.84375,3.53125 13.9375,3.8125 13.875,3.625 Q 13.8125,3.4375 13.6875,3.3125 L 13.5625,3.1875 13.625,3.25 13.6875,3.3125 14,3 14.3125,2.6875 14.25,2.625 14.1875,2.5625 l 0.125,0.125 q 0.125,0.125 0.3125,0.1875 L 14.8125,2.9375 14.53125,2.84375 14.25,2.75 14.625,2.875 15,3 15,3.5 15,4 14.5,4 14,4 13.875,3.625"
           id="path54071" />
        <path
           style="fill:#13171e;fill-opacity:1"
           d="M 15,3.5 15,3 15.5,3 16,3 16,3.5 16,4 15.5,4 15,4 15,3.5"
           id="path54073" />
        <path
           style="fill:#1b2129;fill-opacity:1"
           d="M 16,3.5 16,3 16.5,3 17,3 17,3.5 17,4 16.5,4 16,4 16,3.5"
           id="path54075" />
        <path
           style="fill:#212b34;fill-opacity:1"
           d="M 17,3.5 17,3 17.5,3 18,3 18,3.5 18,4 17.5,4 17,4 17,3.5"
           id="path54077" />
        <path
           style="fill:#29353f;fill-opacity:1"
           d="M 18,3.5 18,3 18.5,3 19,3 19,3.5 19,4 18.5,4 18,4 18,3.5"
           id="path54079" />
        <path
           style="fill:#30414e;fill-opacity:1"
           d="M 19,3.5 19,3 19.5,3 20,3 20,3.5 20,4 19.5,4 19,4 19,3.5"
           id="path54081" />
        <path
           style="fill:#524d46;fill-opacity:1"
           d="M 2,4.5 2,4 2.5,4 3,4 3,4.5 3,5 2.5,5 2,5 2,4.5"
           id="path54083" />
        <path
           style="fill:#45403d;fill-opacity:1"
           d="M 3,4.5 3,4 3.5,4 4,4 4,4.5 4,5 3.5,5 3,5 3,4.5"
           id="path54085" />
        <path
           style="fill:#383434;fill-opacity:1"
           d="M 4,4.5 4,4 4.5,4 5,4 5,4.5 5,5 4.5,5 4,5 4,4.5"
           id="path54087" />
        <path
           style="fill:#2c292b;fill-opacity:1"
           d="M 5,4.5 5,4 5.5,4 6,4 6,4.5 6,5 5.5,5 5,5 5,4.5"
           id="path54089" />
        <path
           style="fill:#201c22;fill-opacity:1"
           d="M 6,4.5 6,4 6.5,4 7,4 7,4.5 7,5 6.5,5 6,5 6,4.5"
           id="path54091" />
        <path
           style="fill:#0f0e14;fill-opacity:1"
           d="M 7,4.5 7,4 7.5,4 8,4 8,4.5 8,5 7.5,5 7,5 7,4.5"
           id="path54093" />
        <path
           style="fill:#16161d;fill-opacity:1"
           d="M 8,4.5 8,4 8.5625,4.0625 9.125,4.125 9.1875,4.0625 9.25,4 9.125,4.125 Q 9,4.25 9,4.5 L 9,4.75 9,4.375 9,4 9,4.5 9,5 8.5,5 8,5 8,4.5"
           id="path54095" />
        <path
           style="fill:#e8e5dd;fill-opacity:1"
           d="M 9,4.5 Q 9,4 9.5,4 L 10,4 10,4.5 10,5 9.484375,4.984375 8.96875,4.96875 8.953125,5.078125 8.9375,5.1875 8.96875,4.96875 Q 9,4.75 9,4.5 L 9,4.25 9,4.625 9,5 9,4.5"
           id="path54097" />
        <path
           style="fill:#fefef4;fill-opacity:1"
           d="M 10,4.5 10,4 10.375,3.875 10.75,3.75 10.46875,3.84375 10.1875,3.9375 10.375,3.875 Q 10.5625,3.8125 10.6875,3.6875 L 10.8125,3.5625 10.75,3.625 10.6875,3.6875 10.984375,4.015625 11.28125,4.34375 11.328125,4.296875 11.375,4.25 11.28125,4.34375 Q 11.1875,4.4375 11.125,4.625 L 11.0625,4.8125 11.15625,4.53125 11.25,4.25 11.125,4.625 11,5 10.5,5 10,5 10,4.5 M 10.625,5 11,5 11.125,5 11.25,5 11,5 q -0.25,0 -0.5,0 l -0.25,0 0.375,0"
           id="path54099" />
        <path
           style="fill:#fefefe;fill-opacity:1"
           d="M 11.125,4.625 Q 11.25,4.25 11.5,4.25 q 0.25,0 0.375,0.375 L 12,5 11.5,5 11,5 11.125,4.625 M 10.875,5 11,5 11.375,5 11.75,5 11.5,5 Q 11.25,5 11,5 l -0.25,0 0.125,0"
           id="path54101" />
        <path
           style="fill:#a5a2ad;fill-opacity:1"
           d="M 11.875,4.625 11.75,4.25 11.84375,4.53125 11.9375,4.8125 11.875,4.625 Q 11.8125,4.4375 11.71875,4.34375 L 11.625,4.25 11.671875,4.296875 11.71875,4.34375 12.015625,4.015625 12.3125,3.6875 12.25,3.625 12.1875,3.5625 l 0.125,0.125 q 0.125,0.125 0.3125,0.1875 L 12.8125,3.9375 12.53125,3.84375 12.25,3.75 12.625,3.875 13,4 13,4.5 13,5 12.5,5 12,5 11.875,4.625"
           id="path54103" />
        <path
           style="fill:#5e8896;fill-opacity:1"
           d="M 13,4.5 13,4 13.484375,4.015625 13.96875,4.03125 13.953125,3.921875 13.9375,3.8125 13.96875,4.03125 Q 14,4.25 14,4.5 L 14,4.75 14,4.375 14,4 14,4.5 14,5 13.5,5 13,5 13,4.5 M 13,3.875 13,4 13,4.375 13,4.75 13,4.5 Q 13,4.25 13,4 l 0,-0.25 0,0.125"
           id="path54105" />
        <path
           style="fill:#15252b;fill-opacity:1"
           d="M 14,4.5 14,4 14.5,4 15,4 14.875,4.375 q -0.125,0.375 -0.5,0.5 L 14,5 14,4.5"
           id="path54107" />
        <path
           style="fill:#17171e;fill-opacity:1"
           d="M 14.875,4.375 15,4 15.5,4 16,4 16,4.5 16,5 15.625,5.125 15.25,5.25 15.53125,5.15625 15.8125,5.0625 15.625,5.125 Q 15.4375,5.1875 15.34375,5.28125 L 15.25,5.375 15.296875,5.328125 15.34375,5.28125 15.015625,4.984375 14.6875,4.6875 14.625,4.75 14.5625,4.8125 14.6875,4.6875 Q 14.8125,4.5625 14.875,4.375 L 14.9375,4.1875 14.84375,4.46875 14.75,4.75 14.875,4.375"
           id="path54109" />
        <path
           style="fill:#1f232c;fill-opacity:1"
           d="M 16,4.5 16,4 16.5,4 17,4 17,4.5 17,5 16.5,5 16,5 16,4.5"
           id="path54111" />
        <path
           style="fill:#262c35;fill-opacity:1"
           d="M 17,4.5 17,4 17.5,4 18,4 18,4.5 18,5 17.5,5 17,5 17,4.5"
           id="path54113" />
        <path
           style="fill:#2b3641;fill-opacity:1"
           d="M 18,4.5 18,4 18.5,4 19,4 19,4.5 19,5 18.5,5 18,5 18,4.5"
           id="path54115" />
        <path
           style="fill:#33414e;fill-opacity:1"
           d="M 19,4.5 19,4 19.5,4 20,4 20,4.5 20,5 19.5,5 19,5 19,4.5"
           id="path54117" />
        <path
           style="fill:#534d49;fill-opacity:1"
           d="M 2,5.5 2,5 2.5,5 3,5 3,5.5 3,6 2.5,6 2,6 2,5.5"
           id="path54119" />
        <path
           style="fill:#464140;fill-opacity:1"
           d="M 3,5.5 3,5 3.5,5 4,5 4,5.5 4,6 3.5,6 3,6 3,5.5"
           id="path54121" />
        <path
           style="fill:#393537;fill-opacity:1"
           d="M 4,5.5 4,5 4.5,5 5,5 5,5.5 5,6 4.5,6 4,6 4,5.5"
           id="path54123" />
        <path
           style="fill:#2e2b2d;fill-opacity:1"
           d="M 5,5.5 5,5 5.5,5 6,5 6,5.5 6,6 5.5,6 5,6 5,5.5"
           id="path54125" />
        <path
           style="fill:#211f26;fill-opacity:1"
           d="M 6,5.5 6,5 6.5,5 7,5 7,5.5 7,6 6.5,6 6,6 6,5.5"
           id="path54127" />
        <path
           style="fill:#15151b;fill-opacity:1"
           d="M 7,5.5 7,5 7.5,5 8,5 7.875,5.375 Q 7.75,5.75 7.375,5.875 L 7,6 7,5.5"
           id="path54129" />
        <path
           style="fill:#030302;fill-opacity:1"
           d="M 7.875,5.375 8,5 8.5,5 9,5 8.875,5.375 Q 8.75,5.75 8.5,6 L 8.25,6.25 8.4375,6.0625 8.625,5.875 8.5,6 Q 8.375,6.125 8.28125,6.28125 L 8.1875,6.4375 8.234375,6.359375 8.28125,6.28125 7.984375,5.984375 7.6875,5.6875 7.625,5.75 7.5625,5.8125 7.6875,5.6875 Q 7.8125,5.5625 7.875,5.375 L 7.9375,5.1875 7.84375,5.46875 7.75,5.75 7.875,5.375"
           id="path54131" />
        <path
           style="fill:#6a6869;fill-opacity:1"
           d="M 8.875,5.375 9,5 8.90625,5.28125 8.8125,5.5625 8.875,5.375 Q 8.9375,5.1875 8.96875,4.96875 L 9,4.75 8.984375,4.859375 8.96875,4.96875 9.484375,4.984375 10,5 10,5.5 10,6 9.625,6.125 9.25,6.25 9.53125,6.15625 9.8125,6.0625 9.625,6.125 Q 9.4375,6.1875 9.28125,6.28125 L 9.125,6.375 9.203125,6.328125 9.28125,6.28125 9,6 8.71875,5.71875 8.671875,5.796875 8.625,5.875 8.71875,5.71875 Q 8.8125,5.5625 8.875,5.375 L 8.9375,5.1875 8.84375,5.46875 8.75,5.75 8.875,5.375"
           id="path54133" />
        <path
           style="fill:#8d8c86;fill-opacity:1"
           d="M 10,5.5 10,5 10.5,5 11,5 11.125,5.375 11.25,5.75 11.15625,5.46875 11.0625,5.1875 11.125,5.375 q 0.0625,0.1875 0.15625,0.34375 L 11.375,5.875 11.328125,5.796875 11.28125,5.71875 10.984375,6.015625 10.6875,6.3125 10.75,6.375 10.8125,6.4375 10.6875,6.3125 Q 10.5625,6.1875 10.375,6.125 L 10.1875,6.0625 10.46875,6.15625 10.75,6.25 10.375,6.125 10,6 10,5.5 M 11.125,5 11,5 10.625,5 10.25,5 10.5,5 q 0.25,0 0.5,0 l 0.25,0 -0.125,0"
           id="path54135" />
        <path
           style="fill:#312d3a;fill-opacity:1"
           d="M 11.125,5.375 11,5 11.5,5 12,5 12.125,5.375 12.25,5.75 12.15625,5.46875 12.0625,5.1875 12.125,5.375 q 0.0625,0.1875 0.1875,0.3125 l 0.125,0.125 L 12.375,5.75 12.3125,5.6875 12.015625,5.984375 11.71875,6.28125 11.765625,6.359375 11.8125,6.4375 11.71875,6.28125 Q 11.625,6.125 11.5,6 L 11.375,5.875 11.5625,6.0625 11.75,6.25 11.5,6 Q 11.25,5.75 11.125,5.375 M 11.375,5 11,5 10.875,5 10.75,5 11,5 q 0.25,0 0.5,0 l 0.25,0 -0.375,0"
           id="path54137" />
        <path
           style="fill:#142642;fill-opacity:1"
           d="M 12.125,5.375 12,5 12.5,5 13,5 13,5.5 13,6 12.625,5.875 q -0.375,-0.125 -0.5,-0.5"
           id="path54139" />
        <path
           style="fill:#275b63;fill-opacity:1"
           d="M 13,5.5 13,5 13.5,5 14,5 14,5.5 14,6 13.5,6 13,6 13,5.5"
           id="path54141" />
        <path
           style="fill:#150b0c;fill-opacity:1"
           d="M 14,5.5 14,5 14.375,4.875 14.75,4.75 14.46875,4.84375 14.1875,4.9375 14.375,4.875 Q 14.5625,4.8125 14.6875,4.6875 L 14.8125,4.5625 14.75,4.625 14.6875,4.6875 15.015625,4.984375 15.34375,5.28125 15.390625,5.234375 15.4375,5.1875 15.34375,5.28125 Q 15.25,5.375 15.25,5.5 l 0,0.125 0,-0.1875 0,-0.1875 0,0.25 0,0.25 0,-0.1875 0,-0.1875 0,0.125 q 0,0.125 0.09375,0.21875 L 15.4375,5.8125 15.390625,5.765625 15.34375,5.71875 15.015625,6.015625 14.6875,6.3125 14.75,6.375 14.8125,6.4375 14.6875,6.3125 Q 14.5625,6.1875 14.375,6.125 L 14.1875,6.0625 14.46875,6.15625 14.75,6.25 14.375,6.125 14,6 14,5.5"
           id="path54143" />
        <path
           style="fill:#211f24;fill-opacity:1"
           d="m 15.25,5.5 q 0,-0.25 0.375,-0.375 L 16,5 16,5.5 16,6 15.625,5.875 Q 15.25,5.75 15.25,5.5"
           id="path54145" />
        <path
           style="fill:#27272d;fill-opacity:1"
           d="M 16,5.5 16,5 16.5,5 17,5 17,5.5 17,6 16.5,6 16,6 16,5.5"
           id="path54147" />
        <path
           style="fill:#2b3037;fill-opacity:1"
           d="M 17,5.5 17,5 17.5,5 18,5 18,5.5 18,6 17.5,6 17,6 17,5.5"
           id="path54149" />
        <path
           style="fill:#323942;fill-opacity:1"
           d="M 18,5.5 18,5 18.5,5 19,5 19,5.5 19,6 18.5,6 18,6 18,5.5"
           id="path54151" />
        <path
           style="fill:#384450;fill-opacity:1"
           d="M 19,5.5 19,5 19.5,5 20,5 20,5.5 20,6 19.5,6 19,6 19,5.5"
           id="path54153" />
        <path
           style="fill:#554e48;fill-opacity:1"
           d="M 2,6.5 2,6 2.5,6 3,6 3,6.5 3,7 2.5,7 2,7 2,6.5"
           id="path54155" />
        <path
           style="fill:#484340;fill-opacity:1"
           d="M 3,6.5 3,6 3.5,6 4,6 4,6.5 4,7 3.5,7 3,7 3,6.5"
           id="path54157" />
        <path
           style="fill:#3c3737;fill-opacity:1"
           d="M 4,6.5 4,6 4.5,6 5,6 5,6.5 5,7 4.5,7 4,7 4,6.5"
           id="path54159" />
        <path
           style="fill:#312c2f;fill-opacity:1"
           d="M 5,6.5 5,6 5.5,6 6,6 6,6.5 6,7 5.5,7 5,7 5,6.5"
           id="path54161" />
        <path
           style="fill:#231f26;fill-opacity:1"
           d="M 6,6.5 6,6 6.5,6 7,6 7,6.5 7,7 6.5,7 6,7 6,6.5"
           id="path54163" />
        <path
           style="fill:#2f2e34;fill-opacity:1"
           d="M 7,6.5 7,6 7.375,5.875 7.75,5.75 7.46875,5.84375 7.1875,5.9375 7.375,5.875 Q 7.5625,5.8125 7.6875,5.6875 L 7.8125,5.5625 7.75,5.625 7.6875,5.6875 7.984375,5.984375 8.28125,6.28125 8.328125,6.203125 8.375,6.125 8.28125,6.28125 Q 8.1875,6.4375 8.125,6.625 L 8.0625,6.8125 8.15625,6.53125 8.25,6.25 8.125,6.625 8,7 7.5,7 7,7 7,6.5"
           id="path54165" />
        <path
           style="fill:#807e85;fill-opacity:1"
           d="M 8.125,6.625 Q 8.25,6.25 8.5,6 L 8.75,5.75 8.5625,5.9375 8.375,6.125 8.5,6 Q 8.625,5.875 8.71875,5.71875 L 8.8125,5.5625 8.765625,5.640625 8.71875,5.71875 9,6 9.28125,6.28125 9.359375,6.234375 9.4375,6.1875 9.28125,6.28125 Q 9.125,6.375 9,6.5 L 8.875,6.625 9.0625,6.4375 9.25,6.25 9,6.5 Q 8.75,6.75 8.390625,6.890625 L 8.03125,7.03125 8.015625,7.140625 8,7.25 8.03125,7.03125 Q 8.0625,6.8125 8.125,6.625 L 8.1875,6.4375 8.09375,6.71875 8,7 8.125,6.625"
           id="path54167" />
        <path
           style="fill:#dfd8c9;fill-opacity:1"
           d="M 9,6.5 Q 9.25,6.25 9.625,6.125 L 10,6 10.125,6.375 10.25,6.75 10.15625,6.46875 10.0625,6.1875 10.125,6.375 q 0.0625,0.1875 0.1875,0.3125 l 0.125,0.125 L 10.375,6.75 10.3125,6.6875 10.015625,7.015625 9.71875,7.34375 9.765625,7.390625 9.8125,7.4375 9.71875,7.34375 Q 9.625,7.25 9.5,7.25 l -0.125,0 0.1875,0 0.1875,0 -0.25,0 -0.25,0 0.1875,0 0.1875,0 -0.125,0 q -0.125,0 -0.21875,0.09375 L 9.1875,7.4375 9.234375,7.390625 9.28125,7.34375 9,7.03125 8.71875,6.71875 8.640625,6.765625 8.5625,6.8125 8.71875,6.71875 Q 8.875,6.625 9,6.5 L 9.125,6.375 8.9375,6.5625 8.75,6.75 9,6.5"
           id="path54169" />
        <path
           style="fill:#b9b7ab;fill-opacity:1"
           d="M 10.125,6.375 10,6 10.375,6.125 Q 10.75,6.25 10.890625,6.609375 L 11.03125,6.96875 11.140625,6.984375 11.25,7 11.03125,6.96875 Q 10.8125,6.9375 10.625,6.875 L 10.4375,6.8125 10.71875,6.90625 11,7 10.625,6.875 q -0.375,-0.125 -0.5,-0.5"
           id="path54171" />
        <path
           style="fill:#706c70;fill-opacity:1"
           d="M 10.890625,6.609375 10.75,6.25 10.84375,6.53125 10.9375,6.8125 10.875,6.625 Q 10.8125,6.4375 10.6875,6.3125 L 10.5625,6.1875 10.625,6.25 10.6875,6.3125 10.984375,6.015625 11.28125,5.71875 11.234375,5.640625 11.1875,5.5625 11.28125,5.71875 Q 11.375,5.875 11.5,6 L 11.625,6.125 11.4375,5.9375 11.25,5.75 11.5,6 q 0.25,0.25 0.375,0.625 L 12,7 11.5,7 11,7 11.375,7 11.75,7 11.5,7 Q 11.25,7 11.03125,6.96875 L 10.8125,6.9375 10.921875,6.953125 11.03125,6.96875 10.890625,6.609375"
           id="path54173" />
        <path
           style="fill:#514a63;fill-opacity:1"
           d="M 11.875,6.625 11.75,6.25 11.84375,6.53125 11.9375,6.8125 11.875,6.625 Q 11.8125,6.4375 11.71875,6.28125 L 11.625,6.125 11.671875,6.203125 11.71875,6.28125 12.015625,5.984375 12.3125,5.6875 12.25,5.625 12.1875,5.5625 l 0.125,0.125 q 0.125,0.125 0.3125,0.1875 L 12.8125,5.9375 12.53125,5.84375 12.25,5.75 12.625,5.875 13,6 13,6.5 13,7 12.5,7 12,7 11.875,6.625"
           id="path54175" />
        <path
           style="fill:#4c6b87;fill-opacity:1"
           d="M 13,6.5 13,6 13.5,6 14,6 14,6.5 14,7 13.5,7 13,7 13,6.5"
           id="path54177" />
        <path
           style="fill:#2a464e;fill-opacity:1"
           d="M 14,6.5 14,6 14.375,6.125 q 0.375,0.125 0.5,0.5 L 15,7 14.90625,6.71875 14.8125,6.4375 14.875,6.625 q 0.0625,0.1875 0.09375,0.40625 L 15,7.25 14.984375,7.140625 14.96875,7.03125 14.484375,7.015625 14,7 14,6.5"
           id="path54179" />
        <path
           style="fill:#2c262d;fill-opacity:1"
           d="M 14.875,6.625 14.75,6.25 14.84375,6.53125 14.9375,6.8125 14.875,6.625 Q 14.8125,6.4375 14.6875,6.3125 L 14.5625,6.1875 14.625,6.25 14.6875,6.3125 15.015625,6.015625 15.34375,5.71875 15.296875,5.671875 15.25,5.625 15.34375,5.71875 Q 15.4375,5.8125 15.625,5.875 L 15.8125,5.9375 15.53125,5.84375 15.25,5.75 15.625,5.875 16,6 16,6.5 16,7 15.5,7 15,7 14.875,6.625"
           id="path54181" />
        <path
           style="fill:#313037;fill-opacity:1"
           d="M 16,6.5 16,6 16.5,6 17,6 17,6.5 17,7 16.5,7 16,7 16,6.5"
           id="path54183" />
        <path
           style="fill:#353941;fill-opacity:1"
           d="M 17,6.5 17,6 17.5,6 18,6 18,6.5 18,7 17.5,7 17,7 17,6.5"
           id="path54185" />
        <path
           style="fill:#38404a;fill-opacity:1"
           d="M 18,6.5 18,6 18.5,6 19,6 19,6.5 19,7 18.5,7 18,7 18,6.5"
           id="path54187" />
        <path
           style="fill:#3b4956;fill-opacity:1"
           d="M 19,6.5 19,6 19.5,6 20,6 20,6.5 20,7 19.5,7 19,7 19,6.5"
           id="path54189" />
        <path
           style="fill:#554e4a;fill-opacity:1"
           d="M 2,7.5 2,7 2.5,7 3,7 3,7.5 3,8 2.5,8 2,8 2,7.5"
           id="path54191" />
        <path
           style="fill:#4b4542;fill-opacity:1"
           d="M 3,7.5 3,7 3.5,7 4,7 4,7.5 4,8 3.5,8 3,8 3,7.5"
           id="path54193" />
        <path
           style="fill:#403c3b;fill-opacity:1"
           d="M 4,7.5 4,7 4.5,7 5,7 5,7.5 5,8 4.5,8 4,8 4,7.5"
           id="path54195" />
        <path
           style="fill:#383333;fill-opacity:1"
           d="M 5,7.5 5,7 5.5,7 6,7 6,7.5 6,8 5.5,8 5,8 5,7.5"
           id="path54197" />
        <path
           style="fill:#2b272b;fill-opacity:1"
           d="M 6,7.5 6,7 6.5,7 7,7 7,7.5 7,8 6.5,8 6,8 6,7.5"
           id="path54199" />
        <path
           style="fill:#302e35;fill-opacity:1"
           d="M 7,7.5 7,7 7.5,7 8,7 8,7.5 8,8 7.5,8 7,8 7,7.5 M 8,8.125 8,8 8,7.625 8,7.25 8,7.5 Q 8,7.75 8,8 L 8,8.25 8,8.125"
           id="path54201" />
        <path
           style="fill:#ddd5ca;fill-opacity:1"
           d="M 8,7.5 8,7 8,7.375 8,7.75 8,7.5 Q 8,7.25 8.03125,7.03125 L 8.0625,6.8125 8.046875,6.921875 8.03125,7.03125 8.390625,6.890625 8.75,6.75 8.46875,6.84375 8.1875,6.9375 8.375,6.875 Q 8.5625,6.8125 8.71875,6.71875 L 8.875,6.625 8.796875,6.671875 8.71875,6.71875 9,7.03125 9.28125,7.34375 9.328125,7.296875 9.375,7.25 9.28125,7.34375 Q 9.1875,7.4375 9.125,7.625 L 9.0625,7.8125 9.15625,7.53125 9.25,7.25 9.125,7.625 9,8 8.5,8 8,8 8,7.5 M 8,7.625 8,8 8,8.125 8,8.25 8,8 Q 8,7.75 8,7.5 L 8,7.25 8,7.625"
           id="path54203" />
        <path
           style="fill:#ffffef;fill-opacity:1"
           d="M 9.125,7.625 Q 9.25,7.25 9.5,7.25 q 0.25,0 0.375,0.375 L 10,8 9.5,8 9,8 9.125,7.625"
           id="path54205" />
        <path
           style="fill:#fffff0;fill-opacity:1"
           d="M 9.875,7.625 9.75,7.25 9.84375,7.53125 9.9375,7.8125 9.875,7.625 Q 9.8125,7.4375 9.71875,7.34375 L 9.625,7.25 9.671875,7.296875 9.71875,7.34375 10.015625,7.015625 10.3125,6.6875 10.25,6.625 10.1875,6.5625 l 0.125,0.125 q 0.125,0.125 0.3125,0.1875 L 10.8125,6.9375 10.53125,6.84375 10.25,6.75 10.625,6.875 11,7 11,7.5 11,8 10.5,8 10,8 9.875,7.625"
           id="path54207" />
        <path
           style="fill:#fff8f9;fill-opacity:1"
           d="M 11,7.5 11,7 11.5,7 12,7 12,7.5 12,8 11.5,8 11,8 11,7.5 M 12,8.125 12,8 12,7.625 12,7.25 12,7.5 q 0,0.25 0,0.5 l 0,0.25 0,-0.125"
           id="path54209" />
        <path
           style="fill:#9689af;fill-opacity:1"
           d="M 12,7.5 12,7 12.5,7 13,7 13,7.5 13,8 12.5,8 12,8 12,7.5 M 12,7.625 12,8 12,8.125 12,8.25 12,8 q 0,-0.25 0,-0.5 l 0,-0.25 0,0.375 m 1,0.5 L 13,8 13,7.625 13,7.25 13,7.5 q 0,0.25 0,0.5 l 0,0.25 0,-0.125"
           id="path54211" />
        <path
           style="fill:#626e93;fill-opacity:1"
           d="M 13,7.5 13,7 13.5,7 14,7 14,7.5 14,8 13.5,8 13,8 13,7.5"
           id="path54213" />
        <path
           style="fill:#275564;fill-opacity:1"
           d="M 14,7.5 14,7 14.484375,7.015625 14.96875,7.03125 14.953125,6.921875 14.9375,6.8125 14.96875,7.03125 Q 15,7.25 15,7.5 L 15,7.75 15,7.375 15,7 15,7.5 15,8 14.5,8 14,8 14,7.5"
           id="path54215" />
        <path
           style="fill:#3a3534;fill-opacity:1"
           d="M 15,7.5 15,7 15.5,7 16,7 16,7.5 16,8 15.5,8 15,8 15,7.5"
           id="path54217" />
        <path
           style="fill:#3b3a3e;fill-opacity:1"
           d="M 16,7.5 16,7 16.5,7 17,7 17,7.5 17,8 16.5,8 16,8 16,7.5"
           id="path54219" />
        <path
           style="fill:#3d4049;fill-opacity:1"
           d="M 17,7.5 17,7 17.5,7 18,7 18,7.5 18,8 17.5,8 17,8 17,7.5"
           id="path54221" />
        <path
           style="fill:#3f4752;fill-opacity:1"
           d="M 18,7.5 18,7 18.5,7 19,7 19,7.5 19,8 18.5,8 18,8 18,7.5"
           id="path54223" />
        <path
           style="fill:#404f60;fill-opacity:1"
           d="M 19,7.5 19,7 19.5,7 20,7 20,7.5 20,8 19.5,8 19,8 19,7.5"
           id="path54225" />
        <path
           style="fill:#5b534f;fill-opacity:1"
           d="M 2,8.5 2,8 2.5,8 3,8 3,8.5 3,9 2.5,9 2,9 2,8.5"
           id="path54227" />
        <path
           style="fill:#4f4847;fill-opacity:1"
           d="M 3,8.5 3,8 3.5,8 4,8 4,8.5 4,9 3.5,9 3,9 3,8.5"
           id="path54229" />
        <path
           style="fill:#444040;fill-opacity:1"
           d="M 4,8.5 4,8 4.5,8 5,8 5,8.5 5,9 4.5,9 4,9 4,8.5"
           id="path54231" />
        <path
           style="fill:#3b373a;fill-opacity:1"
           d="M 5,8.5 5,8 5.5,8 6,8 6,8.5 6,9 5.5,9 5,9 5,8.5"
           id="path54233" />
        <path
           style="fill:#322d32;fill-opacity:1"
           d="M 6,8.5 6,8 6.5,8 7,8 7,8.5 7,9 6.5,9 6,9 6,8.5"
           id="path54235" />
        <path
           style="fill:#1e1b24;fill-opacity:1"
           d="M 7,8.5 7,8 7.5,8 8,8 8,8.5 8,9 7.5,9 7,9 7,8.5 M 8,8.375 8,8 8,7.875 8,7.75 8,8 Q 8,8.25 8,8.5 L 8,8.75 8,8.375"
           id="path54237" />
        <path
           style="fill:#8e8271;fill-opacity:1"
           d="M 8,8.5 8,8 8.5,8 9,8 8.875,8.375 Q 8.75,8.75 8.375,8.875 L 8,9 8,8.5 M 9.125,8 9,8 8.625,8 8.25,8 8.5,8 Q 8.75,8 9,8 L 9.25,8 9.125,8 M 8,7.875 8,8 8,8.375 8,8.75 8,8.5 Q 8,8.25 8,8 L 8,7.75 8,7.875"
           id="path54239" />
        <path
           style="fill:#b5a27f;fill-opacity:1"
           d="M 8.875,8.375 9,8 9.5,8 10,8 10.015625,8.515625 10.03125,9.03125 10.140625,9.015625 10.25,9 10.03125,9.03125 Q 9.8125,9.0625 9.625,9.125 L 9.4375,9.1875 9.71875,9.09375 10,9 9.625,9.125 9.25,9.25 9.53125,9.15625 9.8125,9.0625 9.625,9.125 Q 9.4375,9.1875 9.3125,9.3125 L 9.1875,9.4375 9.25,9.375 9.3125,9.3125 9,9 8.6875,8.6875 8.625,8.75 8.5625,8.8125 8.6875,8.6875 Q 8.8125,8.5625 8.875,8.375 L 8.9375,8.1875 8.84375,8.46875 8.75,8.75 8.875,8.375 M 10.125,8 10,8 9.625,8 9.25,8 9.5,8 Q 9.75,8 10,8 l 0.25,0 -0.125,0 M 9.375,8 9,8 8.875,8 8.75,8 9,8 Q 9.25,8 9.5,8 L 9.75,8 9.375,8"
           id="path54241" />
        <path
           style="fill:#9f9588;fill-opacity:1"
           d="M 10.015625,8.515625 10,8 10.5,8 11,8 11,8.5 11,9 10.5,9 10,9 10.375,9 10.75,9 10.5,9 Q 10.25,9 10.03125,9.03125 L 9.8125,9.0625 9.921875,9.046875 10.03125,9.03125 10.015625,8.515625 M 11,9.125 11,9 11,8.625 11,8.25 11,8.5 q 0,0.25 0,0.5 l 0,0.25 0,-0.125 M 11.125,8 11,8 10.625,8 10.25,8 10.5,8 q 0.25,0 0.5,0 l 0.25,0 -0.125,0 M 10.375,8 10,8 9.875,8 9.75,8 10,8 q 0.25,0 0.5,0 l 0.25,0 -0.375,0"
           id="path54243" />
        <path
           style="fill:#d9dbe0;fill-opacity:1"
           d="M 11,8.5 11,8 11.5,8 12,8 12,8.5 12,9 11.5,9 11,9 11,8.5 M 12,8.375 12,8 12,7.875 12,7.75 12,8 q 0,0.25 0,0.5 l 0,0.25 0,-0.375"
           id="path54245" />
        <path
           style="fill:#4e496f;fill-opacity:1"
           d="M 12,8.5 12,8 12.5,8 13,8 13,8.5 13,9 12.5,9 12,9 12,8.5 M 12,7.875 12,8 12,8.375 12,8.75 12,8.5 Q 12,8.25 12,8 l 0,-0.25 0,0.125"
           id="path54247" />
        <path
           style="fill:#4d546e;fill-opacity:1"
           d="M 13,8.5 13,8 13.5,8 14,8 14,8.5 14,9 13.5,9 13,9 13,8.5"
           id="path54249" />
        <path
           style="fill:#385c63;fill-opacity:1"
           d="M 14,8.5 14,8 14.5,8 15,8 15,8.5 15,9 14.5,9 14,9 14,8.5 M 15,9.125 15,9 15,8.625 15,8.25 15,8.5 q 0,0.25 0,0.5 l 0,0.25 0,-0.125"
           id="path54251" />
        <path
           style="fill:#434141;fill-opacity:1"
           d="M 15,8.5 15,8 15.5,8 16,8 16,8.5 16,9 15.5,9 15,9 15,8.5"
           id="path54253" />
        <path
           style="fill:#454448;fill-opacity:1"
           d="M 16,8.5 16,8 16.5,8 17,8 17,8.5 17,9 16.5,9 16,9 16,8.5"
           id="path54255" />
        <path
           style="fill:#454c54;fill-opacity:1"
           d="M 17,8.5 17,8 17.5,8 18,8 18,8.5 18,9 17.5,9 17,9 17,8.5"
           id="path54257" />
        <path
           style="fill:#47535f;fill-opacity:1"
           d="M 18,8.5 18,8 18.5,8 19,8 18.875,8.375 q -0.125,0.375 -0.5,0.5 L 18,9 18,8.5"
           id="path54259" />
        <path
           style="fill:#475a6b;fill-opacity:1"
           d="M 18.875,8.375 19,8 19.5,8 20,8 20,8.5 20,9 19.625,9.125 19.25,9.25 19.53125,9.15625 19.8125,9.0625 19.625,9.125 Q 19.4375,9.1875 19.28125,9.28125 L 19.125,9.375 19.203125,9.328125 19.28125,9.28125 18.984375,8.984375 18.6875,8.6875 18.625,8.75 18.5625,8.8125 18.6875,8.6875 Q 18.8125,8.5625 18.875,8.375 L 18.9375,8.1875 18.84375,8.46875 18.75,8.75 18.875,8.375"
           id="path54261" />
        <path
           style="fill:#615b50;fill-opacity:1"
           d="M 2,9.5 2,9 2.5,9 3,9 3,9.5 3,10 2.5,10 2,10 2,9.5"
           id="path54263" />
        <path
           style="fill:#585249;fill-opacity:1"
           d="M 3,9.5 3,9 3.5,9 4,9 4,9.5 4,10 3.5,10 3,10 3,9.5"
           id="path54265" />
        <path
           style="fill:#504a43;fill-opacity:1"
           d="M 4,9.5 4,9 4.5,9 5,9 5,9.5 5,10 4.5,10 4,10 4,9.5"
           id="path54267" />
        <path
           style="fill:#49423f;fill-opacity:1"
           d="M 5,9.5 5,9 5.5,9 6,9 6,9.5 6,10 5.5,10 5,10 5,9.5"
           id="path54269" />
        <path
           style="fill:#3f3b3a;fill-opacity:1"
           d="M 6,9.5 6,9 6.5,9 7,9 7,9.5 7,10 6.5,10 6,10 6,9.5"
           id="path54271" />
        <path
           style="fill:#2b282a;fill-opacity:1"
           d="M 7,9.5 7,9 7.5,9 8,9 8,9.5 8,10 7.5,10 7,10 7,9.5"
           id="path54273" />
        <path
           style="fill:#b6ab93;fill-opacity:1"
           d="M 8,9.5 8,9 8.375,8.875 8.75,8.75 8.46875,8.84375 8.1875,8.9375 8.375,8.875 Q 8.5625,8.8125 8.6875,8.6875 L 8.8125,8.5625 8.75,8.625 8.6875,8.6875 9,9 9.3125,9.3125 9.375,9.25 9.4375,9.1875 9.3125,9.3125 Q 9.1875,9.4375 9.125,9.625 L 9.0625,9.8125 9.15625,9.53125 9.25,9.25 9.125,9.625 9,10 8.5,10 8,10 8,9.5"
           id="path54275" />
        <path
           style="fill:#e7d6b6;fill-opacity:1"
           d="M 9.125,9.625 Q 9.25,9.25 9.625,9.125 L 10,9 10,9.5 10,10 9.5,10 9,10 9.125,9.625"
           id="path54277" />
        <path
           style="fill:#f0dfbe;fill-opacity:1"
           d="M 10,9.5 10,9 10.5,9 11,9 11,9.5 11,10 10.5,10 10,10 10,9.5 M 11,9.375 11,9 11,8.875 11,8.75 11,9 q 0,0.25 0,0.5 l 0,0.25 0,-0.375"
           id="path54279" />
        <path
           style="fill:#b7c5cb;fill-opacity:1"
           d="M 11,9.5 11,9 11.5,9 12,9 12,9.5 12,10 11.5,10 11,10 11,9.5"
           id="path54281" />
        <path
           style="fill:#565c8d;fill-opacity:1"
           d="M 12,9.5 12,9 12.5,9 13,9 13.125,9.375 13.25,9.75 13.15625,9.46875 13.0625,9.1875 13.125,9.375 q 0.0625,0.1875 0.1875,0.3125 l 0.125,0.125 L 13.375,9.75 13.3125,9.6875 13,10 l -0.3125,0.3125 0.0625,0.0625 0.0625,0.0625 -0.125,-0.125 Q 12.5625,10.1875 12.375,10.125 L 12.1875,10.0625 12.46875,10.15625 12.75,10.25 12.375,10.125 12,10 12,9.5 m 0,0.125 0,0.375 0,0.125 0,0.125 0,-0.25 q 0,-0.25 0,-0.5 l 0,-0.25 0,0.375"
           id="path54283" />
        <path
           style="fill:#8894bb;fill-opacity:1"
           d="M 13.125,9.375 13,9 13.09375,9.28125 13.1875,9.5625 13.125,9.375 Q 13.0625,9.1875 13.03125,8.96875 L 13,8.75 13.015625,8.859375 13.03125,8.96875 13.515625,8.984375 14,9 14,9.5 14,10 13.625,9.875 Q 13.25,9.75 13.125,9.375 M 14,10.125 14,10 14,9.625 14,9.25 14,9.5 q 0,0.25 0,0.5 l 0,0.25 0,-0.125"
           id="path54285" />
        <path
           style="fill:#487885;fill-opacity:1"
           d="M 14,9.5 14,9 14.5,9 15,9 15,9.5 15,10 14.5,10 14,10 14,9.5 M 15,9.375 15,9 15,8.875 15,8.75 15,9 q 0,0.25 0,0.5 l 0,0.25 0,-0.375"
           id="path54287" />
        <path
           style="fill:#494b4d;fill-opacity:1"
           d="M 15,9.5 15,9 15.5,9 16,9 16,9.5 16,10 15.5,10 15,10 15,9.5"
           id="path54289" />
        <path
           style="fill:#4a4950;fill-opacity:1"
           d="M 16,9.5 16,9 16.5,9 17,9 17,9.5 17,10 16.5,10 16,10 16,9.5"
           id="path54291" />
        <path
           style="fill:#474f5c;fill-opacity:1"
           d="M 17,9.5 17,9 17.5,9 18,9 18,9.5 18,10 17.5,10 17,10 17,9.5"
           id="path54293" />
        <path
           style="fill:#455569;fill-opacity:1"
           d="M 18,9.5 18,9 18.375,8.875 18.75,8.75 18.46875,8.84375 18.1875,8.9375 18.375,8.875 Q 18.5625,8.8125 18.6875,8.6875 L 18.8125,8.5625 18.75,8.625 18.6875,8.6875 18.984375,8.984375 19.28125,9.28125 19.359375,9.234375 19.4375,9.1875 19.28125,9.28125 Q 19.125,9.375 19,9.5 L 18.875,9.625 19.0625,9.4375 19.25,9.25 19,9.5 Q 18.75,9.75 18.375,9.875 L 18,10 18,9.5"
           id="path54295" />
        <path
           style="fill:#455d75;fill-opacity:1"
           d="M 19,9.5 Q 19.25,9.25 19.625,9.125 L 20,9 20,9.5 20,10 19.625,10.125 19.25,10.25 19.53125,10.15625 19.8125,10.0625 19.625,10.125 q -0.1875,0.0625 -0.34375,0.15625 L 19.125,10.375 19.203125,10.328125 19.28125,10.28125 19,10 18.71875,9.71875 18.640625,9.765625 18.5625,9.8125 18.71875,9.71875 Q 18.875,9.625 19,9.5 L 19.125,9.375 18.9375,9.5625 18.75,9.75 19,9.5"
           id="path54297" />
        <path
           style="fill:#625b56;fill-opacity:1"
           d="M 2,10.5 2,10 2.5,10 3,10 3,10.5 3,11 2.5,11 2,11 2,10.5"
           id="path54299" />
        <path
           style="fill:#5a534f;fill-opacity:1"
           d="M 3,10.5 3,10 3.5,10 4,10 4,10.5 4,11 3.5,11 3,11 3,10.5"
           id="path54301" />
        <path
           style="fill:#564f4c;fill-opacity:1"
           d="M 4,10.5 4,10 4.5,10 5,10 5,10.5 5,11 4.5,11 4,11 4,10.5"
           id="path54303" />
        <path
           style="fill:#4c4645;fill-opacity:1"
           d="M 5,10.5 5,10 5.5,10 6,10 6,10.5 6,11 5.5,11 5,11 5,10.5"
           id="path54305" />
        <path
           style="fill:#423d3e;fill-opacity:1"
           d="M 6,10.5 6,10 6.5,10 7,10 7,10.5 7,11 6.5,11 6,11 6,10.5"
           id="path54307" />
        <path
           style="fill:#342f33;fill-opacity:1"
           d="M 7,10.5 7,10 7.5,10 8,10 8,10.5 8,11 7.5,11 7,11 7,10.5"
           id="path54309" />
        <path
           style="fill:#dccfb0;fill-opacity:1"
           d="M 8,10.5 8,10 8.5,10 9,10 9,10.5 9,11 8.5,11 8,11 8,10.5"
           id="path54311" />
        <path
           style="fill:#e8d6b4;fill-opacity:1"
           d="M 9,10.5 9,10 9.5,10 10,10 10,10.5 10,11 9.5,11 9,11 9,10.5"
           id="path54313" />
        <path
           style="fill:#f3e1bf;fill-opacity:1"
           d="m 10,10.5 0,-0.5 0.5,0 0.5,0 0,0.5 0,0.5 -0.5,0 -0.5,0 0,-0.5"
           id="path54315" />
        <path
           style="fill:#adbec7;fill-opacity:1"
           d="m 11,10.5 0,-0.5 0.5,0 0.5,0 0,0.5 0,0.5 -0.5,0 -0.5,0 0,-0.5"
           id="path54317" />
        <path
           style="fill:#202569;fill-opacity:1"
           d="m 12,10.5 0,-0.5 0.375,0.125 q 0.375,0.125 0.5,0.5 L 13,11 12.5,11 12,11 12,10.5 m 0,-0.625 0,0.125 0,0.375 0,0.375 0,-0.25 q 0,-0.25 0,-0.5 l 0,-0.25 0,0.125"
           id="path54319" />
        <path
           style="fill:#616da7;fill-opacity:1"
           d="M 12.875,10.625 12.75,10.25 12.84375,10.53125 12.9375,10.8125 12.875,10.625 q -0.0625,-0.1875 -0.1875,-0.3125 l -0.125,-0.125 0.0625,0.0625 0.0625,0.0625 L 13,10 13.3125,9.6875 13.25,9.625 13.1875,9.5625 l 0.125,0.125 q 0.125,0.125 0.3125,0.1875 L 13.8125,9.9375 13.53125,9.84375 13.25,9.75 13.625,9.875 14,10 14,10.5 14,11 13.5,11 13,11 12.875,10.625 M 14,10.375 14,10 14,9.875 14,9.75 14,10 q 0,0.25 0,0.5 l 0,0.25 0,-0.375"
           id="path54321" />
        <path
           style="fill:#4c8093;fill-opacity:1"
           d="m 14,10.5 0,-0.5 0.5,0 0.5,0 0,0.5 0,0.5 -0.5,0 -0.5,0 0,-0.5"
           id="path54323" />
        <path
           style="fill:#555b55;fill-opacity:1"
           d="m 15,10.5 0,-0.5 0.5,0 0.5,0 0,0.5 0,0.5 -0.5,0 -0.5,0 0,-0.5"
           id="path54325" />
        <path
           style="fill:#545455;fill-opacity:1"
           d="m 16,10.5 0,-0.5 0.5,0 0.5,0 -0.125,0.375 q -0.125,0.375 -0.5,0.5 L 16,11 16,10.5"
           id="path54327" />
        <path
           style="fill:#535d65;fill-opacity:1"
           d="M 16.875,10.375 17,10 l 0.5,0 0.5,0 -0.125,0.375 Q 17.75,10.75 17.5,11 L 17.25,11.25 17.4375,11.0625 17.625,10.875 17.5,11 q -0.125,0.125 -0.21875,0.28125 l -0.09375,0.15625 0.04687,-0.07813 0.04687,-0.07813 L 16.984375,10.984375 16.6875,10.6875 16.625,10.75 l -0.0625,0.0625 0.125,-0.125 q 0.125,-0.125 0.1875,-0.3125 L 16.9375,10.1875 16.84375,10.46875 16.75,10.75 16.875,10.375"
           id="path54329" />
        <path
           style="fill:#506573;fill-opacity:1"
           d="M 17.875,10.375 18,10 18.375,9.875 18.75,9.75 18.46875,9.84375 18.1875,9.9375 18.375,9.875 Q 18.5625,9.8125 18.71875,9.71875 L 18.875,9.625 18.796875,9.671875 18.71875,9.71875 19,10 l 0.28125,0.28125 0.07813,-0.04687 0.07813,-0.04687 -0.15625,0.09375 Q 19.125,10.375 19,10.5 L 18.875,10.625 19.0625,10.4375 19.25,10.25 19,10.5 Q 18.75,10.75 18.5,11 L 18.25,11.25 17.984375,10.984375 17.71875,10.71875 17.671875,10.796875 17.625,10.875 17.71875,10.71875 Q 17.8125,10.5625 17.875,10.375 L 17.9375,10.1875 17.84375,10.46875 17.75,10.75 17.875,10.375 M 18.1875,11.3125 18.25,11.25 18.4375,11.0625 18.625,10.875 18.5,11 q -0.125,0.125 -0.25,0.25 l -0.125,0.125 0.0625,-0.0625"
           id="path54331" />
        <path
           style="fill:#4c6b82;fill-opacity:1"
           d="m 19,10.5 q 0.25,-0.25 0.625,-0.375 L 20,10 20,10.5 20,11 19.625,11.125 19.25,11.25 19.53125,11.15625 19.8125,11.0625 19.625,11.125 q -0.1875,0.0625 -0.3125,0.1875 l -0.125,0.125 L 19.25,11.375 19.3125,11.3125 19.03125,11.03125 18.75,10.75 19,10.5 M 18.9375,10.5625 18.75,10.75 18.6875,10.8125 18.625,10.875 18.75,10.75 Q 18.875,10.625 19,10.5 l 0.125,-0.125 -0.1875,0.1875"
           id="path54333" />
        <path
           style="fill:#756b5b;fill-opacity:1"
           d="M 2,11.5 2,11 2.5,11 3,11 3,11.5 3,12 2.5,12 2,12 2,11.5"
           id="path54335" />
        <path
           style="fill:#6d6658;fill-opacity:1"
           d="M 3,11.5 3,11 3.5,11 4,11 4,11.5 4,12 3.5,12 3,12 3,11.5"
           id="path54337" />
        <path
           style="fill:#665f53;fill-opacity:1"
           d="M 4,11.5 4,11 4.5,11 5,11 5.125,11.375 5.25,11.75 5.15625,11.46875 5.0625,11.1875 5.125,11.375 q 0.0625,0.1875 0.15625,0.34375 L 5.375,11.875 5.328125,11.796875 5.28125,11.71875 4.984375,12.015625 4.6875,12.3125 4.75,12.375 4.8125,12.4375 4.6875,12.3125 Q 4.5625,12.1875 4.375,12.125 L 4.1875,12.0625 4.46875,12.15625 4.75,12.25 4.375,12.125 4,12 4,11.5"
           id="path54339" />
        <path
           style="fill:#5e544d;fill-opacity:1"
           d="M 5.125,11.375 5,11 5.5,11 6,11 6.125,11.375 6.25,11.75 6.15625,11.46875 6.0625,11.1875 6.125,11.375 q 0.0625,0.1875 0.15625,0.34375 L 6.375,11.875 6.328125,11.796875 6.28125,11.71875 6,12 5.71875,12.28125 5.765625,12.359375 5.8125,12.4375 5.71875,12.28125 Q 5.625,12.125 5.5,12 L 5.375,11.875 5.5625,12.0625 5.75,12.25 5.5,12 Q 5.25,11.75 5.125,11.375"
           id="path54341" />
        <path
           style="fill:#4f4943;fill-opacity:1"
           d="M 6.125,11.375 6,11 6.5,11 7,11 7.125,11.375 7.25,11.75 7.15625,11.46875 7.0625,11.1875 7.125,11.375 q 0.0625,0.1875 0.1875,0.3125 l 0.125,0.125 L 7.375,11.75 7.3125,11.6875 7.015625,11.984375 6.71875,12.28125 6.765625,12.359375 6.8125,12.4375 6.71875,12.28125 Q 6.625,12.125 6.5,12 L 6.375,11.875 6.5625,12.0625 6.75,12.25 6.5,12 Q 6.25,11.75 6.125,11.375"
           id="path54343" />
        <path
           style="fill:#46403e;fill-opacity:1"
           d="M 7.125,11.375 7,11 7.5,11 8,11 8,11.5 8,12 7.625,11.875 Q 7.25,11.75 7.125,11.375 M 8,12.125 8,12 8,11.625 8,11.25 8,11.5 q 0,0.25 0,0.5 l 0,0.25 0,-0.125"
           id="path54345" />
        <path
           style="fill:#eadfbd;fill-opacity:1"
           d="M 8,11.5 8,11 8.5,11 9,11 8.875,11.375 q -0.125,0.375 -0.5,0.5 L 8,12 8,11.5 M 8,11.625 8,12 8,12.125 8,12.25 8,12 q 0,-0.25 0,-0.5 l 0,-0.25 0,0.375"
           id="path54347" />
        <path
           style="fill:#d5c49e;fill-opacity:1"
           d="M 8.875,11.375 9,11 9.5,11 10,11 10,11.5 10,12 9.625,12.125 9.25,12.25 9.53125,12.15625 9.8125,12.0625 9.625,12.125 Q 9.4375,12.1875 9.3125,12.3125 L 9.1875,12.4375 9.25,12.375 9.3125,12.3125 9,12 8.6875,11.6875 8.625,11.75 8.5625,11.8125 8.6875,11.6875 Q 8.8125,11.5625 8.875,11.375 L 8.9375,11.1875 8.84375,11.46875 8.75,11.75 8.875,11.375"
           id="path54349" />
        <path
           style="fill:#ebdbb9;fill-opacity:1"
           d="m 10,11.5 0,-0.5 0.5,0 0.5,0 0,0.5 0,0.5 -0.5,0 -0.5,0 0,-0.5"
           id="path54351" />
        <path
           style="fill:#acc2cf;fill-opacity:1"
           d="m 11,11.5 0,-0.5 0.5,0 0.5,0 0,0.5 0,0.5 -0.5,0 -0.5,0 0,-0.5"
           id="path54353" />
        <path
           style="fill:#192169;fill-opacity:1"
           d="m 12,11.5 0,-0.5 0.5,0 0.5,0 0,0.5 0,0.5 -0.5,0 -0.5,0 0,-0.5"
           id="path54355" />
        <path
           style="fill:#535d9d;fill-opacity:1"
           d="m 13,11.5 0,-0.5 0.5,0 0.5,0 0,0.5 0,0.5 -0.5,0 -0.5,0 0,-0.5"
           id="path54357" />
        <path
           style="fill:#4c7f98;fill-opacity:1"
           d="m 14,11.5 0,-0.5 0.5,0 0.5,0 0,0.5 0,0.5 -0.5,0 -0.5,0 0,-0.5"
           id="path54359" />
        <path
           style="fill:#4b5558;fill-opacity:1"
           d="m 15,11.5 0,-0.5 0.5,0 0.5,0 0.125,0.375 0.125,0.375 -0.09375,-0.28125 -0.09375,-0.28125 0.0625,0.1875 q 0.0625,0.1875 0.1875,0.3125 l 0.125,0.125 -0.0625,-0.0625 -0.0625,-0.0625 -0.296875,0.296875 -0.296875,0.296875 0.07813,0.04687 L 15.875,12.375 15.71875,12.28125 Q 15.5625,12.1875 15.375,12.125 L 15.1875,12.0625 15.46875,12.15625 15.75,12.25 15.375,12.125 15,12 15,11.5"
           id="path54361" />
        <path
           style="fill:#4d4c55;fill-opacity:1"
           d="M 16.125,11.375 16,11 16.375,10.875 16.75,10.75 16.46875,10.84375 16.1875,10.9375 16.375,10.875 q 0.1875,-0.0625 0.3125,-0.1875 l 0.125,-0.125 -0.0625,0.0625 -0.0625,0.0625 0.296875,0.296875 0.296875,0.296875 0.04687,-0.07813 L 17.375,11.125 17.28125,11.28125 Q 17.1875,11.4375 17.125,11.625 L 17.0625,11.8125 17.15625,11.53125 17.25,11.25 17.125,11.625 17,12 16.625,11.875 q -0.375,-0.125 -0.5,-0.5"
           id="path54363" />
        <path
           style="fill:#4c5566;fill-opacity:1"
           d="M 17.125,11.625 Q 17.25,11.25 17.5,11 L 17.75,10.75 17.5625,10.9375 17.375,11.125 17.5,11 q 0.125,-0.125 0.21875,-0.28125 l 0.09375,-0.15625 -0.04687,0.07813 -0.04687,0.07813 0.265625,0.265625 L 18.25,11.25 18,11.5 q -0.25,0.25 -0.625,0.375 L 17,12 17.125,11.625 M 18.0625,11.4375 18.25,11.25 18.3125,11.1875 18.375,11.125 18.25,11.25 Q 18.125,11.375 18,11.5 l -0.125,0.125 0.1875,-0.1875"
           id="path54365" />
        <path
           style="fill:#4a6075;fill-opacity:1"
           d="m 18,11.5 q 0.25,-0.25 0.5,-0.5 l 0.25,-0.25 0.28125,0.28125 0.28125,0.28125 0.0625,-0.0625 0.0625,-0.0625 -0.125,0.125 q -0.125,0.125 -0.1875,0.3125 L 19.0625,11.8125 19.15625,11.53125 19.25,11.25 19.125,11.625 19,12 18.625,12.125 18.25,12.25 18.53125,12.15625 18.8125,12.0625 18.625,12.125 q -0.1875,0.0625 -0.3125,0.1875 l -0.125,0.125 0.0625,-0.0625 0.0625,-0.0625 -0.296875,-0.296875 -0.296875,-0.296875 -0.07813,0.04687 -0.07813,0.04687 0.15625,-0.09375 Q 17.875,11.625 18,11.5 L 18.125,11.375 17.9375,11.5625 17.75,11.75 18,11.5 M 18.8125,10.6875 18.75,10.75 18.5625,10.9375 18.375,11.125 18.5,11 q 0.125,-0.125 0.25,-0.25 l 0.125,-0.125 -0.0625,0.0625"
           id="path54367" />
        <path
           style="fill:#486783;fill-opacity:1"
           d="m 19.125,11.625 q 0.125,-0.375 0.5,-0.5 L 20,11 l 0,0.5 0,0.5 -0.5,0 -0.5,0 0.125,-0.375"
           id="path54369" />
        <path
           style="fill:#857a62;fill-opacity:1"
           d="M 2,12.5 2,12 2.5,12 3,12 3,12.5 3,13 2.5,13 2,13 2,12.5"
           id="path54371" />
        <path
           style="fill:#80785e;fill-opacity:1"
           d="M 3,12.5 3,12 3.5,12 4,12 4,12.5 4,13 3.5,13 3,13 3,12.5"
           id="path54373" />
        <path
           style="fill:#7b725a;fill-opacity:1"
           d="M 4,12.5 4,12 4.375,12.125 q 0.375,0.125 0.5,0.5 L 5,13 4.5,13 4,13 4,12.5"
           id="path54375" />
        <path
           style="fill:#746b54;fill-opacity:1"
           d="M 4.875,12.625 4.75,12.25 4.84375,12.53125 4.9375,12.8125 4.875,12.625 Q 4.8125,12.4375 4.6875,12.3125 L 4.5625,12.1875 4.625,12.25 4.6875,12.3125 4.984375,12.015625 5.28125,11.71875 5.234375,11.640625 5.1875,11.5625 5.28125,11.71875 Q 5.375,11.875 5.5,12 L 5.625,12.125 5.4375,11.9375 5.25,11.75 5.5,12 q 0.25,0.25 0.375,0.625 L 6,13 5.5,13 5,13 4.875,12.625"
           id="path54377" />
        <path
           style="fill:#645c4a;fill-opacity:1"
           d="M 5.875,12.625 5.75,12.25 5.84375,12.53125 5.9375,12.8125 5.875,12.625 Q 5.8125,12.4375 5.71875,12.28125 L 5.625,12.125 5.671875,12.203125 5.71875,12.28125 6,12 6.28125,11.71875 6.234375,11.640625 6.1875,11.5625 6.28125,11.71875 Q 6.375,11.875 6.5,12 L 6.625,12.125 6.4375,11.9375 6.25,11.75 6.5,12 q 0.25,0.25 0.375,0.625 L 7,13 6.5,13 6,13 5.875,12.625"
           id="path54379" />
        <path
           style="fill:#665e4c;fill-opacity:1"
           d="M 6.875,12.625 6.75,12.25 6.84375,12.53125 6.9375,12.8125 6.875,12.625 Q 6.8125,12.4375 6.71875,12.28125 L 6.625,12.125 6.671875,12.203125 6.71875,12.28125 7.015625,11.984375 7.3125,11.6875 7.25,11.625 7.1875,11.5625 l 0.125,0.125 q 0.125,0.125 0.3125,0.1875 L 7.8125,11.9375 7.53125,11.84375 7.25,11.75 7.625,11.875 8,12 8,12.5 8,13 7.5,13 7,13 6.875,12.625 M 8,12.375 8,12 8,11.875 8,11.75 8,12 q 0,0.25 0,0.5 l 0,0.25 0,-0.375"
           id="path54381" />
        <path
           style="fill:#faefca;fill-opacity:1"
           d="M 8,12.5 8,12 8.375,11.875 8.75,11.75 8.46875,11.84375 8.1875,11.9375 8.375,11.875 Q 8.5625,11.8125 8.6875,11.6875 L 8.8125,11.5625 8.75,11.625 8.6875,11.6875 9,12 9.3125,12.3125 9.375,12.25 9.4375,12.1875 9.3125,12.3125 Q 9.1875,12.4375 9.125,12.625 L 9.0625,12.8125 9.15625,12.53125 9.25,12.25 9.125,12.625 9,13 8.5,13 8,13 8,12.5 M 8,11.875 8,12 8,12.375 8,12.75 8,12.5 Q 8,12.25 8,12 l 0,-0.25 0,0.125"
           id="path54383" />
        <path
           style="fill:#c2b48c;fill-opacity:1"
           d="m 9.125,12.625 q 0.125,-0.375 0.5,-0.5 L 10,12 10,12.5 10,13 9.5,13 9,13 9.125,12.625"
           id="path54385" />
        <path
           style="fill:#eadab9;fill-opacity:1"
           d="m 10,12.5 0,-0.5 0.5,0 0.5,0 0,0.5 0,0.5 -0.5,0 -0.5,0 0,-0.5"
           id="path54387" />
        <path
           style="fill:#a8c3cc;fill-opacity:1"
           d="m 11,12.5 0,-0.5 0.5,0 0.5,0 0,0.5 0,0.5 -0.5,0 -0.5,0 0,-0.5"
           id="path54389" />
        <path
           style="fill:#1f2b6f;fill-opacity:1"
           d="m 12,12.5 0,-0.5 0.5,0 0.5,0 0.125,0.375 0.125,0.375 -0.09375,-0.28125 -0.09375,-0.28125 0.0625,0.1875 q 0.0625,0.1875 0.1875,0.3125 l 0.125,0.125 L 13.375,12.75 13.3125,12.6875 13,13 l -0.3125,0.3125 0.0625,0.0625 0.0625,0.0625 -0.125,-0.125 Q 12.5625,13.1875 12.375,13.125 L 12.1875,13.0625 12.46875,13.15625 12.75,13.25 12.375,13.125 12,13 12,12.5"
           id="path54391" />
        <path
           style="fill:#4f5197;fill-opacity:1"
           d="M 13.125,12.375 13,12 l 0.5,0 0.5,0 0,0.5 0,0.5 -0.375,-0.125 q -0.375,-0.125 -0.5,-0.5"
           id="path54393" />
        <path
           style="fill:#4c819b;fill-opacity:1"
           d="m 14,12.5 0,-0.5 0.5,0 0.5,0 0,0.5 0,0.5 -0.5,0 -0.5,0 0,-0.5"
           id="path54395" />
        <path
           style="fill:#515f60;fill-opacity:1"
           d="m 15,12.5 0,-0.5 0.375,0.125 Q 15.75,12.25 16,12.5 L 16.25,12.75 16.0625,12.5625 15.875,12.375 16,12.5 q 0.125,0.125 0.28125,0.21875 l 0.15625,0.09375 -0.07813,-0.04687 -0.07813,-0.04687 -0.296875,0.296875 -0.296875,0.296875 0.0625,0.0625 0.0625,0.0625 -0.125,-0.125 Q 15.5625,13.1875 15.375,13.125 L 15.1875,13.0625 15.46875,13.15625 15.75,13.25 15.375,13.125 15,13 15,12.5"
           id="path54397" />
        <path
           style="fill:#515257;fill-opacity:1"
           d="M 16,12.5 15.75,12.25 15.9375,12.4375 16.125,12.625 16,12.5 q -0.125,-0.125 -0.28125,-0.21875 l -0.15625,-0.09375 0.07813,0.04687 0.07813,0.04687 0.296875,-0.296875 L 16.3125,11.6875 16.25,11.625 l -0.0625,-0.0625 0.125,0.125 q 0.125,0.125 0.3125,0.1875 L 16.8125,11.9375 16.53125,11.84375 16.25,11.75 16.625,11.875 17,12 17,12.5 17,13 16.625,12.875 Q 16.25,12.75 16,12.5"
           id="path54399" />
        <path
           style="fill:#4e5a67;fill-opacity:1"
           d="M 17,12.5 17,12 17.375,11.875 17.75,11.75 17.46875,11.84375 17.1875,11.9375 17.375,11.875 q 0.1875,-0.0625 0.34375,-0.15625 L 17.875,11.625 l -0.07813,0.04687 -0.07813,0.04687 0.296875,0.296875 0.296875,0.296875 0.0625,-0.0625 0.0625,-0.0625 -0.125,0.125 q -0.125,0.125 -0.1875,0.3125 L 18.0625,12.8125 18.15625,12.53125 18.25,12.25 18.125,12.625 18,13 17.5,13 17,13 17,12.5"
           id="path54401" />
        <path
           style="fill:#495f76;fill-opacity:1"
           d="m 18.125,12.625 q 0.125,-0.375 0.5,-0.5 L 19,12 l 0,0.5 0,0.5 -0.5,0 -0.5,0 0.125,-0.375"
           id="path54403" />
        <path
           style="fill:#456483;fill-opacity:1"
           d="m 19,12.5 0,-0.5 0.5,0 0.5,0 0,0.5 0,0.5 -0.5,0 -0.5,0 0,-0.5"
           id="path54405" />
        <path
           style="fill:#8b816e;fill-opacity:1"
           d="M 2,13.5 2,13 2.5,13 3,13 3,13.5 3,14 2.5,14 2,14 2,13.5"
           id="path54407" />
        <path
           style="fill:#8b816c;fill-opacity:1"
           d="M 3,13.5 3,13 3.5,13 4,13 4,13.5 4,14 3.5,14 3,14 3,13.5"
           id="path54409" />
        <path
           style="fill:#887e6a;fill-opacity:1"
           d="M 4,13.5 4,13 4.5,13 5,13 5,13.5 5,14 4.5,14 4,14 4,13.5"
           id="path54411" />
        <path
           style="fill:#807564;fill-opacity:1"
           d="M 5,13.5 5,13 5.5,13 6,13 6,13.5 6,14 5.5,14 5,14 5,13.5"
           id="path54413" />
        <path
           style="fill:#716859;fill-opacity:1"
           d="M 6,13.5 6,13 6.5,13 7,13 7,13.5 7,14 6.5,14 6,14 6,13.5"
           id="path54415" />
        <path
           style="fill:#7d7563;fill-opacity:1"
           d="M 7,13.5 7,13 7.5,13 8,13 8,13.5 8,14 7.5,14 7,14 7,13.5"
           id="path54417" />
        <path
           style="fill:#fffad5;fill-opacity:1"
           d="M 8,13.5 8,13 8.5,13 9,13 9,13.5 9,14 8.5,14 8,14 8,13.5"
           id="path54419" />
        <path
           style="fill:#c5b88b;fill-opacity:1"
           d="M 9,13.5 9,13 9.5,13 10,13 10.125,13.375 10.25,13.75 10.15625,13.46875 10.0625,13.1875 10.125,13.375 q 0.0625,0.1875 0.1875,0.3125 l 0.125,0.125 L 10.375,13.75 10.3125,13.6875 10.015625,13.984375 9.71875,14.28125 9.796875,14.328125 9.875,14.375 9.71875,14.28125 Q 9.5625,14.1875 9.375,14.125 L 9.1875,14.0625 9.46875,14.15625 9.75,14.25 9.375,14.125 9,14 9,13.5"
           id="path54421" />
        <path
           style="fill:#ebdebb;fill-opacity:1"
           d="M 10.125,13.375 10,13 l 0.5,0 0.5,0 0,0.5 0,0.5 -0.375,-0.125 q -0.375,-0.125 -0.5,-0.5"
           id="path54423" />
        <path
           style="fill:#9ebbc4;fill-opacity:1"
           d="m 11,13.5 0,-0.5 0.5,0 0.5,0 0,0.5 0,0.5 -0.5,0 -0.5,0 0,-0.5"
           id="path54425" />
        <path
           style="fill:#27367e;fill-opacity:1"
           d="m 12,13.5 0,-0.5 0.375,0.125 q 0.375,0.125 0.5,0.5 L 13,14 12.5,14 12,14 12,13.5"
           id="path54427" />
        <path
           style="fill:#4d4d9a;fill-opacity:1"
           d="M 12.875,13.625 12.75,13.25 12.84375,13.53125 12.9375,13.8125 12.875,13.625 q -0.0625,-0.1875 -0.1875,-0.3125 l -0.125,-0.125 0.0625,0.0625 0.0625,0.0625 L 13,13 13.3125,12.6875 13.25,12.625 l -0.0625,-0.0625 0.125,0.125 q 0.125,0.125 0.3125,0.1875 L 13.8125,12.9375 13.53125,12.84375 13.25,12.75 13.625,12.875 14,13 l 0,0.5 0,0.5 -0.5,0 -0.5,0 -0.125,-0.375"
           id="path54429" />
        <path
           style="fill:#4a7696;fill-opacity:1"
           d="m 14,13.5 0,-0.5 0.5,0 0.5,0 0,0.5 0,0.5 -0.5,0 -0.5,0 0,-0.5 m 0,0.125 0,0.375 0,0.125 0,0.125 0,-0.25 q 0,-0.25 0,-0.5 l 0,-0.25 0,0.375"
           id="path54431" />
        <path
           style="fill:#5a6761;fill-opacity:1"
           d="m 15,13.5 0,-0.5 0.375,0.125 q 0.375,0.125 0.5,0.5 L 16,14 15.5,14 15,14 15,13.5"
           id="path54433" />
        <path
           style="fill:#626660;fill-opacity:1"
           d="M 15.875,13.625 15.75,13.25 15.84375,13.53125 15.9375,13.8125 15.875,13.625 q -0.0625,-0.1875 -0.1875,-0.3125 l -0.125,-0.125 0.0625,0.0625 0.0625,0.0625 0.296875,-0.296875 0.296875,-0.296875 -0.07813,-0.04687 L 16.125,12.625 16.28125,12.71875 Q 16.4375,12.8125 16.625,12.875 L 16.8125,12.9375 16.53125,12.84375 16.25,12.75 16.625,12.875 17,13 17,13.5 17,14 16.5,14 16,14 15.875,13.625 M 16.625,14 17,14 17.125,14 17.25,14 17,14 q -0.25,0 -0.5,0 l -0.25,0 0.375,0"
           id="path54435" />
        <path
           style="fill:#5d6d70;fill-opacity:1"
           d="m 17,13.5 0,-0.5 0.5,0 0.5,0 0,0.5 0,0.5 -0.5,0 -0.5,0 0,-0.5 M 16.875,14 17,14 l 0.375,0 0.375,0 -0.25,0 q -0.25,0 -0.5,0 l -0.25,0 0.125,0"
           id="path54437" />
        <path
           style="fill:#59747d;fill-opacity:1"
           d="m 18,13.5 0,-0.5 0.5,0 0.5,0 0,0.5 0,0.5 -0.5,0 -0.5,0 0,-0.5"
           id="path54439" />
        <path
           style="fill:#52798b;fill-opacity:1"
           d="m 19,13.5 0,-0.5 0.5,0 0.5,0 0,0.5 0,0.5 0,-0.375 0,-0.375 0,0.25 q 0,0.25 -0.03125,0.46875 l -0.03125,0.21875 0.01563,-0.109375 0.01563,-0.109375 -0.484375,0.01563 L 19,14 19,13.5"
           id="path54441" />
        <path
           style="fill:#958b6d;fill-opacity:1"
           d="M 2,14.5 2,14 2.5,14 3,14 3,14.5 3,15 2.5,15 2,15 2,14.5"
           id="path54443" />
        <path
           style="fill:#958a6b;fill-opacity:1"
           d="M 3,14.5 3,14 3.5,14 4,14 4,14.5 4,15 3.5,15 3,15 3,14.5"
           id="path54445" />
        <path
           style="fill:#92896a;fill-opacity:1"
           d="M 4,14.5 4,14 4.5,14 5,14 5,14.5 5,15 4.5,15 4,15 4,14.5"
           id="path54447" />
        <path
           style="fill:#8c8166;fill-opacity:1"
           d="M 5,14.5 5,14 5.5,14 6,14 6,14.5 6,15 5.5,15 5,15 5,14.5"
           id="path54449" />
        <path
           style="fill:#7c705c;fill-opacity:1"
           d="M 6,14.5 6,14 6.5,14 7,14 7,14.5 7,15 6.5,15 6,15 6,14.5"
           id="path54451" />
        <path
           style="fill:#968f73;fill-opacity:1"
           d="M 7,14.5 7,14 7.5,14 8,14 8,14.5 8,15 7.5,15 7,15 7,14.5"
           id="path54453" />
        <path
           style="fill:#ffffde;fill-opacity:1"
           d="M 8,14.5 8,14 8.5,14 9,14 8.875,14.375 q -0.125,0.375 -0.5,0.5 L 8,15 8,14.5"
           id="path54455" />
        <path
           style="fill:#cdc28d;fill-opacity:1"
           d="M 8.875,14.375 9,14 9.375,14.125 Q 9.75,14.25 10,14.5 L 10.25,14.75 10.0625,14.5625 9.875,14.375 10,14.5 q 0.125,0.125 0.28125,0.21875 L 10.4375,14.8125 10.359375,14.765625 10.28125,14.71875 10,15.03125 9.71875,15.34375 9.765625,15.390625 9.8125,15.4375 9.71875,15.34375 Q 9.625,15.25 9.5,15.25 l -0.125,0 0.1875,0 0.1875,0 -0.25,0 -0.25,0 0.1875,0 0.1875,0 -0.125,0 q -0.125,0 -0.21875,0.09375 L 9.1875,15.4375 9.234375,15.390625 9.28125,15.34375 8.984375,15.015625 8.6875,14.6875 8.625,14.75 8.5625,14.8125 8.6875,14.6875 Q 8.8125,14.5625 8.875,14.375 L 8.9375,14.1875 8.84375,14.46875 8.75,14.75 8.875,14.375"
           id="path54457" />
        <path
           style="fill:#eadfb9;fill-opacity:1"
           d="M 10,14.5 9.75,14.25 9.9375,14.4375 10.125,14.625 10,14.5 Q 9.875,14.375 9.71875,14.28125 L 9.5625,14.1875 9.640625,14.234375 9.71875,14.28125 10.015625,13.984375 10.3125,13.6875 10.25,13.625 l -0.0625,-0.0625 0.125,0.125 q 0.125,0.125 0.3125,0.1875 L 10.8125,13.9375 10.53125,13.84375 10.25,13.75 10.625,13.875 11,14 11,14.5 11,15 10.625,14.875 Q 10.25,14.75 10,14.5"
           id="path54459" />
        <path
           style="fill:#95b4bb;fill-opacity:1"
           d="m 11,14.5 0,-0.5 0.5,0 0.5,0 0,0.5 0,0.5 -0.5,0 -0.5,0 0,-0.5 m 0,0.125 0,0.375 0,0.125 0,0.125 0,-0.25 q 0,-0.25 0,-0.5 l 0,-0.25 0,0.375 m 1,0.5 0,-0.125 0,-0.375 0,-0.375 0,0.25 q 0,0.25 0,0.5 l 0,0.25 0,-0.125"
           id="path54461" />
        <path
           style="fill:#2c3f8a;fill-opacity:1"
           d="m 12,14.5 0,-0.5 0.5,0 0.5,0 0,0.5 0,0.5 -0.5,0 -0.5,0 0,-0.5 m 0,0.125 0,0.375 0,0.125 0,0.125 0,-0.25 q 0,-0.25 0,-0.5 l 0,-0.25 0,0.375"
           id="path54463" />
        <path
           style="fill:#464499;fill-opacity:1"
           d="m 13,14.5 0,-0.5 0.5,0 0.5,0 0,0.5 0,0.5 -0.5,0 -0.5,0 0,-0.5"
           id="path54465" />
        <path
           style="fill:#405d86;fill-opacity:1"
           d="m 14,14.5 0,-0.5 0.5,0 0.5,0 0,0.5 0,0.5 -0.5,0 -0.5,0 0,-0.5 m 0,0.125 0,0.375 0,0.125 0,0.125 0,-0.25 q 0,-0.25 0,-0.5 l 0,-0.25 0,0.375 m 0,-0.75 0,0.125 0,0.375 0,0.375 0,-0.25 q 0,-0.25 0,-0.5 l 0,-0.25 0,0.125"
           id="path54467" />
        <path
           style="fill:#2a2d3d;fill-opacity:1"
           d="m 15,14.5 0,-0.5 0.5,0 0.5,0 -0.125,0.375 q -0.125,0.375 -0.5,0.5 L 15,15 15,14.5"
           id="path54469" />
        <path
           style="fill:#272734;fill-opacity:1"
           d="M 15.875,14.375 16,14 l 0.5,0 0.5,0 0.125,0.375 0.125,0.375 -0.09375,-0.28125 -0.09375,-0.28125 0.0625,0.1875 q 0.0625,0.1875 0.1875,0.3125 l 0.125,0.125 L 17.375,14.75 17.3125,14.6875 17.03125,14.96875 Q 16.75,15.25 16.5,15.25 q -0.25,0 -0.53125,-0.28125 L 15.6875,14.6875 15.625,14.75 l -0.0625,0.0625 0.125,-0.125 q 0.125,-0.125 0.1875,-0.3125 L 15.9375,14.1875 15.84375,14.46875 15.75,14.75 15.875,14.375"
           id="path54471" />
        <path
           style="fill:#1e2336;fill-opacity:1"
           d="M 17.125,14.375 17,14 l 0.5,0 0.5,0 0,0.5 0,0.5 -0.375,-0.125 q -0.375,-0.125 -0.5,-0.5"
           id="path54473" />
        <path
           style="fill:#131a32;fill-opacity:1"
           d="m 18,14.5 0,-0.5 0.5,0 0.5,0 0.125,0.375 0.125,0.375 -0.09375,-0.28125 -0.09375,-0.28125 0.0625,0.1875 q 0.0625,0.1875 0.15625,0.28125 L 19.375,14.75 19.328125,14.703125 19.28125,14.65625 18.984375,14.984375 18.6875,15.3125 18.75,15.375 l 0.0625,0.0625 -0.125,-0.125 Q 18.5625,15.1875 18.375,15.125 L 18.1875,15.0625 18.46875,15.15625 18.75,15.25 18.375,15.125 18,15 18,14.5"
           id="path54475" />
        <path
           style="fill:#0e152e;fill-opacity:1"
           d="M 19.125,14.375 19,14 19.484375,13.984375 19.96875,13.96875 19.984375,13.859375 20,13.75 19.96875,13.96875 Q 19.9375,14.1875 19.875,14.375 L 19.8125,14.5625 19.90625,14.28125 20,14 19.875,14.375 Q 19.75,14.75 19.5,14.75 q -0.25,0 -0.375,-0.375"
           id="path54477" />
        <path
           style="fill:#a2957a;fill-opacity:1"
           d="M 2,15.5 2,15 2.5,15 3,15 3,15.5 3,16 2.5,16 2,16 2,15.5"
           id="path54479" />
        <path
           style="fill:#a19579;fill-opacity:1"
           d="M 3,15.5 3,15 3.5,15 4,15 4,15.5 4,16 3.5,16 3,16 3,15.5"
           id="path54481" />
        <path
           style="fill:#a09276;fill-opacity:1"
           d="M 4,15.5 4,15 4.5,15 5,15 5,15.5 5,16 4.5,16 4,16 4,15.5"
           id="path54483" />
        <path
           style="fill:#998c71;fill-opacity:1"
           d="M 5,15.5 5,15 5.5,15 6,15 6,15.5 6,16 5.5,16 5,16 5,15.5"
           id="path54485" />
        <path
           style="fill:#8a7d67;fill-opacity:1"
           d="M 6,15.5 6,15 6.5,15 7,15 7,15.5 7,16 6.5,16 6,16 6,15.5"
           id="path54487" />
        <path
           style="fill:#938a6d;fill-opacity:1"
           d="M 7,15.5 7,15 7.5,15 8,15 8,15.5 8,16 7.5,16 7,16 7,15.5"
           id="path54489" />
        <path
           style="fill:#e7e0b5;fill-opacity:1"
           d="M 8,15.5 8,15 8.375,14.875 8.75,14.75 8.46875,14.84375 8.1875,14.9375 8.375,14.875 Q 8.5625,14.8125 8.6875,14.6875 L 8.8125,14.5625 8.75,14.625 8.6875,14.6875 8.984375,15.015625 9.28125,15.34375 9.328125,15.296875 9.375,15.25 9.28125,15.34375 Q 9.1875,15.4375 9.125,15.625 L 9.0625,15.8125 9.15625,15.53125 9.25,15.25 9.125,15.625 9,16 8.5,16 8,16 8,15.5 M 7.875,16 8,16 8.375,16 8.75,16 8.5,16 Q 8.25,16 8,16 l -0.25,0 0.125,0"
           id="path54491" />
        <path
           style="fill:#cfc287;fill-opacity:1"
           d="M 9.125,15.625 Q 9.25,15.25 9.5,15.25 q 0.25,0 0.375,0.375 L 10,16 9.5,16 9,16 9.125,15.625"
           id="path54493" />
        <path
           style="fill:#ede4b4;fill-opacity:1"
           d="M 9.875,15.625 9.75,15.25 9.84375,15.53125 9.9375,15.8125 9.875,15.625 Q 9.8125,15.4375 9.71875,15.34375 L 9.625,15.25 9.671875,15.296875 9.71875,15.34375 10,15.03125 10.28125,14.71875 10.203125,14.671875 10.125,14.625 10.28125,14.71875 Q 10.4375,14.8125 10.625,14.875 L 10.8125,14.9375 10.53125,14.84375 10.25,14.75 10.625,14.875 11,15 11,15.5 11,16 10.5,16 10,16 9.875,15.625"
           id="path54495" />
        <path
           style="fill:#8698a2;fill-opacity:1"
           d="m 11,15.5 0,-0.5 0.5,0 0.5,0 0,0.5 0,0.5 -0.5,0 -0.5,0 0,-0.5 M 12,15.375 12,15 12,14.875 12,14.75 12,15 q 0,0.25 0,0.5 l 0,0.25 0,-0.375 m -1,-0.5 0,0.125 0,0.375 0,0.375 0,-0.25 q 0,-0.25 0,-0.5 l 0,-0.25 0,0.125"
           id="path54497" />
        <path
           style="fill:#142271;fill-opacity:1"
           d="m 12,15.5 0,-0.5 0.5,0 0.5,0 0,0.5 0,0.5 -0.5,0 -0.5,0 0,-0.5 M 12.625,16 13,16 13.125,16 13.25,16 13,16 q -0.25,0 -0.5,0 l -0.25,0 0.375,0 M 12,14.875 12,15 l 0,0.375 0,0.375 0,-0.25 q 0,-0.25 0,-0.5 l 0,-0.25 0,0.125"
           id="path54499" />
        <path
           style="fill:#282576;fill-opacity:1"
           d="m 13,15.5 0,-0.5 0.5,0 0.5,0 0,0.5 0,0.5 -0.5,0 -0.5,0 0,-0.5 M 12.875,16 13,16 l 0.375,0 0.375,0 -0.25,0 q -0.25,0 -0.5,0 l -0.25,0 0.125,0"
           id="path54501" />
        <path
           style="fill:#0a0d3a;fill-opacity:1"
           d="m 14,15.5 0,-0.5 0.5,0 0.5,0 0,0.5 0,0.5 -0.5,0 -0.5,0 0,-0.5 m 1,0.625 0,-0.125 0,-0.375 0,-0.375 0,0.25 q 0,0.25 0,0.5 l 0,0.25 0,-0.125 m -1,-1.25 0,0.125 0,0.375 0,0.375 0,-0.25 q 0,-0.25 0,-0.5 l 0,-0.25 0,0.125"
           id="path54503" />
        <path
           style="fill:#000000;fill-opacity:1"
           d="M 15,15.5 15,15 15.375,14.875 15.75,14.75 15.46875,14.84375 15.1875,14.9375 15.375,14.875 q 0.1875,-0.0625 0.3125,-0.1875 l 0.125,-0.125 -0.0625,0.0625 -0.0625,0.0625 0.28125,0.28125 Q 16.25,15.25 16.5,15.25 q 0.25,0 0.53125,-0.28125 L 17.3125,14.6875 17.25,14.625 l -0.0625,-0.0625 0.125,0.125 q 0.125,0.125 0.3125,0.1875 L 17.8125,14.9375 17.53125,14.84375 17.25,14.75 17.625,14.875 18,15 18,15.5 18,16 17.625,16.125 17.25,16.25 17.53125,16.15625 17.8125,16.0625 17.625,16.125 q -0.1875,0.0625 -0.3125,0.1875 l -0.125,0.125 0.0625,-0.0625 0.0625,-0.0625 -0.28125,-0.28125 Q 16.75,15.75 16.375,15.875 L 16,16 15.5,16 15,16 15,15.5"
           id="path54505" />
        <path
           style="fill:#000003;fill-opacity:1"
           d="m 18,15.5 0,-0.5 0.375,0.125 q 0.375,0.125 0.5,0.5 L 19,16 18.5,16 18,16 18,15.5"
           id="path54507" />
        <path
           style="fill:#00000f;fill-opacity:1"
           d="M 18.875,15.625 18.75,15.25 18.84375,15.53125 18.9375,15.8125 18.875,15.625 q -0.0625,-0.1875 -0.1875,-0.3125 l -0.125,-0.125 0.0625,0.0625 0.0625,0.0625 0.296875,-0.328125 0.296875,-0.328125 -0.04687,-0.04687 -0.04687,-0.04687 0.09375,0.09375 Q 19.375,14.75 19.5,14.75 l 0.125,0 -0.1875,0 -0.1875,0 0.25,0 0.25,0 -0.1875,0 -0.1875,0 0.125,0 q 0.125,0 0.21875,-0.09375 l 0.09375,-0.09375 -0.04687,0.04687 -0.04687,0.04687 0.265625,0.296875 Q 20.25,15.25 20.25,15.5 q 0,0.25 -0.28125,0.53125 l -0.28125,0.28125 0.0625,0.0625 0.0625,0.0625 -0.125,-0.125 Q 19.5625,16.1875 19.375,16.125 L 19.1875,16.0625 19.46875,16.15625 19.75,16.25 19.375,16.125 19,16 18.875,15.625"
           id="path54509" />
        <path
           style="fill:#a19574;fill-opacity:1"
           d="M 2,16.5 2,16 2.5,16 3,16 3,16.5 3,17 2.5,17 2,17 2,16.5"
           id="path54511" />
        <path
           style="fill:#a19674;fill-opacity:1"
           d="M 3,16.5 3,16 3.5,16 4,16 4,16.5 4,17 3.5,17 3,17 3,16.5"
           id="path54513" />
        <path
           style="fill:#a19576;fill-opacity:1"
           d="M 4,16.5 4,16 4.5,16 5,16 5,16.5 5,17 4.5,17 4,17 4,16.5"
           id="path54515" />
        <path
           style="fill:#9d9175;fill-opacity:1"
           d="M 5,16.5 5,16 5.5,16 6,16 6.125,16.375 6.25,16.75 6.15625,16.46875 6.0625,16.1875 6.125,16.375 q 0.0625,0.1875 0.15625,0.34375 L 6.375,16.875 6.328125,16.796875 6.28125,16.71875 6,17 5.71875,17.28125 5.796875,17.328125 5.875,17.375 5.71875,17.28125 Q 5.5625,17.1875 5.375,17.125 L 5.1875,17.0625 5.46875,17.15625 5.75,17.25 5.375,17.125 5,17 5,16.5"
           id="path54517" />
        <path
           style="fill:#978b71;fill-opacity:1"
           d="M 6.125,16.375 6,16 6.5,16 7,16 7.125,16.375 7.25,16.75 7.15625,16.46875 7.0625,16.1875 7.125,16.375 q 0.0625,0.1875 0.15625,0.34375 L 7.375,16.875 7.328125,16.796875 7.28125,16.71875 7,17 6.71875,17.28125 6.765625,17.359375 6.8125,17.4375 6.71875,17.28125 Q 6.625,17.125 6.5,17 L 6.375,16.875 6.5625,17.0625 6.75,17.25 6.5,17 Q 6.25,16.75 6.125,16.375"
           id="path54519" />
        <path
           style="fill:#877d68;fill-opacity:1"
           d="M 7.125,16.375 7,16 7.5,16 8,16 8.125,16.375 8.25,16.75 8.15625,16.46875 8.0625,16.1875 8.125,16.375 q 0.0625,0.1875 0.1875,0.3125 l 0.125,0.125 L 8.375,16.75 8.3125,16.6875 8.015625,16.984375 7.71875,17.28125 7.765625,17.359375 7.8125,17.4375 7.71875,17.28125 Q 7.625,17.125 7.5,17 L 7.375,16.875 7.5625,17.0625 7.75,17.25 7.5,17 Q 7.25,16.75 7.125,16.375"
           id="path54521" />
        <path
           style="fill:#6c6455;fill-opacity:1"
           d="M 8.125,16.375 8,16 8.5,16 9,16 9,16.5 9,17 8.625,16.875 q -0.375,-0.125 -0.5,-0.5"
           id="path54523" />
        <path
           style="fill:#2a2620;fill-opacity:1"
           d="M 9,16.5 9,16 9.5,16 10,16 10,16.5 10,17 9.5,17 9,17 9,16.5 M 9.625,17 10,17 10.125,17 10.25,17 10,17 q -0.25,0 -0.5,0 l -0.25,0 0.375,0"
           id="path54525" />
        <path
           style="fill:#403e31;fill-opacity:1"
           d="m 10,16.5 0,-0.5 0.5,0 0.5,0 0,0.5 0,0.5 -0.5,0 -0.5,0 0,-0.5 M 9.875,17 10,17 l 0.375,0 0.375,0 -0.25,0 q -0.25,0 -0.5,0 l -0.25,0 0.125,0 m 0.75,0 0.375,0 0.125,0 0.125,0 -0.25,0 q -0.25,0 -0.5,0 l -0.25,0 0.375,0"
           id="path54527" />
        <path
           style="fill:#6e6b75;fill-opacity:1"
           d="m 11,16.5 0,-0.5 0.5,0 0.5,0 0,0.5 0,0.5 -0.5,0 -0.5,0 0,-0.5 M 10.875,17 11,17 l 0.375,0 0.375,0 -0.25,0 q -0.25,0 -0.5,0 l -0.25,0 0.125,0 m 0.75,0 0.375,0 0.125,0 0.125,0 -0.25,0 q -0.25,0 -0.5,0 l -0.25,0 0.375,0"
           id="path54529" />
        <path
           style="fill:#b5b6ce;fill-opacity:1"
           d="m 12,16.5 0,-0.5 0.5,0 0.5,0 0,0.5 0,0.5 -0.5,0 -0.5,0 0,-0.5 M 11.875,17 12,17 l 0.375,0 0.375,0 -0.25,0 q -0.25,0 -0.5,0 l -0.25,0 0.125,0"
           id="path54531" />
        <path
           style="fill:#8c88a1;fill-opacity:1"
           d="m 13,16.5 0,-0.5 0.5,0 0.5,0 0,0.5 0,0.5 -0.5,0 -0.5,0 0,-0.5"
           id="path54533" />
        <path
           style="fill:#1e1a30;fill-opacity:1"
           d="m 14,16.5 0,-0.5 0.5,0 0.5,0 0,0.5 0,0.5 -0.5,0 -0.5,0 0,-0.5 M 14.625,17 15,17 15.125,17 15.25,17 15,17 q -0.25,0 -0.5,0 l -0.25,0 0.375,0"
           id="path54535" />
        <path
           style="fill:#15151c;fill-opacity:1"
           d="m 15,16.5 0,-0.5 0.5,0 0.5,0 0,0.5 0,0.5 -0.5,0 -0.5,0 0,-0.5 M 14.875,17 15,17 l 0.375,0 0.375,0 -0.25,0 q -0.25,0 -0.5,0 l -0.25,0 0.125,0"
           id="path54537" />
        <path
           style="fill:#2a2933;fill-opacity:1"
           d="m 16,16.5 0,-0.5 0.375,-0.125 q 0.375,-0.125 0.65625,0.15625 l 0.28125,0.28125 0.0625,-0.0625 0.0625,-0.0625 -0.125,0.125 q -0.125,0.125 -0.1875,0.3125 L 17.0625,16.8125 17.15625,16.53125 17.25,16.25 17.125,16.625 17,17 16.5,17 16,17 16,16.5"
           id="path54539" />
        <path
           style="fill:#373e49;fill-opacity:1"
           d="m 17.125,16.625 q 0.125,-0.375 0.5,-0.5 L 18,16 l 0,0.5 0,0.5 -0.5,0 -0.5,0 0.125,-0.375"
           id="path54541" />
        <path
           style="fill:#404f5f;fill-opacity:1"
           d="m 18,16.5 0,-0.5 0.5,0 0.5,0 0,0.5 0,0.5 -0.5,0 -0.5,0 0,-0.5"
           id="path54543" />
        <path
           style="fill:#465d71;fill-opacity:1"
           d="m 19,16.5 0,-0.5 0.375,0.125 q 0.375,0.125 0.5,0.5 L 20,17 19.5,17 19,17 19,16.5"
           id="path54545" />
        <path
           style="fill:#aa9d74;fill-opacity:1"
           d="M 2,17.5 2,17 2.5,17 3,17 3,17.5 3,18 2.5,18 2,18 2,17.5"
           id="path54547" />
        <path
           style="fill:#ac9f75;fill-opacity:1"
           d="M 3,17.5 3,17 3.5,17 4,17 4,17.5 4,18 3.5,18 3,18 3,17.5"
           id="path54549" />
        <path
           style="fill:#aa9f73;fill-opacity:1"
           d="M 4,17.5 4,17 4.5,17 5,17 4.875,17.375 q -0.125,0.375 -0.5,0.5 L 4,18 4,17.5"
           id="path54551" />
        <path
           style="fill:#a79b70;fill-opacity:1"
           d="M 4.875,17.375 5,17 5.375,17.125 Q 5.75,17.25 6,17.5 L 6.25,17.75 6.0625,17.5625 5.875,17.375 6,17.5 q 0.125,0.125 0.28125,0.21875 L 6.4375,17.8125 6.359375,17.765625 6.28125,17.71875 6,18.03125 5.71875,18.34375 5.765625,18.390625 5.8125,18.4375 5.71875,18.34375 Q 5.625,18.25 5.5,18.25 l -0.125,0 0.1875,0 0.1875,0 -0.25,0 -0.25,0 0.1875,0 0.1875,0 -0.125,0 q -0.125,0 -0.21875,0.09375 L 5.1875,18.4375 5.234375,18.390625 5.28125,18.34375 4.984375,18.015625 4.6875,17.6875 4.625,17.75 4.5625,17.8125 4.6875,17.6875 Q 4.8125,17.5625 4.875,17.375 L 4.9375,17.1875 4.84375,17.46875 4.75,17.75 4.875,17.375"
           id="path54553" />
        <path
           style="fill:#9e926b;fill-opacity:1"
           d="M 6,17.5 5.75,17.25 5.9375,17.4375 6.125,17.625 6,17.5 Q 5.875,17.375 5.71875,17.28125 L 5.5625,17.1875 5.640625,17.234375 5.71875,17.28125 6,17 6.28125,16.71875 6.234375,16.640625 6.1875,16.5625 6.28125,16.71875 Q 6.375,16.875 6.5,17 L 6.625,17.125 6.4375,16.9375 6.25,16.75 6.5,17 q 0.25,0.25 0.375,0.625 L 7,18 6.625,17.875 Q 6.25,17.75 6,17.5"
           id="path54555" />
        <path
           style="fill:#948965;fill-opacity:1"
           d="M 6.875,17.625 6.75,17.25 6.84375,17.53125 6.9375,17.8125 6.875,17.625 Q 6.8125,17.4375 6.71875,17.28125 L 6.625,17.125 6.671875,17.203125 6.71875,17.28125 7,17 7.28125,16.71875 7.234375,16.640625 7.1875,16.5625 7.28125,16.71875 Q 7.375,16.875 7.5,17 L 7.625,17.125 7.4375,16.9375 7.25,16.75 7.5,17 q 0.25,0.25 0.375,0.625 L 8,18 7.5,18 7,18 6.875,17.625"
           id="path54557" />
        <path
           style="fill:#aba17d;fill-opacity:1"
           d="M 7.875,17.625 7.75,17.25 7.84375,17.53125 7.9375,17.8125 7.875,17.625 Q 7.8125,17.4375 7.71875,17.28125 L 7.625,17.125 7.671875,17.203125 7.71875,17.28125 8.015625,16.984375 8.3125,16.6875 8.25,16.625 8.1875,16.5625 l 0.125,0.125 q 0.125,0.125 0.3125,0.1875 L 8.8125,16.9375 8.53125,16.84375 8.25,16.75 8.625,16.875 9,17 9,17.5 9,18 8.5,18 8,18 7.875,17.625"
           id="path54559" />
        <path
           style="fill:#b9b7a5;fill-opacity:1"
           d="M 9,17.5 9,17 9.5,17 10,17 10,17.5 10,18 9.5,18 9,18 9,17.5 M 10.125,17 10,17 9.625,17 9.25,17 9.5,17 q 0.25,0 0.5,0 l 0.25,0 -0.125,0"
           id="path54561" />
        <path
           style="fill:#dbdfdf;fill-opacity:1"
           d="m 10,17.5 0,-0.5 0.5,0 0.5,0 0,0.5 Q 11,18 10.5,18 L 10,18 10,17.5 M 11.125,17 11,17 l -0.375,0 -0.375,0 0.25,0 q 0.25,0 0.5,0 l 0.25,0 -0.125,0 M 10.375,17 10,17 9.875,17 9.75,17 10,17 q 0.25,0 0.5,0 l 0.25,0 -0.375,0"
           id="path54563" />
        <path
           style="fill:#ffffff;fill-opacity:1"
           d="m 11,17.5 0,-0.5 0.5,0 q 0.5,0 1,0 l 0.5,0 0.5,0 0.5,0 -0.125,0.375 q -0.125,0.375 -0.5,0.5 L 13,18 12.5,18 Q 12,18 12,18.5 l 0,0.5 -0.5,0 -0.5,0 -0.5,0 -0.5,0 0.375,0 0.375,0 -0.25,0 q -0.25,0 -0.46875,-0.03125 L 9.8125,18.9375 9.921875,18.953125 10.03125,18.96875 10.015625,18.484375 10,18 10.5,18 Q 11,18 11,17.5 M 11.375,17 11,17 10.875,17 10.75,17 11,17 q 0.25,0 0.5,0 l 0.25,0 -0.375,0"
           id="path54565" />
        <path
           style="fill:#cdcbde;fill-opacity:1"
           d="M 13.875,17.375 14,17 l 0.5,0 0.5,0 -0.125,0.375 Q 14.75,17.75 14.5,18 L 14.25,18.25 14.4375,18.0625 14.625,17.875 14.5,18 q -0.125,0.125 -0.21875,0.28125 l -0.09375,0.15625 0.04687,-0.07813 0.04687,-0.07813 L 13.984375,17.984375 13.6875,17.6875 13.625,17.75 l -0.0625,0.0625 0.125,-0.125 q 0.125,-0.125 0.1875,-0.3125 L 13.9375,17.1875 13.84375,17.46875 13.75,17.75 13.875,17.375 M 15.125,17 15,17 l -0.375,0 -0.375,0 0.25,0 q 0.25,0 0.5,0 l 0.25,0 -0.125,0"
           id="path54567" />
        <path
           style="fill:#9c9ca2;fill-opacity:1"
           d="M 14.875,17.375 15,17 l 0.5,0 0.5,0 0.125,0.375 0.125,0.375 -0.09375,-0.28125 -0.09375,-0.28125 0.0625,0.1875 q 0.0625,0.1875 0.1875,0.3125 l 0.125,0.125 L 16.375,17.75 16.3125,17.6875 16,18 15.6875,18.3125 15.71875,18.34375 15.75,18.375 15.6875,18.3125 Q 15.625,18.25 15.5,18.25 l -0.125,0 0.1875,0 0.1875,0 -0.25,0 -0.25,0 0.1875,0 0.1875,0 -0.125,0 q -0.125,0 -0.21875,0.09375 l -0.09375,0.09375 0.04687,-0.04687 0.04687,-0.04687 L 15,18.03125 14.71875,17.71875 14.671875,17.796875 14.625,17.875 14.71875,17.71875 Q 14.8125,17.5625 14.875,17.375 L 14.9375,17.1875 14.84375,17.46875 14.75,17.75 14.875,17.375 M 15.375,17 15,17 14.875,17 14.75,17 15,17 q 0.25,0 0.5,0 l 0.25,0 -0.375,0"
           id="path54569" />
        <path
           style="fill:#6f7276;fill-opacity:1"
           d="M 16.125,17.375 16,17 l 0.5,0 0.5,0 0,0.5 0,0.5 -0.375,-0.125 q -0.375,-0.125 -0.5,-0.5"
           id="path54571" />
        <path
           style="fill:#5a5e68;fill-opacity:1"
           d="m 17,17.5 0,-0.5 0.5,0 0.5,0 0.125,0.375 0.125,0.375 -0.09375,-0.28125 -0.09375,-0.28125 0.0625,0.1875 q 0.0625,0.1875 0.15625,0.34375 L 18.375,17.875 18.328125,17.796875 18.28125,17.71875 17.96875,18 l -0.3125,0.28125 0.04687,0.04687 L 17.75,18.375 17.65625,18.28125 Q 17.5625,18.1875 17.375,18.125 L 17.1875,18.0625 17.46875,18.15625 17.75,18.25 17.375,18.125 17,18 17,17.5"
           id="path54573" />
        <path
           style="fill:#505d6d;fill-opacity:1"
           d="M 18.125,17.375 18,17 l 0.5,0 0.5,0 0.125,0.375 0.125,0.375 -0.09375,-0.28125 -0.09375,-0.28125 0.0625,0.1875 q 0.0625,0.1875 0.1875,0.3125 l 0.125,0.125 L 19.375,17.75 19.3125,17.6875 19.03125,17.96875 18.75,18.25 18.5,18 Q 18.25,17.75 18.125,17.375 M 18.5625,18.0625 18.75,18.25 18.8125,18.3125 18.875,18.375 18.75,18.25 Q 18.625,18.125 18.5,18 l -0.125,-0.125 0.1875,0.1875"
           id="path54575" />
        <path
           style="fill:#506379;fill-opacity:1"
           d="M 19.125,17.375 19,17 l 0.5,0 0.5,0 0,0.5 0,0.5 -0.375,-0.125 q -0.375,-0.125 -0.5,-0.5 M 20,18.125 20,18 l 0,-0.375 0,-0.375 0,0.25 q 0,0.25 0,0.5 l 0,0.25 0,-0.125"
           id="path54577" />
        <path
           style="fill:#ac9e7c;fill-opacity:1"
           d="M 2,18.5 2,18 2.5,18 3,18 3,18.5 3,19 2.5,19 2,19 2,18.5"
           id="path54579" />
        <path
           style="fill:#ada07c;fill-opacity:1"
           d="M 3,18.5 3,18 3.5,18 4,18 4.375,17.875 4.75,17.75 4.46875,17.84375 4.1875,17.9375 4.375,17.875 Q 4.5625,17.8125 4.6875,17.6875 L 4.8125,17.5625 4.75,17.625 4.6875,17.6875 4.984375,18.015625 5.28125,18.34375 5.328125,18.296875 5.375,18.25 5.28125,18.34375 Q 5.1875,18.4375 5.125,18.625 L 5.0625,18.8125 5.15625,18.53125 5.25,18.25 5.125,18.625 5,19 4.5,19 4,19 3.5,19 3,19 3,18.5"
           id="path54581" />
        <path
           style="fill:#c1b69b;fill-opacity:1"
           d="M 5.125,18.625 Q 5.25,18.25 5.5,18.25 q 0.25,0 0.375,0.375 L 6,19 5.5,19 5,19 5.125,18.625"
           id="path54583" />
        <path
           style="fill:#b1a484;fill-opacity:1"
           d="M 5.875,18.625 5.75,18.25 5.84375,18.53125 5.9375,18.8125 5.875,18.625 Q 5.8125,18.4375 5.71875,18.34375 L 5.625,18.25 5.671875,18.296875 5.71875,18.34375 6,18.03125 6.28125,17.71875 6.203125,17.671875 6.125,17.625 6.28125,17.71875 Q 6.4375,17.8125 6.625,17.875 L 6.8125,17.9375 6.53125,17.84375 6.25,17.75 6.625,17.875 7,18 7,18.5 7,19 6.5,19 6,19 5.875,18.625"
           id="path54585" />
        <path
           style="fill:#ac9e7c;fill-opacity:1"
           d="M 7,18.5 7,18 7.5,18 8,18 8,18.5 8,19 7.5,19 7,19 7,18.5"
           id="path54587" />
        <path
           style="fill:#b5aa89;fill-opacity:1"
           d="M 8,18.5 8,18 8.5,18 9,18 9.125,18.375 9.25,18.75 9.15625,18.46875 9.0625,18.1875 9.125,18.375 q 0.0625,0.1875 0.1875,0.3125 l 0.125,0.125 L 9.375,18.75 9.3125,18.6875 9,19 8.6875,19.3125 8.75,19.375 8.8125,19.4375 8.6875,19.3125 Q 8.5625,19.1875 8.375,19.125 L 8.1875,19.0625 8.46875,19.15625 8.75,19.25 8.375,19.125 8,19 8,18.5"
           id="path54589" />
        <path
           style="fill:#e4e3d0;fill-opacity:1"
           d="M 9.125,18.375 9,18 l 0.5,0 0.5,0 0.01563,0.484375 0.01563,0.484375 0.109375,0.01563 L 10.25,19 10.03125,18.96875 Q 9.8125,18.9375 9.625,18.875 L 9.4375,18.8125 9.71875,18.90625 10,19 9.625,18.875 q -0.375,-0.125 -0.5,-0.5"
           id="path54591" />
        <path
           style="fill:#f9fbfd;fill-opacity:1"
           d="M 12,18.5 Q 12,18 12.5,18 l 0.5,0 0,0.5 0,0.5 -0.5,0 -0.5,0 0,-0.5"
           id="path54593" />
        <path
           style="fill:#e0e2e9;fill-opacity:1"
           d="M 13,18.5 13,18 13.375,17.875 13.75,17.75 13.46875,17.84375 13.1875,17.9375 13.375,17.875 q 0.1875,-0.0625 0.3125,-0.1875 l 0.125,-0.125 -0.0625,0.0625 -0.0625,0.0625 0.296875,0.296875 0.296875,0.296875 0.04687,-0.07813 L 14.375,18.125 14.28125,18.28125 Q 14.1875,18.4375 14.125,18.625 L 14.0625,18.8125 14.15625,18.53125 14.25,18.25 14.125,18.625 14,19 13.5,19 13,19 13,18.5"
           id="path54595" />
        <path
           style="fill:#c9cbd4;fill-opacity:1"
           d="M 14.125,18.625 Q 14.25,18.25 14.5,18 L 14.75,17.75 14.5625,17.9375 14.375,18.125 14.5,18 q 0.125,-0.125 0.21875,-0.28125 l 0.09375,-0.15625 -0.04687,0.07813 -0.04687,0.07813 0.28125,0.3125 0.28125,0.3125 0.04687,-0.04687 L 15.375,18.25 15.28125,18.34375 Q 15.1875,18.4375 15.125,18.625 L 15.0625,18.8125 15.15625,18.53125 15.25,18.25 15.125,18.625 15,19 14.5,19 14,19 14.125,18.625"
           id="path54597" />
        <path
           style="fill:#b1b2b3;fill-opacity:1"
           d="M 15.125,18.625 Q 15.25,18.25 15.5,18.25 q 0.25,0 0.25,0.25 0,0.25 -0.375,0.375 L 15,19 15.125,18.625"
           id="path54599" />
        <path
           style="fill:#757775;fill-opacity:1"
           d="m 15.75,18.5 0,-0.25 0,0.1875 0,0.1875 0,-0.125 q 0,-0.125 -0.0625,-0.1875 L 15.625,18.25 15.65625,18.28125 15.6875,18.3125 16,18 16.3125,17.6875 16.25,17.625 l -0.0625,-0.0625 0.125,0.125 q 0.125,0.125 0.3125,0.1875 L 16.8125,17.9375 16.53125,17.84375 16.25,17.75 16.625,17.875 17,18 17,18.5 17,19 16.625,19.125 16.25,19.25 16.53125,19.15625 16.8125,19.0625 16.625,19.125 q -0.1875,0.0625 -0.3125,0.1875 l -0.125,0.125 0.0625,-0.0625 0.0625,-0.0625 -0.328125,-0.296875 -0.328125,-0.296875 -0.04687,0.04687 -0.04687,0.04687 0.09375,-0.09375 Q 15.75,18.625 15.75,18.5 l 0,-0.125 0,0.1875 0,0.1875 0,-0.25"
           id="path54601" />
        <path
           style="fill:#515555;fill-opacity:1"
           d="m 17,18.5 0,-0.5 0.375,0.125 q 0.375,0.125 0.375,0.375 0,0.25 -0.375,0.375 L 17,19 17,18.5"
           id="path54603" />
        <path
           style="fill:#4f5658;fill-opacity:1"
           d="m 17.75,18.5 0,-0.25 0,0.1875 0,0.1875 0,-0.125 q 0,-0.125 -0.09375,-0.21875 l -0.09375,-0.09375 0.04687,0.04687 0.04687,0.04687 0.3125,-0.28125 0.3125,-0.28125 -0.04687,-0.07813 -0.04687,-0.07813 0.09375,0.15625 Q 18.375,17.875 18.5,18 L 18.625,18.125 18.4375,17.9375 18.25,17.75 18.5,18 q 0.25,0.25 0.5,0.5 L 19.25,18.75 19.0625,18.5625 18.875,18.375 19,18.5 q 0.125,0.125 0.28125,0.21875 l 0.15625,0.09375 -0.07813,-0.04687 -0.07813,-0.04687 -0.28125,0.3125 -0.28125,0.3125 0.04687,0.04687 0.04687,0.04687 -0.09375,-0.09375 Q 18.625,19.25 18.5,19.25 l -0.125,0 0.1875,0 0.1875,0 -0.25,0 -0.25,0 0.1875,0 0.1875,0 -0.125,0 q -0.125,0 -0.21875,0.09375 l -0.09375,0.09375 0.04687,-0.04687 0.04687,-0.04687 -0.3125,-0.3125 -0.3125,-0.3125 -0.04687,0.04687 -0.04687,0.04687 0.09375,-0.09375 Q 17.75,18.625 17.75,18.5 l 0,-0.125 0,0.1875 0,0.1875 0,-0.25"
           id="path54605" />
        <path
           style="fill:#4d5a62;fill-opacity:1"
           d="M 19,18.5 18.75,18.25 19.03125,17.96875 19.3125,17.6875 19.25,17.625 l -0.0625,-0.0625 0.125,0.125 q 0.125,0.125 0.3125,0.1875 L 19.8125,17.9375 19.53125,17.84375 19.25,17.75 19.625,17.875 20,18 20,18.5 20,19 19.625,18.875 Q 19.25,18.75 19,18.5 M 20,18.375 20,18 20,17.875 20,17.75 20,18 q 0,0.25 0,0.5 l 0,0.25 0,-0.375 M 18.6875,18.1875 18.75,18.25 18.9375,18.4375 19.125,18.625 19,18.5 q -0.125,-0.125 -0.25,-0.25 l -0.125,-0.125 0.0625,0.0625"
           id="path54607" />
        <path
           style="fill:#a69a7d;fill-opacity:1"
           d="M 2.125,19.375 2,19 2.5,19 3,19 3,19.5 3,20 2.625,19.875 q -0.375,-0.125 -0.5,-0.5"
           id="path54609" />
        <path
           style="fill:#aa9d7e;fill-opacity:1"
           d="M 3,19.5 3,19 3.5,19 4,19 4,19.5 4,20 3.5,20 3,20 3,19.5"
           id="path54611" />
        <path
           style="fill:#ae9f80;fill-opacity:1"
           d="M 4,19.5 4,19 4.5,19 5,19 5,19.5 5,20 4.5,20 4,20 4,19.5"
           id="path54613" />
        <path
           style="fill:#aea07f;fill-opacity:1"
           d="M 5,19.5 5,19 5.5,19 6,19 6,19.5 6,20 5.5,20 5,20 5,19.5"
           id="path54615" />
        <path
           style="fill:#ac9e7c;fill-opacity:1"
           d="M 6,19.5 6,19 6.5,19 7,19 7,19.5 7,20 6.5,20 6,20 6,19.5"
           id="path54617" />
        <path
           style="fill:#c1b69b;fill-opacity:1"
           d="M 7,19.5 7,19 7.5,19 8,19 8,19.5 8,20 7.5,20 7,20 7,19.5"
           id="path54619" />
        <path
           style="fill:#a5987b;fill-opacity:1"
           d="M 8,19.5 8,19 8.375,19.125 q 0.375,0.125 0.5,0.5 L 9,20 8.5,20 8,20 8,19.5"
           id="path54621" />
        <path
           style="fill:#a7a089;fill-opacity:1"
           d="M 8.875,19.625 8.75,19.25 8.84375,19.53125 8.9375,19.8125 8.875,19.625 Q 8.8125,19.4375 8.6875,19.3125 L 8.5625,19.1875 8.625,19.25 8.6875,19.3125 9,19 9.3125,18.6875 9.25,18.625 9.1875,18.5625 l 0.125,0.125 q 0.125,0.125 0.3125,0.1875 L 9.8125,18.9375 9.53125,18.84375 9.25,18.75 9.625,18.875 10,19 10,19.5 10,20 9.5,20 9,20 8.875,19.625"
           id="path54623" />
        <path
           style="fill:#a19e8e;fill-opacity:1"
           d="m 10,19.5 0,-0.5 0.5,0 0.5,0 0,0.5 0,0.5 -0.5,0 -0.5,0 0,-0.5"
           id="path54625" />
        <path
           style="fill:#a6a39a;fill-opacity:1"
           d="m 11,19.5 0,-0.5 0.5,0 0.5,0 0,0.5 0,0.5 -0.5,0 -0.5,0 0,-0.5"
           id="path54627" />
        <path
           style="fill:#9c9994;fill-opacity:1"
           d="m 12,19.5 0,-0.5 0.5,0 0.5,0 0,0.5 0,0.5 -0.5,0 -0.5,0 0,-0.5"
           id="path54629" />
        <path
           style="fill:#8c8785;fill-opacity:1"
           d="m 13,19.5 0,-0.5 0.5,0 0.5,0 0,0.5 0,0.5 -0.5,0 -0.5,0 0,-0.5"
           id="path54631" />
        <path
           style="fill:#6e6868;fill-opacity:1"
           d="m 14,19.5 0,-0.5 0.5,0 0.5,0 0,0.5 0,0.5 -0.5,0 -0.5,0 0,-0.5"
           id="path54633" />
        <path
           style="fill:#5b5757;fill-opacity:1"
           d="M 15,19.5 15,19 15.375,18.875 15.75,18.75 15.46875,18.84375 15.1875,18.9375 15.375,18.875 q 0.1875,-0.0625 0.28125,-0.15625 L 15.75,18.625 l -0.04687,0.04687 -0.04687,0.04687 0.328125,0.296875 0.328125,0.296875 0.0625,-0.0625 0.0625,-0.0625 -0.125,0.125 q -0.125,0.125 -0.1875,0.3125 L 16.0625,19.8125 16.15625,19.53125 16.25,19.25 16.125,19.625 16,20 15.5,20 15,20 15,19.5"
           id="path54635" />
        <path
           style="fill:#525050;fill-opacity:1"
           d="m 16.125,19.625 q 0.125,-0.375 0.5,-0.5 L 17,19 l 0,0.5 0,0.5 -0.5,0 -0.5,0 0.125,-0.375"
           id="path54637" />
        <path
           style="fill:#504f52;fill-opacity:1"
           d="M 17,19.5 17,19 17.375,18.875 17.75,18.75 17.46875,18.84375 17.1875,18.9375 17.375,18.875 q 0.1875,-0.0625 0.28125,-0.15625 L 17.75,18.625 l -0.04687,0.04687 -0.04687,0.04687 0.3125,0.3125 0.3125,0.3125 0.04687,-0.04687 L 18.375,19.25 18.28125,19.34375 Q 18.1875,19.4375 18.125,19.625 L 18.0625,19.8125 18.15625,19.53125 18.25,19.25 18.125,19.625 18,20 17.5,20 17,20 17,19.5 M 17.625,20 18,20 18.125,20 18.25,20 18,20 q -0.25,0 -0.5,0 l -0.25,0 0.375,0"
           id="path54639" />
        <path
           style="fill:#8c8785;fill-opacity:1"
           d="M 18.125,19.625 Q 18.25,19.25 18.5,19.25 q 0.25,0 0.359375,0.359375 l 0.109375,0.359375 0.109375,-0.01563 0.109375,-0.01563 -0.21875,0.03125 Q 18.75,20 18.5,20 l -0.25,0 0.375,0 0.375,0 -0.5,0 -0.5,0 0.125,-0.375 M 17.875,20 18,20 l 0.375,0 0.375,0 -0.25,0 q -0.25,0 -0.5,0 l -0.25,0 0.125,0"
           id="path54641" />
        <path
           style="fill:#50575f;fill-opacity:1"
           d="M 18.859375,19.609375 18.75,19.25 18.84375,19.53125 18.9375,19.8125 18.875,19.625 Q 18.8125,19.4375 18.71875,19.34375 L 18.625,19.25 l 0.04687,0.04687 0.04687,0.04687 L 19,19.03125 19.28125,18.71875 19.203125,18.671875 19.125,18.625 19.28125,18.71875 Q 19.4375,18.8125 19.625,18.875 L 19.8125,18.9375 19.53125,18.84375 19.25,18.75 19.625,18.875 20,19 19.875,19.375 q -0.125,0.375 -0.5,0.5 L 19,20 19.28125,19.90625 19.5625,19.8125 19.375,19.875 q -0.1875,0.0625 -0.40625,0.09375 L 18.75,20 l 0.109375,-0.01563 0.109375,-0.01563 -0.109375,-0.359375"
           id="path54643" />
      </g>
    </g>
  </g>
</svg>
