<?xml version="1.0" encoding="UTF-8" standalone="no"?>
<!-- Created with Inkscape (http://www.inkscape.org/) -->

<svg
   xmlns:dc="http://purl.org/dc/elements/1.1/"
   xmlns:cc="http://creativecommons.org/ns#"
   xmlns:rdf="http://www.w3.org/1999/02/22-rdf-syntax-ns#"
   xmlns:svg="http://www.w3.org/2000/svg"
   xmlns="http://www.w3.org/2000/svg"
   xmlns:sodipodi="http://sodipodi.sourceforge.net/DTD/sodipodi-0.dtd"
   xmlns:inkscape="http://www.inkscape.org/namespaces/inkscape"
   width="20"
   height="20"
   viewBox="0 0 20 20"
   id="svg3347"
   version="1.1"
   inkscape:version="0.91 r13725"
   sodipodi:docname="Civ5Icon.Flower.svg">
  <defs
     id="defs3349" />
  <sodipodi:namedview
     id="base"
     pagecolor="#ffffff"
     bordercolor="#666666"
     borderopacity="1.0"
     inkscape:pageopacity="0.0"
     inkscape:pageshadow="2"
     inkscape:zoom="11.2"
     inkscape:cx="13.251856"
     inkscape:cy="8.3638322"
     inkscape:document-units="px"
     inkscape:current-layer="layer1"
     showgrid="false"
     units="px"
     inkscape:window-width="1477"
     inkscape:window-height="962"
     inkscape:window-x="533"
     inkscape:window-y="95"
     inkscape:window-maximized="0" />
  <metadata
     id="metadata3352">
    <rdf:RDF>
      <cc:Work
         rdf:about="">
        <dc:format>image/svg+xml</dc:format>
        <dc:type
           rdf:resource="http://purl.org/dc/dcmitype/StillImage" />
        <dc:title></dc:title>
      </cc:Work>
    </rdf:RDF>
  </metadata>
  <g
     inkscape:label="Layer 1"
     inkscape:groupmode="layer"
     id="layer1"
     transform="translate(0,-1032.3622)">
    <g
       transform="translate(-0.93750063,1031.9604)"
       id="g15150">
      <path
         style="fill:#000000;fill-opacity:0"
         d="M 0,0.5 0,0 0.5,0 1,0 1.5,0 2,0 2.5,0 3,0 3.5,0 4,0 4.5,0 5,0 5.5,0 6,0 6.5,0 7,0 7.5,0 8,0 8.5,0 9,0 9.5,0 10,0 l 0.5,0 0.5,0 0.5,0 0.5,0 0.5,0 0.5,0 0.5,0 0.5,0 0.5,0 0.5,0 0.5,0 0.5,0 0.5,0 0.5,0 0.5,0 0.5,0 0.5,0 0.5,0 0.5,0 0.5,0 0.5,0 0.5,0 0.5,0 0.5,0 0,0.5 0,0.5 0,0.5 0,0.5 0,0.5 0,0.5 0,0.5 0,0.5 0,0.5 0,0.5 0,0.5 0,0.5 0,0.5 0,0.5 0,0.5 0,0.5 0,0.5 0,0.5 0,0.5 0,0.5 0,0.5 0,0.5 0,0.5 0,0.5 0,0.5 0,0.5 0,0.5 0,0.5 0,0.5 0,0.5 0,0.5 0,0.5 0,0.5 0,0.5 0,0.5 0,0.5 0,0.5 0,0.5 0,0.5 0,0.5 0,0.5 0,0.5 0,0.5 0,0.5 -0.5,0 L 21,22 20.5,22 20,22 19.5,22 19,22 18.5,22 18,22 17.5,22 17,22 16.5,22 16,22 15.5,22 15,22 14.5,22 14,22 13.5,22 13,22 12.5,22 12,22 11.5,22 11,22 10.5,22 10,22 9.5,22 9,22 8.5,22 8,22 7.5,22 7,22 6.5,22 6,22 5.5,22 5,22 4.5,22 4,22 3.5,22 3,22 2.5,22 2,22 1.5,22 1,22 0.5,22 0,22 0,21.5 0,21 0,20.5 0,20 0,19.5 0,19 0,18.5 0,18 0,17.5 0,17 0,16.5 0,16 0,15.5 0,15 0,14.5 0,14 0,13.5 0,13 0,12.5 0,12 0,11.5 0,11 0,10.5 0,10 0,9.5 0,9 0,8.5 0,8 0,7.5 0,7 0,6.5 0,6 0,5.5 0,5 0,4.5 0,4 0,3.5 0,3 0,2.5 0,2 0,1.5 0,1 0,0.5 M 12.625,20.125 Q 13,20 13.125,19.625 13.25,19.25 13.625,19.125 14,19 14,18.5 l 0,-0.5 0.125,-0.375 q 0.125,-0.375 0.5,-0.5 L 15,17 l 0.5,0 0.5,0 0.5,0 0.5,0 0.5,0 0.5,0 0.5,0 q 0.5,0 0.625,-0.375 0.125,-0.375 0.5,-0.5 Q 20,16 20,15.5 l 0,-0.5 0,-0.5 0,-0.5 0,-0.5 q 0,-0.5 -0.375,-0.625 -0.375,-0.125 -0.5,-0.5 L 19,12 19,11.5 Q 19,11 18.5,11 l -0.5,0 0.125,-0.375 q 0.125,-0.375 0.5,-0.5 Q 19,10 19.125,9.625 19.25,9.25 19.625,9.125 20,9 20,8.5 L 20,8 20,7.5 20,7 20,6.5 20,6 20,5.5 Q 20,5 19.5,5 L 19,5 18.625,4.875 Q 18.25,4.75 18.125,4.375 18,4 17.5,4 L 17,4 16.5,4 16,4 15.5,4 Q 15,4 14.875,4.375 14.75,4.75 14.375,4.875 L 14,5 13.875,4.625 13.75,4.25 13.84375,4.53125 13.9375,4.8125 13.875,4.625 Q 13.8125,4.4375 13.6875,4.3125 L 13.5625,4.1875 13.625,4.25 13.6875,4.3125 13.96875,4.03125 Q 14.25,3.75 14.125,3.375 L 14,3 14,2.5 Q 14,2 13.625,1.875 13.25,1.75 13.125,1.375 13,1 12.625,0.875 12.25,0.75 11.96875,1.03125 L 11.6875,1.3125 11.75,1.375 11.8125,1.4375 11.6875,1.3125 Q 11.5625,1.1875 11.375,1.125 L 11.1875,1.0625 11.46875,1.15625 11.75,1.25 11.375,1.125 11,1 10.625,1.125 10.25,1.25 10.53125,1.15625 10.8125,1.0625 10.625,1.125 Q 10.4375,1.1875 10.28125,1.28125 L 10.125,1.375 10.203125,1.328125 10.28125,1.28125 10.015625,1.015625 Q 9.75,0.75 9.375,0.875 9,1 8.875,1.375 8.75,1.75 8.375,1.875 8,2 8,2.5 L 8,3 7.875,3.375 Q 7.75,3.75 8.015625,4.015625 L 8.28125,4.28125 8.359375,4.234375 8.4375,4.1875 8.28125,4.28125 Q 8.125,4.375 8,4.5 L 7.875,4.625 8.0625,4.4375 8.25,4.25 8,4.5 Q 7.75,4.75 7.375,4.875 L 7,5 7,4.5 Q 7,4 6.5,4 L 6,4 5.5,4 5,4 4.5,4 Q 4,4 4.0625,4.5625 L 4.125,5.125 3.6875,5.1875 3.25,5.25 3.53125,5.15625 3.8125,5.0625 3.625,5.125 Q 3.4375,5.1875 3.3125,5.3125 L 3.1875,5.4375 3.25,5.375 3.3125,5.3125 3.03125,5.03125 Q 2.75,4.75 2.375,4.875 2,5 2,5.5 L 2,6 2,6.5 2,7 2,7.5 2,8 2,8.5 Q 2,9 2.375,9.125 2.75,9.25 2.875,9.625 3,10 3.375,10.125 3.75,10.25 3.75,10.5 3.75,10.75 3.375,10.875 3,11 2.875,11.375 2.75,11.75 2.375,11.875 2,12 2,12.5 l 0,0.5 0,0.5 0,0.5 0,0.5 0,0.5 0,0.5 q 0,0.5 0.375,0.625 0.375,0.125 0.5,0.5 Q 3,17 3.5,17 L 4,17 4.5,17 5,17 5.5,17 6,17 6.5,17 Q 7,17 7,16.5 L 7,16 7.515625,15.984375 8.03125,15.96875 8.015625,15.859375 8,15.75 8.03125,15.96875 Q 8.0625,16.1875 8.125,16.375 L 8.1875,16.5625 8.09375,16.28125 8,16 8.125,16.375 8.25,16.75 8.15625,16.46875 8.0625,16.1875 8.125,16.375 q 0.0625,0.1875 0.1875,0.3125 l 0.125,0.125 L 8.375,16.75 8.3125,16.6875 8.03125,16.96875 Q 7.75,17.25 7.875,17.625 L 8,18 8,18.5 q 0,0.5 0.375,0.625 0.375,0.125 0.5,0.5 Q 9,20 9.375,20.125 9.75,20.25 10.03125,19.96875 L 10.3125,19.6875 10.25,19.625 l -0.0625,-0.0625 0.125,0.125 q 0.125,0.125 0.3125,0.1875 L 10.8125,19.9375 10.53125,19.84375 10.25,19.75 10.625,19.875 11,20 11.375,19.875 11.75,19.75 11.46875,19.84375 11.1875,19.9375 11.375,19.875 q 0.1875,-0.0625 0.34375,-0.15625 L 11.875,19.625 l -0.07813,0.04687 -0.07813,0.04687 0.265625,0.265625 Q 12.25,20.25 12.625,20.125"
         id="path15152"
         inkscape:connector-curvature="0" />
      <path
         style="fill:#000000;fill-opacity:0.2"
         d="M 8.875,1.375 Q 9,1 9.375,0.875 9.75,0.75 10.015625,1.015625 L 10.28125,1.28125 10.359375,1.234375 10.4375,1.1875 10.28125,1.28125 Q 10.125,1.375 10,1.5 L 9.875,1.625 10.0625,1.4375 10.25,1.25 10,1.5 Q 9.75,1.75 9.5,2 L 9.25,2.25 9.4375,2.0625 9.625,1.875 9.5,2 Q 9.375,2.125 9.28125,2.28125 L 9.1875,2.4375 9.234375,2.359375 9.28125,2.28125 8.984375,1.984375 8.6875,1.6875 8.625,1.75 8.5625,1.8125 8.6875,1.6875 Q 8.8125,1.5625 8.875,1.375 L 8.9375,1.1875 8.84375,1.46875 8.75,1.75 8.875,1.375"
         id="path15154"
         inkscape:connector-curvature="0" />
      <path
         style="fill:#353535;fill-opacity:0.91372549"
         d="M 10,1.5 Q 10.25,1.25 10.625,1.125 L 11,1 11,1.5 11,2 10.625,2.125 10.25,2.25 10.53125,2.15625 10.8125,2.0625 10.625,2.125 Q 10.4375,2.1875 10.28125,2.28125 L 10.125,2.375 10.203125,2.328125 10.28125,2.28125 10.015625,2.015625 9.75,1.75 10,1.5 M 9.9375,1.5625 9.75,1.75 9.6875,1.8125 9.625,1.875 9.75,1.75 Q 9.875,1.625 10,1.5 L 10.125,1.375 9.9375,1.5625"
         id="path15156"
         inkscape:connector-curvature="0" />
      <path
         style="fill:#3c3e3e;fill-opacity:0.92941176"
         d="M 11,1.5 11,1 11.375,1.125 q 0.375,0.125 0.5,0.5 L 12,2 11.5,2 11,2 11,1.5"
         id="path15158"
         inkscape:connector-curvature="0" />
      <path
         style="fill:#000000;fill-opacity:0.29411765"
         d="M 11.875,1.625 11.75,1.25 11.84375,1.53125 11.9375,1.8125 11.875,1.625 Q 11.8125,1.4375 11.6875,1.3125 L 11.5625,1.1875 11.625,1.25 11.6875,1.3125 11.96875,1.03125 Q 12.25,0.75 12.625,0.875 13,1 13.125,1.375 L 13.25,1.75 13.15625,1.46875 13.0625,1.1875 13.125,1.375 q 0.0625,0.1875 0.1875,0.3125 l 0.125,0.125 L 13.375,1.75 13.3125,1.6875 13,2 12.6875,2.3125 12.75,2.375 12.8125,2.4375 12.6875,2.3125 Q 12.5625,2.1875 12.375,2.125 L 12.1875,2.0625 12.46875,2.15625 12.75,2.25 12.375,2.125 12,2 11.875,1.625"
         id="path15160"
         inkscape:connector-curvature="0" />
      <path
         style="fill:#000000;fill-opacity:0.05882353"
         d="M 8,2.5 Q 8,2 8.375,1.875 L 8.75,1.75 8.46875,1.84375 8.1875,1.9375 8.375,1.875 Q 8.5625,1.8125 8.6875,1.6875 L 8.8125,1.5625 8.75,1.625 8.6875,1.6875 8.984375,1.984375 9.28125,2.28125 9.328125,2.203125 9.375,2.125 9.28125,2.28125 Q 9.1875,2.4375 9.125,2.625 L 9.0625,2.8125 9.15625,2.53125 9.25,2.25 9.171875,2.671875 9.09375,3.09375 8.546875,3.046875 8,3 8,2.5"
         id="path15162"
         inkscape:connector-curvature="0" />
      <path
         style="fill:#515151;fill-opacity:0.98039216"
         d="M 9.171875,2.671875 Q 9.25,2.25 9.5,2 L 9.75,1.75 10.015625,2.015625 10.28125,2.28125 10.359375,2.234375 10.4375,2.1875 10.28125,2.28125 Q 10.125,2.375 10,2.5 L 9.875,2.625 10.0625,2.4375 10.25,2.25 10,2.5 Q 9.75,2.75 9.375,2.875 L 9,3 9.28125,2.90625 9.5625,2.8125 9.375,2.875 Q 9.1875,2.9375 9.09375,3.09375 L 9,3.25 9.046875,3.171875 9.09375,3.09375 9.171875,2.671875 M 9.8125,1.6875 9.75,1.75 9.5625,1.9375 9.375,2.125 9.5,2 Q 9.625,1.875 9.75,1.75 L 9.875,1.625 9.8125,1.6875"
         id="path15164"
         inkscape:connector-curvature="0" />
      <path
         style="fill:#fdfdfd;fill-opacity:1"
         d="M 10,2.5 Q 10.25,2.25 10.625,2.125 L 11,2 11,2.5 11,3 10.625,3.125 10.25,3.25 10.53125,3.15625 10.8125,3.0625 10.625,3.125 Q 10.4375,3.1875 10.3125,3.3125 L 10.1875,3.4375 10.25,3.375 10.3125,3.3125 10.015625,3.015625 9.71875,2.71875 9.640625,2.765625 9.5625,2.8125 9.71875,2.71875 Q 9.875,2.625 10,2.5 L 10.125,2.375 9.9375,2.5625 9.75,2.75 10,2.5"
         id="path15166"
         inkscape:connector-curvature="0" />
      <path
         style="fill:#fcffff;fill-opacity:1"
         d="M 11,2.5 11,2 11.5,2 12,2 12,2.5 12,3 12,2.625 12,2.25 12,2.5 q 0,0.25 0.125,0.375 L 12.25,3 12.1875,2.9375 12.125,2.875 11.5625,2.9375 11,3 11,2.5"
         id="path15168"
         inkscape:connector-curvature="0" />
      <path
         style="fill:#455f5e;fill-opacity:0.99215686"
         d="M 12,2.5 12,2 12.375,2.125 Q 12.75,2.25 12.8125,2.6875 L 12.875,3.125 12.9375,3.1875 13,3.25 12.875,3.125 Q 12.75,3 12.5,3 L 12.25,3 12.625,3 13,3 12.5,3 Q 12,3 12,2.5"
         id="path15170"
         inkscape:connector-curvature="0" />
      <path
         style="fill:#000000;fill-opacity:0.13333333"
         d="M 12.8125,2.6875 12.75,2.25 12.84375,2.53125 12.9375,2.8125 12.875,2.625 Q 12.8125,2.4375 12.6875,2.3125 L 12.5625,2.1875 12.625,2.25 12.6875,2.3125 13,2 13.3125,1.6875 13.25,1.625 13.1875,1.5625 l 0.125,0.125 q 0.125,0.125 0.3125,0.1875 L 13.8125,1.9375 13.53125,1.84375 13.25,1.75 13.625,1.875 Q 14,2 14,2.5 L 14,3 13.4375,3.0625 12.875,3.125 12.8125,2.6875"
         id="path15172"
         inkscape:connector-curvature="0" />
      <path
         style="fill:#0a0a0a;fill-opacity:0.63137255"
         d="M 7.875,3.375 8,3 8.546875,3.046875 9.09375,3.09375 9.140625,3.015625 9.1875,2.9375 9.09375,3.09375 Q 9,3.25 9,3.5 L 9,3.75 9,3.375 9,3 9,3.5 9,4 8.625,4.125 8.25,4.25 8.53125,4.15625 8.8125,4.0625 8.625,4.125 Q 8.4375,4.1875 8.28125,4.28125 L 8.125,4.375 8.203125,4.328125 8.28125,4.28125 8.015625,4.015625 Q 7.75,3.75 7.875,3.375"
         id="path15174"
         inkscape:connector-curvature="0" />
      <path
         style="fill:#e2e2e2;fill-opacity:1"
         d="M 9,3.5 Q 9,3 9.375,2.875 L 9.75,2.75 9.46875,2.84375 9.1875,2.9375 9.375,2.875 Q 9.5625,2.8125 9.71875,2.71875 L 9.875,2.625 9.796875,2.671875 9.71875,2.71875 10.015625,3.015625 10.3125,3.3125 10.375,3.25 10.4375,3.1875 10.3125,3.3125 Q 10.1875,3.4375 10.125,3.625 L 10.0625,3.8125 10.15625,3.53125 10.25,3.25 10.125,3.625 Q 10,4 9.5,4 L 9,4 9,3.5"
         id="path15176"
         inkscape:connector-curvature="0" />
      <path
         style="fill:#ffffff;fill-opacity:1"
         d="m 10.125,3.625 q 0.125,-0.375 0.5,-0.5 L 11,3 11.5625,2.9375 12.125,2.875 12.0625,3.4375 Q 12,4 12.125,4.375 L 12.25,4.75 12.15625,4.46875 12.0625,4.1875 12.125,4.375 q 0.0625,0.1875 0.1875,0.3125 l 0.125,0.125 L 12.375,4.75 12.3125,4.6875 12.03125,4.96875 Q 11.75,5.25 11.75,5.5 q 0,0.25 0.28125,0.53125 L 12.3125,6.3125 12.375,6.25 12.4375,6.1875 12.3125,6.3125 Q 12.1875,6.4375 12.125,6.625 L 12.0625,6.8125 12.15625,6.53125 12.25,6.25 12.125,6.625 12,7 12.09375,6.71875 12.1875,6.4375 12.125,6.625 Q 12.0625,6.8125 12.03125,7.03125 L 12,7.25 12.015625,7.140625 12.03125,7.03125 11.515625,7.015625 11,7 11,6.5 Q 11,6 10.625,5.875 10.25,5.75 9.96875,6.03125 L 9.6875,6.3125 9.75,6.375 9.8125,6.4375 9.6875,6.3125 Q 9.5625,6.1875 9.375,6.125 L 9.1875,6.0625 9.46875,6.15625 9.75,6.25 9.375,6.125 9,6 9.28125,6.09375 9.5625,6.1875 9.375,6.125 Q 9.1875,6.0625 8.96875,6.03125 L 8.75,6 8.859375,6.015625 8.96875,6.03125 8.984375,5.515625 9,5 9,4.5 9,4 9.5,4 Q 10,4 10.125,3.625"
         id="path15178"
         inkscape:connector-curvature="0" />
      <path
         style="fill:#b4e3e2;fill-opacity:1"
         d="M 12.0625,3.4375 12.125,2.875 12.0625,2.8125 12,2.75 12.125,2.875 Q 12.25,3 12.5,3 L 12.75,3 12.375,3 12,3 12.5,3 Q 13,3 13,3.5 L 13,4 12.515625,3.984375 12.03125,3.96875 12.046875,4.078125 12.0625,4.1875 12.03125,3.96875 Q 12,3.75 12,3.5 L 12,3.25 12,3.625 12,4 12.0625,3.4375"
         id="path15180"
         inkscape:connector-curvature="0" />
      <path
         style="fill:#0a1412;fill-opacity:0.76862745"
         d="M 13,3.5 13,3 13,3.375 13,3.75 13,3.5 Q 13,3.25 12.875,3.125 L 12.75,3 12.8125,3.0625 12.875,3.125 13.4375,3.0625 14,3 14.125,3.375 Q 14.25,3.75 13.96875,4.03125 L 13.6875,4.3125 13.75,4.375 13.8125,4.4375 13.6875,4.3125 Q 13.5625,4.1875 13.375,4.125 L 13.1875,4.0625 13.46875,4.15625 13.75,4.25 13.375,4.125 13,4 13,3.5"
         id="path15182"
         inkscape:connector-curvature="0" />
      <path
         style="fill:#000000;fill-opacity:0.39607843"
         d="M 4.0625,4.5625 Q 4,4 4.5,4 L 5,4 5,4.5 5,5 4.5,5 4,5 4.375,5 4.75,5 4.5,5 Q 4.25,5 4.125,5.125 L 4,5.25 4.0625,5.1875 4.125,5.125 4.0625,4.5625"
         id="path15184"
         inkscape:connector-curvature="0" />
      <path
         style="fill:#000000;fill-opacity:0.4745098"
         d="M 5,4.5 5,4 5.5,4 6,4 6,4.5 6,5 5.5,5 5,5 5,4.5"
         id="path15186"
         inkscape:connector-curvature="0" />
      <path
         style="fill:#000000;fill-opacity:0.21960784"
         d="M 6,4.5 6,4 6.5,4 Q 7,4 7,4.5 L 7,5 6.5,5 6,5 6,4.5"
         id="path15188"
         inkscape:connector-curvature="0" />
      <path
         style="fill:#393939;fill-opacity:0.90196078"
         d="M 8,4.5 Q 8.25,4.25 8.625,4.125 L 9,4 9,4.5 9,5 8.625,5.125 8.25,5.25 8.53125,5.15625 8.8125,5.0625 8.625,5.125 Q 8.4375,5.1875 8.3125,5.3125 L 8.1875,5.4375 8.25,5.375 8.3125,5.3125 8.015625,5.015625 7.71875,4.71875 7.640625,4.765625 7.5625,4.8125 7.71875,4.71875 Q 7.875,4.625 8,4.5 L 8.125,4.375 7.9375,4.5625 7.75,4.75 8,4.5"
         id="path15190"
         inkscape:connector-curvature="0" />
      <path
         style="fill:#e2ffff;fill-opacity:1"
         d="M 12.125,4.375 12,4 12.09375,4.28125 12.1875,4.5625 12.125,4.375 Q 12.0625,4.1875 12.03125,3.96875 L 12,3.75 12.015625,3.859375 12.03125,3.96875 12.515625,3.984375 13,4 13,4.5 13,5 12.625,4.875 Q 12.25,4.75 12.125,4.375 M 13,5.125 13,5 13,4.625 13,4.25 13,4.5 q 0,0.25 0,0.5 l 0,0.25 0,-0.125"
         id="path15192"
         inkscape:connector-curvature="0" />
      <path
         style="fill:#2d4746;fill-opacity:0.95294118"
         d="M 13,4.5 13,4 13.375,4.125 q 0.375,0.125 0.5,0.5 L 14,5 13.5,5 13,5 13,4.5 M 13,4.625 13,5 13,5.125 13,5.25 13,5 q 0,-0.25 0,-0.5 l 0,-0.25 0,0.375"
         id="path15194"
         inkscape:connector-curvature="0" />
      <path
         style="fill:#000000;fill-opacity:0.03529412"
         d="M 14.875,4.375 Q 15,4 15.5,4 L 16,4 16.015625,4.515625 16.03125,5.03125 16.140625,5.015625 16.25,5 16.03125,5.03125 Q 15.8125,5.0625 15.625,5.125 L 15.4375,5.1875 15.71875,5.09375 16,5 15.625,5.125 15.25,5.25 15.53125,5.15625 15.8125,5.0625 15.625,5.125 Q 15.4375,5.1875 15.3125,5.3125 L 15.1875,5.4375 15.25,5.375 15.3125,5.3125 15,5 14.6875,4.6875 14.625,4.75 14.5625,4.8125 14.6875,4.6875 Q 14.8125,4.5625 14.875,4.375 L 14.9375,4.1875 14.84375,4.46875 14.75,4.75 14.875,4.375"
         id="path15196"
         inkscape:connector-curvature="0" />
      <path
         style="fill:#000000;fill-opacity:0.2745098"
         d="M 16.015625,4.515625 16,4 16.5,4 17,4 17,4.5 17,5 16.5,5 16,5 16.375,5 16.75,5 16.5,5 Q 16.25,5 16.03125,5.03125 L 15.8125,5.0625 15.921875,5.046875 16.03125,5.03125 16.015625,4.515625"
         id="path15198"
         inkscape:connector-curvature="0" />
      <path
         style="fill:#000000;fill-opacity:0.21960784"
         d="M 17,4.5 17,4 17.5,4 Q 18,4 18.125,4.375 L 18.25,4.75 18.15625,4.46875 18.0625,4.1875 18.125,4.375 q 0.0625,0.1875 0.1875,0.3125 l 0.125,0.125 L 18.375,4.75 18.3125,4.6875 18,5 17.6875,5.3125 17.75,5.375 17.8125,5.4375 17.6875,5.3125 Q 17.5625,5.1875 17.375,5.125 L 17.1875,5.0625 17.46875,5.15625 17.75,5.25 17.375,5.125 17,5 17,4.5"
         id="path15200"
         inkscape:connector-curvature="0" />
      <path
         style="fill:#000000;fill-opacity:0.09019608"
         d="M 2,5.5 Q 2,5 2.375,4.875 2.75,4.75 3.03125,5.03125 L 3.3125,5.3125 3.375,5.25 3.4375,5.1875 3.3125,5.3125 Q 3.1875,5.4375 3.125,5.625 L 3.0625,5.8125 3.15625,5.53125 3.25,5.25 3.1875,5.6875 3.125,6.125 2.5625,6.0625 2,6 2,5.5"
         id="path15202"
         inkscape:connector-curvature="0" />
      <path
         style="fill:#404040;fill-opacity:0.94901961"
         d="M 3.1875,5.6875 Q 3.25,5.25 3.6875,5.1875 L 4.125,5.125 4.1875,5.0625 4.25,5 4.125,5.125 Q 4,5.25 4,5.5 L 4,5.75 4,5.375 4,5 4,5.5 Q 4,6 3.5,6 L 3,6 3.375,6 3.75,6 3.5,6 Q 3.25,6 3.125,6.125 L 3,6.25 3.0625,6.1875 3.125,6.125 3.1875,5.6875"
         id="path15204"
         inkscape:connector-curvature="0" />
      <path
         style="fill:#b3b3b3;fill-opacity:1"
         d="M 4,5.5 Q 4,5 4.5,5 L 5,5 5,5.5 5,6 4.4375,5.9375 3.875,5.875 3.8125,5.9375 3.75,6 3.875,5.875 Q 4,5.75 4,5.5 L 4,5.25 4,5.625 4,6 4,5.5"
         id="path15206"
         inkscape:connector-curvature="0" />
      <path
         style="fill:#c1c1c1;fill-opacity:1"
         d="M 5,5.5 5,5 5.5,5 6,5 6,5.5 6,6 5.5,6 5,6 5,5.5"
         id="path15208"
         inkscape:connector-curvature="0" />
      <path
         style="fill:#949494;fill-opacity:1"
         d="M 6,5.5 6,5 6.5,5 7,5 6.625,5 6.25,5 6.5,5 Q 6.75,5 6.96875,4.96875 L 7.1875,4.9375 7.078125,4.953125 6.96875,4.96875 6.984375,5.484375 7,6 6.5,6 6,6 6,5.5 M 6.625,6 7,6 7.125,6 7.25,6 7,6 Q 6.75,6 6.5,6 L 6.25,6 6.625,6"
         id="path15210"
         inkscape:connector-curvature="0" />
      <path
         style="fill:#363737;fill-opacity:0.9254902"
         d="M 6.984375,5.484375 6.96875,4.96875 6.859375,4.984375 6.75,5 6.96875,4.96875 Q 7.1875,4.9375 7.375,4.875 L 7.5625,4.8125 7.28125,4.90625 7,5 7.375,4.875 7.75,4.75 7.46875,4.84375 7.1875,4.9375 7.375,4.875 Q 7.5625,4.8125 7.71875,4.71875 L 7.875,4.625 7.796875,4.671875 7.71875,4.71875 8.015625,5.015625 8.3125,5.3125 8.375,5.25 8.4375,5.1875 8.3125,5.3125 Q 8.1875,5.4375 8.125,5.625 L 8.0625,5.8125 8.15625,5.53125 8.25,5.25 8.125,5.625 8,6 7.5,6 7,6 6.984375,5.484375 M 6.875,6 7,6 7.375,6 7.75,6 7.5,6 Q 7.25,6 7,6 L 6.75,6 6.875,6"
         id="path15212"
         inkscape:connector-curvature="0" />
      <path
         style="fill:#4d4d4d;fill-opacity:0.98039216"
         d="M 8.125,5.625 Q 8.25,5.25 8.625,5.125 L 9,5 8.984375,5.515625 8.96875,6.03125 9.078125,6.046875 9.1875,6.0625 8.96875,6.03125 Q 8.75,6 8.5,6 L 8.25,6 8.625,6 9,6 8.5,6 8,6 8.125,5.625"
         id="path15214"
         inkscape:connector-curvature="0" />
      <path
         style="fill:#f5ffff;fill-opacity:1"
         d="m 11.75,5.5 q 0,-0.25 0.28125,-0.53125 L 12.3125,4.6875 12.25,4.625 12.1875,4.5625 l 0.125,0.125 q 0.125,0.125 0.3125,0.1875 L 12.8125,4.9375 12.53125,4.84375 12.25,4.75 12.625,4.875 13,5 13.015625,5.515625 13.03125,6.03125 13.140625,6.015625 13.25,6 13.03125,6.03125 Q 12.8125,6.0625 12.625,6.125 L 12.4375,6.1875 12.71875,6.09375 13,6 12.625,6.125 12.25,6.25 12.53125,6.15625 12.8125,6.0625 12.625,6.125 Q 12.4375,6.1875 12.3125,6.3125 L 12.1875,6.4375 12.25,6.375 12.3125,6.3125 12.03125,6.03125 Q 11.75,5.75 11.75,5.5 M 13,5.375 13,5 13,4.875 13,4.75 13,5 q 0,0.25 0,0.5 l 0,0.25 0,-0.375"
         id="path15216"
         inkscape:connector-curvature="0" />
      <path
         style="fill:#385857;fill-opacity:0.99607843"
         d="M 13.015625,5.515625 13,5 13.5,5 14,5 14,5.5 14,6 13.5,6 13,6 13.375,6 13.75,6 13.5,6 Q 13.25,6 13.03125,6.03125 L 12.8125,6.0625 12.921875,6.046875 13.03125,6.03125 13.015625,5.515625 M 13,4.875 13,5 13,5.375 13,5.75 13,5.5 Q 13,5.25 13,5 l 0,-0.25 0,0.125"
         id="path15218"
         inkscape:connector-curvature="0" />
      <path
         style="fill:#1b1b1b;fill-opacity:0.82745098"
         d="M 14,5.5 14,5 14.375,4.875 14.75,4.75 14.46875,4.84375 14.1875,4.9375 14.375,4.875 Q 14.5625,4.8125 14.6875,4.6875 L 14.8125,4.5625 14.75,4.625 14.6875,4.6875 15,5 15.3125,5.3125 15.375,5.25 15.4375,5.1875 15.3125,5.3125 Q 15.1875,5.4375 15.125,5.625 L 15.0625,5.8125 15.15625,5.53125 15.25,5.25 15.125,5.625 15,6 14.5,6 14,6 14,5.5 M 14.625,6 15,6 15.125,6 15.25,6 15,6 q -0.25,0 -0.5,0 l -0.25,0 0.375,0"
         id="path15220"
         inkscape:connector-curvature="0" />
      <path
         style="fill:#6d6d6d;fill-opacity:1"
         d="m 15.125,5.625 q 0.125,-0.375 0.5,-0.5 L 16,5 15.71875,5.09375 15.4375,5.1875 15.625,5.125 Q 15.8125,5.0625 16.03125,5.03125 L 16.25,5 16.140625,5.015625 16.03125,5.03125 16.015625,5.515625 16,6 15.5,6 15,6 15.125,5.625 M 14.875,6 15,6 15.375,6 15.75,6 15.5,6 Q 15.25,6 15,6 l -0.25,0 0.125,0 M 15.625,6 16,6 16.125,6 16.25,6 16,6 q -0.25,0 -0.5,0 l -0.25,0 0.375,0"
         id="path15222"
         inkscape:connector-curvature="0" />
      <path
         style="fill:#a0a0a0;fill-opacity:1"
         d="M 16.015625,5.515625 16.03125,5.03125 15.921875,5.046875 15.8125,5.0625 16.03125,5.03125 Q 16.25,5 16.5,5 L 16.75,5 16.375,5 16,5 16.5,5 17,5 17,5.5 17,6 16.5,6 16,6 16.015625,5.515625 M 15.875,6 16,6 16.375,6 16.75,6 16.5,6 Q 16.25,6 16,6 l -0.25,0 0.125,0"
         id="path15224"
         inkscape:connector-curvature="0" />
      <path
         style="fill:#949494;fill-opacity:1"
         d="M 17,5.5 17,5 17.375,5.125 q 0.375,0.125 0.5,0.5 L 18,6 17.5,6 17,6 17,5.5"
         id="path15226"
         inkscape:connector-curvature="0" />
      <path
         style="fill:#262d29;fill-opacity:0.90588235"
         d="M 17.875,5.625 17.75,5.25 17.84375,5.53125 17.9375,5.8125 17.875,5.625 Q 17.8125,5.4375 17.6875,5.3125 L 17.5625,5.1875 17.625,5.25 17.6875,5.3125 18,5 18.3125,4.6875 18.25,4.625 18.1875,4.5625 l 0.125,0.125 q 0.125,0.125 0.3125,0.1875 L 18.8125,4.9375 18.53125,4.84375 18.25,4.75 18.625,4.875 19,5 19.125,5.375 19.25,5.75 19.15625,5.46875 19.0625,5.1875 19.125,5.375 q 0.0625,0.1875 0.1875,0.3125 l 0.125,0.125 L 19.375,5.75 19.3125,5.6875 19,6 18.6875,6.3125 18.75,6.375 18.8125,6.4375 18.6875,6.3125 Q 18.5625,6.1875 18.375,6.125 L 18.1875,6.0625 18.46875,6.15625 18.75,6.25 18.375,6.125 18,6 17.875,5.625"
         id="path15228"
         inkscape:connector-curvature="0" />
      <path
         style="fill:#000000;fill-opacity:0.05490196"
         d="M 19.125,5.375 19,5 19.5,5 Q 20,5 20,5.5 L 20,6 19.625,5.875 q -0.375,-0.125 -0.5,-0.5"
         id="path15230"
         inkscape:connector-curvature="0" />
      <path
         style="fill:#060606;fill-opacity:0.62745098"
         d="M 2,6.5 2,6 2.5625,6.0625 3.125,6.125 3.1875,6.0625 3.25,6 3.125,6.125 Q 3,6.25 3,6.5 L 3,6.75 3,6.375 3,6 3,6.5 3,7 2.5,7 2,7 2,6.5"
         id="path15232"
         inkscape:connector-curvature="0" />
      <path
         style="fill:#e5e4e4;fill-opacity:1"
         d="M 3,6.5 Q 3,6 3.5,6 L 4,6 3.625,6 3.25,6 3.5,6 Q 3.75,6 3.875,5.875 L 4,5.75 3.9375,5.8125 3.875,5.875 3.9375,6.4375 4,7 3.5,7 3,7 3,6.5"
         id="path15234"
         inkscape:connector-curvature="0" />
      <path
         style="fill:#ffffff;fill-opacity:1"
         d="M 3.9375,6.4375 3.875,5.875 4.4375,5.9375 5,6 5.5,6 6,6 6.5,6 7,6 7,6.5 Q 7,7 7.375,7.125 7.75,7.25 8.015625,6.984375 L 8.28125,6.71875 8.234375,6.640625 8.1875,6.5625 8.28125,6.71875 Q 8.375,6.875 8.5,7 L 8.625,7.125 8.4375,6.9375 8.25,6.75 8.5,7 Q 8.75,7.25 8.875,7.625 L 9,8 8.625,8.125 Q 8.25,8.25 8.125,8.625 L 8,9 7.625,9.125 7.25,9.25 7.53125,9.15625 7.8125,9.0625 7.625,9.125 Q 7.4375,9.1875 7.3125,9.3125 L 7.1875,9.4375 7.25,9.375 7.3125,9.3125 7.03125,9.03125 Q 6.75,8.75 6.5,8.75 6.25,8.75 5.96875,9.03125 L 5.6875,9.3125 5.75,9.375 5.8125,9.4375 5.6875,9.3125 Q 5.5625,9.1875 5.375,9.125 L 5.1875,9.0625 5.46875,9.15625 5.75,9.25 5.375,9.125 5,9 4.875,8.625 Q 4.75,8.25 4.3125,8.1875 L 3.875,8.125 3.9375,7.5625 4,7 3.9375,6.4375 M 7.125,6 7,6 6.625,6 6.25,6 6.5,6 Q 6.75,6 7,6 L 7.25,6 7.125,6"
         id="path15236"
         inkscape:connector-curvature="0" />
      <path
         style="fill:#fcfdfd;fill-opacity:1"
         d="M 7,6.5 7,6 7.5,6 8,6 8.125,6.375 8.25,6.75 8.15625,6.46875 8.0625,6.1875 8.125,6.375 Q 8.1875,6.5625 8.28125,6.71875 L 8.375,6.875 8.328125,6.796875 8.28125,6.71875 8.015625,6.984375 Q 7.75,7.25 7.375,7.125 7,7 7,6.5 M 8.125,6 8,6 7.625,6 7.25,6 7.5,6 Q 7.75,6 8,6 L 8.25,6 8.125,6 M 7.375,6 7,6 6.875,6 6.75,6 7,6 Q 7.25,6 7.5,6 L 7.75,6 7.375,6"
         id="path15238"
         inkscape:connector-curvature="0" />
      <path
         style="fill:#a5b1b1;fill-opacity:1"
         d="M 8.125,6.375 8,6 8.5,6 9,6 9.125,6.375 9.25,6.75 9.15625,6.46875 9.0625,6.1875 9.125,6.375 Q 9.1875,6.5625 9.3125,6.6875 L 9.4375,6.8125 9.375,6.75 9.3125,6.6875 9.015625,6.984375 8.71875,7.28125 8.765625,7.359375 8.8125,7.4375 8.71875,7.28125 Q 8.625,7.125 8.5,7 L 8.375,6.875 8.5625,7.0625 8.75,7.25 8.5,7 Q 8.25,6.75 8.125,6.375 M 8.375,6 8,6 7.875,6 7.75,6 8,6 Q 8.25,6 8.5,6 L 8.75,6 8.375,6"
         id="path15240"
         inkscape:connector-curvature="0" />
      <path
         style="fill:#a8afb0;fill-opacity:1"
         d="M 9.125,6.375 9,6 9.375,6.125 q 0.375,0.125 0.5,0.5 L 10,7 9.625,6.875 Q 9.25,6.75 9.125,6.375"
         id="path15242"
         inkscape:connector-curvature="0" />
      <path
         style="fill:#fbfbff;fill-opacity:1"
         d="M 9.875,6.625 9.75,6.25 9.84375,6.53125 9.9375,6.8125 9.875,6.625 Q 9.8125,6.4375 9.6875,6.3125 L 9.5625,6.1875 9.625,6.25 9.6875,6.3125 9.96875,6.03125 Q 10.25,5.75 10.625,5.875 11,6 11,6.5 L 11,7 10.5,7 10,7 9.875,6.625"
         id="path15244"
         inkscape:connector-curvature="0" />
      <path
         style="fill:#afb8b8;fill-opacity:1"
         d="m 12.125,6.625 q 0.125,-0.375 0.5,-0.5 L 13,6 12.875,6.375 q -0.125,0.375 -0.5,0.5 L 12,7 12.125,6.625"
         id="path15246"
         inkscape:connector-curvature="0" />
      <path
         style="fill:#949e9d;fill-opacity:1"
         d="M 12.875,6.375 13,6 13.5,6 14,6 13.875,6.375 Q 13.75,6.75 13.5,7 L 13.25,7.25 13.4375,7.0625 13.625,6.875 13.5,7 Q 13.375,7.125 13.28125,7.28125 L 13.1875,7.4375 13.234375,7.359375 13.28125,7.28125 12.984375,6.984375 12.6875,6.6875 12.625,6.75 12.5625,6.8125 12.6875,6.6875 Q 12.8125,6.5625 12.875,6.375 L 12.9375,6.1875 12.84375,6.46875 12.75,6.75 12.875,6.375"
         id="path15248"
         inkscape:connector-curvature="0" />
      <path
         style="fill:#eceaea;fill-opacity:1"
         d="M 13.875,6.375 14,6 14.5,6 15,6 15,6.5 Q 15,7 14.625,7.125 14.25,7.25 13.984375,6.984375 L 13.71875,6.71875 13.671875,6.796875 13.625,6.875 13.71875,6.71875 Q 13.8125,6.5625 13.875,6.375 L 13.9375,6.1875 13.84375,6.46875 13.75,6.75 13.875,6.375 M 15.125,6 15,6 14.625,6 14.25,6 14.5,6 q 0.25,0 0.5,0 l 0.25,0 -0.125,0"
         id="path15250"
         inkscape:connector-curvature="0" />
      <path
         style="fill:#ffffff;fill-opacity:1"
         d="M 15,6.5 15,6 15.5,6 q 0.5,0 1,0 l 0.5,0 0.5,0 0.5,0 0,0.5 q 0,0.5 0,1 L 18,8 17.625,8.125 Q 17.25,8.25 17,8.5 16.75,8.75 16.5,9 L 16.25,9.25 16.4375,9.0625 16.625,8.875 16.5,9 Q 16.375,9.125 16.28125,9.28125 L 16.1875,9.4375 16.234375,9.359375 16.28125,9.28125 16.015625,9.015625 Q 15.75,8.75 15.375,8.875 L 15,9 14.5,9 14,9 13.875,8.625 Q 13.75,8.25 13.375,8.125 L 13,8 13.125,7.625 Q 13.25,7.25 13.5,7 L 13.75,6.75 13.5625,6.9375 13.375,7.125 13.5,7 Q 13.625,6.875 13.71875,6.71875 L 13.8125,6.5625 13.765625,6.640625 13.71875,6.71875 13.984375,6.984375 Q 14.25,7.25 14.625,7.125 15,7 15,6.5 M 15.375,6 15,6 14.875,6 14.75,6 15,6 q 0.25,0 0.5,0 l 0.25,0 -0.375,0"
         id="path15252"
         inkscape:connector-curvature="0" />
      <path
         style="fill:#a8d0cf;fill-opacity:1"
         d="M 18,6.5 18,6 18.375,6.125 q 0.375,0.125 0.5,0.5 L 19,7 18.90625,6.71875 18.8125,6.4375 18.875,6.625 q 0.0625,0.1875 0.09375,0.40625 L 19,7.25 18.984375,7.140625 18.96875,7.03125 18.484375,7.015625 18,7 18,6.5 M 18,6.625 18,7 18,7.125 18,7.25 18,7 q 0,-0.25 0,-0.5 l 0,-0.25 0,0.375"
         id="path15254"
         inkscape:connector-curvature="0" />
      <path
         style="fill:#050808;fill-opacity:0.64313725"
         d="M 18.875,6.625 18.75,6.25 18.84375,6.53125 18.9375,6.8125 18.875,6.625 Q 18.8125,6.4375 18.6875,6.3125 L 18.5625,6.1875 18.625,6.25 18.6875,6.3125 19,6 19.3125,5.6875 19.25,5.625 19.1875,5.5625 l 0.125,0.125 q 0.125,0.125 0.3125,0.1875 L 19.8125,5.9375 19.53125,5.84375 19.25,5.75 19.625,5.875 20,6 20,6.5 20,7 19.484375,7.015625 18.96875,7.03125 18.984375,7.140625 19,7.25 18.96875,7.03125 Q 18.9375,6.8125 18.875,6.625 L 18.8125,6.4375 18.90625,6.71875 19,7 18.875,6.625"
         id="path15256"
         inkscape:connector-curvature="0" />
      <path
         style="fill:#050505;fill-opacity:0.58431373"
         d="M 2,7.5 2,7 2.5,7 3,7 3,7.5 3,8 3,7.625 3,7.25 3,7.5 Q 3,7.75 3.125,7.875 L 3.25,8 3.1875,7.9375 3.125,7.875 2.5625,7.9375 2,8 2,7.5"
         id="path15258"
         inkscape:connector-curvature="0" />
      <path
         style="fill:#d5d9d9;fill-opacity:1"
         d="M 3,7.5 3,7 3.5,7 4,7 3.9375,7.5625 3.875,8.125 3.9375,8.1875 4,8.25 3.875,8.125 Q 3.75,8 3.5,8 L 3.25,8 3.625,8 4,8 3.5,8 Q 3,8 3,7.5"
         id="path15260"
         inkscape:connector-curvature="0" />
      <path
         style="fill:#799091;fill-opacity:1"
         d="M 8.875,7.625 8.75,7.25 8.84375,7.53125 8.9375,7.8125 8.875,7.625 Q 8.8125,7.4375 8.71875,7.28125 L 8.625,7.125 8.671875,7.203125 8.71875,7.28125 9.015625,6.984375 9.3125,6.6875 9.25,6.625 9.1875,6.5625 9.3125,6.6875 Q 9.4375,6.8125 9.625,6.875 L 9.8125,6.9375 9.53125,6.84375 9.25,6.75 9.625,6.875 10,7 10,7.5 10,8 9.5,8 9,8 8.875,7.625"
         id="path15262"
         inkscape:connector-curvature="0" />
      <path
         style="fill:#8c8759;fill-opacity:1"
         d="M 10,7.5 10,7 10.5,7 11,7 11,7.5 11,8 10.5,8 10,8 10,7.5"
         id="path15264"
         inkscape:connector-curvature="0" />
      <path
         style="fill:#908a60;fill-opacity:1"
         d="M 11,7.5 11,7 11.515625,7.015625 12.03125,7.03125 12.046875,6.921875 12.0625,6.8125 12.03125,7.03125 Q 12,7.25 12,7.5 L 12,7.75 12,7.375 12,7 12,7.5 12,8 11.5,8 11,8 11,7.5"
         id="path15266"
         inkscape:connector-curvature="0" />
      <path
         style="fill:#8a8d8d;fill-opacity:1"
         d="M 12,7.5 12,7 12.375,6.875 12.75,6.75 12.46875,6.84375 12.1875,6.9375 12.375,6.875 Q 12.5625,6.8125 12.6875,6.6875 L 12.8125,6.5625 12.75,6.625 12.6875,6.6875 12.984375,6.984375 13.28125,7.28125 13.328125,7.203125 13.375,7.125 13.28125,7.28125 Q 13.1875,7.4375 13.125,7.625 L 13.0625,7.8125 13.15625,7.53125 13.25,7.25 13.125,7.625 13,8 12.5,8 12,8 12,7.5"
         id="path15268"
         inkscape:connector-curvature="0" />
      <path
         style="fill:#a2d7d6;fill-opacity:1"
         d="M 18,7.5 18,7 18.484375,7.015625 18.96875,7.03125 18.953125,6.921875 18.9375,6.8125 18.96875,7.03125 Q 19,7.25 19,7.5 L 19,7.75 19,7.375 19,7 19,7.5 Q 19,8 18.5,8 L 18,8 18,7.5 M 18,6.875 18,7 18,7.375 18,7.75 18,7.5 Q 18,7.25 18,7 l 0,-0.25 0,0.125"
         id="path15270"
         inkscape:connector-curvature="0" />
      <path
         style="fill:#040909;fill-opacity:0.70588235"
         d="M 19,7.5 19,7 19,7.375 19,7.75 19,7.5 Q 19,7.25 18.96875,7.03125 L 18.9375,6.8125 18.953125,6.921875 18.96875,7.03125 19.484375,7.015625 20,7 20,7.5 20,8 19.4375,7.9375 18.875,7.875 18.8125,7.9375 18.75,8 18.875,7.875 Q 19,7.75 19,7.5 L 19,7.25 19,7.625 19,8 19,7.5"
         id="path15272"
         inkscape:connector-curvature="0" />
      <path
         style="fill:#000000;fill-opacity:0.07058824"
         d="M 2,8.5 2,8 2.5625,7.9375 3.125,7.875 3.1875,8.3125 3.25,8.75 3.15625,8.46875 3.0625,8.1875 3.125,8.375 Q 3.1875,8.5625 3.3125,8.6875 L 3.4375,8.8125 3.375,8.75 3.3125,8.6875 3,9 2.6875,9.3125 2.75,9.375 2.8125,9.4375 2.6875,9.3125 Q 2.5625,9.1875 2.375,9.125 L 2.1875,9.0625 2.46875,9.15625 2.75,9.25 2.375,9.125 Q 2,9 2,8.5"
         id="path15274"
         inkscape:connector-curvature="0" />
      <path
         style="fill:#455050;fill-opacity:0.98039216"
         d="M 3.1875,8.3125 3.125,7.875 3.0625,7.8125 3,7.75 3.125,7.875 Q 3.25,8 3.5,8 L 3.75,8 3.375,8 3,8 3.5,8 Q 4,8 4,8.5 L 4,9 3.625,8.875 Q 3.25,8.75 3.1875,8.3125"
         id="path15276"
         inkscape:connector-curvature="0" />
      <path
         style="fill:#e6fdfc;fill-opacity:1"
         d="M 4,8.5 4,8 4,8.375 4,8.75 4,8.5 Q 4,8.25 3.875,8.125 L 3.75,8 3.8125,8.0625 3.875,8.125 4.3125,8.1875 Q 4.75,8.25 4.875,8.625 L 5,9 4.5,9 4,9 4,8.5"
         id="path15278"
         inkscape:connector-curvature="0" />
      <path
         style="fill:#bebdb4;fill-opacity:1"
         d="M 8.125,8.625 Q 8.25,8.25 8.625,8.125 L 9,8 9,8.5 9,9 8.5,9 8,9 8.125,8.625"
         id="path15280"
         inkscape:connector-curvature="0" />
      <path
         style="fill:#bfaa11;fill-opacity:1"
         d="M 9,8.5 9,8 9.5,8 10,8 10,8.5 10,9 9.5,9 9,9 9,8.5 M 10,9.125 10,9 10,8.625 10,8.25 10,8.5 q 0,0.25 0,0.5 l 0,0.25 0,-0.125"
         id="path15282"
         inkscape:connector-curvature="0" />
      <path
         style="fill:#f3da00;fill-opacity:1"
         d="M 10,8.5 10,8 10.5,8 11,8 11.125,8.375 11.25,8.75 11.15625,8.46875 11.0625,8.1875 11.125,8.375 q 0.0625,0.1875 0.1875,0.3125 l 0.125,0.125 L 11.375,8.75 11.3125,8.6875 11,9 10.6875,9.3125 10.75,9.375 10.8125,9.4375 10.6875,9.3125 Q 10.5625,9.1875 10.375,9.125 L 10.1875,9.0625 10.46875,9.15625 10.75,9.25 10.375,9.125 10,9 10,8.5"
         id="path15284"
         inkscape:connector-curvature="0" />
      <path
         style="fill:#f1d100;fill-opacity:1"
         d="M 11.125,8.375 11,8 11.5,8 12,8 12,8.5 12,9 11.625,8.875 q -0.375,-0.125 -0.5,-0.5"
         id="path15286"
         inkscape:connector-curvature="0" />
      <path
         style="fill:#b67d16;fill-opacity:1"
         d="M 12,8.5 12,8 12.5,8 13,8 13,8.5 13,9 12.5,9 12,9 12,8.5 M 12,8.625 12,9 12,9.125 12,9.25 12,9 q 0,-0.25 0,-0.5 l 0,-0.25 0,0.375"
         id="path15288"
         inkscape:connector-curvature="0" />
      <path
         style="fill:#c1bcbc;fill-opacity:1"
         d="M 13,8.5 13,8 13.375,8.125 q 0.375,0.125 0.5,0.5 L 14,9 13.90625,8.71875 13.8125,8.4375 13.875,8.625 q 0.0625,0.1875 0.09375,0.40625 L 14,9.25 13.984375,9.140625 13.96875,9.03125 13.484375,9.015625 13,9 13,8.5"
         id="path15290"
         inkscape:connector-curvature="0" />
      <path
         style="fill:#d8ffff;fill-opacity:1"
         d="M 17,8.5 Q 17.25,8.25 17.625,8.125 L 18,8 17.875,8.375 Q 17.75,8.75 17.5,9 L 17.25,9.25 17.4375,9.0625 17.625,8.875 17.5,9 Q 17.375,9.125 17.28125,9.28125 L 17.1875,9.4375 17.234375,9.359375 17.28125,9.28125 17.015625,9.015625 16.75,8.75 17,8.5 M 16.9375,8.5625 16.75,8.75 16.6875,8.8125 16.625,8.875 16.75,8.75 Q 16.875,8.625 17,8.5 l 0.125,-0.125 -0.1875,0.1875"
         id="path15292"
         inkscape:connector-curvature="0" />
      <path
         style="fill:#476a69;fill-opacity:1"
         d="M 17.875,8.375 18,8 18.5,8 19,8 18.625,8 18.25,8 18.5,8 q 0.25,0 0.375,-0.125 L 19,7.75 18.9375,7.8125 18.875,7.875 18.8125,8.3125 Q 18.75,8.75 18.5,9 L 18.25,9.25 17.984375,8.984375 17.71875,8.71875 17.671875,8.796875 17.625,8.875 17.71875,8.71875 Q 17.8125,8.5625 17.875,8.375 L 17.9375,8.1875 17.84375,8.46875 17.75,8.75 17.875,8.375 M 18.1875,9.3125 18.25,9.25 18.4375,9.0625 18.625,8.875 18.5,9 q -0.125,0.125 -0.25,0.25 l -0.125,0.125 0.0625,-0.0625"
         id="path15294"
         inkscape:connector-curvature="0" />
      <path
         style="fill:#000000;fill-opacity:0.2"
         d="M 18.8125,8.3125 18.875,7.875 19.4375,7.9375 20,8 20,8.5 Q 20,9 19.625,9.125 L 19.25,9.25 19.53125,9.15625 19.8125,9.0625 19.625,9.125 Q 19.4375,9.1875 19.3125,9.3125 L 19.1875,9.4375 19.25,9.375 19.3125,9.3125 19.015625,9.015625 18.71875,8.71875 18.671875,8.796875 18.625,8.875 18.71875,8.71875 Q 18.8125,8.5625 18.875,8.375 L 18.9375,8.1875 18.84375,8.46875 18.75,8.75 18.8125,8.3125"
         id="path15296"
         inkscape:connector-curvature="0" />
      <path
         style="fill:#000000;fill-opacity:0.30196078"
         d="M 2.875,9.625 2.75,9.25 2.84375,9.53125 2.9375,9.8125 2.875,9.625 Q 2.8125,9.4375 2.6875,9.3125 L 2.5625,9.1875 2.625,9.25 2.6875,9.3125 3,9 3.3125,8.6875 3.25,8.625 3.1875,8.5625 3.3125,8.6875 Q 3.4375,8.8125 3.625,8.875 L 3.8125,8.9375 3.53125,8.84375 3.25,8.75 3.625,8.875 4,9 4.125,9.375 4.25,9.75 4.15625,9.46875 4.0625,9.1875 4.125,9.375 Q 4.1875,9.5625 4.3125,9.6875 L 4.4375,9.8125 4.375,9.75 4.3125,9.6875 3.984375,9.984375 3.65625,10.28125 3.703125,10.328125 3.75,10.375 3.65625,10.28125 Q 3.5625,10.1875 3.375,10.125 L 3.1875,10.0625 3.46875,10.15625 3.75,10.25 3.375,10.125 Q 3,10 2.875,9.625"
         id="path15298"
         inkscape:connector-curvature="0" />
      <path
         style="fill:#456564;fill-opacity:0.99607843"
         d="M 4.125,9.375 4,9 4.5,9 5,9 5,9.5 5,10 4.625,9.875 Q 4.25,9.75 4.125,9.375"
         id="path15300"
         inkscape:connector-curvature="0" />
      <path
         style="fill:#c0e9e8;fill-opacity:1"
         d="M 5,9.5 5,9 5.375,9.125 Q 5.75,9.25 5.8125,9.6875 L 5.875,10.125 5.9375,10.1875 6,10.25 5.875,10.125 Q 5.75,10 5.5,10 L 5.25,10 5.625,10 6,10 5.5,10 5,10 5,9.5"
         id="path15302"
         inkscape:connector-curvature="0" />
      <path
         style="fill:#d8dfdf;fill-opacity:1"
         d="M 5.8125,9.6875 5.75,9.25 5.84375,9.53125 5.9375,9.8125 5.875,9.625 Q 5.8125,9.4375 5.6875,9.3125 L 5.5625,9.1875 5.625,9.25 5.6875,9.3125 5.96875,9.03125 Q 6.25,8.75 6.5,8.75 q 0.25,0 0.53125,0.28125 L 7.3125,9.3125 7.375,9.25 7.4375,9.1875 7.3125,9.3125 Q 7.1875,9.4375 7.125,9.625 L 7.0625,9.8125 7.15625,9.53125 7.25,9.25 7.125,9.625 7,10 6.4375,10.0625 5.875,10.125 5.8125,9.6875"
         id="path15304"
         inkscape:connector-curvature="0" />
      <path
         style="fill:#b1b1bb;fill-opacity:1"
         d="M 7.125,9.625 Q 7.25,9.25 7.625,9.125 L 8,9 8,9.5 8,10 7.5,10 7,10 7.125,9.625"
         id="path15306"
         inkscape:connector-curvature="0" />
      <path
         style="fill:#988b26;fill-opacity:1"
         d="M 8,9.5 8,9 8.5,9 9,9 9,9.5 9,10 8.5,10 8,10 8,9.5 M 8,9.625 8,10 8,10.125 8,10.25 8,10 Q 8,9.75 8,9.5 L 8,9.25 8,9.625 m 1,0.5 L 9,10 9,9.625 9,9.25 9,9.5 Q 9,9.75 9,10 l 0,0.25 0,-0.125"
         id="path15308"
         inkscape:connector-curvature="0" />
      <path
         style="fill:#ffec00;fill-opacity:1"
         d="M 9,9.5 9,9 9.5,9 10,9 10,9.5 10,10 9.5,10 9,10 9,9.5"
         id="path15310"
         inkscape:connector-curvature="0" />
      <path
         style="fill:#ffe200;fill-opacity:1"
         d="M 10,9.5 10,9 10.375,9.125 q 0.375,0.125 0.5,0.5 L 11,10 10.5,10 10,10 10,9.5"
         id="path15312"
         inkscape:connector-curvature="0" />
      <path
         style="fill:#ffdf00;fill-opacity:1"
         d="M 10.875,9.625 10.75,9.25 10.84375,9.53125 10.9375,9.8125 10.875,9.625 Q 10.8125,9.4375 10.6875,9.3125 L 10.5625,9.1875 10.625,9.25 10.6875,9.3125 11,9 11.3125,8.6875 11.25,8.625 11.1875,8.5625 l 0.125,0.125 q 0.125,0.125 0.3125,0.1875 L 11.8125,8.9375 11.53125,8.84375 11.25,8.75 11.625,8.875 12,9 12,9.5 12,10 11.5,10 11,10 10.875,9.625"
         id="path15314"
         inkscape:connector-curvature="0" />
      <path
         style="fill:#fb8c00;fill-opacity:1"
         d="M 12,9.5 12,9 12.5,9 13,9 13,9.5 13,10 12.5,10 12,10 12,9.5 M 12,8.875 12,9 12,9.375 12,9.75 12,9.5 Q 12,9.25 12,9 l 0,-0.25 0,0.125"
         id="path15316"
         inkscape:connector-curvature="0" />
      <path
         style="fill:#a06e40;fill-opacity:1"
         d="M 13,9.5 13,9 13.484375,9.015625 13.96875,9.03125 13.953125,8.921875 13.9375,8.8125 13.96875,9.03125 Q 14,9.25 14,9.5 L 14,9.75 14,9.375 14,9 14,9.5 14,10 13.5,10 13,10 13,9.5 m 0,0.125 0,0.375 0,0.125 0,0.125 0,-0.25 q 0,-0.25 0,-0.5 l 0,-0.25 0,0.375"
         id="path15318"
         inkscape:connector-curvature="0" />
      <path
         style="fill:#fdfeff;fill-opacity:1"
         d="M 14,9.5 14,9 14.5,9 15,9 15,9.5 15,10 14.5,10 14,10 14,9.5"
         id="path15320"
         inkscape:connector-curvature="0" />
      <path
         style="fill:#fcffff;fill-opacity:1"
         d="M 15,9.5 15,9 15.375,8.875 Q 15.75,8.75 16.015625,9.015625 L 16.28125,9.28125 16.328125,9.203125 16.375,9.125 16.28125,9.28125 Q 16.1875,9.4375 16.125,9.625 L 16.0625,9.8125 16.15625,9.53125 16.25,9.25 16.125,9.625 16,10 15.5,10 15,10 15,9.5"
         id="path15322"
         inkscape:connector-curvature="0" />
      <path
         style="fill:#ccfaf9;fill-opacity:1"
         d="M 16.125,9.625 Q 16.25,9.25 16.5,9 L 16.75,8.75 17.015625,9.015625 17.28125,9.28125 17.328125,9.203125 17.375,9.125 17.28125,9.28125 Q 17.1875,9.4375 17.125,9.625 L 17.0625,9.8125 17.15625,9.53125 17.25,9.25 17.125,9.625 17,10 16.5,10 16,10 16.125,9.625 M 16.8125,8.6875 16.75,8.75 16.5625,8.9375 16.375,9.125 16.5,9 q 0.125,-0.125 0.25,-0.25 l 0.125,-0.125 -0.0625,0.0625"
         id="path15324"
         inkscape:connector-curvature="0" />
      <path
         style="fill:#5c8987;fill-opacity:1"
         d="M 17.125,9.625 Q 17.25,9.25 17.5,9 L 17.75,8.75 17.5625,8.9375 17.375,9.125 17.5,9 Q 17.625,8.875 17.71875,8.71875 L 17.8125,8.5625 17.765625,8.640625 17.71875,8.71875 17.984375,8.984375 18.25,9.25 18,9.5 Q 17.75,9.75 17.375,9.875 L 17,10 17.125,9.625 M 18.0625,9.4375 18.25,9.25 18.3125,9.1875 18.375,9.125 18.25,9.25 Q 18.125,9.375 18,9.5 l -0.125,0.125 0.1875,-0.1875"
         id="path15326"
         inkscape:connector-curvature="0" />
      <path
         style="fill:#000000;fill-opacity:0.55686275"
         d="M 18,9.5 Q 18.25,9.25 18.5,9 L 18.75,8.75 18.5625,8.9375 18.375,9.125 18.5,9 Q 18.625,8.875 18.71875,8.71875 L 18.8125,8.5625 18.765625,8.640625 18.71875,8.71875 19.015625,9.015625 19.3125,9.3125 19.375,9.25 19.4375,9.1875 19.3125,9.3125 Q 19.1875,9.4375 19.125,9.625 L 19.0625,9.8125 19.15625,9.53125 19.25,9.25 19.125,9.625 Q 19,10 18.625,10.125 L 18.25,10.25 18.53125,10.15625 18.8125,10.0625 18.625,10.125 q -0.1875,0.0625 -0.3125,0.1875 l -0.125,0.125 L 18.25,10.375 18.3125,10.3125 18.015625,10.015625 17.71875,9.71875 17.640625,9.765625 17.5625,9.8125 17.71875,9.71875 Q 17.875,9.625 18,9.5 L 18.125,9.375 17.9375,9.5625 17.75,9.75 18,9.5"
         id="path15328"
         inkscape:connector-curvature="0" />
      <path
         style="fill:#000000;fill-opacity:0.33333333"
         d="m 3.75,10.5 0,-0.25 0,0.1875 0,0.1875 0,-0.125 q 0,-0.125 -0.09375,-0.21875 L 3.5625,10.1875 3.609375,10.234375 3.65625,10.28125 3.984375,9.984375 4.3125,9.6875 4.25,9.625 4.1875,9.5625 4.3125,9.6875 Q 4.4375,9.8125 4.625,9.875 L 4.8125,9.9375 4.53125,9.84375 4.25,9.75 4.625,9.875 5,10 5,10.5 5,11 4.625,11.125 4.25,11.25 4.53125,11.15625 4.8125,11.0625 4.625,11.125 Q 4.4375,11.1875 4.28125,11.28125 L 4.125,11.375 4.203125,11.328125 4.28125,11.28125 3.96875,11 3.65625,10.71875 3.609375,10.765625 3.5625,10.8125 3.65625,10.71875 Q 3.75,10.625 3.75,10.5 l 0,-0.125 0,0.1875 0,0.1875 0,-0.25"
         id="path15330"
         inkscape:connector-curvature="0" />
      <path
         style="fill:#425150;fill-opacity:1"
         d="M 5,10.5 5,10 5.5,10 Q 6,10 6,10.5 6,11 5.5,11 L 5,11 5,10.5"
         id="path15332"
         inkscape:connector-curvature="0" />
      <path
         style="fill:#b4bbba;fill-opacity:1"
         d="M 6,10.5 6,10 6,10.375 6,10.75 6,10.5 Q 6,10.25 5.875,10.125 L 5.75,10 5.8125,10.0625 5.875,10.125 6.4375,10.0625 7,10 7,10.5 7,11 6.4375,10.9375 5.875,10.875 5.8125,10.9375 5.75,11 5.875,10.875 Q 6,10.75 6,10.5 L 6,10.25 6,10.625 6,11 6,10.5"
         id="path15334"
         inkscape:connector-curvature="0" />
      <path
         style="fill:#c2c4d1;fill-opacity:1"
         d="M 7,10.5 7,10 7.5,10 8,10 8,10.5 8,11 7.5,11 7,11 7,10.5"
         id="path15336"
         inkscape:connector-curvature="0" />
      <path
         style="fill:#b29e18;fill-opacity:1"
         d="M 8,10.5 8,10 8.5,10 9,10 9,10.5 9,11 8.5,11 8,11 8,10.5 M 9,10.375 9,10 9,9.875 9,9.75 9,10 q 0,0.25 0,0.5 l 0,0.25 0,-0.375 M 8,9.875 8,10 8,10.375 8,10.75 8,10.5 Q 8,10.25 8,10 L 8,9.75 8,9.875"
         id="path15338"
         inkscape:connector-curvature="0" />
      <path
         style="fill:#ffeb00;fill-opacity:1"
         d="M 9,10.5 9,10 9.5,10 10,10 10,10.5 10,11 9.5,11 9,11 9,10.5"
         id="path15340"
         inkscape:connector-curvature="0" />
      <path
         style="fill:#ffe400;fill-opacity:1"
         d="m 10,10.5 0,-0.5 0.5,0 0.5,0 0,0.5 0,0.5 -0.5,0 -0.5,0 0,-0.5"
         id="path15342"
         inkscape:connector-curvature="0" />
      <path
         style="fill:#ffe000;fill-opacity:1"
         d="m 11,10.5 0,-0.5 0.5,0 0.5,0 0,0.5 0,0.5 -0.5,0 -0.5,0 0,-0.5"
         id="path15344"
         inkscape:connector-curvature="0" />
      <path
         style="fill:#ff8e00;fill-opacity:1"
         d="m 12,10.5 0,-0.5 0.5,0 0.5,0 0,0.5 0,0.5 -0.5,0 -0.5,0 0,-0.5"
         id="path15346"
         inkscape:connector-curvature="0" />
      <path
         style="fill:#a26524;fill-opacity:1"
         d="m 13,10.5 0,-0.5 0.5,0 0.5,0 0,0.5 0,0.5 -0.5,0 -0.5,0 0,-0.5 m 0,-0.625 0,0.125 0,0.375 0,0.375 0,-0.25 q 0,-0.25 0,-0.5 l 0,-0.25 0,0.125"
         id="path15348"
         inkscape:connector-curvature="0" />
      <path
         style="fill:#a8dbe1;fill-opacity:1"
         d="m 14,10.5 0,-0.5 0.5,0 0.5,0 0,0.5 0,0.5 -0.5,0 -0.5,0 0,-0.5"
         id="path15350"
         inkscape:connector-curvature="0" />
      <path
         style="fill:#8dc0bf;fill-opacity:1"
         d="m 15,10.5 0,-0.5 0.5,0 0.5,0 0,0.5 0,0.5 0,-0.375 0,-0.375 0,0.25 q 0,0.25 0.125,0.375 L 16.25,11 16.1875,10.9375 16.125,10.875 15.5625,10.9375 15,11 15,10.5"
         id="path15352"
         inkscape:connector-curvature="0" />
      <path
         style="fill:#33504e;fill-opacity:0.98823529"
         d="m 16,10.5 0,-0.5 0.5,0 0.5,0 -0.0625,0.5625 -0.0625,0.5625 0.0625,0.0625 L 17,11.25 16.875,11.125 Q 16.75,11 16.5,11 l -0.25,0 0.375,0 0.375,0 -0.5,0 Q 16,11 16,10.5"
         id="path15354"
         inkscape:connector-curvature="0" />
      <path
         style="fill:#000000;fill-opacity:0.41568627"
         d="M 16.9375,10.5625 17,10 17.375,9.875 17.75,9.75 17.46875,9.84375 17.1875,9.9375 17.375,9.875 Q 17.5625,9.8125 17.71875,9.71875 L 17.875,9.625 17.796875,9.671875 17.71875,9.71875 18.015625,10.015625 18.3125,10.3125 18.375,10.25 l 0.0625,-0.0625 -0.125,0.125 q -0.125,0.125 -0.1875,0.3125 L 18.0625,10.8125 18.15625,10.53125 18.25,10.25 18.125,10.625 18,11 17.4375,11.0625 16.875,11.125 16.9375,10.5625"
         id="path15356"
         inkscape:connector-curvature="0" />
      <path
         style="fill:#000000;fill-opacity:0.30588235"
         d="M 2.875,11.375 Q 3,11 3.375,10.875 L 3.75,10.75 3.46875,10.84375 3.1875,10.9375 3.375,10.875 Q 3.5625,10.8125 3.65625,10.71875 L 3.75,10.625 3.703125,10.671875 3.65625,10.71875 3.96875,11 4.28125,11.28125 4.359375,11.234375 4.4375,11.1875 4.28125,11.28125 Q 4.125,11.375 4,11.5 L 3.875,11.625 4.0625,11.4375 4.25,11.25 4,11.5 Q 3.75,11.75 3.5,12 L 3.25,12.25 3.4375,12.0625 3.625,11.875 3.5,12 Q 3.375,12.125 3.28125,12.28125 L 3.1875,12.4375 3.234375,12.359375 3.28125,12.28125 2.984375,11.984375 2.6875,11.6875 2.625,11.75 2.5625,11.8125 2.6875,11.6875 Q 2.8125,11.5625 2.875,11.375 L 2.9375,11.1875 2.84375,11.46875 2.75,11.75 2.875,11.375"
         id="path15358"
         inkscape:connector-curvature="0" />
      <path
         style="fill:#5f5f5f;fill-opacity:0.98823529"
         d="M 4,11.5 Q 4.25,11.25 4.625,11.125 L 5,11 4.875,11.375 Q 4.75,11.75 4.5,12 L 4.25,12.25 4,12 3.75,11.75 4,11.5 M 3.9375,11.5625 3.75,11.75 3.6875,11.8125 3.625,11.875 3.75,11.75 Q 3.875,11.625 4,11.5 l 0.125,-0.125 -0.1875,0.1875 m 0.25,0.75 L 4.25,12.25 4.4375,12.0625 4.625,11.875 4.5,12 q -0.125,0.125 -0.25,0.25 l -0.125,0.125 0.0625,-0.0625"
         id="path15360"
         inkscape:connector-curvature="0" />
      <path
         style="fill:#eceaea;fill-opacity:1"
         d="M 4.875,11.375 5,11 5.5,11 6,11 5.625,11 5.25,11 5.5,11 q 0.25,0 0.375,-0.125 L 6,10.75 5.9375,10.8125 5.875,10.875 5.9375,11.4375 Q 6,12 5.625,12.125 5.25,12.25 4.984375,11.984375 L 4.71875,11.71875 4.671875,11.796875 4.625,11.875 4.71875,11.71875 Q 4.8125,11.5625 4.875,11.375 L 4.9375,11.1875 4.84375,11.46875 4.75,11.75 4.875,11.375"
         id="path15362"
         inkscape:connector-curvature="0" />
      <path
         style="fill:#ffffff;fill-opacity:1"
         d="M 5.9375,11.4375 5.875,10.875 6.4375,10.9375 7,11 7.5,11 8,11 8.125,11.375 8.25,11.75 8.15625,11.46875 8.0625,11.1875 8.125,11.375 q 0.0625,0.1875 0.1875,0.3125 l 0.125,0.125 L 8.375,11.75 8.3125,11.6875 8.03125,11.96875 Q 7.75,12.25 7.75,12.5 q 0,0.25 0.28125,0.53125 L 8.3125,13.3125 8.375,13.25 8.4375,13.1875 8.3125,13.3125 Q 8.1875,13.4375 8.125,13.625 L 8.0625,13.8125 8.15625,13.53125 8.25,13.25 8.125,13.625 8,14 7.625,14.125 7.25,14.25 7.53125,14.15625 7.8125,14.0625 7.625,14.125 Q 7.4375,14.1875 7.3125,14.3125 L 7.1875,14.4375 7.25,14.375 7.3125,14.3125 7.03125,14.03125 Q 6.75,13.75 6.375,13.875 6,14 6,14.5 L 6,15 5.5,15 5,15 4.5,15 4,15 4,14.5 4,14 4.125,13.625 Q 4.25,13.25 3.984375,12.984375 L 3.71875,12.71875 3.640625,12.765625 3.5625,12.8125 3.71875,12.71875 Q 3.875,12.625 4,12.5 L 4.125,12.375 3.9375,12.5625 3.75,12.75 4,12.5 Q 4.25,12.25 4.5,12 L 4.75,11.75 4.5625,11.9375 4.375,12.125 4.5,12 Q 4.625,11.875 4.71875,11.71875 L 4.8125,11.5625 4.765625,11.640625 4.71875,11.71875 4.984375,11.984375 Q 5.25,12.25 5.625,12.125 6,12 5.9375,11.4375"
         id="path15364"
         inkscape:connector-curvature="0" />
      <path
         style="fill:#a29056;fill-opacity:1"
         d="M 8.125,11.375 8,11 8.5,11 9,11 9,11.5 9,12 8.625,11.875 q -0.375,-0.125 -0.5,-0.5"
         id="path15366"
         inkscape:connector-curvature="0" />
      <path
         style="fill:#f39d00;fill-opacity:1"
         d="M 9,11.5 9,11 9.5,11 10,11 10,11.5 10,12 9.5,12 9,12 9,11.5 M 10.125,11 10,11 9.625,11 9.25,11 9.5,11 q 0.25,0 0.5,0 l 0.25,0 -0.125,0"
         id="path15368"
         inkscape:connector-curvature="0" />
      <path
         style="fill:#ffb700;fill-opacity:1"
         d="m 10,11.5 0,-0.5 0.5,0 0.5,0 0,0.5 0,0.5 -0.5,0 -0.5,0 0,-0.5 M 10.625,12 11,12 11.125,12 11.25,12 11,12 q -0.25,0 -0.5,0 l -0.25,0 0.375,0 m 0.5,-1 -0.125,0 -0.375,0 -0.375,0 0.25,0 q 0.25,0 0.5,0 l 0.25,0 -0.125,0 M 10.375,11 10,11 9.875,11 9.75,11 10,11 q 0.25,0 0.5,0 l 0.25,0 -0.375,0"
         id="path15370"
         inkscape:connector-curvature="0" />
      <path
         style="fill:#ffa500;fill-opacity:1"
         d="m 11,11.5 0,-0.5 0.5,0 0.5,0 0,0.5 0,0.5 -0.5,0 -0.5,0 0,-0.5 M 10.875,12 11,12 l 0.375,0 0.375,0 -0.25,0 q -0.25,0 -0.5,0 l -0.25,0 0.125,0 m 0.5,-1 L 11,11 10.875,11 10.75,11 11,11 q 0.25,0 0.5,0 l 0.25,0 -0.375,0"
         id="path15372"
         inkscape:connector-curvature="0" />
      <path
         style="fill:#ee7000;fill-opacity:1"
         d="m 12,11.5 0,-0.5 0.5,0 0.5,0 0,0.5 0,0.5 -0.5,0 -0.5,0 0,-0.5"
         id="path15374"
         inkscape:connector-curvature="0" />
      <path
         style="fill:#725b3c;fill-opacity:1"
         d="m 13,11.5 0,-0.5 0.5,0 0.5,0 0,0.5 0,0.5 -0.5,0 -0.5,0 0,-0.5 M 13.625,12 14,12 14.125,12 14.25,12 14,12 q -0.25,0 -0.5,0 l -0.25,0 0.375,0"
         id="path15376"
         inkscape:connector-curvature="0" />
      <path
         style="fill:#839a9f;fill-opacity:1"
         d="m 14,11.5 0,-0.5 0.5,0 0.5,0 0,0.5 0,0.5 -0.5,0 -0.5,0 0,-0.5 M 13.875,12 14,12 l 0.375,0 0.375,0 -0.25,0 q -0.25,0 -0.5,0 l -0.25,0 0.125,0 m 0.75,0 0.375,0 0.125,0 0.125,0 -0.25,0 q -0.25,0 -0.5,0 l -0.25,0 0.375,0 m 0.5,-1 -0.125,0 -0.375,0 -0.375,0 0.25,0 q 0.25,0 0.5,0 l 0.25,0 -0.125,0"
         id="path15378"
         inkscape:connector-curvature="0" />
      <path
         style="fill:#babdbd;fill-opacity:1"
         d="M 15,11.5 15,11 15.5625,10.9375 16.125,10.875 16.0625,11.4375 16,12 15.5,12 15,12 15,11.5 M 14.875,12 15,12 l 0.375,0 0.375,0 -0.25,0 q -0.25,0 -0.5,0 l -0.25,0 0.125,0 m 0.5,-1 L 15,11 14.875,11 14.75,11 15,11 q 0.25,0 0.5,0 l 0.25,0 -0.375,0"
         id="path15380"
         inkscape:connector-curvature="0" />
      <path
         style="fill:#b6bdbd;fill-opacity:1"
         d="M 16.0625,11.4375 16.125,10.875 16.0625,10.8125 16,10.75 16.125,10.875 Q 16.25,11 16.5,11 l 0.25,0 -0.375,0 -0.375,0 0.5,0 q 0.5,0 0.5,0.5 l 0,0.5 -0.5,0 -0.5,0 0.0625,-0.5625"
         id="path15382"
         inkscape:connector-curvature="0" />
      <path
         style="fill:#1f2828;fill-opacity:0.89019608"
         d="m 17,11.5 0,-0.5 0,0.375 0,0.375 0,-0.25 q 0,-0.25 -0.125,-0.375 L 16.75,11 16.8125,11.0625 16.875,11.125 17.4375,11.0625 18,11 18.125,11.375 18.25,11.75 18.15625,11.46875 18.0625,11.1875 18.125,11.375 q 0.0625,0.1875 0.1875,0.3125 l 0.125,0.125 L 18.375,11.75 18.3125,11.6875 18,12 l -0.3125,0.3125 0.0625,0.0625 0.0625,0.0625 -0.125,-0.125 Q 17.5625,12.1875 17.375,12.125 L 17.1875,12.0625 17.46875,12.15625 17.75,12.25 17.375,12.125 17,12 17,11.5"
         id="path15384"
         inkscape:connector-curvature="0" />
      <path
         style="fill:#000000;fill-opacity:0.03529412"
         d="M 18.125,11.375 18,11 l 0.5,0 q 0.5,0 0.5,0.5 l 0,0.5 -0.375,-0.125 q -0.375,-0.125 -0.5,-0.5"
         id="path15386"
         inkscape:connector-curvature="0" />
      <path
         style="fill:#000000;fill-opacity:0.09019608"
         d="M 2,12.5 Q 2,12 2.375,11.875 L 2.75,11.75 2.46875,11.84375 2.1875,11.9375 2.375,11.875 Q 2.5625,11.8125 2.6875,11.6875 L 2.8125,11.5625 2.75,11.625 2.6875,11.6875 2.984375,11.984375 3.28125,12.28125 3.328125,12.203125 3.375,12.125 3.28125,12.28125 Q 3.1875,12.4375 3.125,12.625 L 3.0625,12.8125 3.15625,12.53125 3.25,12.25 3.171875,12.671875 3.09375,13.09375 2.546875,13.046875 2,13 2,12.5"
         id="path15388"
         inkscape:connector-curvature="0" />
      <path
         style="fill:#575757;fill-opacity:0.98823529"
         d="M 3.171875,12.671875 Q 3.25,12.25 3.5,12 L 3.75,11.75 4,12 4.25,12.25 4,12.5 Q 3.75,12.75 3.375,12.875 L 3,13 3.28125,12.90625 3.5625,12.8125 3.375,12.875 Q 3.1875,12.9375 3.09375,13.09375 L 3,13.25 3.046875,13.171875 3.09375,13.09375 3.171875,12.671875 M 4.0625,12.4375 4.25,12.25 4.3125,12.1875 4.375,12.125 4.25,12.25 Q 4.125,12.375 4,12.5 l -0.125,0.125 0.1875,-0.1875 m -0.25,-0.75 L 3.75,11.75 3.5625,11.9375 3.375,12.125 3.5,12 q 0.125,-0.125 0.25,-0.25 l 0.125,-0.125 -0.0625,0.0625"
         id="path15390"
         inkscape:connector-curvature="0" />
      <path
         style="fill:#dfdee3;fill-opacity:1"
         d="m 7.75,12.5 q 0,-0.25 0.28125,-0.53125 L 8.3125,11.6875 8.25,11.625 8.1875,11.5625 l 0.125,0.125 q 0.125,0.125 0.3125,0.1875 L 8.8125,11.9375 8.53125,11.84375 8.25,11.75 8.625,11.875 9,12 9,12.5 9,13 8.625,13.125 8.25,13.25 8.53125,13.15625 8.8125,13.0625 8.625,13.125 Q 8.4375,13.1875 8.3125,13.3125 L 8.1875,13.4375 8.25,13.375 8.3125,13.3125 8.03125,13.03125 Q 7.75,12.75 7.75,12.5"
         id="path15392"
         inkscape:connector-curvature="0" />
      <path
         style="fill:#976c42;fill-opacity:1"
         d="M 9,12.5 9,12 9.5,12 10,12 10,12.5 10,13 9.5,13 9,13 9,12.5"
         id="path15394"
         inkscape:connector-curvature="0" />
      <path
         style="fill:#bf5900;fill-opacity:1"
         d="m 10,12.5 0,-0.5 0.5,0 0.5,0 0,0.5 0,0.5 -0.5,0 -0.5,0 0,-0.5"
         id="path15396"
         inkscape:connector-curvature="0" />
      <path
         style="fill:#c05c00;fill-opacity:1"
         d="m 11,12.5 0,-0.5 0.5,0 0.5,0 0,0.5 0,0.5 -0.5,0 -0.5,0 0,-0.5"
         id="path15398"
         inkscape:connector-curvature="0" />
      <path
         style="fill:#9e7449;fill-opacity:1"
         d="m 12,12.5 0,-0.5 0.5,0 0.5,0 0,0.5 0,0.5 0,-0.375 0,-0.375 0,0.25 q 0,0.25 0.03125,0.46875 L 13.0625,13.1875 13.046875,13.078125 13.03125,12.96875 12.515625,12.984375 12,13 12,12.5"
         id="path15400"
         inkscape:connector-curvature="0" />
      <path
         style="fill:#dfe1e5;fill-opacity:1"
         d="m 13,12.5 0,-0.5 0.5,0 0.5,0 0,0.5 Q 14,13 13.5,13 L 13,13 13,12.5 M 14.125,12 14,12 l -0.375,0 -0.375,0 0.25,0 q 0.25,0 0.5,0 l 0.25,0 -0.125,0"
         id="path15402"
         inkscape:connector-curvature="0" />
      <path
         style="fill:#ffffff;fill-opacity:1"
         d="m 14,12.5 0,-0.5 0.5,0 q 0.5,0 1,0 l 0.5,0 0.5,0 0.5,0 0.125,0.375 q 0.125,0.375 0.5,0.5 L 18,13 l 0,0.5 q 0,0.5 -0.125,0.875 -0.125,0.375 -0.5,0.5 L 17,15 16.5,15 16,15 15.5,15 15,15 14.875,14.625 Q 14.75,14.25 14.375,14.125 14,14 13.625,13.875 13.25,13.75 13.125,13.375 L 13,13 13.5,13 Q 14,13 14,12.5 M 14.375,12 14,12 13.875,12 13.75,12 14,12 q 0.25,0 0.5,0 l 0.25,0 -0.375,0"
         id="path15404"
         inkscape:connector-curvature="0" />
      <path
         style="fill:#c5e6e5;fill-opacity:1"
         d="M 17.125,12.375 17,12 l 0.375,0.125 q 0.375,0.125 0.5,0.5 L 18,13 17.625,12.875 q -0.375,-0.125 -0.5,-0.5"
         id="path15406"
         inkscape:connector-curvature="0" />
      <path
         style="fill:#172222;fill-opacity:0.89411765"
         d="M 17.875,12.625 17.75,12.25 17.84375,12.53125 17.9375,12.8125 17.875,12.625 q -0.0625,-0.1875 -0.1875,-0.3125 l -0.125,-0.125 0.0625,0.0625 0.0625,0.0625 L 18,12 18.3125,11.6875 18.25,11.625 l -0.0625,-0.0625 0.125,0.125 q 0.125,0.125 0.3125,0.1875 L 18.8125,11.9375 18.53125,11.84375 18.25,11.75 18.625,11.875 19,12 19.125,12.375 19.25,12.75 19.15625,12.46875 19.0625,12.1875 19.125,12.375 q 0.0625,0.1875 0.1875,0.3125 l 0.125,0.125 L 19.375,12.75 19.3125,12.6875 19,13 l -0.3125,0.3125 0.0625,0.0625 0.0625,0.0625 -0.125,-0.125 Q 18.5625,13.1875 18.375,13.125 L 18.1875,13.0625 18.46875,13.15625 18.75,13.25 18.375,13.125 18,13 17.875,12.625"
         id="path15408"
         inkscape:connector-curvature="0" />
      <path
         style="fill:#070707;fill-opacity:0.67058824"
         d="M 2,13.5 2,13 2.546875,13.046875 3.09375,13.09375 3.140625,13.015625 3.1875,12.9375 3.09375,13.09375 Q 3,13.25 3,13.5 L 3,13.75 3,13.375 3,13 3,13.5 3,14 2.5,14 2,14 2,13.5"
         id="path15410"
         inkscape:connector-curvature="0" />
      <path
         style="fill:#dfdede;fill-opacity:1"
         d="M 3,13.5 Q 3,13 3.375,12.875 L 3.75,12.75 3.46875,12.84375 3.1875,12.9375 3.375,12.875 Q 3.5625,12.8125 3.71875,12.71875 L 3.875,12.625 3.796875,12.671875 3.71875,12.71875 3.984375,12.984375 Q 4.25,13.25 4.125,13.625 L 4,14 3.5,14 3,14 3,13.5"
         id="path15412"
         inkscape:connector-curvature="0" />
      <path
         style="fill:#f0ffff;fill-opacity:1"
         d="m 8.125,13.625 q 0.125,-0.375 0.5,-0.5 L 9,13 8.875,13.375 q -0.125,0.375 -0.5,0.5 L 8,14 8.125,13.625"
         id="path15414"
         inkscape:connector-curvature="0" />
      <path
         style="fill:#79b2b6;fill-opacity:1"
         d="M 8.875,13.375 9,13 9.5,13 10,13 9.875,13.375 Q 9.75,13.75 9.5,14 L 9.25,14.25 8.96875,13.96875 8.6875,13.6875 8.625,13.75 8.5625,13.8125 8.6875,13.6875 Q 8.8125,13.5625 8.875,13.375 L 8.9375,13.1875 8.84375,13.46875 8.75,13.75 8.875,13.375 M 9.1875,14.3125 9.25,14.25 9.4375,14.0625 9.625,13.875 9.5,14 q -0.125,0.125 -0.25,0.25 l -0.125,0.125 0.0625,-0.0625"
         id="path15416"
         inkscape:connector-curvature="0" />
      <path
         style="fill:#737776;fill-opacity:1"
         d="M 9.875,13.375 10,13 l 0.5,0 0.5,0 0,0.5 0,0.5 -0.375,0.125 -0.375,0.125 0.28125,-0.09375 0.28125,-0.09375 -0.1875,0.0625 q -0.1875,0.0625 -0.34375,0.15625 L 10.125,14.375 10.203125,14.328125 10.28125,14.28125 10,14 9.71875,13.71875 9.671875,13.796875 9.625,13.875 9.71875,13.71875 Q 9.8125,13.5625 9.875,13.375 L 9.9375,13.1875 9.84375,13.46875 9.75,13.75 9.875,13.375"
         id="path15418"
         inkscape:connector-curvature="0" />
      <path
         style="fill:#6f7778;fill-opacity:1"
         d="m 11,13.5 0,-0.5 0.5,0 0.5,0 0,0.5 0,0.5 -0.5,0 -0.5,0 0,-0.5"
         id="path15420"
         inkscape:connector-curvature="0" />
      <path
         style="fill:#b0d5da;fill-opacity:1"
         d="M 12,13.5 12,13 12.515625,12.984375 13.03125,12.96875 13.015625,12.859375 13,12.75 13.03125,12.96875 Q 13.0625,13.1875 13.125,13.375 L 13.1875,13.5625 13.09375,13.28125 13,13 13.125,13.375 13.25,13.75 13.15625,13.46875 13.0625,13.1875 13.125,13.375 q 0.0625,0.1875 0.1875,0.3125 l 0.125,0.125 L 13.375,13.75 13.3125,13.6875 13,14 l -0.3125,0.3125 0.0625,0.0625 0.0625,0.0625 -0.125,-0.125 Q 12.5625,14.1875 12.375,14.125 L 12.1875,14.0625 12.46875,14.15625 12.75,14.25 12.375,14.125 12,14 12,13.5"
         id="path15422"
         inkscape:connector-curvature="0" />
      <path
         style="fill:#78a4a3;fill-opacity:1"
         d="m 18,13.5 0,-0.5 0.375,0.125 q 0.375,0.125 0.5,0.5 L 19,14 18.90625,13.71875 18.8125,13.4375 18.875,13.625 q 0.0625,0.1875 0.09375,0.40625 L 19,14.25 18.984375,14.140625 18.96875,14.03125 18.46875,14 l -0.5,-0.03125 -0.01563,0.109375 -0.01563,0.109375 0.03125,-0.21875 Q 18,13.75 18,13.5 l 0,-0.25 0,0.375 0,0.375 0,-0.5"
         id="path15424"
         inkscape:connector-curvature="0" />
      <path
         style="fill:#000000;fill-opacity:0.38431373"
         d="M 18.875,13.625 18.75,13.25 18.84375,13.53125 18.9375,13.8125 18.875,13.625 q -0.0625,-0.1875 -0.1875,-0.3125 l -0.125,-0.125 0.0625,0.0625 0.0625,0.0625 L 19,13 19.3125,12.6875 19.25,12.625 l -0.0625,-0.0625 0.125,0.125 q 0.125,0.125 0.3125,0.1875 L 19.8125,12.9375 19.53125,12.84375 19.25,12.75 19.625,12.875 Q 20,13 20,13.5 l 0,0.5 -0.515625,0.01563 -0.515625,0.01563 0.01563,0.109375 L 19,14.25 18.96875,14.03125 Q 18.9375,13.8125 18.875,13.625 L 18.8125,13.4375 18.90625,13.71875 19,14 18.875,13.625"
         id="path15426"
         inkscape:connector-curvature="0" />
      <path
         style="fill:#101010;fill-opacity:0.78823529"
         d="M 2,14.5 2,14 2.5,14 3,14 3,14.5 3,15 3,14.625 3,14.25 3,14.5 q 0,0.25 0.125,0.375 L 3.25,15 3.1875,14.9375 3.125,14.875 2.5625,14.9375 2,15 2,14.5"
         id="path15428"
         inkscape:connector-curvature="0" />
      <path
         style="fill:#eef8f7;fill-opacity:1"
         d="M 3,14.5 3,14 3.5,14 4,14 4,14.5 4,15 3.5,15 Q 3,15 3,14.5"
         id="path15430"
         inkscape:connector-curvature="0" />
      <path
         style="fill:#f9ffff;fill-opacity:1"
         d="M 6,14.5 Q 6,14 6.375,13.875 6.75,13.75 7.03125,14.03125 L 7.3125,14.3125 7.375,14.25 7.4375,14.1875 7.3125,14.3125 Q 7.1875,14.4375 7.125,14.625 L 7.0625,14.8125 7.15625,14.53125 7.25,14.25 7.125,14.625 7,15 6.5,15 6,15 6,14.5"
         id="path15432"
         inkscape:connector-curvature="0" />
      <path
         style="fill:#d0fbfa;fill-opacity:1"
         d="m 7.125,14.625 q 0.125,-0.375 0.5,-0.5 L 8,14 8,14.5 8,15 7.5,15 7,15 7.125,14.625"
         id="path15434"
         inkscape:connector-curvature="0" />
      <path
         style="fill:#7baead;fill-opacity:1"
         d="M 8,14.5 8,14 8.375,13.875 8.75,13.75 8.46875,13.84375 8.1875,13.9375 8.375,13.875 Q 8.5625,13.8125 8.6875,13.6875 L 8.8125,13.5625 8.75,13.625 8.6875,13.6875 8.96875,13.96875 9.25,14.25 9,14.5 Q 8.75,14.75 8.375,14.875 L 8,15 8,14.5 M 9.0625,14.4375 9.25,14.25 9.3125,14.1875 9.375,14.125 9.25,14.25 Q 9.125,14.375 9,14.5 l -0.125,0.125 0.1875,-0.1875"
         id="path15436"
         inkscape:connector-curvature="0" />
      <path
         style="fill:#949d9d;fill-opacity:1"
         d="M 9,14.5 Q 9.25,14.25 9.5,14 L 9.75,13.75 9.5625,13.9375 9.375,14.125 9.5,14 Q 9.625,13.875 9.71875,13.71875 L 9.8125,13.5625 9.765625,13.640625 9.71875,13.71875 10,14 l 0.28125,0.28125 0.07813,-0.04687 0.07813,-0.04687 -0.15625,0.09375 Q 10.125,14.375 10,14.5 L 9.875,14.625 10.0625,14.4375 10.25,14.25 10,14.5 Q 9.75,14.75 9.5,15 L 9.25,15.25 9.4375,15.0625 9.625,14.875 9.5,15 Q 9.375,15.125 9.28125,15.28125 L 9.1875,15.4375 9.234375,15.359375 9.28125,15.28125 9,15 8.71875,14.71875 8.640625,14.765625 8.5625,14.8125 8.71875,14.71875 Q 8.875,14.625 9,14.5 L 9.125,14.375 8.9375,14.5625 8.75,14.75 9,14.5"
         id="path15438"
         inkscape:connector-curvature="0" />
      <path
         style="fill:#ffffff;fill-opacity:1"
         d="m 10,14.5 q 0.25,-0.25 0.625,-0.375 L 11,14 l 0,0.5 q 0,0.5 0.5,0.5 l 0.5,0 0,0.5 q 0,0.5 0,1 l 0,0.5 0,0.5 0,0.5 -0.375,0.125 -0.375,0.125 0.28125,-0.09375 0.28125,-0.09375 -0.1875,0.0625 q -0.1875,0.0625 -0.3125,0.1875 l -0.125,0.125 0.0625,-0.0625 0.0625,-0.0625 -0.28125,-0.28125 Q 10.75,17.75 10.5,17.75 10.25,17.75 10.125,17.375 10,17 9.5,17 L 9,17 9,16.5 9,16 9.125,15.625 Q 9.25,15.25 9.5,15 9.75,14.75 10,14.5 M 9,16.625 9,17 9,17.125 9,17.25 9,17 q 0,-0.25 0,-0.5 l 0,-0.25 0,0.375"
         id="path15440"
         inkscape:connector-curvature="0" />
      <path
         style="fill:#f3f3f4;fill-opacity:1"
         d="m 11,14.5 0,-0.5 0.5,0 0.5,0 0,0.5 0,0.5 -0.5,0 Q 11,15 11,14.5"
         id="path15442"
         inkscape:connector-curvature="0" />
      <path
         style="fill:#799190;fill-opacity:1"
         d="m 12,14.5 0,-0.5 0.375,0.125 q 0.375,0.125 0.5,0.5 L 13,15 12.5,15 12,15 12,14.5 m 0,0.125 0,0.375 0,0.125 0,0.125 0,-0.25 q 0,-0.25 0,-0.5 l 0,-0.25 0,0.375"
         id="path15444"
         inkscape:connector-curvature="0" />
      <path
         style="fill:#a0d2d0;fill-opacity:1"
         d="M 12.875,14.625 12.75,14.25 12.84375,14.53125 12.9375,14.8125 12.875,14.625 q -0.0625,-0.1875 -0.1875,-0.3125 l -0.125,-0.125 0.0625,0.0625 0.0625,0.0625 L 13,14 13.3125,13.6875 13.25,13.625 l -0.0625,-0.0625 0.125,0.125 q 0.125,0.125 0.3125,0.1875 L 13.8125,13.9375 13.53125,13.84375 13.25,13.75 13.625,13.875 14,14 14,14.5 14,15 13.5,15 13,15 12.875,14.625 M 13.625,15 14,15 14.125,15 14.25,15 14,15 q -0.25,0 -0.5,0 l -0.25,0 0.375,0 M 14.09375,14.03125 14,14 13.71875,13.90625 13.4375,13.8125 13.625,13.875 Q 13.8125,13.9375 14,14 l 0.1875,0.0625 -0.09375,-0.03125"
         id="path15446"
         inkscape:connector-curvature="0" />
      <path
         style="fill:#efffff;fill-opacity:1"
         d="m 14,14.5 0,-0.5 0.375,0.125 q 0.375,0.125 0.5,0.5 L 15,15 14.5,15 14,15 14,14.5 M 13.875,15 14,15 l 0.375,0 0.375,0 -0.25,0 q -0.25,0 -0.5,0 l -0.25,0 0.125,0 M 14.28125,14.09375 14,14 13.90625,13.96875 13.8125,13.9375 14,14 q 0.1875,0.0625 0.375,0.125 l 0.1875,0.0625 -0.28125,-0.09375"
         id="path15448"
         inkscape:connector-curvature="0" />
      <path
         style="fill:#a2d7d6;fill-opacity:1"
         d="M 17.875,14.375 18,14 17.90625,14.28125 17.8125,14.5625 17.875,14.375 q 0.0625,-0.1875 0.09375,-0.40625 L 18,13.75 l -0.01563,0.109375 -0.01563,0.109375 0.5,0.03125 0.5,0.03125 -0.01563,-0.109375 -0.01563,-0.109375 0.03125,0.21875 Q 19,14.25 19,14.5 l 0,0.25 0,-0.375 0,-0.375 0,0.5 q 0,0.5 -0.375,0.625 L 18.25,15.25 18.53125,15.15625 18.8125,15.0625 18.625,15.125 q -0.1875,0.0625 -0.3125,0.1875 l -0.125,0.125 L 18.25,15.375 18.3125,15.3125 18,15 17.6875,14.6875 17.625,14.75 l -0.0625,0.0625 0.125,-0.125 q 0.125,-0.125 0.1875,-0.3125 L 17.9375,14.1875 17.84375,14.46875 17.75,14.75 17.875,14.375"
         id="path15450"
         inkscape:connector-curvature="0" />
      <path
         style="fill:#000303;fill-opacity:0.63529412"
         d="m 19,14.5 0,-0.5 0,0.375 0,0.375 0,-0.25 q 0,-0.25 -0.03125,-0.46875 L 18.9375,13.8125 18.95313,13.921875 18.96876,14.03125 19.484385,14.01562 20,14 l 0,0.5 0,0.5 -0.546875,-0.04687 -0.546875,-0.04687 -0.04687,0.07813 -0.04687,0.07813 0.09375,-0.15625 Q 19,14.75 19,14.5 l 0,-0.25 0,0.375 0,0.375 0,-0.5"
         id="path15452"
         inkscape:connector-curvature="0" />
      <path
         style="fill:#000000;fill-opacity:0.2745098"
         d="M 2,15.5 2,15 2.5625,14.9375 3.125,14.875 3.1875,15.3125 3.25,15.75 3.15625,15.46875 3.0625,15.1875 3.125,15.375 q 0.0625,0.1875 0.1875,0.3125 l 0.125,0.125 L 3.375,15.75 3.3125,15.6875 3,16 2.6875,16.3125 2.75,16.375 2.8125,16.4375 2.6875,16.3125 Q 2.5625,16.1875 2.375,16.125 L 2.1875,16.0625 2.46875,16.15625 2.75,16.25 2.375,16.125 Q 2,16 2,15.5"
         id="path15454"
         inkscape:connector-curvature="0" />
      <path
         style="fill:#466261;fill-opacity:0.98823529"
         d="M 3.1875,15.3125 3.125,14.875 3.0625,14.8125 3,14.75 3.125,14.875 Q 3.25,15 3.5,15 L 3.75,15 3.375,15 3,15 3.5,15 4,15 4.015625,15.484375 4.03125,15.96875 4.140625,15.984375 4.25,16 4.03125,15.96875 Q 3.8125,15.9375 3.625,15.875 L 3.4375,15.8125 3.71875,15.90625 4,16 3.625,15.875 Q 3.25,15.75 3.1875,15.3125 M 4.125,15 4,15 3.625,15 3.25,15 3.5,15 q 0.25,0 0.5,0 l 0.25,0 -0.125,0"
         id="path15456"
         inkscape:connector-curvature="0" />
      <path
         style="fill:#94c1c0;fill-opacity:1"
         d="M 4.015625,15.484375 4,15 4.5,15 5,15 5,15.5 5,16 4.5,16 4,16 4.375,16 4.75,16 4.5,16 Q 4.25,16 4.03125,15.96875 L 3.8125,15.9375 3.921875,15.953125 4.03125,15.96875 4.015625,15.484375 M 4.375,15 4,15 3.875,15 3.75,15 4,15 q 0.25,0 0.5,0 l 0.25,0 -0.375,0"
         id="path15458"
         inkscape:connector-curvature="0" />
      <path
         style="fill:#98c5c3;fill-opacity:1"
         d="M 5,15.5 5,15 5.5,15 6,15 6,15.5 6,16 5.5,16 5,16 5,15.5"
         id="path15460"
         inkscape:connector-curvature="0" />
      <path
         style="fill:#729f9e;fill-opacity:1"
         d="M 6,15.5 6,15 6.5,15 7,15 7,15.5 7,16 6.5,16 6,16 6,15.5 M 6.625,16 7,16 7.125,16 7.25,16 7,16 q -0.25,0 -0.5,0 l -0.25,0 0.375,0"
         id="path15462"
         inkscape:connector-curvature="0" />
      <path
         style="fill:#2d4a49;fill-opacity:0.96470588"
         d="M 7,15.5 7,15 7.5,15 8,15 8,15.5 8,16 8,15.625 8,15.25 8,15.5 q 0,0.25 0.03125,0.46875 L 8.0625,16.1875 8.046875,16.078125 8.03125,15.96875 7.515625,15.984375 7,16 7,15.5 M 6.875,16 7,16 7.375,16 7.75,16 7.5,16 Q 7.25,16 7,16 l -0.25,0 0.125,0"
         id="path15464"
         inkscape:connector-curvature="0" />
      <path
         style="fill:#6e6e6e;fill-opacity:1"
         d="M 8,15.5 8,15 8.375,14.875 8.75,14.75 8.46875,14.84375 8.1875,14.9375 8.375,14.875 Q 8.5625,14.8125 8.71875,14.71875 L 8.875,14.625 8.796875,14.671875 8.71875,14.71875 9,15 9.28125,15.28125 9.328125,15.203125 9.375,15.125 9.28125,15.28125 Q 9.1875,15.4375 9.125,15.625 L 9.0625,15.8125 9.15625,15.53125 9.25,15.25 9.125,15.625 9,16 8.5,16 8,16 8,15.5"
         id="path15466"
         inkscape:connector-curvature="0" />
      <path
         style="fill:#d4eeed;fill-opacity:1"
         d="m 12,15.5 0,-0.5 0.5,0 0.5,0 0,0.5 0,0.5 -0.5,0 -0.5,0 0,-0.5 m 0,0.125 0,0.375 0,0.125 0,0.125 0,-0.25 q 0,-0.25 0,-0.5 l 0,-0.25 0,0.375 m 1,0.5 0,-0.125 0,-0.375 0,-0.375 0,0.25 q 0,0.25 0,0.5 l 0,0.25 0,-0.125 m -1,-1.25 0,0.125 0,0.375 0,0.375 0,-0.25 q 0,-0.25 0,-0.5 l 0,-0.25 0,0.125"
         id="path15468"
         inkscape:connector-curvature="0" />
      <path
         style="fill:#2a4847;fill-opacity:0.99607843"
         d="m 13,15.5 0,-0.5 0.5,0 0.5,0 0,0.5 0,0.5 -0.5,0 -0.5,0 0,-0.5 m 0,0.125 0,0.375 0,0.125 0,0.125 0,-0.25 q 0,-0.25 0,-0.5 l 0,-0.25 0,0.375 M 14.125,15 14,15 l -0.375,0 -0.375,0 0.25,0 q 0.25,0 0.5,0 l 0.25,0 -0.125,0"
         id="path15470"
         inkscape:connector-curvature="0" />
      <path
         style="fill:#4f7473;fill-opacity:0.98823529"
         d="m 14,15.5 0,-0.5 0.5,0 0.5,0 0,0.5 0,0.5 -0.5,0 -0.5,0 0,-0.5 M 14.625,16 15,16 15.125,16 15.25,16 15,16 q -0.25,0 -0.5,0 l -0.25,0 0.375,0 M 14.375,15 14,15 13.875,15 13.75,15 14,15 q 0.25,0 0.5,0 l 0.25,0 -0.375,0"
         id="path15472"
         inkscape:connector-curvature="0" />
      <path
         style="fill:#95c1c0;fill-opacity:1"
         d="m 15,15.5 0,-0.5 0.5,0 0.5,0 0,0.5 0,0.5 -0.5,0 -0.5,0 0,-0.5 M 14.875,16 15,16 l 0.375,0 0.375,0 -0.25,0 q -0.25,0 -0.5,0 l -0.25,0 0.125,0"
         id="path15474"
         inkscape:connector-curvature="0" />
      <path
         style="fill:#b8e2e1;fill-opacity:1"
         d="m 16,15.5 0,-0.5 0.5,0 0.5,0 0,0.5 0,0.5 -0.5,0 -0.5,0 0,-0.5"
         id="path15476"
         inkscape:connector-curvature="0" />
      <path
         style="fill:#a7d8d6;fill-opacity:1"
         d="M 17,15.5 17,15 17.375,14.875 17.75,14.75 17.46875,14.84375 17.1875,14.9375 17.375,14.875 q 0.1875,-0.0625 0.3125,-0.1875 l 0.125,-0.125 L 17.75,14.625 17.6875,14.6875 18,15 l 0.3125,0.3125 0.0625,-0.0625 0.0625,-0.0625 -0.125,0.125 q -0.125,0.125 -0.1875,0.3125 L 18.0625,15.8125 18.15625,15.53125 18.25,15.25 18.125,15.625 Q 18,16 17.5,16 l -0.5,0 0,-0.5"
         id="path15478"
         inkscape:connector-curvature="0" />
      <path
         style="fill:#446363;fill-opacity:0.99607843"
         d="m 18.125,15.625 q 0.125,-0.375 0.5,-0.5 L 19,15 18.71875,15.09375 18.4375,15.1875 18.625,15.125 q 0.1875,-0.0625 0.28125,-0.21875 L 19,14.75 l -0.04687,0.07813 -0.04687,0.07813 -0.07813,0.421875 q -0.07813,0.421875 -0.5,0.5 l -0.421875,0.07813 -0.07813,0.04687 L 17.75,16 17.90625,15.90625 Q 18.0625,15.8125 18.125,15.625 L 18.1875,15.4375 18.09375,15.71875 18,16 18.125,15.625"
         id="path15480"
         inkscape:connector-curvature="0" />
      <path
         style="fill:#000000;fill-opacity:0.21568627"
         d="M 18.828125,15.328125 18.906255,14.90625 19.45313,14.95312 20,15 l 0,0.5 q 0,0.5 -0.375,0.625 L 19.25,16.25 19.53125,16.15625 19.8125,16.0625 19.625,16.125 q -0.1875,0.0625 -0.3125,0.1875 l -0.125,0.125 L 19.25,16.375 19.3125,16.3125 19,16 18.6875,15.6875 18.625,15.75 l -0.0625,0.0625 0.125,-0.125 q 0.125,-0.125 0.1875,-0.3125 L 18.9375,15.1875 18.84375,15.46875 18.75,15.75 18.82813,15.328125"
         id="path15482"
         inkscape:connector-curvature="0" />
      <path
         style="fill:#000000;fill-opacity:0.09411765"
         d="M 2.875,16.625 2.75,16.25 2.84375,16.53125 2.9375,16.8125 2.875,16.625 Q 2.8125,16.4375 2.6875,16.3125 L 2.5625,16.1875 2.625,16.25 2.6875,16.3125 3,16 3.3125,15.6875 3.25,15.625 3.1875,15.5625 l 0.125,0.125 q 0.125,0.125 0.3125,0.1875 L 3.8125,15.9375 3.53125,15.84375 3.25,15.75 3.625,15.875 4,16 4,16.5 4,17 3.5,17 Q 3,17 2.875,16.625"
         id="path15484"
         inkscape:connector-curvature="0" />
      <path
         style="fill:#000000;fill-opacity:0.55294118"
         d="M 4,16.5 4,16 4.5,16 5,16 5,16.5 5,17 4.5,17 4,17 4,16.5"
         id="path15486"
         inkscape:connector-curvature="0" />
      <path
         style="fill:#000202;fill-opacity:0.6"
         d="M 5,16.5 5,16 5.5,16 6,16 6,16.5 6,17 5.5,17 5,17 5,16.5"
         id="path15488"
         inkscape:connector-curvature="0" />
      <path
         style="fill:#000000;fill-opacity:0.31372549"
         d="M 6,16.5 6,16 6.5,16 7,16 7,16.5 Q 7,17 6.5,17 L 6,17 6,16.5"
         id="path15490"
         inkscape:connector-curvature="0" />
      <path
         style="fill:#6d6c6c;fill-opacity:0.98431373"
         d="M 8.125,16.375 8,16 8.5,16 9,16 9,16.5 9,17 8.625,16.875 Q 8.25,16.75 8.125,16.375 M 9,17.125 9,17 9,16.625 9,16.25 9,16.5 q 0,0.25 0,0.5 l 0,0.25 0,-0.125"
         id="path15492"
         inkscape:connector-curvature="0" />
      <path
         style="fill:#d4fcfb;fill-opacity:1"
         d="m 12,16.5 0,-0.5 0.5,0 0.5,0 0,0.5 0,0.5 -0.5,0 -0.5,0 0,-0.5 M 13,16.375 13,16 13,15.875 13,15.75 13,16 q 0,0.25 0,0.5 l 0,0.25 0,-0.375 m -1,-0.5 0,0.125 0,0.375 0,0.375 0,-0.25 q 0,-0.25 0,-0.5 l 0,-0.25 0,0.125"
         id="path15494"
         inkscape:connector-curvature="0" />
      <path
         style="fill:#192c2c;fill-opacity:0.89411765"
         d="m 13,16.5 0,-0.5 0.5,0 0.5,0 -0.125,0.375 q -0.125,0.375 -0.5,0.5 L 13,17 13,16.5 m 0,-0.625 0,0.125 0,0.375 0,0.375 0,-0.25 q 0,-0.25 0,-0.5 l 0,-0.25 0,0.125"
         id="path15496"
         inkscape:connector-curvature="0" />
      <path
         style="fill:#000000;fill-opacity:0.05882353"
         d="M 13.875,16.375 14,16 13.90625,16.28125 13.8125,16.5625 13.875,16.375 q 0.0625,-0.1875 0.09375,-0.40625 L 14,15.75 13.98437,15.859375 13.96874,15.96875 14.484365,15.98438 15,16 15,16.5 15,17 14.625,17.125 14.25,17.25 14.53125,17.15625 14.8125,17.0625 14.625,17.125 q -0.1875,0.0625 -0.3125,0.1875 l -0.125,0.125 L 14.25,17.375 14.3125,17.3125 14,17 13.6875,16.6875 13.625,16.75 l -0.0625,0.0625 0.125,-0.125 q 0.125,-0.125 0.1875,-0.3125 L 13.9375,16.1875 13.84375,16.46875 13.75,16.75 13.875,16.375 M 15.125,16 15,16 l -0.375,0 -0.375,0 0.25,0 q 0.25,0 0.5,0 l 0.25,0 -0.125,0"
         id="path15498"
         inkscape:connector-curvature="0" />
      <path
         style="fill:#000000;fill-opacity:0.59215686"
         d="m 15,16.5 0,-0.5 0.5,0 0.5,0 0,0.5 0,0.5 -0.5,0 -0.5,0 0,-0.5 M 15.375,16 15,16 14.875,16 14.75,16 15,16 q 0.25,0 0.5,0 l 0.25,0 -0.375,0"
         id="path15500"
         inkscape:connector-curvature="0" />
      <path
         style="fill:#081212;fill-opacity:0.79607843"
         d="m 16,16.5 0,-0.5 0.5,0 0.5,0 0,0.5 0,0.5 -0.5,0 -0.5,0 0,-0.5"
         id="path15502"
         inkscape:connector-curvature="0" />
      <path
         style="fill:#050909;fill-opacity:0.74117647"
         d="m 17,16.5 0,-0.5 0.5,0 0.5,0 -0.375,0 -0.375,0 0.25,0 q 0.25,0 0.40625,-0.09375 l 0.15625,-0.09375 -0.07813,0.04687 -0.07813,0.04687 0.04687,0.546875 L 18,17 17.5,17 17,17 17,16.5"
         id="path15504"
         inkscape:connector-curvature="0" />
      <path
         style="fill:#000000;fill-opacity:0.2"
         d="M 17.953125,16.453125 17.90625,15.90625 18.328125,15.828125 18.75,15.75 18.46875,15.84375 18.1875,15.9375 18.375,15.875 q 0.1875,-0.0625 0.3125,-0.1875 l 0.125,-0.125 L 18.75,15.625 18.6875,15.6875 19,16 l 0.3125,0.3125 0.0625,-0.0625 0.0625,-0.0625 -0.125,0.125 q -0.125,0.125 -0.1875,0.3125 L 19.0625,16.8125 19.15625,16.53125 19.25,16.25 19.125,16.625 Q 19,17 18.5,17 L 18,17 17.95313,16.453125"
         id="path15506"
         inkscape:connector-curvature="0" />
      <path
         style="fill:#2d2d2d;fill-opacity:0.89803922"
         d="M 7.875,17.625 Q 7.75,17.25 8.03125,16.96875 L 8.3125,16.6875 8.25,16.625 8.1875,16.5625 l 0.125,0.125 q 0.125,0.125 0.3125,0.1875 L 8.8125,16.9375 8.53125,16.84375 8.25,16.75 8.625,16.875 9,17 9,17.5 9,18 9,17.625 9,17.25 9,17.5 q 0,0.25 0.03125,0.46875 L 9.0625,18.1875 9.046875,18.078125 9.03125,17.96875 8.515625,17.984375 8,18 7.875,17.625 M 9,17.375 9,17 9,16.875 9,16.75 9,17 q 0,0.25 0,0.5 l 0,0.25 0,-0.375"
         id="path15508"
         inkscape:connector-curvature="0" />
      <path
         style="fill:#fdffff;fill-opacity:1"
         d="M 9,17.5 9,17 9.5,17 q 0.5,0 0.625,0.375 L 10.25,17.75 10.15625,17.46875 10.0625,17.1875 10.125,17.375 q 0.0625,0.1875 0.15625,0.28125 L 10.375,17.75 10.328125,17.703125 10.28125,17.65625 9.984375,17.984375 9.6875,18.3125 9.75,18.375 9.8125,18.4375 9.6875,18.3125 Q 9.5625,18.1875 9.375,18.125 L 9.1875,18.0625 9.46875,18.15625 9.75,18.25 9.390625,18.109375 9.03125,17.96875 9.046875,18.078125 9.0625,18.1875 9.03125,17.96875 Q 9,17.75 9,17.5 L 9,17.25 9,17.625 9,18 9,17.5 M 9,16.875 9,17 9,17.375 9,17.75 9,17.5 Q 9,17.25 9,17 l 0,-0.25 0,0.125"
         id="path15510"
         inkscape:connector-curvature="0" />
      <path
         style="fill:#a3d7d5;fill-opacity:1"
         d="m 12,17.5 0,-0.5 0.5,0 0.5,0 0,0.5 Q 13,18 12.5,18 l -0.5,0 0,-0.5"
         id="path15512"
         inkscape:connector-curvature="0" />
      <path
         style="fill:#040c0c;fill-opacity:0.68627451"
         d="M 13,17.5 13,17 13.375,16.875 13.75,16.75 13.46875,16.84375 13.1875,16.9375 13.375,16.875 q 0.1875,-0.0625 0.3125,-0.1875 l 0.125,-0.125 L 13.75,16.625 13.6875,16.6875 14,17 l 0.3125,0.3125 0.0625,-0.0625 0.0625,-0.0625 -0.125,0.125 q -0.125,0.125 -0.1875,0.3125 L 14.0625,17.8125 14.15625,17.53125 14.25,17.25 14.125,17.625 14,18 13.4375,17.9375 12.875,17.875 12.8125,17.9375 12.75,18 12.875,17.875 Q 13,17.75 13,17.5 l 0,-0.25 0,0.375 0,0.375 0,-0.5"
         id="path15514"
         inkscape:connector-curvature="0" />
      <path
         style="fill:#000000;fill-opacity:0.40392157"
         d="M 8,18.5 8,18 8.515625,17.984375 9.03125,17.96875 9.015625,17.859375 9,17.75 9.03125,17.96875 Q 9.0625,18.1875 9.125,18.375 L 9.1875,18.5625 9.09375,18.28125 9,18 9.125,18.375 9.25,18.75 9.15625,18.46875 9.0625,18.1875 9.125,18.375 q 0.0625,0.1875 0.1875,0.3125 l 0.125,0.125 L 9.375,18.75 9.3125,18.6875 9,19 8.6875,19.3125 8.75,19.375 8.8125,19.4375 8.6875,19.3125 Q 8.5625,19.1875 8.375,19.125 L 8.1875,19.0625 8.46875,19.15625 8.75,19.25 8.375,19.125 Q 8,19 8,18.5"
         id="path15516"
         inkscape:connector-curvature="0" />
      <path
         style="fill:#8ea6a6;fill-opacity:1"
         d="M 9.125,18.375 9,18 9.09375,18.28125 9.1875,18.5625 9.125,18.375 Q 9.0625,18.1875 9.03125,17.96875 L 9,17.75 9.015625,17.859375 9.03125,17.96875 9.390625,18.109375 Q 9.75,18.25 9.875,18.625 L 10,19 9.625,18.875 q -0.375,-0.125 -0.5,-0.5"
         id="path15518"
         inkscape:connector-curvature="0" />
      <path
         style="fill:#f6ffff;fill-opacity:1"
         d="M 9.875,18.625 9.75,18.25 9.84375,18.53125 9.9375,18.8125 9.875,18.625 Q 9.8125,18.4375 9.6875,18.3125 l -0.125,-0.125 0.0625,0.0625 0.0625,0.0625 0.296875,-0.328125 0.296875,-0.328125 -0.04687,-0.04687 -0.04687,-0.04687 0.09375,0.09375 Q 10.375,17.75 10.5,17.75 l 0.125,0 -0.1875,0 -0.1875,0 0.25,0 q 0.25,0 0.53125,0.28125 l 0.28125,0.28125 0.0625,-0.0625 0.0625,-0.0625 -0.125,0.125 q -0.125,0.125 -0.1875,0.3125 L 11.0625,18.8125 11.15625,18.53125 11.25,18.25 11.109375,18.609375 10.96875,18.96875 11.078125,18.953125 11.1875,18.9375 10.96875,18.96875 Q 10.75,19 10.5,19 l -0.25,0 0.375,0 L 11,19 10.5,19 10,19 9.875,18.625"
         id="path15520"
         inkscape:connector-curvature="0" />
      <path
         style="fill:#daffff;fill-opacity:1"
         d="M 11.109375,18.609375 Q 11.25,18.25 11.625,18.125 L 12,18 11.875,18.375 q -0.125,0.375 -0.5,0.5 L 11,19 11.28125,18.90625 11.5625,18.8125 11.375,18.875 q -0.1875,0.0625 -0.40625,0.09375 L 10.75,19 l 0.109375,-0.01563 0.109375,-0.01563 0.140625,-0.359375"
         id="path15522"
         inkscape:connector-curvature="0" />
      <path
         style="fill:#496d6c;fill-opacity:1"
         d="M 11.875,18.375 12,18 l 0.5,0 0.5,0 -0.375,0 -0.375,0 0.25,0 q 0.25,0 0.375,-0.125 L 13,17.75 12.9375,17.8125 12.875,17.875 12.8125,18.3125 Q 12.75,18.75 12.5,19 L 12.25,19.25 11.96875,18.96875 11.6875,18.6875 11.625,18.75 l -0.0625,0.0625 0.125,-0.125 q 0.125,-0.125 0.1875,-0.3125 L 11.9375,18.1875 11.84375,18.46875 11.75,18.75 11.875,18.375 M 12.1875,19.3125 12.25,19.25 12.4375,19.0625 12.625,18.875 12.5,19 q -0.125,0.125 -0.25,0.25 l -0.125,0.125 0.0625,-0.0625"
         id="path15524"
         inkscape:connector-curvature="0" />
      <path
         style="fill:#000000;fill-opacity:0.1254902"
         d="M 12.8125,18.3125 12.875,17.875 13.4375,17.9375 14,18 l 0,0.5 q 0,0.5 -0.375,0.625 L 13.25,19.25 13.53125,19.15625 13.8125,19.0625 13.625,19.125 q -0.1875,0.0625 -0.3125,0.1875 l -0.125,0.125 L 13.25,19.375 13.3125,19.3125 13.015625,19.015625 12.71875,18.71875 12.671875,18.796875 12.625,18.875 12.71875,18.71875 Q 12.8125,18.5625 12.875,18.375 L 12.9375,18.1875 12.84375,18.46875 12.75,18.75 12.8125,18.3125"
         id="path15526"
         inkscape:connector-curvature="0" />
      <path
         style="fill:#070f0f;fill-opacity:0.68235294"
         d="M 8.875,19.625 8.75,19.25 8.84375,19.53125 8.9375,19.8125 8.875,19.625 Q 8.8125,19.4375 8.6875,19.3125 L 8.5625,19.1875 8.625,19.25 8.6875,19.3125 9,19 9.3125,18.6875 9.25,18.625 9.1875,18.5625 l 0.125,0.125 q 0.125,0.125 0.3125,0.1875 L 9.8125,18.9375 9.53125,18.84375 9.25,18.75 9.625,18.875 10,19 10.125,19.375 10.25,19.75 10.15625,19.46875 10.0625,19.1875 10.125,19.375 q 0.0625,0.1875 0.1875,0.3125 l 0.125,0.125 L 10.375,19.75 10.3125,19.6875 10.03125,19.96875 Q 9.75,20.25 9.375,20.125 9,20 8.875,19.625"
         id="path15528"
         inkscape:connector-curvature="0" />
      <path
         style="fill:#4f7473;fill-opacity:0.98823529"
         d="M 10.125,19.375 10,19 l 0.5,0 0.5,0 -0.375,0 -0.375,0 0.25,0 q 0.25,0 0.46875,-0.03125 L 11.1875,18.9375 11.078125,18.95313 10.96875,18.96876 10.98438,19.484385 11,20 10.625,19.875 q -0.375,-0.125 -0.5,-0.5"
         id="path15530"
         inkscape:connector-curvature="0" />
      <path
         style="fill:#435f5f;fill-opacity:0.98431373"
         d="M 10.984375,19.484375 10.96875,18.96875 10.859375,18.984375 10.75,19 10.96875,18.96875 Q 11.1875,18.9375 11.375,18.875 L 11.5625,18.8125 11.28125,18.90625 11,19 11.375,18.875 11.75,18.75 11.46875,18.84375 11.1875,18.9375 11.375,18.875 q 0.1875,-0.0625 0.3125,-0.1875 l 0.125,-0.125 -0.0625,0.0625 -0.0625,0.0625 0.28125,0.28125 L 12.25,19.25 12,19.5 q -0.25,0.25 -0.625,0.375 L 11,20 10.984375,19.484375 M 12.0625,19.4375 12.25,19.25 12.3125,19.1875 12.375,19.125 12.25,19.25 Q 12.125,19.375 12,19.5 l -0.125,0.125 0.1875,-0.1875"
         id="path15532"
         inkscape:connector-curvature="0" />
      <path
         style="fill:#000202;fill-opacity:0.47843137"
         d="M 12,19.5 Q 12.25,19.25 12.5,19 L 12.75,18.75 12.5625,18.9375 12.375,19.125 12.5,19 q 0.125,-0.125 0.21875,-0.28125 l 0.09375,-0.15625 -0.04687,0.07813 -0.04687,0.07813 0.296875,0.296875 0.296875,0.296875 0.0625,-0.0625 0.0625,-0.0625 -0.125,0.125 q -0.125,0.125 -0.1875,0.3125 L 13.0625,19.8125 13.15625,19.53125 13.25,19.25 13.125,19.625 Q 13,20 12.625,20.125 12.25,20.25 11.984375,19.984375 l -0.265625,-0.265625 -0.07813,0.04687 -0.07813,0.04687 0.15625,-0.09375 Q 11.875,19.625 12,19.5 L 12.125,19.375 11.9375,19.5625 11.75,19.75 12,19.5"
         id="path15534"
         inkscape:connector-curvature="0" />
    </g>
  </g>
</svg>
