<?xml version="1.0" encoding="UTF-8" standalone="no"?>
<!-- Created with Inkscape (http://www.inkscape.org/) -->

<svg
   xmlns:dc="http://purl.org/dc/elements/1.1/"
   xmlns:cc="http://creativecommons.org/ns#"
   xmlns:rdf="http://www.w3.org/1999/02/22-rdf-syntax-ns#"
   xmlns:svg="http://www.w3.org/2000/svg"
   xmlns="http://www.w3.org/2000/svg"
   xmlns:sodipodi="http://sodipodi.sourceforge.net/DTD/sodipodi-0.dtd"
   xmlns:inkscape="http://www.inkscape.org/namespaces/inkscape"
   width="20"
   height="20"
   viewBox="0 0 20 20"
   id="svg3347"
   version="1.1"
   inkscape:version="0.91 r13725"
   sodipodi:docname="Civ5Icon.ReligionChristianity.svg">
  <defs
     id="defs3349" />
  <sodipodi:namedview
     id="base"
     pagecolor="#ffffff"
     bordercolor="#666666"
     borderopacity="1.0"
     inkscape:pageopacity="0.0"
     inkscape:pageshadow="2"
     inkscape:zoom="11.2"
     inkscape:cx="13.251856"
     inkscape:cy="8.3638322"
     inkscape:document-units="px"
     inkscape:current-layer="g27203"
     showgrid="false"
     units="px"
     inkscape:window-width="1477"
     inkscape:window-height="962"
     inkscape:window-x="533"
     inkscape:window-y="95"
     inkscape:window-maximized="0" />
  <metadata
     id="metadata3352">
    <rdf:RDF>
      <cc:Work
         rdf:about="">
        <dc:format>image/svg+xml</dc:format>
        <dc:type
           rdf:resource="http://purl.org/dc/dcmitype/StillImage" />
        <dc:title></dc:title>
      </cc:Work>
    </rdf:RDF>
  </metadata>
  <g
     inkscape:label="Layer 1"
     inkscape:groupmode="layer"
     id="layer1"
     transform="translate(0,-1032.3622)">
    <g
       transform="translate(-0.22321519 1031.8712)"
       id="g27203">
      <g
         transform="translate(-0.80357206,-0.53578586)"
         id="g30904">
        <path
           style="fill:#000000;fill-opacity:0"
           d="M 0,0.5 0,0 0.5,0 1,0 1.5,0 2,0 2.5,0 3,0 3.5,0 4,0 4.5,0 5,0 5.5,0 6,0 6.5,0 7,0 7.5,0 8,0 8.5,0 9,0 9.5,0 10,0 l 0.5,0 0.5,0 0.5,0 0.5,0 0.5,0 0.5,0 0.5,0 0.5,0 0.5,0 0.5,0 0.5,0 0.5,0 0.5,0 0.5,0 0.5,0 0.5,0 0.5,0 0.5,0 0.5,0 0.5,0 0.5,0 0.5,0 0.5,0 0.5,0 0,0.5 0,0.5 0,0.5 0,0.5 0,0.5 0,0.5 0,0.5 0,0.5 0,0.5 0,0.5 0,0.5 0,0.5 0,0.5 0,0.5 0,0.5 0,0.5 0,0.5 0,0.5 0,0.5 0,0.5 0,0.5 0,0.5 0,0.5 0,0.5 0,0.5 0,0.5 0,0.5 0,0.5 0,0.5 0,0.5 0,0.5 0,0.5 0,0.5 0,0.5 0,0.5 0,0.5 0,0.5 0,0.5 0,0.5 0,0.5 0,0.5 0,0.5 0,0.5 0,0.5 -0.5,0 L 21,22 20.5,22 20,22 19.5,22 19,22 18.5,22 18,22 17.5,22 17,22 16.5,22 16,22 15.5,22 15,22 14.5,22 14,22 13.5,22 13,22 12.5,22 12,22 11.5,22 11,22 10.5,22 10,22 9.5,22 9,22 8.5,22 8,22 7.5,22 7,22 6.5,22 6,22 5.5,22 5,22 4.5,22 4,22 3.5,22 3,22 2.5,22 2,22 1.5,22 1,22 0.5,22 0,22 0,21.5 0,21 0,20.5 0,20 0,19.5 0,19 0,18.5 0,18 0,17.5 0,17 0,16.5 0,16 0,15.5 0,15 0,14.5 0,14 0,13.5 0,13 0,12.5 0,12 0,11.5 0,11 0,10.5 0,10 0,9.5 0,9 0,8.5 0,8 0,7.5 0,7 0,6.5 0,6 0,5.5 0,5 0,4.5 0,4 0,3.5 0,3 0,2.5 0,2 0,1.5 0,1 0,0.5 M 11.5,20 q 0.5,0 0.625,-0.375 0.125,-0.375 0.5,-0.5 L 13,19 13.5,19 Q 14,19 14,18.5 l 0,-0.5 0.5,0 Q 15,18 15,17.5 L 15,17 15,16.5 Q 15,16 14.5,16 l -0.5,0 0,-0.5 0,-0.5 0,-0.5 0,-0.5 0.5,0 0.5,0 0.5,0 0.5,0 0.5,0 0.5,0 0,0.5 Q 17,15 17.5,15 18,15 18,14.5 l 0,-0.5 0.5,0 Q 19,14 19,13.5 l 0,-0.5 0.125,-0.375 q 0.125,-0.375 0.5,-0.5 Q 20,12 20,11.5 L 20,11 20,10.5 Q 20,10 19.625,9.875 19.25,9.75 19.125,9.375 L 19,9 19,8.5 Q 19,8 18.5,8 L 18,8 18,7.5 Q 18,7 17.5,7 L 17,7 16.5,7 Q 16,7 16,7.5 L 16,8 15.5,8 15,8 14.5,8 14,8 14,7.5 14,7 14,6.5 14,6 14.5,6 Q 15,6 15,5.5 L 15,5 15,4.5 Q 15,4 14.5,4 L 14,4 14,3.5 Q 14,3 13.5,3 L 13,3 12.625,2.875 Q 12.25,2.75 12.125,2.375 12,2 11.5,2 L 11,2 10.5,2 Q 10,2 9.875,2.375 9.75,2.75 9.375,2.875 L 9,3 8.5,3 Q 8,3 8,3.5 L 8,4 7.5,4 Q 7,4 7,4.5 L 7,5 7,5.5 Q 7,6 7.5,6 L 8,6 8,6.5 8,7 8,7.5 8,8 7.5,8 7,8 6.5,8 6,8 5.5,8 5,8 5,7.5 Q 5,7 4.5,7 4,7 4,7.5 L 4,8 3.5,8 Q 3,8 3,8.5 L 3,9 2.5,9 Q 2,9 2,9.5 L 2,10 1.5,10 Q 1,10 1,10.5 L 1,11 1,11.5 Q 1,12 1.5,12 L 2,12 2,12.5 Q 2,13 2.5,13 L 3,13 3,13.5 Q 3,14 3.5,14 L 4,14 4,14.5 Q 4,15 4.5,15 5,15 5,14.5 L 5,14 5.5,14 6,14 6.5,14 7,14 7.5,14 8,14 8,14.5 8,15 8,15.5 8,16 7.5,16 Q 7,16 7,16.5 L 7,17 7,17.5 Q 7,18 7.5,18 L 8,18 8,18.5 Q 8,19 8.5,19 l 0.5,0 0.375,0.125 q 0.375,0.125 0.5,0.5 Q 10,20 10.5,20 l 0.5,0 0.5,0"
           id="path30906"
           inkscape:connector-curvature="0" />
        <path
           style="fill:#000000;fill-opacity:0.94117647"
           d="M 9.875,2.375 Q 10,2 10.5,2 L 11,2 11,2.5 11,3 10.625,3.125 10.25,3.25 10.53125,3.15625 10.8125,3.0625 10.625,3.125 Q 10.4375,3.1875 10.3125,3.3125 L 10.1875,3.4375 10.25,3.375 10.3125,3.3125 10,3 9.6875,2.6875 9.625,2.75 9.5625,2.8125 9.6875,2.6875 Q 9.8125,2.5625 9.875,2.375 L 9.9375,2.1875 9.84375,2.46875 9.75,2.75 9.875,2.375"
           id="path30908"
           inkscape:connector-curvature="0" />
        <path
           style="fill:#000000;fill-opacity:0.87843137"
           d="M 11,2.5 11,2 11.5,2 Q 12,2 12.125,2.375 L 12.25,2.75 12.15625,2.46875 12.0625,2.1875 12.125,2.375 q 0.0625,0.1875 0.1875,0.3125 l 0.125,0.125 L 12.375,2.75 12.3125,2.6875 12,3 11.6875,3.3125 11.75,3.375 11.8125,3.4375 11.6875,3.3125 Q 11.5625,3.1875 11.375,3.125 L 11.1875,3.0625 11.46875,3.15625 11.75,3.25 11.375,3.125 11,3 11,2.5"
           id="path30910"
           inkscape:connector-curvature="0" />
        <path
           style="fill:#000000;fill-opacity:0.14901961"
           d="M 8,3.5 Q 8,3 8.5,3 L 9,3 8.875,3.375 Q 8.75,3.75 8.375,3.875 L 8,4 8,3.5"
           id="path30912"
           inkscape:connector-curvature="0" />
        <path
           style="fill:#000000;fill-opacity:0.98823529"
           d="M 8.875,3.375 9,3 9.375,2.875 9.75,2.75 9.46875,2.84375 9.1875,2.9375 9.375,2.875 Q 9.5625,2.8125 9.6875,2.6875 L 9.8125,2.5625 9.75,2.625 9.6875,2.6875 10,3 10.3125,3.3125 10.375,3.25 10.4375,3.1875 10.3125,3.3125 Q 10.1875,3.4375 10.125,3.625 L 10.0625,3.8125 10.15625,3.53125 10.25,3.25 10.125,3.625 10,4 9.625,4.125 9.25,4.25 9.53125,4.15625 9.8125,4.0625 9.625,4.125 Q 9.4375,4.1875 9.3125,4.3125 L 9.1875,4.4375 9.25,4.375 9.3125,4.3125 9,4 8.6875,3.6875 8.625,3.75 8.5625,3.8125 8.6875,3.6875 Q 8.8125,3.5625 8.875,3.375 L 8.9375,3.1875 8.84375,3.46875 8.75,3.75 8.875,3.375"
           id="path30914"
           inkscape:connector-curvature="0" />
        <path
           style="fill:#c2c2c2;fill-opacity:1"
           d="m 10.125,3.625 q 0.125,-0.375 0.5,-0.5 L 11,3 11,3.5 11,4 10.5,4 10,4 10.125,3.625"
           id="path30916"
           inkscape:connector-curvature="0" />
        <path
           style="fill:#a6a6a6;fill-opacity:1"
           d="M 11,3.5 11,3 11.375,3.125 q 0.375,0.125 0.5,0.5 L 12,4 11.5,4 11,4 11,3.5"
           id="path30918"
           inkscape:connector-curvature="0" />
        <path
           style="fill:#000000;fill-opacity:0.96470588"
           d="M 11.875,3.625 11.75,3.25 11.84375,3.53125 11.9375,3.8125 11.875,3.625 Q 11.8125,3.4375 11.6875,3.3125 L 11.5625,3.1875 11.625,3.25 11.6875,3.3125 12,3 12.3125,2.6875 12.25,2.625 12.1875,2.5625 l 0.125,0.125 q 0.125,0.125 0.3125,0.1875 L 12.8125,2.9375 12.53125,2.84375 12.25,2.75 12.625,2.875 13,3 13.125,3.375 13.25,3.75 13.15625,3.46875 13.0625,3.1875 13.125,3.375 q 0.0625,0.1875 0.1875,0.3125 l 0.125,0.125 L 13.375,3.75 13.3125,3.6875 13,4 12.6875,4.3125 12.75,4.375 12.8125,4.4375 12.6875,4.3125 Q 12.5625,4.1875 12.375,4.125 L 12.1875,4.0625 12.46875,4.15625 12.75,4.25 12.375,4.125 12,4 11.875,3.625"
           id="path30920"
           inkscape:connector-curvature="0" />
        <path
           style="fill:#000000;fill-opacity:0.04705882"
           d="M 13.125,3.375 13,3 13.5,3 Q 14,3 14,3.5 L 14,4 13.625,3.875 q -0.375,-0.125 -0.5,-0.5"
           id="path30922"
           inkscape:connector-curvature="0" />
        <path
           style="fill:#000000;fill-opacity:0.14901961"
           d="M 7,4.5 Q 7,4 7.5,4 L 8,4 8,4.5 8,5 7.5,5 7,5 7,4.5"
           id="path30924"
           inkscape:connector-curvature="0" />
        <path
           style="fill:#181818;fill-opacity:0.85098039"
           d="M 8,4.5 8,4 8.375,3.875 8.75,3.75 8.46875,3.84375 8.1875,3.9375 8.375,3.875 Q 8.5625,3.8125 8.6875,3.6875 L 8.8125,3.5625 8.75,3.625 8.6875,3.6875 9,4 9.3125,4.3125 9.375,4.25 9.4375,4.1875 9.3125,4.3125 Q 9.1875,4.4375 9.125,4.625 L 9.0625,4.8125 9.15625,4.53125 9.25,4.25 9.125,4.625 9,5 9.09375,4.71875 9.1875,4.4375 9.125,4.625 Q 9.0625,4.8125 9.03125,5.03125 L 9,5.25 9.015625,5.140625 9.03125,5.03125 8.515625,5.015625 8,5 8,4.5"
           id="path30926"
           inkscape:connector-curvature="0" />
        <path
           style="fill:#898989;fill-opacity:1"
           d="M 9.125,4.625 Q 9.25,4.25 9.625,4.125 L 10,4 10,4.5 10,5 9.515625,5.015625 9.03125,5.03125 9.015625,5.140625 9,5.25 9.03125,5.03125 Q 9.0625,4.8125 9.125,4.625 L 9.1875,4.4375 9.09375,4.71875 9,5 9.125,4.625 M 10,5.125 10,5 10,4.625 10,4.25 10,4.5 q 0,0.25 0,0.5 l 0,0.25 0,-0.125"
           id="path30928"
           inkscape:connector-curvature="0" />
        <path
           style="fill:#ffffff;fill-opacity:1"
           d="M 10,4.5 10,4 10.5,4 11,4 11,4.5 Q 11,5 11.5,5 L 12,5 12.0625,5.5625 12.125,6.125 12.1875,6.0625 12.25,6 12.125,6.125 Q 12,6.25 12,6.5 L 12,6.75 12,6.375 12,6 12,6.5 12,7 11.5,7 Q 11,7 10.875,7.375 10.75,7.75 10.375,7.875 L 10,8 10,7.5 Q 10,7 10,6.5 L 10,6 10,6.375 10,6.75 10,6.5 Q 10,6.25 9.875,6.125 L 9.75,6 9.8125,6.0625 9.875,6.125 9.9375,5.5625 Q 10,5 10,4.5"
           id="path30930"
           inkscape:connector-curvature="0" />
        <path
           style="fill:#f7f7f7;fill-opacity:1"
           d="M 11,4.5 11,4 11.5,4 12,4 12,4.5 12,5 11.5,5 Q 11,5 11,4.5"
           id="path30932"
           inkscape:connector-curvature="0" />
        <path
           style="fill:#737373;fill-opacity:1"
           d="M 12,4.5 12,4 12.375,4.125 q 0.375,0.125 0.5,0.5 L 13,5 12.90625,4.71875 12.8125,4.4375 12.875,4.625 q 0.0625,0.1875 0.09375,0.40625 L 13,5.25 12.984375,5.140625 12.96875,5.03125 12.484375,5.015625 12,5 12,4.5 M 12,4.625 12,5 12,5.125 12,5.25 12,5 q 0,-0.25 0,-0.5 l 0,-0.25 0,0.375"
           id="path30934"
           inkscape:connector-curvature="0" />
        <path
           style="fill:#080808;fill-opacity:0.73333333"
           d="M 12.875,4.625 12.75,4.25 12.84375,4.53125 12.9375,4.8125 12.875,4.625 Q 12.8125,4.4375 12.6875,4.3125 L 12.5625,4.1875 12.625,4.25 12.6875,4.3125 13,4 13.3125,3.6875 13.25,3.625 13.1875,3.5625 l 0.125,0.125 q 0.125,0.125 0.3125,0.1875 L 13.8125,3.9375 13.53125,3.84375 13.25,3.75 13.625,3.875 14,4 14,4.5 14,5 13.484375,5.015625 12.96875,5.03125 12.984375,5.140625 13,5.25 12.96875,5.03125 Q 12.9375,4.8125 12.875,4.625 L 12.8125,4.4375 12.90625,4.71875 13,5 12.875,4.625"
           id="path30936"
           inkscape:connector-curvature="0" />
        <path
           style="fill:#000000;fill-opacity:0.04705882"
           d="M 14,4.5 14,4 14.5,4 Q 15,4 15,4.5 L 15,5 14.5,5 14,5 14,4.5"
           id="path30938"
           inkscape:connector-curvature="0" />
        <path
           style="fill:#000000;fill-opacity:0.03921569"
           d="M 7,5.5 7,5 7.5,5 8,5 8,5.5 8,6 7.5,6 Q 7,6 7,5.5"
           id="path30940"
           inkscape:connector-curvature="0" />
        <path
           style="fill:#050505;fill-opacity:0.96862745"
           d="M 8,5.5 8,5 8.515625,5.015625 9.03125,5.03125 9.046875,4.921875 9.0625,4.8125 9.03125,5.03125 Q 9,5.25 9,5.5 L 9,5.75 9,5.375 9,5 9,5.5 9,6 9,5.625 9,5.25 9,5.5 Q 9,5.75 9.125,5.875 L 9.25,6 9.1875,5.9375 9.125,5.875 8.5625,5.9375 8,6 8,5.5"
           id="path30942"
           inkscape:connector-curvature="0" />
        <path
           style="fill:#cecece;fill-opacity:1"
           d="M 9,5.5 9,5 9,5.375 9,5.75 9,5.5 Q 9,5.25 9.03125,5.03125 L 9.0625,4.8125 9.046875,4.921875 9.03125,5.03125 9.515625,5.015625 10,5 9.9375,5.5625 9.875,6.125 9.9375,6.1875 10,6.25 9.875,6.125 Q 9.75,6 9.5,6 L 9.25,6 9.625,6 10,6 9.5,6 Q 9,6 9,5.5 M 10,5.375 10,5 10,4.875 10,4.75 10,5 q 0,0.25 0,0.5 l 0,0.25 0,-0.375"
           id="path30944"
           inkscape:connector-curvature="0" />
        <path
           style="fill:#a3a3a3;fill-opacity:1"
           d="M 12.0625,5.5625 12,5 12.484375,5.015625 12.96875,5.03125 12.953125,4.921875 12.9375,4.8125 12.96875,5.03125 Q 13,5.25 13,5.5 L 13,5.75 13,5.375 13,5 13,5.5 Q 13,6 12.5,6 L 12,6 12.375,6 12.75,6 12.5,6 Q 12.25,6 12.125,6.125 L 12,6.25 12.0625,6.1875 12.125,6.125 12.0625,5.5625 M 12,4.875 12,5 12,5.375 12,5.75 12,5.5 Q 12,5.25 12,5 l 0,-0.25 0,0.125"
           id="path30946"
           inkscape:connector-curvature="0" />
        <path
           style="fill:#010101;fill-opacity:0.87843137"
           d="M 13,5.5 13,5 13,5.375 13,5.75 13,5.5 Q 13,5.25 12.96875,5.03125 L 12.9375,4.8125 12.953125,4.921875 12.96875,5.03125 13.484375,5.015625 14,5 14,5.5 14,6 13.4375,5.9375 12.875,5.875 12.8125,5.9375 12.75,6 12.875,5.875 Q 13,5.75 13,5.5 L 13,5.25 13,5.625 13,6 13,5.5"
           id="path30948"
           inkscape:connector-curvature="0" />
        <path
           style="fill:#000000;fill-opacity:0.00784314"
           d="M 14,5.5 14,5 14.5,5 15,5 15,5.5 Q 15,6 14.5,6 L 14,6 14,5.5"
           id="path30950"
           inkscape:connector-curvature="0" />
        <path
           style="fill:#000000;fill-opacity:0.61176471"
           d="M 8,6.5 8,6 8.5625,5.9375 9.125,5.875 9.1875,6.3125 9.25,6.75 9.15625,6.46875 9.0625,6.1875 9.125,6.375 Q 9.1875,6.5625 9.3125,6.6875 L 9.4375,6.8125 9.375,6.75 9.3125,6.6875 9,7 8.6875,7.3125 8.75,7.375 8.8125,7.4375 8.6875,7.3125 Q 8.5625,7.1875 8.375,7.125 L 8.1875,7.0625 8.46875,7.15625 8.75,7.25 8.375,7.125 8,7 8,6.5"
           id="path30952"
           inkscape:connector-curvature="0" />
        <path
           style="fill:#5d5d5d;fill-opacity:1"
           d="M 9.1875,6.3125 9.125,5.875 9.0625,5.8125 9,5.75 9.125,5.875 Q 9.25,6 9.5,6 L 9.75,6 9.375,6 9,6 9.5,6 Q 10,6 10,6.5 L 10,7 9.625,6.875 Q 9.25,6.75 9.1875,6.3125 M 10,7.125 10,7 10,6.625 10,6.25 10,6.5 q 0,0.25 0,0.5 l 0,0.25 0,-0.125"
           id="path30954"
           inkscape:connector-curvature="0" />
        <path
           style="fill:#323232;fill-opacity:1"
           d="M 12,6.5 Q 12,6 12.5,6 L 13,6 12.625,6 12.25,6 12.5,6 q 0.25,0 0.375,-0.125 L 13,5.75 12.9375,5.8125 12.875,5.875 12.8125,6.3125 Q 12.75,6.75 12.375,6.875 L 12,7 12,6.5"
           id="path30956"
           inkscape:connector-curvature="0" />
        <path
           style="fill:#000000;fill-opacity:0.35686275"
           d="M 12.8125,6.3125 12.875,5.875 13.4375,5.9375 14,6 14,6.5 14,7 13.625,7.125 13.25,7.25 13.53125,7.15625 13.8125,7.0625 13.625,7.125 Q 13.4375,7.1875 13.3125,7.3125 L 13.1875,7.4375 13.25,7.375 13.3125,7.3125 13,7 12.6875,6.6875 12.625,6.75 12.5625,6.8125 12.6875,6.6875 Q 12.8125,6.5625 12.875,6.375 L 12.9375,6.1875 12.84375,6.46875 12.75,6.75 12.8125,6.3125"
           id="path30958"
           inkscape:connector-curvature="0" />
        <path
           style="fill:#000000;fill-opacity:0.12156863"
           d="M 4,7.5 Q 4,7 4.5,7 5,7 5,7.5 L 5,8 4.5,8 4,8 4,7.5"
           id="path30960"
           inkscape:connector-curvature="0" />
        <path
           style="fill:#000000;fill-opacity:0.22745098"
           d="M 8,7.5 8,7 8.375,7.125 q 0.375,0.125 0.5,0.5 L 9,8 8.5,8 8,8 8,7.5"
           id="path30962"
           inkscape:connector-curvature="0" />
        <path
           style="fill:#1f1f1f;fill-opacity:1"
           d="M 8.875,7.625 8.75,7.25 8.84375,7.53125 8.9375,7.8125 8.875,7.625 Q 8.8125,7.4375 8.6875,7.3125 L 8.5625,7.1875 8.625,7.25 8.6875,7.3125 9,7 9.3125,6.6875 9.25,6.625 9.1875,6.5625 9.3125,6.6875 Q 9.4375,6.8125 9.625,6.875 L 9.8125,6.9375 9.53125,6.84375 9.25,6.75 9.625,6.875 10,7 10,7.5 10,8 9.5,8 9,8 8.875,7.625 M 10,7.375 10,7 10,6.875 10,6.75 10,7 q 0,0.25 0,0.5 l 0,0.25 0,-0.375"
           id="path30964"
           inkscape:connector-curvature="0" />
        <path
           style="fill:#e3e3e3;fill-opacity:1"
           d="M 10.875,7.375 Q 11,7 11.5,7 L 12,7 12,7.5 12,8 11.625,8.125 11.25,8.25 11.53125,8.15625 11.8125,8.0625 11.625,8.125 Q 11.4375,8.1875 11.28125,8.28125 L 11.125,8.375 11.203125,8.328125 11.28125,8.28125 10.984375,7.984375 10.6875,7.6875 10.625,7.75 10.5625,7.8125 10.6875,7.6875 Q 10.8125,7.5625 10.875,7.375 L 10.9375,7.1875 10.84375,7.46875 10.75,7.75 10.875,7.375"
           id="path30966"
           inkscape:connector-curvature="0" />
        <path
           style="fill:#050505;fill-opacity:0.99215686"
           d="M 12,7.5 12,7 12.375,6.875 12.75,6.75 12.46875,6.84375 12.1875,6.9375 12.375,6.875 Q 12.5625,6.8125 12.6875,6.6875 L 12.8125,6.5625 12.75,6.625 12.6875,6.6875 13,7 13.3125,7.3125 13.375,7.25 13.4375,7.1875 13.3125,7.3125 Q 13.1875,7.4375 13.125,7.625 L 13.0625,7.8125 13.15625,7.53125 13.25,7.25 13.125,7.625 13,8 12.5,8 12,8 12,7.5"
           id="path30968"
           inkscape:connector-curvature="0" />
        <path
           style="fill:#000000;fill-opacity:0.03921569"
           d="m 13.125,7.625 q 0.125,-0.375 0.5,-0.5 L 14,7 14,7.5 14,8 13.5,8 13,8 13.125,7.625"
           id="path30970"
           inkscape:connector-curvature="0" />
        <path
           style="fill:#000000;fill-opacity:0.03137255"
           d="M 16,7.5 Q 16,7 16.5,7 L 17,7 17,7.5 17,8 16.5,8 16,8 16,7.5"
           id="path30972"
           inkscape:connector-curvature="0" />
        <path
           style="fill:#000000;fill-opacity:0.09803922"
           d="M 17,7.5 17,7 17.5,7 Q 18,7 18,7.5 L 18,8 17.5,8 17,8 17,7.5"
           id="path30974"
           inkscape:connector-curvature="0" />
        <path
           style="fill:#000000;fill-opacity:0.18431373"
           d="M 3,8.5 Q 3,8 3.5,8 L 4,8 3.875,8.375 Q 3.75,8.75 3.375,8.875 L 3,9 3,8.5"
           id="path30976"
           inkscape:connector-curvature="0" />
        <path
           style="fill:#101010;fill-opacity:0.85098039"
           d="M 3.875,8.375 4,8 4.5,8 5,8 5.015625,8.515625 5.03125,9.03125 5.140625,9.015625 5.25,9 5.03125,9.03125 Q 4.8125,9.0625 4.625,9.125 L 4.4375,9.1875 4.71875,9.09375 5,9 4.625,9.125 4.25,9.25 4.53125,9.15625 4.8125,9.0625 4.625,9.125 Q 4.4375,9.1875 4.3125,9.3125 L 4.1875,9.4375 4.25,9.375 4.3125,9.3125 4,9 3.6875,8.6875 3.625,8.75 3.5625,8.8125 3.6875,8.6875 Q 3.8125,8.5625 3.875,8.375 L 3.9375,8.1875 3.84375,8.46875 3.75,8.75 3.875,8.375"
           id="path30978"
           inkscape:connector-curvature="0" />
        <path
           style="fill:#000000;fill-opacity:0.94901961"
           d="M 5.015625,8.515625 5,8 5.5,8 6,8 6,8.5 6,9 5.5,9 5,9 5.375,9 5.75,9 5.5,9 Q 5.25,9 5.03125,9.03125 L 4.8125,9.0625 4.921875,9.046875 5.03125,9.03125 5.015625,8.515625"
           id="path30980"
           inkscape:connector-curvature="0" />
        <path
           style="fill:#000000;fill-opacity:0.60784314"
           d="M 6,8.5 6,8 6.5,8 7,8 7.125,8.375 7.25,8.75 7.15625,8.46875 7.0625,8.1875 7.125,8.375 Q 7.1875,8.5625 7.3125,8.6875 L 7.4375,8.8125 7.375,8.75 7.3125,8.6875 7,9 6.6875,9.3125 6.75,9.375 6.8125,9.4375 6.6875,9.3125 Q 6.5625,9.1875 6.375,9.125 L 6.1875,9.0625 6.46875,9.15625 6.75,9.25 6.375,9.125 6,9 6,8.5"
           id="path30982"
           inkscape:connector-curvature="0" />
        <path
           style="fill:#000000;fill-opacity:0.24705882"
           d="M 7.125,8.375 7,8 7.5,8 8,8 8,8.5 8,9 7.625,8.875 Q 7.25,8.75 7.125,8.375"
           id="path30984"
           inkscape:connector-curvature="0" />
        <path
           style="fill:#000000;fill-opacity:0.03137255"
           d="M 8,8.5 8,8 8.5,8 9,8 9,8.5 9,9 8.5,9 8,9 8,8.5"
           id="path30986"
           inkscape:connector-curvature="0" />
        <path
           style="fill:#010101;fill-opacity:0.99215686"
           d="M 9,8.5 9,8 9.5,8 10,8 10,8.5 10,9 9.5,9 9,9 9,8.5"
           id="path30988"
           inkscape:connector-curvature="0" />
        <path
           style="fill:#eaeaea;fill-opacity:1"
           d="M 10,8.5 10,8 10.375,7.875 10.75,7.75 10.46875,7.84375 10.1875,7.9375 10.375,7.875 Q 10.5625,7.8125 10.6875,7.6875 L 10.8125,7.5625 10.75,7.625 10.6875,7.6875 10.984375,7.984375 11.28125,8.28125 11.359375,8.234375 11.4375,8.1875 11.28125,8.28125 Q 11.125,8.375 11,8.5 L 10.875,8.625 11.0625,8.4375 11.25,8.25 11,8.5 Q 10.75,8.75 10.375,8.875 L 10,9 10,8.5"
           id="path30990"
           inkscape:connector-curvature="0" />
        <path
           style="fill:#bcbcbc;fill-opacity:1"
           d="M 11,8.5 Q 11.25,8.25 11.625,8.125 L 12,8 12,8.5 12,9 11.625,9.125 11.25,9.25 11.53125,9.15625 11.8125,9.0625 11.625,9.125 Q 11.4375,9.1875 11.34375,9.28125 L 11.25,9.375 11.296875,9.328125 11.34375,9.28125 11.03125,9 10.71875,8.71875 10.640625,8.765625 10.5625,8.8125 10.71875,8.71875 Q 10.875,8.625 11,8.5 L 11.125,8.375 10.9375,8.5625 10.75,8.75 11,8.5"
           id="path30992"
           inkscape:connector-curvature="0" />
        <path
           style="fill:#000000;fill-opacity:0.93333333"
           d="M 12,8.5 12,8 12.5,8 13,8 13,8.5 13,9 12.5,9 12,9 12,8.5"
           id="path30994"
           inkscape:connector-curvature="0" />
        <path
           style="fill:#000000;fill-opacity:0.05490196"
           d="M 13,8.5 13,8 13.5,8 14,8 14,8.5 14,9 13.5,9 13,9 13,8.5"
           id="path30996"
           inkscape:connector-curvature="0" />
        <path
           style="fill:#000000;fill-opacity:0.31372549"
           d="M 14,8.5 14,8 14.5,8 15,8 14.875,8.375 q -0.125,0.375 -0.5,0.5 L 14,9 14,8.5"
           id="path30998"
           inkscape:connector-curvature="0" />
        <path
           style="fill:#000000;fill-opacity:0.69411765"
           d="M 14.875,8.375 15,8 15.5,8 16,8 16.015625,8.515625 16.03125,9.03125 16.140625,9.015625 16.25,9 16.03125,9.03125 Q 15.8125,9.0625 15.625,9.125 L 15.4375,9.1875 15.71875,9.09375 16,9 15.625,9.125 15.25,9.25 15.53125,9.15625 15.8125,9.0625 15.625,9.125 Q 15.4375,9.1875 15.3125,9.3125 L 15.1875,9.4375 15.25,9.375 15.3125,9.3125 15,9 14.6875,8.6875 14.625,8.75 14.5625,8.8125 14.6875,8.6875 Q 14.8125,8.5625 14.875,8.375 L 14.9375,8.1875 14.84375,8.46875 14.75,8.75 14.875,8.375"
           id="path31000"
           inkscape:connector-curvature="0" />
        <path
           style="fill:#040404;fill-opacity:0.97254902"
           d="M 16.015625,8.515625 16,8 16.5,8 17,8 16.953125,8.546875 16.90625,9.09375 16.984375,9.140625 17.0625,9.1875 16.90625,9.09375 Q 16.75,9 16.5,9 L 16.25,9 16.625,9 17,9 16.5,9 16,9 16.375,9 16.75,9 16.5,9 Q 16.25,9 16.03125,9.03125 L 15.8125,9.0625 15.921875,9.046875 16.03125,9.03125 16.015625,8.515625"
           id="path31002"
           inkscape:connector-curvature="0" />
        <path
           style="fill:#121212;fill-opacity:0.71372549"
           d="M 16.953125,8.546875 17,8 17.5,8 18,8 18.125,8.375 18.25,8.75 18.15625,8.46875 18.0625,8.1875 18.125,8.375 q 0.0625,0.1875 0.1875,0.3125 l 0.125,0.125 L 18.375,8.75 18.3125,8.6875 18,9 17.6875,9.3125 17.75,9.375 17.8125,9.4375 17.6875,9.3125 Q 17.5625,9.1875 17.375,9.125 L 17.1875,9.0625 17.46875,9.15625 17.75,9.25 17.328125,9.171875 16.90625,9.09375 16.953125,8.546875"
           id="path31004"
           inkscape:connector-curvature="0" />
        <path
           style="fill:#000000;fill-opacity:0.09803922"
           d="M 18.125,8.375 18,8 18.5,8 Q 19,8 19,8.5 L 19,9 18.625,8.875 q -0.375,-0.125 -0.5,-0.5"
           id="path31006"
           inkscape:connector-curvature="0" />
        <path
           style="fill:#000000;fill-opacity:0.09411765"
           d="M 2,9.5 Q 2,9 2.5,9 L 3,9 2.875,9.375 Q 2.75,9.75 2.375,9.875 L 2,10 2,9.5"
           id="path31008"
           inkscape:connector-curvature="0" />
        <path
           style="fill:#090909;fill-opacity:0.99215686"
           d="M 2.875,9.375 3,9 3.375,8.875 3.75,8.75 3.46875,8.84375 3.1875,8.9375 3.375,8.875 Q 3.5625,8.8125 3.6875,8.6875 L 3.8125,8.5625 3.75,8.625 3.6875,8.6875 4,9 4.3125,9.3125 4.375,9.25 4.4375,9.1875 4.3125,9.3125 Q 4.1875,9.4375 4.125,9.625 L 4.0625,9.8125 4.15625,9.53125 4.25,9.25 4.125,9.625 4,10 3.625,10.125 3.25,10.25 3.53125,10.15625 3.8125,10.0625 3.625,10.125 Q 3.4375,10.1875 3.3125,10.3125 L 3.1875,10.4375 3.25,10.375 3.3125,10.3125 3,10 2.6875,9.6875 2.625,9.75 2.5625,9.8125 2.6875,9.6875 Q 2.8125,9.5625 2.875,9.375 L 2.9375,9.1875 2.84375,9.46875 2.75,9.75 2.875,9.375"
           id="path31010"
           inkscape:connector-curvature="0" />
        <path
           style="fill:#8e8e8e;fill-opacity:1"
           d="M 4.125,9.625 Q 4.25,9.25 4.625,9.125 L 5,9 4.71875,9.09375 4.4375,9.1875 4.625,9.125 Q 4.8125,9.0625 5.03125,9.03125 L 5.25,9 5.140625,9.015625 5.03125,9.03125 5.015625,9.515625 5,10 4.5,10 4,10 4.125,9.625 M 4.625,10 5,10 5.125,10 5.25,10 5,10 q -0.25,0 -0.5,0 l -0.25,0 0.375,0"
           id="path31012"
           inkscape:connector-curvature="0" />
        <path
           style="fill:#c2c2c2;fill-opacity:1"
           d="M 5.015625,9.515625 5.03125,9.03125 4.921875,9.046875 4.8125,9.0625 5.03125,9.03125 Q 5.25,9 5.5,9 L 5.75,9 5.375,9 5,9 5.5,9 6,9 5.625,9 5.25,9 5.5,9 Q 5.75,9 5.96875,9.03125 L 6.1875,9.0625 6.078125,9.046875 5.96875,9.03125 5.984375,9.515625 6,10 5.5,10 5,10 5.015625,9.515625 M 4.875,10 5,10 5.375,10 5.75,10 5.5,10 Q 5.25,10 5,10 l -0.25,0 0.125,0 M 5.625,10 6,10 6.125,10 6.25,10 6,10 q -0.25,0 -0.5,0 l -0.25,0 0.375,0"
           id="path31014"
           inkscape:connector-curvature="0" />
        <path
           style="fill:#5f5f5f;fill-opacity:1"
           d="M 5.984375,9.515625 5.96875,9.03125 5.859375,9.015625 5.75,9 5.96875,9.03125 Q 6.1875,9.0625 6.375,9.125 L 6.5625,9.1875 6.28125,9.09375 6,9 6.375,9.125 q 0.375,0.125 0.5,0.5 L 7,10 6.5,10 6,10 5.984375,9.515625 M 5.875,10 6,10 6.375,10 6.75,10 6.5,10 Q 6.25,10 6,10 l -0.25,0 0.125,0 M 6.625,10 7,10 7.125,10 7.25,10 7,10 q -0.25,0 -0.5,0 l -0.25,0 0.375,0"
           id="path31016"
           inkscape:connector-curvature="0" />
        <path
           style="fill:#222222;fill-opacity:1"
           d="M 6.875,9.625 6.75,9.25 6.84375,9.53125 6.9375,9.8125 6.875,9.625 Q 6.8125,9.4375 6.6875,9.3125 L 6.5625,9.1875 6.625,9.25 6.6875,9.3125 7,9 7.3125,8.6875 7.25,8.625 7.1875,8.5625 7.3125,8.6875 Q 7.4375,8.8125 7.625,8.875 L 7.8125,8.9375 7.53125,8.84375 7.25,8.75 7.625,8.875 8,9 8,9.5 8,10 7.5,10 7,10 6.875,9.625 M 6.875,10 7,10 7.375,10 7.75,10 7.5,10 Q 7.25,10 7,10 l -0.25,0 0.125,0"
           id="path31018"
           inkscape:connector-curvature="0" />
        <path
           style="fill:#030303;fill-opacity:0.99215686"
           d="M 8,9.5 8,9 8.5,9 9,9 9,9.5 9,10 8.5,10 8,10 8,9.5"
           id="path31020"
           inkscape:connector-curvature="0" />
        <path
           style="fill:#000000;fill-opacity:1"
           d="M 9,9.5 9,9 9.5,9 10,9 9.875,9.375 Q 9.75,9.75 9.375,9.875 L 9,10 9,9.5"
           id="path31022"
           inkscape:connector-curvature="0" />
        <path
           style="fill:#d3d3d3;fill-opacity:1"
           d="M 9.875,9.375 10,9 10.375,8.875 10.75,8.75 10.46875,8.84375 10.1875,8.9375 10.375,8.875 Q 10.5625,8.8125 10.71875,8.71875 L 10.875,8.625 10.796875,8.671875 10.71875,8.71875 11.03125,9 11.34375,9.28125 11.390625,9.234375 11.4375,9.1875 11.34375,9.28125 Q 11.25,9.375 11.25,9.5 l 0,0.125 0,-0.1875 0,-0.1875 0,0.25 0,0.25 0,-0.1875 0,-0.1875 0,0.125 q 0,0.125 0.09375,0.21875 L 11.4375,9.8125 11.390625,9.765625 11.34375,9.71875 l -0.3125,0.3125 -0.3125,0.3125 0.04687,0.04687 0.04687,0.04687 -0.09375,-0.09375 Q 10.625,10.25 10.5,10.25 l -0.125,0 0.1875,0 0.1875,0 -0.25,0 -0.25,0 0.1875,0 0.1875,0 -0.125,0 q -0.125,0 -0.1875,0.0625 L 10.25,10.375 10.28125,10.34375 10.3125,10.3125 10,10 9.6875,9.6875 9.625,9.75 9.5625,9.8125 9.6875,9.6875 Q 9.8125,9.5625 9.875,9.375 L 9.9375,9.1875 9.84375,9.46875 9.75,9.75 9.875,9.375"
           id="path31024"
           inkscape:connector-curvature="0" />
        <path
           style="fill:#a2a2a2;fill-opacity:1"
           d="m 11.25,9.5 q 0,-0.25 0.375,-0.375 L 12,9 12,9.5 12,10 12,9.625 12,9.25 12,9.5 q 0,0.25 0.125,0.375 L 12.25,10 12.1875,9.9375 12.125,9.875 11.6875,9.8125 Q 11.25,9.75 11.25,9.5"
           id="path31026"
           inkscape:connector-curvature="0" />
        <path
           style="fill:#000000;fill-opacity:0.99607843"
           d="M 12,9.5 12,9 12.5,9 13,9 13,9.5 13,10 12.5,10 Q 12,10 12,9.5"
           id="path31028"
           inkscape:connector-curvature="0" />
        <path
           style="fill:#070707;fill-opacity:0.99607843"
           d="M 13,9.5 13,9 13.5,9 14,9 14,9.5 14,10 13.5,10 13,10 13,9.5"
           id="path31030"
           inkscape:connector-curvature="0" />
        <path
           style="fill:#2c2c2c;fill-opacity:1"
           d="M 14,9.5 14,9 14.375,8.875 14.75,8.75 14.46875,8.84375 14.1875,8.9375 14.375,8.875 Q 14.5625,8.8125 14.6875,8.6875 L 14.8125,8.5625 14.75,8.625 14.6875,8.6875 15,9 15.3125,9.3125 15.375,9.25 15.4375,9.1875 15.3125,9.3125 Q 15.1875,9.4375 15.125,9.625 L 15.0625,9.8125 15.15625,9.53125 15.25,9.25 15.109375,9.609375 14.96875,9.96875 15.078125,9.953125 15.1875,9.9375 14.96875,9.96875 Q 14.75,10 14.5,10 l -0.25,0 0.375,0 0.375,0 -0.5,0 -0.5,0 0,-0.5"
           id="path31032"
           inkscape:connector-curvature="0" />
        <path
           style="fill:#6f6f6f;fill-opacity:1"
           d="M 15.109375,9.609375 Q 15.25,9.25 15.625,9.125 L 16,9 15.71875,9.09375 15.4375,9.1875 15.625,9.125 Q 15.8125,9.0625 16.03125,9.03125 L 16.25,9 16.140625,9.015625 16.03125,9.03125 15.890625,9.390625 Q 15.75,9.75 15.375,9.875 L 15,10 15.28125,9.90625 15.5625,9.8125 15.375,9.875 Q 15.1875,9.9375 14.96875,9.96875 L 14.75,10 14.859375,9.984375 14.96875,9.96875 15.109375,9.609375"
           id="path31034"
           inkscape:connector-curvature="0" />
        <path
           style="fill:#d1d1d1;fill-opacity:1"
           d="M 15.890625,9.390625 16.03125,9.03125 15.921875,9.046875 15.8125,9.0625 16.03125,9.03125 Q 16.25,9 16.5,9 L 16.75,9 16.375,9 16,9 16.5,9 Q 17,9 17.125,9.375 L 17.25,9.75 17.15625,9.46875 17.0625,9.1875 17.125,9.375 q 0.0625,0.1875 0.1875,0.3125 l 0.125,0.125 L 17.375,9.75 17.3125,9.6875 l -0.296875,0.328125 -0.296875,0.328125 0.04687,0.04687 0.04687,0.04687 -0.09375,-0.09375 Q 16.625,10.25 16.5,10.25 l -0.125,0 0.1875,0 0.1875,0 -0.25,0 q -0.25,0 -0.53125,-0.28125 L 15.6875,9.6875 15.625,9.75 15.5625,9.8125 15.6875,9.6875 Q 15.8125,9.5625 15.875,9.375 L 15.9375,9.1875 15.84375,9.46875 15.75,9.75 15.890625,9.390625"
           id="path31036"
           inkscape:connector-curvature="0" />
        <path
           style="fill:#656565;fill-opacity:1"
           d="M 17.125,9.375 17,9 17.09375,9.28125 17.1875,9.5625 17.125,9.375 Q 17.0625,9.1875 16.90625,9.09375 L 16.75,9 16.82813,9.046875 16.90626,9.09375 17.328135,9.171875 Q 17.75,9.25 17.875,9.625 L 18,10 17.625,9.875 q -0.375,-0.125 -0.5,-0.5"
           id="path31038"
           inkscape:connector-curvature="0" />
        <path
           style="fill:#000000;fill-opacity:0.94117647"
           d="M 17.875,9.625 17.75,9.25 17.84375,9.53125 17.9375,9.8125 17.875,9.625 Q 17.8125,9.4375 17.6875,9.3125 L 17.5625,9.1875 17.625,9.25 17.6875,9.3125 18,9 18.3125,8.6875 18.25,8.625 18.1875,8.5625 l 0.125,0.125 q 0.125,0.125 0.3125,0.1875 L 18.8125,8.9375 18.53125,8.84375 18.25,8.75 18.625,8.875 19,9 19.125,9.375 19.25,9.75 19.15625,9.46875 19.0625,9.1875 19.125,9.375 q 0.0625,0.1875 0.1875,0.3125 l 0.125,0.125 L 19.375,9.75 19.3125,9.6875 19,10 l -0.3125,0.3125 0.0625,0.0625 0.0625,0.0625 -0.125,-0.125 Q 18.5625,10.1875 18.375,10.125 L 18.1875,10.0625 18.46875,10.15625 18.75,10.25 18.375,10.125 18,10 17.875,9.625"
           id="path31040"
           inkscape:connector-curvature="0" />
        <path
           style="fill:#000000;fill-opacity:0.02352941"
           d="M 1,10.5 Q 1,10 1.5,10 L 2,10 2,10.5 2,11 1.5,11 1,11 1,10.5"
           id="path31042"
           inkscape:connector-curvature="0" />
        <path
           style="fill:#030303;fill-opacity:0.95686275"
           d="M 2,10.5 2,10 2.375,9.875 2.75,9.75 2.46875,9.84375 2.1875,9.9375 2.375,9.875 Q 2.5625,9.8125 2.6875,9.6875 L 2.8125,9.5625 2.75,9.625 2.6875,9.6875 3,10 3.3125,10.3125 3.375,10.25 3.4375,10.1875 3.3125,10.3125 Q 3.1875,10.4375 3.125,10.625 L 3.0625,10.8125 3.15625,10.53125 3.25,10.25 3.125,10.625 3,11 2.5,11 2,11 2,10.5"
           id="path31044"
           inkscape:connector-curvature="0" />
        <path
           style="fill:#cacaca;fill-opacity:1"
           d="m 3.125,10.625 q 0.125,-0.375 0.5,-0.5 L 4,10 4.125,10.375 4.25,10.75 4.15625,10.46875 4.0625,10.1875 4.125,10.375 q 0.0625,0.1875 0.1875,0.3125 l 0.125,0.125 L 4.375,10.75 4.3125,10.6875 4.015625,10.984375 3.71875,11.28125 3.796875,11.328125 3.875,11.375 3.71875,11.28125 Q 3.5625,11.1875 3.375,11.125 L 3.1875,11.0625 3.46875,11.15625 3.75,11.25 3.375,11.125 3,11 3.125,10.625"
           id="path31046"
           inkscape:connector-curvature="0" />
        <path
           style="fill:#ffffff;fill-opacity:1"
           d="M 4.125,10.375 4,10 4.5,10 q 0.5,0 1,0 0.5,0 1,0 0.5,0 1,0 L 8,10 7.875,10.375 Q 7.75,10.75 7.375,10.875 7,11 7,11.5 L 7,12 6.5,12 Q 6,12 5.5,12 L 5,12 5,11.5 Q 5,11 4.625,10.875 4.25,10.75 4.125,10.375"
           id="path31048"
           inkscape:connector-curvature="0" />
        <path
           style="fill:#eaeaea;fill-opacity:1"
           d="M 7.875,10.375 8,10 8.5,10 9,10 8.875,10.375 Q 8.75,10.75 8.5,11 L 8.25,11.25 8.4375,11.0625 8.625,10.875 8.5,11 Q 8.375,11.125 8.28125,11.28125 L 8.1875,11.4375 8.234375,11.359375 8.28125,11.28125 7.984375,10.984375 7.6875,10.6875 7.625,10.75 7.5625,10.8125 7.6875,10.6875 Q 7.8125,10.5625 7.875,10.375 L 7.9375,10.1875 7.84375,10.46875 7.75,10.75 7.875,10.375"
           id="path31050"
           inkscape:connector-curvature="0" />
        <path
           style="fill:#d6d6d6;fill-opacity:1"
           d="M 8.875,10.375 9,10 9.375,9.875 9.75,9.75 9.46875,9.84375 9.1875,9.9375 9.375,9.875 Q 9.5625,9.8125 9.6875,9.6875 L 9.8125,9.5625 9.75,9.625 9.6875,9.6875 10,10 10.3125,10.3125 10.34375,10.28125 10.375,10.25 10.3125,10.3125 Q 10.25,10.375 10.25,10.5 l 0,0.125 0,-0.1875 0,-0.1875 0,0.25 0,0.25 0,-0.1875 0,-0.1875 0,0.125 q 0,0.125 0.09375,0.21875 L 10.4375,10.8125 10.39063,10.76563 10.34376,10.71876 10.046885,11.015635 9.75,11.3125 9.8125,11.34375 9.875,11.375 9.75,11.3125 Q 9.625,11.25 9.5,11.25 l -0.125,0 0.1875,0 0.1875,0 -0.25,0 -0.25,0 0.1875,0 0.1875,0 -0.125,0 q -0.125,0 -0.21875,0.09375 L 9.1875,11.4375 9.234375,11.390625 9.28125,11.34375 9,11.03125 8.71875,10.71875 8.671875,10.796875 8.625,10.875 8.71875,10.71875 Q 8.8125,10.5625 8.875,10.375 L 8.9375,10.1875 8.84375,10.46875 8.75,10.75 8.875,10.375"
           id="path31052"
           inkscape:connector-curvature="0" />
        <path
           style="fill:#f7f7f7;fill-opacity:1"
           d="m 10.25,10.5 q 0,-0.25 0.25,-0.25 0.25,0 0.375,0.375 L 11,11 10.625,10.875 Q 10.25,10.75 10.25,10.5"
           id="path31054"
           inkscape:connector-curvature="0" />
        <path
           style="fill:#eeeeee;fill-opacity:1"
           d="M 10.875,10.625 10.75,10.25 10.84375,10.53125 10.9375,10.8125 10.875,10.625 Q 10.8125,10.4375 10.71875,10.34375 L 10.625,10.25 l 0.04687,0.04687 0.04687,0.04687 0.3125,-0.3125 0.3125,-0.3125 L 11.296875,9.671875 11.25,9.625 11.34375,9.71875 Q 11.4375,9.8125 11.625,9.875 L 11.8125,9.9375 11.53125,9.84375 11.25,9.75 11.6875,9.8125 12.125,9.875 11.9375,10.3125 Q 11.75,10.75 11.375,10.875 L 11,11 10.875,10.625"
           id="path31056"
           inkscape:connector-curvature="0" />
        <path
           style="fill:#d7d7d7;fill-opacity:1"
           d="M 11.9375,10.3125 12.125,9.875 12.0625,9.8125 12,9.75 12.125,9.875 Q 12.25,10 12.5,10 l 0.25,0 -0.375,0 -0.375,0 0.5,0 0.5,0 0.125,0.375 0.125,0.375 -0.09375,-0.28125 -0.09375,-0.28125 0.0625,0.1875 q 0.0625,0.1875 0.15625,0.34375 L 13.375,10.875 13.328125,10.796875 13.28125,10.71875 13,11.03125 l -0.28125,0.3125 0.04687,0.04687 0.04687,0.04687 -0.09375,-0.09375 Q 12.625,11.25 12.5,11.25 l -0.125,0 0.1875,0 0.1875,0 -0.25,0 -0.25,0 0.1875,0 0.1875,0 -0.125,0 q -0.125,0 -0.25,0.0625 L 12.125,11.375 12.1875,11.34375 12.25,11.3125 11.96875,11 11.6875,10.6875 11.625,10.75 l -0.0625,0.0625 0.125,-0.125 q 0.125,-0.125 0.1875,-0.3125 L 11.9375,10.1875 11.84375,10.46875 11.75,10.75 11.9375,10.3125"
           id="path31058"
           inkscape:connector-curvature="0" />
        <path
           style="fill:#efefef;fill-opacity:1"
           d="M 13.125,10.375 13,10 l 0.5,0 0.5,0 0.125,0.375 0.125,0.375 -0.09375,-0.28125 -0.09375,-0.28125 0.0625,0.1875 q 0.0625,0.1875 0.1875,0.3125 l 0.125,0.125 -0.0625,-0.0625 -0.0625,-0.0625 -0.296875,0.296875 -0.296875,0.296875 0.04687,0.07813 0.04687,0.07813 -0.09375,-0.15625 Q 13.625,11.125 13.5,11 L 13.375,10.875 13.5625,11.0625 13.75,11.25 13.5,11 q -0.25,-0.25 -0.375,-0.625"
           id="path31060"
           inkscape:connector-curvature="0" />
        <path
           style="fill:#ffffff;fill-opacity:1"
           d="M 14.125,10.375 14,10 14.5,10 Q 15,10 15.375,9.875 L 15.75,9.75 15.46875,9.84375 15.1875,9.9375 15.375,9.875 Q 15.5625,9.8125 15.6875,9.6875 L 15.8125,9.5625 15.75,9.625 15.6875,9.6875 15.96875,9.96875 Q 16.25,10.25 16.5,10.25 q 0.25,0 0.375,0.375 L 17,11 17,11.5 17,12 16.4375,12.0625 15.875,12.125 15.9375,12.1875 16,12.25 15.875,12.125 Q 15.75,12 15.5,12 l -0.25,0 0.375,0 0.375,0 -0.5,0 -0.5,0 0,-0.5 q 0,-0.5 -0.375,-0.625 -0.375,-0.125 -0.5,-0.5 M 14.875,12 15,12 l 0.375,0 0.375,0 -0.25,0 q -0.25,0 -0.5,0 l -0.25,0 0.125,0"
           id="path31062"
           inkscape:connector-curvature="0" />
        <path
           style="fill:#fafafa;fill-opacity:1"
           d="M 16.875,10.625 16.75,10.25 16.84375,10.53125 16.9375,10.8125 16.875,10.625 Q 16.8125,10.4375 16.71875,10.34375 L 16.625,10.25 l 0.04687,0.04687 0.04687,0.04687 0.296875,-0.328125 L 17.3125,9.6875 17.25,9.625 17.1875,9.5625 l 0.125,0.125 q 0.125,0.125 0.3125,0.1875 L 17.8125,9.9375 17.53125,9.84375 17.25,9.75 17.625,9.875 18,10 l 0,0.5 0,0.5 -0.5,0 -0.5,0 -0.125,-0.375"
           id="path31064"
           inkscape:connector-curvature="0" />
        <path
           style="fill:#9a9a9a;fill-opacity:1"
           d="m 18,10.5 0,-0.5 0.375,0.125 q 0.375,0.125 0.5,0.5 L 19,11 18.5,11 18,11 18,10.5"
           id="path31066"
           inkscape:connector-curvature="0" />
        <path
           style="fill:#000000;fill-opacity:0.84313725"
           d="M 18.875,10.625 18.75,10.25 18.84375,10.53125 18.9375,10.8125 18.875,10.625 q -0.0625,-0.1875 -0.1875,-0.3125 l -0.125,-0.125 0.0625,0.0625 0.0625,0.0625 L 19,10 19.3125,9.6875 19.25,9.625 19.1875,9.5625 l 0.125,0.125 q 0.125,0.125 0.3125,0.1875 L 19.8125,9.9375 19.53125,9.84375 19.25,9.75 19.625,9.875 Q 20,10 20,10.5 l 0,0.5 -0.5,0 -0.5,0 -0.125,-0.375"
           id="path31068"
           inkscape:connector-curvature="0" />
        <path
           style="fill:#000000;fill-opacity:0.01568627"
           d="M 1,11.5 1,11 1.5,11 2,11 2,11.5 2,12 1.5,12 Q 1,12 1,11.5"
           id="path31070"
           inkscape:connector-curvature="0" />
        <path
           style="fill:#020202;fill-opacity:0.85882353"
           d="M 2,11.5 2,11 2.5,11 3,11 3.125,11.375 3.25,11.75 3.15625,11.46875 3.0625,11.1875 3.125,11.375 q 0.0625,0.1875 0.15625,0.34375 L 3.375,11.875 3.328125,11.796875 3.28125,11.71875 2.984375,12.015625 2.6875,12.3125 2.75,12.375 2.8125,12.4375 2.6875,12.3125 Q 2.5625,12.1875 2.375,12.125 L 2.1875,12.0625 2.46875,12.15625 2.75,12.25 2.375,12.125 2,12 2,11.5"
           id="path31072"
           inkscape:connector-curvature="0" />
        <path
           style="fill:#9d9d9d;fill-opacity:1"
           d="M 3.125,11.375 3,11 3.375,11.125 Q 3.75,11.25 4,11.5 L 4.25,11.75 4.0625,11.5625 3.875,11.375 4,11.5 q 0.125,0.125 0.28125,0.21875 L 4.4375,11.8125 4.359375,11.765625 4.28125,11.71875 4.015625,11.984375 3.75,12.25 3.5,12 Q 3.25,11.75 3.125,11.375 M 3.5625,12.0625 3.75,12.25 3.8125,12.3125 3.875,12.375 3.75,12.25 Q 3.625,12.125 3.5,12 l -0.125,-0.125 0.1875,0.1875"
           id="path31074"
           inkscape:connector-curvature="0" />
        <path
           style="fill:#ebebeb;fill-opacity:1"
           d="M 4,11.5 3.75,11.25 3.9375,11.4375 4.125,11.625 4,11.5 Q 3.875,11.375 3.71875,11.28125 L 3.5625,11.1875 3.640625,11.234375 3.71875,11.28125 4.015625,10.984375 4.3125,10.6875 4.25,10.625 4.1875,10.5625 l 0.125,0.125 q 0.125,0.125 0.3125,0.1875 L 4.8125,10.9375 4.53125,10.84375 4.25,10.75 4.625,10.875 Q 5,11 5,11.5 L 5,12 4.625,11.875 Q 4.25,11.75 4,11.5"
           id="path31076"
           inkscape:connector-curvature="0" />
        <path
           style="fill:#e1e1e1;fill-opacity:1"
           d="M 7,11.5 Q 7,11 7.375,10.875 L 7.75,10.75 7.46875,10.84375 7.1875,10.9375 7.375,10.875 Q 7.5625,10.8125 7.6875,10.6875 L 7.8125,10.5625 7.75,10.625 7.6875,10.6875 7.984375,10.984375 8.28125,11.28125 8.328125,11.203125 8.375,11.125 8.28125,11.28125 Q 8.1875,11.4375 8.125,11.625 L 8.0625,11.8125 8.15625,11.53125 8.25,11.25 8.125,11.625 8,12 7.5,12 7,12 7,11.5"
           id="path31078"
           inkscape:connector-curvature="0" />
        <path
           style="fill:#bebebe;fill-opacity:1"
           d="M 8.125,11.625 Q 8.25,11.25 8.5,11 L 8.75,10.75 8.5625,10.9375 8.375,11.125 8.5,11 Q 8.625,10.875 8.71875,10.71875 L 8.8125,10.5625 8.765625,10.640625 8.71875,10.71875 9,11.03125 9.28125,11.34375 9.328125,11.296875 9.375,11.25 9.28125,11.34375 Q 9.1875,11.4375 9.125,11.625 L 9.0625,11.8125 9.15625,11.53125 9.25,11.25 9.125,11.625 9,12 8.5,12 8,12 8.125,11.625"
           id="path31080"
           inkscape:connector-curvature="0" />
        <path
           style="fill:#a6a6a6;fill-opacity:1"
           d="M 9.125,11.625 Q 9.25,11.25 9.5,11.25 q 0.25,0 0.5,0.25 L 10.25,11.75 10.0625,11.5625 9.875,11.375 10,11.5 q 0.125,0.125 0.25,0.1875 L 10.375,11.75 10.3125,11.71875 10.25,11.6875 9.96875,12 9.6875,12.3125 9.75,12.375 9.8125,12.4375 9.6875,12.3125 Q 9.5625,12.1875 9.375,12.125 L 9.1875,12.0625 9.46875,12.15625 9.75,12.25 9.375,12.125 9,12 9.125,11.625"
           id="path31082"
           inkscape:connector-curvature="0" />
        <path
           style="fill:#eeeeee;fill-opacity:1"
           d="M 10,11.5 9.75,11.25 9.9375,11.4375 10.125,11.625 10,11.5 Q 9.875,11.375 9.75,11.3125 L 9.625,11.25 9.6875,11.28125 9.75,11.3125 10.046875,11.015625 10.34375,10.71875 10.296875,10.671875 10.25,10.625 10.34375,10.71875 Q 10.4375,10.8125 10.625,10.875 L 10.8125,10.9375 10.53125,10.84375 10.25,10.75 10.625,10.875 11,11 10.875,11.375 Q 10.75,11.75 10.5,11.75 10.25,11.75 10,11.5"
           id="path31084"
           inkscape:connector-curvature="0" />
        <path
           style="fill:#dddddd;fill-opacity:1"
           d="M 10.875,11.375 11,11 11.375,10.875 11.75,10.75 11.46875,10.84375 11.1875,10.9375 11.375,10.875 q 0.1875,-0.0625 0.3125,-0.1875 l 0.125,-0.125 L 11.75,10.625 11.6875,10.6875 11.96875,11 12.25,11.3125 12.3125,11.28125 12.375,11.25 12.25,11.3125 Q 12.125,11.375 12,11.5 L 11.875,11.625 12.0625,11.4375 12.25,11.25 12,11.5 Q 11.75,11.75 11.5,12 L 11.25,12.25 11.4375,12.0625 11.625,11.875 11.5,12 q -0.125,0.125 -0.1875,0.25 L 11.25,12.375 11.28125,12.3125 11.3125,12.25 11.015625,11.953125 10.71875,11.65625 10.671875,11.703125 10.625,11.75 10.71875,11.65625 Q 10.8125,11.5625 10.875,11.375 L 10.9375,11.1875 10.84375,11.46875 10.75,11.75 10.875,11.375"
           id="path31086"
           inkscape:connector-curvature="0" />
        <path
           style="fill:#a8a8a8;fill-opacity:1"
           d="m 12,11.5 q 0.25,-0.25 0.5,-0.25 0.25,0 0.375,0.375 L 13,12 12.625,12.125 12.25,12.25 12.53125,12.15625 12.8125,12.0625 12.625,12.125 q -0.1875,0.0625 -0.3125,0.1875 l -0.125,0.125 L 12.25,12.375 12.3125,12.3125 12.03125,12.03125 11.75,11.75 12,11.5 M 11.9375,11.5625 11.75,11.75 11.6875,11.8125 11.625,11.875 11.75,11.75 Q 11.875,11.625 12,11.5 l 0.125,-0.125 -0.1875,0.1875"
           id="path31088"
           inkscape:connector-curvature="0" />
        <path
           style="fill:#c3c3c3;fill-opacity:1"
           d="M 12.875,11.625 12.75,11.25 12.84375,11.53125 12.9375,11.8125 12.875,11.625 Q 12.8125,11.4375 12.71875,11.34375 L 12.625,11.25 l 0.04687,0.04687 0.04687,0.04687 0.28125,-0.3125 0.28125,-0.3125 -0.04687,-0.07813 -0.04687,-0.07813 0.09375,0.15625 Q 13.375,10.875 13.5,11 L 13.625,11.125 13.4375,10.9375 13.25,10.75 13.5,11 q 0.25,0.25 0.375,0.625 L 14,12 13.5,12 13,12 12.875,11.625"
           id="path31090"
           inkscape:connector-curvature="0" />
        <path
           style="fill:#e8e8e8;fill-opacity:1"
           d="M 13.875,11.625 13.75,11.25 13.84375,11.53125 13.9375,11.8125 13.875,11.625 Q 13.8125,11.4375 13.71875,11.28125 L 13.625,11.125 l 0.04687,0.07813 0.04687,0.07813 0.296875,-0.296875 L 14.3125,10.6875 14.25,10.625 l -0.0625,-0.0625 0.125,0.125 q 0.125,0.125 0.3125,0.1875 L 14.8125,10.9375 14.53125,10.84375 14.25,10.75 14.625,10.875 Q 15,11 15,11.5 L 15,12 14.5,12 14,12 13.875,11.625 M 14.625,12 15,12 15.125,12 15.25,12 15,12 q -0.25,0 -0.5,0 l -0.25,0 0.375,0"
           id="path31092"
           inkscape:connector-curvature="0" />
        <path
           style="fill:#e9e9e9;fill-opacity:1"
           d="m 17,11.5 0,-0.5 0.5,0 0.5,0 0,0.5 0,0.5 -0.5,0 -0.5,0 0,-0.5"
           id="path31094"
           inkscape:connector-curvature="0" />
        <path
           style="fill:#858585;fill-opacity:1"
           d="m 18,11.5 0,-0.5 0.5,0 0.5,0 -0.125,0.375 q -0.125,0.375 -0.5,0.5 L 18,12 18,11.5"
           id="path31096"
           inkscape:connector-curvature="0" />
        <path
           style="fill:#000000;fill-opacity:0.77254902"
           d="M 18.875,11.375 19,11 l 0.5,0 0.5,0 0,0.5 q 0,0.5 -0.375,0.625 L 19.25,12.25 19.53125,12.15625 19.8125,12.0625 19.625,12.125 q -0.1875,0.0625 -0.3125,0.1875 l -0.125,0.125 L 19.25,12.375 19.3125,12.3125 19,12 18.6875,11.6875 18.625,11.75 l -0.0625,0.0625 0.125,-0.125 q 0.125,-0.125 0.1875,-0.3125 L 18.9375,11.1875 18.84375,11.46875 18.75,11.75 18.875,11.375"
           id="path31098"
           inkscape:connector-curvature="0" />
        <path
           style="fill:#000000;fill-opacity:0.01568627"
           d="M 2,12.5 2,12 2.375,12.125 q 0.375,0.125 0.5,0.5 L 3,13 2.5,13 Q 2,13 2,12.5"
           id="path31100"
           inkscape:connector-curvature="0" />
        <path
           style="fill:#000000;fill-opacity:0.95294118"
           d="M 2.875,12.625 2.75,12.25 2.84375,12.53125 2.9375,12.8125 2.875,12.625 Q 2.8125,12.4375 2.6875,12.3125 L 2.5625,12.1875 2.625,12.25 2.6875,12.3125 2.984375,12.015625 3.28125,11.71875 3.234375,11.640625 3.1875,11.5625 3.28125,11.71875 Q 3.375,11.875 3.5,12 L 3.625,12.125 3.4375,11.9375 3.25,11.75 3.5,12 Q 3.75,12.25 4,12.5 L 4.25,12.75 4.0625,12.5625 3.875,12.375 4,12.5 q 0.125,0.125 0.28125,0.21875 L 4.4375,12.8125 4.359375,12.765625 4.28125,12.71875 3.984375,13.015625 3.6875,13.3125 3.75,13.375 3.8125,13.4375 3.6875,13.3125 Q 3.5625,13.1875 3.375,13.125 L 3.1875,13.0625 3.46875,13.15625 3.75,13.25 3.375,13.125 3,13 2.875,12.625"
           id="path31102"
           inkscape:connector-curvature="0" />
        <path
           style="fill:#717171;fill-opacity:1"
           d="M 4,12.5 3.75,12.25 4.015625,11.984375 4.28125,11.71875 4.203125,11.671875 4.125,11.625 4.28125,11.71875 Q 4.4375,11.8125 4.625,11.875 L 4.8125,11.9375 4.53125,11.84375 4.25,11.75 4.625,11.875 5,12 5,12.5 5,13 4.625,12.875 Q 4.25,12.75 4,12.5 M 3.6875,12.1875 3.75,12.25 3.9375,12.4375 4.125,12.625 4,12.5 Q 3.875,12.375 3.75,12.25 l -0.125,-0.125 0.0625,0.0625"
           id="path31104"
           inkscape:connector-curvature="0" />
        <path
           style="fill:#999999;fill-opacity:1"
           d="M 5,12.5 5,12 5.5,12 6,12 5.984375,12.484375 5.96875,12.96875 6.078125,12.953125 6.1875,12.9375 5.96875,12.96875 Q 5.75,13 5.5,13 L 5.25,13 5.625,13 6,13 5.5,13 5,13 5,12.5 M 6.125,12 6,12 5.625,12 5.25,12 5.5,12 q 0.25,0 0.5,0 l 0.25,0 -0.125,0"
           id="path31106"
           inkscape:connector-curvature="0" />
        <path
           style="fill:#363636;fill-opacity:1"
           d="M 5.984375,12.484375 6,12 6.5,12 7,12 6.875,12.375 q -0.125,0.375 -0.5,0.5 L 6,13 6.28125,12.90625 6.5625,12.8125 6.375,12.875 Q 6.1875,12.9375 5.96875,12.96875 L 5.75,13 5.859375,12.984375 5.96875,12.96875 5.984375,12.484375 M 6.375,12 6,12 5.875,12 5.75,12 6,12 q 0.25,0 0.5,0 l 0.25,0 -0.375,0"
           id="path31108"
           inkscape:connector-curvature="0" />
        <path
           style="fill:#060606;fill-opacity:0.99215686"
           d="M 6.875,12.375 7,12 7.5,12 8,12 8,12.5 8,13 7.625,13.125 7.25,13.25 7.53125,13.15625 7.8125,13.0625 7.625,13.125 Q 7.4375,13.1875 7.3125,13.3125 L 7.1875,13.4375 7.25,13.375 7.3125,13.3125 7,13 6.6875,12.6875 6.625,12.75 6.5625,12.8125 6.6875,12.6875 Q 6.8125,12.5625 6.875,12.375 L 6.9375,12.1875 6.84375,12.46875 6.75,12.75 6.875,12.375"
           id="path31110"
           inkscape:connector-curvature="0" />
        <path
           style="fill:#000000;fill-opacity:0.9372549"
           d="M 8,12.5 8,12 8.5,12 9,12 9,12.5 9,13 8.5,13 8,13 8,12.5"
           id="path31112"
           inkscape:connector-curvature="0" />
        <path
           style="fill:#000000;fill-opacity:0.99607843"
           d="M 9,12.5 9,12 9.375,12.125 q 0.375,0.125 0.5,0.5 L 10,13 9.5,13 9,13 9,12.5"
           id="path31114"
           inkscape:connector-curvature="0" />
        <path
           style="fill:#d4d4d4;fill-opacity:1"
           d="M 9.875,12.625 9.75,12.25 9.84375,12.53125 9.9375,12.8125 9.875,12.625 Q 9.8125,12.4375 9.6875,12.3125 L 9.5625,12.1875 9.625,12.25 9.6875,12.3125 9.96875,12 10.25,11.6875 10.1875,11.65625 10.125,11.625 10.25,11.6875 Q 10.375,11.75 10.5,11.75 l 0.125,0 -0.1875,0 -0.1875,0 0.25,0 0.25,0 -0.1875,0 -0.1875,0 0.125,0 q 0.125,0 0.21875,-0.09375 l 0.09375,-0.09375 -0.04687,0.04687 -0.04687,0.04687 0.296875,0.296875 L 11.3125,12.25 11.34375,12.1875 11.375,12.125 11.3125,12.25 Q 11.25,12.375 11.25,12.5 l 0,0.125 0,-0.1875 0,-0.1875 0,0.25 0,0.25 0,-0.1875 0,-0.1875 0,0.125 q 0,0.125 0.09375,0.21875 l 0.09375,0.09375 -0.04687,-0.04687 -0.04687,-0.04687 -0.3125,0.28125 -0.3125,0.28125 0.07813,0.04687 L 10.875,13.375 10.71875,13.28125 Q 10.5625,13.1875 10.375,13.125 L 10.1875,13.0625 10.46875,13.15625 10.75,13.25 10.375,13.125 10,13 9.875,12.625"
           id="path31116"
           inkscape:connector-curvature="0" />
        <path
           style="fill:#a1a1a1;fill-opacity:1"
           d="m 11.25,12.5 q 0,-0.25 0.25,-0.5 l 0.25,-0.25 0.28125,0.28125 0.28125,0.28125 0.0625,-0.0625 0.0625,-0.0625 -0.125,0.125 q -0.125,0.125 -0.1875,0.3125 L 12.0625,12.8125 12.15625,12.53125 12.25,12.25 12.125,12.625 12,13 11.625,12.875 Q 11.25,12.75 11.25,12.5 M 11.8125,11.6875 11.75,11.75 11.5625,11.9375 11.375,12.125 11.5,12 q 0.125,-0.125 0.25,-0.25 l 0.125,-0.125 -0.0625,0.0625"
           id="path31118"
           inkscape:connector-curvature="0" />
        <path
           style="fill:#000000;fill-opacity:0.98431373"
           d="m 12.125,12.625 q 0.125,-0.375 0.5,-0.5 L 13,12 l 0,0.5 0,0.5 -0.5,0 -0.5,0 0.125,-0.375"
           id="path31120"
           inkscape:connector-curvature="0" />
        <path
           style="fill:#000000;fill-opacity:0.94901961"
           d="m 13,12.5 0,-0.5 0.5,0 0.5,0 0,0.5 0,0.5 -0.5,0 -0.5,0 0,-0.5"
           id="path31122"
           inkscape:connector-curvature="0" />
        <path
           style="fill:#0d0d0d;fill-opacity:0.99607843"
           d="m 14,12.5 0,-0.5 0.5,0 0.5,0 0.125,0.375 0.125,0.375 -0.09375,-0.28125 -0.09375,-0.28125 0.0625,0.1875 q 0.0625,0.1875 0.1875,0.3125 l 0.125,0.125 L 15.375,12.75 15.3125,12.6875 15,13 l -0.3125,0.3125 0.0625,0.0625 0.0625,0.0625 -0.125,-0.125 Q 14.5625,13.1875 14.375,13.125 L 14.1875,13.0625 14.46875,13.15625 14.75,13.25 14.375,13.125 14,13 14,12.5 M 15.125,12 15,12 l -0.375,0 -0.375,0 0.25,0 q 0.25,0 0.5,0 l 0.25,0 -0.125,0"
           id="path31124"
           inkscape:connector-curvature="0" />
        <path
           style="fill:#444444;fill-opacity:1"
           d="M 15.125,12.375 15,12 l 0.5,0 q 0.5,0 0.5,0.5 l 0,0.5 0,-0.375 0,-0.375 0,0.25 q 0,0.25 0.125,0.375 L 16.25,13 16.1875,12.9375 16.125,12.875 15.6875,12.8125 Q 15.25,12.75 15.125,12.375 M 15.375,12 15,12 14.875,12 14.75,12 15,12 q 0.25,0 0.5,0 l 0.25,0 -0.375,0"
           id="path31126"
           inkscape:connector-curvature="0" />
        <path
           style="fill:#ababab;fill-opacity:1"
           d="m 16,12.5 0,-0.5 0,0.375 0,0.375 0,-0.25 q 0,-0.25 -0.125,-0.375 L 15.75,12 15.8125,12.0625 15.875,12.125 16.4375,12.0625 17,12 l -0.01563,0.484375 -0.01563,0.484375 0.109375,-0.01563 0.109375,-0.01563 -0.21875,0.03125 Q 16.75,13 16.5,13 l -0.25,0 0.375,0 0.375,0 -0.5,0 Q 16,13 16,12.5 M 17.125,12 17,12 l -0.375,0 -0.375,0 0.25,0 q 0.25,0 0.5,0 l 0.25,0 -0.125,0"
           id="path31128"
           inkscape:connector-curvature="0" />
        <path
           style="fill:#525252;fill-opacity:1"
           d="M 16.984375,12.484375 17,12 l 0.5,0 0.5,0 -0.125,0.375 q -0.125,0.375 -0.5,0.5 L 17,13 17.28125,12.90625 17.5625,12.8125 17.375,12.875 q -0.1875,0.0625 -0.40625,0.09375 L 16.75,13 16.859375,12.98437 16.96875,12.96874 16.98438,12.484365 M 17.375,12 17,12 16.875,12 16.75,12 17,12 q 0.25,0 0.5,0 l 0.25,0 -0.375,0"
           id="path31130"
           inkscape:connector-curvature="0" />
        <path
           style="fill:#000000;fill-opacity:0.89411765"
           d="M 17.875,12.375 18,12 18.375,11.875 18.75,11.75 18.46875,11.84375 18.1875,11.9375 18.375,11.875 q 0.1875,-0.0625 0.3125,-0.1875 l 0.125,-0.125 L 18.75,11.625 18.6875,11.6875 19,12 l 0.3125,0.3125 0.0625,-0.0625 0.0625,-0.0625 -0.125,0.125 q -0.125,0.125 -0.1875,0.3125 L 19.0625,12.8125 19.15625,12.53125 19.25,12.25 19.125,12.625 19,13 18.625,13.125 18.25,13.25 18.53125,13.15625 18.8125,13.0625 18.625,13.125 q -0.1875,0.0625 -0.3125,0.1875 l -0.125,0.125 L 18.25,13.375 18.3125,13.3125 18,13 17.6875,12.6875 17.625,12.75 l -0.0625,0.0625 0.125,-0.125 q 0.125,-0.125 0.1875,-0.3125 L 17.9375,12.1875 17.84375,12.46875 17.75,12.75 17.875,12.375"
           id="path31132"
           inkscape:connector-curvature="0" />
        <path
           style="fill:#000000;fill-opacity:0.02352941"
           d="M 3,13.5 3,13 3.375,13.125 q 0.375,0.125 0.5,0.5 L 4,14 3.5,14 Q 3,14 3,13.5"
           id="path31134"
           inkscape:connector-curvature="0" />
        <path
           style="fill:#040404;fill-opacity:0.70588235"
           d="M 3.875,13.625 3.75,13.25 3.84375,13.53125 3.9375,13.8125 3.875,13.625 Q 3.8125,13.4375 3.6875,13.3125 L 3.5625,13.1875 3.625,13.25 3.6875,13.3125 3.984375,13.015625 4.28125,12.71875 4.203125,12.671875 4.125,12.625 4.28125,12.71875 Q 4.4375,12.8125 4.625,12.875 L 4.8125,12.9375 4.53125,12.84375 4.25,12.75 4.625,12.875 5,13 5,13.5 5,14 4.5,14 4,14 3.875,13.625"
           id="path31136"
           inkscape:connector-curvature="0" />
        <path
           style="fill:#000000;fill-opacity:0.84313725"
           d="M 5,13.5 5,13 5.5,13 6,13 6,13.5 6,14 5.5,14 5,14 5,13.5"
           id="path31138"
           inkscape:connector-curvature="0" />
        <path
           style="fill:#000000;fill-opacity:0.38039216"
           d="M 6,13.5 6,13 6.375,12.875 6.75,12.75 6.46875,12.84375 6.1875,12.9375 6.375,12.875 Q 6.5625,12.8125 6.6875,12.6875 L 6.8125,12.5625 6.75,12.625 6.6875,12.6875 7,13 7.3125,13.3125 7.375,13.25 7.4375,13.1875 7.3125,13.3125 Q 7.1875,13.4375 7.125,13.625 L 7.0625,13.8125 7.15625,13.53125 7.25,13.25 7.125,13.625 7,14 6.5,14 6,14 6,13.5"
           id="path31140"
           inkscape:connector-curvature="0" />
        <path
           style="fill:#000000;fill-opacity:0.04705882"
           d="m 7.125,13.625 q 0.125,-0.375 0.5,-0.5 L 8,13 8,13.5 8,14 7.5,14 7,14 7.125,13.625"
           id="path31142"
           inkscape:connector-curvature="0" />
        <path
           style="fill:#000000;fill-opacity:0.03921569"
           d="M 8,13.5 8,13 8.5,13 9,13 9,13.5 9,14 8.5,14 8,14 8,13.5"
           id="path31144"
           inkscape:connector-curvature="0" />
        <path
           style="fill:#050505;fill-opacity:0.99607843"
           d="M 9,13.5 9,13 9.5,13 10,13 10,13.5 10,14 9.5,14 9,14 9,13.5"
           id="path31146"
           inkscape:connector-curvature="0" />
        <path
           style="fill:#efefef;fill-opacity:1"
           d="m 10,13.5 0,-0.5 0.375,0.125 Q 10.75,13.25 11,13.5 L 11.25,13.75 11.0625,13.5625 10.875,13.375 11,13.5 q 0.125,0.125 0.28125,0.21875 l 0.15625,0.09375 -0.07813,-0.04687 -0.07813,-0.04687 -0.296875,0.296875 -0.296875,0.296875 0.0625,0.0625 0.0625,0.0625 -0.125,-0.125 Q 10.5625,14.1875 10.375,14.125 L 10.1875,14.0625 10.46875,14.15625 10.75,14.25 10.375,14.125 10,14 10,13.5"
           id="path31148"
           inkscape:connector-curvature="0" />
        <path
           style="fill:#c2c2c2;fill-opacity:1"
           d="M 11,13.5 10.75,13.25 10.9375,13.4375 11.125,13.625 11,13.5 Q 10.875,13.375 10.71875,13.28125 L 10.5625,13.1875 10.64063,13.23437 10.71876,13.28124 11.03125,13 11.34375,12.71875 11.296875,12.671875 11.25,12.625 11.34375,12.71875 Q 11.4375,12.8125 11.625,12.875 L 11.8125,12.9375 11.53125,12.84375 11.25,12.75 11.625,12.875 12,13 12,13.5 12,14 11.625,13.875 Q 11.25,13.75 11,13.5"
           id="path31150"
           inkscape:connector-curvature="0" />
        <path
           style="fill:#000000;fill-opacity:0.94509804"
           d="m 12,13.5 0,-0.5 0.5,0 0.5,0 0,0.5 0,0.5 -0.5,0 -0.5,0 0,-0.5"
           id="path31152"
           inkscape:connector-curvature="0" />
        <path
           style="fill:#000000;fill-opacity:0"
           d="m 13,13.5 0,-0.5 0.5,0 0.5,0 0,0.5 0,0.5 -0.5,0 -0.5,0 0,-0.5"
           id="path31154"
           inkscape:connector-curvature="0" />
        <path
           style="fill:#000000;fill-opacity:0.09803922"
           d="m 14,13.5 0,-0.5 0.375,0.125 q 0.375,0.125 0.5,0.5 L 15,14 14.5,14 14,14 14,13.5"
           id="path31156"
           inkscape:connector-curvature="0" />
        <path
           style="fill:#000000;fill-opacity:0.4627451"
           d="M 14.875,13.625 14.75,13.25 14.84375,13.53125 14.9375,13.8125 14.875,13.625 q -0.0625,-0.1875 -0.1875,-0.3125 l -0.125,-0.125 0.0625,0.0625 0.0625,0.0625 L 15,13 15.3125,12.6875 15.25,12.625 l -0.0625,-0.0625 0.125,0.125 q 0.125,0.125 0.3125,0.1875 L 15.8125,12.9375 15.53125,12.84375 15.25,12.75 15.6875,12.8125 16.125,12.875 16.0625,13.4375 16,14 15.5,14 15,14 14.875,13.625"
           id="path31158"
           inkscape:connector-curvature="0" />
        <path
           style="fill:#000000;fill-opacity:0.89411765"
           d="M 16.0625,13.4375 16.125,12.875 16.0625,12.8125 16,12.75 16.125,12.875 Q 16.25,13 16.5,13 l 0.25,0 -0.375,0 -0.375,0 0.5,0 0.5,0 0,0.5 0,0.5 -0.5,0 -0.5,0 0.0625,-0.5625"
           id="path31160"
           inkscape:connector-curvature="0" />
        <path
           style="fill:#050505;fill-opacity:0.56078425"
           d="M 17,13.5 17,13 17.375,12.875 17.75,12.75 17.46875,12.84375 17.1875,12.9375 17.375,12.875 q 0.1875,-0.0625 0.3125,-0.1875 l 0.125,-0.125 L 17.75,12.625 17.6875,12.6875 18,13 l 0.3125,0.3125 0.0625,-0.0625 0.0625,-0.0625 -0.125,0.125 q -0.125,0.125 -0.1875,0.3125 L 18.0625,13.8125 18.15625,13.53125 18.25,13.25 18.125,13.625 18,14 17.5,14 17,14 17,13.5"
           id="path31162"
           inkscape:connector-curvature="0" />
        <path
           style="fill:#000000;fill-opacity:0.02352941"
           d="m 18.125,13.625 q 0.125,-0.375 0.5,-0.5 L 19,13 19,13.5 Q 19,14 18.5,14 l -0.5,0 0.125,-0.375"
           id="path31164"
           inkscape:connector-curvature="0" />
        <path
           style="fill:#000000;fill-opacity:0.02352941"
           d="M 4,14.5 4,14 4.5,14 5,14 5,14.5 Q 5,15 4.5,15 4,15 4,14.5"
           id="path31166"
           inkscape:connector-curvature="0" />
        <path
           style="fill:#000000;fill-opacity:0.29019608"
           d="M 8,14.5 8,14 8.5,14 9,14 8.875,14.375 q -0.125,0.375 -0.5,0.5 L 8,15 8,14.5"
           id="path31168"
           inkscape:connector-curvature="0" />
        <path
           style="fill:#282828;fill-opacity:1"
           d="M 8.875,14.375 9,14 l 0.5,0 0.5,0 0,0.5 0,0.5 0,-0.375 0,-0.375 0,0.25 q 0,0.25 -0.03125,0.46875 L 9.9375,15.1875 9.953125,15.078125 9.96875,14.96875 9.609375,15.109375 9.25,15.25 9.53125,15.15625 9.8125,15.0625 9.625,15.125 Q 9.4375,15.1875 9.3125,15.3125 L 9.1875,15.4375 9.25,15.375 9.3125,15.3125 9,15 8.6875,14.6875 8.625,14.75 8.5625,14.8125 8.6875,14.6875 Q 8.8125,14.5625 8.875,14.375 L 8.9375,14.1875 8.84375,14.46875 8.75,14.75 8.875,14.375"
           id="path31170"
           inkscape:connector-curvature="0" />
        <path
           style="fill:#ffffff;fill-opacity:1"
           d="m 10,14.5 0,-0.5 0.375,0.125 q 0.375,0.125 0.5,0.5 Q 11,15 11.5,15 l 0.5,0 0,0.5 0,0.5 0,-0.375 0,-0.375 0,0.25 q 0,0.25 0.125,0.375 L 12.25,16 12.1875,15.9375 12.125,15.875 12.109375,16.484375 12.09375,17.09375 11.546875,17.046875 11,17 11,16.5 Q 11,16 10.625,16.125 L 10.25,16.25 10.53125,16.15625 10.8125,16.0625 10.625,16.125 q -0.1875,0.0625 -0.28125,0.15625 L 10.25,16.375 10.296875,16.328125 10.34375,16.28125 10.015625,15.984375 9.6875,15.6875 9.625,15.75 9.5625,15.8125 9.6875,15.6875 Q 9.8125,15.5625 9.875,15.375 L 9.9375,15.1875 9.84375,15.46875 9.75,15.75 9.875,15.375 Q 10,15 10,14.5 M 12,15.375 12,15 12,14.875 12,14.75 12,15 q 0,0.25 0,0.5 l 0,0.25 0,-0.375"
           id="path31172"
           inkscape:connector-curvature="0" />
        <path
           style="fill:#eaeaea;fill-opacity:1"
           d="M 10.875,14.625 10.75,14.25 10.84375,14.53125 10.9375,14.8125 10.875,14.625 q -0.0625,-0.1875 -0.1875,-0.3125 l -0.125,-0.125 0.0625,0.0625 0.0625,0.0625 0.296875,-0.296875 L 11.28125,13.71875 11.20312,13.67188 11.125,13.625 11.28125,13.71875 Q 11.4375,13.8125 11.625,13.875 L 11.8125,13.9375 11.53125,13.84375 11.25,13.75 11.625,13.875 12,14 l 0,0.5 0,0.5 -0.5,0 Q 11,15 10.875,14.625 M 12,15.125 12,15 l 0,-0.375 0,-0.375 0,0.25 q 0,0.25 0,0.5 l 0,0.25 0,-0.125"
           id="path31174"
           inkscape:connector-curvature="0" />
        <path
           style="fill:#090909;fill-opacity:0.99607843"
           d="m 12,14.5 0,-0.5 0.5,0 0.5,0 0.125,0.375 0.125,0.375 -0.09375,-0.28125 -0.09375,-0.28125 0.0625,0.1875 q 0.0625,0.1875 0.1875,0.3125 l 0.125,0.125 L 13.375,14.75 13.3125,14.6875 13,15 l -0.3125,0.3125 0.0625,0.0625 0.0625,0.0625 -0.125,-0.125 Q 12.5625,15.1875 12.375,15.125 L 12.1875,15.0625 12.46875,15.15625 12.75,15.25 12.375,15.125 12,15 12,14.5 m 0,0.125 0,0.375 0,0.125 0,0.125 0,-0.25 q 0,-0.25 0,-0.5 l 0,-0.25 0,0.375"
           id="path31176"
           inkscape:connector-curvature="0" />
        <path
           style="fill:#000000;fill-opacity:0.07058824"
           d="M 13.125,14.375 13,14 l 0.5,0 0.5,0 0,0.5 0,0.5 -0.375,-0.125 q -0.375,-0.125 -0.5,-0.5"
           id="path31178"
           inkscape:connector-curvature="0" />
        <path
           style="fill:#000000;fill-opacity:0.02352941"
           d="m 17,14.5 0,-0.5 0.5,0 0.5,0 0,0.5 Q 18,15 17.5,15 17,15 17,14.5"
           id="path31180"
           inkscape:connector-curvature="0" />
        <path
           style="fill:#000000;fill-opacity:0.69019608"
           d="M 8,15.5 8,15 8.375,14.875 8.75,14.75 8.46875,14.84375 8.1875,14.9375 8.375,14.875 Q 8.5625,14.8125 8.6875,14.6875 L 8.8125,14.5625 8.75,14.625 8.6875,14.6875 9,15 9.3125,15.3125 9.375,15.25 9.4375,15.1875 9.3125,15.3125 Q 9.1875,15.4375 9.125,15.625 L 9.0625,15.8125 9.15625,15.53125 9.25,15.25 9.125,15.625 9,16 8.5,16 8,16 8,15.5"
           id="path31182"
           inkscape:connector-curvature="0" />
        <path
           style="fill:#6c6c6c;fill-opacity:1"
           d="M 9.125,15.625 Q 9.25,15.25 9.609375,15.109375 L 9.96875,14.96875 9.984375,14.859375 10,14.75 9.96875,14.96875 Q 9.9375,15.1875 9.875,15.375 L 9.8125,15.5625 9.90625,15.28125 10,15 9.875,15.375 Q 9.75,15.75 9.390625,15.890625 L 9.03125,16.03125 9.015625,16.140625 9,16.25 9.03125,16.03125 Q 9.0625,15.8125 9.125,15.625 L 9.1875,15.4375 9.09375,15.71875 9,16 9.125,15.625"
           id="path31184"
           inkscape:connector-curvature="0" />
        <path
           style="fill:#404040;fill-opacity:1"
           d="m 12,15.5 0,-0.5 0.375,0.125 q 0.375,0.125 0.4375,0.5625 L 12.875,16.125 12.9375,16.1875 13,16.25 12.875,16.125 Q 12.75,16 12.5,16 l -0.25,0 0.375,0 0.375,0 -0.5,0 Q 12,16 12,15.5 m 0,-0.625 0,0.125 0,0.375 0,0.375 0,-0.25 q 0,-0.25 0,-0.5 l 0,-0.25 0,0.125"
           id="path31186"
           inkscape:connector-curvature="0" />
        <path
           style="fill:#000000;fill-opacity:0.44705882"
           d="M 12.8125,15.6875 12.75,15.25 12.84375,15.53125 12.9375,15.8125 12.875,15.625 q -0.0625,-0.1875 -0.1875,-0.3125 l -0.125,-0.125 0.0625,0.0625 0.0625,0.0625 L 13,15 13.3125,14.6875 13.25,14.625 l -0.0625,-0.0625 0.125,0.125 q 0.125,0.125 0.3125,0.1875 L 13.8125,14.9375 13.53125,14.84375 13.25,14.75 13.625,14.875 14,15 l 0,0.5 0,0.5 -0.5625,0.0625 -0.5625,0.0625 -0.0625,-0.4375"
           id="path31188"
           inkscape:connector-curvature="0" />
        <path
           style="fill:#000000;fill-opacity:0.07058824"
           d="M 7,16.5 Q 7,16 7.5,16 L 8,16 8,16.5 8,17 7.5,17 7,17 7,16.5"
           id="path31190"
           inkscape:connector-curvature="0" />
        <path
           style="fill:#090909;fill-opacity:0.98431373"
           d="M 8,16.5 8,16 8.5,16 9,16 9,16.5 9,17 9,16.625 9,16.25 9,16.5 q 0,0.25 0.09375,0.40625 L 9.1875,17.0625 9.140625,16.984375 9.09375,16.90625 8.546875,16.953125 8,17 8,16.5"
           id="path31192"
           inkscape:connector-curvature="0" />
        <path
           style="fill:#dadada;fill-opacity:1"
           d="M 9,16.5 9,16 9,16.375 9,16.75 9,16.5 Q 9,16.25 9.03125,16.03125 L 9.0625,15.8125 9.046875,15.921875 9.03125,16.03125 9.390625,15.890625 9.75,15.75 9.46875,15.84375 9.1875,15.9375 9.375,15.875 q 0.1875,-0.0625 0.3125,-0.1875 l 0.125,-0.125 -0.0625,0.0625 -0.0625,0.0625 0.328125,0.296875 0.328125,0.296875 0.04687,-0.04687 0.04687,-0.04687 -0.09375,0.09375 Q 10.25,16.375 10.25,16.5 l 0,0.125 0,-0.1875 0,-0.1875 0,0.25 0,0.25 0,-0.1875 0,-0.1875 0,0.125 q 0,0.125 0.09375,0.21875 L 10.4375,16.8125 10.39063,16.76563 10.34376,16.71876 10.015635,17.015635 9.6875,17.3125 9.75,17.375 9.8125,17.4375 9.6875,17.3125 Q 9.5625,17.1875 9.375,17.125 L 9.1875,17.0625 9.46875,17.15625 9.75,17.25 9.375,17.125 Q 9,17 9,16.5"
           id="path31194"
           inkscape:connector-curvature="0" />
        <path
           style="fill:#fefefe;fill-opacity:1"
           d="m 10.25,16.5 q 0,-0.25 0.375,-0.375 Q 11,16 11,16.5 L 11,17 10.625,16.875 Q 10.25,16.75 10.25,16.5"
           id="path31196"
           inkscape:connector-curvature="0" />
        <path
           style="fill:#b2b2b2;fill-opacity:1"
           d="M 12.109375,16.484375 12.125,15.875 12.0625,15.8125 12,15.75 12.125,15.875 Q 12.25,16 12.5,16 l 0.25,0 -0.375,0 -0.375,0 0.5,0 Q 13,16 13,16.5 13,17 12.5,17 l -0.5,0 0.375,0 0.375,0 -0.25,0 q -0.25,0 -0.40625,0.09375 l -0.15625,0.09375 0.07813,-0.04687 0.07813,-0.04687 0.01563,-0.609375"
           id="path31198"
           inkscape:connector-curvature="0" />
        <path
           style="fill:#020202;fill-opacity:0.91372549"
           d="m 13,16.5 0,-0.5 0,0.375 0,0.375 0,-0.25 q 0,-0.25 -0.125,-0.375 L 12.75,16 12.8125,16.0625 12.875,16.125 13.4375,16.0625 14,16 14,16.5 14,17 13.4375,16.9375 12.875,16.875 12.8125,16.9375 12.75,17 12.875,16.875 Q 13,16.75 13,16.5 l 0,-0.25 0,0.375 0,0.375 0,-0.5"
           id="path31200"
           inkscape:connector-curvature="0" />
        <path
           style="fill:#000000;fill-opacity:0.01568627"
           d="m 14,16.5 0,-0.5 0.5,0 q 0.5,0 0.5,0.5 l 0,0.5 -0.5,0 -0.5,0 0,-0.5"
           id="path31202"
           inkscape:connector-curvature="0" />
        <path
           style="fill:#000000;fill-opacity:0.12156863"
           d="M 7,17.5 7,17 7.5,17 8,17 8,17.5 8,18 7.5,18 Q 7,18 7,17.5"
           id="path31204"
           inkscape:connector-curvature="0" />
        <path
           style="fill:#151515;fill-opacity:0.75294118"
           d="M 8,17.5 8,17 8.546875,16.953125 9.09375,16.90625 9.171875,17.328125 9.25,17.75 9.15625,17.46875 9.0625,17.1875 9.125,17.375 q 0.0625,0.1875 0.1875,0.3125 l 0.125,0.125 L 9.375,17.75 9.3125,17.6875 9,18 8.6875,18.3125 8.75,18.375 8.8125,18.4375 8.6875,18.3125 Q 8.5625,18.1875 8.375,18.125 L 8.1875,18.0625 8.46875,18.15625 8.75,18.25 8.375,18.125 8,18 8,17.5"
           id="path31206"
           inkscape:connector-curvature="0" />
        <path
           style="fill:#6a6a6a;fill-opacity:1"
           d="M 9.171875,17.328125 9.09375,16.90625 9.046875,16.828125 9,16.75 9.09375,16.90625 Q 9.1875,17.0625 9.375,17.125 L 9.5625,17.1875 9.28125,17.09375 9,17 9.375,17.125 q 0.375,0.125 0.5,0.5 L 10,18 9.625,17.875 Q 9.25,17.75 9.171875,17.328125"
           id="path31208"
           inkscape:connector-curvature="0" />
        <path
           style="fill:#ffffff;fill-opacity:1"
           d="M 9.875,17.625 9.75,17.25 9.84375,17.53125 9.9375,17.8125 9.875,17.625 Q 9.8125,17.4375 9.6875,17.3125 L 9.5625,17.1875 9.625,17.25 9.6875,17.3125 10.015625,17.015625 10.34375,16.71875 10.296875,16.671875 10.25,16.625 10.34375,16.71875 Q 10.4375,16.8125 10.625,16.875 L 10.8125,16.9375 10.53125,16.84375 10.25,16.75 10.625,16.875 11,17 11,17.5 11,18 10.5,18 10,18 9.875,17.625"
           id="path31210"
           inkscape:connector-curvature="0" />
        <path
           style="fill:#ececec;fill-opacity:1"
           d="m 11,17.5 0,-0.5 0.546875,0.04687 0.546875,0.04687 0.07813,-0.04687 L 12.25,17 12.09375,17.09375 Q 11.9375,17.1875 11.875,17.375 L 11.8125,17.5625 11.90625,17.28125 12,17 11.875,17.375 q -0.125,0.375 -0.5,0.5 L 11,18 11,17.5"
           id="path31212"
           inkscape:connector-curvature="0" />
        <path
           style="fill:#4e4e4e;fill-opacity:1"
           d="M 11.875,17.375 Q 12,17 12.5,17 l 0.5,0 -0.375,0 -0.375,0 0.25,0 q 0.25,0 0.375,-0.125 L 13,16.75 12.9375,16.8125 12.875,16.875 12.8125,17.3125 Q 12.75,17.75 12.5,18 L 12.25,18.25 11.96875,17.96875 11.6875,17.6875 11.625,17.75 l -0.0625,0.0625 0.125,-0.125 q 0.125,-0.125 0.1875,-0.3125 L 11.9375,17.1875 11.84375,17.46875 11.75,17.75 11.875,17.375 M 12.1875,18.3125 12.25,18.25 12.4375,18.0625 12.625,17.875 12.5,18 q -0.125,0.125 -0.25,0.25 l -0.125,0.125 0.0625,-0.0625"
           id="path31214"
           inkscape:connector-curvature="0" />
        <path
           style="fill:#070707;fill-opacity:0.56078425"
           d="M 12.8125,17.3125 12.875,16.875 13.4375,16.9375 14,17 14,17.5 14,18 13.625,18.125 13.25,18.25 13.53125,18.15625 13.8125,18.0625 13.625,18.125 q -0.1875,0.0625 -0.3125,0.1875 l -0.125,0.125 L 13.25,18.375 13.3125,18.3125 13.015625,18.015625 12.71875,17.71875 12.671875,17.796875 12.625,17.875 12.71875,17.71875 Q 12.8125,17.5625 12.875,17.375 L 12.9375,17.1875 12.84375,17.46875 12.75,17.75 12.8125,17.3125"
           id="path31216"
           inkscape:connector-curvature="0" />
        <path
           style="fill:#000000;fill-opacity:0.03921569"
           d="m 14,17.5 0,-0.5 0.5,0 0.5,0 0,0.5 Q 15,18 14.5,18 l -0.5,0 0,-0.5"
           id="path31218"
           inkscape:connector-curvature="0" />
        <path
           style="fill:#000000;fill-opacity:0.12156863"
           d="M 8,18.5 8,18 8.375,18.125 q 0.375,0.125 0.5,0.5 L 9,19 8.5,19 Q 8,19 8,18.5"
           id="path31220"
           inkscape:connector-curvature="0" />
        <path
           style="fill:#000000;fill-opacity:0.95294118"
           d="M 8.875,18.625 8.75,18.25 8.84375,18.53125 8.9375,18.8125 8.875,18.625 Q 8.8125,18.4375 8.6875,18.3125 L 8.5625,18.1875 8.625,18.25 8.6875,18.3125 9,18 9.3125,17.6875 9.25,17.625 9.1875,17.5625 l 0.125,0.125 q 0.125,0.125 0.3125,0.1875 L 9.8125,17.9375 9.53125,17.84375 9.25,17.75 9.625,17.875 10,18 10.125,18.375 10.25,18.75 10.15625,18.46875 10.0625,18.1875 10.125,18.375 q 0.0625,0.1875 0.1875,0.3125 l 0.125,0.125 L 10.375,18.75 10.3125,18.6875 10,19 9.6875,19.3125 9.75,19.375 9.8125,19.4375 9.6875,19.3125 Q 9.5625,19.1875 9.375,19.125 L 9.1875,19.0625 9.46875,19.15625 9.75,19.25 9.375,19.125 9,19 8.875,18.625"
           id="path31222"
           inkscape:connector-curvature="0" />
        <path
           style="fill:#a2a2a2;fill-opacity:1"
           d="M 10.125,18.375 10,18 l 0.5,0 0.5,0 0,0.5 0,0.5 -0.375,-0.125 q -0.375,-0.125 -0.5,-0.5"
           id="path31224"
           inkscape:connector-curvature="0" />
        <path
           style="fill:#7a7a7a;fill-opacity:1"
           d="M 11,18.5 11,18 11.375,17.875 11.75,17.75 11.46875,17.84375 11.1875,17.9375 11.375,17.875 q 0.1875,-0.0625 0.3125,-0.1875 l 0.125,-0.125 -0.0625,0.0625 -0.0625,0.0625 0.28125,0.28125 L 12.25,18.25 12,18.5 q -0.25,0.25 -0.625,0.375 L 11,19 11,18.5 M 12.0625,18.4375 12.25,18.25 12.3125,18.1875 12.375,18.125 12.25,18.25 Q 12.125,18.375 12,18.5 l -0.125,0.125 0.1875,-0.1875"
           id="path31226"
           inkscape:connector-curvature="0" />
        <path
           style="fill:#000000;fill-opacity:0.87058824"
           d="M 12,18.5 Q 12.25,18.25 12.5,18 L 12.75,17.75 12.5625,17.9375 12.375,18.125 12.5,18 q 0.125,-0.125 0.21875,-0.28125 l 0.09375,-0.15625 -0.04687,0.07813 -0.04687,0.07813 0.296875,0.296875 0.296875,0.296875 0.0625,-0.0625 0.0625,-0.0625 -0.125,0.125 q -0.125,0.125 -0.1875,0.3125 L 13.0625,18.8125 13.15625,18.53125 13.25,18.25 13.125,18.625 13,19 12.625,19.125 12.25,19.25 12.53125,19.15625 12.8125,19.0625 12.625,19.125 q -0.1875,0.0625 -0.3125,0.1875 l -0.125,0.125 0.0625,-0.0625 0.0625,-0.0625 -0.296875,-0.296875 -0.296875,-0.296875 -0.07813,0.04687 -0.07813,0.04687 0.15625,-0.09375 Q 11.875,18.625 12,18.5 L 12.125,18.375 11.9375,18.5625 11.75,18.75 12,18.5"
           id="path31228"
           inkscape:connector-curvature="0" />
        <path
           style="fill:#000000;fill-opacity:0.03921569"
           d="m 13.125,18.625 q 0.125,-0.375 0.5,-0.5 L 14,18 14,18.5 Q 14,19 13.5,19 l -0.5,0 0.125,-0.375"
           id="path31230"
           inkscape:connector-curvature="0" />
        <path
           style="fill:#000000;fill-opacity:0.86666667"
           d="M 9.875,19.625 9.75,19.25 9.84375,19.53125 9.9375,19.8125 9.875,19.625 Q 9.8125,19.4375 9.6875,19.3125 L 9.5625,19.1875 9.625,19.25 9.6875,19.3125 10,19 10.3125,18.6875 10.25,18.625 l -0.0625,-0.0625 0.125,0.125 q 0.125,0.125 0.3125,0.1875 L 10.8125,18.9375 10.53125,18.84375 10.25,18.75 10.625,18.875 11,19 l 0,0.5 0,0.5 -0.5,0 Q 10,20 9.875,19.625"
           id="path31232"
           inkscape:connector-curvature="0" />
        <path
           style="fill:#000000;fill-opacity:0.72941176"
           d="M 11,19.5 11,19 11.375,18.875 11.75,18.75 11.46875,18.84375 11.1875,18.9375 11.375,18.875 q 0.1875,-0.0625 0.34375,-0.15625 L 11.875,18.625 l -0.07813,0.04687 -0.07813,0.04687 0.296875,0.296875 0.296875,0.296875 0.0625,-0.0625 0.0625,-0.0625 -0.125,0.125 q -0.125,0.125 -0.1875,0.3125 L 12.0625,19.8125 12.15625,19.53125 12.25,19.25 12.125,19.625 Q 12,20 11.5,20 l -0.5,0 0,-0.5"
           id="path31234"
           inkscape:connector-curvature="0" />
      </g>
    </g>
  </g>
</svg>
