<?xml version="1.0" encoding="UTF-8" standalone="no"?>
<!-- Created with Inkscape (http://www.inkscape.org/) -->

<svg
   xmlns:dc="http://purl.org/dc/elements/1.1/"
   xmlns:cc="http://creativecommons.org/ns#"
   xmlns:rdf="http://www.w3.org/1999/02/22-rdf-syntax-ns#"
   xmlns:svg="http://www.w3.org/2000/svg"
   xmlns="http://www.w3.org/2000/svg"
   xmlns:sodipodi="http://sodipodi.sourceforge.net/DTD/sodipodi-0.dtd"
   xmlns:inkscape="http://www.inkscape.org/namespaces/inkscape"
   width="20"
   height="20"
   viewBox="0 0 20 20"
   id="svg3347"
   version="1.1"
   inkscape:version="0.91 r13725"
   sodipodi:docname="Civ5Icon.ReligionJudaism.svg">
  <defs
     id="defs3349" />
  <sodipodi:namedview
     id="base"
     pagecolor="#ffffff"
     bordercolor="#666666"
     borderopacity="1.0"
     inkscape:pageopacity="0.0"
     inkscape:pageshadow="2"
     inkscape:zoom="11.2"
     inkscape:cx="6.1091119"
     inkscape:cy="8.5424036"
     inkscape:document-units="px"
     inkscape:current-layer="g27203"
     showgrid="false"
     units="px"
     inkscape:window-width="1477"
     inkscape:window-height="962"
     inkscape:window-x="533"
     inkscape:window-y="95"
     inkscape:window-maximized="0" />
  <metadata
     id="metadata3352">
    <rdf:RDF>
      <cc:Work
         rdf:about="">
        <dc:format>image/svg+xml</dc:format>
        <dc:type
           rdf:resource="http://purl.org/dc/dcmitype/StillImage" />
        <dc:title></dc:title>
      </cc:Work>
    </rdf:RDF>
  </metadata>
  <g
     inkscape:label="Layer 1"
     inkscape:groupmode="layer"
     id="layer1"
     transform="translate(0,-1032.3622)">
    <g
       transform="translate(-0.22321519 1031.8712)"
       id="g27203">
      <g
         transform="translate(-0.53571488,-0.44650042)"
         id="g32330">
        <path
           style="fill:#000000;fill-opacity:0"
           d="M 0,0.5 0,0 0.5,0 1,0 1.5,0 2,0 2.5,0 3,0 3.5,0 4,0 4.5,0 5,0 5.5,0 6,0 6.5,0 7,0 7.5,0 8,0 8.5,0 9,0 9.5,0 10,0 l 0.5,0 0.5,0 0.5,0 0.5,0 0.5,0 0.5,0 0.5,0 0.5,0 0.5,0 0.5,0 0.5,0 0.5,0 0.5,0 0.5,0 0.5,0 0.5,0 0.5,0 0.5,0 0.5,0 0.5,0 0.5,0 0.5,0 0.5,0 0.5,0 0,0.5 0,0.5 0,0.5 0,0.5 0,0.5 0,0.5 0,0.5 0,0.5 0,0.5 0,0.5 0,0.5 0,0.5 0,0.5 0,0.5 0,0.5 0,0.5 0,0.5 0,0.5 0,0.5 0,0.5 0,0.5 0,0.5 0,0.5 0,0.5 0,0.5 0,0.5 0,0.5 0,0.5 0,0.5 0,0.5 0,0.5 0,0.5 0,0.5 0,0.5 0,0.5 0,0.5 0,0.5 0,0.5 0,0.5 0,0.5 0,0.5 0,0.5 0,0.5 0,0.5 -0.5,0 L 21,22 20.5,22 20,22 19.5,22 19,22 18.5,22 18,22 17.5,22 17,22 16.5,22 16,22 15.5,22 15,22 14.5,22 14,22 13.5,22 13,22 12.5,22 12,22 11.5,22 11,22 10.5,22 10,22 9.5,22 9,22 8.5,22 8,22 7.5,22 7,22 6.5,22 6,22 5.5,22 5,22 4.5,22 4,22 3.5,22 3,22 2.5,22 2,22 1.5,22 1,22 0.5,22 0,22 0,21.5 0,21 0,20.5 0,20 0,19.5 0,19 0,18.5 0,18 0,17.5 0,17 0,16.5 0,16 0,15.5 0,15 0,14.5 0,14 0,13.5 0,13 0,12.5 0,12 0,11.5 0,11 0,10.5 0,10 0,9.5 0,9 0,8.5 0,8 0,7.5 0,7 0,6.5 0,6 0,5.5 0,5 0,4.5 0,4 0,3.5 0,3 0,2.5 0,2 0,1.5 0,1 0,0.5 M 11.5,20 Q 12,20 12,19.5 l 0,-0.5 0.5,0 Q 13,19 13,18.5 l 0,-0.5 0.125,-0.375 q 0.125,-0.375 0.5,-0.5 Q 14,17 14,16.5 l 0,-0.5 0.5,0 0.5,0 0.5,0 0.5,0 0.5,0 0.5,0 0,0.5 q 0,0.5 0.5,0.5 l 0.5,0 0.5,0 Q 19,17 19,16.5 l 0,-0.5 0.5,0 Q 20,16 20,15.5 L 20,15 20,14.5 20,14 20,13.5 Q 20,13 19.5,13 L 19,13 19,12.5 Q 19,12 18.5,12 L 18,12 18,11.5 18,11 18,10.5 18,10 18.125,9.625 Q 18.25,9.25 18.625,9.125 19,9 19,8.5 L 19,8 19.5,8 Q 20,8 20,7.5 L 20,7 20,6.5 Q 20,6 19.5,6 L 19,6 19,5.5 Q 19,5 18.5,5 L 18,5 17.5,5 17,5 16.5,5 16,5 15.5,5 15,5 14.5,5 14,5 14,4.5 Q 14,4 13.5,4 L 13,4 13,3.5 Q 13,3 12.625,2.875 12.25,2.75 12.125,2.375 12,2 11.5,2 L 11,2 10.5,2 Q 10,2 9.875,2.375 9.75,2.75 9.375,2.875 9,3 9,3.5 L 9,4 8.5,4 Q 8,4 8,4.5 L 8,5 7.5,5 7,5 6.5,5 6,5 5.5,5 5,5 4.5,5 4,5 3.5,5 Q 3,5 3,5.5 L 3,6 2.5,6 Q 2,6 2,6.5 L 2,7 2,7.5 Q 2,8 2.5,8 L 3,8 3,8.5 Q 3,9 3.375,9.125 3.75,9.25 3.875,9.625 L 4,10 4,10.5 4,11 4,11.5 4,12 3.5,12 Q 3,12 3,12.5 L 3,13 2.5,13 Q 2,13 2,13.5 L 2,14 2,14.5 2,15 2,15.5 Q 2,16 2.5,16 L 3,16 3,16.5 Q 3,17 3.5,17 4,17 4,16.5 L 4,16 4.5,16 5,16 5.5,16 6,16 6.5,16 7,16 7.5,16 8,16 8,16.5 q 0,0.5 0.375,0.625 0.375,0.125 0.5,0.5 L 9,18 9,18.5 Q 9,19 9.5,19 l 0.5,0 0,0.5 q 0,0.5 0.5,0.5 l 0.5,0 0.5,0"
           id="path32332"
           inkscape:connector-curvature="0" />
        <path
           style="fill:#000000;fill-opacity:0.70196078"
           d="M 9.875,2.375 Q 10,2 10.5,2 L 11,2 11,2.5 11,3 10.625,3.125 10.25,3.25 10.53125,3.15625 10.8125,3.0625 10.625,3.125 Q 10.4375,3.1875 10.3125,3.3125 L 10.1875,3.4375 10.25,3.375 10.3125,3.3125 10,3 9.6875,2.6875 9.625,2.75 9.5625,2.8125 9.6875,2.6875 Q 9.8125,2.5625 9.875,2.375 L 9.9375,2.1875 9.84375,2.46875 9.75,2.75 9.875,2.375"
           id="path32334"
           inkscape:connector-curvature="0" />
        <path
           style="fill:#000000;fill-opacity:0.53333321"
           d="M 11,2.5 11,2 11.5,2 Q 12,2 12.125,2.375 L 12.25,2.75 12.15625,2.46875 12.0625,2.1875 12.125,2.375 q 0.0625,0.1875 0.1875,0.3125 l 0.125,0.125 L 12.375,2.75 12.3125,2.6875 12,3 11.6875,3.3125 11.75,3.375 11.8125,3.4375 11.6875,3.3125 Q 11.5625,3.1875 11.375,3.125 L 11.1875,3.0625 11.46875,3.15625 11.75,3.25 11.375,3.125 11,3 11,2.5"
           id="path32336"
           inkscape:connector-curvature="0" />
        <path
           style="fill:#000000;fill-opacity:0.76470588"
           d="M 9,3.5 Q 9,3 9.375,2.875 L 9.75,2.75 9.46875,2.84375 9.1875,2.9375 9.375,2.875 Q 9.5625,2.8125 9.6875,2.6875 L 9.8125,2.5625 9.75,2.625 9.6875,2.6875 10,3 10.3125,3.3125 10.375,3.25 10.4375,3.1875 10.3125,3.3125 Q 10.1875,3.4375 10.125,3.625 L 10.0625,3.8125 10.15625,3.53125 10.25,3.25 10.125,3.625 10,4 9.5,4 9,4 9,3.5"
           id="path32338"
           inkscape:connector-curvature="0" />
        <path
           style="fill:#747474;fill-opacity:1"
           d="m 10.125,3.625 q 0.125,-0.375 0.5,-0.5 L 11,3 11,3.5 11,4 10.515625,4.015625 10.03125,4.03125 10.015625,4.140625 10,4.25 10.03125,4.03125 Q 10.0625,3.8125 10.125,3.625 L 10.1875,3.4375 10.09375,3.71875 10,4 10.125,3.625"
           id="path32340"
           inkscape:connector-curvature="0" />
        <path
           style="fill:#515151;fill-opacity:1"
           d="M 11,3.5 11,3 11.375,3.125 Q 11.75,3.25 11.8125,3.6875 L 11.875,4.125 11.9375,4.1875 12,4.25 11.875,4.125 Q 11.75,4 11.5,4 L 11.25,4 11.625,4 12,4 11.5,4 11,4 11,3.5"
           id="path32342"
           inkscape:connector-curvature="0" />
        <path
           style="fill:#000000;fill-opacity:0.55686275"
           d="M 11.8125,3.6875 11.75,3.25 11.84375,3.53125 11.9375,3.8125 11.875,3.625 Q 11.8125,3.4375 11.6875,3.3125 L 11.5625,3.1875 11.625,3.25 11.6875,3.3125 12,3 12.3125,2.6875 12.25,2.625 12.1875,2.5625 l 0.125,0.125 q 0.125,0.125 0.3125,0.1875 L 12.8125,2.9375 12.53125,2.84375 12.25,2.75 12.625,2.875 Q 13,3 13,3.5 L 13,4 12.4375,4.0625 11.875,4.125 11.8125,3.6875"
           id="path32344"
           inkscape:connector-curvature="0" />
        <path
           style="fill:#000000;fill-opacity:0.21568627"
           d="M 8,4.5 Q 8,4 8.5,4 L 9,4 8.875,4.375 Q 8.75,4.75 8.375,4.875 L 8,5 8,4.5"
           id="path32346"
           inkscape:connector-curvature="0" />
        <path
           style="fill:#1d1d1d;fill-opacity:1"
           d="M 8.875,4.375 9,4 9.5,4 10,4 10,4.5 Q 10,5 9.625,5.125 L 9.25,5.25 9.53125,5.15625 9.8125,5.0625 9.625,5.125 Q 9.4375,5.1875 9.3125,5.3125 L 9.1875,5.4375 9.25,5.375 9.3125,5.3125 9,5 8.6875,4.6875 8.625,4.75 8.5625,4.8125 8.6875,4.6875 Q 8.8125,4.5625 8.875,4.375 L 8.9375,4.1875 8.84375,4.46875 8.75,4.75 8.875,4.375"
           id="path32348"
           inkscape:connector-curvature="0" />
        <path
           style="fill:#ffffff;fill-opacity:1"
           d="M 10,4.5 10,4 10,4.375 10,4.75 10,4.5 Q 10,4.25 10.03125,4.03125 L 10.0625,3.8125 10.046875,3.921875 10.03125,4.03125 10.515625,4.015625 11,4 11,4.5 11,5 10.453125,4.953125 9.90625,4.90625 9.859375,4.984375 9.8125,5.0625 9.90625,4.90625 Q 10,4.75 10,4.5 L 10,4.25 10,4.625 10,5 10,4.5"
           id="path32350"
           inkscape:connector-curvature="0" />
        <path
           style="fill:#e8e8e8;fill-opacity:1"
           d="M 11,4.5 11,4 11.5,4 Q 12,4 12,4.5 L 12,5 12,4.625 12,4.25 12,4.5 q 0,0.25 0.09375,0.40625 L 12.1875,5.0625 12.140625,4.984375 12.09375,4.90625 11.546875,4.953125 11,5 11,4.5"
           id="path32352"
           inkscape:connector-curvature="0" />
        <path
           style="fill:#060606;fill-opacity:1"
           d="M 12,4.5 12,4 12,4.375 12,4.75 12,4.5 Q 12,4.25 11.875,4.125 L 11.75,4 11.8125,4.0625 11.875,4.125 12.4375,4.0625 13,4 13.125,4.375 13.25,4.75 13.15625,4.46875 13.0625,4.1875 13.125,4.375 q 0.0625,0.1875 0.1875,0.3125 l 0.125,0.125 L 13.375,4.75 13.3125,4.6875 13,5 12.6875,5.3125 12.75,5.375 12.8125,5.4375 12.6875,5.3125 Q 12.5625,5.1875 12.375,5.125 L 12.1875,5.0625 12.46875,5.15625 12.75,5.25 12.375,5.125 Q 12,5 12,4.5"
           id="path32354"
           inkscape:connector-curvature="0" />
        <path
           style="fill:#000000;fill-opacity:0.04705882"
           d="M 13.125,4.375 13,4 13.5,4 Q 14,4 14,4.5 L 14,5 13.625,4.875 q -0.375,-0.125 -0.5,-0.5"
           id="path32356"
           inkscape:connector-curvature="0" />
        <path
           style="fill:#000000;fill-opacity:0.21568627"
           d="M 3,5.5 Q 3,5 3.5,5 L 4,5 3.875,5.375 Q 3.75,5.75 3.375,5.875 L 3,6 3,5.5"
           id="path32358"
           inkscape:connector-curvature="0" />
        <path
           style="fill:#000000;fill-opacity:0.44313725"
           d="M 3.875,5.375 4,5 4.5,5 5,5 5,5.5 5,6 4.625,6.125 4.25,6.25 4.53125,6.15625 4.8125,6.0625 4.625,6.125 Q 4.4375,6.1875 4.28125,6.28125 L 4.125,6.375 4.203125,6.328125 4.28125,6.28125 3.984375,5.984375 3.6875,5.6875 3.625,5.75 3.5625,5.8125 3.6875,5.6875 Q 3.8125,5.5625 3.875,5.375 L 3.9375,5.1875 3.84375,5.46875 3.75,5.75 3.875,5.375"
           id="path32360"
           inkscape:connector-curvature="0" />
        <path
           style="fill:#000000;fill-opacity:0.41960784"
           d="M 5,5.5 5,5 5.5,5 6,5 6,5.5 6,6 5.5,6 5,6 5,5.5"
           id="path32362"
           inkscape:connector-curvature="0" />
        <path
           style="fill:#000000;fill-opacity:0.45098039"
           d="M 6,5.5 6,5 6.5,5 7,5 7,5.5 7,6 6.5,6 6,6 6,5.5"
           id="path32364"
           inkscape:connector-curvature="0" />
        <path
           style="fill:#000000;fill-opacity:0.43137255"
           d="M 7,5.5 7,5 7.5,5 8,5 8,5.5 8,6 7.5,6 7,6 7,5.5"
           id="path32366"
           inkscape:connector-curvature="0" />
        <path
           style="fill:#000000;fill-opacity:0.97647059"
           d="M 8,5.5 8,5 8.375,4.875 8.75,4.75 8.46875,4.84375 8.1875,4.9375 8.375,4.875 Q 8.5625,4.8125 8.6875,4.6875 L 8.8125,4.5625 8.75,4.625 8.6875,4.6875 9,5 9.3125,5.3125 9.375,5.25 9.4375,5.1875 9.3125,5.3125 Q 9.1875,5.4375 9.125,5.625 L 9.0625,5.8125 9.15625,5.53125 9.25,5.25 9.125,5.625 9,6 8.5,6 8,6 8,5.5"
           id="path32368"
           inkscape:connector-curvature="0" />
        <path
           style="fill:#bcbcbc;fill-opacity:1"
           d="M 9.125,5.625 Q 9.25,5.25 9.625,5.125 L 10,5 9.71875,5.09375 9.4375,5.1875 9.625,5.125 Q 9.8125,5.0625 9.90625,4.90625 L 10,4.75 9.953125,4.828125 9.90625,4.90625 9.953125,5.453125 10,6 9.5,6 9,6 9.125,5.625"
           id="path32370"
           inkscape:connector-curvature="0" />
        <path
           style="fill:#afafaf;fill-opacity:1"
           d="M 9.953125,5.453125 9.90625,4.90625 10.453125,4.953125 11,5 11,5.5 11,6 10.5,6 10,6 9.953125,5.453125"
           id="path32372"
           inkscape:connector-curvature="0" />
        <path
           style="fill:#cecece;fill-opacity:1"
           d="M 11,5.5 11,5 11.546875,4.953125 12.09375,4.90625 11.921875,5.328125 Q 11.75,5.75 11.375,5.875 L 11,6 11,5.5"
           id="path32374"
           inkscape:connector-curvature="0" />
        <path
           style="fill:#8f8f8f;fill-opacity:1"
           d="M 11.921875,5.328125 12.09375,4.90625 12.046875,4.828125 12,4.75 12.09375,4.90625 Q 12.1875,5.0625 12.375,5.125 L 12.5625,5.1875 12.28125,5.09375 12,5 12.375,5.125 q 0.375,0.125 0.5,0.5 L 13,6 12.625,6.125 12.25,6.25 12.53125,6.15625 12.8125,6.0625 12.625,6.125 Q 12.4375,6.1875 12.28125,6.28125 L 12.125,6.375 12.203125,6.328125 12.28125,6.28125 11.984375,5.984375 11.6875,5.6875 11.625,5.75 11.5625,5.8125 11.6875,5.6875 Q 11.8125,5.5625 11.875,5.375 L 11.9375,5.1875 11.84375,5.46875 11.75,5.75 11.921875,5.328125"
           id="path32376"
           inkscape:connector-curvature="0" />
        <path
           style="fill:#000000;fill-opacity:0.91372549"
           d="M 12.875,5.625 12.75,5.25 12.84375,5.53125 12.9375,5.8125 12.875,5.625 Q 12.8125,5.4375 12.6875,5.3125 L 12.5625,5.1875 12.625,5.25 12.6875,5.3125 13,5 13.3125,4.6875 13.25,4.625 13.1875,4.5625 l 0.125,0.125 q 0.125,0.125 0.3125,0.1875 L 13.8125,4.9375 13.53125,4.84375 13.25,4.75 13.625,4.875 14,5 14,5.5 14,6 13.5,6 13,6 12.875,5.625"
           id="path32378"
           inkscape:connector-curvature="0" />
        <path
           style="fill:#000000;fill-opacity:0.43921569"
           d="M 14,5.5 14,5 14.5,5 15,5 15,5.5 15,6 14.5,6 14,6 14,5.5"
           id="path32380"
           inkscape:connector-curvature="0" />
        <path
           style="fill:#000000;fill-opacity:0.45098039"
           d="M 15,5.5 15,5 15.5,5 16,5 16,5.5 16,6 15.5,6 15,6 15,5.5"
           id="path32382"
           inkscape:connector-curvature="0" />
        <path
           style="fill:#000000;fill-opacity:0.41568627"
           d="M 16,5.5 16,5 16.5,5 17,5 17,5.5 17,6 16.5,6 16,6 16,5.5"
           id="path32384"
           inkscape:connector-curvature="0" />
        <path
           style="fill:#000000;fill-opacity:0.45490196"
           d="M 17,5.5 17,5 17.5,5 18,5 18.125,5.375 18.25,5.75 18.15625,5.46875 18.0625,5.1875 18.125,5.375 q 0.0625,0.1875 0.1875,0.3125 l 0.125,0.125 L 18.375,5.75 18.3125,5.6875 18,6 17.6875,6.3125 17.75,6.375 17.8125,6.4375 17.6875,6.3125 Q 17.5625,6.1875 17.375,6.125 L 17.1875,6.0625 17.46875,6.15625 17.75,6.25 17.375,6.125 17,6 17,5.5"
           id="path32386"
           inkscape:connector-curvature="0" />
        <path
           style="fill:#000000;fill-opacity:0.12156863"
           d="M 18.125,5.375 18,5 18.5,5 Q 19,5 19,5.5 L 19,6 18.625,5.875 q -0.375,-0.125 -0.5,-0.5"
           id="path32388"
           inkscape:connector-curvature="0" />
        <path
           style="fill:#000000;fill-opacity:0.21568627"
           d="M 2,6.5 Q 2,6 2.5,6 L 3,6 3,6.5 3,7 2.5,7 2,7 2,6.5"
           id="path32390"
           inkscape:connector-curvature="0" />
        <path
           style="fill:#262626;fill-opacity:0.76078431"
           d="M 3,6.5 3,6 3.375,5.875 3.75,5.75 3.46875,5.84375 3.1875,5.9375 3.375,5.875 Q 3.5625,5.8125 3.6875,5.6875 L 3.8125,5.5625 3.75,5.625 3.6875,5.6875 3.984375,5.984375 4.28125,6.28125 4.359375,6.234375 4.4375,6.1875 4.28125,6.28125 Q 4.125,6.375 4,6.5 L 3.875,6.625 4.0625,6.4375 4.25,6.25 4,6.5 Q 3.75,6.75 3.375,6.875 L 3,7 3,6.5"
           id="path32392"
           inkscape:connector-curvature="0" />
        <path
           style="fill:#414141;fill-opacity:1"
           d="M 4,6.5 Q 4.25,6.25 4.625,6.125 L 5,6 5,6.5 5,7 4.625,7.125 4.25,7.25 4.53125,7.15625 4.8125,7.0625 4.625,7.125 Q 4.4375,7.1875 4.3125,7.3125 L 4.1875,7.4375 4.25,7.375 4.3125,7.3125 4.015625,7.015625 3.71875,6.71875 3.640625,6.765625 3.5625,6.8125 3.71875,6.71875 Q 3.875,6.625 4,6.5 L 4.125,6.375 3.9375,6.5625 3.75,6.75 4,6.5"
           id="path32394"
           inkscape:connector-curvature="0" />
        <path
           style="fill:#3d3d3d;fill-opacity:1"
           d="M 5,6.5 5,6 5.5,6 6,6 6,6.5 6,7 5.5,7 5,7 5,6.5"
           id="path32396"
           inkscape:connector-curvature="0" />
        <path
           style="fill:#424242;fill-opacity:1"
           d="M 6,6.5 6,6 6.5,6 7,6 7,6.5 7,7 6.5,7 6,7 6,6.5"
           id="path32398"
           inkscape:connector-curvature="0" />
        <path
           style="fill:#3f3f3f;fill-opacity:1"
           d="M 7,6.5 7,6 7.5,6 8,6 7.984375,6.484375 7.96875,6.96875 8.078125,6.953125 8.1875,6.9375 7.96875,6.96875 Q 7.75,7 7.5,7 L 7.25,7 7.625,7 8,7 7.5,7 7,7 7,6.5 M 8.125,6 8,6 7.625,6 7.25,6 7.5,6 Q 7.75,6 8,6 L 8.25,6 8.125,6"
           id="path32400"
           inkscape:connector-curvature="0" />
        <path
           style="fill:#727272;fill-opacity:1"
           d="M 7.984375,6.484375 8,6 8.5,6 9,6 8.875,6.375 Q 8.75,6.75 8.375,6.875 L 8,7 8.28125,6.90625 8.5625,6.8125 8.375,6.875 Q 8.1875,6.9375 7.96875,6.96875 L 7.75,7 7.859375,6.984375 7.96875,6.96875 7.984375,6.484375 M 8.375,6 8,6 7.875,6 7.75,6 8,6 Q 8.25,6 8.5,6 L 8.75,6 8.375,6"
           id="path32402"
           inkscape:connector-curvature="0" />
        <path
           style="fill:#ffffff;fill-opacity:1"
           d="M 8.875,6.375 9,6 9.5,6 10,6 10.125,6.375 10.25,6.75 10.15625,6.46875 10.0625,6.1875 10.125,6.375 q 0.0625,0.1875 0.1875,0.3125 l 0.125,0.125 L 10.375,6.75 10.3125,6.6875 10.015625,7.015625 9.71875,7.34375 9.765625,7.390625 9.8125,7.4375 9.71875,7.34375 Q 9.625,7.25 9.5,7.25 l -0.125,0 0.1875,0 0.1875,0 -0.25,0 Q 9.25,7.25 9,7.5 8.75,7.75 8.5,7.75 8.25,7.75 8.109375,7.359375 L 7.96875,6.96875 7.859375,6.984375 7.75,7 7.96875,6.96875 Q 8.1875,6.9375 8.375,6.875 L 8.5625,6.8125 8.28125,6.90625 8,7 8.375,6.875 Q 8.75,6.75 8.875,6.375 M 10.125,6 10,6 9.625,6 9.25,6 9.5,6 Q 9.75,6 10,6 l 0.25,0 -0.125,0"
           id="path32404"
           inkscape:connector-curvature="0" />
        <path
           style="fill:#525252;fill-opacity:1"
           d="M 10.125,6.375 10,6 10.5,6 11,6 11,6.5 11,7 10.625,6.875 Q 10.25,6.75 10.125,6.375 M 10.375,6 10,6 9.875,6 9.75,6 10,6 q 0.25,0 0.5,0 l 0.25,0 -0.375,0"
           id="path32406"
           inkscape:connector-curvature="0" />
        <path
           style="fill:#787878;fill-opacity:1"
           d="M 11,6.5 11,6 11.375,5.875 11.75,5.75 11.46875,5.84375 11.1875,5.9375 11.375,5.875 Q 11.5625,5.8125 11.6875,5.6875 L 11.8125,5.5625 11.75,5.625 11.6875,5.6875 11.984375,5.984375 12.28125,6.28125 12.359375,6.234375 12.4375,6.1875 12.28125,6.28125 Q 12.125,6.375 12,6.5 L 11.875,6.625 12.0625,6.4375 12.25,6.25 12,6.5 Q 11.75,6.75 11.375,6.875 L 11,7 11,6.5"
           id="path32408"
           inkscape:connector-curvature="0" />
        <path
           style="fill:#ffffff;fill-opacity:1"
           d="M 12,6.5 Q 12.25,6.25 12.625,6.125 L 13,6 13.125,6.375 q 0.125,0.375 0.5,0.5 L 14,7 13.875,7.375 Q 13.75,7.75 13.5,7.75 13.25,7.75 13,7.5 12.75,7.25 12.5,7.25 l -0.25,0 0.1875,0 0.1875,0 -0.125,0 q -0.125,0 -0.21875,0.09375 L 12.1875,7.4375 12.234375,7.390625 12.28125,7.34375 12,7.03125 11.71875,6.71875 11.640625,6.765625 11.5625,6.8125 11.71875,6.71875 Q 11.875,6.625 12,6.5 L 12.125,6.375 11.9375,6.5625 11.75,6.75 12,6.5"
           id="path32410"
           inkscape:connector-curvature="0" />
        <path
           style="fill:#565656;fill-opacity:1"
           d="M 13.125,6.375 13,6 13.5,6 14,6 14,6.5 14,7 13.625,6.875 q -0.375,-0.125 -0.5,-0.5"
           id="path32412"
           inkscape:connector-curvature="0" />
        <path
           style="fill:#404040;fill-opacity:1"
           d="M 14,6.5 14,6 14.5,6 15,6 15,6.5 15,7 14.5,7 14,7 14,6.5"
           id="path32414"
           inkscape:connector-curvature="0" />
        <path
           style="fill:#424242;fill-opacity:1"
           d="M 15,6.5 15,6 15.5,6 16,6 16,6.5 16,7 15.5,7 15,7 15,6.5"
           id="path32416"
           inkscape:connector-curvature="0" />
        <path
           style="fill:#3c3c3c;fill-opacity:1"
           d="M 16,6.5 16,6 16.5,6 17,6 17,6.5 17,7 16.5,7 16,7 16,6.5"
           id="path32418"
           inkscape:connector-curvature="0" />
        <path
           style="fill:#434343;fill-opacity:0.99607843"
           d="M 17,6.5 17,6 17.375,6.125 Q 17.75,6.25 17.8125,6.6875 L 17.875,7.125 17.9375,7.1875 18,7.25 17.875,7.125 Q 17.75,7 17.5,7 L 17.25,7 17.625,7 18,7 17.5,7 17,7 17,6.5"
           id="path32420"
           inkscape:connector-curvature="0" />
        <path
           style="fill:#191919;fill-opacity:0.63921569"
           d="M 17.8125,6.6875 17.75,6.25 17.84375,6.53125 17.9375,6.8125 17.875,6.625 Q 17.8125,6.4375 17.6875,6.3125 L 17.5625,6.1875 17.625,6.25 17.6875,6.3125 18,6 18.3125,5.6875 18.25,5.625 18.1875,5.5625 l 0.125,0.125 q 0.125,0.125 0.3125,0.1875 L 18.8125,5.9375 18.53125,5.84375 18.25,5.75 18.625,5.875 19,6 19,6.5 19,7 18.4375,7.0625 17.875,7.125 17.8125,6.6875"
           id="path32422"
           inkscape:connector-curvature="0" />
        <path
           style="fill:#000000;fill-opacity:0.12156863"
           d="M 19,6.5 19,6 19.5,6 Q 20,6 20,6.5 L 20,7 19.5,7 19,7 19,6.5"
           id="path32424"
           inkscape:connector-curvature="0" />
        <path
           style="fill:#000000;fill-opacity:0.29411765"
           d="M 2,7.5 2,7 2.5,7 3,7 3,7.5 3,8 2.5,8 Q 2,8 2,7.5"
           id="path32426"
           inkscape:connector-curvature="0" />
        <path
           style="fill:#292929;fill-opacity:1"
           d="M 3,7.5 3,7 3.375,6.875 3.75,6.75 3.46875,6.84375 3.1875,6.9375 3.375,6.875 Q 3.5625,6.8125 3.71875,6.71875 L 3.875,6.625 3.796875,6.671875 3.71875,6.71875 4.015625,7.015625 4.3125,7.3125 4.375,7.25 4.4375,7.1875 4.3125,7.3125 Q 4.1875,7.4375 4.125,7.625 L 4.0625,7.8125 4.15625,7.53125 4.25,7.25 4.125,7.625 4,8 3.5,8 3,8 3,7.5"
           id="path32428"
           inkscape:connector-curvature="0" />
        <path
           style="fill:#fefefe;fill-opacity:1"
           d="M 4.125,7.625 Q 4.25,7.25 4.625,7.125 L 5,7 5.125,7.375 5.25,7.75 5.15625,7.46875 5.0625,7.1875 5.125,7.375 Q 5.1875,7.5625 5.28125,7.65625 L 5.375,7.75 5.328125,7.703125 5.28125,7.65625 4.984375,7.984375 4.6875,8.3125 4.75,8.375 4.8125,8.4375 4.6875,8.3125 Q 4.5625,8.1875 4.375,8.125 L 4.1875,8.0625 4.46875,8.15625 4.75,8.25 4.40625,8.125 4.0625,8 l 0,0.09375 0,0.09375 0,-0.1875 q 0,-0.1875 0.0625,-0.375 L 4.1875,7.4375 4.09375,7.71875 4,8 4.125,7.625"
           id="path32430"
           inkscape:connector-curvature="0" />
        <path
           style="fill:#ffffff;fill-opacity:1"
           d="M 5.125,7.375 5,7 5.5,7 6,7 5.875,7.375 Q 5.75,7.75 5.5,7.75 5.25,7.75 5.125,7.375"
           id="path32432"
           inkscape:connector-curvature="0" />
        <path
           style="fill:#f7f7f7;fill-opacity:1"
           d="M 5.875,7.375 6,7 6.5,7 7,7 6.9375,7.5625 6.875,8.125 6.9375,8.1875 7,8.25 6.875,8.125 Q 6.75,8 6.5,8 L 6.25,8 6.625,8 7,8 6.625,8.125 6.25,8.25 6.53125,8.15625 6.8125,8.0625 6.625,8.125 Q 6.4375,8.1875 6.3125,8.3125 L 6.1875,8.4375 6.25,8.375 6.3125,8.3125 6.015625,7.984375 5.71875,7.65625 5.671875,7.703125 5.625,7.75 5.71875,7.65625 Q 5.8125,7.5625 5.875,7.375 L 5.9375,7.1875 5.84375,7.46875 5.75,7.75 5.875,7.375"
           id="path32434"
           inkscape:connector-curvature="0" />
        <path
           style="fill:#fafafa;fill-opacity:1"
           d="M 6.9375,7.5625 7,7 7.5,7 8,7 7.625,7 7.25,7 7.5,7 Q 7.75,7 7.96875,6.96875 L 8.1875,6.9375 8.078125,6.953125 7.96875,6.96875 8.109375,7.359375 8.25,7.75 8.15625,7.46875 8.0625,7.1875 8.125,7.375 Q 8.1875,7.5625 8.28125,7.65625 L 8.375,7.75 8.328125,7.703125 8.28125,7.65625 7.96875,7.96875 7.65625,8.28125 7.703125,8.328125 7.75,8.375 7.65625,8.28125 Q 7.5625,8.1875 7.375,8.125 L 7.1875,8.0625 7.46875,8.15625 7.75,8.25 7.3125,8.1875 6.875,8.125 6.9375,7.5625"
           id="path32436"
           inkscape:connector-curvature="0" />
        <path
           style="fill:#f6f6f6;fill-opacity:1"
           d="m 9,7.5 q 0.25,-0.25 0.5,-0.25 0.25,0 0.375,0.375 L 10,8 9.625,8.125 9.25,8.25 9.53125,8.15625 9.8125,8.0625 9.625,8.125 Q 9.4375,8.1875 9.28125,8.28125 L 9.125,8.375 9.203125,8.328125 9.28125,8.28125 9.015625,7.984375 8.75,7.6875 8.6875,7.71875 8.625,7.75 8.75,7.6875 Q 8.875,7.625 9,7.5 L 9.125,7.375 8.9375,7.5625 8.75,7.75 9,7.5"
           id="path32438"
           inkscape:connector-curvature="0" />
        <path
           style="fill:#f7f7f7;fill-opacity:1"
           d="M 9.875,7.625 9.75,7.25 9.84375,7.53125 9.9375,7.8125 9.875,7.625 Q 9.8125,7.4375 9.71875,7.34375 L 9.625,7.25 9.671875,7.296875 9.71875,7.34375 10.015625,7.015625 10.3125,6.6875 10.25,6.625 10.1875,6.5625 l 0.125,0.125 q 0.125,0.125 0.3125,0.1875 L 10.8125,6.9375 10.53125,6.84375 10.25,6.75 10.625,6.875 11,7 11,7.5 11,8 10.5,8 10,8 9.875,7.625"
           id="path32440"
           inkscape:connector-curvature="0" />
        <path
           style="fill:#f5f5f5;fill-opacity:1"
           d="M 11,7.5 11,7 11.375,6.875 11.75,6.75 11.46875,6.84375 11.1875,6.9375 11.375,6.875 Q 11.5625,6.8125 11.71875,6.71875 L 11.875,6.625 11.796875,6.671875 11.71875,6.71875 12,7.03125 12.28125,7.34375 12.328125,7.296875 12.375,7.25 12.28125,7.34375 Q 12.1875,7.4375 12.125,7.625 L 12.0625,7.8125 12.15625,7.53125 12.25,7.25 12.125,7.625 12,8 11.5,8 11,8 11,7.5"
           id="path32442"
           inkscape:connector-curvature="0" />
        <path
           style="fill:#fcfcfc;fill-opacity:1"
           d="M 12.125,7.625 Q 12.25,7.25 12.5,7.25 12.75,7.25 13,7.5 L 13.25,7.75 13.0625,7.5625 12.875,7.375 13,7.5 q 0.125,0.125 0.25,0.1875 L 13.375,7.75 13.3125,7.71875 13.25,7.6875 12.96875,8 12.6875,8.3125 12.75,8.375 12.8125,8.4375 12.6875,8.3125 Q 12.5625,8.1875 12.375,8.125 L 12.1875,8.0625 12.46875,8.15625 12.75,8.25 12.375,8.125 12,8 12.125,7.625"
           id="path32444"
           inkscape:connector-curvature="0" />
        <path
           style="fill:#f7f7f7;fill-opacity:1"
           d="M 13.875,7.375 14,7 l 0.5,0 0.5,0 0,0.53125 0,0.53125 0.09375,0 0.09375,0 -0.1875,0 q -0.1875,0 -0.375,0.0625 L 14.4375,8.1875 14.71875,8.09375 15,8 14.625,8.125 14.25,8.25 14.53125,8.15625 14.8125,8.0625 14.625,8.125 Q 14.4375,8.1875 14.28125,8.28125 L 14.125,8.375 14.203125,8.328125 14.28125,8.28125 14,7.96875 13.71875,7.65625 13.671875,7.703125 13.625,7.75 13.71875,7.65625 Q 13.8125,7.5625 13.875,7.375 L 13.9375,7.1875 13.84375,7.46875 13.75,7.75 13.875,7.375"
           id="path32446"
           inkscape:connector-curvature="0" />
        <path
           style="fill:#f5f5f5;fill-opacity:1"
           d="M 15,7.53125 15,7 15.5,7 16,7 16.125,7.375 Q 16.25,7.75 15.953125,8.015625 L 15.65625,8.28125 15.703125,8.328125 15.75,8.375 15.65625,8.28125 Q 15.5625,8.1875 15.375,8.125 L 15.1875,8.0625 15.46875,8.15625 15.75,8.25 15.375,8.125 15,8 15.28125,8.09375 15.5625,8.1875 15.375,8.125 Q 15.1875,8.0625 15,8.0625 l -0.1875,0 0.09375,0 0.09375,0 0,-0.53125"
           id="path32448"
           inkscape:connector-curvature="0" />
        <path
           style="fill:#ffffff;fill-opacity:1"
           d="M 16.125,7.375 16,7 16.5,7 17,7 16.875,7.375 Q 16.75,7.75 17.015625,8.015625 L 17.28125,8.28125 17.328125,8.203125 17.375,8.125 17.28125,8.28125 Q 17.1875,8.4375 17.125,8.625 L 17.0625,8.8125 17.15625,8.53125 17.25,8.25 17.125,8.625 17,9 16.625,9.125 16.25,9.25 16.53125,9.15625 16.8125,9.0625 16.625,9.125 Q 16.4375,9.1875 16.3125,9.3125 L 16.1875,9.4375 16.25,9.375 16.3125,9.3125 15.984375,9.015625 15.65625,8.71875 15.609375,8.765625 15.5625,8.8125 15.65625,8.71875 Q 15.75,8.625 15.75,8.5 l 0,-0.125 0,0.1875 0,0.1875 0,-0.25 0,-0.25 0,0.1875 0,0.1875 0,-0.125 q 0,-0.125 -0.09375,-0.21875 L 15.5625,8.1875 15.609375,8.234375 15.65625,8.28125 15.953125,8.015625 Q 16.25,7.75 16.125,7.375"
           id="path32450"
           inkscape:connector-curvature="0" />
        <path
           style="fill:#e3e3e3;fill-opacity:1"
           d="M 16.875,7.375 17,7 17.5,7 Q 18,7 17.875,7.375 17.75,7.75 17.5,8 L 17.25,8.25 17.4375,8.0625 17.625,7.875 17.5,8 Q 17.375,8.125 17.28125,8.28125 L 17.1875,8.4375 17.234375,8.359375 17.28125,8.28125 17.015625,8.015625 Q 16.75,7.75 16.875,7.375"
           id="path32452"
           inkscape:connector-curvature="0" />
        <path
           style="fill:#121212;fill-opacity:0.98823529"
           d="M 17.875,7.375 18,7 18,7.375 18,7.75 18,7.5 Q 18,7.25 17.875,7.125 L 17.75,7 17.8125,7.0625 17.875,7.125 18.4375,7.0625 19,7 19,7.5 19,8 18.625,8.125 18.25,8.25 18.53125,8.15625 18.8125,8.0625 18.625,8.125 Q 18.4375,8.1875 18.28125,8.28125 L 18.125,8.375 18.203125,8.328125 18.28125,8.28125 18,8 17.71875,7.71875 17.671875,7.796875 17.625,7.875 17.71875,7.71875 Q 17.8125,7.5625 17.875,7.375 L 17.9375,7.1875 17.84375,7.46875 17.75,7.75 17.875,7.375"
           id="path32454"
           inkscape:connector-curvature="0" />
        <path
           style="fill:#000000;fill-opacity:0.1372549"
           d="M 19,7.5 19,7 19.5,7 20,7 20,7.5 Q 20,8 19.5,8 L 19,8 19,7.5"
           id="path32456"
           inkscape:connector-curvature="0" />
        <path
           style="fill:#000000;fill-opacity:0.77647059"
           d="M 3,8.5 3,8 3.5,8 4,8 4.125,8.375 4.25,8.75 4.15625,8.46875 4.0625,8.1875 4.125,8.375 Q 4.1875,8.5625 4.3125,8.6875 L 4.4375,8.8125 4.375,8.75 4.3125,8.6875 4,9 3.6875,9.3125 3.75,9.375 3.8125,9.4375 3.6875,9.3125 Q 3.5625,9.1875 3.375,9.125 L 3.1875,9.0625 3.46875,9.15625 3.75,9.25 3.375,9.125 Q 3,9 3,8.5"
           id="path32458"
           inkscape:connector-curvature="0" />
        <path
           style="fill:#6f6f6f;fill-opacity:1"
           d="M 4.125,8.375 4,8 4.09375,8.28125 4.1875,8.5625 4.125,8.375 Q 4.0625,8.1875 4.0625,8 l 0,-0.1875 0,0.09375 0,0.09375 0.34375,0.125 Q 4.75,8.25 4.875,8.625 L 5,9 4.625,8.875 Q 4.25,8.75 4.125,8.375"
           id="path32460"
           inkscape:connector-curvature="0" />
        <path
           style="fill:#fdfdfd;fill-opacity:1"
           d="M 4.875,8.625 4.75,8.25 4.84375,8.53125 4.9375,8.8125 4.875,8.625 Q 4.8125,8.4375 4.6875,8.3125 L 4.5625,8.1875 4.625,8.25 4.6875,8.3125 4.984375,7.984375 5.28125,7.65625 5.234375,7.609375 5.1875,7.5625 5.28125,7.65625 Q 5.375,7.75 5.5,7.75 l 0.125,0 -0.1875,0 -0.1875,0 0.25,0 0.25,0 -0.1875,0 -0.1875,0 0.125,0 q 0.125,0 0.21875,-0.09375 L 5.8125,7.5625 5.765625,7.609375 5.71875,7.65625 6.015625,7.984375 6.3125,8.3125 6.375,8.25 6.4375,8.1875 6.3125,8.3125 Q 6.1875,8.4375 6.125,8.625 L 6.0625,8.8125 6.15625,8.53125 6.25,8.25 6.125,8.625 6,9 6,8.625 6,8.25 6,8.5 Q 6,8.75 6.125,8.875 L 6.25,9 6.1875,8.9375 6.125,8.875 5.5625,8.9375 5,9 4.875,8.625"
           id="path32462"
           inkscape:connector-curvature="0" />
        <path
           style="fill:#262626;fill-opacity:1"
           d="M 6.125,8.625 Q 6.25,8.25 6.625,8.125 7,8 6.875,8.375 6.75,8.75 6.375,8.875 6,9 6.125,8.625"
           id="path32464"
           inkscape:connector-curvature="0" />
        <path
           style="fill:#adadad;fill-opacity:1"
           d="M 6.875,8.375 7,8 7,8.375 7,8.75 7,8.5 Q 7,8.25 6.875,8.125 L 6.75,8 6.8125,8.0625 6.875,8.125 7.3125,8.1875 Q 7.75,8.25 7.75,8.5 7.75,8.75 7.5,9 L 7.25,9.25 7.4375,9.0625 7.625,8.875 7.5,9 Q 7.375,9.125 7.3125,9.25 L 7.25,9.375 7.28125,9.3125 7.3125,9.25 7,8.96875 6.6875,8.6875 6.625,8.75 6.5625,8.8125 6.6875,8.6875 Q 6.8125,8.5625 6.875,8.375 L 6.9375,8.1875 6.84375,8.46875 6.75,8.75 6.875,8.375"
           id="path32466"
           inkscape:connector-curvature="0" />
        <path
           style="fill:#d7d7d7;fill-opacity:1"
           d="m 7.75,8.5 0,-0.25 0,0.1875 0,0.1875 0,-0.125 Q 7.75,8.375 7.65625,8.28125 L 7.5625,8.1875 7.609375,8.234375 7.65625,8.28125 7.96875,7.96875 8.28125,7.65625 8.234375,7.609375 8.1875,7.5625 8.28125,7.65625 Q 8.375,7.75 8.5,7.75 l 0.125,0 -0.1875,0 -0.1875,0 0.25,0 0.25,0 -0.1875,0 -0.1875,0 0.125,0 q 0.125,0 0.25,-0.0625 L 8.875,7.625 8.8125,7.65625 8.75,7.6875 9.015625,7.984375 9.28125,8.28125 9.359375,8.234375 9.4375,8.1875 9.28125,8.28125 Q 9.125,8.375 9,8.5 L 8.875,8.625 9.0625,8.4375 9.25,8.25 9,8.5 Q 8.75,8.75 8.5,9 L 8.25,9.25 8.4375,9.0625 8.625,8.875 8.5,9 Q 8.375,9.125 8.28125,9.28125 L 8.1875,9.4375 8.234375,9.359375 8.28125,9.28125 7.984375,9.015625 7.6875,8.75 7.65625,8.8125 7.625,8.875 7.6875,8.75 Q 7.75,8.625 7.75,8.5 l 0,-0.125 0,0.1875 0,0.1875 0,-0.25"
           id="path32468"
           inkscape:connector-curvature="0" />
        <path
           style="fill:#1c1c1c;fill-opacity:1"
           d="M 9,8.5 Q 9.25,8.25 9.625,8.125 L 10,8 10,8.5 10,9 9.625,9.125 9.25,9.25 9.53125,9.15625 9.8125,9.0625 9.625,9.125 Q 9.4375,9.1875 9.28125,9.28125 L 9.125,9.375 9.203125,9.328125 9.28125,9.28125 9.015625,9.015625 8.75,8.75 9,8.5 M 8.9375,8.5625 8.75,8.75 8.6875,8.8125 8.625,8.875 8.75,8.75 Q 8.875,8.625 9,8.5 L 9.125,8.375 8.9375,8.5625"
           id="path32470"
           inkscape:connector-curvature="0" />
        <path
           style="fill:#181818;fill-opacity:1"
           d="M 10,8.5 10,8 10.5,8 11,8 11.5,8 12,8 12,8.5 12,9 11.5,9 Q 11,9 10.5,9 L 10,9 10,8.5"
           id="path32472"
           inkscape:connector-curvature="0" />
        <path
           style="fill:#292929;fill-opacity:1"
           d="M 12,8.5 12,8 12.375,8.125 q 0.375,0.125 0.5,0.5 L 13,9 12.90625,8.71875 12.8125,8.4375 12.875,8.625 q 0.0625,0.1875 0.21875,0.28125 L 13.25,9 13.171875,8.953125 13.09375,8.90625 12.546875,8.953125 12,9 12,8.5"
           id="path32474"
           inkscape:connector-curvature="0" />
        <path
           style="fill:#f5f5f5;fill-opacity:1"
           d="M 12.875,8.625 12.75,8.25 12.84375,8.53125 12.9375,8.8125 12.875,8.625 Q 12.8125,8.4375 12.6875,8.3125 L 12.5625,8.1875 12.625,8.25 12.6875,8.3125 12.96875,8 13.25,7.6875 13.1875,7.65625 13.125,7.625 13.25,7.6875 Q 13.375,7.75 13.5,7.75 l 0.125,0 -0.1875,0 -0.1875,0 0.25,0 0.25,0 -0.1875,0 -0.1875,0 0.125,0 q 0.125,0 0.21875,-0.09375 L 13.8125,7.5625 13.765625,7.609375 13.71875,7.65625 14,7.96875 14.28125,8.28125 14.359375,8.234375 14.4375,8.1875 14.28125,8.28125 Q 14.125,8.375 14,8.5 L 13.875,8.625 14.0625,8.4375 14.25,8.25 14,8.5 Q 13.75,8.75 13.375,8.875 13,9 12.875,8.625"
           id="path32476"
           inkscape:connector-curvature="0" />
        <path
           style="fill:#7a7a7a;fill-opacity:1"
           d="M 14,8.5 Q 14.25,8.25 14.625,8.125 L 15,8 14.71875,8.09375 14.4375,8.1875 14.625,8.125 Q 14.8125,8.0625 15,8.0625 l 0.1875,0 -0.09375,0 L 15,8.0625 15,8.53125 15,9 14.625,9.125 14.25,9.25 14.53125,9.15625 14.8125,9.0625 14.625,9.125 Q 14.4375,9.1875 14.3125,9.3125 L 14.1875,9.4375 14.25,9.375 14.3125,9.3125 14.015625,9.015625 13.71875,8.71875 13.640625,8.765625 13.5625,8.8125 13.71875,8.71875 Q 13.875,8.625 14,8.5 L 14.125,8.375 13.9375,8.5625 13.75,8.75 14,8.5 M 14.71875,9.09375 15,9 15.09375,8.96875 15.1875,8.9375 15,9 q -0.1875,0.0625 -0.375,0.125 l -0.1875,0.0625 0.28125,-0.09375"
           id="path32478"
           inkscape:connector-curvature="0" />
        <path
           style="fill:#3d3d3d;fill-opacity:1"
           d="m 15,8.53125 0,-0.46875 -0.09375,0 -0.09375,0 0.1875,0 q 0.1875,0 0.375,0.0625 L 15.5625,8.1875 15.28125,8.09375 15,8 15.375,8.125 Q 15.75,8.25 15.75,8.5 q 0,0.25 -0.375,0.375 L 15,9 15,8.53125 m -0.09375,0.5 L 15,9 15.28125,8.90625 15.5625,8.8125 15.375,8.875 Q 15.1875,8.9375 15,9 l -0.1875,0.0625 0.09375,-0.03125"
           id="path32480"
           inkscape:connector-curvature="0" />
        <path
           style="fill:#404040;fill-opacity:1"
           d="M 17.125,8.625 Q 17.25,8.25 17.5,8 L 17.75,7.75 17.5625,7.9375 17.375,8.125 17.5,8 Q 17.625,7.875 17.71875,7.71875 L 17.8125,7.5625 17.765625,7.640625 17.71875,7.71875 18,8 18.28125,8.28125 18.359375,8.234375 18.4375,8.1875 18.28125,8.28125 Q 18.125,8.375 18,8.5 L 17.875,8.625 18.0625,8.4375 18.25,8.25 18,8.5 Q 17.75,8.75 17.375,8.875 L 17,9 17.125,8.625"
           id="path32482"
           inkscape:connector-curvature="0" />
        <path
           style="fill:#000000;fill-opacity:0.51764706"
           d="M 18,8.5 Q 18.25,8.25 18.625,8.125 L 19,8 19,8.5 Q 19,9 18.625,9.125 L 18.25,9.25 18.53125,9.15625 18.8125,9.0625 18.625,9.125 Q 18.4375,9.1875 18.3125,9.3125 L 18.1875,9.4375 18.25,9.375 18.3125,9.3125 18.015625,9.015625 17.71875,8.71875 17.640625,8.765625 17.5625,8.8125 17.71875,8.71875 Q 17.875,8.625 18,8.5 L 18.125,8.375 17.9375,8.5625 17.75,8.75 18,8.5"
           id="path32484"
           inkscape:connector-curvature="0" />
        <path
           style="fill:#000000;fill-opacity:0.98431373"
           d="M 3.875,9.625 3.75,9.25 3.84375,9.53125 3.9375,9.8125 3.875,9.625 Q 3.8125,9.4375 3.6875,9.3125 L 3.5625,9.1875 3.625,9.25 3.6875,9.3125 4,9 4.3125,8.6875 4.25,8.625 4.1875,8.5625 4.3125,8.6875 Q 4.4375,8.8125 4.625,8.875 L 4.8125,8.9375 4.53125,8.84375 4.25,8.75 4.625,8.875 5,9 5.125,9.375 5.25,9.75 5.15625,9.46875 5.0625,9.1875 5.125,9.375 Q 5.1875,9.5625 5.3125,9.6875 L 5.4375,9.8125 5.375,9.75 5.3125,9.6875 4.984375,9.984375 4.65625,10.28125 4.703125,10.328125 4.75,10.375 4.65625,10.28125 Q 4.5625,10.1875 4.375,10.125 L 4.1875,10.0625 4.46875,10.15625 4.75,10.25 4.375,10.125 4,10 3.875,9.625"
           id="path32486"
           inkscape:connector-curvature="0" />
        <path
           style="fill:#c5c5c5;fill-opacity:1"
           d="M 5.125,9.375 5,9 5.5625,8.9375 6.125,8.875 6.0625,8.8125 6,8.75 6.125,8.875 Q 6.25,9 6.5,9 L 6.75,9 6.375,9 6,9 6.375,8.875 6.75,8.75 6.46875,8.84375 6.1875,8.9375 6.375,8.875 Q 6.5625,8.8125 6.6875,8.6875 L 6.8125,8.5625 6.75,8.625 6.6875,8.6875 7,8.96875 7.3125,9.25 7.34375,9.1875 7.375,9.125 7.3125,9.25 Q 7.25,9.375 7.25,9.5 l 0,0.125 0,-0.1875 0,-0.1875 0,0.25 0,0.25 0,-0.1875 0,-0.1875 0,0.125 q 0,0.125 0.09375,0.21875 L 7.4375,9.8125 7.390625,9.765625 7.34375,9.71875 7.03125,10 6.71875,10.28125 6.796875,10.328125 6.875,10.375 6.71875,10.28125 Q 6.5625,10.1875 6.375,10.125 L 6.1875,10.0625 6.46875,10.15625 6.75,10.25 6.328125,10.171875 5.90625,10.09375 5.953125,10.171875 6,10.25 5.90625,10.09375 Q 5.8125,9.9375 5.625,9.875 L 5.4375,9.8125 5.71875,9.90625 6,10 5.625,9.875 Q 5.25,9.75 5.125,9.375"
           id="path32488"
           inkscape:connector-curvature="0" />
        <path
           style="fill:#efefef;fill-opacity:1"
           d="M 7.25,9.5 Q 7.25,9.25 7.5,9 L 7.75,8.75 7.5625,8.9375 7.375,9.125 7.5,9 Q 7.625,8.875 7.6875,8.75 L 7.75,8.625 7.71875,8.6875 7.6875,8.75 7.984375,9.015625 8.28125,9.28125 8.328125,9.203125 8.375,9.125 8.28125,9.28125 Q 8.1875,9.4375 8.125,9.625 L 8.0625,9.8125 8.15625,9.53125 8.25,9.25 8.125,9.625 8,10 7.625,9.875 Q 7.25,9.75 7.25,9.5"
           id="path32490"
           inkscape:connector-curvature="0" />
        <path
           style="fill:#343434;fill-opacity:1"
           d="M 8.125,9.625 Q 8.25,9.25 8.5,9 L 8.75,8.75 9.015625,9.015625 9.28125,9.28125 9.359375,9.234375 9.4375,9.1875 9.28125,9.28125 Q 9.125,9.375 9,9.5 L 8.875,9.625 9.0625,9.4375 9.25,9.25 9,9.5 Q 8.75,9.75 8.375,9.875 L 8,10 8.125,9.625 M 8.8125,8.6875 8.75,8.75 8.5625,8.9375 8.375,9.125 8.5,9 Q 8.625,8.875 8.75,8.75 L 8.875,8.625 8.8125,8.6875"
           id="path32492"
           inkscape:connector-curvature="0" />
        <path
           style="fill:#000000;fill-opacity:0.49803922"
           d="M 9,9.5 Q 9.25,9.25 9.625,9.125 L 10,9 10,9.5 10,10 9.625,10.125 9.25,10.25 9.53125,10.15625 9.8125,10.0625 9.625,10.125 Q 9.4375,10.1875 9.3125,10.3125 L 9.1875,10.4375 9.25,10.375 9.3125,10.3125 9.015625,10.015625 8.71875,9.71875 8.640625,9.765625 8.5625,9.8125 8.71875,9.71875 Q 8.875,9.625 9,9.5 L 9.125,9.375 8.9375,9.5625 8.75,9.75 9,9.5"
           id="path32494"
           inkscape:connector-curvature="0" />
        <path
           style="fill:#000000;fill-opacity:0.18039216"
           d="M 10,9.5 10,9 10.5,9 q 0.5,0 1,0 l 0.5,0 0,0.5 0,0.5 -0.5,0 q -0.5,0 -1,0 L 10,10 10,9.5"
           id="path32496"
           inkscape:connector-curvature="0" />
        <path
           style="fill:#000000;fill-opacity:0.72156863"
           d="M 12,9.5 12,9 12.546875,8.953125 13.09375,8.90625 13.171875,9.328125 13.25,9.75 13.15625,9.46875 13.0625,9.1875 13.125,9.375 q 0.0625,0.1875 0.1875,0.3125 l 0.125,0.125 L 13.375,9.75 13.3125,9.6875 13,10 l -0.3125,0.3125 0.0625,0.0625 0.0625,0.0625 -0.125,-0.125 Q 12.5625,10.1875 12.375,10.125 L 12.1875,10.0625 12.46875,10.15625 12.75,10.25 12.375,10.125 12,10 12,9.5"
           id="path32498"
           inkscape:connector-curvature="0" />
        <path
           style="fill:#5f5f5f;fill-opacity:1"
           d="M 13.171875,9.328125 13.09375,8.90625 13.015625,8.859375 12.9375,8.8125 13.09375,8.90625 Q 13.25,9 13.5,9 L 13.75,9 13.375,9 13,9 13.375,8.875 13.75,8.75 13.46875,8.84375 13.1875,8.9375 13.375,8.875 Q 13.5625,8.8125 13.71875,8.71875 L 13.875,8.625 13.796875,8.671875 13.71875,8.71875 14.015625,9.015625 14.3125,9.3125 14.375,9.25 14.4375,9.1875 14.3125,9.3125 Q 14.1875,9.4375 14.125,9.625 L 14.0625,9.8125 14.15625,9.53125 14.25,9.25 14.125,9.625 14,10 14.09375,9.71875 14.1875,9.4375 14.125,9.625 q -0.0625,0.1875 -0.09375,0.40625 L 14,10.25 14.015625,10.140625 14.03125,10.03125 13.640625,9.890625 Q 13.25,9.75 13.171875,9.328125"
           id="path32500"
           inkscape:connector-curvature="0" />
        <path
           style="fill:#ebebeb;fill-opacity:1"
           d="m 14.125,9.625 q 0.125,-0.375 0.5,-0.5 L 15,9 15.125,9.375 15.25,9.75 15.15625,9.46875 15.0625,9.1875 15.125,9.375 q 0.0625,0.1875 0.1875,0.3125 l 0.125,0.125 L 15.375,9.75 15.3125,9.6875 14.984375,9.984375 14.65625,10.28125 14.703125,10.328125 14.75,10.375 14.65625,10.28125 Q 14.5625,10.1875 14.375,10.125 L 14.1875,10.0625 14.46875,10.15625 14.75,10.25 14.390625,10.140625 14.03125,10.03125 14.015625,10.140625 14,10.25 14.03125,10.03125 Q 14.0625,9.8125 14.125,9.625 L 14.1875,9.4375 14.09375,9.71875 14,10 14.125,9.625 M 15.09375,8.96875 15,9 14.71875,9.09375 14.4375,9.1875 14.625,9.125 Q 14.8125,9.0625 15,9 l 0.1875,-0.0625 -0.09375,0.03125"
           id="path32502"
           inkscape:connector-curvature="0" />
        <path
           style="fill:#d5d5d5;fill-opacity:1"
           d="M 15.125,9.375 15,9 15.375,8.875 15.75,8.75 15.46875,8.84375 15.1875,8.9375 15.375,8.875 Q 15.5625,8.8125 15.65625,8.71875 L 15.75,8.625 15.703125,8.671875 15.65625,8.71875 15.984375,9.015625 16.3125,9.3125 16.375,9.25 16.4375,9.1875 16.3125,9.3125 Q 16.1875,9.4375 16.125,9.625 L 16.0625,9.8125 16.15625,9.53125 16.25,9.25 16.171875,9.671875 16.09375,10.09375 15.671875,9.921875 Q 15.25,9.75 15.125,9.375 M 15.28125,8.90625 15,9 14.90625,9.03125 14.8125,9.0625 15,9 q 0.1875,-0.0625 0.375,-0.125 l 0.1875,-0.0625 -0.28125,0.09375"
           id="path32504"
           inkscape:connector-curvature="0" />
        <path
           style="fill:#9e9e9e;fill-opacity:1"
           d="M 16.171875,9.671875 Q 16.25,9.25 16.625,9.125 L 17,9 16.875,9.375 q -0.125,0.375 -0.5,0.5 L 16,10 16.28125,9.90625 16.5625,9.8125 16.375,9.875 q -0.1875,0.0625 -0.28125,0.21875 L 16,10.25 l 0.04687,-0.07813 0.04687,-0.07813 0.07813,-0.421875"
           id="path32506"
           inkscape:connector-curvature="0" />
        <path
           style="fill:#000000;fill-opacity:0.91764706"
           d="M 16.875,9.375 17,9 17.375,8.875 17.75,8.75 17.46875,8.84375 17.1875,8.9375 17.375,8.875 Q 17.5625,8.8125 17.71875,8.71875 L 17.875,8.625 17.796875,8.671875 17.71875,8.71875 18.015625,9.015625 18.3125,9.3125 18.375,9.25 18.4375,9.1875 18.3125,9.3125 Q 18.1875,9.4375 18.125,9.625 L 18.0625,9.8125 18.15625,9.53125 18.25,9.25 18.125,9.625 18,10 17.625,10.125 17.25,10.25 17.53125,10.15625 17.8125,10.0625 17.625,10.125 q -0.1875,0.0625 -0.28125,0.15625 L 17.25,10.375 17.296875,10.328125 17.34375,10.28125 17.015625,9.984375 16.6875,9.6875 16.625,9.75 16.5625,9.8125 16.6875,9.6875 Q 16.8125,9.5625 16.875,9.375 L 16.9375,9.1875 16.84375,9.46875 16.75,9.75 16.875,9.375"
           id="path32508"
           inkscape:connector-curvature="0" />
        <path
           style="fill:#000000;fill-opacity:0.30980392"
           d="M 4,10.5 4,10 4.375,10.125 Q 4.75,10.25 4.75,10.5 q 0,0.25 -0.375,0.375 L 4,11 4,10.5"
           id="path32510"
           inkscape:connector-curvature="0" />
        <path
           style="fill:#2b2b2b;fill-opacity:1"
           d="m 4.75,10.5 0,-0.25 0,0.1875 0,0.1875 0,-0.125 q 0,-0.125 -0.09375,-0.21875 L 4.5625,10.1875 4.609375,10.234375 4.65625,10.28125 4.984375,9.984375 5.3125,9.6875 5.25,9.625 5.1875,9.5625 5.3125,9.6875 Q 5.4375,9.8125 5.625,9.875 L 5.8125,9.9375 5.53125,9.84375 5.25,9.75 5.625,9.875 Q 6,10 6,10.5 L 6,11 6,10.625 6,10.25 6,10.5 q 0,0.25 0.03125,0.46875 L 6.0625,11.1875 6.046875,11.078125 6.03125,10.96875 5.640625,11.109375 5.25,11.25 5.53125,11.15625 5.8125,11.0625 5.625,11.125 Q 5.4375,11.1875 5.3125,11.3125 L 5.1875,11.4375 5.25,11.375 5.3125,11.3125 4.984375,11.015625 4.65625,10.71875 4.609375,10.765625 4.5625,10.8125 4.65625,10.71875 Q 4.75,10.625 4.75,10.5 l 0,-0.125 0,0.1875 0,0.1875 0,-0.25"
           id="path32512"
           inkscape:connector-curvature="0" />
        <path
           style="fill:#ffffff;fill-opacity:1"
           d="M 6,10.5 6,10 6,10.375 6,10.75 6,10.5 Q 6,10.25 5.90625,10.09375 L 5.8125,9.9375 l 0.046875,0.078125 0.046875,0.07813 0.421875,0.07813 Q 6.75,10.25 7,10.5 L 7.25,10.75 7.0625,10.5625 6.875,10.375 7,10.5 q 0.125,0.125 0.28125,0.21875 L 7.4375,10.8125 7.359375,10.765625 7.28125,10.71875 7.015625,10.984375 Q 6.75,11.25 6.828125,11.671875 L 6.90625,12.09375 6.953125,12.171875 7,12.25 6.90625,12.09375 Q 6.8125,11.9375 6.625,11.875 L 6.4375,11.8125 6.71875,11.90625 7,12 6.625,11.875 Q 6.25,11.75 6.125,11.375 6,11 6,10.5"
           id="path32514"
           inkscape:connector-curvature="0" />
        <path
           style="fill:#969696;fill-opacity:1"
           d="M 7,10.5 6.75,10.25 6.9375,10.4375 7.125,10.625 7,10.5 Q 6.875,10.375 6.71875,10.28125 L 6.5625,10.1875 6.640625,10.234375 6.71875,10.28125 7.03125,10 7.34375,9.71875 7.296875,9.671875 7.25,9.625 7.34375,9.71875 Q 7.4375,9.8125 7.625,9.875 L 7.8125,9.9375 7.53125,9.84375 7.25,9.75 7.625,9.875 8,10 8,10.5 8,11 7.625,10.875 Q 7.25,10.75 7,10.5 M 8,11.125 8,11 8,10.625 8,10.25 8,10.5 q 0,0.25 0,0.5 l 0,0.25 0,-0.125"
           id="path32516"
           inkscape:connector-curvature="0" />
        <path
           style="fill:#000000;fill-opacity:0.89803922"
           d="M 8,10.5 8,10 8.375,9.875 8.75,9.75 8.46875,9.84375 8.1875,9.9375 8.375,9.875 Q 8.5625,9.8125 8.71875,9.71875 L 8.875,9.625 8.796875,9.671875 8.71875,9.71875 9.015625,10.015625 9.3125,10.3125 9.375,10.25 9.4375,10.1875 9.3125,10.3125 Q 9.1875,10.4375 9.125,10.625 L 9.0625,10.8125 9.15625,10.53125 9.25,10.25 9.125,10.625 9,11 8.5,11 8,11 8,10.5 M 8,10.625 8,11 8,11.125 8,11.25 8,11 q 0,-0.25 0,-0.5 l 0,-0.25 0,0.375"
           id="path32518"
           inkscape:connector-curvature="0" />
        <path
           style="fill:#000000;fill-opacity:0"
           d="m 9.125,10.625 q 0.125,-0.375 0.5,-0.5 L 10,10 l 0.5,0 q 0.5,0 1,0 l 0.5,0 0.375,0.125 q 0.375,0.125 0.5,0.5 L 13,11 12.5,11 Q 12,11 12,11.5 l 0,0.5 -0.5,0 -0.5,0 -0.5,0 -0.5,0 0,-0.5 Q 10,11 9.5,11 L 9,11 9.125,10.625"
           id="path32520"
           inkscape:connector-curvature="0" />
        <path
           style="fill:#000000;fill-opacity:0.98431373"
           d="M 12.875,10.625 12.75,10.25 12.84375,10.53125 12.9375,10.8125 12.875,10.625 q -0.0625,-0.1875 -0.1875,-0.3125 l -0.125,-0.125 0.0625,0.0625 0.0625,0.0625 L 13,10 13.3125,9.6875 13.25,9.625 13.1875,9.5625 l 0.125,0.125 q 0.125,0.125 0.3125,0.1875 L 13.8125,9.9375 13.53125,9.84375 13.25,9.75 13.640625,9.890625 14.03125,10.03125 14.046875,9.921875 14.0625,9.8125 14.03125,10.03125 Q 14,10.25 14,10.5 l 0,0.25 0,-0.375 0,-0.375 0,0.5 0,0.5 -0.5,0 -0.5,0 -0.125,-0.375"
           id="path32522"
           inkscape:connector-curvature="0" />
        <path
           style="fill:#cacaca;fill-opacity:1"
           d="m 14,10.5 0,-0.5 0,0.375 0,0.375 0,-0.25 q 0,-0.25 0.03125,-0.46875 L 14.0625,9.8125 14.04687,9.921875 14.03124,10.03125 14.390615,10.140625 Q 14.75,10.25 14.75,10.5 q 0,0.25 -0.375,0.375 L 14,11 14,10.5"
           id="path32524"
           inkscape:connector-curvature="0" />
        <path
           style="fill:#ffffff;fill-opacity:1"
           d="m 14.75,10.5 0,-0.25 0,0.1875 0,0.1875 0,-0.125 q 0,-0.125 -0.09375,-0.21875 L 14.5625,10.1875 14.60937,10.23437 14.65624,10.28124 14.984375,9.984375 15.3125,9.6875 15.25,9.625 15.1875,9.5625 l 0.125,0.125 q 0.125,0.125 0.3125,0.1875 L 15.8125,9.9375 15.53125,9.84375 15.25,9.75 15.671875,9.921875 16.09375,10.09375 16.140625,10.015625 16.1875,9.9375 16.09375,10.09375 Q 16,10.25 16,10.5 l 0,0.25 0,-0.375 0,-0.375 0,0.5 q 0,0.5 -0.125,0.875 -0.125,0.375 -0.5,0.5 L 15,12 15.125,11.625 Q 15.25,11.25 14.953125,10.984375 l -0.296875,-0.265625 -0.04687,0.04687 -0.04687,0.04687 0.09375,-0.09375 Q 14.75,10.625 14.75,10.5 l 0,-0.125 0,0.1875 0,0.1875 0,-0.25"
           id="path32526"
           inkscape:connector-curvature="0" />
        <path
           style="fill:#080808;fill-opacity:1"
           d="M 16,10.5 Q 16,10 16.375,9.875 L 16.75,9.75 16.46875,9.84375 16.1875,9.9375 16.375,9.875 q 0.1875,-0.0625 0.3125,-0.1875 l 0.125,-0.125 -0.0625,0.0625 -0.0625,0.0625 0.328125,0.296875 0.328125,0.296875 0.04687,-0.04687 0.04687,-0.04687 -0.09375,0.09375 Q 17.25,10.375 17.25,10.5 l 0,0.125 0,-0.1875 0,-0.1875 0,0.25 0,0.25 0,-0.1875 0,-0.1875 0,0.125 q 0,0.125 0.09375,0.21875 l 0.09375,0.09375 -0.04687,-0.04687 -0.04687,-0.04687 -0.328125,0.296875 -0.328125,0.296875 0.0625,0.0625 0.0625,0.0625 -0.125,-0.125 Q 16.5625,11.1875 16.375,11.125 L 16.1875,11.0625 16.46875,11.15625 16.75,11.25 16.359375,11.109375 15.96875,10.96875 15.953125,11.078125 15.9375,11.1875 15.96875,10.96875 Q 16,10.75 16,10.5 l 0,-0.25 0,0.375 0,0.375 0,-0.5"
           id="path32528"
           inkscape:connector-curvature="0" />
        <path
           style="fill:#000000;fill-opacity:0.0627451"
           d="m 17.25,10.5 q 0,-0.25 0.375,-0.375 L 18,10 18,10.5 18,11 17.625,10.875 Q 17.25,10.75 17.25,10.5"
           id="path32530"
           inkscape:connector-curvature="0" />
        <path
           style="fill:#000000;fill-opacity:0.78823529"
           d="M 4,11.5 4,11 4.375,10.875 4.75,10.75 4.46875,10.84375 4.1875,10.9375 4.375,10.875 Q 4.5625,10.8125 4.65625,10.71875 L 4.75,10.625 4.703125,10.671875 4.65625,10.71875 4.984375,11.015625 5.3125,11.3125 5.375,11.25 5.4375,11.1875 5.3125,11.3125 Q 5.1875,11.4375 5.125,11.625 L 5.0625,11.8125 5.15625,11.53125 5.25,11.25 5.125,11.625 5,12 4.5,12 4,12 4,11.5"
           id="path32532"
           inkscape:connector-curvature="0" />
        <path
           style="fill:#747474;fill-opacity:1"
           d="M 5.125,11.625 Q 5.25,11.25 5.640625,11.109375 L 6.03125,10.96875 6.015625,10.859375 6,10.75 6.03125,10.96875 Q 6.0625,11.1875 6.125,11.375 L 6.1875,11.5625 6.09375,11.28125 6,11 6.125,11.375 6.25,11.75 6.15625,11.46875 6.0625,11.1875 6.125,11.375 q 0.0625,0.1875 0.1875,0.3125 l 0.125,0.125 L 6.375,11.75 6.3125,11.6875 6,12 5.6875,12.3125 5.75,12.375 5.8125,12.4375 5.6875,12.3125 Q 5.5625,12.1875 5.375,12.125 L 5.1875,12.0625 5.46875,12.15625 5.75,12.25 5.375,12.125 5,12 5.125,11.625 M 5.09375,11.71875 5,12 4.96875,12.09375 4.9375,12.1875 5,12 q 0.0625,-0.1875 0.125,-0.375 l 0.0625,-0.1875 -0.09375,0.28125"
           id="path32534"
           inkscape:connector-curvature="0" />
        <path
           style="fill:#cfcfcf;fill-opacity:1"
           d="M 6.828125,11.671875 Q 6.75,11.25 7.015625,10.984375 L 7.28125,10.71875 7.203125,10.671875 7.125,10.625 7.28125,10.71875 Q 7.4375,10.8125 7.625,10.875 L 7.8125,10.9375 7.53125,10.84375 7.25,10.75 7.625,10.875 8,11 8,11.5 8,12 8,11.625 8,11.25 8,11.5 q 0,0.25 0.09375,0.40625 L 8.1875,12.0625 8.140625,11.984375 8.09375,11.90625 7.5,12 6.90625,12.09375 6.828125,11.671875 M 8,11.375 8,11 8,10.875 8,10.75 8,11 q 0,0.25 0,0.5 l 0,0.25 0,-0.375"
           id="path32536"
           inkscape:connector-curvature="0" />
        <path
           style="fill:#050505;fill-opacity:0.99215686"
           d="M 8,11.5 8,11 8.5,11 9,11 9.125,11.375 9.25,11.75 9.15625,11.46875 9.0625,11.1875 9.125,11.375 q 0.0625,0.1875 0.1875,0.3125 l 0.125,0.125 L 9.375,11.75 9.3125,11.6875 9.015625,11.984375 8.71875,12.28125 8.796875,12.328125 8.875,12.375 8.71875,12.28125 Q 8.5625,12.1875 8.375,12.125 L 8.1875,12.0625 8.46875,12.15625 8.75,12.25 8.375,12.125 Q 8,12 8,11.5 M 8,10.875 8,11 8,11.375 8,11.75 8,11.5 Q 8,11.25 8,11 l 0,-0.25 0,0.125"
           id="path32538"
           inkscape:connector-curvature="0" />
        <path
           style="fill:#000000;fill-opacity:0.03921569"
           d="M 9.125,11.375 9,11 9.5,11 Q 10,11 10,11.5 L 10,12 9.625,11.875 q -0.375,-0.125 -0.5,-0.5"
           id="path32540"
           inkscape:connector-curvature="0" />
        <path
           style="fill:#000000;fill-opacity:0.2"
           d="M 12,11.5 Q 12,11 12.5,11 l 0.5,0 -0.125,0.375 q -0.125,0.375 -0.5,0.5 L 12,12 12,11.5"
           id="path32542"
           inkscape:connector-curvature="0" />
        <path
           style="fill:#1b1b1b;fill-opacity:1"
           d="M 12.875,11.375 13,11 l 0.5,0 0.5,0 0,0.5 q 0,0.5 -0.375,0.625 L 13.25,12.25 13.53125,12.15625 13.8125,12.0625 13.625,12.125 q -0.1875,0.0625 -0.34375,0.15625 L 13.125,12.375 13.203125,12.328125 13.28125,12.28125 12.984375,11.984375 12.6875,11.6875 12.625,11.75 l -0.0625,0.0625 0.125,-0.125 q 0.125,-0.125 0.1875,-0.3125 L 12.9375,11.1875 12.84375,11.46875 12.75,11.75 12.875,11.375"
           id="path32544"
           inkscape:connector-curvature="0" />
        <path
           style="fill:#eeeeee;fill-opacity:1"
           d="M 14,11.5 14,11 14.375,10.875 14.75,10.75 14.46875,10.84375 14.1875,10.9375 14.375,10.875 q 0.1875,-0.0625 0.28125,-0.15625 L 14.75,10.625 l -0.04687,0.04687 -0.04687,0.04687 0.296875,0.265625 Q 15.25,11.25 15.125,11.625 L 15,12 14.453125,11.95313 13.90625,11.90626 l -0.04687,0.07813 -0.04687,0.07813 0.09375,-0.15625 Q 14,11.75 14,11.5 l 0,-0.25 0,0.375 0,0.375 0,-0.5"
           id="path32546"
           inkscape:connector-curvature="0" />
        <path
           style="fill:#4a4a4a;fill-opacity:1"
           d="M 15.875,11.375 16,11 15.90625,11.28125 15.8125,11.5625 15.875,11.375 q 0.0625,-0.1875 0.09375,-0.40625 L 16,10.75 l -0.01563,0.109375 -0.01563,0.109375 0.390625,0.140625 Q 16.75,11.25 16.8125,11.6875 L 16.875,12.125 16.9375,12.1875 17,12.25 16.875,12.125 Q 16.75,12 16.5,12 l -0.25,0 0.375,0 L 17,12 16.625,12.125 16.25,12.25 16.53125,12.15625 16.8125,12.0625 16.625,12.125 q -0.1875,0.0625 -0.3125,0.1875 l -0.125,0.125 L 16.25,12.375 16.3125,12.3125 16,12 15.6875,11.6875 15.625,11.75 l -0.0625,0.0625 0.125,-0.125 q 0.125,-0.125 0.1875,-0.3125 L 15.9375,11.1875 15.84375,11.46875 15.75,11.75 15.875,11.375"
           id="path32548"
           inkscape:connector-curvature="0" />
        <path
           style="fill:#000000;fill-opacity:0.54509804"
           d="M 16.8125,11.6875 16.75,11.25 16.84375,11.53125 16.9375,11.8125 16.875,11.625 q -0.0625,-0.1875 -0.1875,-0.3125 l -0.125,-0.125 0.0625,0.0625 0.0625,0.0625 0.328125,-0.296875 L 17.34375,10.71875 17.29688,10.67188 17.25,10.625 17.34375,10.71875 Q 17.4375,10.8125 17.625,10.875 L 17.8125,10.9375 17.53125,10.84375 17.25,10.75 17.625,10.875 18,11 l 0,0.5 0,0.5 -0.5625,0.0625 -0.5625,0.0625 -0.0625,-0.4375"
           id="path32550"
           inkscape:connector-curvature="0" />
        <path
           style="fill:#000000;fill-opacity:0.33333333"
           d="M 3,12.5 Q 3,12 3.5,12 L 4,12 3.875,12.375 q -0.125,0.375 -0.5,0.5 L 3,13 3,12.5"
           id="path32552"
           inkscape:connector-curvature="0" />
        <path
           style="fill:#282828;fill-opacity:1"
           d="M 3.875,12.375 4,12 4.5,12 5,12 4.875,12.375 Q 4.75,12.75 4.5,13 L 4.25,13.25 4.4375,13.0625 4.625,12.875 4.5,13 Q 4.375,13.125 4.28125,13.28125 L 4.1875,13.4375 4.234375,13.359375 4.28125,13.28125 3.984375,12.984375 3.6875,12.6875 3.625,12.75 3.5625,12.8125 3.6875,12.6875 Q 3.8125,12.5625 3.875,12.375 L 3.9375,12.1875 3.84375,12.46875 3.75,12.75 3.875,12.375"
           id="path32554"
           inkscape:connector-curvature="0" />
        <path
           style="fill:#f8f8f8;fill-opacity:1"
           d="M 4.875,12.375 5,12 5.375,12.125 q 0.375,0.125 0.5,0.5 L 6,13 5.625,13.125 5.25,13.25 5.53125,13.15625 5.8125,13.0625 5.625,13.125 Q 5.4375,13.1875 5.3125,13.3125 L 5.1875,13.4375 5.25,13.375 5.3125,13.3125 5.015625,13.015625 4.71875,12.71875 4.671875,12.796875 4.625,12.875 4.71875,12.71875 Q 4.8125,12.5625 4.875,12.375 L 4.9375,12.1875 4.84375,12.46875 4.75,12.75 4.875,12.375 M 6.03125,13.09375 6,13 5.90625,12.71875 5.8125,12.4375 5.875,12.625 Q 5.9375,12.8125 6,13 l 0.0625,0.1875 -0.03125,-0.09375 m -1,-1.1875 L 5,12 4.90625,12.28125 4.8125,12.5625 4.875,12.375 Q 4.9375,12.1875 5,12 l 0.0625,-0.1875 -0.03125,0.09375"
           id="path32556"
           inkscape:connector-curvature="0" />
        <path
           style="fill:#474747;fill-opacity:1"
           d="M 5.875,12.625 5.75,12.25 5.84375,12.53125 5.9375,12.8125 5.875,12.625 Q 5.8125,12.4375 5.6875,12.3125 L 5.5625,12.1875 5.625,12.25 5.6875,12.3125 6,12 6.3125,11.6875 6.25,11.625 6.1875,11.5625 l 0.125,0.125 q 0.125,0.125 0.3125,0.1875 L 6.8125,11.9375 6.53125,11.84375 6.25,11.75 6.625,11.875 Q 7,12 7,12.5 L 7,13 7,12.625 7,12.25 7,12.5 q 0,0.25 -0.03125,0.46875 L 6.9375,13.1875 6.953125,13.078125 6.96875,12.96875 6.484375,12.984375 6,13 5.875,12.625 M 5.90625,12.71875 6,13 6.03125,13.09375 6.0625,13.1875 6,13 Q 5.9375,12.8125 5.875,12.625 l -0.0625,-0.1875 0.09375,0.28125"
           id="path32558"
           inkscape:connector-curvature="0" />
        <path
           style="fill:#cdcdcd;fill-opacity:1"
           d="M 7,12.5 7,12 7,12.375 7,12.75 7,12.5 Q 7,12.25 6.90625,12.09375 L 6.8125,11.9375 6.859375,12.015625 6.90625,12.09375 7.5,12 8.09375,11.90625 8.046875,12.453125 Q 8,13 7.875,13.375 7.75,13.75 7.5,14 L 7.25,14.25 7.4375,14.0625 7.625,13.875 7.5,14 Q 7.375,14.125 7.28125,14.28125 L 7.1875,14.4375 7.234375,14.359375 7.28125,14.28125 7,13.96875 6.71875,13.65625 6.671875,13.703125 6.625,13.75 6.71875,13.65625 Q 6.8125,13.5625 6.875,13.375 L 6.9375,13.1875 6.84375,13.46875 6.75,13.75 6.875,13.375 Q 7,13 7,12.5"
           id="path32560"
           inkscape:connector-curvature="0" />
        <path
           style="fill:#8e8e8e;fill-opacity:1"
           d="M 8.046875,12.453125 8.09375,11.90625 8.046875,11.828125 8,11.75 8.09375,11.90625 Q 8.1875,12.0625 8.375,12.125 L 8.5625,12.1875 8.28125,12.09375 8,12 8.375,12.125 Q 8.75,12.25 9,12.5 L 9.25,12.75 9.0625,12.5625 8.875,12.375 9,12.5 q 0.125,0.125 0.28125,0.21875 L 9.4375,12.8125 9.359375,12.765625 9.28125,12.71875 9,13 8.71875,13.28125 8.796875,13.328125 8.875,13.375 8.71875,13.28125 Q 8.5625,13.1875 8.375,13.125 L 8.1875,13.0625 8.46875,13.15625 8.75,13.25 8.359375,13.109375 7.96875,12.96875 7.953125,13.078125 7.9375,13.1875 7.96875,12.96875 Q 8,12.75 8,12.5 L 8,12.25 8,12.625 8,13 8.046875,12.453125"
           id="path32562"
           inkscape:connector-curvature="0" />
        <path
           style="fill:#000000;fill-opacity:0.96862745"
           d="M 9,12.5 8.75,12.25 8.9375,12.4375 9.125,12.625 9,12.5 Q 8.875,12.375 8.71875,12.28125 L 8.5625,12.1875 8.640625,12.234375 8.71875,12.28125 9.015625,11.984375 9.3125,11.6875 9.25,11.625 9.1875,11.5625 l 0.125,0.125 q 0.125,0.125 0.3125,0.1875 L 9.8125,11.9375 9.53125,11.84375 9.25,11.75 9.625,11.875 10,12 10,12.5 10,13 9.625,12.875 Q 9.25,12.75 9,12.5"
           id="path32564"
           inkscape:connector-curvature="0" />
        <path
           style="fill:#000000;fill-opacity:0.85098039"
           d="m 10,12.5 0,-0.5 0.5,0 0.5,0 0,0.5 0,0.5 -0.5,0 -0.5,0 0,-0.5"
           id="path32566"
           inkscape:connector-curvature="0" />
        <path
           style="fill:#000000;fill-opacity:0.84705882"
           d="m 11,12.5 0,-0.5 0.5,0 0.5,0 0,0.5 0,0.5 -0.5,0 -0.5,0 0,-0.5"
           id="path32568"
           inkscape:connector-curvature="0" />
        <path
           style="fill:#000000;fill-opacity:0.99215686"
           d="M 12,12.5 12,12 12.375,11.875 12.75,11.75 12.46875,11.84375 12.1875,11.9375 12.375,11.875 q 0.1875,-0.0625 0.3125,-0.1875 l 0.125,-0.125 -0.0625,0.0625 -0.0625,0.0625 0.296875,0.296875 0.296875,0.296875 0.07813,-0.04687 0.07813,-0.04687 -0.15625,0.09375 Q 13.125,12.375 13,12.5 L 12.875,12.625 13.0625,12.4375 13.25,12.25 13,12.5 q -0.25,0.25 -0.625,0.375 L 12,13 12,12.5"
           id="path32570"
           inkscape:connector-curvature="0" />
        <path
           style="fill:#bdbdbd;fill-opacity:1"
           d="m 13,12.5 q 0.25,-0.25 0.625,-0.375 L 14,12 13.71875,12.09375 13.4375,12.1875 13.625,12.125 q 0.1875,-0.0625 0.28125,-0.21875 L 14,11.75 13.95313,11.82813 13.90626,11.90626 14.078135,12.328135 14.25,12.75 14.15625,12.46875 14.0625,12.1875 14.125,12.375 q 0.0625,0.1875 0.15625,0.34375 L 14.375,12.875 14.328125,12.796875 14.28125,12.71875 14.015625,13.015625 13.75,13.3125 13.8125,13.34375 13.875,13.375 13.75,13.3125 Q 13.625,13.25 13.5,13.25 l -0.125,0 0.1875,0 0.1875,0 -0.25,0 -0.25,0 0.1875,0 0.1875,0 -0.125,0 q -0.125,0 -0.25,0.0625 L 13.125,13.375 13.1875,13.34375 13.25,13.3125 12.984375,13.015625 12.71875,12.71875 l -0.07813,0.04687 -0.07813,0.04687 0.15625,-0.09375 Q 12.875,12.625 13,12.5 L 13.125,12.375 12.9375,12.5625 12.75,12.75 13,12.5"
           id="path32572"
           inkscape:connector-curvature="0" />
        <path
           style="fill:#a0a0a0;fill-opacity:1"
           d="M 14.078125,12.328125 13.90625,11.90625 14.453125,11.953125 15,12 l -0.375,0 -0.375,0 0.25,0 q 0.25,0 0.46875,-0.03125 L 15.1875,11.9375 15.078125,11.95313 14.96875,11.96876 15.109375,12.359385 15.25,12.75 15.15625,12.46875 15.0625,12.1875 15.125,12.375 q 0.0625,0.1875 0.1875,0.3125 l 0.125,0.125 -0.0625,-0.0625 -0.0625,-0.0625 -0.296875,0.296875 -0.296875,0.296875 0.04687,0.07813 0.04687,0.07813 -0.09375,-0.15625 Q 14.625,13.125 14.5,13 L 14.375,12.875 14.5625,13.0625 14.75,13.25 14.5,13 q -0.25,-0.25 -0.421875,-0.671875"
           id="path32574"
           inkscape:connector-curvature="0" />
        <path
           style="fill:#636363;fill-opacity:1"
           d="M 15.109375,12.359375 14.96875,11.96875 14.859375,11.984375 14.75,12 14.96875,11.96875 Q 15.1875,11.9375 15.375,11.875 L 15.5625,11.8125 15.28125,11.90625 15,12 15.375,11.875 15.75,11.75 15.46875,11.84375 15.1875,11.9375 15.375,11.875 q 0.1875,-0.0625 0.3125,-0.1875 l 0.125,-0.125 L 15.75,11.625 15.6875,11.6875 16,12 l 0.3125,0.3125 0.0625,-0.0625 0.0625,-0.0625 -0.125,0.125 q -0.125,0.125 -0.1875,0.3125 L 16.0625,12.8125 16.15625,12.53125 16.25,12.25 16.125,12.625 16,13 15.625,12.875 Q 15.25,12.75 15.109375,12.359375 M 15.96875,13.09375 16,13 16.09375,12.71875 16.1875,12.4375 16.125,12.625 Q 16.0625,12.8125 16,13 l -0.0625,0.1875 0.03125,-0.09375"
           id="path32576"
           inkscape:connector-curvature="0" />
        <path
           style="fill:#ebebeb;fill-opacity:1"
           d="m 16.125,12.625 q 0.125,-0.375 0.5,-0.5 Q 17,12 17,12.5 l 0,0.5 0,-0.375 0,-0.375 0,0.25 q 0,0.25 0.09375,0.40625 L 17.1875,13.0625 17.14063,12.98437 17.09376,12.90624 16.546885,12.95311 16,13 16.125,12.625 M 16.09375,12.71875 16,13 15.96875,13.09375 15.9375,13.1875 16,13 q 0.0625,-0.1875 0.125,-0.375 l 0.0625,-0.1875 -0.09375,0.28125"
           id="path32578"
           inkscape:connector-curvature="0" />
        <path
           style="fill:#0c0c0c;fill-opacity:1"
           d="m 17,12.5 0,-0.5 0,0.375 0,0.375 0,-0.25 q 0,-0.25 -0.125,-0.375 L 16.75,12 16.8125,12.0625 16.875,12.125 17.4375,12.0625 18,12 18.125,12.375 18.25,12.75 18.15625,12.46875 18.0625,12.1875 18.125,12.375 q 0.0625,0.1875 0.1875,0.3125 l 0.125,0.125 L 18.375,12.75 18.3125,12.6875 18,13 l -0.3125,0.3125 0.0625,0.0625 0.0625,0.0625 -0.125,-0.125 Q 17.5625,13.1875 17.375,13.125 L 17.1875,13.0625 17.46875,13.15625 17.75,13.25 17.375,13.125 Q 17,13 17,12.5"
           id="path32580"
           inkscape:connector-curvature="0" />
        <path
           style="fill:#000000;fill-opacity:0.09803922"
           d="M 18.125,12.375 18,12 l 0.5,0 q 0.5,0 0.5,0.5 l 0,0.5 -0.375,-0.125 q -0.375,-0.125 -0.5,-0.5"
           id="path32582"
           inkscape:connector-curvature="0" />
        <path
           style="fill:#000000;fill-opacity:0.0627451"
           d="M 2,13.5 Q 2,13 2.5,13 L 3,13 2.875,13.375 q -0.125,0.375 -0.5,0.5 L 2,14 2,13.5"
           id="path32584"
           inkscape:connector-curvature="0" />
        <path
           style="fill:#080808;fill-opacity:0.98039216"
           d="M 2.875,13.375 3,13 3.375,12.875 3.75,12.75 3.46875,12.84375 3.1875,12.9375 3.375,12.875 Q 3.5625,12.8125 3.6875,12.6875 L 3.8125,12.5625 3.75,12.625 3.6875,12.6875 3.984375,12.984375 4.28125,13.28125 4.328125,13.203125 4.375,13.125 4.28125,13.28125 Q 4.1875,13.4375 4.125,13.625 L 4.0625,13.8125 4.15625,13.53125 4.25,13.25 4.125,13.625 4,14 4.09375,13.71875 4.1875,13.4375 4.125,13.625 Q 4.0625,13.8125 4.03125,14.03125 L 4,14.25 4.015625,14.140625 4.03125,14.03125 3.640625,14.140625 3.25,14.25 3.53125,14.15625 3.8125,14.0625 3.625,14.125 Q 3.4375,14.1875 3.34375,14.28125 L 3.25,14.375 3.296875,14.328125 3.34375,14.28125 3.015625,13.984375 2.6875,13.6875 2.625,13.75 2.5625,13.8125 2.6875,13.6875 Q 2.8125,13.5625 2.875,13.375 L 2.9375,13.1875 2.84375,13.46875 2.75,13.75 2.875,13.375"
           id="path32586"
           inkscape:connector-curvature="0" />
        <path
           style="fill:#cfcfcf;fill-opacity:1"
           d="M 4.125,13.625 Q 4.25,13.25 4.5,13 L 4.75,12.75 4.5625,12.9375 4.375,13.125 4.5,13 Q 4.625,12.875 4.71875,12.71875 L 4.8125,12.5625 4.765625,12.640625 4.71875,12.71875 5.015625,13.015625 5.3125,13.3125 5.375,13.25 5.4375,13.1875 5.3125,13.3125 Q 5.1875,13.4375 5.125,13.625 L 5.0625,13.8125 5.15625,13.53125 5.25,13.25 5.125,13.625 5,14 4.515625,14.015625 4.03125,14.03125 4.015625,14.140625 4,14.25 4.03125,14.03125 Q 4.0625,13.8125 4.125,13.625 L 4.1875,13.4375 4.09375,13.71875 4,14 4.125,13.625"
           id="path32588"
           inkscape:connector-curvature="0" />
        <path
           style="fill:#ffffff;fill-opacity:1"
           d="m 5.125,13.625 q 0.125,-0.375 0.5,-0.5 L 6,13 6.125,13.375 6.25,13.75 6.15625,13.46875 6.0625,13.1875 6.125,13.375 q 0.0625,0.1875 0.15625,0.28125 L 6.375,13.75 6.328125,13.703125 6.28125,13.65625 5.984375,13.984375 5.6875,14.3125 5.75,14.375 5.8125,14.4375 5.6875,14.3125 Q 5.5625,14.1875 5.375,14.125 L 5.1875,14.0625 5.46875,14.15625 5.75,14.25 5.375,14.125 5,14 5.125,13.625 M 6.09375,13.28125 6,13 5.96875,12.90625 5.9375,12.8125 6,13 q 0.0625,0.1875 0.125,0.375 l 0.0625,0.1875 -0.09375,-0.28125"
           id="path32590"
           inkscape:connector-curvature="0" />
        <path
           style="fill:#919191;fill-opacity:1"
           d="M 6.125,13.375 6,13 6.484375,12.984375 6.96875,12.96875 6.984375,12.859375 7,12.75 6.96875,12.96875 Q 6.9375,13.1875 6.875,13.375 L 6.8125,13.5625 6.90625,13.28125 7,13 6.875,13.375 Q 6.75,13.75 6.5,13.75 6.25,13.75 6.125,13.375 M 5.96875,12.90625 6,13 6.09375,13.28125 6.1875,13.5625 6.125,13.375 Q 6.0625,13.1875 6,13 l -0.0625,-0.1875 0.03125,0.09375"
           id="path32592"
           inkscape:connector-curvature="0" />
        <path
           style="fill:#ffffff;fill-opacity:1"
           d="M 7.875,13.375 8,13 7.90625,13.28125 7.8125,13.5625 7.875,13.375 Q 7.9375,13.1875 7.96875,12.96875 L 8,12.75 7.984375,12.859375 7.96875,12.96875 8.359375,13.109375 Q 8.75,13.25 9,13.5 9.25,13.75 9.625,13.875 L 10,14 9.875,14.375 Q 9.75,14.75 9.5,14.75 9.25,14.75 9,14.5 8.75,14.25 8.5,14.25 l -0.25,0 0.1875,0 0.1875,0 -0.125,0 q -0.125,0 -0.21875,0.09375 L 8.1875,14.4375 8.234375,14.390625 8.28125,14.34375 8,14.03125 7.71875,13.71875 7.671875,13.796875 7.625,13.875 7.71875,13.71875 Q 7.8125,13.5625 7.875,13.375 L 7.9375,13.1875 7.84375,13.46875 7.75,13.75 7.875,13.375"
           id="path32594"
           inkscape:connector-curvature="0" />
        <path
           style="fill:#979797;fill-opacity:1"
           d="M 9,13.5 8.75,13.25 8.9375,13.4375 9.125,13.625 9,13.5 Q 8.875,13.375 8.71875,13.28125 L 8.5625,13.1875 8.640625,13.234375 8.71875,13.28125 9,13 9.28125,12.71875 9.203125,12.671875 9.125,12.625 9.28125,12.71875 Q 9.4375,12.8125 9.625,12.875 L 9.8125,12.9375 9.53125,12.84375 9.25,12.75 9.625,12.875 10,13 10,13.5 10,14 9.625,13.875 Q 9.25,13.75 9,13.5"
           id="path32596"
           inkscape:connector-curvature="0" />
        <path
           style="fill:#9d9d9d;fill-opacity:1"
           d="m 10,13.5 0,-0.5 0.5,0 0.5,0 0,0.5 0,0.5 -0.5,0 -0.5,0 0,-0.5"
           id="path32598"
           inkscape:connector-curvature="0" />
        <path
           style="fill:#9b9b9b;fill-opacity:1"
           d="m 11,13.5 0,-0.5 0.5,0 0.5,0 0,0.5 0,0.5 -0.5,0 -0.5,0 0,-0.5"
           id="path32600"
           inkscape:connector-curvature="0" />
        <path
           style="fill:#a4a4a4;fill-opacity:1"
           d="M 12,13.5 12,13 12.375,12.875 12.75,12.75 12.46875,12.84375 12.1875,12.9375 12.375,12.875 q 0.1875,-0.0625 0.34375,-0.15625 L 12.875,12.625 12.79687,12.67187 12.71874,12.71874 12.984365,13.015615 13.25,13.3125 13.3125,13.28125 13.375,13.25 13.25,13.3125 Q 13.125,13.375 13,13.5 L 12.875,13.625 13.0625,13.4375 13.25,13.25 13,13.5 q -0.25,0.25 -0.625,0.375 L 12,14 12,13.5"
           id="path32602"
           inkscape:connector-curvature="0" />
        <path
           style="fill:#ffffff;fill-opacity:1"
           d="m 13,13.5 q 0.25,-0.25 0.5,-0.25 0.25,0 0.5,0.25 L 14.25,13.75 14.0625,13.5625 13.875,13.375 14,13.5 q 0.125,0.125 0.28125,0.21875 l 0.15625,0.09375 -0.07813,-0.04687 -0.07813,-0.04687 -0.28125,0.3125 -0.28125,0.3125 0.04687,0.04687 0.04687,0.04687 -0.09375,-0.09375 Q 13.625,14.25 13.5,14.25 l -0.125,0 0.1875,0 0.1875,0 -0.25,0 q -0.25,0 -0.5,0.25 -0.25,0.25 -0.5,0.25 -0.25,0 -0.375,-0.375 L 12,14 12.375,13.875 Q 12.75,13.75 13,13.5"
           id="path32604"
           inkscape:connector-curvature="0" />
        <path
           style="fill:#b3b3b3;fill-opacity:1"
           d="M 14,13.5 13.75,13.25 13.9375,13.4375 14.125,13.625 14,13.5 q -0.125,-0.125 -0.25,-0.1875 l -0.125,-0.0625 0.0625,0.03125 0.0625,0.03125 0.265625,-0.296875 0.265625,-0.296875 -0.04687,-0.07813 -0.04687,-0.07813 0.09375,0.15625 Q 14.375,12.875 14.5,13 L 14.625,13.125 14.4375,12.9375 14.25,12.75 14.5,13 q 0.25,0.25 0.375,0.625 L 15,14 14.625,13.875 Q 14.25,13.75 14,13.5"
           id="path32606"
           inkscape:connector-curvature="0" />
        <path
           style="fill:#979797;fill-opacity:1"
           d="M 14.875,13.625 14.75,13.25 14.84375,13.53125 14.9375,13.8125 14.875,13.625 Q 14.8125,13.4375 14.71875,13.28125 L 14.625,13.125 l 0.04687,0.07813 0.04687,0.07813 0.296875,-0.296875 L 15.3125,12.6875 15.25,12.625 l -0.0625,-0.0625 0.125,0.125 q 0.125,0.125 0.3125,0.1875 L 15.8125,12.9375 15.53125,12.84375 15.25,12.75 15.625,12.875 16,13 15.875,13.375 q -0.125,0.375 -0.5,0.5 L 15,14 14.875,13.625 M 15.90625,13.28125 16,13 16.03125,12.90625 16.0625,12.8125 16,13 q -0.0625,0.1875 -0.125,0.375 l -0.0625,0.1875 0.09375,-0.28125"
           id="path32608"
           inkscape:connector-curvature="0" />
        <path
           style="fill:#ffffff;fill-opacity:1"
           d="M 15.875,13.375 16,13 16.546875,12.95313 17.09375,12.90626 17.17188,13.328135 17.25,13.75 17.15625,13.46875 17.0625,13.1875 17.125,13.375 q 0.0625,0.1875 0.1875,0.3125 l 0.125,0.125 -0.0625,-0.0625 -0.0625,-0.0625 -0.296875,0.328125 -0.296875,0.328125 0.04687,0.04687 0.04687,0.04687 -0.09375,-0.09375 Q 16.625,14.25 16.5,14.25 l -0.125,0 0.1875,0 0.1875,0 -0.25,0 -0.25,0 0.1875,0 0.1875,0 -0.125,0 q -0.125,0 -0.21875,0.09375 L 16.1875,14.4375 16.23437,14.39063 16.28124,14.34376 15.984375,14.015625 15.6875,13.6875 15.625,13.75 l -0.0625,0.0625 0.125,-0.125 q 0.125,-0.125 0.1875,-0.3125 L 15.9375,13.1875 15.84375,13.46875 15.75,13.75 15.875,13.375 M 16.03125,12.90625 16,13 15.90625,13.28125 15.8125,13.5625 15.875,13.375 Q 15.9375,13.1875 16,13 l 0.0625,-0.1875 -0.03125,0.09375"
           id="path32610"
           inkscape:connector-curvature="0" />
        <path
           style="fill:#a2a2a2;fill-opacity:1"
           d="M 17.171875,13.328125 17.09375,12.90625 17.046875,12.828125 17,12.75 17.09375,12.90625 Q 17.1875,13.0625 17.375,13.125 L 17.5625,13.1875 17.28125,13.09375 17,13 l 0.375,0.125 q 0.375,0.125 0.5,0.5 L 18,14 17.90625,13.71875 17.8125,13.4375 17.875,13.625 q 0.0625,0.1875 0.0625,0.375 l 0,0.1875 0,-0.09375 0,-0.09375 -0.34375,-0.125 Q 17.25,13.75 17.171875,13.328125"
           id="path32612"
           inkscape:connector-curvature="0" />
        <path
           style="fill:#010101;fill-opacity:0.90196078"
           d="M 17.875,13.625 17.75,13.25 17.84375,13.53125 17.9375,13.8125 17.875,13.625 q -0.0625,-0.1875 -0.1875,-0.3125 l -0.125,-0.125 0.0625,0.0625 0.0625,0.0625 L 18,13 18.3125,12.6875 18.25,12.625 l -0.0625,-0.0625 0.125,0.125 q 0.125,0.125 0.3125,0.1875 L 18.8125,12.9375 18.53125,12.84375 18.25,12.75 18.625,12.875 19,13 l 0,0.5 0,0.5 -0.53125,0 -0.53125,0 0,0.09375 0,0.09375 0,-0.1875 q 0,-0.1875 -0.0625,-0.375 L 17.8125,13.4375 17.90625,13.71875 18,14 17.875,13.625"
           id="path32614"
           inkscape:connector-curvature="0" />
        <path
           style="fill:#000000;fill-opacity:0.00784314"
           d="m 19,13.5 0,-0.5 0.5,0 q 0.5,0 0.5,0.5 l 0,0.5 -0.5,0 -0.5,0 0,-0.5"
           id="path32616"
           inkscape:connector-curvature="0" />
        <path
           style="fill:#000000;fill-opacity:0.4745098"
           d="M 2,14.5 2,14 2.375,13.875 2.75,13.75 2.46875,13.84375 2.1875,13.9375 2.375,13.875 Q 2.5625,13.8125 2.6875,13.6875 L 2.8125,13.5625 2.75,13.625 2.6875,13.6875 3.015625,13.984375 3.34375,14.28125 3.390625,14.234375 3.4375,14.1875 3.34375,14.28125 Q 3.25,14.375 3.25,14.5 l 0,0.125 0,-0.1875 0,-0.1875 0,0.25 0,0.25 0,-0.1875 0,-0.1875 0,0.125 q 0,0.125 0.09375,0.21875 L 3.4375,14.8125 3.390625,14.765625 3.34375,14.71875 3.015625,15.015625 2.6875,15.3125 2.75,15.375 2.8125,15.4375 2.6875,15.3125 Q 2.5625,15.1875 2.375,15.125 L 2.1875,15.0625 2.46875,15.15625 2.75,15.25 2.375,15.125 2,15 2,14.5"
           id="path32618"
           inkscape:connector-curvature="0" />
        <path
           style="fill:#464646;fill-opacity:0.99607843"
           d="m 3.25,14.5 q 0,-0.25 0.390625,-0.359375 L 4.03125,14.03125 4.046875,13.921875 4.0625,13.8125 4.03125,14.03125 Q 4,14.25 4,14.5 L 4,14.75 4,14.375 4,14 4,14.5 4,15 4,14.625 4,14.25 4,14.5 q 0,0.25 0.125,0.375 L 4.25,15 4.1875,14.9375 4.125,14.875 3.6875,14.8125 Q 3.25,14.75 3.25,14.5"
           id="path32620"
           inkscape:connector-curvature="0" />
        <path
           style="fill:#dcdcdc;fill-opacity:1"
           d="M 4,14.5 4,14 4,14.375 4,14.75 4,14.5 Q 4,14.25 4.03125,14.03125 L 4.0625,13.8125 4.046875,13.921875 4.03125,14.03125 4.515625,14.015625 5,14 5,14.5 5,15 4.5,15 Q 4,15 4,14.5"
           id="path32622"
           inkscape:connector-curvature="0" />
        <path
           style="fill:#d7d7d7;fill-opacity:1"
           d="M 5,14.5 5,14 5.375,14.125 q 0.375,0.125 0.5,0.5 L 6,15 5.5,15 5,15 5,14.5"
           id="path32624"
           inkscape:connector-curvature="0" />
        <path
           style="fill:#e9e9e9;fill-opacity:1"
           d="M 5.875,14.625 5.75,14.25 5.84375,14.53125 5.9375,14.8125 5.875,14.625 Q 5.8125,14.4375 5.6875,14.3125 L 5.5625,14.1875 5.625,14.25 5.6875,14.3125 5.984375,13.984375 6.28125,13.65625 6.234375,13.609375 6.1875,13.5625 6.28125,13.65625 Q 6.375,13.75 6.5,13.75 l 0.125,0 -0.1875,0 -0.1875,0 0.25,0 0.25,0 -0.1875,0 -0.1875,0 0.125,0 q 0.125,0 0.21875,-0.09375 L 6.8125,13.5625 6.765625,13.609375 6.71875,13.65625 7,13.96875 7.28125,14.28125 7.328125,14.203125 7.375,14.125 7.28125,14.28125 Q 7.1875,14.4375 7.125,14.625 L 7.0625,14.8125 7.15625,14.53125 7.25,14.25 7.125,14.625 7,15 6.5,15 6,15 5.875,14.625"
           id="path32626"
           inkscape:connector-curvature="0" />
        <path
           style="fill:#dfdfdf;fill-opacity:1"
           d="M 7.125,14.625 Q 7.25,14.25 7.5,14 L 7.75,13.75 7.5625,13.9375 7.375,14.125 7.5,14 Q 7.625,13.875 7.71875,13.71875 L 7.8125,13.5625 7.765625,13.640625 7.71875,13.71875 8,14.03125 8.28125,14.34375 8.328125,14.296875 8.375,14.25 8.28125,14.34375 Q 8.1875,14.4375 8.125,14.625 L 8.0625,14.8125 8.15625,14.53125 8.25,14.25 8.125,14.625 8,15 7.5,15 7,15 7.125,14.625"
           id="path32628"
           inkscape:connector-curvature="0" />
        <path
           style="fill:#e9e9e9;fill-opacity:1"
           d="M 8.125,14.625 Q 8.25,14.25 8.5,14.25 8.75,14.25 9,14.5 L 9.25,14.75 9.0625,14.5625 8.875,14.375 9,14.5 q 0.125,0.125 0.25,0.1875 L 9.375,14.75 9.3125,14.71875 9.25,14.6875 8.96875,15 8.6875,15.3125 8.75,15.375 8.8125,15.4375 8.6875,15.3125 Q 8.5625,15.1875 8.375,15.125 L 8.1875,15.0625 8.46875,15.15625 8.75,15.25 8.375,15.125 8,15 8.125,14.625"
           id="path32630"
           inkscape:connector-curvature="0" />
        <path
           style="fill:#e2e2e2;fill-opacity:1"
           d="M 9.875,14.375 10,14 l 0.5,0 0.5,0 0,0.5 0,0.5 -0.375,0.125 -0.375,0.125 0.28125,-0.09375 0.28125,-0.09375 -0.1875,0.0625 q -0.1875,0.0625 -0.34375,0.15625 L 10.125,15.375 10.203125,15.328125 10.28125,15.28125 10,14.96875 9.71875,14.65625 9.671875,14.703125 9.625,14.75 9.71875,14.65625 Q 9.8125,14.5625 9.875,14.375 L 9.9375,14.1875 9.84375,14.46875 9.75,14.75 9.875,14.375"
           id="path32632"
           inkscape:connector-curvature="0" />
        <path
           style="fill:#ebebeb;fill-opacity:1"
           d="m 11,14.5 0,-0.5 0.5,0 0.5,0 0.125,0.375 0.125,0.375 -0.09375,-0.28125 -0.09375,-0.28125 0.0625,0.1875 q 0.0625,0.1875 0.15625,0.28125 L 12.375,14.75 l -0.04687,-0.04687 -0.04687,-0.04687 -0.3125,0.3125 -0.3125,0.3125 0.04687,0.04687 L 11.75,15.375 11.65625,15.28125 Q 11.5625,15.1875 11.375,15.125 L 11.1875,15.0625 11.46875,15.15625 11.75,15.25 11.375,15.125 11,15 11,14.5"
           id="path32634"
           inkscape:connector-curvature="0" />
        <path
           style="fill:#dddddd;fill-opacity:1"
           d="m 13,14.5 q 0.25,-0.25 0.5,-0.25 0.25,0 0.375,0.375 L 14,15 13.625,15.125 13.25,15.25 13.53125,15.15625 13.8125,15.0625 13.625,15.125 q -0.1875,0.0625 -0.34375,0.15625 L 13.125,15.375 13.203125,15.328125 13.28125,15.28125 13.015625,14.984375 12.75,14.6875 12.6875,14.71875 12.625,14.75 12.75,14.6875 Q 12.875,14.625 13,14.5 L 13.125,14.375 12.9375,14.5625 12.75,14.75 13,14.5"
           id="path32636"
           inkscape:connector-curvature="0" />
        <path
           style="fill:#e3e3e3;fill-opacity:1"
           d="M 13.875,14.625 13.75,14.25 13.84375,14.53125 13.9375,14.8125 13.875,14.625 Q 13.8125,14.4375 13.71875,14.34375 L 13.625,14.25 13.67187,14.29687 13.71874,14.34374 14,14.03125 14.28125,13.71875 14.203125,13.671875 14.125,13.625 14.28125,13.71875 Q 14.4375,13.8125 14.625,13.875 L 14.8125,13.9375 14.53125,13.84375 14.25,13.75 14.625,13.875 15,14 l 0,0.5 0,0.5 -0.5,0 -0.5,0 -0.125,-0.375"
           id="path32638"
           inkscape:connector-curvature="0" />
        <path
           style="fill:#e8e8e8;fill-opacity:1"
           d="M 15,14.5 15,14 15.375,13.875 15.75,13.75 15.46875,13.84375 15.1875,13.9375 15.375,13.875 q 0.1875,-0.0625 0.3125,-0.1875 l 0.125,-0.125 -0.0625,0.0625 -0.0625,0.0625 0.296875,0.328125 0.296875,0.328125 0.04687,-0.04687 L 16.375,14.25 16.28125,14.34375 Q 16.1875,14.4375 16.125,14.625 L 16.0625,14.8125 16.15625,14.53125 16.25,14.25 16.125,14.625 16,15 15.5,15 15,15 15,14.5"
           id="path32640"
           inkscape:connector-curvature="0" />
        <path
           style="fill:#d5d5d5;fill-opacity:1"
           d="M 16.125,14.625 Q 16.25,14.25 16.5,14.25 q 0.25,0 0.375,0.375 L 17,15 16.5,15 16,15 16.125,14.625"
           id="path32642"
           inkscape:connector-curvature="0" />
        <path
           style="fill:#d6d6d6;fill-opacity:1"
           d="M 16.875,14.625 16.75,14.25 16.84375,14.53125 16.9375,14.8125 16.875,14.625 Q 16.8125,14.4375 16.71875,14.34375 L 16.625,14.25 l 0.04687,0.04687 0.04687,0.04687 0.296875,-0.328125 L 17.3125,13.6875 17.25,13.625 l -0.0625,-0.0625 0.125,0.125 q 0.125,0.125 0.3125,0.1875 L 17.8125,13.9375 17.53125,13.84375 17.25,13.75 17.59375,13.875 17.9375,14 l 0,-0.09375 0,-0.09375 0,0.1875 q 0,0.1875 -0.0625,0.375 L 17.8125,14.5625 17.90625,14.28125 18,14 17.875,14.375 q -0.125,0.375 -0.5,0.5 L 17,15 16.875,14.625"
           id="path32644"
           inkscape:connector-curvature="0" />
        <path
           style="fill:#252525;fill-opacity:0.98823529"
           d="M 17.875,14.375 18,14 17.90625,14.28125 17.8125,14.5625 17.875,14.375 Q 17.9375,14.1875 17.9375,14 l 0,-0.1875 0,0.09375 0,0.09375 0.53125,0 L 19,14 19,14.5 19,15 18.625,15.125 18.25,15.25 18.53125,15.15625 18.8125,15.0625 18.625,15.125 q -0.1875,0.0625 -0.3125,0.1875 l -0.125,0.125 L 18.25,15.375 18.3125,15.3125 18,15 17.6875,14.6875 17.625,14.75 l -0.0625,0.0625 0.125,-0.125 q 0.125,-0.125 0.1875,-0.3125 L 17.9375,14.1875 17.84375,14.46875 17.75,14.75 17.875,14.375"
           id="path32646"
           inkscape:connector-curvature="0" />
        <path
           style="fill:#000000;fill-opacity:0.27058824"
           d="m 19,14.5 0,-0.5 0.5,0 0.5,0 0,0.5 0,0.5 -0.5,0 -0.5,0 0,-0.5"
           id="path32648"
           inkscape:connector-curvature="0" />
        <path
           style="fill:#000000;fill-opacity:0.03921569"
           d="M 2,15.5 2,15 2.375,15.125 q 0.375,0.125 0.5,0.5 L 3,16 2.5,16 Q 2,16 2,15.5"
           id="path32650"
           inkscape:connector-curvature="0" />
        <path
           style="fill:#0a0a0a;fill-opacity:0.51372549"
           d="M 2.875,15.625 2.75,15.25 2.84375,15.53125 2.9375,15.8125 2.875,15.625 Q 2.8125,15.4375 2.6875,15.3125 L 2.5625,15.1875 2.625,15.25 2.6875,15.3125 3.015625,15.015625 3.34375,14.71875 3.296875,14.671875 3.25,14.625 3.34375,14.71875 Q 3.4375,14.8125 3.625,14.875 L 3.8125,14.9375 3.53125,14.84375 3.25,14.75 3.6875,14.8125 4.125,14.875 4.0625,15.4375 4,16 3.5,16 3,16 2.875,15.625"
           id="path32652"
           inkscape:connector-curvature="0" />
        <path
           style="fill:#000000;fill-opacity:0.98039216"
           d="M 4.0625,15.4375 4.125,14.875 4.0625,14.8125 4,14.75 4.125,14.875 Q 4.25,15 4.5,15 L 4.75,15 4.375,15 4,15 4.5,15 5,15 5,15.5 5,16 4.5,16 4,16 4.0625,15.4375"
           id="path32654"
           inkscape:connector-curvature="0" />
        <path
           style="fill:#000000;fill-opacity:0.97647059"
           d="M 5,15.5 5,15 5.5,15 6,15 6,15.5 6,16 5.5,16 5,16 5,15.5"
           id="path32656"
           inkscape:connector-curvature="0" />
        <path
           style="fill:#000000;fill-opacity:0.99215686"
           d="M 6,15.5 6,15 6.5,15 7,15 7,15.5 7,16 6.5,16 6,16 6,15.5"
           id="path32658"
           inkscape:connector-curvature="0" />
        <path
           style="fill:#000000;fill-opacity:0.98823529"
           d="M 7,15.5 7,15 7.5,15 8,15 8,15.5 8,16 7.5,16 7,16 7,15.5"
           id="path32660"
           inkscape:connector-curvature="0" />
        <path
           style="fill:#1a1a1a;fill-opacity:1"
           d="M 8,15.5 8,15 8.375,15.125 q 0.375,0.125 0.5,0.5 L 9,16 8.90625,15.71875 8.8125,15.4375 8.875,15.625 q 0.0625,0.1875 0.21875,0.28125 L 9.25,16 9.171875,15.953125 9.09375,15.90625 8.546875,15.953125 8,16 8,15.5"
           id="path32662"
           inkscape:connector-curvature="0" />
        <path
           style="fill:#f4f4f4;fill-opacity:1"
           d="M 8.875,15.625 8.75,15.25 8.84375,15.53125 8.9375,15.8125 8.875,15.625 Q 8.8125,15.4375 8.6875,15.3125 L 8.5625,15.1875 8.625,15.25 8.6875,15.3125 8.96875,15 9.25,14.6875 9.1875,14.65625 9.125,14.625 9.25,14.6875 Q 9.375,14.75 9.5,14.75 l 0.125,0 -0.1875,0 -0.1875,0 0.25,0 0.25,0 -0.1875,0 -0.1875,0 0.125,0 q 0.125,0 0.21875,-0.09375 L 9.8125,14.5625 9.765625,14.609375 9.71875,14.65625 10,14.96875 l 0.28125,0.3125 0.07813,-0.04687 0.07813,-0.04687 -0.15625,0.09375 Q 10.125,15.375 10,15.5 L 9.875,15.625 10.0625,15.4375 10.25,15.25 10,15.5 Q 9.75,15.75 9.375,15.875 9,16 8.875,15.625"
           id="path32664"
           inkscape:connector-curvature="0" />
        <path
           style="fill:#606060;fill-opacity:1"
           d="m 10,15.5 q 0.25,-0.25 0.625,-0.375 L 11,15 11,15.5 11,16 10.625,16.125 10.25,16.25 10.53125,16.15625 10.8125,16.0625 10.625,16.125 q -0.1875,0.0625 -0.3125,0.1875 l -0.125,0.125 L 10.25,16.375 10.3125,16.3125 10.015625,16.015625 9.71875,15.71875 9.640625,15.765625 9.5625,15.8125 9.71875,15.71875 Q 9.875,15.625 10,15.5 L 10.125,15.375 9.9375,15.5625 9.75,15.75 10,15.5"
           id="path32666"
           inkscape:connector-curvature="0" />
        <path
           style="fill:#8f8f8f;fill-opacity:1"
           d="m 11,15.5 0,-0.5 0.375,0.125 q 0.375,0.125 0.375,0.375 0,0.25 -0.375,0.375 L 11,16 11,15.5"
           id="path32668"
           inkscape:connector-curvature="0" />
        <path
           style="fill:#d8d8d8;fill-opacity:1"
           d="m 11.75,15.5 0,-0.25 0,0.1875 0,0.1875 0,-0.125 q 0,-0.125 -0.09375,-0.21875 l -0.09375,-0.09375 0.04687,0.04687 0.04687,0.04687 0.3125,-0.3125 0.3125,-0.3125 -0.04687,-0.04687 -0.04687,-0.04687 0.09375,0.09375 Q 12.375,14.75 12.5,14.75 l 0.125,0 -0.1875,0 -0.1875,0 0.25,0 0.25,0 -0.1875,0 -0.1875,0 0.125,0 q 0.125,0 0.25,-0.0625 l 0.125,-0.0625 -0.0625,0.03125 -0.0625,0.03125 0.265625,0.296875 0.265625,0.296875 0.07813,-0.04687 0.07813,-0.04687 -0.15625,0.09375 Q 13.125,15.375 13,15.5 L 12.875,15.625 13.0625,15.4375 13.25,15.25 13,15.5 Q 12.75,15.75 12.5,16 L 12.25,16.25 12.4375,16.0625 12.625,15.875 12.5,16 q -0.125,0.125 -0.21875,0.28125 L 12.1875,16.4375 12.23437,16.35937 12.28124,16.28124 11.96875,16 l -0.3125,-0.28125 -0.04687,0.04687 -0.04687,0.04687 0.09375,-0.09375 Q 11.75,15.625 11.75,15.5 l 0,-0.125 0,0.1875 0,0.1875 0,-0.25"
           id="path32670"
           inkscape:connector-curvature="0" />
        <path
           style="fill:#080808;fill-opacity:1"
           d="m 13,15.5 q 0.25,-0.25 0.625,-0.375 L 14,15 14,15.5 14,16 13.625,16.125 13.25,16.25 13.53125,16.15625 13.8125,16.0625 13.625,16.125 q -0.1875,0.0625 -0.34375,0.15625 L 13.125,16.375 13.203125,16.328125 13.28125,16.28125 13.015625,16.015625 12.75,15.75 13,15.5 M 12.9375,15.5625 12.75,15.75 12.6875,15.8125 12.625,15.875 12.75,15.75 Q 12.875,15.625 13,15.5 l 0.125,-0.125 -0.1875,0.1875"
           id="path32672"
           inkscape:connector-curvature="0" />
        <path
           style="fill:#000000;fill-opacity:0.98823529"
           d="m 14,15.5 0,-0.5 0.5,0 0.5,0 0,0.5 0,0.5 -0.5,0 -0.5,0 0,-0.5"
           id="path32674"
           inkscape:connector-curvature="0" />
        <path
           style="fill:#000000;fill-opacity:0.99215686"
           d="m 15,15.5 0,-0.5 0.5,0 0.5,0 0,0.5 0,0.5 -0.5,0 -0.5,0 0,-0.5"
           id="path32676"
           inkscape:connector-curvature="0" />
        <path
           style="fill:#000000;fill-opacity:0.97254902"
           d="m 16,15.5 0,-0.5 0.5,0 0.5,0 0,0.5 0,0.5 -0.5,0 -0.5,0 0,-0.5"
           id="path32678"
           inkscape:connector-curvature="0" />
        <path
           style="fill:#010101;fill-opacity:0.97254902"
           d="M 17,15.5 17,15 17.375,14.875 17.75,14.75 17.46875,14.84375 17.1875,14.9375 17.375,14.875 q 0.1875,-0.0625 0.3125,-0.1875 l 0.125,-0.125 L 17.75,14.625 17.6875,14.6875 18,15 l 0.3125,0.3125 0.0625,-0.0625 0.0625,-0.0625 -0.125,0.125 q -0.125,0.125 -0.1875,0.3125 L 18.0625,15.8125 18.15625,15.53125 18.25,15.25 18.125,15.625 18,16 17.5,16 17,16 17,15.5"
           id="path32680"
           inkscape:connector-curvature="0" />
        <path
           style="fill:#0c0c0c;fill-opacity:0.32156863"
           d="m 18.125,15.625 q 0.125,-0.375 0.5,-0.5 L 19,15 l 0,0.5 0,0.5 -0.5,0 -0.5,0 0.125,-0.375"
           id="path32682"
           inkscape:connector-curvature="0" />
        <path
           style="fill:#000000;fill-opacity:0.03137255"
           d="m 19,15.5 0,-0.5 0.5,0 0.5,0 0,0.5 Q 20,16 19.5,16 l -0.5,0 0,-0.5"
           id="path32684"
           inkscape:connector-curvature="0" />
        <path
           style="fill:#000000;fill-opacity:0.03921569"
           d="M 3,16.5 3,16 3.5,16 4,16 4,16.5 Q 4,17 3.5,17 3,17 3,16.5"
           id="path32686"
           inkscape:connector-curvature="0" />
        <path
           style="fill:#000000;fill-opacity:0.67843137"
           d="M 8,16.5 8,16 8.546875,15.953125 9.09375,15.90625 9.171875,16.328125 9.25,16.75 9.15625,16.46875 9.0625,16.1875 9.125,16.375 q 0.0625,0.1875 0.1875,0.3125 l 0.125,0.125 L 9.375,16.75 9.3125,16.6875 9,17 8.6875,17.3125 8.75,17.375 8.8125,17.4375 8.6875,17.3125 Q 8.5625,17.1875 8.375,17.125 L 8.1875,17.0625 8.46875,17.15625 8.75,17.25 8.375,17.125 Q 8,17 8,16.5"
           id="path32688"
           inkscape:connector-curvature="0" />
        <path
           style="fill:#5e5e5e;fill-opacity:1"
           d="M 9.171875,16.328125 9.09375,15.90625 9.015625,15.859375 8.9375,15.8125 9.09375,15.90625 Q 9.25,16 9.5,16 L 9.75,16 9.375,16 9,16 9.375,15.875 9.75,15.75 9.46875,15.84375 9.1875,15.9375 9.375,15.875 Q 9.5625,15.8125 9.71875,15.71875 L 9.875,15.625 9.796875,15.671875 9.71875,15.71875 10.015625,16.015625 10.3125,16.3125 10.375,16.25 l 0.0625,-0.0625 -0.125,0.125 q -0.125,0.125 -0.1875,0.3125 L 10.0625,16.8125 10.15625,16.53125 10.25,16.25 10.125,16.625 10,17 9.625,16.875 Q 9.25,16.75 9.171875,16.328125"
           id="path32690"
           inkscape:connector-curvature="0" />
        <path
           style="fill:#ffffff;fill-opacity:1"
           d="m 10.125,16.625 q 0.125,-0.375 0.5,-0.5 L 11,16 l 0,0.5 0,0.5 -0.5,0 -0.5,0 0.125,-0.375"
           id="path32692"
           inkscape:connector-curvature="0" />
        <path
           style="fill:#fefefe;fill-opacity:1"
           d="M 11,16.5 11,16 11.375,15.875 11.75,15.75 11.46875,15.84375 11.1875,15.9375 11.375,15.875 q 0.1875,-0.0625 0.28125,-0.15625 L 11.75,15.625 l -0.04687,0.04687 -0.04687,0.04687 0.3125,0.28125 0.3125,0.28125 0.04687,-0.07813 L 12.375,16.125 12.28125,16.28125 Q 12.1875,16.4375 12.125,16.625 L 12.0625,16.8125 12.15625,16.53125 12.25,16.25 12.125,16.625 12,17 11.5,17 11,17 11,16.5"
           id="path32694"
           inkscape:connector-curvature="0" />
        <path
           style="fill:#343434;fill-opacity:1"
           d="M 12.125,16.625 Q 12.25,16.25 12.5,16 l 0.25,-0.25 0.265625,0.265625 0.265625,0.265625 0.07813,-0.04687 0.07813,-0.04687 -0.15625,0.09375 Q 13.125,16.375 13,16.5 L 12.875,16.625 13.0625,16.4375 13.25,16.25 13,16.5 q -0.25,0.25 -0.625,0.375 L 12,17 12.125,16.625 M 12.8125,15.6875 12.75,15.75 12.5625,15.9375 12.375,16.125 12.5,16 q 0.125,-0.125 0.25,-0.25 l 0.125,-0.125 -0.0625,0.0625"
           id="path32696"
           inkscape:connector-curvature="0" />
        <path
           style="fill:#000000;fill-opacity:0.40392157"
           d="m 13,16.5 q 0.25,-0.25 0.625,-0.375 L 14,16 l 0,0.5 q 0,0.5 -0.375,0.625 L 13.25,17.25 13.53125,17.15625 13.8125,17.0625 13.625,17.125 q -0.1875,0.0625 -0.3125,0.1875 l -0.125,0.125 0.0625,-0.0625 0.0625,-0.0625 -0.296875,-0.296875 -0.296875,-0.296875 -0.07813,0.04687 -0.07813,0.04687 0.15625,-0.09375 Q 12.875,16.625 13,16.5 L 13.125,16.375 12.9375,16.5625 12.75,16.75 13,16.5"
           id="path32698"
           inkscape:connector-curvature="0" />
        <path
           style="fill:#000000;fill-opacity:0.00784314"
           d="m 17,16.5 0,-0.5 0.5,0 0.5,0 0,0.5 0,0.5 -0.5,0 Q 17,17 17,16.5"
           id="path32700"
           inkscape:connector-curvature="0" />
        <path
           style="fill:#000000;fill-opacity:0.03137255"
           d="m 18,16.5 0,-0.5 0.5,0 0.5,0 0,0.5 Q 19,17 18.5,17 l -0.5,0 0,-0.5"
           id="path32702"
           inkscape:connector-curvature="0" />
        <path
           style="fill:#000000;fill-opacity:0.98431373"
           d="M 8.875,17.625 8.75,17.25 8.84375,17.53125 8.9375,17.8125 8.875,17.625 Q 8.8125,17.4375 8.6875,17.3125 L 8.5625,17.1875 8.625,17.25 8.6875,17.3125 9,17 9.3125,16.6875 9.25,16.625 9.1875,16.5625 l 0.125,0.125 q 0.125,0.125 0.3125,0.1875 L 9.8125,16.9375 9.53125,16.84375 9.25,16.75 9.625,16.875 10,17 10.125,17.375 10.25,17.75 10.15625,17.46875 10.0625,17.1875 10.125,17.375 q 0.0625,0.1875 0.1875,0.3125 l 0.125,0.125 L 10.375,17.75 10.3125,17.6875 10,18 9.6875,18.3125 9.75,18.375 9.8125,18.4375 9.6875,18.3125 Q 9.5625,18.1875 9.375,18.125 L 9.1875,18.0625 9.46875,18.15625 9.75,18.25 9.375,18.125 9,18 8.875,17.625"
           id="path32704"
           inkscape:connector-curvature="0" />
        <path
           style="fill:#cccccc;fill-opacity:1"
           d="M 10.125,17.375 10,17 l 0.5,0 0.5,0 0,0.5 0,0.5 -0.375,-0.125 q -0.375,-0.125 -0.5,-0.5"
           id="path32706"
           inkscape:connector-curvature="0" />
        <path
           style="fill:#9e9e9e;fill-opacity:1"
           d="m 11,17.5 0,-0.5 0.5,0 0.5,0 -0.125,0.375 q -0.125,0.375 -0.5,0.5 L 11,18 11,17.5"
           id="path32708"
           inkscape:connector-curvature="0" />
        <path
           style="fill:#000000;fill-opacity:0.90588235"
           d="M 11.875,17.375 12,17 12.375,16.875 12.75,16.75 12.46875,16.84375 12.1875,16.9375 12.375,16.875 q 0.1875,-0.0625 0.34375,-0.15625 L 12.875,16.625 l -0.07813,0.04687 -0.07813,0.04687 0.296875,0.296875 0.296875,0.296875 0.0625,-0.0625 0.0625,-0.0625 -0.125,0.125 q -0.125,0.125 -0.1875,0.3125 L 13.0625,17.8125 13.15625,17.53125 13.25,17.25 13.125,17.625 13,18 12.625,18.125 12.25,18.25 12.53125,18.15625 12.8125,18.0625 12.625,18.125 q -0.1875,0.0625 -0.3125,0.1875 l -0.125,0.125 L 12.25,18.375 12.3125,18.3125 12,18 11.6875,17.6875 11.625,17.75 l -0.0625,0.0625 0.125,-0.125 q 0.125,-0.125 0.1875,-0.3125 L 11.9375,17.1875 11.84375,17.46875 11.75,17.75 11.875,17.375"
           id="path32710"
           inkscape:connector-curvature="0" />
        <path
           style="fill:#000000;fill-opacity:0.19215686"
           d="M 9,18.5 9,18 9.375,18.125 q 0.375,0.125 0.5,0.5 L 10,19 9.5,19 Q 9,19 9,18.5"
           id="path32712"
           inkscape:connector-curvature="0" />
        <path
           style="fill:#1a1a1a;fill-opacity:0.98039216"
           d="M 9.875,18.625 9.75,18.25 9.84375,18.53125 9.9375,18.8125 9.875,18.625 Q 9.8125,18.4375 9.6875,18.3125 L 9.5625,18.1875 9.625,18.25 9.6875,18.3125 10,18 10.3125,17.6875 10.25,17.625 l -0.0625,-0.0625 0.125,0.125 q 0.125,0.125 0.3125,0.1875 L 10.8125,17.9375 10.53125,17.84375 10.25,17.75 10.625,17.875 11,18 11,18.5 11,19 10.5,19 10,19 9.875,18.625"
           id="path32714"
           inkscape:connector-curvature="0" />
        <path
           style="fill:#121212;fill-opacity:0.91372549"
           d="M 11,18.5 11,18 11.375,17.875 11.75,17.75 11.46875,17.84375 11.1875,17.9375 11.375,17.875 q 0.1875,-0.0625 0.3125,-0.1875 l 0.125,-0.125 L 11.75,17.625 11.6875,17.6875 12,18 l 0.3125,0.3125 0.0625,-0.0625 0.0625,-0.0625 -0.125,0.125 q -0.125,0.125 -0.1875,0.3125 L 12.0625,18.8125 12.15625,18.53125 12.25,18.25 12.125,18.625 12,19 11.5,19 11,19 11,18.5"
           id="path32716"
           inkscape:connector-curvature="0" />
        <path
           style="fill:#000000;fill-opacity:0.12156863"
           d="m 12.125,18.625 q 0.125,-0.375 0.5,-0.5 L 13,18 13,18.5 Q 13,19 12.5,19 l -0.5,0 0.125,-0.375"
           id="path32718"
           inkscape:connector-curvature="0" />
        <path
           style="fill:#000000;fill-opacity:0.19215686"
           d="m 10,19.5 0,-0.5 0.5,0 0.5,0 0,0.5 0,0.5 -0.5,0 Q 10,20 10,19.5"
           id="path32720"
           inkscape:connector-curvature="0" />
        <path
           style="fill:#000000;fill-opacity:0.12156863"
           d="m 11,19.5 0,-0.5 0.5,0 0.5,0 0,0.5 Q 12,20 11.5,20 l -0.5,0 0,-0.5"
           id="path32722"
           inkscape:connector-curvature="0" />
      </g>
    </g>
  </g>
</svg>
