<?xml version="1.0" encoding="UTF-8" standalone="no"?>
<!-- Created with Inkscape (http://www.inkscape.org/) -->

<svg
   xmlns:dc="http://purl.org/dc/elements/1.1/"
   xmlns:cc="http://creativecommons.org/ns#"
   xmlns:rdf="http://www.w3.org/1999/02/22-rdf-syntax-ns#"
   xmlns:svg="http://www.w3.org/2000/svg"
   xmlns="http://www.w3.org/2000/svg"
   xmlns:sodipodi="http://sodipodi.sourceforge.net/DTD/sodipodi-0.dtd"
   xmlns:inkscape="http://www.inkscape.org/namespaces/inkscape"
   width="20"
   height="20"
   viewBox="0 0 20 20"
   id="svg3347"
   version="1.1"
   inkscape:version="0.91 r13725"
   sodipodi:docname="Civ5Icon.Omega.svg">
  <defs
     id="defs3349" />
  <sodipodi:namedview
     id="base"
     pagecolor="#ffffff"
     bordercolor="#666666"
     borderopacity="1.0"
     inkscape:pageopacity="0.0"
     inkscape:pageshadow="2"
     inkscape:zoom="11.2"
     inkscape:cx="13.251856"
     inkscape:cy="8.3638322"
     inkscape:document-units="px"
     inkscape:current-layer="layer1"
     showgrid="false"
     units="px"
     inkscape:window-width="1477"
     inkscape:window-height="962"
     inkscape:window-x="533"
     inkscape:window-y="95"
     inkscape:window-maximized="0" />
  <metadata
     id="metadata3352">
    <rdf:RDF>
      <cc:Work
         rdf:about="">
        <dc:format>image/svg+xml</dc:format>
        <dc:type
           rdf:resource="http://purl.org/dc/dcmitype/StillImage" />
        <dc:title></dc:title>
      </cc:Work>
    </rdf:RDF>
  </metadata>
  <g
     inkscape:label="Layer 1"
     inkscape:groupmode="layer"
     id="layer1"
     transform="translate(0,-1032.3622)">
    <g
       transform="translate(-0.84821436,1031.514)"
       id="g24943">
      <path
         style="fill:#000000;fill-opacity:0"
         d="M 0,0.5 0,0 0.5,0 1,0 1.5,0 2,0 2.5,0 3,0 3.5,0 4,0 4.5,0 5,0 5.5,0 6,0 6.5,0 7,0 7.5,0 8,0 8.5,0 9,0 9.5,0 10,0 l 0.5,0 0.5,0 0.5,0 0.5,0 0.5,0 0.5,0 0.5,0 0.5,0 0.5,0 0.5,0 0.5,0 0.5,0 0.5,0 0.5,0 0.5,0 0.5,0 0.5,0 0.5,0 0.5,0 0.5,0 0.5,0 0.5,0 0.5,0 0.5,0 0,0.5 0,0.5 0,0.5 0,0.5 0,0.5 0,0.5 0,0.5 0,0.5 0,0.5 0,0.5 0,0.5 0,0.5 0,0.5 0,0.5 0,0.5 0,0.5 0,0.5 0,0.5 0,0.5 0,0.5 0,0.5 0,0.5 0,0.5 0,0.5 0,0.5 0,0.5 0,0.5 0,0.5 0,0.5 0,0.5 0,0.5 0,0.5 0,0.5 0,0.5 0,0.5 0,0.5 0,0.5 0,0.5 0,0.5 0,0.5 0,0.5 0,0.5 0,0.5 0,0.5 -0.5,0 L 21,22 20.5,22 20,22 19.5,22 19,22 18.5,22 18,22 17.5,22 17,22 16.5,22 16,22 15.5,22 15,22 14.5,22 14,22 13.5,22 13,22 12.5,22 12,22 11.5,22 11,22 10.5,22 10,22 9.5,22 9,22 8.5,22 8,22 7.5,22 7,22 6.5,22 6,22 5.5,22 5,22 4.5,22 4,22 3.5,22 3,22 2.5,22 2,22 1.5,22 1,22 0.5,22 0,22 0,21.5 0,21 0,20.5 0,20 0,19.5 0,19 0,18.5 0,18 0,17.5 0,17 0,16.5 0,16 0,15.5 0,15 0,14.5 0,14 0,13.5 0,13 0,12.5 0,12 0,11.5 0,11 0,10.5 0,10 0,9.5 0,9 0,8.5 0,8 0,7.5 0,7 0,6.5 0,6 0,5.5 0,5 0,4.5 0,4 0,3.5 0,3 0,2.5 0,2 0,1.5 0,1 0,0.5 M 19.5,21 q 0.5,0 0.875,-0.125 0.375,-0.125 0.5,-0.5 L 21,20 21,19.5 21,19 21,18.5 21,18 21,17.5 21,17 21,16.5 21,16 21,15.5 21,15 21,14.5 21,14 21,13.5 21,13 21,12.5 21,12 21,11.5 21,11 21,10.5 21,10 21,9.5 21,9 21,8.5 21,8 21,7.5 21,7 21,6.5 21,6 21,5.5 21,5 21,4.5 21,4 21,3.5 21,3 21,2.5 21,2 20.875,1.625 Q 20.75,1.25 20.375,1.125 20,1 19.5,1 19,1 18.5,1 18,1 17.5,1 17,1 16.5,1 L 16,1 15.5,1 Q 15,1 14.5,1 L 14,1 13.5,1 13,1 12.5,1 12,1 11.5,1 11,1 10.5,1 10,1 9.5,1 Q 9,1 8.5,1 8,1 7.5,1 7,1 6.5,1 6,1 5.5,1 5,1 4.5,1 4,1 3.5,1 3,1 2.5,1 2,1 1.625,1.125 1.25,1.25 1.125,1.625 L 1,2 1,2.5 1,3 1,3.5 1,4 1,4.5 1,5 1,5.5 1,6 1,6.5 1,7 1,7.5 1,8 1,8.5 1,9 1,9.5 1,10 1,10.5 1,11 1,11.5 1,12 1,12.5 1,13 1,13.5 1,14 1,14.5 1,15 1,15.5 1,16 1,16.5 1,17 1,17.5 1,18 1,18.5 1,19 1,19.5 1,20 1.125,20.375 q 0.125,0.375 0.5,0.5 Q 2,21 2.5,21 q 0.5,0 1,0 l 0.5,0 0.5,0 0.5,0 0.5,0 q 0.5,0 1,0 l 0.5,0 0.5,0 0.5,0 0.5,0 q 0.5,0 1,0 0.5,0 1,0 l 0.5,0 0.5,0 0.5,0 0.5,0 0.5,0 0.5,0 0.5,0 0.5,0 q 0.5,0 1,0 0.5,0 1,0 0.5,0 1,0 0.5,0 1,0 0.5,0 1,0"
         id="path24945"
         inkscape:connector-curvature="0" />
      <path
         style="fill:#ff0b00;fill-opacity:1"
         d="M 1.125,1.625 Q 1.25,1.25 1.625,1.125 2,1 2.5,1 3,1 3.5,1 4,1 4.5,1 5,1 5.5,1 6,1 6.5,1 7,1 7.5,1 8,1 8.5,1 9,1 9.5,1 L 10,1 10,1.5 10,2 9.5,2 Q 9,2 8.5,2 8,2 7.5,2 7,2 6.5,2 6,2 5.5,2 5,2 4.5,2 4,2 3.5,2 3,2 2.625,2.125 L 2.25,2.25 2.53125,2.15625 2.8125,2.0625 2.625,2.125 Q 2.4375,2.1875 2.3125,2.3125 L 2.1875,2.4375 2.25,2.375 2.3125,2.3125 2.03125,2.03125 Q 1.75,1.75 1.375,1.875 L 1,2 1.125,1.625"
         id="path24947"
         inkscape:connector-curvature="0" />
      <path
         style="fill:#ff0a00;fill-opacity:1"
         d="M 10,1.5 10,1 10.5,1 11,1 11,1.5 11,2 10.5,2 10,2 10,1.5"
         id="path24949"
         inkscape:connector-curvature="0" />
      <path
         style="fill:#ff0b00;fill-opacity:1"
         d="M 11,1.5 11,1 11.5,1 12,1 12,1.5 12,2 11.5,2 11,2 11,1.5"
         id="path24951"
         inkscape:connector-curvature="0" />
      <path
         style="fill:#ff0a00;fill-opacity:1"
         d="M 12,1.5 12,1 12.5,1 13,1 13,1.5 13,2 12.5,2 12,2 12,1.5"
         id="path24953"
         inkscape:connector-curvature="0" />
      <path
         style="fill:#ff0b00;fill-opacity:1"
         d="M 13,1.5 13,1 13.5,1 14,1 14,1.5 14,2 13.5,2 13,2 13,1.5"
         id="path24955"
         inkscape:connector-curvature="0" />
      <path
         style="fill:#ff0a00;fill-opacity:1"
         d="M 14,1.5 14,1 14.5,1 q 0.5,0 1,0 L 16,1 16,1.5 16,2 15.5,2 Q 15,2 14.5,2 L 14,2 14,1.5"
         id="path24957"
         inkscape:connector-curvature="0" />
      <path
         style="fill:#ff0b00;fill-opacity:1"
         d="M 16,1.5 16,1 16.5,1 q 0.5,0 1,0 0.5,0 1,0 0.5,0 1,0 0.5,0 0.875,0.125 0.375,0.125 0.5,0.5 L 21,2 20.625,1.875 Q 20.25,1.75 19.96875,2.03125 L 19.6875,2.3125 19.75,2.375 19.8125,2.4375 19.6875,2.3125 Q 19.5625,2.1875 19.375,2.125 L 19.1875,2.0625 19.46875,2.15625 19.75,2.25 19.375,2.125 Q 19,2 18.5,2 18,2 17.5,2 17,2 16.5,2 L 16,2 16,1.5"
         id="path24959"
         inkscape:connector-curvature="0" />
      <path
         style="fill:#ff0e00;fill-opacity:1"
         d="M 1,2.5 1,2 1.375,1.875 Q 1.75,1.75 2.03125,2.03125 L 2.3125,2.3125 2.375,2.25 2.4375,2.1875 2.3125,2.3125 Q 2.1875,2.4375 2.125,2.625 L 2.0625,2.8125 2.15625,2.53125 2.25,2.25 2.125,2.625 2,3 1.5,3 1,3 1,2.5"
         id="path24961"
         inkscape:connector-curvature="0" />
      <path
         style="fill:#000000;fill-opacity:1"
         d="M 2.125,2.625 Q 2.25,2.25 2.625,2.125 3,2 3.5,2 4,2 4.5,2 5,2 5.5,2 6,2 6.5,2 7,2 7.5,2 8,2 8.5,2 9,2 9.5,2 l 0.5,0 0.5,0 0.5,0 0.5,0 0.5,0 0.5,0 0.5,0 0.5,0 0.5,0 0.5,0 q 0.5,0 1,0 l 0.5,0 0.5,0 q 0.5,0 1,0 0.5,0 1,0 0.5,0 0.875,0.125 0.375,0.125 0.5,0.5 L 20,3 l 0,0.5 0,0.5 0,0.5 0,0.5 0,0.5 0,0.5 0,0.5 0,0.5 0,0.5 0,0.5 0,0.5 0,0.5 0,0.5 0,0.5 0,0.5 0,0.5 0,0.5 0,0.5 0,0.5 0,0.5 0,0.5 0,0.5 0,0.5 0,0.5 0,0.5 0,0.5 0,0.5 0,0.5 0,0.5 0,0.5 0,0.5 0,0.5 -0.125,0.375 q -0.125,0.375 -0.5,0.5 L 19,20 19.125,19.625 Q 19.25,19.25 18.953125,18.984375 l -0.296875,-0.265625 -0.04687,0.04687 -0.04687,0.04687 0.09375,-0.09375 Q 18.75,18.625 18.75,18.5 l 0,-0.125 0,0.1875 0,0.1875 0,-0.25 0,-0.25 0,0.1875 0,0.1875 0,-0.125 q 0,-0.125 -0.09375,-0.21875 l -0.09375,-0.09375 0.04687,0.04687 0.04687,0.04687 0.296875,-0.265625 Q 19.25,17.75 19.125,17.375 19,17 18.625,16.875 18.25,16.75 17.96875,17.03125 l -0.28125,0.28125 0.0625,0.0625 0.0625,0.0625 -0.125,-0.125 Q 17.5625,17.1875 17.375,17.125 L 17.1875,17.0625 17.46875,17.15625 17.75,17.25 17.375,17.125 17,17 16.5,17 16,17 16.125,16.625 Q 16.25,16.25 16.5,16 q 0.25,-0.25 0.3125,-0.6875 l 0.0625,-0.4375 0.5625,0.0625 Q 18,15 18.125,14.625 18.25,14.25 17.96875,13.96875 L 17.6875,13.6875 17.625,13.75 l -0.0625,0.0625 0.125,-0.125 q 0.125,-0.125 0.1875,-0.3125 L 17.9375,13.1875 17.84375,13.46875 17.75,13.75 17.875,13.375 Q 18,13 18,12.5 l 0,-0.5 0.5,0 Q 19,12 19,11.5 L 19,11 19,10.5 Q 19,10 18.5,10 L 18,10 18,9.5 18,9 17.875,8.625 17.75,8.25 17.84375,8.53125 17.9375,8.8125 17.875,8.625 Q 17.8125,8.4375 17.6875,8.3125 L 17.5625,8.1875 17.625,8.25 17.6875,8.3125 17.96875,8.03125 Q 18.25,7.75 18.125,7.375 18,7 17.5,7 L 17,7 16.875,6.625 16.75,6.25 16.84375,6.53125 16.9375,6.8125 16.875,6.625 Q 16.8125,6.4375 16.6875,6.3125 L 16.5625,6.1875 16.625,6.25 16.6875,6.3125 16.96875,6.03125 Q 17.25,5.75 17.125,5.375 17,5 16.625,4.875 16.25,4.75 15.96875,5.03125 L 15.6875,5.3125 15.75,5.375 15.8125,5.4375 15.6875,5.3125 Q 15.5625,5.1875 15.375,5.125 L 15.1875,5.0625 15.46875,5.15625 15.75,5.25 15.375,5.125 15,5 14.875,4.625 Q 14.75,4.25 14.328125,4.171875 L 13.90625,4.09375 13.953125,3.546875 Q 14,3 13.5,3 L 13,3 12.625,2.875 Q 12.25,2.75 11.96875,3.03125 L 11.6875,3.3125 11.75,3.375 11.8125,3.4375 11.6875,3.3125 Q 11.5625,3.1875 11.375,3.125 L 11.1875,3.0625 11.46875,3.15625 11.75,3.25 11.375,3.125 11,3 10.625,3.125 10.25,3.25 10.53125,3.15625 10.8125,3.0625 10.625,3.125 Q 10.4375,3.1875 10.3125,3.3125 L 10.1875,3.4375 10.25,3.375 10.3125,3.3125 10.03125,3.03125 Q 9.75,2.75 9.375,2.875 L 9,3 8.5,3 Q 8,3 8,3.5 L 8,4 7.625,4.125 7.25,4.25 7.53125,4.15625 7.8125,4.0625 7.625,4.125 Q 7.4375,4.1875 7.3125,4.3125 L 7.1875,4.4375 7.25,4.375 7.3125,4.3125 7.03125,4.03125 Q 6.75,3.75 6.375,3.875 6,4 5.875,4.375 5.75,4.75 5.375,4.875 5,5 4.875,5.375 4.75,5.75 4.375,5.875 4,6 3.875,6.375 3.75,6.75 4.03125,7.03125 L 4.3125,7.3125 4.375,7.25 4.4375,7.1875 4.3125,7.3125 Q 4.1875,7.4375 4.125,7.625 L 4.0625,7.8125 4.15625,7.53125 4.25,7.25 4.125,7.625 4,8 3.5,8 Q 3,8 3,8.5 L 3,9 3,9.5 3,10 3,10.5 3,11 3,11.5 3,12 3,12.5 Q 3,13 3.5,13 L 4,13 4,13.5 4,14 4,13.625 4,13.25 4,13.5 q 0,0.25 0.125,0.375 L 4.25,14 4.1875,13.9375 4.125,13.875 4.1875,14.3125 Q 4.25,14.75 4.625,14.875 L 5,15 5.125,15.375 Q 5.25,15.75 5.5,16 5.75,16.25 5.875,16.625 6,17 5.5,17 L 5,17 4.5,17 4,17 3.625,17.125 Q 3.25,17.25 3.125,17.625 3,18 3.125,18.375 L 3.25,18.75 3.15625,18.46875 3.0625,18.1875 3.125,18.375 q 0.0625,0.1875 0.1875,0.3125 l 0.125,0.125 L 3.375,18.75 3.3125,18.6875 3.03125,18.96875 Q 2.75,19.25 2.875,19.625 L 3,20 2.625,19.875 Q 2.25,19.75 2.125,19.375 L 2,19 2,18.5 2,18 2,17.5 2,17 2,16.5 2,16 2,15.5 2,15 2,14.5 2,14 2,13.5 2,13 2,12.5 2,12 2,11.5 2,11 2,10.5 2,10 2,9.5 2,9 2,8.5 2,8 2,7.5 2,7 2,6.5 2,6 2,5.5 2,5 2,4.5 2,4 2,3.5 2,3 2.125,2.625 M 4,13.375 4,13 4,12.875 4,12.75 4,13 q 0,0.25 0,0.5 l 0,0.25 0,-0.375 M 15.875,17 16,17 l 0.375,0 0.375,0 -0.25,0 q -0.25,0 -0.5,0 l -0.25,0 0.125,0"
         id="path24963"
         inkscape:connector-curvature="0" />
      <path
         style="fill:#ff0e00;fill-opacity:1"
         d="M 19.875,2.625 19.75,2.25 19.84375,2.53125 19.9375,2.8125 19.875,2.625 Q 19.8125,2.4375 19.6875,2.3125 L 19.5625,2.1875 19.625,2.25 19.6875,2.3125 19.96875,2.03125 Q 20.25,1.75 20.625,1.875 L 21,2 21,2.5 21,3 20.5,3 20,3 19.875,2.625"
         id="path24965"
         inkscape:connector-curvature="0" />
      <path
         style="fill:#ff1200;fill-opacity:1"
         d="M 1,3.5 1,3 1.5,3 2,3 2,3.5 2,4 1.5,4 1,4 1,3.5"
         id="path24967"
         inkscape:connector-curvature="0" />
      <path
         style="fill:#090908;fill-opacity:1"
         d="M 8,3.5 Q 8,3 8.5,3 L 9,3 9,3.5 9,4 8.5,4 8,4 8,3.5"
         id="path24969"
         inkscape:connector-curvature="0" />
      <path
         style="fill:#2a2726;fill-opacity:1"
         d="M 9,3.5 9,3 9.375,2.875 Q 9.75,2.75 10.03125,3.03125 L 10.3125,3.3125 10.375,3.25 10.4375,3.1875 10.3125,3.3125 Q 10.1875,3.4375 10.125,3.625 L 10.0625,3.8125 10.15625,3.53125 10.25,3.25 10.125,3.625 10,4 9.5,4 9,4 9,3.5"
         id="path24971"
         inkscape:connector-curvature="0" />
      <path
         style="fill:#3e3b36;fill-opacity:1"
         d="m 10.125,3.625 q 0.125,-0.375 0.5,-0.5 L 11,3 11,3.5 11,4 10.5,4 10,4 10.125,3.625"
         id="path24973"
         inkscape:connector-curvature="0" />
      <path
         style="fill:#3b3932;fill-opacity:1"
         d="M 11,3.5 11,3 11.375,3.125 q 0.375,0.125 0.5,0.5 L 12,4 11.5,4 11,4 11,3.5"
         id="path24975"
         inkscape:connector-curvature="0" />
      <path
         style="fill:#221f1b;fill-opacity:1"
         d="M 11.875,3.625 11.75,3.25 11.84375,3.53125 11.9375,3.8125 11.875,3.625 Q 11.8125,3.4375 11.6875,3.3125 L 11.5625,3.1875 11.625,3.25 11.6875,3.3125 11.96875,3.03125 Q 12.25,2.75 12.625,2.875 L 13,3 13,3.5 13,4 12.5,4 12,4 11.875,3.625"
         id="path24977"
         inkscape:connector-curvature="0" />
      <path
         style="fill:#010100;fill-opacity:1"
         d="M 13,3.5 13,3 13.5,3 Q 14,3 13.953125,3.546875 L 13.90625,4.09375 13.984375,4.140625 14.0625,4.1875 13.90625,4.09375 Q 13.75,4 13.5,4 L 13.25,4 13.625,4 14,4 13.5,4 13,4 13,3.5"
         id="path24979"
         inkscape:connector-curvature="0" />
      <path
         style="fill:#ff1100;fill-opacity:1"
         d="M 20,3.5 20,3 20.5,3 21,3 21,3.5 21,4 20.5,4 20,4 20,3.5"
         id="path24981"
         inkscape:connector-curvature="0" />
      <path
         style="fill:#ff1600;fill-opacity:1"
         d="M 1,4.5 1,4 1.5,4 2,4 2,4.5 2,5 1.5,5 1,5 1,4.5"
         id="path24983"
         inkscape:connector-curvature="0" />
      <path
         style="fill:#090908;fill-opacity:1"
         d="M 5.875,4.375 Q 6,4 6.375,3.875 6.75,3.75 7.03125,4.03125 L 7.3125,4.3125 7.375,4.25 7.4375,4.1875 7.3125,4.3125 Q 7.1875,4.4375 7.125,4.625 L 7.0625,4.8125 7.15625,4.53125 7.25,4.25 7.125,4.625 7,5 6.625,5.125 6.25,5.25 6.53125,5.15625 6.8125,5.0625 6.625,5.125 Q 6.4375,5.1875 6.28125,5.28125 L 6.125,5.375 6.203125,5.328125 6.28125,5.28125 5.984375,4.984375 5.6875,4.6875 5.625,4.75 5.5625,4.8125 5.6875,4.6875 Q 5.8125,4.5625 5.875,4.375 L 5.9375,4.1875 5.84375,4.46875 5.75,4.75 5.875,4.375"
         id="path24985"
         inkscape:connector-curvature="0" />
      <path
         style="fill:#7e7a77;fill-opacity:1"
         d="M 7.125,4.625 Q 7.25,4.25 7.625,4.125 L 8,4 7.71875,4.09375 7.4375,4.1875 7.625,4.125 Q 7.8125,4.0625 8.03125,4.03125 L 8.25,4 8.140625,4.015625 8.03125,4.03125 7.890625,4.390625 Q 7.75,4.75 7.375,4.875 L 7,5 7.125,4.625"
         id="path24987"
         inkscape:connector-curvature="0" />
      <path
         style="fill:#e0e4d0;fill-opacity:1"
         d="M 7.890625,4.390625 8.03125,4.03125 7.921875,4.046875 7.8125,4.0625 8.03125,4.03125 Q 8.25,4 8.5,4 L 8.75,4 8.375,4 8,4 8.5,4 9,4 9,4.5 9,5 8.625,5.125 8.25,5.25 8.53125,5.15625 8.8125,5.0625 8.625,5.125 Q 8.4375,5.1875 8.3125,5.3125 L 8.1875,5.4375 8.25,5.375 8.3125,5.3125 8,5 7.6875,4.6875 7.625,4.75 7.5625,4.8125 7.6875,4.6875 Q 7.8125,4.5625 7.875,4.375 L 7.9375,4.1875 7.84375,4.46875 7.75,4.75 7.890625,4.390625"
         id="path24989"
         inkscape:connector-curvature="0" />
      <path
         style="fill:#efffe0;fill-opacity:1"
         d="M 9,4.5 9,4 9.5,4 10,4 10,4.5 10,5 9.5,5 9,5 9,4.5"
         id="path24991"
         inkscape:connector-curvature="0" />
      <path
         style="fill:#eaffdc;fill-opacity:1"
         d="M 10,4.5 10,4 10.5,4 11,4 11,4.5 11,5 10.5,5 10,5 10,4.5"
         id="path24993"
         inkscape:connector-curvature="0" />
      <path
         style="fill:#edffdb;fill-opacity:1"
         d="M 11,4.5 11,4 11.5,4 12,4 12,4.5 12,5 11.5,5 11,5 11,4.5"
         id="path24995"
         inkscape:connector-curvature="0" />
      <path
         style="fill:#f0ffd5;fill-opacity:1"
         d="M 12,4.5 12,4 12.5,4 13,4 13,4.5 13,5 12.5,5 12,5 12,4.5"
         id="path24997"
         inkscape:connector-curvature="0" />
      <path
         style="fill:#d0d0ab;fill-opacity:1"
         d="M 13,4.5 13,4 13.5,4 Q 14,4 14.125,4.375 L 14.25,4.75 14.15625,4.46875 14.0625,4.1875 14.125,4.375 q 0.0625,0.1875 0.1875,0.3125 l 0.125,0.125 L 14.375,4.75 14.3125,4.6875 14.015625,4.984375 13.71875,5.28125 13.796875,5.328125 13.875,5.375 13.71875,5.28125 Q 13.5625,5.1875 13.375,5.125 L 13.1875,5.0625 13.46875,5.15625 13.75,5.25 13.375,5.125 13,5 13,4.5"
         id="path24999"
         inkscape:connector-curvature="0" />
      <path
         style="fill:#535543;fill-opacity:1"
         d="M 14.125,4.375 14,4 14.09375,4.28125 14.1875,4.5625 14.125,4.375 Q 14.0625,4.1875 13.90625,4.09375 L 13.75,4 13.82813,4.046875 13.90626,4.09375 14.328135,4.171875 Q 14.75,4.25 14.875,4.625 L 15,5 14.625,4.875 q -0.375,-0.125 -0.5,-0.5"
         id="path25001"
         inkscape:connector-curvature="0" />
      <path
         style="fill:#ff1600;fill-opacity:1"
         d="M 20,4.5 20,4 20.5,4 21,4 21,4.5 21,5 20.5,5 20,5 20,4.5"
         id="path25003"
         inkscape:connector-curvature="0" />
      <path
         style="fill:#ff1a00;fill-opacity:1"
         d="M 1,5.5 1,5 1.5,5 2,5 2,5.5 2,6 1.5,6 1,6 1,5.5"
         id="path25005"
         inkscape:connector-curvature="0" />
      <path
         style="fill:#191818;fill-opacity:1"
         d="M 4.875,5.375 Q 5,5 5.375,4.875 L 5.75,4.75 5.46875,4.84375 5.1875,4.9375 5.375,4.875 Q 5.5625,4.8125 5.6875,4.6875 L 5.8125,4.5625 5.75,4.625 5.6875,4.6875 5.984375,4.984375 6.28125,5.28125 6.359375,5.234375 6.4375,5.1875 6.28125,5.28125 Q 6.125,5.375 6,5.5 L 5.875,5.625 6.0625,5.4375 6.25,5.25 6,5.5 Q 5.75,5.75 5.5,6 L 5.25,6.25 5.4375,6.0625 5.625,5.875 5.5,6 Q 5.375,6.125 5.28125,6.28125 L 5.1875,6.4375 5.234375,6.359375 5.28125,6.28125 4.984375,5.984375 4.6875,5.6875 4.625,5.75 4.5625,5.8125 4.6875,5.6875 Q 4.8125,5.5625 4.875,5.375 L 4.9375,5.1875 4.84375,5.46875 4.75,5.75 4.875,5.375"
         id="path25007"
         inkscape:connector-curvature="0" />
      <path
         style="fill:#cdc9c1;fill-opacity:1"
         d="M 6,5.5 Q 6.25,5.25 6.625,5.125 L 7,5 6.875,5.375 Q 6.75,5.75 6.5,6 L 6.25,6.25 6.4375,6.0625 6.625,5.875 6.5,6 Q 6.375,6.125 6.28125,6.28125 L 6.1875,6.4375 6.234375,6.359375 6.28125,6.28125 6.015625,6.015625 5.75,5.75 6,5.5 M 5.9375,5.5625 5.75,5.75 5.6875,5.8125 5.625,5.875 5.75,5.75 Q 5.875,5.625 6,5.5 L 6.125,5.375 5.9375,5.5625"
         id="path25009"
         inkscape:connector-curvature="0" />
      <path
         style="fill:#f5fff0;fill-opacity:1"
         d="M 6.875,5.375 7,5 7.375,4.875 7.75,4.75 7.46875,4.84375 7.1875,4.9375 7.375,4.875 Q 7.5625,4.8125 7.6875,4.6875 L 7.8125,4.5625 7.75,4.625 7.6875,4.6875 8,5 8.3125,5.3125 8.375,5.25 8.4375,5.1875 8.3125,5.3125 Q 8.1875,5.4375 8.125,5.625 L 8.0625,5.8125 8.15625,5.53125 8.25,5.25 8.125,5.625 8,6 7.625,6.125 7.25,6.25 7.53125,6.15625 7.8125,6.0625 7.625,6.125 Q 7.4375,6.1875 7.28125,6.28125 L 7.125,6.375 7.203125,6.328125 7.28125,6.28125 7,6 6.71875,5.71875 6.671875,5.796875 6.625,5.875 6.71875,5.71875 Q 6.8125,5.5625 6.875,5.375 L 6.9375,5.1875 6.84375,5.46875 6.75,5.75 6.875,5.375"
         id="path25011"
         inkscape:connector-curvature="0" />
      <path
         style="fill:#9dcca2;fill-opacity:1"
         d="M 8.125,5.625 Q 8.25,5.25 8.625,5.125 L 9,5 8.71875,5.09375 8.4375,5.1875 8.625,5.125 Q 8.8125,5.0625 9.03125,5.03125 L 9.25,5 9.140625,5.015625 9.03125,5.03125 9.015625,5.515625 9,6 8.5,6 8,6 8.125,5.625 M 8.625,6 9,6 9.125,6 9.25,6 9,6 Q 8.75,6 8.5,6 L 8.25,6 8.625,6"
         id="path25013"
         inkscape:connector-curvature="0" />
      <path
         style="fill:#537a5d;fill-opacity:1"
         d="M 9.015625,5.515625 9.03125,5.03125 8.921875,5.046875 8.8125,5.0625 9.03125,5.03125 Q 9.25,5 9.5,5 L 9.75,5 9.375,5 9,5 9.5,5 10,5 10,5.5 10,6 9.5,6 9,6 9.015625,5.515625 M 8.875,6 9,6 9.375,6 9.75,6 9.5,6 Q 9.25,6 9,6 L 8.75,6 8.875,6"
         id="path25015"
         inkscape:connector-curvature="0" />
      <path
         style="fill:#385441;fill-opacity:1"
         d="M 10,5.5 10,5 10.5,5 11,5 11,5.5 11,6 10.5,6 10,6 10,5.5"
         id="path25017"
         inkscape:connector-curvature="0" />
      <path
         style="fill:#3c5b45;fill-opacity:1"
         d="M 11,5.5 11,5 11.5,5 12,5 12,5.5 12,6 11.5,6 11,6 11,5.5"
         id="path25019"
         inkscape:connector-curvature="0" />
      <path
         style="fill:#628a6b;fill-opacity:1"
         d="M 12,5.5 12,5 12.5,5 13,5 12.625,5 12.25,5 12.5,5 q 0.25,0 0.46875,0.03125 L 13.1875,5.0625 13.078125,5.046875 12.96875,5.03125 l 0,0.5 0,0.5 0.109375,0.015625 L 13.1875,6.0625 12.96875,6.03125 Q 12.75,6 12.5,6 L 12.25,6 12.625,6 13,6 12.5,6 12,6 12,5.5"
         id="path25021"
         inkscape:connector-curvature="0" />
      <path
         style="fill:#bde7b7;fill-opacity:1"
         d="m 12.96875,5.53125 0,-0.5 L 12.859375,5.015625 12.75,5 12.96875,5.03125 Q 13.1875,5.0625 13.375,5.125 L 13.5625,5.1875 13.28125,5.09375 13,5 13.375,5.125 Q 13.75,5.25 14,5.5 L 14.25,5.75 13.984375,6.015625 13.71875,6.28125 13.796875,6.328125 13.875,6.375 13.71875,6.28125 Q 13.5625,6.1875 13.375,6.125 L 13.1875,6.0625 13.46875,6.15625 13.75,6.25 13.375,6.125 13,6 13.28125,6.09375 13.5625,6.1875 13.375,6.125 Q 13.1875,6.0625 12.96875,6.03125 L 12.75,6 l 0.109375,0.015625 0.109375,0.015625 0,-0.5 M 14.3125,5.8125 14.25,5.75 14.0625,5.5625 13.875,5.375 14,5.5 q 0.125,0.125 0.25,0.25 l 0.125,0.125 -0.0625,-0.0625"
         id="path25023"
         inkscape:connector-curvature="0" />
      <path
         style="fill:#f7ffd5;fill-opacity:1"
         d="M 14,5.5 13.75,5.25 13.9375,5.4375 14.125,5.625 14,5.5 Q 13.875,5.375 13.71875,5.28125 L 13.5625,5.1875 13.640625,5.234375 13.71875,5.28125 14.015625,4.984375 14.3125,4.6875 14.25,4.625 14.1875,4.5625 l 0.125,0.125 q 0.125,0.125 0.3125,0.1875 L 14.8125,4.9375 14.53125,4.84375 14.25,4.75 14.625,4.875 15,5 15.125,5.375 15.25,5.75 15.15625,5.46875 15.0625,5.1875 15.125,5.375 q 0.0625,0.1875 0.1875,0.3125 l 0.125,0.125 L 15.375,5.75 15.3125,5.6875 15.015625,5.984375 14.71875,6.28125 14.765625,6.359375 14.8125,6.4375 14.71875,6.28125 Q 14.625,6.125 14.5,6 L 14.375,5.875 14.5625,6.0625 14.75,6.25 14.5,6 Q 14.25,5.75 14,5.5"
         id="path25025"
         inkscape:connector-curvature="0" />
      <path
         style="fill:#799170;fill-opacity:1"
         d="M 15.125,5.375 15,5 15.375,5.125 q 0.375,0.125 0.5,0.5 L 16,6 15.625,5.875 q -0.375,-0.125 -0.5,-0.5"
         id="path25027"
         inkscape:connector-curvature="0" />
      <path
         style="fill:#020303;fill-opacity:1"
         d="M 15.875,5.625 15.75,5.25 15.84375,5.53125 15.9375,5.8125 15.875,5.625 Q 15.8125,5.4375 15.6875,5.3125 L 15.5625,5.1875 15.625,5.25 15.6875,5.3125 15.96875,5.03125 Q 16.25,4.75 16.625,4.875 17,5 17.125,5.375 17.25,5.75 16.96875,6.03125 L 16.6875,6.3125 16.75,6.375 16.8125,6.4375 16.6875,6.3125 Q 16.5625,6.1875 16.375,6.125 L 16.1875,6.0625 16.46875,6.15625 16.75,6.25 16.375,6.125 16,6 15.875,5.625"
         id="path25029"
         inkscape:connector-curvature="0" />
      <path
         style="fill:#ff1a00;fill-opacity:1"
         d="M 20,5.5 20,5 20.5,5 21,5 21,5.5 21,6 20.5,6 20,6 20,5.5"
         id="path25031"
         inkscape:connector-curvature="0" />
      <path
         style="fill:#ff1e00;fill-opacity:1"
         d="M 1,6.5 1,6 1.5,6 2,6 2,6.5 2,7 1.5,7 1,7 1,6.5"
         id="path25033"
         inkscape:connector-curvature="0" />
      <path
         style="fill:#0b0a0a;fill-opacity:1"
         d="M 3.875,6.375 Q 4,6 4.375,5.875 L 4.75,5.75 4.46875,5.84375 4.1875,5.9375 4.375,5.875 Q 4.5625,5.8125 4.6875,5.6875 L 4.8125,5.5625 4.75,5.625 4.6875,5.6875 4.984375,5.984375 5.28125,6.28125 5.328125,6.203125 5.375,6.125 5.28125,6.28125 Q 5.1875,6.4375 5.125,6.625 L 5.0625,6.8125 5.15625,6.53125 5.25,6.25 5.125,6.625 5,7 4.625,7.125 4.25,7.25 4.53125,7.15625 4.8125,7.0625 4.625,7.125 Q 4.4375,7.1875 4.3125,7.3125 L 4.1875,7.4375 4.25,7.375 4.3125,7.3125 4.03125,7.03125 Q 3.75,6.75 3.875,6.375"
         id="path25035"
         inkscape:connector-curvature="0" />
      <path
         style="fill:#cac8bd;fill-opacity:1"
         d="M 5.125,6.625 Q 5.25,6.25 5.5,6 L 5.75,5.75 6.015625,6.015625 6.28125,6.28125 6.328125,6.203125 6.375,6.125 6.28125,6.28125 Q 6.1875,6.4375 6.125,6.625 L 6.0625,6.8125 6.15625,6.53125 6.25,6.25 6.125,6.625 6,7 5.5,7 5,7 5.125,6.625 M 5.8125,5.6875 5.75,5.75 5.5625,5.9375 5.375,6.125 5.5,6 Q 5.625,5.875 5.75,5.75 L 5.875,5.625 5.8125,5.6875"
         id="path25037"
         inkscape:connector-curvature="0" />
      <path
         style="fill:#ebffe6;fill-opacity:1"
         d="M 6.125,6.625 Q 6.25,6.25 6.5,6 L 6.75,5.75 6.5625,5.9375 6.375,6.125 6.5,6 Q 6.625,5.875 6.71875,5.71875 L 6.8125,5.5625 6.765625,5.640625 6.71875,5.71875 7,6 7.28125,6.28125 7.359375,6.234375 7.4375,6.1875 7.28125,6.28125 Q 7.125,6.375 7,6.5 L 6.875,6.625 7.0625,6.4375 7.25,6.25 7,6.5 Q 6.75,6.75 6.375,6.875 L 6,7 6.125,6.625"
         id="path25039"
         inkscape:connector-curvature="0" />
      <path
         style="fill:#649570;fill-opacity:1"
         d="M 7,6.5 Q 7.25,6.25 7.625,6.125 L 8,6 7.875,6.375 Q 7.75,6.75 7.5,7 L 7.25,7.25 7.4375,7.0625 7.625,6.875 7.5,7 Q 7.375,7.125 7.28125,7.28125 L 7.1875,7.4375 7.234375,7.359375 7.28125,7.28125 7,7 6.71875,6.71875 6.640625,6.765625 6.5625,6.8125 6.71875,6.71875 Q 6.875,6.625 7,6.5 L 7.125,6.375 6.9375,6.5625 6.75,6.75 7,6.5"
         id="path25041"
         inkscape:connector-curvature="0" />
      <path
         style="fill:#040a07;fill-opacity:1"
         d="M 7.875,6.375 8,6 8.5,6 9,6 9,6.5 Q 9,7 8.625,7.125 L 8.25,7.25 8.53125,7.15625 8.8125,7.0625 8.625,7.125 Q 8.4375,7.1875 8.3125,7.3125 L 8.1875,7.4375 8.25,7.375 8.3125,7.3125 8.015625,7.015625 7.71875,6.71875 7.671875,6.796875 7.625,6.875 7.71875,6.71875 Q 7.8125,6.5625 7.875,6.375 L 7.9375,6.1875 7.84375,6.46875 7.75,6.75 7.875,6.375 M 9.125,6 9,6 8.625,6 8.25,6 8.5,6 Q 8.75,6 9,6 L 9.25,6 9.125,6"
         id="path25043"
         inkscape:connector-curvature="0" />
      <path
         style="fill:#000000;fill-opacity:1"
         d="M 9,6.5 9,6 9.5,6 10,6 10.5,6 11,6 11.5,6 12,6 12.5,6 13,6 12.625,6 12.25,6 12.5,6 q 0.25,0 0.46875,0.03125 L 13.1875,6.0625 13.078125,6.046875 12.96875,6.03125 12.984375,6.515625 Q 13,7 13.375,7.125 13.75,7.25 13.875,7.625 14,8 14.5,8 l 0.5,0 0,0.5 q 0,0.5 0,1 l 0,0.5 0,0.5 0,0.5 0,0.5 0,0.5 0,0.5 q 0,0.5 0,1 l 0,0.5 -0.5,0 q -0.5,0 -0.625,0.375 -0.125,0.375 0.140625,0.640625 l 0.265625,0.265625 0.07813,-0.04687 0.07813,-0.04687 -0.15625,0.09375 Q 14.125,15.375 14,15.5 L 13.875,15.625 14.0625,15.4375 14.25,15.25 14,15.5 q -0.25,0.25 -0.5,0.5 -0.25,0.25 -0.5,0.5 -0.25,0.25 -0.5,0.5 -0.25,0.25 -0.375,0.625 -0.125,0.375 0,0.75 L 12.25,18.75 12.15625,18.46875 12.0625,18.1875 12.125,18.375 q 0.0625,0.1875 0.1875,0.3125 l 0.125,0.125 L 12.375,18.75 12.3125,18.6875 12.03125,18.96875 Q 11.75,19.25 11.875,19.625 L 12,20 11.5,20 11,20 10.5,20 10,20 10.125,19.625 Q 10.25,19.25 9.96875,18.96875 L 9.6875,18.6875 9.625,18.75 9.5625,18.8125 9.6875,18.6875 Q 9.8125,18.5625 9.875,18.375 L 9.9375,18.1875 9.84375,18.46875 9.75,18.75 9.875,18.375 10,18 9.875,17.625 Q 9.75,17.25 9.5,17 9.25,16.75 9,16.5 8.75,16.25 8.375,16.125 L 8,16 7.875,15.625 7.75,15.25 7.84375,15.53125 7.9375,15.8125 7.875,15.625 Q 7.8125,15.4375 7.6875,15.3125 L 7.5625,15.1875 7.625,15.25 7.6875,15.3125 7.96875,15.03125 Q 8.25,14.75 8.125,14.375 8,14 7.5,14 L 7,14 7,13.5 Q 7,13 6.875,12.625 L 6.75,12.25 6.84375,12.53125 6.9375,12.8125 6.875,12.625 Q 6.8125,12.4375 6.6875,12.3125 L 6.5625,12.1875 6.625,12.25 6.6875,12.3125 6.96875,12.03125 Q 7.25,11.75 7.125,11.375 L 7,11 7,10.5 7,10 7.125,9.625 Q 7.25,9.25 6.96875,8.96875 L 6.6875,8.6875 6.625,8.75 6.5625,8.8125 6.6875,8.6875 Q 6.8125,8.5625 6.875,8.375 L 6.9375,8.1875 6.84375,8.46875 6.75,8.75 6.875,8.375 7,8 7.5,8 Q 8,8 8.125,7.625 8.25,7.25 8.625,7.125 9,7 9,6.5 m 6,7.625 0,-0.125 0,-0.375 0,-0.375 0,0.25 q 0,0.25 0,0.5 l 0,0.25 0,-0.125 M 15,8.375 15,8 15,7.875 15,7.75 15,8 q 0,0.25 0,0.5 l 0,0.25 0,-0.375 M 9.375,6 9,6 8.875,6 8.75,6 9,6 Q 9.25,6 9.5,6 L 9.75,6 9.375,6"
         id="path25045"
         inkscape:connector-curvature="0" />
      <path
         style="fill:#111f19;fill-opacity:1"
         d="M 12.984375,6.515625 12.96875,6.03125 12.859375,6.015625 12.75,6 12.96875,6.03125 Q 13.1875,6.0625 13.375,6.125 L 13.5625,6.1875 13.28125,6.09375 13,6 13.375,6.125 Q 13.75,6.25 14,6.5 L 14.25,6.75 14.0625,6.5625 13.875,6.375 14,6.5 q 0.125,0.125 0.28125,0.21875 L 14.4375,6.8125 14.359375,6.765625 14.28125,6.71875 13.984375,7.015625 13.6875,7.3125 13.75,7.375 13.8125,7.4375 13.6875,7.3125 Q 13.5625,7.1875 13.375,7.125 L 13.1875,7.0625 13.46875,7.15625 13.75,7.25 13.375,7.125 Q 13,7 12.984375,6.515625"
         id="path25047"
         inkscape:connector-curvature="0" />
      <path
         style="fill:#a0c59a;fill-opacity:1"
         d="M 14,6.5 13.75,6.25 13.9375,6.4375 14.125,6.625 14,6.5 Q 13.875,6.375 13.71875,6.28125 L 13.5625,6.1875 13.640625,6.234375 13.71875,6.28125 13.984375,6.015625 14.25,5.75 14.5,6 q 0.25,0.25 0.328125,0.671875 L 14.90625,7.09375 14.953125,7.171875 15,7.25 14.90625,7.09375 Q 14.8125,6.9375 14.625,6.875 L 14.4375,6.8125 14.71875,6.90625 15,7 14.625,6.875 Q 14.25,6.75 14,6.5 M 14.4375,5.9375 14.25,5.75 14.1875,5.6875 14.125,5.625 14.25,5.75 Q 14.375,5.875 14.5,6 l 0.125,0.125 -0.1875,-0.1875"
         id="path25049"
         inkscape:connector-curvature="0" />
      <path
         style="fill:#ecffd5;fill-opacity:1"
         d="M 14.828125,6.671875 14.75,6.25 14.84375,6.53125 14.9375,6.8125 14.875,6.625 Q 14.8125,6.4375 14.71875,6.28125 L 14.625,6.125 14.671875,6.203125 14.71875,6.28125 15.015625,5.984375 15.3125,5.6875 15.25,5.625 15.1875,5.5625 l 0.125,0.125 q 0.125,0.125 0.3125,0.1875 L 15.8125,5.9375 15.53125,5.84375 15.25,5.75 15.625,5.875 16,6 16,6.5 16,7 16,6.625 16,6.25 16,6.5 q 0,0.25 0.125,0.375 L 16.25,7 16.1875,6.9375 16.125,6.875 15.515625,6.984375 14.90625,7.09375 14.828125,6.671875"
         id="path25051"
         inkscape:connector-curvature="0" />
      <path
         style="fill:#5b8366;fill-opacity:1"
         d="M 16,6.5 16,6 16.375,6.125 q 0.375,0.125 0.5,0.5 L 17,7 16.90625,6.71875 16.8125,6.4375 16.875,6.625 q 0.0625,0.1875 0.09375,0.40625 L 17,7.25 16.984375,7.140625 16.96875,7.03125 16.484375,7.015625 Q 16,7 16,6.5"
         id="path25053"
         inkscape:connector-curvature="0" />
      <path
         style="fill:#ff1e00;fill-opacity:1"
         d="M 20,6.5 20,6 20.5,6 21,6 21,6.5 21,7 20.5,7 20,7 20,6.5"
         id="path25055"
         inkscape:connector-curvature="0" />
      <path
         style="fill:#ff2200;fill-opacity:1"
         d="M 1,7.5 1,7 1.5,7 2,7 2,7.5 2,8 1.5,8 1,8 1,7.5"
         id="path25057"
         inkscape:connector-curvature="0" />
      <path
         style="fill:#6c6a64;fill-opacity:1"
         d="M 4.125,7.625 Q 4.25,7.25 4.625,7.125 L 5,7 4.875,7.375 Q 4.75,7.75 4.390625,7.890625 L 4.03125,8.03125 4.015625,8.140625 4,8.25 4.03125,8.03125 Q 4.0625,7.8125 4.125,7.625 L 4.1875,7.4375 4.09375,7.71875 4,8 4.125,7.625"
         id="path25059"
         inkscape:connector-curvature="0" />
      <path
         style="fill:#fffff7;fill-opacity:1"
         d="M 4.875,7.375 5,7 5.5,7 6,7 6,7.5 6,8 5.625,8.125 5.25,8.25 5.53125,8.15625 5.8125,8.0625 5.625,8.125 Q 5.4375,8.1875 5.3125,8.3125 L 5.1875,8.4375 5.25,8.375 5.3125,8.3125 5,8 4.6875,7.6875 4.625,7.75 4.5625,7.8125 4.6875,7.6875 Q 4.8125,7.5625 4.875,7.375 L 4.9375,7.1875 4.84375,7.46875 4.75,7.75 4.875,7.375"
         id="path25061"
         inkscape:connector-curvature="0" />
      <path
         style="fill:#8bc697;fill-opacity:1"
         d="M 6,7.5 6,7 6.375,6.875 6.75,6.75 6.46875,6.84375 6.1875,6.9375 6.375,6.875 Q 6.5625,6.8125 6.71875,6.71875 L 6.875,6.625 6.796875,6.671875 6.71875,6.71875 7,7 7.28125,7.28125 7.328125,7.203125 7.375,7.125 7.28125,7.28125 Q 7.1875,7.4375 7.125,7.625 L 7.0625,7.8125 7.15625,7.53125 7.25,7.25 7.125,7.625 7,8 6.5,8 6,8 6,7.5 M 6.96875,8.09375 7,8 7.09375,7.71875 7.1875,7.4375 7.125,7.625 Q 7.0625,7.8125 7,8 L 6.9375,8.1875 6.96875,8.09375"
         id="path25063"
         inkscape:connector-curvature="0" />
      <path
         style="fill:#030504;fill-opacity:1"
         d="M 7.125,7.625 Q 7.25,7.25 7.5,7 L 7.75,6.75 7.5625,6.9375 7.375,7.125 7.5,7 Q 7.625,6.875 7.71875,6.71875 L 7.8125,6.5625 7.765625,6.640625 7.71875,6.71875 8.015625,7.015625 8.3125,7.3125 8.375,7.25 8.4375,7.1875 8.3125,7.3125 Q 8.1875,7.4375 8.125,7.625 L 8.0625,7.8125 8.15625,7.53125 8.25,7.25 8.125,7.625 Q 8,8 7.5,8 L 7,8 7.125,7.625"
         id="path25065"
         inkscape:connector-curvature="0" />
      <path
         style="fill:#293025;fill-opacity:1"
         d="M 13.875,7.625 13.75,7.25 13.84375,7.53125 13.9375,7.8125 13.875,7.625 Q 13.8125,7.4375 13.6875,7.3125 L 13.5625,7.1875 13.625,7.25 13.6875,7.3125 13.984375,7.015625 14.28125,6.71875 14.203125,6.671875 14.125,6.625 14.28125,6.71875 Q 14.4375,6.8125 14.625,6.875 L 14.8125,6.9375 14.53125,6.84375 14.25,6.75 14.625,6.875 Q 15,7 15,7.5 L 15,8 14.5,8 Q 14,8 13.875,7.625 M 15,8.125 15,8 15,7.625 15,7.25 15,7.5 q 0,0.25 0,0.5 l 0,0.25 0,-0.125"
         id="path25067"
         inkscape:connector-curvature="0" />
      <path
         style="fill:#eefbc9;fill-opacity:1"
         d="M 15,7.5 15,7 15,7.375 15,7.75 15,7.5 Q 15,7.25 14.90625,7.09375 L 14.8125,6.9375 14.859375,7.015625 14.90625,7.09375 15.515625,6.984375 16.125,6.875 16.1875,7.3125 16.25,7.75 16.15625,7.46875 16.0625,7.1875 16.125,7.375 q 0.0625,0.1875 0.1875,0.3125 l 0.125,0.125 L 16.375,7.75 16.3125,7.6875 16,8 15.6875,8.3125 15.75,8.375 15.8125,8.4375 15.6875,8.3125 Q 15.5625,8.1875 15.375,8.125 L 15.1875,8.0625 15.46875,8.15625 15.75,8.25 15.375,8.125 15,8 15,7.5 M 15,7.625 15,8 15,8.125 15,8.25 15,8 q 0,-0.25 0,-0.5 l 0,-0.25 0,0.375"
         id="path25069"
         inkscape:connector-curvature="0" />
      <path
         style="fill:#b7efbb;fill-opacity:1"
         d="M 16.1875,7.3125 16.125,6.875 16.0625,6.8125 16,6.75 16.125,6.875 Q 16.25,7 16.5,7 L 16.75,7 16.375,7 16,7 16.484375,7.015625 16.96875,7.03125 16.953125,6.921875 16.9375,6.8125 16.96875,7.03125 Q 17,7.25 17,7.5 L 17,7.75 17,7.375 17,7 17,7.5 17,8 16.625,7.875 Q 16.25,7.75 16.1875,7.3125"
         id="path25071"
         inkscape:connector-curvature="0" />
      <path
         style="fill:#1d2c23;fill-opacity:1"
         d="M 17,7.5 17,7 17.5,7 Q 18,7 18.125,7.375 18.25,7.75 17.96875,8.03125 L 17.6875,8.3125 17.75,8.375 17.8125,8.4375 17.6875,8.3125 Q 17.5625,8.1875 17.375,8.125 L 17.1875,8.0625 17.46875,8.15625 17.75,8.25 17.375,8.125 17,8 17,7.5"
         id="path25073"
         inkscape:connector-curvature="0" />
      <path
         style="fill:#ff2200;fill-opacity:1"
         d="M 20,7.5 20,7 20.5,7 21,7 21,7.5 21,8 20.5,8 20,8 20,7.5"
         id="path25075"
         inkscape:connector-curvature="0" />
      <path
         style="fill:#ff2700;fill-opacity:1"
         d="M 1,8.5 1,8 1.5,8 2,8 2,8.5 2,9 1.5,9 1,9 1,8.5"
         id="path25077"
         inkscape:connector-curvature="0" />
      <path
         style="fill:#050505;fill-opacity:1"
         d="M 3,8.5 Q 3,8 3.5,8 L 4,8 4,8.5 4,9 3.5,9 3,9 3,8.5"
         id="path25079"
         inkscape:connector-curvature="0" />
      <path
         style="fill:#d6d2c0;fill-opacity:1"
         d="M 4,8.5 4,8 4,8.375 4,8.75 4,8.5 Q 4,8.25 4.03125,8.03125 L 4.0625,7.8125 4.046875,7.921875 4.03125,8.03125 4.390625,7.890625 4.75,7.75 4.46875,7.84375 4.1875,7.9375 4.375,7.875 Q 4.5625,7.8125 4.6875,7.6875 L 4.8125,7.5625 4.75,7.625 4.6875,7.6875 5,8 5.3125,8.3125 5.375,8.25 5.4375,8.1875 5.3125,8.3125 Q 5.1875,8.4375 5.125,8.625 L 5.0625,8.8125 5.15625,8.53125 5.25,8.25 5.125,8.625 5,9 4.5,9 4,9 4,8.5"
         id="path25081"
         inkscape:connector-curvature="0" />
      <path
         style="fill:#e0ffd9;fill-opacity:1"
         d="M 5.125,8.625 Q 5.25,8.25 5.625,8.125 L 6,8 6,8.5 6,9 5.515625,9.015625 5.03125,9.03125 5.015625,9.140625 5,9.25 5.03125,9.03125 Q 5.0625,8.8125 5.125,8.625 L 5.1875,8.4375 5.09375,8.71875 5,9 5.125,8.625"
         id="path25083"
         inkscape:connector-curvature="0" />
      <path
         style="fill:#3c5e47;fill-opacity:1"
         d="M 6,8.5 6,8 6.5,8 7,8 6.875,8.375 Q 6.75,8.75 6.375,8.875 L 6,9 6,8.5 M 6.90625,8.28125 7,8 7.03125,7.90625 7.0625,7.8125 7,8 Q 6.9375,8.1875 6.875,8.375 L 6.8125,8.5625 6.90625,8.28125"
         id="path25085"
         inkscape:connector-curvature="0" />
      <path
         style="fill:#b9b791;fill-opacity:1"
         d="M 15,8.5 15,8 15.375,8.125 q 0.375,0.125 0.5,0.5 L 16,9 15.90625,8.71875 15.8125,8.4375 15.875,8.625 q 0.0625,0.1875 0.09375,0.40625 L 16,9.25 15.984375,9.140625 15.96875,9.03125 15.484375,9.015625 15,9 15,8.5 M 15,8.625 15,9 15,9.125 15,9.25 15,9 q 0,-0.25 0,-0.5 l 0,-0.25 0,0.375 M 15,7.875 15,8 15,8.375 15,8.75 15,8.5 Q 15,8.25 15,8 l 0,-0.25 0,0.125"
         id="path25087"
         inkscape:connector-curvature="0" />
      <path
         style="fill:#ebffd7;fill-opacity:1"
         d="M 15.875,8.625 15.75,8.25 15.84375,8.53125 15.9375,8.8125 15.875,8.625 Q 15.8125,8.4375 15.6875,8.3125 L 15.5625,8.1875 15.625,8.25 15.6875,8.3125 16,8 16.3125,7.6875 16.25,7.625 16.1875,7.5625 l 0.125,0.125 q 0.125,0.125 0.3125,0.1875 L 16.8125,7.9375 16.53125,7.84375 16.25,7.75 16.625,7.875 17,8 17,8.5 17,9 16.5,9 16,9 15.875,8.625"
         id="path25089"
         inkscape:connector-curvature="0" />
      <path
         style="fill:#5d8a6b;fill-opacity:1"
         d="M 17,8.5 17,8 17.375,8.125 q 0.375,0.125 0.5,0.5 L 18,9 17.5,9 17,9 17,8.5"
         id="path25091"
         inkscape:connector-curvature="0" />
      <path
         style="fill:#ff2600;fill-opacity:1"
         d="M 20,8.5 20,8 20.5,8 21,8 21,8.5 21,9 20.5,9 20,9 20,8.5"
         id="path25093"
         inkscape:connector-curvature="0" />
      <path
         style="fill:#ff2b00;fill-opacity:1"
         d="M 1,9.5 1,9 1.5,9 2,9 2,9.5 2,10 1.5,10 1,10 1,9.5"
         id="path25095"
         inkscape:connector-curvature="0" />
      <path
         style="fill:#1d1d1a;fill-opacity:1"
         d="M 3,9.5 3,9 3.5,9 4,9 4,9.5 4,10 3.5,10 3,10 3,9.5"
         id="path25097"
         inkscape:connector-curvature="0" />
      <path
         style="fill:#f7f8db;fill-opacity:1"
         d="M 4,9.5 4,9 4.5,9 5,9 5,9.5 5,10 4.5,10 4,10 4,9.5"
         id="path25099"
         inkscape:connector-curvature="0" />
      <path
         style="fill:#b7f1be;fill-opacity:1"
         d="M 5,9.5 5,9 5,9.375 5,9.75 5,9.5 Q 5,9.25 5.03125,9.03125 L 5.0625,8.8125 5.046875,8.921875 5.03125,9.03125 5.515625,9.015625 6,9 6,9.5 6,10 5.5,10 5,10 5,9.5"
         id="path25101"
         inkscape:connector-curvature="0" />
      <path
         style="fill:#1c2b22;fill-opacity:1"
         d="M 6,9.5 6,9 6.375,8.875 6.75,8.75 6.46875,8.84375 6.1875,8.9375 6.375,8.875 Q 6.5625,8.8125 6.6875,8.6875 L 6.8125,8.5625 6.75,8.625 6.6875,8.6875 6.96875,8.96875 Q 7.25,9.25 7.125,9.625 L 7,10 6.5,10 6,10 6,9.5"
         id="path25103"
         inkscape:connector-curvature="0" />
      <path
         style="fill:#7a7762;fill-opacity:1"
         d="M 15,9.5 15,9 15.484375,9.015625 15.96875,9.03125 15.953125,8.921875 15.9375,8.8125 15.96875,9.03125 Q 16,9.25 16,9.5 L 16,9.75 16,9.375 16,9 16,9.5 16,10 15.5,10 15,10 15,9.5 M 15,8.875 15,9 15,9.375 15,9.75 15,9.5 Q 15,9.25 15,9 l 0,-0.25 0,0.125"
         id="path25105"
         inkscape:connector-curvature="0" />
      <path
         style="fill:#faffdd;fill-opacity:1"
         d="M 16,9.5 16,9 16.5,9 17,9 17,9.5 17,10 16.5,10 16,10 16,9.5"
         id="path25107"
         inkscape:connector-curvature="0" />
      <path
         style="fill:#7bb38b;fill-opacity:1"
         d="M 17,9.5 17,9 17.5,9 18,9 18,9.5 18,10 17.5,10 17,10 17,9.5"
         id="path25109"
         inkscape:connector-curvature="0" />
      <path
         style="fill:#ff2c00;fill-opacity:1"
         d="M 20,9.5 20,9 20.5,9 21,9 21,9.5 21,10 20.5,10 20,10 20,9.5"
         id="path25111"
         inkscape:connector-curvature="0" />
      <path
         style="fill:#ff3000;fill-opacity:1"
         d="M 1,10.5 1,10 1.5,10 2,10 2,10.5 2,11 1.5,11 1,11 1,10.5"
         id="path25113"
         inkscape:connector-curvature="0" />
      <path
         style="fill:#2e2c27;fill-opacity:1"
         d="M 3,10.5 3,10 3.5,10 4,10 4,10.5 4,11 3.5,11 3,11 3,10.5"
         id="path25115"
         inkscape:connector-curvature="0" />
      <path
         style="fill:#faffda;fill-opacity:1"
         d="M 4,10.5 4,10 4.5,10 5,10 5,10.5 5,11 4.5,11 4,11 4,10.5"
         id="path25117"
         inkscape:connector-curvature="0" />
      <path
         style="fill:#a8e3b2;fill-opacity:1"
         d="M 5,10.5 5,10 5.5,10 6,10 6,10.5 6,11 5.5,11 5,11 5,10.5"
         id="path25119"
         inkscape:connector-curvature="0" />
      <path
         style="fill:#131e17;fill-opacity:1"
         d="M 6,10.5 6,10 6.5,10 7,10 7,10.5 7,11 6.5,11 6,11 6,10.5"
         id="path25121"
         inkscape:connector-curvature="0" />
      <path
         style="fill:#625f52;fill-opacity:1"
         d="m 15,10.5 0,-0.5 0.5,0 0.5,0 0,0.5 0,0.5 -0.5,0 -0.5,0 0,-0.5"
         id="path25123"
         inkscape:connector-curvature="0" />
      <path
         style="fill:#ffffe1;fill-opacity:1"
         d="m 16,10.5 0,-0.5 0.5,0 0.5,0 0,0.5 0,0.5 -0.5,0 -0.5,0 0,-0.5"
         id="path25125"
         inkscape:connector-curvature="0" />
      <path
         style="fill:#88c296;fill-opacity:1"
         d="m 17,10.5 0,-0.5 0.5,0 0.5,0 0,0.5 0,0.5 -0.5,0 -0.5,0 0,-0.5"
         id="path25127"
         inkscape:connector-curvature="0" />
      <path
         style="fill:#020403;fill-opacity:1"
         d="m 18,10.5 0,-0.5 0.5,0 q 0.5,0 0.5,0.5 l 0,0.5 -0.5,0 -0.5,0 0,-0.5"
         id="path25129"
         inkscape:connector-curvature="0" />
      <path
         style="fill:#ff3000;fill-opacity:1"
         d="m 20,10.5 0,-0.5 0.5,0 0.5,0 0,0.5 0,0.5 -0.5,0 -0.5,0 0,-0.5"
         id="path25131"
         inkscape:connector-curvature="0" />
      <path
         style="fill:#ff3600;fill-opacity:1"
         d="M 1,11.5 1,11 1.5,11 2,11 2,11.5 2,12 1.5,12 1,12 1,11.5"
         id="path25133"
         inkscape:connector-curvature="0" />
      <path
         style="fill:#282721;fill-opacity:1"
         d="M 3,11.5 3,11 3.5,11 4,11 4,11.5 4,12 3.5,12 3,12 3,11.5"
         id="path25135"
         inkscape:connector-curvature="0" />
      <path
         style="fill:#f8fdd2;fill-opacity:1"
         d="M 4,11.5 4,11 4.5,11 5,11 5,11.5 5,12 4.5,12 4,12 4,11.5"
         id="path25137"
         inkscape:connector-curvature="0" />
      <path
         style="fill:#abe5b3;fill-opacity:1"
         d="M 5,11.5 5,11 5.5,11 6,11 6,11.5 6,12 5.5,12 5,12 5,11.5"
         id="path25139"
         inkscape:connector-curvature="0" />
      <path
         style="fill:#141f18;fill-opacity:1"
         d="M 6,11.5 6,11 6.5,11 7,11 7.125,11.375 Q 7.25,11.75 6.96875,12.03125 L 6.6875,12.3125 6.75,12.375 6.8125,12.4375 6.6875,12.3125 Q 6.5625,12.1875 6.375,12.125 L 6.1875,12.0625 6.46875,12.15625 6.75,12.25 6.375,12.125 6,12 6,11.5"
         id="path25141"
         inkscape:connector-curvature="0" />
      <path
         style="fill:#656256;fill-opacity:1"
         d="m 15,11.5 0,-0.5 0.5,0 0.5,0 0,0.5 0,0.5 -0.5,0 -0.5,0 0,-0.5"
         id="path25143"
         inkscape:connector-curvature="0" />
      <path
         style="fill:#fdffe4;fill-opacity:1"
         d="m 16,11.5 0,-0.5 0.5,0 0.5,0 0,0.5 0,0.5 -0.5,0 -0.5,0 0,-0.5"
         id="path25145"
         inkscape:connector-curvature="0" />
      <path
         style="fill:#83bd91;fill-opacity:1"
         d="m 17,11.5 0,-0.5 0.5,0 0.5,0 0,0.5 0,0.5 -0.5,0 -0.5,0 0,-0.5"
         id="path25147"
         inkscape:connector-curvature="0" />
      <path
         style="fill:#000201;fill-opacity:1"
         d="m 18,11.5 0,-0.5 0.5,0 0.5,0 0,0.5 Q 19,12 18.5,12 l -0.5,0 0,-0.5"
         id="path25149"
         inkscape:connector-curvature="0" />
      <path
         style="fill:#ff3500;fill-opacity:1"
         d="m 20,11.5 0,-0.5 0.5,0 0.5,0 0,0.5 0,0.5 -0.5,0 -0.5,0 0,-0.5"
         id="path25151"
         inkscape:connector-curvature="0" />
      <path
         style="fill:#ff3a00;fill-opacity:1"
         d="M 1,12.5 1,12 1.5,12 2,12 2,12.5 2,13 1.5,13 1,13 1,12.5"
         id="path25153"
         inkscape:connector-curvature="0" />
      <path
         style="fill:#10100d;fill-opacity:1"
         d="M 3,12.5 3,12 3.5,12 4,12 4,12.5 4,13 3.5,13 Q 3,13 3,12.5 M 4,13.125 4,13 4,12.625 4,12.25 4,12.5 q 0,0.25 0,0.5 l 0,0.25 0,-0.125"
         id="path25155"
         inkscape:connector-curvature="0" />
      <path
         style="fill:#edeebf;fill-opacity:1"
         d="M 4,12.5 4,12 4.5,12 5,12 5,12.5 5,13 4.5,13 4,13 4,12.5 M 4,12.625 4,13 4,13.125 4,13.25 4,13 q 0,-0.25 0,-0.5 l 0,-0.25 0,0.375"
         id="path25157"
         inkscape:connector-curvature="0" />
      <path
         style="fill:#bdf4bf;fill-opacity:1"
         d="M 5,12.5 5,12 5.5,12 6,12 6,12.5 6,13 5.5,13 5,13 5,12.5"
         id="path25159"
         inkscape:connector-curvature="0" />
      <path
         style="fill:#1e2f25;fill-opacity:1"
         d="M 6,12.5 6,12 6.375,12.125 q 0.375,0.125 0.5,0.5 L 7,13 6.90625,12.71875 6.8125,12.4375 6.875,12.625 q 0.0625,0.1875 0.09375,0.40625 L 7,13.25 6.984375,13.140625 6.96875,13.03125 6.484375,13.015625 6,13 6,12.5"
         id="path25161"
         inkscape:connector-curvature="0" />
      <path
         style="fill:#807c70;fill-opacity:1"
         d="m 15,12.5 0,-0.5 0.5,0 0.5,0 0,0.5 0,0.5 -0.5,0 -0.5,0 0,-0.5 m 0,0.125 0,0.375 0,0.125 0,0.125 0,-0.25 q 0,-0.25 0,-0.5 l 0,-0.25 0,0.375"
         id="path25163"
         inkscape:connector-curvature="0" />
      <path
         style="fill:#f7ffe6;fill-opacity:1"
         d="m 16,12.5 0,-0.5 0.5,0 0.5,0 0,0.5 0,0.5 -0.5,0 -0.5,0 0,-0.5"
         id="path25165"
         inkscape:connector-curvature="0" />
      <path
         style="fill:#6fa47e;fill-opacity:1"
         d="m 17,12.5 0,-0.5 0.5,0 0.5,0 0,0.5 0,0.5 0,-0.375 0,-0.375 0,0.25 q 0,0.25 -0.03125,0.46875 L 17.9375,13.1875 17.95313,13.078125 17.96876,12.96875 17.484385,12.98438 17,13 17,12.5"
         id="path25167"
         inkscape:connector-curvature="0" />
      <path
         style="fill:#ff3b00;fill-opacity:1"
         d="m 20,12.5 0,-0.5 0.5,0 0.5,0 0,0.5 0,0.5 -0.5,0 -0.5,0 0,-0.5"
         id="path25169"
         inkscape:connector-curvature="0" />
      <path
         style="fill:#ff4000;fill-opacity:1"
         d="M 1,13.5 1,13 1.5,13 2,13 2,13.5 2,14 1.5,14 1,14 1,13.5"
         id="path25171"
         inkscape:connector-curvature="0" />
      <path
         style="fill:#aaac87;fill-opacity:1"
         d="M 4,13.5 4,13 4.5,13 5,13 4.9375,13.5625 4.875,14.125 4.9375,14.1875 5,14.25 4.875,14.125 Q 4.75,14 4.5,14 L 4.25,14 4.625,14 5,14 4.5,14 Q 4,14 4,13.5 M 4,12.875 4,13 4,13.375 4,13.75 4,13.5 Q 4,13.25 4,13 l 0,-0.25 0,0.125"
         id="path25173"
         inkscape:connector-curvature="0" />
      <path
         style="fill:#e0ffd1;fill-opacity:1"
         d="M 4.9375,13.5625 5,13 5.5,13 6,13 6,13.5 6,14 5.4375,14.0625 4.875,14.125 4.9375,13.5625"
         id="path25175"
         inkscape:connector-curvature="0" />
      <path
         style="fill:#3f604a;fill-opacity:1"
         d="M 6,13.5 6,13 6.484375,13.015625 6.96875,13.03125 6.953125,12.921875 6.9375,12.8125 6.96875,13.03125 Q 7,13.25 7,13.5 L 7,13.75 7,13.375 7,13 7,13.5 7,14 6.5,14 6,14 6,13.5 M 6,13.625 6,14 6,14.125 6,14.25 6,14 q 0,-0.25 0,-0.5 l 0,-0.25 0,0.375 m 1,0.5 L 7,14 7,13.625 7,13.25 7,13.5 q 0,0.25 0,0.5 l 0,0.25 0,-0.125"
         id="path25177"
         inkscape:connector-curvature="0" />
      <path
         style="fill:#c2beac;fill-opacity:1"
         d="m 15,13.5 0,-0.5 0.5,0 0.5,0 0,0.5 0,0.5 -0.5,0 -0.5,0 0,-0.5 m 0,0.125 0,0.375 0,0.125 0,0.125 0,-0.25 q 0,-0.25 0,-0.5 l 0,-0.25 0,0.375 m 0,-0.75 0,0.125 0,0.375 0,0.375 0,-0.25 q 0,-0.25 0,-0.5 l 0,-0.25 0,0.125"
         id="path25179"
         inkscape:connector-curvature="0" />
      <path
         style="fill:#ddffd8;fill-opacity:1"
         d="m 16,13.5 0,-0.5 0.5,0 0.5,0 0,0.5 0,0.5 -0.5,0 -0.5,0 0,-0.5"
         id="path25181"
         inkscape:connector-curvature="0" />
      <path
         style="fill:#44664e;fill-opacity:1"
         d="M 17,13.5 17,13 17.484375,12.98437 17.96875,12.96874 17.98438,12.859365 18,12.75 17.96875,12.96875 Q 17.9375,13.1875 17.875,13.375 L 17.8125,13.5625 17.90625,13.28125 18,13 17.875,13.375 q -0.125,0.375 -0.5,0.5 L 17,14 17,13.5"
         id="path25183"
         inkscape:connector-curvature="0" />
      <path
         style="fill:#ff4000;fill-opacity:1"
         d="m 20,13.5 0,-0.5 0.5,0 0.5,0 0,0.5 0,0.5 -0.5,0 -0.5,0 0,-0.5"
         id="path25185"
         inkscape:connector-curvature="0" />
      <path
         style="fill:#ff4400;fill-opacity:1"
         d="M 1,14.5 1,14 1.5,14 2,14 2,14.5 2,15 1.5,15 1,15 1,14.5"
         id="path25187"
         inkscape:connector-curvature="0" />
      <path
         style="fill:#373b2f;fill-opacity:1"
         d="M 4.1875,14.3125 4.125,13.875 4.0625,13.8125 4,13.75 4.125,13.875 Q 4.25,14 4.5,14 L 4.75,14 4.375,14 4,14 4.5,14 Q 5,14 5,14.5 L 5,15 4.625,14.875 Q 4.25,14.75 4.1875,14.3125"
         id="path25189"
         inkscape:connector-curvature="0" />
      <path
         style="fill:#dcfecb;fill-opacity:1"
         d="M 5,14.5 5,14 5,14.375 5,14.75 5,14.5 Q 5,14.25 4.875,14.125 L 4.75,14 4.8125,14.0625 4.875,14.125 5.4375,14.0625 6,14 6,14.5 6,15 5.5,15 5,15 5,14.5"
         id="path25191"
         inkscape:connector-curvature="0" />
      <path
         style="fill:#87c095;fill-opacity:1"
         d="M 6,14.5 6,14 6.5,14 7,14 7,14.5 7,15 6.5,15 6,15 6,14.5 M 7,14.375 7,14 7,13.875 7,13.75 7,14 q 0,0.25 0,0.5 l 0,0.25 0,-0.375 M 6,13.875 6,14 6,14.375 6,14.75 6,14.5 Q 6,14.25 6,14 l 0,-0.25 0,0.125"
         id="path25193"
         inkscape:connector-curvature="0" />
      <path
         style="fill:#020302;fill-opacity:1"
         d="M 7,14.5 7,14 7.5,14 Q 8,14 8.125,14.375 8.25,14.75 7.96875,15.03125 L 7.6875,15.3125 7.75,15.375 7.8125,15.4375 7.6875,15.3125 Q 7.5625,15.1875 7.375,15.125 L 7.1875,15.0625 7.46875,15.15625 7.75,15.25 7.375,15.125 7,15 7,14.5"
         id="path25195"
         inkscape:connector-curvature="0" />
      <path
         style="fill:#2e2b2a;fill-opacity:1"
         d="M 13.875,14.375 Q 14,14 14.5,14 l 0.5,0 0,0.5 0,0.5 -0.375,0.125 -0.375,0.125 0.28125,-0.09375 0.28125,-0.09375 -0.1875,0.0625 q -0.1875,0.0625 -0.34375,0.15625 L 14.125,15.375 14.20313,15.32813 14.28126,15.28126 14.015635,15.015635 Q 13.75,14.75 13.875,14.375 M 15,14.375 15,14 15,13.875 15,13.75 15,14 q 0,0.25 0,0.5 l 0,0.25 0,-0.375"
         id="path25197"
         inkscape:connector-curvature="0" />
      <path
         style="fill:#fafee6;fill-opacity:1"
         d="m 15,14.5 0,-0.5 0.5,0 0.5,0 0,0.5 0,0.5 -0.5,0 -0.5,0 0,-0.5 m 0,-0.625 0,0.125 0,0.375 0,0.375 0,-0.25 q 0,-0.25 0,-0.5 l 0,-0.25 0,0.125"
         id="path25199"
         inkscape:connector-curvature="0" />
      <path
         style="fill:#99d5a5;fill-opacity:1"
         d="m 16,14.5 0,-0.5 0.5,0 0.5,0 0,0.5 Q 17,15 16.5,15 l -0.5,0 0,-0.5"
         id="path25201"
         inkscape:connector-curvature="0" />
      <path
         style="fill:#090e0b;fill-opacity:1"
         d="M 17,14.5 17,14 17.375,13.875 17.75,13.75 17.46875,13.84375 17.1875,13.9375 17.375,13.875 q 0.1875,-0.0625 0.3125,-0.1875 l 0.125,-0.125 -0.0625,0.0625 -0.0625,0.0625 0.28125,0.28125 Q 18.25,14.25 18.125,14.625 18,15 17.4375,14.9375 L 16.875,14.875 16.8125,14.9375 16.75,15 16.875,14.875 Q 17,14.75 17,14.5 l 0,-0.25 0,0.375 0,0.375 0,-0.5"
         id="path25203"
         inkscape:connector-curvature="0" />
      <path
         style="fill:#ff4500;fill-opacity:1"
         d="m 20,14.5 0,-0.5 0.5,0 0.5,0 0,0.5 0,0.5 -0.5,0 -0.5,0 0,-0.5"
         id="path25205"
         inkscape:connector-curvature="0" />
      <path
         style="fill:#ff4900;fill-opacity:1"
         d="M 1,15.5 1,15 1.5,15 2,15 2,15.5 2,16 1.5,16 1,16 1,15.5"
         id="path25207"
         inkscape:connector-curvature="0" />
      <path
         style="fill:#708b6c;fill-opacity:1"
         d="M 5.125,15.375 5,15 5.5,15 6,15 6.125,15.375 6.25,15.75 6.15625,15.46875 6.0625,15.1875 6.125,15.375 q 0.0625,0.1875 0.1875,0.3125 l 0.125,0.125 L 6.375,15.75 6.3125,15.6875 6.015625,15.984375 5.71875,16.28125 5.765625,16.359375 5.8125,16.4375 5.71875,16.28125 Q 5.625,16.125 5.5,16 L 5.375,15.875 5.5625,16.0625 5.75,16.25 5.5,16 Q 5.25,15.75 5.125,15.375"
         id="path25209"
         inkscape:connector-curvature="0" />
      <path
         style="fill:#baffc9;fill-opacity:1"
         d="M 6.125,15.375 6,15 6.5,15 7,15 7,15.5 7,16 6.625,15.875 q -0.375,-0.125 -0.5,-0.5"
         id="path25211"
         inkscape:connector-curvature="0" />
      <path
         style="fill:#3e6049;fill-opacity:1"
         d="M 7,15.5 7,15 7.375,15.125 q 0.375,0.125 0.5,0.5 L 8,16 7.5,16 7,16 7,15.5"
         id="path25213"
         inkscape:connector-curvature="0" />
      <path
         style="fill:#aeada0;fill-opacity:1"
         d="m 14,15.5 q 0.25,-0.25 0.625,-0.375 L 15,15 15,15.5 15,16 14.625,16.125 14.25,16.25 14.53125,16.15625 14.8125,16.0625 14.625,16.125 q -0.1875,0.0625 -0.3125,0.1875 l -0.125,0.125 L 14.25,16.375 14.3125,16.3125 14.03125,16.03125 13.75,15.75 14,15.5 M 13.9375,15.5625 13.75,15.75 13.6875,15.8125 13.625,15.875 13.75,15.75 Q 13.875,15.625 14,15.5 l 0.125,-0.125 -0.1875,0.1875"
         id="path25215"
         inkscape:connector-curvature="0" />
      <path
         style="fill:#d7fdd6;fill-opacity:1"
         d="m 15,15.5 0,-0.5 0.5,0 0.5,0 -0.125,0.375 q -0.125,0.375 -0.5,0.5 L 15,16 15,15.5"
         id="path25217"
         inkscape:connector-curvature="0" />
      <path
         style="fill:#35513d;fill-opacity:1"
         d="M 15.875,15.375 16,15 l 0.5,0 0.5,0 -0.375,0 -0.375,0 0.25,0 q 0.25,0 0.375,-0.125 L 17,14.75 16.9375,14.8125 16.875,14.875 16.8125,15.3125 Q 16.75,15.75 16.5,16 L 16.25,16.25 16.4375,16.0625 16.625,15.875 16.5,16 q -0.125,0.125 -0.21875,0.28125 L 16.1875,16.4375 16.23437,16.35937 16.28124,16.28124 15.984375,15.984375 15.6875,15.6875 15.625,15.75 l -0.0625,0.0625 0.125,-0.125 q 0.125,-0.125 0.1875,-0.3125 L 15.9375,15.1875 15.84375,15.46875 15.75,15.75 15.875,15.375"
         id="path25219"
         inkscape:connector-curvature="0" />
      <path
         style="fill:#ff4a00;fill-opacity:1"
         d="m 20,15.5 0,-0.5 0.5,0 0.5,0 0,0.5 0,0.5 -0.5,0 -0.5,0 0,-0.5"
         id="path25221"
         inkscape:connector-curvature="0" />
      <path
         style="fill:#ff4f00;fill-opacity:1"
         d="M 1,16.5 1,16 1.5,16 2,16 2,16.5 2,17 1.5,17 1,17 1,16.5"
         id="path25223"
         inkscape:connector-curvature="0" />
      <path
         style="fill:#82a47f;fill-opacity:1"
         d="M 5.875,16.625 5.75,16.25 5.84375,16.53125 5.9375,16.8125 5.875,16.625 Q 5.8125,16.4375 5.71875,16.28125 L 5.625,16.125 5.671875,16.203125 5.71875,16.28125 6.015625,15.984375 6.3125,15.6875 6.25,15.625 6.1875,15.5625 l 0.125,0.125 q 0.125,0.125 0.3125,0.1875 L 6.8125,15.9375 6.53125,15.84375 6.25,15.75 6.625,15.875 7,16 7,16.5 7,17 6.4375,16.9375 5.875,16.875 5.8125,16.9375 5.75,17 5.875,16.875 Q 6,16.75 6,16.5 L 6,16.25 6,16.625 6,17 5.875,16.625"
         id="path25225"
         inkscape:connector-curvature="0" />
      <path
         style="fill:#ceeec3;fill-opacity:1"
         d="M 7,16.5 7,16 7.5,16 8,16 8.125,16.375 8.25,16.75 8.15625,16.46875 8.0625,16.1875 8.125,16.375 q 0.0625,0.1875 0.15625,0.34375 L 8.375,16.875 8.328125,16.796875 8.28125,16.71875 7.96875,17 7.65625,17.28125 7.703125,17.328125 7.75,17.375 7.65625,17.28125 Q 7.5625,17.1875 7.375,17.125 L 7.1875,17.0625 7.46875,17.15625 7.75,17.25 7.375,17.125 7,17 7,16.5"
         id="path25227"
         inkscape:connector-curvature="0" />
      <path
         style="fill:#354334;fill-opacity:1"
         d="M 8.125,16.375 8,16 8.375,16.125 Q 8.75,16.25 9,16.5 L 9.25,16.75 8.984375,17.015625 8.71875,17.28125 8.765625,17.359375 8.8125,17.4375 8.71875,17.28125 Q 8.625,17.125 8.5,17 L 8.375,16.875 8.5625,17.0625 8.75,17.25 8.5,17 Q 8.25,16.75 8.125,16.375 M 9.3125,16.8125 9.25,16.75 9.0625,16.5625 8.875,16.375 9,16.5 q 0.125,0.125 0.25,0.25 l 0.125,0.125 -0.0625,-0.0625"
         id="path25229"
         inkscape:connector-curvature="0" />
      <path
         style="fill:#86827e;fill-opacity:1"
         d="m 13,16.5 q 0.25,-0.25 0.5,-0.5 l 0.25,-0.25 0.28125,0.28125 0.28125,0.28125 0.0625,-0.0625 0.0625,-0.0625 -0.125,0.125 q -0.125,0.125 -0.1875,0.3125 L 14.0625,16.8125 14.15625,16.53125 14.25,16.25 14.125,16.625 14,17 13.625,17.125 13.25,17.25 13.53125,17.15625 13.8125,17.0625 13.625,17.125 q -0.1875,0.0625 -0.3125,0.1875 l -0.125,0.125 L 13.25,17.375 13.3125,17.3125 13.03125,17.03125 12.75,16.75 13,16.5 M 12.9375,16.5625 12.75,16.75 12.6875,16.8125 12.625,16.875 12.75,16.75 Q 12.875,16.625 13,16.5 l 0.125,-0.125 -0.1875,0.1875 m 0.875,-0.875 L 13.75,15.75 13.5625,15.9375 13.375,16.125 13.5,16 q 0.125,-0.125 0.25,-0.25 l 0.125,-0.125 -0.0625,0.0625"
         id="path25231"
         inkscape:connector-curvature="0" />
      <path
         style="fill:#e6f9de;fill-opacity:1"
         d="m 14.125,16.625 q 0.125,-0.375 0.5,-0.5 L 15,16 l 0,0.5 0,0.5 -0.5,0 -0.5,0 0.125,-0.375"
         id="path25233"
         inkscape:connector-curvature="0" />
      <path
         style="fill:#3d6449;fill-opacity:1"
         d="M 15,16.5 15,16 15.375,15.875 15.75,15.75 15.46875,15.84375 15.1875,15.9375 15.375,15.875 q 0.1875,-0.0625 0.3125,-0.1875 l 0.125,-0.125 -0.0625,0.0625 -0.0625,0.0625 0.296875,0.296875 0.296875,0.296875 0.04687,-0.07813 L 16.375,16.125 16.28125,16.28125 Q 16.1875,16.4375 16.125,16.625 L 16.0625,16.8125 16.15625,16.53125 16.25,16.25 16.125,16.625 16,17 15.5,17 15,17 15,16.5 M 15.625,17 16,17 16.125,17 16.25,17 16,17 q -0.25,0 -0.5,0 l -0.25,0 0.375,0"
         id="path25235"
         inkscape:connector-curvature="0" />
      <path
         style="fill:#ff4f00;fill-opacity:1"
         d="m 20,16.5 0,-0.5 0.5,0 0.5,0 0,0.5 0,0.5 -0.5,0 -0.5,0 0,-0.5"
         id="path25237"
         inkscape:connector-curvature="0" />
      <path
         style="fill:#ff5400;fill-opacity:1"
         d="M 1,17.5 1,17 1.5,17 2,17 2,17.5 2,18 1.5,18 1,18 1,17.5"
         id="path25239"
         inkscape:connector-curvature="0" />
      <path
         style="fill:#44423f;fill-opacity:1"
         d="m 3.125,17.625 q 0.125,-0.375 0.5,-0.5 L 4,17 4,17.5 4,18 3.53125,18 3.0625,18 l 0,0.09375 0,0.09375 0,-0.1875 q 0,-0.1875 0.0625,-0.375 L 3.1875,17.4375 3.09375,17.71875 3,18 3.125,17.625"
         id="path25241"
         inkscape:connector-curvature="0" />
      <path
         style="fill:#74716d;fill-opacity:1"
         d="M 4,17.5 4,17 4.5,17 5,17 5,17.5 5,18 4.5,18 4,18 4,17.5 M 4.625,18 5,18 5.125,18 5.25,18 5,18 q -0.25,0 -0.5,0 l -0.25,0 0.375,0"
         id="path25243"
         inkscape:connector-curvature="0" />
      <path
         style="fill:#736f63;fill-opacity:1"
         d="M 5,17.5 5,17 5.5,17 6,17 5.625,17 5.25,17 5.5,17 q 0.25,0 0.375,-0.125 L 6,16.75 5.9375,16.8125 5.875,16.875 5.9375,17.4375 6,18 5.5,18 5,18 5,17.5 M 4.875,18 5,18 5.375,18 5.75,18 5.5,18 Q 5.25,18 5,18 l -0.25,0 0.125,0"
         id="path25245"
         inkscape:connector-curvature="0" />
      <path
         style="fill:#847d75;fill-opacity:1"
         d="M 5.9375,17.4375 5.875,16.875 6.4375,16.9375 7,17 7,17.5 7,18 6.5,18 6,18 5.9375,17.4375"
         id="path25247"
         inkscape:connector-curvature="0" />
      <path
         style="fill:#f4f0db;fill-opacity:1"
         d="M 7,17.5 7,17 7.375,17.125 Q 7.75,17.25 7.75,17.5 q 0,0.25 -0.375,0.375 L 7,18 7,17.5"
         id="path25249"
         inkscape:connector-curvature="0" />
      <path
         style="fill:#caf4c4;fill-opacity:1"
         d="m 7.75,17.5 0,-0.25 0,0.1875 0,0.1875 0,-0.125 q 0,-0.125 -0.09375,-0.21875 L 7.5625,17.1875 7.609375,17.234375 7.65625,17.28125 7.96875,17 8.28125,16.71875 8.234375,16.640625 8.1875,16.5625 8.28125,16.71875 Q 8.375,16.875 8.5,17 L 8.625,17.125 8.4375,16.9375 8.25,16.75 8.5,17 q 0.25,0.25 0.375,0.625 L 9,18 8.90625,17.71875 8.8125,17.4375 8.875,17.625 q 0.0625,0.1875 0.09375,0.40625 L 9,18.25 8.984375,18.140625 8.96875,18.03125 8.609375,18.140625 8.25,18.25 8.53125,18.15625 8.8125,18.0625 8.625,18.125 Q 8.4375,18.1875 8.3125,18.3125 L 8.1875,18.4375 8.25,18.375 8.3125,18.3125 7.984375,18.015625 7.65625,17.71875 7.609375,17.765625 7.5625,17.8125 7.65625,17.71875 Q 7.75,17.625 7.75,17.5 l 0,-0.125 0,0.1875 0,0.1875 0,-0.25"
         id="path25251"
         inkscape:connector-curvature="0" />
      <path
         style="fill:#324b3a;fill-opacity:1"
         d="M 8.875,17.625 8.75,17.25 8.84375,17.53125 8.9375,17.8125 8.875,17.625 Q 8.8125,17.4375 8.71875,17.28125 L 8.625,17.125 8.671875,17.203125 8.71875,17.28125 8.984375,17.015625 9.25,16.75 9.5,17 q 0.25,0.25 0.375,0.625 L 10,18 9.484375,18.015625 8.96875,18.03125 8.984375,18.140625 9,18.25 8.96875,18.03125 Q 8.9375,17.8125 8.875,17.625 L 8.8125,17.4375 8.90625,17.71875 9,18 8.875,17.625 M 9.4375,16.9375 9.25,16.75 9.1875,16.6875 9.125,16.625 9.25,16.75 Q 9.375,16.875 9.5,17 l 0.125,0.125 -0.1875,-0.1875"
         id="path25253"
         inkscape:connector-curvature="0" />
      <path
         style="fill:#918e85;fill-opacity:1"
         d="M 12.125,17.625 Q 12.25,17.25 12.5,17 l 0.25,-0.25 0.28125,0.28125 0.28125,0.28125 0.0625,-0.0625 0.0625,-0.0625 -0.125,0.125 q -0.125,0.125 -0.1875,0.3125 L 13.0625,17.8125 13.15625,17.53125 13.25,17.25 13.125,17.625 13,18 l -0.46875,0 -0.46875,0 0,0.09375 0,0.09375 0,-0.1875 q 0,-0.1875 0.0625,-0.375 L 12.1875,17.4375 12.09375,17.71875 12,18 12.125,17.625 M 12.8125,16.6875 12.75,16.75 12.5625,16.9375 12.375,17.125 12.5,17 q 0.125,-0.125 0.25,-0.25 l 0.125,-0.125 -0.0625,0.0625"
         id="path25255"
         inkscape:connector-curvature="0" />
      <path
         style="fill:#fffff7;fill-opacity:1"
         d="m 13.125,17.625 q 0.125,-0.375 0.5,-0.5 L 14,17 l 0,0.5 0,0.5 -0.5,0 -0.5,0 0.125,-0.375 M 13.625,18 14,18 14.125,18 14.25,18 14,18 q -0.25,0 -0.5,0 l -0.25,0 0.375,0"
         id="path25257"
         inkscape:connector-curvature="0" />
      <path
         style="fill:#9fc499;fill-opacity:1"
         d="m 14,17.5 0,-0.5 0.5,0 0.5,0 0,0.5 0,0.5 -0.5,0 -0.5,0 0,-0.5 M 13.875,18 14,18 l 0.375,0 0.375,0 -0.25,0 q -0.25,0 -0.5,0 l -0.25,0 0.125,0"
         id="path25259"
         inkscape:connector-curvature="0" />
      <path
         style="fill:#6f6c5a;fill-opacity:1"
         d="m 15,17.5 0,-0.5 0.5,0 0.5,0 0,0.5 0,0.5 -0.5,0 -0.5,0 0,-0.5"
         id="path25261"
         inkscape:connector-curvature="0" />
      <path
         style="fill:#757265;fill-opacity:1"
         d="m 16,17.5 0,-0.5 0.5,0 0.5,0 0,0.5 0,0.5 -0.5,0 -0.5,0 0,-0.5"
         id="path25263"
         inkscape:connector-curvature="0" />
      <path
         style="fill:#707161;fill-opacity:1"
         d="m 17,17.5 0,-0.5 0.375,0.125 q 0.375,0.125 0.5,0.5 L 18,18 17.5,18 17,18 17,17.5"
         id="path25265"
         inkscape:connector-curvature="0" />
      <path
         style="fill:#222b21;fill-opacity:1"
         d="M 17.875,17.625 17.75,17.25 17.84375,17.53125 17.9375,17.8125 17.875,17.625 q -0.0625,-0.1875 -0.1875,-0.3125 l -0.125,-0.125 0.0625,0.0625 0.0625,0.0625 0.28125,-0.28125 Q 18.25,16.75 18.625,16.875 19,17 19.125,17.375 19.25,17.75 18.953125,18.015625 L 18.65625,18.28125 18.70312,18.32812 18.75,18.375 18.65625,18.28125 Q 18.5625,18.1875 18.375,18.125 L 18.1875,18.0625 18.46875,18.15625 18.75,18.25 18.375,18.125 18,18 17.875,17.625"
         id="path25267"
         inkscape:connector-curvature="0" />
      <path
         style="fill:#ff5500;fill-opacity:1"
         d="m 20,17.5 0,-0.5 0.5,0 0.5,0 0,0.5 0,0.5 -0.5,0 -0.5,0 0,-0.5"
         id="path25269"
         inkscape:connector-curvature="0" />
      <path
         style="fill:#ff5a00;fill-opacity:1"
         d="M 1,18.5 1,18 1.5,18 2,18 2,18.5 2,19 1.5,19 1,19 1,18.5"
         id="path25271"
         inkscape:connector-curvature="0" />
      <path
         style="fill:#96a088;fill-opacity:1"
         d="M 3.125,18.375 3,18 3.09375,18.28125 3.1875,18.5625 3.125,18.375 Q 3.0625,18.1875 3.0625,18 l 0,-0.1875 0,0.09375 0,0.09375 0.46875,0 L 4,18 4.015625,18.484375 4.03125,18.96875 4.140625,18.984375 4.25,19 4.03125,18.96875 Q 3.8125,18.9375 3.625,18.875 L 3.4375,18.8125 3.71875,18.90625 4,19 3.625,18.875 Q 3.25,18.75 3.125,18.375 M 4.125,18 4,18 3.625,18 3.25,18 3.5,18 q 0.25,0 0.5,0 l 0.25,0 -0.125,0"
         id="path25273"
         inkscape:connector-curvature="0" />
      <path
         style="fill:#edffe4;fill-opacity:1"
         d="M 4.015625,18.484375 4,18 4.5,18 5,18 5,18.5 5,19 4.5,19 4,19 4.375,19 4.75,19 4.5,19 Q 4.25,19 4.03125,18.96875 L 3.8125,18.9375 3.921875,18.953125 4.03125,18.96875 4.015625,18.484375 M 4.625,19 5,19 5.125,19 5.25,19 5,19 q -0.25,0 -0.5,0 l -0.25,0 0.375,0 M 5.125,18 5,18 4.625,18 4.25,18 4.5,18 q 0.25,0 0.5,0 l 0.25,0 -0.125,0 M 4.375,18 4,18 3.875,18 3.75,18 4,18 q 0.25,0 0.5,0 l 0.25,0 -0.375,0"
         id="path25275"
         inkscape:connector-curvature="0" />
      <path
         style="fill:#dbffd1;fill-opacity:1"
         d="M 5,18.5 5,18 5.5,18 6,18 6,18.5 6,19 5.5,19 5,19 5,18.5 M 4.875,19 5,19 5.375,19 5.75,19 5.5,19 Q 5.25,19 5,19 l -0.25,0 0.125,0 M 5.375,18 5,18 4.875,18 4.75,18 5,18 q 0.25,0 0.5,0 l 0.25,0 -0.375,0"
         id="path25277"
         inkscape:connector-curvature="0" />
      <path
         style="fill:#d7fdd2;fill-opacity:1"
         d="M 6,18.5 6,18 6.5,18 7,18 7,18.5 7,19 6.5,19 6,19 6,18.5 M 6.625,19 7,19 7.125,19 7.25,19 7,19 q -0.25,0 -0.5,0 l -0.25,0 0.375,0"
         id="path25279"
         inkscape:connector-curvature="0" />
      <path
         style="fill:#b8edbe;fill-opacity:1"
         d="M 7,18.5 7,18 7.375,17.875 7.75,17.75 7.46875,17.84375 7.1875,17.9375 7.375,17.875 Q 7.5625,17.8125 7.65625,17.71875 L 7.75,17.625 7.703125,17.671875 7.65625,17.71875 7.984375,18.015625 8.3125,18.3125 8.375,18.25 8.4375,18.1875 8.3125,18.3125 Q 8.1875,18.4375 8.125,18.625 L 8.0625,18.8125 8.15625,18.53125 8.25,18.25 8.125,18.625 8,19 7.5,19 7,19 7,18.5 M 6.875,19 7,19 7.375,19 7.75,19 7.5,19 Q 7.25,19 7,19 l -0.25,0 0.125,0 M 7.625,19 8,19 8.125,19 8.25,19 8,19 q -0.25,0 -0.5,0 l -0.25,0 0.375,0"
         id="path25281"
         inkscape:connector-curvature="0" />
      <path
         style="fill:#b0f8c1;fill-opacity:1"
         d="M 8.125,18.625 Q 8.25,18.25 8.609375,18.140625 L 8.96875,18.03125 8.953125,17.921875 8.9375,17.8125 8.96875,18.03125 Q 9,18.25 9,18.5 L 9,18.75 9,18.375 9,18 9,18.5 Q 9,19 8.5,19 L 8,19 8.125,18.625 M 7.875,19 8,19 8.375,19 8.75,19 8.5,19 Q 8.25,19 8,19 l -0.25,0 0.125,0"
         id="path25283"
         inkscape:connector-curvature="0" />
      <path
         style="fill:#567c60;fill-opacity:1"
         d="M 9,18.5 9,18 9,18.375 9,18.75 9,18.5 Q 9,18.25 8.96875,18.03125 L 8.9375,17.8125 8.953125,17.921875 8.96875,18.03125 9.484375,18.015625 10,18 9.875,18.375 Q 9.75,18.75 9.3125,18.8125 L 8.875,18.875 8.8125,18.9375 8.75,19 8.875,18.875 Q 9,18.75 9,18.5 L 9,18.25 9,18.625 9,19 9,18.5"
         id="path25285"
         inkscape:connector-curvature="0" />
      <path
         style="fill:#acc19e;fill-opacity:1"
         d="M 12.125,18.375 12,18 12.09375,18.28125 12.1875,18.5625 12.125,18.375 Q 12.0625,18.1875 12.0625,18 l 0,-0.1875 0,0.09375 0,0.09375 0.46875,0 0.46875,0 0.01563,0.484375 0.01563,0.484375 0.109375,0.01563 L 13.25,19 13.03125,18.96875 Q 12.8125,18.9375 12.625,18.875 L 12.4375,18.8125 12.71875,18.90625 13,19 12.625,18.875 q -0.375,-0.125 -0.5,-0.5"
         id="path25287"
         inkscape:connector-curvature="0" />
      <path
         style="fill:#baf5c2;fill-opacity:1"
         d="M 13.015625,18.484375 13,18 l 0.5,0 0.5,0 0,0.5 0,0.5 -0.5,0 -0.5,0 0.375,0 0.375,0 -0.25,0 q -0.25,0 -0.46875,-0.03125 l -0.21875,-0.03125 0.109375,0.01563 0.109375,0.01563 -0.01563,-0.484375"
         id="path25289"
         inkscape:connector-curvature="0" />
      <path
         style="fill:#a8eab5;fill-opacity:1"
         d="m 14,18.5 0,-0.5 0.5,0 0.5,0 0,0.5 0,0.5 -0.5,0 -0.5,0 0,-0.5 M 14.625,19 15,19 15.125,19 15.25,19 15,19 q -0.25,0 -0.5,0 l -0.25,0 0.375,0"
         id="path25291"
         inkscape:connector-curvature="0" />
      <path
         style="fill:#d6fecb;fill-opacity:1"
         d="m 15,18.5 0,-0.5 0.5,0 0.5,0 0,0.5 0,0.5 -0.5,0 -0.5,0 0,-0.5 M 14.875,19 15,19 l 0.375,0 0.375,0 -0.25,0 q -0.25,0 -0.5,0 l -0.25,0 0.125,0"
         id="path25293"
         inkscape:connector-curvature="0" />
      <path
         style="fill:#dcffd2;fill-opacity:1"
         d="m 16,18.5 0,-0.5 0.5,0 0.5,0 0,0.5 0,0.5 -0.5,0 -0.5,0 0,-0.5"
         id="path25295"
         inkscape:connector-curvature="0" />
      <path
         style="fill:#d1ffd2;fill-opacity:1"
         d="m 17,18.5 0,-0.5 0.5,0 0.5,0 0,0.5 Q 18,19 17.5,19 l -0.5,0 0,-0.5"
         id="path25297"
         inkscape:connector-curvature="0" />
      <path
         style="fill:#4e6f56;fill-opacity:1"
         d="m 18,18.5 0,-0.5 0.375,0.125 q 0.375,0.125 0.375,0.375 0,0.25 -0.4375,0.3125 L 17.875,18.875 17.8125,18.9375 17.75,19 17.875,18.875 Q 18,18.75 18,18.5 l 0,-0.25 0,0.375 0,0.375 0,-0.5"
         id="path25299"
         inkscape:connector-curvature="0" />
      <path
         style="fill:#ff5900;fill-opacity:1"
         d="m 20,18.5 0,-0.5 0.5,0 0.5,0 0,0.5 0,0.5 -0.5,0 -0.5,0 0,-0.5"
         id="path25301"
         inkscape:connector-curvature="0" />
      <path
         style="fill:#ff5f00;fill-opacity:1"
         d="M 1,19.5 1,19 1.5,19 2,19 2.125,19.375 2.25,19.75 2.15625,19.46875 2.0625,19.1875 2.125,19.375 q 0.0625,0.1875 0.1875,0.3125 l 0.125,0.125 L 2.375,19.75 2.3125,19.6875 2.03125,19.96875 Q 1.75,20.25 1.375,20.125 L 1,20 1,19.5"
         id="path25303"
         inkscape:connector-curvature="0" />
      <path
         style="fill:#0f1510;fill-opacity:1"
         d="M 2.875,19.625 Q 2.75,19.25 3.03125,18.96875 L 3.3125,18.6875 3.25,18.625 3.1875,18.5625 l 0.125,0.125 q 0.125,0.125 0.3125,0.1875 L 3.8125,18.9375 3.53125,18.84375 3.25,18.75 3.625,18.875 4,19 3.71875,18.90625 3.4375,18.8125 3.625,18.875 q 0.1875,0.0625 0.40625,0.09375 L 4.25,19 4.140625,18.984375 4.03125,18.96875 4.015625,19.484375 4,20 3.5,20 3,20 2.875,19.625"
         id="path25305"
         inkscape:connector-curvature="0" />
      <path
         style="fill:#19281c;fill-opacity:1"
         d="M 4.015625,19.484375 4.03125,18.96875 3.921875,18.953125 3.8125,18.9375 4.03125,18.96875 Q 4.25,19 4.5,19 L 4.75,19 4.375,19 4,19 4.5,19 5,19 5,19.5 5,20 4.5,20 4,20 4.015625,19.484375 M 5.125,19 5,19 4.625,19 4.25,19 4.5,19 q 0.25,0 0.5,0 l 0.25,0 -0.125,0"
         id="path25307"
         inkscape:connector-curvature="0" />
      <path
         style="fill:#16251b;fill-opacity:1"
         d="M 5,19.5 5,19 5.5,19 6,19 6,19.5 6,20 5.5,20 5,20 5,19.5 M 5.375,19 5,19 4.875,19 4.75,19 5,19 q 0.25,0 0.5,0 l 0.25,0 -0.375,0"
         id="path25309"
         inkscape:connector-curvature="0" />
      <path
         style="fill:#16251a;fill-opacity:1"
         d="M 6,19.5 6,19 6.5,19 7,19 7,19.5 7,20 6.5,20 6,20 6,19.5 M 7.125,19 7,19 6.625,19 6.25,19 6.5,19 q 0.25,0 0.5,0 l 0.25,0 -0.125,0"
         id="path25311"
         inkscape:connector-curvature="0" />
      <path
         style="fill:#17251c;fill-opacity:1"
         d="M 7,19.5 7,19 7.5,19 8,19 8,19.5 8,20 7.5,20 7,20 7,19.5 M 8.125,19 8,19 7.625,19 7.25,19 7.5,19 q 0.25,0 0.5,0 l 0.25,0 -0.125,0 M 7.375,19 7,19 6.875,19 6.75,19 7,19 q 0.25,0 0.5,0 l 0.25,0 -0.375,0"
         id="path25313"
         inkscape:connector-curvature="0" />
      <path
         style="fill:#1b291f;fill-opacity:1"
         d="M 8,19.5 8,19 8.5,19 9,19 8.625,19 8.25,19 8.5,19 q 0.25,0 0.375,-0.125 L 9,18.75 8.9375,18.8125 8.875,18.875 8.9375,19.4375 9,20 8.5,20 8,20 8,19.5 M 8.375,19 8,19 7.875,19 7.75,19 8,19 q 0.25,0 0.5,0 l 0.25,0 -0.375,0"
         id="path25315"
         inkscape:connector-curvature="0" />
      <path
         style="fill:#0d120e;fill-opacity:1"
         d="M 8.9375,19.4375 8.875,18.875 9.3125,18.8125 9.75,18.75 9.46875,18.84375 9.1875,18.9375 9.375,18.875 Q 9.5625,18.8125 9.6875,18.6875 L 9.8125,18.5625 9.75,18.625 9.6875,18.6875 9.96875,18.96875 Q 10.25,19.25 10.125,19.625 L 10,20 9.5,20 9,20 8.9375,19.4375"
         id="path25317"
         inkscape:connector-curvature="0" />
      <path
         style="fill:#111b14;fill-opacity:1"
         d="M 11.875,19.625 Q 11.75,19.25 12.03125,18.96875 L 12.3125,18.6875 12.25,18.625 l -0.0625,-0.0625 0.125,0.125 q 0.125,0.125 0.3125,0.1875 L 12.8125,18.9375 12.53125,18.84375 12.25,18.75 12.625,18.875 13,19 12.71875,18.90625 12.4375,18.8125 12.625,18.875 q 0.1875,0.0625 0.40625,0.09375 L 13.25,19 13.140625,18.984375 13.03125,18.96875 13.015625,19.484375 13,20 12.5,20 12,20 11.875,19.625"
         id="path25319"
         inkscape:connector-curvature="0" />
      <path
         style="fill:#1a281e;fill-opacity:1"
         d="M 13.015625,19.484375 13.03125,18.96875 12.921875,18.953125 12.8125,18.9375 13.03125,18.96875 Q 13.25,19 13.5,19 l 0.25,0 -0.375,0 -0.375,0 0.5,0 0.5,0 0,0.5 0,0.5 -0.5,0 -0.5,0 0.01563,-0.515625"
         id="path25321"
         inkscape:connector-curvature="0" />
      <path
         style="fill:#1a261d;fill-opacity:1"
         d="m 14,19.5 0,-0.5 0.5,0 0.5,0 0,0.5 0,0.5 -0.5,0 -0.5,0 0,-0.5 M 15.125,19 15,19 l -0.375,0 -0.375,0 0.25,0 q 0.25,0 0.5,0 l 0.25,0 -0.125,0"
         id="path25323"
         inkscape:connector-curvature="0" />
      <path
         style="fill:#16251c;fill-opacity:1"
         d="m 15,19.5 0,-0.5 0.5,0 0.5,0 0,0.5 0,0.5 -0.5,0 -0.5,0 0,-0.5 M 15.375,19 15,19 14.875,19 14.75,19 15,19 q 0.25,0 0.5,0 l 0.25,0 -0.375,0"
         id="path25325"
         inkscape:connector-curvature="0" />
      <path
         style="fill:#16251b;fill-opacity:1"
         d="m 16,19.5 0,-0.5 0.5,0 0.5,0 0,0.5 0,0.5 -0.5,0 -0.5,0 0,-0.5"
         id="path25327"
         inkscape:connector-curvature="0" />
      <path
         style="fill:#1a281e;fill-opacity:1"
         d="m 17,19.5 0,-0.5 0.5,0 0.5,0 -0.375,0 -0.375,0 0.25,0 q 0.25,0 0.375,-0.125 L 18,18.75 17.9375,18.8125 17.875,18.875 17.9375,19.4375 18,20 17.5,20 17,20 17,19.5"
         id="path25329"
         inkscape:connector-curvature="0" />
      <path
         style="fill:#0a0e0c;fill-opacity:1"
         d="M 17.9375,19.4375 17.875,18.875 18.3125,18.8125 18.75,18.75 18.46875,18.84375 18.1875,18.9375 18.375,18.875 q 0.1875,-0.0625 0.28125,-0.15625 L 18.75,18.625 l -0.04687,0.04687 -0.04687,0.04687 0.296875,0.265625 Q 19.25,19.25 19.125,19.625 L 19,20 18.5,20 18,20 17.9375,19.4375"
         id="path25331"
         inkscape:connector-curvature="0" />
      <path
         style="fill:#ff5f00;fill-opacity:1"
         d="M 19.875,19.375 20,19 l 0.5,0 0.5,0 0,0.5 0,0.5 -0.375,0.125 Q 20.25,20.25 19.96875,19.96875 L 19.6875,19.6875 19.625,19.75 l -0.0625,0.0625 0.125,-0.125 q 0.125,-0.125 0.1875,-0.3125 L 19.9375,19.1875 19.84375,19.46875 19.75,19.75 19.875,19.375"
         id="path25333"
         inkscape:connector-curvature="0" />
      <path
         style="fill:#ff6400;fill-opacity:1"
         d="M 1.125,20.375 1,20 1.375,20.125 Q 1.75,20.25 2.03125,19.96875 L 2.3125,19.6875 2.25,19.625 2.1875,19.5625 l 0.125,0.125 q 0.125,0.125 0.3125,0.1875 L 2.8125,19.9375 2.53125,19.84375 2.25,19.75 2.625,19.875 3,20 3.5,20 4,20 4,20.5 4,21 3.5,21 Q 3,21 2.5,21 2,21 1.625,20.875 1.25,20.75 1.125,20.375"
         id="path25335"
         inkscape:connector-curvature="0" />
      <path
         style="fill:#ff6500;fill-opacity:1"
         d="M 4,20.5 4,20 4.5,20 5,20 5,20.5 5,21 4.5,21 4,21 4,20.5"
         id="path25337"
         inkscape:connector-curvature="0" />
      <path
         style="fill:#ff6400;fill-opacity:1"
         d="M 5,20.5 5,20 5.5,20 6,20 6.5,20 7,20 7,20.5 7,21 6.5,21 Q 6,21 5.5,21 L 5,21 5,20.5"
         id="path25339"
         inkscape:connector-curvature="0" />
      <path
         style="fill:#ff6500;fill-opacity:1"
         d="M 7,20.5 7,20 7.5,20 8,20 8,20.5 8,21 7.5,21 7,21 7,20.5"
         id="path25341"
         inkscape:connector-curvature="0" />
      <path
         style="fill:#ff6400;fill-opacity:1"
         d="m 8,20.5 0,-0.5 0.5,0 0.5,0 0.5,0 0.5,0 0.5,0 0.5,0 0,0.5 0,0.5 -0.5,0 q -0.5,0 -1,0 -0.5,0 -1,0 L 8,21 8,20.5"
         id="path25343"
         inkscape:connector-curvature="0" />
      <path
         style="fill:#ff6500;fill-opacity:1"
         d="m 11,20.5 0,-0.5 0.5,0 0.5,0 0,0.5 0,0.5 -0.5,0 -0.5,0 0,-0.5"
         id="path25345"
         inkscape:connector-curvature="0" />
      <path
         style="fill:#ff6400;fill-opacity:1"
         d="m 12,20.5 0,-0.5 0.5,0 0.5,0 0,0.5 0,0.5 -0.5,0 -0.5,0 0,-0.5"
         id="path25347"
         inkscape:connector-curvature="0" />
      <path
         style="fill:#ff6500;fill-opacity:1"
         d="m 13,20.5 0,-0.5 0.5,0 0.5,0 0,0.5 0,0.5 -0.5,0 -0.5,0 0,-0.5"
         id="path25349"
         inkscape:connector-curvature="0" />
      <path
         style="fill:#ff6400;fill-opacity:1"
         d="m 14,20.5 0,-0.5 0.5,0 0.5,0 0.5,0 0.5,0 0.5,0 0.5,0 0.5,0 0.5,0 0.5,0 0.5,0 0.375,-0.125 0.375,-0.125 -0.28125,0.09375 -0.28125,0.09375 0.1875,-0.0625 q 0.1875,-0.0625 0.3125,-0.1875 l 0.125,-0.125 -0.0625,0.0625 -0.0625,0.0625 0.28125,0.28125 Q 20.25,20.25 20.625,20.125 L 21,20 20.875,20.375 q -0.125,0.375 -0.5,0.5 Q 20,21 19.5,21 q -0.5,0 -1,0 -0.5,0 -1,0 -0.5,0 -1,0 -0.5,0 -1,0 -0.5,0 -1,0 l -0.5,0 0,-0.5"
         id="path25351"
         inkscape:connector-curvature="0" />
    </g>
  </g>
</svg>
