<?xml version="1.0" encoding="UTF-8" standalone="no"?>
<!-- Created with Inkscape (http://www.inkscape.org/) -->

<svg
   xmlns:dc="http://purl.org/dc/elements/1.1/"
   xmlns:cc="http://creativecommons.org/ns#"
   xmlns:rdf="http://www.w3.org/1999/02/22-rdf-syntax-ns#"
   xmlns:svg="http://www.w3.org/2000/svg"
   xmlns="http://www.w3.org/2000/svg"
   xmlns:sodipodi="http://sodipodi.sourceforge.net/DTD/sodipodi-0.dtd"
   xmlns:inkscape="http://www.inkscape.org/namespaces/inkscape"
   width="20"
   height="20"
   viewBox="0 0 20 20"
   id="svg3347"
   version="1.1"
   inkscape:version="0.91 r13725"
   sodipodi:docname="Civ5Icon.Team10.svg">
  <defs
     id="defs3349" />
  <sodipodi:namedview
     id="base"
     pagecolor="#ffffff"
     bordercolor="#666666"
     borderopacity="1.0"
     inkscape:pageopacity="0.0"
     inkscape:pageshadow="2"
     inkscape:zoom="11.2"
     inkscape:cx="7.324946"
     inkscape:cy="8.5424036"
     inkscape:document-units="px"
     inkscape:current-layer="g27203"
     showgrid="false"
     units="px"
     inkscape:window-width="1477"
     inkscape:window-height="962"
     inkscape:window-x="533"
     inkscape:window-y="95"
     inkscape:window-maximized="0" />
  <metadata
     id="metadata3352">
    <rdf:RDF>
      <cc:Work
         rdf:about="">
        <dc:format>image/svg+xml</dc:format>
        <dc:type
           rdf:resource="http://purl.org/dc/dcmitype/StillImage" />
        <dc:title></dc:title>
      </cc:Work>
    </rdf:RDF>
  </metadata>
  <g
     inkscape:label="Layer 1"
     inkscape:groupmode="layer"
     id="layer1"
     transform="translate(0,-1032.3622)">
    <g
       transform="translate(-0.22321519 1031.8712)"
       id="g27203">
      <g
         transform="translate(-0.62499952 -0.089356869)"
         id="g67385">
        <path
           style="fill:#000000;fill-opacity:0"
           d="M 0,0.5 0,0 0.5,0 1,0 1.5,0 2,0 2.5,0 3,0 3.5,0 4,0 4.5,0 5,0 5.5,0 6,0 6.5,0 7,0 7.5,0 8,0 8.5,0 9,0 9.5,0 10,0 l 0.5,0 0.5,0 0.5,0 0.5,0 0.5,0 0.5,0 0.5,0 0.5,0 0.5,0 0.5,0 0.5,0 0.5,0 0.5,0 0.5,0 0.5,0 0.5,0 0.5,0 0.5,0 0.5,0 0.5,0 0.5,0 0.5,0 0.5,0 0.5,0 0,0.5 0,0.5 0,0.5 0,0.5 0,0.5 0,0.5 0,0.5 0,0.5 0,0.5 0,0.5 0,0.5 0,0.5 0,0.5 0,0.5 0,0.5 0,0.5 0,0.5 0,0.5 0,0.5 0,0.5 0,0.5 0,0.5 0,0.5 0,0.5 0,0.5 0,0.5 0,0.5 0,0.5 0,0.5 0,0.5 0,0.5 0,0.5 0,0.5 0,0.5 0,0.5 0,0.5 0,0.5 0,0.5 0,0.5 0,0.5 0,0.5 0,0.5 0,0.5 0,0.5 -0.5,0 L 21,22 20.5,22 20,22 19.5,22 19,22 18.5,22 18,22 17.5,22 17,22 16.5,22 16,22 15.5,22 15,22 14.5,22 14,22 13.5,22 13,22 12.5,22 12,22 11.5,22 11,22 10.5,22 10,22 9.5,22 9,22 8.5,22 8,22 7.5,22 7,22 6.5,22 6,22 5.5,22 5,22 4.5,22 4,22 3.5,22 3,22 2.5,22 2,22 1.5,22 1,22 0.5,22 0,22 0,21.5 0,21 0,20.5 0,20 0,19.5 0,19 0,18.5 0,18 0,17.5 0,17 0,16.5 0,16 0,15.5 0,15 0,14.5 0,14 0,13.5 0,13 0,12.5 0,12 0,11.5 0,11 0,10.5 0,10 0,9.5 0,9 0,8.5 0,8 0,7.5 0,7 0,6.5 0,6 0,5.5 0,5 0,4.5 0,4 0,3.5 0,3 0,2.5 0,2 0,1.5 0,1 0,0.5 M 14.625,20.875 15,21 15.375,20.875 q 0.375,-0.125 0.5,-0.5 L 16,20 15.875,19.625 Q 15.75,19.25 15.5,19 15.25,18.75 15.125,18.375 15,18 14.625,17.875 14.25,17.75 14.125,17.375 14,17 13.625,16.875 13.25,16.75 13.125,16.375 13,16 12.625,15.875 12.25,15.75 12.125,15.375 L 12,15 12,14.5 12,14 12.125,13.625 q 0.125,-0.375 0.5,-0.5 L 13,13 l 0,0.5 q 0,0.5 0.5,0.5 l 0.5,0 0.5,0 0.5,0 0.5,0 0.5,0 0.5,0 0.5,0 0.5,0 q 0.5,0 0.625,-0.375 0.125,-0.375 0.5,-0.5 Q 19,13 19,12.5 l 0,-0.5 0.5,0 Q 20,12 20,11.5 L 20,11 20.125,10.625 Q 20.25,10.25 19.96875,9.96875 L 19.6875,9.6875 19.625,9.75 19.5625,9.8125 19.6875,9.6875 Q 19.8125,9.5625 19.875,9.375 L 19.9375,9.1875 19.84375,9.46875 19.75,9.75 19.875,9.375 20,9 19.875,8.625 19.75,8.25 19.84375,8.53125 19.9375,8.8125 19.875,8.625 Q 19.8125,8.4375 19.71875,8.28125 L 19.625,8.125 19.671875,8.203125 19.71875,8.28125 19.984375,8.015625 Q 20.25,7.75 20.125,7.375 L 20,7 20,6.5 Q 20,6 19.5,6 L 19,6 19,5.5 Q 19,5 18.5,5 L 18,5 18,4.5 Q 18,4 17.5,4 L 17,4 17,3.5 Q 17,3 16.5,3 L 16,3 16,2.5 Q 16,2 15.5,2 L 15,2 15,1.5 Q 15,1 14.5,1 L 14,1 13.5,1 13,1 12.5,1 Q 12,1 12,1.5 L 12,2 11.875,2.375 Q 11.75,2.75 11.375,2.875 11,3 11,3.5 L 11,4 10.875,4.375 Q 10.75,4.75 10.5,4.75 10.25,4.75 10.125,4.375 10,4 9.625,3.875 9.25,3.75 9.125,3.375 9,3 8.5,3 L 8,3 7.5,3 Q 7,3 6.875,3.375 6.75,3.75 6.375,3.875 L 6,4 5.5,4 Q 5,4 4.875,4.375 4.75,4.75 4.375,4.875 4,5 4,5.5 L 4,6 3.875,6.375 Q 3.75,6.75 3.5,6.75 3.25,6.75 2.984375,7.046875 L 2.71875,7.34375 2.765625,7.390625 2.8125,7.4375 2.71875,7.34375 Q 2.625,7.25 2.5,7.25 l -0.125,0 0.1875,0 0.1875,0 -0.25,0 -0.25,0 0.1875,0 0.1875,0 -0.125,0 q -0.125,0 -0.21875,0.09375 L 2.1875,7.4375 2.234375,7.390625 2.28125,7.34375 2.015625,7.046875 Q 1.75,6.75 1.375,6.875 1,7 0.875,7.375 0.75,7.75 1.046875,8.015625 L 1.34375,8.28125 1.390625,8.234375 1.4375,8.1875 1.34375,8.28125 Q 1.25,8.375 1.25,8.5 l 0,0.125 0,-0.1875 0,-0.1875 0,0.25 0,0.25 0,-0.1875 0,-0.1875 0,0.125 q 0,0.125 0.09375,0.21875 L 1.4375,8.8125 1.390625,8.765625 1.34375,8.71875 1.046875,8.984375 Q 0.75,9.25 0.875,9.625 1,10 1.375,10.125 q 0.375,0.125 0.5,0.5 0.125,0.375 0.5,0.5 0.375,0.125 0.5,0.5 0.125,0.375 0.5,0.5 0.375,0.125 0.5,0.5 Q 4,13 4.375,13.125 4.75,13.25 5.015625,12.984375 L 5.28125,12.71875 5.234375,12.640625 5.1875,12.5625 5.28125,12.71875 Q 5.375,12.875 5.5,13 L 5.625,13.125 5.4375,12.9375 5.25,12.75 5.5,13 q 0.25,0.25 0.5,0.5 0.25,0.25 0.5,0.5 0.25,0.25 0.375,0.625 0.125,0.375 0.5,0.5 0.375,0.125 0.5,0.5 0.125,0.375 0.5,0.5 0.375,0.125 0.5,0.5 0.125,0.375 0.5,0.5 0.375,0.125 0.5,0.5 0.125,0.375 0.5,0.5 0.375,0.125 0.5,0.5 0.125,0.375 0.5,0.5 0.375,0.125 0.5,0.5 0.125,0.375 0.5,0.5 0.375,0.125 0.65625,-0.15625 L 13.3125,19.6875 13.25,19.625 l -0.0625,-0.0625 0.125,0.125 q 0.125,0.125 0.3125,0.1875 L 13.8125,19.9375 13.53125,19.84375 13.25,19.75 13.625,19.875 14,20 l 0.125,0.375 q 0.125,0.375 0.5,0.5"
           id="path67387" />
        <path
           style="fill:#000000;fill-opacity:0.19215686"
           d="M 12,1.5 Q 12,1 12.5,1 L 13,1 12.875,1.375 q -0.125,0.375 -0.5,0.5 L 12,2 12,1.5"
           id="path67389" />
        <path
           style="fill:#090909;fill-opacity:0.69019608"
           d="M 12.875,1.375 13,1 13.5,1 14,1 14.125,1.375 14.25,1.75 14.15625,1.46875 14.0625,1.1875 14.125,1.375 q 0.0625,0.1875 0.1875,0.3125 l 0.125,0.125 L 14.375,1.75 14.3125,1.6875 14.03125,2 13.75,2.3125 13.8125,2.34375 13.875,2.375 13.75,2.3125 Q 13.625,2.25 13.5,2.25 l -0.125,0 0.1875,0 0.1875,0 -0.25,0 -0.25,0 0.1875,0 0.1875,0 -0.125,0 q -0.125,0 -0.21875,0.09375 L 13.1875,2.4375 13.234375,2.390625 13.28125,2.34375 12.984375,2.015625 12.6875,1.6875 12.625,1.75 12.5625,1.8125 12.6875,1.6875 Q 12.8125,1.5625 12.875,1.375 L 12.9375,1.1875 12.84375,1.46875 12.75,1.75 12.875,1.375"
           id="path67391" />
        <path
           style="fill:#000000;fill-opacity:0.03921569"
           d="M 14.125,1.375 14,1 14.5,1 Q 15,1 15,1.5 L 15,2 14.625,1.875 q -0.375,-0.125 -0.5,-0.5"
           id="path67393" />
        <path
           style="fill:#0a0a0a;fill-opacity:0.59607843"
           d="M 11.875,2.375 12,2 12.375,1.875 12.75,1.75 12.46875,1.84375 12.1875,1.9375 12.375,1.875 Q 12.5625,1.8125 12.6875,1.6875 L 12.8125,1.5625 12.75,1.625 12.6875,1.6875 12.984375,2.015625 13.28125,2.34375 13.328125,2.296875 13.375,2.25 13.28125,2.34375 Q 13.1875,2.4375 13.125,2.625 L 13.0625,2.8125 13.15625,2.53125 13.25,2.25 13.125,2.625 13,3 12.625,3.125 12.25,3.25 12.53125,3.15625 12.8125,3.0625 12.625,3.125 Q 12.4375,3.1875 12.28125,3.28125 L 12.125,3.375 12.203125,3.328125 12.28125,3.28125 11.984375,2.984375 11.6875,2.6875 11.625,2.75 11.5625,2.8125 11.6875,2.6875 Q 11.8125,2.5625 11.875,2.375 L 11.9375,2.1875 11.84375,2.46875 11.75,2.75 11.875,2.375"
           id="path67395" />
        <path
           style="fill:#6e6e6e;fill-opacity:1"
           d="M 13.125,2.625 Q 13.25,2.25 13.5,2.25 13.75,2.25 14,2.5 L 14.25,2.75 13.984375,3.015625 13.71875,3.28125 13.796875,3.328125 13.875,3.375 13.71875,3.28125 Q 13.5625,3.1875 13.375,3.125 L 13.1875,3.0625 13.46875,3.15625 13.75,3.25 13.375,3.125 13,3 13.125,2.625 M 14.3125,2.8125 14.25,2.75 14.0625,2.5625 13.875,2.375 14,2.5 q 0.125,0.125 0.25,0.25 l 0.125,0.125 -0.0625,-0.0625"
           id="path67397" />
        <path
           style="fill:#242424;fill-opacity:0.85098039"
           d="M 14,2.5 13.75,2.25 13.9375,2.4375 14.125,2.625 14,2.5 Q 13.875,2.375 13.75,2.3125 L 13.625,2.25 13.6875,2.28125 13.75,2.3125 14.03125,2 14.3125,1.6875 14.25,1.625 14.1875,1.5625 l 0.125,0.125 q 0.125,0.125 0.3125,0.1875 L 14.8125,1.9375 14.53125,1.84375 14.25,1.75 14.625,1.875 15,2 15.125,2.375 15.25,2.75 15.15625,2.46875 15.0625,2.1875 15.125,2.375 q 0.0625,0.1875 0.1875,0.3125 l 0.125,0.125 L 15.375,2.75 15.3125,2.6875 15.03125,2.96875 14.75,3.25 14.5,3 Q 14.25,2.75 14,2.5 M 14.5625,3.0625 14.75,3.25 14.8125,3.3125 14.875,3.375 14.75,3.25 Q 14.625,3.125 14.5,3 l -0.125,-0.125 0.1875,0.1875"
           id="path67399" />
        <path
           style="fill:#000000;fill-opacity:0.02352941"
           d="M 15.125,2.375 15,2 15.5,2 Q 16,2 16,2.5 L 16,3 15.625,2.875 q -0.375,-0.125 -0.5,-0.5"
           id="path67401" />
        <path
           style="fill:#000000;fill-opacity:0.30196078"
           d="M 6.875,3.375 Q 7,3 7.5,3 L 8,3 8,3.5 8,4 7.625,4.125 7.25,4.25 7.53125,4.15625 7.8125,4.0625 7.625,4.125 Q 7.4375,4.1875 7.28125,4.28125 L 7.125,4.375 7.203125,4.328125 7.28125,4.28125 6.984375,3.984375 6.6875,3.6875 6.625,3.75 6.5625,3.8125 6.6875,3.6875 Q 6.8125,3.5625 6.875,3.375 L 6.9375,3.1875 6.84375,3.46875 6.75,3.75 6.875,3.375"
           id="path67403" />
        <path
           style="fill:#000000;fill-opacity:0.2627451"
           d="M 8,3.5 8,3 8.5,3 Q 9,3 9.125,3.375 L 9.25,3.75 9.15625,3.46875 9.0625,3.1875 9.125,3.375 Q 9.1875,3.5625 9.3125,3.6875 L 9.4375,3.8125 9.375,3.75 9.3125,3.6875 9.015625,3.984375 8.71875,4.28125 8.796875,4.328125 8.875,4.375 8.71875,4.28125 Q 8.5625,4.1875 8.375,4.125 L 8.1875,4.0625 8.46875,4.15625 8.75,4.25 8.375,4.125 8,4 8,3.5"
           id="path67405" />
        <path
           style="fill:#000000;fill-opacity:0.02352941"
           d="M 11,3.5 Q 11,3 11.375,2.875 L 11.75,2.75 11.46875,2.84375 11.1875,2.9375 11.375,2.875 Q 11.5625,2.8125 11.6875,2.6875 L 11.8125,2.5625 11.75,2.625 11.6875,2.6875 11.984375,2.984375 12.28125,3.28125 12.359375,3.234375 12.4375,3.1875 12.28125,3.28125 Q 12.125,3.375 12,3.5 L 11.875,3.625 12.0625,3.4375 12.25,3.25 12,3.5 Q 11.75,3.75 11.375,3.875 L 11,4 11,3.5"
           id="path67407" />
        <path
           style="fill:#373737;fill-opacity:0.94901961"
           d="M 12,3.5 Q 12.25,3.25 12.625,3.125 L 13,3 12.875,3.375 Q 12.75,3.75 12.5,4 L 12.25,4.25 11.984375,3.984375 11.71875,3.71875 11.640625,3.765625 11.5625,3.8125 11.71875,3.71875 Q 11.875,3.625 12,3.5 L 12.125,3.375 11.9375,3.5625 11.75,3.75 12,3.5 M 12.1875,4.3125 12.25,4.25 12.4375,4.0625 12.625,3.875 12.5,4 q -0.125,0.125 -0.25,0.25 l -0.125,0.125 0.0625,-0.0625"
           id="path67409" />
        <path
           style="fill:#9e9e9e;fill-opacity:1"
           d="M 12.875,3.375 13,3 13.375,3.125 Q 13.75,3.25 14,3.5 L 14.25,3.75 13.984375,4.046875 13.71875,4.34375 13.765625,4.390625 13.8125,4.4375 13.71875,4.34375 Q 13.625,4.25 13.5,4.25 l -0.125,0 0.1875,0 0.1875,0 -0.25,0 -0.25,0 0.1875,0 0.1875,0 -0.125,0 q -0.125,0 -0.21875,0.09375 L 13.1875,4.4375 13.234375,4.390625 13.28125,4.34375 13,4.03125 12.71875,3.71875 12.671875,3.796875 12.625,3.875 12.71875,3.71875 Q 12.8125,3.5625 12.875,3.375 L 12.9375,3.1875 12.84375,3.46875 12.75,3.75 12.875,3.375 M 14.3125,3.8125 14.25,3.75 14.0625,3.5625 13.875,3.375 14,3.5 q 0.125,0.125 0.25,0.25 l 0.125,0.125 -0.0625,-0.0625"
           id="path67411" />
        <path
           style="fill:#818181;fill-opacity:1"
           d="M 14,3.5 13.75,3.25 13.9375,3.4375 14.125,3.625 14,3.5 Q 13.875,3.375 13.71875,3.28125 L 13.5625,3.1875 13.640625,3.234375 13.71875,3.28125 13.984375,3.015625 14.25,2.75 14.5,3 Q 14.75,3.25 15,3.5 L 15.25,3.75 15,4 14.75,4.25 14.5,4 Q 14.25,3.75 14,3.5 M 14.5625,4.0625 14.75,4.25 14.8125,4.3125 14.875,4.375 14.75,4.25 Q 14.625,4.125 14.5,4 l -0.125,-0.125 0.1875,0.1875 m 0.75,-0.25 L 15.25,3.75 15.0625,3.5625 14.875,3.375 15,3.5 q 0.125,0.125 0.25,0.25 L 15.375,3.875 15.3125,3.8125 M 14.4375,2.9375 14.25,2.75 14.1875,2.6875 14.125,2.625 14.25,2.75 Q 14.375,2.875 14.5,3 l 0.125,0.125 -0.1875,-0.1875"
           id="path67413" />
        <path
           style="fill:#202020;fill-opacity:0.83529412"
           d="M 15,3.5 14.75,3.25 15.03125,2.96875 15.3125,2.6875 15.25,2.625 15.1875,2.5625 l 0.125,0.125 q 0.125,0.125 0.3125,0.1875 L 15.8125,2.9375 15.53125,2.84375 15.25,2.75 15.625,2.875 16,3 16.125,3.375 16.25,3.75 16.15625,3.46875 16.0625,3.1875 16.125,3.375 q 0.0625,0.1875 0.1875,0.3125 l 0.125,0.125 L 16.375,3.75 16.3125,3.6875 16.03125,3.96875 15.75,4.25 15.5,4 Q 15.25,3.75 15,3.5 M 15.5625,4.0625 15.75,4.25 15.8125,4.3125 15.875,4.375 15.75,4.25 Q 15.625,4.125 15.5,4 L 15.375,3.875 15.5625,4.0625 M 14.6875,3.1875 14.75,3.25 14.9375,3.4375 15.125,3.625 15,3.5 Q 14.875,3.375 14.75,3.25 l -0.125,-0.125 0.0625,0.0625"
           id="path67415" />
        <path
           style="fill:#000000;fill-opacity:0.01568627"
           d="M 16.125,3.375 16,3 16.5,3 Q 17,3 17,3.5 L 17,4 16.625,3.875 q -0.375,-0.125 -0.5,-0.5"
           id="path67417" />
        <path
           style="fill:#000000;fill-opacity:0.09019608"
           d="M 4.875,4.375 Q 5,4 5.5,4 L 6,4 5.875,4.375 Q 5.75,4.75 5.5,5 L 5.25,5.25 4.96875,4.96875 4.6875,4.6875 4.625,4.75 4.5625,4.8125 4.6875,4.6875 Q 4.8125,4.5625 4.875,4.375 L 4.9375,4.1875 4.84375,4.46875 4.75,4.75 4.875,4.375 M 5.1875,5.3125 5.25,5.25 5.4375,5.0625 5.625,4.875 5.5,5 Q 5.375,5.125 5.25,5.25 L 5.125,5.375 5.1875,5.3125"
           id="path67419" />
        <path
           style="fill:#202020;fill-opacity:0.80784314"
           d="M 5.875,4.375 6,4 6.375,3.875 6.75,3.75 6.46875,3.84375 6.1875,3.9375 6.375,3.875 Q 6.5625,3.8125 6.6875,3.6875 L 6.8125,3.5625 6.75,3.625 6.6875,3.6875 6.984375,3.984375 7.28125,4.28125 7.359375,4.234375 7.4375,4.1875 7.28125,4.28125 Q 7.125,4.375 7,4.5 L 6.875,4.625 7.0625,4.4375 7.25,4.25 7,4.5 Q 6.75,4.75 6.5,5 L 6.25,5.25 5.984375,4.984375 5.71875,4.71875 5.671875,4.796875 5.625,4.875 5.71875,4.71875 Q 5.8125,4.5625 5.875,4.375 L 5.9375,4.1875 5.84375,4.46875 5.75,4.75 5.875,4.375 M 6.1875,5.3125 6.25,5.25 6.4375,5.0625 6.625,4.875 6.5,5 Q 6.375,5.125 6.25,5.25 L 6.125,5.375 6.1875,5.3125"
           id="path67421" />
        <path
           style="fill:#646464;fill-opacity:1"
           d="M 7,4.5 Q 7.25,4.25 7.625,4.125 L 8,4 8,4.5 8,5 7.625,5.125 7.25,5.25 7.53125,5.15625 7.8125,5.0625 7.625,5.125 Q 7.4375,5.1875 7.28125,5.28125 L 7.125,5.375 7.203125,5.328125 7.28125,5.28125 7.015625,5.015625 6.75,4.75 7,4.5 M 6.9375,4.5625 6.75,4.75 6.6875,4.8125 6.625,4.875 6.75,4.75 Q 6.875,4.625 7,4.5 L 7.125,4.375 6.9375,4.5625"
           id="path67423" />
        <path
           style="fill:#575757;fill-opacity:1"
           d="M 8,4.5 8,4 8.375,4.125 Q 8.75,4.25 9,4.5 L 9.25,4.75 8.984375,5.015625 8.71875,5.28125 8.796875,5.328125 8.875,5.375 8.71875,5.28125 Q 8.5625,5.1875 8.375,5.125 L 8.1875,5.0625 8.46875,5.15625 8.75,5.25 8.375,5.125 8,5 8,4.5 M 9.3125,4.8125 9.25,4.75 9.0625,4.5625 8.875,4.375 9,4.5 Q 9.125,4.625 9.25,4.75 L 9.375,4.875 9.3125,4.8125"
           id="path67425" />
        <path
           style="fill:#040404;fill-opacity:0.53333333"
           d="M 9,4.5 8.75,4.25 8.9375,4.4375 9.125,4.625 9,4.5 Q 8.875,4.375 8.71875,4.28125 L 8.5625,4.1875 8.640625,4.234375 8.71875,4.28125 9.015625,3.984375 9.3125,3.6875 9.25,3.625 9.1875,3.5625 9.3125,3.6875 Q 9.4375,3.8125 9.625,3.875 L 9.8125,3.9375 9.53125,3.84375 9.25,3.75 9.625,3.875 Q 10,4 10.125,4.375 L 10.25,4.75 10.15625,4.46875 10.0625,4.1875 10.125,4.375 q 0.0625,0.1875 0.15625,0.28125 L 10.375,4.75 10.328125,4.703125 10.28125,4.65625 10.015625,4.953125 9.75,5.25 9.5,5 Q 9.25,4.75 9,4.5 M 9.5625,5.0625 9.75,5.25 9.8125,5.3125 9.875,5.375 9.75,5.25 Q 9.625,5.125 9.5,5 L 9.375,4.875 9.5625,5.0625"
           id="path67427" />
        <path
           style="fill:#101010;fill-opacity:0.73333333"
           d="M 10.875,4.375 11,4 11.375,3.875 11.75,3.75 11.46875,3.84375 11.1875,3.9375 11.375,3.875 Q 11.5625,3.8125 11.71875,3.71875 L 11.875,3.625 11.796875,3.671875 11.71875,3.71875 11.984375,3.984375 12.25,4.25 12,4.5 Q 11.75,4.75 11.5,5 L 11.25,5.25 10.984375,4.953125 10.71875,4.65625 10.671875,4.703125 10.625,4.75 10.71875,4.65625 Q 10.8125,4.5625 10.875,4.375 L 10.9375,4.1875 10.84375,4.46875 10.75,4.75 10.875,4.375 M 11.1875,5.3125 11.25,5.25 11.4375,5.0625 11.625,4.875 11.5,5 Q 11.375,5.125 11.25,5.25 L 11.125,5.375 11.1875,5.3125 M 12.0625,4.4375 12.25,4.25 12.3125,4.1875 12.375,4.125 12.25,4.25 Q 12.125,4.375 12,4.5 l -0.125,0.125 0.1875,-0.1875"
           id="path67429" />
        <path
           style="fill:#7e7e7e;fill-opacity:1"
           d="M 12,4.5 Q 12.25,4.25 12.5,4 L 12.75,3.75 12.5625,3.9375 12.375,4.125 12.5,4 Q 12.625,3.875 12.71875,3.71875 L 12.8125,3.5625 12.765625,3.640625 12.71875,3.71875 13,4.03125 13.28125,4.34375 13.328125,4.296875 13.375,4.25 13.28125,4.34375 Q 13.1875,4.4375 13.125,4.625 L 13.0625,4.8125 13.15625,4.53125 13.25,4.25 13.125,4.625 13,5 12.625,5.125 12.25,5.25 12.53125,5.15625 12.8125,5.0625 12.625,5.125 Q 12.4375,5.1875 12.34375,5.28125 L 12.25,5.375 12.296875,5.328125 12.34375,5.28125 12.046875,5.015625 11.75,4.75 12,4.5 M 11.9375,4.5625 11.75,4.75 11.6875,4.8125 11.625,4.875 11.75,4.75 Q 11.875,4.625 12,4.5 l 0.125,-0.125 -0.1875,0.1875"
           id="path67431" />
        <path
           style="fill:#a8a8a8;fill-opacity:1"
           d="M 13.125,4.625 Q 13.25,4.25 13.5,4.25 q 0.25,0 0.375,0.375 L 14,5 13.5,5 13,5 13.125,4.625"
           id="path67433" />
        <path
           style="fill:#b2b2b2;fill-opacity:1"
           d="M 13.875,4.625 13.75,4.25 13.84375,4.53125 13.9375,4.8125 13.875,4.625 Q 13.8125,4.4375 13.71875,4.34375 L 13.625,4.25 13.671875,4.296875 13.71875,4.34375 13.984375,4.046875 14.25,3.75 14.5,4 Q 14.75,4.25 15,4.5 15.25,4.75 15.5,5 15.75,5.25 16,5.5 L 16.25,5.75 16,6 Q 15.75,6.25 15.875,6.625 L 16,7 15.5,7 15,7 15,6.5 15,6 14.875,5.625 Q 14.75,5.25 14.375,5.125 L 14,5 13.875,4.625 M 16.3125,5.8125 16.25,5.75 16.0625,5.5625 15.875,5.375 16,5.5 q 0.125,0.125 0.25,0.25 L 16.375,5.875 16.3125,5.8125 M 14.4375,3.9375 14.25,3.75 14.1875,3.6875 14.125,3.625 14.25,3.75 Q 14.375,3.875 14.5,4 l 0.125,0.125 -0.1875,-0.1875"
           id="path67435" />
        <path
           style="fill:#808080;fill-opacity:1"
           d="M 15,4.5 14.75,4.25 15,4 15.25,3.75 15.5,4 Q 15.75,4.25 16,4.5 L 16.25,4.75 16,5 15.75,5.25 15.5,5 Q 15.25,4.75 15,4.5 M 15.5625,5.0625 15.75,5.25 15.8125,5.3125 15.875,5.375 15.75,5.25 Q 15.625,5.125 15.5,5 l -0.125,-0.125 0.1875,0.1875 m 0.75,-0.25 L 16.25,4.75 16.0625,4.5625 15.875,4.375 16,4.5 q 0.125,0.125 0.25,0.25 L 16.375,4.875 16.3125,4.8125 M 15.4375,3.9375 15.25,3.75 15.1875,3.6875 15.125,3.625 15.25,3.75 Q 15.375,3.875 15.5,4 l 0.125,0.125 -0.1875,-0.1875 m -0.75,0.25 L 14.75,4.25 14.9375,4.4375 15.125,4.625 15,4.5 Q 14.875,4.375 14.75,4.25 l -0.125,-0.125 0.0625,0.0625"
           id="path67437" />
        <path
           style="fill:#202020;fill-opacity:0.83137255"
           d="M 16,4.5 15.75,4.25 16.03125,3.96875 16.3125,3.6875 16.25,3.625 16.1875,3.5625 l 0.125,0.125 q 0.125,0.125 0.3125,0.1875 L 16.8125,3.9375 16.53125,3.84375 16.25,3.75 16.625,3.875 17,4 17.125,4.375 17.25,4.75 17.15625,4.46875 17.0625,4.1875 17.125,4.375 q 0.0625,0.1875 0.1875,0.3125 l 0.125,0.125 L 17.375,4.75 17.3125,4.6875 17.03125,4.96875 16.75,5.25 16.5,5 Q 16.25,4.75 16,4.5 M 16.5625,5.0625 16.75,5.25 16.8125,5.3125 16.875,5.375 16.75,5.25 Q 16.625,5.125 16.5,5 L 16.375,4.875 16.5625,5.0625 M 15.6875,4.1875 15.75,4.25 15.9375,4.4375 16.125,4.625 16,4.5 Q 15.875,4.375 15.75,4.25 l -0.125,-0.125 0.0625,0.0625"
           id="path67439" />
        <path
           style="fill:#000000;fill-opacity:0.02352941"
           d="M 17.125,4.375 17,4 17.5,4 Q 18,4 18,4.5 L 18,5 17.625,4.875 q -0.375,-0.125 -0.5,-0.5"
           id="path67441" />
        <path
           style="fill:#000000;fill-opacity:0.11372549"
           d="M 4,5.5 Q 4,5 4.375,4.875 L 4.75,4.75 4.46875,4.84375 4.1875,4.9375 4.375,4.875 Q 4.5625,4.8125 4.6875,4.6875 L 4.8125,4.5625 4.75,4.625 4.6875,4.6875 4.96875,4.96875 5.25,5.25 5,5.5 Q 4.75,5.75 4.375,5.875 L 4,6 4,5.5 M 5.0625,5.4375 5.25,5.25 5.3125,5.1875 5.375,5.125 5.25,5.25 Q 5.125,5.375 5,5.5 L 4.875,5.625 5.0625,5.4375"
           id="path67443" />
        <path
           style="fill:#424242;fill-opacity:0.9254902"
           d="M 5,5.5 Q 5.25,5.25 5.5,5 L 5.75,4.75 5.5625,4.9375 5.375,5.125 5.5,5 Q 5.625,4.875 5.71875,4.71875 L 5.8125,4.5625 5.765625,4.640625 5.71875,4.71875 5.984375,4.984375 6.25,5.25 6,5.5 Q 5.75,5.75 5.5,6 L 5.25,6.25 4.984375,5.984375 4.71875,5.71875 4.640625,5.765625 4.5625,5.8125 4.71875,5.71875 Q 4.875,5.625 5,5.5 L 5.125,5.375 4.9375,5.5625 4.75,5.75 5,5.5 M 5.1875,6.3125 5.25,6.25 5.4375,6.0625 5.625,5.875 5.5,6 Q 5.375,6.125 5.25,6.25 L 5.125,6.375 5.1875,6.3125 M 6.0625,5.4375 6.25,5.25 6.3125,5.1875 6.375,5.125 6.25,5.25 Q 6.125,5.375 6,5.5 L 5.875,5.625 6.0625,5.4375"
           id="path67445" />
        <path
           style="fill:#8c8c8c;fill-opacity:1"
           d="M 6,5.5 Q 6.25,5.25 6.5,5 L 6.75,4.75 7.015625,5.015625 7.28125,5.28125 7.359375,5.234375 7.4375,5.1875 7.28125,5.28125 Q 7.125,5.375 7,5.5 L 6.875,5.625 7.0625,5.4375 7.25,5.25 7,5.5 Q 6.75,5.75 6.5,6 6.25,6.25 6.125,6.625 L 6,7 5.625,7.125 5.25,7.25 5.53125,7.15625 5.8125,7.0625 5.625,7.125 Q 5.4375,7.1875 5.34375,7.28125 L 5.25,7.375 5.296875,7.328125 5.34375,7.28125 5.046875,7.015625 4.75,6.75 5,6.5 Q 5.25,6.25 5.5,6 5.75,5.75 6,5.5 M 4.9375,6.5625 4.75,6.75 4.6875,6.8125 4.625,6.875 4.75,6.75 Q 4.875,6.625 5,6.5 L 5.125,6.375 4.9375,6.5625 M 6.8125,4.6875 6.75,4.75 6.5625,4.9375 6.375,5.125 6.5,5 Q 6.625,4.875 6.75,4.75 L 6.875,4.625 6.8125,4.6875"
           id="path67447" />
        <path
           style="fill:#bfbfbf;fill-opacity:1"
           d="M 7,5.5 Q 7.25,5.25 7.625,5.125 L 8,5 8,5.5 8,6 7.625,6.125 7.25,6.25 7.53125,6.15625 7.8125,6.0625 7.625,6.125 Q 7.4375,6.1875 7.3125,6.3125 L 7.1875,6.4375 7.25,6.375 7.3125,6.3125 7.03125,6.03125 6.75,5.75 7,5.5 M 6.9375,5.5625 6.75,5.75 6.6875,5.8125 6.625,5.875 6.75,5.75 Q 6.875,5.625 7,5.5 L 7.125,5.375 6.9375,5.5625"
           id="path67449" />
        <path
           style="fill:#a6a6a6;fill-opacity:1"
           d="M 8,5.5 8,5 8.375,5.125 Q 8.75,5.25 9,5.5 L 9.25,5.75 8.96875,6.03125 8.6875,6.3125 8.75,6.375 8.8125,6.4375 8.6875,6.3125 Q 8.5625,6.1875 8.375,6.125 L 8.1875,6.0625 8.46875,6.15625 8.75,6.25 8.375,6.125 8,6 8,5.5 M 9.3125,5.8125 9.25,5.75 9.0625,5.5625 8.875,5.375 9,5.5 Q 9.125,5.625 9.25,5.75 L 9.375,5.875 9.3125,5.8125"
           id="path67451" />
        <path
           style="fill:#6f6f6f;fill-opacity:1"
           d="M 9,5.5 8.75,5.25 8.9375,5.4375 9.125,5.625 9,5.5 Q 8.875,5.375 8.71875,5.28125 L 8.5625,5.1875 8.640625,5.234375 8.71875,5.28125 8.984375,5.015625 9.25,4.75 9.5,5 Q 9.75,5.25 10,5.5 L 10.25,5.75 10.0625,5.5625 9.875,5.375 10,5.5 q 0.125,0.125 0.25,0.1875 L 10.375,5.75 10.3125,5.71875 10.25,5.6875 10,5.96875 9.75,6.25 9.5,6 Q 9.25,5.75 9,5.5 M 9.5625,6.0625 9.75,6.25 9.8125,6.3125 9.875,6.375 9.75,6.25 Q 9.625,6.125 9.5,6 L 9.375,5.875 9.5625,6.0625 M 9.4375,4.9375 9.25,4.75 9.1875,4.6875 9.125,4.625 9.25,4.75 Q 9.375,4.875 9.5,5 L 9.625,5.125 9.4375,4.9375"
           id="path67453" />
        <path
           style="fill:#131313;fill-opacity:0.91372549"
           d="M 10,5.5 9.75,5.25 10.015625,4.953125 10.28125,4.65625 10.234375,4.609375 10.1875,4.5625 10.28125,4.65625 Q 10.375,4.75 10.5,4.75 l 0.125,0 -0.1875,0 -0.1875,0 0.25,0 0.25,0 -0.1875,0 -0.1875,0 0.125,0 q 0.125,0 0.21875,-0.09375 L 10.8125,4.5625 10.765625,4.609375 10.71875,4.65625 10.984375,4.953125 11.25,5.25 11,5.5 Q 10.75,5.75 10.5,5.75 10.25,5.75 10,5.5 M 11.0625,5.4375 11.25,5.25 11.3125,5.1875 11.375,5.125 11.25,5.25 Q 11.125,5.375 11,5.5 L 10.875,5.625 11.0625,5.4375 M 9.6875,5.1875 9.75,5.25 9.9375,5.4375 10.125,5.625 10,5.5 Q 9.875,5.375 9.75,5.25 L 9.625,5.125 9.6875,5.1875"
           id="path67455" />
        <path
           style="fill:#6c6c6c;fill-opacity:1"
           d="M 11,5.5 Q 11.25,5.25 11.5,5 L 11.75,4.75 12.046875,5.015625 12.34375,5.28125 12.390625,5.234375 12.4375,5.1875 12.34375,5.28125 Q 12.25,5.375 12.25,5.5 l 0,0.125 0,-0.1875 0,-0.1875 0,0.25 0,0.25 0,-0.1875 0,-0.1875 0,0.125 q 0,0.125 0.09375,0.21875 L 12.4375,5.8125 12.390625,5.765625 12.34375,5.71875 12.046875,6.015625 11.75,6.3125 11.8125,6.34375 11.875,6.375 11.75,6.3125 Q 11.625,6.25 11.5,6.25 l -0.125,0 0.1875,0 0.1875,0 -0.25,0 -0.25,0 0.1875,0 0.1875,0 -0.125,0 q -0.125,0 -0.1875,0.0625 L 11.25,6.375 11.28125,6.34375 11.3125,6.3125 11.03125,6 10.75,5.6875 10.6875,5.71875 10.625,5.75 10.75,5.6875 Q 10.875,5.625 11,5.5 L 11.125,5.375 10.9375,5.5625 10.75,5.75 11,5.5 M 11.8125,4.6875 11.75,4.75 11.5625,4.9375 11.375,5.125 11.5,5 q 0.125,-0.125 0.25,-0.25 l 0.125,-0.125 -0.0625,0.0625"
           id="path67457" />
        <path
           style="fill:#8f8f8f;fill-opacity:1"
           d="m 12.25,5.5 q 0,-0.25 0.375,-0.375 L 13,5 13,5.5 13,6 12.625,5.875 Q 12.25,5.75 12.25,5.5"
           id="path67459" />
        <path
           style="fill:#a4a4a4;fill-opacity:1"
           d="M 13,5.5 13,5 13.5,5 14,5 14,5.5 14,6 13.5,6 13,6 13,5.5"
           id="path67461" />
        <path
           style="fill:#b5b5b5;fill-opacity:1"
           d="M 14,5.5 14,5 14.375,5.125 q 0.375,0.125 0.5,0.5 L 15,6 14.5,6 14,6 14,5.5"
           id="path67463" />
        <path
           style="fill:#818181;fill-opacity:1"
           d="M 16,5.5 15.75,5.25 16,5 16.25,4.75 16.5,5 Q 16.75,5.25 17,5.5 L 17.25,5.75 16.984375,6.015625 16.71875,6.28125 16.765625,6.359375 16.8125,6.4375 16.71875,6.28125 Q 16.625,6.125 16.5,6 L 16.375,5.875 16.5625,6.0625 16.75,6.25 16.5,6 Q 16.25,5.75 16,5.5 M 17.3125,5.8125 17.25,5.75 17.0625,5.5625 16.875,5.375 17,5.5 q 0.125,0.125 0.25,0.25 L 17.375,5.875 17.3125,5.8125 M 16.4375,4.9375 16.25,4.75 16.1875,4.6875 16.125,4.625 16.25,4.75 Q 16.375,4.875 16.5,5 l 0.125,0.125 -0.1875,-0.1875 m -0.75,0.25 L 15.75,5.25 15.9375,5.4375 16.125,5.625 16,5.5 Q 15.875,5.375 15.75,5.25 l -0.125,-0.125 0.0625,0.0625"
           id="path67465" />
        <path
           style="fill:#212121;fill-opacity:0.84313725"
           d="M 17,5.5 16.75,5.25 17.03125,4.96875 17.3125,4.6875 17.25,4.625 17.1875,4.5625 l 0.125,0.125 q 0.125,0.125 0.3125,0.1875 L 17.8125,4.9375 17.53125,4.84375 17.25,4.75 17.625,4.875 18,5 18.125,5.375 18.25,5.75 18.15625,5.46875 18.0625,5.1875 18.125,5.375 q 0.0625,0.1875 0.1875,0.3125 l 0.125,0.125 L 18.375,5.75 18.3125,5.6875 18.03125,5.96875 17.75,6.25 17.5,6 Q 17.25,5.75 17,5.5 M 17.5625,6.0625 17.75,6.25 17.8125,6.3125 17.875,6.375 17.75,6.25 Q 17.625,6.125 17.5,6 L 17.375,5.875 17.5625,6.0625 M 16.6875,5.1875 16.75,5.25 16.9375,5.4375 17.125,5.625 17,5.5 Q 16.875,5.375 16.75,5.25 l -0.125,-0.125 0.0625,0.0625"
           id="path67467" />
        <path
           style="fill:#000000;fill-opacity:0.03137255"
           d="M 18.125,5.375 18,5 18.5,5 Q 19,5 19,5.5 L 19,6 18.625,5.875 q -0.375,-0.125 -0.5,-0.5"
           id="path67469" />
        <path
           style="fill:#252525;fill-opacity:0.82745098"
           d="M 3.875,6.375 4,6 4.375,5.875 4.75,5.75 4.46875,5.84375 4.1875,5.9375 4.375,5.875 Q 4.5625,5.8125 4.71875,5.71875 L 4.875,5.625 4.796875,5.671875 4.71875,5.71875 4.984375,5.984375 5.25,6.25 5,6.5 Q 4.75,6.75 4.5,7 L 4.25,7.25 4.4375,7.0625 4.625,6.875 4.5,7 Q 4.375,7.125 4.28125,7.28125 L 4.1875,7.4375 4.234375,7.359375 4.28125,7.28125 4,6.96875 3.71875,6.65625 3.671875,6.703125 3.625,6.75 3.71875,6.65625 Q 3.8125,6.5625 3.875,6.375 L 3.9375,6.1875 3.84375,6.46875 3.75,6.75 3.875,6.375 M 5.0625,6.4375 5.25,6.25 5.3125,6.1875 5.375,6.125 5.25,6.25 Q 5.125,6.375 5,6.5 L 4.875,6.625 5.0625,6.4375"
           id="path67471" />
        <path
           style="fill:#a8a8a8;fill-opacity:1"
           d="M 6.125,6.625 Q 6.25,6.25 6.5,6 L 6.75,5.75 7.03125,6.03125 7.3125,6.3125 7.375,6.25 7.4375,6.1875 7.3125,6.3125 Q 7.1875,6.4375 7.125,6.625 L 7.0625,6.8125 7.15625,6.53125 7.25,6.25 7.125,6.625 7,7 6.5,7 6,7 6.125,6.625 M 6.8125,5.6875 6.75,5.75 6.5625,5.9375 6.375,6.125 6.5,6 Q 6.625,5.875 6.75,5.75 L 6.875,5.625 6.8125,5.6875"
           id="path67473" />
        <path
           style="fill:#b8b8b8;fill-opacity:1"
           d="M 7.125,6.625 Q 7.25,6.25 7.625,6.125 L 8,6 8.125,6.375 8.25,6.75 8.15625,6.46875 8.0625,6.1875 8.125,6.375 Q 8.1875,6.5625 8.3125,6.6875 L 8.4375,6.8125 8.375,6.75 8.3125,6.6875 8,7 7.6875,7.3125 7.75,7.375 7.8125,7.4375 7.6875,7.3125 Q 7.5625,7.1875 7.375,7.125 L 7.1875,7.0625 7.46875,7.15625 7.75,7.25 7.375,7.125 7,7 7.125,6.625"
           id="path67475" />
        <path
           style="fill:#cacaca;fill-opacity:1"
           d="M 8.125,6.375 8,6 8.375,6.125 q 0.375,0.125 0.5,0.5 L 9,7 8.625,6.875 Q 8.25,6.75 8.125,6.375"
           id="path67477" />
        <path
           style="fill:#b2b2b2;fill-opacity:1"
           d="M 8.875,6.625 8.75,6.25 8.84375,6.53125 8.9375,6.8125 8.875,6.625 Q 8.8125,6.4375 8.6875,6.3125 L 8.5625,6.1875 8.625,6.25 8.6875,6.3125 8.96875,6.03125 9.25,5.75 9.5,6 Q 9.75,6.25 10,6.5 L 10.25,6.75 9.96875,7.03125 9.6875,7.3125 9.75,7.375 9.8125,7.4375 9.6875,7.3125 Q 9.5625,7.1875 9.375,7.125 L 9.1875,7.0625 9.46875,7.15625 9.75,7.25 9.375,7.125 9,7 8.875,6.625 M 10.3125,6.8125 10.25,6.75 10.0625,6.5625 9.875,6.375 10,6.5 q 0.125,0.125 0.25,0.25 L 10.375,6.875 10.3125,6.8125 M 9.4375,5.9375 9.25,5.75 9.1875,5.6875 9.125,5.625 9.25,5.75 Q 9.375,5.875 9.5,6 L 9.625,6.125 9.4375,5.9375"
           id="path67479" />
        <path
           style="fill:#7c7c7c;fill-opacity:1"
           d="M 10,6.5 9.75,6.25 10,5.96875 10.25,5.6875 10.1875,5.65625 10.125,5.625 10.25,5.6875 Q 10.375,5.75 10.5,5.75 l 0.125,0 -0.1875,0 -0.1875,0 0.25,0 0.25,0 -0.1875,0 -0.1875,0 0.125,0 q 0.125,0 0.25,-0.0625 L 10.875,5.625 10.8125,5.65625 10.75,5.6875 11.03125,6 11.3125,6.3125 11.34375,6.28125 11.375,6.25 11.3125,6.3125 Q 11.25,6.375 11.25,6.5 l 0,0.125 0,-0.1875 0,-0.1875 0,0.25 0,0.25 0,-0.1875 0,-0.1875 0,0.125 q 0,0.125 0.0625,0.25 L 11.375,6.875 11.34375,6.8125 11.3125,6.75 11.03125,7 10.75,7.25 10.5,7 Q 10.25,6.75 10,6.5 M 10.5625,7.0625 10.75,7.25 10.8125,7.3125 10.875,7.375 10.75,7.25 Q 10.625,7.125 10.5,7 L 10.375,6.875 10.5625,7.0625 M 9.6875,6.1875 9.75,6.25 9.9375,6.4375 10.125,6.625 10,6.5 Q 9.875,6.375 9.75,6.25 L 9.625,6.125 9.6875,6.1875"
           id="path67481" />
        <path
           style="fill:#515151;fill-opacity:1"
           d="m 11.25,6.5 q 0,-0.25 0.25,-0.25 0.25,0 0.5,0.25 L 12.25,6.75 12,7 11.75,7.25 11.5,7 Q 11.25,6.75 11.25,6.5 M 11.5625,7.0625 11.75,7.25 11.8125,7.3125 11.875,7.375 11.75,7.25 Q 11.625,7.125 11.5,7 l -0.125,-0.125 0.1875,0.1875 m 0.75,-0.25 L 12.25,6.75 12.0625,6.5625 11.875,6.375 12,6.5 q 0.125,0.125 0.25,0.25 l 0.125,0.125 -0.0625,-0.0625"
           id="path67483" />
        <path
           style="fill:#848484;fill-opacity:1"
           d="M 12,6.5 11.75,6.25 11.9375,6.4375 12.125,6.625 12,6.5 Q 11.875,6.375 11.75,6.3125 L 11.625,6.25 11.6875,6.28125 11.75,6.3125 12.046875,6.015625 12.34375,5.71875 12.296875,5.671875 12.25,5.625 12.34375,5.71875 Q 12.4375,5.8125 12.625,5.875 L 12.8125,5.9375 12.53125,5.84375 12.25,5.75 12.625,5.875 13,6 13.125,6.375 13.25,6.75 13.15625,6.46875 13.0625,6.1875 13.125,6.375 q 0.0625,0.1875 0.1875,0.3125 l 0.125,0.125 L 13.375,6.75 13.3125,6.6875 13.03125,6.96875 12.75,7.25 12.5,7 Q 12.25,6.75 12,6.5 M 12.5625,7.0625 12.75,7.25 12.8125,7.3125 12.875,7.375 12.75,7.25 Q 12.625,7.125 12.5,7 l -0.125,-0.125 0.1875,0.1875"
           id="path67485" />
        <path
           style="fill:#8f8f8f;fill-opacity:1"
           d="M 13.125,6.375 13,6 13.5,6 14,6 14,6.5 14,7 13.625,6.875 q -0.375,-0.125 -0.5,-0.5"
           id="path67487" />
        <path
           style="fill:#a4a4a4;fill-opacity:1"
           d="M 14,6.5 14,6 14.5,6 15,6 15,6.5 15,7 14.5,7 14,7 14,6.5"
           id="path67489" />
        <path
           style="fill:#aeaeae;fill-opacity:1"
           d="M 15.875,6.625 Q 15.75,6.25 16,6 L 16.25,5.75 16.5,6 q 0.25,0.25 0.375,0.625 L 17,7 16.5,7 16,7 15.875,6.625 M 16.4375,5.9375 16.25,5.75 16.1875,5.6875 16.125,5.625 16.25,5.75 Q 16.375,5.875 16.5,6 l 0.125,0.125 -0.1875,-0.1875"
           id="path67491" />
        <path
           style="fill:#828282;fill-opacity:1"
           d="M 16.875,6.625 16.75,6.25 16.84375,6.53125 16.9375,6.8125 16.875,6.625 Q 16.8125,6.4375 16.71875,6.28125 L 16.625,6.125 16.671875,6.203125 16.71875,6.28125 16.984375,6.015625 17.25,5.75 17.5,6 Q 17.75,6.25 18,6.5 L 18.25,6.75 17.96875,7.03125 17.6875,7.3125 17.75,7.375 17.8125,7.4375 17.6875,7.3125 Q 17.5625,7.1875 17.375,7.125 L 17.1875,7.0625 17.46875,7.15625 17.75,7.25 17.375,7.125 17,7 16.875,6.625 M 18.3125,6.8125 18.25,6.75 18.0625,6.5625 17.875,6.375 18,6.5 q 0.125,0.125 0.25,0.25 L 18.375,6.875 18.3125,6.8125 M 17.4375,5.9375 17.25,5.75 17.1875,5.6875 17.125,5.625 17.25,5.75 Q 17.375,5.875 17.5,6 l 0.125,0.125 -0.1875,-0.1875"
           id="path67493" />
        <path
           style="fill:#222222;fill-opacity:0.83529412"
           d="M 18,6.5 17.75,6.25 18.03125,5.96875 18.3125,5.6875 18.25,5.625 18.1875,5.5625 l 0.125,0.125 q 0.125,0.125 0.3125,0.1875 L 18.8125,5.9375 18.53125,5.84375 18.25,5.75 18.625,5.875 19,6 19.125,6.375 19.25,6.75 19.15625,6.46875 19.0625,6.1875 19.125,6.375 q 0.0625,0.1875 0.1875,0.3125 l 0.125,0.125 L 19.375,6.75 19.3125,6.6875 19.03125,6.96875 18.75,7.25 18.5,7 Q 18.25,6.75 18,6.5 M 18.5625,7.0625 18.75,7.25 18.8125,7.3125 18.875,7.375 18.75,7.25 Q 18.625,7.125 18.5,7 L 18.375,6.875 18.5625,7.0625 M 17.6875,6.1875 17.75,6.25 17.9375,6.4375 18.125,6.625 18,6.5 Q 17.875,6.375 17.75,6.25 l -0.125,-0.125 0.0625,0.0625"
           id="path67495" />
        <path
           style="fill:#000000;fill-opacity:0.03137255"
           d="M 19.125,6.375 19,6 19.5,6 Q 20,6 20,6.5 L 20,7 19.625,6.875 q -0.375,-0.125 -0.5,-0.5"
           id="path67497" />
        <path
           style="fill:#060600;fill-opacity:0.34509804"
           d="M 0.875,7.375 Q 1,7 1.375,6.875 1.75,6.75 2.015625,7.046875 L 2.28125,7.34375 2.328125,7.296875 2.375,7.25 2.28125,7.34375 Q 2.1875,7.4375 2.125,7.625 L 2.0625,7.8125 2.15625,7.53125 2.25,7.25 2.125,7.625 2,8 1.625,8.125 1.25,8.25 1.53125,8.15625 1.8125,8.0625 1.625,8.125 Q 1.4375,8.1875 1.34375,8.28125 L 1.25,8.375 1.296875,8.328125 1.34375,8.28125 1.046875,8.015625 Q 0.75,7.75 0.875,7.375"
           id="path67499" />
        <path
           style="fill:#443600;fill-opacity:0.85098039"
           d="M 2.125,7.625 Q 2.25,7.25 2.5,7.25 q 0.25,0 0.375,0.375 L 3,8 2.5,8 2,8 2.125,7.625"
           id="path67501" />
        <path
           style="fill:#0b0900;fill-opacity:0.70196078"
           d="M 2.875,7.625 2.75,7.25 2.84375,7.53125 2.9375,7.8125 2.875,7.625 Q 2.8125,7.4375 2.71875,7.34375 L 2.625,7.25 2.671875,7.296875 2.71875,7.34375 2.984375,7.046875 Q 3.25,6.75 3.5,6.75 l 0.25,0 -0.1875,0 -0.1875,0 0.125,0 q 0.125,0 0.21875,-0.09375 L 3.8125,6.5625 3.765625,6.609375 3.71875,6.65625 4,6.96875 4.28125,7.28125 4.328125,7.203125 4.375,7.125 4.28125,7.28125 Q 4.1875,7.4375 4.125,7.625 L 4.0625,7.8125 4.15625,7.53125 4.25,7.25 4.125,7.625 4,8 4.09375,7.71875 4.1875,7.4375 4.125,7.625 Q 4.0625,7.8125 4.03125,8.03125 L 4,8.25 4.015625,8.140625 4.03125,8.03125 3.515625,8.015625 3,8 2.875,7.625"
           id="path67503" />
        <path
           style="fill:#6a6a6a;fill-opacity:1"
           d="M 4.125,7.625 Q 4.25,7.25 4.5,7 L 4.75,6.75 5.046875,7.015625 5.34375,7.28125 5.390625,7.234375 5.4375,7.1875 5.34375,7.28125 Q 5.25,7.375 5.25,7.5 l 0,0.125 0,-0.1875 0,-0.1875 0,0.25 0,0.25 0,-0.1875 0,-0.1875 0,0.125 q 0,0.125 0.09375,0.21875 L 5.4375,7.8125 5.390625,7.765625 5.34375,7.71875 5.03125,8 4.71875,8.28125 4.796875,8.328125 4.875,8.375 4.71875,8.28125 Q 4.5625,8.1875 4.375,8.125 L 4.1875,8.0625 4.46875,8.15625 4.75,8.25 4.375,8.125 4,8 4.125,7.625 M 4.8125,6.6875 4.75,6.75 4.5625,6.9375 4.375,7.125 4.5,7 Q 4.625,6.875 4.75,6.75 L 4.875,6.625 4.8125,6.6875"
           id="path67505" />
        <path
           style="fill:#959595;fill-opacity:1"
           d="m 5.25,7.5 q 0,-0.25 0.375,-0.375 L 6,7 6,7.5 6,8 5.625,7.875 Q 5.25,7.75 5.25,7.5"
           id="path67507" />
        <path
           style="fill:#969696;fill-opacity:1"
           d="M 6,7.5 6,7 6.5,7 7,7 7,7.5 7,8 6.5,8 6,8 6,7.5"
           id="path67509" />
        <path
           style="fill:#989898;fill-opacity:1"
           d="M 7,7.5 7,7 7.375,7.125 q 0.375,0.125 0.5,0.5 L 8,8 7.5,8 7,8 7,7.5"
           id="path67511" />
        <path
           style="fill:#9e9e9e;fill-opacity:1"
           d="M 7.875,7.625 7.75,7.25 7.84375,7.53125 7.9375,7.8125 7.875,7.625 Q 7.8125,7.4375 7.6875,7.3125 L 7.5625,7.1875 7.625,7.25 7.6875,7.3125 8,7 8.3125,6.6875 8.25,6.625 8.1875,6.5625 8.3125,6.6875 Q 8.4375,6.8125 8.625,6.875 L 8.8125,6.9375 8.53125,6.84375 8.25,6.75 8.625,6.875 9,7 9,7.5 9,8 8.5,8 8,8 7.875,7.625"
           id="path67513" />
        <path
           style="fill:#b6b6b6;fill-opacity:1"
           d="M 9,7.5 9,7 9.375,7.125 q 0.375,0.125 0.5,0.5 L 10,8 9.5,8 9,8 9,7.5"
           id="path67515" />
        <path
           style="fill:#bababa;fill-opacity:1"
           d="M 9.875,7.625 9.75,7.25 9.84375,7.53125 9.9375,7.8125 9.875,7.625 Q 9.8125,7.4375 9.6875,7.3125 L 9.5625,7.1875 9.625,7.25 9.6875,7.3125 9.96875,7.03125 10.25,6.75 10.5,7 Q 10.75,7.25 11,7.5 L 11.25,7.75 10.96875,8.03125 10.6875,8.3125 10.75,8.375 10.8125,8.4375 10.6875,8.3125 Q 10.5625,8.1875 10.375,8.125 L 10.1875,8.0625 10.46875,8.15625 10.75,8.25 10.375,8.125 10,8 9.875,7.625 M 11.3125,7.8125 11.25,7.75 11.0625,7.5625 10.875,7.375 11,7.5 q 0.125,0.125 0.25,0.25 L 11.375,7.875 11.3125,7.8125 M 10.4375,6.9375 10.25,6.75 10.1875,6.6875 10.125,6.625 10.25,6.75 Q 10.375,6.875 10.5,7 l 0.125,0.125 -0.1875,-0.1875"
           id="path67517" />
        <path
           style="fill:#808080;fill-opacity:1"
           d="M 11,7.5 10.75,7.25 11.03125,7 11.3125,6.75 11.28125,6.6875 11.25,6.625 11.3125,6.75 Q 11.375,6.875 11.5,7 L 11.625,7.125 11.4375,6.9375 11.25,6.75 11.5,7 Q 11.75,7.25 12,7.5 L 12.25,7.75 11.984375,8.015625 11.71875,8.28125 11.765625,8.359375 11.8125,8.4375 11.71875,8.28125 Q 11.625,8.125 11.5,8 L 11.375,7.875 11.5625,8.0625 11.75,8.25 11.5,8 Q 11.25,7.75 11,7.5 M 12.3125,7.8125 12.25,7.75 12.0625,7.5625 11.875,7.375 12,7.5 q 0.125,0.125 0.25,0.25 L 12.375,7.875 12.3125,7.8125 M 10.6875,7.1875 10.75,7.25 10.9375,7.4375 11.125,7.625 11,7.5 Q 10.875,7.375 10.75,7.25 l -0.125,-0.125 0.0625,0.0625"
           id="path67519" />
        <path
           style="fill:#525252;fill-opacity:1"
           d="M 12,7.5 11.75,7.25 12,7 12.25,6.75 12.5,7 Q 12.75,7.25 13,7.5 L 13.25,7.75 13,8 12.75,8.25 12.5,8 Q 12.25,7.75 12,7.5 M 12.5625,8.0625 12.75,8.25 12.8125,8.3125 12.875,8.375 12.75,8.25 Q 12.625,8.125 12.5,8 l -0.125,-0.125 0.1875,0.1875 m 0.75,-0.25 L 13.25,7.75 13.0625,7.5625 12.875,7.375 13,7.5 q 0.125,0.125 0.25,0.25 L 13.375,7.875 13.3125,7.8125 M 12.4375,6.9375 12.25,6.75 12.1875,6.6875 12.125,6.625 12.25,6.75 Q 12.375,6.875 12.5,7 l 0.125,0.125 -0.1875,-0.1875 m -0.75,0.25 L 11.75,7.25 11.9375,7.4375 12.125,7.625 12,7.5 Q 11.875,7.375 11.75,7.25 l -0.125,-0.125 0.0625,0.0625"
           id="path67521" />
        <path
           style="fill:#7a7a7a;fill-opacity:1"
           d="M 13,7.5 12.75,7.25 13.03125,6.96875 13.3125,6.6875 13.25,6.625 13.1875,6.5625 l 0.125,0.125 q 0.125,0.125 0.3125,0.1875 L 13.8125,6.9375 13.53125,6.84375 13.25,6.75 13.625,6.875 14,7 14.125,7.375 14.25,7.75 14.15625,7.46875 14.0625,7.1875 14.125,7.375 q 0.0625,0.1875 0.15625,0.34375 L 14.375,7.875 14.328125,7.796875 14.28125,7.71875 14.015625,7.984375 13.75,8.25 13.5,8 Q 13.25,7.75 13,7.5 M 13.5625,8.0625 13.75,8.25 13.8125,8.3125 13.875,8.375 13.75,8.25 Q 13.625,8.125 13.5,8 L 13.375,7.875 13.5625,8.0625 M 12.6875,7.1875 12.75,7.25 12.9375,7.4375 13.125,7.625 13,7.5 Q 12.875,7.375 12.75,7.25 l -0.125,-0.125 0.0625,0.0625"
           id="path67523" />
        <path
           style="fill:#8f8f8f;fill-opacity:1"
           d="M 14.125,7.375 14,7 14.5,7 15,7 15.125,7.375 15.25,7.75 15.15625,7.46875 15.0625,7.1875 15.125,7.375 q 0.0625,0.1875 0.1875,0.3125 l 0.125,0.125 L 15.375,7.75 15.3125,7.6875 15.015625,7.984375 14.71875,8.28125 14.765625,8.359375 14.8125,8.4375 14.71875,8.28125 Q 14.625,8.125 14.5,8 L 14.375,7.875 14.5625,8.0625 14.75,8.25 14.5,8 Q 14.25,7.75 14.125,7.375"
           id="path67525" />
        <path
           style="fill:#a3a3a3;fill-opacity:1"
           d="M 15.125,7.375 15,7 15.5,7 16,7 16,7.5 16,8 15.625,7.875 q -0.375,-0.125 -0.5,-0.5"
           id="path67527" />
        <path
           style="fill:#aaaaaa;fill-opacity:1"
           d="M 16,7.5 16,7 16.5,7 17,7 17,7.5 17,8 16.5,8 16,8 16,7.5"
           id="path67529" />
        <path
           style="fill:#a7a7a7;fill-opacity:1"
           d="M 17,7.5 17,7 17.375,7.125 q 0.375,0.125 0.5,0.5 L 18,8 17.5,8 17,8 17,7.5"
           id="path67531" />
        <path
           style="fill:#808080;fill-opacity:1"
           d="M 17.875,7.625 17.75,7.25 17.84375,7.53125 17.9375,7.8125 17.875,7.625 Q 17.8125,7.4375 17.6875,7.3125 L 17.5625,7.1875 17.625,7.25 17.6875,7.3125 17.96875,7.03125 18.25,6.75 18.5,7 Q 18.75,7.25 19,7.5 L 19.25,7.75 18.953125,8.015625 18.65625,8.28125 18.703125,8.328125 18.75,8.375 18.65625,8.28125 Q 18.5625,8.1875 18.375,8.125 L 18.1875,8.0625 18.46875,8.15625 18.75,8.25 18.375,8.125 18,8 17.875,7.625 M 19.3125,7.8125 19.25,7.75 19.0625,7.5625 18.875,7.375 19,7.5 q 0.125,0.125 0.25,0.25 L 19.375,7.875 19.3125,7.8125 M 18.4375,6.9375 18.25,6.75 18.1875,6.6875 18.125,6.625 18.25,6.75 Q 18.375,6.875 18.5,7 l 0.125,0.125 -0.1875,-0.1875"
           id="path67533" />
        <path
           style="fill:#252525;fill-opacity:0.81960784"
           d="M 19,7.5 18.75,7.25 19.03125,6.96875 19.3125,6.6875 19.25,6.625 19.1875,6.5625 l 0.125,0.125 q 0.125,0.125 0.3125,0.1875 L 19.8125,6.9375 19.53125,6.84375 19.25,6.75 19.625,6.875 20,7 20.125,7.375 Q 20.25,7.75 19.984375,8.015625 L 19.71875,8.28125 19.765625,8.359375 19.8125,8.4375 19.71875,8.28125 Q 19.625,8.125 19.5,8 L 19.375,7.875 19.5625,8.0625 19.75,8.25 19.5,8 Q 19.25,7.75 19,7.5 M 18.6875,7.1875 18.75,7.25 18.9375,7.4375 19.125,7.625 19,7.5 Q 18.875,7.375 18.75,7.25 l -0.125,-0.125 0.0625,0.0625"
           id="path67535" />
        <path
           style="fill:#2e2000;fill-opacity:0.81176471"
           d="m 1.25,8.5 q 0,-0.25 0.375,-0.375 L 2,8 2,8.5 2,9 1.625,8.875 Q 1.25,8.75 1.25,8.5"
           id="path67537" />
        <path
           style="fill:#ffcc00;fill-opacity:1"
           d="M 2,8.5 2,8 2.5,8 3,8 3,8.5 3,9 2.5,9 2,9 2,8.5"
           id="path67539" />
        <path
           style="fill:#895000;fill-opacity:1"
           d="M 3,8.5 3,8 3.515625,8.015625 4.03125,8.03125 4.046875,7.921875 4.0625,7.8125 4.03125,8.03125 Q 4,8.25 4,8.5 L 4,8.75 4,8.375 4,8 4,8.5 4,9 3.5,9 3,9 3,8.5"
           id="path67541" />
        <path
           style="fill:#3f3e3c;fill-opacity:1"
           d="M 4,8.5 4,8 4.375,8.125 Q 4.75,8.25 5,8.5 L 5.25,8.75 4.984375,9.015625 4.71875,9.28125 4.796875,9.328125 4.875,9.375 4.71875,9.28125 Q 4.5625,9.1875 4.375,9.125 L 4.1875,9.0625 4.46875,9.15625 4.75,9.25 4.375,9.125 4,9 4,8.5 M 5.3125,8.8125 5.25,8.75 5.0625,8.5625 4.875,8.375 5,8.5 Q 5.125,8.625 5.25,8.75 L 5.375,8.875 5.3125,8.8125"
           id="path67543" />
        <path
           style="fill:#8f8f8f;fill-opacity:1"
           d="M 5,8.5 4.75,8.25 4.9375,8.4375 5.125,8.625 5,8.5 Q 4.875,8.375 4.71875,8.28125 L 4.5625,8.1875 4.640625,8.234375 4.71875,8.28125 5.03125,8 5.34375,7.71875 5.296875,7.671875 5.25,7.625 5.34375,7.71875 Q 5.4375,7.8125 5.625,7.875 L 5.8125,7.9375 5.53125,7.84375 5.25,7.75 5.625,7.875 6,8 6.125,8.375 q 0.125,0.375 0.5,0.5 L 7,9 7.125,9.375 q 0.125,0.375 0.5,0.5 L 8,10 8.5,10 9,10 9,10.5 Q 9,11 9.5,11 l 0.5,0 0,0.5 q 0,0.5 0.5,0.5 l 0.5,0 -0.125,0.375 Q 10.75,12.75 10.5,12.75 10.25,12.75 10,13 L 9.75,13.25 9.5,13 Q 9.25,12.75 9,12.5 8.75,12.25 8.5,12 8.25,11.75 8,11.5 7.75,11.25 7.5,11 7.25,10.75 7,10.5 6.75,10.25 6.5,10 6.25,9.75 6,9.5 5.75,9.25 5.5,9 5.25,8.75 5,8.5 M 9.5625,13.0625 9.75,13.25 9.8125,13.3125 9.875,13.375 9.75,13.25 Q 9.625,13.125 9.5,13 l -0.125,-0.125 0.1875,0.1875"
           id="path67545" />
        <path
           style="fill:#939393;fill-opacity:1"
           d="M 6.125,8.375 6,8 6.5,8 7,8 7,8.5 7,9 6.625,8.875 Q 6.25,8.75 6.125,8.375"
           id="path67547" />
        <path
           style="fill:#969696;fill-opacity:1"
           d="M 7,8.5 7,8 7.5,8 8,8 8,8.5 8,9 7.5,9 7,9 7,8.5"
           id="path67549" />
        <path
           style="fill:#989898;fill-opacity:1"
           d="M 8,8.5 8,8 8.5,8 9,8 9,8.5 9,9 8.5,9 8,9 8,8.5"
           id="path67551" />
        <path
           style="fill:#9b9b9b;fill-opacity:1"
           d="M 9,8.5 9,8 9.5,8 10,8 10,8.5 10,9 9.5,9 9,9 9,8.5"
           id="path67553" />
        <path
           style="fill:#a3a3a3;fill-opacity:1"
           d="M 10,8.5 10,8 10.375,8.125 q 0.375,0.125 0.5,0.5 L 11,9 10.5,9 10,9 10,8.5"
           id="path67555" />
        <path
           style="fill:#b3b3b3;fill-opacity:1"
           d="M 10.875,8.625 10.75,8.25 10.84375,8.53125 10.9375,8.8125 10.875,8.625 Q 10.8125,8.4375 10.6875,8.3125 L 10.5625,8.1875 10.625,8.25 10.6875,8.3125 10.96875,8.03125 11.25,7.75 11.5,8 q 0.25,0.25 0.375,0.625 L 12,9 11.5,9 11,9 10.875,8.625 M 11.4375,7.9375 11.25,7.75 11.1875,7.6875 11.125,7.625 11.25,7.75 Q 11.375,7.875 11.5,8 l 0.125,0.125 -0.1875,-0.1875"
           id="path67557" />
        <path
           style="fill:#8a8a8a;fill-opacity:1"
           d="M 11.875,8.625 11.75,8.25 11.84375,8.53125 11.9375,8.8125 11.875,8.625 Q 11.8125,8.4375 11.71875,8.28125 L 11.625,8.125 11.671875,8.203125 11.71875,8.28125 11.984375,8.015625 12.25,7.75 12.5,8 Q 12.75,8.25 13,8.5 L 13.25,8.75 12.96875,9.03125 12.6875,9.3125 12.75,9.375 12.8125,9.4375 12.6875,9.3125 Q 12.5625,9.1875 12.375,9.125 L 12.1875,9.0625 12.46875,9.15625 12.75,9.25 12.375,9.125 12,9 11.875,8.625 M 13.3125,8.8125 13.25,8.75 13.0625,8.5625 12.875,8.375 13,8.5 q 0.125,0.125 0.25,0.25 L 13.375,8.875 13.3125,8.8125 M 12.4375,7.9375 12.25,7.75 12.1875,7.6875 12.125,7.625 12.25,7.75 Q 12.375,7.875 12.5,8 l 0.125,0.125 -0.1875,-0.1875"
           id="path67559" />
        <path
           style="fill:#5d5d5d;fill-opacity:1"
           d="M 13,8.5 12.75,8.25 13,8 13.25,7.75 13.5,8 Q 13.75,8.25 14,8.5 L 14.25,8.75 14.0625,8.5625 13.875,8.375 14,8.5 q 0.125,0.125 0.28125,0.21875 L 14.4375,8.8125 14.359375,8.765625 14.28125,8.71875 14.015625,8.984375 13.75,9.25 13.5,9 Q 13.25,8.75 13,8.5 M 13.5625,9.0625 13.75,9.25 13.8125,9.3125 13.875,9.375 13.75,9.25 Q 13.625,9.125 13.5,9 L 13.375,8.875 13.5625,9.0625 M 13.4375,7.9375 13.25,7.75 13.1875,7.6875 13.125,7.625 13.25,7.75 Q 13.375,7.875 13.5,8 l 0.125,0.125 -0.1875,-0.1875 m -0.75,0.25 L 12.75,8.25 12.9375,8.4375 13.125,8.625 13,8.5 Q 12.875,8.375 12.75,8.25 l -0.125,-0.125 0.0625,0.0625"
           id="path67561" />
        <path
           style="fill:#6e6e6e;fill-opacity:1"
           d="M 14,8.5 13.75,8.25 14.015625,7.984375 14.28125,7.71875 14.234375,7.640625 14.1875,7.5625 14.28125,7.71875 Q 14.375,7.875 14.5,8 L 14.625,8.125 14.4375,7.9375 14.25,7.75 14.5,8 q 0.25,0.25 0.375,0.625 L 15,9 14.625,8.875 Q 14.25,8.75 14,8.5 M 13.6875,8.1875 13.75,8.25 13.9375,8.4375 14.125,8.625 14,8.5 Q 13.875,8.375 13.75,8.25 l -0.125,-0.125 0.0625,0.0625"
           id="path67563" />
        <path
           style="fill:#909090;fill-opacity:1"
           d="M 14.875,8.625 14.75,8.25 14.84375,8.53125 14.9375,8.8125 14.875,8.625 Q 14.8125,8.4375 14.71875,8.28125 L 14.625,8.125 14.671875,8.203125 14.71875,8.28125 15.015625,7.984375 15.3125,7.6875 15.25,7.625 15.1875,7.5625 l 0.125,0.125 q 0.125,0.125 0.3125,0.1875 L 15.8125,7.9375 15.53125,7.84375 15.25,7.75 15.625,7.875 16,8 16.125,8.375 16.25,8.75 16.15625,8.46875 16.0625,8.1875 16.125,8.375 q 0.0625,0.1875 0.1875,0.3125 l 0.125,0.125 L 16.375,8.75 16.3125,8.6875 16.015625,8.984375 15.71875,9.28125 15.796875,9.328125 15.875,9.375 15.71875,9.28125 Q 15.5625,9.1875 15.375,9.125 L 15.1875,9.0625 15.46875,9.15625 15.75,9.25 15.375,9.125 15,9 14.875,8.625"
           id="path67565" />
        <path
           style="fill:#9f9f9f;fill-opacity:1"
           d="M 16.125,8.375 16,8 16.5,8 17,8 17,8.5 17,9 16.625,8.875 q -0.375,-0.125 -0.5,-0.5"
           id="path67567" />
        <path
           style="fill:#a4a4a4;fill-opacity:1"
           d="M 17,8.5 17,8 17.5,8 18,8 18,8.5 18,9 17.5,9 17,9 17,8.5"
           id="path67569" />
        <path
           style="fill:#9e9e9e;fill-opacity:1"
           d="M 18,8.5 18,8 18.375,8.125 Q 18.75,8.25 18.75,8.5 q 0,0.25 -0.375,0.375 L 18,9 18,8.5"
           id="path67571" />
        <path
           style="fill:#656565;fill-opacity:0.99215686"
           d="m 18.75,8.5 0,-0.25 0,0.1875 0,0.1875 0,-0.125 q 0,-0.125 -0.09375,-0.21875 L 18.5625,8.1875 18.609375,8.234375 18.65625,8.28125 18.953125,8.015625 19.25,7.75 19.5,8 q 0.25,0.25 0.375,0.625 L 20,9 19.625,9.125 19.25,9.25 19.53125,9.15625 19.8125,9.0625 19.625,9.125 Q 19.4375,9.1875 19.3125,9.3125 L 19.1875,9.4375 19.25,9.375 19.3125,9.3125 18.984375,9.015625 18.65625,8.71875 18.609375,8.765625 18.5625,8.8125 18.65625,8.71875 Q 18.75,8.625 18.75,8.5 l 0,-0.125 0,0.1875 0,0.1875 0,-0.25 M 19.4375,7.9375 19.25,7.75 19.1875,7.6875 19.125,7.625 19.25,7.75 Q 19.375,7.875 19.5,8 l 0.125,0.125 -0.1875,-0.1875"
           id="path67573" />
        <path
           style="fill:#080300;fill-opacity:0.36078431"
           d="M 0.875,9.625 Q 0.75,9.25 1.046875,8.984375 L 1.34375,8.71875 1.296875,8.671875 1.25,8.625 1.34375,8.71875 Q 1.4375,8.8125 1.625,8.875 L 1.8125,8.9375 1.53125,8.84375 1.25,8.75 1.625,8.875 2,9 2.125,9.375 2.25,9.75 2.15625,9.46875 2.0625,9.1875 2.125,9.375 Q 2.1875,9.5625 2.28125,9.71875 L 2.375,9.875 2.328125,9.796875 2.28125,9.71875 1.984375,10.015625 1.6875,10.3125 1.75,10.375 1.8125,10.4375 1.6875,10.3125 Q 1.5625,10.1875 1.375,10.125 L 1.1875,10.0625 1.46875,10.15625 1.75,10.25 1.375,10.125 Q 1,10 0.875,9.625"
           id="path67575" />
        <path
           style="fill:#582800;fill-opacity:0.98039216"
           d="M 2.125,9.375 2,9 2.5,9 3,9 3.125,9.375 3.25,9.75 3.15625,9.46875 3.0625,9.1875 3.125,9.375 Q 3.1875,9.5625 3.3125,9.6875 L 3.4375,9.8125 3.375,9.75 3.3125,9.6875 3.03125,9.96875 2.75,10.25 2.5,10 Q 2.25,9.75 2.125,9.375 M 2.5625,10.0625 2.75,10.25 2.8125,10.3125 2.875,10.375 2.75,10.25 Q 2.625,10.125 2.5,10 L 2.375,9.875 2.5625,10.0625"
           id="path67577" />
        <path
           style="fill:#d49a00;fill-opacity:1"
           d="M 3.125,9.375 3,9 3.5,9 4,9 4,9.5 4,10 3.625,9.875 Q 3.25,9.75 3.125,9.375"
           id="path67579" />
        <path
           style="fill:#b77900;fill-opacity:1"
           d="M 4,9.5 4,9 4.375,9.125 Q 4.75,9.25 5,9.5 L 5.25,9.75 4.984375,10.015625 4.71875,10.28125 4.796875,10.328125 4.875,10.375 4.71875,10.28125 Q 4.5625,10.1875 4.375,10.125 L 4.1875,10.0625 4.46875,10.15625 4.75,10.25 4.375,10.125 4,10 4,9.5 M 5.3125,9.8125 5.25,9.75 5.0625,9.5625 4.875,9.375 5,9.5 Q 5.125,9.625 5.25,9.75 L 5.375,9.875 5.3125,9.8125"
           id="path67581" />
        <path
           style="fill:#403c3c;fill-opacity:1"
           d="M 5,9.5 4.75,9.25 4.9375,9.4375 5.125,9.625 5,9.5 Q 4.875,9.375 4.71875,9.28125 L 4.5625,9.1875 4.640625,9.234375 4.71875,9.28125 4.984375,9.015625 5.25,8.75 5.5,9 Q 5.75,9.25 6,9.5 L 6.25,9.75 6,10 5.75,10.25 5.5,10 Q 5.25,9.75 5,9.5 M 5.5625,10.0625 5.75,10.25 5.8125,10.3125 5.875,10.375 5.75,10.25 Q 5.625,10.125 5.5,10 L 5.375,9.875 5.5625,10.0625 m 0.75,-0.25 L 6.25,9.75 6.0625,9.5625 5.875,9.375 6,9.5 Q 6.125,9.625 6.25,9.75 L 6.375,9.875 6.3125,9.8125 M 5.4375,8.9375 5.25,8.75 5.1875,8.6875 5.125,8.625 5.25,8.75 Q 5.375,8.875 5.5,9 L 5.625,9.125 5.4375,8.9375"
           id="path67583" />
        <path
           style="fill:#919191;fill-opacity:1"
           d="M 7.125,9.375 7,9 7.5,9 8,9 8,9.5 8,10 7.625,9.875 Q 7.25,9.75 7.125,9.375"
           id="path67585" />
        <path
           style="fill:#959595;fill-opacity:1"
           d="M 8,9.5 8,9 8.5,9 9,9 9,9.5 9,10 8.5,10 8,10 8,9.5"
           id="path67587" />
        <path
           style="fill:#979797;fill-opacity:1"
           d="M 9,9.5 9,9 9.5,9 10,9 10,9.5 10,10 9.5,10 9,10 9,9.5"
           id="path67589" />
        <path
           style="fill:#989898;fill-opacity:1"
           d="M 10,9.5 10,9 10.5,9 11,9 11,9.5 11,10 10.5,10 10,10 10,9.5"
           id="path67591" />
        <path
           style="fill:#9a9a9a;fill-opacity:1"
           d="M 11,9.5 11,9 11.5,9 12,9 12,9.5 12,10 11.5,10 11,10 11,9.5"
           id="path67593" />
        <path
           style="fill:#9f9f9f;fill-opacity:1"
           d="M 12,9.5 12,9 12.375,9.125 q 0.375,0.125 0.5,0.5 L 13,10 12.5,10 12,10 12,9.5"
           id="path67595" />
        <path
           style="fill:#959595;fill-opacity:1"
           d="M 12.875,9.625 12.75,9.25 12.84375,9.53125 12.9375,9.8125 12.875,9.625 Q 12.8125,9.4375 12.6875,9.3125 L 12.5625,9.1875 12.625,9.25 12.6875,9.3125 12.96875,9.03125 13.25,8.75 13.5,9 Q 13.75,9.25 14,9.5 L 14.25,9.75 14.0625,9.5625 13.875,9.375 14,9.5 q 0.125,0.125 0.25,0.1875 L 14.375,9.75 14.3125,9.71875 14.25,9.6875 13.953125,9.984375 13.65625,10.28125 13.703125,10.328125 13.75,10.375 13.65625,10.28125 Q 13.5625,10.1875 13.375,10.125 L 13.1875,10.0625 13.46875,10.15625 13.75,10.25 13.375,10.125 13,10 12.875,9.625 M 13.4375,8.9375 13.25,8.75 13.1875,8.6875 13.125,8.625 13.25,8.75 Q 13.375,8.875 13.5,9 l 0.125,0.125 -0.1875,-0.1875"
           id="path67597" />
        <path
           style="fill:#606060;fill-opacity:1"
           d="M 14,9.5 13.75,9.25 14.015625,8.984375 14.28125,8.71875 14.203125,8.671875 14.125,8.625 14.28125,8.71875 Q 14.4375,8.8125 14.625,8.875 L 14.8125,8.9375 14.53125,8.84375 14.25,8.75 14.625,8.875 15,9 14.875,9.375 Q 14.75,9.75 14.5,9.75 14.25,9.75 14,9.5 M 13.6875,9.1875 13.75,9.25 13.9375,9.4375 14.125,9.625 14,9.5 Q 13.875,9.375 13.75,9.25 l -0.125,-0.125 0.0625,0.0625"
           id="path67599" />
        <path
           style="fill:#696969;fill-opacity:1"
           d="M 14.875,9.375 15,9 15.375,9.125 Q 15.75,9.25 16,9.5 L 16.25,9.75 16.0625,9.5625 15.875,9.375 16,9.5 q 0.125,0.125 0.28125,0.21875 L 16.4375,9.8125 16.359375,9.765625 16.28125,9.71875 15.984375,10.015625 15.6875,10.3125 15.71875,10.34375 15.75,10.375 15.6875,10.3125 Q 15.625,10.25 15.5,10.25 l -0.125,0 0.1875,0 0.1875,0 -0.25,0 -0.25,0 0.1875,0 0.1875,0 -0.125,0 q -0.125,0 -0.25,0.0625 L 15.125,10.375 15.1875,10.34375 15.25,10.3125 14.984375,9.984375 14.71875,9.65625 14.671875,9.703125 14.625,9.75 14.71875,9.65625 Q 14.8125,9.5625 14.875,9.375 L 14.9375,9.1875 14.84375,9.46875 14.75,9.75 14.875,9.375"
           id="path67601" />
        <path
           style="fill:#8e8e8e;fill-opacity:1"
           d="M 16,9.5 15.75,9.25 15.9375,9.4375 16.125,9.625 16,9.5 Q 15.875,9.375 15.71875,9.28125 L 15.5625,9.1875 15.640625,9.234375 15.71875,9.28125 16.015625,8.984375 16.3125,8.6875 16.25,8.625 16.1875,8.5625 l 0.125,0.125 q 0.125,0.125 0.3125,0.1875 L 16.8125,8.9375 16.53125,8.84375 16.25,8.75 16.625,8.875 17,9 17,9.5 17,10 16.625,9.875 Q 16.25,9.75 16,9.5"
           id="path67603" />
        <path
           style="fill:#999999;fill-opacity:1"
           d="M 17,9.5 17,9 17.5,9 18,9 18,9.5 18,10 17.5,10 17,10 17,9.5"
           id="path67605" />
        <path
           style="fill:#959595;fill-opacity:1"
           d="M 18,9.5 18,9 18.375,8.875 18.75,8.75 18.46875,8.84375 18.1875,8.9375 18.375,8.875 Q 18.5625,8.8125 18.65625,8.71875 L 18.75,8.625 18.703125,8.671875 18.65625,8.71875 18.984375,9.015625 19.3125,9.3125 19.375,9.25 19.4375,9.1875 19.3125,9.3125 Q 19.1875,9.4375 19.125,9.625 L 19.0625,9.8125 19.15625,9.53125 19.25,9.25 19.125,9.625 19,10 18.5,10 18,10 18,9.5"
           id="path67607" />
        <path
           style="fill:#474747;fill-opacity:0.95294118"
           d="m 19.125,9.625 q 0.125,-0.375 0.5,-0.5 L 20,9 19.875,9.375 q -0.125,0.375 -0.5,0.5 L 19,10 19.125,9.625 M 19.09375,9.71875 19,10 18.96875,10.09375 18.9375,10.1875 19,10 q 0.0625,-0.1875 0.125,-0.375 l 0.0625,-0.1875 -0.09375,0.28125"
           id="path67609" />
        <path
           style="fill:#000000;fill-opacity:0.25882353"
           d="M 1.875,10.625 1.75,10.25 1.84375,10.53125 1.9375,10.8125 1.875,10.625 Q 1.8125,10.4375 1.6875,10.3125 L 1.5625,10.1875 1.625,10.25 1.6875,10.3125 1.984375,10.015625 2.28125,9.71875 2.234375,9.640625 2.1875,9.5625 2.28125,9.71875 Q 2.375,9.875 2.5,10 L 2.625,10.125 2.4375,9.9375 2.25,9.75 2.5,10 Q 2.75,10.25 3,10.5 L 3.25,10.75 3.0625,10.5625 2.875,10.375 3,10.5 q 0.125,0.125 0.28125,0.21875 L 3.4375,10.8125 3.359375,10.765625 3.28125,10.71875 2.984375,11.015625 2.6875,11.3125 2.75,11.375 2.8125,11.4375 2.6875,11.3125 Q 2.5625,11.1875 2.375,11.125 L 2.1875,11.0625 2.46875,11.15625 2.75,11.25 2.375,11.125 Q 2,11 1.875,10.625"
           id="path67611" />
        <path
           style="fill:#633800;fill-opacity:0.96078431"
           d="M 3,10.5 2.75,10.25 3.03125,9.96875 3.3125,9.6875 3.25,9.625 3.1875,9.5625 3.3125,9.6875 Q 3.4375,9.8125 3.625,9.875 L 3.8125,9.9375 3.53125,9.84375 3.25,9.75 3.625,9.875 4,10 4,10.5 4,11 3.625,10.875 Q 3.25,10.75 3,10.5 M 2.6875,10.1875 2.75,10.25 2.9375,10.4375 3.125,10.625 3,10.5 Q 2.875,10.375 2.75,10.25 l -0.125,-0.125 0.0625,0.0625"
           id="path67613" />
        <path
           style="fill:#ffb600;fill-opacity:1"
           d="M 4,10.5 4,10 4.375,10.125 Q 4.75,10.25 5,10.5 L 5.25,10.75 4.96875,11.03125 4.6875,11.3125 4.75,11.375 4.8125,11.4375 4.6875,11.3125 Q 4.5625,11.1875 4.375,11.125 L 4.1875,11.0625 4.46875,11.15625 4.75,11.25 4.375,11.125 4,11 4,10.5 M 5.3125,10.8125 5.25,10.75 5.0625,10.5625 4.875,10.375 5,10.5 q 0.125,0.125 0.25,0.25 l 0.125,0.125 -0.0625,-0.0625"
           id="path67615" />
        <path
           style="fill:#b97900;fill-opacity:1"
           d="M 5,10.5 4.75,10.25 4.9375,10.4375 5.125,10.625 5,10.5 Q 4.875,10.375 4.71875,10.28125 L 4.5625,10.1875 4.640625,10.234375 4.71875,10.28125 4.984375,10.015625 5.25,9.75 5.5,10 Q 5.75,10.25 6,10.5 L 6.25,10.75 5.984375,11.015625 5.71875,11.28125 5.765625,11.359375 5.8125,11.4375 5.71875,11.28125 Q 5.625,11.125 5.5,11 L 5.375,10.875 5.5625,11.0625 5.75,11.25 5.5,11 Q 5.25,10.75 5,10.5 M 6.3125,10.8125 6.25,10.75 6.0625,10.5625 5.875,10.375 6,10.5 q 0.125,0.125 0.25,0.25 L 6.375,10.875 6.3125,10.8125 M 5.4375,9.9375 5.25,9.75 5.1875,9.6875 5.125,9.625 5.25,9.75 Q 5.375,9.875 5.5,10 L 5.625,10.125 5.4375,9.9375"
           id="path67617" />
        <path
           style="fill:#403c3b;fill-opacity:1"
           d="M 6,10.5 5.75,10.25 6,10 6.25,9.75 6.5,10 Q 6.75,10.25 7,10.5 L 7.25,10.75 6.984375,11.015625 6.71875,11.28125 6.765625,11.359375 6.8125,11.4375 6.71875,11.28125 Q 6.625,11.125 6.5,11 L 6.375,10.875 6.5625,11.0625 6.75,11.25 6.5,11 Q 6.25,10.75 6,10.5 M 7.3125,10.8125 7.25,10.75 7.0625,10.5625 6.875,10.375 7,10.5 q 0.125,0.125 0.25,0.25 L 7.375,10.875 7.3125,10.8125 M 6.4375,9.9375 6.25,9.75 6.1875,9.6875 6.125,9.625 6.25,9.75 Q 6.375,9.875 6.5,10 L 6.625,10.125 6.4375,9.9375 m -0.75,0.25 L 5.75,10.25 5.9375,10.4375 6.125,10.625 6,10.5 Q 5.875,10.375 5.75,10.25 l -0.125,-0.125 0.0625,0.0625"
           id="path67619" />
        <path
           style="fill:#949494;fill-opacity:1"
           d="m 9,10.5 0,-0.5 0.5,0 0.5,0 0,0.5 0,0.5 -0.5,0 Q 9,11 9,10.5"
           id="path67621" />
        <path
           style="fill:#969696;fill-opacity:1"
           d="m 10,10.5 0,-0.5 0.5,0 0.5,0 0,0.5 0,0.5 -0.5,0 -0.5,0 0,-0.5"
           id="path67623" />
        <path
           style="fill:#959595;fill-opacity:1"
           d="m 11,10.5 0,-0.5 0.5,0 0.5,0 0.5,0 0.5,0 -0.125,0.375 q -0.125,0.375 -0.5,0.5 -0.375,0.125 -0.5,0.5 -0.125,0.375 -0.5,0.5 L 11,12 11,11.5 11,11 11,10.5"
           id="path67625" />
        <path
           style="fill:#8f8f8f;fill-opacity:1"
           d="M 12.875,10.375 13,10 l 0.375,0.125 q 0.375,0.125 0.375,0.375 0,0.25 -0.25,0.5 L 13.25,11.25 13.4375,11.0625 13.625,10.875 13.5,11 q -0.125,0.125 -0.21875,0.28125 l -0.09375,0.15625 0.04687,-0.07813 0.04687,-0.07813 L 12.984375,10.984375 12.6875,10.6875 12.625,10.75 l -0.0625,0.0625 0.125,-0.125 q 0.125,-0.125 0.1875,-0.3125 L 12.9375,10.1875 12.84375,10.46875 12.75,10.75 12.875,10.375"
           id="path67627" />
        <path
           style="fill:#6d6d6d;fill-opacity:1"
           d="m 13.75,10.5 0,-0.25 0,0.1875 0,0.1875 0,-0.125 q 0,-0.125 -0.09375,-0.21875 l -0.09375,-0.09375 0.04687,0.04687 0.04687,0.04687 L 13.953125,9.984375 14.25,9.6875 14.1875,9.65625 14.125,9.625 14.25,9.6875 Q 14.375,9.75 14.5,9.75 l 0.125,0 -0.1875,0 -0.1875,0 0.25,0 0.25,0 -0.1875,0 -0.1875,0 0.125,0 q 0.125,0 0.21875,-0.09375 L 14.8125,9.5625 14.765625,9.609375 14.71875,9.65625 14.984375,9.984375 15.25,10.3125 15.3125,10.28125 15.375,10.25 15.25,10.3125 Q 15.125,10.375 15,10.5 L 14.875,10.625 15.0625,10.4375 15.25,10.25 15,10.5 Q 14.75,10.75 14.5,11 L 14.25,11.25 14.4375,11.0625 14.625,10.875 14.5,11 q -0.125,0.125 -0.1875,0.25 L 14.25,11.375 14.28125,11.3125 14.3125,11.25 14,11 13.6875,10.75 13.65625,10.8125 13.625,10.875 13.6875,10.75 Q 13.75,10.625 13.75,10.5 l 0,-0.125 0,0.1875 0,0.1875 0,-0.25"
           id="path67629" />
        <path
           style="fill:#3d3d3d;fill-opacity:1"
           d="m 15,10.5 q 0.25,-0.25 0.5,-0.25 0.25,0 0.25,0.25 0,0.25 -0.25,0.5 L 15.25,11.25 15.4375,11.0625 15.625,10.875 15.5,11 q -0.125,0.125 -0.21875,0.28125 l -0.09375,0.15625 0.04687,-0.07813 0.04687,-0.07813 L 15.015625,11.015625 14.75,10.75 15,10.5 M 14.9375,10.5625 14.75,10.75 14.6875,10.8125 14.625,10.875 14.75,10.75 Q 14.875,10.625 15,10.5 l 0.125,-0.125 -0.1875,0.1875"
           id="path67631" />
        <path
           style="fill:#787878;fill-opacity:1"
           d="m 15.75,10.5 0,-0.25 0,0.1875 0,0.1875 0,-0.125 q 0,-0.125 -0.0625,-0.1875 L 15.625,10.25 15.65625,10.28125 15.6875,10.3125 15.984375,10.015625 16.28125,9.71875 16.203125,9.671875 16.125,9.625 16.28125,9.71875 Q 16.4375,9.8125 16.625,9.875 L 16.8125,9.9375 16.53125,9.84375 16.25,9.75 16.625,9.875 17,10 17,10.5 17,11 16.625,11.125 16.25,11.25 16.53125,11.15625 16.8125,11.0625 16.625,11.125 q -0.1875,0.0625 -0.34375,0.15625 L 16.125,11.375 16.203125,11.328125 16.28125,11.28125 15.984375,11.015625 15.6875,10.75 15.65625,10.8125 15.625,10.875 15.6875,10.75 Q 15.75,10.625 15.75,10.5 l 0,-0.125 0,0.1875 0,0.1875 0,-0.25"
           id="path67633" />
        <path
           style="fill:#8f8f8f;fill-opacity:1"
           d="m 17,10.5 0,-0.5 0.5,0 0.5,0 -0.125,0.375 q -0.125,0.375 -0.5,0.5 L 17,11 17,10.5"
           id="path67635" />
        <path
           style="fill:#808080;fill-opacity:1"
           d="M 17.875,10.375 18,10 l 0.5,0 0.5,0 -0.125,0.375 Q 18.75,10.75 18.5,11 L 18.25,11.25 17.96875,10.96875 17.6875,10.6875 17.625,10.75 l -0.0625,0.0625 0.125,-0.125 q 0.125,-0.125 0.1875,-0.3125 L 17.9375,10.1875 17.84375,10.46875 17.75,10.75 17.875,10.375 M 18.1875,11.3125 18.25,11.25 18.4375,11.0625 18.625,10.875 18.5,11 q -0.125,0.125 -0.25,0.25 l -0.125,0.125 0.0625,-0.0625"
           id="path67637" />
        <path
           style="fill:#111111;fill-opacity:0.6627451"
           d="M 18.875,10.375 19,10 19.375,9.875 19.75,9.75 19.46875,9.84375 19.1875,9.9375 19.375,9.875 Q 19.5625,9.8125 19.6875,9.6875 L 19.8125,9.5625 19.75,9.625 19.6875,9.6875 19.96875,9.96875 Q 20.25,10.25 20.125,10.625 L 20,11 19.625,11.125 19.25,11.25 19.53125,11.15625 19.8125,11.0625 19.625,11.125 q -0.1875,0.0625 -0.3125,0.1875 l -0.125,0.125 L 19.25,11.375 19.3125,11.3125 19.015625,11.015625 18.71875,10.71875 18.671875,10.796875 18.625,10.875 18.71875,10.71875 Q 18.8125,10.5625 18.875,10.375 L 18.9375,10.1875 18.84375,10.46875 18.75,10.75 18.875,10.375 M 19.03125,9.90625 19,10 18.90625,10.28125 18.8125,10.5625 18.875,10.375 Q 18.9375,10.1875 19,10 l 0.0625,-0.1875 -0.03125,0.09375"
           id="path67639" />
        <path
           style="fill:#000000;fill-opacity:0.16862745"
           d="M 2.875,11.625 2.75,11.25 2.84375,11.53125 2.9375,11.8125 2.875,11.625 Q 2.8125,11.4375 2.6875,11.3125 L 2.5625,11.1875 2.625,11.25 2.6875,11.3125 2.984375,11.015625 3.28125,10.71875 3.203125,10.671875 3.125,10.625 3.28125,10.71875 Q 3.4375,10.8125 3.625,10.875 L 3.8125,10.9375 3.53125,10.84375 3.25,10.75 3.625,10.875 4,11 4.125,11.375 4.25,11.75 4.15625,11.46875 4.0625,11.1875 4.125,11.375 q 0.0625,0.1875 0.1875,0.3125 l 0.125,0.125 L 4.375,11.75 4.3125,11.6875 4,12 3.6875,12.3125 3.75,12.375 3.8125,12.4375 3.6875,12.3125 Q 3.5625,12.1875 3.375,12.125 L 3.1875,12.0625 3.46875,12.15625 3.75,12.25 3.375,12.125 Q 3,12 2.875,11.625"
           id="path67641" />
        <path
           style="fill:#471f00;fill-opacity:0.91764706"
           d="M 4.125,11.375 4,11 4.375,11.125 q 0.375,0.125 0.5,0.5 L 5,12 4.625,11.875 q -0.375,-0.125 -0.5,-0.5"
           id="path67643" />
        <path
           style="fill:#f7a800;fill-opacity:1"
           d="M 4.875,11.625 4.75,11.25 4.84375,11.53125 4.9375,11.8125 4.875,11.625 Q 4.8125,11.4375 4.6875,11.3125 L 4.5625,11.1875 4.625,11.25 4.6875,11.3125 4.96875,11.03125 5.25,10.75 5.5,11 q 0.25,0.25 0.375,0.625 L 6,12 5.5,12 5,12 4.875,11.625 M 5.4375,10.9375 5.25,10.75 5.1875,10.6875 5.125,10.625 5.25,10.75 Q 5.375,10.875 5.5,11 l 0.125,0.125 -0.1875,-0.1875"
           id="path67645" />
        <path
           style="fill:#bc7c00;fill-opacity:1"
           d="M 5.875,11.625 5.75,11.25 5.84375,11.53125 5.9375,11.8125 5.875,11.625 Q 5.8125,11.4375 5.71875,11.28125 L 5.625,11.125 5.671875,11.203125 5.71875,11.28125 5.984375,11.015625 6.25,10.75 6.5,11 q 0.25,0.25 0.375,0.625 L 7,12 6.5,12 6,12 5.875,11.625 M 6.4375,10.9375 6.25,10.75 6.1875,10.6875 6.125,10.625 6.25,10.75 Q 6.375,10.875 6.5,11 l 0.125,0.125 -0.1875,-0.1875"
           id="path67647" />
        <path
           style="fill:#433f3c;fill-opacity:1"
           d="M 6.875,11.625 6.75,11.25 6.84375,11.53125 6.9375,11.8125 6.875,11.625 Q 6.8125,11.4375 6.71875,11.28125 L 6.625,11.125 6.671875,11.203125 6.71875,11.28125 6.984375,11.015625 7.25,10.75 7.5,11 Q 7.75,11.25 8,11.5 L 8.25,11.75 7.96875,12.03125 7.6875,12.3125 7.75,12.375 7.8125,12.4375 7.6875,12.3125 Q 7.5625,12.1875 7.375,12.125 L 7.1875,12.0625 7.46875,12.15625 7.75,12.25 7.375,12.125 7,12 6.875,11.625 M 8.3125,11.8125 8.25,11.75 8.0625,11.5625 7.875,11.375 8,11.5 q 0.125,0.125 0.25,0.25 L 8.375,11.875 8.3125,11.8125 M 7.4375,10.9375 7.25,10.75 7.1875,10.6875 7.125,10.625 7.25,10.75 Q 7.375,10.875 7.5,11 l 0.125,0.125 -0.1875,-0.1875"
           id="path67649" />
        <path
           style="fill:#929292;fill-opacity:1"
           d="m 10,11.5 0,-0.5 0.5,0 0.5,0 0,0.5 0,0.5 -0.5,0 Q 10,12 10,11.5"
           id="path67651" />
        <path
           style="fill:#7b7b7b;fill-opacity:1"
           d="M 11.875,11.375 Q 12,11 12.375,10.875 L 12.75,10.75 12.46875,10.84375 12.1875,10.9375 12.375,10.875 q 0.1875,-0.0625 0.3125,-0.1875 l 0.125,-0.125 -0.0625,0.0625 -0.0625,0.0625 0.296875,0.296875 0.296875,0.296875 0.04687,-0.07813 L 13.375,11.125 13.28125,11.28125 Q 13.1875,11.4375 13.125,11.625 L 13.0625,11.8125 13.15625,11.53125 13.25,11.25 13.125,11.625 13,12 12.625,12.125 12.25,12.25 12.53125,12.15625 12.8125,12.0625 12.625,12.125 q -0.1875,0.0625 -0.34375,0.15625 L 12.125,12.375 12.203125,12.328125 12.28125,12.28125 11.984375,11.984375 11.6875,11.6875 11.625,11.75 l -0.0625,0.0625 0.125,-0.125 q 0.125,-0.125 0.1875,-0.3125 L 11.9375,11.1875 11.84375,11.46875 11.75,11.75 11.875,11.375"
           id="path67653" />
        <path
           style="fill:#4d4d4d;fill-opacity:1"
           d="M 13.125,11.625 Q 13.25,11.25 13.5,11 L 13.75,10.75 13.5625,10.9375 13.375,11.125 13.5,11 q 0.125,-0.125 0.1875,-0.25 L 13.75,10.625 13.71875,10.6875 13.6875,10.75 14,11 14.3125,11.25 14.34375,11.1875 14.375,11.125 14.3125,11.25 Q 14.25,11.375 14.25,11.5 l 0,0.125 0,-0.1875 0,-0.1875 0,0.25 0,0.25 0,-0.1875 0,-0.1875 0,0.125 q 0,0.125 0.09375,0.21875 l 0.09375,0.09375 -0.04687,-0.04687 -0.04687,-0.04687 -0.3125,0.28125 -0.3125,0.28125 0.07813,0.04687 L 13.875,12.375 13.71875,12.28125 Q 13.5625,12.1875 13.375,12.125 L 13.1875,12.0625 13.46875,12.15625 13.75,12.25 13.375,12.125 13,12 13.125,11.625"
           id="path67655" />
        <path
           style="fill:#626262;fill-opacity:1"
           d="m 14.25,11.5 q 0,-0.25 0.25,-0.5 l 0.25,-0.25 0.265625,0.265625 0.265625,0.265625 0.04687,-0.07813 L 15.375,11.125 15.28125,11.28125 Q 15.1875,11.4375 15.125,11.625 L 15.0625,11.8125 15.15625,11.53125 15.25,11.25 15.125,11.625 15,12 14.625,11.875 Q 14.25,11.75 14.25,11.5 M 14.8125,10.6875 14.75,10.75 14.5625,10.9375 14.375,11.125 14.5,11 q 0.125,-0.125 0.25,-0.25 l 0.125,-0.125 -0.0625,0.0625"
           id="path67657" />
        <path
           style="fill:#4a4a4a;fill-opacity:1"
           d="M 15.125,11.625 Q 15.25,11.25 15.5,11 L 15.75,10.75 15.5625,10.9375 15.375,11.125 15.5,11 q 0.125,-0.125 0.1875,-0.25 l 0.0625,-0.125 -0.03125,0.0625 -0.03125,0.0625 0.296875,0.265625 0.296875,0.265625 0.07813,-0.04687 0.07813,-0.04687 -0.15625,0.09375 Q 16.125,11.375 16,11.5 L 15.875,11.625 16.0625,11.4375 16.25,11.25 16,11.5 q -0.25,0.25 -0.625,0.375 L 15,12 15.125,11.625"
           id="path67659" />
        <path
           style="fill:#7e7e7e;fill-opacity:1"
           d="m 16,11.5 q 0.25,-0.25 0.625,-0.375 L 17,11 16.875,11.375 Q 16.75,11.75 16.5,12 L 16.25,12.25 16.4375,12.0625 16.625,11.875 16.5,12 q -0.125,0.125 -0.21875,0.28125 l -0.09375,0.15625 0.04687,-0.07813 0.04687,-0.07813 L 16,12 l -0.28125,-0.28125 -0.07813,0.04687 -0.07813,0.04687 0.15625,-0.09375 Q 15.875,11.625 16,11.5 L 16.125,11.375 15.9375,11.5625 15.75,11.75 16,11.5"
           id="path67661" />
        <path
           style="fill:#8e8e8e;fill-opacity:1"
           d="M 16.875,11.375 17,11 17.375,10.875 17.75,10.75 17.46875,10.84375 17.1875,10.9375 17.375,10.875 q 0.1875,-0.0625 0.3125,-0.1875 l 0.125,-0.125 -0.0625,0.0625 -0.0625,0.0625 0.28125,0.28125 L 18.25,11.25 18,11.5 Q 17.75,11.75 17.5,12 L 17.25,12.25 16.984375,11.984375 16.71875,11.71875 16.671875,11.796875 16.625,11.875 16.71875,11.71875 Q 16.8125,11.5625 16.875,11.375 L 16.9375,11.1875 16.84375,11.46875 16.75,11.75 16.875,11.375 M 17.1875,12.3125 17.25,12.25 17.4375,12.0625 17.625,11.875 17.5,12 q -0.125,0.125 -0.25,0.25 l -0.125,0.125 0.0625,-0.0625 m 0.875,-0.875 L 18.25,11.25 18.3125,11.1875 18.375,11.125 18.25,11.25 Q 18.125,11.375 18,11.5 l -0.125,0.125 0.1875,-0.1875"
           id="path67663" />
        <path
           style="fill:#303030;fill-opacity:0.91372549"
           d="M 18,11.5 Q 18.25,11.25 18.5,11 L 18.75,10.75 18.5625,10.9375 18.375,11.125 18.5,11 q 0.125,-0.125 0.21875,-0.28125 l 0.09375,-0.15625 -0.04687,0.07813 -0.04687,0.07813 0.296875,0.296875 0.296875,0.296875 0.0625,-0.0625 0.0625,-0.0625 -0.125,0.125 q -0.125,0.125 -0.1875,0.3125 L 19.0625,11.8125 19.15625,11.53125 19.25,11.25 19.125,11.625 19,12 18.625,12.125 18.25,12.25 18.53125,12.15625 18.8125,12.0625 18.625,12.125 q -0.1875,0.0625 -0.34375,0.15625 L 18.125,12.375 18.203125,12.328125 18.28125,12.28125 18.015625,12.015625 17.75,11.75 18,11.5 M 17.9375,11.5625 17.75,11.75 17.6875,11.8125 17.625,11.875 17.75,11.75 Q 17.875,11.625 18,11.5 l 0.125,-0.125 -0.1875,0.1875"
           id="path67665" />
        <path
           style="fill:#000000;fill-opacity:0.06666667"
           d="m 19.125,11.625 q 0.125,-0.375 0.5,-0.5 L 20,11 20,11.5 Q 20,12 19.5,12 l -0.5,0 0.125,-0.375"
           id="path67667" />
        <path
           style="fill:#000000;fill-opacity:0.07843137"
           d="M 3.875,12.625 3.75,12.25 3.84375,12.53125 3.9375,12.8125 3.875,12.625 Q 3.8125,12.4375 3.6875,12.3125 L 3.5625,12.1875 3.625,12.25 3.6875,12.3125 4,12 4.3125,11.6875 4.25,11.625 4.1875,11.5625 l 0.125,0.125 q 0.125,0.125 0.3125,0.1875 L 4.8125,11.9375 4.53125,11.84375 4.25,11.75 4.625,11.875 5,12 5.125,12.375 5.25,12.75 5.15625,12.46875 5.0625,12.1875 5.125,12.375 q 0.0625,0.1875 0.15625,0.34375 L 5.375,12.875 5.328125,12.796875 5.28125,12.71875 5.015625,12.984375 Q 4.75,13.25 4.375,13.125 4,13 3.875,12.625"
           id="path67669" />
        <path
           style="fill:#2b1100;fill-opacity:0.84705882"
           d="M 5.125,12.375 5,12 5.5,12 6,12 6.125,12.375 6.25,12.75 6.15625,12.46875 6.0625,12.1875 6.125,12.375 q 0.0625,0.1875 0.1875,0.3125 l 0.125,0.125 L 6.375,12.75 6.3125,12.6875 6.03125,12.96875 5.75,13.25 5.5,13 Q 5.25,12.75 5.125,12.375 M 5.5625,13.0625 5.75,13.25 5.8125,13.3125 5.875,13.375 5.75,13.25 Q 5.625,13.125 5.5,13 l -0.125,-0.125 0.1875,0.1875"
           id="path67671" />
        <path
           style="fill:#e99700;fill-opacity:1"
           d="M 6.125,12.375 6,12 6.5,12 7,12 7,12.5 7,13 6.625,12.875 q -0.375,-0.125 -0.5,-0.5"
           id="path67673" />
        <path
           style="fill:#a96100;fill-opacity:1"
           d="M 7,12.5 7,12 7.375,12.125 q 0.375,0.125 0.5,0.5 L 8,13 7.5,13 7,13 7,12.5"
           id="path67675" />
        <path
           style="fill:#3f3f3f;fill-opacity:1"
           d="M 7.875,12.625 7.75,12.25 7.84375,12.53125 7.9375,12.8125 7.875,12.625 Q 7.8125,12.4375 7.6875,12.3125 L 7.5625,12.1875 7.625,12.25 7.6875,12.3125 7.96875,12.03125 8.25,11.75 8.5,12 Q 8.75,12.25 9,12.5 L 9.25,12.75 8.96875,13.03125 8.6875,13.3125 8.75,13.375 8.8125,13.4375 8.6875,13.3125 Q 8.5625,13.1875 8.375,13.125 L 8.1875,13.0625 8.46875,13.15625 8.75,13.25 8.375,13.125 8,13 7.875,12.625 M 9.3125,12.8125 9.25,12.75 9.0625,12.5625 8.875,12.375 9,12.5 q 0.125,0.125 0.25,0.25 L 9.375,12.875 9.3125,12.8125 M 8.4375,11.9375 8.25,11.75 8.1875,11.6875 8.125,11.625 8.25,11.75 Q 8.375,11.875 8.5,12 l 0.125,0.125 -0.1875,-0.1875"
           id="path67677" />
        <path
           style="fill:#777777;fill-opacity:1"
           d="M 10.875,12.375 11,12 11.375,11.875 11.75,11.75 11.46875,11.84375 11.1875,11.9375 11.375,11.875 q 0.1875,-0.0625 0.3125,-0.1875 l 0.125,-0.125 -0.0625,0.0625 -0.0625,0.0625 0.296875,0.296875 0.296875,0.296875 0.07813,-0.04687 0.07813,-0.04687 -0.15625,0.09375 Q 12.125,12.375 12,12.5 L 11.875,12.625 12.0625,12.4375 12.25,12.25 12,12.5 Q 11.75,12.75 11.5,13 L 11.25,13.25 10.984375,12.953125 10.71875,12.65625 10.671875,12.703125 10.625,12.75 10.71875,12.65625 Q 10.8125,12.5625 10.875,12.375 L 10.9375,12.1875 10.84375,12.46875 10.75,12.75 10.875,12.375 M 11.1875,13.3125 11.25,13.25 11.4375,13.0625 11.625,12.875 11.5,13 q -0.125,0.125 -0.25,0.25 l -0.125,0.125 0.0625,-0.0625"
           id="path67679" />
        <path
           style="fill:#0e0e0e;fill-opacity:0.77254902"
           d="m 12,12.5 q 0.25,-0.25 0.625,-0.375 L 13,12 13,12.5 13,13 12.625,13.125 12.25,13.25 12.53125,13.15625 12.8125,13.0625 12.625,13.125 q -0.1875,0.0625 -0.3125,0.1875 l -0.125,0.125 L 12.25,13.375 12.3125,13.3125 12.03125,13.03125 11.75,12.75 12,12.5 M 11.9375,12.5625 11.75,12.75 11.6875,12.8125 11.625,12.875 11.75,12.75 Q 11.875,12.625 12,12.5 l 0.125,-0.125 -0.1875,0.1875"
           id="path67681" />
        <path
           style="fill:#1c1d1d;fill-opacity:0.88235294"
           d="m 13,12.5 0,-0.5 0.375,0.125 Q 13.75,12.25 14,12.5 L 14.25,12.75 14.0625,12.5625 13.875,12.375 14,12.5 q 0.125,0.125 0.28125,0.21875 l 0.15625,0.09375 -0.07813,-0.04687 -0.07813,-0.04687 -0.296875,0.296875 -0.296875,0.296875 0.0625,0.0625 0.0625,0.0625 -0.125,-0.125 Q 13.5625,13.1875 13.375,13.125 L 13.1875,13.0625 13.46875,13.15625 13.75,13.25 13.375,13.125 13,13 13,12.5"
           id="path67683" />
        <path
           style="fill:#5f5f5f;fill-opacity:1"
           d="M 14,12.5 13.75,12.25 13.9375,12.4375 14.125,12.625 14,12.5 q -0.125,-0.125 -0.28125,-0.21875 l -0.15625,-0.09375 0.07813,0.04687 0.07813,0.04687 L 14.03125,12 14.34375,11.71875 14.296875,11.671875 14.25,11.625 14.34375,11.71875 Q 14.4375,11.8125 14.625,11.875 L 14.8125,11.9375 14.53125,11.84375 14.25,11.75 14.625,11.875 15,12 15,12.5 15,13 14.625,12.875 Q 14.25,12.75 14,12.5"
           id="path67685" />
        <path
           style="fill:#585858;fill-opacity:1"
           d="M 15,12.5 15,12 15.375,11.875 15.75,11.75 15.46875,11.84375 15.1875,11.9375 15.375,11.875 q 0.1875,-0.0625 0.34375,-0.15625 L 15.875,11.625 15.796875,11.671875 15.71875,11.71875 16,12 l 0.28125,0.28125 0.04687,-0.07813 L 16.375,12.125 16.28125,12.28125 Q 16.1875,12.4375 16.125,12.625 L 16.0625,12.8125 16.15625,12.53125 16.25,12.25 16.125,12.625 16,13 15.5,13 15,13 15,12.5"
           id="path67687" />
        <path
           style="fill:#808080;fill-opacity:1"
           d="M 16.125,12.625 Q 16.25,12.25 16.5,12 L 16.75,11.75 16.5625,11.9375 16.375,12.125 16.5,12 q 0.125,-0.125 0.21875,-0.28125 l 0.09375,-0.15625 -0.04687,0.07813 -0.04687,0.07813 0.265625,0.265625 L 17.25,12.25 17,12.5 q -0.25,0.25 -0.625,0.375 L 16,13 16.125,12.625 M 17.0625,12.4375 17.25,12.25 17.3125,12.1875 17.375,12.125 17.25,12.25 Q 17.125,12.375 17,12.5 l -0.125,0.125 0.1875,-0.1875"
           id="path67689" />
        <path
           style="fill:#323232;fill-opacity:0.91372549"
           d="m 17,12.5 q 0.25,-0.25 0.5,-0.5 l 0.25,-0.25 0.265625,0.265625 0.265625,0.265625 0.07813,-0.04687 0.07813,-0.04687 -0.15625,0.09375 Q 18.125,12.375 18,12.5 L 17.875,12.625 18.0625,12.4375 18.25,12.25 18,12.5 Q 17.75,12.75 17.5,13 L 17.25,13.25 17.4375,13.0625 17.625,12.875 17.5,13 q -0.125,0.125 -0.21875,0.28125 l -0.09375,0.15625 0.04687,-0.07813 0.04687,-0.07813 L 17,13 l -0.28125,-0.28125 -0.07813,0.04687 -0.07813,0.04687 0.15625,-0.09375 Q 16.875,12.625 17,12.5 L 17.125,12.375 16.9375,12.5625 16.75,12.75 17,12.5 M 17.8125,11.6875 17.75,11.75 17.5625,11.9375 17.375,12.125 17.5,12 q 0.125,-0.125 0.25,-0.25 l 0.125,-0.125 -0.0625,0.0625"
           id="path67691" />
        <path
           style="fill:#000000;fill-opacity:0.16862745"
           d="m 18,12.5 q 0.25,-0.25 0.625,-0.375 L 19,12 l 0,0.5 q 0,0.5 -0.375,0.625 L 18.25,13.25 18.53125,13.15625 18.8125,13.0625 18.625,13.125 q -0.1875,0.0625 -0.3125,0.1875 l -0.125,0.125 L 18.25,13.375 18.3125,13.3125 18.03125,13.03125 17.75,12.75 18,12.5 M 17.9375,12.5625 17.75,12.75 17.6875,12.8125 17.625,12.875 17.75,12.75 Q 17.875,12.625 18,12.5 l 0.125,-0.125 -0.1875,0.1875"
           id="path67693" />
        <path
           style="fill:#1d0a00;fill-opacity:0.78039216"
           d="M 6,13.5 5.75,13.25 6.03125,12.96875 6.3125,12.6875 6.25,12.625 6.1875,12.5625 l 0.125,0.125 q 0.125,0.125 0.3125,0.1875 L 6.8125,12.9375 6.53125,12.84375 6.25,12.75 6.625,12.875 7,13 7.125,13.375 7.25,13.75 7.15625,13.46875 7.0625,13.1875 7.125,13.375 q 0.0625,0.1875 0.1875,0.3125 l 0.125,0.125 L 7.375,13.75 7.3125,13.6875 7.015625,13.984375 6.71875,14.28125 6.765625,14.359375 6.8125,14.4375 6.71875,14.28125 Q 6.625,14.125 6.5,14 L 6.375,13.875 6.5625,14.0625 6.75,14.25 6.5,14 Q 6.25,13.75 6,13.5 M 5.6875,13.1875 5.75,13.25 5.9375,13.4375 6.125,13.625 6,13.5 Q 5.875,13.375 5.75,13.25 l -0.125,-0.125 0.0625,0.0625"
           id="path67695" />
        <path
           style="fill:#985f00;fill-opacity:1"
           d="M 7.125,13.375 7,13 7.5,13 8,13 8,13.5 8,14 7.625,13.875 q -0.375,-0.125 -0.5,-0.5"
           id="path67697" />
        <path
           style="fill:#b47800;fill-opacity:1"
           d="M 8,13.5 8,13 8.375,13.125 Q 8.75,13.25 8.859375,13.640625 L 8.96875,14.03125 9.078125,14.046875 9.1875,14.0625 8.96875,14.03125 Q 8.75,14 8.5,14 L 8.25,14 8.625,14 9,14 8.5,14 8,14 8,13.5"
           id="path67699" />
        <path
           style="fill:#423e3c;fill-opacity:1"
           d="M 8.859375,13.640625 8.75,13.25 8.84375,13.53125 8.9375,13.8125 8.875,13.625 Q 8.8125,13.4375 8.6875,13.3125 L 8.5625,13.1875 8.625,13.25 8.6875,13.3125 8.96875,13.03125 9.25,12.75 9.5,13 q 0.25,0.25 0.5,0.5 L 10.25,13.75 10.0625,13.5625 9.875,13.375 10,13.5 q 0.125,0.125 0.25,0.1875 L 10.375,13.75 10.3125,13.71875 10.25,13.6875 9.984375,13.984375 9.71875,14.28125 9.796875,14.328125 9.875,14.375 9.71875,14.28125 Q 9.5625,14.1875 9.375,14.125 L 9.1875,14.0625 9.46875,14.15625 9.75,14.25 9.375,14.125 9,14 9.28125,14.09375 9.5625,14.1875 9.375,14.125 Q 9.1875,14.0625 8.96875,14.03125 L 8.75,14 8.859375,14.015625 8.96875,14.03125 8.859375,13.640625 M 9.4375,12.9375 9.25,12.75 9.1875,12.6875 9.125,12.625 9.25,12.75 Q 9.375,12.875 9.5,13 l 0.125,0.125 -0.1875,-0.1875"
           id="path67701" />
        <path
           style="fill:#898989;fill-opacity:1"
           d="M 10,13.5 9.75,13.25 10,13 q 0.25,-0.25 0.5,-0.25 l 0.25,0 -0.1875,0 -0.1875,0 0.125,0 q 0.125,0 0.21875,-0.09375 l 0.09375,-0.09375 -0.04687,0.04687 -0.04687,0.04687 0.265625,0.296875 L 11.25,13.25 11,13.5 q -0.25,0.25 -0.5,0.25 -0.25,0 -0.5,-0.25 M 11.0625,13.4375 11.25,13.25 11.3125,13.1875 11.375,13.125 11.25,13.25 Q 11.125,13.375 11,13.5 l -0.125,0.125 0.1875,-0.1875 M 9.6875,13.1875 9.75,13.25 9.9375,13.4375 10.125,13.625 10,13.5 Q 9.875,13.375 9.75,13.25 l -0.125,-0.125 0.0625,0.0625"
           id="path67703" />
        <path
           style="fill:#1f1f1f;fill-opacity:0.85882353"
           d="m 11,13.5 q 0.25,-0.25 0.5,-0.5 l 0.25,-0.25 0.28125,0.28125 0.28125,0.28125 0.0625,-0.0625 0.0625,-0.0625 -0.125,0.125 q -0.125,0.125 -0.1875,0.3125 L 12.0625,13.8125 12.15625,13.53125 12.25,13.25 12.125,13.625 12,14 11.625,14.125 11.25,14.25 11.53125,14.15625 11.8125,14.0625 11.625,14.125 q -0.1875,0.0625 -0.28125,0.15625 L 11.25,14.375 11.296875,14.328125 11.34375,14.28125 11.046875,13.984375 10.75,13.6875 10.6875,13.71875 10.625,13.75 10.75,13.6875 Q 10.875,13.625 11,13.5 L 11.125,13.375 10.9375,13.5625 10.75,13.75 11,13.5 M 11.8125,12.6875 11.75,12.75 11.5625,12.9375 11.375,13.125 11.5,13 q 0.125,-0.125 0.25,-0.25 l 0.125,-0.125 -0.0625,0.0625"
           id="path67705" />
        <path
           style="fill:#000000;fill-opacity:0.01176471"
           d="m 13,13.5 0,-0.5 0.375,0.125 q 0.375,0.125 0.5,0.5 L 14,14 13.5,14 Q 13,14 13,13.5"
           id="path67707" />
        <path
           style="fill:#010404;fill-opacity:0.72941176"
           d="M 13.875,13.625 13.75,13.25 13.84375,13.53125 13.9375,13.8125 13.875,13.625 q -0.0625,-0.1875 -0.1875,-0.3125 l -0.125,-0.125 0.0625,0.0625 0.0625,0.0625 0.296875,-0.296875 0.296875,-0.296875 -0.07813,-0.04687 L 14.125,12.625 14.28125,12.71875 Q 14.4375,12.8125 14.625,12.875 L 14.8125,12.9375 14.53125,12.84375 14.25,12.75 14.625,12.875 15,13 l 0,0.5 0,0.5 -0.5,0 -0.5,0 -0.125,-0.375"
           id="path67709" />
        <path
           style="fill:#1f1f1f;fill-opacity:0.95294118"
           d="m 15,13.5 0,-0.5 0.5,0 0.5,0 0,0.5 0,0.5 -0.5,0 -0.5,0 0,-0.5"
           id="path67711" />
        <path
           style="fill:#111111;fill-opacity:0.65882353"
           d="M 16,13.5 16,13 16.375,12.875 16.75,12.75 16.46875,12.84375 16.1875,12.9375 16.375,12.875 q 0.1875,-0.0625 0.34375,-0.15625 L 16.875,12.625 16.796875,12.671875 16.71875,12.71875 17,13 l 0.28125,0.28125 0.04687,-0.07813 L 17.375,13.125 17.28125,13.28125 Q 17.1875,13.4375 17.125,13.625 L 17.0625,13.8125 17.15625,13.53125 17.25,13.25 17.125,13.625 17,14 16.5,14 16,14 16,13.5"
           id="path67713" />
        <path
           style="fill:#000000;fill-opacity:0.03921569"
           d="M 17.125,13.625 Q 17.25,13.25 17.5,13 l 0.25,-0.25 0.28125,0.28125 0.28125,0.28125 0.0625,-0.0625 0.0625,-0.0625 -0.125,0.125 q -0.125,0.125 -0.1875,0.3125 L 18.0625,13.8125 18.15625,13.53125 18.25,13.25 18.125,13.625 Q 18,14 17.5,14 L 17,14 17.125,13.625 M 17.8125,12.6875 17.75,12.75 17.5625,12.9375 17.375,13.125 17.5,13 q 0.125,-0.125 0.25,-0.25 l 0.125,-0.125 -0.0625,0.0625"
           id="path67715" />
        <path
           style="fill:#130700;fill-opacity:0.67843137"
           d="M 6.875,14.625 6.75,14.25 6.84375,14.53125 6.9375,14.8125 6.875,14.625 Q 6.8125,14.4375 6.71875,14.28125 L 6.625,14.125 6.671875,14.203125 6.71875,14.28125 7.015625,13.984375 7.3125,13.6875 7.25,13.625 7.1875,13.5625 l 0.125,0.125 q 0.125,0.125 0.3125,0.1875 L 7.8125,13.9375 7.53125,13.84375 7.25,13.75 7.625,13.875 8,14 8.125,14.375 8.25,14.75 8.15625,14.46875 8.0625,14.1875 8.125,14.375 q 0.0625,0.1875 0.1875,0.3125 l 0.125,0.125 L 8.375,14.75 8.3125,14.6875 8,15 7.6875,15.3125 7.75,15.375 7.8125,15.4375 7.6875,15.3125 Q 7.5625,15.1875 7.375,15.125 L 7.1875,15.0625 7.46875,15.15625 7.75,15.25 7.375,15.125 Q 7,15 6.875,14.625"
           id="path67717" />
        <path
           style="fill:#c57600;fill-opacity:1"
           d="M 8.125,14.375 8,14 8.5,14 9,14 8.96875,14.53125 8.9375,15.0625 9,15.125 9.0625,15.1875 8.9375,15.0625 Q 8.8125,14.9375 8.625,14.875 L 8.4375,14.8125 8.71875,14.90625 9,15 8.625,14.875 q -0.375,-0.125 -0.5,-0.5"
           id="path67719" />
        <path
           style="fill:#c47a00;fill-opacity:1"
           d="M 8.96875,14.53125 9,14 9.375,14.125 Q 9.75,14.25 10,14.5 L 10.25,14.75 9.96875,15.03125 9.6875,15.3125 9.75,15.375 9.8125,15.4375 9.6875,15.3125 Q 9.5625,15.1875 9.375,15.125 L 9.1875,15.0625 9.46875,15.15625 9.75,15.25 9.34375,15.15625 8.9375,15.0625 8.96875,14.53125 M 10.3125,14.8125 10.25,14.75 10.0625,14.5625 9.875,14.375 10,14.5 q 0.125,0.125 0.25,0.25 l 0.125,0.125 -0.0625,-0.0625"
           id="path67721" />
        <path
           style="fill:#312c2a;fill-opacity:1"
           d="M 10,14.5 9.75,14.25 9.9375,14.4375 10.125,14.625 10,14.5 Q 9.875,14.375 9.71875,14.28125 L 9.5625,14.1875 9.640625,14.234375 9.71875,14.28125 9.984375,13.984375 10.25,13.6875 10.1875,13.65625 10.125,13.625 10.25,13.6875 Q 10.375,13.75 10.5,13.75 l 0.125,0 -0.1875,0 -0.1875,0 0.25,0 0.25,0 -0.1875,0 -0.1875,0 0.125,0 q 0.125,0 0.25,-0.0625 l 0.125,-0.0625 -0.0625,0.03125 -0.0625,0.03125 0.296875,0.296875 0.296875,0.296875 0.04687,-0.04687 0.04687,-0.04687 -0.09375,0.09375 Q 11.25,14.375 11.25,14.5 l 0,0.125 0,-0.1875 0,-0.1875 0,0.25 0,0.25 0,-0.1875 0,-0.1875 0,0.125 q 0,0.125 0.09375,0.21875 l 0.09375,0.09375 -0.04687,-0.04687 -0.04687,-0.04687 -0.296875,0.265625 L 10.75,15.25 10.5,15 Q 10.25,14.75 10,14.5 M 10.5625,15.0625 10.75,15.25 10.8125,15.3125 10.875,15.375 10.75,15.25 Q 10.625,15.125 10.5,15 l -0.125,-0.125 0.1875,0.1875"
           id="path67723" />
        <path
           style="fill:#000000;fill-opacity:0.22352941"
           d="m 11.25,14.5 q 0,-0.25 0.375,-0.375 L 12,14 12,14.5 12,15 11.625,14.875 Q 11.25,14.75 11.25,14.5"
           id="path67725" />
        <path
           style="fill:#040000;fill-opacity:0.56862745"
           d="M 7.875,15.625 7.75,15.25 7.84375,15.53125 7.9375,15.8125 7.875,15.625 Q 7.8125,15.4375 7.6875,15.3125 L 7.5625,15.1875 7.625,15.25 7.6875,15.3125 8,15 8.3125,14.6875 8.25,14.625 8.1875,14.5625 l 0.125,0.125 q 0.125,0.125 0.3125,0.1875 L 8.8125,14.9375 8.53125,14.84375 8.25,14.75 8.625,14.875 Q 9,15 9.125,15.375 L 9.25,15.75 9.15625,15.46875 9.0625,15.1875 9.125,15.375 q 0.0625,0.1875 0.1875,0.3125 l 0.125,0.125 L 9.375,15.75 9.3125,15.6875 9,16 8.6875,16.3125 8.75,16.375 8.8125,16.4375 8.6875,16.3125 Q 8.5625,16.1875 8.375,16.125 L 8.1875,16.0625 8.46875,16.15625 8.75,16.25 8.375,16.125 Q 8,16 7.875,15.625"
           id="path67727" />
        <path
           style="fill:#a75e00;fill-opacity:1"
           d="M 9.125,15.375 9,15 9.09375,15.28125 9.1875,15.5625 9.125,15.375 Q 9.0625,15.1875 8.9375,15.0625 L 8.8125,14.9375 8.875,15 8.9375,15.0625 9.34375,15.15625 Q 9.75,15.25 9.875,15.625 L 10,16 9.625,15.875 q -0.375,-0.125 -0.5,-0.5"
           id="path67729" />
        <path
           style="fill:#c37500;fill-opacity:1"
           d="M 9.875,15.625 9.75,15.25 9.84375,15.53125 9.9375,15.8125 9.875,15.625 Q 9.8125,15.4375 9.6875,15.3125 L 9.5625,15.1875 9.625,15.25 9.6875,15.3125 9.96875,15.03125 10.25,14.75 10.5,15 q 0.25,0.25 0.5,0.5 l 0.25,0.25 -0.28125,0.28125 -0.28125,0.28125 0.0625,0.0625 0.0625,0.0625 -0.125,-0.125 Q 10.5625,16.1875 10.375,16.125 L 10.1875,16.0625 10.46875,16.15625 10.75,16.25 10.375,16.125 10,16 9.875,15.625 M 11.3125,15.8125 11.25,15.75 11.0625,15.5625 10.875,15.375 11,15.5 q 0.125,0.125 0.25,0.25 l 0.125,0.125 -0.0625,-0.0625 M 10.4375,14.9375 10.25,14.75 10.1875,14.6875 10.125,14.625 10.25,14.75 q 0.125,0.125 0.25,0.25 l 0.125,0.125 -0.1875,-0.1875"
           id="path67731" />
        <path
           style="fill:#0a0700;fill-opacity:0.58823529"
           d="M 11,15.5 10.75,15.25 11.046875,14.984375 11.34375,14.71875 11.296875,14.671875 11.25,14.625 11.34375,14.71875 Q 11.4375,14.8125 11.625,14.875 L 11.8125,14.9375 11.53125,14.84375 11.25,14.75 11.625,14.875 12,15 12.125,15.375 12.25,15.75 12.15625,15.46875 12.0625,15.1875 12.125,15.375 q 0.0625,0.1875 0.1875,0.3125 l 0.125,0.125 L 12.375,15.75 12.3125,15.6875 12.03125,15.96875 11.75,16.25 11.5,16 Q 11.25,15.75 11,15.5 M 11.5625,16.0625 11.75,16.25 11.8125,16.3125 11.875,16.375 11.75,16.25 Q 11.625,16.125 11.5,16 l -0.125,-0.125 0.1875,0.1875 M 10.6875,15.1875 10.75,15.25 10.9375,15.4375 11.125,15.625 11,15.5 q -0.125,-0.125 -0.25,-0.25 l -0.125,-0.125 0.0625,0.0625"
           id="path67733" />
        <path
           style="fill:#000000;fill-opacity:0.44705882"
           d="M 8.875,16.625 8.75,16.25 8.84375,16.53125 8.9375,16.8125 8.875,16.625 Q 8.8125,16.4375 8.6875,16.3125 L 8.5625,16.1875 8.625,16.25 8.6875,16.3125 9,16 9.3125,15.6875 9.25,15.625 9.1875,15.5625 l 0.125,0.125 q 0.125,0.125 0.3125,0.1875 L 9.8125,15.9375 9.53125,15.84375 9.25,15.75 9.625,15.875 10,16 10.125,16.375 10.25,16.75 10.15625,16.46875 10.0625,16.1875 10.125,16.375 q 0.0625,0.1875 0.1875,0.3125 l 0.125,0.125 L 10.375,16.75 10.3125,16.6875 10,17 9.6875,17.3125 9.75,17.375 9.8125,17.4375 9.6875,17.3125 Q 9.5625,17.1875 9.375,17.125 L 9.1875,17.0625 9.46875,17.15625 9.75,17.25 9.375,17.125 Q 9,17 8.875,16.625"
           id="path67735" />
        <path
           style="fill:#8a4a00;fill-opacity:0.98431373"
           d="M 10.125,16.375 10,16 l 0.375,0.125 q 0.375,0.125 0.5,0.5 L 11,17 10.625,16.875 q -0.375,-0.125 -0.5,-0.5"
           id="path67737" />
        <path
           style="fill:#c06f00;fill-opacity:1"
           d="M 10.875,16.625 10.75,16.25 10.84375,16.53125 10.9375,16.8125 10.875,16.625 q -0.0625,-0.1875 -0.1875,-0.3125 l -0.125,-0.125 0.0625,0.0625 0.0625,0.0625 0.28125,-0.28125 L 11.25,15.75 11.5,16 q 0.25,0.25 0.5,0.5 l 0.25,0.25 -0.28125,0.28125 -0.28125,0.28125 0.0625,0.0625 0.0625,0.0625 -0.125,-0.125 Q 11.5625,17.1875 11.375,17.125 L 11.1875,17.0625 11.46875,17.15625 11.75,17.25 11.375,17.125 11,17 10.875,16.625 M 12.3125,16.8125 12.25,16.75 12.0625,16.5625 11.875,16.375 12,16.5 q 0.125,0.125 0.25,0.25 l 0.125,0.125 -0.0625,-0.0625 M 11.4375,15.9375 11.25,15.75 11.1875,15.6875 11.125,15.625 11.25,15.75 q 0.125,0.125 0.25,0.25 l 0.125,0.125 -0.1875,-0.1875"
           id="path67739" />
        <path
           style="fill:#0e0500;fill-opacity:0.58039216"
           d="M 12,16.5 11.75,16.25 12.03125,15.96875 12.3125,15.6875 12.25,15.625 l -0.0625,-0.0625 0.125,0.125 q 0.125,0.125 0.3125,0.1875 L 12.8125,15.9375 12.53125,15.84375 12.25,15.75 12.625,15.875 Q 13,16 13.125,16.375 L 13.25,16.75 13.15625,16.46875 13.0625,16.1875 13.125,16.375 q 0.0625,0.1875 0.1875,0.3125 l 0.125,0.125 L 13.375,16.75 13.3125,16.6875 13.03125,16.96875 12.75,17.25 12.5,17 Q 12.25,16.75 12,16.5 M 12.5625,17.0625 12.75,17.25 12.8125,17.3125 12.875,17.375 12.75,17.25 Q 12.625,17.125 12.5,17 l -0.125,-0.125 0.1875,0.1875 M 11.6875,16.1875 11.75,16.25 11.9375,16.4375 12.125,16.625 12,16.5 q -0.125,-0.125 -0.25,-0.25 l -0.125,-0.125 0.0625,0.0625"
           id="path67741" />
        <path
           style="fill:#000000;fill-opacity:0.29019608"
           d="M 9.875,17.625 9.75,17.25 9.84375,17.53125 9.9375,17.8125 9.875,17.625 Q 9.8125,17.4375 9.6875,17.3125 L 9.5625,17.1875 9.625,17.25 9.6875,17.3125 10,17 10.3125,16.6875 10.25,16.625 l -0.0625,-0.0625 0.125,0.125 q 0.125,0.125 0.3125,0.1875 L 10.8125,16.9375 10.53125,16.84375 10.25,16.75 10.625,16.875 11,17 11.125,17.375 11.25,17.75 11.15625,17.46875 11.0625,17.1875 11.125,17.375 q 0.0625,0.1875 0.1875,0.3125 l 0.125,0.125 L 11.375,17.75 11.3125,17.6875 11,18 l -0.3125,0.3125 0.0625,0.0625 0.0625,0.0625 -0.125,-0.125 Q 10.5625,18.1875 10.375,18.125 L 10.1875,18.0625 10.46875,18.15625 10.75,18.25 10.375,18.125 Q 10,18 9.875,17.625"
           id="path67743" />
        <path
           style="fill:#753c00;fill-opacity:0.96862745"
           d="M 11.125,17.375 11,17 l 0.375,0.125 q 0.375,0.125 0.5,0.5 L 12,18 11.625,17.875 q -0.375,-0.125 -0.5,-0.5"
           id="path67745" />
        <path
           style="fill:#b36100;fill-opacity:1"
           d="M 11.875,17.625 11.75,17.25 11.84375,17.53125 11.9375,17.8125 11.875,17.625 q -0.0625,-0.1875 -0.1875,-0.3125 l -0.125,-0.125 0.0625,0.0625 0.0625,0.0625 0.28125,-0.28125 L 12.25,16.75 12.5,17 q 0.25,0.25 0.5,0.5 l 0.25,0.25 -0.28125,0.28125 -0.28125,0.28125 0.0625,0.0625 0.0625,0.0625 -0.125,-0.125 Q 12.5625,18.1875 12.375,18.125 L 12.1875,18.0625 12.46875,18.15625 12.75,18.25 12.375,18.125 12,18 11.875,17.625 M 13.3125,17.8125 13.25,17.75 13.0625,17.5625 12.875,17.375 13,17.5 q 0.125,0.125 0.25,0.25 l 0.125,0.125 -0.0625,-0.0625 M 12.4375,16.9375 12.25,16.75 12.1875,16.6875 12.125,16.625 12.25,16.75 q 0.125,0.125 0.25,0.25 l 0.125,0.125 -0.1875,-0.1875"
           id="path67747" />
        <path
           style="fill:#130a00;fill-opacity:0.58823529"
           d="M 13,17.5 12.75,17.25 13.03125,16.96875 13.3125,16.6875 13.25,16.625 l -0.0625,-0.0625 0.125,0.125 q 0.125,0.125 0.3125,0.1875 L 13.8125,16.9375 13.53125,16.84375 13.25,16.75 13.625,16.875 Q 14,17 14.125,17.375 L 14.25,17.75 14.15625,17.46875 14.0625,17.1875 14.125,17.375 q 0.0625,0.1875 0.1875,0.3125 l 0.125,0.125 -0.0625,-0.0625 -0.0625,-0.0625 -0.296875,0.296875 -0.296875,0.296875 0.04687,0.07813 0.04687,0.07813 -0.09375,-0.15625 Q 13.625,18.125 13.5,18 L 13.375,17.875 13.5625,18.0625 13.75,18.25 13.5,18 Q 13.25,17.75 13,17.5 M 12.6875,17.1875 12.75,17.25 12.9375,17.4375 13.125,17.625 13,17.5 q -0.125,-0.125 -0.25,-0.25 l -0.125,-0.125 0.0625,0.0625"
           id="path67749" />
        <path
           style="fill:#000000;fill-opacity:0.18431373"
           d="M 10.875,18.625 10.75,18.25 10.84375,18.53125 10.9375,18.8125 10.875,18.625 q -0.0625,-0.1875 -0.1875,-0.3125 l -0.125,-0.125 0.0625,0.0625 0.0625,0.0625 L 11,18 11.3125,17.6875 11.25,17.625 l -0.0625,-0.0625 0.125,0.125 q 0.125,0.125 0.3125,0.1875 L 11.8125,17.9375 11.53125,17.84375 11.25,17.75 11.625,17.875 12,18 12.125,18.375 12.25,18.75 12.15625,18.46875 12.0625,18.1875 12.125,18.375 q 0.0625,0.1875 0.1875,0.3125 l 0.125,0.125 L 12.375,18.75 12.3125,18.6875 12,19 l -0.3125,0.3125 0.0625,0.0625 0.0625,0.0625 -0.125,-0.125 Q 11.5625,19.1875 11.375,19.125 L 11.1875,19.0625 11.46875,19.15625 11.75,19.25 11.375,19.125 Q 11,19 10.875,18.625"
           id="path67751" />
        <path
           style="fill:#5d2d00;fill-opacity:0.92941176"
           d="M 12.125,18.375 12,18 l 0.375,0.125 q 0.375,0.125 0.5,0.5 L 13,19 12.625,18.875 q -0.375,-0.125 -0.5,-0.5"
           id="path67753" />
        <path
           style="fill:#a65500;fill-opacity:1"
           d="M 12.875,18.625 12.75,18.25 12.84375,18.53125 12.9375,18.8125 12.875,18.625 q -0.0625,-0.1875 -0.1875,-0.3125 l -0.125,-0.125 0.0625,0.0625 0.0625,0.0625 0.28125,-0.28125 L 13.25,17.75 13.5,18 q 0.25,0.25 0.375,0.625 L 14,19 13.5,19 13,19 12.875,18.625 M 13.4375,17.9375 13.25,17.75 13.1875,17.6875 13.125,17.625 13.25,17.75 q 0.125,0.125 0.25,0.25 l 0.125,0.125 -0.1875,-0.1875"
           id="path67755" />
        <path
           style="fill:#140c00;fill-opacity:0.59215686"
           d="M 13.875,18.625 13.75,18.25 13.84375,18.53125 13.9375,18.8125 13.875,18.625 Q 13.8125,18.4375 13.71875,18.28125 L 13.625,18.125 l 0.04687,0.07813 0.04687,0.07813 0.296875,-0.296875 L 14.3125,17.6875 14.25,17.625 l -0.0625,-0.0625 0.125,0.125 q 0.125,0.125 0.3125,0.1875 L 14.8125,17.9375 14.53125,17.84375 14.25,17.75 14.625,17.875 Q 15,18 15.125,18.375 L 15.25,18.75 15.15625,18.46875 15.0625,18.1875 15.125,18.375 q 0.0625,0.1875 0.15625,0.34375 L 15.375,18.875 15.328125,18.796875 15.28125,18.71875 14.984375,19.015625 14.6875,19.3125 14.75,19.375 l 0.0625,0.0625 -0.125,-0.125 Q 14.5625,19.1875 14.375,19.125 L 14.1875,19.0625 14.46875,19.15625 14.75,19.25 14.375,19.125 14,19 13.875,18.625"
           id="path67757" />
        <path
           style="fill:#000000;fill-opacity:0.07843137"
           d="M 11.875,19.625 11.75,19.25 11.84375,19.53125 11.9375,19.8125 11.875,19.625 q -0.0625,-0.1875 -0.1875,-0.3125 l -0.125,-0.125 0.0625,0.0625 0.0625,0.0625 L 12,19 12.3125,18.6875 12.25,18.625 l -0.0625,-0.0625 0.125,0.125 q 0.125,0.125 0.3125,0.1875 L 12.8125,18.9375 12.53125,18.84375 12.25,18.75 12.625,18.875 13,19 13.125,19.375 13.25,19.75 13.15625,19.46875 13.0625,19.1875 13.125,19.375 q 0.0625,0.1875 0.1875,0.3125 l 0.125,0.125 L 13.375,19.75 13.3125,19.6875 13.03125,19.96875 Q 12.75,20.25 12.375,20.125 12,20 11.875,19.625"
           id="path67759" />
        <path
           style="fill:#421f00;fill-opacity:0.86666667"
           d="M 13.125,19.375 13,19 l 0.5,0 0.5,0 0,0.5 0,0.5 -0.375,-0.125 q -0.375,-0.125 -0.5,-0.5"
           id="path67761" />
        <path
           style="fill:#954700;fill-opacity:1"
           d="m 14,19.5 0,-0.5 0.375,0.125 q 0.375,0.125 0.5,0.5 L 15,20 14.90625,19.71875 14.8125,19.4375 14.875,19.625 q 0.0625,0.1875 0.09375,0.40625 L 15,20.25 14.984375,20.140625 14.96875,20.03125 14.484375,20.015625 14,20 14,19.5"
           id="path67763" />
        <path
           style="fill:#190c00;fill-opacity:0.59607843"
           d="M 14.875,19.625 14.75,19.25 14.84375,19.53125 14.9375,19.8125 14.875,19.625 q -0.0625,-0.1875 -0.1875,-0.3125 l -0.125,-0.125 0.0625,0.0625 0.0625,0.0625 0.296875,-0.296875 0.296875,-0.296875 -0.04687,-0.07813 -0.04687,-0.07813 0.09375,0.15625 Q 15.375,18.875 15.5,19 L 15.625,19.125 15.4375,18.9375 15.25,18.75 15.5,19 q 0.25,0.25 0.375,0.625 L 16,20 15.5,20 15,20 14.875,19.625"
           id="path67765" />
        <path
           style="fill:#2a1000;fill-opacity:0.76862745"
           d="M 14.125,20.375 14,20 l 0.5,0 0.5,0 0,0.5 0,0.5 -0.375,-0.125 q -0.375,-0.125 -0.5,-0.5"
           id="path67767" />
        <path
           style="fill:#261000;fill-opacity:0.70588235"
           d="m 15,20.5 0,-0.5 0.5,0 0.5,0 -0.125,0.375 q -0.125,0.375 -0.5,0.5 L 15,21 15,20.5"
           id="path67769" />
      </g>
    </g>
  </g>
</svg>
