<?xml version="1.0" encoding="UTF-8" standalone="no"?>
<!-- Created with Inkscape (http://www.inkscape.org/) -->

<svg
   xmlns:dc="http://purl.org/dc/elements/1.1/"
   xmlns:cc="http://creativecommons.org/ns#"
   xmlns:rdf="http://www.w3.org/1999/02/22-rdf-syntax-ns#"
   xmlns:svg="http://www.w3.org/2000/svg"
   xmlns="http://www.w3.org/2000/svg"
   xmlns:sodipodi="http://sodipodi.sourceforge.net/DTD/sodipodi-0.dtd"
   xmlns:inkscape="http://www.inkscape.org/namespaces/inkscape"
   width="20"
   height="20"
   viewBox="0 0 20 20"
   id="svg3347"
   version="1.1"
   inkscape:version="0.91 r13725"
   sodipodi:docname="Civ5Icon.Locked.svg">
  <defs
     id="defs3349" />
  <sodipodi:namedview
     id="base"
     pagecolor="#ffffff"
     bordercolor="#666666"
     borderopacity="1.0"
     inkscape:pageopacity="0.0"
     inkscape:pageshadow="2"
     inkscape:zoom="11.2"
     inkscape:cx="13.251856"
     inkscape:cy="8.3638322"
     inkscape:document-units="px"
     inkscape:current-layer="layer1"
     showgrid="false"
     units="px"
     inkscape:window-width="1477"
     inkscape:window-height="962"
     inkscape:window-x="533"
     inkscape:window-y="95"
     inkscape:window-maximized="0" />
  <metadata
     id="metadata3352">
    <rdf:RDF>
      <cc:Work
         rdf:about="">
        <dc:format>image/svg+xml</dc:format>
        <dc:type
           rdf:resource="http://purl.org/dc/dcmitype/StillImage" />
        <dc:title></dc:title>
      </cc:Work>
    </rdf:RDF>
  </metadata>
  <g
     inkscape:label="Layer 1"
     inkscape:groupmode="layer"
     id="layer1"
     transform="translate(0,-1032.3622)">
    <g
       transform="translate(-0.66964187,1030.9782)"
       id="g22394">
      <path
         style="fill:#000000;fill-opacity:0"
         d="M 0,0.5 0,0 0.5,0 1,0 1.5,0 2,0 2.5,0 3,0 3.5,0 4,0 4.5,0 5,0 5.5,0 6,0 6.5,0 7,0 7.5,0 8,0 8.5,0 9,0 9.5,0 10,0 l 0.5,0 0.5,0 0.5,0 0.5,0 0.5,0 0.5,0 0.5,0 0.5,0 0.5,0 0.5,0 0.5,0 0.5,0 0.5,0 0.5,0 0.5,0 0.5,0 0.5,0 0.5,0 0.5,0 0.5,0 0.5,0 0.5,0 0.5,0 0.5,0 0,0.5 0,0.5 0,0.5 0,0.5 0,0.5 0,0.5 0,0.5 0,0.5 0,0.5 0,0.5 0,0.5 0,0.5 0,0.5 0,0.5 0,0.5 0,0.5 0,0.5 0,0.5 0,0.5 0,0.5 0,0.5 0,0.5 0,0.5 0,0.5 0,0.5 0,0.5 0,0.5 0,0.5 0,0.5 0,0.5 0,0.5 0,0.5 0,0.5 0,0.5 0,0.5 0,0.5 0,0.5 0,0.5 0,0.5 0,0.5 0,0.5 0,0.5 0,0.5 0,0.5 -0.5,0 -0.5,0 -0.5,0 -0.5,0 -0.5,0 -0.5,0 0,-0.5 0,-0.5 0,-0.5 0,-0.5 0,-0.5 0,-0.5 0,-0.5 q 0,-0.5 0,-1 0,-0.5 0,-1 0,-0.5 0,-1 0,-0.5 0,-1 0,-0.5 0,-1 0,-0.5 0,-1 L 19,12 19,11.5 19,11 19,10.5 Q 19,10 18.5,10 L 18,10 18,9.5 Q 18,9 18,8.5 L 18,8 18,7.5 18,7 18,6.5 18,6 18,5.5 18,5 18,4.5 18,4 18,3.5 Q 18,3 17.5,3 L 17,3 17,2.5 Q 17,2 16.5,2 L 16,2 16,1.5 Q 16,1 15.5,1 L 15,1 14.5,1 14,1 13.5,1 13,1 12.5,1 12,1 11.5,1 11,1 10.5,1 10,1 9.5,1 9,1 8.5,1 8,1 7.5,1 7,1 6.5,1 Q 6,1 6,1.5 L 6,2 5.5,2 Q 5,2 5,2.5 L 5,3 4.5,3 Q 4,3 4,3.5 L 4,4 4,4.5 4,5 4,5.5 4,6 4,6.5 4,7 4,7.5 4,8 4,8.5 Q 4,9 4,9.5 L 4,10 3.5,10 Q 3,10 3,10.5 l 0,0.5 0,0.5 0,0.5 0,0.5 0,0.5 0,0.5 0,0.5 0,0.5 q 0,0.5 0,1 0,0.5 0,1 0,0.5 0,1 0,0.5 0,1 L 3,19 3,19.5 3,20 3,20.5 3,21 3,21.5 3,22 2.5,22 2,22 1.5,22 1,22 0.5,22 0,22 0,21.5 0,21 0,20.5 0,20 0,19.5 0,19 0,18.5 0,18 0,17.5 0,17 0,16.5 0,16 0,15.5 0,15 0,14.5 0,14 0,13.5 0,13 0,12.5 0,12 0,11.5 0,11 0,10.5 0,10 0,9.5 0,9 0,8.5 0,8 0,7.5 0,7 0,6.5 0,6 0,5.5 0,5 0,4.5 0,4 0,3.5 0,3 0,2.5 0,2 0,1.5 0,1 0,0.5"
         id="path22396"
         inkscape:connector-curvature="0" />
      <path
         style="fill:#000000;fill-opacity:0.01568627"
         d="M 6,1.5 Q 6,1 6.5,1 L 7,1 7,1.5 7,2 6.5,2 6,2 6,1.5"
         id="path22398"
         inkscape:connector-curvature="0" />
      <path
         style="fill:#000000;fill-opacity:0.08235294"
         d="M 7,1.5 7,1 7.5,1 8,1 7.875,1.375 Q 7.75,1.75 7.375,1.875 L 7,2 7,1.5"
         id="path22400"
         inkscape:connector-curvature="0" />
      <path
         style="fill:#000000;fill-opacity:0.20784314"
         d="M 7.875,1.375 8,1 8.5,1 9,1 9,1.5 9,2 8.625,2.125 8.25,2.25 8.53125,2.15625 8.8125,2.0625 8.625,2.125 Q 8.4375,2.1875 8.3125,2.3125 L 8.1875,2.4375 8.25,2.375 8.3125,2.3125 8,2 7.6875,1.6875 7.625,1.75 7.5625,1.8125 7.6875,1.6875 Q 7.8125,1.5625 7.875,1.375 L 7.9375,1.1875 7.84375,1.46875 7.75,1.75 7.875,1.375"
         id="path22402"
         inkscape:connector-curvature="0" />
      <path
         style="fill:#000000;fill-opacity:0.34509804"
         d="M 9,1.5 9,1 9.5,1 10,1 10,1.5 10,2 9.5,2 9,2 9,1.5"
         id="path22404"
         inkscape:connector-curvature="0" />
      <path
         style="fill:#000000;fill-opacity:0.42745098"
         d="M 10,1.5 10,1 10.5,1 11,1 11,1.5 11,2 10.5,2 10,2 10,1.5"
         id="path22406"
         inkscape:connector-curvature="0" />
      <path
         style="fill:#000000;fill-opacity:0.43137255"
         d="M 11,1.5 11,1 11.5,1 12,1 12,1.5 12,2 11.5,2 11,2 11,1.5"
         id="path22408"
         inkscape:connector-curvature="0" />
      <path
         style="fill:#000000;fill-opacity:0.34509804"
         d="M 12,1.5 12,1 12.5,1 13,1 13,1.5 13,2 12.5,2 12,2 12,1.5"
         id="path22410"
         inkscape:connector-curvature="0" />
      <path
         style="fill:#000000;fill-opacity:0.20392157"
         d="M 13,1.5 13,1 13.5,1 14,1 14.125,1.375 14.25,1.75 14.15625,1.46875 14.0625,1.1875 14.125,1.375 q 0.0625,0.1875 0.1875,0.3125 l 0.125,0.125 L 14.375,1.75 14.3125,1.6875 14,2 13.6875,2.3125 13.75,2.375 13.8125,2.4375 13.6875,2.3125 Q 13.5625,2.1875 13.375,2.125 L 13.1875,2.0625 13.46875,2.15625 13.75,2.25 13.375,2.125 13,2 13,1.5"
         id="path22412"
         inkscape:connector-curvature="0" />
      <path
         style="fill:#000000;fill-opacity:0.08235294"
         d="M 14.125,1.375 14,1 14.5,1 15,1 15,1.5 15,2 14.625,1.875 q -0.375,-0.125 -0.5,-0.5"
         id="path22414"
         inkscape:connector-curvature="0" />
      <path
         style="fill:#000000;fill-opacity:0.01568627"
         d="M 15,1.5 15,1 15.5,1 Q 16,1 16,1.5 L 16,2 15.5,2 15,2 15,1.5"
         id="path22416"
         inkscape:connector-curvature="0" />
      <path
         style="fill:#000000;fill-opacity:0.02745098"
         d="M 5,2.5 Q 5,2 5.5,2 L 6,2 5.875,2.375 Q 5.75,2.75 5.375,2.875 L 5,3 5,2.5"
         id="path22418"
         inkscape:connector-curvature="0" />
      <path
         style="fill:#000000;fill-opacity:0.16862745"
         d="M 5.875,2.375 6,2 6.5,2 7,2 6.875,2.375 Q 6.75,2.75 6.5,3 6.25,3.25 6,3.5 5.75,3.75 5.375,3.875 L 5,4 5,3.5 5,3 5.375,2.875 q 0.375,-0.125 0.5,-0.5"
         id="path22420"
         inkscape:connector-curvature="0" />
      <path
         style="fill:#2f2f24;fill-opacity:0.54901961"
         d="M 6.875,2.375 7,2 7.375,1.875 7.75,1.75 7.46875,1.84375 7.1875,1.9375 7.375,1.875 Q 7.5625,1.8125 7.6875,1.6875 L 7.8125,1.5625 7.75,1.625 7.6875,1.6875 8,2 8.3125,2.3125 8.375,2.25 8.4375,2.1875 8.3125,2.3125 Q 8.1875,2.4375 8.125,2.625 L 8.0625,2.8125 8.15625,2.53125 8.25,2.25 8.125,2.625 8,3 7.625,3.125 7.25,3.25 7.53125,3.15625 7.8125,3.0625 7.625,3.125 Q 7.4375,3.1875 7.28125,3.28125 L 7.125,3.375 7.203125,3.328125 7.28125,3.28125 7,3 6.71875,2.71875 6.671875,2.796875 6.625,2.875 6.71875,2.71875 Q 6.8125,2.5625 6.875,2.375 L 6.9375,2.1875 6.84375,2.46875 6.75,2.75 6.875,2.375"
         id="path22422"
         inkscape:connector-curvature="0" />
      <path
         style="fill:#666653;fill-opacity:0.94509804"
         d="M 8.125,2.625 Q 8.25,2.25 8.625,2.125 L 9,2 8.71875,2.09375 8.4375,2.1875 8.625,2.125 Q 8.8125,2.0625 9.03125,2.03125 L 9.25,2 9.140625,2.015625 9.03125,2.03125 9,2.5 8.96875,2.96875 9.078125,2.953125 9.1875,2.9375 8.96875,2.96875 Q 8.75,3 8.5,3 L 8.25,3 8.625,3 9,3 8.5,3 8,3 8.125,2.625"
         id="path22424"
         inkscape:connector-curvature="0" />
      <path
         style="fill:#a1a180;fill-opacity:1"
         d="M 9,2.5 9.03125,2.03125 8.921875,2.046875 8.8125,2.0625 9.03125,2.03125 Q 9.25,2 9.5,2 L 9.75,2 9.375,2 9,2 9.5,2 10,2 9.875,2.375 Q 9.75,2.75 9.375,2.875 L 9,3 9.28125,2.90625 9.5625,2.8125 9.375,2.875 Q 9.1875,2.9375 8.96875,2.96875 L 8.75,3 8.859375,2.984375 8.96875,2.96875 9,2.5"
         id="path22426"
         inkscape:connector-curvature="0" />
      <path
         style="fill:#cecea4;fill-opacity:1"
         d="M 9.875,2.375 10,2 10.5,2 11,2 11.5,2 12,2 12.125,2.375 12.25,2.75 12.15625,2.46875 12.0625,2.1875 12.125,2.375 q 0.0625,0.1875 0.1875,0.3125 l 0.125,0.125 L 12.375,2.75 12.3125,2.6875 12.03125,2.96875 Q 11.75,3.25 11.375,3.125 11,3 10.625,3.125 10.25,3.25 9.96875,2.96875 L 9.6875,2.6875 9.625,2.75 9.5625,2.8125 9.6875,2.6875 Q 9.8125,2.5625 9.875,2.375 L 9.9375,2.1875 9.84375,2.46875 9.75,2.75 9.875,2.375"
         id="path22428"
         inkscape:connector-curvature="0" />
      <path
         style="fill:#a1a180;fill-opacity:1"
         d="M 12.125,2.375 12,2 12.5,2 13,2 12.625,2 12.25,2 12.5,2 q 0.25,0 0.46875,0.03125 L 13.1875,2.0625 13.078125,2.046875 12.96875,2.03125 13,2.5 13.03125,2.96875 13.140625,2.984375 13.25,3 13.03125,2.96875 Q 12.8125,2.9375 12.625,2.875 L 12.4375,2.8125 12.71875,2.90625 13,3 12.625,2.875 q -0.375,-0.125 -0.5,-0.5"
         id="path22430"
         inkscape:connector-curvature="0" />
      <path
         style="fill:#676754;fill-opacity:0.9372549"
         d="M 13,2.5 12.96875,2.03125 12.859375,2.015625 12.75,2 12.96875,2.03125 Q 13.1875,2.0625 13.375,2.125 L 13.5625,2.1875 13.28125,2.09375 13,2 13.375,2.125 q 0.375,0.125 0.5,0.5 L 14,3 13.5,3 13,3 13.375,3 13.75,3 13.5,3 Q 13.25,3 13.03125,2.96875 L 12.8125,2.9375 12.921875,2.953125 13.03125,2.96875 13,2.5"
         id="path22432"
         inkscape:connector-curvature="0" />
      <path
         style="fill:#2f2f24;fill-opacity:0.54901961"
         d="M 13.875,2.625 13.75,2.25 13.84375,2.53125 13.9375,2.8125 13.875,2.625 Q 13.8125,2.4375 13.6875,2.3125 L 13.5625,2.1875 13.625,2.25 13.6875,2.3125 14,2 14.3125,1.6875 14.25,1.625 14.1875,1.5625 l 0.125,0.125 q 0.125,0.125 0.3125,0.1875 L 14.8125,1.9375 14.53125,1.84375 14.25,1.75 14.625,1.875 15,2 15.125,2.375 15.25,2.75 15.15625,2.46875 15.0625,2.1875 15.125,2.375 q 0.0625,0.1875 0.15625,0.34375 L 15.375,2.875 15.328125,2.796875 15.28125,2.71875 15,3 14.71875,3.28125 14.796875,3.328125 14.875,3.375 14.71875,3.28125 Q 14.5625,3.1875 14.375,3.125 L 14.1875,3.0625 14.46875,3.15625 14.75,3.25 14.375,3.125 14,3 13.875,2.625"
         id="path22434"
         inkscape:connector-curvature="0" />
      <path
         style="fill:#000000;fill-opacity:0.16470588"
         d="M 15.125,2.375 15,2 15.5,2 16,2 16.125,2.375 16.25,2.75 16.15625,2.46875 16.0625,2.1875 16.125,2.375 q 0.0625,0.1875 0.1875,0.3125 l 0.125,0.125 L 16.375,2.75 16.3125,2.6875 16.03125,2.96875 15.75,3.25 15.5,3 Q 15.25,2.75 15.125,2.375 M 15.5625,3.0625 15.75,3.25 15.8125,3.3125 15.875,3.375 15.75,3.25 Q 15.625,3.125 15.5,3 l -0.125,-0.125 0.1875,0.1875"
         id="path22436"
         inkscape:connector-curvature="0" />
      <path
         style="fill:#000000;fill-opacity:0.02352941"
         d="M 16.125,2.375 16,2 16.5,2 Q 17,2 17,2.5 L 17,3 16.625,2.875 q -0.375,-0.125 -0.5,-0.5"
         id="path22438"
         inkscape:connector-curvature="0" />
      <path
         style="fill:#000000;fill-opacity:0.01568627"
         d="M 4,3.5 Q 4,3 4.5,3 L 5,3 5,3.5 5,4 4.5,4 4,4 4,3.5"
         id="path22440"
         inkscape:connector-curvature="0" />
      <path
         style="fill:#484839;fill-opacity:0.69019608"
         d="M 6,3.5 Q 6.25,3.25 6.5,3 L 6.75,2.75 6.5625,2.9375 6.375,3.125 6.5,3 Q 6.625,2.875 6.71875,2.71875 L 6.8125,2.5625 6.765625,2.640625 6.71875,2.71875 7,3 7.28125,3.28125 7.359375,3.234375 7.4375,3.1875 7.28125,3.28125 Q 7.125,3.375 7,3.5 L 6.875,3.625 7.0625,3.4375 7.25,3.25 7,3.5 Q 6.75,3.75 6.5,4 L 6.25,4.25 6.4375,4.0625 6.625,3.875 6.5,4 Q 6.375,4.125 6.28125,4.28125 L 6.1875,4.4375 6.234375,4.359375 6.28125,4.28125 6,4 5.71875,3.71875 5.640625,3.765625 5.5625,3.8125 5.71875,3.71875 Q 5.875,3.625 6,3.5 L 6.125,3.375 5.9375,3.5625 5.75,3.75 6,3.5"
         id="path22442"
         inkscape:connector-curvature="0" />
      <path
         style="fill:#9b9b7c;fill-opacity:1"
         d="M 7,3.5 Q 7.25,3.25 7.625,3.125 L 8,3 8.125,3.375 8.25,3.75 8.15625,3.46875 8.0625,3.1875 8.125,3.375 Q 8.1875,3.5625 8.3125,3.6875 L 8.4375,3.8125 8.375,3.75 8.3125,3.6875 8,4 7.6875,4.3125 7.71875,4.34375 7.75,4.375 7.6875,4.3125 Q 7.625,4.25 7.5,4.25 l -0.125,0 0.1875,0 0.1875,0 -0.25,0 q -0.25,0 -0.25,0.25 l 0,0.25 0,-0.1875 0,-0.1875 0,0.125 q 0,0.125 0.0625,0.1875 L 7.375,4.75 7.34375,4.71875 7.3125,4.6875 7,5 6.6875,5.3125 6.75,5.375 6.8125,5.4375 6.6875,5.3125 Q 6.5625,5.1875 6.375,5.125 L 6.1875,5.0625 6.46875,5.15625 6.75,5.25 6.375,5.125 6,5 6.125,4.625 Q 6.25,4.25 6.5,4 6.75,3.75 7,3.5"
         id="path22444"
         inkscape:connector-curvature="0" />
      <path
         style="fill:#e0e0b3;fill-opacity:1"
         d="M 8.125,3.375 8,3 8.5,3 Q 9,3 9.375,2.875 L 9.75,2.75 9.46875,2.84375 9.1875,2.9375 9.375,2.875 Q 9.5625,2.8125 9.6875,2.6875 L 9.8125,2.5625 9.75,2.625 9.6875,2.6875 9.96875,2.96875 Q 10.25,3.25 10.625,3.125 11,3 11.375,3.125 11.75,3.25 12.03125,2.96875 L 12.3125,2.6875 12.25,2.625 12.1875,2.5625 l 0.125,0.125 q 0.125,0.125 0.3125,0.1875 L 12.8125,2.9375 12.53125,2.84375 12.25,2.75 12.625,2.875 Q 13,3 13.5,3 L 14,3 13.875,3.375 Q 13.75,3.75 13.375,3.875 13,4 12.5,4 12,4 11.5,4 11,4 10.5,4 10,4 9.5,4 9,4 8.625,3.875 8.25,3.75 8.125,3.375"
         id="path22446"
         inkscape:connector-curvature="0" />
      <path
         style="fill:#9b9b7c;fill-opacity:1"
         d="M 13.875,3.375 14,3 14.375,3.125 Q 14.75,3.25 15,3.5 15.25,3.75 15.5,4 15.75,4.25 15.875,4.625 L 16,5 15.625,5.125 15.25,5.25 15.53125,5.15625 15.8125,5.0625 15.625,5.125 Q 15.4375,5.1875 15.3125,5.3125 L 15.1875,5.4375 15.25,5.375 15.3125,5.3125 15,5 14.6875,4.6875 14.65625,4.71875 14.625,4.75 14.6875,4.6875 Q 14.75,4.625 14.75,4.5 l 0,-0.125 0,0.1875 0,0.1875 0,-0.25 q 0,-0.25 -0.25,-0.25 l -0.25,0 0.1875,0 0.1875,0 -0.125,0 q -0.125,0 -0.1875,0.0625 L 14.25,4.375 14.28125,4.34375 14.3125,4.3125 14,4 13.6875,3.6875 13.625,3.75 13.5625,3.8125 13.6875,3.6875 Q 13.8125,3.5625 13.875,3.375 L 13.9375,3.1875 13.84375,3.46875 13.75,3.75 13.875,3.375"
         id="path22448"
         inkscape:connector-curvature="0" />
      <path
         style="fill:#48483a;fill-opacity:0.69411765"
         d="M 15,3.5 14.75,3.25 14.9375,3.4375 15.125,3.625 15,3.5 Q 14.875,3.375 14.71875,3.28125 L 14.5625,3.1875 14.640625,3.234375 14.71875,3.28125 15,3 15.28125,2.71875 15.234375,2.640625 15.1875,2.5625 15.28125,2.71875 Q 15.375,2.875 15.5,3 L 15.625,3.125 15.4375,2.9375 15.25,2.75 15.5,3 Q 15.75,3.25 16,3.5 L 16.25,3.75 16.0625,3.5625 15.875,3.375 16,3.5 q 0.125,0.125 0.28125,0.21875 L 16.4375,3.8125 16.359375,3.765625 16.28125,3.71875 16,4 15.71875,4.28125 15.765625,4.359375 15.8125,4.4375 15.71875,4.28125 Q 15.625,4.125 15.5,4 L 15.375,3.875 15.5625,4.0625 15.75,4.25 15.5,4 Q 15.25,3.75 15,3.5"
         id="path22450"
         inkscape:connector-curvature="0" />
      <path
         style="fill:#000000;fill-opacity:0.16862745"
         d="M 16,3.5 15.75,3.25 16.03125,2.96875 16.3125,2.6875 16.25,2.625 16.1875,2.5625 l 0.125,0.125 q 0.125,0.125 0.3125,0.1875 L 16.8125,2.9375 16.53125,2.84375 16.25,2.75 16.625,2.875 17,3 17,3.5 17,4 16.625,3.875 Q 16.25,3.75 16,3.5 M 15.6875,3.1875 15.75,3.25 15.9375,3.4375 16.125,3.625 16,3.5 Q 15.875,3.375 15.75,3.25 l -0.125,-0.125 0.0625,0.0625"
         id="path22452"
         inkscape:connector-curvature="0" />
      <path
         style="fill:#000000;fill-opacity:0.01176471"
         d="M 17,3.5 17,3 17.5,3 Q 18,3 18,3.5 L 18,4 17.5,4 17,4 17,3.5"
         id="path22454"
         inkscape:connector-curvature="0" />
      <path
         style="fill:#000000;fill-opacity:0.08235294"
         d="M 4,4.5 4,4 4.5,4 5,4 4.875,4.375 Q 4.75,4.75 4.375,4.875 L 4,5 4,4.5"
         id="path22456"
         inkscape:connector-curvature="0" />
      <path
         style="fill:#2f2f24;fill-opacity:0.54901961"
         d="M 4.875,4.375 5,4 5.375,3.875 5.75,3.75 5.46875,3.84375 5.1875,3.9375 5.375,3.875 Q 5.5625,3.8125 5.71875,3.71875 L 5.875,3.625 5.796875,3.671875 5.71875,3.71875 6,4 6.28125,4.28125 6.328125,4.203125 6.375,4.125 6.28125,4.28125 Q 6.1875,4.4375 6.125,4.625 L 6.0625,4.8125 6.15625,4.53125 6.25,4.25 6.125,4.625 6,5 5.625,5.125 5.25,5.25 5.53125,5.15625 5.8125,5.0625 5.625,5.125 Q 5.4375,5.1875 5.3125,5.3125 L 5.1875,5.4375 5.25,5.375 5.3125,5.3125 5,5 4.6875,4.6875 4.625,4.75 4.5625,4.8125 4.6875,4.6875 Q 4.8125,4.5625 4.875,4.375 L 4.9375,4.1875 4.84375,4.46875 4.75,4.75 4.875,4.375"
         id="path22458"
         inkscape:connector-curvature="0" />
      <path
         style="fill:#e0e0b3;fill-opacity:1"
         d="m 7.25,4.5 q 0,-0.25 0.25,-0.25 0.25,0 0.25,0.25 0,0.25 -0.25,0.25 -0.25,0 -0.25,-0.25"
         id="path22460"
         inkscape:connector-curvature="0" />
      <path
         style="fill:#a8a886;fill-opacity:1"
         d="m 7.75,4.5 0,-0.25 0,0.1875 0,0.1875 0,-0.125 Q 7.75,4.375 7.6875,4.3125 L 7.625,4.25 7.65625,4.28125 7.6875,4.3125 8,4 8.3125,3.6875 8.25,3.625 8.1875,3.5625 8.3125,3.6875 Q 8.4375,3.8125 8.625,3.875 L 8.8125,3.9375 8.53125,3.84375 8.25,3.75 8.625,3.875 9,4 8.71875,3.90625 8.4375,3.8125 8.625,3.875 Q 8.8125,3.9375 9.03125,3.96875 L 9.25,4 9.140625,3.984375 9.03125,3.96875 9.015625,4.484375 9,5 8.625,5.125 Q 8.25,5.25 8,5.5 7.75,5.75 7.359375,5.890625 L 6.96875,6.03125 6.984375,6.140625 7,6.25 6.96875,6.03125 Q 6.9375,5.8125 6.875,5.625 L 6.8125,5.4375 6.90625,5.71875 7,6 6.875,5.625 6.75,5.25 6.84375,5.53125 6.9375,5.8125 6.875,5.625 Q 6.8125,5.4375 6.6875,5.3125 L 6.5625,5.1875 6.625,5.25 6.6875,5.3125 7,5 7.3125,4.6875 7.28125,4.65625 7.25,4.625 7.3125,4.6875 Q 7.375,4.75 7.5,4.75 l 0.125,0 -0.1875,0 -0.1875,0 0.25,0 q 0.25,0 0.25,-0.25 M 8.71875,5.09375 9,5 9.09375,4.96875 9.1875,4.9375 9,5 Q 8.8125,5.0625 8.625,5.125 L 8.4375,5.1875 8.71875,5.09375"
         id="path22462"
         inkscape:connector-curvature="0" />
      <path
         style="fill:#5d5d4a;fill-opacity:0.96078431"
         d="M 9.015625,4.484375 9.03125,3.96875 8.921875,3.953125 8.8125,3.9375 9.03125,3.96875 Q 9.25,4 9.5,4 L 9.75,4 9.375,4 9,4 9.5,4 10,4 9.875,4.375 Q 9.75,4.75 9.375,4.875 L 9,5 9.015625,4.484375 M 8.90625,5.03125 9,5 9.28125,4.90625 9.5625,4.8125 9.375,4.875 Q 9.1875,4.9375 9,5 L 8.8125,5.0625 8.90625,5.03125 M 10.125,4 10,4 9.625,4 9.25,4 9.5,4 Q 9.75,4 10,4 l 0.25,0 -0.125,0"
         id="path22464"
         inkscape:connector-curvature="0" />
      <path
         style="fill:#26261e;fill-opacity:0.72941176"
         d="M 9.875,4.375 10,4 10.5,4 q 0.5,0 1,0 L 12,4 12.125,4.375 12.25,4.75 12.15625,4.46875 12.0625,4.1875 12.125,4.375 q 0.0625,0.1875 0.1875,0.3125 l 0.125,0.125 L 12.375,4.75 12.3125,4.6875 12,5 11.6875,5.3125 11.75,5.375 11.8125,5.4375 11.6875,5.3125 Q 11.5625,5.1875 11.375,5.125 L 11.1875,5.0625 11.46875,5.15625 11.75,5.25 11.375,5.125 Q 11,5 10.625,5.125 L 10.25,5.25 10.53125,5.15625 10.8125,5.0625 10.625,5.125 Q 10.4375,5.1875 10.3125,5.3125 L 10.1875,5.4375 10.25,5.375 10.3125,5.3125 10,5 9.6875,4.6875 9.625,4.75 9.5625,4.8125 9.6875,4.6875 Q 9.8125,4.5625 9.875,4.375 L 9.9375,4.1875 9.84375,4.46875 9.75,4.75 9.875,4.375 M 12.125,4 12,4 11.625,4 11.25,4 11.5,4 q 0.25,0 0.5,0 l 0.25,0 -0.125,0 M 10.375,4 10,4 9.875,4 9.75,4 10,4 q 0.25,0 0.5,0 l 0.25,0 -0.375,0"
         id="path22466"
         inkscape:connector-curvature="0" />
      <path
         style="fill:#5d5d4a;fill-opacity:0.96078431"
         d="M 12.125,4.375 12,4 12.5,4 13,4 12.625,4 12.25,4 12.5,4 q 0.25,0 0.46875,-0.03125 L 13.1875,3.9375 13.078125,3.953125 12.96875,3.96875 12.984375,4.484375 13,5 12.625,4.875 Q 12.25,4.75 12.125,4.375 M 12.71875,4.90625 13,5 13.09375,5.03125 13.1875,5.0625 13,5 Q 12.8125,4.9375 12.625,4.875 L 12.4375,4.8125 12.71875,4.90625 M 12.375,4 12,4 11.875,4 11.75,4 12,4 q 0.25,0 0.5,0 l 0.25,0 -0.375,0"
         id="path22468"
         inkscape:connector-curvature="0" />
      <path
         style="fill:#a8a886;fill-opacity:1"
         d="M 12.984375,4.484375 12.96875,3.96875 12.859375,3.984375 12.75,4 12.96875,3.96875 Q 13.1875,3.9375 13.375,3.875 L 13.5625,3.8125 13.28125,3.90625 13,4 13.375,3.875 13.75,3.75 13.46875,3.84375 13.1875,3.9375 13.375,3.875 Q 13.5625,3.8125 13.6875,3.6875 L 13.8125,3.5625 13.75,3.625 13.6875,3.6875 14,4 14.3125,4.3125 14.34375,4.28125 14.375,4.25 14.3125,4.3125 Q 14.25,4.375 14.25,4.5 l 0,0.125 0,-0.1875 0,-0.1875 0,0.25 q 0,0.25 0.25,0.25 l 0.25,0 -0.1875,0 -0.1875,0 0.125,0 q 0.125,0 0.1875,-0.0625 L 14.75,4.625 14.71875,4.65625 14.6875,4.6875 15,5 15.3125,5.3125 15.375,5.25 15.4375,5.1875 15.3125,5.3125 Q 15.1875,5.4375 15.125,5.625 L 15.0625,5.8125 15.15625,5.53125 15.25,5.25 15.125,5.625 15,6 15.09375,5.71875 15.1875,5.4375 15.125,5.625 Q 15.0625,5.8125 15.03125,6.03125 L 15,6.25 15.015625,6.140625 15.03125,6.03125 14.640625,5.890625 Q 14.25,5.75 14,5.5 13.75,5.25 13.375,5.125 L 13,5 12.984375,4.484375 M 12.90625,4.96875 13,5 13.28125,5.09375 13.5625,5.1875 13.375,5.125 Q 13.1875,5.0625 13,5 l -0.1875,-0.0625 0.09375,0.03125"
         id="path22470"
         inkscape:connector-curvature="0" />
      <path
         style="fill:#e0e0b3;fill-opacity:1"
         d="m 14.25,4.5 q 0,-0.25 0.25,-0.25 0.25,0 0.25,0.25 0,0.25 -0.25,0.25 -0.25,0 -0.25,-0.25"
         id="path22472"
         inkscape:connector-curvature="0" />
      <path
         style="fill:#2f2f24;fill-opacity:0.55294118"
         d="M 15.875,4.625 15.75,4.25 15.84375,4.53125 15.9375,4.8125 15.875,4.625 Q 15.8125,4.4375 15.71875,4.28125 L 15.625,4.125 15.671875,4.203125 15.71875,4.28125 16,4 16.28125,3.71875 16.203125,3.671875 16.125,3.625 16.28125,3.71875 Q 16.4375,3.8125 16.625,3.875 L 16.8125,3.9375 16.53125,3.84375 16.25,3.75 16.625,3.875 17,4 17.125,4.375 17.25,4.75 17.15625,4.46875 17.0625,4.1875 17.125,4.375 q 0.0625,0.1875 0.1875,0.3125 l 0.125,0.125 L 17.375,4.75 17.3125,4.6875 17,5 16.6875,5.3125 16.75,5.375 16.8125,5.4375 16.6875,5.3125 Q 16.5625,5.1875 16.375,5.125 L 16.1875,5.0625 16.46875,5.15625 16.75,5.25 16.375,5.125 16,5 15.875,4.625"
         id="path22474"
         inkscape:connector-curvature="0" />
      <path
         style="fill:#000000;fill-opacity:0.08235294"
         d="M 17.125,4.375 17,4 17.5,4 18,4 18,4.5 18,5 17.625,4.875 q -0.375,-0.125 -0.5,-0.5"
         id="path22476"
         inkscape:connector-curvature="0" />
      <path
         style="fill:#000000;fill-opacity:0.20784314"
         d="M 4,5.5 4,5 4.375,4.875 4.75,4.75 4.46875,4.84375 4.1875,4.9375 4.375,4.875 Q 4.5625,4.8125 4.6875,4.6875 L 4.8125,4.5625 4.75,4.625 4.6875,4.6875 5,5 5.3125,5.3125 5.375,5.25 5.4375,5.1875 5.3125,5.3125 Q 5.1875,5.4375 5.125,5.625 L 5.0625,5.8125 5.15625,5.53125 5.25,5.25 5.125,5.625 5,6 4.5,6 4,6 4,5.5"
         id="path22478"
         inkscape:connector-curvature="0" />
      <path
         style="fill:#676753;fill-opacity:0.94117647"
         d="M 5.125,5.625 Q 5.25,5.25 5.625,5.125 L 6,5 6,5.5 6,6 6,5.625 6,5.25 6,5.5 Q 6,5.75 5.96875,5.96875 L 5.9375,6.1875 5.953125,6.078125 5.96875,5.96875 5.5,6 5.03125,6.03125 5.015625,6.140625 5,6.25 5.03125,6.03125 Q 5.0625,5.8125 5.125,5.625 L 5.1875,5.4375 5.09375,5.71875 5,6 5.125,5.625"
         id="path22480"
         inkscape:connector-curvature="0" />
      <path
         style="fill:#e0e0b3;fill-opacity:1"
         d="M 6,5.5 6,5 6.375,5.125 Q 6.75,5.25 6.875,5.625 7,6 7,6.5 7,7 7,7.5 L 7,8 7,8.5 7,9 7,9.5 q 0,0.5 -0.125,0.875 -0.125,0.375 -0.5,0.5 L 6,11 6,10.5 Q 6,10 6,9.5 6,9 6,8.5 6,8 6.125,7.625 6.25,7.25 5.96875,6.96875 L 5.6875,6.6875 5.625,6.75 5.5625,6.8125 5.6875,6.6875 Q 5.8125,6.5625 5.875,6.375 L 5.9375,6.1875 5.84375,6.46875 5.75,6.75 5.875,6.375 Q 6,6 6,5.5"
         id="path22482"
         inkscape:connector-curvature="0" />
      <path
         style="fill:#2a2a22;fill-opacity:0.69803922"
         d="M 8,5.5 Q 8.25,5.25 8.625,5.125 L 9,5 9,5.5 9,6 8.625,6.125 8.25,6.25 8.53125,6.15625 8.8125,6.0625 8.625,6.125 Q 8.4375,6.1875 8.28125,6.28125 L 8.125,6.375 8.203125,6.328125 8.28125,6.28125 8,6 7.71875,5.71875 7.640625,5.765625 7.5625,5.8125 7.71875,5.71875 Q 7.875,5.625 8,5.5 L 8.125,5.375 7.9375,5.5625 7.75,5.75 8,5.5"
         id="path22484"
         inkscape:connector-curvature="0" />
      <path
         style="fill:#000000;fill-opacity:0.25098039"
         d="M 9,5.5 9,5 9.375,4.875 9.75,4.75 9.46875,4.84375 9.1875,4.9375 9.375,4.875 Q 9.5625,4.8125 9.6875,4.6875 L 9.8125,4.5625 9.75,4.625 9.6875,4.6875 10,5 10.3125,5.3125 10.375,5.25 10.4375,5.1875 10.3125,5.3125 Q 10.1875,5.4375 10.125,5.625 L 10.0625,5.8125 10.15625,5.53125 10.25,5.25 10.125,5.625 10,6 9.5,6 9,6 9,5.5"
         id="path22486"
         inkscape:connector-curvature="0" />
      <path
         style="fill:#000000;fill-opacity:0.09019608"
         d="m 10.125,5.625 q 0.125,-0.375 0.5,-0.5 0.375,-0.125 0.75,0 0.375,0.125 0.5,0.5 L 12,6 11.5,6 Q 11,6 10.5,6 L 10,6 10.125,5.625"
         id="path22488"
         inkscape:connector-curvature="0" />
      <path
         style="fill:#000000;fill-opacity:0.24705882"
         d="M 11.875,5.625 11.75,5.25 11.84375,5.53125 11.9375,5.8125 11.875,5.625 Q 11.8125,5.4375 11.6875,5.3125 L 11.5625,5.1875 11.625,5.25 11.6875,5.3125 12,5 12.3125,4.6875 12.25,4.625 12.1875,4.5625 l 0.125,0.125 q 0.125,0.125 0.3125,0.1875 L 12.8125,4.9375 12.53125,4.84375 12.25,4.75 12.625,4.875 13,5 13,5.5 13,6 12.5,6 12,6 11.875,5.625"
         id="path22490"
         inkscape:connector-curvature="0" />
      <path
         style="fill:#292921;fill-opacity:0.69019608"
         d="M 13,5.5 13,5 13.375,5.125 Q 13.75,5.25 14,5.5 L 14.25,5.75 14.0625,5.5625 13.875,5.375 14,5.5 q 0.125,0.125 0.28125,0.21875 L 14.4375,5.8125 14.359375,5.765625 14.28125,5.71875 14,6 13.71875,6.28125 13.796875,6.328125 13.875,6.375 13.71875,6.28125 Q 13.5625,6.1875 13.375,6.125 L 13.1875,6.0625 13.46875,6.15625 13.75,6.25 13.375,6.125 13,6 13,5.5"
         id="path22492"
         inkscape:connector-curvature="0" />
      <path
         style="fill:#e0e0b3;fill-opacity:1"
         d="m 15.125,5.625 q 0.125,-0.375 0.5,-0.5 L 16,5 16,5.5 Q 16,6 16.125,6.375 L 16.25,6.75 16.15625,6.46875 16.0625,6.1875 16.125,6.375 q 0.0625,0.1875 0.1875,0.3125 l 0.125,0.125 L 16.375,6.75 16.3125,6.6875 16.03125,6.96875 Q 15.75,7.25 15.875,7.625 16,8 16,8.5 q 0,0.5 0,1 0,0.5 0,1 L 16,11 15.625,10.875 Q 15.25,10.75 15.125,10.375 15,10 15,9.5 L 15,9 15,8.5 15,8 15,7.5 Q 15,7 15,6.5 15,6 15.125,5.625"
         id="path22494"
         inkscape:connector-curvature="0" />
      <path
         style="fill:#676753;fill-opacity:0.94117647"
         d="M 16,5.5 16,5 16.375,5.125 q 0.375,0.125 0.5,0.5 L 17,6 16.90625,5.71875 16.8125,5.4375 16.875,5.625 q 0.0625,0.1875 0.09375,0.40625 L 17,6.25 16.984375,6.140625 16.96875,6.03125 16.5,6 16.03125,5.96875 16.046875,6.078125 16.0625,6.1875 16.03125,5.96875 Q 16,5.75 16,5.5 L 16,5.25 16,5.625 16,6 16,5.5"
         id="path22496"
         inkscape:connector-curvature="0" />
      <path
         style="fill:#000000;fill-opacity:0.21176471"
         d="M 16.875,5.625 16.75,5.25 16.84375,5.53125 16.9375,5.8125 16.875,5.625 Q 16.8125,5.4375 16.6875,5.3125 L 16.5625,5.1875 16.625,5.25 16.6875,5.3125 17,5 17.3125,4.6875 17.25,4.625 17.1875,4.5625 l 0.125,0.125 q 0.125,0.125 0.3125,0.1875 L 17.8125,4.9375 17.53125,4.84375 17.25,4.75 17.625,4.875 18,5 18,5.5 18,6 17.5,6 17,6 16.875,5.625"
         id="path22498"
         inkscape:connector-curvature="0" />
      <path
         style="fill:#000000;fill-opacity:0.35294118"
         d="M 4,6.5 4,6 4.5,6 5,6 5,6.5 5,7 4.5,7 4,7 4,6.5"
         id="path22500"
         inkscape:connector-curvature="0" />
      <path
         style="fill:#a1a180;fill-opacity:1"
         d="M 5,6.5 5,6 5,6.375 5,6.75 5,6.5 Q 5,6.25 5.03125,6.03125 L 5.0625,5.8125 5.046875,5.921875 5.03125,6.03125 5.5,6 5.96875,5.96875 5.984375,5.859375 6,5.75 5.96875,5.96875 Q 5.9375,6.1875 5.875,6.375 L 5.8125,6.5625 5.90625,6.28125 6,6 5.875,6.375 Q 5.75,6.75 5.375,6.875 L 5,7 5,6.5"
         id="path22502"
         inkscape:connector-curvature="0" />
      <path
         style="fill:#494938;fill-opacity:0.89803922"
         d="M 7,6.5 7,6 7,6.375 7,6.75 7,6.5 Q 7,6.25 6.96875,6.03125 L 6.9375,5.8125 6.953125,5.921875 6.96875,6.03125 7.359375,5.890625 7.75,5.75 7.46875,5.84375 7.1875,5.9375 7.375,5.875 Q 7.5625,5.8125 7.71875,5.71875 L 7.875,5.625 7.796875,5.671875 7.71875,5.71875 8,6 8.28125,6.28125 8.359375,6.234375 8.4375,6.1875 8.28125,6.28125 Q 8.125,6.375 8,6.5 L 7.875,6.625 8.0625,6.4375 8.25,6.25 8,6.5 Q 7.75,6.75 7.375,6.875 L 7,7 7,6.5 M 7,6.625 7,7 7,7.125 7,7.25 7,7 Q 7,6.75 7,6.5 L 7,6.25 7,6.625"
         id="path22504"
         inkscape:connector-curvature="0" />
      <path
         style="fill:#000000;fill-opacity:0.20784314"
         d="M 8,6.5 Q 8.25,6.25 8.625,6.125 L 9,6 9,6.5 9,7 8.625,7.125 8.25,7.25 8.53125,7.15625 8.8125,7.0625 8.625,7.125 Q 8.4375,7.1875 8.3125,7.3125 L 8.1875,7.4375 8.25,7.375 8.3125,7.3125 8.015625,7.015625 7.71875,6.71875 7.640625,6.765625 7.5625,6.8125 7.71875,6.71875 Q 7.875,6.625 8,6.5 L 8.125,6.375 7.9375,6.5625 7.75,6.75 8,6.5"
         id="path22506"
         inkscape:connector-curvature="0" />
      <path
         style="fill:#000000;fill-opacity:0.01568627"
         d="M 9,6.5 9,6 9.5,6 10,6 10,6.5 Q 10,7 9.5,7 L 9,7 9,6.5"
         id="path22508"
         inkscape:connector-curvature="0" />
      <path
         style="fill:#000000;fill-opacity:0"
         d="M 10,6.5 10,6 10.5,6 q 0.5,0 1,0 L 12,6 12,6.5 Q 12,7 12.5,7 L 13,7 13,7.5 13,8 13,8.5 13,9 13,9.5 13,10 12.5,10 12,10 11.5,10 11,10 10.5,10 10,10 9.5,10 9,10 9,9.5 9,9 9,8.5 9,8 9,7.5 9,7 9.5,7 Q 10,7 10,6.5"
         id="path22510"
         inkscape:connector-curvature="0" />
      <path
         style="fill:#000000;fill-opacity:0.01568627"
         d="M 12,6.5 12,6 12.5,6 13,6 13,6.5 13,7 12.5,7 Q 12,7 12,6.5"
         id="path22512"
         inkscape:connector-curvature="0" />
      <path
         style="fill:#000000;fill-opacity:0.21176471"
         d="M 13,6.5 13,6 13.375,6.125 Q 13.75,6.25 14,6.5 L 14.25,6.75 14.0625,6.5625 13.875,6.375 14,6.5 q 0.125,0.125 0.28125,0.21875 L 14.4375,6.8125 14.359375,6.765625 14.28125,6.71875 13.984375,7.015625 13.6875,7.3125 13.75,7.375 13.8125,7.4375 13.6875,7.3125 Q 13.5625,7.1875 13.375,7.125 L 13.1875,7.0625 13.46875,7.15625 13.75,7.25 13.375,7.125 13,7 13,6.5"
         id="path22514"
         inkscape:connector-curvature="0" />
      <path
         style="fill:#4a4a39;fill-opacity:0.90196078"
         d="M 14,6.5 13.75,6.25 13.9375,6.4375 14.125,6.625 14,6.5 Q 13.875,6.375 13.71875,6.28125 L 13.5625,6.1875 13.640625,6.234375 13.71875,6.28125 14,6 14.28125,5.71875 14.203125,5.671875 14.125,5.625 14.28125,5.71875 Q 14.4375,5.8125 14.625,5.875 L 14.8125,5.9375 14.53125,5.84375 14.25,5.75 14.640625,5.890625 15.03125,6.03125 15.046875,5.921875 15.0625,5.8125 15.03125,6.03125 Q 15,6.25 15,6.5 L 15,6.75 15,6.375 15,6 15,6.5 15,7 14.625,6.875 Q 14.25,6.75 14,6.5 M 15,7.125 15,7 15,6.625 15,6.25 15,6.5 q 0,0.25 0,0.5 l 0,0.25 0,-0.125"
         id="path22516"
         inkscape:connector-curvature="0" />
      <path
         style="fill:#a1a180;fill-opacity:1"
         d="M 16.125,6.375 16,6 16.09375,6.28125 16.1875,6.5625 16.125,6.375 Q 16.0625,6.1875 16.03125,5.96875 L 16,5.75 16.015625,5.859375 16.03125,5.96875 16.5,6 16.96875,6.03125 16.953125,5.921875 16.9375,5.8125 16.96875,6.03125 Q 17,6.25 17,6.5 L 17,6.75 17,6.375 17,6 17,6.5 17,7 16.625,6.875 q -0.375,-0.125 -0.5,-0.5"
         id="path22518"
         inkscape:connector-curvature="0" />
      <path
         style="fill:#000000;fill-opacity:0.35686275"
         d="M 17,6.5 17,6 17.5,6 18,6 18,6.5 18,7 17.5,7 17,7 17,6.5"
         id="path22520"
         inkscape:connector-curvature="0" />
      <path
         style="fill:#000000;fill-opacity:0.43529412"
         d="M 4,7.5 4,7 4.5,7 5,7 5,7.5 5,8 4.5,8 4,8 4,7.5"
         id="path22522"
         inkscape:connector-curvature="0" />
      <path
         style="fill:#cecea4;fill-opacity:1"
         d="M 5,7.5 5,7 5.375,6.875 5.75,6.75 5.46875,6.84375 5.1875,6.9375 5.375,6.875 Q 5.5625,6.8125 5.6875,6.6875 L 5.8125,6.5625 5.75,6.625 5.6875,6.6875 5.96875,6.96875 Q 6.25,7.25 6.125,7.625 6,8 6,8.5 6,9 6,9.5 6,10 6,10.5 L 6,11 5.5,11 Q 5,11 5,10.5 L 5,10 5,9.5 Q 5,9 5,8.5 L 5,8 5,7.5"
         id="path22524"
         inkscape:connector-curvature="0" />
      <path
         style="fill:#12120b;fill-opacity:0.61960784"
         d="M 7,7.5 7,7 7.375,6.875 7.75,6.75 7.46875,6.84375 7.1875,6.9375 7.375,6.875 Q 7.5625,6.8125 7.71875,6.71875 L 7.875,6.625 7.796875,6.671875 7.71875,6.71875 8.015625,7.015625 8.3125,7.3125 8.375,7.25 8.4375,7.1875 8.3125,7.3125 Q 8.1875,7.4375 8.125,7.625 L 8.0625,7.8125 8.15625,7.53125 8.25,7.25 8.125,7.625 8,8 7.5,8 7,8 7,7.5 M 7,6.875 7,7 7,7.375 7,7.75 7,7.5 Q 7,7.25 7,7 L 7,6.75 7,6.875"
         id="path22526"
         inkscape:connector-curvature="0" />
      <path
         style="fill:#000000;fill-opacity:0.05098039"
         d="M 8.125,7.625 Q 8.25,7.25 8.625,7.125 L 9,7 9,7.5 9,8 8.5,8 8,8 8.125,7.625"
         id="path22528"
         inkscape:connector-curvature="0" />
      <path
         style="fill:#000000;fill-opacity:0.05490196"
         d="M 13,7.5 13,7 13.375,7.125 q 0.375,0.125 0.5,0.5 L 14,8 13.5,8 13,8 13,7.5"
         id="path22530"
         inkscape:connector-curvature="0" />
      <path
         style="fill:#12120b;fill-opacity:0.61960784"
         d="M 13.875,7.625 13.75,7.25 13.84375,7.53125 13.9375,7.8125 13.875,7.625 Q 13.8125,7.4375 13.6875,7.3125 L 13.5625,7.1875 13.625,7.25 13.6875,7.3125 13.984375,7.015625 14.28125,6.71875 14.203125,6.671875 14.125,6.625 14.28125,6.71875 Q 14.4375,6.8125 14.625,6.875 L 14.8125,6.9375 14.53125,6.84375 14.25,6.75 14.625,6.875 15,7 15,7.5 15,8 14.5,8 14,8 13.875,7.625 M 15,7.375 15,7 15,6.875 15,6.75 15,7 q 0,0.25 0,0.5 l 0,0.25 0,-0.375"
         id="path22532"
         inkscape:connector-curvature="0" />
      <path
         style="fill:#cecea4;fill-opacity:1"
         d="M 15.875,7.625 Q 15.75,7.25 16.03125,6.96875 L 16.3125,6.6875 16.25,6.625 16.1875,6.5625 l 0.125,0.125 q 0.125,0.125 0.3125,0.1875 L 16.8125,6.9375 16.53125,6.84375 16.25,6.75 16.625,6.875 17,7 17,7.5 17,8 17,8.5 q 0,0.5 0,1 l 0,0.5 0,0.5 Q 17,11 16.5,11 L 16,11 16,10.5 Q 16,10 16,9.5 16,9 16,8.5 16,8 15.875,7.625"
         id="path22534"
         inkscape:connector-curvature="0" />
      <path
         style="fill:#000000;fill-opacity:0.43137255"
         d="M 17,7.5 17,7 17.5,7 18,7 18,7.5 18,8 17.5,8 17,8 17,7.5"
         id="path22536"
         inkscape:connector-curvature="0" />
      <path
         style="fill:#000000;fill-opacity:0.45882353"
         d="M 4,8.5 4,8 4.5,8 5,8 5,8.5 Q 5,9 5,9.5 L 5,10 4.5,10 4,10 4,9.5 Q 4,9 4,8.5"
         id="path22538"
         inkscape:connector-curvature="0" />
      <path
         style="fill:#060606;fill-opacity:0.5372549"
         d="M 7,8.5 7,8 7.5,8 8,8 8,8.5 8,9 7.5,9 7,9 7,8.5"
         id="path22540"
         inkscape:connector-curvature="0" />
      <path
         style="fill:#000000;fill-opacity:0.01960784"
         d="M 8,8.5 8,8 8.5,8 9,8 9,8.5 9,9 8.5,9 8,9 8,8.5"
         id="path22542"
         inkscape:connector-curvature="0" />
      <path
         style="fill:#000000;fill-opacity:0.01960784"
         d="M 13,8.5 13,8 13.5,8 14,8 14,8.5 14,9 13.5,9 13,9 13,8.5"
         id="path22544"
         inkscape:connector-curvature="0" />
      <path
         style="fill:#060606;fill-opacity:0.53333315"
         d="M 14,8.5 14,8 14.5,8 15,8 15,8.5 15,9 14.5,9 14,9 14,8.5"
         id="path22546"
         inkscape:connector-curvature="0" />
      <path
         style="fill:#000000;fill-opacity:0.45882353"
         d="M 17,8.5 17,8 17.5,8 18,8 18,8.5 q 0,0.5 0,1 l 0,0.5 -0.5,0 -0.5,0 0,-0.5 q 0,-0.5 0,-1"
         id="path22548"
         inkscape:connector-curvature="0" />
      <path
         style="fill:#12120b;fill-opacity:0.61960784"
         d="M 7,9.5 7,9 7.5,9 8,9 8.125,9.375 8.25,9.75 8.15625,9.46875 8.0625,9.1875 8.125,9.375 Q 8.1875,9.5625 8.3125,9.6875 L 8.4375,9.8125 8.375,9.75 8.3125,9.6875 8,10 7.6875,10.3125 7.75,10.375 7.8125,10.4375 7.6875,10.3125 Q 7.5625,10.1875 7.375,10.125 L 7.1875,10.0625 7.46875,10.15625 7.75,10.25 7.359375,10.109375 6.96875,9.96875 6.953125,10.078125 6.9375,10.1875 6.96875,9.96875 Q 7,9.75 7,9.5 L 7,9.25 7,9.625 7,10 7,9.5"
         id="path22550"
         inkscape:connector-curvature="0" />
      <path
         style="fill:#000000;fill-opacity:0.05098039"
         d="M 8.125,9.375 8,9 8.5,9 9,9 9,9.5 9,10 8.625,9.875 Q 8.25,9.75 8.125,9.375"
         id="path22552"
         inkscape:connector-curvature="0" />
      <path
         style="fill:#000000;fill-opacity:0.05490196"
         d="M 13,9.5 13,9 13.5,9 14,9 13.875,9.375 q -0.125,0.375 -0.5,0.5 L 13,10 13,9.5"
         id="path22554"
         inkscape:connector-curvature="0" />
      <path
         style="fill:#12120b;fill-opacity:0.61960784"
         d="M 13.875,9.375 14,9 14.5,9 15,9 15,9.5 15,10 15,9.625 15,9.25 15,9.5 q 0,0.25 0.03125,0.46875 L 15.0625,10.1875 15.046875,10.078125 15.03125,9.96875 14.640625,10.109375 14.25,10.25 14.53125,10.15625 14.8125,10.0625 14.625,10.125 q -0.1875,0.0625 -0.3125,0.1875 l -0.125,0.125 L 14.25,10.375 14.3125,10.3125 14,10 13.6875,9.6875 13.625,9.75 13.5625,9.8125 13.6875,9.6875 Q 13.8125,9.5625 13.875,9.375 L 13.9375,9.1875 13.84375,9.46875 13.75,9.75 13.875,9.375"
         id="path22556"
         inkscape:connector-curvature="0" />
      <path
         style="fill:#000000;fill-opacity:0.11764706"
         d="M 3,10.5 Q 3,10 3.5,10 L 4,10 3.875,10.375 q -0.125,0.375 -0.5,0.5 L 3,11 3,10.5"
         id="path22558"
         inkscape:connector-curvature="0" />
      <path
         style="fill:#000000;fill-opacity:0.57647059"
         d="M 3.875,10.375 4,10 4.5,10 5,10 5,10.5 5,11 5,10.625 5,10.25 5,10.5 q 0,0.25 0.125,0.375 L 5.25,11 5.1875,10.9375 5.125,10.875 4.6875,11.0625 4.25,11.25 4.53125,11.15625 4.8125,11.0625 4.625,11.125 Q 4.4375,11.1875 4.3125,11.3125 L 4.1875,11.4375 4.25,11.375 4.3125,11.3125 4,11 3.6875,10.6875 3.625,10.75 3.5625,10.8125 3.6875,10.6875 Q 3.8125,10.5625 3.875,10.375 L 3.9375,10.1875 3.84375,10.46875 3.75,10.75 3.875,10.375"
         id="path22560"
         inkscape:connector-curvature="0" />
      <path
         style="fill:#4f4f3e;fill-opacity:0.82745098"
         d="M 6.875,10.375 7,10 6.90625,10.28125 6.8125,10.5625 6.875,10.375 Q 6.9375,10.1875 6.96875,9.96875 L 7,9.75 6.984375,9.859375 6.96875,9.96875 7.359375,10.109375 Q 7.75,10.25 7.875,10.625 L 8,11 7.625,11.125 7.25,11.25 7.53125,11.15625 7.8125,11.0625 7.625,11.125 Q 7.4375,11.1875 7.3125,11.3125 L 7.1875,11.4375 7.25,11.375 7.3125,11.3125 7,11 6.6875,10.6875 6.625,10.75 6.5625,10.8125 6.6875,10.6875 Q 6.8125,10.5625 6.875,10.375 L 6.9375,10.1875 6.84375,10.46875 6.75,10.75 6.875,10.375"
         id="path22562"
         inkscape:connector-curvature="0" />
      <path
         style="fill:#000000;fill-opacity:0.53333315"
         d="M 7.890625,10.640625 7.75,10.25 7.84375,10.53125 7.9375,10.8125 7.875,10.625 Q 7.8125,10.4375 7.6875,10.3125 L 7.5625,10.1875 7.625,10.25 7.6875,10.3125 8,10 8.3125,9.6875 8.25,9.625 8.1875,9.5625 8.3125,9.6875 Q 8.4375,9.8125 8.625,9.875 L 8.8125,9.9375 8.53125,9.84375 8.25,9.75 8.625,9.875 9,10 9,10.5 9,11 8.5,11 8,11 8.375,11 8.75,11 8.5,11 Q 8.25,11 8.03125,11.03125 L 7.8125,11.0625 7.921875,11.046875 8.03125,11.03125 7.890625,10.640625"
         id="path22564"
         inkscape:connector-curvature="0" />
      <path
         style="fill:#000000;fill-opacity:0.50196078"
         d="M 9,10.5 9,10 9.5,10 10,10 10,10.5 10,11 9.5,11 9,11 9,10.5"
         id="path22566"
         inkscape:connector-curvature="0" />
      <path
         style="fill:#000000;fill-opacity:0.50588223"
         d="m 10,10.5 0,-0.5 0.5,0 0.5,0 0,0.5 0,0.5 -0.5,0 -0.5,0 0,-0.5"
         id="path22568"
         inkscape:connector-curvature="0" />
      <path
         style="fill:#000000;fill-opacity:0.49411765"
         d="m 11,10.5 0,-0.5 0.5,0 0.5,0 0,0.5 0,0.5 -0.5,0 -0.5,0 0,-0.5"
         id="path22570"
         inkscape:connector-curvature="0" />
      <path
         style="fill:#000000;fill-opacity:0.49803922"
         d="m 12,10.5 0,-0.5 0.5,0 0.5,0 0,0.5 0,0.5 -0.5,0 -0.5,0 0,-0.5"
         id="path22572"
         inkscape:connector-curvature="0" />
      <path
         style="fill:#000000;fill-opacity:0.5372549"
         d="M 13,10.5 13,10 13.375,9.875 13.75,9.75 13.46875,9.84375 13.1875,9.9375 13.375,9.875 Q 13.5625,9.8125 13.6875,9.6875 L 13.8125,9.5625 13.75,9.625 13.6875,9.6875 14,10 l 0.3125,0.3125 0.0625,-0.0625 0.0625,-0.0625 -0.125,0.125 q -0.125,0.125 -0.1875,0.3125 L 14.0625,10.8125 14.15625,10.53125 14.25,10.25 14.125,10.625 14,11 14.09375,10.71875 14.1875,10.4375 14.125,10.625 q -0.0625,0.1875 -0.09375,0.40625 L 14,11.25 14.015625,11.140625 14.03125,11.03125 13.515625,11.015625 13,11 13,10.5"
         id="path22574"
         inkscape:connector-curvature="0" />
      <path
         style="fill:#50503f;fill-opacity:0.83529412"
         d="M 14.125,10.625 Q 14.25,10.25 14.640625,10.109375 L 15.03125,9.96875 15.015625,9.859375 15,9.75 15.03125,9.96875 Q 15.0625,10.1875 15.125,10.375 L 15.1875,10.5625 15.09375,10.28125 15,10 15.125,10.375 15.25,10.75 15.15625,10.46875 15.0625,10.1875 15.125,10.375 q 0.0625,0.1875 0.1875,0.3125 l 0.125,0.125 L 15.375,10.75 15.3125,10.6875 15,11 l -0.3125,0.3125 0.0625,0.0625 0.0625,0.0625 -0.125,-0.125 Q 14.5625,11.1875 14.375,11.125 L 14.1875,11.0625 14.46875,11.15625 14.75,11.25 14.375,11.125 14,11 14.125,10.625"
         id="path22576"
         inkscape:connector-curvature="0" />
      <path
         style="fill:#000000;fill-opacity:0.57647059"
         d="m 17,10.5 0,-0.5 0.5,0 0.5,0 0.125,0.375 0.125,0.375 -0.09375,-0.28125 -0.09375,-0.28125 0.0625,0.1875 q 0.0625,0.1875 0.1875,0.3125 l 0.125,0.125 L 18.375,10.75 18.3125,10.6875 18,11 l -0.3125,0.3125 0.0625,0.0625 0.0625,0.0625 -0.125,-0.125 Q 17.5625,11.1875 17.375,11.125 L 17.1875,11.0625 17.46875,11.15625 17.75,11.25 17.3125,11.0625 16.875,10.875 16.8125,10.9375 16.75,11 16.875,10.875 Q 17,10.75 17,10.5 l 0,-0.25 0,0.375 0,0.375 0,-0.5"
         id="path22578"
         inkscape:connector-curvature="0" />
      <path
         style="fill:#000000;fill-opacity:0.11764706"
         d="M 18.125,10.375 18,10 l 0.5,0 q 0.5,0 0.5,0.5 l 0,0.5 -0.375,-0.125 q -0.375,-0.125 -0.5,-0.5"
         id="path22580"
         inkscape:connector-curvature="0" />
      <path
         style="fill:#000000;fill-opacity:0.34509804"
         d="M 3,11.5 3,11 3.375,10.875 3.75,10.75 3.46875,10.84375 3.1875,10.9375 3.375,10.875 Q 3.5625,10.8125 3.6875,10.6875 L 3.8125,10.5625 3.75,10.625 3.6875,10.6875 4,11 4.3125,11.3125 4.375,11.25 4.4375,11.1875 4.3125,11.3125 Q 4.1875,11.4375 4.125,11.625 L 4.0625,11.8125 4.15625,11.53125 4.25,11.25 4.125,11.625 4,12 3.5,12 3,12 3,11.5"
         id="path22582"
         inkscape:connector-curvature="0" />
      <path
         style="fill:#33403f;fill-opacity:1"
         d="M 4.125,11.625 Q 4.25,11.25 4.6875,11.0625 L 5.125,10.875 5.0625,11.4375 5,12 4.515625,12.015625 4.03125,12.03125 4.015625,12.140625 4,12.25 4.03125,12.03125 Q 4.0625,11.8125 4.125,11.625 L 4.1875,11.4375 4.09375,11.71875 4,12 4.125,11.625"
         id="path22584"
         inkscape:connector-curvature="0" />
      <path
         style="fill:#505245;fill-opacity:1"
         d="M 5.0625,11.4375 5.125,10.875 5.0625,10.8125 5,10.75 5.125,10.875 Q 5.25,11 5.5,11 L 5.75,11 5.375,11 5,11 5.5,11 6,11 6,11.5 6,12 5.5,12 5,12 5.0625,11.4375"
         id="path22586"
         inkscape:connector-curvature="0" />
      <path
         style="fill:#4f4f40;fill-opacity:1"
         d="M 6,11.5 6,11 6.375,10.875 6.75,10.75 6.46875,10.84375 6.1875,10.9375 6.375,10.875 Q 6.5625,10.8125 6.6875,10.6875 L 6.8125,10.5625 6.75,10.625 6.6875,10.6875 7,11 7.3125,11.3125 7.375,11.25 7.4375,11.1875 7.3125,11.3125 Q 7.1875,11.4375 7.125,11.625 L 7.0625,11.8125 7.15625,11.53125 7.25,11.25 7.125,11.625 7,12 6.5,12 6,12 6,11.5"
         id="path22588"
         inkscape:connector-curvature="0" />
      <path
         style="fill:#676754;fill-opacity:1"
         d="m 7.125,11.625 q 0.125,-0.375 0.5,-0.5 L 8,11 8,11.5 8,12 7.5,12 7,12 7.125,11.625"
         id="path22590"
         inkscape:connector-curvature="0" />
      <path
         style="fill:#82826a;fill-opacity:1"
         d="M 8,11.5 8,11 8.5,11 9,11 9,11.5 9,12 8.5,12 8,12 8,11.5"
         id="path22592"
         inkscape:connector-curvature="0" />
      <path
         style="fill:#8c8c73;fill-opacity:1"
         d="M 9,11.5 9,11 9.5,11 10,11 10,11.5 10,12 9.5,12 9,12 9,11.5"
         id="path22594"
         inkscape:connector-curvature="0" />
      <path
         style="fill:#93937a;fill-opacity:1"
         d="m 10,11.5 0,-0.5 0.5,0 0.5,0 0,0.5 0,0.5 -0.5,0 -0.5,0 0,-0.5"
         id="path22596"
         inkscape:connector-curvature="0" />
      <path
         style="fill:#9b9b84;fill-opacity:1"
         d="m 11,11.5 0,-0.5 0.5,0 0.5,0 0,0.5 0,0.5 -0.5,0 -0.5,0 0,-0.5"
         id="path22598"
         inkscape:connector-curvature="0" />
      <path
         style="fill:#a5a591;fill-opacity:1"
         d="m 12,11.5 0,-0.5 0.5,0 0.5,0 0,0.5 0,0.5 -0.5,0 -0.5,0 0,-0.5"
         id="path22600"
         inkscape:connector-curvature="0" />
      <path
         style="fill:#a1a18b;fill-opacity:1"
         d="m 13,11.5 0,-0.5 0.5,0 0.5,0 0,0.5 0,0.5 -0.5,0 -0.5,0 0,-0.5"
         id="path22602"
         inkscape:connector-curvature="0" />
      <path
         style="fill:#7b7b62;fill-opacity:1"
         d="m 14,11.5 0,-0.5 0.375,0.125 q 0.375,0.125 0.5,0.5 L 15,12 14.5,12 14,12 14,11.5"
         id="path22604"
         inkscape:connector-curvature="0" />
      <path
         style="fill:#5f5f4d;fill-opacity:1"
         d="M 14.875,11.625 14.75,11.25 14.84375,11.53125 14.9375,11.8125 14.875,11.625 q -0.0625,-0.1875 -0.1875,-0.3125 l -0.125,-0.125 0.0625,0.0625 0.0625,0.0625 L 15,11 15.3125,10.6875 15.25,10.625 l -0.0625,-0.0625 0.125,0.125 q 0.125,0.125 0.3125,0.1875 L 15.8125,10.9375 15.53125,10.84375 15.25,10.75 15.625,10.875 16,11 l 0,0.5 0,0.5 -0.5,0 -0.5,0 -0.125,-0.375"
         id="path22606"
         inkscape:connector-curvature="0" />
      <path
         style="fill:#62624a;fill-opacity:1"
         d="m 16,11.5 0,-0.5 0.5,0 0.5,0 -0.375,0 -0.375,0 0.25,0 q 0.25,0 0.375,-0.125 L 17,10.75 16.9375,10.8125 16.875,10.875 17.0625,11.3125 17.25,11.75 17.15625,11.46875 17.0625,11.1875 17.125,11.375 q 0.0625,0.1875 0.1875,0.3125 l 0.125,0.125 L 17.375,11.75 17.3125,11.6875 17,12 l -0.3125,0.3125 0.0625,0.0625 0.0625,0.0625 -0.125,-0.125 Q 16.5625,12.1875 16.375,12.125 L 16.1875,12.0625 16.46875,12.15625 16.75,12.25 16.375,12.125 16,12 16,11.5"
         id="path22608"
         inkscape:connector-curvature="0" />
      <path
         style="fill:#49493b;fill-opacity:1"
         d="M 17.0625,11.3125 16.875,10.875 17.3125,11.0625 Q 17.75,11.25 17.875,11.625 L 18,12 17.625,11.875 Q 17.25,11.75 17.0625,11.3125"
         id="path22610"
         inkscape:connector-curvature="0" />
      <path
         style="fill:#000000;fill-opacity:0.35686275"
         d="M 17.875,11.625 17.75,11.25 17.84375,11.53125 17.9375,11.8125 17.875,11.625 q -0.0625,-0.1875 -0.1875,-0.3125 l -0.125,-0.125 0.0625,0.0625 0.0625,0.0625 L 18,11 18.3125,10.6875 18.25,10.625 l -0.0625,-0.0625 0.125,0.125 q 0.125,0.125 0.3125,0.1875 L 18.8125,10.9375 18.53125,10.84375 18.25,10.75 18.625,10.875 19,11 l 0,0.5 0,0.5 -0.5,0 -0.5,0 -0.125,-0.375"
         id="path22612"
         inkscape:connector-curvature="0" />
      <path
         style="fill:#000000;fill-opacity:0.4627451"
         d="M 3,12.5 3,12 3.5,12 4,12 4,12.5 4,13 3.5,13 3,13 3,12.5"
         id="path22614"
         inkscape:connector-curvature="0" />
      <path
         style="fill:#456163;fill-opacity:1"
         d="M 4,12.5 4,12 4,12.375 4,12.75 4,12.5 Q 4,12.25 4.03125,12.03125 L 4.0625,11.8125 4.046875,11.921875 4.03125,12.03125 4.515625,12.015625 5,12 5,12.5 5,13 4.5,13 4,13 4,12.5 M 5.125,12 5,12 4.625,12 4.25,12 4.5,12 q 0.25,0 0.5,0 l 0.25,0 -0.125,0"
         id="path22616"
         inkscape:connector-curvature="0" />
      <path
         style="fill:#a1a68a;fill-opacity:1"
         d="M 5,12.5 5,12 5.5,12 6,12 6,12.5 6,13 5.5,13 5,13 5,12.5 M 5.375,12 5,12 4.875,12 4.75,12 5,12 q 0.25,0 0.5,0 l 0.25,0 -0.375,0"
         id="path22618"
         inkscape:connector-curvature="0" />
      <path
         style="fill:#b7b692;fill-opacity:1"
         d="M 6,12.5 6,12 6.5,12 7,12 7,12.5 7,13 6.5,13 6,13 6,12.5"
         id="path22620"
         inkscape:connector-curvature="0" />
      <path
         style="fill:#bebe99;fill-opacity:1"
         d="M 7,12.5 7,12 7.5,12 8,12 8,12.5 8,13 7.5,13 7,13 7,12.5"
         id="path22622"
         inkscape:connector-curvature="0" />
      <path
         style="fill:#c7c7a0;fill-opacity:1"
         d="M 8,12.5 8,12 8.5,12 9,12 9,12.5 9,13 8.5,13 8,13 8,12.5"
         id="path22624"
         inkscape:connector-curvature="0" />
      <path
         style="fill:#d1d1aa;fill-opacity:1"
         d="M 9,12.5 9,12 9.5,12 10,12 10,12.5 10,13 9.5,13 9,13 9,12.5"
         id="path22626"
         inkscape:connector-curvature="0" />
      <path
         style="fill:#dcdcb8;fill-opacity:1"
         d="m 10,12.5 0,-0.5 0.5,0 0.5,0 0,0.5 0,0.5 -0.5,0 -0.5,0 0,-0.5"
         id="path22628"
         inkscape:connector-curvature="0" />
      <path
         style="fill:#e9e9ca;fill-opacity:1"
         d="m 11,12.5 0,-0.5 0.5,0 0.5,0 -0.125,0.375 q -0.125,0.375 -0.5,0.5 L 11,13 11,12.5"
         id="path22630"
         inkscape:connector-curvature="0" />
      <path
         style="fill:#efefd1;fill-opacity:1"
         d="M 11.875,12.375 12,12 l 0.5,0 0.5,0 -0.125,0.375 Q 12.75,12.75 12.5,13 L 12.25,13.25 11.96875,12.96875 11.6875,12.6875 11.625,12.75 l -0.0625,0.0625 0.125,-0.125 q 0.125,-0.125 0.1875,-0.3125 L 11.9375,12.1875 11.84375,12.46875 11.75,12.75 11.875,12.375 M 12.1875,13.3125 12.25,13.25 12.4375,13.0625 12.625,12.875 12.5,13 q -0.125,0.125 -0.25,0.25 l -0.125,0.125 0.0625,-0.0625"
         id="path22632"
         inkscape:connector-curvature="0" />
      <path
         style="fill:#e6e6b9;fill-opacity:1"
         d="M 12.875,12.375 13,12 l 0.5,0 0.5,0 0,0.5 0,0.5 -0.375,0.125 -0.375,0.125 0.28125,-0.09375 0.28125,-0.09375 -0.1875,0.0625 q -0.1875,0.0625 -0.3125,0.1875 l -0.125,0.125 L 13.25,13.375 13.3125,13.3125 13.015625,13.015625 12.71875,12.71875 12.671875,12.796875 12.625,12.875 12.71875,12.71875 Q 12.8125,12.5625 12.875,12.375 L 12.9375,12.1875 12.84375,12.46875 12.75,12.75 12.875,12.375"
         id="path22634"
         inkscape:connector-curvature="0" />
      <path
         style="fill:#e9e9b9;fill-opacity:1"
         d="m 14,12.5 0,-0.5 0.5,0 0.5,0 -0.125,0.375 q -0.125,0.375 -0.5,0.5 L 14,13 14,12.5"
         id="path22636"
         inkscape:connector-curvature="0" />
      <path
         style="fill:#e7e7ad;fill-opacity:1"
         d="M 14.875,12.375 15,12 l 0.5,0 0.5,0 0,0.5 0,0.5 -0.375,0.125 -0.375,0.125 0.28125,-0.09375 0.28125,-0.09375 -0.1875,0.0625 q -0.1875,0.0625 -0.34375,0.15625 L 15.125,13.375 15.203125,13.328125 15.28125,13.28125 14.984375,12.984375 14.6875,12.6875 14.625,12.75 l -0.0625,0.0625 0.125,-0.125 q 0.125,-0.125 0.1875,-0.3125 L 14.9375,12.1875 14.84375,12.46875 14.75,12.75 14.875,12.375"
         id="path22638"
         inkscape:connector-curvature="0" />
      <path
         style="fill:#d5d592;fill-opacity:1"
         d="m 16,12.5 0,-0.5 0.375,0.125 q 0.375,0.125 0.5,0.5 L 17,13 16.5,13 16,13 16,12.5"
         id="path22640"
         inkscape:connector-curvature="0" />
      <path
         style="fill:#48483b;fill-opacity:1"
         d="M 16.875,12.625 16.75,12.25 16.84375,12.53125 16.9375,12.8125 16.875,12.625 q -0.0625,-0.1875 -0.1875,-0.3125 l -0.125,-0.125 0.0625,0.0625 0.0625,0.0625 L 17,12 17.3125,11.6875 17.25,11.625 l -0.0625,-0.0625 0.125,0.125 q 0.125,0.125 0.3125,0.1875 L 17.8125,11.9375 17.53125,11.84375 17.25,11.75 17.625,11.875 18,12 l 0,0.5 0,0.5 -0.5,0 -0.5,0 -0.125,-0.375"
         id="path22642"
         inkscape:connector-curvature="0" />
      <path
         style="fill:#000000;fill-opacity:0.46666667"
         d="m 18,12.5 0,-0.5 0.5,0 0.5,0 0,0.5 q 0,0.5 0,1 0,0.5 0,1 0,0.5 0,1 0,0.5 0,1 0,0.5 0,1 0,0.5 0,1 l 0,0.5 -0.5,0 -0.5,0 0,-0.5 0,-0.5 0,-0.5 0,-0.5 0,-0.5 0,-0.5 0,-0.5 0,-0.5 0,-0.5 0,-0.5 0,-0.5 0,-0.5 0,-0.5"
         id="path22644"
         inkscape:connector-curvature="0" />
      <path
         style="fill:#000000;fill-opacity:0.45882353"
         d="M 3,13.5 3,13 3.5,13 4,13 4,13.5 4,14 3.5,14 3,14 3,13.5"
         id="path22646"
         inkscape:connector-curvature="0" />
      <path
         style="fill:#45666a;fill-opacity:1"
         d="M 4,13.5 4,13 4.5,13 5,13 5,13.5 5,14 4.5,14 4,14 4,13.5"
         id="path22648"
         inkscape:connector-curvature="0" />
      <path
         style="fill:#a3a78b;fill-opacity:1"
         d="M 5,13.5 5,13 5.5,13 6,13 6,13.5 6,14 5.5,14 5,14 5,13.5"
         id="path22650"
         inkscape:connector-curvature="0" />
      <path
         style="fill:#b8b893;fill-opacity:1"
         d="M 6,13.5 6,13 6.5,13 7,13 7,13.5 7,14 6.5,14 6,14 6,13.5"
         id="path22652"
         inkscape:connector-curvature="0" />
      <path
         style="fill:#bfbf9a;fill-opacity:1"
         d="M 7,13.5 7,13 7.5,13 8,13 8,13.5 8,14 7.5,14 7,14 7,13.5"
         id="path22654"
         inkscape:connector-curvature="0" />
      <path
         style="fill:#c9c9a3;fill-opacity:1"
         d="M 8,13.5 8,13 8.5,13 9,13 9,13.5 9,14 8.5,14 8,14 8,13.5"
         id="path22656"
         inkscape:connector-curvature="0" />
      <path
         style="fill:#d4d4b0;fill-opacity:1"
         d="M 9,13.5 9,13 9.5,13 10,13 10,13.5 10,14 9.5,14 9,14 9,13.5"
         id="path22658"
         inkscape:connector-curvature="0" />
      <path
         style="fill:#e0e0c3;fill-opacity:1"
         d="m 10,13.5 0,-0.5 0.5,0 0.5,0 -0.125,0.375 q -0.125,0.375 -0.5,0.5 L 10,14 10,13.5"
         id="path22660"
         inkscape:connector-curvature="0" />
      <path
         style="fill:#e6e6c9;fill-opacity:1"
         d="M 10.875,13.375 11,13 11.375,12.875 11.75,12.75 11.46875,12.84375 11.1875,12.9375 11.375,12.875 q 0.1875,-0.0625 0.3125,-0.1875 l 0.125,-0.125 -0.0625,0.0625 -0.0625,0.0625 0.28125,0.28125 L 12.25,13.25 12,13.5 Q 11.75,13.75 11.5,14 L 11.25,14.25 10.96875,13.96875 10.6875,13.6875 10.625,13.75 l -0.0625,0.0625 0.125,-0.125 q 0.125,-0.125 0.1875,-0.3125 L 10.9375,13.1875 10.84375,13.46875 10.75,13.75 10.875,13.375 M 11.1875,14.3125 11.25,14.25 11.4375,14.0625 11.625,13.875 11.5,14 q -0.125,0.125 -0.25,0.25 l -0.125,0.125 0.0625,-0.0625 m 0.875,-0.875 L 12.25,13.25 12.3125,13.1875 12.375,13.125 12.25,13.25 Q 12.125,13.375 12,13.5 l -0.125,0.125 0.1875,-0.1875"
         id="path22662"
         inkscape:connector-curvature="0" />
      <path
         style="fill:#e0e0b3;fill-opacity:1"
         d="M 12,13.5 Q 12.25,13.25 12.5,13 L 12.75,12.75 12.5625,12.9375 12.375,13.125 12.5,13 q 0.125,-0.125 0.21875,-0.28125 l 0.09375,-0.15625 -0.04687,0.07813 -0.04687,0.07813 0.296875,0.296875 0.296875,0.296875 0.0625,-0.0625 0.0625,-0.0625 -0.125,0.125 q -0.125,0.125 -0.1875,0.3125 L 13.0625,13.8125 13.15625,13.53125 13.25,13.25 13.125,13.625 13,14 12.625,14.125 q -0.375,0.125 -0.5,0.5 L 12,15 11.625,15.125 11.25,15.25 11.53125,15.15625 11.8125,15.0625 11.625,15.125 q -0.1875,0.0625 -0.3125,0.1875 l -0.125,0.125 0.0625,-0.0625 0.0625,-0.0625 -0.296875,-0.296875 -0.296875,-0.296875 -0.07813,0.04687 -0.07813,0.04687 0.15625,-0.09375 Q 10.875,14.625 11,14.5 L 11.125,14.375 10.9375,14.5625 10.75,14.75 11,14.5 q 0.25,-0.25 0.5,-0.5 0.25,-0.25 0.5,-0.5"
         id="path22664"
         inkscape:connector-curvature="0" />
      <path
         style="fill:#e3e3b5;fill-opacity:1"
         d="m 13.125,13.625 q 0.125,-0.375 0.5,-0.5 L 14,13 13.875,13.375 q -0.125,0.375 -0.5,0.5 L 13,14 13.125,13.625"
         id="path22666"
         inkscape:connector-curvature="0" />
      <path
         style="fill:#e3e3a8;fill-opacity:1"
         d="M 13.875,13.375 14,13 14.375,12.875 14.75,12.75 14.46875,12.84375 14.1875,12.9375 14.375,12.875 q 0.1875,-0.0625 0.3125,-0.1875 l 0.125,-0.125 -0.0625,0.0625 -0.0625,0.0625 0.296875,0.296875 0.296875,0.296875 0.07813,-0.04687 0.07813,-0.04687 -0.15625,0.09375 Q 15.125,13.375 15,13.5 L 14.875,13.625 15.0625,13.4375 15.25,13.25 15,13.5 Q 14.75,13.75 14.5,14 L 14.25,14.25 13.96875,13.96875 13.6875,13.6875 13.625,13.75 l -0.0625,0.0625 0.125,-0.125 q 0.125,-0.125 0.1875,-0.3125 L 13.9375,13.1875 13.84375,13.46875 13.75,13.75 13.875,13.375 M 14.1875,14.3125 14.25,14.25 14.4375,14.0625 14.625,13.875 14.5,14 q -0.125,0.125 -0.25,0.25 l -0.125,0.125 0.0625,-0.0625"
         id="path22668"
         inkscape:connector-curvature="0" />
      <path
         style="fill:#e1e199;fill-opacity:1"
         d="m 15,13.5 q 0.25,-0.25 0.625,-0.375 L 16,13 16,13.5 16,14 15.625,14.125 15.25,14.25 15.53125,14.15625 15.8125,14.0625 15.625,14.125 q -0.1875,0.0625 -0.3125,0.1875 l -0.125,0.125 L 15.25,14.375 15.3125,14.3125 15.03125,14.03125 14.75,13.75 15,13.5 M 14.9375,13.5625 14.75,13.75 14.6875,13.8125 14.625,13.875 14.75,13.75 Q 14.875,13.625 15,13.5 l 0.125,-0.125 -0.1875,0.1875"
         id="path22670"
         inkscape:connector-curvature="0" />
      <path
         style="fill:#dcdc9d;fill-opacity:1"
         d="m 16,13.5 0,-0.5 0.5,0 0.5,0 0,0.5 0,0.5 -0.5,0 -0.5,0 0,-0.5"
         id="path22672"
         inkscape:connector-curvature="0" />
      <path
         style="fill:#4d4d3f;fill-opacity:1"
         d="m 17,13.5 0,-0.5 0.5,0 0.5,0 0,0.5 0,0.5 -0.5,0 -0.5,0 0,-0.5"
         id="path22674"
         inkscape:connector-curvature="0" />
      <path
         style="fill:#000000;fill-opacity:0.45490196"
         d="M 3,14.5 3,14 3.5,14 4,14 4,14.5 4,15 4,15.5 4,16 4,16.5 4,17 4,17.5 4,18 4,18.5 4,19 3.5,19 3,19 3,18.5 q 0,-0.5 0,-1 0,-0.5 0,-1 0,-0.5 0,-1 0,-0.5 0,-1"
         id="path22676"
         inkscape:connector-curvature="0" />
      <path
         style="fill:#466b6e;fill-opacity:1"
         d="M 4,14.5 4,14 4.5,14 5,14 5,14.5 5,15 4.5,15 4,15 4,14.5"
         id="path22678"
         inkscape:connector-curvature="0" />
      <path
         style="fill:#a8ad8f;fill-opacity:1"
         d="M 5,14.5 5,14 5.5,14 6,14 6,14.5 6,15 5.5,15 5,15 5,14.5"
         id="path22680"
         inkscape:connector-curvature="0" />
      <path
         style="fill:#bfbe99;fill-opacity:1"
         d="M 6,14.5 6,14 6.5,14 7,14 7,14.5 7,15 6.5,15 6,15 6,14.5"
         id="path22682"
         inkscape:connector-curvature="0" />
      <path
         style="fill:#c6c6a1;fill-opacity:1"
         d="M 7,14.5 7,14 7.5,14 8,14 8,14.5 8,15 7.5,15 7,15 7,14.5"
         id="path22684"
         inkscape:connector-curvature="0" />
      <path
         style="fill:#d1d1ad;fill-opacity:1"
         d="M 8,14.5 8,14 8.5,14 9,14 9,14.5 9,15 8.5,15 8,15 8,14.5"
         id="path22686"
         inkscape:connector-curvature="0" />
      <path
         style="fill:#dedec0;fill-opacity:1"
         d="M 9,14.5 9,14 9.5,14 10,14 10,14.5 10,15 9.5,15 9,15 9,14.5"
         id="path22688"
         inkscape:connector-curvature="0" />
      <path
         style="fill:#e5e5c7;fill-opacity:1"
         d="M 10,14.5 10,14 10.375,13.875 10.75,13.75 10.46875,13.84375 10.1875,13.9375 10.375,13.875 q 0.1875,-0.0625 0.3125,-0.1875 l 0.125,-0.125 -0.0625,0.0625 -0.0625,0.0625 0.28125,0.28125 L 11.25,14.25 11,14.5 q -0.25,0.25 -0.625,0.375 L 10,15 10,14.5 M 11.0625,14.4375 11.25,14.25 11.3125,14.1875 11.375,14.125 11.25,14.25 Q 11.125,14.375 11,14.5 l -0.125,0.125 0.1875,-0.1875"
         id="path22690"
         inkscape:connector-curvature="0" />
      <path
         style="fill:#e5e5b6;fill-opacity:1"
         d="m 12.125,14.625 q 0.125,-0.375 0.5,-0.5 L 13,14 12.875,14.375 q -0.125,0.375 -0.5,0.5 L 12,15 12.125,14.625"
         id="path22692"
         inkscape:connector-curvature="0" />
      <path
         style="fill:#e5e5aa;fill-opacity:1"
         d="M 12.875,14.375 13,14 13.375,13.875 13.75,13.75 13.46875,13.84375 13.1875,13.9375 13.375,13.875 q 0.1875,-0.0625 0.3125,-0.1875 l 0.125,-0.125 -0.0625,0.0625 -0.0625,0.0625 0.28125,0.28125 L 14.25,14.25 14,14.5 Q 13.75,14.75 13.5,15 L 13.25,15.25 12.96875,14.96875 12.6875,14.6875 12.625,14.75 l -0.0625,0.0625 0.125,-0.125 q 0.125,-0.125 0.1875,-0.3125 L 12.9375,14.1875 12.84375,14.46875 12.75,14.75 12.875,14.375 M 13.1875,15.3125 13.25,15.25 13.4375,15.0625 13.625,14.875 13.5,15 q -0.125,0.125 -0.25,0.25 l -0.125,0.125 0.0625,-0.0625 m 0.875,-0.875 L 14.25,14.25 14.3125,14.1875 14.375,14.125 14.25,14.25 Q 14.125,14.375 14,14.5 l -0.125,0.125 0.1875,-0.1875"
         id="path22694"
         inkscape:connector-curvature="0" />
      <path
         style="fill:#e4e49a;fill-opacity:1"
         d="m 14,14.5 q 0.25,-0.25 0.5,-0.5 l 0.25,-0.25 0.28125,0.28125 0.28125,0.28125 0.0625,-0.0625 0.0625,-0.0625 -0.125,0.125 q -0.125,0.125 -0.1875,0.3125 L 15.0625,14.8125 15.15625,14.53125 15.25,14.25 15.125,14.625 15,15 14.625,15.125 14.25,15.25 14.53125,15.15625 14.8125,15.0625 14.625,15.125 q -0.1875,0.0625 -0.3125,0.1875 l -0.125,0.125 L 14.25,15.375 14.3125,15.3125 14.03125,15.03125 13.75,14.75 14,14.5 M 13.9375,14.5625 13.75,14.75 13.6875,14.8125 13.625,14.875 13.75,14.75 Q 13.875,14.625 14,14.5 l 0.125,-0.125 -0.1875,0.1875 m 0.875,-0.875 L 14.75,13.75 14.5625,13.9375 14.375,14.125 14.5,14 q 0.125,-0.125 0.25,-0.25 l 0.125,-0.125 -0.0625,0.0625"
         id="path22696"
         inkscape:connector-curvature="0" />
      <path
         style="fill:#ebeba6;fill-opacity:1"
         d="m 15.125,14.625 q 0.125,-0.375 0.5,-0.5 L 16,14 l 0,0.5 0,0.5 -0.5,0 -0.5,0 0.125,-0.375"
         id="path22698"
         inkscape:connector-curvature="0" />
      <path
         style="fill:#e6e6a9;fill-opacity:1"
         d="m 16,14.5 0,-0.5 0.5,0 0.5,0 0,0.5 0,0.5 -0.5,0 -0.5,0 0,-0.5"
         id="path22700"
         inkscape:connector-curvature="0" />
      <path
         style="fill:#505043;fill-opacity:1"
         d="m 17,14.5 0,-0.5 0.5,0 0.5,0 0,0.5 0,0.5 -0.5,0 -0.5,0 0,-0.5"
         id="path22702"
         inkscape:connector-curvature="0" />
      <path
         style="fill:#486e71;fill-opacity:1"
         d="M 4,15.5 4,15 4.5,15 5,15 5,15.5 5,16 4.5,16 4,16 4,15.5"
         id="path22704"
         inkscape:connector-curvature="0" />
      <path
         style="fill:#adb293;fill-opacity:1"
         d="M 5,15.5 5,15 5.5,15 6,15 6,15.5 6,16 5.5,16 5,16 5,15.5"
         id="path22706"
         inkscape:connector-curvature="0" />
      <path
         style="fill:#c5c49f;fill-opacity:1"
         d="M 6,15.5 6,15 6.5,15 7,15 7,15.5 7,16 6.5,16 6,16 6,15.5"
         id="path22708"
         inkscape:connector-curvature="0" />
      <path
         style="fill:#cdcdaa;fill-opacity:1"
         d="M 7,15.5 7,15 7.5,15 8,15 8,15.5 8,16 7.5,16 7,16 7,15.5"
         id="path22710"
         inkscape:connector-curvature="0" />
      <path
         style="fill:#dbdbbc;fill-opacity:1"
         d="M 8,15.5 8,15 8.5,15 9,15 9,15.5 9,16 8.5,16 8,16 8,15.5"
         id="path22712"
         inkscape:connector-curvature="0" />
      <path
         style="fill:#e2e2c4;fill-opacity:1"
         d="M 9,15.5 9,15 9.5,15 10,15 9.875,15.375 q -0.125,0.375 -0.5,0.5 L 9,16 9,15.5"
         id="path22714"
         inkscape:connector-curvature="0" />
      <path
         style="fill:#ddddb2;fill-opacity:1"
         d="M 9.875,15.375 10,15 10.375,14.875 10.75,14.75 10.46875,14.84375 10.1875,14.9375 10.375,14.875 q 0.1875,-0.0625 0.34375,-0.15625 L 10.875,14.625 l -0.07813,0.04687 -0.07813,0.04687 0.296875,0.296875 0.296875,0.296875 0.0625,-0.0625 0.0625,-0.0625 -0.125,0.125 q -0.125,0.125 -0.1875,0.3125 L 11.0625,15.8125 11.15625,15.53125 11.25,15.25 11.125,15.625 11,16 10.625,16.125 10.25,16.25 10.53125,16.15625 10.8125,16.0625 10.625,16.125 q -0.1875,0.0625 -0.3125,0.1875 l -0.125,0.125 L 10.25,16.375 10.3125,16.3125 10,16 9.6875,15.6875 9.625,15.75 9.5625,15.8125 9.6875,15.6875 Q 9.8125,15.5625 9.875,15.375 L 9.9375,15.1875 9.84375,15.46875 9.75,15.75 9.875,15.375"
         id="path22716"
         inkscape:connector-curvature="0" />
      <path
         style="fill:#e2e2b4;fill-opacity:1"
         d="m 11.125,15.625 q 0.125,-0.375 0.5,-0.5 L 12,15 11.875,15.375 q -0.125,0.375 -0.5,0.5 L 11,16 11.125,15.625"
         id="path22718"
         inkscape:connector-curvature="0" />
      <path
         style="fill:#e4e4a9;fill-opacity:1"
         d="M 11.875,15.375 12,15 12.375,14.875 12.75,14.75 12.46875,14.84375 12.1875,14.9375 12.375,14.875 q 0.1875,-0.0625 0.3125,-0.1875 l 0.125,-0.125 -0.0625,0.0625 -0.0625,0.0625 0.28125,0.28125 L 13.25,15.25 13,15.5 Q 12.75,15.75 12.5,16 L 12.25,16.25 11.96875,15.96875 11.6875,15.6875 11.625,15.75 l -0.0625,0.0625 0.125,-0.125 q 0.125,-0.125 0.1875,-0.3125 L 11.9375,15.1875 11.84375,15.46875 11.75,15.75 11.875,15.375 M 12.1875,16.3125 12.25,16.25 12.4375,16.0625 12.625,15.875 12.5,16 q -0.125,0.125 -0.25,0.25 l -0.125,0.125 0.0625,-0.0625 m 0.875,-0.875 L 13.25,15.25 13.3125,15.1875 13.375,15.125 13.25,15.25 Q 13.125,15.375 13,15.5 l -0.125,0.125 0.1875,-0.1875"
         id="path22720"
         inkscape:connector-curvature="0" />
      <path
         style="fill:#e4e498;fill-opacity:1"
         d="m 13,15.5 q 0.25,-0.25 0.5,-0.5 l 0.25,-0.25 0.28125,0.28125 0.28125,0.28125 0.0625,-0.0625 0.0625,-0.0625 -0.125,0.125 q -0.125,0.125 -0.1875,0.3125 L 14.0625,15.8125 14.15625,15.53125 14.25,15.25 14.125,15.625 14,16 13.625,16.125 13.25,16.25 13.53125,16.15625 13.8125,16.0625 13.625,16.125 q -0.1875,0.0625 -0.3125,0.1875 l -0.125,0.125 L 13.25,16.375 13.3125,16.3125 13.03125,16.03125 12.75,15.75 13,15.5 M 12.9375,15.5625 12.75,15.75 12.6875,15.8125 12.625,15.875 12.75,15.75 Q 12.875,15.625 13,15.5 l 0.125,-0.125 -0.1875,0.1875 m 0.875,-0.875 L 13.75,14.75 13.5625,14.9375 13.375,15.125 13.5,15 q 0.125,-0.125 0.25,-0.25 l 0.125,-0.125 -0.0625,0.0625"
         id="path22722"
         inkscape:connector-curvature="0" />
      <path
         style="fill:#ebeba5;fill-opacity:1"
         d="m 14.125,15.625 q 0.125,-0.375 0.5,-0.5 L 15,15 l 0,0.5 0,0.5 -0.5,0 -0.5,0 0.125,-0.375"
         id="path22724"
         inkscape:connector-curvature="0" />
      <path
         style="fill:#f2f2b0;fill-opacity:1"
         d="m 15,15.5 0,-0.5 0.5,0 0.5,0 0,0.5 0,0.5 -0.5,0 -0.5,0 0,-0.5"
         id="path22726"
         inkscape:connector-curvature="0" />
      <path
         style="fill:#ececb1;fill-opacity:1"
         d="m 16,15.5 0,-0.5 0.5,0 0.5,0 0,0.5 0,0.5 -0.5,0 -0.5,0 0,-0.5"
         id="path22728"
         inkscape:connector-curvature="0" />
      <path
         style="fill:#535345;fill-opacity:1"
         d="m 17,15.5 0,-0.5 0.5,0 0.5,0 0,0.5 0,0.5 -0.5,0 -0.5,0 0,-0.5"
         id="path22730"
         inkscape:connector-curvature="0" />
      <path
         style="fill:#4a7073;fill-opacity:1"
         d="M 4,16.5 4,16 4.5,16 5,16 5,16.5 5,17 4.5,17 4,17 4,16.5"
         id="path22732"
         inkscape:connector-curvature="0" />
      <path
         style="fill:#b2b798;fill-opacity:1"
         d="M 5,16.5 5,16 5.5,16 6,16 6,16.5 6,17 5.5,17 5,17 5,16.5"
         id="path22734"
         inkscape:connector-curvature="0" />
      <path
         style="fill:#cac9a5;fill-opacity:1"
         d="M 6,16.5 6,16 6.5,16 7,16 7,16.5 7,17 6.5,17 6,17 6,16.5"
         id="path22736"
         inkscape:connector-curvature="0" />
      <path
         style="fill:#d6d6b6;fill-opacity:1"
         d="M 7,16.5 7,16 7.5,16 8,16 8,16.5 8,17 7.5,17 7,17 7,16.5"
         id="path22738"
         inkscape:connector-curvature="0" />
      <path
         style="fill:#ddddbf;fill-opacity:1"
         d="M 8,16.5 8,16 8.5,16 9,16 9,16.5 9,17 8.5,17 8,17 8,16.5"
         id="path22740"
         inkscape:connector-curvature="0" />
      <path
         style="fill:#d8d8ad;fill-opacity:1"
         d="M 9,16.5 9,16 9.375,15.875 9.75,15.75 9.46875,15.84375 9.1875,15.9375 9.375,15.875 Q 9.5625,15.8125 9.6875,15.6875 L 9.8125,15.5625 9.75,15.625 9.6875,15.6875 10,16 l 0.3125,0.3125 0.0625,-0.0625 0.0625,-0.0625 -0.125,0.125 q -0.125,0.125 -0.1875,0.3125 L 10.0625,16.8125 10.15625,16.53125 10.25,16.25 10.125,16.625 10,17 9.5,17 9,17 9,16.5"
         id="path22742"
         inkscape:connector-curvature="0" />
      <path
         style="fill:#dedeb0;fill-opacity:1"
         d="m 10.125,16.625 q 0.125,-0.375 0.5,-0.5 L 11,16 10.875,16.375 q -0.125,0.375 -0.5,0.5 L 10,17 10.125,16.625"
         id="path22744"
         inkscape:connector-curvature="0" />
      <path
         style="fill:#dfdfa6;fill-opacity:1"
         d="M 10.875,16.375 11,16 11.375,15.875 11.75,15.75 11.46875,15.84375 11.1875,15.9375 11.375,15.875 q 0.1875,-0.0625 0.3125,-0.1875 l 0.125,-0.125 -0.0625,0.0625 -0.0625,0.0625 0.28125,0.28125 L 12.25,16.25 12,16.5 Q 11.75,16.75 11.5,17 L 11.25,17.25 10.96875,16.96875 10.6875,16.6875 10.625,16.75 l -0.0625,0.0625 0.125,-0.125 q 0.125,-0.125 0.1875,-0.3125 L 10.9375,16.1875 10.84375,16.46875 10.75,16.75 10.875,16.375 M 11.1875,17.3125 11.25,17.25 11.4375,17.0625 11.625,16.875 11.5,17 q -0.125,0.125 -0.25,0.25 l -0.125,0.125 0.0625,-0.0625 m 0.875,-0.875 L 12.25,16.25 12.3125,16.1875 12.375,16.125 12.25,16.25 Q 12.125,16.375 12,16.5 l -0.125,0.125 0.1875,-0.1875"
         id="path22746"
         inkscape:connector-curvature="0" />
      <path
         style="fill:#dede95;fill-opacity:1"
         d="m 12,16.5 q 0.25,-0.25 0.5,-0.5 l 0.25,-0.25 0.28125,0.28125 0.28125,0.28125 0.0625,-0.0625 0.0625,-0.0625 -0.125,0.125 q -0.125,0.125 -0.1875,0.3125 L 13.0625,16.8125 13.15625,16.53125 13.25,16.25 13.125,16.625 13,17 12.625,17.125 12.25,17.25 12.53125,17.15625 12.8125,17.0625 12.625,17.125 q -0.1875,0.0625 -0.3125,0.1875 l -0.125,0.125 L 12.25,17.375 12.3125,17.3125 12.03125,17.03125 11.75,16.75 12,16.5 M 11.9375,16.5625 11.75,16.75 11.6875,16.8125 11.625,16.875 11.75,16.75 Q 11.875,16.625 12,16.5 l 0.125,-0.125 -0.1875,0.1875 m 0.875,-0.875 L 12.75,15.75 12.5625,15.9375 12.375,16.125 12.5,16 q 0.125,-0.125 0.25,-0.25 l 0.125,-0.125 -0.0625,0.0625"
         id="path22748"
         inkscape:connector-curvature="0" />
      <path
         style="fill:#e7e7a2;fill-opacity:1"
         d="m 13.125,16.625 q 0.125,-0.375 0.5,-0.5 L 14,16 l 0,0.5 0,0.5 -0.5,0 -0.5,0 0.125,-0.375"
         id="path22750"
         inkscape:connector-curvature="0" />
      <path
         style="fill:#eeeead;fill-opacity:1"
         d="m 14,16.5 0,-0.5 0.5,0 0.5,0 0,0.5 0,0.5 -0.5,0 -0.5,0 0,-0.5"
         id="path22752"
         inkscape:connector-curvature="0" />
      <path
         style="fill:#f4f4b7;fill-opacity:1"
         d="m 15,16.5 0,-0.5 0.5,0 0.5,0 0,0.5 0,0.5 -0.5,0 -0.5,0 0,-0.5"
         id="path22754"
         inkscape:connector-curvature="0" />
      <path
         style="fill:#ededb6;fill-opacity:1"
         d="m 16,16.5 0,-0.5 0.5,0 0.5,0 0,0.5 0,0.5 -0.5,0 -0.5,0 0,-0.5"
         id="path22756"
         inkscape:connector-curvature="0" />
      <path
         style="fill:#555547;fill-opacity:1"
         d="m 17,16.5 0,-0.5 0.5,0 0.5,0 0,0.5 0,0.5 -0.5,0 -0.5,0 0,-0.5"
         id="path22758"
         inkscape:connector-curvature="0" />
      <path
         style="fill:#4d7376;fill-opacity:1"
         d="M 4,17.5 4,17 4.5,17 5,17 5,17.5 5,18 4.5,18 4,18 4,17.5"
         id="path22760"
         inkscape:connector-curvature="0" />
      <path
         style="fill:#b6bc9e;fill-opacity:1"
         d="M 5,17.5 5,17 5.5,17 6,17 6,17.5 6,18 5.5,18 5,18 5,17.5"
         id="path22762"
         inkscape:connector-curvature="0" />
      <path
         style="fill:#d1d0af;fill-opacity:1"
         d="M 6,17.5 6,17 6.5,17 7,17 7,17.5 7,18 6.5,18 6,18 6,17.5"
         id="path22764"
         inkscape:connector-curvature="0" />
      <path
         style="fill:#d7d7b9;fill-opacity:1"
         d="M 7,17.5 7,17 7.5,17 8,17 8,17.5 8,18 7.5,18 7,18 7,17.5"
         id="path22766"
         inkscape:connector-curvature="0" />
      <path
         style="fill:#d1d1a8;fill-opacity:1"
         d="M 8,17.5 8,17 8.5,17 9,17 9,17.5 9,18 8.5,18 8,18 8,17.5"
         id="path22768"
         inkscape:connector-curvature="0" />
      <path
         style="fill:#d7d7ac;fill-opacity:1"
         d="M 9,17.5 9,17 9.5,17 10,17 9.875,17.375 q -0.125,0.375 -0.5,0.5 L 9,18 9,17.5"
         id="path22770"
         inkscape:connector-curvature="0" />
      <path
         style="fill:#d6d6a0;fill-opacity:1"
         d="M 9.875,17.375 10,17 10.375,16.875 10.75,16.75 10.46875,16.84375 10.1875,16.9375 10.375,16.875 q 0.1875,-0.0625 0.3125,-0.1875 l 0.125,-0.125 -0.0625,0.0625 -0.0625,0.0625 0.28125,0.28125 L 11.25,17.25 11,17.5 Q 10.75,17.75 10.5,18 L 10.25,18.25 9.96875,17.96875 9.6875,17.6875 9.625,17.75 9.5625,17.8125 9.6875,17.6875 Q 9.8125,17.5625 9.875,17.375 L 9.9375,17.1875 9.84375,17.46875 9.75,17.75 9.875,17.375 M 10.1875,18.3125 10.25,18.25 10.4375,18.0625 10.625,17.875 10.5,18 q -0.125,0.125 -0.25,0.25 l -0.125,0.125 0.0625,-0.0625 m 0.875,-0.875 L 11.25,17.25 11.3125,17.1875 11.375,17.125 11.25,17.25 Q 11.125,17.375 11,17.5 l -0.125,0.125 0.1875,-0.1875"
         id="path22772"
         inkscape:connector-curvature="0" />
      <path
         style="fill:#d4d48e;fill-opacity:1"
         d="m 11,17.5 q 0.25,-0.25 0.5,-0.5 l 0.25,-0.25 0.28125,0.28125 0.28125,0.28125 0.0625,-0.0625 0.0625,-0.0625 -0.125,0.125 q -0.125,0.125 -0.1875,0.3125 L 12.0625,17.8125 12.15625,17.53125 12.25,17.25 12.125,17.625 12,18 11.625,18.125 11.25,18.25 11.53125,18.15625 11.8125,18.0625 11.625,18.125 q -0.1875,0.0625 -0.3125,0.1875 l -0.125,0.125 L 11.25,18.375 11.3125,18.3125 11.03125,18.03125 10.75,17.75 11,17.5 M 10.9375,17.5625 10.75,17.75 10.6875,17.8125 10.625,17.875 10.75,17.75 Q 10.875,17.625 11,17.5 l 0.125,-0.125 -0.1875,0.1875 m 0.875,-0.875 L 11.75,16.75 11.5625,16.9375 11.375,17.125 11.5,17 q 0.125,-0.125 0.25,-0.25 l 0.125,-0.125 -0.0625,0.0625"
         id="path22774"
         inkscape:connector-curvature="0" />
      <path
         style="fill:#e0e09c;fill-opacity:1"
         d="m 12.125,17.625 q 0.125,-0.375 0.5,-0.5 L 13,17 l 0,0.5 0,0.5 -0.5,0 -0.5,0 0.125,-0.375"
         id="path22776"
         inkscape:connector-curvature="0" />
      <path
         style="fill:#e8e8a9;fill-opacity:1"
         d="m 13,17.5 0,-0.5 0.5,0 0.5,0 0,0.5 0,0.5 -0.5,0 -0.5,0 0,-0.5"
         id="path22778"
         inkscape:connector-curvature="0" />
      <path
         style="fill:#eeeeb2;fill-opacity:1"
         d="m 14,17.5 0,-0.5 0.5,0 0.5,0 0,0.5 0,0.5 -0.5,0 -0.5,0 0,-0.5"
         id="path22780"
         inkscape:connector-curvature="0" />
      <path
         style="fill:#f3f3ba;fill-opacity:1"
         d="m 15,17.5 0,-0.5 0.5,0 0.5,0 0,0.5 0,0.5 -0.5,0 -0.5,0 0,-0.5"
         id="path22782"
         inkscape:connector-curvature="0" />
      <path
         style="fill:#ededb8;fill-opacity:1"
         d="m 16,17.5 0,-0.5 0.5,0 0.5,0 0,0.5 0,0.5 -0.5,0 -0.5,0 0,-0.5"
         id="path22784"
         inkscape:connector-curvature="0" />
      <path
         style="fill:#565648;fill-opacity:1"
         d="m 17,17.5 0,-0.5 0.5,0 0.5,0 0,0.5 0,0.5 -0.5,0 -0.5,0 0,-0.5"
         id="path22786"
         inkscape:connector-curvature="0" />
      <path
         style="fill:#4f7679;fill-opacity:1"
         d="M 4,18.5 4,18 4.5,18 5,18 5,18.5 5,19 4.5,19 4,19 4,18.5"
         id="path22788"
         inkscape:connector-curvature="0" />
      <path
         style="fill:#bcc1a5;fill-opacity:1"
         d="M 5,18.5 5,18 5.5,18 6,18 6,18.5 6,19 5.5,19 5,19 5,18.5"
         id="path22790"
         inkscape:connector-curvature="0" />
      <path
         style="fill:#d0cfaf;fill-opacity:1"
         d="M 6,18.5 6,18 6.5,18 7,18 7,18.5 7,19 6.5,19 6,19 6,18.5"
         id="path22792"
         inkscape:connector-curvature="0" />
      <path
         style="fill:#c9c9a2;fill-opacity:1"
         d="M 7,18.5 7,18 7.5,18 8,18 8,18.5 8,19 7.5,19 7,19 7,18.5"
         id="path22794"
         inkscape:connector-curvature="0" />
      <path
         style="fill:#cfcfa6;fill-opacity:1"
         d="M 8,18.5 8,18 8.5,18 9,18 8.875,18.375 q -0.125,0.375 -0.5,0.5 L 8,19 8,18.5"
         id="path22796"
         inkscape:connector-curvature="0" />
      <path
         style="fill:#cbcb98;fill-opacity:1"
         d="M 8.875,18.375 9,18 9.375,17.875 9.75,17.75 9.46875,17.84375 9.1875,17.9375 9.375,17.875 Q 9.5625,17.8125 9.6875,17.6875 L 9.8125,17.5625 9.75,17.625 9.6875,17.6875 9.96875,17.96875 10.25,18.25 10,18.5 Q 9.75,18.75 9.5,19 L 9.25,19.25 9.4375,19.0625 9.625,18.875 9.5,19 Q 9.375,19.125 9.28125,19.28125 L 9.1875,19.4375 9.234375,19.359375 9.28125,19.28125 8.984375,18.984375 8.6875,18.6875 8.625,18.75 8.5625,18.8125 8.6875,18.6875 Q 8.8125,18.5625 8.875,18.375 L 8.9375,18.1875 8.84375,18.46875 8.75,18.75 8.875,18.375 M 10.0625,18.4375 10.25,18.25 10.3125,18.1875 10.375,18.125 10.25,18.25 Q 10.125,18.375 10,18.5 l -0.125,0.125 0.1875,-0.1875"
         id="path22798"
         inkscape:connector-curvature="0" />
      <path
         style="fill:#c8c886;fill-opacity:1"
         d="m 10,18.5 q 0.25,-0.25 0.5,-0.5 l 0.25,-0.25 0.28125,0.28125 0.28125,0.28125 0.0625,-0.0625 0.0625,-0.0625 -0.125,0.125 q -0.125,0.125 -0.1875,0.3125 L 11.0625,18.8125 11.15625,18.53125 11.25,18.25 11.125,18.625 11,19 10.625,19.125 10.25,19.25 10.53125,19.15625 10.8125,19.0625 10.625,19.125 q -0.1875,0.0625 -0.3125,0.1875 l -0.125,0.125 L 10.25,19.375 10.3125,19.3125 10.03125,19.03125 9.75,18.75 10,18.5 M 9.9375,18.5625 9.75,18.75 9.6875,18.8125 9.625,18.875 9.75,18.75 Q 9.875,18.625 10,18.5 l 0.125,-0.125 -0.1875,0.1875 m 0.875,-0.875 L 10.75,17.75 10.5625,17.9375 10.375,18.125 10.5,18 q 0.125,-0.125 0.25,-0.25 l 0.125,-0.125 -0.0625,0.0625"
         id="path22800"
         inkscape:connector-curvature="0" />
      <path
         style="fill:#d4d494;fill-opacity:1"
         d="m 11.125,18.625 q 0.125,-0.375 0.5,-0.5 L 12,18 l 0,0.5 0,0.5 -0.5,0 -0.5,0 0.125,-0.375"
         id="path22802"
         inkscape:connector-curvature="0" />
      <path
         style="fill:#dfdfa2;fill-opacity:1"
         d="m 12,18.5 0,-0.5 0.5,0 0.5,0 0,0.5 0,0.5 -0.5,0 -0.5,0 0,-0.5"
         id="path22804"
         inkscape:connector-curvature="0" />
      <path
         style="fill:#e6e6ac;fill-opacity:1"
         d="m 13,18.5 0,-0.5 0.5,0 0.5,0 0,0.5 0,0.5 -0.5,0 -0.5,0 0,-0.5"
         id="path22806"
         inkscape:connector-curvature="0" />
      <path
         style="fill:#ebebb3;fill-opacity:1"
         d="m 14,18.5 0,-0.5 0.5,0 0.5,0 0,0.5 0,0.5 -0.5,0 -0.5,0 0,-0.5"
         id="path22808"
         inkscape:connector-curvature="0" />
      <path
         style="fill:#f0f0ba;fill-opacity:1"
         d="m 15,18.5 0,-0.5 0.5,0 0.5,0 0,0.5 0,0.5 -0.5,0 -0.5,0 0,-0.5"
         id="path22810"
         inkscape:connector-curvature="0" />
      <path
         style="fill:#eaeab7;fill-opacity:1"
         d="m 16,18.5 0,-0.5 0.5,0 0.5,0 0,0.5 0,0.5 -0.5,0 -0.5,0 0,-0.5"
         id="path22812"
         inkscape:connector-curvature="0" />
      <path
         style="fill:#575749;fill-opacity:1"
         d="m 17,18.5 0,-0.5 0.5,0 0.5,0 0,0.5 0,0.5 -0.5,0 -0.5,0 0,-0.5"
         id="path22814"
         inkscape:connector-curvature="0" />
      <path
         style="fill:#000000;fill-opacity:0.44705882"
         d="M 3,19.5 3,19 3.5,19 4,19 4,19.5 4,20 3.5,20 3,20 3,19.5"
         id="path22816"
         inkscape:connector-curvature="0" />
      <path
         style="fill:#558083;fill-opacity:1"
         d="M 4,19.5 4,19 4.5,19 5,19 5,19.5 5,20 4.515625,19.984375 4.03125,19.96875 4.046875,20.078125 4.0625,20.1875 4.03125,19.96875 Q 4,19.75 4,19.5 L 4,19.25 4,19.625 4,20 4,19.5"
         id="path22818"
         inkscape:connector-curvature="0" />
      <path
         style="fill:#c2c7a9;fill-opacity:1"
         d="M 5,19.5 5,19 5.5,19 6,19 6,19.5 6,20 5.5,20 5,20 5,19.5"
         id="path22820"
         inkscape:connector-curvature="0" />
      <path
         style="fill:#c9c8a1;fill-opacity:1"
         d="M 6,19.5 6,19 6.5,19 7,19 7,19.5 7,20 6.5,20 6,20 6,19.5"
         id="path22822"
         inkscape:connector-curvature="0" />
      <path
         style="fill:#cccca3;fill-opacity:1"
         d="M 7,19.5 7,19 7.5,19 8,19 8,19.5 8,20 7.5,20 7,20 7,19.5"
         id="path22824"
         inkscape:connector-curvature="0" />
      <path
         style="fill:#c7c795;fill-opacity:1"
         d="M 8,19.5 8,19 8.375,18.875 8.75,18.75 8.46875,18.84375 8.1875,18.9375 8.375,18.875 Q 8.5625,18.8125 8.6875,18.6875 L 8.8125,18.5625 8.75,18.625 8.6875,18.6875 8.984375,18.984375 9.28125,19.28125 9.328125,19.203125 9.375,19.125 9.28125,19.28125 Q 9.1875,19.4375 9.125,19.625 L 9.0625,19.8125 9.15625,19.53125 9.25,19.25 9.125,19.625 9,20 8.5,20 8,20 8,19.5"
         id="path22826"
         inkscape:connector-curvature="0" />
      <path
         style="fill:#c0c083;fill-opacity:1"
         d="M 9.125,19.625 Q 9.25,19.25 9.5,19 l 0.25,-0.25 0.28125,0.28125 0.28125,0.28125 0.0625,-0.0625 0.0625,-0.0625 -0.125,0.125 q -0.125,0.125 -0.1875,0.3125 L 10.0625,19.8125 10.15625,19.53125 10.25,19.25 10.125,19.625 10,20 9.5,20 9,20 9.125,19.625 M 9.8125,18.6875 9.75,18.75 9.5625,18.9375 9.375,19.125 9.5,19 q 0.125,-0.125 0.25,-0.25 l 0.125,-0.125 -0.0625,0.0625"
         id="path22828"
         inkscape:connector-curvature="0" />
      <path
         style="fill:#cece91;fill-opacity:1"
         d="m 10.125,19.625 q 0.125,-0.375 0.5,-0.5 L 11,19 l 0,0.5 0,0.5 -0.5,0 -0.5,0 0.125,-0.375"
         id="path22830"
         inkscape:connector-curvature="0" />
      <path
         style="fill:#dbdb9f;fill-opacity:1"
         d="m 11,19.5 0,-0.5 0.5,0 0.5,0 0,0.5 0,0.5 -0.5,0 -0.5,0 0,-0.5"
         id="path22832"
         inkscape:connector-curvature="0" />
      <path
         style="fill:#e4e4aa;fill-opacity:1"
         d="m 12,19.5 0,-0.5 0.5,0 0.5,0 0,0.5 0,0.5 -0.5,0 -0.5,0 0,-0.5"
         id="path22834"
         inkscape:connector-curvature="0" />
      <path
         style="fill:#ebebb3;fill-opacity:1"
         d="m 13,19.5 0,-0.5 0.5,0 0.5,0 0,0.5 0,0.5 -0.5,0 -0.5,0 0,-0.5"
         id="path22836"
         inkscape:connector-curvature="0" />
      <path
         style="fill:#efefb9;fill-opacity:1"
         d="m 14,19.5 0,-0.5 0.5,0 0.5,0 0,0.5 0,0.5 -0.5,0 -0.5,0 0,-0.5"
         id="path22838"
         inkscape:connector-curvature="0" />
      <path
         style="fill:#f4f4bf;fill-opacity:1"
         d="m 15,19.5 0,-0.5 0.5,0 0.5,0 0,0.5 0,0.5 -0.5,0 -0.5,0 0,-0.5"
         id="path22840"
         inkscape:connector-curvature="0" />
      <path
         style="fill:#eeeebb;fill-opacity:1"
         d="m 16,19.5 0,-0.5 0.5,0 0.5,0 0,0.5 0,0.5 -0.5,0 -0.5,0 0,-0.5 m 1,0.625 0,-0.125 0,-0.375 0,-0.375 0,0.25 q 0,0.25 0,0.5 l 0,0.25 0,-0.125"
         id="path22842"
         inkscape:connector-curvature="0" />
      <path
         style="fill:#5a5a4c;fill-opacity:1"
         d="m 17,19.5 0,-0.5 0.5,0 0.5,0 0,0.5 0,0.5 -0.5,0 -0.5,0 0,-0.5"
         id="path22844"
         inkscape:connector-curvature="0" />
      <path
         style="fill:#000000;fill-opacity:0.45490196"
         d="m 18,19.5 0,-0.5 0.5,0 0.5,0 0,0.5 0,0.5 -0.5,0 -0.5,0 0,-0.5"
         id="path22846"
         inkscape:connector-curvature="0" />
      <path
         style="fill:#000000;fill-opacity:0.30980392"
         d="M 3,20.5 3,20 3.5,20 4,20 4.125,20.375 4.25,20.75 4.15625,20.46875 4.0625,20.1875 4.125,20.375 q 0.0625,0.1875 0.1875,0.3125 l 0.125,0.125 L 4.375,20.75 4.3125,20.6875 4,21 3.6875,21.3125 3.75,21.375 3.8125,21.4375 3.6875,21.3125 Q 3.5625,21.1875 3.375,21.125 L 3.1875,21.0625 3.46875,21.15625 3.75,21.25 3.375,21.125 3,21 3,20.5"
         id="path22848"
         inkscape:connector-curvature="0" />
      <path
         style="fill:#324545;fill-opacity:1"
         d="M 4.125,20.375 4,20 4.09375,20.28125 4.1875,20.5625 4.125,20.375 Q 4.0625,20.1875 4.03125,19.96875 L 4,19.75 4.015625,19.859375 4.03125,19.96875 4.515625,19.984375 5,20 5.015625,20.484375 5.03125,20.96875 5.140625,20.984375 5.25,21 5.03125,20.96875 Q 4.8125,20.9375 4.625,20.875 L 4.4375,20.8125 4.71875,20.90625 5,21 4.625,20.875 q -0.375,-0.125 -0.5,-0.5"
         id="path22850"
         inkscape:connector-curvature="0" />
      <path
         style="fill:#7f826f;fill-opacity:1"
         d="M 5.015625,20.484375 5,20 5.5,20 6,20 6,20.5 6,21 5.5,21 5,21 5.375,21 5.75,21 5.5,21 Q 5.25,21 5.03125,20.96875 L 4.8125,20.9375 4.921875,20.953125 5.03125,20.96875 5.015625,20.484375"
         id="path22852"
         inkscape:connector-curvature="0" />
      <path
         style="fill:#83826b;fill-opacity:1"
         d="M 6,20.5 6,20 6.5,20 7,20 7,20.5 7,21 6.5,21 6,21 6,20.5"
         id="path22854"
         inkscape:connector-curvature="0" />
      <path
         style="fill:#7c7c65;fill-opacity:1"
         d="M 7,20.5 7,20 7.5,20 8,20 8,20.5 8,21 7.5,21 7,21 7,20.5"
         id="path22856"
         inkscape:connector-curvature="0" />
      <path
         style="fill:#6d6d52;fill-opacity:1"
         d="M 8,20.5 8,20 8.5,20 9,20 9,20.5 9,21 8.5,21 8,21 8,20.5"
         id="path22858"
         inkscape:connector-curvature="0" />
      <path
         style="fill:#757559;fill-opacity:1"
         d="M 9,20.5 9,20 9.5,20 10,20 10,20.5 10,21 9.5,21 9,21 9,20.5"
         id="path22860"
         inkscape:connector-curvature="0" />
      <path
         style="fill:#7d7d61;fill-opacity:1"
         d="m 10,20.5 0,-0.5 0.5,0 0.5,0 0,0.5 0,0.5 -0.5,0 -0.5,0 0,-0.5"
         id="path22862"
         inkscape:connector-curvature="0" />
      <path
         style="fill:#858568;fill-opacity:1"
         d="m 11,20.5 0,-0.5 0.5,0 0.5,0 0,0.5 0,0.5 -0.5,0 -0.5,0 0,-0.5"
         id="path22864"
         inkscape:connector-curvature="0" />
      <path
         style="fill:#8a8a6e;fill-opacity:1"
         d="m 12,20.5 0,-0.5 0.5,0 0.5,0 0,0.5 0,0.5 -0.5,0 -0.5,0 0,-0.5"
         id="path22866"
         inkscape:connector-curvature="0" />
      <path
         style="fill:#8e8e72;fill-opacity:1"
         d="m 13,20.5 0,-0.5 0.5,0 0.5,0 0,0.5 0,0.5 -0.5,0 -0.5,0 0,-0.5"
         id="path22868"
         inkscape:connector-curvature="0" />
      <path
         style="fill:#909075;fill-opacity:1"
         d="m 14,20.5 0,-0.5 0.5,0 0.5,0 0,0.5 0,0.5 -0.5,0 -0.5,0 0,-0.5"
         id="path22870"
         inkscape:connector-curvature="0" />
      <path
         style="fill:#929277;fill-opacity:1"
         d="m 15,20.5 0,-0.5 0.5,0 0.5,0 0,0.5 0,0.5 -0.5,0 -0.5,0 0,-0.5"
         id="path22872"
         inkscape:connector-curvature="0" />
      <path
         style="fill:#909075;fill-opacity:1"
         d="m 16,20.5 0,-0.5 0.5,0 0.5,0 -0.01563,0.484375 -0.01563,0.484375 0.109375,-0.01563 0.109375,-0.01563 -0.21875,0.03125 Q 16.75,21 16.5,21 l -0.25,0 0.375,0 0.375,0 -0.5,0 -0.5,0 0,-0.5 M 17,20.375 17,20 17,19.875 17,19.75 17,20 q 0,0.25 0,0.5 l 0,0.25 0,-0.375"
         id="path22874"
         inkscape:connector-curvature="0" />
      <path
         style="fill:#3a3a31;fill-opacity:1"
         d="M 16.984375,20.484375 17,20 l 0.5,0 0.5,0 -0.125,0.375 q -0.125,0.375 -0.5,0.5 L 17,21 17.28125,20.90625 17.5625,20.8125 17.375,20.875 q -0.1875,0.0625 -0.40625,0.09375 L 16.75,21 l 0.109375,-0.01563 0.109375,-0.01563 0.01563,-0.484375"
         id="path22876"
         inkscape:connector-curvature="0" />
      <path
         style="fill:#000000;fill-opacity:0.3254902"
         d="M 17.875,20.375 18,20 l 0.5,0 0.5,0 0,0.5 0,0.5 -0.375,0.125 -0.375,0.125 0.28125,-0.09375 0.28125,-0.09375 -0.1875,0.0625 q -0.1875,0.0625 -0.3125,0.1875 l -0.125,0.125 L 18.25,21.375 18.3125,21.3125 18,21 17.6875,20.6875 17.625,20.75 l -0.0625,0.0625 0.125,-0.125 q 0.125,-0.125 0.1875,-0.3125 L 17.9375,20.1875 17.84375,20.46875 17.75,20.75 17.875,20.375"
         id="path22878"
         inkscape:connector-curvature="0" />
      <path
         style="fill:#000000;fill-opacity:0.09803922"
         d="M 3,21.5 3,21 3.375,21.125 q 0.375,0.125 0.5,0.5 L 4,22 3.5,22 3,22 3,21.5"
         id="path22880"
         inkscape:connector-curvature="0" />
      <path
         style="fill:#000000;fill-opacity:0.3254902"
         d="M 3.875,21.625 3.75,21.25 3.84375,21.53125 3.9375,21.8125 3.875,21.625 Q 3.8125,21.4375 3.6875,21.3125 L 3.5625,21.1875 3.625,21.25 3.6875,21.3125 4,21 4.3125,20.6875 4.25,20.625 4.1875,20.5625 l 0.125,0.125 q 0.125,0.125 0.3125,0.1875 L 4.8125,20.9375 4.53125,20.84375 4.25,20.75 4.625,20.875 5,21 5,21.5 5,22 4.5,22 4,22 3.875,21.625"
         id="path22882"
         inkscape:connector-curvature="0" />
      <path
         style="fill:#000000;fill-opacity:0.46666667"
         d="M 5,21.5 5,21 5.5,21 6,21 6,21.5 6,22 5.5,22 5,22 5,21.5"
         id="path22884"
         inkscape:connector-curvature="0" />
      <path
         style="fill:#000000;fill-opacity:0.49411765"
         d="M 6,21.5 6,21 6.5,21 7,21 7,21.5 7,22 6.5,22 6,22 6,21.5"
         id="path22886"
         inkscape:connector-curvature="0" />
      <path
         style="fill:#000000;fill-opacity:0.49803922"
         d="M 7,21.5 7,21 7.5,21 8,21 8.5,21 9,21 9,21.5 9,22 8.5,22 8,22 7.5,22 7,22 7,21.5"
         id="path22888"
         inkscape:connector-curvature="0" />
      <path
         style="fill:#000000;fill-opacity:0.50196078"
         d="M 9,21.5 9,21 9.5,21 10,21 10,21.5 10,22 9.5,22 9,22 9,21.5"
         id="path22890"
         inkscape:connector-curvature="0" />
      <path
         style="fill:#000000;fill-opacity:0.49019608"
         d="m 10,21.5 0,-0.5 0.5,0 0.5,0 0,0.5 0,0.5 -0.5,0 -0.5,0 0,-0.5"
         id="path22892"
         inkscape:connector-curvature="0" />
      <path
         style="fill:#000000;fill-opacity:0.49803922"
         d="m 11,21.5 0,-0.5 0.5,0 0.5,0 0,0.5 0,0.5 -0.5,0 -0.5,0 0,-0.5"
         id="path22894"
         inkscape:connector-curvature="0" />
      <path
         style="fill:#000000;fill-opacity:0.49411765"
         d="m 12,21.5 0,-0.5 0.5,0 0.5,0 0,0.5 0,0.5 -0.5,0 -0.5,0 0,-0.5"
         id="path22896"
         inkscape:connector-curvature="0" />
      <path
         style="fill:#000000;fill-opacity:0.49803922"
         d="m 13,21.5 0,-0.5 0.5,0 0.5,0 0,0.5 0,0.5 -0.5,0 -0.5,0 0,-0.5"
         id="path22898"
         inkscape:connector-curvature="0" />
      <path
         style="fill:#000000;fill-opacity:0.49019608"
         d="m 14,21.5 0,-0.5 0.5,0 0.5,0 0,0.5 0,0.5 -0.5,0 -0.5,0 0,-0.5"
         id="path22900"
         inkscape:connector-curvature="0" />
      <path
         style="fill:#000000;fill-opacity:0.49411765"
         d="m 15,21.5 0,-0.5 0.5,0 0.5,0 0,0.5 0,0.5 -0.5,0 -0.5,0 0,-0.5"
         id="path22902"
         inkscape:connector-curvature="0" />
      <path
         style="fill:#000000;fill-opacity:0.47843137"
         d="m 16,21.5 0,-0.5 0.5,0 0.5,0 0,0.5 0,0.5 -0.5,0 -0.5,0 0,-0.5"
         id="path22904"
         inkscape:connector-curvature="0" />
      <path
         style="fill:#000000;fill-opacity:0.34117647"
         d="M 17,21.5 17,21 17.375,20.875 17.75,20.75 17.46875,20.84375 17.1875,20.9375 17.375,20.875 q 0.1875,-0.0625 0.3125,-0.1875 l 0.125,-0.125 L 17.75,20.625 17.6875,20.6875 18,21 l 0.3125,0.3125 0.0625,-0.0625 0.0625,-0.0625 -0.125,0.125 q -0.125,0.125 -0.1875,0.3125 L 18.0625,21.8125 18.15625,21.53125 18.25,21.25 18.125,21.625 18,22 17.5,22 17,22 17,21.5"
         id="path22906"
         inkscape:connector-curvature="0" />
      <path
         style="fill:#000000;fill-opacity:0.10588235"
         d="m 18.125,21.625 q 0.125,-0.375 0.5,-0.5 L 19,21 l 0,0.5 0,0.5 -0.5,0 -0.5,0 0.125,-0.375"
         id="path22908"
         inkscape:connector-curvature="0" />
    </g>
  </g>
</svg>
