<?xml version="1.0" encoding="UTF-8" standalone="no"?>
<!-- Created with Inkscape (http://www.inkscape.org/) -->

<svg
   xmlns:dc="http://purl.org/dc/elements/1.1/"
   xmlns:cc="http://creativecommons.org/ns#"
   xmlns:rdf="http://www.w3.org/1999/02/22-rdf-syntax-ns#"
   xmlns:svg="http://www.w3.org/2000/svg"
   xmlns="http://www.w3.org/2000/svg"
   xmlns:sodipodi="http://sodipodi.sourceforge.net/DTD/sodipodi-0.dtd"
   xmlns:inkscape="http://www.inkscape.org/namespaces/inkscape"
   width="20"
   height="20"
   viewBox="0 0 20 20"
   id="svg3347"
   version="1.1"
   inkscape:version="0.91 r13725"
   sodipodi:docname="Civ5Icon.ReligionPantheon.svg">
  <defs
     id="defs3349" />
  <sodipodi:namedview
     id="base"
     pagecolor="#ffffff"
     bordercolor="#666666"
     borderopacity="1.0"
     inkscape:pageopacity="0.0"
     inkscape:pageshadow="2"
     inkscape:zoom="11.2"
     inkscape:cx="6.1091119"
     inkscape:cy="8.5424036"
     inkscape:document-units="px"
     inkscape:current-layer="g27203"
     showgrid="false"
     units="px"
     inkscape:window-width="1477"
     inkscape:window-height="962"
     inkscape:window-x="533"
     inkscape:window-y="95"
     inkscape:window-maximized="0" />
  <metadata
     id="metadata3352">
    <rdf:RDF>
      <cc:Work
         rdf:about="">
        <dc:format>image/svg+xml</dc:format>
        <dc:type
           rdf:resource="http://purl.org/dc/dcmitype/StillImage" />
        <dc:title></dc:title>
      </cc:Work>
    </rdf:RDF>
  </metadata>
  <g
     inkscape:label="Layer 1"
     inkscape:groupmode="layer"
     id="layer1"
     transform="translate(0,-1032.3622)">
    <g
       transform="translate(-0.22321519 1031.8712)"
       id="g27203">
      <g
         transform="translate(1.5627912e-006 -0.35721388)"
         id="g33024">
        <path
           style="fill:#000000;fill-opacity:0"
           d="M 0,0.5 0,0 0.5,0 1,0 1.5,0 2,0 2.5,0 3,0 3.5,0 4,0 4.5,0 5,0 5.5,0 6,0 6.5,0 7,0 7.5,0 8,0 8.5,0 9,0 9.5,0 10,0 l 0.5,0 0.5,0 0.5,0 0.5,0 0.5,0 0.5,0 0.5,0 0.5,0 0.5,0 0.5,0 0.5,0 0.5,0 0.5,0 0.5,0 0.5,0 0.5,0 0.5,0 0.5,0 0.5,0 0.5,0 0.5,0 0.5,0 0.5,0 0.5,0 0,0.5 0,0.5 0,0.5 0,0.5 0,0.5 0,0.5 0,0.5 0,0.5 0,0.5 0,0.5 0,0.5 0,0.5 0,0.5 0,0.5 0,0.5 0,0.5 0,0.5 0,0.5 0,0.5 0,0.5 0,0.5 0,0.5 0,0.5 0,0.5 0,0.5 0,0.5 0,0.5 0,0.5 0,0.5 0,0.5 0,0.5 0,0.5 0,0.5 0,0.5 0,0.5 0,0.5 0,0.5 0,0.5 0,0.5 0,0.5 0,0.5 0,0.5 0,0.5 0,0.5 -0.5,0 L 21,22 20.5,22 20,22 19.5,22 19,22 18.5,22 18,22 17.5,22 17,22 16.5,22 16,22 15.5,22 15,22 14.5,22 14,22 13.5,22 13,22 12.5,22 12,22 11.5,22 11,22 10.5,22 10,22 9.5,22 9,22 8.5,22 8,22 7.5,22 7,22 6.5,22 6,22 5.5,22 5,22 4.5,22 4,22 3.5,22 3,22 2.5,22 2,22 1.5,22 1,22 0.5,22 0,22 0,21.5 0,21 0,20.5 0,20 0,19.5 0,19 0,18.5 0,18 0,17.5 0,17 0,16.5 0,16 0,15.5 0,15 0,14.5 0,14 0,13.5 0,13 0,12.5 0,12 0,11.5 0,11 0,10.5 0,10 0,9.5 0,9 0,8.5 0,8 0,7.5 0,7 0,6.5 0,6 0,5.5 0,5 0,4.5 0,4 0,3.5 0,3 0,2.5 0,2 0,1.5 0,1 0,0.5 M 14.5,20 Q 15,20 15,19.5 l 0,-0.5 0.5,0 Q 16,19 16,18.5 16,18 15.5,18 L 15,18 15,17.5 15,17 15,16.5 15,16 15,15.5 15,15 15,14.5 Q 15,14 14.5,14 L 14,14 14,13.5 14,13 14,12.5 Q 14,12 13.625,11.875 13.25,11.75 13.125,11.375 13,11 12.5,11 L 12,11 12,10.5 12,10 12,9.5 12,9 12,8.5 Q 12,8 11.5,8 L 11,8 11,7.5 Q 11,7 10.5,7 L 10,7 9.5,7 9,7 9,6.5 9,6 9,5.5 9,5 9,4.5 Q 9,4 8.5,4 L 8,4 8,3.5 Q 8,3 7.5,3 L 7,3 6.5,3 Q 6,3 6,3.5 L 6,4 5.5,4 Q 5,4 5,4.5 L 5,5 5,5.5 5,6 5,6.5 5,7 5,7.5 5,8 5,8.5 5,9 5,9.5 5,10 5,10.5 5,11 5,11.5 Q 5,12 5.5,12 L 6,12 6,12.5 Q 6,13 6.5,13 L 7,13 7,13.5 Q 7,14 7.5,14 L 8,14 8,14.5 8,15 8,15.5 Q 8,16 8.5,16 L 9,16 9,16.5 Q 9,17 9.5,17 10,17 10,16.5 l 0,-0.5 0.375,0.125 q 0.375,0.125 0.5,0.5 L 11,17 l 0,0.5 q 0,0.5 0.375,0.625 0.375,0.125 0.5,0.5 Q 12,19 12.5,19 l 0.5,0 0,0.5 q 0,0.5 0.5,0.5 l 0.5,0 0.5,0"
           id="path33026" />
        <path
           style="fill:#000000;fill-opacity:0.08627451"
           d="M 6,3.5 Q 6,3 6.5,3 L 7,3 7,3.5 7,4 6.5,4 6,4 6,3.5"
           id="path33028" />
        <path
           style="fill:#000000;fill-opacity:0.10588235"
           d="M 7,3.5 7,3 7.5,3 Q 8,3 8,3.5 L 8,4 7.5,4 7,4 7,3.5"
           id="path33030" />
        <path
           style="fill:#000000;fill-opacity:0.08627451"
           d="M 5,4.5 Q 5,4 5.5,4 L 6,4 6,4.5 6,5 5.5,5 5,5 5,4.5"
           id="path33032" />
        <path
           style="fill:#171717;fill-opacity:0.47058824"
           d="M 6,4.5 6,4 6.5,4 7,4 6.875,4.375 Q 6.75,4.75 6.375,4.875 L 6,5 6,4.5"
           id="path33034" />
        <path
           style="fill:#141414;fill-opacity:0.69411765"
           d="M 6.875,4.375 7,4 7.5,4 8,4 8.125,4.375 8.25,4.75 8.15625,4.46875 8.0625,4.1875 8.125,4.375 Q 8.1875,4.5625 8.3125,4.6875 L 8.4375,4.8125 8.375,4.75 8.3125,4.6875 8.015625,5.015625 7.71875,5.34375 7.765625,5.390625 7.8125,5.4375 7.71875,5.34375 Q 7.625,5.25 7.5,5.25 l -0.125,0 0.1875,0 0.1875,0 -0.25,0 -0.25,0 0.1875,0 0.1875,0 -0.125,0 q -0.125,0 -0.25,0.0625 L 7.125,5.375 7.1875,5.34375 7.25,5.3125 6.96875,5 6.6875,4.6875 6.625,4.75 6.5625,4.8125 6.6875,4.6875 Q 6.8125,4.5625 6.875,4.375 L 6.9375,4.1875 6.84375,4.46875 6.75,4.75 6.875,4.375"
           id="path33036" />
        <path
           style="fill:#000000;fill-opacity:0.10588235"
           d="M 8.125,4.375 8,4 8.5,4 Q 9,4 9,4.5 L 9,5 8.625,4.875 Q 8.25,4.75 8.125,4.375"
           id="path33038" />
        <path
           style="fill:#000000;fill-opacity:0.29411765"
           d="M 5,5.5 5,5 5.5,5 6,5 6,5.5 6,6 5.5,6 5,6 5,5.5"
           id="path33040" />
        <path
           style="fill:#2f2f2f;fill-opacity:0.87058824"
           d="M 6,5.5 6,5 6.375,4.875 6.75,4.75 6.46875,4.84375 6.1875,4.9375 6.375,4.875 Q 6.5625,4.8125 6.6875,4.6875 L 6.8125,4.5625 6.75,4.625 6.6875,4.6875 6.96875,5 7.25,5.3125 7.3125,5.28125 7.375,5.25 7.25,5.3125 Q 7.125,5.375 7,5.5 L 6.875,5.625 7.0625,5.4375 7.25,5.25 7,5.5 Q 6.75,5.75 6.375,5.875 L 6,6 6,5.5"
           id="path33042" />
        <path
           style="fill:#5b5b5b;fill-opacity:0.98823529"
           d="m 7,5.5 q 0.25,-0.25 0.5,-0.25 0.25,0 0.375,0.375 L 8,6 7.90625,5.71875 7.8125,5.4375 7.875,5.625 Q 7.9375,5.8125 7.96875,6.03125 L 8,6.25 7.984375,6.140625 7.96875,6.03125 7.609375,6.140625 7.25,6.25 7.53125,6.15625 7.8125,6.0625 7.625,6.125 Q 7.4375,6.1875 7.3125,6.3125 L 7.1875,6.4375 7.25,6.375 7.3125,6.3125 7.015625,6.015625 6.71875,5.71875 6.640625,5.765625 6.5625,5.8125 6.71875,5.71875 Q 6.875,5.625 7,5.5 L 7.125,5.375 6.9375,5.5625 6.75,5.75 7,5.5"
           id="path33044" />
        <path
           style="fill:#000000;fill-opacity:0.58039216"
           d="M 7.875,5.625 7.75,5.25 7.84375,5.53125 7.9375,5.8125 7.875,5.625 Q 7.8125,5.4375 7.71875,5.34375 L 7.625,5.25 7.671875,5.296875 7.71875,5.34375 8.015625,5.015625 8.3125,4.6875 8.25,4.625 8.1875,4.5625 8.3125,4.6875 Q 8.4375,4.8125 8.625,4.875 L 8.8125,4.9375 8.53125,4.84375 8.25,4.75 8.625,4.875 9,5 9,5.5 9,6 8.5,6 8,6 7.875,5.625"
           id="path33046" />
        <path
           style="fill:#000000;fill-opacity:0.32941176"
           d="M 5,6.5 5,6 5.5,6 6,6 6,6.5 6,7 5.5,7 5,7 5,6.5"
           id="path33048" />
        <path
           style="fill:#2f2f2f;fill-opacity:0.97647059"
           d="M 6,6.5 6,6 6.375,5.875 6.75,5.75 6.46875,5.84375 6.1875,5.9375 6.375,5.875 Q 6.5625,5.8125 6.71875,5.71875 L 6.875,5.625 6.796875,5.671875 6.71875,5.71875 7.015625,6.015625 7.3125,6.3125 7.375,6.25 7.4375,6.1875 7.3125,6.3125 Q 7.1875,6.4375 7.125,6.625 L 7.0625,6.8125 7.15625,6.53125 7.25,6.25 7.125,6.625 7,7 7.09375,6.71875 7.1875,6.4375 7.125,6.625 Q 7.0625,6.8125 7.03125,7.03125 L 7,7.25 7.015625,7.140625 7.03125,7.03125 6.515625,7.015625 6,7 6,6.5"
           id="path33050" />
        <path
           style="fill:#afafaf;fill-opacity:1"
           d="M 7.125,6.625 Q 7.25,6.25 7.609375,6.140625 L 7.96875,6.03125 7.953125,5.921875 7.9375,5.8125 7.96875,6.03125 Q 8,6.25 8,6.5 L 8,6.75 8,6.375 8,6 8,6.5 8,7 7.515625,7.015625 7.03125,7.03125 7.015625,7.140625 7,7.25 7.03125,7.03125 Q 7.0625,6.8125 7.125,6.625 L 7.1875,6.4375 7.09375,6.71875 7,7 7.125,6.625 M 8,7.125 8,7 8,6.625 8,6.25 8,6.5 Q 8,6.75 8,7 L 8,7.25 8,7.125"
           id="path33052" />
        <path
           style="fill:#000000;fill-opacity:0.91372549"
           d="M 8,6.5 8,6 8.5,6 9,6 9,6.5 9,7 8.5,7 8,7 8,6.5 M 8,6.625 8,7 8,7.125 8,7.25 8,7 Q 8,6.75 8,6.5 L 8,6.25 8,6.625"
           id="path33054" />
        <path
           style="fill:#000000;fill-opacity:0.30196078"
           d="M 5,7.5 5,7 5.5,7 6,7 6,7.5 6,8 5.5,8 5,8 5,7.5"
           id="path33056" />
        <path
           style="fill:#2a2a2a;fill-opacity:0.99607843"
           d="M 6,7.5 6,7 6.515625,7.015625 7.03125,7.03125 7.046875,6.921875 7.0625,6.8125 7.03125,7.03125 Q 7,7.25 7,7.5 L 7,7.75 7,7.375 7,7 7,7.5 7,8 6.5,8 6,8 6,7.5"
           id="path33058" />
        <path
           style="fill:#f1f1f1;fill-opacity:1"
           d="M 7,7.5 7,7 7,7.375 7,7.75 7,7.5 Q 7,7.25 7.03125,7.03125 L 7.0625,6.8125 7.046875,6.921875 7.03125,7.03125 7.515625,7.015625 8,7 8,7.5 8,8 7.5,8 7,8 7,7.5 M 8,7.375 8,7 8,6.875 8,6.75 8,7 Q 8,7.25 8,7.5 L 8,7.75 8,7.375"
           id="path33060" />
        <path
           style="fill:#101010;fill-opacity:1"
           d="M 8,7.5 8,7 8.5,7 9,7 9,7.5 9,8 8.515625,7.984375 8.03125,7.96875 8.046875,8.078125 8.0625,8.1875 8.03125,7.96875 Q 8,7.75 8,7.5 L 8,7.25 8,7.625 8,8 8,7.5 M 8,6.875 8,7 8,7.375 8,7.75 8,7.5 Q 8,7.25 8,7 L 8,6.75 8,6.875"
           id="path33062" />
        <path
           style="fill:#000000;fill-opacity:0.83529412"
           d="M 9,7.5 9,7 9.5,7 10,7 10.125,7.375 10.25,7.75 10.15625,7.46875 10.0625,7.1875 10.125,7.375 q 0.0625,0.1875 0.1875,0.3125 l 0.125,0.125 L 10.375,7.75 10.3125,7.6875 10,8 9.6875,8.3125 9.75,8.375 9.8125,8.4375 9.6875,8.3125 Q 9.5625,8.1875 9.375,8.125 L 9.1875,8.0625 9.46875,8.15625 9.75,8.25 9.375,8.125 9,8 9,7.5"
           id="path33064" />
        <path
           style="fill:#000000;fill-opacity:0.1372549"
           d="M 10.125,7.375 10,7 10.5,7 Q 11,7 11,7.5 L 11,8 10.625,7.875 q -0.375,-0.125 -0.5,-0.5"
           id="path33066" />
        <path
           style="fill:#000000;fill-opacity:0.32156863"
           d="M 5,8.5 5,8 5.5,8 6,8 5.875,8.375 Q 5.75,8.75 5.375,8.875 L 5,9 5,8.5"
           id="path33068" />
        <path
           style="fill:#2d2d2d;fill-opacity:1"
           d="M 5.875,8.375 6,8 6.5,8 7,8 7,8.5 7,9 6.625,9.125 6.25,9.25 6.53125,9.15625 6.8125,9.0625 6.625,9.125 Q 6.4375,9.1875 6.3125,9.3125 L 6.1875,9.4375 6.25,9.375 6.3125,9.3125 6,9 5.6875,8.6875 5.625,8.75 5.5625,8.8125 5.6875,8.6875 Q 5.8125,8.5625 5.875,8.375 L 5.9375,8.1875 5.84375,8.46875 5.75,8.75 5.875,8.375"
           id="path33070" />
        <path
           style="fill:#ffffff;fill-opacity:1"
           d="M 7,8.5 7,8 7.5,8 8,8 8.125,8.375 q 0.125,0.375 0.5,0.5 L 9,9 9.484375,9.015625 9.96875,9.03125 9.953125,8.921875 9.9375,8.8125 9.96875,9.03125 Q 10,9.25 10,9.5 L 10,9.75 10,9.375 10,9 10,9.5 q 0,0.5 0,1 0,0.5 0.125,0.875 L 10.25,11.75 10.15625,11.46875 10.0625,11.1875 10.125,11.375 q 0.0625,0.1875 0.15625,0.34375 L 10.375,11.875 10.328125,11.796875 10.28125,11.71875 9.984375,12.015625 9.6875,12.3125 9.75,12.375 9.8125,12.4375 9.6875,12.3125 Q 9.5625,12.1875 9.375,12.125 L 9.1875,12.0625 9.46875,12.15625 9.75,12.25 9.359375,12.140625 8.96875,12.03125 8.984375,12.140625 9,12.25 8.96875,12.03125 Q 8.9375,11.8125 8.875,11.625 L 8.8125,11.4375 8.90625,11.71875 9,12 8.875,11.625 8.75,11.25 8.84375,11.53125 8.9375,11.8125 8.875,11.625 Q 8.8125,11.4375 8.6875,11.3125 L 8.5625,11.1875 8.625,11.25 8.6875,11.3125 8.96875,11.03125 Q 9.25,10.75 9.125,10.375 9,10 8.625,9.875 8.25,9.75 7.96875,10.03125 L 7.6875,10.3125 7.75,10.375 7.8125,10.4375 7.6875,10.3125 Q 7.5625,10.1875 7.375,10.125 L 7.1875,10.0625 7.46875,10.15625 7.75,10.25 7.375,10.125 7,10 7,9.5 7,9 7,8.5 M 7,9.625 7,10 7,10.125 7,10.25 7,10 Q 7,9.75 7,9.5 L 7,9.25 7,9.625"
           id="path33072" />
        <path
           style="fill:#939393;fill-opacity:1"
           d="M 8.125,8.375 8,8 8.09375,8.28125 8.1875,8.5625 8.125,8.375 Q 8.0625,8.1875 8.03125,7.96875 L 8,7.75 8.015625,7.859375 8.03125,7.96875 8.515625,7.984375 9,8 9,8.5 9,9 8.625,8.875 Q 8.25,8.75 8.125,8.375"
           id="path33074" />
        <path
           style="fill:#909090;fill-opacity:1"
           d="M 9,8.5 9,8 9.375,8.125 q 0.375,0.125 0.5,0.5 L 10,9 9.90625,8.71875 9.8125,8.4375 9.875,8.625 Q 9.9375,8.8125 9.96875,9.03125 L 10,9.25 9.984375,9.140625 9.96875,9.03125 9.484375,9.015625 9,9 9,8.5"
           id="path33076" />
        <path
           style="fill:#141414;fill-opacity:0.92156863"
           d="M 9.875,8.625 9.75,8.25 9.84375,8.53125 9.9375,8.8125 9.875,8.625 Q 9.8125,8.4375 9.6875,8.3125 L 9.5625,8.1875 9.625,8.25 9.6875,8.3125 10,8 10.3125,7.6875 10.25,7.625 10.1875,7.5625 l 0.125,0.125 q 0.125,0.125 0.3125,0.1875 L 10.8125,7.9375 10.53125,7.84375 10.25,7.75 10.625,7.875 11,8 11.125,8.375 11.25,8.75 11.15625,8.46875 11.0625,8.1875 11.125,8.375 q 0.0625,0.1875 0.1875,0.3125 l 0.125,0.125 L 11.375,8.75 11.3125,8.6875 11,9 10.6875,9.3125 10.75,9.375 10.8125,9.4375 10.6875,9.3125 Q 10.5625,9.1875 10.375,9.125 L 10.1875,9.0625 10.46875,9.15625 10.75,9.25 10.375,9.125 10,9 9.875,8.625"
           id="path33078" />
        <path
           style="fill:#000000;fill-opacity:0.1372549"
           d="M 11.125,8.375 11,8 11.5,8 Q 12,8 12,8.5 L 12,9 11.625,8.875 q -0.375,-0.125 -0.5,-0.5"
           id="path33080" />
        <path
           style="fill:#000000;fill-opacity:0.39215686"
           d="M 5,9.5 5,9 5.375,8.875 5.75,8.75 5.46875,8.84375 5.1875,8.9375 5.375,8.875 Q 5.5625,8.8125 5.6875,8.6875 L 5.8125,8.5625 5.75,8.625 5.6875,8.6875 6,9 6.3125,9.3125 6.375,9.25 6.4375,9.1875 6.3125,9.3125 Q 6.1875,9.4375 6.125,9.625 L 6.0625,9.8125 6.15625,9.53125 6.25,9.25 6.125,9.625 6,10 5.5,10 5,10 5,9.5"
           id="path33082" />
        <path
           style="fill:#383838;fill-opacity:1"
           d="M 6.125,9.625 Q 6.25,9.25 6.625,9.125 L 7,9 7,9.5 7,10 6.5,10 6,10 6.125,9.625 M 7,10.125 7,10 7,9.625 7,9.25 7,9.5 Q 7,9.75 7,10 l 0,0.25 0,-0.125"
           id="path33084" />
        <path
           style="fill:#3c3c3c;fill-opacity:1"
           d="M 10,9.5 10,9 10.375,9.125 q 0.375,0.125 0.5,0.5 L 11,10 10.90625,9.71875 10.8125,9.4375 10.875,9.625 q 0.0625,0.1875 0.09375,0.40625 L 11,10.25 10.984375,10.140625 10.96875,10.03125 10.484375,10.015625 10,10 10,9.5 m 0,0.125 0,0.375 0,0.125 0,0.125 0,-0.25 q 0,-0.25 0,-0.5 l 0,-0.25 0,0.375"
           id="path33086" />
        <path
           style="fill:#000000;fill-opacity:0.41568627"
           d="M 10.875,9.625 10.75,9.25 10.84375,9.53125 10.9375,9.8125 10.875,9.625 Q 10.8125,9.4375 10.6875,9.3125 L 10.5625,9.1875 10.625,9.25 10.6875,9.3125 11,9 11.3125,8.6875 11.25,8.625 11.1875,8.5625 l 0.125,0.125 q 0.125,0.125 0.3125,0.1875 L 11.8125,8.9375 11.53125,8.84375 11.25,8.75 11.625,8.875 12,9 12,9.5 12,10 11.5,10 11,10 10.875,9.625"
           id="path33088" />
        <path
           style="fill:#000000;fill-opacity:0.42745098"
           d="M 5,10.5 5,10 5.5,10 6,10 6.125,10.375 6.25,10.75 6.15625,10.46875 6.0625,10.1875 6.125,10.375 q 0.0625,0.1875 0.1875,0.3125 l 0.125,0.125 L 6.375,10.75 6.3125,10.6875 6,11 5.6875,11.3125 5.75,11.375 5.8125,11.4375 5.6875,11.3125 Q 5.5625,11.1875 5.375,11.125 L 5.1875,11.0625 5.46875,11.15625 5.75,11.25 5.375,11.125 5,11 5,10.5"
           id="path33090" />
        <path
           style="fill:#3c3c3c;fill-opacity:0.98431373"
           d="M 6.125,10.375 6,10 6.5,10 7,10 7,10.5 7,11 7,10.625 7,10.25 7,10.5 q 0,0.25 0.125,0.375 L 7.25,11 7.1875,10.9375 7.125,10.875 6.6875,10.8125 Q 6.25,10.75 6.125,10.375 M 7,10.375 7,10 7,9.875 7,9.75 7,10 q 0,0.25 0,0.5 l 0,0.25 0,-0.375"
           id="path33092" />
        <path
           style="fill:#bebebe;fill-opacity:1"
           d="M 7,10.5 7,10 7.375,10.125 Q 7.75,10.25 7.859375,10.640625 L 7.96875,11.03125 8.078125,11.046875 8.1875,11.0625 7.96875,11.03125 Q 7.75,11 7.5,11 L 7.25,11 7.625,11 8,11 7.5,11 Q 7,11 7,10.5 M 7,9.875 7,10 7,10.375 7,10.75 7,10.5 Q 7,10.25 7,10 L 7,9.75 7,9.875"
           id="path33094" />
        <path
           style="fill:#d2d2d2;fill-opacity:1"
           d="M 7.859375,10.640625 7.75,10.25 7.84375,10.53125 7.9375,10.8125 7.875,10.625 Q 7.8125,10.4375 7.6875,10.3125 L 7.5625,10.1875 7.625,10.25 7.6875,10.3125 7.96875,10.03125 Q 8.25,9.75 8.625,9.875 9,10 9.125,10.375 9.25,10.75 8.96875,11.03125 L 8.6875,11.3125 8.75,11.375 8.8125,11.4375 8.6875,11.3125 Q 8.5625,11.1875 8.375,11.125 L 8.1875,11.0625 8.46875,11.15625 8.75,11.25 8.375,11.125 8,11 8.28125,11.09375 8.5625,11.1875 8.375,11.125 Q 8.1875,11.0625 7.96875,11.03125 L 7.75,11 7.859375,11.015625 7.96875,11.03125 7.859375,10.640625"
           id="path33096" />
        <path
           style="fill:#767676;fill-opacity:1"
           d="m 10,10.5 0,-0.5 0.484375,0.01563 0.484375,0.01563 L 10.953125,9.921875 10.9375,9.8125 10.96875,10.03125 Q 11,10.25 11,10.5 l 0,0.25 0,-0.375 0,-0.375 0,0.5 0,0.5 0,-0.375 0,-0.375 0,0.25 q 0,0.25 0.03125,0.46875 l 0.03125,0.21875 -0.01563,-0.109375 -0.01563,-0.109375 -0.5,0 -0.5,0 0.01563,0.109375 0.01563,0.109375 -0.03125,-0.21875 Q 10,10.75 10,10.5 l 0,-0.25 0,0.375 0,0.375 0,-0.5 m 0,-0.625 0,0.125 0,0.375 0,0.375 0,-0.25 q 0,-0.25 0,-0.5 l 0,-0.25 0,0.125"
           id="path33098" />
        <path
           style="fill:#000000;fill-opacity:0.70980392"
           d="m 11,10.5 0,-0.5 0.5,0 0.5,0 0,0.5 0,0.5 -0.484375,-0.01563 -0.484375,-0.01563 0.01563,0.109375 0.01563,0.109375 -0.03125,-0.21875 Q 11,10.75 11,10.5 l 0,-0.25 0,0.375 0,0.375 0,-0.5"
           id="path33100" />
        <path
           style="fill:#000000;fill-opacity:0.03921569"
           d="M 5,11.5 5,11 5.375,11.125 q 0.375,0.125 0.5,0.5 L 6,12 5.5,12 Q 5,12 5,11.5"
           id="path33102" />
        <path
           style="fill:#0b0b0b;fill-opacity:0.4745098"
           d="M 5.875,11.625 5.75,11.25 5.84375,11.53125 5.9375,11.8125 5.875,11.625 Q 5.8125,11.4375 5.6875,11.3125 L 5.5625,11.1875 5.625,11.25 5.6875,11.3125 6,11 6.3125,10.6875 6.25,10.625 6.1875,10.5625 l 0.125,0.125 q 0.125,0.125 0.3125,0.1875 L 6.8125,10.9375 6.53125,10.84375 6.25,10.75 6.6875,10.8125 7.125,10.875 7.0625,11.4375 7,12 6.5,12 6,12 5.875,11.625"
           id="path33104" />
        <path
           style="fill:#000000;fill-opacity:0.97647059"
           d="M 7.0625,11.4375 7.125,10.875 7.0625,10.8125 7,10.75 7.125,10.875 Q 7.25,11 7.5,11 L 7.75,11 7.375,11 7,11 7.5,11 8,11 7.625,11 7.25,11 7.5,11 q 0.25,0 0.46875,0.03125 L 8.1875,11.0625 8.078125,11.046875 7.96875,11.03125 8.109375,11.390625 8.25,11.75 8.15625,11.46875 8.0625,11.1875 8.125,11.375 q 0.0625,0.1875 0.1875,0.3125 l 0.125,0.125 L 8.375,11.75 8.3125,11.6875 8,12 7.6875,12.3125 7.75,12.375 7.8125,12.4375 7.6875,12.3125 Q 7.5625,12.1875 7.375,12.125 L 7.1875,12.0625 7.46875,12.15625 7.75,12.25 7.375,12.125 7,12 7.0625,11.4375"
           id="path33106" />
        <path
           style="fill:#616161;fill-opacity:1"
           d="M 8.109375,11.390625 7.96875,11.03125 7.859375,11.015625 7.75,11 7.96875,11.03125 Q 8.1875,11.0625 8.375,11.125 L 8.5625,11.1875 8.28125,11.09375 8,11 8.375,11.125 q 0.375,0.125 0.5,0.5 L 9,12 8.90625,11.71875 8.8125,11.4375 8.875,11.625 q 0.0625,0.1875 0.09375,0.40625 L 9,12.25 8.984375,12.140625 8.96875,12.03125 8.609375,11.890625 q -0.359375,-0.140625 -0.5,-0.5"
           id="path33108" />
        <path
           style="fill:#b3b3b3;fill-opacity:1"
           d="M 10.125,11.375 10,11 10.09375,11.28125 10.1875,11.5625 10.125,11.375 Q 10.0625,11.1875 10.03125,10.96875 L 10,10.75 l 0.01563,0.109375 0.01563,0.109375 0.5,0 0.5,0 -0.01563,-0.109375 L 11,10.75 11.03125,10.96875 Q 11.0625,11.1875 11.125,11.375 L 11.1875,11.5625 11.09375,11.28125 11,11 11.125,11.375 11.25,11.75 11.15625,11.46875 11.0625,11.1875 11.125,11.375 q 0.0625,0.1875 0.1875,0.3125 l 0.125,0.125 L 11.375,11.75 11.3125,11.6875 11.03125,11.96875 10.75,12.25 10.5,12 Q 10.25,11.75 10.125,11.375 M 10.5625,12.0625 10.75,12.25 10.8125,12.3125 10.875,12.375 10.75,12.25 Q 10.625,12.125 10.5,12 l -0.125,-0.125 0.1875,0.1875"
           id="path33110" />
        <path
           style="fill:#000000;fill-opacity:0.98039216"
           d="M 11.125,11.375 11,11 11.09375,11.28125 11.1875,11.5625 11.125,11.375 Q 11.0625,11.1875 11.03125,10.96875 L 11,10.75 l 0.01563,0.109375 0.01563,0.109375 0.484375,0.01563 L 12,11 l 0,0.5 0,0.5 -0.375,-0.125 q -0.375,-0.125 -0.5,-0.5"
           id="path33112" />
        <path
           style="fill:#000000;fill-opacity:0.70980392"
           d="m 12,11.5 0,-0.5 0.5,0 q 0.5,0 0.625,0.375 0.125,0.375 0.5,0.5 Q 14,12 14,12.5 l 0,0.5 -0.515625,0.01563 -0.515625,0.01563 0.01563,0.109375 L 13,13.25 12.96875,13.03125 Q 12.9375,12.8125 12.875,12.625 L 12.8125,12.4375 12.90625,12.71875 13,13 12.875,12.625 q -0.125,-0.375 -0.5,-0.5 L 12,12 12,11.5"
           id="path33114" />
        <path
           style="fill:#000000;fill-opacity:0.03921569"
           d="M 6,12.5 6,12 6.5,12 7,12 7,12.5 7,13 6.5,13 Q 6,13 6,12.5"
           id="path33116" />
        <path
           style="fill:#000000;fill-opacity:0.32156863"
           d="M 7,12.5 7,12 7.375,12.125 q 0.375,0.125 0.5,0.5 L 8,13 7.5,13 7,13 7,12.5"
           id="path33118" />
        <path
           style="fill:#2d2d2d;fill-opacity:1"
           d="M 7.875,12.625 7.75,12.25 7.84375,12.53125 7.9375,12.8125 7.875,12.625 Q 7.8125,12.4375 7.6875,12.3125 L 7.5625,12.1875 7.625,12.25 7.6875,12.3125 8,12 8.3125,11.6875 8.25,11.625 8.1875,11.5625 l 0.125,0.125 q 0.125,0.125 0.3125,0.1875 L 8.8125,11.9375 8.53125,11.84375 8.25,11.75 8.609375,11.890625 8.96875,12.03125 8.953125,11.921875 8.9375,11.8125 8.96875,12.03125 Q 9,12.25 9,12.5 L 9,12.75 9,12.375 9,12 9,12.5 9,13 8.5,13 8,13 7.875,12.625"
           id="path33120" />
        <path
           style="fill:#fefefe;fill-opacity:1"
           d="M 9,12.5 9,12 9,12.375 9,12.75 9,12.5 Q 9,12.25 8.96875,12.03125 L 8.9375,11.8125 8.953125,11.921875 8.96875,12.03125 9.359375,12.140625 Q 9.75,12.25 9.875,12.625 L 10,13 9.5,13 9,13 9,12.5"
           id="path33122" />
        <path
           style="fill:#eaeaea;fill-opacity:1"
           d="M 9.875,12.625 9.75,12.25 9.84375,12.53125 9.9375,12.8125 9.875,12.625 Q 9.8125,12.4375 9.6875,12.3125 l -0.125,-0.125 0.0625,0.0625 0.0625,0.0625 0.296875,-0.296875 0.296875,-0.296875 -0.04687,-0.07813 -0.04687,-0.07813 0.09375,0.15625 Q 10.375,11.875 10.5,12 L 10.625,12.125 10.4375,11.9375 10.25,11.75 10.5,12 q 0.25,0.25 0.5,0.5 L 11.25,12.75 11.0625,12.5625 10.875,12.375 11,12.5 q 0.125,0.125 0.28125,0.21875 l 0.15625,0.09375 -0.07813,-0.04687 -0.07813,-0.04687 -0.265625,0.265625 Q 10.75,13.25 10.375,13.125 L 10,13 9.875,12.625"
           id="path33124" />
        <path
           style="fill:#8e8e8e;fill-opacity:1"
           d="M 11,12.5 10.75,12.25 11.03125,11.96875 11.3125,11.6875 11.25,11.625 l -0.0625,-0.0625 0.125,0.125 q 0.125,0.125 0.3125,0.1875 L 11.8125,11.9375 11.53125,11.84375 11.25,11.75 11.625,11.875 12,12 12,12.5 12,13 11.625,12.875 Q 11.25,12.75 11,12.5 M 10.6875,12.1875 10.75,12.25 10.9375,12.4375 11.125,12.625 11,12.5 q -0.125,-0.125 -0.25,-0.25 l -0.125,-0.125 0.0625,0.0625"
           id="path33126" />
        <path
           style="fill:#767676;fill-opacity:0.99607843"
           d="m 12,12.5 0,-0.5 0.375,0.125 q 0.375,0.125 0.5,0.5 L 13,13 12.90625,12.71875 12.8125,12.4375 12.875,12.625 q 0.0625,0.1875 0.09375,0.40625 L 13,13.25 12.984375,13.140625 12.96875,13.03125 12.484375,13.015625 12,13 12,12.5"
           id="path33128" />
        <path
           style="fill:#000000;fill-opacity:0.03921569"
           d="M 7,13.5 7,13 7.5,13 8,13 8,13.5 8,14 7.5,14 Q 7,14 7,13.5"
           id="path33130" />
        <path
           style="fill:#050505;fill-opacity:0.99215686"
           d="M 8,13.5 8,13 8.5,13 9,13 9,13.5 9,14 9,13.625 9,13.25 9,13.5 q 0,0.25 0.03125,0.46875 L 9.0625,14.1875 9.046875,14.078125 9.03125,13.96875 8.515625,13.984375 8,14 8,13.5"
           id="path33132" />
        <path
           style="fill:#e2e2e2;fill-opacity:1"
           d="M 9,13.5 9,13 9.5,13 10,13 10.125,13.375 10.25,13.75 10.15625,13.46875 10.0625,13.1875 10.125,13.375 q 0.0625,0.1875 0.1875,0.3125 l 0.125,0.125 L 10.375,13.75 10.3125,13.6875 10,14 9.6875,14.3125 9.75,14.375 9.8125,14.4375 9.6875,14.3125 Q 9.5625,14.1875 9.375,14.125 L 9.1875,14.0625 9.46875,14.15625 9.75,14.25 9.390625,14.109375 9.03125,13.96875 9.046875,14.078125 9.0625,14.1875 9.03125,13.96875 Q 9,13.75 9,13.5 L 9,13.25 9,13.625 9,14 9,13.5"
           id="path33134" />
        <path
           style="fill:#ffffff;fill-opacity:1"
           d="M 10.125,13.375 10,13 l 0.375,0.125 q 0.375,0.125 0.640625,-0.140625 L 11.28125,12.71875 11.203125,12.671875 11.125,12.625 11.28125,12.71875 Q 11.4375,12.8125 11.625,12.875 L 11.8125,12.9375 11.53125,12.84375 11.25,12.75 11.625,12.875 12,13 11.71875,12.90625 11.4375,12.8125 11.625,12.875 q 0.1875,0.0625 0.40625,0.09375 L 12.25,13 12.140625,12.984375 12.03125,12.96875 12.140625,13.359375 12.25,13.75 12.15625,13.46875 12.0625,13.1875 12.125,13.375 q 0.0625,0.1875 0.1875,0.3125 l 0.125,0.125 -0.0625,-0.0625 -0.0625,-0.0625 -0.296875,0.296875 -0.296875,0.296875 0.07813,0.04687 L 11.875,14.375 11.71875,14.28125 Q 11.5625,14.1875 11.375,14.125 L 11.1875,14.0625 11.46875,14.15625 11.75,14.25 11.375,14.125 11,14 10.625,13.875 q -0.375,-0.125 -0.5,-0.5"
           id="path33136" />
        <path
           style="fill:#cacaca;fill-opacity:1"
           d="M 12.140625,13.359375 12.03125,12.96875 11.921875,12.953125 11.8125,12.9375 12.03125,12.96875 Q 12.25,13 12.5,13 l 0.25,0 -0.375,0 -0.375,0 0.484375,0.01563 0.484375,0.01563 -0.01563,-0.109375 -0.01563,-0.109375 0.03125,0.21875 Q 13,13.25 13,13.5 l 0,0.25 0,-0.375 0,-0.375 0,0.5 0,0.5 -0.375,-0.125 Q 12.25,13.75 12.140625,13.359375"
           id="path33138" />
        <path
           style="fill:#000000;fill-opacity:0.96078431"
           d="m 13,13.5 0,-0.5 0,0.375 0,0.375 0,-0.25 q 0,-0.25 -0.03125,-0.46875 l -0.03125,-0.21875 0.01563,0.109375 0.01563,0.109375 0.515625,-0.01563 L 14,13 l 0,0.5 0,0.5 -0.5,0 -0.5,0 0,-0.5"
           id="path33140" />
        <path
           style="fill:#000000;fill-opacity:0.87843137"
           d="M 8,14.5 8,14 8.515625,13.984375 9.03125,13.96875 9.015625,13.859375 9,13.75 9.03125,13.96875 Q 9.0625,14.1875 9.125,14.375 L 9.1875,14.5625 9.09375,14.28125 9,14 9.125,14.375 9.25,14.75 9.15625,14.46875 9.0625,14.1875 9.125,14.375 q 0.0625,0.1875 0.1875,0.3125 l 0.125,0.125 L 9.375,14.75 9.3125,14.6875 9,15 8.6875,15.3125 8.75,15.375 8.8125,15.4375 8.6875,15.3125 Q 8.5625,15.1875 8.375,15.125 L 8.1875,15.0625 8.46875,15.15625 8.75,15.25 8.375,15.125 8,15 8,14.5"
           id="path33142" />
        <path
           style="fill:#a4a4a4;fill-opacity:1"
           d="M 9.125,14.375 9,14 9.09375,14.28125 9.1875,14.5625 9.125,14.375 Q 9.0625,14.1875 9.03125,13.96875 L 9,13.75 9.015625,13.859375 9.03125,13.96875 9.390625,14.109375 Q 9.75,14.25 9.875,14.625 L 10,15 9.625,14.875 q -0.375,-0.125 -0.5,-0.5"
           id="path33144" />
        <path
           style="fill:#d0d0d0;fill-opacity:1"
           d="M 9.875,14.625 9.75,14.25 9.84375,14.53125 9.9375,14.8125 9.875,14.625 Q 9.8125,14.4375 9.6875,14.3125 L 9.5625,14.1875 9.625,14.25 9.6875,14.3125 10,14 10.3125,13.6875 10.25,13.625 l -0.0625,-0.0625 0.125,0.125 q 0.125,0.125 0.3125,0.1875 L 10.8125,13.9375 10.53125,13.84375 10.25,13.75 10.625,13.875 11,14 l -0.01563,0.515625 -0.01563,0.515625 0.109375,0.01563 0.109375,0.01563 -0.21875,-0.03125 Q 10.75,15 10.5,15 l -0.25,0 0.375,0 L 11,15 10.5,15 10,15 9.875,14.625"
           id="path33146" />
        <path
           style="fill:#f1f1f1;fill-opacity:1"
           d="M 10.984375,14.515625 11,14 11.375,14.125 Q 11.75,14.25 12,14.5 L 12.25,14.75 12.0625,14.5625 11.875,14.375 12,14.5 q 0.125,0.125 0.28125,0.21875 l 0.15625,0.09375 -0.07813,-0.04687 -0.07813,-0.04687 -0.296875,0.296875 -0.296875,0.296875 0.0625,0.0625 0.0625,0.0625 -0.125,-0.125 Q 11.5625,15.1875 11.375,15.125 L 11.1875,15.0625 11.46875,15.15625 11.75,15.25 11.375,15.125 11,15 11.28125,15.09375 11.5625,15.1875 11.375,15.125 Q 11.1875,15.0625 10.96875,15.03125 L 10.75,15 l 0.109375,0.01563 0.109375,0.01563 0.01563,-0.515625"
           id="path33148" />
        <path
           style="fill:#eaeaea;fill-opacity:1"
           d="M 12,14.5 11.75,14.25 11.9375,14.4375 12.125,14.625 12,14.5 q -0.125,-0.125 -0.28125,-0.21875 l -0.15625,-0.09375 0.07813,0.04687 0.07813,0.04687 0.296875,-0.296875 L 12.3125,13.6875 12.25,13.625 l -0.0625,-0.0625 0.125,0.125 q 0.125,0.125 0.3125,0.1875 L 12.8125,13.9375 12.53125,13.84375 12.25,13.75 12.625,13.875 13,14 13,14.5 13,15 12.625,14.875 Q 12.25,14.75 12,14.5"
           id="path33150" />
        <path
           style="fill:#090909;fill-opacity:0.99607843"
           d="m 13,14.5 0,-0.5 0.5,0 0.5,0 0,0.5 0,0.5 -0.5,0 -0.5,0 0,-0.5"
           id="path33152" />
        <path
           style="fill:#000000;fill-opacity:0.07058824"
           d="m 14,14.5 0,-0.5 0.5,0 q 0.5,0 0.5,0.5 l 0,0.5 -0.5,0 -0.5,0 0,-0.5"
           id="path33154" />
        <path
           style="fill:#000000;fill-opacity:0.09803922"
           d="M 8,15.5 8,15 8.375,15.125 q 0.375,0.125 0.5,0.5 L 9,16 8.5,16 Q 8,16 8,15.5"
           id="path33156" />
        <path
           style="fill:#0f0f0f;fill-opacity:0.89411765"
           d="M 8.875,15.625 8.75,15.25 8.84375,15.53125 8.9375,15.8125 8.875,15.625 Q 8.8125,15.4375 8.6875,15.3125 L 8.5625,15.1875 8.625,15.25 8.6875,15.3125 9,15 9.3125,14.6875 9.25,14.625 9.1875,14.5625 l 0.125,0.125 q 0.125,0.125 0.3125,0.1875 L 9.8125,14.9375 9.53125,14.84375 9.25,14.75 9.625,14.875 10,15 10,15.5 10,16 9.5,16 9,16 8.875,15.625"
           id="path33158" />
        <path
           style="fill:#000000;fill-opacity:0.98823529"
           d="m 10,15.5 0,-0.5 0.5,0 0.5,0 -0.375,0 -0.375,0 0.25,0 q 0.25,0 0.46875,0.03125 L 11.1875,15.0625 11.078125,15.046875 10.96875,15.03125 11.109375,15.390625 11.25,15.75 11.15625,15.46875 11.0625,15.1875 11.125,15.375 q 0.0625,0.1875 0.1875,0.3125 l 0.125,0.125 L 11.375,15.75 11.3125,15.6875 11,16 l -0.3125,0.3125 0.0625,0.0625 0.0625,0.0625 -0.125,-0.125 Q 10.5625,16.1875 10.375,16.125 L 10.1875,16.0625 10.46875,16.15625 10.75,16.25 10.375,16.125 10,16 10,15.5"
           id="path33160" />
        <path
           style="fill:#616161;fill-opacity:1"
           d="M 11.109375,15.390625 10.96875,15.03125 10.859375,15.015625 10.75,15 10.96875,15.03125 Q 11.1875,15.0625 11.375,15.125 L 11.5625,15.1875 11.28125,15.09375 11,15 l 0.375,0.125 q 0.375,0.125 0.5,0.5 L 12,16 11.625,15.875 Q 11.25,15.75 11.109375,15.390625"
           id="path33162" />
        <path
           style="fill:#ffffff;fill-opacity:1"
           d="M 11.875,15.625 11.75,15.25 11.84375,15.53125 11.9375,15.8125 11.875,15.625 q -0.0625,-0.1875 -0.1875,-0.3125 l -0.125,-0.125 0.0625,0.0625 0.0625,0.0625 0.296875,-0.296875 0.296875,-0.296875 -0.07813,-0.04687 L 12.125,14.625 12.28125,14.71875 Q 12.4375,14.8125 12.625,14.875 L 12.8125,14.9375 12.53125,14.84375 12.25,14.75 12.625,14.875 13,15 l 0,0.5 0,0.5 -0.5,0 -0.5,0 -0.125,-0.375"
           id="path33164" />
        <path
           style="fill:#282828;fill-opacity:1"
           d="m 13,15.5 0,-0.5 0.5,0 0.5,0 0.125,0.375 0.125,0.375 -0.09375,-0.28125 -0.09375,-0.28125 0.0625,0.1875 q 0.0625,0.1875 0.1875,0.3125 l 0.125,0.125 L 14.375,15.75 14.3125,15.6875 14,16 l -0.3125,0.3125 0.0625,0.0625 0.0625,0.0625 -0.125,-0.125 Q 13.5625,16.1875 13.375,16.125 L 13.1875,16.0625 13.46875,16.15625 13.75,16.25 13.375,16.125 13,16 13,15.5"
           id="path33166" />
        <path
           style="fill:#000000;fill-opacity:0.29019608"
           d="M 14.125,15.375 14,15 l 0.5,0 0.5,0 0,0.5 0,0.5 -0.375,-0.125 q -0.375,-0.125 -0.5,-0.5"
           id="path33168" />
        <path
           style="fill:#000000;fill-opacity:0.09803922"
           d="m 9,16.5 0,-0.5 0.5,0 0.5,0 0,0.5 Q 10,17 9.5,17 9,17 9,16.5"
           id="path33170" />
        <path
           style="fill:#000000;fill-opacity:0.98431373"
           d="M 10.875,16.625 10.75,16.25 10.84375,16.53125 10.9375,16.8125 10.875,16.625 q -0.0625,-0.1875 -0.1875,-0.3125 l -0.125,-0.125 0.0625,0.0625 0.0625,0.0625 L 11,16 11.3125,15.6875 11.25,15.625 l -0.0625,-0.0625 0.125,0.125 q 0.125,0.125 0.3125,0.1875 L 11.8125,15.9375 11.53125,15.84375 11.25,15.75 11.625,15.875 12,16 l 0,0.5 0,0.5 0,-0.375 0,-0.375 0,0.25 q 0,0.25 0.125,0.375 L 12.25,17 12.1875,16.9375 12.125,16.875 11.5625,16.9375 11,17 10.875,16.625"
           id="path33172" />
        <path
           style="fill:#cbcbcb;fill-opacity:1"
           d="m 12,16.5 0,-0.5 0.5,0 0.5,0 -0.125,0.375 q -0.125,0.375 -0.5,0.5 Q 12,17 12,16.5"
           id="path33174" />
        <path
           style="fill:#606060;fill-opacity:0.99607843"
           d="M 12.875,16.375 13,16 l 0.375,0.125 q 0.375,0.125 0.5,0.5 L 14,17 13.625,17.125 13.25,17.25 13.53125,17.15625 13.8125,17.0625 13.625,17.125 q -0.1875,0.0625 -0.28125,0.15625 L 13.25,17.375 13.296875,17.328125 13.34375,17.28125 13.015625,16.984375 12.6875,16.6875 12.625,16.75 l -0.0625,0.0625 0.125,-0.125 q 0.125,-0.125 0.1875,-0.3125 L 12.9375,16.1875 12.84375,16.46875 12.75,16.75 12.875,16.375"
           id="path33176" />
        <path
           style="fill:#000000;fill-opacity:0.61176471"
           d="M 13.875,16.625 13.75,16.25 13.84375,16.53125 13.9375,16.8125 13.875,16.625 q -0.0625,-0.1875 -0.1875,-0.3125 l -0.125,-0.125 0.0625,0.0625 0.0625,0.0625 L 14,16 14.3125,15.6875 14.25,15.625 l -0.0625,-0.0625 0.125,0.125 q 0.125,0.125 0.3125,0.1875 L 14.8125,15.9375 14.53125,15.84375 14.25,15.75 14.625,15.875 15,16 l 0,0.5 0,0.5 -0.5,0 -0.5,0 -0.125,-0.375"
           id="path33178" />
        <path
           style="fill:#000000;fill-opacity:0.41568627"
           d="M 11,17.5 11,17 11.5625,16.9375 12.125,16.875 12.1875,17.3125 12.25,17.75 12.15625,17.46875 12.0625,17.1875 12.125,17.375 q 0.0625,0.1875 0.15625,0.34375 L 12.375,17.875 12.328125,17.796875 12.28125,17.71875 11.984375,18.015625 11.6875,18.3125 11.75,18.375 l 0.0625,0.0625 -0.125,-0.125 Q 11.5625,18.1875 11.375,18.125 L 11.1875,18.0625 11.46875,18.15625 11.75,18.25 11.375,18.125 Q 11,18 11,17.5"
           id="path33180" />
        <path
           style="fill:#3c3c3c;fill-opacity:0.99215686"
           d="M 12.1875,17.3125 12.125,16.875 12.0625,16.8125 12,16.75 12.125,16.875 Q 12.25,17 12.5,17 l 0.25,0 -0.375,0 L 12,17 12.375,16.875 12.75,16.75 12.46875,16.84375 12.1875,16.9375 12.375,16.875 q 0.1875,-0.0625 0.3125,-0.1875 l 0.125,-0.125 -0.0625,0.0625 -0.0625,0.0625 0.328125,0.296875 0.328125,0.296875 0.04687,-0.04687 0.04687,-0.04687 -0.09375,0.09375 Q 13.25,17.375 13.25,17.5 l 0,0.125 0,-0.1875 0,-0.1875 0,0.25 0,0.25 0,-0.1875 0,-0.1875 0,0.125 q 0,0.125 0.0625,0.1875 L 13.375,17.75 13.34375,17.71875 13.3125,17.6875 l -0.296875,0.296875 -0.296875,0.296875 0.04687,0.07813 0.04687,0.07813 -0.09375,-0.15625 Q 12.625,18.125 12.5,18 L 12.375,17.875 12.5625,18.0625 12.75,18.25 12.5,18 q -0.25,-0.25 -0.3125,-0.6875"
           id="path33182" />
        <path
           style="fill:#7b7b7b;fill-opacity:0.98823529"
           d="m 13.25,17.5 q 0,-0.25 0.375,-0.375 L 14,17 13.875,17.375 Q 13.75,17.75 13.5,17.75 q -0.25,0 -0.25,-0.25"
           id="path33184" />
        <path
           style="fill:#000000;fill-opacity:0.73333333"
           d="M 13.875,17.375 14,17 l 0.5,0 0.5,0 0,0.5 0,0.5 -0.375,0.125 -0.375,0.125 0.28125,-0.09375 0.28125,-0.09375 -0.1875,0.0625 q -0.1875,0.0625 -0.3125,0.1875 l -0.125,0.125 L 14.25,18.375 14.3125,18.3125 14.015625,17.984375 13.71875,17.65625 13.671875,17.703125 13.625,17.75 13.71875,17.65625 Q 13.8125,17.5625 13.875,17.375 L 13.9375,17.1875 13.84375,17.46875 13.75,17.75 13.875,17.375"
           id="path33186" />
        <path
           style="fill:#000000;fill-opacity:0.58039216"
           d="M 11.875,18.625 11.75,18.25 11.84375,18.53125 11.9375,18.8125 11.875,18.625 q -0.0625,-0.1875 -0.1875,-0.3125 l -0.125,-0.125 0.0625,0.0625 0.0625,0.0625 0.296875,-0.296875 0.296875,-0.296875 -0.04687,-0.07813 -0.04687,-0.07813 0.09375,0.15625 Q 12.375,17.875 12.5,18 L 12.625,18.125 12.4375,17.9375 12.25,17.75 12.5,18 q 0.25,0.25 0.375,0.625 L 13,19 12.5,19 Q 12,19 11.875,18.625"
           id="path33188" />
        <path
           style="fill:#2d2d2d;fill-opacity:0.85882353"
           d="M 12.875,18.625 12.75,18.25 12.84375,18.53125 12.9375,18.8125 12.875,18.625 Q 12.8125,18.4375 12.71875,18.28125 L 12.625,18.125 l 0.04687,0.07813 0.04687,0.07813 0.296875,-0.296875 L 13.3125,17.6875 13.28125,17.65625 13.25,17.625 13.3125,17.6875 Q 13.375,17.75 13.5,17.75 l 0.125,0 -0.1875,0 -0.1875,0 0.25,0 0.25,0 -0.1875,0 -0.1875,0 0.125,0 q 0.125,0 0.21875,-0.09375 l 0.09375,-0.09375 -0.04687,0.04687 -0.04687,0.04687 0.296875,0.328125 0.296875,0.328125 0.0625,-0.0625 0.0625,-0.0625 -0.125,0.125 q -0.125,0.125 -0.1875,0.3125 L 14.0625,18.8125 14.15625,18.53125 14.25,18.25 14.125,18.625 14,19 13.5,19 13,19 12.875,18.625"
           id="path33190" />
        <path
           style="fill:#030303;fill-opacity:0.29411765"
           d="m 14.125,18.625 q 0.125,-0.375 0.5,-0.5 L 15,18 l 0,0.5 0,0.5 -0.5,0 -0.5,0 0.125,-0.375"
           id="path33192" />
        <path
           style="fill:#000000;fill-opacity:0.00784314"
           d="m 15,18.5 0,-0.5 0.5,0 Q 16,18 16,18.5 16,19 15.5,19 l -0.5,0 0,-0.5"
           id="path33194" />
        <path
           style="fill:#000000;fill-opacity:0.28235294"
           d="m 13,19.5 0,-0.5 0.5,0 0.5,0 0,0.5 0,0.5 -0.5,0 Q 13,20 13,19.5"
           id="path33196" />
        <path
           style="fill:#000000;fill-opacity:0.00784314"
           d="m 14,19.5 0,-0.5 0.5,0 0.5,0 0,0.5 Q 15,20 14.5,20 l -0.5,0 0,-0.5"
           id="path33198" />
      </g>
    </g>
  </g>
</svg>
