<?xml version="1.0" encoding="UTF-8" standalone="no"?>
<!-- Created with Inkscape (http://www.inkscape.org/) -->

<svg
   xmlns:dc="http://purl.org/dc/elements/1.1/"
   xmlns:cc="http://creativecommons.org/ns#"
   xmlns:rdf="http://www.w3.org/1999/02/22-rdf-syntax-ns#"
   xmlns:svg="http://www.w3.org/2000/svg"
   xmlns="http://www.w3.org/2000/svg"
   xmlns:sodipodi="http://sodipodi.sourceforge.net/DTD/sodipodi-0.dtd"
   xmlns:inkscape="http://www.inkscape.org/namespaces/inkscape"
   width="20"
   height="20"
   viewBox="0 0 20 20"
   id="svg3347"
   version="1.1"
   inkscape:version="0.91 r13725"
   sodipodi:docname="Civ5Icon.Strength.svg">
  <defs
     id="defs3349" />
  <sodipodi:namedview
     id="base"
     pagecolor="#ffffff"
     bordercolor="#666666"
     borderopacity="1.0"
     inkscape:pageopacity="0.0"
     inkscape:pageshadow="2"
     inkscape:zoom="11.2"
     inkscape:cx="7.324946"
     inkscape:cy="8.5424036"
     inkscape:document-units="px"
     inkscape:current-layer="g27203"
     showgrid="false"
     units="px"
     inkscape:window-width="1477"
     inkscape:window-height="962"
     inkscape:window-x="533"
     inkscape:window-y="95"
     inkscape:window-maximized="0" />
  <metadata
     id="metadata3352">
    <rdf:RDF>
      <cc:Work
         rdf:about="">
        <dc:format>image/svg+xml</dc:format>
        <dc:type
           rdf:resource="http://purl.org/dc/dcmitype/StillImage" />
        <dc:title></dc:title>
      </cc:Work>
    </rdf:RDF>
  </metadata>
  <g
     inkscape:label="Layer 1"
     inkscape:groupmode="layer"
     id="layer1"
     transform="translate(0,-1032.3622)">
    <g
       transform="translate(-0.22321519 1031.8712)"
       id="g27203">
      <g
         transform="translate(-0.53571357,-0.71435714)"
         id="g63507">
        <path
           style="fill:#000000;fill-opacity:0"
           d="M 0,0.5 0,0 0.5,0 1,0 1.5,0 2,0 2.5,0 3,0 3.5,0 4,0 4.5,0 5,0 5.5,0 6,0 6.5,0 7,0 7.5,0 8,0 8.5,0 9,0 9.5,0 10,0 l 0.5,0 0.5,0 0.5,0 0.5,0 0.5,0 0.5,0 0.5,0 0.5,0 0.5,0 0.5,0 0.5,0 0.5,0 0.5,0 0.5,0 0.5,0 0.5,0 0.5,0 0.5,0 0.5,0 0.5,0 0.5,0 0.5,0 0.5,0 0.5,0 0,0.5 0,0.5 0,0.5 0,0.5 0,0.5 0,0.5 0,0.5 0,0.5 0,0.5 0,0.5 0,0.5 0,0.5 0,0.5 0,0.5 0,0.5 0,0.5 0,0.5 0,0.5 0,0.5 0,0.5 0,0.5 0,0.5 0,0.5 0,0.5 0,0.5 0,0.5 0,0.5 0,0.5 0,0.5 0,0.5 0,0.5 0,0.5 0,0.5 0,0.5 0,0.5 0,0.5 0,0.5 0,0.5 0,0.5 0,0.5 0,0.5 0,0.5 0,0.5 0,0.5 -0.5,0 L 21,22 20.5,22 20,22 19.5,22 19,22 18.5,22 18,22 17.5,22 17,22 16.5,22 16,22 15.5,22 15,22 14.5,22 14,22 13.5,22 13,22 12.5,22 12,22 11.5,22 11,22 10.5,22 10,22 9.5,22 9,22 8.5,22 8,22 7.5,22 7,22 6.5,22 6,22 5.5,22 5,22 4.5,22 4,22 3.5,22 3,22 2.5,22 2,22 1.5,22 1,22 0.5,22 0,22 0,21.5 0,21 0,20.5 0,20 0,19.5 0,19 0,18.5 0,18 0,17.5 0,17 0,16.5 0,16 0,15.5 0,15 0,14.5 0,14 0,13.5 0,13 0,12.5 0,12 0,11.5 0,11 0,10.5 0,10 0,9.5 0,9 0,8.5 0,8 0,7.5 0,7 0,6.5 0,6 0,5.5 0,5 0,4.5 0,4 0,3.5 0,3 0,2.5 0,2 0,1.5 0,1 0,0.5 M 13.5,20 Q 14,20 14,19.5 l 0,-0.5 0.5,0 Q 15,19 15,18.5 l 0,-0.5 0,-0.5 0,-0.5 0.5,0 Q 16,17 16,16.5 l 0,-0.5 0.5,0 Q 17,16 17,15.5 l 0,-0.5 0,-0.5 0,-0.5 0.5,0 Q 18,14 18,13.5 L 18,13 18,12.5 18,12 18,11.5 18,11 18,10.5 18,10 18,9.5 18,9 18,8.5 18,8 18,7.5 18,7 18,6.5 18,6 18,5.5 Q 18,5 17.5,5 L 17,5 16.5,5 16,5 16,4.5 Q 16,4 15.5,4 L 15,4 14.5,4 14,4 14,3.5 Q 14,3 13.5,3 L 13,3 12.5,3 12,3 11.5,3 11,3 10.5,3 10,3 9.5,3 9,3 8.5,3 Q 8,3 8,3.5 L 8,4 7.5,4 7,4 6.5,4 6,4 5.5,4 Q 5,4 5,4.5 L 5,5 4.5,5 Q 4,5 4,5.5 L 4,6 4,6.5 4,7 4,7.5 4,8 4,8.5 4,9 4,9.5 4,10 4,10.5 4,11 4,11.5 4,12 4,12.5 4,13 4,13.5 4,14 4,14.5 4,15 4,15.5 Q 4,16 4.5,16 L 5,16 5,16.5 Q 5,17 5.5,17 L 6,17 6,17.5 6,18 6,18.5 Q 6,19 6.5,19 L 7,19 7.5,19 8,19 8,19.5 Q 8,20 8.5,20 l 0.5,0 0.5,0 0.5,0 0.5,0 0.5,0 0.5,0 0.5,0 0.5,0 0.5,0 0.5,0"
           id="path63509"
           inkscape:connector-curvature="0" />
        <path
           style="fill:#000000;fill-opacity:0.02352941"
           d="M 8,3.5 Q 8,3 8.5,3 L 9,3 8.875,3.375 Q 8.75,3.75 8.375,3.875 L 8,4 8,3.5"
           id="path63511"
           inkscape:connector-curvature="0" />
        <path
           style="fill:#000000;fill-opacity:0.13333333"
           d="M 8.875,3.375 9,3 9.5,3 10,3 10.046875,3.546875 10.09375,4.09375 9.671875,4.171875 9.25,4.25 9.53125,4.15625 9.8125,4.0625 9.625,4.125 Q 9.4375,4.1875 9.28125,4.28125 L 9.125,4.375 9.203125,4.328125 9.28125,4.28125 8.984375,3.984375 8.6875,3.6875 8.625,3.75 8.5625,3.8125 8.6875,3.6875 Q 8.8125,3.5625 8.875,3.375 L 8.9375,3.1875 8.84375,3.46875 8.75,3.75 8.875,3.375"
           id="path63513"
           inkscape:connector-curvature="0" />
        <path
           style="fill:#000000;fill-opacity:0.27843137"
           d="M 10.046875,3.546875 10,3 10.5,3 11,3 11,3.5 11,4 10.5,4 10,4 10.375,4 10.75,4 10.5,4 Q 10.25,4 10.09375,4.09375 L 9.9375,4.1875 10.015625,4.140625 10.09375,4.09375 10.046875,3.546875"
           id="path63515"
           inkscape:connector-curvature="0" />
        <path
           style="fill:#000000;fill-opacity:0.2627451"
           d="M 11,3.5 11,3 11.5,3 12,3 11.953125,3.546875 11.90625,4.09375 11.984375,4.140625 12.0625,4.1875 11.90625,4.09375 Q 11.75,4 11.5,4 L 11.25,4 11.625,4 12,4 11.5,4 11,4 11,3.5"
           id="path63517"
           inkscape:connector-curvature="0" />
        <path
           style="fill:#000000;fill-opacity:0.11764706"
           d="M 11.953125,3.546875 12,3 12.5,3 13,3 13.125,3.375 13.25,3.75 13.15625,3.46875 13.0625,3.1875 13.125,3.375 q 0.0625,0.1875 0.1875,0.3125 l 0.125,0.125 L 13.375,3.75 13.3125,3.6875 13.015625,3.984375 12.71875,4.28125 12.796875,4.328125 12.875,4.375 12.71875,4.28125 Q 12.5625,4.1875 12.375,4.125 L 12.1875,4.0625 12.46875,4.15625 12.75,4.25 12.328125,4.171875 11.90625,4.09375 11.953125,3.546875"
           id="path63519"
           inkscape:connector-curvature="0" />
        <path
           style="fill:#000000;fill-opacity:0.01960784"
           d="M 13.125,3.375 13,3 13.5,3 Q 14,3 14,3.5 L 14,4 13.625,3.875 q -0.375,-0.125 -0.5,-0.5"
           id="path63521"
           inkscape:connector-curvature="0" />
        <path
           style="fill:#000000;fill-opacity:0.01176471"
           d="M 5,4.5 Q 5,4 5.5,4 L 6,4 5.875,4.375 Q 5.75,4.75 5.375,4.875 L 5,5 5,4.5"
           id="path63523"
           inkscape:connector-curvature="0" />
        <path
           style="fill:#000000;fill-opacity:0.02352941"
           d="M 5.875,4.375 6,4 6.5,4 7,4 7,4.5 7,5 6.625,5.125 6.25,5.25 6.53125,5.15625 6.8125,5.0625 6.625,5.125 Q 6.4375,5.1875 6.28125,5.28125 L 6.125,5.375 6.203125,5.328125 6.28125,5.28125 5.984375,4.984375 5.6875,4.6875 5.625,4.75 5.5625,4.8125 5.6875,4.6875 Q 5.8125,4.5625 5.875,4.375 L 5.9375,4.1875 5.84375,4.46875 5.75,4.75 5.875,4.375"
           id="path63525"
           inkscape:connector-curvature="0" />
        <path
           style="fill:#000000;fill-opacity:0.07843137"
           d="M 7,4.5 7,4 7.5,4 8,4 8,4.5 8,5 7.5,5 7,5 7,4.5"
           id="path63527"
           inkscape:connector-curvature="0" />
        <path
           style="fill:#12120f;fill-opacity:0.2745098"
           d="M 8,4.5 8,4 8.375,3.875 8.75,3.75 8.46875,3.84375 8.1875,3.9375 8.375,3.875 Q 8.5625,3.8125 8.6875,3.6875 L 8.8125,3.5625 8.75,3.625 8.6875,3.6875 8.984375,3.984375 9.28125,4.28125 9.359375,4.234375 9.4375,4.1875 9.28125,4.28125 Q 9.125,4.375 9,4.5 L 8.875,4.625 9.0625,4.4375 9.25,4.25 9,4.5 Q 8.75,4.75 8.375,4.875 L 8,5 8,4.5"
           id="path63529"
           inkscape:connector-curvature="0" />
        <path
           style="fill:#5a5a4b;fill-opacity:0.80392157"
           d="M 9,4.5 Q 9.25,4.25 9.671875,4.171875 L 10.09375,4.09375 10.171875,4.046875 10.25,4 10.09375,4.09375 Q 9.9375,4.1875 9.875,4.375 L 9.8125,4.5625 9.90625,4.28125 10,4 9.875,4.375 Q 9.75,4.75 9.5,5 L 9.25,5.25 8.984375,4.984375 8.71875,4.71875 8.640625,4.765625 8.5625,4.8125 8.71875,4.71875 Q 8.875,4.625 9,4.5 L 9.125,4.375 8.9375,4.5625 8.75,4.75 9,4.5 M 9.1875,5.3125 9.25,5.25 9.4375,5.0625 9.625,4.875 9.5,5 Q 9.375,5.125 9.25,5.25 L 9.125,5.375 9.1875,5.3125"
           id="path63531"
           inkscape:connector-curvature="0" />
        <path
           style="fill:#c4c4ad;fill-opacity:1"
           d="M 9.875,4.375 Q 10,4 10.5,4 L 11,4 11,4.5 11,5 10.625,5.125 10.25,5.25 10.53125,5.15625 10.8125,5.0625 10.625,5.125 Q 10.4375,5.1875 10.28125,5.28125 L 10.125,5.375 10.203125,5.328125 10.28125,5.28125 10,5 9.71875,4.71875 9.671875,4.796875 9.625,4.875 9.71875,4.71875 Q 9.8125,4.5625 9.875,4.375 L 9.9375,4.1875 9.84375,4.46875 9.75,4.75 9.875,4.375"
           id="path63533"
           inkscape:connector-curvature="0" />
        <path
           style="fill:#bfbfa8;fill-opacity:1"
           d="M 11,4.5 11,4 11.5,4 Q 12,4 12.125,4.375 L 12.25,4.75 12.15625,4.46875 12.0625,4.1875 12.125,4.375 q 0.0625,0.1875 0.15625,0.34375 L 12.375,4.875 12.328125,4.796875 12.28125,4.71875 12,5 11.71875,5.28125 11.796875,5.328125 11.875,5.375 11.71875,5.28125 Q 11.5625,5.1875 11.375,5.125 L 11.1875,5.0625 11.46875,5.15625 11.75,5.25 11.375,5.125 11,5 11,4.5"
           id="path63535"
           inkscape:connector-curvature="0" />
        <path
           style="fill:#3a3a2f;fill-opacity:0.72941176"
           d="M 12.125,4.375 12,4 12.09375,4.28125 12.1875,4.5625 12.125,4.375 Q 12.0625,4.1875 11.90625,4.09375 L 11.75,4 11.82813,4.046875 11.90626,4.09375 12.328135,4.171875 Q 12.75,4.25 13,4.5 L 13.25,4.75 12.984375,5.015625 12.71875,5.28125 12.765625,5.359375 12.8125,5.4375 12.71875,5.28125 Q 12.625,5.125 12.5,5 L 12.375,4.875 12.5625,5.0625 12.75,5.25 12.5,5 Q 12.25,4.75 12.125,4.375 M 13.3125,4.8125 13.25,4.75 13.0625,4.5625 12.875,4.375 13,4.5 q 0.125,0.125 0.25,0.25 l 0.125,0.125 -0.0625,-0.0625"
           id="path63537"
           inkscape:connector-curvature="0" />
        <path
           style="fill:#040404;fill-opacity:0.22352941"
           d="M 13,4.5 12.75,4.25 12.9375,4.4375 13.125,4.625 13,4.5 Q 12.875,4.375 12.71875,4.28125 L 12.5625,4.1875 12.640625,4.234375 12.71875,4.28125 13.015625,3.984375 13.3125,3.6875 13.25,3.625 13.1875,3.5625 l 0.125,0.125 q 0.125,0.125 0.3125,0.1875 L 13.8125,3.9375 13.53125,3.84375 13.25,3.75 13.625,3.875 14,4 14.125,4.375 14.25,4.75 14.15625,4.46875 14.0625,4.1875 14.125,4.375 q 0.0625,0.1875 0.1875,0.3125 l 0.125,0.125 L 14.375,4.75 14.3125,4.6875 14.015625,4.984375 13.71875,5.28125 13.765625,5.359375 13.8125,5.4375 13.71875,5.28125 Q 13.625,5.125 13.5,5 L 13.375,4.875 13.5625,5.0625 13.75,5.25 13.5,5 Q 13.25,4.75 13,4.5"
           id="path63539"
           inkscape:connector-curvature="0" />
        <path
           style="fill:#000000;fill-opacity:0.05098039"
           d="M 14.125,4.375 14,4 14.5,4 15,4 15,4.5 15,5 14.625,4.875 q -0.375,-0.125 -0.5,-0.5"
           id="path63541"
           inkscape:connector-curvature="0" />
        <path
           style="fill:#000000;fill-opacity:0.01568627"
           d="M 15,4.5 15,4 15.5,4 Q 16,4 16,4.5 L 16,5 15.5,5 15,5 15,4.5"
           id="path63543"
           inkscape:connector-curvature="0" />
        <path
           style="fill:#000000;fill-opacity:0.03137255"
           d="M 4,5.5 Q 4,5 4.5,5 L 5,5 4.875,5.375 Q 4.75,5.75 4.375,5.875 L 4,6 4,5.5"
           id="path63545"
           inkscape:connector-curvature="0" />
        <path
           style="fill:#0c0c0c;fill-opacity:0.17254902"
           d="M 4.875,5.375 5,5 5.375,4.875 5.75,4.75 5.46875,4.84375 5.1875,4.9375 5.375,4.875 Q 5.5625,4.8125 5.6875,4.6875 L 5.8125,4.5625 5.75,4.625 5.6875,4.6875 5.984375,4.984375 6.28125,5.28125 6.359375,5.234375 6.4375,5.1875 6.28125,5.28125 Q 6.125,5.375 6,5.5 L 5.875,5.625 6.0625,5.4375 6.25,5.25 6,5.5 Q 5.75,5.75 5.5,6 L 5.25,6.25 5.4375,6.0625 5.625,5.875 5.5,6 Q 5.375,6.125 5.28125,6.28125 L 5.1875,6.4375 5.234375,6.359375 5.28125,6.28125 4.984375,5.984375 4.6875,5.6875 4.625,5.75 4.5625,5.8125 4.6875,5.6875 Q 4.8125,5.5625 4.875,5.375 L 4.9375,5.1875 4.84375,5.46875 4.75,5.75 4.875,5.375"
           id="path63547"
           inkscape:connector-curvature="0" />
        <path
           style="fill:#333329;fill-opacity:0.39215686"
           d="M 6,5.5 Q 6.25,5.25 6.625,5.125 L 7,5 7,5.5 7,6 6.625,6.125 6.25,6.25 6.53125,6.15625 6.8125,6.0625 6.625,6.125 Q 6.4375,6.1875 6.28125,6.28125 L 6.125,6.375 6.203125,6.328125 6.28125,6.28125 6.015625,6.015625 5.75,5.75 6,5.5 M 5.9375,5.5625 5.75,5.75 5.6875,5.8125 5.625,5.875 5.75,5.75 Q 5.875,5.625 6,5.5 L 6.125,5.375 5.9375,5.5625"
           id="path63549"
           inkscape:connector-curvature="0" />
        <path
           style="fill:#48483c;fill-opacity:0.67058824"
           d="M 7,5.5 7,5 7.5,5 8,5 8,5.5 8,6 7.5,6 7,6 7,5.5"
           id="path63551"
           inkscape:connector-curvature="0" />
        <path
           style="fill:#6f6e5b;fill-opacity:0.97647059"
           d="M 8,5.5 8,5 8.375,4.875 8.75,4.75 8.46875,4.84375 8.1875,4.9375 8.375,4.875 Q 8.5625,4.8125 8.71875,4.71875 L 8.875,4.625 8.796875,4.671875 8.71875,4.71875 8.984375,4.984375 9.25,5.25 9,5.5 Q 8.75,5.75 8.375,5.875 L 8,6 8,5.5 M 9.0625,5.4375 9.25,5.25 9.3125,5.1875 9.375,5.125 9.25,5.25 Q 9.125,5.375 9,5.5 L 8.875,5.625 9.0625,5.4375"
           id="path63553"
           inkscape:connector-curvature="0" />
        <path
           style="fill:#b7b7a0;fill-opacity:1"
           d="M 9,5.5 Q 9.25,5.25 9.5,5 L 9.75,4.75 9.5625,4.9375 9.375,5.125 9.5,5 Q 9.625,4.875 9.71875,4.71875 L 9.8125,4.5625 9.765625,4.640625 9.71875,4.71875 10,5 10.28125,5.28125 10.359375,5.234375 10.4375,5.1875 10.28125,5.28125 Q 10.125,5.375 10,5.5 L 9.875,5.625 10.0625,5.4375 10.25,5.25 10,5.5 Q 9.75,5.75 9.5,6 L 9.25,6.25 8.984375,5.984375 8.71875,5.71875 8.640625,5.765625 8.5625,5.8125 8.71875,5.71875 Q 8.875,5.625 9,5.5 L 9.125,5.375 8.9375,5.5625 8.75,5.75 9,5.5 M 9.1875,6.3125 9.25,6.25 9.4375,6.0625 9.625,5.875 9.5,6 Q 9.375,6.125 9.25,6.25 L 9.125,6.375 9.1875,6.3125"
           id="path63555"
           inkscape:connector-curvature="0" />
        <path
           style="fill:#dddecd;fill-opacity:1"
           d="M 10,5.5 Q 10.25,5.25 10.625,5.125 L 11,5 11,5.5 11,6 10.625,6.125 10.25,6.25 10.53125,6.15625 10.8125,6.0625 10.625,6.125 Q 10.4375,6.1875 10.3125,6.3125 L 10.1875,6.4375 10.25,6.375 10.3125,6.3125 10.03125,6.03125 9.75,5.75 10,5.5 M 9.9375,5.5625 9.75,5.75 9.6875,5.8125 9.625,5.875 9.75,5.75 Q 9.875,5.625 10,5.5 L 10.125,5.375 9.9375,5.5625"
           id="path63557"
           inkscape:connector-curvature="0" />
        <path
           style="fill:#eceddf;fill-opacity:1"
           d="M 11,5.5 11,5 11.375,5.125 Q 11.75,5.25 12,5.5 L 12.25,5.75 12.0625,5.5625 11.875,5.375 12,5.5 q 0.125,0.125 0.28125,0.21875 L 12.4375,5.8125 12.359375,5.765625 12.28125,5.71875 12,6 11.71875,6.28125 11.796875,6.328125 11.875,6.375 11.71875,6.28125 Q 11.5625,6.1875 11.375,6.125 L 11.1875,6.0625 11.46875,6.15625 11.75,6.25 11.375,6.125 11,6 11,5.5"
           id="path63559"
           inkscape:connector-curvature="0" />
        <path
           style="fill:#b6b6aa;fill-opacity:1"
           d="M 12,5.5 11.75,5.25 11.9375,5.4375 12.125,5.625 12,5.5 Q 11.875,5.375 11.71875,5.28125 L 11.5625,5.1875 11.640625,5.234375 11.71875,5.28125 12,5 12.28125,4.71875 12.234375,4.640625 12.1875,4.5625 12.28125,4.71875 Q 12.375,4.875 12.5,5 L 12.625,5.125 12.4375,4.9375 12.25,4.75 12.5,5 q 0.25,0.25 0.375,0.625 L 13,6 12.90625,5.71875 12.8125,5.4375 12.875,5.625 q 0.0625,0.1875 0.21875,0.28125 L 13.25,6 13.171875,5.953125 13.09375,5.90625 12.671875,5.828125 Q 12.25,5.75 12,5.5"
           id="path63561"
           inkscape:connector-curvature="0" />
        <path
           style="fill:#505047;fill-opacity:0.9372549"
           d="M 12.875,5.625 12.75,5.25 12.84375,5.53125 12.9375,5.8125 12.875,5.625 Q 12.8125,5.4375 12.71875,5.28125 L 12.625,5.125 12.671875,5.203125 12.71875,5.28125 12.984375,5.015625 13.25,4.75 13.5,5 q 0.25,0.25 0.375,0.625 L 14,6 13.5,6 Q 13,6 12.875,5.625 M 13.4375,4.9375 13.25,4.75 13.1875,4.6875 13.125,4.625 13.25,4.75 Q 13.375,4.875 13.5,5 l 0.125,0.125 -0.1875,-0.1875"
           id="path63563"
           inkscape:connector-curvature="0" />
        <path
           style="fill:#252520;fill-opacity:0.56078425"
           d="M 13.875,5.625 13.75,5.25 13.84375,5.53125 13.9375,5.8125 13.875,5.625 Q 13.8125,5.4375 13.71875,5.28125 L 13.625,5.125 13.671875,5.203125 13.71875,5.28125 14.015625,4.984375 14.3125,4.6875 14.25,4.625 14.1875,4.5625 l 0.125,0.125 q 0.125,0.125 0.3125,0.1875 L 14.8125,4.9375 14.53125,4.84375 14.25,4.75 14.625,4.875 15,5 15,5.5 15,6 14.5,6 14,6 13.875,5.625"
           id="path63565"
           inkscape:connector-curvature="0" />
        <path
           style="fill:#1e1e17;fill-opacity:0.29803922"
           d="M 15,5.5 15,5 15.5,5 16,5 16.125,5.375 16.25,5.75 16.15625,5.46875 16.0625,5.1875 16.125,5.375 q 0.0625,0.1875 0.1875,0.3125 l 0.125,0.125 L 16.375,5.75 16.3125,5.6875 16.015625,5.984375 15.71875,6.28125 15.796875,6.328125 15.875,6.375 15.71875,6.28125 Q 15.5625,6.1875 15.375,6.125 L 15.1875,6.0625 15.46875,6.15625 15.75,6.25 15.375,6.125 15,6 15,5.5"
           id="path63567"
           inkscape:connector-curvature="0" />
        <path
           style="fill:#080808;fill-opacity:0.12156863"
           d="M 16.125,5.375 16,5 16.5,5 17,5 17,5.5 17,6 16.625,5.875 q -0.375,-0.125 -0.5,-0.5"
           id="path63569"
           inkscape:connector-curvature="0" />
        <path
           style="fill:#000000;fill-opacity:0.02745098"
           d="M 17,5.5 17,5 17.5,5 Q 18,5 18,5.5 L 18,6 17.5,6 17,6 17,5.5"
           id="path63571"
           inkscape:connector-curvature="0" />
        <path
           style="fill:#000000;fill-opacity:0.16862745"
           d="M 4,6.5 4,6 4.375,5.875 4.75,5.75 4.46875,5.84375 4.1875,5.9375 4.375,5.875 Q 4.5625,5.8125 4.6875,5.6875 L 4.8125,5.5625 4.75,5.625 4.6875,5.6875 4.984375,5.984375 5.28125,6.28125 5.328125,6.203125 5.375,6.125 5.28125,6.28125 Q 5.1875,6.4375 5.125,6.625 L 5.0625,6.8125 5.15625,6.53125 5.25,6.25 5.125,6.625 5,7 4.5,7 4,7 4,6.5"
           id="path63573"
           inkscape:connector-curvature="0" />
        <path
           style="fill:#424538;fill-opacity:0.83921569"
           d="M 5.125,6.625 Q 5.25,6.25 5.5,6 L 5.75,5.75 6.015625,6.015625 6.28125,6.28125 6.359375,6.234375 6.4375,6.1875 6.28125,6.28125 Q 6.125,6.375 6,6.5 L 5.875,6.625 6.0625,6.4375 6.25,6.25 6,6.5 Q 5.75,6.75 5.390625,6.890625 L 5.03125,7.03125 5.015625,7.140625 5,7.25 5.03125,7.03125 Q 5.0625,6.8125 5.125,6.625 L 5.1875,6.4375 5.09375,6.71875 5,7 5.125,6.625 M 5.8125,5.6875 5.75,5.75 5.5625,5.9375 5.375,6.125 5.5,6 Q 5.625,5.875 5.75,5.75 L 5.875,5.625 5.8125,5.6875"
           id="path63575"
           inkscape:connector-curvature="0" />
        <path
           style="fill:#9a9d83;fill-opacity:1"
           d="M 6,6.5 Q 6.25,6.25 6.625,6.125 L 7,6 7,6.5 7,7 6.625,7.125 6.25,7.25 6.53125,7.15625 6.8125,7.0625 6.625,7.125 Q 6.4375,7.1875 6.28125,7.28125 L 6.125,7.375 6.203125,7.328125 6.28125,7.28125 6,7 5.71875,6.71875 5.640625,6.765625 5.5625,6.8125 5.71875,6.71875 Q 5.875,6.625 6,6.5 L 6.125,6.375 5.9375,6.5625 5.75,6.75 6,6.5"
           id="path63577"
           inkscape:connector-curvature="0" />
        <path
           style="fill:#aeb194;fill-opacity:1"
           d="M 7,6.5 7,6 7.5,6 8,6 8,6.5 8,7 7.5,7 7,7 7,6.5"
           id="path63579"
           inkscape:connector-curvature="0" />
        <path
           style="fill:#b9bba2;fill-opacity:1"
           d="M 8,6.5 8,6 8.375,5.875 8.75,5.75 8.46875,5.84375 8.1875,5.9375 8.375,5.875 Q 8.5625,5.8125 8.71875,5.71875 L 8.875,5.625 8.796875,5.671875 8.71875,5.71875 8.984375,5.984375 9.25,6.25 9,6.5 Q 8.75,6.75 8.375,6.875 L 8,7 8,6.5 M 9.0625,6.4375 9.25,6.25 9.3125,6.1875 9.375,6.125 9.25,6.25 Q 9.125,6.375 9,6.5 L 8.875,6.625 9.0625,6.4375"
           id="path63581"
           inkscape:connector-curvature="0" />
        <path
           style="fill:#d2d3b8;fill-opacity:1"
           d="M 9,6.5 Q 9.25,6.25 9.5,6 L 9.75,5.75 10.03125,6.03125 10.3125,6.3125 10.375,6.25 10.4375,6.1875 10.3125,6.3125 Q 10.1875,6.4375 10.125,6.625 L 10.0625,6.8125 10.15625,6.53125 10.25,6.25 10.125,6.625 10,7 9.625,7.125 9.25,7.25 9.53125,7.15625 9.8125,7.0625 9.625,7.125 Q 9.4375,7.1875 9.3125,7.3125 L 9.1875,7.4375 9.25,7.375 9.3125,7.3125 9.015625,7.015625 8.71875,6.71875 8.640625,6.765625 8.5625,6.8125 8.71875,6.71875 Q 8.875,6.625 9,6.5 L 9.125,6.375 8.9375,6.5625 8.75,6.75 9,6.5 M 9.8125,5.6875 9.75,5.75 9.5625,5.9375 9.375,6.125 9.5,6 Q 9.625,5.875 9.75,5.75 L 9.875,5.625 9.8125,5.6875"
           id="path63583"
           inkscape:connector-curvature="0" />
        <path
           style="fill:#cecfa8;fill-opacity:1"
           d="m 10.125,6.625 q 0.125,-0.375 0.5,-0.5 L 11,6 11,6.5 11,7 10.5,7 10,7 10.125,6.625"
           id="path63585"
           inkscape:connector-curvature="0" />
        <path
           style="fill:#ced1af;fill-opacity:1"
           d="M 11,6.5 11,6 11.375,6.125 Q 11.75,6.25 12,6.5 L 12.25,6.75 11.96875,7.03125 11.6875,7.3125 11.75,7.375 11.8125,7.4375 11.6875,7.3125 Q 11.5625,7.1875 11.375,7.125 L 11.1875,7.0625 11.46875,7.15625 11.75,7.25 11.375,7.125 11,7 11,6.5 M 12.3125,6.8125 12.25,6.75 12.0625,6.5625 11.875,6.375 12,6.5 q 0.125,0.125 0.25,0.25 l 0.125,0.125 -0.0625,-0.0625"
           id="path63587"
           inkscape:connector-curvature="0" />
        <path
           style="fill:#eef0e4;fill-opacity:1"
           d="M 12,6.5 11.75,6.25 11.9375,6.4375 12.125,6.625 12,6.5 Q 11.875,6.375 11.71875,6.28125 L 11.5625,6.1875 11.640625,6.234375 11.71875,6.28125 12,6 12.28125,5.71875 12.203125,5.671875 12.125,5.625 12.28125,5.71875 Q 12.4375,5.8125 12.625,5.875 L 12.8125,5.9375 12.53125,5.84375 12.25,5.75 12.671875,5.828125 13.09375,5.90625 13.171875,6.328125 13.25,6.75 13.15625,6.46875 13.0625,6.1875 13.125,6.375 q 0.0625,0.1875 0.15625,0.34375 L 13.375,6.875 13.328125,6.796875 13.28125,6.71875 13.015625,6.984375 12.75,7.25 12.5,7 Q 12.25,6.75 12,6.5 M 12.5625,7.0625 12.75,7.25 12.8125,7.3125 12.875,7.375 12.75,7.25 Q 12.625,7.125 12.5,7 l -0.125,-0.125 0.1875,0.1875"
           id="path63589"
           inkscape:connector-curvature="0" />
        <path
           style="fill:#e9eae7;fill-opacity:1"
           d="M 13.171875,6.328125 13.09375,5.90625 13.015625,5.859375 12.9375,5.8125 13.09375,5.90625 Q 13.25,6 13.5,6 L 13.75,6 13.375,6 13,6 13.5,6 14,6 14.125,6.375 14.25,6.75 14.15625,6.46875 14.0625,6.1875 14.125,6.375 q 0.0625,0.1875 0.1875,0.3125 l 0.125,0.125 L 14.375,6.75 14.3125,6.6875 14.015625,6.984375 13.71875,7.28125 13.765625,7.359375 13.8125,7.4375 13.71875,7.28125 Q 13.625,7.125 13.5,7 L 13.375,6.875 13.5625,7.0625 13.75,7.25 13.5,7 Q 13.25,6.75 13.171875,6.328125"
           id="path63591"
           inkscape:connector-curvature="0" />
        <path
           style="fill:#bfbeb9;fill-opacity:1"
           d="M 14.125,6.375 14,6 14.5,6 15,6 14.625,6 14.25,6 14.5,6 q 0.25,0 0.46875,0.03125 L 15.1875,6.0625 15.078125,6.046875 14.96875,6.03125 14.984375,6.515625 15,7 14.625,6.875 Q 14.25,6.75 14.125,6.375 M 14.71875,6.90625 15,7 15.09375,7.03125 15.1875,7.0625 15,7 Q 14.8125,6.9375 14.625,6.875 l -0.1875,-0.0625 0.28125,0.09375"
           id="path63593"
           inkscape:connector-curvature="0" />
        <path
           style="fill:#808070;fill-opacity:0.98823529"
           d="M 14.984375,6.515625 14.96875,6.03125 14.859375,6.015625 14.75,6 14.96875,6.03125 Q 15.1875,6.0625 15.375,6.125 L 15.5625,6.1875 15.28125,6.09375 15,6 15.375,6.125 Q 15.75,6.25 16,6.5 L 16.25,6.75 15.96875,7.03125 15.6875,7.3125 15.75,7.375 15.8125,7.4375 15.6875,7.3125 Q 15.5625,7.1875 15.375,7.125 L 15.1875,7.0625 15.46875,7.15625 15.75,7.25 15.375,7.125 15,7 14.984375,6.515625 M 14.90625,6.96875 15,7 15.28125,7.09375 15.5625,7.1875 15.375,7.125 Q 15.1875,7.0625 15,7 L 14.8125,6.9375 14.90625,6.96875 M 16.3125,6.8125 16.25,6.75 16.0625,6.5625 15.875,6.375 16,6.5 q 0.125,0.125 0.25,0.25 l 0.125,0.125 -0.0625,-0.0625"
           id="path63595"
           inkscape:connector-curvature="0" />
        <path
           style="fill:#2a2a1e;fill-opacity:0.75686275"
           d="M 16,6.5 15.75,6.25 15.9375,6.4375 16.125,6.625 16,6.5 Q 15.875,6.375 15.71875,6.28125 L 15.5625,6.1875 15.640625,6.234375 15.71875,6.28125 16.015625,5.984375 16.3125,5.6875 16.25,5.625 16.1875,5.5625 l 0.125,0.125 q 0.125,0.125 0.3125,0.1875 L 16.8125,5.9375 16.53125,5.84375 16.25,5.75 16.625,5.875 17,6 17.125,6.375 17.25,6.75 17.15625,6.46875 17.0625,6.1875 17.125,6.375 q 0.0625,0.1875 0.1875,0.3125 l 0.125,0.125 L 17.375,6.75 17.3125,6.6875 17.015625,6.984375 16.71875,7.28125 16.765625,7.359375 16.8125,7.4375 16.71875,7.28125 Q 16.625,7.125 16.5,7 L 16.375,6.875 16.5625,7.0625 16.75,7.25 16.5,7 Q 16.25,6.75 16,6.5"
           id="path63597"
           inkscape:connector-curvature="0" />
        <path
           style="fill:#000000;fill-opacity:0.14117647"
           d="M 17.125,6.375 17,6 17.5,6 18,6 18,6.5 18,7 17.625,6.875 q -0.375,-0.125 -0.5,-0.5"
           id="path63599"
           inkscape:connector-curvature="0" />
        <path
           style="fill:#000000;fill-opacity:0.34901961"
           d="M 4,7.5 4,7 4.5,7 5,7 5,7.5 5,8 4.5,8 4,8 4,7.5"
           id="path63601"
           inkscape:connector-curvature="0" />
        <path
           style="fill:#848978;fill-opacity:1"
           d="M 5,7.5 5,7 5,7.375 5,7.75 5,7.5 Q 5,7.25 5.03125,7.03125 L 5.0625,6.8125 5.046875,6.921875 5.03125,7.03125 5.390625,6.890625 5.75,6.75 5.46875,6.84375 5.1875,6.9375 5.375,6.875 Q 5.5625,6.8125 5.71875,6.71875 L 5.875,6.625 5.796875,6.671875 5.71875,6.71875 6,7 6.28125,7.28125 6.359375,7.234375 6.4375,7.1875 6.28125,7.28125 Q 6.125,7.375 6,7.5 L 5.875,7.625 6.0625,7.4375 6.25,7.25 6,7.5 Q 5.75,7.75 5.375,7.875 L 5,8 5,7.5"
           id="path63603"
           inkscape:connector-curvature="0" />
        <path
           style="fill:#c0c6b1;fill-opacity:1"
           d="M 6,7.5 Q 6.25,7.25 6.625,7.125 L 7,7 6.875,7.375 Q 6.75,7.75 6.5,8 L 6.25,8.25 5.984375,7.984375 5.71875,7.71875 5.640625,7.765625 5.5625,7.8125 5.71875,7.71875 Q 5.875,7.625 6,7.5 L 6.125,7.375 5.9375,7.5625 5.75,7.75 6,7.5 M 6.1875,8.3125 6.25,8.25 6.4375,8.0625 6.625,7.875 6.5,8 Q 6.375,8.125 6.25,8.25 L 6.125,8.375 6.1875,8.3125"
           id="path63605"
           inkscape:connector-curvature="0" />
        <path
           style="fill:#b2b89e;fill-opacity:1"
           d="M 6.875,7.375 7,7 7.5,7 8,7 7.875,7.375 Q 7.75,7.75 7.5,8 L 7.25,8.25 6.984375,7.984375 6.71875,7.71875 6.671875,7.796875 6.625,7.875 6.71875,7.71875 Q 6.8125,7.5625 6.875,7.375 L 6.9375,7.1875 6.84375,7.46875 6.75,7.75 6.875,7.375 M 7.1875,8.3125 7.25,8.25 7.4375,8.0625 7.625,7.875 7.5,8 Q 7.375,8.125 7.25,8.25 L 7.125,8.375 7.1875,8.3125"
           id="path63607"
           inkscape:connector-curvature="0" />
        <path
           style="fill:#c4c6a4;fill-opacity:1"
           d="M 7.875,7.375 8,7 8.375,6.875 8.75,6.75 8.46875,6.84375 8.1875,6.9375 8.375,6.875 Q 8.5625,6.8125 8.71875,6.71875 L 8.875,6.625 8.796875,6.671875 8.71875,6.71875 9.015625,7.015625 9.3125,7.3125 9.375,7.25 9.4375,7.1875 9.3125,7.3125 Q 9.1875,7.4375 9.125,7.625 L 9.0625,7.8125 9.15625,7.53125 9.25,7.25 9.125,7.625 9,8 8.625,8.125 8.25,8.25 8.53125,8.15625 8.8125,8.0625 8.625,8.125 Q 8.4375,8.1875 8.3125,8.3125 L 8.1875,8.4375 8.25,8.375 8.3125,8.3125 8.015625,8.015625 7.71875,7.71875 7.671875,7.796875 7.625,7.875 7.71875,7.71875 Q 7.8125,7.5625 7.875,7.375 L 7.9375,7.1875 7.84375,7.46875 7.75,7.75 7.875,7.375"
           id="path63609"
           inkscape:connector-curvature="0" />
        <path
           style="fill:#e5e5bd;fill-opacity:1"
           d="M 9.125,7.625 Q 9.25,7.25 9.625,7.125 L 10,7 10,7.5 10,8 9.5,8 9,8 9.125,7.625"
           id="path63611"
           inkscape:connector-curvature="0" />
        <path
           style="fill:#f8f9d2;fill-opacity:1"
           d="M 10,7.5 10,7 10.5,7 11,7 11,7.5 11,8 10.5,8 10,8 10,7.5"
           id="path63613"
           inkscape:connector-curvature="0" />
        <path
           style="fill:#e5e8bc;fill-opacity:1"
           d="M 11,7.5 11,7 11.375,7.125 q 0.375,0.125 0.5,0.5 L 12,8 11.5,8 11,8 11,7.5"
           id="path63615"
           inkscape:connector-curvature="0" />
        <path
           style="fill:#d1d4aa;fill-opacity:1"
           d="M 11.875,7.625 11.75,7.25 11.84375,7.53125 11.9375,7.8125 11.875,7.625 Q 11.8125,7.4375 11.6875,7.3125 L 11.5625,7.1875 11.625,7.25 11.6875,7.3125 11.96875,7.03125 12.25,6.75 12.5,7 Q 12.75,7.25 13,7.5 L 13.25,7.75 13.0625,7.5625 12.875,7.375 13,7.5 q 0.125,0.125 0.28125,0.21875 L 13.4375,7.8125 13.359375,7.765625 13.28125,7.71875 12.984375,8.015625 12.6875,8.3125 12.75,8.375 12.8125,8.4375 12.6875,8.3125 Q 12.5625,8.1875 12.375,8.125 L 12.1875,8.0625 12.46875,8.15625 12.75,8.25 12.375,8.125 12,8 11.875,7.625 M 12.4375,6.9375 12.25,6.75 12.1875,6.6875 12.125,6.625 12.25,6.75 Q 12.375,6.875 12.5,7 l 0.125,0.125 -0.1875,-0.1875"
           id="path63617"
           inkscape:connector-curvature="0" />
        <path
           style="fill:#e1e4cb;fill-opacity:1"
           d="M 13,7.5 12.75,7.25 13.015625,6.984375 13.28125,6.71875 13.234375,6.640625 13.1875,6.5625 13.28125,6.71875 Q 13.375,6.875 13.5,7 L 13.625,7.125 13.4375,6.9375 13.25,6.75 13.5,7 q 0.25,0.25 0.375,0.625 L 14,8 13.625,7.875 Q 13.25,7.75 13,7.5 M 12.6875,7.1875 12.75,7.25 12.9375,7.4375 13.125,7.625 13,7.5 Q 12.875,7.375 12.75,7.25 l -0.125,-0.125 0.0625,0.0625"
           id="path63619"
           inkscape:connector-curvature="0" />
        <path
           style="fill:#f1f3e8;fill-opacity:1"
           d="M 13.875,7.625 13.75,7.25 13.84375,7.53125 13.9375,7.8125 13.875,7.625 Q 13.8125,7.4375 13.71875,7.28125 L 13.625,7.125 13.671875,7.203125 13.71875,7.28125 14.015625,6.984375 14.3125,6.6875 14.25,6.625 14.1875,6.5625 l 0.125,0.125 q 0.125,0.125 0.3125,0.1875 L 14.8125,6.9375 14.53125,6.84375 14.25,6.75 14.625,6.875 15,7 15,7.5 15,8 14.5,8 14,8 13.875,7.625"
           id="path63621"
           inkscape:connector-curvature="0" />
        <path
           style="fill:#f1f3df;fill-opacity:1"
           d="M 15,7.5 15,7 15.375,7.125 q 0.375,0.125 0.5,0.5 L 16,8 15.5,8 15,8 15,7.5"
           id="path63623"
           inkscape:connector-curvature="0" />
        <path
           style="fill:#84846a;fill-opacity:1"
           d="M 15.875,7.625 15.75,7.25 15.84375,7.53125 15.9375,7.8125 15.875,7.625 Q 15.8125,7.4375 15.6875,7.3125 L 15.5625,7.1875 15.625,7.25 15.6875,7.3125 15.96875,7.03125 16.25,6.75 16.5,7 q 0.25,0.25 0.375,0.625 L 17,8 16.5,8 16,8 15.875,7.625 M 16.4375,6.9375 16.25,6.75 16.1875,6.6875 16.125,6.625 16.25,6.75 Q 16.375,6.875 16.5,7 l 0.125,0.125 -0.1875,-0.1875"
           id="path63625"
           inkscape:connector-curvature="0" />
        <path
           style="fill:#000000;fill-opacity:0.30980392"
           d="M 16.875,7.625 16.75,7.25 16.84375,7.53125 16.9375,7.8125 16.875,7.625 Q 16.8125,7.4375 16.71875,7.28125 L 16.625,7.125 16.671875,7.203125 16.71875,7.28125 17.015625,6.984375 17.3125,6.6875 17.25,6.625 17.1875,6.5625 l 0.125,0.125 q 0.125,0.125 0.3125,0.1875 L 17.8125,6.9375 17.53125,6.84375 17.25,6.75 17.625,6.875 18,7 18,7.5 18,8 17.5,8 17,8 16.875,7.625"
           id="path63627"
           inkscape:connector-curvature="0" />
        <path
           style="fill:#000000;fill-opacity:0.44313725"
           d="M 4,8.5 4,8 4.5,8 5,8 5,8.5 5,9 4.5,9 4,9 4,8.5"
           id="path63629"
           inkscape:connector-curvature="0" />
        <path
           style="fill:#9a9f8e;fill-opacity:1"
           d="M 5,8.5 5,8 5.375,7.875 5.75,7.75 5.46875,7.84375 5.1875,7.9375 5.375,7.875 Q 5.5625,7.8125 5.71875,7.71875 L 5.875,7.625 5.796875,7.671875 5.71875,7.71875 5.984375,7.984375 6.25,8.25 6,8.5 Q 5.75,8.75 5.375,8.875 L 5,9 5,8.5 M 6.0625,8.4375 6.25,8.25 6.3125,8.1875 6.375,8.125 6.25,8.25 Q 6.125,8.375 6,8.5 L 5.875,8.625 6.0625,8.4375"
           id="path63631"
           inkscape:connector-curvature="0" />
        <path
           style="fill:#b9bca0;fill-opacity:1"
           d="M 6,8.5 Q 6.25,8.25 6.5,8 L 6.75,7.75 6.5625,7.9375 6.375,8.125 6.5,8 Q 6.625,7.875 6.71875,7.71875 L 6.8125,7.5625 6.765625,7.640625 6.71875,7.71875 6.984375,7.984375 7.25,8.25 7,8.5 Q 6.75,8.75 6.5,9 L 6.25,9.25 6.4375,9.0625 6.625,8.875 6.5,9 Q 6.375,9.125 6.28125,9.28125 L 6.1875,9.4375 6.234375,9.359375 6.28125,9.28125 6,9 5.71875,8.71875 5.640625,8.765625 5.5625,8.8125 5.71875,8.71875 Q 5.875,8.625 6,8.5 L 6.125,8.375 5.9375,8.5625 5.75,8.75 6,8.5 M 7.0625,8.4375 7.25,8.25 7.3125,8.1875 7.375,8.125 7.25,8.25 Q 7.125,8.375 7,8.5 L 6.875,8.625 7.0625,8.4375"
           id="path63633"
           inkscape:connector-curvature="0" />
        <path
           style="fill:#d1d3aa;fill-opacity:1"
           d="M 7,8.5 Q 7.25,8.25 7.5,8 L 7.75,7.75 7.5625,7.9375 7.375,8.125 7.5,8 Q 7.625,7.875 7.71875,7.71875 L 7.8125,7.5625 7.765625,7.640625 7.71875,7.71875 8.015625,8.015625 8.3125,8.3125 8.375,8.25 8.4375,8.1875 8.3125,8.3125 Q 8.1875,8.4375 8.125,8.625 L 8.0625,8.8125 8.15625,8.53125 8.25,8.25 8.125,8.625 8,9 7.625,9.125 7.25,9.25 7.53125,9.15625 7.8125,9.0625 7.625,9.125 Q 7.4375,9.1875 7.3125,9.3125 L 7.1875,9.4375 7.25,9.375 7.3125,9.3125 7.03125,9.03125 6.75,8.75 7,8.5 M 6.9375,8.5625 6.75,8.75 6.6875,8.8125 6.625,8.875 6.75,8.75 Q 6.875,8.625 7,8.5 L 7.125,8.375 6.9375,8.5625"
           id="path63635"
           inkscape:connector-curvature="0" />
        <path
           style="fill:#efefc7;fill-opacity:1"
           d="M 8.125,8.625 Q 8.25,8.25 8.625,8.125 L 9,8 9,8.5 9,9 8.5,9 8,9 8.125,8.625"
           id="path63637"
           inkscape:connector-curvature="0" />
        <path
           style="fill:#f3f4cf;fill-opacity:1"
           d="M 9,8.5 9,8 9.5,8 10,8 10,8.5 10,9 9.5,9 9,9 9,8.5"
           id="path63639"
           inkscape:connector-curvature="0" />
        <path
           style="fill:#eff1cb;fill-opacity:1"
           d="M 10,8.5 10,8 10.5,8 11,8 11,8.5 11,9 10.5,9 10,9 10,8.5"
           id="path63641"
           inkscape:connector-curvature="0" />
        <path
           style="fill:#ebecc6;fill-opacity:1"
           d="M 11,8.5 11,8 11.5,8 12,8 12,8.5 12,9 11.5,9 11,9 11,8.5"
           id="path63643"
           inkscape:connector-curvature="0" />
        <path
           style="fill:#ededc5;fill-opacity:1"
           d="M 12,8.5 12,8 12.375,8.125 q 0.375,0.125 0.5,0.5 L 13,9 12.5,9 12,9 12,8.5"
           id="path63645"
           inkscape:connector-curvature="0" />
        <path
           style="fill:#e8e8bb;fill-opacity:1"
           d="M 12.875,8.625 12.75,8.25 12.84375,8.53125 12.9375,8.8125 12.875,8.625 Q 12.8125,8.4375 12.6875,8.3125 L 12.5625,8.1875 12.625,8.25 12.6875,8.3125 12.984375,8.015625 13.28125,7.71875 13.203125,7.671875 13.125,7.625 13.28125,7.71875 Q 13.4375,7.8125 13.625,7.875 L 13.8125,7.9375 13.53125,7.84375 13.25,7.75 13.625,7.875 14,8 14,8.5 14,9 13.5,9 13,9 12.875,8.625"
           id="path63647"
           inkscape:connector-curvature="0" />
        <path
           style="fill:#d7d9af;fill-opacity:1"
           d="M 14,8.5 14,8 14.5,8 15,8 15,8.5 15,9 14.5,9 14,9 14,8.5"
           id="path63649"
           inkscape:connector-curvature="0" />
        <path
           style="fill:#d2d7b9;fill-opacity:1"
           d="M 15,8.5 15,8 15.5,8 16,8 16,8.5 16,9 15.5,9 15,9 15,8.5"
           id="path63651"
           inkscape:connector-curvature="0" />
        <path
           style="fill:#98997e;fill-opacity:1"
           d="M 16,8.5 16,8 16.5,8 17,8 17,8.5 17,9 16.5,9 16,9 16,8.5"
           id="path63653"
           inkscape:connector-curvature="0" />
        <path
           style="fill:#000000;fill-opacity:0.37647059"
           d="M 17,8.5 17,8 17.5,8 18,8 18,8.5 18,9 17.5,9 17,9 17,8.5"
           id="path63655"
           inkscape:connector-curvature="0" />
        <path
           style="fill:#000000;fill-opacity:0.45882353"
           d="M 4,9.5 4,9 4.5,9 5,9 5,9.5 5,10 4.5,10 4,10 4,9.5"
           id="path63657"
           inkscape:connector-curvature="0" />
        <path
           style="fill:#939788;fill-opacity:1"
           d="M 5,9.5 5,9 5.375,8.875 5.75,8.75 5.46875,8.84375 5.1875,8.9375 5.375,8.875 Q 5.5625,8.8125 5.71875,8.71875 L 5.875,8.625 5.796875,8.671875 5.71875,8.71875 6,9 6.28125,9.28125 6.328125,9.203125 6.375,9.125 6.28125,9.28125 Q 6.1875,9.4375 6.125,9.625 L 6.0625,9.8125 6.15625,9.53125 6.25,9.25 6.125,9.625 6,10 5.5,10 5,10 5,9.5"
           id="path63659"
           inkscape:connector-curvature="0" />
        <path
           style="fill:#bebd9c;fill-opacity:1"
           d="M 6.125,9.625 Q 6.25,9.25 6.5,9 L 6.75,8.75 7.03125,9.03125 7.3125,9.3125 7.375,9.25 7.4375,9.1875 7.3125,9.3125 Q 7.1875,9.4375 7.125,9.625 L 7.0625,9.8125 7.15625,9.53125 7.25,9.25 7.125,9.625 7,10 6.5,10 6,10 6.125,9.625 M 6.8125,8.6875 6.75,8.75 6.5625,8.9375 6.375,9.125 6.5,9 Q 6.625,8.875 6.75,8.75 L 6.875,8.625 6.8125,8.6875"
           id="path63661"
           inkscape:connector-curvature="0" />
        <path
           style="fill:#deddb3;fill-opacity:1"
           d="M 7.125,9.625 Q 7.25,9.25 7.625,9.125 L 8,9 8,9.5 8,10 7.5,10 7,10 7.125,9.625"
           id="path63663"
           inkscape:connector-curvature="0" />
        <path
           style="fill:#e7e7c1;fill-opacity:1"
           d="M 8,9.5 8,9 8.5,9 9,9 9,9.5 9,10 8.5,10 8,10 8,9.5"
           id="path63665"
           inkscape:connector-curvature="0" />
        <path
           style="fill:#e4e6be;fill-opacity:1"
           d="M 9,9.5 9,9 9.5,9 10,9 10,9.5 10,10 9.5,10 9,10 9,9.5"
           id="path63667"
           inkscape:connector-curvature="0" />
        <path
           style="fill:#e9eac3;fill-opacity:1"
           d="M 10,9.5 10,9 10.5,9 11,9 11,9.5 11,10 10.5,10 10,10 10,9.5"
           id="path63669"
           inkscape:connector-curvature="0" />
        <path
           style="fill:#ecebc5;fill-opacity:1"
           d="M 11,9.5 11,9 11.5,9 12,9 12,9.5 12,10 11.5,10 11,10 11,9.5"
           id="path63671"
           inkscape:connector-curvature="0" />
        <path
           style="fill:#eeefc9;fill-opacity:1"
           d="M 12,9.5 12,9 12.5,9 13,9 13,9.5 13,10 12.5,10 12,10 12,9.5"
           id="path63673"
           inkscape:connector-curvature="0" />
        <path
           style="fill:#f5f5d0;fill-opacity:1"
           d="M 13,9.5 13,9 13.5,9 14,9 14,9.5 14,10 13.5,10 13,10 13,9.5"
           id="path63675"
           inkscape:connector-curvature="0" />
        <path
           style="fill:#e9eac2;fill-opacity:1"
           d="M 14,9.5 14,9 14.5,9 15,9 15,9.5 15,10 14.5,10 14,10 14,9.5"
           id="path63677"
           inkscape:connector-curvature="0" />
        <path
           style="fill:#cccfae;fill-opacity:1"
           d="M 15,9.5 15,9 15.5,9 16,9 16,9.5 16,10 15.5,10 15,10 15,9.5"
           id="path63679"
           inkscape:connector-curvature="0" />
        <path
           style="fill:#868770;fill-opacity:1"
           d="M 16,9.5 16,9 16.5,9 17,9 17,9.5 17,10 16.5,10 16,10 16,9.5"
           id="path63681"
           inkscape:connector-curvature="0" />
        <path
           style="fill:#000000;fill-opacity:0.32156863"
           d="M 17,9.5 17,9 17.5,9 18,9 18,9.5 18,10 17.5,10 17,10 17,9.5"
           id="path63683"
           inkscape:connector-curvature="0" />
        <path
           style="fill:#000000;fill-opacity:0.42352941"
           d="M 4,10.5 4,10 4.5,10 5,10 5,10.5 5,11 4.5,11 4,11 4,10.5"
           id="path63685"
           inkscape:connector-curvature="0" />
        <path
           style="fill:#8f9582;fill-opacity:1"
           d="M 5,10.5 5,10 5.5,10 6,10 6.125,10.375 6.25,10.75 6.15625,10.46875 6.0625,10.1875 6.125,10.375 q 0.0625,0.1875 0.1875,0.3125 l 0.125,0.125 L 6.375,10.75 6.3125,10.6875 6,11 5.6875,11.3125 5.75,11.375 5.8125,11.4375 5.6875,11.3125 Q 5.5625,11.1875 5.375,11.125 L 5.1875,11.0625 5.46875,11.15625 5.75,11.25 5.375,11.125 5,11 5,10.5"
           id="path63687"
           inkscape:connector-curvature="0" />
        <path
           style="fill:#babc9d;fill-opacity:1"
           d="M 6.125,10.375 6,10 6.5,10 7,10 7,10.5 7,11 6.625,10.875 q -0.375,-0.125 -0.5,-0.5"
           id="path63689"
           inkscape:connector-curvature="0" />
        <path
           style="fill:#c2c49d;fill-opacity:1"
           d="M 7,10.5 7,10 7.5,10 8,10 8,10.5 8,11 7.5,11 7,11 7,10.5"
           id="path63691"
           inkscape:connector-curvature="0" />
        <path
           style="fill:#dadab5;fill-opacity:1"
           d="M 8,10.5 8,10 8.5,10 9,10 9,10.5 9,11 8.5,11 8,11 8,10.5"
           id="path63693"
           inkscape:connector-curvature="0" />
        <path
           style="fill:#dbdcb4;fill-opacity:1"
           d="M 9,10.5 9,10 9.5,10 10,10 10,10.5 10,11 9.5,11 9,11 9,10.5"
           id="path63695"
           inkscape:connector-curvature="0" />
        <path
           style="fill:#e4e4bf;fill-opacity:1"
           d="m 10,10.5 0,-0.5 0.5,0 0.5,0 0,0.5 0,0.5 -0.5,0 -0.5,0 0,-0.5"
           id="path63697"
           inkscape:connector-curvature="0" />
        <path
           style="fill:#eeeec8;fill-opacity:1"
           d="m 11,10.5 0,-0.5 0.5,0 0.5,0 0,0.5 0,0.5 -0.5,0 -0.5,0 0,-0.5"
           id="path63699"
           inkscape:connector-curvature="0" />
        <path
           style="fill:#f1f2cb;fill-opacity:1"
           d="m 12,10.5 0,-0.5 0.5,0 0.5,0 0,0.5 0,0.5 -0.5,0 -0.5,0 0,-0.5"
           id="path63701"
           inkscape:connector-curvature="0" />
        <path
           style="fill:#f4f5cf;fill-opacity:1"
           d="m 13,10.5 0,-0.5 0.5,0 0.5,0 0,0.5 0,0.5 -0.5,0 -0.5,0 0,-0.5"
           id="path63703"
           inkscape:connector-curvature="0" />
        <path
           style="fill:#e8eac4;fill-opacity:1"
           d="m 14,10.5 0,-0.5 0.5,0 0.5,0 0,0.5 0,0.5 -0.5,0 -0.5,0 0,-0.5"
           id="path63705"
           inkscape:connector-curvature="0" />
        <path
           style="fill:#d4d7b4;fill-opacity:1"
           d="m 15,10.5 0,-0.5 0.5,0 0.5,0 0,0.5 0,0.5 -0.5,0 -0.5,0 0,-0.5"
           id="path63707"
           inkscape:connector-curvature="0" />
        <path
           style="fill:#757560;fill-opacity:0.99215686"
           d="m 16,10.5 0,-0.5 0.5,0 0.5,0 0,0.5 0,0.5 -0.5,0 -0.5,0 0,-0.5"
           id="path63709"
           inkscape:connector-curvature="0" />
        <path
           style="fill:#000000;fill-opacity:0.23529412"
           d="m 17,10.5 0,-0.5 0.5,0 0.5,0 0,0.5 0,0.5 -0.5,0 -0.5,0 0,-0.5"
           id="path63711"
           inkscape:connector-curvature="0" />
        <path
           style="fill:#000000;fill-opacity:0.36078431"
           d="M 4,11.5 4,11 4.5,11 5,11 5,11.5 5,12 4.5,12 4,12 4,11.5"
           id="path63713"
           inkscape:connector-curvature="0" />
        <path
           style="fill:#787e6e;fill-opacity:1"
           d="M 5,11.5 5,11 5.375,11.125 q 0.375,0.125 0.5,0.5 L 6,12 5.5,12 5,12 5,11.5"
           id="path63715"
           inkscape:connector-curvature="0" />
        <path
           style="fill:#bcbfa3;fill-opacity:1"
           d="M 5.875,11.625 5.75,11.25 5.84375,11.53125 5.9375,11.8125 5.875,11.625 Q 5.8125,11.4375 5.6875,11.3125 L 5.5625,11.1875 5.625,11.25 5.6875,11.3125 6,11 6.3125,10.6875 6.25,10.625 6.1875,10.5625 l 0.125,0.125 q 0.125,0.125 0.3125,0.1875 L 6.8125,10.9375 6.53125,10.84375 6.25,10.75 6.625,10.875 7,11 7,11.5 7,12 6.5,12 6,12 5.875,11.625"
           id="path63717"
           inkscape:connector-curvature="0" />
        <path
           style="fill:#aeaf8c;fill-opacity:1"
           d="M 7,11.5 7,11 7.5,11 8,11 8,11.5 8,12 7.5,12 7,12 7,11.5"
           id="path63719"
           inkscape:connector-curvature="0" />
        <path
           style="fill:#d2d3ae;fill-opacity:1"
           d="M 8,11.5 8,11 8.5,11 9,11 9,11.5 9,12 8.5,12 8,12 8,11.5"
           id="path63721"
           inkscape:connector-curvature="0" />
        <path
           style="fill:#d1d1ac;fill-opacity:1"
           d="M 9,11.5 9,11 9.5,11 10,11 10,11.5 10,12 9.5,12 9,12 9,11.5"
           id="path63723"
           inkscape:connector-curvature="0" />
        <path
           style="fill:#dedeb9;fill-opacity:1"
           d="m 10,11.5 0,-0.5 0.5,0 0.5,0 0,0.5 0,0.5 -0.5,0 -0.5,0 0,-0.5"
           id="path63725"
           inkscape:connector-curvature="0" />
        <path
           style="fill:#eff0ca;fill-opacity:1"
           d="m 11,11.5 0,-0.5 0.5,0 0.5,0 0,0.5 0,0.5 -0.5,0 -0.5,0 0,-0.5"
           id="path63727"
           inkscape:connector-curvature="0" />
        <path
           style="fill:#f5f5d1;fill-opacity:1"
           d="m 12,11.5 0,-0.5 0.5,0 0.5,0 0.5,0 0.5,0 0,0.5 0,0.5 -0.5,0 -0.5,0 -0.5,0 -0.5,0 0,-0.5"
           id="path63729"
           inkscape:connector-curvature="0" />
        <path
           style="fill:#e7e7c1;fill-opacity:1"
           d="m 14,11.5 0,-0.5 0.5,0 0.5,0 0,0.5 0,0.5 -0.5,0 -0.5,0 0,-0.5"
           id="path63731"
           inkscape:connector-curvature="0" />
        <path
           style="fill:#d6d8b5;fill-opacity:1"
           d="m 15,11.5 0,-0.5 0.5,0 0.5,0 0,0.5 0,0.5 -0.5,0 -0.5,0 0,-0.5 m 1,0.625 0,-0.125 0,-0.375 0,-0.375 0,0.25 q 0,0.25 0,0.5 l 0,0.25 0,-0.125"
           id="path63733"
           inkscape:connector-curvature="0" />
        <path
           style="fill:#515142;fill-opacity:0.90588235"
           d="m 16,11.5 0,-0.5 0.5,0 0.5,0 -0.125,0.375 q -0.125,0.375 -0.5,0.5 L 16,12 16,11.5 m 0,0.125 0,0.375 0,0.125 0,0.125 0,-0.25 q 0,-0.25 0,-0.5 l 0,-0.25 0,0.375"
           id="path63735"
           inkscape:connector-curvature="0" />
        <path
           style="fill:#000000;fill-opacity:0.1372549"
           d="M 16.875,11.375 17,11 l 0.5,0 0.5,0 0,0.5 0,0.5 -0.375,0.125 -0.375,0.125 0.28125,-0.09375 0.28125,-0.09375 -0.1875,0.0625 q -0.1875,0.0625 -0.3125,0.1875 l -0.125,0.125 L 17.25,12.375 17.3125,12.3125 17,12 16.6875,11.6875 16.625,11.75 l -0.0625,0.0625 0.125,-0.125 q 0.125,-0.125 0.1875,-0.3125 L 16.9375,11.1875 16.84375,11.46875 16.75,11.75 16.875,11.375"
           id="path63737"
           inkscape:connector-curvature="0" />
        <path
           style="fill:#000000;fill-opacity:0.26666667"
           d="M 4,12.5 4,12 4.5,12 5,12 5.125,12.375 5.25,12.75 5.15625,12.46875 5.0625,12.1875 5.125,12.375 q 0.0625,0.1875 0.1875,0.3125 l 0.125,0.125 L 5.375,12.75 5.3125,12.6875 5,13 4.6875,13.3125 4.75,13.375 4.8125,13.4375 4.6875,13.3125 Q 4.5625,13.1875 4.375,13.125 L 4.1875,13.0625 4.46875,13.15625 4.75,13.25 4.375,13.125 4,13 4,12.5"
           id="path63739"
           inkscape:connector-curvature="0" />
        <path
           style="fill:#4d5349;fill-opacity:1"
           d="M 5.125,12.375 5,12 5.5,12 6,12 6,12.5 6,13 5.625,12.875 Q 5.25,12.75 5.125,12.375 M 6,13.125 6,13 6,12.625 6,12.25 6,12.5 q 0,0.25 0,0.5 l 0,0.25 0,-0.125"
           id="path63741"
           inkscape:connector-curvature="0" />
        <path
           style="fill:#b8baa2;fill-opacity:1"
           d="M 6,12.5 6,12 6.5,12 7,12 7,12.5 7,13 6.5,13 6,13 6,12.5 M 6,12.625 6,13 6,13.125 6,13.25 6,13 q 0,-0.25 0,-0.5 l 0,-0.25 0,0.375"
           id="path63743"
           inkscape:connector-curvature="0" />
        <path
           style="fill:#a8a789;fill-opacity:1"
           d="M 7,12.5 7,12 7.5,12 8,12 8,12.5 8,13 7.5,13 7,13 7,12.5"
           id="path63745"
           inkscape:connector-curvature="0" />
        <path
           style="fill:#c2c49d;fill-opacity:1"
           d="M 8,12.5 8,12 8.5,12 9,12 9,12.5 9,13 8.5,13 8,13 8,12.5"
           id="path63747"
           inkscape:connector-curvature="0" />
        <path
           style="fill:#c8c8a5;fill-opacity:1"
           d="M 9,12.5 9,12 9.5,12 10,12 10,12.5 10,13 9.5,13 9,13 9,12.5"
           id="path63749"
           inkscape:connector-curvature="0" />
        <path
           style="fill:#d5d6b0;fill-opacity:1"
           d="m 10,12.5 0,-0.5 0.5,0 0.5,0 0,0.5 0,0.5 -0.5,0 -0.5,0 0,-0.5"
           id="path63751"
           inkscape:connector-curvature="0" />
        <path
           style="fill:#f2f3cc;fill-opacity:1"
           d="m 11,12.5 0,-0.5 0.5,0 0.5,0 0,0.5 0,0.5 -0.5,0 -0.5,0 0,-0.5"
           id="path63753"
           inkscape:connector-curvature="0" />
        <path
           style="fill:#f9f9d5;fill-opacity:1"
           d="m 12,12.5 0,-0.5 0.5,0 0.5,0 0,0.5 0,0.5 -0.5,0 -0.5,0 0,-0.5"
           id="path63755"
           inkscape:connector-curvature="0" />
        <path
           style="fill:#f4f4cd;fill-opacity:1"
           d="m 13,12.5 0,-0.5 0.5,0 0.5,0 -0.125,0.375 q -0.125,0.375 -0.5,0.5 L 13,13 13,12.5"
           id="path63757"
           inkscape:connector-curvature="0" />
        <path
           style="fill:#e6e7c3;fill-opacity:1"
           d="M 13.875,12.375 14,12 l 0.5,0 0.5,0 -0.125,0.375 Q 14.75,12.75 14.5,13 L 14.25,13.25 13.96875,12.96875 13.6875,12.6875 13.625,12.75 l -0.0625,0.0625 0.125,-0.125 q 0.125,-0.125 0.1875,-0.3125 L 13.9375,12.1875 13.84375,12.46875 13.75,12.75 13.875,12.375 M 14.1875,13.3125 14.25,13.25 14.4375,13.0625 14.625,12.875 14.5,13 q -0.125,0.125 -0.25,0.25 l -0.125,0.125 0.0625,-0.0625"
           id="path63759"
           inkscape:connector-curvature="0" />
        <path
           style="fill:#d7d8bc;fill-opacity:1"
           d="M 14.875,12.375 15,12 l 0.5,0 0.5,0 0,0.5 0,0.5 -0.375,0.125 -0.375,0.125 0.28125,-0.09375 0.28125,-0.09375 -0.1875,0.0625 q -0.1875,0.0625 -0.3125,0.1875 l -0.125,0.125 L 15.25,13.375 15.3125,13.3125 15.015625,13.015625 14.71875,12.71875 14.671875,12.796875 14.625,12.875 14.71875,12.71875 Q 14.8125,12.5625 14.875,12.375 L 14.9375,12.1875 14.84375,12.46875 14.75,12.75 14.875,12.375 M 16,12.375 16,12 16,11.875 16,11.75 16,12 q 0,0.25 0,0.5 l 0,0.25 0,-0.375"
           id="path63761"
           inkscape:connector-curvature="0" />
        <path
           style="fill:#1a1a17;fill-opacity:0.56862745"
           d="M 16,12.5 16,12 16.375,11.875 16.75,11.75 16.46875,11.84375 16.1875,11.9375 16.375,11.875 q 0.1875,-0.0625 0.3125,-0.1875 l 0.125,-0.125 L 16.75,11.625 16.6875,11.6875 17,12 l 0.3125,0.3125 0.0625,-0.0625 0.0625,-0.0625 -0.125,0.125 q -0.125,0.125 -0.1875,0.3125 L 17.0625,12.8125 17.15625,12.53125 17.25,12.25 17.125,12.625 17,13 16.5,13 16,13 16,12.5 m 0,-0.625 0,0.125 0,0.375 0,0.375 0,-0.25 q 0,-0.25 0,-0.5 l 0,-0.25 0,0.125"
           id="path63763"
           inkscape:connector-curvature="0" />
        <path
           style="fill:#000000;fill-opacity:0.05098039"
           d="m 17.125,12.625 q 0.125,-0.375 0.5,-0.5 L 18,12 l 0,0.5 0,0.5 -0.5,0 -0.5,0 0.125,-0.375"
           id="path63765"
           inkscape:connector-curvature="0" />
        <path
           style="fill:#000000;fill-opacity:0.15686275"
           d="M 4,13.5 4,13 4.375,13.125 q 0.375,0.125 0.5,0.5 L 5,14 4.5,14 4,14 4,13.5"
           id="path63767"
           inkscape:connector-curvature="0" />
        <path
           style="fill:#1c1f1b;fill-opacity:0.91764706"
           d="M 4.875,13.625 4.75,13.25 4.84375,13.53125 4.9375,13.8125 4.875,13.625 Q 4.8125,13.4375 4.6875,13.3125 L 4.5625,13.1875 4.625,13.25 4.6875,13.3125 5,13 5.3125,12.6875 5.25,12.625 5.1875,12.5625 l 0.125,0.125 q 0.125,0.125 0.3125,0.1875 L 5.8125,12.9375 5.53125,12.84375 5.25,12.75 5.625,12.875 6,13 6,13.5 6,14 5.5,14 5,14 4.875,13.625 M 6,13.375 6,13 6,12.875 6,12.75 6,13 q 0,0.25 0,0.5 l 0,0.25 0,-0.375"
           id="path63769"
           inkscape:connector-curvature="0" />
        <path
           style="fill:#a0a28f;fill-opacity:1"
           d="M 6,13.5 6,13 6.5,13 7,13 7.125,13.375 7.25,13.75 7.15625,13.46875 7.0625,13.1875 7.125,13.375 q 0.0625,0.1875 0.1875,0.3125 l 0.125,0.125 L 7.375,13.75 7.3125,13.6875 7,14 6.6875,14.3125 6.75,14.375 6.8125,14.4375 6.6875,14.3125 Q 6.5625,14.1875 6.375,14.125 L 6.1875,14.0625 6.46875,14.15625 6.75,14.25 6.390625,14.109375 6.03125,13.96875 6.046875,14.078125 6.0625,14.1875 6.03125,13.96875 Q 6,13.75 6,13.5 L 6,13.25 6,13.625 6,14 6,13.5 M 6,12.875 6,13 6,13.375 6,13.75 6,13.5 Q 6,13.25 6,13 l 0,-0.25 0,0.125"
           id="path63771"
           inkscape:connector-curvature="0" />
        <path
           style="fill:#b4b398;fill-opacity:1"
           d="M 7.125,13.375 7,13 7.5,13 8,13 8,13.5 8,14 7.625,13.875 q -0.375,-0.125 -0.5,-0.5"
           id="path63773"
           inkscape:connector-curvature="0" />
        <path
           style="fill:#a5a583;fill-opacity:1"
           d="M 8,13.5 8,13 8.5,13 9,13 9,13.5 9,14 8.5,14 8,14 8,13.5"
           id="path63775"
           inkscape:connector-curvature="0" />
        <path
           style="fill:#c0c29e;fill-opacity:1"
           d="M 9,13.5 9,13 9.5,13 10,13 10,13.5 10,14 9.5,14 9,14 9,13.5"
           id="path63777"
           inkscape:connector-curvature="0" />
        <path
           style="fill:#ced0a8;fill-opacity:1"
           d="m 10,13.5 0,-0.5 0.5,0 0.5,0 0,0.5 0,0.5 -0.5,0 -0.5,0 0,-0.5"
           id="path63779"
           inkscape:connector-curvature="0" />
        <path
           style="fill:#f3f3cf;fill-opacity:1"
           d="m 11,13.5 0,-0.5 0.5,0 0.5,0 0,0.5 0,0.5 -0.5,0 -0.5,0 0,-0.5"
           id="path63781"
           inkscape:connector-curvature="0" />
        <path
           style="fill:#fcfcd8;fill-opacity:1"
           d="m 12,13.5 0,-0.5 0.5,0 0.5,0 0,0.5 0,0.5 -0.5,0 -0.5,0 0,-0.5"
           id="path63783"
           inkscape:connector-curvature="0" />
        <path
           style="fill:#eeefc4;fill-opacity:1"
           d="M 13,13.5 13,13 13.375,12.875 13.75,12.75 13.46875,12.84375 13.1875,12.9375 13.375,12.875 q 0.1875,-0.0625 0.3125,-0.1875 l 0.125,-0.125 -0.0625,0.0625 -0.0625,0.0625 0.28125,0.28125 L 14.25,13.25 14,13.5 q -0.25,0.25 -0.625,0.375 L 13,14 13,13.5 M 14.0625,13.4375 14.25,13.25 14.3125,13.1875 14.375,13.125 14.25,13.25 Q 14.125,13.375 14,13.5 l -0.125,0.125 0.1875,-0.1875"
           id="path63785"
           inkscape:connector-curvature="0" />
        <path
           style="fill:#eaebd2;fill-opacity:1"
           d="M 14,13.5 Q 14.25,13.25 14.5,13 L 14.75,12.75 14.5625,12.9375 14.375,13.125 14.5,13 q 0.125,-0.125 0.21875,-0.28125 l 0.09375,-0.15625 -0.04687,0.07813 -0.04687,0.07813 0.296875,0.296875 0.296875,0.296875 0.0625,-0.0625 0.0625,-0.0625 -0.125,0.125 q -0.125,0.125 -0.1875,0.3125 L 15.0625,13.8125 15.15625,13.53125 15.25,13.25 15.1875,13.6875 15.125,14.125 14.6875,14.1875 14.25,14.25 14.53125,14.15625 14.8125,14.0625 14.625,14.125 q -0.1875,0.0625 -0.34375,0.15625 L 14.125,14.375 14.203125,14.328125 14.28125,14.28125 14,14 l -0.28125,-0.28125 -0.07813,0.04687 -0.07813,0.04687 0.15625,-0.09375 Q 13.875,13.625 14,13.5 L 14.125,13.375 13.9375,13.5625 13.75,13.75 14,13.5"
           id="path63787"
           inkscape:connector-curvature="0" />
        <path
           style="fill:#b0afa2;fill-opacity:0.98823529"
           d="M 15.1875,13.6875 Q 15.25,13.25 15.625,13.125 L 16,13 16,13.5 Q 16,14 15.5,14 l -0.5,0 0.375,0 0.375,0 -0.25,0 q -0.25,0 -0.375,0.125 L 15,14.25 15.0625,14.1875 15.125,14.125 15.1875,13.6875"
           id="path63789"
           inkscape:connector-curvature="0" />
        <path
           style="fill:#000000;fill-opacity:0.25490196"
           d="m 16,13.5 0,-0.5 0.5,0 0.5,0 0,0.5 L 17,14 16.4375,13.9375 15.875,13.875 15.8125,13.9375 15.75,14 15.875,13.875 Q 16,13.75 16,13.5 l 0,-0.25 0,0.375 0,0.375 0,-0.5"
           id="path63791"
           inkscape:connector-curvature="0" />
        <path
           style="fill:#000000;fill-opacity:0.00784314"
           d="m 17,13.5 0,-0.5 0.5,0 0.5,0 0,0.5 Q 18,14 17.5,14 l -0.5,0 0,-0.5"
           id="path63793"
           inkscape:connector-curvature="0" />
        <path
           style="fill:#000000;fill-opacity:0.05490196"
           d="M 4,14.5 4,14 4.5,14 5,14 5,14.5 5,15 4.5,15 4,15 4,14.5"
           id="path63795"
           inkscape:connector-curvature="0" />
        <path
           style="fill:#040404;fill-opacity:0.54901961"
           d="M 5,14.5 5,14 5.5,14 6,14 6.125,14.375 6.25,14.75 6.15625,14.46875 6.0625,14.1875 6.125,14.375 q 0.0625,0.1875 0.1875,0.3125 l 0.125,0.125 L 6.375,14.75 6.3125,14.6875 6,15 5.6875,15.3125 5.75,15.375 5.8125,15.4375 5.6875,15.3125 Q 5.5625,15.1875 5.375,15.125 L 5.1875,15.0625 5.46875,15.15625 5.75,15.25 5.375,15.125 5,15 5,14.5"
           id="path63797"
           inkscape:connector-curvature="0" />
        <path
           style="fill:#62685b;fill-opacity:1"
           d="M 6.125,14.375 6,14 6.09375,14.28125 6.1875,14.5625 6.125,14.375 Q 6.0625,14.1875 6.03125,13.96875 L 6,13.75 6.015625,13.859375 6.03125,13.96875 6.390625,14.109375 Q 6.75,14.25 6.875,14.625 L 7,15 6.625,14.875 Q 6.25,14.75 6.125,14.375 M 7.03125,15.09375 7,15 6.90625,14.71875 6.8125,14.4375 6.875,14.625 Q 6.9375,14.8125 7,15 l 0.0625,0.1875 -0.03125,-0.09375"
           id="path63799"
           inkscape:connector-curvature="0" />
        <path
           style="fill:#c4c6ab;fill-opacity:1"
           d="M 6.875,14.625 6.75,14.25 6.84375,14.53125 6.9375,14.8125 6.875,14.625 Q 6.8125,14.4375 6.6875,14.3125 L 6.5625,14.1875 6.625,14.25 6.6875,14.3125 7,14 7.3125,13.6875 7.25,13.625 7.1875,13.5625 l 0.125,0.125 q 0.125,0.125 0.3125,0.1875 L 7.8125,13.9375 7.53125,13.84375 7.25,13.75 7.625,13.875 8,14 8,14.5 8,15 7.5,15 7,15 6.875,14.625"
           id="path63801"
           inkscape:connector-curvature="0" />
        <path
           style="fill:#9e9e80;fill-opacity:1"
           d="M 8,14.5 8,14 8.5,14 9,14 9,14.5 9,15 8.5,15 8,15 8,14.5"
           id="path63803"
           inkscape:connector-curvature="0" />
        <path
           style="fill:#a5a684;fill-opacity:1"
           d="M 9,14.5 9,14 9.5,14 10,14 10.125,14.375 10.25,14.75 10.15625,14.46875 10.0625,14.1875 10.125,14.375 q 0.0625,0.1875 0.15625,0.34375 L 10.375,14.875 10.328125,14.796875 10.28125,14.71875 10,15 9.71875,15.28125 9.796875,15.328125 9.875,15.375 9.71875,15.28125 Q 9.5625,15.1875 9.375,15.125 L 9.1875,15.0625 9.46875,15.15625 9.75,15.25 9.375,15.125 9,15 9,14.5"
           id="path63805"
           inkscape:connector-curvature="0" />
        <path
           style="fill:#cacba7;fill-opacity:1"
           d="M 10.125,14.375 10,14 l 0.5,0 0.5,0 0.125,0.375 0.125,0.375 -0.09375,-0.28125 -0.09375,-0.28125 0.0625,0.1875 q 0.0625,0.1875 0.1875,0.3125 l 0.125,0.125 -0.0625,-0.0625 -0.0625,-0.0625 -0.296875,0.296875 -0.296875,0.296875 0.04687,0.07813 0.04687,0.07813 -0.09375,-0.15625 Q 10.625,15.125 10.5,15 L 10.375,14.875 10.5625,15.0625 10.75,15.25 10.5,15 q -0.25,-0.25 -0.375,-0.625"
           id="path63807"
           inkscape:connector-curvature="0" />
        <path
           style="fill:#f5f5d1;fill-opacity:1"
           d="M 11.125,14.375 11,14 l 0.5,0 0.5,0 0,0.5 0,0.5 -0.375,-0.125 q -0.375,-0.125 -0.5,-0.5"
           id="path63809"
           inkscape:connector-curvature="0" />
        <path
           style="fill:#f8f8cf;fill-opacity:1"
           d="m 12,14.5 0,-0.5 0.5,0 0.5,0 -0.125,0.375 q -0.125,0.375 -0.5,0.5 L 12,15 12,14.5"
           id="path63811"
           inkscape:connector-curvature="0" />
        <path
           style="fill:#eaeac7;fill-opacity:1"
           d="M 12.875,14.375 13,14 13.375,13.875 13.75,13.75 13.46875,13.84375 13.1875,13.9375 13.375,13.875 q 0.1875,-0.0625 0.34375,-0.15625 L 13.875,13.625 13.796875,13.671875 13.71875,13.71875 14,14 l 0.28125,0.28125 0.07813,-0.04687 0.07813,-0.04687 -0.15625,0.09375 Q 14.125,14.375 14,14.5 L 13.875,14.625 14.0625,14.4375 14.25,14.25 14,14.5 Q 13.75,14.75 13.5,15 L 13.25,15.25 12.96875,14.96875 12.6875,14.6875 12.625,14.75 l -0.0625,0.0625 0.125,-0.125 q 0.125,-0.125 0.1875,-0.3125 L 12.9375,14.1875 12.84375,14.46875 12.75,14.75 12.875,14.375 M 13.1875,15.3125 13.25,15.25 13.4375,15.0625 13.625,14.875 13.5,15 q -0.125,0.125 -0.25,0.25 l -0.125,0.125 0.0625,-0.0625"
           id="path63813"
           inkscape:connector-curvature="0" />
        <path
           style="fill:#f0f0e6;fill-opacity:1"
           d="m 14,14.5 q 0.25,-0.25 0.6875,-0.3125 L 15.125,14.125 15.1875,14.0625 15.25,14 15.125,14.125 Q 15,14.25 15,14.5 l 0,0.25 0,-0.375 0,-0.375 0,0.5 0,0.5 -0.375,0.125 -0.375,0.125 0.28125,-0.09375 0.28125,-0.09375 -0.1875,0.0625 q -0.1875,0.0625 -0.34375,0.15625 L 14.125,15.375 14.203125,15.328125 14.28125,15.28125 14.015625,15.015625 13.75,14.75 14,14.5 M 13.9375,14.5625 13.75,14.75 13.6875,14.8125 13.625,14.875 13.75,14.75 Q 13.875,14.625 14,14.5 l 0.125,-0.125 -0.1875,0.1875"
           id="path63815"
           inkscape:connector-curvature="0" />
        <path
           style="fill:#484843;fill-opacity:0.74117647"
           d="M 15,14.5 Q 15,14 15.5,14 l 0.5,0 -0.375,0 -0.375,0 0.25,0 q 0.25,0 0.375,-0.125 L 16,13.75 15.9375,13.8125 15.875,13.875 15.8125,14.3125 Q 15.75,14.75 15.375,14.875 L 15,15 15,14.5"
           id="path63817"
           inkscape:connector-curvature="0" />
        <path
           style="fill:#000000;fill-opacity:0.10196078"
           d="M 15.8125,14.3125 15.875,13.875 16.4375,13.9375 17,14 17,14.5 17,15 16.625,15.125 16.25,15.25 16.53125,15.15625 16.8125,15.0625 16.625,15.125 q -0.1875,0.0625 -0.3125,0.1875 l -0.125,0.125 L 16.25,15.375 16.3125,15.3125 16,15 15.6875,14.6875 15.625,14.75 l -0.0625,0.0625 0.125,-0.125 q 0.125,-0.125 0.1875,-0.3125 L 15.9375,14.1875 15.84375,14.46875 15.75,14.75 15.8125,14.3125"
           id="path63819"
           inkscape:connector-curvature="0" />
        <path
           style="fill:#000000;fill-opacity:0.00784314"
           d="M 4,15.5 4,15 4.5,15 5,15 5,15.5 5,16 4.5,16 Q 4,16 4,15.5"
           id="path63821"
           inkscape:connector-curvature="0" />
        <path
           style="fill:#000000;fill-opacity:0.15686275"
           d="M 5,15.5 5,15 5.375,15.125 q 0.375,0.125 0.5,0.5 L 6,16 5.5,16 5,16 5,15.5"
           id="path63823"
           inkscape:connector-curvature="0" />
        <path
           style="fill:#181b1b;fill-opacity:0.86666667"
           d="M 5.875,15.625 5.75,15.25 5.84375,15.53125 5.9375,15.8125 5.875,15.625 Q 5.8125,15.4375 5.6875,15.3125 L 5.5625,15.1875 5.625,15.25 5.6875,15.3125 6,15 6.3125,14.6875 6.25,14.625 6.1875,14.5625 l 0.125,0.125 q 0.125,0.125 0.3125,0.1875 L 6.8125,14.9375 6.53125,14.84375 6.25,14.75 6.625,14.875 7,15 7.125,15.375 7.25,15.75 7.15625,15.46875 7.0625,15.1875 7.125,15.375 q 0.0625,0.1875 0.15625,0.34375 L 7.375,15.875 7.328125,15.796875 7.28125,15.71875 6.984375,16.015625 6.6875,16.3125 6.75,16.375 6.8125,16.4375 6.6875,16.3125 Q 6.5625,16.1875 6.375,16.125 L 6.1875,16.0625 6.46875,16.15625 6.75,16.25 6.375,16.125 6,16 5.875,15.625 M 7.09375,15.28125 7,15 6.96875,14.90625 6.9375,14.8125 7,15 q 0.0625,0.1875 0.125,0.375 l 0.0625,0.1875 -0.09375,-0.28125"
           id="path63825"
           inkscape:connector-curvature="0" />
        <path
           style="fill:#989b87;fill-opacity:1"
           d="M 7.125,15.375 7,15 7.5,15 8,15 8.125,15.375 8.25,15.75 8.15625,15.46875 8.0625,15.1875 8.125,15.375 q 0.0625,0.1875 0.15625,0.28125 L 8.375,15.75 8.328125,15.703125 8.28125,15.65625 8.015625,15.953125 7.75,16.25 7.5,16 Q 7.25,15.75 7.125,15.375 M 7.5625,16.0625 7.75,16.25 7.8125,16.3125 7.875,16.375 7.75,16.25 Q 7.625,16.125 7.5,16 l -0.125,-0.125 0.1875,0.1875"
           id="path63827"
           inkscape:connector-curvature="0" />
        <path
           style="fill:#c5c5a6;fill-opacity:1"
           d="M 8.125,15.375 8,15 8.5,15 9,15 8.875,15.375 Q 8.75,15.75 8.5,15.75 q -0.25,0 -0.375,-0.375"
           id="path63829"
           inkscape:connector-curvature="0" />
        <path
           style="fill:#959579;fill-opacity:1"
           d="M 8.875,15.375 9,15 9.375,15.125 Q 9.75,15.25 10,15.5 L 10.25,15.75 10.0625,15.5625 9.875,15.375 10,15.5 q 0.125,0.125 0.28125,0.21875 L 10.4375,15.8125 10.35937,15.76563 10.28124,15.71876 10.015615,16.015635 9.75,16.3125 9.8125,16.34375 9.875,16.375 9.75,16.3125 Q 9.625,16.25 9.5,16.25 l -0.125,0 0.1875,0 0.1875,0 -0.25,0 -0.25,0 0.1875,0 0.1875,0 -0.125,0 q -0.125,0 -0.1875,0.0625 L 9.25,16.375 9.28125,16.34375 9.3125,16.3125 9.015625,15.984375 8.71875,15.65625 8.671875,15.703125 8.625,15.75 8.71875,15.65625 Q 8.8125,15.5625 8.875,15.375 L 8.9375,15.1875 8.84375,15.46875 8.75,15.75 8.875,15.375"
           id="path63831"
           inkscape:connector-curvature="0" />
        <path
           style="fill:#b8b995;fill-opacity:1"
           d="M 10,15.5 9.75,15.25 9.9375,15.4375 10.125,15.625 10,15.5 Q 9.875,15.375 9.71875,15.28125 L 9.5625,15.1875 9.640625,15.234375 9.71875,15.28125 10,15 l 0.28125,-0.28125 -0.04687,-0.07813 -0.04687,-0.07813 0.09375,0.15625 Q 10.375,14.875 10.5,15 L 10.625,15.125 10.4375,14.9375 10.25,14.75 10.5,15 q 0.25,0.25 0.375,0.625 L 11,16 10.625,15.875 Q 10.25,15.75 10,15.5"
           id="path63833"
           inkscape:connector-curvature="0" />
        <path
           style="fill:#f1f2c8;fill-opacity:1"
           d="M 10.875,15.625 10.75,15.25 10.84375,15.53125 10.9375,15.8125 10.875,15.625 Q 10.8125,15.4375 10.71875,15.28125 L 10.625,15.125 l 0.04687,0.07813 0.04687,0.07813 0.296875,-0.296875 L 11.3125,14.6875 11.25,14.625 l -0.0625,-0.0625 0.125,0.125 q 0.125,0.125 0.3125,0.1875 L 11.8125,14.9375 11.53125,14.84375 11.25,14.75 11.625,14.875 12,15 11.875,15.375 q -0.125,0.375 -0.5,0.5 L 11,16 10.875,15.625"
           id="path63835"
           inkscape:connector-curvature="0" />
        <path
           style="fill:#f3f4cc;fill-opacity:1"
           d="M 11.875,15.375 12,15 12.375,14.875 12.75,14.75 12.46875,14.84375 12.1875,14.9375 12.375,14.875 q 0.1875,-0.0625 0.3125,-0.1875 l 0.125,-0.125 -0.0625,0.0625 -0.0625,0.0625 0.28125,0.28125 L 13.25,15.25 13,15.5 Q 12.75,15.75 12.5,16 L 12.25,16.25 11.96875,15.96875 11.6875,15.6875 11.625,15.75 l -0.0625,0.0625 0.125,-0.125 q 0.125,-0.125 0.1875,-0.3125 L 11.9375,15.1875 11.84375,15.46875 11.75,15.75 11.875,15.375 M 12.1875,16.3125 12.25,16.25 12.4375,16.0625 12.625,15.875 12.5,16 q -0.125,0.125 -0.25,0.25 l -0.125,0.125 0.0625,-0.0625 m 0.875,-0.875 L 13.25,15.25 13.3125,15.1875 13.375,15.125 13.25,15.25 Q 13.125,15.375 13,15.5 l -0.125,0.125 0.1875,-0.1875"
           id="path63837"
           inkscape:connector-curvature="0" />
        <path
           style="fill:#f8f8ed;fill-opacity:1"
           d="m 13,15.5 q 0.25,-0.25 0.5,-0.5 l 0.25,-0.25 0.265625,0.265625 0.265625,0.265625 0.07813,-0.04687 0.07813,-0.04687 -0.15625,0.09375 Q 14.125,15.375 14,15.5 L 13.875,15.625 14.0625,15.4375 14.25,15.25 14,15.5 Q 13.75,15.75 13.5,16 L 13.25,16.25 13,16 12.75,15.75 13,15.5 M 12.9375,15.5625 12.75,15.75 12.6875,15.8125 12.625,15.875 12.75,15.75 Q 12.875,15.625 13,15.5 l 0.125,-0.125 -0.1875,0.1875 m 0.25,0.75 L 13.25,16.25 13.4375,16.0625 13.625,15.875 13.5,16 q -0.125,0.125 -0.25,0.25 l -0.125,0.125 0.0625,-0.0625 m 0.625,-1.625 L 13.75,14.75 13.5625,14.9375 13.375,15.125 13.5,15 q 0.125,-0.125 0.25,-0.25 l 0.125,-0.125 -0.0625,0.0625"
           id="path63839"
           inkscape:connector-curvature="0" />
        <path
           style="fill:#a3a3a3;fill-opacity:0.97647059"
           d="m 14,15.5 q 0.25,-0.25 0.625,-0.375 L 15,15 14.875,15.375 Q 14.75,15.75 14.5,16 L 14.25,16.25 14,16 13.75,15.75 14,15.5 M 13.9375,15.5625 13.75,15.75 13.6875,15.8125 13.625,15.875 13.75,15.75 Q 13.875,15.625 14,15.5 l 0.125,-0.125 -0.1875,0.1875 m 0.25,0.75 L 14.25,16.25 14.4375,16.0625 14.625,15.875 14.5,16 q -0.125,0.125 -0.25,0.25 l -0.125,0.125 0.0625,-0.0625"
           id="path63841"
           inkscape:connector-curvature="0" />
        <path
           style="fill:#000000;fill-opacity:0.25098039"
           d="M 14.875,15.375 15,15 15.375,14.875 15.75,14.75 15.46875,14.84375 15.1875,14.9375 15.375,14.875 q 0.1875,-0.0625 0.3125,-0.1875 l 0.125,-0.125 L 15.75,14.625 15.6875,14.6875 16,15 l 0.3125,0.3125 0.0625,-0.0625 0.0625,-0.0625 -0.125,0.125 q -0.125,0.125 -0.1875,0.3125 L 16.0625,15.8125 16.15625,15.53125 16.25,15.25 16.125,15.625 16,16 15.625,16.125 15.25,16.25 15.53125,16.15625 15.8125,16.0625 15.625,16.125 q -0.1875,0.0625 -0.3125,0.1875 l -0.125,0.125 L 15.25,16.375 15.3125,16.3125 15.015625,16.015625 14.71875,15.71875 14.671875,15.796875 14.625,15.875 14.71875,15.71875 Q 14.8125,15.5625 14.875,15.375 L 14.9375,15.1875 14.84375,15.46875 14.75,15.75 14.875,15.375"
           id="path63843"
           inkscape:connector-curvature="0" />
        <path
           style="fill:#000000;fill-opacity:0.01960784"
           d="m 16.125,15.625 q 0.125,-0.375 0.5,-0.5 L 17,15 17,15.5 Q 17,16 16.5,16 l -0.5,0 0.125,-0.375"
           id="path63845"
           inkscape:connector-curvature="0" />
        <path
           style="fill:#000000;fill-opacity:0.03137255"
           d="M 5,16.5 5,16 5.5,16 6,16 6,16.5 6,17 5.5,17 Q 5,17 5,16.5"
           id="path63847"
           inkscape:connector-curvature="0" />
        <path
           style="fill:#000303;fill-opacity:0.30980392"
           d="M 6,16.5 6,16 6.375,16.125 q 0.375,0.125 0.5,0.5 L 7,17 6.5,17 6,17 6,16.5"
           id="path63849"
           inkscape:connector-curvature="0" />
        <path
           style="fill:#25312d;fill-opacity:0.97647059"
           d="M 6.875,16.625 6.75,16.25 6.84375,16.53125 6.9375,16.8125 6.875,16.625 Q 6.8125,16.4375 6.6875,16.3125 L 6.5625,16.1875 6.625,16.25 6.6875,16.3125 6.984375,16.015625 7.28125,15.71875 7.234375,15.640625 7.1875,15.5625 7.28125,15.71875 Q 7.375,15.875 7.5,16 L 7.625,16.125 7.4375,15.9375 7.25,15.75 7.5,16 Q 7.75,16.25 8,16.5 L 8.25,16.75 7.984375,17.015625 7.71875,17.28125 7.796875,17.328125 7.875,17.375 7.71875,17.28125 Q 7.5625,17.1875 7.375,17.125 L 7.1875,17.0625 7.46875,17.15625 7.75,17.25 7.375,17.125 7,17 6.875,16.625 M 8.3125,16.8125 8.25,16.75 8.0625,16.5625 7.875,16.375 8,16.5 q 0.125,0.125 0.25,0.25 l 0.125,0.125 -0.0625,-0.0625"
           id="path63851"
           inkscape:connector-curvature="0" />
        <path
           style="fill:#afb59d;fill-opacity:1"
           d="M 8,16.5 7.75,16.25 8.015625,15.953125 8.28125,15.65625 8.234375,15.609375 8.1875,15.5625 8.28125,15.65625 Q 8.375,15.75 8.5,15.75 l 0.125,0 -0.1875,0 -0.1875,0 0.25,0 0.25,0 -0.1875,0 -0.1875,0 0.125,0 q 0.125,0 0.21875,-0.09375 L 8.8125,15.5625 8.765625,15.609375 8.71875,15.65625 9.015625,15.984375 9.3125,16.3125 9.34375,16.28125 9.375,16.25 9.3125,16.3125 Q 9.25,16.375 9.25,16.5 l 0,0.125 0,-0.1875 0,-0.1875 0,0.25 0,0.25 0,-0.1875 0,-0.1875 0,0.125 q 0,0.125 0.0625,0.25 L 9.375,16.875 9.34375,16.8125 9.3125,16.75 9.03125,17 8.75,17.25 8.5,17 Q 8.25,16.75 8,16.5 M 8.5625,17.0625 8.75,17.25 8.8125,17.3125 8.875,17.375 8.75,17.25 Q 8.625,17.125 8.5,17 L 8.375,16.875 8.5625,17.0625 M 7.6875,16.1875 7.75,16.25 7.9375,16.4375 8.125,16.625 8,16.5 Q 7.875,16.375 7.75,16.25 l -0.125,-0.125 0.0625,0.0625"
           id="path63853"
           inkscape:connector-curvature="0" />
        <path
           style="fill:#cbcaaf;fill-opacity:1"
           d="m 9.25,16.5 q 0,-0.25 0.25,-0.25 0.25,0 0.5,0.25 L 10.25,16.75 10.0625,16.5625 9.875,16.375 10,16.5 q 0.125,0.125 0.25,0.1875 L 10.375,16.75 10.3125,16.71875 10.25,16.6875 10,16.96875 9.75,17.25 9.5,17 Q 9.25,16.75 9.25,16.5 M 9.5625,17.0625 9.75,17.25 9.8125,17.3125 9.875,17.375 9.75,17.25 Q 9.625,17.125 9.5,17 l -0.125,-0.125 0.1875,0.1875"
           id="path63855"
           inkscape:connector-curvature="0" />
        <path
           style="fill:#bcbd99;fill-opacity:1"
           d="M 10,16.5 9.75,16.25 9.9375,16.4375 10.125,16.625 10,16.5 Q 9.875,16.375 9.75,16.3125 L 9.625,16.25 9.6875,16.28125 9.75,16.3125 10.015625,16.015625 10.28125,15.71875 10.203125,15.671875 10.125,15.625 10.28125,15.71875 Q 10.4375,15.8125 10.625,15.875 L 10.8125,15.9375 10.53125,15.84375 10.25,15.75 10.625,15.875 11,16 10.875,16.375 Q 10.75,16.75 10.5,16.75 10.25,16.75 10,16.5"
           id="path63857"
           inkscape:connector-curvature="0" />
        <path
           style="fill:#edeecb;fill-opacity:1"
           d="M 10.875,16.375 11,16 11.375,15.875 11.75,15.75 11.46875,15.84375 11.1875,15.9375 11.375,15.875 q 0.1875,-0.0625 0.3125,-0.1875 l 0.125,-0.125 -0.0625,0.0625 -0.0625,0.0625 0.28125,0.28125 L 12.25,16.25 12,16.5 Q 11.75,16.75 11.5,17 L 11.25,17.25 11.4375,17.0625 11.625,16.875 11.5,17 q -0.125,0.125 -0.21875,0.28125 L 11.1875,17.4375 11.23437,17.35937 11.28124,17.28124 11,16.96875 10.71875,16.65625 10.671875,16.703125 10.625,16.75 10.71875,16.65625 Q 10.8125,16.5625 10.875,16.375 L 10.9375,16.1875 10.84375,16.46875 10.75,16.75 10.875,16.375 M 12.0625,16.4375 12.25,16.25 12.3125,16.1875 12.375,16.125 12.25,16.25 Q 12.125,16.375 12,16.5 l -0.125,0.125 0.1875,-0.1875"
           id="path63859"
           inkscape:connector-curvature="0" />
        <path
           style="fill:#fffff5;fill-opacity:1"
           d="M 12,16.5 Q 12.25,16.25 12.5,16 L 12.75,15.75 13,16 13.25,16.25 13,16.5 Q 12.75,16.75 12.5,17 L 12.25,17.25 12.4375,17.0625 12.625,16.875 12.5,17 q -0.125,0.125 -0.21875,0.28125 L 12.1875,17.4375 12.23437,17.35937 12.28124,17.28124 12.015625,17.015625 11.75,16.75 12,16.5 M 11.9375,16.5625 11.75,16.75 11.6875,16.8125 11.625,16.875 11.75,16.75 Q 11.875,16.625 12,16.5 l 0.125,-0.125 -0.1875,0.1875 m 1.125,-0.125 L 13.25,16.25 13.3125,16.1875 13.375,16.125 13.25,16.25 Q 13.125,16.375 13,16.5 l -0.125,0.125 0.1875,-0.1875 m -0.25,-0.75 L 12.75,15.75 12.5625,15.9375 12.375,16.125 12.5,16 q 0.125,-0.125 0.25,-0.25 l 0.125,-0.125 -0.0625,0.0625"
           id="path63861"
           inkscape:connector-curvature="0" />
        <path
           style="fill:#cacac9;fill-opacity:1"
           d="M 13,16.5 Q 13.25,16.25 13.5,16 L 13.75,15.75 14,16 14.25,16.25 14,16.5 Q 13.75,16.75 13.5,17 L 13.25,17.25 13,17 12.75,16.75 13,16.5 M 12.9375,16.5625 12.75,16.75 12.6875,16.8125 12.625,16.875 12.75,16.75 Q 12.875,16.625 13,16.5 l 0.125,-0.125 -0.1875,0.1875 m 0.25,0.75 L 13.25,17.25 13.4375,17.0625 13.625,16.875 13.5,17 q -0.125,0.125 -0.25,0.25 l -0.125,0.125 0.0625,-0.0625 m 0.875,-0.875 L 14.25,16.25 14.3125,16.1875 14.375,16.125 14.25,16.25 Q 14.125,16.375 14,16.5 l -0.125,0.125 0.1875,-0.1875 m -0.25,-0.75 L 13.75,15.75 13.5625,15.9375 13.375,16.125 13.5,16 q 0.125,-0.125 0.25,-0.25 l 0.125,-0.125 -0.0625,0.0625"
           id="path63863"
           inkscape:connector-curvature="0" />
        <path
           style="fill:#0d0d0d;fill-opacity:0.4627451"
           d="M 14,16.5 Q 14.25,16.25 14.5,16 L 14.75,15.75 14.5625,15.9375 14.375,16.125 14.5,16 q 0.125,-0.125 0.21875,-0.28125 l 0.09375,-0.15625 -0.04687,0.07813 -0.04687,0.07813 0.296875,0.296875 0.296875,0.296875 0.0625,-0.0625 0.0625,-0.0625 -0.125,0.125 q -0.125,0.125 -0.1875,0.3125 L 15.0625,16.8125 15.15625,16.53125 15.25,16.25 15.125,16.625 15,17 14.625,17.125 14.25,17.25 14.53125,17.15625 14.8125,17.0625 14.625,17.125 q -0.1875,0.0625 -0.3125,0.1875 l -0.125,0.125 L 14.25,17.375 14.3125,17.3125 14.03125,17.03125 13.75,16.75 14,16.5 M 13.9375,16.5625 13.75,16.75 13.6875,16.8125 13.625,16.875 13.75,16.75 Q 13.875,16.625 14,16.5 l 0.125,-0.125 -0.1875,0.1875"
           id="path63865"
           inkscape:connector-curvature="0" />
        <path
           style="fill:#000000;fill-opacity:0.0627451"
           d="m 15.125,16.625 q 0.125,-0.375 0.5,-0.5 L 16,16 16,16.5 Q 16,17 15.5,17 l -0.5,0 0.125,-0.375"
           id="path63867"
           inkscape:connector-curvature="0" />
        <path
           style="fill:#000000;fill-opacity:0.05490196"
           d="M 6,17.5 6,17 6.5,17 7,17 7,17.5 7,18 6.5,18 6,18 6,17.5"
           id="path63869"
           inkscape:connector-curvature="0" />
        <path
           style="fill:#020707;fill-opacity:0.41568627"
           d="M 7,17.5 7,17 7.375,17.125 Q 7.75,17.25 8,17.5 L 8.25,17.75 7.96875,18.03125 7.6875,18.3125 7.75,18.375 7.8125,18.4375 7.6875,18.3125 Q 7.5625,18.1875 7.375,18.125 L 7.1875,18.0625 7.46875,18.15625 7.75,18.25 7.375,18.125 7,18 7,17.5 M 8.3125,17.8125 8.25,17.75 8.0625,17.5625 7.875,17.375 8,17.5 q 0.125,0.125 0.25,0.25 l 0.125,0.125 -0.0625,-0.0625"
           id="path63871"
           inkscape:connector-curvature="0" />
        <path
           style="fill:#303c38;fill-opacity:0.97647059"
           d="M 8,17.5 7.75,17.25 7.9375,17.4375 8.125,17.625 8,17.5 Q 7.875,17.375 7.71875,17.28125 L 7.5625,17.1875 7.640625,17.234375 7.71875,17.28125 7.984375,17.015625 8.25,16.75 8.5,17 Q 8.75,17.25 9,17.5 L 9.25,17.75 8.984375,18.015625 8.71875,18.28125 8.765625,18.359375 8.8125,18.4375 8.71875,18.28125 Q 8.625,18.125 8.5,18 L 8.375,17.875 8.5625,18.0625 8.75,18.25 8.5,18 Q 8.25,17.75 8,17.5 M 9.3125,17.8125 9.25,17.75 9.0625,17.5625 8.875,17.375 9,17.5 q 0.125,0.125 0.25,0.25 L 9.375,17.875 9.3125,17.8125 M 8.4375,16.9375 8.25,16.75 8.1875,16.6875 8.125,16.625 8.25,16.75 Q 8.375,16.875 8.5,17 l 0.125,0.125 -0.1875,-0.1875"
           id="path63873"
           inkscape:connector-curvature="0" />
        <path
           style="fill:#a2a995;fill-opacity:1"
           d="M 9,17.5 8.75,17.25 9.03125,17 9.3125,16.75 9.28125,16.6875 9.25,16.625 9.3125,16.75 Q 9.375,16.875 9.5,17 L 9.625,17.125 9.4375,16.9375 9.25,16.75 9.5,17 q 0.25,0.25 0.5,0.5 L 10.25,17.75 10.0625,17.5625 9.875,17.375 10,17.5 q 0.125,0.125 0.28125,0.21875 L 10.4375,17.8125 10.35937,17.76563 10.28124,17.71876 10.015615,17.984385 9.75,18.25 9.5,18 Q 9.25,17.75 9,17.5 M 9.5625,18.0625 9.75,18.25 9.8125,18.3125 9.875,18.375 9.75,18.25 Q 9.625,18.125 9.5,18 L 9.375,17.875 9.5625,18.0625 M 8.6875,17.1875 8.75,17.25 8.9375,17.4375 9.125,17.625 9,17.5 Q 8.875,17.375 8.75,17.25 l -0.125,-0.125 0.0625,0.0625"
           id="path63875"
           inkscape:connector-curvature="0" />
        <path
           style="fill:#e6e6cf;fill-opacity:1"
           d="M 10,17.5 9.75,17.25 10,16.96875 10.25,16.6875 10.1875,16.65625 10.125,16.625 10.25,16.6875 Q 10.375,16.75 10.5,16.75 l 0.125,0 -0.1875,0 -0.1875,0 0.25,0 0.25,0 -0.1875,0 -0.1875,0 0.125,0 q 0.125,0 0.21875,-0.09375 l 0.09375,-0.09375 -0.04687,0.04687 -0.04687,0.04687 0.28125,0.3125 0.28125,0.3125 0.04687,-0.07813 L 11.375,17.125 11.28125,17.28125 Q 11.1875,17.4375 11.125,17.625 L 11.0625,17.8125 11.15625,17.53125 11.25,17.25 11.125,17.625 11,18 10.625,17.875 Q 10.25,17.75 10,17.5 M 9.6875,17.1875 9.75,17.25 9.9375,17.4375 10.125,17.625 10,17.5 Q 9.875,17.375 9.75,17.25 l -0.125,-0.125 0.0625,0.0625"
           id="path63877"
           inkscape:connector-curvature="0" />
        <path
           style="fill:#f8f9ea;fill-opacity:1"
           d="M 11.125,17.625 Q 11.25,17.25 11.5,17 l 0.25,-0.25 0.265625,0.265625 0.265625,0.265625 0.04687,-0.07813 L 12.375,17.125 12.28125,17.28125 Q 12.1875,17.4375 12.125,17.625 L 12.0625,17.8125 12.15625,17.53125 12.25,17.25 12.125,17.625 12,18 11.5,18 11,18 11.125,17.625 M 11.8125,16.6875 11.75,16.75 11.5625,16.9375 11.375,17.125 11.5,17 q 0.125,-0.125 0.25,-0.25 l 0.125,-0.125 -0.0625,0.0625"
           id="path63879"
           inkscape:connector-curvature="0" />
        <path
           style="fill:#c2c2bf;fill-opacity:1"
           d="M 12.125,17.625 Q 12.25,17.25 12.5,17 L 12.75,16.75 13,17 13.25,17.25 13,17.5 q -0.25,0.25 -0.625,0.375 L 12,18 12.125,17.625 M 13.0625,17.4375 13.25,17.25 13.3125,17.1875 13.375,17.125 13.25,17.25 Q 13.125,17.375 13,17.5 l -0.125,0.125 0.1875,-0.1875 m -0.25,-0.75 L 12.75,16.75 12.5625,16.9375 12.375,17.125 12.5,17 q 0.125,-0.125 0.25,-0.25 l 0.125,-0.125 -0.0625,0.0625"
           id="path63881"
           inkscape:connector-curvature="0" />
        <path
           style="fill:#1e1e1e;fill-opacity:0.64313725"
           d="m 13,17.5 q 0.25,-0.25 0.5,-0.5 l 0.25,-0.25 0.28125,0.28125 0.28125,0.28125 0.0625,-0.0625 0.0625,-0.0625 -0.125,0.125 q -0.125,0.125 -0.1875,0.3125 L 14.0625,17.8125 14.15625,17.53125 14.25,17.25 14.125,17.625 14,18 13.625,18.125 13.25,18.25 13.53125,18.15625 13.8125,18.0625 13.625,18.125 q -0.1875,0.0625 -0.3125,0.1875 l -0.125,0.125 0.0625,-0.0625 0.0625,-0.0625 -0.296875,-0.296875 -0.296875,-0.296875 -0.07813,0.04687 -0.07813,0.04687 0.15625,-0.09375 Q 12.875,17.625 13,17.5 L 13.125,17.375 12.9375,17.5625 12.75,17.75 13,17.5 M 13.8125,16.6875 13.75,16.75 13.5625,16.9375 13.375,17.125 13.5,17 q 0.125,-0.125 0.25,-0.25 l 0.125,-0.125 -0.0625,0.0625"
           id="path63883"
           inkscape:connector-curvature="0" />
        <path
           style="fill:#000000;fill-opacity:0.10588235"
           d="m 14.125,17.625 q 0.125,-0.375 0.5,-0.5 L 15,17 l 0,0.5 0,0.5 -0.5,0 -0.5,0 0.125,-0.375"
           id="path63885"
           inkscape:connector-curvature="0" />
        <path
           style="fill:#000000;fill-opacity:0.00392157"
           d="M 6,18.5 6,18 6.5,18 7,18 7,18.5 7,19 6.5,19 Q 6,19 6,18.5"
           id="path63887"
           inkscape:connector-curvature="0" />
        <path
           style="fill:#000000;fill-opacity:0.07058824"
           d="M 7,18.5 7,18 7.375,18.125 q 0.375,0.125 0.5,0.5 L 8,19 7.5,19 7,19 7,18.5"
           id="path63889"
           inkscape:connector-curvature="0" />
        <path
           style="fill:#030505;fill-opacity:0.37254902"
           d="M 7.875,18.625 7.75,18.25 7.84375,18.53125 7.9375,18.8125 7.875,18.625 Q 7.8125,18.4375 7.6875,18.3125 L 7.5625,18.1875 7.625,18.25 7.6875,18.3125 7.96875,18.03125 8.25,17.75 8.5,18 q 0.25,0.25 0.375,0.625 L 9,19 8.5,19 8,19 7.875,18.625 M 8.4375,17.9375 8.25,17.75 8.1875,17.6875 8.125,17.625 8.25,17.75 Q 8.375,17.875 8.5,18 l 0.125,0.125 -0.1875,-0.1875"
           id="path63891"
           inkscape:connector-curvature="0" />
        <path
           style="fill:#161918;fill-opacity:0.94509804"
           d="M 8.875,18.625 8.75,18.25 8.84375,18.53125 8.9375,18.8125 8.875,18.625 Q 8.8125,18.4375 8.71875,18.28125 L 8.625,18.125 8.671875,18.203125 8.71875,18.28125 8.984375,18.015625 9.25,17.75 9.5,18 q 0.25,0.25 0.5,0.5 L 10.25,18.75 10.0625,18.5625 9.875,18.375 10,18.5 q 0.125,0.125 0.28125,0.21875 L 10.4375,18.8125 10.359375,18.765625 10.28125,18.71875 9.984375,19.015625 9.6875,19.3125 9.75,19.375 9.8125,19.4375 9.6875,19.3125 Q 9.5625,19.1875 9.375,19.125 L 9.1875,19.0625 9.46875,19.15625 9.75,19.25 9.375,19.125 9,19 8.875,18.625 M 9.4375,17.9375 9.25,17.75 9.1875,17.6875 9.125,17.625 9.25,17.75 Q 9.375,17.875 9.5,18 l 0.125,0.125 -0.1875,-0.1875"
           id="path63893"
           inkscape:connector-curvature="0" />
        <path
           style="fill:#7b7c72;fill-opacity:1"
           d="M 10,18.5 9.75,18.25 10.015625,17.984375 10.28125,17.71875 10.203125,17.671875 10.125,17.625 10.28125,17.71875 Q 10.4375,17.8125 10.625,17.875 L 10.8125,17.9375 10.53125,17.84375 10.25,17.75 10.625,17.875 11,18 11,18.5 11,19 10.625,18.875 Q 10.25,18.75 10,18.5 M 9.6875,18.1875 9.75,18.25 9.9375,18.4375 10.125,18.625 10,18.5 Q 9.875,18.375 9.75,18.25 l -0.125,-0.125 0.0625,0.0625"
           id="path63895"
           inkscape:connector-curvature="0" />
        <path
           style="fill:#71726b;fill-opacity:0.99215686"
           d="m 11,18.5 0,-0.5 0.5,0 0.5,0 -0.125,0.375 q -0.125,0.375 -0.5,0.5 L 11,19 11,18.5"
           id="path63897"
           inkscape:connector-curvature="0" />
        <path
           style="fill:#131010;fill-opacity:0.61568627"
           d="M 11.875,18.375 12,18 12.375,17.875 12.75,17.75 12.46875,17.84375 12.1875,17.9375 12.375,17.875 q 0.1875,-0.0625 0.34375,-0.15625 L 12.875,17.625 l -0.07813,0.04687 -0.07813,0.04687 0.296875,0.296875 0.296875,0.296875 0.0625,-0.0625 0.0625,-0.0625 -0.125,0.125 q -0.125,0.125 -0.1875,0.3125 L 13.0625,18.8125 13.15625,18.53125 13.25,18.25 13.125,18.625 13,19 12.625,19.125 12.25,19.25 12.53125,19.15625 12.8125,19.0625 12.625,19.125 q -0.1875,0.0625 -0.3125,0.1875 l -0.125,0.125 L 12.25,19.375 12.3125,19.3125 12,19 11.6875,18.6875 11.625,18.75 l -0.0625,0.0625 0.125,-0.125 q 0.125,-0.125 0.1875,-0.3125 L 11.9375,18.1875 11.84375,18.46875 11.75,18.75 11.875,18.375"
           id="path63899"
           inkscape:connector-curvature="0" />
        <path
           style="fill:#000000;fill-opacity:0.12941176"
           d="m 13.125,18.625 q 0.125,-0.375 0.5,-0.5 L 14,18 l 0,0.5 0,0.5 -0.5,0 -0.5,0 0.125,-0.375"
           id="path63901"
           inkscape:connector-curvature="0" />
        <path
           style="fill:#000000;fill-opacity:0.01568627"
           d="m 14,18.5 0,-0.5 0.5,0 0.5,0 0,0.5 Q 15,19 14.5,19 l -0.5,0 0,-0.5"
           id="path63903"
           inkscape:connector-curvature="0" />
        <path
           style="fill:#000000;fill-opacity:0.05098039"
           d="M 8,19.5 8,19 8.5,19 9,19 9,19.5 9,20 8.5,20 Q 8,20 8,19.5"
           id="path63905"
           inkscape:connector-curvature="0" />
        <path
           style="fill:#000000;fill-opacity:0.18431373"
           d="M 9,19.5 9,19 9.375,19.125 q 0.375,0.125 0.5,0.5 L 10,20 9.5,20 9,20 9,19.5"
           id="path63907"
           inkscape:connector-curvature="0" />
        <path
           style="fill:#000000;fill-opacity:0.29411765"
           d="M 9.875,19.625 9.75,19.25 9.84375,19.53125 9.9375,19.8125 9.875,19.625 Q 9.8125,19.4375 9.6875,19.3125 L 9.5625,19.1875 9.625,19.25 9.6875,19.3125 9.984375,19.015625 10.28125,18.71875 10.203125,18.671875 10.125,18.625 10.28125,18.71875 Q 10.4375,18.8125 10.625,18.875 L 10.8125,18.9375 10.53125,18.84375 10.25,18.75 10.625,18.875 11,19 11,19.5 11,20 10.5,20 10,20 9.875,19.625"
           id="path63909"
           inkscape:connector-curvature="0" />
        <path
           style="fill:#000000;fill-opacity:0.23137255"
           d="M 11,19.5 11,19 11.375,18.875 11.75,18.75 11.46875,18.84375 11.1875,18.9375 11.375,18.875 q 0.1875,-0.0625 0.3125,-0.1875 l 0.125,-0.125 L 11.75,18.625 11.6875,18.6875 12,19 l 0.3125,0.3125 0.0625,-0.0625 0.0625,-0.0625 -0.125,0.125 q -0.125,0.125 -0.1875,0.3125 L 12.0625,19.8125 12.15625,19.53125 12.25,19.25 12.125,19.625 12,20 11.5,20 11,20 11,19.5"
           id="path63911"
           inkscape:connector-curvature="0" />
        <path
           style="fill:#000000;fill-opacity:0.09019608"
           d="m 12.125,19.625 q 0.125,-0.375 0.5,-0.5 L 13,19 l 0,0.5 0,0.5 -0.5,0 -0.5,0 0.125,-0.375"
           id="path63913"
           inkscape:connector-curvature="0" />
        <path
           style="fill:#000000;fill-opacity:0.01176471"
           d="m 13,19.5 0,-0.5 0.5,0 0.5,0 0,0.5 Q 14,20 13.5,20 l -0.5,0 0,-0.5"
           id="path63915"
           inkscape:connector-curvature="0" />
      </g>
    </g>
  </g>
</svg>
